<?xml version="1.0" encoding="utf-8" standalone="no"?>
<!DOCTYPE svg PUBLIC "-//W3C//DTD SVG 1.1//EN"
  "http://www.w3.org/Graphics/SVG/1.1/DTD/svg11.dtd">
<svg xmlns:xlink="http://www.w3.org/1999/xlink" width="487.840625pt" height="266.51625pt" viewBox="0 0 487.840625 266.51625" xmlns="http://www.w3.org/2000/svg" version="1.1">
 <metadata>
  <rdf:RDF xmlns:dc="http://purl.org/dc/elements/1.1/" xmlns:cc="http://creativecommons.org/ns#" xmlns:rdf="http://www.w3.org/1999/02/22-rdf-syntax-ns#">
   <cc:Work>
    <dc:type rdf:resource="http://purl.org/dc/dcmitype/StillImage"/>
    <dc:date>2023-12-30T12:41:53.726988</dc:date>
    <dc:format>image/svg+xml</dc:format>
    <dc:creator>
     <cc:Agent>
      <dc:title>Matplotlib v3.8.2, https://matplotlib.org/</dc:title>
     </cc:Agent>
    </dc:creator>
   </cc:Work>
  </rdf:RDF>
 </metadata>
 <defs>
  <style type="text/css">*{stroke-linejoin: round; stroke-linecap: butt}</style>
 </defs>
 <g id="figure_1">
  <g id="axes_1">
   <g id="matplotlib.axis_1">
    <g id="xtick_1">
     <g id="line2d_1">
      <path d="M 54.531534 108 
L 54.531534 7.2 
" clip-path="url(#p0a82ac977f)" style="fill: none; stroke: #000000; stroke-opacity: 0.15; stroke-width: 0.8; stroke-linecap: square"/>
     </g>
     <g id="line2d_2">
      <defs>
       <path id="m72bdd46b80" d="M 0 0 
L 0 3.5 
" style="stroke: #000000; stroke-width: 0.8"/>
      </defs>
      <g>
       <use xlink:href="#m72bdd46b80" x="54.531534" y="108" style="stroke: #000000; stroke-width: 0.8"/>
      </g>
     </g>
     <g id="text_1">
      <!-- 0.0 -->
      <g transform="translate(46.579972 122.598437) scale(0.1 -0.1)">
       <defs>
        <path id="DejaVuSans-30" d="M 2034 4250 
Q 1547 4250 1301 3770 
Q 1056 3291 1056 2328 
Q 1056 1369 1301 889 
Q 1547 409 2034 409 
Q 2525 409 2770 889 
Q 3016 1369 3016 2328 
Q 3016 3291 2770 3770 
Q 2525 4250 2034 4250 
z
M 2034 4750 
Q 2819 4750 3233 4129 
Q 3647 3509 3647 2328 
Q 3647 1150 3233 529 
Q 2819 -91 2034 -91 
Q 1250 -91 836 529 
Q 422 1150 422 2328 
Q 422 3509 836 4129 
Q 1250 4750 2034 4750 
z
" transform="scale(0.015625)"/>
        <path id="DejaVuSans-2e" d="M 684 794 
L 1344 794 
L 1344 0 
L 684 0 
L 684 794 
z
" transform="scale(0.015625)"/>
       </defs>
       <use xlink:href="#DejaVuSans-30"/>
       <use xlink:href="#DejaVuSans-2e" x="63.623047"/>
       <use xlink:href="#DejaVuSans-30" x="95.410156"/>
      </g>
     </g>
    </g>
    <g id="xtick_2">
     <g id="line2d_3">
      <path d="M 135.69517 108 
L 135.69517 7.2 
" clip-path="url(#p0a82ac977f)" style="fill: none; stroke: #000000; stroke-opacity: 0.15; stroke-width: 0.8; stroke-linecap: square"/>
     </g>
     <g id="line2d_4">
      <g>
       <use xlink:href="#m72bdd46b80" x="135.69517" y="108" style="stroke: #000000; stroke-width: 0.8"/>
      </g>
     </g>
     <g id="text_2">
      <!-- 0.2 -->
      <g transform="translate(127.743608 122.598437) scale(0.1 -0.1)">
       <defs>
        <path id="DejaVuSans-32" d="M 1228 531 
L 3431 531 
L 3431 0 
L 469 0 
L 469 531 
Q 828 903 1448 1529 
Q 2069 2156 2228 2338 
Q 2531 2678 2651 2914 
Q 2772 3150 2772 3378 
Q 2772 3750 2511 3984 
Q 2250 4219 1831 4219 
Q 1534 4219 1204 4116 
Q 875 4013 500 3803 
L 500 4441 
Q 881 4594 1212 4672 
Q 1544 4750 1819 4750 
Q 2544 4750 2975 4387 
Q 3406 4025 3406 3419 
Q 3406 3131 3298 2873 
Q 3191 2616 2906 2266 
Q 2828 2175 2409 1742 
Q 1991 1309 1228 531 
z
" transform="scale(0.015625)"/>
       </defs>
       <use xlink:href="#DejaVuSans-30"/>
       <use xlink:href="#DejaVuSans-2e" x="63.623047"/>
       <use xlink:href="#DejaVuSans-32" x="95.410156"/>
      </g>
     </g>
    </g>
    <g id="xtick_3">
     <g id="line2d_5">
      <path d="M 216.858807 108 
L 216.858807 7.2 
" clip-path="url(#p0a82ac977f)" style="fill: none; stroke: #000000; stroke-opacity: 0.15; stroke-width: 0.8; stroke-linecap: square"/>
     </g>
     <g id="line2d_6">
      <g>
       <use xlink:href="#m72bdd46b80" x="216.858807" y="108" style="stroke: #000000; stroke-width: 0.8"/>
      </g>
     </g>
     <g id="text_3">
      <!-- 0.4 -->
      <g transform="translate(208.907244 122.598437) scale(0.1 -0.1)">
       <defs>
        <path id="DejaVuSans-34" d="M 2419 4116 
L 825 1625 
L 2419 1625 
L 2419 4116 
z
M 2253 4666 
L 3047 4666 
L 3047 1625 
L 3713 1625 
L 3713 1100 
L 3047 1100 
L 3047 0 
L 2419 0 
L 2419 1100 
L 313 1100 
L 313 1709 
L 2253 4666 
z
" transform="scale(0.015625)"/>
       </defs>
       <use xlink:href="#DejaVuSans-30"/>
       <use xlink:href="#DejaVuSans-2e" x="63.623047"/>
       <use xlink:href="#DejaVuSans-34" x="95.410156"/>
      </g>
     </g>
    </g>
    <g id="xtick_4">
     <g id="line2d_7">
      <path d="M 298.022443 108 
L 298.022443 7.2 
" clip-path="url(#p0a82ac977f)" style="fill: none; stroke: #000000; stroke-opacity: 0.15; stroke-width: 0.8; stroke-linecap: square"/>
     </g>
     <g id="line2d_8">
      <g>
       <use xlink:href="#m72bdd46b80" x="298.022443" y="108" style="stroke: #000000; stroke-width: 0.8"/>
      </g>
     </g>
     <g id="text_4">
      <!-- 0.6 -->
      <g transform="translate(290.070881 122.598437) scale(0.1 -0.1)">
       <defs>
        <path id="DejaVuSans-36" d="M 2113 2584 
Q 1688 2584 1439 2293 
Q 1191 2003 1191 1497 
Q 1191 994 1439 701 
Q 1688 409 2113 409 
Q 2538 409 2786 701 
Q 3034 994 3034 1497 
Q 3034 2003 2786 2293 
Q 2538 2584 2113 2584 
z
M 3366 4563 
L 3366 3988 
Q 3128 4100 2886 4159 
Q 2644 4219 2406 4219 
Q 1781 4219 1451 3797 
Q 1122 3375 1075 2522 
Q 1259 2794 1537 2939 
Q 1816 3084 2150 3084 
Q 2853 3084 3261 2657 
Q 3669 2231 3669 1497 
Q 3669 778 3244 343 
Q 2819 -91 2113 -91 
Q 1303 -91 875 529 
Q 447 1150 447 2328 
Q 447 3434 972 4092 
Q 1497 4750 2381 4750 
Q 2619 4750 2861 4703 
Q 3103 4656 3366 4563 
z
" transform="scale(0.015625)"/>
       </defs>
       <use xlink:href="#DejaVuSans-30"/>
       <use xlink:href="#DejaVuSans-2e" x="63.623047"/>
       <use xlink:href="#DejaVuSans-36" x="95.410156"/>
      </g>
     </g>
    </g>
    <g id="xtick_5">
     <g id="line2d_9">
      <path d="M 379.18608 108 
L 379.18608 7.2 
" clip-path="url(#p0a82ac977f)" style="fill: none; stroke: #000000; stroke-opacity: 0.15; stroke-width: 0.8; stroke-linecap: square"/>
     </g>
     <g id="line2d_10">
      <g>
       <use xlink:href="#m72bdd46b80" x="379.18608" y="108" style="stroke: #000000; stroke-width: 0.8"/>
      </g>
     </g>
     <g id="text_5">
      <!-- 0.8 -->
      <g transform="translate(371.234517 122.598437) scale(0.1 -0.1)">
       <defs>
        <path id="DejaVuSans-38" d="M 2034 2216 
Q 1584 2216 1326 1975 
Q 1069 1734 1069 1313 
Q 1069 891 1326 650 
Q 1584 409 2034 409 
Q 2484 409 2743 651 
Q 3003 894 3003 1313 
Q 3003 1734 2745 1975 
Q 2488 2216 2034 2216 
z
M 1403 2484 
Q 997 2584 770 2862 
Q 544 3141 544 3541 
Q 544 4100 942 4425 
Q 1341 4750 2034 4750 
Q 2731 4750 3128 4425 
Q 3525 4100 3525 3541 
Q 3525 3141 3298 2862 
Q 3072 2584 2669 2484 
Q 3125 2378 3379 2068 
Q 3634 1759 3634 1313 
Q 3634 634 3220 271 
Q 2806 -91 2034 -91 
Q 1263 -91 848 271 
Q 434 634 434 1313 
Q 434 1759 690 2068 
Q 947 2378 1403 2484 
z
M 1172 3481 
Q 1172 3119 1398 2916 
Q 1625 2713 2034 2713 
Q 2441 2713 2670 2916 
Q 2900 3119 2900 3481 
Q 2900 3844 2670 4047 
Q 2441 4250 2034 4250 
Q 1625 4250 1398 4047 
Q 1172 3844 1172 3481 
z
" transform="scale(0.015625)"/>
       </defs>
       <use xlink:href="#DejaVuSans-30"/>
       <use xlink:href="#DejaVuSans-2e" x="63.623047"/>
       <use xlink:href="#DejaVuSans-38" x="95.410156"/>
      </g>
     </g>
    </g>
    <g id="xtick_6">
     <g id="line2d_11">
      <path d="M 460.349716 108 
L 460.349716 7.2 
" clip-path="url(#p0a82ac977f)" style="fill: none; stroke: #000000; stroke-opacity: 0.15; stroke-width: 0.8; stroke-linecap: square"/>
     </g>
     <g id="line2d_12">
      <g>
       <use xlink:href="#m72bdd46b80" x="460.349716" y="108" style="stroke: #000000; stroke-width: 0.8"/>
      </g>
     </g>
     <g id="text_6">
      <!-- 1.0 -->
      <g transform="translate(452.398153 122.598437) scale(0.1 -0.1)">
       <defs>
        <path id="DejaVuSans-31" d="M 794 531 
L 1825 531 
L 1825 4091 
L 703 3866 
L 703 4441 
L 1819 4666 
L 2450 4666 
L 2450 531 
L 3481 531 
L 3481 0 
L 794 0 
L 794 531 
z
" transform="scale(0.015625)"/>
       </defs>
       <use xlink:href="#DejaVuSans-31"/>
       <use xlink:href="#DejaVuSans-2e" x="63.623047"/>
       <use xlink:href="#DejaVuSans-30" x="95.410156"/>
      </g>
     </g>
    </g>
   </g>
   <g id="matplotlib.axis_2">
    <g id="ytick_1">
     <g id="line2d_13">
      <path d="M 34.240625 56.960518 
L 480.640625 56.960518 
" clip-path="url(#p0a82ac977f)" style="fill: none; stroke: #000000; stroke-opacity: 0.15; stroke-width: 0.8; stroke-linecap: square"/>
     </g>
     <g id="line2d_14">
      <defs>
       <path id="m5f6b9c439b" d="M 0 0 
L -3.5 0 
" style="stroke: #000000; stroke-width: 0.8"/>
      </defs>
      <g>
       <use xlink:href="#m5f6b9c439b" x="34.240625" y="56.960518" style="stroke: #000000; stroke-width: 0.8"/>
      </g>
     </g>
     <g id="text_7">
      <!-- 0 -->
      <g transform="translate(20.878125 60.759737) scale(0.1 -0.1)">
       <use xlink:href="#DejaVuSans-30"/>
      </g>
     </g>
    </g>
    <g id="text_8">
     <!-- Signal -->
     <g transform="translate(14.798438 72.959375) rotate(-90) scale(0.1 -0.1)">
      <defs>
       <path id="DejaVuSans-53" d="M 3425 4513 
L 3425 3897 
Q 3066 4069 2747 4153 
Q 2428 4238 2131 4238 
Q 1616 4238 1336 4038 
Q 1056 3838 1056 3469 
Q 1056 3159 1242 3001 
Q 1428 2844 1947 2747 
L 2328 2669 
Q 3034 2534 3370 2195 
Q 3706 1856 3706 1288 
Q 3706 609 3251 259 
Q 2797 -91 1919 -91 
Q 1588 -91 1214 -16 
Q 841 59 441 206 
L 441 856 
Q 825 641 1194 531 
Q 1563 422 1919 422 
Q 2459 422 2753 634 
Q 3047 847 3047 1241 
Q 3047 1584 2836 1778 
Q 2625 1972 2144 2069 
L 1759 2144 
Q 1053 2284 737 2584 
Q 422 2884 422 3419 
Q 422 4038 858 4394 
Q 1294 4750 2059 4750 
Q 2388 4750 2728 4690 
Q 3069 4631 3425 4513 
z
" transform="scale(0.015625)"/>
       <path id="DejaVuSans-69" d="M 603 3500 
L 1178 3500 
L 1178 0 
L 603 0 
L 603 3500 
z
M 603 4863 
L 1178 4863 
L 1178 4134 
L 603 4134 
L 603 4863 
z
" transform="scale(0.015625)"/>
       <path id="DejaVuSans-67" d="M 2906 1791 
Q 2906 2416 2648 2759 
Q 2391 3103 1925 3103 
Q 1463 3103 1205 2759 
Q 947 2416 947 1791 
Q 947 1169 1205 825 
Q 1463 481 1925 481 
Q 2391 481 2648 825 
Q 2906 1169 2906 1791 
z
M 3481 434 
Q 3481 -459 3084 -895 
Q 2688 -1331 1869 -1331 
Q 1566 -1331 1297 -1286 
Q 1028 -1241 775 -1147 
L 775 -588 
Q 1028 -725 1275 -790 
Q 1522 -856 1778 -856 
Q 2344 -856 2625 -561 
Q 2906 -266 2906 331 
L 2906 616 
Q 2728 306 2450 153 
Q 2172 0 1784 0 
Q 1141 0 747 490 
Q 353 981 353 1791 
Q 353 2603 747 3093 
Q 1141 3584 1784 3584 
Q 2172 3584 2450 3431 
Q 2728 3278 2906 2969 
L 2906 3500 
L 3481 3500 
L 3481 434 
z
" transform="scale(0.015625)"/>
       <path id="DejaVuSans-6e" d="M 3513 2113 
L 3513 0 
L 2938 0 
L 2938 2094 
Q 2938 2591 2744 2837 
Q 2550 3084 2163 3084 
Q 1697 3084 1428 2787 
Q 1159 2491 1159 1978 
L 1159 0 
L 581 0 
L 581 3500 
L 1159 3500 
L 1159 2956 
Q 1366 3272 1645 3428 
Q 1925 3584 2291 3584 
Q 2894 3584 3203 3211 
Q 3513 2838 3513 2113 
z
" transform="scale(0.015625)"/>
       <path id="DejaVuSans-61" d="M 2194 1759 
Q 1497 1759 1228 1600 
Q 959 1441 959 1056 
Q 959 750 1161 570 
Q 1363 391 1709 391 
Q 2188 391 2477 730 
Q 2766 1069 2766 1631 
L 2766 1759 
L 2194 1759 
z
M 3341 1997 
L 3341 0 
L 2766 0 
L 2766 531 
Q 2569 213 2275 61 
Q 1981 -91 1556 -91 
Q 1019 -91 701 211 
Q 384 513 384 1019 
Q 384 1609 779 1909 
Q 1175 2209 1959 2209 
L 2766 2209 
L 2766 2266 
Q 2766 2663 2505 2880 
Q 2244 3097 1772 3097 
Q 1472 3097 1187 3025 
Q 903 2953 641 2809 
L 641 3341 
Q 956 3463 1253 3523 
Q 1550 3584 1831 3584 
Q 2591 3584 2966 3190 
Q 3341 2797 3341 1997 
z
" transform="scale(0.015625)"/>
       <path id="DejaVuSans-6c" d="M 603 4863 
L 1178 4863 
L 1178 0 
L 603 0 
L 603 4863 
z
" transform="scale(0.015625)"/>
      </defs>
      <use xlink:href="#DejaVuSans-53"/>
      <use xlink:href="#DejaVuSans-69" x="63.476562"/>
      <use xlink:href="#DejaVuSans-67" x="91.259766"/>
      <use xlink:href="#DejaVuSans-6e" x="154.736328"/>
      <use xlink:href="#DejaVuSans-61" x="218.115234"/>
      <use xlink:href="#DejaVuSans-6c" x="279.394531"/>
     </g>
    </g>
   </g>
   <g id="line2d_15">
    <path d="M 54.531534 36.859594 
L 55.344797 57.490465 
L 56.15806 50.159446 
L 56.971323 51.997176 
L 57.784586 24.971135 
L 58.597849 63.22526 
L 59.411111 14.297017 
L 60.224374 48.260469 
L 61.037637 39.171312 
L 61.8509 51.192292 
L 62.664163 35.040671 
L 63.477426 83.071108 
L 64.290689 64.929453 
L 65.103952 67.669198 
L 65.917215 49.402594 
L 66.730477 76.254493 
L 67.54374 63.038342 
L 68.357003 69.574495 
L 69.170266 56.096385 
L 69.983529 47.942195 
L 70.796792 68.353081 
L 71.610055 41.425384 
L 72.423318 46.587903 
L 73.236581 54.76564 
L 74.049843 53.748162 
L 74.863106 77.385219 
L 75.676369 73.965703 
L 76.489632 86.438576 
L 77.302895 78.993239 
L 78.116158 68.040702 
L 78.929421 80.131482 
L 79.742684 71.685199 
L 80.555947 69.145252 
L 81.369209 64.245228 
L 82.182472 55.24015 
L 82.995735 40.98388 
L 83.808998 49.95753 
L 85.435524 12.204566 
L 86.248787 25.154658 
L 87.875313 53.871504 
L 88.688575 57.985773 
L 89.501838 33.786143 
L 90.315101 59.5469 
L 91.128364 72.389399 
L 91.941627 64.974201 
L 92.75489 42.51843 
L 93.568153 66.620082 
L 94.381416 58.79842 
L 95.194679 60.252554 
L 96.007941 65.620604 
L 96.821204 73.022803 
L 97.634467 61.639167 
L 98.44773 59.464702 
L 99.260993 50.431187 
L 100.074256 49.256019 
L 100.887519 50.879849 
L 101.700782 61.963577 
L 102.514045 57.396241 
L 103.327307 79.71365 
L 104.14057 55.583614 
L 105.767096 71.126793 
L 106.580359 57.051614 
L 107.393622 58.425683 
L 108.206885 37.177874 
L 109.020148 26.049954 
L 109.833411 12.194951 
L 110.646673 52.277367 
L 111.459936 50.508946 
L 112.273199 38.709273 
L 113.086462 32.541152 
L 113.899725 27.737235 
L 114.712988 40.275807 
L 115.526251 75.717729 
L 116.339514 61.177377 
L 117.152777 53.295905 
L 117.966039 65.678968 
L 118.779302 62.458055 
L 119.592565 76.152344 
L 120.405828 75.575653 
L 121.219091 68.911922 
L 122.032354 63.167911 
L 122.845617 62.275285 
L 123.65888 59.814494 
L 124.472143 66.763969 
L 125.285405 52.000705 
L 126.098668 54.620358 
L 126.911931 42.843413 
L 127.725194 43.685951 
L 128.538457 58.530931 
L 129.35172 67.835888 
L 130.164983 72.972209 
L 130.978246 60.701161 
L 131.791509 64.482571 
L 132.604771 67.641645 
L 133.418034 59.301044 
L 134.231297 62.766357 
L 135.04456 41.002557 
L 135.857823 49.646014 
L 136.671086 24.045832 
L 137.484349 30.55509 
L 138.297612 26.337412 
L 139.110875 47.472003 
L 139.924137 34.242586 
L 140.7374 31.573783 
L 141.550663 58.487662 
L 142.363926 56.8531 
L 143.177189 60.220413 
L 143.990452 84.125621 
L 144.803715 68.519196 
L 145.616978 65.505717 
L 146.430241 88.163808 
L 147.243503 72.710361 
L 148.056766 91.006389 
L 148.870029 71.603307 
L 149.683292 86.700867 
L 150.496555 48.280412 
L 151.309818 53.033264 
L 152.123081 55.313836 
L 152.936344 62.809854 
L 153.749607 37.044088 
L 154.562869 29.293615 
L 155.376132 78.356163 
L 156.189395 42.207144 
L 157.002658 39.363615 
L 158.629184 75.91879 
L 159.442447 49.296574 
L 160.25571 59.755591 
L 161.068973 61.364073 
L 161.882235 64.73481 
L 162.695498 38.13608 
L 163.508761 31.028359 
L 164.322024 45.527335 
L 165.135287 29.946051 
L 165.94855 51.071479 
L 166.761813 29.560942 
L 167.575076 43.379167 
L 168.388339 52.236822 
L 169.201601 58.065277 
L 170.014864 53.117841 
L 172.454653 77.352398 
L 173.267916 79.42902 
L 174.081179 71.901792 
L 174.894442 73.864946 
L 175.707705 63.938045 
L 176.520968 70.915436 
L 177.33423 91.633192 
L 178.147493 43.475211 
L 178.960756 25.070489 
L 179.774019 43.850278 
L 180.587282 49.28157 
L 181.400545 49.951891 
L 182.213808 51.16859 
L 183.027071 51.671881 
L 183.840334 68.177108 
L 184.653596 62.75263 
L 185.466859 69.930122 
L 186.280122 54.602425 
L 187.093385 60.170508 
L 187.906648 48.024141 
L 188.719911 53.12026 
L 189.533174 35.200972 
L 190.346437 41.442732 
L 191.1597 14.485117 
L 191.972962 63.925229 
L 193.599488 32.335545 
L 194.412751 16.420034 
L 195.226014 56.422636 
L 196.039277 59.316282 
L 196.85254 69.35342 
L 197.665803 56.220436 
L 198.479066 81.15245 
L 199.292328 72.281609 
L 200.105591 85.608115 
L 200.918854 96.111793 
L 201.732117 73.130516 
L 202.54538 65.777509 
L 203.358643 49.941756 
L 204.171906 60.904973 
L 204.985169 61.140198 
L 205.798432 41.503152 
L 206.611694 41.932059 
L 207.424957 39.61223 
L 208.23822 43.902652 
L 209.051483 30.061301 
L 209.864746 42.357322 
L 210.678009 26.408125 
L 211.491272 39.226627 
L 212.304535 47.227628 
L 213.117798 76.929424 
L 213.93106 49.523496 
L 214.744323 50.745594 
L 215.557586 43.886703 
L 216.370849 38.388677 
L 217.184112 53.614388 
L 217.997375 36.320222 
L 218.810638 52.389281 
L 219.623901 21.599605 
L 220.437164 64.278787 
L 221.250426 73.199528 
L 222.063689 76.788328 
L 222.876952 73.179547 
L 223.690215 82.018052 
L 224.503478 49.480743 
L 225.316741 82.073011 
L 226.130004 97.260187 
L 226.943267 67.365642 
L 227.75653 86.702482 
L 228.569792 90.960028 
L 229.383055 59.34001 
L 230.196318 55.894808 
L 231.009581 62.043267 
L 231.822844 32.662228 
L 232.636107 42.950524 
L 233.44937 20.585017 
L 234.262633 32.312154 
L 235.075896 19.139626 
L 236.702421 58.227968 
L 237.515684 16.676537 
L 238.328947 57.78678 
L 239.14221 57.131306 
L 239.955473 66.074326 
L 240.768736 61.442218 
L 241.581999 56.124234 
L 242.395262 55.644808 
L 243.208524 48.123337 
L 244.021787 31.913112 
L 244.83505 53.547504 
L 245.648313 65.997427 
L 246.461576 65.199197 
L 247.274839 60.048054 
L 248.088102 75.221148 
L 248.901365 48.247887 
L 249.714628 69.430104 
L 250.52789 72.203413 
L 251.341153 73.093854 
L 252.154416 94.039265 
L 252.967679 89.511729 
L 253.780942 70.626968 
L 254.594205 69.32081 
L 255.407468 78.442326 
L 256.220731 44.881082 
L 257.033994 76.686438 
L 257.847256 57.661831 
L 258.660519 49.491566 
L 259.473782 75.526694 
L 260.287045 12.969436 
L 261.913571 47.994481 
L 262.726834 11.781818 
L 263.540097 33.603147 
L 264.35336 40.250702 
L 265.166622 58.167692 
L 265.979885 54.149099 
L 266.793148 78.297668 
L 267.606411 52.273274 
L 268.419674 67.986366 
L 269.232937 61.524395 
L 270.0462 46.989085 
L 270.859463 56.306655 
L 272.485988 52.357004 
L 273.299251 63.867899 
L 274.112514 44.650402 
L 274.925777 37.415254 
L 275.73904 49.860249 
L 276.552303 51.937538 
L 277.365566 77.790259 
L 278.178829 81.525823 
L 278.992092 91.654762 
L 279.805354 60.24266 
L 280.618617 78.532993 
L 281.43188 56.003848 
L 282.245143 79.048897 
L 283.058406 69.254883 
L 283.871669 56.0794 
L 284.684932 38.909509 
L 285.498195 42.990938 
L 286.311458 35.654179 
L 287.12472 34.272137 
L 287.937983 30.572485 
L 288.751246 47.09225 
L 289.564509 34.886931 
L 290.377772 42.543112 
L 291.191035 46.454987 
L 292.004298 45.669364 
L 292.817561 65.983275 
L 293.630824 63.555419 
L 294.444086 69.804655 
L 295.257349 62.966213 
L 296.070612 58.778797 
L 296.883875 79.227105 
L 298.510401 37.043989 
L 299.323664 78.204231 
L 300.136927 68.247739 
L 300.95019 67.840927 
L 301.763452 60.584586 
L 302.576715 38.4554 
L 303.389978 60.780085 
L 304.203241 72.539853 
L 305.016504 59.296637 
L 305.829767 76.923247 
L 306.64303 57.021154 
L 307.456293 67.058023 
L 308.269556 51.824062 
L 309.082818 73.63783 
L 309.896081 22.914356 
L 310.709344 44.178765 
L 311.522607 39.875599 
L 312.33587 42.55017 
L 313.149133 45.889543 
L 313.962396 44.295335 
L 314.775659 33.953087 
L 315.588922 43.089751 
L 316.402184 32.825909 
L 317.215447 51.446883 
L 318.02871 39.682441 
L 318.841973 42.23256 
L 319.655236 69.309827 
L 320.468499 51.454281 
L 321.281762 73.374265 
L 322.095025 58.583321 
L 322.908288 68.040652 
L 323.72155 58.43791 
L 324.534813 82.173774 
L 325.348076 67.835931 
L 326.161339 45.001565 
L 326.974602 67.416835 
L 327.787865 82.631326 
L 328.601128 80.278899 
L 329.414391 87.345572 
L 330.227654 83.729663 
L 331.854179 46.212208 
L 332.667442 69.698209 
L 333.480705 61.654038 
L 334.293968 67.239987 
L 335.107231 64.503177 
L 335.920494 63.868569 
L 336.733757 59.746039 
L 337.54702 46.711631 
L 338.360282 61.395762 
L 339.173545 29.036458 
L 339.986808 25.793996 
L 340.800071 36.780714 
L 341.613334 23.562426 
L 342.426597 43.543602 
L 343.23986 44.960418 
L 344.053123 41.62 
L 345.679649 62.667879 
L 346.492911 72.314375 
L 347.306174 76.864486 
L 348.119437 62.815225 
L 348.9327 101.058745 
L 349.745963 73.170923 
L 350.559226 79.035617 
L 351.372489 64.075328 
L 352.185752 62.598248 
L 352.999015 98.841197 
L 353.812277 52.795475 
L 354.62554 52.391471 
L 355.438803 53.670202 
L 356.252066 58.642668 
L 357.065329 42.524288 
L 357.878592 59.526743 
L 358.691855 33.712393 
L 359.505118 51.572883 
L 360.318381 33.829797 
L 361.131643 70.835307 
L 361.944906 82.432843 
L 362.758169 50.066462 
L 363.571432 45.275687 
L 364.384695 51.325748 
L 365.197958 66.25724 
L 366.824484 31.506434 
L 367.637747 39.151887 
L 368.451009 37.828845 
L 369.264272 40.11553 
L 370.077535 53.058804 
L 370.890798 53.383459 
L 371.704061 70.950342 
L 372.517324 38.484209 
L 373.330587 73.117852 
L 374.14385 67.272703 
L 374.957113 90.227998 
L 375.770375 70.166216 
L 376.583638 103.418182 
L 377.396901 66.98041 
L 378.210164 75.159855 
L 379.023427 43.689859 
L 379.83669 80.448561 
L 380.649953 57.881864 
L 381.463216 49.536076 
L 382.276479 35.277644 
L 383.089741 53.714162 
L 383.903004 46.909245 
L 384.716267 75.365544 
L 386.342793 47.510184 
L 387.156056 41.734814 
L 387.969319 60.586929 
L 388.782582 32.346209 
L 389.595845 35.465355 
L 390.409107 56.206931 
L 391.22237 82.500416 
L 392.035633 71.188837 
L 392.848896 55.30466 
L 393.662159 28.892164 
L 394.475422 36.990169 
L 395.288685 66.435822 
L 396.915211 25.429695 
L 397.728473 55.017251 
L 398.541736 65.813581 
L 399.354999 37.802081 
L 400.168262 69.078383 
L 400.981525 81.270866 
L 401.794788 75.066217 
L 403.421314 86.593232 
L 404.234577 63.970624 
L 405.047839 60.87349 
L 405.861102 58.658196 
L 406.674365 64.012699 
L 407.487628 42.237891 
L 408.300891 51.439175 
L 409.927417 30.984013 
L 410.74068 32.824173 
L 411.553943 21.39507 
L 412.367205 39.986821 
L 413.180468 69.263258 
L 413.993731 65.875855 
L 414.806994 37.575496 
L 415.620257 60.330072 
L 416.43352 52.258017 
L 417.246783 67.141491 
L 418.060046 42.650958 
L 418.873309 57.421665 
L 419.686571 31.910163 
L 420.499834 54.071142 
L 421.313097 31.977352 
L 422.12636 37.066894 
L 422.939623 55.523742 
L 423.752886 35.814479 
L 424.566149 64.902934 
L 425.379412 69.368986 
L 426.192675 56.250165 
L 427.005937 78.772222 
L 427.8192 83.393741 
L 428.632463 83.839439 
L 429.445726 93.553654 
L 430.258989 67.643574 
L 431.072252 70.259743 
L 431.885515 73.951806 
L 432.698778 68.328741 
L 433.512041 54.564469 
L 434.325303 31.433756 
L 435.138566 36.367513 
L 435.951829 48.640755 
L 436.765092 29.696904 
L 437.578355 39.712622 
L 438.391618 41.524966 
L 439.204881 18.378892 
L 440.018144 50.181069 
L 440.831407 54.954786 
L 441.644669 77.09402 
L 442.457932 73.529663 
L 443.271195 52.747394 
L 444.084458 67.787378 
L 444.897721 52.388493 
L 445.710984 71.098555 
L 446.524247 64.705145 
L 447.33751 44.668789 
L 448.150773 33.199232 
L 448.964035 43.156566 
L 449.777298 36.181529 
L 450.590561 31.887441 
L 451.403824 43.472847 
L 452.217087 72.152592 
L 453.03035 67.118268 
L 453.843613 63.003148 
L 454.656876 80.21398 
L 455.470139 72.439614 
L 456.283401 98.718542 
L 457.096664 88.494762 
L 457.909927 68.656843 
L 458.72319 97.981067 
L 460.349716 57.179779 
L 460.349716 57.179779 
" clip-path="url(#p0a82ac977f)" style="fill: none; stroke: #1f77b4; stroke-width: 1.5; stroke-linecap: square"/>
   </g>
   <g id="patch_1">
    <path d="M 34.240625 108 
L 34.240625 7.2 
" style="fill: none"/>
   </g>
   <g id="patch_2">
    <path d="M 480.640625 108 
L 480.640625 7.2 
" style="fill: none"/>
   </g>
   <g id="patch_3">
    <path d="M 34.240625 108 
L 480.640625 108 
" style="fill: none"/>
   </g>
   <g id="patch_4">
    <path d="M 34.240625 7.2 
L 480.640625 7.2 
" style="fill: none"/>
   </g>
  </g>
  <g id="axes_2">
   <g id="matplotlib.axis_3">
    <g id="xtick_7">
     <g id="line2d_16">
      <path d="M 54.531534 228.96 
L 54.531534 128.16 
" clip-path="url(#pf59797f4ff)" style="fill: none; stroke: #000000; stroke-opacity: 0.15; stroke-width: 0.8; stroke-linecap: square"/>
     </g>
     <g id="line2d_17">
      <g>
       <use xlink:href="#m72bdd46b80" x="54.531534" y="228.96" style="stroke: #000000; stroke-width: 0.8"/>
      </g>
     </g>
     <g id="text_9">
      <!-- 0.0 -->
      <g transform="translate(46.579972 243.558437) scale(0.1 -0.1)">
       <use xlink:href="#DejaVuSans-30"/>
       <use xlink:href="#DejaVuSans-2e" x="63.623047"/>
       <use xlink:href="#DejaVuSans-30" x="95.410156"/>
      </g>
     </g>
    </g>
    <g id="xtick_8">
     <g id="line2d_18">
      <path d="M 135.69517 228.96 
L 135.69517 128.16 
" clip-path="url(#pf59797f4ff)" style="fill: none; stroke: #000000; stroke-opacity: 0.15; stroke-width: 0.8; stroke-linecap: square"/>
     </g>
     <g id="line2d_19">
      <g>
       <use xlink:href="#m72bdd46b80" x="135.69517" y="228.96" style="stroke: #000000; stroke-width: 0.8"/>
      </g>
     </g>
     <g id="text_10">
      <!-- 0.2 -->
      <g transform="translate(127.743608 243.558437) scale(0.1 -0.1)">
       <use xlink:href="#DejaVuSans-30"/>
       <use xlink:href="#DejaVuSans-2e" x="63.623047"/>
       <use xlink:href="#DejaVuSans-32" x="95.410156"/>
      </g>
     </g>
    </g>
    <g id="xtick_9">
     <g id="line2d_20">
      <path d="M 216.858807 228.96 
L 216.858807 128.16 
" clip-path="url(#pf59797f4ff)" style="fill: none; stroke: #000000; stroke-opacity: 0.15; stroke-width: 0.8; stroke-linecap: square"/>
     </g>
     <g id="line2d_21">
      <g>
       <use xlink:href="#m72bdd46b80" x="216.858807" y="228.96" style="stroke: #000000; stroke-width: 0.8"/>
      </g>
     </g>
     <g id="text_11">
      <!-- 0.4 -->
      <g transform="translate(208.907244 243.558437) scale(0.1 -0.1)">
       <use xlink:href="#DejaVuSans-30"/>
       <use xlink:href="#DejaVuSans-2e" x="63.623047"/>
       <use xlink:href="#DejaVuSans-34" x="95.410156"/>
      </g>
     </g>
    </g>
    <g id="xtick_10">
     <g id="line2d_22">
      <path d="M 298.022443 228.96 
L 298.022443 128.16 
" clip-path="url(#pf59797f4ff)" style="fill: none; stroke: #000000; stroke-opacity: 0.15; stroke-width: 0.8; stroke-linecap: square"/>
     </g>
     <g id="line2d_23">
      <g>
       <use xlink:href="#m72bdd46b80" x="298.022443" y="228.96" style="stroke: #000000; stroke-width: 0.8"/>
      </g>
     </g>
     <g id="text_12">
      <!-- 0.6 -->
      <g transform="translate(290.070881 243.558437) scale(0.1 -0.1)">
       <use xlink:href="#DejaVuSans-30"/>
       <use xlink:href="#DejaVuSans-2e" x="63.623047"/>
       <use xlink:href="#DejaVuSans-36" x="95.410156"/>
      </g>
     </g>
    </g>
    <g id="xtick_11">
     <g id="line2d_24">
      <path d="M 379.18608 228.96 
L 379.18608 128.16 
" clip-path="url(#pf59797f4ff)" style="fill: none; stroke: #000000; stroke-opacity: 0.15; stroke-width: 0.8; stroke-linecap: square"/>
     </g>
     <g id="line2d_25">
      <g>
       <use xlink:href="#m72bdd46b80" x="379.18608" y="228.96" style="stroke: #000000; stroke-width: 0.8"/>
      </g>
     </g>
     <g id="text_13">
      <!-- 0.8 -->
      <g transform="translate(371.234517 243.558437) scale(0.1 -0.1)">
       <use xlink:href="#DejaVuSans-30"/>
       <use xlink:href="#DejaVuSans-2e" x="63.623047"/>
       <use xlink:href="#DejaVuSans-38" x="95.410156"/>
      </g>
     </g>
    </g>
    <g id="xtick_12">
     <g id="line2d_26">
      <path d="M 460.349716 228.96 
L 460.349716 128.16 
" clip-path="url(#pf59797f4ff)" style="fill: none; stroke: #000000; stroke-opacity: 0.15; stroke-width: 0.8; stroke-linecap: square"/>
     </g>
     <g id="line2d_27">
      <g>
       <use xlink:href="#m72bdd46b80" x="460.349716" y="228.96" style="stroke: #000000; stroke-width: 0.8"/>
      </g>
     </g>
     <g id="text_14">
      <!-- 1.0 -->
      <g transform="translate(452.398153 243.558437) scale(0.1 -0.1)">
       <use xlink:href="#DejaVuSans-31"/>
       <use xlink:href="#DejaVuSans-2e" x="63.623047"/>
       <use xlink:href="#DejaVuSans-30" x="95.410156"/>
      </g>
     </g>
    </g>
    <g id="text_15">
     <!-- x -->
     <g transform="translate(254.48125 257.236562) scale(0.1 -0.1)">
      <defs>
       <path id="DejaVuSans-78" d="M 3513 3500 
L 2247 1797 
L 3578 0 
L 2900 0 
L 1881 1375 
L 863 0 
L 184 0 
L 1544 1831 
L 300 3500 
L 978 3500 
L 1906 2253 
L 2834 3500 
L 3513 3500 
z
" transform="scale(0.015625)"/>
      </defs>
      <use xlink:href="#DejaVuSans-78"/>
     </g>
    </g>
   </g>
   <g id="matplotlib.axis_4">
    <g id="ytick_2">
     <g id="line2d_28">
      <path d="M 34.240625 177.920518 
L 480.640625 177.920518 
" clip-path="url(#pf59797f4ff)" style="fill: none; stroke: #000000; stroke-opacity: 0.15; stroke-width: 0.8; stroke-linecap: square"/>
     </g>
     <g id="line2d_29">
      <g>
       <use xlink:href="#m5f6b9c439b" x="34.240625" y="177.920518" style="stroke: #000000; stroke-width: 0.8"/>
      </g>
     </g>
     <g id="text_16">
      <!-- 0 -->
      <g transform="translate(20.878125 181.719737) scale(0.1 -0.1)">
       <use xlink:href="#DejaVuSans-30"/>
      </g>
     </g>
    </g>
    <g id="text_17">
     <!-- Signal with no noise -->
     <g transform="translate(14.798438 228.820156) rotate(-90) scale(0.1 -0.1)">
      <defs>
       <path id="DejaVuSans-20" transform="scale(0.015625)"/>
       <path id="DejaVuSans-77" d="M 269 3500 
L 844 3500 
L 1563 769 
L 2278 3500 
L 2956 3500 
L 3675 769 
L 4391 3500 
L 4966 3500 
L 4050 0 
L 3372 0 
L 2619 2869 
L 1863 0 
L 1184 0 
L 269 3500 
z
" transform="scale(0.015625)"/>
       <path id="DejaVuSans-74" d="M 1172 4494 
L 1172 3500 
L 2356 3500 
L 2356 3053 
L 1172 3053 
L 1172 1153 
Q 1172 725 1289 603 
Q 1406 481 1766 481 
L 2356 481 
L 2356 0 
L 1766 0 
Q 1100 0 847 248 
Q 594 497 594 1153 
L 594 3053 
L 172 3053 
L 172 3500 
L 594 3500 
L 594 4494 
L 1172 4494 
z
" transform="scale(0.015625)"/>
       <path id="DejaVuSans-68" d="M 3513 2113 
L 3513 0 
L 2938 0 
L 2938 2094 
Q 2938 2591 2744 2837 
Q 2550 3084 2163 3084 
Q 1697 3084 1428 2787 
Q 1159 2491 1159 1978 
L 1159 0 
L 581 0 
L 581 4863 
L 1159 4863 
L 1159 2956 
Q 1366 3272 1645 3428 
Q 1925 3584 2291 3584 
Q 2894 3584 3203 3211 
Q 3513 2838 3513 2113 
z
" transform="scale(0.015625)"/>
       <path id="DejaVuSans-6f" d="M 1959 3097 
Q 1497 3097 1228 2736 
Q 959 2375 959 1747 
Q 959 1119 1226 758 
Q 1494 397 1959 397 
Q 2419 397 2687 759 
Q 2956 1122 2956 1747 
Q 2956 2369 2687 2733 
Q 2419 3097 1959 3097 
z
M 1959 3584 
Q 2709 3584 3137 3096 
Q 3566 2609 3566 1747 
Q 3566 888 3137 398 
Q 2709 -91 1959 -91 
Q 1206 -91 779 398 
Q 353 888 353 1747 
Q 353 2609 779 3096 
Q 1206 3584 1959 3584 
z
" transform="scale(0.015625)"/>
       <path id="DejaVuSans-73" d="M 2834 3397 
L 2834 2853 
Q 2591 2978 2328 3040 
Q 2066 3103 1784 3103 
Q 1356 3103 1142 2972 
Q 928 2841 928 2578 
Q 928 2378 1081 2264 
Q 1234 2150 1697 2047 
L 1894 2003 
Q 2506 1872 2764 1633 
Q 3022 1394 3022 966 
Q 3022 478 2636 193 
Q 2250 -91 1575 -91 
Q 1294 -91 989 -36 
Q 684 19 347 128 
L 347 722 
Q 666 556 975 473 
Q 1284 391 1588 391 
Q 1994 391 2212 530 
Q 2431 669 2431 922 
Q 2431 1156 2273 1281 
Q 2116 1406 1581 1522 
L 1381 1569 
Q 847 1681 609 1914 
Q 372 2147 372 2553 
Q 372 3047 722 3315 
Q 1072 3584 1716 3584 
Q 2034 3584 2315 3537 
Q 2597 3491 2834 3397 
z
" transform="scale(0.015625)"/>
       <path id="DejaVuSans-65" d="M 3597 1894 
L 3597 1613 
L 953 1613 
Q 991 1019 1311 708 
Q 1631 397 2203 397 
Q 2534 397 2845 478 
Q 3156 559 3463 722 
L 3463 178 
Q 3153 47 2828 -22 
Q 2503 -91 2169 -91 
Q 1331 -91 842 396 
Q 353 884 353 1716 
Q 353 2575 817 3079 
Q 1281 3584 2069 3584 
Q 2775 3584 3186 3129 
Q 3597 2675 3597 1894 
z
M 3022 2063 
Q 3016 2534 2758 2815 
Q 2500 3097 2075 3097 
Q 1594 3097 1305 2825 
Q 1016 2553 972 2059 
L 3022 2063 
z
" transform="scale(0.015625)"/>
      </defs>
      <use xlink:href="#DejaVuSans-53"/>
      <use xlink:href="#DejaVuSans-69" x="63.476562"/>
      <use xlink:href="#DejaVuSans-67" x="91.259766"/>
      <use xlink:href="#DejaVuSans-6e" x="154.736328"/>
      <use xlink:href="#DejaVuSans-61" x="218.115234"/>
      <use xlink:href="#DejaVuSans-6c" x="279.394531"/>
      <use xlink:href="#DejaVuSans-20" x="307.177734"/>
      <use xlink:href="#DejaVuSans-77" x="338.964844"/>
      <use xlink:href="#DejaVuSans-69" x="420.751953"/>
      <use xlink:href="#DejaVuSans-74" x="448.535156"/>
      <use xlink:href="#DejaVuSans-68" x="487.744141"/>
      <use xlink:href="#DejaVuSans-20" x="551.123047"/>
      <use xlink:href="#DejaVuSans-6e" x="582.910156"/>
      <use xlink:href="#DejaVuSans-6f" x="646.289062"/>
      <use xlink:href="#DejaVuSans-20" x="707.470703"/>
      <use xlink:href="#DejaVuSans-6e" x="739.257812"/>
      <use xlink:href="#DejaVuSans-6f" x="802.636719"/>
      <use xlink:href="#DejaVuSans-69" x="863.818359"/>
      <use xlink:href="#DejaVuSans-73" x="891.601562"/>
      <use xlink:href="#DejaVuSans-65" x="943.701172"/>
     </g>
    </g>
   </g>
   <g id="line2d_30">
    <path d="M 54.531534 177.920518 
L 56.15806 164.583434 
L 56.971323 159.67942 
L 57.784586 156.640368 
L 58.597849 155.704213 
L 59.411111 156.848688 
L 60.224374 159.800697 
L 61.037637 164.079352 
L 63.477426 178.53731 
L 64.290689 181.899609 
L 65.103952 183.876608 
L 65.917215 184.392747 
L 66.730477 183.603575 
L 67.54374 181.86458 
L 69.170266 177.578771 
L 69.983529 176.114408 
L 70.796792 175.693155 
L 71.610055 176.551094 
L 72.423318 178.704895 
L 73.236581 181.9439 
L 75.676369 193.404963 
L 76.489632 195.81863 
L 77.302895 196.638182 
L 78.116158 195.563737 
L 78.929421 192.532329 
L 79.742684 187.735459 
L 81.369209 174.74599 
L 82.995735 161.787158 
L 83.808998 157.091055 
L 84.622261 154.305881 
L 85.435524 153.704261 
L 86.248787 155.297294 
L 87.06205 158.835975 
L 87.875313 163.847287 
L 90.315101 181.135635 
L 91.128364 185.466714 
L 91.941627 188.296739 
L 92.75489 189.468635 
L 93.568153 189.067024 
L 94.381416 187.396176 
L 96.821204 179.844386 
L 97.634467 178.276126 
L 98.44773 177.839681 
L 99.260993 178.650523 
L 100.074256 180.598259 
L 101.700782 186.457659 
L 102.514045 189.309673 
L 103.327307 191.338137 
L 104.14057 192.047588 
L 104.953833 191.105371 
L 105.767096 188.397958 
L 106.580359 184.056921 
L 108.206885 172.141544 
L 109.833411 160.200977 
L 110.646673 155.956025 
L 111.459936 153.598348 
L 112.273199 153.426616 
L 113.086462 155.481576 
L 113.899725 159.539637 
L 114.712988 165.141722 
L 117.152777 184.501913 
L 117.966039 189.486341 
L 118.779302 192.847779 
L 119.592565 194.361081 
L 120.405828 194.051315 
L 121.219091 192.180579 
L 122.032354 189.202212 
L 123.65888 182.247201 
L 124.472143 179.424667 
L 125.285405 177.632976 
L 126.098668 177.08787 
L 126.911931 177.780533 
L 127.725194 179.482302 
L 129.35172 184.151818 
L 130.164983 186.028057 
L 130.978246 186.901813 
L 131.791509 186.399638 
L 132.604771 184.34653 
L 133.418034 180.800545 
L 134.231297 176.05398 
L 136.671086 160.158851 
L 137.484349 156.508212 
L 138.297612 154.642819 
L 139.110875 154.882704 
L 139.924137 157.298657 
L 140.7374 161.69801 
L 141.550663 167.645822 
L 143.990452 188.093589 
L 144.803715 193.379225 
L 145.616978 196.936773 
L 146.430241 198.487483 
L 147.243503 198.008292 
L 148.056766 195.727164 
L 148.870029 192.084458 
L 151.309818 179.05332 
L 152.123081 175.969207 
L 152.936344 174.177396 
L 153.749607 173.766544 
L 154.562869 174.596076 
L 155.376132 176.324037 
L 157.002658 180.465443 
L 157.815921 181.797577 
L 158.629184 182.038106 
L 159.442447 180.940286 
L 160.25571 178.476741 
L 161.068973 174.850685 
L 163.508761 161.799173 
L 164.322024 158.771276 
L 165.135287 157.348072 
L 165.94855 157.870501 
L 166.761813 160.4438 
L 167.575076 164.915428 
L 168.388339 170.888061 
L 170.828127 191.327305 
L 171.64139 196.568638 
L 172.454653 200.016421 
L 173.267916 201.35204 
L 174.081179 200.514115 
L 174.894442 197.702016 
L 175.707705 193.344472 
L 178.147493 177.290442 
L 178.960756 173.093892 
L 179.774019 170.272068 
L 180.587282 169.00217 
L 181.400545 169.223417 
L 182.213808 170.65532 
L 184.653596 177.313698 
L 185.466859 178.552129 
L 186.280122 178.641261 
L 187.093385 177.459637 
L 187.906648 175.112274 
L 189.533174 168.366658 
L 190.346437 165.045168 
L 191.1597 162.554555 
L 191.972962 161.41817 
L 192.786225 162.001276 
L 193.599488 164.451252 
L 194.412751 168.667521 
L 195.226014 174.305834 
L 197.665803 193.656932 
L 198.479066 198.557077 
L 199.292328 201.657327 
L 200.105591 202.610639 
L 200.918854 201.324152 
L 201.732117 197.970602 
L 202.54538 192.964313 
L 205.798432 169.4272 
L 206.611694 165.871129 
L 207.424957 164.0454 
L 208.23822 163.957898 
L 209.051483 165.380241 
L 209.864746 167.889715 
L 211.491272 173.935715 
L 212.304535 176.343228 
L 213.117798 177.750224 
L 213.93106 177.937068 
L 214.744323 176.906496 
L 215.557586 174.882056 
L 217.184112 169.613607 
L 217.997375 167.477114 
L 218.810638 166.390872 
L 219.623901 166.750801 
L 220.437164 168.756171 
L 221.250426 172.371386 
L 222.063689 177.321007 
L 224.503478 194.646799 
L 225.316741 198.99265 
L 226.130004 201.604863 
L 226.943267 202.115892 
L 227.75653 200.404374 
L 228.569792 196.614234 
L 229.383055 191.138328 
L 232.636107 165.508128 
L 233.44937 161.554421 
L 234.262633 159.493464 
L 235.075896 159.38951 
L 235.889158 161.056806 
L 236.702421 164.093894 
L 239.14221 175.63073 
L 239.955473 178.367045 
L 240.768736 179.885256 
L 241.581999 180.087216 
L 242.395262 179.102413 
L 243.208524 177.263321 
L 244.83505 173.016781 
L 245.648313 171.697824 
L 246.461576 171.528265 
L 247.274839 172.769485 
L 248.088102 175.463334 
L 248.901365 179.417454 
L 251.341153 194.030448 
L 252.154416 197.716388 
L 252.967679 199.813124 
L 253.780942 199.936378 
L 254.594205 197.935098 
L 255.407468 193.918168 
L 256.220731 188.246063 
L 259.473782 161.922868 
L 260.287045 157.905938 
L 261.100308 155.904658 
L 261.913571 156.027912 
L 262.726834 158.124648 
L 263.540097 161.810589 
L 266.793148 180.377702 
L 267.606411 183.071551 
L 268.419674 184.312772 
L 269.232937 184.143213 
L 270.0462 182.824255 
L 272.485988 176.738623 
L 273.299251 175.75382 
L 274.112514 175.955781 
L 274.925777 177.473991 
L 275.73904 180.210306 
L 277.365566 187.894089 
L 278.178829 191.747143 
L 278.992092 194.784231 
L 279.805354 196.451527 
L 280.618617 196.347572 
L 281.43188 194.286615 
L 282.245143 190.332908 
L 283.058406 184.800804 
L 286.311458 159.226803 
L 287.12472 155.436662 
L 287.937983 153.725145 
L 288.751246 154.236174 
L 289.564509 156.848386 
L 290.377772 161.194237 
L 292.004298 172.721923 
L 292.817561 178.520029 
L 293.630824 183.46965 
L 294.444086 187.084865 
L 295.257349 189.090235 
L 296.070612 189.450165 
L 296.883875 188.363922 
L 297.697138 186.227429 
L 299.323664 180.95898 
L 300.136927 178.934541 
L 300.95019 177.903968 
L 301.763452 178.090812 
L 302.576715 179.497809 
L 303.389978 181.905322 
L 305.016504 187.951322 
L 305.829767 190.460795 
L 306.64303 191.883138 
L 307.456293 191.795637 
L 308.269556 189.969908 
L 309.082818 186.413837 
L 309.896081 181.380562 
L 313.149133 157.870435 
L 313.962396 154.516884 
L 314.775659 153.230397 
L 315.588922 154.183709 
L 316.402184 157.28396 
L 317.215447 162.184105 
L 318.841973 175.02436 
L 320.468499 187.173515 
L 321.281762 191.389785 
L 322.095025 193.83976 
L 322.908288 194.422866 
L 323.72155 193.286481 
L 324.534813 190.795868 
L 326.974602 180.728762 
L 327.787865 178.381399 
L 328.601128 177.199775 
L 329.414391 177.288907 
L 330.227654 178.527339 
L 331.040916 180.588669 
L 332.667442 185.185716 
L 333.480705 186.61762 
L 334.293968 186.838866 
L 335.107231 185.568968 
L 335.920494 182.747145 
L 336.733757 178.550595 
L 339.986808 158.13902 
L 340.800071 155.326922 
L 341.613334 154.488996 
L 342.426597 155.824616 
L 343.23986 159.272399 
L 344.053123 164.513731 
L 345.679649 178.074843 
L 347.306174 190.925609 
L 348.119437 195.397236 
L 348.9327 197.970536 
L 349.745963 198.492965 
L 350.559226 197.06976 
L 351.372489 194.041863 
L 352.999015 185.367932 
L 353.812277 180.990351 
L 354.62554 177.364295 
L 355.438803 174.90075 
L 356.252066 173.802931 
L 357.065329 174.043459 
L 357.878592 175.375594 
L 360.318381 181.24496 
L 361.131643 182.074492 
L 361.944906 181.663641 
L 362.758169 179.87183 
L 363.571432 176.787716 
L 365.197958 168.175005 
L 366.011221 163.756578 
L 366.824484 160.113872 
L 367.637747 157.832744 
L 368.451009 157.353553 
L 369.264272 158.904263 
L 370.077535 162.461811 
L 370.890798 167.747447 
L 372.517324 181.322333 
L 374.14385 194.143026 
L 374.957113 198.54238 
L 375.770375 200.958332 
L 376.583638 201.198217 
L 377.396901 199.332824 
L 378.210164 195.682185 
L 379.83669 185.240483 
L 381.463216 175.040491 
L 382.276479 171.494507 
L 383.089741 169.441398 
L 383.903004 168.939224 
L 384.716267 169.812979 
L 385.52953 171.689219 
L 387.156056 176.358734 
L 387.969319 178.060503 
L 388.782582 178.753167 
L 389.595845 178.208061 
L 390.409107 176.416369 
L 391.22237 173.593836 
L 393.662159 163.660458 
L 394.475422 161.789722 
L 395.288685 161.479955 
L 396.101948 162.993257 
L 396.915211 166.354695 
L 397.728473 171.339124 
L 399.354999 184.187612 
L 400.168262 190.699315 
L 400.981525 196.3014 
L 401.794788 200.359461 
L 402.608051 202.41442 
L 403.421314 202.242688 
L 404.234577 199.885012 
L 405.047839 195.64006 
L 406.674365 183.699492 
L 408.300891 171.784116 
L 409.114154 167.443078 
L 409.927417 164.735665 
L 410.74068 163.793448 
L 411.553943 164.502899 
L 412.367205 166.531364 
L 414.806994 175.242778 
L 415.620257 177.190514 
L 416.43352 178.001355 
L 417.246783 177.56491 
L 418.060046 175.99665 
L 419.686571 170.913939 
L 420.499834 168.44486 
L 421.313097 166.774013 
L 422.12636 166.372401 
L 422.939623 167.544298 
L 423.752886 170.374322 
L 424.566149 174.705402 
L 426.192675 186.141187 
L 427.005937 191.99375 
L 427.8192 197.005061 
L 428.632463 200.543742 
L 429.445726 202.136776 
L 430.258989 201.535155 
L 431.072252 198.749981 
L 431.885515 194.053878 
L 433.512041 181.095046 
L 435.138566 168.105577 
L 435.951829 163.308707 
L 436.765092 160.277299 
L 437.578355 159.202854 
L 438.391618 160.022406 
L 439.204881 162.436074 
L 440.018144 165.956802 
L 441.644669 173.897137 
L 442.457932 177.136142 
L 443.271195 179.289943 
L 444.084458 180.147881 
L 444.897721 179.726628 
L 445.710984 178.262265 
L 448.150773 172.237461 
L 448.964035 171.448289 
L 449.777298 171.964428 
L 450.590561 173.941427 
L 451.403824 177.303727 
L 453.03035 186.77465 
L 453.843613 191.761684 
L 454.656876 196.040339 
L 455.470139 198.992349 
L 456.283401 200.136823 
L 457.096664 199.200669 
L 457.909927 196.161617 
L 458.72319 191.257602 
L 460.349716 177.920518 
L 460.349716 177.920518 
" clip-path="url(#pf59797f4ff)" style="fill: none; stroke: #1f77b4; stroke-width: 1.5; stroke-linecap: square"/>
   </g>
   <g id="patch_5">
    <path d="M 34.240625 228.96 
L 34.240625 128.16 
" style="fill: none"/>
   </g>
   <g id="patch_6">
    <path d="M 480.640625 228.96 
L 480.640625 128.16 
" style="fill: none"/>
   </g>
   <g id="patch_7">
    <path d="M 34.240625 228.96 
L 480.640625 228.96 
" style="fill: none"/>
   </g>
   <g id="patch_8">
    <path d="M 34.240625 128.16 
L 480.640625 128.16 
" style="fill: none"/>
   </g>
  </g>
 </g>
 <defs>
  <clipPath id="p0a82ac977f">
   <rect x="34.240625" y="7.2" width="446.4" height="100.8"/>
  </clipPath>
  <clipPath id="pf59797f4ff">
   <rect x="34.240625" y="128.16" width="446.4" height="100.8"/>
  </clipPath>
 </defs>
</svg>
