<?xml version="1.0" encoding="utf-8" standalone="no"?>
<!DOCTYPE svg PUBLIC "-//W3C//DTD SVG 1.1//EN"
  "http://www.w3.org/Graphics/SVG/1.1/DTD/svg11.dtd">
<svg xmlns:xlink="http://www.w3.org/1999/xlink" width="496.220312pt" height="155.63625pt" viewBox="0 0 496.220312 155.63625" xmlns="http://www.w3.org/2000/svg" version="1.1">
 <metadata>
  <rdf:RDF xmlns:dc="http://purl.org/dc/elements/1.1/" xmlns:cc="http://creativecommons.org/ns#" xmlns:rdf="http://www.w3.org/1999/02/22-rdf-syntax-ns#">
   <cc:Work>
    <dc:type rdf:resource="http://purl.org/dc/dcmitype/StillImage"/>
    <dc:date>2024-01-06T11:55:32.152702</dc:date>
    <dc:format>image/svg+xml</dc:format>
    <dc:creator>
     <cc:Agent>
      <dc:title>Matplotlib v3.8.2, https://matplotlib.org/</dc:title>
     </cc:Agent>
    </dc:creator>
   </cc:Work>
  </rdf:RDF>
 </metadata>
 <defs>
  <style type="text/css">*{stroke-linejoin: round; stroke-linecap: butt}</style>
 </defs>
 <g id="figure_1">
  <g id="axes_1">
   <g id="matplotlib.axis_1">
    <g id="xtick_1">
     <g id="line2d_1">
      <path d="M 62.911222 118.08 
L 62.911222 7.2 
" clip-path="url(#p1838789eff)" style="fill: none; stroke: #000000; stroke-opacity: 0.15; stroke-width: 0.8; stroke-linecap: square"/>
     </g>
     <g id="line2d_2">
      <defs>
       <path id="m192bea0557" d="M 0 0 
L 0 3.5 
" style="stroke: #000000; stroke-width: 0.8"/>
      </defs>
      <g>
       <use xlink:href="#m192bea0557" x="62.911222" y="118.08" style="stroke: #000000; stroke-width: 0.8"/>
      </g>
     </g>
     <g id="text_1">
      <!-- 0 -->
      <g transform="translate(59.729972 132.678438) scale(0.1 -0.1)">
       <defs>
        <path id="DejaVuSans-30" d="M 2034 4250 
Q 1547 4250 1301 3770 
Q 1056 3291 1056 2328 
Q 1056 1369 1301 889 
Q 1547 409 2034 409 
Q 2525 409 2770 889 
Q 3016 1369 3016 2328 
Q 3016 3291 2770 3770 
Q 2525 4250 2034 4250 
z
M 2034 4750 
Q 2819 4750 3233 4129 
Q 3647 3509 3647 2328 
Q 3647 1150 3233 529 
Q 2819 -91 2034 -91 
Q 1250 -91 836 529 
Q 422 1150 422 2328 
Q 422 3509 836 4129 
Q 1250 4750 2034 4750 
z
" transform="scale(0.015625)"/>
       </defs>
       <use xlink:href="#DejaVuSans-30"/>
      </g>
     </g>
    </g>
    <g id="xtick_2">
     <g id="line2d_3">
      <path d="M 144.237511 118.08 
L 144.237511 7.2 
" clip-path="url(#p1838789eff)" style="fill: none; stroke: #000000; stroke-opacity: 0.15; stroke-width: 0.8; stroke-linecap: square"/>
     </g>
     <g id="line2d_4">
      <g>
       <use xlink:href="#m192bea0557" x="144.237511" y="118.08" style="stroke: #000000; stroke-width: 0.8"/>
      </g>
     </g>
     <g id="text_2">
      <!-- 100 -->
      <g transform="translate(134.693761 132.678438) scale(0.1 -0.1)">
       <defs>
        <path id="DejaVuSans-31" d="M 794 531 
L 1825 531 
L 1825 4091 
L 703 3866 
L 703 4441 
L 1819 4666 
L 2450 4666 
L 2450 531 
L 3481 531 
L 3481 0 
L 794 0 
L 794 531 
z
" transform="scale(0.015625)"/>
       </defs>
       <use xlink:href="#DejaVuSans-31"/>
       <use xlink:href="#DejaVuSans-30" x="63.623047"/>
       <use xlink:href="#DejaVuSans-30" x="127.246094"/>
      </g>
     </g>
    </g>
    <g id="xtick_3">
     <g id="line2d_5">
      <path d="M 225.563799 118.08 
L 225.563799 7.2 
" clip-path="url(#p1838789eff)" style="fill: none; stroke: #000000; stroke-opacity: 0.15; stroke-width: 0.8; stroke-linecap: square"/>
     </g>
     <g id="line2d_6">
      <g>
       <use xlink:href="#m192bea0557" x="225.563799" y="118.08" style="stroke: #000000; stroke-width: 0.8"/>
      </g>
     </g>
     <g id="text_3">
      <!-- 200 -->
      <g transform="translate(216.020049 132.678438) scale(0.1 -0.1)">
       <defs>
        <path id="DejaVuSans-32" d="M 1228 531 
L 3431 531 
L 3431 0 
L 469 0 
L 469 531 
Q 828 903 1448 1529 
Q 2069 2156 2228 2338 
Q 2531 2678 2651 2914 
Q 2772 3150 2772 3378 
Q 2772 3750 2511 3984 
Q 2250 4219 1831 4219 
Q 1534 4219 1204 4116 
Q 875 4013 500 3803 
L 500 4441 
Q 881 4594 1212 4672 
Q 1544 4750 1819 4750 
Q 2544 4750 2975 4387 
Q 3406 4025 3406 3419 
Q 3406 3131 3298 2873 
Q 3191 2616 2906 2266 
Q 2828 2175 2409 1742 
Q 1991 1309 1228 531 
z
" transform="scale(0.015625)"/>
       </defs>
       <use xlink:href="#DejaVuSans-32"/>
       <use xlink:href="#DejaVuSans-30" x="63.623047"/>
       <use xlink:href="#DejaVuSans-30" x="127.246094"/>
      </g>
     </g>
    </g>
    <g id="xtick_4">
     <g id="line2d_7">
      <path d="M 306.890088 118.08 
L 306.890088 7.2 
" clip-path="url(#p1838789eff)" style="fill: none; stroke: #000000; stroke-opacity: 0.15; stroke-width: 0.8; stroke-linecap: square"/>
     </g>
     <g id="line2d_8">
      <g>
       <use xlink:href="#m192bea0557" x="306.890088" y="118.08" style="stroke: #000000; stroke-width: 0.8"/>
      </g>
     </g>
     <g id="text_4">
      <!-- 300 -->
      <g transform="translate(297.346338 132.678438) scale(0.1 -0.1)">
       <defs>
        <path id="DejaVuSans-33" d="M 2597 2516 
Q 3050 2419 3304 2112 
Q 3559 1806 3559 1356 
Q 3559 666 3084 287 
Q 2609 -91 1734 -91 
Q 1441 -91 1130 -33 
Q 819 25 488 141 
L 488 750 
Q 750 597 1062 519 
Q 1375 441 1716 441 
Q 2309 441 2620 675 
Q 2931 909 2931 1356 
Q 2931 1769 2642 2001 
Q 2353 2234 1838 2234 
L 1294 2234 
L 1294 2753 
L 1863 2753 
Q 2328 2753 2575 2939 
Q 2822 3125 2822 3475 
Q 2822 3834 2567 4026 
Q 2313 4219 1838 4219 
Q 1578 4219 1281 4162 
Q 984 4106 628 3988 
L 628 4550 
Q 988 4650 1302 4700 
Q 1616 4750 1894 4750 
Q 2613 4750 3031 4423 
Q 3450 4097 3450 3541 
Q 3450 3153 3228 2886 
Q 3006 2619 2597 2516 
z
" transform="scale(0.015625)"/>
       </defs>
       <use xlink:href="#DejaVuSans-33"/>
       <use xlink:href="#DejaVuSans-30" x="63.623047"/>
       <use xlink:href="#DejaVuSans-30" x="127.246094"/>
      </g>
     </g>
    </g>
    <g id="xtick_5">
     <g id="line2d_9">
      <path d="M 388.216377 118.08 
L 388.216377 7.2 
" clip-path="url(#p1838789eff)" style="fill: none; stroke: #000000; stroke-opacity: 0.15; stroke-width: 0.8; stroke-linecap: square"/>
     </g>
     <g id="line2d_10">
      <g>
       <use xlink:href="#m192bea0557" x="388.216377" y="118.08" style="stroke: #000000; stroke-width: 0.8"/>
      </g>
     </g>
     <g id="text_5">
      <!-- 400 -->
      <g transform="translate(378.672627 132.678438) scale(0.1 -0.1)">
       <defs>
        <path id="DejaVuSans-34" d="M 2419 4116 
L 825 1625 
L 2419 1625 
L 2419 4116 
z
M 2253 4666 
L 3047 4666 
L 3047 1625 
L 3713 1625 
L 3713 1100 
L 3047 1100 
L 3047 0 
L 2419 0 
L 2419 1100 
L 313 1100 
L 313 1709 
L 2253 4666 
z
" transform="scale(0.015625)"/>
       </defs>
       <use xlink:href="#DejaVuSans-34"/>
       <use xlink:href="#DejaVuSans-30" x="63.623047"/>
       <use xlink:href="#DejaVuSans-30" x="127.246094"/>
      </g>
     </g>
    </g>
    <g id="xtick_6">
     <g id="line2d_11">
      <path d="M 469.542666 118.08 
L 469.542666 7.2 
" clip-path="url(#p1838789eff)" style="fill: none; stroke: #000000; stroke-opacity: 0.15; stroke-width: 0.8; stroke-linecap: square"/>
     </g>
     <g id="line2d_12">
      <g>
       <use xlink:href="#m192bea0557" x="469.542666" y="118.08" style="stroke: #000000; stroke-width: 0.8"/>
      </g>
     </g>
     <g id="text_6">
      <!-- 500 -->
      <g transform="translate(459.998916 132.678438) scale(0.1 -0.1)">
       <defs>
        <path id="DejaVuSans-35" d="M 691 4666 
L 3169 4666 
L 3169 4134 
L 1269 4134 
L 1269 2991 
Q 1406 3038 1543 3061 
Q 1681 3084 1819 3084 
Q 2600 3084 3056 2656 
Q 3513 2228 3513 1497 
Q 3513 744 3044 326 
Q 2575 -91 1722 -91 
Q 1428 -91 1123 -41 
Q 819 9 494 109 
L 494 744 
Q 775 591 1075 516 
Q 1375 441 1709 441 
Q 2250 441 2565 725 
Q 2881 1009 2881 1497 
Q 2881 1984 2565 2268 
Q 2250 2553 1709 2553 
Q 1456 2553 1204 2497 
Q 953 2441 691 2322 
L 691 4666 
z
" transform="scale(0.015625)"/>
       </defs>
       <use xlink:href="#DejaVuSans-35"/>
       <use xlink:href="#DejaVuSans-30" x="63.623047"/>
       <use xlink:href="#DejaVuSans-30" x="127.246094"/>
      </g>
     </g>
    </g>
    <g id="text_7">
     <!-- h -->
     <g transform="translate(262.651563 146.356562) scale(0.1 -0.1)">
      <defs>
       <path id="DejaVuSans-68" d="M 3513 2113 
L 3513 0 
L 2938 0 
L 2938 2094 
Q 2938 2591 2744 2837 
Q 2550 3084 2163 3084 
Q 1697 3084 1428 2787 
Q 1159 2491 1159 1978 
L 1159 0 
L 581 0 
L 581 4863 
L 1159 4863 
L 1159 2956 
Q 1366 3272 1645 3428 
Q 1925 3584 2291 3584 
Q 2894 3584 3203 3211 
Q 3513 2838 3513 2113 
z
" transform="scale(0.015625)"/>
      </defs>
      <use xlink:href="#DejaVuSans-68"/>
     </g>
    </g>
   </g>
   <g id="matplotlib.axis_2">
    <g id="ytick_1">
     <g id="line2d_13">
      <path d="M 42.620312 110.956336 
L 489.020312 110.956336 
" clip-path="url(#p1838789eff)" style="fill: none; stroke: #000000; stroke-opacity: 0.15; stroke-width: 0.8; stroke-linecap: square"/>
     </g>
     <g id="line2d_14">
      <defs>
       <path id="mf56ec36a66" d="M 0 0 
L -3.5 0 
" style="stroke: #000000; stroke-width: 0.8"/>
      </defs>
      <g>
       <use xlink:href="#mf56ec36a66" x="42.620312" y="110.956336" style="stroke: #000000; stroke-width: 0.8"/>
      </g>
     </g>
     <g id="text_8">
      <!-- −1 -->
      <g transform="translate(20.878125 114.755554) scale(0.1 -0.1)">
       <defs>
        <path id="DejaVuSans-2212" d="M 678 2272 
L 4684 2272 
L 4684 1741 
L 678 1741 
L 678 2272 
z
" transform="scale(0.015625)"/>
       </defs>
       <use xlink:href="#DejaVuSans-2212"/>
       <use xlink:href="#DejaVuSans-31" x="83.789062"/>
      </g>
     </g>
    </g>
    <g id="ytick_2">
     <g id="line2d_15">
      <path d="M 42.620312 78.157748 
L 489.020312 78.157748 
" clip-path="url(#p1838789eff)" style="fill: none; stroke: #000000; stroke-opacity: 0.15; stroke-width: 0.8; stroke-linecap: square"/>
     </g>
     <g id="line2d_16">
      <g>
       <use xlink:href="#mf56ec36a66" x="42.620312" y="78.157748" style="stroke: #000000; stroke-width: 0.8"/>
      </g>
     </g>
     <g id="text_9">
      <!-- 0 -->
      <g transform="translate(29.257812 81.956967) scale(0.1 -0.1)">
       <use xlink:href="#DejaVuSans-30"/>
      </g>
     </g>
    </g>
    <g id="ytick_3">
     <g id="line2d_17">
      <path d="M 42.620312 45.359161 
L 489.020312 45.359161 
" clip-path="url(#p1838789eff)" style="fill: none; stroke: #000000; stroke-opacity: 0.15; stroke-width: 0.8; stroke-linecap: square"/>
     </g>
     <g id="line2d_18">
      <g>
       <use xlink:href="#mf56ec36a66" x="42.620312" y="45.359161" style="stroke: #000000; stroke-width: 0.8"/>
      </g>
     </g>
     <g id="text_10">
      <!-- 1 -->
      <g transform="translate(29.257812 49.15838) scale(0.1 -0.1)">
       <use xlink:href="#DejaVuSans-31"/>
      </g>
     </g>
    </g>
    <g id="ytick_4">
     <g id="line2d_19">
      <path d="M 42.620312 12.560574 
L 489.020312 12.560574 
" clip-path="url(#p1838789eff)" style="fill: none; stroke: #000000; stroke-opacity: 0.15; stroke-width: 0.8; stroke-linecap: square"/>
     </g>
     <g id="line2d_20">
      <g>
       <use xlink:href="#mf56ec36a66" x="42.620312" y="12.560574" style="stroke: #000000; stroke-width: 0.8"/>
      </g>
     </g>
     <g id="text_11">
      <!-- 2 -->
      <g transform="translate(29.257812 16.359793) scale(0.1 -0.1)">
       <use xlink:href="#DejaVuSans-32"/>
      </g>
     </g>
    </g>
    <g id="text_12">
     <!-- Autocovariance -->
     <g transform="translate(14.798437 101.58375) rotate(-90) scale(0.1 -0.1)">
      <defs>
       <path id="DejaVuSans-41" d="M 2188 4044 
L 1331 1722 
L 3047 1722 
L 2188 4044 
z
M 1831 4666 
L 2547 4666 
L 4325 0 
L 3669 0 
L 3244 1197 
L 1141 1197 
L 716 0 
L 50 0 
L 1831 4666 
z
" transform="scale(0.015625)"/>
       <path id="DejaVuSans-75" d="M 544 1381 
L 544 3500 
L 1119 3500 
L 1119 1403 
Q 1119 906 1312 657 
Q 1506 409 1894 409 
Q 2359 409 2629 706 
Q 2900 1003 2900 1516 
L 2900 3500 
L 3475 3500 
L 3475 0 
L 2900 0 
L 2900 538 
Q 2691 219 2414 64 
Q 2138 -91 1772 -91 
Q 1169 -91 856 284 
Q 544 659 544 1381 
z
M 1991 3584 
L 1991 3584 
z
" transform="scale(0.015625)"/>
       <path id="DejaVuSans-74" d="M 1172 4494 
L 1172 3500 
L 2356 3500 
L 2356 3053 
L 1172 3053 
L 1172 1153 
Q 1172 725 1289 603 
Q 1406 481 1766 481 
L 2356 481 
L 2356 0 
L 1766 0 
Q 1100 0 847 248 
Q 594 497 594 1153 
L 594 3053 
L 172 3053 
L 172 3500 
L 594 3500 
L 594 4494 
L 1172 4494 
z
" transform="scale(0.015625)"/>
       <path id="DejaVuSans-6f" d="M 1959 3097 
Q 1497 3097 1228 2736 
Q 959 2375 959 1747 
Q 959 1119 1226 758 
Q 1494 397 1959 397 
Q 2419 397 2687 759 
Q 2956 1122 2956 1747 
Q 2956 2369 2687 2733 
Q 2419 3097 1959 3097 
z
M 1959 3584 
Q 2709 3584 3137 3096 
Q 3566 2609 3566 1747 
Q 3566 888 3137 398 
Q 2709 -91 1959 -91 
Q 1206 -91 779 398 
Q 353 888 353 1747 
Q 353 2609 779 3096 
Q 1206 3584 1959 3584 
z
" transform="scale(0.015625)"/>
       <path id="DejaVuSans-63" d="M 3122 3366 
L 3122 2828 
Q 2878 2963 2633 3030 
Q 2388 3097 2138 3097 
Q 1578 3097 1268 2742 
Q 959 2388 959 1747 
Q 959 1106 1268 751 
Q 1578 397 2138 397 
Q 2388 397 2633 464 
Q 2878 531 3122 666 
L 3122 134 
Q 2881 22 2623 -34 
Q 2366 -91 2075 -91 
Q 1284 -91 818 406 
Q 353 903 353 1747 
Q 353 2603 823 3093 
Q 1294 3584 2113 3584 
Q 2378 3584 2631 3529 
Q 2884 3475 3122 3366 
z
" transform="scale(0.015625)"/>
       <path id="DejaVuSans-76" d="M 191 3500 
L 800 3500 
L 1894 563 
L 2988 3500 
L 3597 3500 
L 2284 0 
L 1503 0 
L 191 3500 
z
" transform="scale(0.015625)"/>
       <path id="DejaVuSans-61" d="M 2194 1759 
Q 1497 1759 1228 1600 
Q 959 1441 959 1056 
Q 959 750 1161 570 
Q 1363 391 1709 391 
Q 2188 391 2477 730 
Q 2766 1069 2766 1631 
L 2766 1759 
L 2194 1759 
z
M 3341 1997 
L 3341 0 
L 2766 0 
L 2766 531 
Q 2569 213 2275 61 
Q 1981 -91 1556 -91 
Q 1019 -91 701 211 
Q 384 513 384 1019 
Q 384 1609 779 1909 
Q 1175 2209 1959 2209 
L 2766 2209 
L 2766 2266 
Q 2766 2663 2505 2880 
Q 2244 3097 1772 3097 
Q 1472 3097 1187 3025 
Q 903 2953 641 2809 
L 641 3341 
Q 956 3463 1253 3523 
Q 1550 3584 1831 3584 
Q 2591 3584 2966 3190 
Q 3341 2797 3341 1997 
z
" transform="scale(0.015625)"/>
       <path id="DejaVuSans-72" d="M 2631 2963 
Q 2534 3019 2420 3045 
Q 2306 3072 2169 3072 
Q 1681 3072 1420 2755 
Q 1159 2438 1159 1844 
L 1159 0 
L 581 0 
L 581 3500 
L 1159 3500 
L 1159 2956 
Q 1341 3275 1631 3429 
Q 1922 3584 2338 3584 
Q 2397 3584 2469 3576 
Q 2541 3569 2628 3553 
L 2631 2963 
z
" transform="scale(0.015625)"/>
       <path id="DejaVuSans-69" d="M 603 3500 
L 1178 3500 
L 1178 0 
L 603 0 
L 603 3500 
z
M 603 4863 
L 1178 4863 
L 1178 4134 
L 603 4134 
L 603 4863 
z
" transform="scale(0.015625)"/>
       <path id="DejaVuSans-6e" d="M 3513 2113 
L 3513 0 
L 2938 0 
L 2938 2094 
Q 2938 2591 2744 2837 
Q 2550 3084 2163 3084 
Q 1697 3084 1428 2787 
Q 1159 2491 1159 1978 
L 1159 0 
L 581 0 
L 581 3500 
L 1159 3500 
L 1159 2956 
Q 1366 3272 1645 3428 
Q 1925 3584 2291 3584 
Q 2894 3584 3203 3211 
Q 3513 2838 3513 2113 
z
" transform="scale(0.015625)"/>
       <path id="DejaVuSans-65" d="M 3597 1894 
L 3597 1613 
L 953 1613 
Q 991 1019 1311 708 
Q 1631 397 2203 397 
Q 2534 397 2845 478 
Q 3156 559 3463 722 
L 3463 178 
Q 3153 47 2828 -22 
Q 2503 -91 2169 -91 
Q 1331 -91 842 396 
Q 353 884 353 1716 
Q 353 2575 817 3079 
Q 1281 3584 2069 3584 
Q 2775 3584 3186 3129 
Q 3597 2675 3597 1894 
z
M 3022 2063 
Q 3016 2534 2758 2815 
Q 2500 3097 2075 3097 
Q 1594 3097 1305 2825 
Q 1016 2553 972 2059 
L 3022 2063 
z
" transform="scale(0.015625)"/>
      </defs>
      <use xlink:href="#DejaVuSans-41"/>
      <use xlink:href="#DejaVuSans-75" x="68.408203"/>
      <use xlink:href="#DejaVuSans-74" x="131.787109"/>
      <use xlink:href="#DejaVuSans-6f" x="170.996094"/>
      <use xlink:href="#DejaVuSans-63" x="232.177734"/>
      <use xlink:href="#DejaVuSans-6f" x="287.158203"/>
      <use xlink:href="#DejaVuSans-76" x="348.339844"/>
      <use xlink:href="#DejaVuSans-61" x="407.519531"/>
      <use xlink:href="#DejaVuSans-72" x="468.798828"/>
      <use xlink:href="#DejaVuSans-69" x="509.912109"/>
      <use xlink:href="#DejaVuSans-61" x="537.695312"/>
      <use xlink:href="#DejaVuSans-6e" x="598.974609"/>
      <use xlink:href="#DejaVuSans-63" x="662.353516"/>
      <use xlink:href="#DejaVuSans-65" x="717.333984"/>
     </g>
    </g>
   </g>
   <g id="line2d_21">
    <path d="M 62.911222 12.24 
L 63.724484 46.359631 
L 64.537747 50.240609 
L 65.35101 59.094253 
L 66.164273 64.146954 
L 66.977536 75.501694 
L 67.790799 81.033556 
L 68.604062 92.960135 
L 69.417325 95.976321 
L 70.230588 100.284652 
L 71.04385 98.688996 
L 71.857113 97.992365 
L 72.670376 95.894887 
L 73.483639 90.810193 
L 74.296902 86.662873 
L 75.110165 80.6209 
L 75.923428 79.860709 
L 76.736691 77.562246 
L 78.363216 78.489796 
L 79.989742 87.716584 
L 80.803005 90.07548 
L 81.616268 89.645034 
L 82.429531 92.416055 
L 83.242794 90.859424 
L 84.056057 84.406093 
L 84.86932 80.772329 
L 86.495845 62.633962 
L 87.309108 57.50333 
L 88.122371 50.661396 
L 88.935634 50.07962 
L 89.748897 43.813774 
L 90.56216 47.588524 
L 91.375423 50.462004 
L 94.628474 85.890336 
L 95.441737 95.819903 
L 96.255 99.034276 
L 97.068263 106.17449 
L 97.881526 106.346078 
L 98.694789 101.873337 
L 99.508052 99.651181 
L 100.321315 93.074275 
L 101.134577 87.909965 
L 101.94784 83.893167 
L 103.574366 74.062006 
L 104.387629 75.345426 
L 105.200892 72.316012 
L 106.014155 79.644309 
L 106.827418 78.624712 
L 107.640681 81.621975 
L 108.453943 82.834557 
L 109.267206 84.260101 
L 110.080469 84.058239 
L 110.893732 81.098537 
L 111.706995 76.763025 
L 112.520258 71.140597 
L 113.333521 66.491148 
L 114.146784 58.473476 
L 114.960047 53.550106 
L 115.773309 51.322976 
L 116.586572 51.324847 
L 117.399835 52.02462 
L 119.026361 62.699985 
L 120.652887 81.788109 
L 121.46615 93.316992 
L 122.279413 101.614719 
L 123.092675 104.273604 
L 124.719201 107.503445 
L 125.532464 106.779672 
L 126.345727 103.022603 
L 127.15899 96.015448 
L 127.972253 87.367576 
L 128.785516 81.554348 
L 129.598779 77.168912 
L 130.412041 70.193403 
L 132.038567 69.380862 
L 132.85183 69.430249 
L 133.665093 68.831766 
L 134.478356 74.694698 
L 135.291619 75.376114 
L 136.104882 81.059021 
L 136.918145 79.445328 
L 137.731407 80.412334 
L 138.54467 74.876213 
L 139.357933 72.059699 
L 140.171196 66.123713 
L 140.984459 62.861216 
L 141.797722 56.220542 
L 142.610985 55.315563 
L 143.424248 52.736117 
L 144.237511 57.486097 
L 145.050773 61.552897 
L 147.490562 83.579886 
L 148.303825 94.604786 
L 149.117088 102.916494 
L 149.930351 106.660258 
L 150.743614 113.04 
L 151.556877 109.751955 
L 152.370139 107.883758 
L 153.183402 102.937899 
L 154.809928 87.60351 
L 155.623191 80.906443 
L 156.436454 70.369036 
L 158.06298 62.418838 
L 158.876243 61.749041 
L 159.689505 58.753709 
L 161.316031 67.505276 
L 162.129294 70.541606 
L 162.942557 74.723203 
L 163.75582 76.925908 
L 164.569083 76.799118 
L 165.382346 75.986272 
L 166.195609 74.84706 
L 167.008871 70.707326 
L 167.822134 69.646691 
L 168.635397 63.206295 
L 169.44866 61.367373 
L 170.261923 60.895508 
L 171.075186 61.867233 
L 171.888449 65.077584 
L 172.701712 69.796855 
L 173.514975 80.811211 
L 174.328237 88.890107 
L 175.1415 92.718913 
L 175.954763 101.195192 
L 176.768026 107.571166 
L 177.581289 113.021675 
L 178.394552 111.160559 
L 179.207815 105.739001 
L 180.021078 101.080259 
L 180.834341 95.102377 
L 183.274129 69.210095 
L 184.900655 57.865429 
L 185.713918 56.213476 
L 186.527181 53.250562 
L 187.340444 56.534074 
L 188.153707 58.250845 
L 188.966969 67.401682 
L 189.780232 68.887136 
L 190.593495 75.8175 
L 191.406758 77.005629 
L 192.220021 78.503757 
L 193.033284 79.522837 
L 193.846547 80.162185 
L 194.65981 74.165159 
L 195.473073 72.164844 
L 197.099598 69.031227 
L 197.912861 68.068716 
L 198.726124 72.911909 
L 199.539387 76.472849 
L 200.35265 81.278172 
L 201.165913 90.840968 
L 202.792439 101.088939 
L 203.605701 106.331949 
L 204.418964 108.313166 
L 205.232227 107.262536 
L 206.04549 105.435308 
L 206.858753 98.261581 
L 209.298542 71.088775 
L 210.111805 64.494137 
L 210.925067 54.500432 
L 211.73833 52.402167 
L 212.551593 51.37311 
L 213.364856 51.908151 
L 214.178119 53.771666 
L 214.991382 58.249701 
L 215.804645 63.360098 
L 216.617908 72.199872 
L 217.431171 76.460055 
L 218.244433 81.51182 
L 219.057696 82.949377 
L 219.870959 86.144348 
L 220.684222 84.366667 
L 221.497485 84.462783 
L 222.310748 80.386246 
L 223.124011 80.071321 
L 223.937274 73.707045 
L 224.750537 74.459717 
L 225.563799 76.972262 
L 226.377062 78.285673 
L 228.003588 87.50461 
L 228.816851 92.890422 
L 229.630114 99.530876 
L 230.443377 102.032947 
L 231.25664 106.82075 
L 232.883165 96.392036 
L 233.696428 93.736563 
L 234.509691 87.415837 
L 235.322954 79.202013 
L 236.136217 68.007247 
L 237.762743 51.284479 
L 238.576006 47.86823 
L 239.389269 46.871604 
L 240.202531 47.7831 
L 241.015794 50.412355 
L 241.829057 60.352078 
L 242.64232 63.225098 
L 243.455583 73.011732 
L 244.268846 78.278336 
L 245.082109 87.093391 
L 245.895372 87.527594 
L 246.708635 93.842622 
L 247.521897 88.318574 
L 248.33516 92.20821 
L 249.148423 86.600467 
L 249.961686 86.115024 
L 250.774949 79.660171 
L 251.588212 76.911209 
L 252.401475 78.224489 
L 253.214738 78.714093 
L 254.028001 81.033808 
L 254.841263 86.188627 
L 255.654526 89.570742 
L 256.467789 93.881944 
L 258.094315 99.019271 
L 258.907578 99.268031 
L 259.720841 93.52212 
L 260.534104 90.131958 
L 261.347367 83.355941 
L 262.973892 63.944063 
L 263.787155 55.535258 
L 264.600418 52.023761 
L 265.413681 46.415507 
L 266.226944 42.036708 
L 267.040207 46.415507 
L 267.85347 52.023761 
L 268.666733 55.535258 
L 270.293258 73.299229 
L 271.106521 83.355941 
L 271.919784 90.131958 
L 272.733047 93.52212 
L 273.54631 99.268031 
L 274.359573 99.019271 
L 275.986099 93.881944 
L 276.799362 89.570742 
L 277.612624 86.188627 
L 278.425887 81.033808 
L 279.23915 78.714093 
L 280.052413 78.224489 
L 280.865676 76.911209 
L 281.678939 79.660171 
L 282.492202 86.115024 
L 283.305465 86.600467 
L 284.118728 92.20821 
L 284.93199 88.318574 
L 285.745253 93.842622 
L 286.558516 87.527594 
L 287.371779 87.093391 
L 288.185042 78.278336 
L 288.998305 73.011732 
L 289.811568 63.225098 
L 290.624831 60.352078 
L 291.438094 50.412355 
L 292.251356 47.7831 
L 293.064619 46.871604 
L 293.877882 47.86823 
L 294.691145 51.284479 
L 296.317671 68.007247 
L 297.130934 79.202013 
L 297.944197 87.415837 
L 298.75746 93.736563 
L 299.570722 96.392036 
L 301.197248 106.82075 
L 302.010511 102.032947 
L 302.823774 99.530876 
L 303.637037 92.890422 
L 305.263563 82.68055 
L 306.076826 78.285673 
L 306.890088 76.972262 
L 307.703351 74.459717 
L 308.516614 73.707045 
L 309.329877 80.071321 
L 310.14314 80.386246 
L 310.956403 84.462783 
L 311.769666 84.366667 
L 312.582929 86.144348 
L 313.396192 82.949377 
L 314.209454 81.51182 
L 315.022717 76.460055 
L 315.83598 72.199872 
L 316.649243 63.360098 
L 318.275769 53.771666 
L 319.089032 51.908151 
L 319.902295 51.37311 
L 320.715558 52.402167 
L 321.52882 54.500432 
L 322.342083 64.494137 
L 323.155346 71.088775 
L 323.968609 81.088283 
L 326.408398 105.435308 
L 327.221661 107.262536 
L 328.034924 108.313166 
L 328.848186 106.331949 
L 331.287975 90.840968 
L 332.101238 81.278172 
L 332.914501 76.472849 
L 333.727764 72.911909 
L 334.541027 68.068716 
L 335.35429 69.031227 
L 336.980815 72.164844 
L 337.794078 74.165159 
L 338.607341 80.162185 
L 339.420604 79.522837 
L 340.233867 78.503757 
L 341.04713 77.005629 
L 341.860393 75.8175 
L 342.673656 68.887136 
L 343.486918 67.401682 
L 344.300181 58.250845 
L 345.113444 56.534074 
L 345.926707 53.250562 
L 346.73997 56.213476 
L 347.553233 57.865429 
L 349.179759 69.210095 
L 351.619547 95.102377 
L 352.43281 101.080259 
L 353.246073 105.739001 
L 354.059336 111.160559 
L 354.872599 113.021675 
L 355.685862 107.571166 
L 356.499125 101.195192 
L 357.312388 92.718913 
L 358.12565 88.890107 
L 358.938913 80.811211 
L 359.752176 69.796855 
L 360.565439 65.077584 
L 361.378702 61.867233 
L 362.191965 60.895508 
L 363.005228 61.367373 
L 363.818491 63.206295 
L 364.631754 69.646691 
L 365.445016 70.707326 
L 366.258279 74.84706 
L 367.071542 75.986272 
L 367.884805 76.799118 
L 368.698068 76.925908 
L 369.511331 74.723203 
L 370.324594 70.541606 
L 371.137857 67.505276 
L 372.764382 58.753709 
L 373.577645 61.749041 
L 374.390908 62.418838 
L 376.017434 70.369036 
L 376.830697 80.906443 
L 378.457223 94.963635 
L 379.270486 102.937899 
L 380.083748 107.883758 
L 380.897011 109.751955 
L 381.710274 113.04 
L 382.523537 106.660258 
L 383.3368 102.916494 
L 384.150063 94.604786 
L 384.963326 83.579886 
L 386.589852 69.044282 
L 387.403114 61.552897 
L 388.216377 57.486097 
L 389.02964 52.736117 
L 389.842903 55.315563 
L 390.656166 56.220542 
L 391.469429 62.861216 
L 392.282692 66.123713 
L 393.095955 72.059699 
L 393.909218 74.876213 
L 394.72248 80.412334 
L 395.535743 79.445328 
L 396.349006 81.059021 
L 397.162269 75.376114 
L 397.975532 74.694698 
L 398.788795 68.831766 
L 399.602058 69.430249 
L 400.415321 69.380862 
L 402.041846 70.193403 
L 402.855109 77.168912 
L 403.668372 81.554348 
L 404.481635 87.367576 
L 405.294898 96.015448 
L 406.108161 103.022603 
L 406.921424 106.779672 
L 407.734687 107.503445 
L 408.54795 106.00752 
L 409.361212 104.273604 
L 410.174475 101.614719 
L 410.987738 93.316992 
L 411.801001 81.788109 
L 413.427527 62.699985 
L 415.054053 52.02462 
L 415.867316 51.324847 
L 416.680578 51.322976 
L 417.493841 53.550106 
L 418.307104 58.473476 
L 419.120367 66.491148 
L 419.93363 71.140597 
L 420.746893 76.763025 
L 421.560156 81.098537 
L 422.373419 84.058239 
L 423.186682 84.260101 
L 424.813207 81.621975 
L 425.62647 78.624712 
L 426.439733 79.644309 
L 427.252996 72.316012 
L 428.066259 75.345426 
L 428.879522 74.062006 
L 432.132573 93.074275 
L 432.945836 99.651181 
L 433.759099 101.873337 
L 434.572362 106.346078 
L 435.385625 106.17449 
L 436.198888 99.034276 
L 437.012151 95.819903 
L 437.825414 85.890336 
L 438.638677 77.800745 
L 439.451939 67.655956 
L 441.078465 50.462004 
L 441.891728 47.588524 
L 442.704991 43.813774 
L 443.518254 50.07962 
L 444.331517 50.661396 
L 445.14478 57.50333 
L 445.958043 62.633962 
L 447.584568 80.772329 
L 448.397831 84.406093 
L 449.211094 90.859424 
L 450.024357 92.416055 
L 450.83762 89.645034 
L 451.650883 90.07548 
L 452.464146 87.716584 
L 454.090671 78.489796 
L 455.717197 77.562246 
L 456.53046 79.860709 
L 457.343723 80.6209 
L 458.156986 86.662873 
L 458.970249 90.810193 
L 459.783512 95.894887 
L 460.596775 97.992365 
L 461.410037 98.688996 
L 462.2233 100.284652 
L 463.036563 95.976321 
L 463.849826 92.960135 
L 464.663089 81.033556 
L 465.476352 75.501694 
L 466.289615 64.146954 
L 467.102878 59.094253 
L 467.916141 50.240609 
L 468.729403 46.359631 
L 468.729403 46.359631 
" clip-path="url(#p1838789eff)" style="fill: none; stroke: #1f77b4; stroke-width: 1.5; stroke-linecap: square"/>
   </g>
   <g id="patch_1">
    <path d="M 42.620312 118.08 
L 42.620312 7.2 
" style="fill: none"/>
   </g>
   <g id="patch_2">
    <path d="M 489.020312 118.08 
L 489.020312 7.2 
" style="fill: none"/>
   </g>
   <g id="patch_3">
    <path d="M 42.620312 118.08 
L 489.020312 118.08 
" style="fill: none"/>
   </g>
   <g id="patch_4">
    <path d="M 42.620312 7.2 
L 489.020312 7.2 
" style="fill: none"/>
   </g>
  </g>
 </g>
 <defs>
  <clipPath id="p1838789eff">
   <rect x="42.620312" y="7.2" width="446.4" height="110.88"/>
  </clipPath>
 </defs>
</svg>
