<svg width="252" height="155" viewBox="0 0 252 155" fill="none" xmlns="http://www.w3.org/2000/svg">
<g clip-path="url(#clip0_13_180)">
<rect width="61" height="20" transform="matrix(4.50014e-08 -1 -1 -4.24583e-08 140 133)" fill="#D3D3D3"/>
<rect width="80" height="23" transform="matrix(4.46931e-08 -1 -1 -4.27512e-08 94 133)" fill="#D3D3D3"/>
<rect width="72" height="19" transform="matrix(4.42514e-08 -1 -1 -4.3178e-08 43 133)" fill="#D3D3D3"/>
<rect width="101" height="19" transform="matrix(4.47588e-08 -1 -1 -4.26885e-08 211 133)" fill="#6BBE64"/>
<rect width="59" height="19" transform="matrix(4.50014e-08 -1 -1 -4.24583e-08 160 133)" fill="#6BBE64"/>
<rect width="50" height="20" transform="matrix(4.48801e-08 -1 -1 -4.25731e-08 115 133)" fill="#6BBE64"/>
<rect width="50" height="20" transform="matrix(4.43191e-08 -1 -1 -4.3112e-08 64 133)" fill="#6BBE64"/>
<line x1="252" y1="133.5" x2="20" y2="133.5" stroke="black"/>
<path d="M182.734 149.32L182.734 148.132C182.35 148.092 181.978 147.988 181.618 147.82C181.258 147.644 180.95 147.44 180.694 147.208L181.15 146.524C181.406 146.748 181.686 146.94 181.99 147.1C182.302 147.252 182.642 147.328 183.01 147.328C183.458 147.328 183.79 147.216 184.006 146.992C184.23 146.76 184.342 146.46 184.342 146.092C184.342 145.764 184.262 145.496 184.102 145.288C183.942 145.08 183.734 144.9 183.478 144.748C183.222 144.596 182.95 144.452 182.662 144.316C182.382 144.172 182.114 144.016 181.858 143.848C181.602 143.672 181.394 143.456 181.234 143.2C181.074 142.944 180.994 142.62 180.994 142.228C180.994 141.692 181.154 141.248 181.474 140.896C181.794 140.536 182.214 140.316 182.734 140.236L182.734 139.024L183.454 139.024L183.454 140.212C183.838 140.252 184.162 140.356 184.426 140.524C184.698 140.692 184.942 140.892 185.158 141.124L184.63 141.712C184.406 141.496 184.186 141.328 183.97 141.208C183.762 141.088 183.494 141.028 183.166 141.028C182.798 141.028 182.506 141.132 182.29 141.34C182.074 141.548 181.966 141.828 181.966 142.18C181.966 142.468 182.046 142.708 182.206 142.9C182.366 143.084 182.574 143.244 182.83 143.38C183.086 143.516 183.354 143.652 183.634 143.788C183.922 143.924 184.194 144.084 184.45 144.268C184.706 144.444 184.914 144.672 185.074 144.952C185.234 145.232 185.314 145.588 185.314 146.02C185.314 146.588 185.146 147.06 184.81 147.436C184.474 147.804 184.022 148.028 183.454 148.108L183.454 149.32L182.734 149.32ZM186.983 148L186.983 147.184L188.735 147.184L188.735 141.544L187.343 141.544L187.343 140.908C187.695 140.844 187.999 140.768 188.255 140.68C188.519 140.584 188.755 140.472 188.963 140.344L189.719 140.344L189.719 147.184L191.303 147.184L191.303 148L186.983 148ZM194.988 148.144C194.22 148.144 193.616 147.8 193.176 147.112C192.744 146.416 192.528 145.428 192.528 144.148C192.528 142.86 192.744 141.88 193.176 141.208C193.616 140.536 194.22 140.2 194.988 140.2C195.748 140.2 196.344 140.536 196.776 141.208C197.216 141.88 197.436 142.86 197.436 144.148C197.436 145.428 197.216 146.416 196.776 147.112C196.344 147.8 195.748 148.144 194.988 148.144ZM194.988 147.352C195.436 147.352 195.796 147.1 196.068 146.596C196.34 146.084 196.476 145.268 196.476 144.148C196.476 143.028 196.34 142.224 196.068 141.736C195.796 141.24 195.436 140.992 194.988 140.992C194.54 140.992 194.176 141.24 193.896 141.736C193.624 142.224 193.488 143.028 193.488 144.148C193.488 145.268 193.624 146.084 193.896 146.596C194.176 147.1 194.54 147.352 194.988 147.352ZM200.953 148.144C200.185 148.144 199.581 147.8 199.141 147.112C198.709 146.416 198.493 145.428 198.493 144.148C198.493 142.86 198.709 141.88 199.141 141.208C199.581 140.536 200.185 140.2 200.953 140.2C201.713 140.2 202.309 140.536 202.741 141.208C203.181 141.88 203.401 142.86 203.401 144.148C203.401 145.428 203.181 146.416 202.741 147.112C202.309 147.8 201.713 148.144 200.953 148.144ZM200.953 147.352C201.401 147.352 201.761 147.1 202.033 146.596C202.305 146.084 202.441 145.268 202.441 144.148C202.441 143.028 202.305 142.224 202.033 141.736C201.761 141.24 201.401 140.992 200.953 140.992C200.505 140.992 200.141 141.24 199.861 141.736C199.589 142.224 199.453 143.028 199.453 144.148C199.453 145.268 199.589 146.084 199.861 146.596C200.141 147.1 200.505 147.352 200.953 147.352Z" fill="black"/>
<line x1="20.5" y1="-2.18557e-08" x2="20.5" y2="134" stroke="black"/>
<path d="M12 86.4761L4.128 88.9961L4.128 87.9281L8.376 86.6681C8.84 86.5241 9.276 86.4001 9.684 86.2961C10.084 86.1841 10.516 86.0521 10.98 85.9001L10.98 85.8521C10.516 85.7081 10.084 85.5801 9.684 85.4681C9.276 85.3561 8.84 85.2321 8.376 85.0961L4.128 83.8361L4.128 82.8161L12 85.3121L12 86.4761ZM12.144 79.7441C12.144 80.2161 12.024 80.6601 11.784 81.0761C11.544 81.4841 11.196 81.8161 10.74 82.0721C10.284 82.3201 9.736 82.4441 9.096 82.4441C8.44 82.4441 7.884 82.3201 7.428 82.0721C6.972 81.8161 6.624 81.4841 6.384 81.0761C6.144 80.6601 6.024 80.2161 6.024 79.7441C6.024 79.2641 6.144 78.8201 6.384 78.4121C6.624 78.0041 6.972 77.6761 7.428 77.4281C7.884 77.1721 8.44 77.0441 9.096 77.0441C9.736 77.0441 10.284 77.1721 10.74 77.4281C11.196 77.6761 11.544 78.0041 11.784 78.4121C12.024 78.8201 12.144 79.2641 12.144 79.7441ZM11.328 79.7441C11.328 79.2401 11.124 78.8361 10.716 78.5321C10.3 78.2201 9.76 78.0641 9.096 78.0641C8.424 78.0641 7.88 78.2201 7.464 78.5321C7.048 78.8361 6.84 79.2401 6.84 79.7441C6.84 80.2401 7.048 80.6441 7.464 80.9561C7.88 81.2681 8.424 81.4241 9.096 81.4241C9.76 81.4241 10.3 81.2681 10.716 80.9561C11.124 80.6441 11.328 80.2401 11.328 79.7441ZM12.144 74.4642C12.144 74.8322 12.032 75.1002 11.808 75.2682C11.576 75.4282 11.248 75.5082 10.824 75.5082L3.456 75.5082L3.456 74.5242L10.896 74.5242C11.048 74.5242 11.16 74.4962 11.232 74.4402C11.296 74.3842 11.328 74.3202 11.328 74.2482C11.328 74.2162 11.328 74.1882 11.328 74.1642C11.32 74.1322 11.312 74.0882 11.304 74.0322L12.048 73.9002C12.08 73.9642 12.104 74.0402 12.12 74.1282C12.136 74.2162 12.144 74.3282 12.144 74.4642ZM12.144 70.7456C12.144 71.3616 11.952 71.8136 11.568 72.1016C11.176 72.3896 10.608 72.5336 9.864 72.5336L6.168 72.5336L6.168 71.5376L9.732 71.5376C10.276 71.5376 10.672 71.4536 10.92 71.2856C11.168 71.1096 11.292 70.8296 11.292 70.4456C11.292 70.1416 11.216 69.8736 11.064 69.6416C10.904 69.4016 10.652 69.1456 10.308 68.8736L6.168 68.8736L6.168 67.8896L12 67.8896L12 68.7056L11.088 68.7896L11.088 68.8256C11.408 69.0976 11.664 69.3856 11.856 69.6896C12.048 69.9936 12.144 70.3456 12.144 70.7456ZM12 65.9222L6.168 65.9222L6.168 65.1062L7.008 65.0222L7.008 64.9862C6.728 64.7302 6.496 64.4502 6.312 64.1462C6.12 63.8422 6.024 63.5182 6.024 63.1742C6.024 62.7262 6.124 62.3782 6.324 62.1302C6.516 61.8742 6.788 61.6862 7.14 61.5662C6.812 61.2622 6.544 60.9542 6.336 60.6422C6.128 60.3302 6.024 59.9982 6.024 59.6462C6.024 59.0462 6.22 58.6022 6.612 58.3142C6.996 58.0182 7.56 57.8702 8.304 57.8702L12 57.8702L12 58.8542L8.436 58.8542C7.892 58.8542 7.496 58.9422 7.248 59.1182C7 59.2942 6.876 59.5662 6.876 59.9342C6.876 60.3662 7.176 60.8542 7.776 61.3982L12 61.3982L12 62.3822L8.436 62.3822C7.892 62.3822 7.496 62.4702 7.248 62.6462C7 62.8222 6.876 63.0982 6.876 63.4742C6.876 63.9062 7.176 64.3942 7.776 64.9382L12 64.9382L12 65.9222ZM12.144 53.609C12.144 54.129 12.024 54.601 11.784 55.025C11.536 55.449 11.184 55.785 10.728 56.033C10.272 56.281 9.728 56.405 9.096 56.405C8.456 56.405 7.908 56.281 7.452 56.033C6.996 55.777 6.644 55.449 6.396 55.049C6.148 54.649 6.024 54.229 6.024 53.789C6.024 53.045 6.272 52.473 6.768 52.073C7.264 51.665 7.928 51.461 8.76 51.461C8.864 51.461 8.968 51.465 9.072 51.473C9.168 51.473 9.252 51.481 9.324 51.497L9.324 55.433C9.94 55.393 10.432 55.201 10.8 54.857C11.168 54.505 11.352 54.049 11.352 53.489C11.352 53.209 11.312 52.953 11.232 52.721C11.144 52.481 11.032 52.253 10.896 52.037L11.544 51.689C11.704 51.937 11.844 52.221 11.964 52.541C12.084 52.853 12.144 53.209 12.144 53.609ZM8.616 55.445L8.616 52.325C8.024 52.325 7.576 52.453 7.272 52.709C6.96 52.957 6.804 53.309 6.804 53.765C6.804 54.173 6.964 54.541 7.284 54.869C7.596 55.189 8.04 55.381 8.616 55.445Z" fill="black"/>
<path d="M134.717 149.32L134.717 148.132C134.333 148.092 133.961 147.988 133.601 147.82C133.241 147.644 132.933 147.44 132.677 147.208L133.133 146.524C133.389 146.748 133.669 146.94 133.973 147.1C134.285 147.252 134.625 147.328 134.993 147.328C135.441 147.328 135.773 147.216 135.989 146.992C136.213 146.76 136.325 146.46 136.325 146.092C136.325 145.764 136.245 145.496 136.085 145.288C135.925 145.08 135.717 144.9 135.461 144.748C135.205 144.596 134.933 144.452 134.645 144.316C134.365 144.172 134.097 144.016 133.841 143.848C133.585 143.672 133.377 143.456 133.217 143.2C133.057 142.944 132.977 142.62 132.977 142.228C132.977 141.692 133.137 141.248 133.457 140.896C133.777 140.536 134.197 140.316 134.717 140.236L134.717 139.024L135.437 139.024L135.437 140.212C135.821 140.252 136.145 140.356 136.409 140.524C136.681 140.692 136.925 140.892 137.141 141.124L136.613 141.712C136.389 141.496 136.169 141.328 135.953 141.208C135.745 141.088 135.477 141.028 135.149 141.028C134.781 141.028 134.489 141.132 134.273 141.34C134.057 141.548 133.949 141.828 133.949 142.18C133.949 142.468 134.029 142.708 134.189 142.9C134.349 143.084 134.557 143.244 134.813 143.38C135.069 143.516 135.337 143.652 135.617 143.788C135.905 143.924 136.177 144.084 136.433 144.268C136.689 144.444 136.897 144.672 137.057 144.952C137.217 145.232 137.297 145.588 137.297 146.02C137.297 146.588 137.129 147.06 136.793 147.436C136.457 147.804 136.005 148.028 135.437 148.108L135.437 149.32L134.717 149.32ZM139.422 142.66C139.422 143.156 139.538 143.552 139.77 143.848C140.01 144.136 140.366 144.28 140.838 144.28C141.094 144.28 141.362 144.2 141.642 144.04C141.93 143.88 142.198 143.62 142.446 143.26C142.382 142.516 142.206 141.952 141.918 141.568C141.63 141.176 141.242 140.98 140.754 140.98C140.386 140.98 140.07 141.136 139.806 141.448C139.55 141.752 139.422 142.156 139.422 142.66ZM140.478 148.144C140.07 148.144 139.71 148.068 139.398 147.916C139.094 147.756 138.838 147.564 138.63 147.34L139.182 146.716C139.342 146.9 139.53 147.048 139.746 147.16C139.97 147.272 140.202 147.328 140.442 147.328C140.802 147.328 141.134 147.224 141.438 147.016C141.742 146.808 141.986 146.464 142.17 145.984C142.362 145.504 142.462 144.856 142.47 144.04C142.23 144.344 141.95 144.584 141.63 144.76C141.31 144.936 140.99 145.024 140.67 145.024C140.014 145.024 139.486 144.828 139.086 144.436C138.694 144.036 138.498 143.444 138.498 142.66C138.498 142.172 138.602 141.744 138.81 141.376C139.018 141.008 139.29 140.72 139.626 140.512C139.97 140.304 140.346 140.2 140.754 140.2C141.258 140.2 141.71 140.336 142.11 140.608C142.51 140.88 142.822 141.288 143.046 141.832C143.278 142.376 143.394 143.06 143.394 143.884C143.394 144.908 143.254 145.732 142.974 146.356C142.702 146.98 142.346 147.436 141.906 147.724C141.466 148.004 140.99 148.144 140.478 148.144ZM145.386 142.66C145.386 143.156 145.502 143.552 145.734 143.848C145.974 144.136 146.33 144.28 146.802 144.28C147.058 144.28 147.326 144.2 147.606 144.04C147.894 143.88 148.162 143.62 148.41 143.26C148.346 142.516 148.17 141.952 147.882 141.568C147.594 141.176 147.206 140.98 146.718 140.98C146.35 140.98 146.034 141.136 145.77 141.448C145.514 141.752 145.386 142.156 145.386 142.66ZM146.442 148.144C146.034 148.144 145.674 148.068 145.362 147.916C145.058 147.756 144.802 147.564 144.594 147.34L145.146 146.716C145.306 146.9 145.494 147.048 145.71 147.16C145.934 147.272 146.166 147.328 146.406 147.328C146.766 147.328 147.098 147.224 147.402 147.016C147.706 146.808 147.95 146.464 148.134 145.984C148.326 145.504 148.426 144.856 148.434 144.04C148.194 144.344 147.914 144.584 147.594 144.76C147.274 144.936 146.954 145.024 146.634 145.024C145.978 145.024 145.45 144.828 145.05 144.436C144.658 144.036 144.462 143.444 144.462 142.66C144.462 142.172 144.566 141.744 144.774 141.376C144.982 141.008 145.254 140.72 145.59 140.512C145.934 140.304 146.31 140.2 146.718 140.2C147.222 140.2 147.674 140.336 148.074 140.608C148.474 140.88 148.786 141.288 149.01 141.832C149.242 142.376 149.358 143.06 149.358 143.884C149.358 144.908 149.218 145.732 148.938 146.356C148.666 146.98 148.31 147.436 147.87 147.724C147.43 148.004 146.954 148.144 146.442 148.144Z" fill="black"/>
<path d="M88.7167 149.32L88.7167 148.132C88.3327 148.092 87.9607 147.988 87.6007 147.82C87.2407 147.644 86.9327 147.44 86.6767 147.208L87.1327 146.524C87.3887 146.748 87.6687 146.94 87.9727 147.1C88.2847 147.252 88.6247 147.328 88.9927 147.328C89.4407 147.328 89.7727 147.216 89.9887 146.992C90.2127 146.76 90.3247 146.46 90.3247 146.092C90.3247 145.764 90.2447 145.496 90.0847 145.288C89.9247 145.08 89.7167 144.9 89.4607 144.748C89.2047 144.596 88.9327 144.452 88.6447 144.316C88.3647 144.172 88.0967 144.016 87.8407 143.848C87.5847 143.672 87.3767 143.456 87.2167 143.2C87.0567 142.944 86.9767 142.62 86.9767 142.228C86.9767 141.692 87.1367 141.248 87.4567 140.896C87.7767 140.536 88.1967 140.316 88.7167 140.236L88.7167 139.024L89.4367 139.024L89.4367 140.212C89.8207 140.252 90.1447 140.356 90.4087 140.524C90.6807 140.692 90.9247 140.892 91.1407 141.124L90.6127 141.712C90.3887 141.496 90.1687 141.328 89.9527 141.208C89.7447 141.088 89.4767 141.028 89.1487 141.028C88.7807 141.028 88.4887 141.132 88.2727 141.34C88.0567 141.548 87.9487 141.828 87.9487 142.18C87.9487 142.468 88.0287 142.708 88.1887 142.9C88.3487 143.084 88.5567 143.244 88.8127 143.38C89.0687 143.516 89.3367 143.652 89.6167 143.788C89.9047 143.924 90.1767 144.084 90.4327 144.268C90.6887 144.444 90.8967 144.672 91.0567 144.952C91.2167 145.232 91.2967 145.588 91.2967 146.02C91.2967 146.588 91.1287 147.06 90.7927 147.436C90.4567 147.804 90.0047 148.028 89.4367 148.108L89.4367 149.32L88.7167 149.32ZM93.4216 142.66C93.4216 143.156 93.5376 143.552 93.7696 143.848C94.0096 144.136 94.3656 144.28 94.8376 144.28C95.0936 144.28 95.3616 144.2 95.6416 144.04C95.9296 143.88 96.1976 143.62 96.4456 143.26C96.3816 142.516 96.2056 141.952 95.9176 141.568C95.6296 141.176 95.2416 140.98 94.7536 140.98C94.3856 140.98 94.0696 141.136 93.8056 141.448C93.5496 141.752 93.4216 142.156 93.4216 142.66ZM94.4776 148.144C94.0696 148.144 93.7096 148.068 93.3976 147.916C93.0936 147.756 92.8376 147.564 92.6296 147.34L93.1816 146.716C93.3416 146.9 93.5296 147.048 93.7456 147.16C93.9696 147.272 94.2016 147.328 94.4416 147.328C94.8016 147.328 95.1336 147.224 95.4376 147.016C95.7416 146.808 95.9856 146.464 96.1696 145.984C96.3616 145.504 96.4616 144.856 96.4696 144.04C96.2296 144.344 95.9496 144.584 95.6296 144.76C95.3096 144.936 94.9896 145.024 94.6696 145.024C94.0136 145.024 93.4856 144.828 93.0856 144.436C92.6936 144.036 92.4976 143.444 92.4976 142.66C92.4976 142.172 92.6016 141.744 92.8096 141.376C93.0176 141.008 93.2896 140.72 93.6256 140.512C93.9696 140.304 94.3456 140.2 94.7536 140.2C95.2576 140.2 95.7096 140.336 96.1096 140.608C96.5096 140.88 96.8216 141.288 97.0456 141.832C97.2776 142.376 97.3936 143.06 97.3936 143.884C97.3936 144.908 97.2536 145.732 96.9736 146.356C96.7016 146.98 96.3456 147.436 95.9056 147.724C95.4656 148.004 94.9896 148.144 94.4776 148.144ZM100.982 148.144C100.502 148.144 100.074 148.056 99.6984 147.88C99.3224 147.696 99.0224 147.444 98.7984 147.124C98.5824 146.804 98.4744 146.444 98.4744 146.044C98.4744 145.708 98.5424 145.412 98.6784 145.156C98.8224 144.892 99.0024 144.664 99.2184 144.472C99.4424 144.272 99.6744 144.108 99.9144 143.98L99.9144 143.932C99.6344 143.732 99.3864 143.488 99.1704 143.2C98.9544 142.912 98.8464 142.568 98.8464 142.168C98.8464 141.776 98.9424 141.432 99.1344 141.136C99.3264 140.84 99.5864 140.612 99.9144 140.452C100.242 140.284 100.61 140.2 101.018 140.2C101.682 140.2 102.206 140.392 102.59 140.776C102.982 141.16 103.178 141.648 103.178 142.24C103.178 142.504 103.122 142.756 103.01 142.996C102.898 143.228 102.762 143.44 102.602 143.632C102.442 143.816 102.282 143.968 102.122 144.088L102.122 144.136C102.354 144.264 102.57 144.416 102.77 144.592C102.97 144.768 103.134 144.98 103.262 145.228C103.39 145.468 103.454 145.76 103.454 146.104C103.454 146.48 103.35 146.824 103.142 147.136C102.942 147.448 102.654 147.696 102.278 147.88C101.91 148.056 101.478 148.144 100.982 148.144ZM101.522 143.824C101.778 143.592 101.974 143.348 102.11 143.092C102.254 142.836 102.326 142.568 102.326 142.288C102.326 141.912 102.21 141.592 101.978 141.328C101.746 141.064 101.418 140.932 100.994 140.932C100.642 140.932 100.346 141.044 100.106 141.268C99.8744 141.492 99.7584 141.792 99.7584 142.168C99.7584 142.472 99.8384 142.724 99.9984 142.924C100.166 143.124 100.386 143.296 100.658 143.44C100.93 143.576 101.218 143.704 101.522 143.824ZM101.006 147.412C101.454 147.412 101.814 147.288 102.086 147.04C102.366 146.784 102.506 146.46 102.506 146.068C102.506 145.74 102.41 145.472 102.218 145.264C102.026 145.056 101.77 144.876 101.45 144.724C101.138 144.572 100.798 144.424 100.43 144.28C100.126 144.48 99.8704 144.72 99.6624 145C99.4624 145.28 99.3624 145.596 99.3624 145.948C99.3624 146.372 99.5184 146.724 99.8304 147.004C100.15 147.276 100.542 147.412 101.006 147.412Z" fill="black"/>
<path d="M37.7167 149.32L37.7167 148.132C37.3327 148.092 36.9607 147.988 36.6007 147.82C36.2407 147.644 35.9327 147.44 35.6767 147.208L36.1327 146.524C36.3887 146.748 36.6687 146.94 36.9727 147.1C37.2847 147.252 37.6247 147.328 37.9927 147.328C38.4407 147.328 38.7727 147.216 38.9887 146.992C39.2127 146.76 39.3247 146.46 39.3247 146.092C39.3247 145.764 39.2447 145.496 39.0847 145.288C38.9247 145.08 38.7167 144.9 38.4607 144.748C38.2047 144.596 37.9327 144.452 37.6447 144.316C37.3647 144.172 37.0967 144.016 36.8407 143.848C36.5847 143.672 36.3767 143.456 36.2167 143.2C36.0567 142.944 35.9767 142.62 35.9767 142.228C35.9767 141.692 36.1367 141.248 36.4567 140.896C36.7767 140.536 37.1967 140.316 37.7167 140.236L37.7167 139.024L38.4367 139.024L38.4367 140.212C38.8207 140.252 39.1447 140.356 39.4087 140.524C39.6807 140.692 39.9247 140.892 40.1407 141.124L39.6127 141.712C39.3887 141.496 39.1687 141.328 38.9527 141.208C38.7447 141.088 38.4767 141.028 38.1487 141.028C37.7807 141.028 37.4887 141.132 37.2727 141.34C37.0567 141.548 36.9487 141.828 36.9487 142.18C36.9487 142.468 37.0287 142.708 37.1887 142.9C37.3487 143.084 37.5567 143.244 37.8127 143.38C38.0687 143.516 38.3367 143.652 38.6167 143.788C38.9047 143.924 39.1767 144.084 39.4327 144.268C39.6887 144.444 39.8967 144.672 40.0567 144.952C40.2167 145.232 40.2967 145.588 40.2967 146.02C40.2967 146.588 40.1287 147.06 39.7927 147.436C39.4567 147.804 39.0047 148.028 38.4367 148.108L38.4367 149.32L37.7167 149.32ZM42.4216 142.66C42.4216 143.156 42.5376 143.552 42.7696 143.848C43.0096 144.136 43.3656 144.28 43.8376 144.28C44.0936 144.28 44.3616 144.2 44.6416 144.04C44.9296 143.88 45.1976 143.62 45.4456 143.26C45.3816 142.516 45.2056 141.952 44.9176 141.568C44.6296 141.176 44.2416 140.98 43.7536 140.98C43.3856 140.98 43.0696 141.136 42.8056 141.448C42.5496 141.752 42.4216 142.156 42.4216 142.66ZM43.4776 148.144C43.0696 148.144 42.7096 148.068 42.3976 147.916C42.0936 147.756 41.8376 147.564 41.6296 147.34L42.1816 146.716C42.3416 146.9 42.5296 147.048 42.7456 147.16C42.9696 147.272 43.2016 147.328 43.4416 147.328C43.8016 147.328 44.1336 147.224 44.4376 147.016C44.7416 146.808 44.9856 146.464 45.1696 145.984C45.3616 145.504 45.4616 144.856 45.4696 144.04C45.2296 144.344 44.9496 144.584 44.6296 144.76C44.3096 144.936 43.9896 145.024 43.6696 145.024C43.0136 145.024 42.4856 144.828 42.0856 144.436C41.6936 144.036 41.4976 143.444 41.4976 142.66C41.4976 142.172 41.6016 141.744 41.8096 141.376C42.0176 141.008 42.2896 140.72 42.6256 140.512C42.9696 140.304 43.3456 140.2 43.7536 140.2C44.2576 140.2 44.7096 140.336 45.1096 140.608C45.5096 140.88 45.8216 141.288 46.0456 141.832C46.2776 142.376 46.3936 143.06 46.3936 143.884C46.3936 144.908 46.2536 145.732 45.9736 146.356C45.7016 146.98 45.3456 147.436 44.9056 147.724C44.4656 148.004 43.9896 148.144 43.4776 148.144ZM49.1064 148C49.1544 147.04 49.2544 146.18 49.4064 145.42C49.5664 144.652 49.7984 143.932 50.1024 143.26C50.4144 142.58 50.8224 141.892 51.3264 141.196L47.5104 141.196L47.5104 140.344L52.4424 140.344L52.4424 140.956C51.9864 141.532 51.6144 142.088 51.3264 142.624C51.0384 143.152 50.8144 143.688 50.6544 144.232C50.4944 144.768 50.3744 145.344 50.2944 145.96C50.2144 146.576 50.1584 147.256 50.1264 148L49.1064 148Z" fill="black"/>
<path d="M197.868 92.267C197.868 92.0177 197.927 91.7573 198.044 91.486C198.169 91.222 198.337 90.9727 198.55 90.738L198.55 90.705L198 90.628L198 89.902L205.832 89.902L205.832 90.804L203.698 90.804L202.73 90.782C202.943 91.024 203.119 91.288 203.258 91.574C203.405 91.8673 203.478 92.1607 203.478 92.454C203.478 93.1507 203.232 93.6787 202.741 94.038C202.25 94.3973 201.59 94.577 200.761 94.577C200.152 94.577 199.632 94.467 199.199 94.247C198.766 94.0343 198.436 93.752 198.209 93.4C197.982 93.0553 197.868 92.6777 197.868 92.267ZM198.627 92.113C198.627 92.553 198.814 92.916 199.188 93.202C199.569 93.4953 200.09 93.642 200.75 93.642C201.337 93.642 201.81 93.532 202.169 93.312C202.536 93.0993 202.719 92.74 202.719 92.234C202.719 92.0067 202.657 91.7757 202.532 91.541C202.407 91.3063 202.228 91.0607 201.993 90.804L199.188 90.804C198.983 91.0387 198.836 91.2697 198.748 91.497C198.667 91.7317 198.627 91.937 198.627 92.113ZM197.868 98.1491C197.868 97.6724 197.978 97.2397 198.198 96.8511C198.425 96.4624 198.748 96.1544 199.166 95.9271C199.584 95.6997 200.083 95.5861 200.662 95.5861C201.249 95.5861 201.751 95.6997 202.169 95.9271C202.587 96.1617 202.91 96.4624 203.137 96.8291C203.364 97.1957 203.478 97.5807 203.478 97.9841C203.478 98.6661 203.251 99.1904 202.796 99.5571C202.341 99.9311 201.733 100.118 200.97 100.118C200.875 100.118 200.779 100.114 200.684 100.107C200.596 100.107 200.519 100.1 200.453 100.085L200.453 96.4771C199.888 96.5137 199.437 96.6897 199.1 97.0051C198.763 97.3277 198.594 97.7457 198.594 98.2591C198.594 98.5157 198.631 98.7504 198.704 98.9631C198.785 99.1831 198.887 99.3921 199.012 99.5901L198.418 99.9091C198.271 99.6817 198.143 99.4214 198.033 99.1281C197.923 98.8421 197.868 98.5157 197.868 98.1491ZM201.102 96.4661L201.102 99.3261C201.645 99.3261 202.055 99.2087 202.334 98.9741C202.62 98.7467 202.763 98.4241 202.763 98.0061C202.763 97.6321 202.616 97.2947 202.323 96.9941C202.037 96.7007 201.63 96.5247 201.102 96.4661ZM197.868 102.836C197.868 102.455 197.938 102.092 198.077 101.747C198.224 101.402 198.4 101.102 198.605 100.845L199.21 101.296C199.027 101.531 198.873 101.773 198.748 102.022C198.631 102.271 198.572 102.554 198.572 102.869C198.572 103.221 198.653 103.485 198.814 103.661C198.983 103.837 199.181 103.925 199.408 103.925C199.591 103.925 199.745 103.863 199.87 103.738C199.995 103.621 200.097 103.467 200.178 103.276C200.266 103.093 200.347 102.902 200.42 102.704C200.515 102.455 200.622 102.209 200.739 101.967C200.864 101.725 201.021 101.527 201.212 101.373C201.41 101.219 201.659 101.142 201.96 101.142C202.393 101.142 202.752 101.303 203.038 101.626C203.331 101.956 203.478 102.411 203.478 102.99C203.478 103.32 203.419 103.628 203.302 103.914C203.185 104.2 203.042 104.446 202.873 104.651L202.301 104.211C202.44 104.028 202.554 103.837 202.642 103.639C202.73 103.441 202.774 103.225 202.774 102.99C202.774 102.653 202.697 102.403 202.543 102.242C202.389 102.088 202.209 102.011 202.004 102.011C201.835 102.011 201.696 102.066 201.586 102.176C201.483 102.286 201.392 102.429 201.311 102.605C201.238 102.781 201.161 102.968 201.08 103.166C200.985 103.423 200.875 103.676 200.75 103.925C200.633 104.174 200.471 104.38 200.266 104.541C200.068 104.71 199.8 104.794 199.463 104.794C199.177 104.794 198.913 104.717 198.671 104.563C198.429 104.416 198.235 104.196 198.088 103.903C197.941 103.617 197.868 103.261 197.868 102.836ZM197.868 107.516C197.868 106.944 198.033 106.544 198.363 106.317C198.693 106.097 199.122 105.987 199.65 105.987L202.609 105.987L202.609 105.195L203.291 105.195L203.346 106.031L204.842 106.141L204.842 106.9L203.346 106.9L203.346 108.341L202.609 108.341L202.609 106.9L199.639 106.9C199.309 106.9 199.052 106.958 198.869 107.076C198.693 107.2 198.605 107.417 198.605 107.725C198.605 107.82 198.62 107.923 198.649 108.033C198.686 108.143 198.719 108.242 198.748 108.33L198.066 108.506C198.015 108.359 197.971 108.198 197.934 108.022C197.89 107.853 197.868 107.684 197.868 107.516ZM197.868 114.117C197.868 113.867 197.927 113.607 198.044 113.336C198.169 113.072 198.337 112.822 198.55 112.588L198.55 112.555L198 112.478L198 111.752L205.832 111.752L205.832 112.654L203.698 112.654L202.73 112.632C202.943 112.874 203.119 113.138 203.258 113.424C203.405 113.717 203.478 114.01 203.478 114.304C203.478 115 203.232 115.528 202.741 115.888C202.25 116.247 201.59 116.427 200.761 116.427C200.152 116.427 199.632 116.317 199.199 116.097C198.766 115.884 198.436 115.602 198.209 115.25C197.982 114.905 197.868 114.527 197.868 114.117ZM198.627 113.963C198.627 114.403 198.814 114.766 199.188 115.052C199.569 115.345 200.09 115.492 200.75 115.492C201.337 115.492 201.81 115.382 202.169 115.162C202.536 114.949 202.719 114.59 202.719 114.084C202.719 113.856 202.657 113.625 202.532 113.391C202.407 113.156 202.228 112.91 201.993 112.654L199.188 112.654C198.983 112.888 198.836 113.119 198.748 113.347C198.667 113.581 198.627 113.787 198.627 113.963ZM198 117.832L203.346 117.832L203.346 118.734L198 118.734L198 117.832ZM204.446 118.294C204.446 118.118 204.497 117.971 204.6 117.854C204.71 117.744 204.857 117.689 205.04 117.689C205.216 117.689 205.359 117.744 205.469 117.854C205.579 117.971 205.634 118.118 205.634 118.294C205.634 118.47 205.579 118.613 205.469 118.723C205.359 118.84 205.216 118.899 205.04 118.899C204.857 118.899 204.71 118.84 204.6 118.723C204.497 118.613 204.446 118.47 204.446 118.294ZM197.868 122.365C197.868 121.697 198.11 121.162 198.594 120.759C199.085 120.355 199.775 120.154 200.662 120.154C201.241 120.154 201.74 120.26 202.158 120.473C202.583 120.693 202.91 120.979 203.137 121.331C203.364 121.69 203.478 122.071 203.478 122.475C203.478 122.783 203.423 123.05 203.313 123.278C203.203 123.505 203.053 123.736 202.862 123.971L203.775 123.927L205.832 123.927L205.832 124.84L198 124.84L198 124.092L198.627 124.015L198.627 123.982C198.422 123.776 198.242 123.534 198.088 123.256C197.941 122.977 197.868 122.68 197.868 122.365ZM198.627 122.563C198.627 123.032 198.873 123.487 199.364 123.927L202.158 123.927C202.363 123.699 202.506 123.479 202.587 123.267C202.675 123.061 202.719 122.849 202.719 122.629C202.719 122.343 202.631 122.082 202.455 121.848C202.286 121.62 202.048 121.437 201.74 121.298C201.439 121.158 201.084 121.089 200.673 121.089C200.035 121.089 199.533 121.217 199.166 121.474C198.807 121.73 198.627 122.093 198.627 122.563Z" fill="white"/>
<path d="M125.868 93.267C125.868 93.0177 125.927 92.7573 126.044 92.486C126.169 92.222 126.337 91.9727 126.55 91.738L126.55 91.705L126 91.628L126 90.902L133.832 90.902L133.832 91.804L131.698 91.804L130.73 91.782C130.943 92.024 131.119 92.288 131.258 92.574C131.405 92.8673 131.478 93.1607 131.478 93.454C131.478 94.1507 131.232 94.6787 130.741 95.038C130.25 95.3973 129.59 95.577 128.761 95.577C128.152 95.577 127.632 95.467 127.199 95.247C126.766 95.0343 126.436 94.752 126.209 94.4C125.982 94.0553 125.868 93.6777 125.868 93.267ZM126.627 93.113C126.627 93.553 126.814 93.916 127.188 94.202C127.569 94.4953 128.09 94.642 128.75 94.642C129.337 94.642 129.81 94.532 130.169 94.312C130.536 94.0993 130.719 93.74 130.719 93.234C130.719 93.0067 130.657 92.7757 130.532 92.541C130.407 92.3063 130.228 92.0607 129.993 91.804L127.188 91.804C126.983 92.0387 126.836 92.2697 126.748 92.497C126.667 92.7317 126.627 92.937 126.627 93.113ZM125.868 99.1491C125.868 98.6724 125.978 98.2397 126.198 97.8511C126.425 97.4624 126.748 97.1544 127.166 96.9271C127.584 96.6997 128.083 96.5861 128.662 96.5861C129.249 96.5861 129.751 96.6997 130.169 96.9271C130.587 97.1617 130.91 97.4624 131.137 97.8291C131.364 98.1957 131.478 98.5807 131.478 98.9841C131.478 99.6661 131.251 100.19 130.796 100.557C130.341 100.931 129.733 101.118 128.97 101.118C128.875 101.118 128.779 101.114 128.684 101.107C128.596 101.107 128.519 101.1 128.453 101.085L128.453 97.4771C127.888 97.5137 127.437 97.6897 127.1 98.0051C126.763 98.3277 126.594 98.7457 126.594 99.2591C126.594 99.5157 126.631 99.7504 126.704 99.9631C126.785 100.183 126.887 100.392 127.012 100.59L126.418 100.909C126.271 100.682 126.143 100.421 126.033 100.128C125.923 99.8421 125.868 99.5157 125.868 99.1491ZM129.102 97.4661L129.102 100.326C129.645 100.326 130.055 100.209 130.334 99.9741C130.62 99.7467 130.763 99.4241 130.763 99.0061C130.763 98.6321 130.616 98.2947 130.323 97.9941C130.037 97.7007 129.63 97.5247 129.102 97.4661ZM125.868 103.836C125.868 103.455 125.938 103.092 126.077 102.747C126.224 102.402 126.4 102.102 126.605 101.845L127.21 102.296C127.027 102.531 126.873 102.773 126.748 103.022C126.631 103.271 126.572 103.554 126.572 103.869C126.572 104.221 126.653 104.485 126.814 104.661C126.983 104.837 127.181 104.925 127.408 104.925C127.591 104.925 127.745 104.863 127.87 104.738C127.995 104.621 128.097 104.467 128.178 104.276C128.266 104.093 128.347 103.902 128.42 103.704C128.515 103.455 128.622 103.209 128.739 102.967C128.864 102.725 129.021 102.527 129.212 102.373C129.41 102.219 129.659 102.142 129.96 102.142C130.393 102.142 130.752 102.303 131.038 102.626C131.331 102.956 131.478 103.411 131.478 103.99C131.478 104.32 131.419 104.628 131.302 104.914C131.185 105.2 131.042 105.446 130.873 105.651L130.301 105.211C130.44 105.028 130.554 104.837 130.642 104.639C130.73 104.441 130.774 104.225 130.774 103.99C130.774 103.653 130.697 103.403 130.543 103.242C130.389 103.088 130.209 103.011 130.004 103.011C129.835 103.011 129.696 103.066 129.586 103.176C129.483 103.286 129.392 103.429 129.311 103.605C129.238 103.781 129.161 103.968 129.08 104.166C128.985 104.423 128.875 104.676 128.75 104.925C128.633 105.174 128.471 105.38 128.266 105.541C128.068 105.71 127.8 105.794 127.463 105.794C127.177 105.794 126.913 105.717 126.671 105.563C126.429 105.416 126.235 105.196 126.088 104.903C125.941 104.617 125.868 104.261 125.868 103.836ZM125.868 108.516C125.868 107.944 126.033 107.544 126.363 107.317C126.693 107.097 127.122 106.987 127.65 106.987L130.609 106.987L130.609 106.195L131.291 106.195L131.346 107.031L132.842 107.141L132.842 107.9L131.346 107.9L131.346 109.341L130.609 109.341L130.609 107.9L127.639 107.9C127.309 107.9 127.052 107.958 126.869 108.076C126.693 108.2 126.605 108.417 126.605 108.725C126.605 108.82 126.62 108.923 126.649 109.033C126.686 109.143 126.719 109.242 126.748 109.33L126.066 109.506C126.015 109.359 125.971 109.198 125.934 109.022C125.89 108.853 125.868 108.684 125.868 108.516ZM125.868 115.117C125.868 114.867 125.927 114.607 126.044 114.336C126.169 114.072 126.337 113.822 126.55 113.588L126.55 113.555L126 113.478L126 112.752L133.832 112.752L133.832 113.654L131.698 113.654L130.73 113.632C130.943 113.874 131.119 114.138 131.258 114.424C131.405 114.717 131.478 115.01 131.478 115.304C131.478 116 131.232 116.528 130.741 116.888C130.25 117.247 129.59 117.427 128.761 117.427C128.152 117.427 127.632 117.317 127.199 117.097C126.766 116.884 126.436 116.602 126.209 116.25C125.982 115.905 125.868 115.527 125.868 115.117ZM126.627 114.963C126.627 115.403 126.814 115.766 127.188 116.052C127.569 116.345 128.09 116.492 128.75 116.492C129.337 116.492 129.81 116.382 130.169 116.162C130.536 115.949 130.719 115.59 130.719 115.084C130.719 114.856 130.657 114.625 130.532 114.391C130.407 114.156 130.228 113.91 129.993 113.654L127.188 113.654C126.983 113.888 126.836 114.119 126.748 114.347C126.667 114.581 126.627 114.787 126.627 114.963ZM126 118.832L131.346 118.832L131.346 119.734L126 119.734L126 118.832ZM132.446 119.294C132.446 119.118 132.497 118.971 132.6 118.854C132.71 118.744 132.857 118.689 133.04 118.689C133.216 118.689 133.359 118.744 133.469 118.854C133.579 118.971 133.634 119.118 133.634 119.294C133.634 119.47 133.579 119.613 133.469 119.723C133.359 119.84 133.216 119.899 133.04 119.899C132.857 119.899 132.71 119.84 132.6 119.723C132.497 119.613 132.446 119.47 132.446 119.294ZM125.868 123.365C125.868 122.697 126.11 122.162 126.594 121.759C127.085 121.355 127.775 121.154 128.662 121.154C129.241 121.154 129.74 121.26 130.158 121.473C130.583 121.693 130.91 121.979 131.137 122.331C131.364 122.69 131.478 123.071 131.478 123.475C131.478 123.783 131.423 124.05 131.313 124.278C131.203 124.505 131.053 124.736 130.862 124.971L131.775 124.927L133.832 124.927L133.832 125.84L126 125.84L126 125.092L126.627 125.015L126.627 124.982C126.422 124.776 126.242 124.534 126.088 124.256C125.941 123.977 125.868 123.68 125.868 123.365ZM126.627 123.563C126.627 124.032 126.873 124.487 127.364 124.927L130.158 124.927C130.363 124.699 130.506 124.479 130.587 124.267C130.675 124.061 130.719 123.849 130.719 123.629C130.719 123.343 130.631 123.082 130.455 122.848C130.286 122.62 130.048 122.437 129.74 122.298C129.439 122.158 129.084 122.089 128.673 122.089C128.035 122.089 127.533 122.217 127.166 122.474C126.807 122.73 126.627 123.093 126.627 123.563Z" fill="white"/>
<path d="M27.44 10.12C26.8933 10.12 26.3967 9.99002 25.95 9.73002C25.5033 9.47002 25.1467 9.09002 24.88 8.59002C24.62 8.08335 24.49 7.47002 24.49 6.75002C24.49 6.03668 24.6233 5.42668 24.89 4.92002C25.1633 4.40668 25.5267 4.01668 25.98 3.75002C26.4333 3.47668 26.9333 3.34001 27.48 3.34001C27.8933 3.34001 28.26 3.42335 28.58 3.59001C28.9 3.75668 29.1633 3.95001 29.37 4.17001L28.75 4.92001C28.5833 4.74668 28.3967 4.61001 28.19 4.51001C27.99 4.40335 27.7633 4.35001 27.51 4.35001C27.1567 4.35002 26.84 4.44668 26.56 4.64001C26.2867 4.82668 26.07 5.09668 25.91 5.45001C25.7567 5.80335 25.68 6.22668 25.68 6.72002C25.68 7.46668 25.8433 8.05335 26.17 8.48001C26.4967 8.90001 26.9333 9.11001 27.48 9.11001C27.7733 9.11001 28.0333 9.05001 28.26 8.93001C28.4867 8.80335 28.6933 8.64001 28.88 8.44001L29.5 9.17001C29.2333 9.47668 28.9267 9.71335 28.58 9.88001C28.24 10.04 27.86 10.12 27.44 10.12ZM31.8541 10.12C31.3274 10.12 30.9441 9.95001 30.7041 9.61001C30.4641 9.27001 30.3441 8.79001 30.3441 8.17001L30.3441 5.09001L31.4941 5.09001L31.4941 8.02001C31.4941 8.42668 31.5541 8.71335 31.6741 8.88001C31.7941 9.04668 31.9874 9.13001 32.2541 9.13001C32.4674 9.13001 32.6541 9.07668 32.8141 8.97001C32.9807 8.86335 33.1574 8.69001 33.3441 8.45001L33.3441 5.09001L34.4941 5.09001L34.4941 10L33.5541 10L33.4641 9.28001L33.4341 9.28001C33.2207 9.53335 32.9874 9.73668 32.7341 9.89001C32.4807 10.0433 32.1874 10.12 31.8541 10.12ZM35.9507 10L35.9507 5.09001L36.9007 5.09001L36.9807 5.96001L37.0207 5.96001C37.194 5.64001 37.404 5.39668 37.6507 5.23001C37.8974 5.05668 38.1507 4.97001 38.4107 4.97001C38.644 4.97001 38.8307 5.00335 38.9707 5.07001L38.7707 6.07001C38.684 6.04335 38.604 6.02335 38.5307 6.01001C38.4574 5.99668 38.3674 5.99001 38.2607 5.99001C38.0674 5.99001 37.864 6.06668 37.6507 6.22001C37.4374 6.36668 37.254 6.62668 37.1007 7.00001L37.1007 10L35.9507 10ZM39.6812 10L39.6812 5.09001L40.6312 5.09001L40.7112 5.96001L40.7512 5.96001C40.9245 5.64001 41.1345 5.39668 41.3812 5.23001C41.6278 5.05668 41.8812 4.97001 42.1412 4.97001C42.3745 4.97001 42.5612 5.00335 42.7012 5.07001L42.5012 6.07001C42.4145 6.04335 42.3345 6.02335 42.2612 6.01001C42.1878 5.99668 42.0978 5.99001 41.9912 5.99001C41.7978 5.99001 41.5945 6.06668 41.3812 6.22001C41.1678 6.36668 40.9845 6.62668 40.8312 7.00001L40.8312 10L39.6812 10ZM45.414 10.12C44.9607 10.12 44.5507 10.02 44.184 9.82001C43.8173 9.61335 43.5273 9.32001 43.314 8.94001C43.1007 8.55335 42.994 8.09001 42.994 7.55001C42.994 7.01668 43.1007 6.55668 43.314 6.17001C43.534 5.78335 43.8173 5.48668 44.164 5.28001C44.5107 5.07335 44.874 4.97001 45.254 4.97001C45.7007 4.97001 46.074 5.07001 46.374 5.27001C46.674 5.46335 46.9007 5.73668 47.054 6.09001C47.2073 6.43668 47.284 6.84001 47.284 7.30001C47.284 7.54001 47.2673 7.72668 47.234 7.86001L44.114 7.86001C44.1673 8.29335 44.324 8.63001 44.584 8.87001C44.844 9.11001 45.1707 9.23001 45.564 9.23001C45.7773 9.23001 45.974 9.20001 46.154 9.14001C46.3407 9.07335 46.524 8.98335 46.704 8.87001L47.094 9.59001C46.8607 9.74335 46.6007 9.87001 46.314 9.97001C46.0273 10.07 45.7273 10.12 45.414 10.12ZM44.104 7.08001L46.284 7.08001C46.284 6.70001 46.2007 6.40335 46.034 6.19001C45.8673 5.97001 45.6173 5.86001 45.284 5.86001C44.9973 5.86001 44.7407 5.96668 44.514 6.18001C44.294 6.38668 44.1573 6.68668 44.104 7.08001ZM48.3823 10L48.3823 5.09001L49.3323 5.09001L49.4123 5.75001L49.4523 5.75001C49.6723 5.53668 49.9123 5.35335 50.1723 5.20001C50.4323 5.04668 50.729 4.97001 51.0623 4.97001C51.589 4.97001 51.9723 5.14001 52.2123 5.48001C52.4523 5.82001 52.5723 6.30001 52.5723 6.92001L52.5723 10L51.4223 10L51.4223 7.07001C51.4223 6.66335 51.3623 6.37668 51.2423 6.21001C51.1223 6.04335 50.9257 5.96001 50.6523 5.96001C50.439 5.96001 50.249 6.01335 50.0823 6.12001C49.9223 6.22001 49.739 6.37001 49.5323 6.57001L49.5323 10L48.3823 10ZM55.708 10.12C55.1414 10.12 54.738 9.95668 54.498 9.63001C54.2647 9.29668 54.148 8.86668 54.148 8.34001L54.148 6.00001L53.448 6.00001L53.448 5.14001L54.208 5.09001L54.348 3.75001L55.308 3.75001L55.308 5.09001L56.558 5.09001L56.558 6.00001L55.308 6.00001L55.308 8.34001C55.308 8.91335 55.538 9.20001 55.998 9.20001C56.0847 9.20001 56.1747 9.19001 56.268 9.17001C56.3614 9.14335 56.4414 9.11668 56.508 9.09001L56.708 9.94001C56.5747 9.98668 56.4214 10.0267 56.248 10.06C56.0814 10.1 55.9014 10.12 55.708 10.12ZM61.6033 10.12C61.1966 10.12 60.8166 10.02 60.4633 9.82001C60.1099 9.61335 59.8233 9.32001 59.6033 8.94001C59.3833 8.55335 59.2733 8.09001 59.2733 7.55001C59.2733 7.00335 59.3833 6.54001 59.6033 6.16001C59.8233 5.77335 60.1099 5.48001 60.4633 5.28001C60.8166 5.07335 61.1966 4.97001 61.6033 4.97001C62.0166 4.97001 62.3999 5.07334 62.7533 5.28001C63.1066 5.48001 63.3933 5.77334 63.6133 6.16001C63.8333 6.54001 63.9433 7.00334 63.9433 7.55001C63.9433 8.09001 63.8333 8.55335 63.6133 8.94001C63.3933 9.32001 63.1066 9.61335 62.7533 9.82001C62.3999 10.02 62.0166 10.12 61.6033 10.12ZM61.6033 9.18001C61.9633 9.18001 62.2466 9.03001 62.4533 8.73001C62.6599 8.43001 62.7633 8.03668 62.7633 7.55001C62.7633 7.05668 62.6599 6.66001 62.4533 6.36001C62.2466 6.06001 61.9633 5.91001 61.6033 5.91001C61.2433 5.91001 60.9599 6.06001 60.7533 6.36001C60.5533 6.66001 60.4533 7.05668 60.4533 7.55001C60.4533 8.03668 60.5533 8.43001 60.7533 8.73001C60.9599 9.03001 61.2433 9.18001 61.6033 9.18001ZM65.0816 10L65.0816 5.09001L66.0316 5.09001L66.1116 5.96001L66.1516 5.96001C66.3249 5.64001 66.5349 5.39668 66.7816 5.23001C67.0282 5.05668 67.2816 4.97001 67.5416 4.97001C67.7749 4.97001 67.9616 5.00334 68.1016 5.07001L67.9016 6.07001C67.8149 6.04334 67.7349 6.02334 67.6616 6.01001C67.5882 5.99668 67.4982 5.99001 67.3916 5.99001C67.1982 5.99001 66.9949 6.06668 66.7816 6.22001C66.5682 6.36668 66.3849 6.62668 66.2316 7.00001L66.2316 10L65.0816 10ZM70.4344 10.12C69.821 10.12 69.331 9.89334 68.9644 9.44001C68.5977 8.98668 68.4144 8.35668 68.4144 7.55001C68.4144 7.01668 68.511 6.55668 68.7044 6.17001C68.9044 5.78334 69.1644 5.48668 69.4844 5.28001C69.8044 5.07334 70.141 4.97001 70.4944 4.97001C70.7744 4.97001 71.011 5.02001 71.2044 5.12001C71.4044 5.21334 71.5977 5.34334 71.7844 5.51001L71.7444 4.72001L71.7444 2.94001L72.8944 2.94001L72.8944 10L71.9444 10L71.8644 9.47001L71.8244 9.47001C71.6444 9.65001 71.4344 9.80334 71.1944 9.93001C70.9544 10.0567 70.701 10.12 70.4344 10.12ZM70.7144 9.17001C71.081 9.17001 71.4244 8.98668 71.7444 8.62001L71.7444 6.33001C71.5777 6.17668 71.411 6.07001 71.2444 6.01001C71.0777 5.95001 70.911 5.92001 70.7444 5.92001C70.431 5.92001 70.161 6.06334 69.9344 6.35001C69.7144 6.63001 69.6044 7.02668 69.6044 7.54001C69.6044 8.06668 69.701 8.47001 69.8944 8.75001C70.0877 9.03001 70.361 9.17001 70.7144 9.17001ZM76.4589 10.12C76.0056 10.12 75.5956 10.02 75.2289 9.82001C74.8622 9.61334 74.5722 9.32001 74.3589 8.94001C74.1456 8.55334 74.0389 8.09001 74.0389 7.55001C74.0389 7.01668 74.1456 6.55668 74.3589 6.17001C74.5789 5.78334 74.8622 5.48668 75.2089 5.28001C75.5556 5.07334 75.9189 4.97001 76.2989 4.97001C76.7456 4.97001 77.1189 5.07001 77.4189 5.27001C77.7189 5.46334 77.9456 5.73668 78.0989 6.09001C78.2522 6.43668 78.3289 6.84001 78.3289 7.30001C78.3289 7.54001 78.3122 7.72668 78.2789 7.86001L75.1589 7.86001C75.2122 8.29334 75.3689 8.63001 75.6289 8.87001C75.8889 9.11001 76.2156 9.23001 76.6089 9.23001C76.8222 9.23001 77.0189 9.20001 77.1989 9.14001C77.3856 9.07334 77.5689 8.98334 77.7489 8.87001L78.1389 9.59001C77.9056 9.74334 77.6456 9.87001 77.3589 9.97001C77.0722 10.07 76.7722 10.12 76.4589 10.12ZM75.1489 7.08001L77.3289 7.08001C77.3289 6.70001 77.2456 6.40334 77.0789 6.19001C76.9122 5.97001 76.6622 5.86001 76.3289 5.86001C76.0422 5.86001 75.7856 5.96668 75.5589 6.18001C75.3389 6.38668 75.2022 6.68668 75.1489 7.08001ZM79.4273 10L79.4273 5.09001L80.3773 5.09001L80.4573 5.96001L80.4973 5.96001C80.6706 5.64001 80.8806 5.39668 81.1273 5.23001C81.3739 5.05668 81.6273 4.97001 81.8873 4.97001C82.1206 4.97001 82.3073 5.00334 82.4473 5.07001L82.2473 6.07001C82.1606 6.04334 82.0806 6.02334 82.0073 6.01001C81.9339 5.99668 81.8439 5.99001 81.7373 5.99001C81.5439 5.99001 81.3406 6.06668 81.1273 6.22001C80.9139 6.36668 80.7306 6.62668 80.5773 7.00001L80.5773 10L79.4273 10ZM87.5397 10.12C87.073 10.12 86.6264 9.90668 86.1997 9.48001L86.1697 9.48001L86.0697 10L85.1597 10L85.1597 2.94001L86.3097 2.94001L86.3097 4.76001L86.2797 5.58001C86.4864 5.40001 86.713 5.25334 86.9597 5.14001C87.2064 5.02668 87.453 4.97001 87.6997 4.97001C88.313 4.97001 88.7897 5.19668 89.1297 5.65001C89.4697 6.10334 89.6397 6.70668 89.6397 7.46001C89.6397 8.02001 89.5397 8.50001 89.3397 8.90001C89.1397 9.29334 88.8797 9.59668 88.5597 9.81001C88.2464 10.0167 87.9064 10.12 87.5397 10.12ZM87.2997 9.17001C87.6264 9.17001 87.8997 9.02668 88.1197 8.74001C88.3397 8.45334 88.4497 8.03334 88.4497 7.48001C88.4497 6.98668 88.3664 6.60334 88.1997 6.33001C88.033 6.05668 87.763 5.92001 87.3897 5.92001C87.043 5.92001 86.683 6.10334 86.3097 6.47001L86.3097 8.76001C86.483 8.90668 86.653 9.01334 86.8197 9.08001C86.993 9.14001 87.153 9.17001 87.2997 9.17001ZM92.8045 10.12C92.3978 10.12 92.0178 10.02 91.6645 9.82001C91.3111 9.61334 91.0245 9.32001 90.8045 8.94001C90.5845 8.55334 90.4745 8.09001 90.4745 7.55001C90.4745 7.00334 90.5845 6.54001 90.8045 6.16001C91.0245 5.77334 91.3111 5.48001 91.6645 5.28001C92.0178 5.07334 92.3978 4.97001 92.8045 4.97001C93.2178 4.97001 93.6011 5.07334 93.9545 5.28001C94.3078 5.48001 94.5945 5.77334 94.8145 6.16001C95.0345 6.54001 95.1445 7.00334 95.1445 7.55001C95.1445 8.09001 95.0345 8.55334 94.8145 8.94001C94.5945 9.32001 94.3078 9.61334 93.9545 9.82001C93.6011 10.02 93.2178 10.12 92.8045 10.12ZM92.8045 9.18001C93.1645 9.18001 93.4478 9.03001 93.6545 8.73001C93.8611 8.43001 93.9645 8.03668 93.9645 7.55001C93.9645 7.05668 93.8611 6.66001 93.6545 6.36001C93.4478 6.06001 93.1645 5.91001 92.8045 5.91001C92.4445 5.91001 92.1611 6.06001 91.9545 6.36001C91.7545 6.66001 91.6545 7.05668 91.6545 7.55001C91.6545 8.03668 91.7545 8.43001 91.9545 8.73001C92.1611 9.03001 92.4445 9.18001 92.8045 9.18001ZM98.2927 10.12C97.8861 10.12 97.5061 10.02 97.1527 9.82001C96.7994 9.61334 96.5127 9.32001 96.2927 8.94001C96.0727 8.55334 95.9627 8.09001 95.9627 7.55001C95.9627 7.00334 96.0727 6.54001 96.2927 6.16001C96.5127 5.77334 96.7994 5.48001 97.1527 5.28001C97.5061 5.07334 97.8861 4.97001 98.2927 4.97001C98.7061 4.97001 99.0894 5.07334 99.4427 5.28001C99.7961 5.48001 100.083 5.77334 100.303 6.16001C100.523 6.54001 100.633 7.00334 100.633 7.55001C100.633 8.09001 100.523 8.55334 100.303 8.94001C100.083 9.32001 99.7961 9.61334 99.4427 9.82001C99.0894 10.02 98.7061 10.12 98.2927 10.12ZM98.2927 9.18001C98.6527 9.18001 98.9361 9.03001 99.1427 8.73001C99.3494 8.43001 99.4527 8.03668 99.4527 7.55001C99.4527 7.05668 99.3494 6.66001 99.1427 6.36001C98.9361 6.06001 98.6527 5.91001 98.2927 5.91001C97.9327 5.91001 97.6494 6.06001 97.4427 6.36001C97.2427 6.66001 97.1427 7.05668 97.1427 7.55001C97.1427 8.03668 97.2427 8.43001 97.4427 8.73001C97.6494 9.03001 97.9327 9.18001 98.2927 9.18001ZM101.771 10L101.771 2.94001L102.901 2.94001L102.901 7.35001L102.931 7.35001L104.751 5.09001L106.011 5.09001L104.331 7.09001L106.181 10L104.931 10L103.671 7.87001L102.901 8.75001L102.901 10L101.771 10Z" fill="#6BBE64"/>
<path d="M176.423 24L176.423 17.44L177.283 17.44L179.653 21.56L180.363 22.92L180.403 22.92C180.383 22.5867 180.36 22.2433 180.333 21.89C180.313 21.53 180.303 21.1767 180.303 20.83L180.303 17.44L181.093 17.44L181.093 24L180.233 24L177.853 19.87L177.143 18.52L177.103 18.52C177.13 18.8467 177.153 19.1833 177.173 19.53C177.2 19.8767 177.213 20.2233 177.213 20.57L177.213 24L176.423 24ZM184.788 24.12C184.355 24.12 183.961 24.02 183.608 23.82C183.255 23.6133 182.975 23.32 182.768 22.94C182.561 22.56 182.458 22.1067 182.458 21.58C182.458 21.0467 182.561 20.59 182.768 20.21C182.981 19.83 183.255 19.5367 183.588 19.33C183.921 19.1233 184.271 19.02 184.638 19.02C185.258 19.02 185.735 19.2267 186.068 19.64C186.408 20.0533 186.578 20.6067 186.578 21.3C186.578 21.3867 186.575 21.4733 186.568 21.56C186.568 21.64 186.561 21.71 186.548 21.77L183.268 21.77C183.301 22.2833 183.461 22.6933 183.748 23C184.041 23.3067 184.421 23.46 184.888 23.46C185.121 23.46 185.335 23.4267 185.528 23.36C185.728 23.2867 185.918 23.1933 186.098 23.08L186.388 23.62C186.181 23.7533 185.945 23.87 185.678 23.97C185.418 24.07 185.121 24.12 184.788 24.12ZM183.258 21.18L185.858 21.18C185.858 20.6867 185.751 20.3133 185.538 20.06C185.331 19.8 185.038 19.67 184.658 19.67C184.318 19.67 184.011 19.8033 183.738 20.07C183.471 20.33 183.311 20.7 183.258 21.18ZM188.598 24L187.248 19.14L188.088 19.14L188.808 21.95C188.861 22.1767 188.911 22.4033 188.958 22.63C189.004 22.85 189.051 23.0733 189.098 23.3L189.138 23.3C189.191 23.0733 189.244 22.85 189.298 22.63C189.351 22.4033 189.408 22.1767 189.468 21.95L190.218 19.14L191.018 19.14L191.778 21.95C191.838 22.1767 191.894 22.4033 191.948 22.63C192.008 22.85 192.064 23.0733 192.118 23.3L192.158 23.3C192.211 23.0733 192.261 22.85 192.308 22.63C192.361 22.4033 192.411 22.1767 192.458 21.95L193.168 19.14L193.948 19.14L192.648 24L191.648 24L190.948 21.39C190.888 21.1567 190.831 20.9267 190.778 20.7C190.731 20.4733 190.678 20.2367 190.618 19.99L190.578 19.99C190.524 20.2367 190.471 20.4767 190.418 20.71C190.364 20.9367 190.304 21.1667 190.238 21.4L189.558 24L188.598 24ZM198.057 24L196.307 19.14L197.157 19.14L198.077 21.9C198.151 22.14 198.224 22.38 198.297 22.62C198.377 22.86 198.454 23.0967 198.527 23.33L198.567 23.33C198.641 23.0967 198.714 22.86 198.787 22.62C198.867 22.38 198.941 22.14 199.007 21.9L199.927 19.14L200.737 19.14L199.017 24L198.057 24ZM203.526 24.12C203.133 24.12 202.763 24.02 202.416 23.82C202.076 23.62 201.8 23.33 201.586 22.95C201.38 22.57 201.276 22.1133 201.276 21.58C201.276 21.0333 201.38 20.57 201.586 20.19C201.8 19.81 202.076 19.52 202.416 19.32C202.763 19.12 203.133 19.02 203.526 19.02C203.926 19.02 204.296 19.12 204.636 19.32C204.976 19.52 205.25 19.81 205.456 20.19C205.67 20.57 205.776 21.0333 205.776 21.58C205.776 22.1133 205.67 22.57 205.456 22.95C205.25 23.33 204.976 23.62 204.636 23.82C204.296 24.02 203.926 24.12 203.526 24.12ZM203.526 23.44C203.946 23.44 204.283 23.27 204.536 22.93C204.796 22.5833 204.926 22.1333 204.926 21.58C204.926 21.02 204.796 20.5667 204.536 20.22C204.283 19.8733 203.946 19.7 203.526 19.7C203.113 19.7 202.776 19.8733 202.516 20.22C202.256 20.5667 202.126 21.02 202.126 21.58C202.126 22.1333 202.256 22.5833 202.516 22.93C202.776 23.27 203.113 23.44 203.526 23.44ZM207.926 24.12C207.62 24.12 207.396 24.0267 207.256 23.84C207.123 23.6467 207.056 23.3733 207.056 23.02L207.056 16.88L207.876 16.88L207.876 23.08C207.876 23.2067 207.9 23.3 207.946 23.36C207.993 23.4133 208.046 23.44 208.106 23.44C208.133 23.44 208.156 23.44 208.176 23.44C208.203 23.4333 208.24 23.4267 208.286 23.42L208.396 24.04C208.343 24.0667 208.28 24.0867 208.206 24.1C208.133 24.1133 208.04 24.12 207.926 24.12ZM211.025 24.12C210.512 24.12 210.135 23.96 209.895 23.64C209.655 23.3133 209.535 22.84 209.535 22.22L209.535 19.14L210.365 19.14L210.365 22.11C210.365 22.5633 210.435 22.8933 210.575 23.1C210.722 23.3067 210.955 23.41 211.275 23.41C211.528 23.41 211.752 23.3467 211.945 23.22C212.145 23.0867 212.358 22.8767 212.585 22.59L212.585 19.14L213.405 19.14L213.405 24L212.725 24L212.655 23.24L212.625 23.24C212.398 23.5067 212.158 23.72 211.905 23.88C211.652 24.04 211.358 24.12 211.025 24.12ZM215.045 24L215.045 19.14L215.725 19.14L215.795 19.84L215.825 19.84C216.038 19.6067 216.271 19.4133 216.525 19.26C216.778 19.1 217.048 19.02 217.335 19.02C217.708 19.02 217.998 19.1033 218.205 19.27C218.418 19.43 218.575 19.6567 218.675 19.95C218.928 19.6767 219.185 19.4533 219.445 19.28C219.705 19.1067 219.981 19.02 220.275 19.02C220.775 19.02 221.145 19.1833 221.385 19.51C221.631 19.83 221.755 20.3 221.755 20.92L221.755 24L220.935 24L220.935 21.03C220.935 20.5767 220.861 20.2467 220.715 20.04C220.568 19.8333 220.341 19.73 220.035 19.73C219.675 19.73 219.268 19.98 218.815 20.48L218.815 24L217.995 24L217.995 21.03C217.995 20.5767 217.921 20.2467 217.775 20.04C217.628 19.8333 217.398 19.73 217.085 19.73C216.725 19.73 216.318 19.98 215.865 20.48L215.865 24L215.045 24ZM225.306 24.12C224.872 24.12 224.479 24.02 224.126 23.82C223.772 23.6133 223.492 23.32 223.286 22.94C223.079 22.56 222.976 22.1067 222.976 21.58C222.976 21.0467 223.079 20.59 223.286 20.21C223.499 19.83 223.772 19.5367 224.106 19.33C224.439 19.1233 224.789 19.02 225.156 19.02C225.776 19.02 226.252 19.2267 226.586 19.64C226.926 20.0533 227.096 20.6067 227.096 21.3C227.096 21.3867 227.092 21.4733 227.086 21.56C227.086 21.64 227.079 21.71 227.066 21.77L223.786 21.77C223.819 22.2833 223.979 22.6933 224.266 23C224.559 23.3067 224.939 23.46 225.406 23.46C225.639 23.46 225.852 23.4267 226.046 23.36C226.246 23.2867 226.436 23.1933 226.616 23.08L226.906 23.62C226.699 23.7533 226.462 23.87 226.196 23.97C225.936 24.07 225.639 24.12 225.306 24.12ZM223.776 21.18L226.376 21.18C226.376 20.6867 226.269 20.3133 226.056 20.06C225.849 19.8 225.556 19.67 225.176 19.67C224.836 19.67 224.529 19.8033 224.256 20.07C223.989 20.33 223.829 20.7 223.776 21.18Z" fill="black"/>
<path d="M24.83 22L24.83 15.46L26.89 15.46C27.3767 15.46 27.81 15.5233 28.19 15.65C28.57 15.7767 28.87 15.9867 29.09 16.28C29.31 16.5733 29.42 16.9733 29.42 17.48C29.42 17.96 29.31 18.3567 29.09 18.67C28.87 18.9833 28.5733 19.2167 28.2 19.37C27.8267 19.5233 27.4033 19.6 26.93 19.6L25.99 19.6L25.99 22L24.83 22ZM25.99 18.67L26.84 18.67C27.8 18.67 28.28 18.2733 28.28 17.48C28.28 17.0667 28.1533 16.7833 27.9 16.63C27.6533 16.47 27.2867 16.39 26.8 16.39L25.99 16.39L25.99 18.67ZM30.5503 22L30.5503 17.09L31.5003 17.09L31.5803 17.96L31.6203 17.96C31.7936 17.64 32.0036 17.3967 32.2503 17.23C32.497 17.0567 32.7503 16.97 33.0103 16.97C33.2436 16.97 33.4303 17.0033 33.5703 17.07L33.3703 18.07C33.2836 18.0433 33.2036 18.0233 33.1303 18.01C33.057 17.9967 32.967 17.99 32.8603 17.99C32.667 17.99 32.4636 18.0667 32.2503 18.22C32.037 18.3667 31.8536 18.6267 31.7003 19L31.7003 22L30.5503 22ZM36.2831 22.12C35.8298 22.12 35.4198 22.02 35.0531 21.82C34.6865 21.6133 34.3965 21.32 34.1831 20.94C33.9698 20.5533 33.8631 20.09 33.8631 19.55C33.8631 19.0167 33.9698 18.5567 34.1831 18.17C34.4031 17.7833 34.6865 17.4867 35.0331 17.28C35.3798 17.0733 35.7431 16.97 36.1231 16.97C36.5698 16.97 36.9431 17.07 37.2431 17.27C37.5431 17.4633 37.7698 17.7367 37.9231 18.09C38.0765 18.4367 38.1531 18.84 38.1531 19.3C38.1531 19.54 38.1365 19.7267 38.1031 19.86L34.9831 19.86C35.0365 20.2933 35.1931 20.63 35.4531 20.87C35.7131 21.11 36.0398 21.23 36.4331 21.23C36.6465 21.23 36.8431 21.2 37.0231 21.14C37.2098 21.0733 37.3931 20.9833 37.5731 20.87L37.9631 21.59C37.7298 21.7433 37.4698 21.87 37.1831 21.97C36.8965 22.07 36.5965 22.12 36.2831 22.12ZM34.9731 19.08L37.1531 19.08C37.1531 18.7 37.0698 18.4033 36.9031 18.19C36.7365 17.97 36.4865 17.86 36.1531 17.86C35.8665 17.86 35.6098 17.9667 35.3831 18.18C35.1631 18.3867 35.0265 18.6867 34.9731 19.08ZM40.3515 22L38.6415 17.09L39.8115 17.09L40.5915 19.64C40.6582 19.88 40.7248 20.1233 40.7915 20.37C40.8648 20.6167 40.9348 20.8667 41.0015 21.12L41.0415 21.12C41.1148 20.8667 41.1848 20.6167 41.2515 20.37C41.3248 20.1233 41.3948 19.88 41.4615 19.64L42.2415 17.09L43.3515 17.09L41.6815 22L40.3515 22ZM44.2027 22L44.2027 17.09L45.3527 17.09L45.3527 22L44.2027 22ZM44.7827 16.23C44.576 16.23 44.4093 16.17 44.2827 16.05C44.156 15.93 44.0927 15.77 44.0927 15.57C44.0927 15.3767 44.156 15.22 44.2827 15.1C44.4093 14.98 44.576 14.92 44.7827 14.92C44.9893 14.92 45.156 14.98 45.2827 15.1C45.4093 15.22 45.4727 15.3767 45.4727 15.57C45.4727 15.77 45.4093 15.93 45.2827 16.05C45.156 16.17 44.9893 16.23 44.7827 16.23ZM48.8298 22.12C48.4232 22.12 48.0432 22.02 47.6898 21.82C47.3365 21.6133 47.0498 21.32 46.8298 20.94C46.6098 20.5533 46.4998 20.09 46.4998 19.55C46.4998 19.0033 46.6098 18.54 46.8298 18.16C47.0498 17.7733 47.3365 17.48 47.6898 17.28C48.0432 17.0733 48.4232 16.97 48.8298 16.97C49.2432 16.97 49.6265 17.0733 49.9798 17.28C50.3332 17.48 50.6198 17.7733 50.8398 18.16C51.0598 18.54 51.1698 19.0033 51.1698 19.55C51.1698 20.09 51.0598 20.5533 50.8398 20.94C50.6198 21.32 50.3332 21.6133 49.9798 21.82C49.6265 22.02 49.2432 22.12 48.8298 22.12ZM48.8298 21.18C49.1898 21.18 49.4732 21.03 49.6798 20.73C49.8865 20.43 49.9898 20.0367 49.9898 19.55C49.9898 19.0567 49.8865 18.66 49.6798 18.36C49.4732 18.06 49.1898 17.91 48.8298 17.91C48.4698 17.91 48.1865 18.06 47.9798 18.36C47.7798 18.66 47.6798 19.0567 47.6798 19.55C47.6798 20.0367 47.7798 20.43 47.9798 20.73C48.1865 21.03 48.4698 21.18 48.8298 21.18ZM53.7681 22.12C53.2415 22.12 52.8581 21.95 52.6181 21.61C52.3781 21.27 52.2581 20.79 52.2581 20.17L52.2581 17.09L53.4081 17.09L53.4081 20.02C53.4081 20.4267 53.4681 20.7133 53.5881 20.88C53.7081 21.0467 53.9015 21.13 54.1681 21.13C54.3815 21.13 54.5681 21.0767 54.7281 20.97C54.8948 20.8633 55.0715 20.69 55.2581 20.45L55.2581 17.09L56.4081 17.09L56.4081 22L55.4681 22L55.3781 21.28L55.3481 21.28C55.1348 21.5333 54.9015 21.7367 54.6481 21.89C54.3948 22.0433 54.1015 22.12 53.7681 22.12ZM59.2348 22.12C58.9014 22.12 58.5681 22.0567 58.2348 21.93C57.9014 21.7967 57.6148 21.6333 57.3748 21.44L57.9148 20.7C58.1348 20.8667 58.3548 21 58.5748 21.1C58.7948 21.2 59.0281 21.25 59.2748 21.25C59.5414 21.25 59.7381 21.1933 59.8648 21.08C59.9914 20.9667 60.0548 20.8267 60.0548 20.66C60.0548 20.52 60.0014 20.4067 59.8948 20.32C59.7948 20.2267 59.6648 20.1467 59.5048 20.08C59.3448 20.0067 59.1781 19.9367 59.0048 19.87C58.7914 19.79 58.5781 19.6933 58.3648 19.58C58.1581 19.46 57.9881 19.31 57.8548 19.13C57.7214 18.9433 57.6548 18.7133 57.6548 18.44C57.6548 18.0067 57.8148 17.6533 58.1348 17.38C58.4548 17.1067 58.8881 16.97 59.4348 16.97C59.7814 16.97 60.0914 17.03 60.3648 17.15C60.6381 17.27 60.8748 17.4067 61.0748 17.56L60.5448 18.26C60.3714 18.1333 60.1948 18.0333 60.0148 17.96C59.8414 17.88 59.6581 17.84 59.4648 17.84C59.2181 17.84 59.0348 17.8933 58.9148 18C58.7948 18.1 58.7348 18.2267 58.7348 18.38C58.7348 18.5733 58.8348 18.72 59.0348 18.82C59.2348 18.92 59.4681 19.0167 59.7348 19.11C59.9614 19.19 60.1814 19.29 60.3948 19.41C60.6081 19.5233 60.7848 19.6733 60.9248 19.86C61.0714 20.0467 61.1448 20.2933 61.1448 20.6C61.1448 21.02 60.9814 21.38 60.6548 21.68C60.3281 21.9733 59.8548 22.12 59.2348 22.12ZM66.1834 22.12C65.7767 22.12 65.3967 22.02 65.0434 21.82C64.69 21.6133 64.4034 21.32 64.1834 20.94C63.9634 20.5533 63.8534 20.09 63.8534 19.55C63.8534 19.0033 63.9634 18.54 64.1834 18.16C64.4034 17.7733 64.69 17.48 65.0434 17.28C65.3967 17.0733 65.7767 16.97 66.1834 16.97C66.5967 16.97 66.98 17.0733 67.3334 17.28C67.6867 17.48 67.9734 17.7733 68.1934 18.16C68.4134 18.54 68.5234 19.0033 68.5234 19.55C68.5234 20.09 68.4134 20.5533 68.1934 20.94C67.9734 21.32 67.6867 21.6133 67.3334 21.82C66.98 22.02 66.5967 22.12 66.1834 22.12ZM66.1834 21.18C66.5434 21.18 66.8267 21.03 67.0334 20.73C67.24 20.43 67.3434 20.0367 67.3434 19.55C67.3434 19.0567 67.24 18.66 67.0334 18.36C66.8267 18.06 66.5434 17.91 66.1834 17.91C65.8234 17.91 65.54 18.06 65.3334 18.36C65.1334 18.66 65.0334 19.0567 65.0334 19.55C65.0334 20.0367 65.1334 20.43 65.3334 20.73C65.54 21.03 65.8234 21.18 66.1834 21.18ZM69.6616 22L69.6616 17.09L70.6116 17.09L70.6916 17.96L70.7316 17.96C70.905 17.64 71.115 17.3967 71.3616 17.23C71.6083 17.0567 71.8616 16.97 72.1216 16.97C72.355 16.97 72.5416 17.0033 72.6816 17.07L72.4816 18.07C72.395 18.0433 72.315 18.0233 72.2416 18.01C72.1683 17.9967 72.0783 17.99 71.9716 17.99C71.7783 17.99 71.575 18.0667 71.3616 18.22C71.1483 18.3667 70.965 18.6267 70.8116 19L70.8116 22L69.6616 22ZM75.0145 22.12C74.4011 22.12 73.9111 21.8933 73.5445 21.44C73.1778 20.9867 72.9945 20.3567 72.9945 19.55C72.9945 19.0167 73.0911 18.5567 73.2845 18.17C73.4845 17.7833 73.7445 17.4867 74.0645 17.28C74.3845 17.0733 74.7211 16.97 75.0745 16.97C75.3545 16.97 75.5911 17.02 75.7845 17.12C75.9845 17.2133 76.1778 17.3433 76.3645 17.51L76.3245 16.72L76.3245 14.94L77.4745 14.94L77.4745 22L76.5245 22L76.4445 21.47L76.4045 21.47C76.2245 21.65 76.0145 21.8033 75.7745 21.93C75.5345 22.0567 75.2811 22.12 75.0145 22.12ZM75.2945 21.17C75.6611 21.17 76.0045 20.9867 76.3245 20.62L76.3245 18.33C76.1578 18.1767 75.9911 18.07 75.8245 18.01C75.6578 17.95 75.4911 17.92 75.3245 17.92C75.0111 17.92 74.7411 18.0633 74.5145 18.35C74.2945 18.63 74.1845 19.0267 74.1845 19.54C74.1845 20.0667 74.2811 20.47 74.4745 20.75C74.6678 21.03 74.9411 21.17 75.2945 21.17ZM81.039 22.12C80.5857 22.12 80.1757 22.02 79.809 21.82C79.4423 21.6133 79.1523 21.32 78.939 20.94C78.7257 20.5533 78.619 20.09 78.619 19.55C78.619 19.0167 78.7257 18.5567 78.939 18.17C79.159 17.7833 79.4423 17.4867 79.789 17.28C80.1357 17.0733 80.499 16.97 80.879 16.97C81.3257 16.97 81.699 17.07 81.999 17.27C82.299 17.4633 82.5257 17.7367 82.679 18.09C82.8323 18.4367 82.909 18.84 82.909 19.3C82.909 19.54 82.8923 19.7267 82.859 19.86L79.739 19.86C79.7923 20.2933 79.949 20.63 80.209 20.87C80.469 21.11 80.7957 21.23 81.189 21.23C81.4023 21.23 81.599 21.2 81.779 21.14C81.9657 21.0733 82.149 20.9833 82.329 20.87L82.719 21.59C82.4857 21.7433 82.2257 21.87 81.939 21.97C81.6523 22.07 81.3523 22.12 81.039 22.12ZM79.729 19.08L81.909 19.08C81.909 18.7 81.8257 18.4033 81.659 18.19C81.4923 17.97 81.2423 17.86 80.909 17.86C80.6223 17.86 80.3657 17.9667 80.139 18.18C79.919 18.3867 79.7823 18.6867 79.729 19.08ZM84.0073 22L84.0073 17.09L84.9573 17.09L85.0373 17.96L85.0773 17.96C85.2507 17.64 85.4607 17.3967 85.7073 17.23C85.954 17.0567 86.2073 16.97 86.4673 16.97C86.7007 16.97 86.8873 17.0033 87.0273 17.07L86.8273 18.07C86.7407 18.0433 86.6607 18.0233 86.5873 18.01C86.514 17.9967 86.424 17.99 86.3173 17.99C86.124 17.99 85.9207 18.0667 85.7073 18.22C85.494 18.3667 85.3107 18.6267 85.1573 19L85.1573 22L84.0073 22ZM92.1198 22.12C91.6531 22.12 91.2064 21.9067 90.7798 21.48L90.7498 21.48L90.6498 22L89.7398 22L89.7398 14.94L90.8898 14.94L90.8898 16.76L90.8598 17.58C91.0664 17.4 91.2931 17.2533 91.5398 17.14C91.7864 17.0267 92.0331 16.97 92.2798 16.97C92.8931 16.97 93.3698 17.1967 93.7098 17.65C94.0498 18.1033 94.2198 18.7067 94.2198 19.46C94.2198 20.02 94.1198 20.5 93.9198 20.9C93.7198 21.2933 93.4598 21.5967 93.1398 21.81C92.8264 22.0167 92.4864 22.12 92.1198 22.12ZM91.8798 21.17C92.2064 21.17 92.4798 21.0267 92.6998 20.74C92.9198 20.4533 93.0298 20.0333 93.0298 19.48C93.0298 18.9867 92.9464 18.6033 92.7798 18.33C92.6131 18.0567 92.3431 17.92 91.9698 17.92C91.6231 17.92 91.2631 18.1033 90.8898 18.47L90.8898 20.76C91.0631 20.9067 91.2331 21.0133 91.3998 21.08C91.5731 21.14 91.7331 21.17 91.8798 21.17ZM97.3845 22.12C96.9779 22.12 96.5979 22.02 96.2445 21.82C95.8912 21.6133 95.6045 21.32 95.3845 20.94C95.1645 20.5533 95.0545 20.09 95.0545 19.55C95.0545 19.0033 95.1645 18.54 95.3845 18.16C95.6045 17.7733 95.8912 17.48 96.2445 17.28C96.5979 17.0733 96.9779 16.97 97.3845 16.97C97.7979 16.97 98.1812 17.0733 98.5345 17.28C98.8879 17.48 99.1745 17.7733 99.3945 18.16C99.6145 18.54 99.7245 19.0033 99.7245 19.55C99.7245 20.09 99.6145 20.5533 99.3945 20.94C99.1745 21.32 98.8879 21.6133 98.5345 21.82C98.1812 22.02 97.7979 22.12 97.3845 22.12ZM97.3845 21.18C97.7445 21.18 98.0279 21.03 98.2345 20.73C98.4412 20.43 98.5445 20.0367 98.5445 19.55C98.5445 19.0567 98.4412 18.66 98.2345 18.36C98.0279 18.06 97.7445 17.91 97.3845 17.91C97.0245 17.91 96.7412 18.06 96.5345 18.36C96.3345 18.66 96.2345 19.0567 96.2345 19.55C96.2345 20.0367 96.3345 20.43 96.5345 20.73C96.7412 21.03 97.0245 21.18 97.3845 21.18ZM102.873 22.12C102.466 22.12 102.086 22.02 101.733 21.82C101.379 21.6133 101.093 21.32 100.873 20.94C100.653 20.5533 100.543 20.09 100.543 19.55C100.543 19.0033 100.653 18.54 100.873 18.16C101.093 17.7733 101.379 17.48 101.733 17.28C102.086 17.0733 102.466 16.97 102.873 16.97C103.286 16.97 103.669 17.0733 104.023 17.28C104.376 17.48 104.663 17.7733 104.883 18.16C105.103 18.54 105.213 19.0033 105.213 19.55C105.213 20.09 105.103 20.5533 104.883 20.94C104.663 21.32 104.376 21.6133 104.023 21.82C103.669 22.02 103.286 22.12 102.873 22.12ZM102.873 21.18C103.233 21.18 103.516 21.03 103.723 20.73C103.929 20.43 104.033 20.0367 104.033 19.55C104.033 19.0567 103.929 18.66 103.723 18.36C103.516 18.06 103.233 17.91 102.873 17.91C102.513 17.91 102.229 18.06 102.023 18.36C101.823 18.66 101.723 19.0567 101.723 19.55C101.723 20.0367 101.823 20.43 102.023 20.73C102.229 21.03 102.513 21.18 102.873 21.18ZM106.351 22L106.351 14.94L107.481 14.94L107.481 19.35L107.511 19.35L109.331 17.09L110.591 17.09L108.911 19.09L110.761 22L109.511 22L108.251 19.87L107.481 20.75L107.481 22L106.351 22Z" fill="#C2C2C2"/>
<line x1="43.5" y1="130" x2="43.5" y2="133" stroke="black"/>
<line x1="94.5" y1="130" x2="94.5" y2="133" stroke="black"/>
<line x1="140.5" y1="130" x2="140.5" y2="133" stroke="black"/>
<line x1="191.5" y1="130" x2="191.5" y2="133" stroke="black"/>
</g>
<defs>
<clipPath id="clip0_13_180">
<rect width="252" height="155" fill="white"/>
</clipPath>
</defs>
</svg>
