<?xml version="1.0" encoding="utf-8" standalone="no"?>
<!DOCTYPE svg PUBLIC "-//W3C//DTD SVG 1.1//EN"
  "http://www.w3.org/Graphics/SVG/1.1/DTD/svg11.dtd">
<svg xmlns:xlink="http://www.w3.org/1999/xlink" width="856.7725pt" height="207.99625pt" viewBox="0 0 856.7725 207.99625" xmlns="http://www.w3.org/2000/svg" version="1.1">
 <metadata>
  <rdf:RDF xmlns:dc="http://purl.org/dc/elements/1.1/" xmlns:cc="http://creativecommons.org/ns#" xmlns:rdf="http://www.w3.org/1999/02/22-rdf-syntax-ns#">
   <cc:Work>
    <dc:type rdf:resource="http://purl.org/dc/dcmitype/StillImage"/>
    <dc:date>2025-11-15T12:00:26.535801</dc:date>
    <dc:format>image/svg+xml</dc:format>
    <dc:creator>
     <cc:Agent>
      <dc:title>Matplotlib v3.10.7, https://matplotlib.org/</dc:title>
     </cc:Agent>
    </dc:creator>
   </cc:Work>
  </rdf:RDF>
 </metadata>
 <defs>
  <style type="text/css">*{stroke-linejoin: round; stroke-linecap: butt}</style>
 </defs>
 <g id="figure_1">
  <g id="patch_1">
   <path d="M 0 207.99625 
L 856.7725 207.99625 
L 856.7725 0 
L 0 0 
L 0 207.99625 
z
" style="fill: none"/>
  </g>
  <g id="axes_1">
   <g id="patch_2">
    <path d="M 20.5625 170.44 
L 849.5725 170.44 
L 849.5725 7.2 
L 20.5625 7.2 
L 20.5625 170.44 
z
" style="fill: none"/>
   </g>
   <g id="matplotlib.axis_1">
    <g id="xtick_1">
     <g id="line2d_1">
      <defs>
       <path id="m83992dff6a" d="M 0 0 
L 0 3.5 
" style="stroke: #000000; stroke-width: 0.8"/>
      </defs>
      <g>
       <use xlink:href="#m83992dff6a" x="149.758864" y="170.44" style="stroke: #000000; stroke-width: 0.8"/>
      </g>
     </g>
     <g id="text_1">
      <!-- 2004 -->
      <g transform="translate(137.033864 185.038437) scale(0.1 -0.1)">
       <defs>
        <path id="DejaVuSans-32" d="M 1228 531 
L 3431 531 
L 3431 0 
L 469 0 
L 469 531 
Q 828 903 1448 1529 
Q 2069 2156 2228 2338 
Q 2531 2678 2651 2914 
Q 2772 3150 2772 3378 
Q 2772 3750 2511 3984 
Q 2250 4219 1831 4219 
Q 1534 4219 1204 4116 
Q 875 4013 500 3803 
L 500 4441 
Q 881 4594 1212 4672 
Q 1544 4750 1819 4750 
Q 2544 4750 2975 4387 
Q 3406 4025 3406 3419 
Q 3406 3131 3298 2873 
Q 3191 2616 2906 2266 
Q 2828 2175 2409 1742 
Q 1991 1309 1228 531 
z
" transform="scale(0.015625)"/>
        <path id="DejaVuSans-30" d="M 2034 4250 
Q 1547 4250 1301 3770 
Q 1056 3291 1056 2328 
Q 1056 1369 1301 889 
Q 1547 409 2034 409 
Q 2525 409 2770 889 
Q 3016 1369 3016 2328 
Q 3016 3291 2770 3770 
Q 2525 4250 2034 4250 
z
M 2034 4750 
Q 2819 4750 3233 4129 
Q 3647 3509 3647 2328 
Q 3647 1150 3233 529 
Q 2819 -91 2034 -91 
Q 1250 -91 836 529 
Q 422 1150 422 2328 
Q 422 3509 836 4129 
Q 1250 4750 2034 4750 
z
" transform="scale(0.015625)"/>
        <path id="DejaVuSans-34" d="M 2419 4116 
L 825 1625 
L 2419 1625 
L 2419 4116 
z
M 2253 4666 
L 3047 4666 
L 3047 1625 
L 3713 1625 
L 3713 1100 
L 3047 1100 
L 3047 0 
L 2419 0 
L 2419 1100 
L 313 1100 
L 313 1709 
L 2253 4666 
z
" transform="scale(0.015625)"/>
       </defs>
       <use xlink:href="#DejaVuSans-32"/>
       <use xlink:href="#DejaVuSans-30" transform="translate(63.623047 0)"/>
       <use xlink:href="#DejaVuSans-30" transform="translate(127.246094 0)"/>
       <use xlink:href="#DejaVuSans-34" transform="translate(190.869141 0)"/>
      </g>
     </g>
    </g>
    <g id="xtick_2">
     <g id="line2d_2">
      <g>
       <use xlink:href="#m83992dff6a" x="311.254318" y="170.44" style="stroke: #000000; stroke-width: 0.8"/>
      </g>
     </g>
     <g id="text_2">
      <!-- 2009 -->
      <g transform="translate(298.529318 185.038437) scale(0.1 -0.1)">
       <defs>
        <path id="DejaVuSans-39" d="M 703 97 
L 703 672 
Q 941 559 1184 500 
Q 1428 441 1663 441 
Q 2288 441 2617 861 
Q 2947 1281 2994 2138 
Q 2813 1869 2534 1725 
Q 2256 1581 1919 1581 
Q 1219 1581 811 2004 
Q 403 2428 403 3163 
Q 403 3881 828 4315 
Q 1253 4750 1959 4750 
Q 2769 4750 3195 4129 
Q 3622 3509 3622 2328 
Q 3622 1225 3098 567 
Q 2575 -91 1691 -91 
Q 1453 -91 1209 -44 
Q 966 3 703 97 
z
M 1959 2075 
Q 2384 2075 2632 2365 
Q 2881 2656 2881 3163 
Q 2881 3666 2632 3958 
Q 2384 4250 1959 4250 
Q 1534 4250 1286 3958 
Q 1038 3666 1038 3163 
Q 1038 2656 1286 2365 
Q 1534 2075 1959 2075 
z
" transform="scale(0.015625)"/>
       </defs>
       <use xlink:href="#DejaVuSans-32"/>
       <use xlink:href="#DejaVuSans-30" transform="translate(63.623047 0)"/>
       <use xlink:href="#DejaVuSans-30" transform="translate(127.246094 0)"/>
       <use xlink:href="#DejaVuSans-39" transform="translate(190.869141 0)"/>
      </g>
     </g>
    </g>
    <g id="xtick_3">
     <g id="line2d_3">
      <g>
       <use xlink:href="#m83992dff6a" x="472.749773" y="170.44" style="stroke: #000000; stroke-width: 0.8"/>
      </g>
     </g>
     <g id="text_3">
      <!-- 2014 -->
      <g transform="translate(460.024773 185.038437) scale(0.1 -0.1)">
       <defs>
        <path id="DejaVuSans-31" d="M 794 531 
L 1825 531 
L 1825 4091 
L 703 3866 
L 703 4441 
L 1819 4666 
L 2450 4666 
L 2450 531 
L 3481 531 
L 3481 0 
L 794 0 
L 794 531 
z
" transform="scale(0.015625)"/>
       </defs>
       <use xlink:href="#DejaVuSans-32"/>
       <use xlink:href="#DejaVuSans-30" transform="translate(63.623047 0)"/>
       <use xlink:href="#DejaVuSans-31" transform="translate(127.246094 0)"/>
       <use xlink:href="#DejaVuSans-34" transform="translate(190.869141 0)"/>
      </g>
     </g>
    </g>
    <g id="xtick_4">
     <g id="line2d_4">
      <g>
       <use xlink:href="#m83992dff6a" x="634.245227" y="170.44" style="stroke: #000000; stroke-width: 0.8"/>
      </g>
     </g>
     <g id="text_4">
      <!-- 2019 -->
      <g transform="translate(621.520227 185.038437) scale(0.1 -0.1)">
       <use xlink:href="#DejaVuSans-32"/>
       <use xlink:href="#DejaVuSans-30" transform="translate(63.623047 0)"/>
       <use xlink:href="#DejaVuSans-31" transform="translate(127.246094 0)"/>
       <use xlink:href="#DejaVuSans-39" transform="translate(190.869141 0)"/>
      </g>
     </g>
    </g>
    <g id="xtick_5">
     <g id="line2d_5">
      <g>
       <use xlink:href="#m83992dff6a" x="795.740682" y="170.44" style="stroke: #000000; stroke-width: 0.8"/>
      </g>
     </g>
     <g id="text_5">
      <!-- 2024 -->
      <g transform="translate(783.015682 185.038437) scale(0.1 -0.1)">
       <use xlink:href="#DejaVuSans-32"/>
       <use xlink:href="#DejaVuSans-30" transform="translate(63.623047 0)"/>
       <use xlink:href="#DejaVuSans-32" transform="translate(127.246094 0)"/>
       <use xlink:href="#DejaVuSans-34" transform="translate(190.869141 0)"/>
      </g>
     </g>
    </g>
    <g id="xtick_6">
     <g id="line2d_6">
      <defs>
       <path id="maba33e404f" d="M 0 0 
L 0 2 
" style="stroke: #000000; stroke-width: 0.6"/>
      </defs>
      <g>
       <use xlink:href="#maba33e404f" x="20.5625" y="170.44" style="stroke: #000000; stroke-width: 0.6"/>
      </g>
     </g>
    </g>
    <g id="xtick_7">
     <g id="line2d_7">
      <g>
       <use xlink:href="#maba33e404f" x="52.861591" y="170.44" style="stroke: #000000; stroke-width: 0.6"/>
      </g>
     </g>
    </g>
    <g id="xtick_8">
     <g id="line2d_8">
      <g>
       <use xlink:href="#maba33e404f" x="85.160682" y="170.44" style="stroke: #000000; stroke-width: 0.6"/>
      </g>
     </g>
    </g>
    <g id="xtick_9">
     <g id="line2d_9">
      <g>
       <use xlink:href="#maba33e404f" x="117.459773" y="170.44" style="stroke: #000000; stroke-width: 0.6"/>
      </g>
     </g>
    </g>
    <g id="xtick_10">
     <g id="line2d_10">
      <g>
       <use xlink:href="#maba33e404f" x="182.057955" y="170.44" style="stroke: #000000; stroke-width: 0.6"/>
      </g>
     </g>
    </g>
    <g id="xtick_11">
     <g id="line2d_11">
      <g>
       <use xlink:href="#maba33e404f" x="214.357045" y="170.44" style="stroke: #000000; stroke-width: 0.6"/>
      </g>
     </g>
    </g>
    <g id="xtick_12">
     <g id="line2d_12">
      <g>
       <use xlink:href="#maba33e404f" x="246.656136" y="170.44" style="stroke: #000000; stroke-width: 0.6"/>
      </g>
     </g>
    </g>
    <g id="xtick_13">
     <g id="line2d_13">
      <g>
       <use xlink:href="#maba33e404f" x="278.955227" y="170.44" style="stroke: #000000; stroke-width: 0.6"/>
      </g>
     </g>
    </g>
    <g id="xtick_14">
     <g id="line2d_14">
      <g>
       <use xlink:href="#maba33e404f" x="343.553409" y="170.44" style="stroke: #000000; stroke-width: 0.6"/>
      </g>
     </g>
    </g>
    <g id="xtick_15">
     <g id="line2d_15">
      <g>
       <use xlink:href="#maba33e404f" x="375.8525" y="170.44" style="stroke: #000000; stroke-width: 0.6"/>
      </g>
     </g>
    </g>
    <g id="xtick_16">
     <g id="line2d_16">
      <g>
       <use xlink:href="#maba33e404f" x="408.151591" y="170.44" style="stroke: #000000; stroke-width: 0.6"/>
      </g>
     </g>
    </g>
    <g id="xtick_17">
     <g id="line2d_17">
      <g>
       <use xlink:href="#maba33e404f" x="440.450682" y="170.44" style="stroke: #000000; stroke-width: 0.6"/>
      </g>
     </g>
    </g>
    <g id="xtick_18">
     <g id="line2d_18">
      <g>
       <use xlink:href="#maba33e404f" x="505.048864" y="170.44" style="stroke: #000000; stroke-width: 0.6"/>
      </g>
     </g>
    </g>
    <g id="xtick_19">
     <g id="line2d_19">
      <g>
       <use xlink:href="#maba33e404f" x="537.347955" y="170.44" style="stroke: #000000; stroke-width: 0.6"/>
      </g>
     </g>
    </g>
    <g id="xtick_20">
     <g id="line2d_20">
      <g>
       <use xlink:href="#maba33e404f" x="569.647045" y="170.44" style="stroke: #000000; stroke-width: 0.6"/>
      </g>
     </g>
    </g>
    <g id="xtick_21">
     <g id="line2d_21">
      <g>
       <use xlink:href="#maba33e404f" x="601.946136" y="170.44" style="stroke: #000000; stroke-width: 0.6"/>
      </g>
     </g>
    </g>
    <g id="xtick_22">
     <g id="line2d_22">
      <g>
       <use xlink:href="#maba33e404f" x="666.544318" y="170.44" style="stroke: #000000; stroke-width: 0.6"/>
      </g>
     </g>
    </g>
    <g id="xtick_23">
     <g id="line2d_23">
      <g>
       <use xlink:href="#maba33e404f" x="698.843409" y="170.44" style="stroke: #000000; stroke-width: 0.6"/>
      </g>
     </g>
    </g>
    <g id="xtick_24">
     <g id="line2d_24">
      <g>
       <use xlink:href="#maba33e404f" x="731.1425" y="170.44" style="stroke: #000000; stroke-width: 0.6"/>
      </g>
     </g>
    </g>
    <g id="xtick_25">
     <g id="line2d_25">
      <g>
       <use xlink:href="#maba33e404f" x="763.441591" y="170.44" style="stroke: #000000; stroke-width: 0.6"/>
      </g>
     </g>
    </g>
    <g id="xtick_26">
     <g id="line2d_26">
      <g>
       <use xlink:href="#maba33e404f" x="828.039773" y="170.44" style="stroke: #000000; stroke-width: 0.6"/>
      </g>
     </g>
    </g>
    <g id="text_6">
     <!-- date -->
     <g transform="translate(423.7925 198.716563) scale(0.1 -0.1)">
      <defs>
       <path id="DejaVuSans-64" d="M 2906 2969 
L 2906 4863 
L 3481 4863 
L 3481 0 
L 2906 0 
L 2906 525 
Q 2725 213 2448 61 
Q 2172 -91 1784 -91 
Q 1150 -91 751 415 
Q 353 922 353 1747 
Q 353 2572 751 3078 
Q 1150 3584 1784 3584 
Q 2172 3584 2448 3432 
Q 2725 3281 2906 2969 
z
M 947 1747 
Q 947 1113 1208 752 
Q 1469 391 1925 391 
Q 2381 391 2643 752 
Q 2906 1113 2906 1747 
Q 2906 2381 2643 2742 
Q 2381 3103 1925 3103 
Q 1469 3103 1208 2742 
Q 947 2381 947 1747 
z
" transform="scale(0.015625)"/>
       <path id="DejaVuSans-61" d="M 2194 1759 
Q 1497 1759 1228 1600 
Q 959 1441 959 1056 
Q 959 750 1161 570 
Q 1363 391 1709 391 
Q 2188 391 2477 730 
Q 2766 1069 2766 1631 
L 2766 1759 
L 2194 1759 
z
M 3341 1997 
L 3341 0 
L 2766 0 
L 2766 531 
Q 2569 213 2275 61 
Q 1981 -91 1556 -91 
Q 1019 -91 701 211 
Q 384 513 384 1019 
Q 384 1609 779 1909 
Q 1175 2209 1959 2209 
L 2766 2209 
L 2766 2266 
Q 2766 2663 2505 2880 
Q 2244 3097 1772 3097 
Q 1472 3097 1187 3025 
Q 903 2953 641 2809 
L 641 3341 
Q 956 3463 1253 3523 
Q 1550 3584 1831 3584 
Q 2591 3584 2966 3190 
Q 3341 2797 3341 1997 
z
" transform="scale(0.015625)"/>
       <path id="DejaVuSans-74" d="M 1172 4494 
L 1172 3500 
L 2356 3500 
L 2356 3053 
L 1172 3053 
L 1172 1153 
Q 1172 725 1289 603 
Q 1406 481 1766 481 
L 2356 481 
L 2356 0 
L 1766 0 
Q 1100 0 847 248 
Q 594 497 594 1153 
L 594 3053 
L 172 3053 
L 172 3500 
L 594 3500 
L 594 4494 
L 1172 4494 
z
" transform="scale(0.015625)"/>
       <path id="DejaVuSans-65" d="M 3597 1894 
L 3597 1613 
L 953 1613 
Q 991 1019 1311 708 
Q 1631 397 2203 397 
Q 2534 397 2845 478 
Q 3156 559 3463 722 
L 3463 178 
Q 3153 47 2828 -22 
Q 2503 -91 2169 -91 
Q 1331 -91 842 396 
Q 353 884 353 1716 
Q 353 2575 817 3079 
Q 1281 3584 2069 3584 
Q 2775 3584 3186 3129 
Q 3597 2675 3597 1894 
z
M 3022 2063 
Q 3016 2534 2758 2815 
Q 2500 3097 2075 3097 
Q 1594 3097 1305 2825 
Q 1016 2553 972 2059 
L 3022 2063 
z
" transform="scale(0.015625)"/>
      </defs>
      <use xlink:href="#DejaVuSans-64"/>
      <use xlink:href="#DejaVuSans-61" transform="translate(63.476562 0)"/>
      <use xlink:href="#DejaVuSans-74" transform="translate(124.755859 0)"/>
      <use xlink:href="#DejaVuSans-65" transform="translate(163.964844 0)"/>
     </g>
    </g>
   </g>
   <g id="matplotlib.axis_2">
    <g id="ytick_1">
     <g id="line2d_27">
      <path d="M 20.5625 158.6773 
L 849.5725 158.6773 
" clip-path="url(#p4a8dd25324)" style="fill: none; stroke-dasharray: 2.96,1.28; stroke-dashoffset: 0; stroke: #000000; stroke-opacity: 0.1; stroke-width: 0.8"/>
     </g>
     <g id="line2d_28">
      <defs>
       <path id="mf1e5a83ded" d="M 0 0 
L -3.5 0 
" style="stroke: #000000; stroke-width: 0.8"/>
      </defs>
      <g>
       <use xlink:href="#mf1e5a83ded" x="20.5625" y="158.6773" style="stroke: #000000; stroke-width: 0.8"/>
      </g>
     </g>
     <g id="text_7">
      <!-- 0 -->
      <g transform="translate(7.2 162.476519) scale(0.1 -0.1)">
       <use xlink:href="#DejaVuSans-30"/>
      </g>
     </g>
    </g>
    <g id="ytick_2">
     <g id="line2d_29">
      <path d="M 20.5625 118.505314 
L 849.5725 118.505314 
" clip-path="url(#p4a8dd25324)" style="fill: none; stroke-dasharray: 2.96,1.28; stroke-dashoffset: 0; stroke: #000000; stroke-opacity: 0.1; stroke-width: 0.8"/>
     </g>
     <g id="line2d_30">
      <g>
       <use xlink:href="#mf1e5a83ded" x="20.5625" y="118.505314" style="stroke: #000000; stroke-width: 0.8"/>
      </g>
     </g>
     <g id="text_8">
      <!-- 1 -->
      <g transform="translate(7.2 122.304532) scale(0.1 -0.1)">
       <use xlink:href="#DejaVuSans-31"/>
      </g>
     </g>
    </g>
    <g id="ytick_3">
     <g id="line2d_31">
      <path d="M 20.5625 78.333327 
L 849.5725 78.333327 
" clip-path="url(#p4a8dd25324)" style="fill: none; stroke-dasharray: 2.96,1.28; stroke-dashoffset: 0; stroke: #000000; stroke-opacity: 0.1; stroke-width: 0.8"/>
     </g>
     <g id="line2d_32">
      <g>
       <use xlink:href="#mf1e5a83ded" x="20.5625" y="78.333327" style="stroke: #000000; stroke-width: 0.8"/>
      </g>
     </g>
     <g id="text_9">
      <!-- 2 -->
      <g transform="translate(7.2 82.132546) scale(0.1 -0.1)">
       <use xlink:href="#DejaVuSans-32"/>
      </g>
     </g>
    </g>
    <g id="ytick_4">
     <g id="line2d_33">
      <path d="M 20.5625 38.16134 
L 849.5725 38.16134 
" clip-path="url(#p4a8dd25324)" style="fill: none; stroke-dasharray: 2.96,1.28; stroke-dashoffset: 0; stroke: #000000; stroke-opacity: 0.1; stroke-width: 0.8"/>
     </g>
     <g id="line2d_34">
      <g>
       <use xlink:href="#mf1e5a83ded" x="20.5625" y="38.16134" style="stroke: #000000; stroke-width: 0.8"/>
      </g>
     </g>
     <g id="text_10">
      <!-- 3 -->
      <g transform="translate(7.2 41.960559) scale(0.1 -0.1)">
       <defs>
        <path id="DejaVuSans-33" d="M 2597 2516 
Q 3050 2419 3304 2112 
Q 3559 1806 3559 1356 
Q 3559 666 3084 287 
Q 2609 -91 1734 -91 
Q 1441 -91 1130 -33 
Q 819 25 488 141 
L 488 750 
Q 750 597 1062 519 
Q 1375 441 1716 441 
Q 2309 441 2620 675 
Q 2931 909 2931 1356 
Q 2931 1769 2642 2001 
Q 2353 2234 1838 2234 
L 1294 2234 
L 1294 2753 
L 1863 2753 
Q 2328 2753 2575 2939 
Q 2822 3125 2822 3475 
Q 2822 3834 2567 4026 
Q 2313 4219 1838 4219 
Q 1578 4219 1281 4162 
Q 984 4106 628 3988 
L 628 4550 
Q 988 4650 1302 4700 
Q 1616 4750 1894 4750 
Q 2613 4750 3031 4423 
Q 3450 4097 3450 3541 
Q 3450 3153 3228 2886 
Q 3006 2619 2597 2516 
z
" transform="scale(0.015625)"/>
       </defs>
       <use xlink:href="#DejaVuSans-33"/>
      </g>
     </g>
    </g>
   </g>
   <g id="line2d_35">
    <path d="M 20.5625 157.799304 
L 23.254091 158.241405 
L 25.945682 158.277998 
L 28.637273 158.166763 
L 31.328864 158.637267 
L 36.712045 158.516481 
L 39.403636 158.640754 
L 42.095227 158.560063 
L 44.786818 158.84479 
L 50.17 159.880097 
L 52.861591 159.586639 
L 55.553182 158.945452 
L 58.244773 158.626519 
L 60.936364 158.63769 
L 66.319545 157.817461 
L 71.702727 156.851633 
L 74.394318 154.805126 
L 77.085909 156.227566 
L 79.7775 155.786859 
L 82.469091 155.18633 
L 85.160682 155.234092 
L 90.543864 155.619752 
L 93.235455 156.151937 
L 95.927045 156.134451 
L 98.618636 156.283818 
L 101.310227 156.553889 
L 104.001818 157.388528 
L 106.693409 158.997157 
L 109.385 157.357418 
L 117.459773 157.442485 
L 120.151364 157.071231 
L 122.842955 157.128728 
L 128.226136 155.991962 
L 130.917727 155.724914 
L 133.609318 155.715743 
L 136.300909 154.97854 
L 141.684091 155.547622 
L 149.758864 156.101292 
L 155.142045 155.779394 
L 157.833636 156.016308 
L 160.525227 156.63514 
L 163.216818 156.742397 
L 165.908409 157.014258 
L 173.983182 156.680773 
L 176.674773 156.354988 
L 182.057955 156.797891 
L 184.749545 157.166367 
L 187.441136 157.401423 
L 190.132727 157.90569 
L 195.515909 157.558337 
L 198.2075 157.832394 
L 206.282273 158.258566 
L 208.973864 158.621758 
L 211.665455 158.726931 
L 214.357045 158.312929 
L 217.048636 158.463417 
L 219.740227 158.316869 
L 222.431818 157.997121 
L 225.123409 158.053841 
L 227.815 158.814108 
L 230.506591 158.577531 
L 235.889773 159.091084 
L 238.581364 158.858242 
L 243.964545 158.902378 
L 246.656136 158.904442 
L 249.347727 159.126117 
L 252.039318 159.162315 
L 254.730909 158.776175 
L 260.114091 158.887594 
L 268.188864 158.344595 
L 270.880455 158.410523 
L 273.572045 158.647995 
L 276.263636 158.47741 
L 278.955227 158.501583 
L 281.646818 158.164466 
L 284.338409 158.024671 
L 287.03 158.286658 
L 289.721591 158.313661 
L 292.413182 157.608553 
L 295.104773 157.233592 
L 297.796364 157.769541 
L 300.487955 156.157243 
L 303.179545 155.928108 
L 305.871136 154.495525 
L 308.562727 151.999519 
L 311.254318 152.696844 
L 313.945909 153.241103 
L 316.6375 153.17524 
L 319.329091 152.319767 
L 322.020682 152.216455 
L 324.712273 151.407103 
L 327.403864 151.853349 
L 330.095455 151.467237 
L 332.787045 153.102132 
L 335.478636 153.119512 
L 338.170227 154.210799 
L 340.861818 156.392436 
L 343.553409 156.344848 
L 346.245 155.278369 
L 348.936591 155.293378 
L 351.628182 156.4987 
L 354.319773 156.377501 
L 357.011364 156.914266 
L 359.702955 157.191239 
L 362.394545 156.530761 
L 365.086136 156.233056 
L 367.777727 156.218182 
L 370.469318 155.206708 
L 373.160909 155.262397 
L 375.8525 154.561033 
L 378.544091 154.652539 
L 383.927273 153.995692 
L 386.618864 153.23913 
L 389.310455 153.299692 
L 392.002045 152.339261 
L 394.693636 150.25329 
L 397.385227 150.630166 
L 402.768409 150.908314 
L 405.46 151.481469 
L 408.151591 150.942295 
L 410.843182 151.438137 
L 413.534773 151.659647 
L 416.226364 151.470908 
L 418.917955 152.168181 
L 421.609545 152.295696 
L 424.301136 152.257028 
L 426.992727 154.144326 
L 432.375909 153.173823 
L 435.0675 153.905266 
L 437.759091 153.205289 
L 440.450682 153.661732 
L 445.833864 154.196315 
L 448.525455 153.872391 
L 451.217045 153.917983 
L 456.600227 154.732984 
L 459.291818 155.312143 
L 461.983409 155.329354 
L 464.675 155.173186 
L 467.366591 155.425627 
L 470.058182 155.191821 
L 475.441364 154.425634 
L 478.132955 154.248535 
L 483.516136 154.509666 
L 486.207727 153.957371 
L 488.899318 154.015877 
L 491.590909 154.966041 
L 494.2825 154.393635 
L 496.974091 154.872626 
L 499.665682 154.880539 
L 502.357273 154.447089 
L 505.048864 155.102806 
L 507.740455 154.336689 
L 510.432045 154.996609 
L 513.123636 155.368491 
L 515.815227 155.893689 
L 521.198409 155.876744 
L 523.89 155.400984 
L 526.581591 156.194983 
L 529.273182 156.759633 
L 531.964773 156.084662 
L 534.656364 156.63187 
L 537.347955 156.61678 
L 540.039545 157.11966 
L 545.422727 156.03636 
L 548.114318 155.190594 
L 550.805909 155.643215 
L 553.4975 155.937489 
L 556.189091 154.725804 
L 558.880682 154.953656 
L 561.572273 154.49624 
L 564.263864 155.116881 
L 566.955455 155.585158 
L 569.647045 154.903419 
L 572.338636 155.259006 
L 575.030227 154.88629 
L 577.721818 155.483727 
L 580.413409 155.189804 
L 583.105 155.171156 
L 585.796591 154.90804 
L 588.488182 155.38909 
L 591.179773 155.724546 
L 593.871364 155.39916 
L 596.562955 155.377943 
L 601.946136 155.604512 
L 604.637727 156.1868 
L 610.020909 156.241049 
L 612.7125 157.102533 
L 615.404091 157.191433 
L 618.095682 157.16843 
L 620.787273 157.505272 
L 623.478864 157.1983 
L 626.170455 157.35083 
L 628.862045 157.84214 
L 631.553636 157.027098 
L 634.245227 157.634328 
L 636.936818 157.113152 
L 639.628409 157.89958 
L 642.32 157.296937 
L 645.011591 157.210287 
L 647.703182 156.741169 
L 650.394773 156.679346 
L 653.086364 156.924959 
L 655.777955 156.511484 
L 658.469545 156.482511 
L 661.161136 156.012061 
L 669.235909 156.127512 
L 671.9275 153.007832 
L 674.619091 147.924916 
L 677.310682 26.767686 
L 680.002273 25.308108 
L 682.693864 24.518986 
L 685.385455 22.591054 
L 688.077045 21.828446 
L 690.768636 21.225118 
L 693.460227 19.330658 
L 696.151818 19.964743 
L 698.843409 16.699291 
L 701.535 14.62 
L 704.226591 23.622773 
L 706.918182 40.232527 
L 709.609773 151.18739 
L 712.301364 151.969553 
L 714.992955 152.142106 
L 717.684545 151.996368 
L 720.376136 152.336105 
L 723.067727 152.46216 
L 731.1425 153.275508 
L 733.834091 153.659825 
L 736.525682 154.194412 
L 741.908864 155.732478 
L 744.600455 156.027268 
L 747.292045 156.526934 
L 752.675227 157.840814 
L 760.75 160.109989 
L 766.133182 161.122352 
L 768.824773 162.0943 
L 771.516364 162.770435 
L 779.591136 162.961436 
L 782.282727 163.02 
L 787.665909 162.815601 
L 790.3575 162.640662 
L 798.432273 161.580063 
L 801.123864 160.682397 
L 803.815455 160.069432 
L 806.507045 159.877754 
L 809.198636 159.567687 
L 811.890227 159.376178 
L 822.656591 157.885153 
L 828.039773 157.604229 
L 833.422955 157.505681 
L 836.114545 157.227593 
L 838.806136 157.215734 
L 844.189318 156.947874 
L 849.5725 156.971665 
L 849.5725 156.971665 
" clip-path="url(#p4a8dd25324)" style="fill: none; stroke: #1f77b4; stroke-width: 1.5; stroke-linecap: square"/>
   </g>
   <g id="line2d_36">
    <path d="M 20.5625 156.263149 
L 23.254091 156.361815 
L 28.637273 155.918369 
L 31.328864 156.263095 
L 39.403636 156.323118 
L 42.095227 156.159077 
L 47.478409 156.317573 
L 52.861591 156.003242 
L 58.244773 155.581507 
L 63.627955 155.454723 
L 69.011136 155.166769 
L 71.702727 155.140632 
L 74.394318 154.541121 
L 77.085909 154.78075 
L 79.7775 154.524103 
L 82.469091 154.495911 
L 85.160682 154.782999 
L 87.852273 154.888306 
L 90.543864 155.295596 
L 93.235455 155.839755 
L 95.927045 155.618968 
L 98.618636 155.783112 
L 104.001818 155.655093 
L 106.693409 156.372799 
L 109.385 155.946195 
L 112.076591 155.913915 
L 114.768182 156.174904 
L 122.842955 156.002088 
L 128.226136 155.501793 
L 136.300909 155.337175 
L 144.375682 156.462926 
L 149.758864 156.811118 
L 157.833636 156.681456 
L 160.525227 156.586981 
L 168.6 157.291334 
L 171.291591 156.87674 
L 173.983182 156.627007 
L 179.366364 156.357778 
L 182.057955 156.374153 
L 190.132727 156.973576 
L 192.824318 157.375937 
L 198.2075 157.065593 
L 206.282273 157.014329 
L 208.973864 157.082034 
L 211.665455 157.030902 
L 214.357045 156.80763 
L 222.431818 156.531868 
L 227.815 156.579155 
L 233.198182 156.546621 
L 235.889773 156.597019 
L 246.656136 156.360133 
L 249.347727 156.419719 
L 257.4225 156.077857 
L 262.805682 156.200059 
L 265.497273 155.952606 
L 268.188864 156.015886 
L 270.880455 156.230847 
L 278.955227 156.424423 
L 281.646818 156.032502 
L 284.338409 155.865116 
L 287.03 156.059716 
L 295.104773 156.083771 
L 297.796364 156.444558 
L 300.487955 156.187754 
L 303.179545 155.720145 
L 305.871136 155.586899 
L 308.562727 154.808199 
L 311.254318 154.554562 
L 313.945909 154.898365 
L 316.6375 154.925122 
L 319.329091 155.142686 
L 322.020682 154.912412 
L 324.712273 154.966116 
L 327.403864 155.210873 
L 330.095455 155.295068 
L 335.478636 156.093164 
L 338.170227 156.225043 
L 340.861818 157.171714 
L 343.553409 157.762781 
L 346.245 157.672916 
L 348.936591 158.020573 
L 351.628182 157.893595 
L 357.011364 157.875694 
L 359.702955 157.841917 
L 365.086136 157.456702 
L 367.777727 157.349735 
L 370.469318 157.394363 
L 389.310455 156.123978 
L 394.693636 154.807095 
L 400.076818 154.968617 
L 408.151591 154.565633 
L 421.609545 155.016228 
L 426.992727 156.099518 
L 429.684318 155.852454 
L 437.759091 155.36876 
L 443.142273 155.749442 
L 445.833864 155.71275 
L 451.217045 155.883831 
L 461.983409 156.189825 
L 464.675 155.979269 
L 470.058182 156.480404 
L 475.441364 156.133604 
L 478.132955 156.224258 
L 488.899318 156.03049 
L 496.974091 156.468302 
L 502.357273 156.29867 
L 505.048864 156.251789 
L 507.740455 156.082106 
L 515.815227 156.419674 
L 521.198409 156.531985 
L 526.581591 156.402024 
L 529.273182 156.494606 
L 531.964773 156.327281 
L 534.656364 156.386663 
L 537.347955 156.23143 
L 540.039545 156.406286 
L 548.114318 155.956234 
L 561.572273 155.710216 
L 566.955455 155.89181 
L 569.647045 156.124128 
L 580.413409 156.281686 
L 583.105 156.414416 
L 588.488182 156.507624 
L 599.254545 156.709979 
L 604.637727 157.018369 
L 623.478864 157.194859 
L 628.862045 157.380651 
L 634.245227 157.048765 
L 642.32 157.068262 
L 655.777955 156.413354 
L 661.161136 155.815499 
L 663.852727 155.981068 
L 669.235909 155.942538 
L 671.9275 154.618867 
L 674.619091 151.911585 
L 677.310682 149.901262 
L 680.002273 149.513159 
L 682.693864 149.360967 
L 685.385455 149.451432 
L 688.077045 149.14838 
L 690.768636 149.183967 
L 698.843409 148.402061 
L 701.535 147.950554 
L 704.226591 149.057665 
L 706.918182 151.221621 
L 709.609773 152.877273 
L 712.301364 153.51247 
L 714.992955 153.560985 
L 717.684545 153.324638 
L 720.376136 153.530186 
L 723.067727 153.554869 
L 725.759318 153.729171 
L 728.450909 153.768394 
L 733.834091 154.39617 
L 736.525682 154.830775 
L 741.908864 156.1994 
L 744.600455 156.381719 
L 747.292045 156.703375 
L 752.675227 157.639639 
L 760.75 159.148789 
L 766.133182 159.604308 
L 768.824773 160.240437 
L 771.516364 160.561421 
L 774.207955 160.324873 
L 790.3575 159.921313 
L 795.740682 159.495888 
L 798.432273 159.290751 
L 801.123864 158.62977 
L 803.815455 158.291467 
L 806.507045 158.313647 
L 825.348182 157.273892 
L 833.422955 157.262686 
L 836.114545 157.061891 
L 841.497727 156.980005 
L 844.189318 156.877542 
L 849.5725 156.872561 
L 849.5725 156.872561 
" clip-path="url(#p4a8dd25324)" style="fill: none; stroke: #ff7f0e; stroke-width: 1.5; stroke-linecap: square"/>
   </g>
   <g id="patch_3">
    <path d="M 20.5625 170.44 
L 20.5625 7.2 
" style="fill: none"/>
   </g>
   <g id="patch_4">
    <path d="M 849.5725 170.44 
L 849.5725 7.2 
" style="fill: none"/>
   </g>
   <g id="patch_5">
    <path d="M 20.5625 170.44 
L 849.5725 170.44 
" style="fill: none"/>
   </g>
   <g id="patch_6">
    <path d="M 20.5625 7.2 
L 849.5725 7.2 
" style="fill: none"/>
   </g>
   <g id="legend_1">
    <g id="patch_7">
     <path d="M 783.661562 44.55625 
L 842.5725 44.55625 
Q 844.5725 44.55625 844.5725 42.55625 
L 844.5725 14.2 
Q 844.5725 12.2 842.5725 12.2 
L 783.661562 12.2 
Q 781.661562 12.2 781.661562 14.2 
L 781.661562 42.55625 
Q 781.661562 44.55625 783.661562 44.55625 
L 783.661562 44.55625 
z
" style="fill: none; opacity: 0"/>
    </g>
    <g id="line2d_37">
     <path d="M 785.661562 20.298438 
L 795.661562 20.298438 
L 805.661562 20.298438 
" style="fill: none; stroke: #1f77b4; stroke-width: 1.5; stroke-linecap: square"/>
    </g>
    <g id="text_11">
     <!-- M1SL -->
     <g transform="translate(813.661562 23.798438) scale(0.1 -0.1)">
      <defs>
       <path id="DejaVuSans-4d" d="M 628 4666 
L 1569 4666 
L 2759 1491 
L 3956 4666 
L 4897 4666 
L 4897 0 
L 4281 0 
L 4281 4097 
L 3078 897 
L 2444 897 
L 1241 4097 
L 1241 0 
L 628 0 
L 628 4666 
z
" transform="scale(0.015625)"/>
       <path id="DejaVuSans-53" d="M 3425 4513 
L 3425 3897 
Q 3066 4069 2747 4153 
Q 2428 4238 2131 4238 
Q 1616 4238 1336 4038 
Q 1056 3838 1056 3469 
Q 1056 3159 1242 3001 
Q 1428 2844 1947 2747 
L 2328 2669 
Q 3034 2534 3370 2195 
Q 3706 1856 3706 1288 
Q 3706 609 3251 259 
Q 2797 -91 1919 -91 
Q 1588 -91 1214 -16 
Q 841 59 441 206 
L 441 856 
Q 825 641 1194 531 
Q 1563 422 1919 422 
Q 2459 422 2753 634 
Q 3047 847 3047 1241 
Q 3047 1584 2836 1778 
Q 2625 1972 2144 2069 
L 1759 2144 
Q 1053 2284 737 2584 
Q 422 2884 422 3419 
Q 422 4038 858 4394 
Q 1294 4750 2059 4750 
Q 2388 4750 2728 4690 
Q 3069 4631 3425 4513 
z
" transform="scale(0.015625)"/>
       <path id="DejaVuSans-4c" d="M 628 4666 
L 1259 4666 
L 1259 531 
L 3531 531 
L 3531 0 
L 628 0 
L 628 4666 
z
" transform="scale(0.015625)"/>
      </defs>
      <use xlink:href="#DejaVuSans-4d"/>
      <use xlink:href="#DejaVuSans-31" transform="translate(86.279297 0)"/>
      <use xlink:href="#DejaVuSans-53" transform="translate(149.902344 0)"/>
      <use xlink:href="#DejaVuSans-4c" transform="translate(213.378906 0)"/>
     </g>
    </g>
    <g id="line2d_38">
     <path d="M 785.661562 34.976562 
L 795.661562 34.976562 
L 805.661562 34.976562 
" style="fill: none; stroke: #ff7f0e; stroke-width: 1.5; stroke-linecap: square"/>
    </g>
    <g id="text_12">
     <!-- M2SL -->
     <g transform="translate(813.661562 38.476562) scale(0.1 -0.1)">
      <use xlink:href="#DejaVuSans-4d"/>
      <use xlink:href="#DejaVuSans-32" transform="translate(86.279297 0)"/>
      <use xlink:href="#DejaVuSans-53" transform="translate(149.902344 0)"/>
      <use xlink:href="#DejaVuSans-4c" transform="translate(213.378906 0)"/>
     </g>
    </g>
   </g>
  </g>
 </g>
 <defs>
  <clipPath id="p4a8dd25324">
   <rect x="20.5625" y="7.2" width="829.01" height="163.24"/>
  </clipPath>
 </defs>
</svg>
