<?xml version="1.0" encoding="utf-8" standalone="no"?>
<!DOCTYPE svg PUBLIC "-//W3C//DTD SVG 1.1//EN"
  "http://www.w3.org/Graphics/SVG/1.1/DTD/svg11.dtd">
<svg xmlns:xlink="http://www.w3.org/1999/xlink" width="570.90375pt" height="172.398125pt" viewBox="0 0 570.90375 172.398125" xmlns="http://www.w3.org/2000/svg" version="1.1">
 <metadata>
  <rdf:RDF xmlns:dc="http://purl.org/dc/elements/1.1/" xmlns:cc="http://creativecommons.org/ns#" xmlns:rdf="http://www.w3.org/1999/02/22-rdf-syntax-ns#">
   <cc:Work>
    <dc:type rdf:resource="http://purl.org/dc/dcmitype/StillImage"/>
    <dc:date>2025-11-20T09:03:16.986021</dc:date>
    <dc:format>image/svg+xml</dc:format>
    <dc:creator>
     <cc:Agent>
      <dc:title>Matplotlib v3.10.7, https://matplotlib.org/</dc:title>
     </cc:Agent>
    </dc:creator>
   </cc:Work>
  </rdf:RDF>
 </metadata>
 <defs>
  <style type="text/css">*{stroke-linejoin: round; stroke-linecap: butt}</style>
 </defs>
 <g id="figure_1">
  <g id="patch_1">
   <path d="M 0 172.398125 
L 570.90375 172.398125 
L 570.90375 0 
L 0 0 
L 0 172.398125 
z
" style="fill: none"/>
  </g>
  <g id="axes_1">
   <g id="patch_2">
    <path d="M 38.44375 148.52 
L 563.70375 148.52 
L 563.70375 7.2 
L 38.44375 7.2 
L 38.44375 148.52 
z
" style="fill: none"/>
   </g>
   <g id="matplotlib.axis_1">
    <g id="xtick_1">
     <g id="line2d_1">
      <defs>
       <path id="m9577133977" d="M 0 0 
L 0 3.5 
" style="stroke: #000000; stroke-width: 0.8"/>
      </defs>
      <g>
       <use xlink:href="#m9577133977" x="38.44375" y="148.52" style="stroke: #000000; stroke-width: 0.8"/>
      </g>
     </g>
     <g id="text_1">
      <!-- 1959 -->
      <g transform="translate(25.71875 163.118437) scale(0.1 -0.1)">
       <defs>
        <path id="DejaVuSans-31" d="M 794 531 
L 1825 531 
L 1825 4091 
L 703 3866 
L 703 4441 
L 1819 4666 
L 2450 4666 
L 2450 531 
L 3481 531 
L 3481 0 
L 794 0 
L 794 531 
z
" transform="scale(0.015625)"/>
        <path id="DejaVuSans-39" d="M 703 97 
L 703 672 
Q 941 559 1184 500 
Q 1428 441 1663 441 
Q 2288 441 2617 861 
Q 2947 1281 2994 2138 
Q 2813 1869 2534 1725 
Q 2256 1581 1919 1581 
Q 1219 1581 811 2004 
Q 403 2428 403 3163 
Q 403 3881 828 4315 
Q 1253 4750 1959 4750 
Q 2769 4750 3195 4129 
Q 3622 3509 3622 2328 
Q 3622 1225 3098 567 
Q 2575 -91 1691 -91 
Q 1453 -91 1209 -44 
Q 966 3 703 97 
z
M 1959 2075 
Q 2384 2075 2632 2365 
Q 2881 2656 2881 3163 
Q 2881 3666 2632 3958 
Q 2384 4250 1959 4250 
Q 1534 4250 1286 3958 
Q 1038 3666 1038 3163 
Q 1038 2656 1286 2365 
Q 1534 2075 1959 2075 
z
" transform="scale(0.015625)"/>
        <path id="DejaVuSans-35" d="M 691 4666 
L 3169 4666 
L 3169 4134 
L 1269 4134 
L 1269 2991 
Q 1406 3038 1543 3061 
Q 1681 3084 1819 3084 
Q 2600 3084 3056 2656 
Q 3513 2228 3513 1497 
Q 3513 744 3044 326 
Q 2575 -91 1722 -91 
Q 1428 -91 1123 -41 
Q 819 9 494 109 
L 494 744 
Q 775 591 1075 516 
Q 1375 441 1709 441 
Q 2250 441 2565 725 
Q 2881 1009 2881 1497 
Q 2881 1984 2565 2268 
Q 2250 2553 1709 2553 
Q 1456 2553 1204 2497 
Q 953 2441 691 2322 
L 691 4666 
z
" transform="scale(0.015625)"/>
       </defs>
       <use xlink:href="#DejaVuSans-31"/>
       <use xlink:href="#DejaVuSans-39" transform="translate(63.623047 0)"/>
       <use xlink:href="#DejaVuSans-35" transform="translate(127.246094 0)"/>
       <use xlink:href="#DejaVuSans-39" transform="translate(190.869141 0)"/>
      </g>
     </g>
    </g>
    <g id="xtick_2">
     <g id="line2d_2">
      <g>
       <use xlink:href="#m9577133977" x="117.23275" y="148.52" style="stroke: #000000; stroke-width: 0.8"/>
      </g>
     </g>
     <g id="text_2">
      <!-- 1969 -->
      <g transform="translate(104.50775 163.118437) scale(0.1 -0.1)">
       <defs>
        <path id="DejaVuSans-36" d="M 2113 2584 
Q 1688 2584 1439 2293 
Q 1191 2003 1191 1497 
Q 1191 994 1439 701 
Q 1688 409 2113 409 
Q 2538 409 2786 701 
Q 3034 994 3034 1497 
Q 3034 2003 2786 2293 
Q 2538 2584 2113 2584 
z
M 3366 4563 
L 3366 3988 
Q 3128 4100 2886 4159 
Q 2644 4219 2406 4219 
Q 1781 4219 1451 3797 
Q 1122 3375 1075 2522 
Q 1259 2794 1537 2939 
Q 1816 3084 2150 3084 
Q 2853 3084 3261 2657 
Q 3669 2231 3669 1497 
Q 3669 778 3244 343 
Q 2819 -91 2113 -91 
Q 1303 -91 875 529 
Q 447 1150 447 2328 
Q 447 3434 972 4092 
Q 1497 4750 2381 4750 
Q 2619 4750 2861 4703 
Q 3103 4656 3366 4563 
z
" transform="scale(0.015625)"/>
       </defs>
       <use xlink:href="#DejaVuSans-31"/>
       <use xlink:href="#DejaVuSans-39" transform="translate(63.623047 0)"/>
       <use xlink:href="#DejaVuSans-36" transform="translate(127.246094 0)"/>
       <use xlink:href="#DejaVuSans-39" transform="translate(190.869141 0)"/>
      </g>
     </g>
    </g>
    <g id="xtick_3">
     <g id="line2d_3">
      <g>
       <use xlink:href="#m9577133977" x="196.02175" y="148.52" style="stroke: #000000; stroke-width: 0.8"/>
      </g>
     </g>
     <g id="text_3">
      <!-- 1979 -->
      <g transform="translate(183.29675 163.118437) scale(0.1 -0.1)">
       <defs>
        <path id="DejaVuSans-37" d="M 525 4666 
L 3525 4666 
L 3525 4397 
L 1831 0 
L 1172 0 
L 2766 4134 
L 525 4134 
L 525 4666 
z
" transform="scale(0.015625)"/>
       </defs>
       <use xlink:href="#DejaVuSans-31"/>
       <use xlink:href="#DejaVuSans-39" transform="translate(63.623047 0)"/>
       <use xlink:href="#DejaVuSans-37" transform="translate(127.246094 0)"/>
       <use xlink:href="#DejaVuSans-39" transform="translate(190.869141 0)"/>
      </g>
     </g>
    </g>
    <g id="xtick_4">
     <g id="line2d_4">
      <g>
       <use xlink:href="#m9577133977" x="274.81075" y="148.52" style="stroke: #000000; stroke-width: 0.8"/>
      </g>
     </g>
     <g id="text_4">
      <!-- 1989 -->
      <g transform="translate(262.08575 163.118437) scale(0.1 -0.1)">
       <defs>
        <path id="DejaVuSans-38" d="M 2034 2216 
Q 1584 2216 1326 1975 
Q 1069 1734 1069 1313 
Q 1069 891 1326 650 
Q 1584 409 2034 409 
Q 2484 409 2743 651 
Q 3003 894 3003 1313 
Q 3003 1734 2745 1975 
Q 2488 2216 2034 2216 
z
M 1403 2484 
Q 997 2584 770 2862 
Q 544 3141 544 3541 
Q 544 4100 942 4425 
Q 1341 4750 2034 4750 
Q 2731 4750 3128 4425 
Q 3525 4100 3525 3541 
Q 3525 3141 3298 2862 
Q 3072 2584 2669 2484 
Q 3125 2378 3379 2068 
Q 3634 1759 3634 1313 
Q 3634 634 3220 271 
Q 2806 -91 2034 -91 
Q 1263 -91 848 271 
Q 434 634 434 1313 
Q 434 1759 690 2068 
Q 947 2378 1403 2484 
z
M 1172 3481 
Q 1172 3119 1398 2916 
Q 1625 2713 2034 2713 
Q 2441 2713 2670 2916 
Q 2900 3119 2900 3481 
Q 2900 3844 2670 4047 
Q 2441 4250 2034 4250 
Q 1625 4250 1398 4047 
Q 1172 3844 1172 3481 
z
" transform="scale(0.015625)"/>
       </defs>
       <use xlink:href="#DejaVuSans-31"/>
       <use xlink:href="#DejaVuSans-39" transform="translate(63.623047 0)"/>
       <use xlink:href="#DejaVuSans-38" transform="translate(127.246094 0)"/>
       <use xlink:href="#DejaVuSans-39" transform="translate(190.869141 0)"/>
      </g>
     </g>
    </g>
    <g id="xtick_5">
     <g id="line2d_5">
      <g>
       <use xlink:href="#m9577133977" x="353.59975" y="148.52" style="stroke: #000000; stroke-width: 0.8"/>
      </g>
     </g>
     <g id="text_5">
      <!-- 1999 -->
      <g transform="translate(340.87475 163.118437) scale(0.1 -0.1)">
       <use xlink:href="#DejaVuSans-31"/>
       <use xlink:href="#DejaVuSans-39" transform="translate(63.623047 0)"/>
       <use xlink:href="#DejaVuSans-39" transform="translate(127.246094 0)"/>
       <use xlink:href="#DejaVuSans-39" transform="translate(190.869141 0)"/>
      </g>
     </g>
    </g>
    <g id="xtick_6">
     <g id="line2d_6">
      <g>
       <use xlink:href="#m9577133977" x="432.38875" y="148.52" style="stroke: #000000; stroke-width: 0.8"/>
      </g>
     </g>
     <g id="text_6">
      <!-- 2009 -->
      <g transform="translate(419.66375 163.118437) scale(0.1 -0.1)">
       <defs>
        <path id="DejaVuSans-32" d="M 1228 531 
L 3431 531 
L 3431 0 
L 469 0 
L 469 531 
Q 828 903 1448 1529 
Q 2069 2156 2228 2338 
Q 2531 2678 2651 2914 
Q 2772 3150 2772 3378 
Q 2772 3750 2511 3984 
Q 2250 4219 1831 4219 
Q 1534 4219 1204 4116 
Q 875 4013 500 3803 
L 500 4441 
Q 881 4594 1212 4672 
Q 1544 4750 1819 4750 
Q 2544 4750 2975 4387 
Q 3406 4025 3406 3419 
Q 3406 3131 3298 2873 
Q 3191 2616 2906 2266 
Q 2828 2175 2409 1742 
Q 1991 1309 1228 531 
z
" transform="scale(0.015625)"/>
        <path id="DejaVuSans-30" d="M 2034 4250 
Q 1547 4250 1301 3770 
Q 1056 3291 1056 2328 
Q 1056 1369 1301 889 
Q 1547 409 2034 409 
Q 2525 409 2770 889 
Q 3016 1369 3016 2328 
Q 3016 3291 2770 3770 
Q 2525 4250 2034 4250 
z
M 2034 4750 
Q 2819 4750 3233 4129 
Q 3647 3509 3647 2328 
Q 3647 1150 3233 529 
Q 2819 -91 2034 -91 
Q 1250 -91 836 529 
Q 422 1150 422 2328 
Q 422 3509 836 4129 
Q 1250 4750 2034 4750 
z
" transform="scale(0.015625)"/>
       </defs>
       <use xlink:href="#DejaVuSans-32"/>
       <use xlink:href="#DejaVuSans-30" transform="translate(63.623047 0)"/>
       <use xlink:href="#DejaVuSans-30" transform="translate(127.246094 0)"/>
       <use xlink:href="#DejaVuSans-39" transform="translate(190.869141 0)"/>
      </g>
     </g>
    </g>
    <g id="xtick_7">
     <g id="line2d_7">
      <g>
       <use xlink:href="#m9577133977" x="511.17775" y="148.52" style="stroke: #000000; stroke-width: 0.8"/>
      </g>
     </g>
     <g id="text_7">
      <!-- 2019 -->
      <g transform="translate(498.45275 163.118437) scale(0.1 -0.1)">
       <use xlink:href="#DejaVuSans-32"/>
       <use xlink:href="#DejaVuSans-30" transform="translate(63.623047 0)"/>
       <use xlink:href="#DejaVuSans-31" transform="translate(127.246094 0)"/>
       <use xlink:href="#DejaVuSans-39" transform="translate(190.869141 0)"/>
      </g>
     </g>
    </g>
    <g id="xtick_8">
     <g id="line2d_8">
      <defs>
       <path id="m362eb4a1f8" d="M 0 0 
L 0 2 
" style="stroke: #000000; stroke-width: 0.6"/>
      </defs>
      <g>
       <use xlink:href="#m362eb4a1f8" x="77.83825" y="148.52" style="stroke: #000000; stroke-width: 0.6"/>
      </g>
     </g>
    </g>
    <g id="xtick_9">
     <g id="line2d_9">
      <g>
       <use xlink:href="#m362eb4a1f8" x="156.62725" y="148.52" style="stroke: #000000; stroke-width: 0.6"/>
      </g>
     </g>
    </g>
    <g id="xtick_10">
     <g id="line2d_10">
      <g>
       <use xlink:href="#m362eb4a1f8" x="235.41625" y="148.52" style="stroke: #000000; stroke-width: 0.6"/>
      </g>
     </g>
    </g>
    <g id="xtick_11">
     <g id="line2d_11">
      <g>
       <use xlink:href="#m362eb4a1f8" x="314.20525" y="148.52" style="stroke: #000000; stroke-width: 0.6"/>
      </g>
     </g>
    </g>
    <g id="xtick_12">
     <g id="line2d_12">
      <g>
       <use xlink:href="#m362eb4a1f8" x="392.99425" y="148.52" style="stroke: #000000; stroke-width: 0.6"/>
      </g>
     </g>
    </g>
    <g id="xtick_13">
     <g id="line2d_13">
      <g>
       <use xlink:href="#m362eb4a1f8" x="471.78325" y="148.52" style="stroke: #000000; stroke-width: 0.6"/>
      </g>
     </g>
    </g>
    <g id="xtick_14">
     <g id="line2d_14">
      <g>
       <use xlink:href="#m362eb4a1f8" x="550.57225" y="148.52" style="stroke: #000000; stroke-width: 0.6"/>
      </g>
     </g>
    </g>
   </g>
   <g id="matplotlib.axis_2">
    <g id="ytick_1">
     <g id="line2d_15">
      <path d="M 38.44375 143.364482 
L 563.70375 143.364482 
" clip-path="url(#p8ced1da73a)" style="fill: none; stroke-dasharray: 2.96,1.28; stroke-dashoffset: 0; stroke: #dddddd; stroke-width: 0.8"/>
     </g>
     <g id="line2d_16">
      <defs>
       <path id="mda8b7f5121" d="M 0 0 
L -3.5 0 
" style="stroke: #bbbbbb; stroke-width: 0.8"/>
      </defs>
      <g>
       <use xlink:href="#mda8b7f5121" x="38.44375" y="143.364482" style="fill: #bbbbbb; stroke: #bbbbbb; stroke-width: 0.8"/>
      </g>
     </g>
     <g id="text_8">
      <!-- −5% -->
      <g style="fill: #bbbbbb" transform="translate(7.2 147.163701) scale(0.1 -0.1)">
       <defs>
        <path id="DejaVuSans-2212" d="M 678 2272 
L 4684 2272 
L 4684 1741 
L 678 1741 
L 678 2272 
z
" transform="scale(0.015625)"/>
        <path id="DejaVuSans-25" d="M 4653 2053 
Q 4381 2053 4226 1822 
Q 4072 1591 4072 1178 
Q 4072 772 4226 539 
Q 4381 306 4653 306 
Q 4919 306 5073 539 
Q 5228 772 5228 1178 
Q 5228 1588 5073 1820 
Q 4919 2053 4653 2053 
z
M 4653 2450 
Q 5147 2450 5437 2106 
Q 5728 1763 5728 1178 
Q 5728 594 5436 251 
Q 5144 -91 4653 -91 
Q 4153 -91 3862 251 
Q 3572 594 3572 1178 
Q 3572 1766 3864 2108 
Q 4156 2450 4653 2450 
z
M 1428 4353 
Q 1159 4353 1004 4120 
Q 850 3888 850 3481 
Q 850 3069 1003 2837 
Q 1156 2606 1428 2606 
Q 1700 2606 1854 2837 
Q 2009 3069 2009 3481 
Q 2009 3884 1853 4118 
Q 1697 4353 1428 4353 
z
M 4250 4750 
L 4750 4750 
L 1831 -91 
L 1331 -91 
L 4250 4750 
z
M 1428 4750 
Q 1922 4750 2215 4408 
Q 2509 4066 2509 3481 
Q 2509 2891 2217 2550 
Q 1925 2209 1428 2209 
Q 931 2209 642 2551 
Q 353 2894 353 3481 
Q 353 4063 643 4406 
Q 934 4750 1428 4750 
z
" transform="scale(0.015625)"/>
       </defs>
       <use xlink:href="#DejaVuSans-2212"/>
       <use xlink:href="#DejaVuSans-35" transform="translate(83.789062 0)"/>
       <use xlink:href="#DejaVuSans-25" transform="translate(147.412109 0)"/>
      </g>
     </g>
    </g>
    <g id="ytick_2">
     <g id="line2d_17">
      <path d="M 38.44375 122.901952 
L 563.70375 122.901952 
" clip-path="url(#p8ced1da73a)" style="fill: none; stroke-dasharray: 2.96,1.28; stroke-dashoffset: 0; stroke: #dddddd; stroke-width: 0.8"/>
     </g>
     <g id="line2d_18">
      <g>
       <use xlink:href="#mda8b7f5121" x="38.44375" y="122.901952" style="fill: #bbbbbb; stroke: #bbbbbb; stroke-width: 0.8"/>
      </g>
     </g>
     <g id="text_9">
      <!-- 0% -->
      <g style="fill: #bbbbbb" transform="translate(15.579688 126.701171) scale(0.1 -0.1)">
       <use xlink:href="#DejaVuSans-30"/>
       <use xlink:href="#DejaVuSans-25" transform="translate(63.623047 0)"/>
      </g>
     </g>
    </g>
    <g id="ytick_3">
     <g id="line2d_19">
      <path d="M 38.44375 102.439423 
L 563.70375 102.439423 
" clip-path="url(#p8ced1da73a)" style="fill: none; stroke-dasharray: 2.96,1.28; stroke-dashoffset: 0; stroke: #dddddd; stroke-width: 0.8"/>
     </g>
     <g id="line2d_20">
      <g>
       <use xlink:href="#mda8b7f5121" x="38.44375" y="102.439423" style="fill: #bbbbbb; stroke: #bbbbbb; stroke-width: 0.8"/>
      </g>
     </g>
     <g id="text_10">
      <!-- 5% -->
      <g style="fill: #bbbbbb" transform="translate(15.579688 106.238642) scale(0.1 -0.1)">
       <use xlink:href="#DejaVuSans-35"/>
       <use xlink:href="#DejaVuSans-25" transform="translate(63.623047 0)"/>
      </g>
     </g>
    </g>
    <g id="ytick_4">
     <g id="line2d_21">
      <path d="M 38.44375 81.976894 
L 563.70375 81.976894 
" clip-path="url(#p8ced1da73a)" style="fill: none; stroke-dasharray: 2.96,1.28; stroke-dashoffset: 0; stroke: #dddddd; stroke-width: 0.8"/>
     </g>
     <g id="line2d_22">
      <g>
       <use xlink:href="#mda8b7f5121" x="38.44375" y="81.976894" style="fill: #bbbbbb; stroke: #bbbbbb; stroke-width: 0.8"/>
      </g>
     </g>
     <g id="text_11">
      <!-- 10% -->
      <g style="fill: #bbbbbb" transform="translate(9.217188 85.776112) scale(0.1 -0.1)">
       <use xlink:href="#DejaVuSans-31"/>
       <use xlink:href="#DejaVuSans-30" transform="translate(63.623047 0)"/>
       <use xlink:href="#DejaVuSans-25" transform="translate(127.246094 0)"/>
      </g>
     </g>
    </g>
    <g id="ytick_5">
     <g id="line2d_23">
      <path d="M 38.44375 61.514364 
L 563.70375 61.514364 
" clip-path="url(#p8ced1da73a)" style="fill: none; stroke-dasharray: 2.96,1.28; stroke-dashoffset: 0; stroke: #dddddd; stroke-width: 0.8"/>
     </g>
     <g id="line2d_24">
      <g>
       <use xlink:href="#mda8b7f5121" x="38.44375" y="61.514364" style="fill: #bbbbbb; stroke: #bbbbbb; stroke-width: 0.8"/>
      </g>
     </g>
     <g id="text_12">
      <!-- 15% -->
      <g style="fill: #bbbbbb" transform="translate(9.217188 65.313583) scale(0.1 -0.1)">
       <use xlink:href="#DejaVuSans-31"/>
       <use xlink:href="#DejaVuSans-35" transform="translate(63.623047 0)"/>
       <use xlink:href="#DejaVuSans-25" transform="translate(127.246094 0)"/>
      </g>
     </g>
    </g>
    <g id="ytick_6">
     <g id="line2d_25">
      <path d="M 38.44375 41.051835 
L 563.70375 41.051835 
" clip-path="url(#p8ced1da73a)" style="fill: none; stroke-dasharray: 2.96,1.28; stroke-dashoffset: 0; stroke: #dddddd; stroke-width: 0.8"/>
     </g>
     <g id="line2d_26">
      <g>
       <use xlink:href="#mda8b7f5121" x="38.44375" y="41.051835" style="fill: #bbbbbb; stroke: #bbbbbb; stroke-width: 0.8"/>
      </g>
     </g>
     <g id="text_13">
      <!-- 20% -->
      <g style="fill: #bbbbbb" transform="translate(9.217188 44.851054) scale(0.1 -0.1)">
       <use xlink:href="#DejaVuSans-32"/>
       <use xlink:href="#DejaVuSans-30" transform="translate(63.623047 0)"/>
       <use xlink:href="#DejaVuSans-25" transform="translate(127.246094 0)"/>
      </g>
     </g>
    </g>
    <g id="ytick_7">
     <g id="line2d_27">
      <path d="M 38.44375 20.589305 
L 563.70375 20.589305 
" clip-path="url(#p8ced1da73a)" style="fill: none; stroke-dasharray: 2.96,1.28; stroke-dashoffset: 0; stroke: #dddddd; stroke-width: 0.8"/>
     </g>
     <g id="line2d_28">
      <g>
       <use xlink:href="#mda8b7f5121" x="38.44375" y="20.589305" style="fill: #bbbbbb; stroke: #bbbbbb; stroke-width: 0.8"/>
      </g>
     </g>
     <g id="text_14">
      <!-- 25% -->
      <g style="fill: #bbbbbb" transform="translate(9.217188 24.388524) scale(0.1 -0.1)">
       <use xlink:href="#DejaVuSans-32"/>
       <use xlink:href="#DejaVuSans-35" transform="translate(63.623047 0)"/>
       <use xlink:href="#DejaVuSans-25" transform="translate(127.246094 0)"/>
      </g>
     </g>
    </g>
   </g>
   <g id="line2d_29">
    <path d="M 46.32265 106.337728 
L 46.979225 107.681301 
L 47.6358 108.609314 
L 48.292375 108.794728 
L 48.94895 110.716873 
L 49.605525 111.491361 
L 50.2621 110.563435 
L 50.918675 108.404209 
L 52.231825 104.958419 
L 53.544975 102.837954 
L 54.20155 101.080744 
L 54.858125 98.078106 
L 56.171275 95.900414 
L 56.82785 93.93207 
L 57.484425 93.118582 
L 58.141 93.967761 
L 58.797575 95.29854 
L 59.45415 94.901993 
L 60.110725 94.34036 
L 60.7673 93.284268 
L 61.423875 92.640465 
L 62.08045 92.41337 
L 62.737025 92.385953 
L 63.3936 91.015636 
L 64.050175 90.151671 
L 65.363325 91.353187 
L 66.0199 91.227767 
L 66.676475 91.421138 
L 67.33305 91.354259 
L 67.989625 90.641486 
L 68.6462 90.495787 
L 69.302775 89.722769 
L 69.95935 89.313089 
L 70.615925 89.449537 
L 71.2725 89.980599 
L 71.929075 89.972383 
L 72.58565 89.219746 
L 73.242225 88.8075 
L 73.8988 87.553341 
L 74.555375 87.173726 
L 75.21195 87.039193 
L 75.868525 87.270112 
L 76.5251 86.845133 
L 77.181675 88.487442 
L 77.83825 89.283339 
L 78.494825 89.863783 
L 79.807975 91.766896 
L 80.46455 92.325134 
L 81.121125 91.862069 
L 81.7777 91.759819 
L 82.434275 91.109284 
L 83.09085 90.140701 
L 83.747425 90.440149 
L 84.404 91.019084 
L 85.060575 90.116109 
L 85.71715 89.453587 
L 87.686875 88.568508 
L 88.34345 89.590858 
L 89.000025 89.727623 
L 89.6566 90.169889 
L 90.313175 90.82716 
L 90.96975 90.900107 
L 91.626325 90.189247 
L 92.2829 90.220093 
L 92.939475 89.656967 
L 93.59605 89.874712 
L 94.9092 90.781638 
L 95.565775 91.037931 
L 96.22235 92.004516 
L 96.878925 93.981949 
L 97.5355 97.029258 
L 98.192075 98.29918 
L 98.84865 99.321107 
L 99.505225 102.014439 
L 100.1618 103.503636 
L 100.818375 104.186224 
L 101.47495 105.539806 
L 102.131525 104.844189 
L 102.7881 103.192752 
L 103.444675 103.019333 
L 105.4144 92.136459 
L 106.070975 89.822451 
L 106.72755 89.070341 
L 107.384125 86.338677 
L 108.0407 85.260844 
L 108.697275 84.89159 
L 109.35385 83.982357 
L 110.010425 84.684983 
L 110.667 86.548265 
L 111.323575 86.6424 
L 111.98015 88.578241 
L 113.2933 91.135118 
L 113.949875 91.975812 
L 114.60645 91.971609 
L 115.263025 91.78564 
L 115.9196 90.551369 
L 116.576175 90.149428 
L 117.23275 90.388491 
L 118.5459 91.279439 
L 119.202475 92.34376 
L 119.85905 94.34782 
L 121.1722 97.473809 
L 121.828775 100.033381 
L 122.48535 101.833235 
L 123.7985 106.165175 
L 124.455075 107.666971 
L 125.11165 108.308966 
L 125.768225 112.597339 
L 126.4248 113.710914 
L 127.081375 113.873843 
L 127.73795 112.253628 
L 128.394525 111.087804 
L 129.0511 109.060172 
L 129.707675 105.405978 
L 131.020825 99.752708 
L 132.333975 96.031613 
L 132.99055 92.846745 
L 133.647125 84.720122 
L 134.960275 74.214765 
L 135.61685 70.872123 
L 136.93 67.91168 
L 137.586575 68.371291 
L 138.899725 68.459142 
L 139.5563 67.882754 
L 140.212875 68.161012 
L 140.86945 68.067935 
L 141.526025 68.824691 
L 142.1826 70.257932 
L 143.49575 75.881411 
L 144.152325 76.260764 
L 145.465475 73.230692 
L 146.778625 71.042449 
L 147.4352 71.034116 
L 148.091775 69.894696 
L 148.74835 70.099104 
L 149.404925 73.049738 
L 150.0615 77.262282 
L 150.718075 77.842266 
L 151.37465 76.92802 
L 152.031225 77.265899 
L 153.344375 85.581195 
L 154.00095 90.82655 
L 154.657525 93.933522 
L 155.3141 94.549789 
L 155.970675 95.764808 
L 156.62725 97.95196 
L 157.283825 97.716527 
L 157.9404 95.39437 
L 158.596975 96.340855 
L 159.25355 99.241843 
L 159.910125 101.047097 
L 161.223275 100.800079 
L 161.87985 99.204135 
L 162.536425 98.276976 
L 163.193 98.941823 
L 163.849575 100.609635 
L 164.50615 100.718543 
L 165.162725 99.271306 
L 165.8193 97.079797 
L 166.475875 93.740094 
L 167.789025 83.179749 
L 168.4456 79.395281 
L 169.75875 75.150673 
L 170.415325 75.02701 
L 171.0719 73.57874 
L 173.041625 66.401105 
L 173.6982 67.597819 
L 174.354775 67.8888 
L 175.01135 69.279289 
L 175.667925 74.199858 
L 176.3245 76.231185 
L 176.981075 74.779312 
L 177.63765 73.659799 
L 178.294225 70.7305 
L 179.607375 68.211705 
L 180.26395 67.649535 
L 180.920525 68.888585 
L 181.5771 68.919851 
L 182.233675 69.353704 
L 182.89025 70.643389 
L 183.546825 69.656841 
L 184.2034 70.007924 
L 185.51655 73.016708 
L 186.173125 75.974552 
L 189.456 87.193676 
L 190.112575 88.51344 
L 190.76915 88.543859 
L 191.425725 89.060982 
L 192.0823 90.407449 
L 192.738875 90.975775 
L 193.39545 90.456151 
L 194.052025 90.821145 
L 194.7086 91.553306 
L 195.365175 92.070431 
L 196.02175 93.512151 
L 196.678325 93.51741 
L 197.3349 92.62463 
L 197.991475 90.895812 
L 198.64805 91.767055 
L 199.304625 90.466089 
L 199.9612 88.686984 
L 200.617775 88.19161 
L 201.27435 89.705492 
L 202.5875 90.742462 
L 203.244075 90.63527 
L 203.90065 89.752535 
L 204.557225 88.208623 
L 205.2138 89.874091 
L 205.870375 93.684362 
L 206.52695 93.271769 
L 208.496675 90.396151 
L 210.4664 86.636415 
L 211.122975 87.883632 
L 211.77955 88.620626 
L 212.436125 88.920956 
L 213.0927 85.573322 
L 213.749275 80.12979 
L 214.40585 81.795582 
L 215.062425 85.140209 
L 215.719 86.783039 
L 216.375575 88.096651 
L 217.03215 88.581064 
L 217.688725 87.523778 
L 218.3453 86.921342 
L 219.001875 83.071776 
L 219.65845 81.261234 
L 220.9716 85.417739 
L 221.628175 87.210921 
L 222.28475 85.719709 
L 222.941325 84.752927 
L 223.5979 86.50033 
L 224.91105 86.342873 
L 225.567625 87.74795 
L 226.2242 88.108227 
L 226.880775 87.839982 
L 228.193925 71.633197 
L 228.8505 70.511463 
L 229.507075 71.924289 
L 230.16365 71.570919 
L 230.820225 71.913722 
L 231.4768 70.770824 
L 232.78995 73.397254 
L 233.446525 72.667685 
L 234.1031 73.236568 
L 234.759675 76.177083 
L 235.41625 85.556844 
L 236.072825 89.822503 
L 236.7294 90.408853 
L 237.385975 89.998092 
L 238.04255 90.652261 
L 238.699125 90.696014 
L 240.012275 92.040433 
L 240.66885 91.233752 
L 241.325425 91.767559 
L 241.982 90.139431 
L 242.638575 87.652632 
L 243.29515 85.732153 
L 243.951725 85.754241 
L 244.6083 86.96647 
L 245.264875 88.600117 
L 245.92145 88.477444 
L 246.578025 86.412859 
L 247.891175 83.709016 
L 248.54775 84.24524 
L 249.204325 85.01878 
L 251.830625 95.295227 
L 252.4872 94.035448 
L 253.143775 91.4768 
L 253.80035 89.452846 
L 254.456925 90.265041 
L 255.770075 88.993096 
L 257.083225 86.520437 
L 257.7398 85.987146 
L 258.396375 84.162651 
L 259.05295 83.352457 
L 259.709525 84.695025 
L 260.3661 87.261559 
L 261.022675 89.31774 
L 261.67925 93.120137 
L 262.9924 99.156506 
L 264.30555 102.698675 
L 264.962125 103.500849 
L 265.6187 105.085394 
L 266.275275 108.140128 
L 266.93185 107.465007 
L 267.588425 104.595529 
L 268.245 102.541227 
L 268.901575 101.757018 
L 270.214725 98.741624 
L 270.8713 98.13191 
L 271.527875 98.859471 
L 272.841025 101.020393 
L 273.4976 99.484265 
L 274.154175 99.474007 
L 274.81075 102.162028 
L 275.467325 105.536177 
L 276.780475 109.50257 
L 277.43705 110.929345 
L 278.093625 110.43669 
L 280.06335 104.134196 
L 280.719925 102.365586 
L 281.3765 101.877771 
L 283.346225 97.3255 
L 284.0028 96.925584 
L 284.659375 96.272074 
L 285.31595 97.218475 
L 285.972525 97.789247 
L 286.6291 99.827642 
L 287.94225 101.450208 
L 289.2554 106.013655 
L 289.911975 107.41469 
L 290.56855 107.277854 
L 291.225125 106.772392 
L 291.8817 105.993634 
L 292.538275 106.182195 
L 293.19485 104.693715 
L 293.851425 105.302789 
L 294.508 106.199401 
L 295.164575 108.637512 
L 295.82115 110.289701 
L 296.477725 110.245106 
L 297.1343 109.99449 
L 297.790875 110.343496 
L 298.44745 111.263138 
L 299.104025 111.074617 
L 301.730325 117.835005 
L 302.3869 118.292533 
L 303.043475 117.559128 
L 303.70005 116.143932 
L 304.356625 115.143474 
L 305.0132 115.484248 
L 305.669775 116.530546 
L 306.32635 118.314647 
L 306.982925 121.156619 
L 307.6395 121.964159 
L 308.296075 121.505562 
L 308.95265 118.289966 
L 309.609225 116.992458 
L 310.922375 117.254709 
L 311.57895 117.873773 
L 312.235525 118.969379 
L 312.8921 117.694503 
L 315.5184 114.697028 
L 316.174975 114.504115 
L 317.488125 118.49131 
L 318.1447 117.408816 
L 320.114425 119.634294 
L 320.771 120.885243 
L 321.427575 121.500288 
L 322.08415 120.840919 
L 323.3973 121.608381 
L 324.053875 120.797685 
L 324.71045 118.98624 
L 325.367025 114.739288 
L 326.0236 113.609869 
L 326.680175 110.773661 
L 327.993325 107.738433 
L 328.6499 107.328555 
L 329.96305 104.679966 
L 330.619625 102.743731 
L 331.2762 99.948939 
L 331.932775 99.686291 
L 333.245925 102.882819 
L 333.9025 103.434042 
L 334.559075 105.227436 
L 335.21565 105.712087 
L 335.872225 104.848445 
L 337.185375 101.579653 
L 338.498525 102.281838 
L 339.1551 103.554431 
L 339.811675 103.057554 
L 340.46825 103.088117 
L 341.7814 102.445446 
L 342.437975 99.575543 
L 343.09455 98.947044 
L 344.4077 99.210257 
L 345.064275 99.934791 
L 345.72085 99.251525 
L 346.377425 97.089043 
L 348.34715 93.943359 
L 349.003725 93.764065 
L 349.6603 93.709251 
L 350.316875 94.845733 
L 351.630025 90.549803 
L 352.2866 89.079758 
L 352.943175 88.125445 
L 353.59975 87.911542 
L 354.256325 89.182242 
L 354.9129 91.240561 
L 355.569475 91.151967 
L 356.22605 91.287335 
L 356.882625 91.221002 
L 357.5392 90.619852 
L 358.195775 91.545462 
L 358.85235 94.028003 
L 360.1655 97.932262 
L 360.822075 98.238048 
L 361.47865 98.307879 
L 362.135225 99.313036 
L 363.448375 94.795443 
L 364.10495 98.307325 
L 364.761525 98.789939 
L 365.4181 99.810885 
L 366.074675 98.918809 
L 366.73125 97.247652 
L 368.0444 98.862318 
L 368.700975 97.469895 
L 369.35755 95.660081 
L 370.6707 91.363678 
L 371.327275 91.030913 
L 371.98385 90.072064 
L 372.640425 88.051868 
L 373.297 87.138543 
L 373.953575 86.872276 
L 374.61015 80.764786 
L 375.266725 83.205998 
L 375.9233 80.591408 
L 376.579875 80.304212 
L 377.23645 83.228905 
L 377.893025 84.301718 
L 378.5496 88.450969 
L 379.206175 93.994563 
L 379.86275 91.74531 
L 380.519325 93.417518 
L 381.1759 92.581275 
L 381.832475 92.113334 
L 382.48905 99.424934 
L 383.145625 95.078917 
L 383.8022 94.75007 
L 384.458775 97.408887 
L 385.11535 96.582334 
L 385.771925 96.21591 
L 386.4285 95.648333 
L 387.74165 90.55159 
L 388.398225 89.820255 
L 389.0548 89.765526 
L 389.711375 88.874555 
L 391.6811 100.343099 
L 392.99425 103.890294 
L 393.650825 103.755726 
L 394.3074 102.712796 
L 394.963975 102.56936 
L 395.62055 101.606899 
L 397.590275 108.782469 
L 398.24685 104.558813 
L 398.903425 102.014665 
L 400.216575 99.271905 
L 400.87315 99.438728 
L 402.1863 103.602131 
L 402.842875 105.545328 
L 403.49945 109.644364 
L 404.156025 107.660743 
L 404.8126 106.482749 
L 405.469175 106.156997 
L 406.12575 106.286335 
L 406.782325 105.9605 
L 407.4389 106.650239 
L 408.095475 106.129335 
L 408.75205 103.854758 
L 409.408625 102.829994 
L 410.0652 102.529228 
L 410.721775 101.045445 
L 411.37835 101.760392 
L 412.034925 101.527177 
L 412.6915 101.005623 
L 413.348075 101.195734 
L 414.00465 101.70916 
L 414.661225 100.862208 
L 415.3178 99.768821 
L 415.974375 98.895701 
L 416.63095 99.295902 
L 417.287525 99.902926 
L 417.9441 98.785713 
L 418.600675 96.820637 
L 419.25725 96.420219 
L 419.913825 96.860145 
L 420.5704 97.665149 
L 421.226975 95.14423 
L 421.88355 95.788895 
L 422.540125 97.978798 
L 423.1967 98.686079 
L 423.853275 99.561126 
L 424.50985 99.95085 
L 425.166425 95.958174 
L 425.823 94.252927 
L 426.479575 96.235411 
L 427.13615 96.3542 
L 427.792725 97.289395 
L 428.4493 96.48047 
L 429.105875 100.15597 
L 429.76245 97.539789 
L 430.419025 92.776049 
L 431.0756 91.418604 
L 431.732175 83.485629 
L 432.38875 80.901709 
L 433.045325 84.404195 
L 433.7019 84.676774 
L 434.358475 86.893207 
L 435.01505 84.547292 
L 435.671625 85.094404 
L 436.3282 87.587858 
L 436.984775 88.445588 
L 438.297925 96.576161 
L 438.9545 97.919669 
L 439.611075 107.563847 
L 440.26765 113.585318 
L 440.924225 112.669827 
L 441.5808 116.211566 
L 442.237375 114.917979 
L 442.89395 115.161782 
L 444.2071 114.391513 
L 444.863675 112.026322 
L 445.52025 110.46715 
L 446.176825 109.37743 
L 446.8334 109.832073 
L 447.489975 107.973696 
L 448.14655 105.170995 
L 448.803125 104.592628 
L 449.4597 101.617177 
L 450.116275 100.15943 
L 450.77285 99.442182 
L 451.429425 96.890082 
L 452.742575 83.474387 
L 453.39915 84.111228 
L 454.055725 85.119877 
L 454.7123 83.764949 
L 455.368875 83.269674 
L 456.02545 81.014495 
L 457.995175 83.505091 
L 458.65175 85.121862 
L 459.308325 85.604915 
L 460.621475 96.640894 
L 461.27805 94.123941 
L 461.934625 92.791084 
L 462.5912 92.21294 
L 463.247775 89.196326 
L 463.90435 91.543829 
L 464.560925 93.074507 
L 465.2175 92.700705 
L 465.874075 93.94291 
L 466.53065 94.443585 
L 468.500375 96.560945 
L 469.15695 97.560887 
L 469.813525 95.415864 
L 471.126675 100.521152 
L 472.439825 96.988145 
L 473.0964 97.911678 
L 473.752975 97.300626 
L 474.40955 96.216884 
L 475.066125 96.432133 
L 475.7227 95.937676 
L 476.379275 97.3686 
L 477.03585 98.235031 
L 477.692425 100.397869 
L 478.349 99.223188 
L 479.66215 98.19215 
L 480.318725 96.463507 
L 480.9753 97.927094 
L 481.631875 98.426347 
L 482.28845 99.902471 
L 483.6016 101.046629 
L 484.91475 99.722661 
L 485.571325 100.665836 
L 486.2279 98.961218 
L 486.884475 99.56617 
L 487.54105 97.984737 
L 488.197625 99.766078 
L 488.8542 97.946977 
L 490.16735 95.181196 
L 490.823925 94.589255 
L 491.4805 94.335288 
L 492.137075 93.10437 
L 492.79365 93.28808 
L 493.450225 92.674892 
L 494.1068 93.491715 
L 494.763375 94.52488 
L 495.41995 96.891608 
L 496.076525 97.219873 
L 496.7331 96.983116 
L 497.389675 97.884966 
L 498.04625 98.496719 
L 498.702825 99.848905 
L 499.3594 99.85694 
L 500.015975 100.798459 
L 501.329125 101.829158 
L 501.9857 103.216591 
L 502.642275 102.859943 
L 503.29885 104.975335 
L 503.955425 106.001651 
L 504.612 106.219118 
L 505.268575 107.444733 
L 505.92515 107.392249 
L 506.581725 106.251933 
L 507.2383 107.006975 
L 508.55145 107.79964 
L 509.208025 109.269175 
L 509.8646 109.692389 
L 511.17775 106.31131 
L 511.834325 106.383741 
L 512.4909 106.793483 
L 513.147475 106.509936 
L 513.80405 105.348576 
L 515.1172 102.381409 
L 515.773775 101.545009 
L 516.43035 99.838087 
L 517.086925 96.296971 
L 517.7435 93.747458 
L 518.400075 95.43419 
L 519.05665 95.404592 
L 519.713225 95.041666 
L 520.3698 81.556821 
L 521.026375 53.976485 
L 521.68295 33.496396 
L 522.339525 29.542614 
L 522.9961 27.992164 
L 523.652675 28.913773 
L 524.30925 25.826439 
L 524.965825 26.188982 
L 525.6224 23.712988 
L 526.278975 21.962576 
L 526.93555 18.223338 
L 527.592125 13.623636 
L 528.2487 24.902284 
L 528.905275 46.947504 
L 529.56185 63.814392 
L 530.218425 70.285438 
L 530.875 70.779687 
L 531.531575 68.371904 
L 532.18815 70.465923 
L 532.844725 70.717379 
L 533.5013 72.493072 
L 534.157875 72.892656 
L 534.81445 75.807324 
L 535.471025 79.288096 
L 536.1276 83.715618 
L 537.44075 97.658439 
L 538.097325 99.515805 
L 538.7539 102.792665 
L 540.06705 112.330818 
L 542.036775 127.705229 
L 543.349925 132.345805 
L 544.0065 138.826349 
L 544.663075 142.096364 
L 545.31965 139.686534 
L 545.976225 139.165857 
L 546.6328 139.346331 
L 547.289375 139.189167 
L 548.602525 136.982095 
L 549.2591 135.575287 
L 549.915675 132.886826 
L 550.57225 131.241283 
L 551.228825 129.151454 
L 551.8854 122.417739 
L 552.541975 118.971293 
L 553.19855 119.19725 
L 553.855125 117.581204 
L 554.5117 116.752978 
L 555.82485 112.293639 
L 557.138 108.838888 
L 557.794575 108.604781 
L 558.45115 108.731032 
L 559.107725 109.098745 
L 559.7643 108.490617 
L 560.420875 106.445029 
L 561.07745 106.562658 
L 562.3906 104.566986 
L 563.047175 104.783358 
L 563.70375 104.516239 
L 563.70375 104.516239 
" clip-path="url(#p8ced1da73a)" style="fill: none; stroke: #1f77b4; stroke-width: 1.5; stroke-linecap: square"/>
   </g>
   <g id="patch_3">
    <path d="M 38.44375 148.52 
L 38.44375 7.2 
" style="fill: none"/>
   </g>
   <g id="patch_4">
    <path d="M 563.70375 148.52 
L 563.70375 7.2 
" style="fill: none"/>
   </g>
   <g id="patch_5">
    <path d="M 38.44375 148.52 
L 563.70375 148.52 
" style="fill: none; stroke: #000000; stroke-width: 0.8; stroke-linejoin: miter; stroke-linecap: square"/>
   </g>
   <g id="patch_6">
    <path d="M 38.44375 7.2 
L 563.70375 7.2 
" style="fill: none"/>
   </g>
   <g id="legend_1">
    <g id="patch_7">
     <path d="M 45.44375 29.878125 
L 104.354688 29.878125 
Q 106.354688 29.878125 106.354688 27.878125 
L 106.354688 14.2 
Q 106.354688 12.2 104.354688 12.2 
L 45.44375 12.2 
Q 43.44375 12.2 43.44375 14.2 
L 43.44375 27.878125 
Q 43.44375 29.878125 45.44375 29.878125 
L 45.44375 29.878125 
z
" style="fill: none; opacity: 0"/>
    </g>
    <g id="line2d_30">
     <path d="M 47.44375 20.298437 
L 57.44375 20.298437 
L 67.44375 20.298437 
" style="fill: none; stroke: #1f77b4; stroke-width: 1.5; stroke-linecap: square"/>
    </g>
    <g id="text_15">
     <!-- M2SL -->
     <g transform="translate(75.44375 23.798437) scale(0.1 -0.1)">
      <defs>
       <path id="DejaVuSans-4d" d="M 628 4666 
L 1569 4666 
L 2759 1491 
L 3956 4666 
L 4897 4666 
L 4897 0 
L 4281 0 
L 4281 4097 
L 3078 897 
L 2444 897 
L 1241 4097 
L 1241 0 
L 628 0 
L 628 4666 
z
" transform="scale(0.015625)"/>
       <path id="DejaVuSans-53" d="M 3425 4513 
L 3425 3897 
Q 3066 4069 2747 4153 
Q 2428 4238 2131 4238 
Q 1616 4238 1336 4038 
Q 1056 3838 1056 3469 
Q 1056 3159 1242 3001 
Q 1428 2844 1947 2747 
L 2328 2669 
Q 3034 2534 3370 2195 
Q 3706 1856 3706 1288 
Q 3706 609 3251 259 
Q 2797 -91 1919 -91 
Q 1588 -91 1214 -16 
Q 841 59 441 206 
L 441 856 
Q 825 641 1194 531 
Q 1563 422 1919 422 
Q 2459 422 2753 634 
Q 3047 847 3047 1241 
Q 3047 1584 2836 1778 
Q 2625 1972 2144 2069 
L 1759 2144 
Q 1053 2284 737 2584 
Q 422 2884 422 3419 
Q 422 4038 858 4394 
Q 1294 4750 2059 4750 
Q 2388 4750 2728 4690 
Q 3069 4631 3425 4513 
z
" transform="scale(0.015625)"/>
       <path id="DejaVuSans-4c" d="M 628 4666 
L 1259 4666 
L 1259 531 
L 3531 531 
L 3531 0 
L 628 0 
L 628 4666 
z
" transform="scale(0.015625)"/>
      </defs>
      <use xlink:href="#DejaVuSans-4d"/>
      <use xlink:href="#DejaVuSans-32" transform="translate(86.279297 0)"/>
      <use xlink:href="#DejaVuSans-53" transform="translate(149.902344 0)"/>
      <use xlink:href="#DejaVuSans-4c" transform="translate(213.378906 0)"/>
     </g>
    </g>
   </g>
  </g>
 </g>
 <defs>
  <clipPath id="p8ced1da73a">
   <rect x="38.44375" y="7.2" width="525.26" height="141.32"/>
  </clipPath>
 </defs>
</svg>
