<?xml version="1.0" encoding="utf-8" standalone="no"?>
<!DOCTYPE svg PUBLIC "-//W3C//DTD SVG 1.1//EN"
  "http://www.w3.org/Graphics/SVG/1.1/DTD/svg11.dtd">
<svg xmlns:xlink="http://www.w3.org/1999/xlink" width="568.547187pt" height="279.903048pt" viewBox="0 0 568.547187 279.903048" xmlns="http://www.w3.org/2000/svg" version="1.1">
 <metadata>
  <rdf:RDF xmlns:dc="http://purl.org/dc/elements/1.1/" xmlns:cc="http://creativecommons.org/ns#" xmlns:rdf="http://www.w3.org/1999/02/22-rdf-syntax-ns#">
   <cc:Work>
    <dc:type rdf:resource="http://purl.org/dc/dcmitype/StillImage"/>
    <dc:date>2025-11-19T13:10:14.985933</dc:date>
    <dc:format>image/svg+xml</dc:format>
    <dc:creator>
     <cc:Agent>
      <dc:title>Matplotlib v3.10.7, https://matplotlib.org/</dc:title>
     </cc:Agent>
    </dc:creator>
   </cc:Work>
  </rdf:RDF>
 </metadata>
 <defs>
  <style type="text/css">*{stroke-linejoin: round; stroke-linecap: butt}</style>
 </defs>
 <g id="figure_1">
  <g id="patch_1">
   <path d="M 0 279.903048 
L 568.547187 279.903048 
L 568.547187 0 
L 0 0 
L 0 279.903048 
z
" style="fill: none"/>
  </g>
  <g id="axes_1">
   <g id="patch_2">
    <path d="M 56.467188 80.278256 
L 561.347187 80.278256 
L 561.347187 7.700217 
L 56.467188 7.700217 
L 56.467188 80.278256 
z
" style="fill: none"/>
   </g>
   <g id="matplotlib.axis_1">
    <g id="xtick_1">
     <g id="line2d_1">
      <defs>
       <path id="ma25eb017b8" d="M 0 0 
L 0 3.5 
" style="stroke: #000000; stroke-width: 0.8"/>
      </defs>
      <g>
       <use xlink:href="#ma25eb017b8" x="86.386002" y="80.278256" style="stroke: #000000; stroke-width: 0.8"/>
      </g>
     </g>
    </g>
    <g id="xtick_2">
     <g id="line2d_2">
      <g>
       <use xlink:href="#ma25eb017b8" x="161.183039" y="80.278256" style="stroke: #000000; stroke-width: 0.8"/>
      </g>
     </g>
    </g>
    <g id="xtick_3">
     <g id="line2d_3">
      <g>
       <use xlink:href="#ma25eb017b8" x="235.980076" y="80.278256" style="stroke: #000000; stroke-width: 0.8"/>
      </g>
     </g>
    </g>
    <g id="xtick_4">
     <g id="line2d_4">
      <g>
       <use xlink:href="#ma25eb017b8" x="310.777113" y="80.278256" style="stroke: #000000; stroke-width: 0.8"/>
      </g>
     </g>
    </g>
    <g id="xtick_5">
     <g id="line2d_5">
      <g>
       <use xlink:href="#ma25eb017b8" x="385.57415" y="80.278256" style="stroke: #000000; stroke-width: 0.8"/>
      </g>
     </g>
    </g>
    <g id="xtick_6">
     <g id="line2d_6">
      <g>
       <use xlink:href="#ma25eb017b8" x="460.371187" y="80.278256" style="stroke: #000000; stroke-width: 0.8"/>
      </g>
     </g>
    </g>
    <g id="xtick_7">
     <g id="line2d_7">
      <g>
       <use xlink:href="#ma25eb017b8" x="535.168225" y="80.278256" style="stroke: #000000; stroke-width: 0.8"/>
      </g>
     </g>
    </g>
    <g id="xtick_8">
     <g id="line2d_8">
      <defs>
       <path id="mac3132cd5b" d="M 0 0 
L 0 2 
" style="stroke: #000000; stroke-width: 0.6"/>
      </defs>
      <g>
       <use xlink:href="#mac3132cd5b" x="56.467188" y="80.278256" style="stroke: #000000; stroke-width: 0.6"/>
      </g>
     </g>
    </g>
    <g id="xtick_9">
     <g id="line2d_9">
      <g>
       <use xlink:href="#mac3132cd5b" x="71.426595" y="80.278256" style="stroke: #000000; stroke-width: 0.6"/>
      </g>
     </g>
    </g>
    <g id="xtick_10">
     <g id="line2d_10">
      <g>
       <use xlink:href="#mac3132cd5b" x="101.34541" y="80.278256" style="stroke: #000000; stroke-width: 0.6"/>
      </g>
     </g>
    </g>
    <g id="xtick_11">
     <g id="line2d_11">
      <g>
       <use xlink:href="#mac3132cd5b" x="116.304817" y="80.278256" style="stroke: #000000; stroke-width: 0.6"/>
      </g>
     </g>
    </g>
    <g id="xtick_12">
     <g id="line2d_12">
      <g>
       <use xlink:href="#mac3132cd5b" x="131.264225" y="80.278256" style="stroke: #000000; stroke-width: 0.6"/>
      </g>
     </g>
    </g>
    <g id="xtick_13">
     <g id="line2d_13">
      <g>
       <use xlink:href="#mac3132cd5b" x="146.223632" y="80.278256" style="stroke: #000000; stroke-width: 0.6"/>
      </g>
     </g>
    </g>
    <g id="xtick_14">
     <g id="line2d_14">
      <g>
       <use xlink:href="#mac3132cd5b" x="176.142447" y="80.278256" style="stroke: #000000; stroke-width: 0.6"/>
      </g>
     </g>
    </g>
    <g id="xtick_15">
     <g id="line2d_15">
      <g>
       <use xlink:href="#mac3132cd5b" x="191.101854" y="80.278256" style="stroke: #000000; stroke-width: 0.6"/>
      </g>
     </g>
    </g>
    <g id="xtick_16">
     <g id="line2d_16">
      <g>
       <use xlink:href="#mac3132cd5b" x="206.061262" y="80.278256" style="stroke: #000000; stroke-width: 0.6"/>
      </g>
     </g>
    </g>
    <g id="xtick_17">
     <g id="line2d_17">
      <g>
       <use xlink:href="#mac3132cd5b" x="221.020669" y="80.278256" style="stroke: #000000; stroke-width: 0.6"/>
      </g>
     </g>
    </g>
    <g id="xtick_18">
     <g id="line2d_18">
      <g>
       <use xlink:href="#mac3132cd5b" x="250.939484" y="80.278256" style="stroke: #000000; stroke-width: 0.6"/>
      </g>
     </g>
    </g>
    <g id="xtick_19">
     <g id="line2d_19">
      <g>
       <use xlink:href="#mac3132cd5b" x="265.898891" y="80.278256" style="stroke: #000000; stroke-width: 0.6"/>
      </g>
     </g>
    </g>
    <g id="xtick_20">
     <g id="line2d_20">
      <g>
       <use xlink:href="#mac3132cd5b" x="280.858299" y="80.278256" style="stroke: #000000; stroke-width: 0.6"/>
      </g>
     </g>
    </g>
    <g id="xtick_21">
     <g id="line2d_21">
      <g>
       <use xlink:href="#mac3132cd5b" x="295.817706" y="80.278256" style="stroke: #000000; stroke-width: 0.6"/>
      </g>
     </g>
    </g>
    <g id="xtick_22">
     <g id="line2d_22">
      <g>
       <use xlink:href="#mac3132cd5b" x="325.736521" y="80.278256" style="stroke: #000000; stroke-width: 0.6"/>
      </g>
     </g>
    </g>
    <g id="xtick_23">
     <g id="line2d_23">
      <g>
       <use xlink:href="#mac3132cd5b" x="340.695928" y="80.278256" style="stroke: #000000; stroke-width: 0.6"/>
      </g>
     </g>
    </g>
    <g id="xtick_24">
     <g id="line2d_24">
      <g>
       <use xlink:href="#mac3132cd5b" x="355.655336" y="80.278256" style="stroke: #000000; stroke-width: 0.6"/>
      </g>
     </g>
    </g>
    <g id="xtick_25">
     <g id="line2d_25">
      <g>
       <use xlink:href="#mac3132cd5b" x="370.614743" y="80.278256" style="stroke: #000000; stroke-width: 0.6"/>
      </g>
     </g>
    </g>
    <g id="xtick_26">
     <g id="line2d_26">
      <g>
       <use xlink:href="#mac3132cd5b" x="400.533558" y="80.278256" style="stroke: #000000; stroke-width: 0.6"/>
      </g>
     </g>
    </g>
    <g id="xtick_27">
     <g id="line2d_27">
      <g>
       <use xlink:href="#mac3132cd5b" x="415.492965" y="80.278256" style="stroke: #000000; stroke-width: 0.6"/>
      </g>
     </g>
    </g>
    <g id="xtick_28">
     <g id="line2d_28">
      <g>
       <use xlink:href="#mac3132cd5b" x="430.452373" y="80.278256" style="stroke: #000000; stroke-width: 0.6"/>
      </g>
     </g>
    </g>
    <g id="xtick_29">
     <g id="line2d_29">
      <g>
       <use xlink:href="#mac3132cd5b" x="445.41178" y="80.278256" style="stroke: #000000; stroke-width: 0.6"/>
      </g>
     </g>
    </g>
    <g id="xtick_30">
     <g id="line2d_30">
      <g>
       <use xlink:href="#mac3132cd5b" x="475.330595" y="80.278256" style="stroke: #000000; stroke-width: 0.6"/>
      </g>
     </g>
    </g>
    <g id="xtick_31">
     <g id="line2d_31">
      <g>
       <use xlink:href="#mac3132cd5b" x="490.290002" y="80.278256" style="stroke: #000000; stroke-width: 0.6"/>
      </g>
     </g>
    </g>
    <g id="xtick_32">
     <g id="line2d_32">
      <g>
       <use xlink:href="#mac3132cd5b" x="505.24941" y="80.278256" style="stroke: #000000; stroke-width: 0.6"/>
      </g>
     </g>
    </g>
    <g id="xtick_33">
     <g id="line2d_33">
      <g>
       <use xlink:href="#mac3132cd5b" x="520.208817" y="80.278256" style="stroke: #000000; stroke-width: 0.6"/>
      </g>
     </g>
    </g>
    <g id="xtick_34">
     <g id="line2d_34">
      <g>
       <use xlink:href="#mac3132cd5b" x="550.127632" y="80.278256" style="stroke: #000000; stroke-width: 0.6"/>
      </g>
     </g>
    </g>
   </g>
   <g id="matplotlib.axis_2">
    <g id="ytick_1">
     <g id="line2d_35">
      <path d="M 56.467188 76.979254 
L 561.347187 76.979254 
" clip-path="url(#p87e5e52212)" style="fill: none; stroke-dasharray: 2.96,1.28; stroke-dashoffset: 0; stroke: #000000; stroke-opacity: 0.1; stroke-width: 0.8"/>
     </g>
     <g id="line2d_36">
      <defs>
       <path id="m9b21579896" d="M 0 0 
L -3.5 0 
" style="stroke: #000000; stroke-width: 0.8"/>
      </defs>
      <g>
       <use xlink:href="#m9b21579896" x="56.467188" y="76.979254" style="stroke: #000000; stroke-width: 0.8"/>
      </g>
     </g>
     <g id="text_1">
      <!-- 0% -->
      <g transform="translate(33.603125 80.778473) scale(0.1 -0.1)">
       <defs>
        <path id="DejaVuSans-30" d="M 2034 4250 
Q 1547 4250 1301 3770 
Q 1056 3291 1056 2328 
Q 1056 1369 1301 889 
Q 1547 409 2034 409 
Q 2525 409 2770 889 
Q 3016 1369 3016 2328 
Q 3016 3291 2770 3770 
Q 2525 4250 2034 4250 
z
M 2034 4750 
Q 2819 4750 3233 4129 
Q 3647 3509 3647 2328 
Q 3647 1150 3233 529 
Q 2819 -91 2034 -91 
Q 1250 -91 836 529 
Q 422 1150 422 2328 
Q 422 3509 836 4129 
Q 1250 4750 2034 4750 
z
" transform="scale(0.015625)"/>
        <path id="DejaVuSans-25" d="M 4653 2053 
Q 4381 2053 4226 1822 
Q 4072 1591 4072 1178 
Q 4072 772 4226 539 
Q 4381 306 4653 306 
Q 4919 306 5073 539 
Q 5228 772 5228 1178 
Q 5228 1588 5073 1820 
Q 4919 2053 4653 2053 
z
M 4653 2450 
Q 5147 2450 5437 2106 
Q 5728 1763 5728 1178 
Q 5728 594 5436 251 
Q 5144 -91 4653 -91 
Q 4153 -91 3862 251 
Q 3572 594 3572 1178 
Q 3572 1766 3864 2108 
Q 4156 2450 4653 2450 
z
M 1428 4353 
Q 1159 4353 1004 4120 
Q 850 3888 850 3481 
Q 850 3069 1003 2837 
Q 1156 2606 1428 2606 
Q 1700 2606 1854 2837 
Q 2009 3069 2009 3481 
Q 2009 3884 1853 4118 
Q 1697 4353 1428 4353 
z
M 4250 4750 
L 4750 4750 
L 1831 -91 
L 1331 -91 
L 4250 4750 
z
M 1428 4750 
Q 1922 4750 2215 4408 
Q 2509 4066 2509 3481 
Q 2509 2891 2217 2550 
Q 1925 2209 1428 2209 
Q 931 2209 642 2551 
Q 353 2894 353 3481 
Q 353 4063 643 4406 
Q 934 4750 1428 4750 
z
" transform="scale(0.015625)"/>
       </defs>
       <use xlink:href="#DejaVuSans-30"/>
       <use xlink:href="#DejaVuSans-25" transform="translate(63.623047 0)"/>
      </g>
     </g>
    </g>
    <g id="ytick_2">
     <g id="line2d_37">
      <path d="M 56.467188 43.989237 
L 561.347187 43.989237 
" clip-path="url(#p87e5e52212)" style="fill: none; stroke-dasharray: 2.96,1.28; stroke-dashoffset: 0; stroke: #000000; stroke-opacity: 0.1; stroke-width: 0.8"/>
     </g>
     <g id="line2d_38">
      <g>
       <use xlink:href="#m9b21579896" x="56.467188" y="43.989237" style="stroke: #000000; stroke-width: 0.8"/>
      </g>
     </g>
     <g id="text_2">
      <!-- 50% -->
      <g transform="translate(27.240625 47.788455) scale(0.1 -0.1)">
       <defs>
        <path id="DejaVuSans-35" d="M 691 4666 
L 3169 4666 
L 3169 4134 
L 1269 4134 
L 1269 2991 
Q 1406 3038 1543 3061 
Q 1681 3084 1819 3084 
Q 2600 3084 3056 2656 
Q 3513 2228 3513 1497 
Q 3513 744 3044 326 
Q 2575 -91 1722 -91 
Q 1428 -91 1123 -41 
Q 819 9 494 109 
L 494 744 
Q 775 591 1075 516 
Q 1375 441 1709 441 
Q 2250 441 2565 725 
Q 2881 1009 2881 1497 
Q 2881 1984 2565 2268 
Q 2250 2553 1709 2553 
Q 1456 2553 1204 2497 
Q 953 2441 691 2322 
L 691 4666 
z
" transform="scale(0.015625)"/>
       </defs>
       <use xlink:href="#DejaVuSans-35"/>
       <use xlink:href="#DejaVuSans-30" transform="translate(63.623047 0)"/>
       <use xlink:href="#DejaVuSans-25" transform="translate(127.246094 0)"/>
      </g>
     </g>
    </g>
    <g id="ytick_3">
     <g id="line2d_39">
      <path d="M 56.467188 10.999219 
L 561.347187 10.999219 
" clip-path="url(#p87e5e52212)" style="fill: none; stroke-dasharray: 2.96,1.28; stroke-dashoffset: 0; stroke: #000000; stroke-opacity: 0.1; stroke-width: 0.8"/>
     </g>
     <g id="line2d_40">
      <g>
       <use xlink:href="#m9b21579896" x="56.467188" y="10.999219" style="stroke: #000000; stroke-width: 0.8"/>
      </g>
     </g>
     <g id="text_3">
      <!-- 100% -->
      <g transform="translate(20.878125 14.798438) scale(0.1 -0.1)">
       <defs>
        <path id="DejaVuSans-31" d="M 794 531 
L 1825 531 
L 1825 4091 
L 703 3866 
L 703 4441 
L 1819 4666 
L 2450 4666 
L 2450 531 
L 3481 531 
L 3481 0 
L 794 0 
L 794 531 
z
" transform="scale(0.015625)"/>
       </defs>
       <use xlink:href="#DejaVuSans-31"/>
       <use xlink:href="#DejaVuSans-30" transform="translate(63.623047 0)"/>
       <use xlink:href="#DejaVuSans-30" transform="translate(127.246094 0)"/>
       <use xlink:href="#DejaVuSans-25" transform="translate(190.869141 0)"/>
      </g>
     </g>
    </g>
    <g id="text_4">
     <!-- State 0 -->
     <g transform="translate(14.798438 61.994705) rotate(-90) scale(0.1 -0.1)">
      <defs>
       <path id="DejaVuSans-53" d="M 3425 4513 
L 3425 3897 
Q 3066 4069 2747 4153 
Q 2428 4238 2131 4238 
Q 1616 4238 1336 4038 
Q 1056 3838 1056 3469 
Q 1056 3159 1242 3001 
Q 1428 2844 1947 2747 
L 2328 2669 
Q 3034 2534 3370 2195 
Q 3706 1856 3706 1288 
Q 3706 609 3251 259 
Q 2797 -91 1919 -91 
Q 1588 -91 1214 -16 
Q 841 59 441 206 
L 441 856 
Q 825 641 1194 531 
Q 1563 422 1919 422 
Q 2459 422 2753 634 
Q 3047 847 3047 1241 
Q 3047 1584 2836 1778 
Q 2625 1972 2144 2069 
L 1759 2144 
Q 1053 2284 737 2584 
Q 422 2884 422 3419 
Q 422 4038 858 4394 
Q 1294 4750 2059 4750 
Q 2388 4750 2728 4690 
Q 3069 4631 3425 4513 
z
" transform="scale(0.015625)"/>
       <path id="DejaVuSans-74" d="M 1172 4494 
L 1172 3500 
L 2356 3500 
L 2356 3053 
L 1172 3053 
L 1172 1153 
Q 1172 725 1289 603 
Q 1406 481 1766 481 
L 2356 481 
L 2356 0 
L 1766 0 
Q 1100 0 847 248 
Q 594 497 594 1153 
L 594 3053 
L 172 3053 
L 172 3500 
L 594 3500 
L 594 4494 
L 1172 4494 
z
" transform="scale(0.015625)"/>
       <path id="DejaVuSans-61" d="M 2194 1759 
Q 1497 1759 1228 1600 
Q 959 1441 959 1056 
Q 959 750 1161 570 
Q 1363 391 1709 391 
Q 2188 391 2477 730 
Q 2766 1069 2766 1631 
L 2766 1759 
L 2194 1759 
z
M 3341 1997 
L 3341 0 
L 2766 0 
L 2766 531 
Q 2569 213 2275 61 
Q 1981 -91 1556 -91 
Q 1019 -91 701 211 
Q 384 513 384 1019 
Q 384 1609 779 1909 
Q 1175 2209 1959 2209 
L 2766 2209 
L 2766 2266 
Q 2766 2663 2505 2880 
Q 2244 3097 1772 3097 
Q 1472 3097 1187 3025 
Q 903 2953 641 2809 
L 641 3341 
Q 956 3463 1253 3523 
Q 1550 3584 1831 3584 
Q 2591 3584 2966 3190 
Q 3341 2797 3341 1997 
z
" transform="scale(0.015625)"/>
       <path id="DejaVuSans-65" d="M 3597 1894 
L 3597 1613 
L 953 1613 
Q 991 1019 1311 708 
Q 1631 397 2203 397 
Q 2534 397 2845 478 
Q 3156 559 3463 722 
L 3463 178 
Q 3153 47 2828 -22 
Q 2503 -91 2169 -91 
Q 1331 -91 842 396 
Q 353 884 353 1716 
Q 353 2575 817 3079 
Q 1281 3584 2069 3584 
Q 2775 3584 3186 3129 
Q 3597 2675 3597 1894 
z
M 3022 2063 
Q 3016 2534 2758 2815 
Q 2500 3097 2075 3097 
Q 1594 3097 1305 2825 
Q 1016 2553 972 2059 
L 3022 2063 
z
" transform="scale(0.015625)"/>
       <path id="DejaVuSans-20" transform="scale(0.015625)"/>
      </defs>
      <use xlink:href="#DejaVuSans-53"/>
      <use xlink:href="#DejaVuSans-74" transform="translate(63.476562 0)"/>
      <use xlink:href="#DejaVuSans-61" transform="translate(102.685547 0)"/>
      <use xlink:href="#DejaVuSans-74" transform="translate(163.964844 0)"/>
      <use xlink:href="#DejaVuSans-65" transform="translate(203.173828 0)"/>
      <use xlink:href="#DejaVuSans-20" transform="translate(264.697266 0)"/>
      <use xlink:href="#DejaVuSans-30" transform="translate(296.484375 0)"/>
     </g>
    </g>
   </g>
   <g id="line2d_41">
    <path d="M 56.467188 59.279701 
L 57.713805 45.033944 
L 58.960422 50.982606 
L 60.207039 41.761463 
L 61.453657 57.567588 
L 62.700274 28.623883 
L 63.946891 33.355899 
L 65.193508 56.404827 
L 66.440126 27.241024 
L 67.686743 63.625762 
L 68.93336 54.737657 
L 70.179978 60.744546 
L 71.426595 65.830883 
L 72.673212 75.358883 
L 73.919829 15.025832 
L 75.166447 74.031533 
L 76.413064 64.665406 
L 77.659681 73.334756 
L 78.906299 43.508193 
L 80.152916 76.979254 
L 81.399533 54.619674 
L 82.64615 73.115306 
L 83.892768 76.979177 
L 85.139385 28.985764 
L 86.386002 76.979249 
L 88.879237 76.977525 
L 90.125854 32.078913 
L 91.372471 18.383798 
L 92.619089 67.072976 
L 93.865706 69.80415 
L 95.112323 76.757016 
L 96.358941 76.015442 
L 97.605558 34.34542 
L 98.852175 75.02739 
L 100.098792 55.269267 
L 101.34541 70.284898 
L 102.592027 69.267366 
L 103.838644 14.437415 
L 105.085262 72.501056 
L 106.331879 76.979226 
L 107.578496 51.038816 
L 108.825113 17.484725 
L 110.071731 56.075385 
L 111.318348 62.126593 
L 112.564965 53.267969 
L 113.811583 70.76851 
L 115.0582 76.979254 
L 116.304817 31.405525 
L 117.551434 28.88511 
L 118.798052 52.280311 
L 120.044669 41.769961 
L 121.291286 29.155315 
L 122.537904 73.128625 
L 123.784521 76.97915 
L 125.031138 25.44641 
L 126.277755 76.9623 
L 127.524373 71.698554 
L 128.77099 76.979248 
L 130.017607 62.387444 
L 131.264225 73.106614 
L 132.510842 76.467248 
L 133.757459 74.483308 
L 135.004076 75.905352 
L 136.250694 27.951596 
L 137.497311 74.859311 
L 138.743928 76.979252 
L 139.990546 76.267722 
L 141.237163 24.203479 
L 142.48378 76.794978 
L 143.730397 76.951028 
L 144.977015 70.651588 
L 146.223632 19.170538 
L 147.470249 69.261723 
L 148.716867 27.28751 
L 149.963484 36.19281 
L 151.210101 67.458264 
L 152.456718 56.84146 
L 153.703336 76.569175 
L 154.949953 76.979254 
L 156.19657 76.539261 
L 157.443187 45.257101 
L 158.689805 76.369382 
L 159.936422 41.277884 
L 161.183039 37.898729 
L 162.429657 76.974783 
L 163.676274 76.947857 
L 164.922891 17.998162 
L 166.169508 52.514095 
L 167.416126 30.388368 
L 168.662743 56.716364 
L 169.90936 47.969707 
L 171.155978 76.977677 
L 172.402595 46.20676 
L 173.649212 33.44777 
L 174.895829 17.730297 
L 176.142447 71.300651 
L 177.389064 74.448609 
L 178.635681 76.964026 
L 179.882299 60.36014 
L 181.128916 71.851988 
L 182.375533 27.082147 
L 183.62215 68.220166 
L 184.868768 76.9659 
L 186.115385 74.782175 
L 187.362002 57.811846 
L 188.60862 76.713136 
L 189.855237 41.334241 
L 191.101854 53.45498 
L 192.348471 75.364791 
L 193.595089 73.057006 
L 194.841706 22.813286 
L 196.088323 40.750962 
L 197.334941 60.66416 
L 198.581558 73.943237 
L 199.828175 59.710161 
L 201.074792 76.978783 
L 202.32141 76.97764 
L 203.568027 67.404443 
L 204.814644 40.237656 
L 206.061262 40.758107 
L 207.307879 27.412967 
L 208.554496 42.283202 
L 209.801113 61.315665 
L 211.047731 54.353943 
L 212.294348 73.026143 
L 213.540965 74.065605 
L 214.787583 68.145381 
L 216.0342 76.807239 
L 217.280817 44.368223 
L 218.527434 26.728929 
L 219.774052 73.550929 
L 221.020669 40.423719 
L 222.267286 76.918295 
L 223.513904 76.869558 
L 224.760521 50.317692 
L 226.007138 72.430674 
L 227.253755 33.993473 
L 228.500373 76.943771 
L 229.74699 15.577342 
L 230.993607 35.875795 
L 232.240225 20.547464 
L 233.486842 19.698522 
L 234.733459 16.703816 
L 235.980076 52.088192 
L 237.226694 68.354929 
L 238.473311 32.203919 
L 239.719928 35.904778 
L 240.966546 27.868331 
L 242.213163 56.563206 
L 243.45978 71.711258 
L 244.706397 28.208711 
L 245.953015 73.187677 
L 247.199632 25.720345 
L 248.446249 48.587975 
L 249.692867 75.54643 
L 250.939484 74.667231 
L 252.186101 17.121178 
L 253.432718 65.176902 
L 254.679336 65.264151 
L 255.925953 74.487171 
L 257.17257 22.26807 
L 258.419187 15.680066 
L 259.665805 76.803176 
L 260.912422 74.693156 
L 262.159039 76.873769 
L 263.405657 21.322913 
L 264.652274 24.012471 
L 265.898891 27.043833 
L 267.145508 70.966908 
L 268.392126 38.699484 
L 269.638743 55.756835 
L 270.88536 70.689245 
L 272.131978 51.833501 
L 273.378595 23.6848 
L 274.625212 71.884072 
L 275.871829 75.588747 
L 277.118447 42.784079 
L 278.365064 18.627659 
L 279.611681 71.919689 
L 280.858299 27.968863 
L 282.104916 63.900816 
L 283.351533 29.887561 
L 284.59815 42.723646 
L 285.844768 22.339536 
L 287.091385 64.247346 
L 288.338002 73.232985 
L 289.58462 40.381131 
L 290.831237 36.203027 
L 292.077854 20.307994 
L 293.324471 76.912444 
L 294.571089 42.975161 
L 295.817706 76.950238 
L 297.064323 71.851683 
L 298.310941 62.474155 
L 299.557558 21.543494 
L 300.804175 26.411478 
L 302.050792 76.977754 
L 303.29741 76.946119 
L 304.544027 73.088206 
L 305.790644 76.977155 
L 308.283879 76.979254 
L 309.530496 73.947337 
L 310.777113 76.979156 
L 312.023731 76.444951 
L 313.270348 56.334015 
L 314.516965 22.321181 
L 315.763583 27.937231 
L 317.0102 46.729169 
L 318.256817 23.853684 
L 319.503434 36.210896 
L 320.750052 19.414134 
L 321.996669 36.994437 
L 323.243286 16.925009 
L 324.489904 31.194967 
L 325.736521 61.440648 
L 326.983138 22.027077 
L 328.229755 25.425344 
L 329.476373 18.464929 
L 330.72299 76.623159 
L 331.969607 52.095303 
L 333.216225 36.544909 
L 334.462842 61.403053 
L 335.709459 15.253402 
L 336.956076 21.264152 
L 338.202694 31.663168 
L 339.449311 17.243696 
L 340.695928 24.039874 
L 341.942546 15.354036 
L 343.189163 28.519405 
L 344.43578 15.550664 
L 345.682397 62.994591 
L 346.929015 73.964989 
L 348.175632 32.889107 
L 349.422249 75.579345 
L 350.668867 76.979088 
L 351.915484 23.118873 
L 353.162101 32.929973 
L 354.408718 56.942008 
L 355.655336 14.56745 
L 356.901953 26.187183 
L 358.14857 45.972181 
L 359.395187 42.795351 
L 360.641805 76.891952 
L 361.888422 22.465751 
L 363.135039 51.045048 
L 364.381657 18.919646 
L 365.628274 29.192561 
L 366.874891 62.796807 
L 368.121508 36.728701 
L 369.368126 45.203213 
L 370.614743 18.219981 
L 371.86136 61.406459 
L 373.107978 23.929466 
L 374.354595 74.428201 
L 375.601212 33.832974 
L 376.847829 40.419801 
L 378.094447 15.840702 
L 379.341064 56.165761 
L 380.587681 56.711227 
L 381.834299 49.335074 
L 383.080916 24.735966 
L 384.327533 27.336716 
L 385.57415 72.434349 
L 386.820768 18.308681 
L 388.067385 44.317197 
L 389.314002 33.798228 
L 390.56062 66.194192 
L 391.807237 15.075512 
L 393.053854 75.961289 
L 394.300471 74.688376 
L 395.547089 76.751246 
L 396.793706 74.991938 
L 398.040323 76.896538 
L 400.533558 76.929573 
L 401.780175 19.441006 
L 403.026792 69.286231 
L 404.27341 46.081446 
L 405.520027 37.575082 
L 406.766644 73.288767 
L 408.013262 76.684647 
L 409.259879 76.9002 
L 410.506496 65.491756 
L 411.753113 35.16554 
L 412.999731 66.550068 
L 414.246348 74.115952 
L 415.492965 71.675232 
L 416.739583 33.760078 
L 419.232817 33.849863 
L 420.479434 48.408995 
L 421.726052 60.603871 
L 422.972669 68.308455 
L 424.219286 40.411045 
L 425.465904 38.811871 
L 426.712521 72.902835 
L 427.959138 24.834887 
L 429.205755 39.278543 
L 430.452373 18.315888 
L 431.69899 22.459717 
L 432.945607 61.270102 
L 434.192225 34.445416 
L 435.438842 37.322029 
L 436.685459 49.575948 
L 437.932076 19.999121 
L 439.178694 22.316965 
L 440.425311 23.207779 
L 441.671928 41.74161 
L 442.918546 37.696119 
L 444.165163 26.754334 
L 445.41178 45.663708 
L 446.658397 76.963217 
L 447.905015 62.090587 
L 449.151632 38.240637 
L 450.398249 62.49053 
L 451.644867 49.527496 
L 452.891484 58.092266 
L 454.138101 63.427904 
L 455.384718 39.103696 
L 456.631336 76.979254 
L 459.12457 76.97852 
L 460.371187 26.640336 
L 461.617805 26.582472 
L 462.864422 76.015021 
L 464.111039 23.101642 
L 465.357657 76.50877 
L 466.604274 26.781925 
L 467.850891 28.003053 
L 469.097508 76.494185 
L 470.344126 29.993074 
L 471.590743 18.438924 
L 472.83736 37.173565 
L 474.083978 18.840436 
L 475.330595 75.075125 
L 476.577212 76.896684 
L 477.823829 76.979254 
L 479.070447 40.202937 
L 480.317064 20.102073 
L 481.563681 17.618877 
L 482.810299 21.988443 
L 484.056916 18.713987 
L 485.303533 58.019623 
L 487.796768 75.660447 
L 489.043385 16.375669 
L 490.290002 45.426334 
L 491.53662 18.19403 
L 492.783237 35.699785 
L 494.029854 28.565976 
L 495.276471 20.172965 
L 496.523089 74.502339 
L 497.769706 29.716088 
L 499.016323 36.132406 
L 500.262941 72.417699 
L 501.509558 54.935789 
L 502.756175 71.838404 
L 504.002792 15.848987 
L 505.24941 75.766063 
L 507.742644 22.426227 
L 508.989262 76.978926 
L 510.235879 40.089326 
L 511.482496 76.858878 
L 512.729113 69.804265 
L 513.975731 72.776745 
L 515.222348 76.979027 
L 516.468965 15.648724 
L 517.715583 28.294683 
L 518.9622 69.773621 
L 520.208817 27.801076 
L 521.455434 64.824258 
L 522.702052 17.416612 
L 523.948669 33.361446 
L 525.195286 72.714321 
L 526.441904 45.111405 
L 527.688521 40.386637 
L 528.935138 54.397477 
L 530.181755 73.568903 
L 531.428373 76.818299 
L 532.67499 76.406988 
L 533.921607 54.295847 
L 535.168225 36.008367 
L 536.414842 22.945349 
L 537.661459 18.171661 
L 538.908076 74.35471 
L 540.154694 32.859384 
L 541.401311 36.284649 
L 542.647928 24.023439 
L 543.894546 28.749236 
L 545.141163 16.190507 
L 546.38778 60.48785 
L 547.634397 65.867518 
L 548.881015 70.389098 
L 550.127632 15.889599 
L 551.374249 36.641094 
L 552.620867 76.882239 
L 553.867484 76.97892 
L 555.114101 17.689394 
L 556.360718 59.513383 
L 557.607336 31.476631 
L 558.853953 16.849156 
L 560.10057 24.618699 
L 561.347187 18.169717 
L 561.347187 18.169717 
" clip-path="url(#p87e5e52212)" style="fill: none; stroke: #1f77b4; stroke-width: 1.5; stroke-linecap: square"/>
   </g>
   <g id="patch_3">
    <path d="M 56.467188 80.278256 
L 56.467188 7.700217 
" style="fill: none; stroke: #000000; stroke-width: 0.8; stroke-linejoin: miter; stroke-linecap: square"/>
   </g>
   <g id="patch_4">
    <path d="M 561.347187 80.278256 
L 561.347187 7.700217 
" style="fill: none"/>
   </g>
   <g id="patch_5">
    <path d="M 56.467188 80.278256 
L 561.347187 80.278256 
" style="fill: none"/>
   </g>
   <g id="patch_6">
    <path d="M 56.467188 7.700217 
L 561.347187 7.700217 
" style="fill: none"/>
   </g>
  </g>
  <g id="axes_2">
   <g id="patch_7">
    <path d="M 56.467188 168.15159 
L 561.347187 168.15159 
L 561.347187 95.57355 
L 56.467188 95.57355 
L 56.467188 168.15159 
z
" style="fill: none"/>
   </g>
   <g id="matplotlib.axis_3">
    <g id="xtick_35">
     <g id="line2d_42">
      <g>
       <use xlink:href="#ma25eb017b8" x="86.386002" y="168.15159" style="stroke: #000000; stroke-width: 0.8"/>
      </g>
     </g>
    </g>
    <g id="xtick_36">
     <g id="line2d_43">
      <g>
       <use xlink:href="#ma25eb017b8" x="161.183039" y="168.15159" style="stroke: #000000; stroke-width: 0.8"/>
      </g>
     </g>
    </g>
    <g id="xtick_37">
     <g id="line2d_44">
      <g>
       <use xlink:href="#ma25eb017b8" x="235.980076" y="168.15159" style="stroke: #000000; stroke-width: 0.8"/>
      </g>
     </g>
    </g>
    <g id="xtick_38">
     <g id="line2d_45">
      <g>
       <use xlink:href="#ma25eb017b8" x="310.777113" y="168.15159" style="stroke: #000000; stroke-width: 0.8"/>
      </g>
     </g>
    </g>
    <g id="xtick_39">
     <g id="line2d_46">
      <g>
       <use xlink:href="#ma25eb017b8" x="385.57415" y="168.15159" style="stroke: #000000; stroke-width: 0.8"/>
      </g>
     </g>
    </g>
    <g id="xtick_40">
     <g id="line2d_47">
      <g>
       <use xlink:href="#ma25eb017b8" x="460.371187" y="168.15159" style="stroke: #000000; stroke-width: 0.8"/>
      </g>
     </g>
    </g>
    <g id="xtick_41">
     <g id="line2d_48">
      <g>
       <use xlink:href="#ma25eb017b8" x="535.168225" y="168.15159" style="stroke: #000000; stroke-width: 0.8"/>
      </g>
     </g>
    </g>
    <g id="xtick_42">
     <g id="line2d_49">
      <g>
       <use xlink:href="#mac3132cd5b" x="56.467188" y="168.15159" style="stroke: #000000; stroke-width: 0.6"/>
      </g>
     </g>
    </g>
    <g id="xtick_43">
     <g id="line2d_50">
      <g>
       <use xlink:href="#mac3132cd5b" x="71.426595" y="168.15159" style="stroke: #000000; stroke-width: 0.6"/>
      </g>
     </g>
    </g>
    <g id="xtick_44">
     <g id="line2d_51">
      <g>
       <use xlink:href="#mac3132cd5b" x="101.34541" y="168.15159" style="stroke: #000000; stroke-width: 0.6"/>
      </g>
     </g>
    </g>
    <g id="xtick_45">
     <g id="line2d_52">
      <g>
       <use xlink:href="#mac3132cd5b" x="116.304817" y="168.15159" style="stroke: #000000; stroke-width: 0.6"/>
      </g>
     </g>
    </g>
    <g id="xtick_46">
     <g id="line2d_53">
      <g>
       <use xlink:href="#mac3132cd5b" x="131.264225" y="168.15159" style="stroke: #000000; stroke-width: 0.6"/>
      </g>
     </g>
    </g>
    <g id="xtick_47">
     <g id="line2d_54">
      <g>
       <use xlink:href="#mac3132cd5b" x="146.223632" y="168.15159" style="stroke: #000000; stroke-width: 0.6"/>
      </g>
     </g>
    </g>
    <g id="xtick_48">
     <g id="line2d_55">
      <g>
       <use xlink:href="#mac3132cd5b" x="176.142447" y="168.15159" style="stroke: #000000; stroke-width: 0.6"/>
      </g>
     </g>
    </g>
    <g id="xtick_49">
     <g id="line2d_56">
      <g>
       <use xlink:href="#mac3132cd5b" x="191.101854" y="168.15159" style="stroke: #000000; stroke-width: 0.6"/>
      </g>
     </g>
    </g>
    <g id="xtick_50">
     <g id="line2d_57">
      <g>
       <use xlink:href="#mac3132cd5b" x="206.061262" y="168.15159" style="stroke: #000000; stroke-width: 0.6"/>
      </g>
     </g>
    </g>
    <g id="xtick_51">
     <g id="line2d_58">
      <g>
       <use xlink:href="#mac3132cd5b" x="221.020669" y="168.15159" style="stroke: #000000; stroke-width: 0.6"/>
      </g>
     </g>
    </g>
    <g id="xtick_52">
     <g id="line2d_59">
      <g>
       <use xlink:href="#mac3132cd5b" x="250.939484" y="168.15159" style="stroke: #000000; stroke-width: 0.6"/>
      </g>
     </g>
    </g>
    <g id="xtick_53">
     <g id="line2d_60">
      <g>
       <use xlink:href="#mac3132cd5b" x="265.898891" y="168.15159" style="stroke: #000000; stroke-width: 0.6"/>
      </g>
     </g>
    </g>
    <g id="xtick_54">
     <g id="line2d_61">
      <g>
       <use xlink:href="#mac3132cd5b" x="280.858299" y="168.15159" style="stroke: #000000; stroke-width: 0.6"/>
      </g>
     </g>
    </g>
    <g id="xtick_55">
     <g id="line2d_62">
      <g>
       <use xlink:href="#mac3132cd5b" x="295.817706" y="168.15159" style="stroke: #000000; stroke-width: 0.6"/>
      </g>
     </g>
    </g>
    <g id="xtick_56">
     <g id="line2d_63">
      <g>
       <use xlink:href="#mac3132cd5b" x="325.736521" y="168.15159" style="stroke: #000000; stroke-width: 0.6"/>
      </g>
     </g>
    </g>
    <g id="xtick_57">
     <g id="line2d_64">
      <g>
       <use xlink:href="#mac3132cd5b" x="340.695928" y="168.15159" style="stroke: #000000; stroke-width: 0.6"/>
      </g>
     </g>
    </g>
    <g id="xtick_58">
     <g id="line2d_65">
      <g>
       <use xlink:href="#mac3132cd5b" x="355.655336" y="168.15159" style="stroke: #000000; stroke-width: 0.6"/>
      </g>
     </g>
    </g>
    <g id="xtick_59">
     <g id="line2d_66">
      <g>
       <use xlink:href="#mac3132cd5b" x="370.614743" y="168.15159" style="stroke: #000000; stroke-width: 0.6"/>
      </g>
     </g>
    </g>
    <g id="xtick_60">
     <g id="line2d_67">
      <g>
       <use xlink:href="#mac3132cd5b" x="400.533558" y="168.15159" style="stroke: #000000; stroke-width: 0.6"/>
      </g>
     </g>
    </g>
    <g id="xtick_61">
     <g id="line2d_68">
      <g>
       <use xlink:href="#mac3132cd5b" x="415.492965" y="168.15159" style="stroke: #000000; stroke-width: 0.6"/>
      </g>
     </g>
    </g>
    <g id="xtick_62">
     <g id="line2d_69">
      <g>
       <use xlink:href="#mac3132cd5b" x="430.452373" y="168.15159" style="stroke: #000000; stroke-width: 0.6"/>
      </g>
     </g>
    </g>
    <g id="xtick_63">
     <g id="line2d_70">
      <g>
       <use xlink:href="#mac3132cd5b" x="445.41178" y="168.15159" style="stroke: #000000; stroke-width: 0.6"/>
      </g>
     </g>
    </g>
    <g id="xtick_64">
     <g id="line2d_71">
      <g>
       <use xlink:href="#mac3132cd5b" x="475.330595" y="168.15159" style="stroke: #000000; stroke-width: 0.6"/>
      </g>
     </g>
    </g>
    <g id="xtick_65">
     <g id="line2d_72">
      <g>
       <use xlink:href="#mac3132cd5b" x="490.290002" y="168.15159" style="stroke: #000000; stroke-width: 0.6"/>
      </g>
     </g>
    </g>
    <g id="xtick_66">
     <g id="line2d_73">
      <g>
       <use xlink:href="#mac3132cd5b" x="505.24941" y="168.15159" style="stroke: #000000; stroke-width: 0.6"/>
      </g>
     </g>
    </g>
    <g id="xtick_67">
     <g id="line2d_74">
      <g>
       <use xlink:href="#mac3132cd5b" x="520.208817" y="168.15159" style="stroke: #000000; stroke-width: 0.6"/>
      </g>
     </g>
    </g>
    <g id="xtick_68">
     <g id="line2d_75">
      <g>
       <use xlink:href="#mac3132cd5b" x="550.127632" y="168.15159" style="stroke: #000000; stroke-width: 0.6"/>
      </g>
     </g>
    </g>
   </g>
   <g id="matplotlib.axis_4">
    <g id="ytick_4">
     <g id="line2d_76">
      <path d="M 56.467188 164.852588 
L 561.347187 164.852588 
" clip-path="url(#p281bceb953)" style="fill: none; stroke-dasharray: 2.96,1.28; stroke-dashoffset: 0; stroke: #000000; stroke-opacity: 0.1; stroke-width: 0.8"/>
     </g>
     <g id="line2d_77">
      <g>
       <use xlink:href="#m9b21579896" x="56.467188" y="164.852588" style="stroke: #000000; stroke-width: 0.8"/>
      </g>
     </g>
     <g id="text_5">
      <!-- 0% -->
      <g transform="translate(33.603125 168.651806) scale(0.1 -0.1)">
       <use xlink:href="#DejaVuSans-30"/>
       <use xlink:href="#DejaVuSans-25" transform="translate(63.623047 0)"/>
      </g>
     </g>
    </g>
    <g id="ytick_5">
     <g id="line2d_78">
      <path d="M 56.467188 131.86257 
L 561.347187 131.86257 
" clip-path="url(#p281bceb953)" style="fill: none; stroke-dasharray: 2.96,1.28; stroke-dashoffset: 0; stroke: #000000; stroke-opacity: 0.1; stroke-width: 0.8"/>
     </g>
     <g id="line2d_79">
      <g>
       <use xlink:href="#m9b21579896" x="56.467188" y="131.86257" style="stroke: #000000; stroke-width: 0.8"/>
      </g>
     </g>
     <g id="text_6">
      <!-- 50% -->
      <g transform="translate(27.240625 135.661789) scale(0.1 -0.1)">
       <use xlink:href="#DejaVuSans-35"/>
       <use xlink:href="#DejaVuSans-30" transform="translate(63.623047 0)"/>
       <use xlink:href="#DejaVuSans-25" transform="translate(127.246094 0)"/>
      </g>
     </g>
    </g>
    <g id="ytick_6">
     <g id="line2d_80">
      <path d="M 56.467188 98.872552 
L 561.347187 98.872552 
" clip-path="url(#p281bceb953)" style="fill: none; stroke-dasharray: 2.96,1.28; stroke-dashoffset: 0; stroke: #000000; stroke-opacity: 0.1; stroke-width: 0.8"/>
     </g>
     <g id="line2d_81">
      <g>
       <use xlink:href="#m9b21579896" x="56.467188" y="98.872552" style="stroke: #000000; stroke-width: 0.8"/>
      </g>
     </g>
     <g id="text_7">
      <!-- 100% -->
      <g transform="translate(20.878125 102.671771) scale(0.1 -0.1)">
       <use xlink:href="#DejaVuSans-31"/>
       <use xlink:href="#DejaVuSans-30" transform="translate(63.623047 0)"/>
       <use xlink:href="#DejaVuSans-30" transform="translate(127.246094 0)"/>
       <use xlink:href="#DejaVuSans-25" transform="translate(190.869141 0)"/>
      </g>
     </g>
    </g>
    <g id="text_8">
     <!-- State 1 -->
     <g transform="translate(14.798438 149.868039) rotate(-90) scale(0.1 -0.1)">
      <use xlink:href="#DejaVuSans-53"/>
      <use xlink:href="#DejaVuSans-74" transform="translate(63.476562 0)"/>
      <use xlink:href="#DejaVuSans-61" transform="translate(102.685547 0)"/>
      <use xlink:href="#DejaVuSans-74" transform="translate(163.964844 0)"/>
      <use xlink:href="#DejaVuSans-65" transform="translate(203.173828 0)"/>
      <use xlink:href="#DejaVuSans-20" transform="translate(264.697266 0)"/>
      <use xlink:href="#DejaVuSans-31" transform="translate(296.484375 0)"/>
     </g>
    </g>
   </g>
   <g id="line2d_82">
    <path d="M 56.467188 127.9487 
L 57.713805 133.672143 
L 58.960422 129.376728 
L 60.207039 136.962816 
L 61.453657 132.833559 
L 62.700274 158.69296 
L 63.946891 164.83433 
L 65.193508 137.940451 
L 66.440126 152.138849 
L 67.686743 119.523049 
L 68.93336 124.221635 
L 70.179978 125.079574 
L 71.426595 121.517032 
L 72.673212 131.253197 
L 73.919829 164.150589 
L 75.166447 164.831184 
L 76.413064 164.733096 
L 77.659681 154.587828 
L 78.906299 164.852201 
L 80.152916 163.397405 
L 81.399533 129.379681 
L 82.64615 120.326827 
L 83.892768 113.670242 
L 85.139385 160.76415 
L 86.386002 103.954417 
L 87.63262 114.560138 
L 88.879237 142.533578 
L 90.125854 146.509983 
L 91.372471 160.169735 
L 92.619089 117.70484 
L 93.865706 114.204138 
L 95.112323 107.169306 
L 96.358941 121.935495 
L 97.605558 144.16754 
L 98.852175 139.595096 
L 101.34541 111.154177 
L 102.592027 113.524561 
L 103.838644 164.596331 
L 105.085262 107.883343 
L 106.331879 161.884214 
L 107.578496 128.015738 
L 108.825113 160.525621 
L 110.071731 127.271533 
L 111.318348 118.761888 
L 112.564965 132.40548 
L 113.811583 119.672646 
L 115.0582 104.003762 
L 116.304817 164.852236 
L 117.551434 157.634108 
L 118.798052 128.01199 
L 120.044669 137.858129 
L 121.291286 149.329196 
L 122.537904 119.356655 
L 123.784521 164.824516 
L 125.031138 152.218281 
L 126.277755 109.977645 
L 127.524373 113.587796 
L 128.77099 109.125304 
L 130.017607 120.278806 
L 131.264225 164.827499 
L 132.510842 164.656146 
L 133.757459 111.842586 
L 135.004076 107.446014 
L 136.250694 152.19656 
L 137.497311 107.117595 
L 138.743928 112.07694 
L 139.990546 111.417573 
L 141.237163 159.696594 
L 142.48378 163.827972 
L 143.730397 105.553083 
L 144.977015 111.438058 
L 146.223632 164.584583 
L 147.470249 116.226908 
L 148.716867 151.152959 
L 149.963484 145.165188 
L 151.210101 134.240403 
L 152.456718 128.071186 
L 153.703336 106.711213 
L 154.949953 164.852588 
L 156.19657 164.837714 
L 157.443187 138.707351 
L 158.689805 105.914251 
L 159.936422 137.067437 
L 161.183039 140.352487 
L 162.429657 132.328524 
L 163.676274 104.242146 
L 164.922891 160.072103 
L 166.169508 144.945002 
L 167.416126 148.87284 
L 168.662743 124.111098 
L 169.90936 131.412683 
L 171.155978 164.852588 
L 172.402595 134.10134 
L 173.649212 144.336966 
L 174.895829 160.176235 
L 176.142447 132.522738 
L 177.389064 162.644743 
L 178.635681 105.150941 
L 179.882299 120.981447 
L 181.128916 110.502476 
L 182.375533 163.660041 
L 183.62215 124.107002 
L 184.868768 105.41952 
L 186.115385 110.473693 
L 187.362002 126.278805 
L 188.60862 164.642266 
L 189.855237 147.234571 
L 191.101854 125.928306 
L 192.348471 164.270618 
L 193.595089 117.152674 
L 194.841706 164.280358 
L 196.088323 139.4858 
L 197.334941 145.229871 
L 198.581558 146.857996 
L 199.828175 164.415757 
L 201.074792 164.851512 
L 202.32141 162.94905 
L 203.568027 160.020934 
L 204.814644 142.865245 
L 206.061262 144.570091 
L 207.307879 164.477892 
L 208.554496 155.099784 
L 209.801113 163.597596 
L 211.047731 164.519938 
L 212.294348 145.713837 
L 213.540965 158.417458 
L 214.787583 160.619915 
L 216.0342 164.844645 
L 217.280817 149.099726 
L 218.527434 151.241582 
L 219.774052 164.852572 
L 221.020669 162.718639 
L 222.267286 115.173772 
L 223.513904 105.636565 
L 224.760521 130.568704 
L 226.007138 164.710448 
L 227.253755 145.141125 
L 228.500373 163.688066 
L 229.74699 164.167195 
L 230.993607 159.618656 
L 232.240225 157.280192 
L 233.486842 159.764109 
L 234.733459 163.07622 
L 235.980076 127.530901 
L 237.226694 112.606037 
L 238.473311 164.809227 
L 239.719928 163.071636 
L 240.966546 150.693055 
L 242.213163 123.652376 
L 243.45978 122.72957 
L 244.706397 163.325334 
L 245.953015 113.88058 
L 247.199632 154.028244 
L 248.446249 160.819884 
L 249.692867 104.699305 
L 250.939484 137.457876 
L 252.186101 161.468622 
L 253.432718 117.029452 
L 254.679336 158.964658 
L 255.925953 108.853986 
L 257.17257 163.633096 
L 258.419187 162.896944 
L 259.665805 127.301708 
L 260.912422 164.799446 
L 262.159039 109.967482 
L 263.405657 164.222987 
L 264.652274 163.810178 
L 265.898891 164.850553 
L 267.145508 110.860242 
L 268.392126 158.909197 
L 269.638743 164.851077 
L 270.88536 124.344264 
L 272.131978 129.075726 
L 273.378595 157.635744 
L 274.625212 109.752832 
L 275.871829 105.063955 
L 277.118447 137.260754 
L 278.365064 164.216554 
L 279.611681 113.674876 
L 280.858299 152.463428 
L 282.104916 163.268098 
L 283.351533 148.117016 
L 284.59815 147.14011 
L 285.844768 159.039953 
L 287.091385 118.108112 
L 288.338002 164.401085 
L 289.58462 140.818702 
L 290.831237 164.852364 
L 292.077854 164.198107 
L 293.324471 164.83931 
L 294.571089 163.24997 
L 295.817706 164.852575 
L 297.064323 147.916448 
L 298.310941 133.425726 
L 299.557558 162.474313 
L 300.804175 155.355488 
L 302.050792 164.834501 
L 303.29741 106.360461 
L 305.790644 164.83018 
L 308.283879 164.852588 
L 309.530496 164.733425 
L 310.777113 134.263439 
L 312.023731 142.818858 
L 313.270348 123.108936 
L 314.516965 157.724575 
L 315.763583 162.20342 
L 317.0102 132.574022 
L 318.256817 154.237144 
L 319.503434 142.207286 
L 320.750052 160.613601 
L 321.996669 145.190442 
L 323.243286 164.839431 
L 324.489904 149.736233 
L 325.736521 128.91499 
L 326.983138 156.039251 
L 328.229755 152.427203 
L 329.476373 162.190075 
L 330.72299 164.011338 
L 331.969607 162.09797 
L 333.216225 143.16643 
L 334.462842 164.735417 
L 335.709459 163.36775 
L 336.956076 159.452052 
L 338.202694 148.379096 
L 339.449311 161.457659 
L 340.695928 155.117592 
L 341.942546 163.401163 
L 343.189163 151.255238 
L 344.43578 164.745944 
L 345.682397 126.858331 
L 346.929015 108.797841 
L 348.175632 164.825366 
L 350.668867 164.852298 
L 351.915484 163.959329 
L 353.162101 146.950869 
L 354.408718 133.020056 
L 355.655336 164.503374 
L 356.901953 151.659087 
L 358.14857 134.622069 
L 359.395187 141.766515 
L 360.641805 164.127446 
L 361.888422 155.644048 
L 363.135039 131.032775 
L 364.381657 159.85192 
L 365.628274 155.48599 
L 366.874891 119.141053 
L 368.121508 141.942977 
L 369.368126 133.85797 
L 370.614743 160.01993 
L 371.86136 119.918073 
L 373.107978 153.851233 
L 374.354595 126.902933 
L 375.601212 158.447729 
L 376.847829 162.680934 
L 378.094447 164.458534 
L 379.341064 153.784861 
L 380.587681 122.734836 
L 381.834299 130.245837 
L 383.080916 154.183616 
L 384.327533 150.472835 
L 385.57415 164.756667 
L 386.820768 163.070682 
L 388.067385 134.445348 
L 389.314002 146.046139 
L 390.56062 114.532104 
L 391.807237 163.796368 
L 393.053854 111.048595 
L 394.300471 110.481517 
L 395.547089 112.61012 
L 396.793706 106.019782 
L 398.040323 105.823053 
L 399.286941 139.37165 
L 400.533558 164.852588 
L 401.780175 164.697159 
L 403.026792 118.199491 
L 404.27341 134.621845 
L 405.520027 142.073512 
L 406.766644 110.417027 
L 408.013262 117.823972 
L 409.259879 162.742698 
L 410.506496 130.088053 
L 411.753113 156.622232 
L 412.999731 127.765366 
L 414.246348 112.514387 
L 415.492965 164.842539 
L 416.739583 164.85128 
L 417.9862 145.930459 
L 419.232817 152.080007 
L 420.479434 132.034526 
L 421.726052 164.842152 
L 422.972669 117.175869 
L 424.219286 137.943224 
L 425.465904 140.583096 
L 426.712521 112.315148 
L 427.959138 164.805208 
L 429.205755 138.844948 
L 430.452373 161.779363 
L 431.69899 157.101013 
L 432.945607 120.348124 
L 434.192225 145.872261 
L 435.438842 141.879631 
L 436.685459 129.91521 
L 437.932076 158.111642 
L 439.178694 163.31799 
L 440.425311 154.679039 
L 441.671928 137.251514 
L 442.918546 141.943735 
L 444.165163 156.201651 
L 445.41178 164.798837 
L 446.658397 113.41725 
L 447.905015 156.167363 
L 449.151632 140.675544 
L 450.398249 117.30708 
L 451.644867 133.852398 
L 452.891484 127.769884 
L 454.138101 116.478154 
L 455.384718 141.226224 
L 456.631336 162.16844 
L 457.877953 110.80905 
L 459.12457 164.852588 
L 460.371187 161.633621 
L 461.617805 151.014759 
L 462.864422 132.056294 
L 464.111039 154.512818 
L 465.357657 164.845418 
L 466.604274 164.852584 
L 467.850891 150.844264 
L 469.097508 164.852586 
L 470.344126 148.500629 
L 471.590743 160.658239 
L 472.83736 141.356225 
L 474.083978 162.204443 
L 475.330595 164.340004 
L 476.577212 164.745476 
L 477.823829 164.852279 
L 479.070447 164.673075 
L 480.317064 160.328573 
L 481.563681 162.045787 
L 482.810299 164.852569 
L 484.056916 160.681644 
L 485.303533 128.058172 
L 486.55015 115.811795 
L 487.796768 117.942615 
L 489.043385 164.414866 
L 490.290002 134.223356 
L 491.53662 162.334339 
L 492.783237 147.279109 
L 494.029854 152.584522 
L 495.276471 164.627439 
L 496.523089 118.799871 
L 497.769706 151.625038 
L 499.016323 142.253534 
L 500.262941 111.362846 
L 501.509558 127.851227 
L 502.756175 118.697378 
L 504.002792 162.428344 
L 505.24941 107.085123 
L 506.496027 163.167352 
L 507.742644 160.569605 
L 508.989262 119.811009 
L 510.235879 138.728485 
L 511.482496 127.646529 
L 512.729113 110.983048 
L 513.975731 111.89708 
L 515.222348 118.105698 
L 516.468965 163.066771 
L 517.715583 164.852452 
L 518.9622 135.73566 
L 520.208817 164.022983 
L 521.455434 121.805785 
L 522.702052 164.769997 
L 523.948669 145.518829 
L 525.195286 109.117795 
L 526.441904 133.857993 
L 527.688521 143.435588 
L 528.935138 125.868509 
L 530.181755 121.992874 
L 531.428373 164.005619 
L 532.67499 126.250029 
L 533.921607 135.375524 
L 535.168225 141.993477 
L 536.414842 154.853544 
L 537.661459 164.846904 
L 538.908076 128.924205 
L 540.154694 146.623301 
L 541.401311 141.968306 
L 542.647928 164.100062 
L 543.894546 151.728506 
L 545.141163 164.370927 
L 546.38778 156.090148 
L 547.634397 116.015278 
L 548.881015 113.371541 
L 550.127632 164.785154 
L 551.374249 159.057866 
L 552.620867 164.852091 
L 553.867484 156.310314 
L 555.114101 160.79428 
L 556.360718 121.645529 
L 557.607336 146.353232 
L 558.853953 163.885601 
L 560.10057 164.852584 
L 561.347187 160.41045 
L 561.347187 160.41045 
" clip-path="url(#p281bceb953)" style="fill: none; stroke: #ff7f0e; stroke-width: 1.5; stroke-linecap: square"/>
   </g>
   <g id="patch_8">
    <path d="M 56.467188 168.15159 
L 56.467188 95.57355 
" style="fill: none; stroke: #000000; stroke-width: 0.8; stroke-linejoin: miter; stroke-linecap: square"/>
   </g>
   <g id="patch_9">
    <path d="M 561.347187 168.15159 
L 561.347187 95.57355 
" style="fill: none"/>
   </g>
   <g id="patch_10">
    <path d="M 56.467188 168.15159 
L 561.347187 168.15159 
" style="fill: none"/>
   </g>
   <g id="patch_11">
    <path d="M 56.467188 95.57355 
L 561.347187 95.57355 
" style="fill: none"/>
   </g>
  </g>
  <g id="axes_3">
   <g id="patch_12">
    <path d="M 56.467188 256.024923 
L 561.347187 256.024923 
L 561.347187 183.446884 
L 56.467188 183.446884 
L 56.467188 256.024923 
z
" style="fill: none"/>
   </g>
   <g id="matplotlib.axis_5">
    <g id="xtick_69">
     <g id="line2d_83">
      <g>
       <use xlink:href="#ma25eb017b8" x="86.386002" y="256.024923" style="stroke: #000000; stroke-width: 0.8"/>
      </g>
     </g>
     <g id="text_9">
      <!-- 1994 -->
      <g transform="translate(73.661002 270.62336) scale(0.1 -0.1)">
       <defs>
        <path id="DejaVuSans-39" d="M 703 97 
L 703 672 
Q 941 559 1184 500 
Q 1428 441 1663 441 
Q 2288 441 2617 861 
Q 2947 1281 2994 2138 
Q 2813 1869 2534 1725 
Q 2256 1581 1919 1581 
Q 1219 1581 811 2004 
Q 403 2428 403 3163 
Q 403 3881 828 4315 
Q 1253 4750 1959 4750 
Q 2769 4750 3195 4129 
Q 3622 3509 3622 2328 
Q 3622 1225 3098 567 
Q 2575 -91 1691 -91 
Q 1453 -91 1209 -44 
Q 966 3 703 97 
z
M 1959 2075 
Q 2384 2075 2632 2365 
Q 2881 2656 2881 3163 
Q 2881 3666 2632 3958 
Q 2384 4250 1959 4250 
Q 1534 4250 1286 3958 
Q 1038 3666 1038 3163 
Q 1038 2656 1286 2365 
Q 1534 2075 1959 2075 
z
" transform="scale(0.015625)"/>
        <path id="DejaVuSans-34" d="M 2419 4116 
L 825 1625 
L 2419 1625 
L 2419 4116 
z
M 2253 4666 
L 3047 4666 
L 3047 1625 
L 3713 1625 
L 3713 1100 
L 3047 1100 
L 3047 0 
L 2419 0 
L 2419 1100 
L 313 1100 
L 313 1709 
L 2253 4666 
z
" transform="scale(0.015625)"/>
       </defs>
       <use xlink:href="#DejaVuSans-31"/>
       <use xlink:href="#DejaVuSans-39" transform="translate(63.623047 0)"/>
       <use xlink:href="#DejaVuSans-39" transform="translate(127.246094 0)"/>
       <use xlink:href="#DejaVuSans-34" transform="translate(190.869141 0)"/>
      </g>
     </g>
    </g>
    <g id="xtick_70">
     <g id="line2d_84">
      <g>
       <use xlink:href="#ma25eb017b8" x="161.183039" y="256.024923" style="stroke: #000000; stroke-width: 0.8"/>
      </g>
     </g>
     <g id="text_10">
      <!-- 1999 -->
      <g transform="translate(148.458039 270.62336) scale(0.1 -0.1)">
       <use xlink:href="#DejaVuSans-31"/>
       <use xlink:href="#DejaVuSans-39" transform="translate(63.623047 0)"/>
       <use xlink:href="#DejaVuSans-39" transform="translate(127.246094 0)"/>
       <use xlink:href="#DejaVuSans-39" transform="translate(190.869141 0)"/>
      </g>
     </g>
    </g>
    <g id="xtick_71">
     <g id="line2d_85">
      <g>
       <use xlink:href="#ma25eb017b8" x="235.980076" y="256.024923" style="stroke: #000000; stroke-width: 0.8"/>
      </g>
     </g>
     <g id="text_11">
      <!-- 2004 -->
      <g transform="translate(223.255076 270.62336) scale(0.1 -0.1)">
       <defs>
        <path id="DejaVuSans-32" d="M 1228 531 
L 3431 531 
L 3431 0 
L 469 0 
L 469 531 
Q 828 903 1448 1529 
Q 2069 2156 2228 2338 
Q 2531 2678 2651 2914 
Q 2772 3150 2772 3378 
Q 2772 3750 2511 3984 
Q 2250 4219 1831 4219 
Q 1534 4219 1204 4116 
Q 875 4013 500 3803 
L 500 4441 
Q 881 4594 1212 4672 
Q 1544 4750 1819 4750 
Q 2544 4750 2975 4387 
Q 3406 4025 3406 3419 
Q 3406 3131 3298 2873 
Q 3191 2616 2906 2266 
Q 2828 2175 2409 1742 
Q 1991 1309 1228 531 
z
" transform="scale(0.015625)"/>
       </defs>
       <use xlink:href="#DejaVuSans-32"/>
       <use xlink:href="#DejaVuSans-30" transform="translate(63.623047 0)"/>
       <use xlink:href="#DejaVuSans-30" transform="translate(127.246094 0)"/>
       <use xlink:href="#DejaVuSans-34" transform="translate(190.869141 0)"/>
      </g>
     </g>
    </g>
    <g id="xtick_72">
     <g id="line2d_86">
      <g>
       <use xlink:href="#ma25eb017b8" x="310.777113" y="256.024923" style="stroke: #000000; stroke-width: 0.8"/>
      </g>
     </g>
     <g id="text_12">
      <!-- 2009 -->
      <g transform="translate(298.052113 270.62336) scale(0.1 -0.1)">
       <use xlink:href="#DejaVuSans-32"/>
       <use xlink:href="#DejaVuSans-30" transform="translate(63.623047 0)"/>
       <use xlink:href="#DejaVuSans-30" transform="translate(127.246094 0)"/>
       <use xlink:href="#DejaVuSans-39" transform="translate(190.869141 0)"/>
      </g>
     </g>
    </g>
    <g id="xtick_73">
     <g id="line2d_87">
      <g>
       <use xlink:href="#ma25eb017b8" x="385.57415" y="256.024923" style="stroke: #000000; stroke-width: 0.8"/>
      </g>
     </g>
     <g id="text_13">
      <!-- 2014 -->
      <g transform="translate(372.84915 270.62336) scale(0.1 -0.1)">
       <use xlink:href="#DejaVuSans-32"/>
       <use xlink:href="#DejaVuSans-30" transform="translate(63.623047 0)"/>
       <use xlink:href="#DejaVuSans-31" transform="translate(127.246094 0)"/>
       <use xlink:href="#DejaVuSans-34" transform="translate(190.869141 0)"/>
      </g>
     </g>
    </g>
    <g id="xtick_74">
     <g id="line2d_88">
      <g>
       <use xlink:href="#ma25eb017b8" x="460.371187" y="256.024923" style="stroke: #000000; stroke-width: 0.8"/>
      </g>
     </g>
     <g id="text_14">
      <!-- 2019 -->
      <g transform="translate(447.646187 270.62336) scale(0.1 -0.1)">
       <use xlink:href="#DejaVuSans-32"/>
       <use xlink:href="#DejaVuSans-30" transform="translate(63.623047 0)"/>
       <use xlink:href="#DejaVuSans-31" transform="translate(127.246094 0)"/>
       <use xlink:href="#DejaVuSans-39" transform="translate(190.869141 0)"/>
      </g>
     </g>
    </g>
    <g id="xtick_75">
     <g id="line2d_89">
      <g>
       <use xlink:href="#ma25eb017b8" x="535.168225" y="256.024923" style="stroke: #000000; stroke-width: 0.8"/>
      </g>
     </g>
     <g id="text_15">
      <!-- 2024 -->
      <g transform="translate(522.443225 270.62336) scale(0.1 -0.1)">
       <use xlink:href="#DejaVuSans-32"/>
       <use xlink:href="#DejaVuSans-30" transform="translate(63.623047 0)"/>
       <use xlink:href="#DejaVuSans-32" transform="translate(127.246094 0)"/>
       <use xlink:href="#DejaVuSans-34" transform="translate(190.869141 0)"/>
      </g>
     </g>
    </g>
    <g id="xtick_76">
     <g id="line2d_90">
      <g>
       <use xlink:href="#mac3132cd5b" x="56.467188" y="256.024923" style="stroke: #000000; stroke-width: 0.6"/>
      </g>
     </g>
    </g>
    <g id="xtick_77">
     <g id="line2d_91">
      <g>
       <use xlink:href="#mac3132cd5b" x="71.426595" y="256.024923" style="stroke: #000000; stroke-width: 0.6"/>
      </g>
     </g>
    </g>
    <g id="xtick_78">
     <g id="line2d_92">
      <g>
       <use xlink:href="#mac3132cd5b" x="101.34541" y="256.024923" style="stroke: #000000; stroke-width: 0.6"/>
      </g>
     </g>
    </g>
    <g id="xtick_79">
     <g id="line2d_93">
      <g>
       <use xlink:href="#mac3132cd5b" x="116.304817" y="256.024923" style="stroke: #000000; stroke-width: 0.6"/>
      </g>
     </g>
    </g>
    <g id="xtick_80">
     <g id="line2d_94">
      <g>
       <use xlink:href="#mac3132cd5b" x="131.264225" y="256.024923" style="stroke: #000000; stroke-width: 0.6"/>
      </g>
     </g>
    </g>
    <g id="xtick_81">
     <g id="line2d_95">
      <g>
       <use xlink:href="#mac3132cd5b" x="146.223632" y="256.024923" style="stroke: #000000; stroke-width: 0.6"/>
      </g>
     </g>
    </g>
    <g id="xtick_82">
     <g id="line2d_96">
      <g>
       <use xlink:href="#mac3132cd5b" x="176.142447" y="256.024923" style="stroke: #000000; stroke-width: 0.6"/>
      </g>
     </g>
    </g>
    <g id="xtick_83">
     <g id="line2d_97">
      <g>
       <use xlink:href="#mac3132cd5b" x="191.101854" y="256.024923" style="stroke: #000000; stroke-width: 0.6"/>
      </g>
     </g>
    </g>
    <g id="xtick_84">
     <g id="line2d_98">
      <g>
       <use xlink:href="#mac3132cd5b" x="206.061262" y="256.024923" style="stroke: #000000; stroke-width: 0.6"/>
      </g>
     </g>
    </g>
    <g id="xtick_85">
     <g id="line2d_99">
      <g>
       <use xlink:href="#mac3132cd5b" x="221.020669" y="256.024923" style="stroke: #000000; stroke-width: 0.6"/>
      </g>
     </g>
    </g>
    <g id="xtick_86">
     <g id="line2d_100">
      <g>
       <use xlink:href="#mac3132cd5b" x="250.939484" y="256.024923" style="stroke: #000000; stroke-width: 0.6"/>
      </g>
     </g>
    </g>
    <g id="xtick_87">
     <g id="line2d_101">
      <g>
       <use xlink:href="#mac3132cd5b" x="265.898891" y="256.024923" style="stroke: #000000; stroke-width: 0.6"/>
      </g>
     </g>
    </g>
    <g id="xtick_88">
     <g id="line2d_102">
      <g>
       <use xlink:href="#mac3132cd5b" x="280.858299" y="256.024923" style="stroke: #000000; stroke-width: 0.6"/>
      </g>
     </g>
    </g>
    <g id="xtick_89">
     <g id="line2d_103">
      <g>
       <use xlink:href="#mac3132cd5b" x="295.817706" y="256.024923" style="stroke: #000000; stroke-width: 0.6"/>
      </g>
     </g>
    </g>
    <g id="xtick_90">
     <g id="line2d_104">
      <g>
       <use xlink:href="#mac3132cd5b" x="325.736521" y="256.024923" style="stroke: #000000; stroke-width: 0.6"/>
      </g>
     </g>
    </g>
    <g id="xtick_91">
     <g id="line2d_105">
      <g>
       <use xlink:href="#mac3132cd5b" x="340.695928" y="256.024923" style="stroke: #000000; stroke-width: 0.6"/>
      </g>
     </g>
    </g>
    <g id="xtick_92">
     <g id="line2d_106">
      <g>
       <use xlink:href="#mac3132cd5b" x="355.655336" y="256.024923" style="stroke: #000000; stroke-width: 0.6"/>
      </g>
     </g>
    </g>
    <g id="xtick_93">
     <g id="line2d_107">
      <g>
       <use xlink:href="#mac3132cd5b" x="370.614743" y="256.024923" style="stroke: #000000; stroke-width: 0.6"/>
      </g>
     </g>
    </g>
    <g id="xtick_94">
     <g id="line2d_108">
      <g>
       <use xlink:href="#mac3132cd5b" x="400.533558" y="256.024923" style="stroke: #000000; stroke-width: 0.6"/>
      </g>
     </g>
    </g>
    <g id="xtick_95">
     <g id="line2d_109">
      <g>
       <use xlink:href="#mac3132cd5b" x="415.492965" y="256.024923" style="stroke: #000000; stroke-width: 0.6"/>
      </g>
     </g>
    </g>
    <g id="xtick_96">
     <g id="line2d_110">
      <g>
       <use xlink:href="#mac3132cd5b" x="430.452373" y="256.024923" style="stroke: #000000; stroke-width: 0.6"/>
      </g>
     </g>
    </g>
    <g id="xtick_97">
     <g id="line2d_111">
      <g>
       <use xlink:href="#mac3132cd5b" x="445.41178" y="256.024923" style="stroke: #000000; stroke-width: 0.6"/>
      </g>
     </g>
    </g>
    <g id="xtick_98">
     <g id="line2d_112">
      <g>
       <use xlink:href="#mac3132cd5b" x="475.330595" y="256.024923" style="stroke: #000000; stroke-width: 0.6"/>
      </g>
     </g>
    </g>
    <g id="xtick_99">
     <g id="line2d_113">
      <g>
       <use xlink:href="#mac3132cd5b" x="490.290002" y="256.024923" style="stroke: #000000; stroke-width: 0.6"/>
      </g>
     </g>
    </g>
    <g id="xtick_100">
     <g id="line2d_114">
      <g>
       <use xlink:href="#mac3132cd5b" x="505.24941" y="256.024923" style="stroke: #000000; stroke-width: 0.6"/>
      </g>
     </g>
    </g>
    <g id="xtick_101">
     <g id="line2d_115">
      <g>
       <use xlink:href="#mac3132cd5b" x="520.208817" y="256.024923" style="stroke: #000000; stroke-width: 0.6"/>
      </g>
     </g>
    </g>
    <g id="xtick_102">
     <g id="line2d_116">
      <g>
       <use xlink:href="#mac3132cd5b" x="550.127632" y="256.024923" style="stroke: #000000; stroke-width: 0.6"/>
      </g>
     </g>
    </g>
   </g>
   <g id="matplotlib.axis_6">
    <g id="ytick_7">
     <g id="line2d_117">
      <path d="M 56.467188 252.725921 
L 561.347187 252.725921 
" clip-path="url(#pc611a64057)" style="fill: none; stroke-dasharray: 2.96,1.28; stroke-dashoffset: 0; stroke: #000000; stroke-opacity: 0.1; stroke-width: 0.8"/>
     </g>
     <g id="line2d_118">
      <g>
       <use xlink:href="#m9b21579896" x="56.467188" y="252.725921" style="stroke: #000000; stroke-width: 0.8"/>
      </g>
     </g>
     <g id="text_16">
      <!-- 0% -->
      <g transform="translate(33.603125 256.52514) scale(0.1 -0.1)">
       <use xlink:href="#DejaVuSans-30"/>
       <use xlink:href="#DejaVuSans-25" transform="translate(63.623047 0)"/>
      </g>
     </g>
    </g>
    <g id="ytick_8">
     <g id="line2d_119">
      <path d="M 56.467188 219.735903 
L 561.347187 219.735903 
" clip-path="url(#pc611a64057)" style="fill: none; stroke-dasharray: 2.96,1.28; stroke-dashoffset: 0; stroke: #000000; stroke-opacity: 0.1; stroke-width: 0.8"/>
     </g>
     <g id="line2d_120">
      <g>
       <use xlink:href="#m9b21579896" x="56.467188" y="219.735903" style="stroke: #000000; stroke-width: 0.8"/>
      </g>
     </g>
     <g id="text_17">
      <!-- 50% -->
      <g transform="translate(27.240625 223.535122) scale(0.1 -0.1)">
       <use xlink:href="#DejaVuSans-35"/>
       <use xlink:href="#DejaVuSans-30" transform="translate(63.623047 0)"/>
       <use xlink:href="#DejaVuSans-25" transform="translate(127.246094 0)"/>
      </g>
     </g>
    </g>
    <g id="ytick_9">
     <g id="line2d_121">
      <path d="M 56.467188 186.745885 
L 561.347187 186.745885 
" clip-path="url(#pc611a64057)" style="fill: none; stroke-dasharray: 2.96,1.28; stroke-dashoffset: 0; stroke: #000000; stroke-opacity: 0.1; stroke-width: 0.8"/>
     </g>
     <g id="line2d_122">
      <g>
       <use xlink:href="#m9b21579896" x="56.467188" y="186.745885" style="stroke: #000000; stroke-width: 0.8"/>
      </g>
     </g>
     <g id="text_18">
      <!-- 100% -->
      <g transform="translate(20.878125 190.545104) scale(0.1 -0.1)">
       <use xlink:href="#DejaVuSans-31"/>
       <use xlink:href="#DejaVuSans-30" transform="translate(63.623047 0)"/>
       <use xlink:href="#DejaVuSans-30" transform="translate(127.246094 0)"/>
       <use xlink:href="#DejaVuSans-25" transform="translate(190.869141 0)"/>
      </g>
     </g>
    </g>
    <g id="text_19">
     <!-- State 2 -->
     <g transform="translate(14.798438 237.741372) rotate(-90) scale(0.1 -0.1)">
      <use xlink:href="#DejaVuSans-53"/>
      <use xlink:href="#DejaVuSans-74" transform="translate(63.476562 0)"/>
      <use xlink:href="#DejaVuSans-61" transform="translate(102.685547 0)"/>
      <use xlink:href="#DejaVuSans-74" transform="translate(163.964844 0)"/>
      <use xlink:href="#DejaVuSans-65" transform="translate(203.173828 0)"/>
      <use xlink:href="#DejaVuSans-20" transform="translate(264.697266 0)"/>
      <use xlink:href="#DejaVuSans-32" transform="translate(296.484375 0)"/>
     </g>
    </g>
   </g>
   <g id="line2d_123">
    <path d="M 56.467188 241.349327 
L 57.713805 249.871641 
L 58.960422 248.218393 
L 60.207039 249.853449 
L 61.453657 238.17658 
L 62.700274 241.260885 
L 63.946891 230.387498 
L 65.193508 234.23245 
L 66.440126 249.197855 
L 67.686743 245.428917 
L 68.93336 249.618436 
L 70.179978 242.753607 
L 71.426595 241.229812 
L 72.673212 221.965648 
L 73.919829 249.401306 
L 75.166447 189.71501 
L 76.413064 199.179226 
L 77.659681 200.655144 
L 78.906299 220.217333 
L 80.152916 188.201068 
L 81.399533 244.578372 
L 82.64615 235.135595 
L 83.892768 237.928308 
L 85.139385 238.827813 
L 86.386002 247.644062 
L 87.63262 237.042658 
L 88.879237 209.066624 
L 90.125854 249.988832 
L 91.372471 250.024195 
L 92.619089 243.799911 
L 93.865706 244.56944 
L 95.112323 244.651406 
L 96.358941 230.626791 
L 97.605558 250.064767 
L 98.852175 213.955242 
L 100.098792 247.668377 
L 101.34541 247.138653 
L 102.592027 245.7858 
L 103.838644 249.543981 
L 105.085262 248.193328 
L 106.331879 189.714288 
L 107.578496 249.523173 
L 108.825113 250.567382 
L 110.071731 245.23081 
L 111.318348 247.689246 
L 113.811583 238.136572 
L 115.0582 247.594711 
L 116.304817 232.319966 
L 117.551434 242.05851 
L 118.798052 248.285427 
L 120.044669 248.949637 
L 121.291286 250.093216 
L 122.537904 236.092448 
L 123.784521 186.774061 
L 125.031138 250.913037 
L 126.277755 241.637783 
L 127.524373 243.291378 
L 128.77099 242.473176 
L 130.017607 245.911478 
L 131.264225 190.643615 
L 132.510842 187.454334 
L 133.757459 242.251833 
L 136.250694 248.429571 
L 137.497311 246.600821 
L 138.743928 239.521535 
L 139.990546 240.892432 
L 141.237163 244.677655 
L 142.48378 187.954777 
L 143.730397 246.073617 
L 144.977015 246.488081 
L 147.470249 243.089096 
L 148.716867 250.137258 
L 149.963484 247.21973 
L 151.210101 226.87906 
L 152.456718 243.665082 
L 153.703336 245.29734 
L 154.949953 186.745886 
L 156.19657 187.200753 
L 157.443187 244.613275 
L 158.689805 246.294094 
L 159.936422 250.232407 
L 161.183039 250.326511 
L 162.429657 219.27442 
L 163.676274 247.387725 
L 164.922891 250.507463 
L 166.169508 231.11863 
L 167.416126 249.316519 
L 168.662743 247.750265 
L 169.90936 249.195337 
L 171.155978 186.747463 
L 172.402595 248.269627 
L 173.649212 250.792992 
L 174.895829 250.671196 
L 176.142447 224.754339 
L 177.389064 191.484376 
L 178.635681 246.46276 
L 179.882299 247.236141 
L 181.128916 246.223263 
L 182.375533 237.835539 
L 183.62215 236.250559 
L 184.868768 246.192308 
L 186.115385 243.32186 
L 187.362002 244.487077 
L 188.60862 187.222325 
L 189.855237 240.008916 
L 191.101854 249.194442 
L 192.348471 188.942319 
L 193.595089 238.368047 
L 194.841706 241.484084 
L 196.088323 248.340965 
L 197.334941 222.683696 
L 198.581558 207.776494 
L 199.828175 204.451809 
L 201.074792 186.747432 
L 202.32141 188.651038 
L 203.568027 201.15235 
L 204.814644 245.474826 
L 206.061262 243.24953 
L 207.307879 236.686869 
L 208.554496 231.194742 
L 209.801113 203.664466 
L 211.047731 209.703846 
L 212.294348 209.837748 
L 213.540965 196.094665 
L 214.787583 199.812432 
L 216.0342 186.925844 
L 217.280817 235.109779 
L 218.527434 250.607217 
L 219.774052 190.174227 
L 221.020669 225.43537 
L 222.267286 236.48566 
L 223.513904 246.071605 
L 224.760521 247.691331 
L 226.007138 191.436606 
L 227.253755 249.443129 
L 228.500373 187.94589 
L 229.74699 248.833191 
L 230.993607 233.083276 
L 232.240225 250.750072 
L 233.486842 249.115096 
L 234.733459 248.797692 
L 235.980076 248.958634 
L 237.226694 247.616762 
L 238.473311 231.564581 
L 239.719928 229.601314 
L 240.966546 250.016341 
L 242.213163 248.362145 
L 243.45978 234.136899 
L 244.706397 237.043682 
L 245.953015 241.509471 
L 247.199632 248.829138 
L 248.446249 219.169869 
L 249.692867 248.331993 
L 250.939484 216.45262 
L 252.186101 249.987928 
L 253.432718 246.371374 
L 254.679336 204.348918 
L 255.925953 245.236571 
L 257.17257 242.676561 
L 258.419187 250.000717 
L 259.665805 224.472843 
L 260.912422 189.085125 
L 262.159039 241.736476 
L 263.405657 243.031827 
L 264.652274 240.755079 
L 265.898891 236.683342 
L 267.145508 246.750578 
L 268.392126 230.969047 
L 269.638743 207.969815 
L 270.88536 233.544219 
L 272.131978 247.668501 
L 274.625212 246.940823 
L 275.871829 247.925025 
L 277.118447 248.532894 
L 279.611681 242.983162 
L 280.858299 248.145437 
L 282.104916 201.408813 
L 283.351533 250.573151 
L 284.59815 238.713971 
L 285.844768 247.198238 
L 287.091385 246.222269 
L 288.338002 190.943657 
L 289.58462 247.377894 
L 290.831237 227.522337 
L 292.077854 244.071626 
L 293.324471 186.825973 
L 294.571089 222.352597 
L 295.817706 186.774915 
L 298.310941 232.677846 
L 299.557558 244.559921 
L 300.804175 246.810761 
L 302.050792 186.765472 
L 303.29741 245.271148 
L 304.544027 219.574527 
L 305.790644 186.770392 
L 308.283879 186.745885 
L 309.530496 189.896965 
L 310.777113 217.335133 
L 312.023731 209.313919 
L 313.270348 249.134777 
L 314.516965 248.531972 
L 315.763583 238.437076 
L 317.0102 249.274537 
L 318.256817 250.486899 
L 319.503434 250.159546 
L 320.750052 248.549992 
L 321.996669 246.392849 
L 323.243286 246.813288 
L 324.489904 247.646528 
L 325.736521 238.22209 
L 326.983138 250.511399 
L 328.229755 250.72518 
L 329.476373 247.922723 
L 330.72299 187.943231 
L 331.969607 214.384454 
L 333.216225 248.866388 
L 334.462842 202.439257 
L 335.709459 249.956575 
L 336.956076 247.861524 
L 338.202694 248.535464 
L 339.449311 249.876373 
L 340.695928 249.420262 
L 341.942546 249.822529 
L 343.189163 248.803085 
L 344.43578 248.28112 
L 345.682397 238.724806 
L 346.929015 245.814897 
L 348.175632 230.863254 
L 349.422249 188.145795 
L 350.668867 186.746342 
L 351.915484 241.499526 
L 353.162101 248.696885 
L 354.408718 238.615664 
L 355.655336 249.506904 
L 356.901953 250.731457 
L 358.14857 247.983477 
L 359.395187 244.015861 
L 360.641805 187.55833 
L 361.888422 250.467929 
L 363.135039 246.499904 
L 364.381657 249.806162 
L 365.628274 243.899177 
L 366.874891 246.639868 
L 368.121508 249.90605 
L 369.368126 249.516545 
L 370.614743 250.337817 
L 371.86136 247.253195 
L 373.107978 250.797029 
L 374.354595 227.246594 
L 375.601212 236.297025 
L 376.847829 225.476992 
L 378.094447 248.278492 
L 379.341064 218.627105 
L 380.587681 249.131664 
L 381.834299 248.996817 
L 383.080916 249.658146 
L 384.327533 250.768177 
L 385.57415 191.386711 
L 386.820768 247.198364 
L 388.067385 249.815183 
L 389.314002 248.73336 
L 390.56062 247.851431 
L 391.807237 249.705847 
L 393.053854 241.567844 
L 394.300471 243.407834 
L 395.547089 239.216361 
L 396.793706 247.566007 
L 398.040323 245.858137 
L 399.286941 212.257571 
L 400.533558 186.795566 
L 401.780175 244.439563 
L 403.026792 241.092006 
L 404.27341 247.874437 
L 405.520027 248.929133 
L 406.766644 244.871933 
L 408.013262 234.069109 
L 409.259879 188.934829 
L 410.506496 232.997918 
L 411.753113 236.789955 
L 412.999731 234.262294 
L 414.246348 241.947388 
L 415.492965 192.059957 
L 416.739583 229.96637 
L 417.9862 248.878426 
L 419.232817 242.647858 
L 420.479434 248.134206 
L 421.726052 203.131704 
L 422.972669 243.093403 
L 424.219286 250.223459 
L 425.465904 249.182761 
L 426.712521 243.359745 
L 427.959138 238.937632 
L 429.205755 250.454236 
L 430.452373 248.482476 
L 431.69899 249.016997 
L 432.945607 246.959502 
L 434.192225 248.260051 
L 435.438842 249.376068 
L 436.685459 249.08657 
L 437.932076 250.466965 
L 439.178694 242.942772 
L 440.425311 250.690909 
L 441.671928 249.584604 
L 442.918546 248.937873 
L 444.165163 245.621742 
L 445.41178 218.115183 
L 446.658397 238.197261 
L 447.905015 210.319778 
L 449.151632 249.661547 
L 450.398249 248.780117 
L 451.644867 245.197834 
L 452.891484 242.715578 
L 454.138101 248.671669 
L 455.384718 248.247807 
L 456.631336 189.430033 
L 457.877953 240.82481 
L 459.12457 186.74662 
L 460.371187 240.303771 
L 461.617805 250.980496 
L 462.864422 220.506413 
L 464.111039 250.963268 
L 465.357657 187.223539 
L 466.604274 236.943219 
L 467.850891 249.730411 
L 469.097508 187.230957 
L 470.344126 250.084025 
L 471.590743 249.480564 
L 472.83736 250.047937 
L 474.083978 247.532849 
L 475.330595 189.162599 
L 476.577212 186.935568 
L 477.823829 186.746194 
L 479.070447 223.701716 
L 480.317064 248.147082 
L 481.563681 248.913063 
L 482.810299 241.736716 
L 484.056916 249.182096 
L 485.303533 242.499933 
L 486.55015 245.978718 
L 487.796768 234.974666 
L 489.043385 247.787192 
L 490.290002 248.928038 
L 491.53662 248.049358 
L 492.783237 245.598834 
L 494.029854 247.427229 
L 495.276471 243.777323 
L 496.523089 235.275518 
L 497.769706 247.236601 
L 499.016323 250.191787 
L 500.262941 244.797182 
L 501.509558 245.790712 
L 502.756175 238.041946 
L 504.002792 250.300396 
L 505.24941 245.726541 
L 506.496027 215.500718 
L 507.742644 245.581896 
L 508.989262 231.787793 
L 510.235879 249.759917 
L 511.482496 224.072321 
L 512.729113 247.790414 
L 513.975731 243.903902 
L 515.222348 233.493002 
L 516.468965 249.862232 
L 517.715583 235.430593 
L 518.9622 223.068446 
L 520.208817 236.753669 
L 521.455434 241.947685 
L 522.702052 246.391119 
L 523.948669 249.697452 
L 525.195286 246.745611 
L 526.441904 249.60833 
L 527.688521 244.755503 
L 528.935138 248.311741 
L 530.181755 233.01595 
L 531.428373 187.753809 
L 532.67499 225.920711 
L 533.921607 238.906356 
L 535.168225 250.575883 
L 536.414842 250.778835 
L 537.661459 245.559163 
L 538.908076 225.298812 
L 540.154694 249.095043 
L 541.401311 250.324773 
L 542.647928 240.454226 
L 543.894546 248.099986 
L 545.141163 248.016293 
L 546.38778 211.999729 
L 547.634397 246.694932 
L 548.881015 244.817089 
L 550.127632 247.902975 
L 551.374249 232.878767 
L 552.620867 186.843398 
L 553.867484 195.288493 
L 555.114101 250.094054 
L 556.360718 247.418815 
L 557.607336 250.747865 
L 558.853953 247.842971 
L 560.10057 239.106444 
L 561.347187 249.99756 
L 561.347187 249.99756 
" clip-path="url(#pc611a64057)" style="fill: none; stroke: #2ca02c; stroke-width: 1.5; stroke-linecap: square"/>
   </g>
   <g id="patch_13">
    <path d="M 56.467188 256.024923 
L 56.467188 183.446884 
" style="fill: none; stroke: #000000; stroke-width: 0.8; stroke-linejoin: miter; stroke-linecap: square"/>
   </g>
   <g id="patch_14">
    <path d="M 561.347187 256.024923 
L 561.347187 183.446884 
" style="fill: none"/>
   </g>
   <g id="patch_15">
    <path d="M 56.467188 256.024923 
L 561.347187 256.024923 
" style="fill: none"/>
   </g>
   <g id="patch_16">
    <path d="M 56.467188 183.446884 
L 561.347187 183.446884 
" style="fill: none"/>
   </g>
  </g>
 </g>
 <defs>
  <clipPath id="p87e5e52212">
   <rect x="56.467188" y="7.700217" width="504.88" height="72.578039"/>
  </clipPath>
  <clipPath id="p281bceb953">
   <rect x="56.467188" y="95.57355" width="504.88" height="72.578039"/>
  </clipPath>
  <clipPath id="pc611a64057">
   <rect x="56.467188" y="183.446884" width="504.88" height="72.578039"/>
  </clipPath>
 </defs>
</svg>
