<?xml version="1.0" encoding="utf-8" standalone="no"?>
<!DOCTYPE svg PUBLIC "-//W3C//DTD SVG 1.1//EN"
  "http://www.w3.org/Graphics/SVG/1.1/DTD/svg11.dtd">
<svg xmlns:xlink="http://www.w3.org/1999/xlink" width="567.558585pt" height="280.398125pt" viewBox="0 0 567.558585 280.398125" xmlns="http://www.w3.org/2000/svg" version="1.1">
 <metadata>
  <rdf:RDF xmlns:dc="http://purl.org/dc/elements/1.1/" xmlns:cc="http://creativecommons.org/ns#" xmlns:rdf="http://www.w3.org/1999/02/22-rdf-syntax-ns#">
   <cc:Work>
    <dc:type rdf:resource="http://purl.org/dc/dcmitype/StillImage"/>
    <dc:date>2025-11-19T13:19:09.411573</dc:date>
    <dc:format>image/svg+xml</dc:format>
    <dc:creator>
     <cc:Agent>
      <dc:title>Matplotlib v3.10.7, https://matplotlib.org/</dc:title>
     </cc:Agent>
    </dc:creator>
   </cc:Work>
  </rdf:RDF>
 </metadata>
 <defs>
  <style type="text/css">*{stroke-linejoin: round; stroke-linecap: butt}</style>
 </defs>
 <g id="figure_1">
  <g id="patch_1">
   <path d="M 0 280.398125 
L 567.558585 280.398125 
L 567.558585 0 
L 0 0 
L 0 280.398125 
z
" style="fill: none"/>
  </g>
  <g id="axes_1">
   <g id="patch_2">
    <path d="M 44.80625 124.71 
L 276.759693 124.71 
L 276.759693 7.2 
L 44.80625 7.2 
L 44.80625 124.71 
z
" style="fill: none"/>
   </g>
   <g id="matplotlib.axis_1">
    <g id="xtick_1">
     <g id="line2d_1">
      <defs>
       <path id="mcb2061740e" d="M 0 0 
L 0 3.5 
" style="stroke: #000000; stroke-width: 0.8"/>
      </defs>
      <g>
       <use xlink:href="#mcb2061740e" x="64.831008" y="124.71" style="stroke: #000000; stroke-width: 0.8"/>
      </g>
     </g>
    </g>
    <g id="xtick_2">
     <g id="line2d_2">
      <g>
       <use xlink:href="#mcb2061740e" x="98.205604" y="124.71" style="stroke: #000000; stroke-width: 0.8"/>
      </g>
     </g>
    </g>
    <g id="xtick_3">
     <g id="line2d_3">
      <g>
       <use xlink:href="#mcb2061740e" x="131.5802" y="124.71" style="stroke: #000000; stroke-width: 0.8"/>
      </g>
     </g>
    </g>
    <g id="xtick_4">
     <g id="line2d_4">
      <g>
       <use xlink:href="#mcb2061740e" x="164.954796" y="124.71" style="stroke: #000000; stroke-width: 0.8"/>
      </g>
     </g>
    </g>
    <g id="xtick_5">
     <g id="line2d_5">
      <g>
       <use xlink:href="#mcb2061740e" x="198.329392" y="124.71" style="stroke: #000000; stroke-width: 0.8"/>
      </g>
     </g>
    </g>
    <g id="xtick_6">
     <g id="line2d_6">
      <g>
       <use xlink:href="#mcb2061740e" x="231.703989" y="124.71" style="stroke: #000000; stroke-width: 0.8"/>
      </g>
     </g>
    </g>
    <g id="xtick_7">
     <g id="line2d_7">
      <g>
       <use xlink:href="#mcb2061740e" x="265.078585" y="124.71" style="stroke: #000000; stroke-width: 0.8"/>
      </g>
     </g>
    </g>
    <g id="xtick_8">
     <g id="line2d_8">
      <defs>
       <path id="m098bec2d1c" d="M 0 0 
L 0 2 
" style="stroke: #000000; stroke-width: 0.6"/>
      </defs>
      <g>
       <use xlink:href="#m098bec2d1c" x="44.80625" y="124.71" style="stroke: #000000; stroke-width: 0.6"/>
      </g>
     </g>
    </g>
    <g id="xtick_9">
     <g id="line2d_9">
      <g>
       <use xlink:href="#m098bec2d1c" x="51.481169" y="124.71" style="stroke: #000000; stroke-width: 0.6"/>
      </g>
     </g>
    </g>
    <g id="xtick_10">
     <g id="line2d_10">
      <g>
       <use xlink:href="#m098bec2d1c" x="58.156088" y="124.71" style="stroke: #000000; stroke-width: 0.6"/>
      </g>
     </g>
    </g>
    <g id="xtick_11">
     <g id="line2d_11">
      <g>
       <use xlink:href="#m098bec2d1c" x="71.505927" y="124.71" style="stroke: #000000; stroke-width: 0.6"/>
      </g>
     </g>
    </g>
    <g id="xtick_12">
     <g id="line2d_12">
      <g>
       <use xlink:href="#m098bec2d1c" x="78.180846" y="124.71" style="stroke: #000000; stroke-width: 0.6"/>
      </g>
     </g>
    </g>
    <g id="xtick_13">
     <g id="line2d_13">
      <g>
       <use xlink:href="#m098bec2d1c" x="84.855765" y="124.71" style="stroke: #000000; stroke-width: 0.6"/>
      </g>
     </g>
    </g>
    <g id="xtick_14">
     <g id="line2d_14">
      <g>
       <use xlink:href="#m098bec2d1c" x="91.530685" y="124.71" style="stroke: #000000; stroke-width: 0.6"/>
      </g>
     </g>
    </g>
    <g id="xtick_15">
     <g id="line2d_15">
      <g>
       <use xlink:href="#m098bec2d1c" x="104.880523" y="124.71" style="stroke: #000000; stroke-width: 0.6"/>
      </g>
     </g>
    </g>
    <g id="xtick_16">
     <g id="line2d_16">
      <g>
       <use xlink:href="#m098bec2d1c" x="111.555442" y="124.71" style="stroke: #000000; stroke-width: 0.6"/>
      </g>
     </g>
    </g>
    <g id="xtick_17">
     <g id="line2d_17">
      <g>
       <use xlink:href="#m098bec2d1c" x="118.230362" y="124.71" style="stroke: #000000; stroke-width: 0.6"/>
      </g>
     </g>
    </g>
    <g id="xtick_18">
     <g id="line2d_18">
      <g>
       <use xlink:href="#m098bec2d1c" x="124.905281" y="124.71" style="stroke: #000000; stroke-width: 0.6"/>
      </g>
     </g>
    </g>
    <g id="xtick_19">
     <g id="line2d_19">
      <g>
       <use xlink:href="#m098bec2d1c" x="138.255119" y="124.71" style="stroke: #000000; stroke-width: 0.6"/>
      </g>
     </g>
    </g>
    <g id="xtick_20">
     <g id="line2d_20">
      <g>
       <use xlink:href="#m098bec2d1c" x="144.930039" y="124.71" style="stroke: #000000; stroke-width: 0.6"/>
      </g>
     </g>
    </g>
    <g id="xtick_21">
     <g id="line2d_21">
      <g>
       <use xlink:href="#m098bec2d1c" x="151.604958" y="124.71" style="stroke: #000000; stroke-width: 0.6"/>
      </g>
     </g>
    </g>
    <g id="xtick_22">
     <g id="line2d_22">
      <g>
       <use xlink:href="#m098bec2d1c" x="158.279877" y="124.71" style="stroke: #000000; stroke-width: 0.6"/>
      </g>
     </g>
    </g>
    <g id="xtick_23">
     <g id="line2d_23">
      <g>
       <use xlink:href="#m098bec2d1c" x="171.629715" y="124.71" style="stroke: #000000; stroke-width: 0.6"/>
      </g>
     </g>
    </g>
    <g id="xtick_24">
     <g id="line2d_24">
      <g>
       <use xlink:href="#m098bec2d1c" x="178.304635" y="124.71" style="stroke: #000000; stroke-width: 0.6"/>
      </g>
     </g>
    </g>
    <g id="xtick_25">
     <g id="line2d_25">
      <g>
       <use xlink:href="#m098bec2d1c" x="184.979554" y="124.71" style="stroke: #000000; stroke-width: 0.6"/>
      </g>
     </g>
    </g>
    <g id="xtick_26">
     <g id="line2d_26">
      <g>
       <use xlink:href="#m098bec2d1c" x="191.654473" y="124.71" style="stroke: #000000; stroke-width: 0.6"/>
      </g>
     </g>
    </g>
    <g id="xtick_27">
     <g id="line2d_27">
      <g>
       <use xlink:href="#m098bec2d1c" x="205.004312" y="124.71" style="stroke: #000000; stroke-width: 0.6"/>
      </g>
     </g>
    </g>
    <g id="xtick_28">
     <g id="line2d_28">
      <g>
       <use xlink:href="#m098bec2d1c" x="211.679231" y="124.71" style="stroke: #000000; stroke-width: 0.6"/>
      </g>
     </g>
    </g>
    <g id="xtick_29">
     <g id="line2d_29">
      <g>
       <use xlink:href="#m098bec2d1c" x="218.35415" y="124.71" style="stroke: #000000; stroke-width: 0.6"/>
      </g>
     </g>
    </g>
    <g id="xtick_30">
     <g id="line2d_30">
      <g>
       <use xlink:href="#m098bec2d1c" x="225.029069" y="124.71" style="stroke: #000000; stroke-width: 0.6"/>
      </g>
     </g>
    </g>
    <g id="xtick_31">
     <g id="line2d_31">
      <g>
       <use xlink:href="#m098bec2d1c" x="238.378908" y="124.71" style="stroke: #000000; stroke-width: 0.6"/>
      </g>
     </g>
    </g>
    <g id="xtick_32">
     <g id="line2d_32">
      <g>
       <use xlink:href="#m098bec2d1c" x="245.053827" y="124.71" style="stroke: #000000; stroke-width: 0.6"/>
      </g>
     </g>
    </g>
    <g id="xtick_33">
     <g id="line2d_33">
      <g>
       <use xlink:href="#m098bec2d1c" x="251.728746" y="124.71" style="stroke: #000000; stroke-width: 0.6"/>
      </g>
     </g>
    </g>
    <g id="xtick_34">
     <g id="line2d_34">
      <g>
       <use xlink:href="#m098bec2d1c" x="258.403666" y="124.71" style="stroke: #000000; stroke-width: 0.6"/>
      </g>
     </g>
    </g>
    <g id="xtick_35">
     <g id="line2d_35">
      <g>
       <use xlink:href="#m098bec2d1c" x="271.753504" y="124.71" style="stroke: #000000; stroke-width: 0.6"/>
      </g>
     </g>
    </g>
   </g>
   <g id="matplotlib.axis_2">
    <g id="ytick_1">
     <g id="line2d_36">
      <path d="M 44.80625 118.517333 
L 276.759693 118.517333 
" clip-path="url(#pe6fd7fb78b)" style="fill: none; stroke-dasharray: 2.96,1.28; stroke-dashoffset: 0; stroke: #000000; stroke-opacity: 0.1; stroke-width: 0.8"/>
     </g>
     <g id="line2d_37">
      <defs>
       <path id="mea8fa8ce8e" d="M 0 0 
L -3.5 0 
" style="stroke: #000000; stroke-width: 0.8"/>
      </defs>
      <g>
       <use xlink:href="#mea8fa8ce8e" x="44.80625" y="118.517333" style="stroke: #000000; stroke-width: 0.8"/>
      </g>
     </g>
     <g id="text_1">
      <!-- 0% -->
      <g transform="translate(21.942188 122.316552) scale(0.1 -0.1)">
       <defs>
        <path id="DejaVuSans-30" d="M 2034 4250 
Q 1547 4250 1301 3770 
Q 1056 3291 1056 2328 
Q 1056 1369 1301 889 
Q 1547 409 2034 409 
Q 2525 409 2770 889 
Q 3016 1369 3016 2328 
Q 3016 3291 2770 3770 
Q 2525 4250 2034 4250 
z
M 2034 4750 
Q 2819 4750 3233 4129 
Q 3647 3509 3647 2328 
Q 3647 1150 3233 529 
Q 2819 -91 2034 -91 
Q 1250 -91 836 529 
Q 422 1150 422 2328 
Q 422 3509 836 4129 
Q 1250 4750 2034 4750 
z
" transform="scale(0.015625)"/>
        <path id="DejaVuSans-25" d="M 4653 2053 
Q 4381 2053 4226 1822 
Q 4072 1591 4072 1178 
Q 4072 772 4226 539 
Q 4381 306 4653 306 
Q 4919 306 5073 539 
Q 5228 772 5228 1178 
Q 5228 1588 5073 1820 
Q 4919 2053 4653 2053 
z
M 4653 2450 
Q 5147 2450 5437 2106 
Q 5728 1763 5728 1178 
Q 5728 594 5436 251 
Q 5144 -91 4653 -91 
Q 4153 -91 3862 251 
Q 3572 594 3572 1178 
Q 3572 1766 3864 2108 
Q 4156 2450 4653 2450 
z
M 1428 4353 
Q 1159 4353 1004 4120 
Q 850 3888 850 3481 
Q 850 3069 1003 2837 
Q 1156 2606 1428 2606 
Q 1700 2606 1854 2837 
Q 2009 3069 2009 3481 
Q 2009 3884 1853 4118 
Q 1697 4353 1428 4353 
z
M 4250 4750 
L 4750 4750 
L 1831 -91 
L 1331 -91 
L 4250 4750 
z
M 1428 4750 
Q 1922 4750 2215 4408 
Q 2509 4066 2509 3481 
Q 2509 2891 2217 2550 
Q 1925 2209 1428 2209 
Q 931 2209 642 2551 
Q 353 2894 353 3481 
Q 353 4063 643 4406 
Q 934 4750 1428 4750 
z
" transform="scale(0.015625)"/>
       </defs>
       <use xlink:href="#DejaVuSans-30"/>
       <use xlink:href="#DejaVuSans-25" transform="translate(63.623047 0)"/>
      </g>
     </g>
    </g>
    <g id="ytick_2">
     <g id="line2d_38">
      <path d="M 44.80625 72.05572 
L 276.759693 72.05572 
" clip-path="url(#pe6fd7fb78b)" style="fill: none; stroke-dasharray: 2.96,1.28; stroke-dashoffset: 0; stroke: #000000; stroke-opacity: 0.1; stroke-width: 0.8"/>
     </g>
     <g id="line2d_39">
      <g>
       <use xlink:href="#mea8fa8ce8e" x="44.80625" y="72.05572" style="stroke: #000000; stroke-width: 0.8"/>
      </g>
     </g>
     <g id="text_2">
      <!-- 100% -->
      <g transform="translate(9.217188 75.854939) scale(0.1 -0.1)">
       <defs>
        <path id="DejaVuSans-31" d="M 794 531 
L 1825 531 
L 1825 4091 
L 703 3866 
L 703 4441 
L 1819 4666 
L 2450 4666 
L 2450 531 
L 3481 531 
L 3481 0 
L 794 0 
L 794 531 
z
" transform="scale(0.015625)"/>
       </defs>
       <use xlink:href="#DejaVuSans-31"/>
       <use xlink:href="#DejaVuSans-30" transform="translate(63.623047 0)"/>
       <use xlink:href="#DejaVuSans-30" transform="translate(127.246094 0)"/>
       <use xlink:href="#DejaVuSans-25" transform="translate(190.869141 0)"/>
      </g>
     </g>
    </g>
    <g id="ytick_3">
     <g id="line2d_40">
      <path d="M 44.80625 25.594107 
L 276.759693 25.594107 
" clip-path="url(#pe6fd7fb78b)" style="fill: none; stroke-dasharray: 2.96,1.28; stroke-dashoffset: 0; stroke: #000000; stroke-opacity: 0.1; stroke-width: 0.8"/>
     </g>
     <g id="line2d_41">
      <g>
       <use xlink:href="#mea8fa8ce8e" x="44.80625" y="25.594107" style="stroke: #000000; stroke-width: 0.8"/>
      </g>
     </g>
     <g id="text_3">
      <!-- 200% -->
      <g transform="translate(9.217188 29.393326) scale(0.1 -0.1)">
       <defs>
        <path id="DejaVuSans-32" d="M 1228 531 
L 3431 531 
L 3431 0 
L 469 0 
L 469 531 
Q 828 903 1448 1529 
Q 2069 2156 2228 2338 
Q 2531 2678 2651 2914 
Q 2772 3150 2772 3378 
Q 2772 3750 2511 3984 
Q 2250 4219 1831 4219 
Q 1534 4219 1204 4116 
Q 875 4013 500 3803 
L 500 4441 
Q 881 4594 1212 4672 
Q 1544 4750 1819 4750 
Q 2544 4750 2975 4387 
Q 3406 4025 3406 3419 
Q 3406 3131 3298 2873 
Q 3191 2616 2906 2266 
Q 2828 2175 2409 1742 
Q 1991 1309 1228 531 
z
" transform="scale(0.015625)"/>
       </defs>
       <use xlink:href="#DejaVuSans-32"/>
       <use xlink:href="#DejaVuSans-30" transform="translate(63.623047 0)"/>
       <use xlink:href="#DejaVuSans-30" transform="translate(127.246094 0)"/>
       <use xlink:href="#DejaVuSans-25" transform="translate(190.869141 0)"/>
      </g>
     </g>
    </g>
   </g>
   <g id="line2d_42">
    <path d="M 51.481169 119.035089 
L 52.037413 118.826883 
L 52.593656 119.368636 
L 53.149899 118.83088 
L 54.262386 118.884112 
L 54.818629 118.88361 
L 55.374872 119.3348 
L 56.487359 119.188549 
L 57.043602 118.335226 
L 58.712332 117.582163 
L 62.049791 117.5296 
L 62.606035 117.784395 
L 63.162278 117.166756 
L 63.718521 117.645602 
L 64.274764 117.616004 
L 64.831008 116.195232 
L 65.387251 117.31245 
L 65.943494 118.050071 
L 67.055981 117.858215 
L 67.612224 118.760297 
L 68.168467 117.64307 
L 68.724711 116.0871 
L 69.280954 116.941859 
L 69.837197 116.628105 
L 70.39344 117.359294 
L 70.949684 117.011219 
L 71.505927 116.063444 
L 72.06217 114.690716 
L 72.618413 114.685378 
L 73.174657 113.471201 
L 73.7309 113.387057 
L 74.287143 112.77415 
L 74.843387 112.665362 
L 75.39963 112.674905 
L 75.955873 111.209851 
L 76.512116 111.341516 
L 77.06836 109.833855 
L 77.624603 108.94672 
L 78.737089 108.904205 
L 80.962063 107.953736 
L 81.518306 107.954846 
L 82.074549 107.749409 
L 82.630792 105.169482 
L 83.187036 103.956558 
L 83.743279 100.17475 
L 84.299522 101.116243 
L 85.412009 101.113627 
L 85.968252 103.300193 
L 86.524495 100.165907 
L 87.080738 99.437668 
L 87.636982 96.945614 
L 88.193225 92.693072 
L 88.749468 96.057218 
L 89.305712 95.77094 
L 89.861955 95.807994 
L 90.418198 93.03615 
L 90.974441 92.119913 
L 91.530685 92.116909 
L 92.086928 88.333957 
L 92.643171 87.53912 
L 93.199414 87.329392 
L 93.755658 88.007631 
L 94.311901 86.315391 
L 94.868144 87.120547 
L 95.980631 87.119452 
L 96.536874 84.642168 
L 97.093117 80.399115 
L 97.649361 78.391151 
L 98.205604 77.072604 
L 98.761847 78.471482 
L 99.31809 75.388613 
L 99.874334 75.142313 
L 100.430577 75.819152 
L 100.98682 74.643629 
L 101.543064 76.431174 
L 102.099307 76.711846 
L 102.65555 76.711846 
L 103.211793 74.139062 
L 103.768037 73.597335 
L 104.32428 73.223486 
L 104.880523 75.512092 
L 105.436766 75.572291 
L 105.99301 67.74774 
L 107.105496 71.457998 
L 107.661739 71.417543 
L 108.217983 72.361713 
L 108.774226 67.297766 
L 109.330469 71.603469 
L 109.886713 71.873661 
L 110.442956 71.897424 
L 110.999199 71.796679 
L 111.555442 69.892637 
L 112.111686 69.970041 
L 112.667929 74.380018 
L 113.224172 74.319662 
L 113.780415 74.142243 
L 114.336659 74.81858 
L 114.892902 75.082671 
L 116.005389 75.120946 
L 116.561632 75.074026 
L 117.117875 74.579094 
L 117.674118 74.350932 
L 118.230362 74.784809 
L 118.786605 74.795445 
L 119.342848 74.305701 
L 120.455335 74.415773 
L 121.011578 76.319142 
L 121.567821 77.002302 
L 122.680308 76.975918 
L 123.236551 75.159551 
L 123.792794 74.102118 
L 124.905281 74.182695 
L 125.461524 75.345129 
L 126.017767 74.672802 
L 126.574011 70.86989 
L 127.130254 70.859571 
L 127.686497 70.541211 
L 128.798984 70.496631 
L 129.355227 70.586153 
L 129.91147 69.99074 
L 131.023957 69.808623 
L 132.136443 67.949501 
L 133.24893 67.99452 
L 133.805173 67.743025 
L 134.361416 66.650774 
L 134.91766 68.803352 
L 135.473903 68.79826 
L 136.030146 68.102493 
L 137.142633 67.650714 
L 137.698876 64.770604 
L 138.255119 65.822843 
L 138.811363 65.728904 
L 139.367606 67.310298 
L 139.923849 67.472798 
L 140.480092 64.801444 
L 141.036336 64.806231 
L 141.592579 64.693068 
L 142.148822 65.217714 
L 142.705065 65.217424 
L 143.261309 67.187922 
L 144.930039 67.157654 
L 145.486282 66.744844 
L 146.598768 66.631769 
L 147.155012 68.420418 
L 147.711255 68.537189 
L 148.267498 68.487872 
L 149.936228 63.438639 
L 150.492471 63.419241 
L 151.048714 62.827864 
L 151.604958 62.537104 
L 152.161201 62.585108 
L 152.717444 62.390683 
L 153.273688 61.170927 
L 153.829931 60.859485 
L 154.386174 62.268088 
L 154.942417 62.290057 
L 155.498661 61.805901 
L 158.279877 61.834111 
L 159.392364 63.184303 
L 160.50485 62.786071 
L 161.061093 62.788541 
L 161.617337 63.614722 
L 162.17358 62.932061 
L 164.398553 62.935457 
L 165.51104 70.342847 
L 166.067283 65.812729 
L 166.623526 64.749044 
L 167.179769 64.513647 
L 167.736013 64.820623 
L 168.848499 62.334365 
L 169.404742 62.132852 
L 169.960986 62.721201 
L 170.517229 62.719947 
L 171.073472 62.401827 
L 171.629715 64.429116 
L 172.185959 64.005968 
L 172.742202 62.934806 
L 173.298445 62.87106 
L 173.854689 62.974624 
L 174.410932 63.213881 
L 174.967175 60.927042 
L 175.523418 60.935354 
L 176.079662 60.739374 
L 176.635905 60.413223 
L 177.192148 60.413223 
L 178.304635 59.721387 
L 178.860878 59.641296 
L 179.973365 59.729737 
L 180.529608 60.393708 
L 181.085851 62.362506 
L 182.754581 62.363379 
L 183.310824 62.211174 
L 183.867067 62.335757 
L 184.423311 62.138452 
L 184.979554 62.1132 
L 185.535797 61.215142 
L 186.09204 59.916356 
L 186.648284 60.149358 
L 187.204527 60.218601 
L 188.317014 59.076753 
L 189.4295 58.5746 
L 189.985743 59.918266 
L 190.541987 59.699078 
L 191.09823 59.626117 
L 191.654473 59.230774 
L 192.210716 58.309536 
L 192.76696 57.715148 
L 193.323203 56.531678 
L 193.879446 56.282026 
L 194.991933 56.315166 
L 195.548176 56.8594 
L 196.104419 55.030305 
L 196.660663 52.347896 
L 197.773149 51.302927 
L 198.329392 51.308788 
L 199.441879 50.962067 
L 199.998122 50.73188 
L 200.554365 48.731399 
L 201.110609 48.701686 
L 201.666852 49.964884 
L 202.223095 46.249515 
L 202.779339 47.96235 
L 203.891825 42.586835 
L 204.448068 42.95875 
L 205.560555 42.94258 
L 206.116798 44.672193 
L 207.229285 43.596348 
L 207.785528 46.084113 
L 208.341771 44.187741 
L 208.898015 44.423118 
L 209.454258 46.369857 
L 210.010501 45.109587 
L 210.566744 44.868598 
L 211.122988 47.05359 
L 212.235474 47.054487 
L 212.791717 44.96069 
L 213.347961 44.873473 
L 213.904204 43.851391 
L 214.460447 43.851424 
L 215.016691 40.656236 
L 215.572934 40.594051 
L 216.129177 40.821837 
L 216.68542 42.541354 
L 217.241664 42.538114 
L 217.797907 41.851547 
L 218.35415 41.748613 
L 218.910393 41.178109 
L 219.466637 41.44726 
L 220.02288 41.095223 
L 220.579123 40.478116 
L 221.135366 40.388836 
L 221.69161 40.12642 
L 222.247853 40.118102 
L 222.804096 39.825429 
L 223.916583 37.254613 
L 225.029069 37.131389 
L 225.585313 40.745855 
L 226.141556 41.25736 
L 226.697799 41.025286 
L 227.254042 38.854618 
L 227.810286 38.775157 
L 228.922772 33.138294 
L 229.479016 33.069083 
L 230.035259 33.439853 
L 230.591502 31.450822 
L 231.147745 31.450822 
L 231.703989 30.929579 
L 233.372718 28.235154 
L 234.485205 28.236103 
L 235.041448 27.79799 
L 235.597691 27.79799 
L 236.153935 27.297079 
L 236.710178 27.103462 
L 237.266421 25.327873 
L 237.822665 25.193144 
L 240.047638 25.163362 
L 240.603881 24.70676 
L 241.716367 24.627484 
L 242.272611 24.008115 
L 242.828854 27.253216 
L 243.385097 29.805406 
L 243.941341 19.355817 
L 244.497584 19.324248 
L 245.053827 20.013615 
L 245.61007 19.85965 
L 246.722557 16.792992 
L 247.2788 16.789676 
L 247.835043 14.815507 
L 248.391287 14.080495 
L 248.94753 12.541364 
L 249.503773 18.680649 
L 250.060016 12.922287 
L 250.61626 13.778305 
L 251.172503 13.541783 
L 251.728746 20.534419 
L 252.28499 20.64332 
L 252.841233 20.32112 
L 253.397476 28.988508 
L 253.953719 28.867118 
L 254.509963 35.499187 
L 255.066206 25.764129 
L 255.622449 30.322937 
L 256.178692 39.497249 
L 256.734936 39.221191 
L 257.291179 39.221177 
L 257.847422 42.658543 
L 258.403666 42.561821 
L 258.959909 44.57037 
L 259.516152 44.565375 
L 260.628639 43.530149 
L 261.184882 40.057911 
L 261.741125 38.730571 
L 262.297368 39.942936 
L 262.853612 44.067467 
L 263.409855 44.101164 
L 263.966098 37.641271 
L 264.522341 35.284163 
L 265.078585 34.568604 
L 265.634828 33.537191 
L 266.191071 33.536857 
L 266.747315 36.42286 
L 267.859801 33.181817 
L 268.416044 33.163615 
L 268.972288 32.550949 
L 269.528531 32.533662 
L 270.084774 32.690605 
L 270.641017 26.851602 
L 271.197261 29.797312 
L 271.753504 29.793602 
L 272.309747 29.944341 
L 272.865991 29.944401 
L 273.422234 30.095978 
L 273.978477 29.574592 
L 274.53472 25.292984 
L 275.090964 24.390958 
L 276.20345 24.348679 
L 276.759693 24.122987 
L 276.759693 24.122987 
" clip-path="url(#pe6fd7fb78b)" style="fill: none; stroke: #1f77b4; stroke-width: 1.5; stroke-linecap: square"/>
   </g>
   <g id="patch_3">
    <path d="M 44.80625 124.71 
L 44.80625 7.2 
" style="fill: none"/>
   </g>
   <g id="patch_4">
    <path d="M 276.759693 124.71 
L 276.759693 7.2 
" style="fill: none"/>
   </g>
   <g id="patch_5">
    <path d="M 44.80625 124.71 
L 276.759693 124.71 
" style="fill: none; stroke: #000000; stroke-width: 0.8; stroke-linejoin: miter; stroke-linecap: square"/>
   </g>
   <g id="patch_6">
    <path d="M 44.80625 7.2 
L 276.759693 7.2 
" style="fill: none"/>
   </g>
   <g id="legend_1">
    <g id="patch_7">
     <path d="M 51.80625 29.878125 
L 102.067188 29.878125 
Q 104.067188 29.878125 104.067188 27.878125 
L 104.067188 14.2 
Q 104.067188 12.2 102.067188 12.2 
L 51.80625 12.2 
Q 49.80625 12.2 49.80625 14.2 
L 49.80625 27.878125 
Q 49.80625 29.878125 51.80625 29.878125 
L 51.80625 29.878125 
z
" style="fill: none; opacity: 0"/>
    </g>
    <g id="line2d_43">
     <path d="M 53.80625 20.298437 
L 63.80625 20.298437 
L 73.80625 20.298437 
" style="fill: none; stroke: #1f77b4; stroke-width: 1.5; stroke-linecap: square"/>
    </g>
    <g id="text_4">
     <!-- SPY -->
     <g transform="translate(81.80625 23.798437) scale(0.1 -0.1)">
      <defs>
       <path id="DejaVuSans-53" d="M 3425 4513 
L 3425 3897 
Q 3066 4069 2747 4153 
Q 2428 4238 2131 4238 
Q 1616 4238 1336 4038 
Q 1056 3838 1056 3469 
Q 1056 3159 1242 3001 
Q 1428 2844 1947 2747 
L 2328 2669 
Q 3034 2534 3370 2195 
Q 3706 1856 3706 1288 
Q 3706 609 3251 259 
Q 2797 -91 1919 -91 
Q 1588 -91 1214 -16 
Q 841 59 441 206 
L 441 856 
Q 825 641 1194 531 
Q 1563 422 1919 422 
Q 2459 422 2753 634 
Q 3047 847 3047 1241 
Q 3047 1584 2836 1778 
Q 2625 1972 2144 2069 
L 1759 2144 
Q 1053 2284 737 2584 
Q 422 2884 422 3419 
Q 422 4038 858 4394 
Q 1294 4750 2059 4750 
Q 2388 4750 2728 4690 
Q 3069 4631 3425 4513 
z
" transform="scale(0.015625)"/>
       <path id="DejaVuSans-50" d="M 1259 4147 
L 1259 2394 
L 2053 2394 
Q 2494 2394 2734 2622 
Q 2975 2850 2975 3272 
Q 2975 3691 2734 3919 
Q 2494 4147 2053 4147 
L 1259 4147 
z
M 628 4666 
L 2053 4666 
Q 2838 4666 3239 4311 
Q 3641 3956 3641 3272 
Q 3641 2581 3239 2228 
Q 2838 1875 2053 1875 
L 1259 1875 
L 1259 0 
L 628 0 
L 628 4666 
z
" transform="scale(0.015625)"/>
       <path id="DejaVuSans-59" d="M -13 4666 
L 666 4666 
L 1959 2747 
L 3244 4666 
L 3922 4666 
L 2272 2222 
L 2272 0 
L 1638 0 
L 1638 2222 
L -13 4666 
z
" transform="scale(0.015625)"/>
      </defs>
      <use xlink:href="#DejaVuSans-53"/>
      <use xlink:href="#DejaVuSans-50" transform="translate(63.476562 0)"/>
      <use xlink:href="#DejaVuSans-59" transform="translate(121.529297 0)"/>
     </g>
    </g>
   </g>
  </g>
  <g id="axes_2">
   <g id="patch_8">
    <path d="M 327.36125 124.71 
L 559.314693 124.71 
L 559.314693 7.2 
L 327.36125 7.2 
L 327.36125 124.71 
z
" style="fill: none"/>
   </g>
   <g id="matplotlib.axis_3">
    <g id="xtick_36">
     <g id="line2d_44">
      <g>
       <use xlink:href="#mcb2061740e" x="347.386008" y="124.71" style="stroke: #000000; stroke-width: 0.8"/>
      </g>
     </g>
    </g>
    <g id="xtick_37">
     <g id="line2d_45">
      <g>
       <use xlink:href="#mcb2061740e" x="380.760604" y="124.71" style="stroke: #000000; stroke-width: 0.8"/>
      </g>
     </g>
    </g>
    <g id="xtick_38">
     <g id="line2d_46">
      <g>
       <use xlink:href="#mcb2061740e" x="414.1352" y="124.71" style="stroke: #000000; stroke-width: 0.8"/>
      </g>
     </g>
    </g>
    <g id="xtick_39">
     <g id="line2d_47">
      <g>
       <use xlink:href="#mcb2061740e" x="447.509796" y="124.71" style="stroke: #000000; stroke-width: 0.8"/>
      </g>
     </g>
    </g>
    <g id="xtick_40">
     <g id="line2d_48">
      <g>
       <use xlink:href="#mcb2061740e" x="480.884392" y="124.71" style="stroke: #000000; stroke-width: 0.8"/>
      </g>
     </g>
    </g>
    <g id="xtick_41">
     <g id="line2d_49">
      <g>
       <use xlink:href="#mcb2061740e" x="514.258989" y="124.71" style="stroke: #000000; stroke-width: 0.8"/>
      </g>
     </g>
    </g>
    <g id="xtick_42">
     <g id="line2d_50">
      <g>
       <use xlink:href="#mcb2061740e" x="547.633585" y="124.71" style="stroke: #000000; stroke-width: 0.8"/>
      </g>
     </g>
    </g>
    <g id="xtick_43">
     <g id="line2d_51">
      <g>
       <use xlink:href="#m098bec2d1c" x="327.36125" y="124.71" style="stroke: #000000; stroke-width: 0.6"/>
      </g>
     </g>
    </g>
    <g id="xtick_44">
     <g id="line2d_52">
      <g>
       <use xlink:href="#m098bec2d1c" x="334.036169" y="124.71" style="stroke: #000000; stroke-width: 0.6"/>
      </g>
     </g>
    </g>
    <g id="xtick_45">
     <g id="line2d_53">
      <g>
       <use xlink:href="#m098bec2d1c" x="340.711088" y="124.71" style="stroke: #000000; stroke-width: 0.6"/>
      </g>
     </g>
    </g>
    <g id="xtick_46">
     <g id="line2d_54">
      <g>
       <use xlink:href="#m098bec2d1c" x="354.060927" y="124.71" style="stroke: #000000; stroke-width: 0.6"/>
      </g>
     </g>
    </g>
    <g id="xtick_47">
     <g id="line2d_55">
      <g>
       <use xlink:href="#m098bec2d1c" x="360.735846" y="124.71" style="stroke: #000000; stroke-width: 0.6"/>
      </g>
     </g>
    </g>
    <g id="xtick_48">
     <g id="line2d_56">
      <g>
       <use xlink:href="#m098bec2d1c" x="367.410765" y="124.71" style="stroke: #000000; stroke-width: 0.6"/>
      </g>
     </g>
    </g>
    <g id="xtick_49">
     <g id="line2d_57">
      <g>
       <use xlink:href="#m098bec2d1c" x="374.085685" y="124.71" style="stroke: #000000; stroke-width: 0.6"/>
      </g>
     </g>
    </g>
    <g id="xtick_50">
     <g id="line2d_58">
      <g>
       <use xlink:href="#m098bec2d1c" x="387.435523" y="124.71" style="stroke: #000000; stroke-width: 0.6"/>
      </g>
     </g>
    </g>
    <g id="xtick_51">
     <g id="line2d_59">
      <g>
       <use xlink:href="#m098bec2d1c" x="394.110442" y="124.71" style="stroke: #000000; stroke-width: 0.6"/>
      </g>
     </g>
    </g>
    <g id="xtick_52">
     <g id="line2d_60">
      <g>
       <use xlink:href="#m098bec2d1c" x="400.785362" y="124.71" style="stroke: #000000; stroke-width: 0.6"/>
      </g>
     </g>
    </g>
    <g id="xtick_53">
     <g id="line2d_61">
      <g>
       <use xlink:href="#m098bec2d1c" x="407.460281" y="124.71" style="stroke: #000000; stroke-width: 0.6"/>
      </g>
     </g>
    </g>
    <g id="xtick_54">
     <g id="line2d_62">
      <g>
       <use xlink:href="#m098bec2d1c" x="420.810119" y="124.71" style="stroke: #000000; stroke-width: 0.6"/>
      </g>
     </g>
    </g>
    <g id="xtick_55">
     <g id="line2d_63">
      <g>
       <use xlink:href="#m098bec2d1c" x="427.485039" y="124.71" style="stroke: #000000; stroke-width: 0.6"/>
      </g>
     </g>
    </g>
    <g id="xtick_56">
     <g id="line2d_64">
      <g>
       <use xlink:href="#m098bec2d1c" x="434.159958" y="124.71" style="stroke: #000000; stroke-width: 0.6"/>
      </g>
     </g>
    </g>
    <g id="xtick_57">
     <g id="line2d_65">
      <g>
       <use xlink:href="#m098bec2d1c" x="440.834877" y="124.71" style="stroke: #000000; stroke-width: 0.6"/>
      </g>
     </g>
    </g>
    <g id="xtick_58">
     <g id="line2d_66">
      <g>
       <use xlink:href="#m098bec2d1c" x="454.184715" y="124.71" style="stroke: #000000; stroke-width: 0.6"/>
      </g>
     </g>
    </g>
    <g id="xtick_59">
     <g id="line2d_67">
      <g>
       <use xlink:href="#m098bec2d1c" x="460.859635" y="124.71" style="stroke: #000000; stroke-width: 0.6"/>
      </g>
     </g>
    </g>
    <g id="xtick_60">
     <g id="line2d_68">
      <g>
       <use xlink:href="#m098bec2d1c" x="467.534554" y="124.71" style="stroke: #000000; stroke-width: 0.6"/>
      </g>
     </g>
    </g>
    <g id="xtick_61">
     <g id="line2d_69">
      <g>
       <use xlink:href="#m098bec2d1c" x="474.209473" y="124.71" style="stroke: #000000; stroke-width: 0.6"/>
      </g>
     </g>
    </g>
    <g id="xtick_62">
     <g id="line2d_70">
      <g>
       <use xlink:href="#m098bec2d1c" x="487.559312" y="124.71" style="stroke: #000000; stroke-width: 0.6"/>
      </g>
     </g>
    </g>
    <g id="xtick_63">
     <g id="line2d_71">
      <g>
       <use xlink:href="#m098bec2d1c" x="494.234231" y="124.71" style="stroke: #000000; stroke-width: 0.6"/>
      </g>
     </g>
    </g>
    <g id="xtick_64">
     <g id="line2d_72">
      <g>
       <use xlink:href="#m098bec2d1c" x="500.90915" y="124.71" style="stroke: #000000; stroke-width: 0.6"/>
      </g>
     </g>
    </g>
    <g id="xtick_65">
     <g id="line2d_73">
      <g>
       <use xlink:href="#m098bec2d1c" x="507.584069" y="124.71" style="stroke: #000000; stroke-width: 0.6"/>
      </g>
     </g>
    </g>
    <g id="xtick_66">
     <g id="line2d_74">
      <g>
       <use xlink:href="#m098bec2d1c" x="520.933908" y="124.71" style="stroke: #000000; stroke-width: 0.6"/>
      </g>
     </g>
    </g>
    <g id="xtick_67">
     <g id="line2d_75">
      <g>
       <use xlink:href="#m098bec2d1c" x="527.608827" y="124.71" style="stroke: #000000; stroke-width: 0.6"/>
      </g>
     </g>
    </g>
    <g id="xtick_68">
     <g id="line2d_76">
      <g>
       <use xlink:href="#m098bec2d1c" x="534.283746" y="124.71" style="stroke: #000000; stroke-width: 0.6"/>
      </g>
     </g>
    </g>
    <g id="xtick_69">
     <g id="line2d_77">
      <g>
       <use xlink:href="#m098bec2d1c" x="540.958666" y="124.71" style="stroke: #000000; stroke-width: 0.6"/>
      </g>
     </g>
    </g>
    <g id="xtick_70">
     <g id="line2d_78">
      <g>
       <use xlink:href="#m098bec2d1c" x="554.308504" y="124.71" style="stroke: #000000; stroke-width: 0.6"/>
      </g>
     </g>
    </g>
   </g>
   <g id="matplotlib.axis_4">
    <g id="ytick_4">
     <g id="line2d_79">
      <path d="M 327.36125 116.700542 
L 559.314693 116.700542 
" clip-path="url(#p4ae2d4146b)" style="fill: none; stroke-dasharray: 2.96,1.28; stroke-dashoffset: 0; stroke: #000000; stroke-opacity: 0.1; stroke-width: 0.8"/>
     </g>
     <g id="line2d_80">
      <g>
       <use xlink:href="#mea8fa8ce8e" x="327.36125" y="116.700542" style="stroke: #000000; stroke-width: 0.8"/>
      </g>
     </g>
     <g id="text_5">
      <!-- 0% -->
      <g transform="translate(304.497188 120.499761) scale(0.1 -0.1)">
       <use xlink:href="#DejaVuSans-30"/>
       <use xlink:href="#DejaVuSans-25" transform="translate(63.623047 0)"/>
      </g>
     </g>
    </g>
    <g id="ytick_5">
     <g id="line2d_81">
      <path d="M 327.36125 92.671025 
L 559.314693 92.671025 
" clip-path="url(#p4ae2d4146b)" style="fill: none; stroke-dasharray: 2.96,1.28; stroke-dashoffset: 0; stroke: #000000; stroke-opacity: 0.1; stroke-width: 0.8"/>
     </g>
     <g id="line2d_82">
      <g>
       <use xlink:href="#mea8fa8ce8e" x="327.36125" y="92.671025" style="stroke: #000000; stroke-width: 0.8"/>
      </g>
     </g>
     <g id="text_6">
      <!-- 20% -->
      <g transform="translate(298.134688 96.470244) scale(0.1 -0.1)">
       <use xlink:href="#DejaVuSans-32"/>
       <use xlink:href="#DejaVuSans-30" transform="translate(63.623047 0)"/>
       <use xlink:href="#DejaVuSans-25" transform="translate(127.246094 0)"/>
      </g>
     </g>
    </g>
    <g id="ytick_6">
     <g id="line2d_83">
      <path d="M 327.36125 68.641507 
L 559.314693 68.641507 
" clip-path="url(#p4ae2d4146b)" style="fill: none; stroke-dasharray: 2.96,1.28; stroke-dashoffset: 0; stroke: #000000; stroke-opacity: 0.1; stroke-width: 0.8"/>
     </g>
     <g id="line2d_84">
      <g>
       <use xlink:href="#mea8fa8ce8e" x="327.36125" y="68.641507" style="stroke: #000000; stroke-width: 0.8"/>
      </g>
     </g>
     <g id="text_7">
      <!-- 40% -->
      <g transform="translate(298.134688 72.440726) scale(0.1 -0.1)">
       <defs>
        <path id="DejaVuSans-34" d="M 2419 4116 
L 825 1625 
L 2419 1625 
L 2419 4116 
z
M 2253 4666 
L 3047 4666 
L 3047 1625 
L 3713 1625 
L 3713 1100 
L 3047 1100 
L 3047 0 
L 2419 0 
L 2419 1100 
L 313 1100 
L 313 1709 
L 2253 4666 
z
" transform="scale(0.015625)"/>
       </defs>
       <use xlink:href="#DejaVuSans-34"/>
       <use xlink:href="#DejaVuSans-30" transform="translate(63.623047 0)"/>
       <use xlink:href="#DejaVuSans-25" transform="translate(127.246094 0)"/>
      </g>
     </g>
    </g>
    <g id="ytick_7">
     <g id="line2d_85">
      <path d="M 327.36125 44.611989 
L 559.314693 44.611989 
" clip-path="url(#p4ae2d4146b)" style="fill: none; stroke-dasharray: 2.96,1.28; stroke-dashoffset: 0; stroke: #000000; stroke-opacity: 0.1; stroke-width: 0.8"/>
     </g>
     <g id="line2d_86">
      <g>
       <use xlink:href="#mea8fa8ce8e" x="327.36125" y="44.611989" style="stroke: #000000; stroke-width: 0.8"/>
      </g>
     </g>
     <g id="text_8">
      <!-- 60% -->
      <g transform="translate(298.134688 48.411208) scale(0.1 -0.1)">
       <defs>
        <path id="DejaVuSans-36" d="M 2113 2584 
Q 1688 2584 1439 2293 
Q 1191 2003 1191 1497 
Q 1191 994 1439 701 
Q 1688 409 2113 409 
Q 2538 409 2786 701 
Q 3034 994 3034 1497 
Q 3034 2003 2786 2293 
Q 2538 2584 2113 2584 
z
M 3366 4563 
L 3366 3988 
Q 3128 4100 2886 4159 
Q 2644 4219 2406 4219 
Q 1781 4219 1451 3797 
Q 1122 3375 1075 2522 
Q 1259 2794 1537 2939 
Q 1816 3084 2150 3084 
Q 2853 3084 3261 2657 
Q 3669 2231 3669 1497 
Q 3669 778 3244 343 
Q 2819 -91 2113 -91 
Q 1303 -91 875 529 
Q 447 1150 447 2328 
Q 447 3434 972 4092 
Q 1497 4750 2381 4750 
Q 2619 4750 2861 4703 
Q 3103 4656 3366 4563 
z
" transform="scale(0.015625)"/>
       </defs>
       <use xlink:href="#DejaVuSans-36"/>
       <use xlink:href="#DejaVuSans-30" transform="translate(63.623047 0)"/>
       <use xlink:href="#DejaVuSans-25" transform="translate(127.246094 0)"/>
      </g>
     </g>
    </g>
    <g id="ytick_8">
     <g id="line2d_87">
      <path d="M 327.36125 20.582472 
L 559.314693 20.582472 
" clip-path="url(#p4ae2d4146b)" style="fill: none; stroke-dasharray: 2.96,1.28; stroke-dashoffset: 0; stroke: #000000; stroke-opacity: 0.1; stroke-width: 0.8"/>
     </g>
     <g id="line2d_88">
      <g>
       <use xlink:href="#mea8fa8ce8e" x="327.36125" y="20.582472" style="stroke: #000000; stroke-width: 0.8"/>
      </g>
     </g>
     <g id="text_9">
      <!-- 80% -->
      <g transform="translate(298.134688 24.38169) scale(0.1 -0.1)">
       <defs>
        <path id="DejaVuSans-38" d="M 2034 2216 
Q 1584 2216 1326 1975 
Q 1069 1734 1069 1313 
Q 1069 891 1326 650 
Q 1584 409 2034 409 
Q 2484 409 2743 651 
Q 3003 894 3003 1313 
Q 3003 1734 2745 1975 
Q 2488 2216 2034 2216 
z
M 1403 2484 
Q 997 2584 770 2862 
Q 544 3141 544 3541 
Q 544 4100 942 4425 
Q 1341 4750 2034 4750 
Q 2731 4750 3128 4425 
Q 3525 4100 3525 3541 
Q 3525 3141 3298 2862 
Q 3072 2584 2669 2484 
Q 3125 2378 3379 2068 
Q 3634 1759 3634 1313 
Q 3634 634 3220 271 
Q 2806 -91 2034 -91 
Q 1263 -91 848 271 
Q 434 634 434 1313 
Q 434 1759 690 2068 
Q 947 2378 1403 2484 
z
M 1172 3481 
Q 1172 3119 1398 2916 
Q 1625 2713 2034 2713 
Q 2441 2713 2670 2916 
Q 2900 3119 2900 3481 
Q 2900 3844 2670 4047 
Q 2441 4250 2034 4250 
Q 1625 4250 1398 4047 
Q 1172 3844 1172 3481 
z
" transform="scale(0.015625)"/>
       </defs>
       <use xlink:href="#DejaVuSans-38"/>
       <use xlink:href="#DejaVuSans-30" transform="translate(63.623047 0)"/>
       <use xlink:href="#DejaVuSans-25" transform="translate(127.246094 0)"/>
      </g>
     </g>
    </g>
   </g>
   <g id="line2d_89">
    <path d="M 334.036169 118.779345 
L 334.592413 118.599895 
L 335.148656 119.208365 
L 335.704899 119.368636 
L 336.261142 117.658436 
L 336.817386 117.520994 
L 337.373629 117.519569 
L 337.929872 116.998089 
L 338.486115 116.74504 
L 339.042359 118.394095 
L 339.598602 117.604726 
L 340.711088 113.419174 
L 341.267332 110.828241 
L 342.936062 110.823569 
L 343.492305 110.011618 
L 344.048548 110.011604 
L 344.604791 109.830342 
L 345.161035 109.046318 
L 345.717278 108.93942 
L 346.273521 112.328645 
L 346.829764 112.311541 
L 347.386008 109.340898 
L 347.942251 113.888199 
L 348.498494 115.770987 
L 349.054738 116.327405 
L 349.610981 116.397775 
L 350.167224 117.43686 
L 350.723467 114.080658 
L 351.279711 114.708072 
L 351.835954 117.254933 
L 352.392197 117.469461 
L 352.94844 117.198489 
L 353.504684 116.056882 
L 354.61717 110.197781 
L 355.173413 110.192499 
L 355.729657 108.159648 
L 356.2859 107.653628 
L 356.842143 106.661445 
L 357.398387 106.843032 
L 359.067116 101.071325 
L 359.62336 98.279914 
L 360.179603 94.655086 
L 360.735846 94.655088 
L 361.292089 95.451199 
L 361.848333 97.176873 
L 362.404576 98.286119 
L 362.960819 98.472636 
L 363.517063 96.530087 
L 364.073306 96.530042 
L 364.629549 96.935643 
L 365.185792 93.310685 
L 366.298279 83.648093 
L 366.854522 86.414021 
L 367.967009 86.413884 
L 368.523252 89.797506 
L 369.079495 86.599177 
L 369.635738 86.249993 
L 370.191982 83.556726 
L 370.748225 75.305523 
L 371.304468 79.580871 
L 371.860712 79.196447 
L 372.416955 79.104426 
L 373.529441 74.328247 
L 374.085685 74.314 
L 374.641928 75.308162 
L 375.754414 75.080255 
L 376.310658 73.380293 
L 376.866901 70.868458 
L 377.423144 71.643264 
L 378.535631 71.641624 
L 379.091874 73.041315 
L 379.648117 71.282009 
L 380.204361 71.341657 
L 380.760604 70.833128 
L 381.316847 75.503279 
L 381.87309 75.933847 
L 382.429334 75.91625 
L 382.985577 76.836071 
L 383.54182 77.265691 
L 384.098064 78.082542 
L 385.766793 78.272289 
L 386.323037 78.619741 
L 386.87928 78.81428 
L 387.435523 77.697487 
L 387.991766 77.487035 
L 388.54801 71.756679 
L 389.104253 72.753067 
L 389.660496 73.433385 
L 390.216739 73.363606 
L 390.772983 71.292314 
L 391.329226 67.561815 
L 391.885469 69.942059 
L 392.441713 68.154033 
L 392.997956 68.135811 
L 393.554199 66.903883 
L 394.110442 67.228013 
L 394.666686 67.190527 
L 395.222929 68.141705 
L 395.779172 68.192573 
L 396.335415 68.005549 
L 396.891659 67.523147 
L 397.447902 65.609968 
L 398.560389 65.584275 
L 399.116632 65.2643 
L 399.672875 65.942823 
L 400.229118 67.137766 
L 400.785362 66.504859 
L 401.341605 66.498088 
L 401.897848 67.624478 
L 402.454091 67.500543 
L 403.010335 67.499102 
L 403.566578 66.65496 
L 404.679064 65.524937 
L 405.235308 65.524059 
L 405.791551 67.035184 
L 406.347794 67.356112 
L 407.460281 67.387675 
L 408.016524 63.435646 
L 408.572767 65.559589 
L 409.129011 64.626548 
L 409.685254 64.603102 
L 410.241497 65.532821 
L 410.79774 65.834605 
L 411.353984 65.811413 
L 411.910227 65.006262 
L 412.46647 65.604073 
L 413.578957 65.497293 
L 414.1352 63.693773 
L 414.691443 60.564982 
L 415.247687 60.563347 
L 415.80393 60.860043 
L 416.360173 60.957505 
L 416.916416 59.800507 
L 417.47266 58.069384 
L 418.028903 57.896999 
L 418.585146 56.584428 
L 419.141389 56.062543 
L 419.697633 56.327265 
L 420.253876 51.951457 
L 420.810119 49.211895 
L 421.366363 49.353563 
L 421.922606 49.971426 
L 422.478849 49.326851 
L 423.035092 44.333342 
L 423.591336 44.256314 
L 424.147579 44.449303 
L 424.703822 40.642546 
L 425.260065 40.648255 
L 425.816309 44.305578 
L 427.485039 44.202267 
L 428.041282 42.45568 
L 428.597525 43.2559 
L 429.153768 43.256022 
L 429.710012 43.482881 
L 430.266255 42.247396 
L 430.822498 41.786938 
L 431.378741 36.808669 
L 431.934985 33.337439 
L 432.491228 32.616896 
L 433.047471 32.571454 
L 433.603714 36.842717 
L 434.159958 37.216443 
L 434.716201 37.053973 
L 435.272444 37.915642 
L 435.828688 37.432327 
L 436.384931 37.838814 
L 436.941174 39.267697 
L 437.497417 39.222822 
L 438.053661 37.935917 
L 440.834877 37.928273 
L 441.39112 38.16075 
L 441.947364 36.136617 
L 442.503607 36.316492 
L 443.05985 37.092438 
L 443.616093 37.090985 
L 444.172337 37.741528 
L 444.72858 35.349474 
L 446.953553 35.298842 
L 447.509796 47.512289 
L 448.06604 48.48089 
L 448.622283 43.65751 
L 449.178526 45.108464 
L 449.734769 45.392919 
L 450.291013 44.689434 
L 450.847256 44.51135 
L 451.403499 43.038686 
L 451.959742 42.73261 
L 452.515986 44.245933 
L 453.072229 44.245467 
L 453.628472 47.045568 
L 454.184715 44.262382 
L 454.740959 44.350475 
L 455.297202 45.096287 
L 455.853445 44.839251 
L 456.409689 44.714191 
L 456.965932 44.249121 
L 457.522175 44.848201 
L 458.078418 44.819591 
L 458.634662 44.928508 
L 459.747148 46.437078 
L 460.303391 46.79949 
L 460.859635 47.663471 
L 461.972121 47.583365 
L 462.528365 47.576209 
L 463.084608 43.845625 
L 463.640851 47.654757 
L 465.865824 47.749284 
L 466.422067 46.728759 
L 466.978311 43.568964 
L 467.534554 43.572338 
L 468.090797 44.576031 
L 468.64704 48.307703 
L 469.203284 45.118585 
L 469.759527 44.928405 
L 470.31577 45.377924 
L 470.872014 41.6315 
L 471.428257 41.826637 
L 472.540743 43.179485 
L 473.096987 42.399966 
L 473.65323 44.6723 
L 474.209473 45.120662 
L 474.765716 43.503282 
L 475.32196 43.638497 
L 475.878203 38.432247 
L 476.434446 39.734459 
L 476.99069 39.946692 
L 477.546933 39.973245 
L 478.103176 40.415907 
L 478.659419 39.598635 
L 479.215663 38.118744 
L 480.328149 39.793661 
L 481.440636 39.747713 
L 481.996879 39.082642 
L 482.553122 37.901585 
L 483.109365 33.426283 
L 483.665609 33.434467 
L 484.221852 32.332801 
L 484.778095 24.371732 
L 485.334339 27.925458 
L 486.446825 16.988854 
L 487.003068 14.22819 
L 488.115555 14.260382 
L 488.671798 12.541364 
L 489.228041 16.061512 
L 489.784285 17.869918 
L 490.340528 25.226545 
L 490.896771 18.369472 
L 491.453015 18.417643 
L 492.009258 16.153973 
L 492.565501 16.266517 
L 493.121744 17.34232 
L 493.677988 17.859774 
L 495.346717 17.916387 
L 495.902961 18.228539 
L 496.459204 17.352691 
L 497.015447 17.350284 
L 497.571691 14.015567 
L 498.127934 14.936578 
L 498.684177 16.167843 
L 499.24042 23.865476 
L 499.796664 23.878039 
L 500.352907 24.266373 
L 500.90915 24.18575 
L 501.465393 23.789848 
L 502.021637 24.731313 
L 502.57788 23.771359 
L 503.134123 22.370759 
L 503.690366 21.471443 
L 504.24661 21.616304 
L 504.802853 21.445665 
L 505.359096 22.21718 
L 505.91534 22.251796 
L 507.027826 21.186735 
L 507.584069 21.192455 
L 508.140313 26.305612 
L 508.696556 25.513072 
L 509.252799 27.130109 
L 509.809042 24.100967 
L 510.365286 23.455461 
L 510.921529 25.178738 
L 511.477772 23.142602 
L 512.034016 25.334485 
L 512.590259 25.586648 
L 513.146502 22.494021 
L 514.258989 22.454431 
L 514.815232 23.073317 
L 515.371475 17.152889 
L 515.927718 17.838394 
L 517.040205 17.836766 
L 517.596448 17.717493 
L 518.152691 17.717493 
L 518.708935 19.172884 
L 519.265178 19.326925 
L 520.377665 19.921034 
L 521.490151 19.768068 
L 522.602638 19.760804 
L 523.158881 20.023063 
L 524.271367 19.99201 
L 524.827611 20.683821 
L 525.383854 19.751494 
L 525.940097 25.213911 
L 526.496341 22.710305 
L 527.052584 22.727745 
L 527.608827 26.338696 
L 528.16507 26.799309 
L 528.721314 29.733799 
L 529.277557 28.772934 
L 529.8338 28.772919 
L 530.390043 22.354965 
L 530.946287 20.756762 
L 531.50253 21.008536 
L 532.058773 26.095213 
L 532.615016 23.181828 
L 533.17126 19.039385 
L 533.727503 19.200543 
L 534.283746 26.658742 
L 534.83999 26.746411 
L 535.396233 27.488938 
L 535.952476 40.957529 
L 537.064963 44.100567 
L 537.621206 40.274887 
L 538.177449 47.458283 
L 538.733692 58.508378 
L 539.289936 58.796277 
L 539.846179 58.796251 
L 540.402422 60.854927 
L 540.958666 60.685784 
L 541.514909 66.260628 
L 542.071152 66.250294 
L 542.627395 66.081154 
L 543.183639 70.430735 
L 543.739882 70.261011 
L 544.296125 71.636797 
L 544.852368 74.703917 
L 545.408612 83.078578 
L 545.964855 83.186416 
L 546.521098 74.264653 
L 547.077341 67.955725 
L 547.633585 69.269437 
L 548.189828 69.841407 
L 548.746071 69.841295 
L 549.302315 75.711936 
L 550.414801 73.403011 
L 550.971044 73.335344 
L 551.527288 72.648683 
L 552.083531 72.624716 
L 552.639774 73.814404 
L 553.196017 71.41633 
L 553.752261 79.652848 
L 554.308504 79.652057 
L 554.864747 78.865527 
L 555.420991 78.865541 
L 556.533477 79.455238 
L 557.08972 76.709453 
L 557.645964 77.221148 
L 558.75845 77.220851 
L 559.314693 77.072425 
L 559.314693 77.072425 
" clip-path="url(#p4ae2d4146b)" style="fill: none; stroke: #ff7f0e; stroke-width: 1.5; stroke-linecap: square"/>
   </g>
   <g id="patch_9">
    <path d="M 327.36125 124.71 
L 327.36125 7.2 
" style="fill: none"/>
   </g>
   <g id="patch_10">
    <path d="M 559.314693 124.71 
L 559.314693 7.2 
" style="fill: none"/>
   </g>
   <g id="patch_11">
    <path d="M 327.36125 124.71 
L 559.314693 124.71 
" style="fill: none; stroke: #000000; stroke-width: 0.8; stroke-linejoin: miter; stroke-linecap: square"/>
   </g>
   <g id="patch_12">
    <path d="M 327.36125 7.2 
L 559.314693 7.2 
" style="fill: none"/>
   </g>
   <g id="legend_2">
    <g id="patch_13">
     <path d="M 334.36125 29.878125 
L 382.77375 29.878125 
Q 384.77375 29.878125 384.77375 27.878125 
L 384.77375 14.2 
Q 384.77375 12.2 382.77375 12.2 
L 334.36125 12.2 
Q 332.36125 12.2 332.36125 14.2 
L 332.36125 27.878125 
Q 332.36125 29.878125 334.36125 29.878125 
L 334.36125 29.878125 
z
" style="fill: none; opacity: 0"/>
    </g>
    <g id="line2d_90">
     <path d="M 336.36125 20.298437 
L 346.36125 20.298437 
L 356.36125 20.298437 
" style="fill: none; stroke: #ff7f0e; stroke-width: 1.5; stroke-linecap: square"/>
    </g>
    <g id="text_10">
     <!-- TLT -->
     <g transform="translate(364.36125 23.798437) scale(0.1 -0.1)">
      <defs>
       <path id="DejaVuSans-54" d="M -19 4666 
L 3928 4666 
L 3928 4134 
L 2272 4134 
L 2272 0 
L 1638 0 
L 1638 4134 
L -19 4134 
L -19 4666 
z
" transform="scale(0.015625)"/>
       <path id="DejaVuSans-4c" d="M 628 4666 
L 1259 4666 
L 1259 531 
L 3531 531 
L 3531 0 
L 628 0 
L 628 4666 
z
" transform="scale(0.015625)"/>
      </defs>
      <use xlink:href="#DejaVuSans-54"/>
      <use xlink:href="#DejaVuSans-4c" transform="translate(61.083984 0)"/>
      <use xlink:href="#DejaVuSans-54" transform="translate(103.046875 0)"/>
     </g>
    </g>
   </g>
  </g>
  <g id="axes_3">
   <g id="patch_14">
    <path d="M 44.80625 256.52 
L 276.759693 256.52 
L 276.759693 139.01 
L 44.80625 139.01 
L 44.80625 256.52 
z
" style="fill: none"/>
   </g>
   <g id="matplotlib.axis_5">
    <g id="xtick_71">
     <g id="line2d_91">
      <g>
       <use xlink:href="#mcb2061740e" x="64.831008" y="256.52" style="stroke: #000000; stroke-width: 0.8"/>
      </g>
     </g>
     <g id="text_11">
      <!-- 1994 -->
      <g transform="translate(52.106008 271.118437) scale(0.1 -0.1)">
       <defs>
        <path id="DejaVuSans-39" d="M 703 97 
L 703 672 
Q 941 559 1184 500 
Q 1428 441 1663 441 
Q 2288 441 2617 861 
Q 2947 1281 2994 2138 
Q 2813 1869 2534 1725 
Q 2256 1581 1919 1581 
Q 1219 1581 811 2004 
Q 403 2428 403 3163 
Q 403 3881 828 4315 
Q 1253 4750 1959 4750 
Q 2769 4750 3195 4129 
Q 3622 3509 3622 2328 
Q 3622 1225 3098 567 
Q 2575 -91 1691 -91 
Q 1453 -91 1209 -44 
Q 966 3 703 97 
z
M 1959 2075 
Q 2384 2075 2632 2365 
Q 2881 2656 2881 3163 
Q 2881 3666 2632 3958 
Q 2384 4250 1959 4250 
Q 1534 4250 1286 3958 
Q 1038 3666 1038 3163 
Q 1038 2656 1286 2365 
Q 1534 2075 1959 2075 
z
" transform="scale(0.015625)"/>
       </defs>
       <use xlink:href="#DejaVuSans-31"/>
       <use xlink:href="#DejaVuSans-39" transform="translate(63.623047 0)"/>
       <use xlink:href="#DejaVuSans-39" transform="translate(127.246094 0)"/>
       <use xlink:href="#DejaVuSans-34" transform="translate(190.869141 0)"/>
      </g>
     </g>
    </g>
    <g id="xtick_72">
     <g id="line2d_92">
      <g>
       <use xlink:href="#mcb2061740e" x="98.205604" y="256.52" style="stroke: #000000; stroke-width: 0.8"/>
      </g>
     </g>
     <g id="text_12">
      <!-- 1999 -->
      <g transform="translate(85.480604 271.118437) scale(0.1 -0.1)">
       <use xlink:href="#DejaVuSans-31"/>
       <use xlink:href="#DejaVuSans-39" transform="translate(63.623047 0)"/>
       <use xlink:href="#DejaVuSans-39" transform="translate(127.246094 0)"/>
       <use xlink:href="#DejaVuSans-39" transform="translate(190.869141 0)"/>
      </g>
     </g>
    </g>
    <g id="xtick_73">
     <g id="line2d_93">
      <g>
       <use xlink:href="#mcb2061740e" x="131.5802" y="256.52" style="stroke: #000000; stroke-width: 0.8"/>
      </g>
     </g>
     <g id="text_13">
      <!-- 2004 -->
      <g transform="translate(118.8552 271.118437) scale(0.1 -0.1)">
       <use xlink:href="#DejaVuSans-32"/>
       <use xlink:href="#DejaVuSans-30" transform="translate(63.623047 0)"/>
       <use xlink:href="#DejaVuSans-30" transform="translate(127.246094 0)"/>
       <use xlink:href="#DejaVuSans-34" transform="translate(190.869141 0)"/>
      </g>
     </g>
    </g>
    <g id="xtick_74">
     <g id="line2d_94">
      <g>
       <use xlink:href="#mcb2061740e" x="164.954796" y="256.52" style="stroke: #000000; stroke-width: 0.8"/>
      </g>
     </g>
     <g id="text_14">
      <!-- 2009 -->
      <g transform="translate(152.229796 271.118437) scale(0.1 -0.1)">
       <use xlink:href="#DejaVuSans-32"/>
       <use xlink:href="#DejaVuSans-30" transform="translate(63.623047 0)"/>
       <use xlink:href="#DejaVuSans-30" transform="translate(127.246094 0)"/>
       <use xlink:href="#DejaVuSans-39" transform="translate(190.869141 0)"/>
      </g>
     </g>
    </g>
    <g id="xtick_75">
     <g id="line2d_95">
      <g>
       <use xlink:href="#mcb2061740e" x="198.329392" y="256.52" style="stroke: #000000; stroke-width: 0.8"/>
      </g>
     </g>
     <g id="text_15">
      <!-- 2014 -->
      <g transform="translate(185.604392 271.118437) scale(0.1 -0.1)">
       <use xlink:href="#DejaVuSans-32"/>
       <use xlink:href="#DejaVuSans-30" transform="translate(63.623047 0)"/>
       <use xlink:href="#DejaVuSans-31" transform="translate(127.246094 0)"/>
       <use xlink:href="#DejaVuSans-34" transform="translate(190.869141 0)"/>
      </g>
     </g>
    </g>
    <g id="xtick_76">
     <g id="line2d_96">
      <g>
       <use xlink:href="#mcb2061740e" x="231.703989" y="256.52" style="stroke: #000000; stroke-width: 0.8"/>
      </g>
     </g>
     <g id="text_16">
      <!-- 2019 -->
      <g transform="translate(218.978989 271.118437) scale(0.1 -0.1)">
       <use xlink:href="#DejaVuSans-32"/>
       <use xlink:href="#DejaVuSans-30" transform="translate(63.623047 0)"/>
       <use xlink:href="#DejaVuSans-31" transform="translate(127.246094 0)"/>
       <use xlink:href="#DejaVuSans-39" transform="translate(190.869141 0)"/>
      </g>
     </g>
    </g>
    <g id="xtick_77">
     <g id="line2d_97">
      <g>
       <use xlink:href="#mcb2061740e" x="265.078585" y="256.52" style="stroke: #000000; stroke-width: 0.8"/>
      </g>
     </g>
     <g id="text_17">
      <!-- 2024 -->
      <g transform="translate(252.353585 271.118437) scale(0.1 -0.1)">
       <use xlink:href="#DejaVuSans-32"/>
       <use xlink:href="#DejaVuSans-30" transform="translate(63.623047 0)"/>
       <use xlink:href="#DejaVuSans-32" transform="translate(127.246094 0)"/>
       <use xlink:href="#DejaVuSans-34" transform="translate(190.869141 0)"/>
      </g>
     </g>
    </g>
    <g id="xtick_78">
     <g id="line2d_98">
      <g>
       <use xlink:href="#m098bec2d1c" x="44.80625" y="256.52" style="stroke: #000000; stroke-width: 0.6"/>
      </g>
     </g>
    </g>
    <g id="xtick_79">
     <g id="line2d_99">
      <g>
       <use xlink:href="#m098bec2d1c" x="51.481169" y="256.52" style="stroke: #000000; stroke-width: 0.6"/>
      </g>
     </g>
    </g>
    <g id="xtick_80">
     <g id="line2d_100">
      <g>
       <use xlink:href="#m098bec2d1c" x="58.156088" y="256.52" style="stroke: #000000; stroke-width: 0.6"/>
      </g>
     </g>
    </g>
    <g id="xtick_81">
     <g id="line2d_101">
      <g>
       <use xlink:href="#m098bec2d1c" x="71.505927" y="256.52" style="stroke: #000000; stroke-width: 0.6"/>
      </g>
     </g>
    </g>
    <g id="xtick_82">
     <g id="line2d_102">
      <g>
       <use xlink:href="#m098bec2d1c" x="78.180846" y="256.52" style="stroke: #000000; stroke-width: 0.6"/>
      </g>
     </g>
    </g>
    <g id="xtick_83">
     <g id="line2d_103">
      <g>
       <use xlink:href="#m098bec2d1c" x="84.855765" y="256.52" style="stroke: #000000; stroke-width: 0.6"/>
      </g>
     </g>
    </g>
    <g id="xtick_84">
     <g id="line2d_104">
      <g>
       <use xlink:href="#m098bec2d1c" x="91.530685" y="256.52" style="stroke: #000000; stroke-width: 0.6"/>
      </g>
     </g>
    </g>
    <g id="xtick_85">
     <g id="line2d_105">
      <g>
       <use xlink:href="#m098bec2d1c" x="104.880523" y="256.52" style="stroke: #000000; stroke-width: 0.6"/>
      </g>
     </g>
    </g>
    <g id="xtick_86">
     <g id="line2d_106">
      <g>
       <use xlink:href="#m098bec2d1c" x="111.555442" y="256.52" style="stroke: #000000; stroke-width: 0.6"/>
      </g>
     </g>
    </g>
    <g id="xtick_87">
     <g id="line2d_107">
      <g>
       <use xlink:href="#m098bec2d1c" x="118.230362" y="256.52" style="stroke: #000000; stroke-width: 0.6"/>
      </g>
     </g>
    </g>
    <g id="xtick_88">
     <g id="line2d_108">
      <g>
       <use xlink:href="#m098bec2d1c" x="124.905281" y="256.52" style="stroke: #000000; stroke-width: 0.6"/>
      </g>
     </g>
    </g>
    <g id="xtick_89">
     <g id="line2d_109">
      <g>
       <use xlink:href="#m098bec2d1c" x="138.255119" y="256.52" style="stroke: #000000; stroke-width: 0.6"/>
      </g>
     </g>
    </g>
    <g id="xtick_90">
     <g id="line2d_110">
      <g>
       <use xlink:href="#m098bec2d1c" x="144.930039" y="256.52" style="stroke: #000000; stroke-width: 0.6"/>
      </g>
     </g>
    </g>
    <g id="xtick_91">
     <g id="line2d_111">
      <g>
       <use xlink:href="#m098bec2d1c" x="151.604958" y="256.52" style="stroke: #000000; stroke-width: 0.6"/>
      </g>
     </g>
    </g>
    <g id="xtick_92">
     <g id="line2d_112">
      <g>
       <use xlink:href="#m098bec2d1c" x="158.279877" y="256.52" style="stroke: #000000; stroke-width: 0.6"/>
      </g>
     </g>
    </g>
    <g id="xtick_93">
     <g id="line2d_113">
      <g>
       <use xlink:href="#m098bec2d1c" x="171.629715" y="256.52" style="stroke: #000000; stroke-width: 0.6"/>
      </g>
     </g>
    </g>
    <g id="xtick_94">
     <g id="line2d_114">
      <g>
       <use xlink:href="#m098bec2d1c" x="178.304635" y="256.52" style="stroke: #000000; stroke-width: 0.6"/>
      </g>
     </g>
    </g>
    <g id="xtick_95">
     <g id="line2d_115">
      <g>
       <use xlink:href="#m098bec2d1c" x="184.979554" y="256.52" style="stroke: #000000; stroke-width: 0.6"/>
      </g>
     </g>
    </g>
    <g id="xtick_96">
     <g id="line2d_116">
      <g>
       <use xlink:href="#m098bec2d1c" x="191.654473" y="256.52" style="stroke: #000000; stroke-width: 0.6"/>
      </g>
     </g>
    </g>
    <g id="xtick_97">
     <g id="line2d_117">
      <g>
       <use xlink:href="#m098bec2d1c" x="205.004312" y="256.52" style="stroke: #000000; stroke-width: 0.6"/>
      </g>
     </g>
    </g>
    <g id="xtick_98">
     <g id="line2d_118">
      <g>
       <use xlink:href="#m098bec2d1c" x="211.679231" y="256.52" style="stroke: #000000; stroke-width: 0.6"/>
      </g>
     </g>
    </g>
    <g id="xtick_99">
     <g id="line2d_119">
      <g>
       <use xlink:href="#m098bec2d1c" x="218.35415" y="256.52" style="stroke: #000000; stroke-width: 0.6"/>
      </g>
     </g>
    </g>
    <g id="xtick_100">
     <g id="line2d_120">
      <g>
       <use xlink:href="#m098bec2d1c" x="225.029069" y="256.52" style="stroke: #000000; stroke-width: 0.6"/>
      </g>
     </g>
    </g>
    <g id="xtick_101">
     <g id="line2d_121">
      <g>
       <use xlink:href="#m098bec2d1c" x="238.378908" y="256.52" style="stroke: #000000; stroke-width: 0.6"/>
      </g>
     </g>
    </g>
    <g id="xtick_102">
     <g id="line2d_122">
      <g>
       <use xlink:href="#m098bec2d1c" x="245.053827" y="256.52" style="stroke: #000000; stroke-width: 0.6"/>
      </g>
     </g>
    </g>
    <g id="xtick_103">
     <g id="line2d_123">
      <g>
       <use xlink:href="#m098bec2d1c" x="251.728746" y="256.52" style="stroke: #000000; stroke-width: 0.6"/>
      </g>
     </g>
    </g>
    <g id="xtick_104">
     <g id="line2d_124">
      <g>
       <use xlink:href="#m098bec2d1c" x="258.403666" y="256.52" style="stroke: #000000; stroke-width: 0.6"/>
      </g>
     </g>
    </g>
    <g id="xtick_105">
     <g id="line2d_125">
      <g>
       <use xlink:href="#m098bec2d1c" x="271.753504" y="256.52" style="stroke: #000000; stroke-width: 0.6"/>
      </g>
     </g>
    </g>
   </g>
   <g id="matplotlib.axis_6">
    <g id="ytick_9">
     <g id="line2d_126">
      <path d="M 44.80625 244.110717 
L 276.759693 244.110717 
" clip-path="url(#pd878267dd5)" style="fill: none; stroke-dasharray: 2.96,1.28; stroke-dashoffset: 0; stroke: #000000; stroke-opacity: 0.1; stroke-width: 0.8"/>
     </g>
     <g id="line2d_127">
      <g>
       <use xlink:href="#mea8fa8ce8e" x="44.80625" y="244.110717" style="stroke: #000000; stroke-width: 0.8"/>
      </g>
     </g>
     <g id="text_18">
      <!-- 80% -->
      <g transform="translate(7.2 247.909936) scale(0.1 -0.1)">
       <defs>
        <path id="DejaVuSans-2212" d="M 678 2272 
L 4684 2272 
L 4684 1741 
L 678 1741 
L 678 2272 
z
" transform="scale(0.015625)"/>
       </defs>
       <use xlink:href="#DejaVuSans-2212"/>
       <use xlink:href="#DejaVuSans-38" transform="translate(83.789062 0)"/>
       <use xlink:href="#DejaVuSans-30" transform="translate(147.412109 0)"/>
       <use xlink:href="#DejaVuSans-25" transform="translate(211.035156 0)"/>
      </g>
     </g>
    </g>
    <g id="ytick_10">
     <g id="line2d_128">
      <path d="M 44.80625 219.351197 
L 276.759693 219.351197 
" clip-path="url(#pd878267dd5)" style="fill: none; stroke-dasharray: 2.96,1.28; stroke-dashoffset: 0; stroke: #000000; stroke-opacity: 0.1; stroke-width: 0.8"/>
     </g>
     <g id="line2d_129">
      <g>
       <use xlink:href="#mea8fa8ce8e" x="44.80625" y="219.351197" style="stroke: #000000; stroke-width: 0.8"/>
      </g>
     </g>
     <g id="text_19">
      <!-- 60% -->
      <g transform="translate(7.2 223.150416) scale(0.1 -0.1)">
       <use xlink:href="#DejaVuSans-2212"/>
       <use xlink:href="#DejaVuSans-36" transform="translate(83.789062 0)"/>
       <use xlink:href="#DejaVuSans-30" transform="translate(147.412109 0)"/>
       <use xlink:href="#DejaVuSans-25" transform="translate(211.035156 0)"/>
      </g>
     </g>
    </g>
    <g id="ytick_11">
     <g id="line2d_130">
      <path d="M 44.80625 194.591678 
L 276.759693 194.591678 
" clip-path="url(#pd878267dd5)" style="fill: none; stroke-dasharray: 2.96,1.28; stroke-dashoffset: 0; stroke: #000000; stroke-opacity: 0.1; stroke-width: 0.8"/>
     </g>
     <g id="line2d_131">
      <g>
       <use xlink:href="#mea8fa8ce8e" x="44.80625" y="194.591678" style="stroke: #000000; stroke-width: 0.8"/>
      </g>
     </g>
     <g id="text_20">
      <!-- 40% -->
      <g transform="translate(7.2 198.390896) scale(0.1 -0.1)">
       <use xlink:href="#DejaVuSans-2212"/>
       <use xlink:href="#DejaVuSans-34" transform="translate(83.789062 0)"/>
       <use xlink:href="#DejaVuSans-30" transform="translate(147.412109 0)"/>
       <use xlink:href="#DejaVuSans-25" transform="translate(211.035156 0)"/>
      </g>
     </g>
    </g>
    <g id="ytick_12">
     <g id="line2d_132">
      <path d="M 44.80625 169.832158 
L 276.759693 169.832158 
" clip-path="url(#pd878267dd5)" style="fill: none; stroke-dasharray: 2.96,1.28; stroke-dashoffset: 0; stroke: #000000; stroke-opacity: 0.1; stroke-width: 0.8"/>
     </g>
     <g id="line2d_133">
      <g>
       <use xlink:href="#mea8fa8ce8e" x="44.80625" y="169.832158" style="stroke: #000000; stroke-width: 0.8"/>
      </g>
     </g>
     <g id="text_21">
      <!-- 20% -->
      <g transform="translate(7.2 173.631377) scale(0.1 -0.1)">
       <use xlink:href="#DejaVuSans-2212"/>
       <use xlink:href="#DejaVuSans-32" transform="translate(83.789062 0)"/>
       <use xlink:href="#DejaVuSans-30" transform="translate(147.412109 0)"/>
       <use xlink:href="#DejaVuSans-25" transform="translate(211.035156 0)"/>
      </g>
     </g>
    </g>
    <g id="ytick_13">
     <g id="line2d_134">
      <path d="M 44.80625 145.072638 
L 276.759693 145.072638 
" clip-path="url(#pd878267dd5)" style="fill: none; stroke-dasharray: 2.96,1.28; stroke-dashoffset: 0; stroke: #000000; stroke-opacity: 0.1; stroke-width: 0.8"/>
     </g>
     <g id="line2d_135">
      <g>
       <use xlink:href="#mea8fa8ce8e" x="44.80625" y="145.072638" style="stroke: #000000; stroke-width: 0.8"/>
      </g>
     </g>
     <g id="text_22">
      <!-- 0% -->
      <g transform="translate(21.942188 148.871857) scale(0.1 -0.1)">
       <use xlink:href="#DejaVuSans-30"/>
       <use xlink:href="#DejaVuSans-25" transform="translate(63.623047 0)"/>
      </g>
     </g>
    </g>
   </g>
   <g id="line2d_136">
    <path d="M 51.481169 144.351364 
L 52.037413 145.13836 
L 52.593656 146.754111 
L 53.149899 147.889569 
L 53.706142 147.802694 
L 54.262386 147.602298 
L 54.818629 147.600641 
L 55.374872 149.804203 
L 55.931115 149.531785 
L 56.487359 151.714059 
L 57.043602 152.689859 
L 58.156088 153.738272 
L 58.712332 154.021933 
L 60.381062 153.96864 
L 61.493548 154.020287 
L 62.049791 154.239531 
L 62.606035 157.290634 
L 63.162278 154.654887 
L 64.274764 153.693401 
L 64.831008 156.327954 
L 65.387251 156.573945 
L 65.943494 155.402078 
L 66.499738 156.722096 
L 67.055981 156.465063 
L 67.612224 157.021139 
L 68.724711 156.19643 
L 69.280954 154.92118 
L 69.837197 156.06225 
L 70.949684 156.124557 
L 71.505927 157.723895 
L 72.06217 157.586541 
L 72.618413 157.56826 
L 73.174657 158.981878 
L 73.7309 158.993331 
L 74.287143 159.309867 
L 74.843387 159.257694 
L 75.39963 159.498811 
L 75.955873 159.5778 
L 76.512116 159.883733 
L 77.06836 159.0487 
L 77.624603 159.179015 
L 78.180846 159.178984 
L 78.737089 159.393439 
L 79.849576 160.368789 
L 80.405819 160.310404 
L 80.962063 162.739822 
L 82.074549 162.831519 
L 82.630792 165.265627 
L 83.187036 165.56181 
L 83.743279 166.197113 
L 84.299522 167.513029 
L 85.412009 167.498793 
L 85.968252 169.974915 
L 86.524495 173.086141 
L 87.080738 172.746899 
L 87.636982 175.699879 
L 88.193225 177.189034 
L 88.749468 177.460183 
L 89.305712 177.252912 
L 89.861955 177.357643 
L 90.418198 180.949774 
L 90.974441 182.99325 
L 91.530685 182.975562 
L 92.086928 183.910757 
L 92.643171 183.722655 
L 93.199414 183.337325 
L 93.755658 184.987064 
L 94.311901 184.511682 
L 94.868144 186.406875 
L 95.980631 186.405536 
L 96.536874 186.984768 
L 97.093117 186.636097 
L 97.649361 187.328462 
L 98.205604 187.433159 
L 98.761847 187.41923 
L 99.31809 189.080219 
L 99.874334 188.959225 
L 100.430577 190.282892 
L 100.98682 190.87068 
L 101.543064 191.747706 
L 102.099307 191.974254 
L 103.211793 191.89049 
L 103.768037 192.464568 
L 104.32428 192.499534 
L 104.880523 193.130458 
L 105.436766 193.059615 
L 105.99301 196.044112 
L 106.549253 197.197045 
L 107.661739 197.096803 
L 108.217983 198.358838 
L 108.774226 198.477912 
L 109.330469 199.457687 
L 109.886713 200.748078 
L 110.442956 200.743815 
L 110.999199 200.615851 
L 111.555442 201.563286 
L 112.111686 201.560604 
L 112.667929 203.183857 
L 113.780415 203.046002 
L 114.336659 202.654915 
L 114.892902 202.948553 
L 116.561632 203.018961 
L 117.117875 203.115578 
L 117.674118 202.731573 
L 118.230362 202.483542 
L 118.786605 202.46403 
L 119.342848 202.268839 
L 120.455335 202.223326 
L 121.011578 202.993061 
L 121.567821 203.204156 
L 122.124064 203.076335 
L 122.680308 203.076044 
L 123.236551 203.362182 
L 124.905281 203.187638 
L 126.017767 207.936128 
L 126.574011 207.634495 
L 127.130254 207.624613 
L 127.686497 208.553271 
L 128.798984 208.490233 
L 129.355227 208.36657 
L 129.91147 208.382785 
L 131.023957 208.152788 
L 131.5802 209.26815 
L 132.136443 209.948753 
L 132.692687 209.945735 
L 133.24893 210.09574 
L 133.805173 209.867595 
L 134.91766 210.151683 
L 135.473903 210.084246 
L 136.030146 209.165777 
L 137.142633 208.74161 
L 137.698876 210.240388 
L 138.255119 211.192073 
L 138.811363 211.088978 
L 139.367606 211.837358 
L 139.923849 211.762565 
L 140.480092 213.846153 
L 141.592579 213.820739 
L 142.148822 213.536518 
L 142.705065 213.532901 
L 143.261309 213.915683 
L 144.930039 213.842726 
L 145.486282 214.568504 
L 146.042525 214.392566 
L 146.598768 214.392416 
L 147.155012 214.869637 
L 147.711255 216.191277 
L 148.267498 215.996863 
L 148.823741 216.574726 
L 149.379985 218.641671 
L 149.936228 218.448677 
L 150.492471 218.41424 
L 151.048714 219.122073 
L 151.604958 218.875011 
L 152.161201 218.84297 
L 152.717444 218.96429 
L 153.273688 218.610664 
L 153.829931 218.737542 
L 154.386174 219.430693 
L 154.942417 219.420879 
L 155.498661 219.256124 
L 157.16739 219.223633 
L 158.279877 219.142386 
L 158.83612 218.458997 
L 159.392364 219.839752 
L 159.948607 219.942759 
L 160.50485 219.742779 
L 161.061093 219.742188 
L 161.617337 220.320569 
L 162.17358 222.291666 
L 164.398553 222.283999 
L 164.954796 221.215834 
L 165.51104 220.972138 
L 166.067283 221.580467 
L 166.623526 221.757111 
L 167.179769 221.570007 
L 167.736013 222.792262 
L 168.292256 222.579558 
L 168.848499 222.612876 
L 169.404742 222.437068 
L 169.960986 222.001912 
L 170.517229 222.000641 
L 171.073472 222.781608 
L 171.629715 223.061245 
L 172.185959 222.861799 
L 172.742202 222.900538 
L 173.854689 222.773251 
L 174.410932 222.720383 
L 174.967175 223.497377 
L 176.079662 223.444161 
L 177.748391 223.008685 
L 178.304635 223.424367 
L 178.860878 223.367778 
L 179.417121 223.170824 
L 179.973365 223.164813 
L 180.529608 223.504797 
L 181.085851 224.34794 
L 183.310824 224.307809 
L 183.867067 224.158445 
L 184.423311 226.379242 
L 184.979554 226.354538 
L 185.535797 226.491028 
L 186.09204 226.952071 
L 187.204527 227.031793 
L 189.4295 226.330393 
L 189.985743 227.222323 
L 190.541987 227.277893 
L 191.09823 227.690151 
L 191.654473 227.715725 
L 192.210716 229.114908 
L 192.76696 229.043062 
L 193.323203 230.804062 
L 194.43569 231.154926 
L 194.991933 231.138618 
L 195.548176 230.734963 
L 196.104419 231.948554 
L 196.660663 231.990891 
L 197.773149 232.629987 
L 198.885636 232.564145 
L 199.441879 233.045309 
L 199.998122 232.948241 
L 200.554365 234.005526 
L 201.110609 233.971382 
L 201.666852 234.843354 
L 202.223095 234.744876 
L 202.779339 236.327254 
L 203.335582 237.271741 
L 205.004312 237.082147 
L 205.560555 237.086006 
L 206.116798 237.632751 
L 207.229285 237.577389 
L 207.785528 237.965934 
L 208.341771 239.406241 
L 208.898015 239.374659 
L 209.454258 239.595772 
L 210.010501 239.510658 
L 210.566744 240.605071 
L 211.122988 240.720774 
L 212.791717 240.718526 
L 213.347961 240.475671 
L 213.904204 241.290727 
L 214.460447 241.290355 
L 215.016691 240.827804 
L 215.572934 241.184728 
L 216.129177 241.134858 
L 216.68542 241.837774 
L 217.241664 241.839311 
L 217.797907 242.028603 
L 220.579123 241.766206 
L 221.135366 242.119364 
L 222.247853 242.037895 
L 223.36034 242.273459 
L 225.029069 242.136911 
L 225.585313 242.502665 
L 226.697799 242.531648 
L 227.254042 242.763811 
L 228.366529 243.542145 
L 228.922772 243.89724 
L 230.035259 243.945113 
L 230.591502 243.812074 
L 232.260232 243.800001 
L 232.816475 243.987949 
L 234.485205 244.018661 
L 235.597691 243.957278 
L 236.153935 244.174317 
L 236.710178 244.125368 
L 237.266421 244.392398 
L 239.491394 244.348792 
L 242.272611 244.254349 
L 242.828854 244.81318 
L 243.385097 244.90886 
L 243.941341 245.831705 
L 244.497584 245.8216 
L 245.053827 246.080457 
L 246.166314 246.186688 
L 246.722557 246.055024 
L 247.2788 246.049068 
L 247.835043 247.151728 
L 248.94753 247.050678 
L 249.503773 247.620888 
L 250.060016 247.444556 
L 250.61626 247.547983 
L 251.172503 247.522138 
L 251.728746 247.835912 
L 252.841233 247.78562 
L 253.953719 248.352042 
L 254.509963 248.533228 
L 256.178692 249.830976 
L 257.291179 249.840168 
L 257.847422 249.594054 
L 258.403666 249.580095 
L 258.959909 250.255623 
L 260.072395 250.206736 
L 261.184882 250.610854 
L 261.741125 250.475206 
L 262.297368 250.614082 
L 262.853612 251.178636 
L 263.409855 251.161893 
L 263.966098 250.89963 
L 264.522341 250.796695 
L 265.634828 250.87335 
L 266.191071 250.873215 
L 266.747315 250.580244 
L 267.859801 250.507019 
L 269.528531 250.412455 
L 270.084774 250.307066 
L 270.641017 250.736327 
L 271.197261 250.935666 
L 272.865991 250.905715 
L 273.422234 250.779552 
L 276.759693 250.706729 
L 276.759693 250.706729 
" clip-path="url(#pd878267dd5)" style="fill: none; stroke: #2ca02c; stroke-width: 1.5; stroke-linecap: square"/>
   </g>
   <g id="patch_15">
    <path d="M 44.80625 256.52 
L 44.80625 139.01 
" style="fill: none"/>
   </g>
   <g id="patch_16">
    <path d="M 276.759693 256.52 
L 276.759693 139.01 
" style="fill: none"/>
   </g>
   <g id="patch_17">
    <path d="M 44.80625 256.52 
L 276.759693 256.52 
" style="fill: none; stroke: #000000; stroke-width: 0.8; stroke-linejoin: miter; stroke-linecap: square"/>
   </g>
   <g id="patch_18">
    <path d="M 44.80625 139.01 
L 276.759693 139.01 
" style="fill: none"/>
   </g>
   <g id="legend_3">
    <g id="patch_19">
     <path d="M 216.739381 161.688125 
L 269.759693 161.688125 
Q 271.759693 161.688125 271.759693 159.688125 
L 271.759693 146.01 
Q 271.759693 144.01 269.759693 144.01 
L 216.739381 144.01 
Q 214.739381 144.01 214.739381 146.01 
L 214.739381 159.688125 
Q 214.739381 161.688125 216.739381 161.688125 
L 216.739381 161.688125 
z
" style="fill: none; opacity: 0"/>
    </g>
    <g id="line2d_137">
     <path d="M 218.739381 152.108437 
L 228.739381 152.108437 
L 238.739381 152.108437 
" style="fill: none; stroke: #2ca02c; stroke-width: 1.5; stroke-linecap: square"/>
    </g>
    <g id="text_23">
     <!-- GLD -->
     <g transform="translate(246.739381 155.608437) scale(0.1 -0.1)">
      <defs>
       <path id="DejaVuSans-47" d="M 3809 666 
L 3809 1919 
L 2778 1919 
L 2778 2438 
L 4434 2438 
L 4434 434 
Q 4069 175 3628 42 
Q 3188 -91 2688 -91 
Q 1594 -91 976 548 
Q 359 1188 359 2328 
Q 359 3472 976 4111 
Q 1594 4750 2688 4750 
Q 3144 4750 3555 4637 
Q 3966 4525 4313 4306 
L 4313 3634 
Q 3963 3931 3569 4081 
Q 3175 4231 2741 4231 
Q 1884 4231 1454 3753 
Q 1025 3275 1025 2328 
Q 1025 1384 1454 906 
Q 1884 428 2741 428 
Q 3075 428 3337 486 
Q 3600 544 3809 666 
z
" transform="scale(0.015625)"/>
       <path id="DejaVuSans-44" d="M 1259 4147 
L 1259 519 
L 2022 519 
Q 2988 519 3436 956 
Q 3884 1394 3884 2338 
Q 3884 3275 3436 3711 
Q 2988 4147 2022 4147 
L 1259 4147 
z
M 628 4666 
L 1925 4666 
Q 3281 4666 3915 4102 
Q 4550 3538 4550 2338 
Q 4550 1131 3912 565 
Q 3275 0 1925 0 
L 628 0 
L 628 4666 
z
" transform="scale(0.015625)"/>
      </defs>
      <use xlink:href="#DejaVuSans-47"/>
      <use xlink:href="#DejaVuSans-4c" transform="translate(77.490234 0)"/>
      <use xlink:href="#DejaVuSans-44" transform="translate(133.203125 0)"/>
     </g>
    </g>
   </g>
  </g>
  <g id="axes_4">
   <g id="patch_20">
    <path d="M 327.36125 256.52 
L 559.314693 256.52 
L 559.314693 139.01 
L 327.36125 139.01 
L 327.36125 256.52 
z
" style="fill: none"/>
   </g>
   <g id="matplotlib.axis_7">
    <g id="xtick_106">
     <g id="line2d_138">
      <g>
       <use xlink:href="#mcb2061740e" x="347.386008" y="256.52" style="stroke: #000000; stroke-width: 0.8"/>
      </g>
     </g>
     <g id="text_24">
      <!-- 1994 -->
      <g transform="translate(334.661008 271.118437) scale(0.1 -0.1)">
       <use xlink:href="#DejaVuSans-31"/>
       <use xlink:href="#DejaVuSans-39" transform="translate(63.623047 0)"/>
       <use xlink:href="#DejaVuSans-39" transform="translate(127.246094 0)"/>
       <use xlink:href="#DejaVuSans-34" transform="translate(190.869141 0)"/>
      </g>
     </g>
    </g>
    <g id="xtick_107">
     <g id="line2d_139">
      <g>
       <use xlink:href="#mcb2061740e" x="380.760604" y="256.52" style="stroke: #000000; stroke-width: 0.8"/>
      </g>
     </g>
     <g id="text_25">
      <!-- 1999 -->
      <g transform="translate(368.035604 271.118437) scale(0.1 -0.1)">
       <use xlink:href="#DejaVuSans-31"/>
       <use xlink:href="#DejaVuSans-39" transform="translate(63.623047 0)"/>
       <use xlink:href="#DejaVuSans-39" transform="translate(127.246094 0)"/>
       <use xlink:href="#DejaVuSans-39" transform="translate(190.869141 0)"/>
      </g>
     </g>
    </g>
    <g id="xtick_108">
     <g id="line2d_140">
      <g>
       <use xlink:href="#mcb2061740e" x="414.1352" y="256.52" style="stroke: #000000; stroke-width: 0.8"/>
      </g>
     </g>
     <g id="text_26">
      <!-- 2004 -->
      <g transform="translate(401.4102 271.118437) scale(0.1 -0.1)">
       <use xlink:href="#DejaVuSans-32"/>
       <use xlink:href="#DejaVuSans-30" transform="translate(63.623047 0)"/>
       <use xlink:href="#DejaVuSans-30" transform="translate(127.246094 0)"/>
       <use xlink:href="#DejaVuSans-34" transform="translate(190.869141 0)"/>
      </g>
     </g>
    </g>
    <g id="xtick_109">
     <g id="line2d_141">
      <g>
       <use xlink:href="#mcb2061740e" x="447.509796" y="256.52" style="stroke: #000000; stroke-width: 0.8"/>
      </g>
     </g>
     <g id="text_27">
      <!-- 2009 -->
      <g transform="translate(434.784796 271.118437) scale(0.1 -0.1)">
       <use xlink:href="#DejaVuSans-32"/>
       <use xlink:href="#DejaVuSans-30" transform="translate(63.623047 0)"/>
       <use xlink:href="#DejaVuSans-30" transform="translate(127.246094 0)"/>
       <use xlink:href="#DejaVuSans-39" transform="translate(190.869141 0)"/>
      </g>
     </g>
    </g>
    <g id="xtick_110">
     <g id="line2d_142">
      <g>
       <use xlink:href="#mcb2061740e" x="480.884392" y="256.52" style="stroke: #000000; stroke-width: 0.8"/>
      </g>
     </g>
     <g id="text_28">
      <!-- 2014 -->
      <g transform="translate(468.159392 271.118437) scale(0.1 -0.1)">
       <use xlink:href="#DejaVuSans-32"/>
       <use xlink:href="#DejaVuSans-30" transform="translate(63.623047 0)"/>
       <use xlink:href="#DejaVuSans-31" transform="translate(127.246094 0)"/>
       <use xlink:href="#DejaVuSans-34" transform="translate(190.869141 0)"/>
      </g>
     </g>
    </g>
    <g id="xtick_111">
     <g id="line2d_143">
      <g>
       <use xlink:href="#mcb2061740e" x="514.258989" y="256.52" style="stroke: #000000; stroke-width: 0.8"/>
      </g>
     </g>
     <g id="text_29">
      <!-- 2019 -->
      <g transform="translate(501.533989 271.118437) scale(0.1 -0.1)">
       <use xlink:href="#DejaVuSans-32"/>
       <use xlink:href="#DejaVuSans-30" transform="translate(63.623047 0)"/>
       <use xlink:href="#DejaVuSans-31" transform="translate(127.246094 0)"/>
       <use xlink:href="#DejaVuSans-39" transform="translate(190.869141 0)"/>
      </g>
     </g>
    </g>
    <g id="xtick_112">
     <g id="line2d_144">
      <g>
       <use xlink:href="#mcb2061740e" x="547.633585" y="256.52" style="stroke: #000000; stroke-width: 0.8"/>
      </g>
     </g>
     <g id="text_30">
      <!-- 2024 -->
      <g transform="translate(534.908585 271.118437) scale(0.1 -0.1)">
       <use xlink:href="#DejaVuSans-32"/>
       <use xlink:href="#DejaVuSans-30" transform="translate(63.623047 0)"/>
       <use xlink:href="#DejaVuSans-32" transform="translate(127.246094 0)"/>
       <use xlink:href="#DejaVuSans-34" transform="translate(190.869141 0)"/>
      </g>
     </g>
    </g>
    <g id="xtick_113">
     <g id="line2d_145">
      <g>
       <use xlink:href="#m098bec2d1c" x="327.36125" y="256.52" style="stroke: #000000; stroke-width: 0.6"/>
      </g>
     </g>
    </g>
    <g id="xtick_114">
     <g id="line2d_146">
      <g>
       <use xlink:href="#m098bec2d1c" x="334.036169" y="256.52" style="stroke: #000000; stroke-width: 0.6"/>
      </g>
     </g>
    </g>
    <g id="xtick_115">
     <g id="line2d_147">
      <g>
       <use xlink:href="#m098bec2d1c" x="340.711088" y="256.52" style="stroke: #000000; stroke-width: 0.6"/>
      </g>
     </g>
    </g>
    <g id="xtick_116">
     <g id="line2d_148">
      <g>
       <use xlink:href="#m098bec2d1c" x="354.060927" y="256.52" style="stroke: #000000; stroke-width: 0.6"/>
      </g>
     </g>
    </g>
    <g id="xtick_117">
     <g id="line2d_149">
      <g>
       <use xlink:href="#m098bec2d1c" x="360.735846" y="256.52" style="stroke: #000000; stroke-width: 0.6"/>
      </g>
     </g>
    </g>
    <g id="xtick_118">
     <g id="line2d_150">
      <g>
       <use xlink:href="#m098bec2d1c" x="367.410765" y="256.52" style="stroke: #000000; stroke-width: 0.6"/>
      </g>
     </g>
    </g>
    <g id="xtick_119">
     <g id="line2d_151">
      <g>
       <use xlink:href="#m098bec2d1c" x="374.085685" y="256.52" style="stroke: #000000; stroke-width: 0.6"/>
      </g>
     </g>
    </g>
    <g id="xtick_120">
     <g id="line2d_152">
      <g>
       <use xlink:href="#m098bec2d1c" x="387.435523" y="256.52" style="stroke: #000000; stroke-width: 0.6"/>
      </g>
     </g>
    </g>
    <g id="xtick_121">
     <g id="line2d_153">
      <g>
       <use xlink:href="#m098bec2d1c" x="394.110442" y="256.52" style="stroke: #000000; stroke-width: 0.6"/>
      </g>
     </g>
    </g>
    <g id="xtick_122">
     <g id="line2d_154">
      <g>
       <use xlink:href="#m098bec2d1c" x="400.785362" y="256.52" style="stroke: #000000; stroke-width: 0.6"/>
      </g>
     </g>
    </g>
    <g id="xtick_123">
     <g id="line2d_155">
      <g>
       <use xlink:href="#m098bec2d1c" x="407.460281" y="256.52" style="stroke: #000000; stroke-width: 0.6"/>
      </g>
     </g>
    </g>
    <g id="xtick_124">
     <g id="line2d_156">
      <g>
       <use xlink:href="#m098bec2d1c" x="420.810119" y="256.52" style="stroke: #000000; stroke-width: 0.6"/>
      </g>
     </g>
    </g>
    <g id="xtick_125">
     <g id="line2d_157">
      <g>
       <use xlink:href="#m098bec2d1c" x="427.485039" y="256.52" style="stroke: #000000; stroke-width: 0.6"/>
      </g>
     </g>
    </g>
    <g id="xtick_126">
     <g id="line2d_158">
      <g>
       <use xlink:href="#m098bec2d1c" x="434.159958" y="256.52" style="stroke: #000000; stroke-width: 0.6"/>
      </g>
     </g>
    </g>
    <g id="xtick_127">
     <g id="line2d_159">
      <g>
       <use xlink:href="#m098bec2d1c" x="440.834877" y="256.52" style="stroke: #000000; stroke-width: 0.6"/>
      </g>
     </g>
    </g>
    <g id="xtick_128">
     <g id="line2d_160">
      <g>
       <use xlink:href="#m098bec2d1c" x="454.184715" y="256.52" style="stroke: #000000; stroke-width: 0.6"/>
      </g>
     </g>
    </g>
    <g id="xtick_129">
     <g id="line2d_161">
      <g>
       <use xlink:href="#m098bec2d1c" x="460.859635" y="256.52" style="stroke: #000000; stroke-width: 0.6"/>
      </g>
     </g>
    </g>
    <g id="xtick_130">
     <g id="line2d_162">
      <g>
       <use xlink:href="#m098bec2d1c" x="467.534554" y="256.52" style="stroke: #000000; stroke-width: 0.6"/>
      </g>
     </g>
    </g>
    <g id="xtick_131">
     <g id="line2d_163">
      <g>
       <use xlink:href="#m098bec2d1c" x="474.209473" y="256.52" style="stroke: #000000; stroke-width: 0.6"/>
      </g>
     </g>
    </g>
    <g id="xtick_132">
     <g id="line2d_164">
      <g>
       <use xlink:href="#m098bec2d1c" x="487.559312" y="256.52" style="stroke: #000000; stroke-width: 0.6"/>
      </g>
     </g>
    </g>
    <g id="xtick_133">
     <g id="line2d_165">
      <g>
       <use xlink:href="#m098bec2d1c" x="494.234231" y="256.52" style="stroke: #000000; stroke-width: 0.6"/>
      </g>
     </g>
    </g>
    <g id="xtick_134">
     <g id="line2d_166">
      <g>
       <use xlink:href="#m098bec2d1c" x="500.90915" y="256.52" style="stroke: #000000; stroke-width: 0.6"/>
      </g>
     </g>
    </g>
    <g id="xtick_135">
     <g id="line2d_167">
      <g>
       <use xlink:href="#m098bec2d1c" x="507.584069" y="256.52" style="stroke: #000000; stroke-width: 0.6"/>
      </g>
     </g>
    </g>
    <g id="xtick_136">
     <g id="line2d_168">
      <g>
       <use xlink:href="#m098bec2d1c" x="520.933908" y="256.52" style="stroke: #000000; stroke-width: 0.6"/>
      </g>
     </g>
    </g>
    <g id="xtick_137">
     <g id="line2d_169">
      <g>
       <use xlink:href="#m098bec2d1c" x="527.608827" y="256.52" style="stroke: #000000; stroke-width: 0.6"/>
      </g>
     </g>
    </g>
    <g id="xtick_138">
     <g id="line2d_170">
      <g>
       <use xlink:href="#m098bec2d1c" x="534.283746" y="256.52" style="stroke: #000000; stroke-width: 0.6"/>
      </g>
     </g>
    </g>
    <g id="xtick_139">
     <g id="line2d_171">
      <g>
       <use xlink:href="#m098bec2d1c" x="540.958666" y="256.52" style="stroke: #000000; stroke-width: 0.6"/>
      </g>
     </g>
    </g>
    <g id="xtick_140">
     <g id="line2d_172">
      <g>
       <use xlink:href="#m098bec2d1c" x="554.308504" y="256.52" style="stroke: #000000; stroke-width: 0.6"/>
      </g>
     </g>
    </g>
   </g>
   <g id="matplotlib.axis_8">
    <g id="ytick_14">
     <g id="line2d_173">
      <path d="M 327.36125 236.362786 
L 559.314693 236.362786 
" clip-path="url(#p76806fa8b0)" style="fill: none; stroke-dasharray: 2.96,1.28; stroke-dashoffset: 0; stroke: #000000; stroke-opacity: 0.1; stroke-width: 0.8"/>
     </g>
     <g id="line2d_174">
      <g>
       <use xlink:href="#mea8fa8ce8e" x="327.36125" y="236.362786" style="stroke: #000000; stroke-width: 0.8"/>
      </g>
     </g>
     <g id="text_31">
      <!-- 50% -->
      <g transform="translate(289.755 240.162005) scale(0.1 -0.1)">
       <defs>
        <path id="DejaVuSans-35" d="M 691 4666 
L 3169 4666 
L 3169 4134 
L 1269 4134 
L 1269 2991 
Q 1406 3038 1543 3061 
Q 1681 3084 1819 3084 
Q 2600 3084 3056 2656 
Q 3513 2228 3513 1497 
Q 3513 744 3044 326 
Q 2575 -91 1722 -91 
Q 1428 -91 1123 -41 
Q 819 9 494 109 
L 494 744 
Q 775 591 1075 516 
Q 1375 441 1709 441 
Q 2250 441 2565 725 
Q 2881 1009 2881 1497 
Q 2881 1984 2565 2268 
Q 2250 2553 1709 2553 
Q 1456 2553 1204 2497 
Q 953 2441 691 2322 
L 691 4666 
z
" transform="scale(0.015625)"/>
       </defs>
       <use xlink:href="#DejaVuSans-2212"/>
       <use xlink:href="#DejaVuSans-35" transform="translate(83.789062 0)"/>
       <use xlink:href="#DejaVuSans-30" transform="translate(147.412109 0)"/>
       <use xlink:href="#DejaVuSans-25" transform="translate(211.035156 0)"/>
      </g>
     </g>
    </g>
    <g id="ytick_15">
     <g id="line2d_175">
      <path d="M 327.36125 212.01157 
L 559.314693 212.01157 
" clip-path="url(#p76806fa8b0)" style="fill: none; stroke-dasharray: 2.96,1.28; stroke-dashoffset: 0; stroke: #000000; stroke-opacity: 0.1; stroke-width: 0.8"/>
     </g>
     <g id="line2d_176">
      <g>
       <use xlink:href="#mea8fa8ce8e" x="327.36125" y="212.01157" style="stroke: #000000; stroke-width: 0.8"/>
      </g>
     </g>
     <g id="text_32">
      <!-- 25% -->
      <g transform="translate(289.755 215.810788) scale(0.1 -0.1)">
       <use xlink:href="#DejaVuSans-2212"/>
       <use xlink:href="#DejaVuSans-32" transform="translate(83.789062 0)"/>
       <use xlink:href="#DejaVuSans-35" transform="translate(147.412109 0)"/>
       <use xlink:href="#DejaVuSans-25" transform="translate(211.035156 0)"/>
      </g>
     </g>
    </g>
    <g id="ytick_16">
     <g id="line2d_177">
      <path d="M 327.36125 187.660353 
L 559.314693 187.660353 
" clip-path="url(#p76806fa8b0)" style="fill: none; stroke-dasharray: 2.96,1.28; stroke-dashoffset: 0; stroke: #000000; stroke-opacity: 0.1; stroke-width: 0.8"/>
     </g>
     <g id="line2d_178">
      <g>
       <use xlink:href="#mea8fa8ce8e" x="327.36125" y="187.660353" style="stroke: #000000; stroke-width: 0.8"/>
      </g>
     </g>
     <g id="text_33">
      <!-- 0% -->
      <g transform="translate(304.497188 191.459572) scale(0.1 -0.1)">
       <use xlink:href="#DejaVuSans-30"/>
       <use xlink:href="#DejaVuSans-25" transform="translate(63.623047 0)"/>
      </g>
     </g>
    </g>
    <g id="ytick_17">
     <g id="line2d_179">
      <path d="M 327.36125 163.309137 
L 559.314693 163.309137 
" clip-path="url(#p76806fa8b0)" style="fill: none; stroke-dasharray: 2.96,1.28; stroke-dashoffset: 0; stroke: #000000; stroke-opacity: 0.1; stroke-width: 0.8"/>
     </g>
     <g id="line2d_180">
      <g>
       <use xlink:href="#mea8fa8ce8e" x="327.36125" y="163.309137" style="stroke: #000000; stroke-width: 0.8"/>
      </g>
     </g>
     <g id="text_34">
      <!-- 25% -->
      <g transform="translate(298.134688 167.108355) scale(0.1 -0.1)">
       <use xlink:href="#DejaVuSans-32"/>
       <use xlink:href="#DejaVuSans-35" transform="translate(63.623047 0)"/>
       <use xlink:href="#DejaVuSans-25" transform="translate(127.246094 0)"/>
      </g>
     </g>
    </g>
   </g>
   <g id="line2d_181">
    <path d="M 334.036169 186.162669 
L 334.592413 186.675188 
L 335.148656 186.083973 
L 336.261142 183.523389 
L 337.373629 183.576037 
L 337.929872 183.532771 
L 338.486115 183.308438 
L 339.042359 184.845552 
L 339.598602 185.63473 
L 340.154845 185.49979 
L 340.711088 184.706888 
L 341.267332 184.113143 
L 342.936062 184.096198 
L 343.492305 184.587797 
L 344.604791 184.569559 
L 345.161035 184.431946 
L 345.717278 186.871989 
L 346.273521 190.692313 
L 346.829764 190.80232 
L 347.386008 183.718468 
L 347.942251 185.398086 
L 348.498494 185.799459 
L 349.054738 185.076722 
L 349.610981 184.971134 
L 350.167224 183.211676 
L 350.723467 181.865641 
L 351.279711 187.946551 
L 351.835954 188.54101 
L 352.392197 188.40466 
L 352.94844 189.616287 
L 353.504684 187.69581 
L 354.060927 189.665007 
L 354.61717 189.065564 
L 355.173413 189.060486 
L 355.729657 186.522183 
L 356.2859 186.559617 
L 356.842143 187.540823 
L 357.398387 187.3738 
L 357.95463 186.194261 
L 358.510873 185.902565 
L 359.067116 185.411746 
L 359.62336 183.569574 
L 360.179603 173.996653 
L 360.735846 173.996653 
L 361.292089 173.509549 
L 361.848333 169.460578 
L 362.404576 166.730023 
L 362.960819 166.949873 
L 363.517063 163.790001 
L 364.073306 163.792443 
L 364.629549 163.044602 
L 365.185792 159.445435 
L 365.742036 159.687037 
L 366.298279 150.874646 
L 366.854522 150.000349 
L 367.967009 150.028826 
L 368.523252 148.198834 
L 369.079495 145.444005 
L 369.635738 145.252453 
L 370.191982 151.871207 
L 370.748225 147.506402 
L 371.304468 144.688915 
L 371.860712 144.411457 
L 372.416955 144.351364 
L 372.973198 156.820302 
L 373.529441 163.836034 
L 374.085685 163.843971 
L 374.641928 169.738822 
L 375.198171 169.86319 
L 375.754414 170.800495 
L 376.866901 175.510635 
L 377.423144 183.09941 
L 378.535631 183.097061 
L 379.091874 184.992494 
L 379.648117 195.86928 
L 380.204361 196.515771 
L 380.760604 196.372246 
L 381.316847 198.386173 
L 381.87309 184.935413 
L 382.429334 184.635597 
L 382.985577 186.289132 
L 383.54182 184.75051 
L 384.098064 182.5284 
L 384.654307 178.870848 
L 385.21055 178.870848 
L 385.766793 181.423311 
L 386.323037 180.119311 
L 386.87928 179.805145 
L 387.435523 176.075826 
L 387.991766 175.847977 
L 388.54801 176.995002 
L 389.104253 177.649569 
L 389.660496 167.74183 
L 390.216739 167.590706 
L 390.772983 173.162058 
L 391.329226 157.63018 
L 391.885469 159.068046 
L 392.441713 158.90209 
L 392.997956 158.865029 
L 393.554199 159.559788 
L 394.110442 163.489482 
L 394.666686 163.50445 
L 395.222929 166.948807 
L 395.779172 166.893795 
L 396.335415 168.187917 
L 396.891659 170.702492 
L 398.004145 170.620612 
L 398.560389 170.620817 
L 399.116632 170.787308 
L 400.229118 171.739595 
L 400.785362 172.826457 
L 401.341605 172.798615 
L 401.897848 170.561367 
L 403.010335 170.56238 
L 403.566578 169.427329 
L 404.122821 169.36212 
L 404.679064 168.913215 
L 405.235308 168.912577 
L 405.791551 170.221103 
L 406.904038 170.272526 
L 407.460281 169.938713 
L 408.016524 159.430446 
L 408.572767 175.679736 
L 409.129011 179.167957 
L 411.353984 179.018321 
L 411.910227 179.361874 
L 413.022714 178.886962 
L 414.1352 178.472716 
L 414.691443 172.209479 
L 415.80393 172.123973 
L 416.360173 171.002531 
L 416.916416 174.350079 
L 417.47266 168.870282 
L 418.028903 168.974719 
L 418.585146 157.662018 
L 419.141389 156.794978 
L 419.697633 157.174219 
L 420.253876 168.820575 
L 420.810119 165.557149 
L 421.366363 165.175527 
L 421.922606 158.60671 
L 422.478849 159.628092 
L 423.035092 160.408275 
L 424.147579 160.071494 
L 424.703822 149.298876 
L 425.260065 149.298857 
L 425.816309 160.959659 
L 426.928795 160.949003 
L 427.485039 160.948838 
L 428.041282 171.211474 
L 428.597525 170.68531 
L 429.153768 170.685144 
L 429.710012 171.225604 
L 430.266255 170.508052 
L 430.822498 170.260066 
L 431.378741 177.098724 
L 431.934985 187.602568 
L 432.491228 188.639183 
L 433.047471 188.592707 
L 433.603714 193.77253 
L 434.159958 194.208891 
L 434.716201 194.127874 
L 435.272444 193.558346 
L 435.828688 193.445879 
L 436.384931 193.540745 
L 436.941174 191.510503 
L 437.497417 191.479917 
L 438.053661 192.567226 
L 439.72239 192.512235 
L 440.278634 192.378083 
L 440.834877 192.378083 
L 441.39112 189.699843 
L 441.947364 190.127557 
L 442.503607 189.847216 
L 443.05985 188.686838 
L 443.616093 188.684111 
L 444.172337 200.067397 
L 444.72858 202.857682 
L 446.953553 202.877583 
L 447.509796 206.819753 
L 448.06604 208.419115 
L 448.622283 206.203959 
L 449.178526 206.335914 
L 449.734769 205.656267 
L 450.291013 205.746553 
L 451.403499 205.536072 
L 451.959742 205.657086 
L 452.515986 204.516953 
L 453.072229 204.516746 
L 453.628472 204.335193 
L 454.184715 207.900452 
L 454.740959 207.290612 
L 455.853445 207.101936 
L 456.409689 207.237092 
L 456.965932 207.234752 
L 457.522175 205.761929 
L 458.078418 205.769644 
L 459.190905 205.437896 
L 459.747148 205.193248 
L 460.859635 204.451836 
L 461.415878 204.40493 
L 461.972121 203.824587 
L 462.528365 203.818998 
L 463.084608 207.026918 
L 463.640851 210.975252 
L 465.865824 210.871327 
L 466.422067 210.56898 
L 466.978311 211.43055 
L 467.534554 211.421214 
L 468.090797 210.505473 
L 468.64704 211.543557 
L 469.759527 211.735466 
L 470.31577 211.66437 
L 470.872014 209.451949 
L 471.428257 209.04121 
L 471.9845 209.272433 
L 472.540743 211.385258 
L 473.096987 210.97517 
L 473.65323 211.15468 
L 474.209473 210.907035 
L 474.765716 213.484526 
L 475.32196 213.352483 
L 475.878203 215.370951 
L 476.99069 215.475478 
L 477.546933 215.451999 
L 478.103176 215.089555 
L 478.659419 216.647285 
L 479.215663 217.168169 
L 479.771906 217.219777 
L 480.328149 217.019586 
L 481.996879 216.952658 
L 482.553122 216.758339 
L 483.109365 217.024287 
L 483.665609 216.998315 
L 484.221852 220.140147 
L 484.778095 220.976111 
L 485.890582 227.288917 
L 486.446825 232.508064 
L 487.003068 235.298718 
L 488.115555 235.291755 
L 488.671798 237.602033 
L 489.228041 235.226626 
L 489.784285 235.600504 
L 490.340528 235.696934 
L 490.896771 240.680964 
L 491.453015 240.677047 
L 492.009258 242.080064 
L 492.565501 242.083203 
L 493.121744 244.291154 
L 493.677988 246.960401 
L 494.790474 246.960722 
L 495.346717 246.472282 
L 495.902961 245.69756 
L 496.459204 245.440251 
L 497.015447 245.44021 
L 497.571691 248.318246 
L 498.127934 248.017649 
L 498.684177 247.462607 
L 499.24042 247.987896 
L 499.796664 247.987238 
L 500.352907 247.25256 
L 501.465393 247.273781 
L 502.021637 248.313214 
L 502.57788 248.591434 
L 503.134123 248.741046 
L 503.690366 249.064763 
L 504.24661 248.909981 
L 504.802853 248.918615 
L 505.359096 248.74902 
L 505.91534 248.157656 
L 507.027826 247.80609 
L 507.584069 247.804953 
L 508.140313 248.871196 
L 508.696556 248.75992 
L 509.252799 248.144691 
L 509.809042 247.732326 
L 510.365286 247.514185 
L 510.921529 248.280131 
L 511.477772 247.998872 
L 512.034016 247.488963 
L 512.590259 247.583501 
L 513.146502 250.980655 
L 513.702745 250.980655 
L 514.815232 250.591448 
L 515.927718 250.19062 
L 518.708935 250.090049 
L 522.602638 249.97441 
L 523.158881 249.594208 
L 524.827611 249.405153 
L 525.940097 251.178636 
L 526.496341 248.230914 
L 527.052584 248.21665 
L 527.608827 247.411997 
L 528.16507 247.263945 
L 528.721314 247.454844 
L 529.277557 246.889187 
L 529.8338 246.886081 
L 530.390043 245.800156 
L 530.946287 245.697417 
L 531.50253 246.02004 
L 532.058773 244.129965 
L 532.615016 242.781995 
L 533.17126 245.913838 
L 533.727503 245.810186 
L 534.283746 241.772689 
L 534.83999 241.674952 
L 535.396233 241.42591 
L 535.952476 240.071195 
L 536.508719 239.04804 
L 537.064963 241.058469 
L 537.621206 241.322884 
L 538.177449 242.364016 
L 538.733692 244.634753 
L 539.846179 244.567224 
L 540.402422 244.865225 
L 540.958666 244.865701 
L 541.514909 245.978588 
L 542.071152 245.979045 
L 542.627395 246.098587 
L 543.183639 248.148602 
L 543.739882 247.386936 
L 544.296125 246.062875 
L 544.852368 245.956188 
L 545.408612 245.007903 
L 545.964855 245.028005 
L 546.521098 246.056813 
L 547.077341 246.579295 
L 547.633585 245.994369 
L 550.971044 245.785809 
L 551.527288 245.956527 
L 552.639774 245.882874 
L 553.196017 246.10073 
L 553.752261 245.194705 
L 555.420991 245.244607 
L 555.977234 245.701966 
L 556.533477 245.652959 
L 557.08972 244.592309 
L 557.645964 244.201009 
L 559.314693 244.173052 
L 559.314693 244.173052 
" clip-path="url(#p76806fa8b0)" style="fill: none; stroke: #d62728; stroke-width: 1.5; stroke-linecap: square"/>
   </g>
   <g id="patch_21">
    <path d="M 327.36125 256.52 
L 327.36125 139.01 
" style="fill: none"/>
   </g>
   <g id="patch_22">
    <path d="M 559.314693 256.52 
L 559.314693 139.01 
" style="fill: none"/>
   </g>
   <g id="patch_23">
    <path d="M 327.36125 256.52 
L 559.314693 256.52 
" style="fill: none; stroke: #000000; stroke-width: 0.8; stroke-linejoin: miter; stroke-linecap: square"/>
   </g>
   <g id="patch_24">
    <path d="M 327.36125 139.01 
L 559.314693 139.01 
" style="fill: none"/>
   </g>
   <g id="legend_4">
    <g id="patch_25">
     <path d="M 498.469381 161.688125 
L 552.314693 161.688125 
Q 554.314693 161.688125 554.314693 159.688125 
L 554.314693 146.01 
Q 554.314693 144.01 552.314693 144.01 
L 498.469381 144.01 
Q 496.469381 144.01 496.469381 146.01 
L 496.469381 159.688125 
Q 496.469381 161.688125 498.469381 161.688125 
L 498.469381 161.688125 
z
" style="fill: none; opacity: 0"/>
    </g>
    <g id="line2d_182">
     <path d="M 500.469381 152.108437 
L 510.469381 152.108437 
L 520.469381 152.108437 
" style="fill: none; stroke: #d62728; stroke-width: 1.5; stroke-linecap: square"/>
    </g>
    <g id="text_35">
     <!-- GSG -->
     <g transform="translate(528.469381 155.608437) scale(0.1 -0.1)">
      <use xlink:href="#DejaVuSans-47"/>
      <use xlink:href="#DejaVuSans-53" transform="translate(77.490234 0)"/>
      <use xlink:href="#DejaVuSans-47" transform="translate(140.966797 0)"/>
     </g>
    </g>
   </g>
  </g>
 </g>
 <defs>
  <clipPath id="pe6fd7fb78b">
   <rect x="44.80625" y="7.2" width="231.953443" height="117.51"/>
  </clipPath>
  <clipPath id="p4ae2d4146b">
   <rect x="327.36125" y="7.2" width="231.953443" height="117.51"/>
  </clipPath>
  <clipPath id="pd878267dd5">
   <rect x="44.80625" y="139.01" width="231.953443" height="117.51"/>
  </clipPath>
  <clipPath id="p76806fa8b0">
   <rect x="327.36125" y="139.01" width="231.953443" height="117.51"/>
  </clipPath>
 </defs>
</svg>
