<?xml version="1.0" encoding="utf-8" standalone="no"?>
<!DOCTYPE svg PUBLIC "-//W3C//DTD SVG 1.1//EN"
  "http://www.w3.org/Graphics/SVG/1.1/DTD/svg11.dtd">
<svg xmlns:xlink="http://www.w3.org/1999/xlink" width="567.646319pt" height="280.398125pt" viewBox="0 0 567.646319 280.398125" xmlns="http://www.w3.org/2000/svg" version="1.1">
 <metadata>
  <rdf:RDF xmlns:dc="http://purl.org/dc/elements/1.1/" xmlns:cc="http://creativecommons.org/ns#" xmlns:rdf="http://www.w3.org/1999/02/22-rdf-syntax-ns#">
   <cc:Work>
    <dc:type rdf:resource="http://purl.org/dc/dcmitype/StillImage"/>
    <dc:date>2025-11-19T13:19:09.798151</dc:date>
    <dc:format>image/svg+xml</dc:format>
    <dc:creator>
     <cc:Agent>
      <dc:title>Matplotlib v3.10.7, https://matplotlib.org/</dc:title>
     </cc:Agent>
    </dc:creator>
   </cc:Work>
  </rdf:RDF>
 </metadata>
 <defs>
  <style type="text/css">*{stroke-linejoin: round; stroke-linecap: butt}</style>
 </defs>
 <g id="figure_1">
  <g id="patch_1">
   <path d="M 0 280.398125 
L 567.646319 280.398125 
L 567.646319 0 
L 0 0 
L 0 280.398125 
z
" style="fill: none"/>
  </g>
  <g id="axes_1">
   <g id="patch_2">
    <path d="M 44.80625 124.71 
L 276.804693 124.71 
L 276.804693 7.2 
L 44.80625 7.2 
L 44.80625 124.71 
z
" style="fill: none"/>
   </g>
   <g id="matplotlib.axis_1">
    <g id="xtick_1">
     <g id="line2d_1">
      <defs>
       <path id="m6e9ad49515" d="M 0 0 
L 0 3.5 
" style="stroke: #000000; stroke-width: 0.8"/>
      </defs>
      <g>
       <use xlink:href="#m6e9ad49515" x="64.834893" y="124.71" style="stroke: #000000; stroke-width: 0.8"/>
      </g>
     </g>
    </g>
    <g id="xtick_2">
     <g id="line2d_2">
      <g>
       <use xlink:href="#m6e9ad49515" x="98.215964" y="124.71" style="stroke: #000000; stroke-width: 0.8"/>
      </g>
     </g>
    </g>
    <g id="xtick_3">
     <g id="line2d_3">
      <g>
       <use xlink:href="#m6e9ad49515" x="131.597035" y="124.71" style="stroke: #000000; stroke-width: 0.8"/>
      </g>
     </g>
    </g>
    <g id="xtick_4">
     <g id="line2d_4">
      <g>
       <use xlink:href="#m6e9ad49515" x="164.978106" y="124.71" style="stroke: #000000; stroke-width: 0.8"/>
      </g>
     </g>
    </g>
    <g id="xtick_5">
     <g id="line2d_5">
      <g>
       <use xlink:href="#m6e9ad49515" x="198.359177" y="124.71" style="stroke: #000000; stroke-width: 0.8"/>
      </g>
     </g>
    </g>
    <g id="xtick_6">
     <g id="line2d_6">
      <g>
       <use xlink:href="#m6e9ad49515" x="231.740248" y="124.71" style="stroke: #000000; stroke-width: 0.8"/>
      </g>
     </g>
    </g>
    <g id="xtick_7">
     <g id="line2d_7">
      <g>
       <use xlink:href="#m6e9ad49515" x="265.121319" y="124.71" style="stroke: #000000; stroke-width: 0.8"/>
      </g>
     </g>
    </g>
    <g id="xtick_8">
     <g id="line2d_8">
      <defs>
       <path id="mb99b57f5ec" d="M 0 0 
L 0 2 
" style="stroke: #000000; stroke-width: 0.6"/>
      </defs>
      <g>
       <use xlink:href="#mb99b57f5ec" x="44.80625" y="124.71" style="stroke: #000000; stroke-width: 0.6"/>
      </g>
     </g>
    </g>
    <g id="xtick_9">
     <g id="line2d_9">
      <g>
       <use xlink:href="#mb99b57f5ec" x="51.482464" y="124.71" style="stroke: #000000; stroke-width: 0.6"/>
      </g>
     </g>
    </g>
    <g id="xtick_10">
     <g id="line2d_10">
      <g>
       <use xlink:href="#mb99b57f5ec" x="58.158678" y="124.71" style="stroke: #000000; stroke-width: 0.6"/>
      </g>
     </g>
    </g>
    <g id="xtick_11">
     <g id="line2d_11">
      <g>
       <use xlink:href="#mb99b57f5ec" x="71.511107" y="124.71" style="stroke: #000000; stroke-width: 0.6"/>
      </g>
     </g>
    </g>
    <g id="xtick_12">
     <g id="line2d_12">
      <g>
       <use xlink:href="#mb99b57f5ec" x="78.187321" y="124.71" style="stroke: #000000; stroke-width: 0.6"/>
      </g>
     </g>
    </g>
    <g id="xtick_13">
     <g id="line2d_13">
      <g>
       <use xlink:href="#mb99b57f5ec" x="84.863535" y="124.71" style="stroke: #000000; stroke-width: 0.6"/>
      </g>
     </g>
    </g>
    <g id="xtick_14">
     <g id="line2d_14">
      <g>
       <use xlink:href="#mb99b57f5ec" x="91.539749" y="124.71" style="stroke: #000000; stroke-width: 0.6"/>
      </g>
     </g>
    </g>
    <g id="xtick_15">
     <g id="line2d_15">
      <g>
       <use xlink:href="#mb99b57f5ec" x="104.892178" y="124.71" style="stroke: #000000; stroke-width: 0.6"/>
      </g>
     </g>
    </g>
    <g id="xtick_16">
     <g id="line2d_16">
      <g>
       <use xlink:href="#mb99b57f5ec" x="111.568392" y="124.71" style="stroke: #000000; stroke-width: 0.6"/>
      </g>
     </g>
    </g>
    <g id="xtick_17">
     <g id="line2d_17">
      <g>
       <use xlink:href="#mb99b57f5ec" x="118.244606" y="124.71" style="stroke: #000000; stroke-width: 0.6"/>
      </g>
     </g>
    </g>
    <g id="xtick_18">
     <g id="line2d_18">
      <g>
       <use xlink:href="#mb99b57f5ec" x="124.92082" y="124.71" style="stroke: #000000; stroke-width: 0.6"/>
      </g>
     </g>
    </g>
    <g id="xtick_19">
     <g id="line2d_19">
      <g>
       <use xlink:href="#mb99b57f5ec" x="138.273249" y="124.71" style="stroke: #000000; stroke-width: 0.6"/>
      </g>
     </g>
    </g>
    <g id="xtick_20">
     <g id="line2d_20">
      <g>
       <use xlink:href="#mb99b57f5ec" x="144.949463" y="124.71" style="stroke: #000000; stroke-width: 0.6"/>
      </g>
     </g>
    </g>
    <g id="xtick_21">
     <g id="line2d_21">
      <g>
       <use xlink:href="#mb99b57f5ec" x="151.625677" y="124.71" style="stroke: #000000; stroke-width: 0.6"/>
      </g>
     </g>
    </g>
    <g id="xtick_22">
     <g id="line2d_22">
      <g>
       <use xlink:href="#mb99b57f5ec" x="158.301891" y="124.71" style="stroke: #000000; stroke-width: 0.6"/>
      </g>
     </g>
    </g>
    <g id="xtick_23">
     <g id="line2d_23">
      <g>
       <use xlink:href="#mb99b57f5ec" x="171.65432" y="124.71" style="stroke: #000000; stroke-width: 0.6"/>
      </g>
     </g>
    </g>
    <g id="xtick_24">
     <g id="line2d_24">
      <g>
       <use xlink:href="#mb99b57f5ec" x="178.330534" y="124.71" style="stroke: #000000; stroke-width: 0.6"/>
      </g>
     </g>
    </g>
    <g id="xtick_25">
     <g id="line2d_25">
      <g>
       <use xlink:href="#mb99b57f5ec" x="185.006748" y="124.71" style="stroke: #000000; stroke-width: 0.6"/>
      </g>
     </g>
    </g>
    <g id="xtick_26">
     <g id="line2d_26">
      <g>
       <use xlink:href="#mb99b57f5ec" x="191.682962" y="124.71" style="stroke: #000000; stroke-width: 0.6"/>
      </g>
     </g>
    </g>
    <g id="xtick_27">
     <g id="line2d_27">
      <g>
       <use xlink:href="#mb99b57f5ec" x="205.035391" y="124.71" style="stroke: #000000; stroke-width: 0.6"/>
      </g>
     </g>
    </g>
    <g id="xtick_28">
     <g id="line2d_28">
      <g>
       <use xlink:href="#mb99b57f5ec" x="211.711605" y="124.71" style="stroke: #000000; stroke-width: 0.6"/>
      </g>
     </g>
    </g>
    <g id="xtick_29">
     <g id="line2d_29">
      <g>
       <use xlink:href="#mb99b57f5ec" x="218.387819" y="124.71" style="stroke: #000000; stroke-width: 0.6"/>
      </g>
     </g>
    </g>
    <g id="xtick_30">
     <g id="line2d_30">
      <g>
       <use xlink:href="#mb99b57f5ec" x="225.064033" y="124.71" style="stroke: #000000; stroke-width: 0.6"/>
      </g>
     </g>
    </g>
    <g id="xtick_31">
     <g id="line2d_31">
      <g>
       <use xlink:href="#mb99b57f5ec" x="238.416462" y="124.71" style="stroke: #000000; stroke-width: 0.6"/>
      </g>
     </g>
    </g>
    <g id="xtick_32">
     <g id="line2d_32">
      <g>
       <use xlink:href="#mb99b57f5ec" x="245.092676" y="124.71" style="stroke: #000000; stroke-width: 0.6"/>
      </g>
     </g>
    </g>
    <g id="xtick_33">
     <g id="line2d_33">
      <g>
       <use xlink:href="#mb99b57f5ec" x="251.76889" y="124.71" style="stroke: #000000; stroke-width: 0.6"/>
      </g>
     </g>
    </g>
    <g id="xtick_34">
     <g id="line2d_34">
      <g>
       <use xlink:href="#mb99b57f5ec" x="258.445104" y="124.71" style="stroke: #000000; stroke-width: 0.6"/>
      </g>
     </g>
    </g>
    <g id="xtick_35">
     <g id="line2d_35">
      <g>
       <use xlink:href="#mb99b57f5ec" x="271.797533" y="124.71" style="stroke: #000000; stroke-width: 0.6"/>
      </g>
     </g>
    </g>
   </g>
   <g id="matplotlib.axis_2">
    <g id="ytick_1">
     <g id="line2d_36">
      <path d="M 44.80625 105.224731 
L 276.804693 105.224731 
" clip-path="url(#p2d1ff82739)" style="fill: none; stroke-dasharray: 2.96,1.28; stroke-dashoffset: 0; stroke: #000000; stroke-opacity: 0.1; stroke-width: 0.8"/>
     </g>
     <g id="line2d_37">
      <defs>
       <path id="m97defced6a" d="M 0 0 
L -3.5 0 
" style="stroke: #000000; stroke-width: 0.8"/>
      </defs>
      <g>
       <use xlink:href="#m97defced6a" x="44.80625" y="105.224731" style="stroke: #000000; stroke-width: 0.8"/>
      </g>
     </g>
     <g id="text_1">
      <!-- −75% -->
      <g transform="translate(7.2 109.02395) scale(0.1 -0.1)">
       <defs>
        <path id="DejaVuSans-2212" d="M 678 2272 
L 4684 2272 
L 4684 1741 
L 678 1741 
L 678 2272 
z
" transform="scale(0.015625)"/>
        <path id="DejaVuSans-37" d="M 525 4666 
L 3525 4666 
L 3525 4397 
L 1831 0 
L 1172 0 
L 2766 4134 
L 525 4134 
L 525 4666 
z
" transform="scale(0.015625)"/>
        <path id="DejaVuSans-35" d="M 691 4666 
L 3169 4666 
L 3169 4134 
L 1269 4134 
L 1269 2991 
Q 1406 3038 1543 3061 
Q 1681 3084 1819 3084 
Q 2600 3084 3056 2656 
Q 3513 2228 3513 1497 
Q 3513 744 3044 326 
Q 2575 -91 1722 -91 
Q 1428 -91 1123 -41 
Q 819 9 494 109 
L 494 744 
Q 775 591 1075 516 
Q 1375 441 1709 441 
Q 2250 441 2565 725 
Q 2881 1009 2881 1497 
Q 2881 1984 2565 2268 
Q 2250 2553 1709 2553 
Q 1456 2553 1204 2497 
Q 953 2441 691 2322 
L 691 4666 
z
" transform="scale(0.015625)"/>
        <path id="DejaVuSans-25" d="M 4653 2053 
Q 4381 2053 4226 1822 
Q 4072 1591 4072 1178 
Q 4072 772 4226 539 
Q 4381 306 4653 306 
Q 4919 306 5073 539 
Q 5228 772 5228 1178 
Q 5228 1588 5073 1820 
Q 4919 2053 4653 2053 
z
M 4653 2450 
Q 5147 2450 5437 2106 
Q 5728 1763 5728 1178 
Q 5728 594 5436 251 
Q 5144 -91 4653 -91 
Q 4153 -91 3862 251 
Q 3572 594 3572 1178 
Q 3572 1766 3864 2108 
Q 4156 2450 4653 2450 
z
M 1428 4353 
Q 1159 4353 1004 4120 
Q 850 3888 850 3481 
Q 850 3069 1003 2837 
Q 1156 2606 1428 2606 
Q 1700 2606 1854 2837 
Q 2009 3069 2009 3481 
Q 2009 3884 1853 4118 
Q 1697 4353 1428 4353 
z
M 4250 4750 
L 4750 4750 
L 1831 -91 
L 1331 -91 
L 4250 4750 
z
M 1428 4750 
Q 1922 4750 2215 4408 
Q 2509 4066 2509 3481 
Q 2509 2891 2217 2550 
Q 1925 2209 1428 2209 
Q 931 2209 642 2551 
Q 353 2894 353 3481 
Q 353 4063 643 4406 
Q 934 4750 1428 4750 
z
" transform="scale(0.015625)"/>
       </defs>
       <use xlink:href="#DejaVuSans-2212"/>
       <use xlink:href="#DejaVuSans-37" transform="translate(83.789062 0)"/>
       <use xlink:href="#DejaVuSans-35" transform="translate(147.412109 0)"/>
       <use xlink:href="#DejaVuSans-25" transform="translate(211.035156 0)"/>
      </g>
     </g>
    </g>
    <g id="ytick_2">
     <g id="line2d_38">
      <path d="M 44.80625 78.521311 
L 276.804693 78.521311 
" clip-path="url(#p2d1ff82739)" style="fill: none; stroke-dasharray: 2.96,1.28; stroke-dashoffset: 0; stroke: #000000; stroke-opacity: 0.1; stroke-width: 0.8"/>
     </g>
     <g id="line2d_39">
      <g>
       <use xlink:href="#m97defced6a" x="44.80625" y="78.521311" style="stroke: #000000; stroke-width: 0.8"/>
      </g>
     </g>
     <g id="text_2">
      <!-- −50% -->
      <g transform="translate(7.2 82.320529) scale(0.1 -0.1)">
       <defs>
        <path id="DejaVuSans-30" d="M 2034 4250 
Q 1547 4250 1301 3770 
Q 1056 3291 1056 2328 
Q 1056 1369 1301 889 
Q 1547 409 2034 409 
Q 2525 409 2770 889 
Q 3016 1369 3016 2328 
Q 3016 3291 2770 3770 
Q 2525 4250 2034 4250 
z
M 2034 4750 
Q 2819 4750 3233 4129 
Q 3647 3509 3647 2328 
Q 3647 1150 3233 529 
Q 2819 -91 2034 -91 
Q 1250 -91 836 529 
Q 422 1150 422 2328 
Q 422 3509 836 4129 
Q 1250 4750 2034 4750 
z
" transform="scale(0.015625)"/>
       </defs>
       <use xlink:href="#DejaVuSans-2212"/>
       <use xlink:href="#DejaVuSans-35" transform="translate(83.789062 0)"/>
       <use xlink:href="#DejaVuSans-30" transform="translate(147.412109 0)"/>
       <use xlink:href="#DejaVuSans-25" transform="translate(211.035156 0)"/>
      </g>
     </g>
    </g>
    <g id="ytick_3">
     <g id="line2d_40">
      <path d="M 44.80625 51.817891 
L 276.804693 51.817891 
" clip-path="url(#p2d1ff82739)" style="fill: none; stroke-dasharray: 2.96,1.28; stroke-dashoffset: 0; stroke: #000000; stroke-opacity: 0.1; stroke-width: 0.8"/>
     </g>
     <g id="line2d_41">
      <g>
       <use xlink:href="#m97defced6a" x="44.80625" y="51.817891" style="stroke: #000000; stroke-width: 0.8"/>
      </g>
     </g>
     <g id="text_3">
      <!-- −25% -->
      <g transform="translate(7.2 55.617109) scale(0.1 -0.1)">
       <defs>
        <path id="DejaVuSans-32" d="M 1228 531 
L 3431 531 
L 3431 0 
L 469 0 
L 469 531 
Q 828 903 1448 1529 
Q 2069 2156 2228 2338 
Q 2531 2678 2651 2914 
Q 2772 3150 2772 3378 
Q 2772 3750 2511 3984 
Q 2250 4219 1831 4219 
Q 1534 4219 1204 4116 
Q 875 4013 500 3803 
L 500 4441 
Q 881 4594 1212 4672 
Q 1544 4750 1819 4750 
Q 2544 4750 2975 4387 
Q 3406 4025 3406 3419 
Q 3406 3131 3298 2873 
Q 3191 2616 2906 2266 
Q 2828 2175 2409 1742 
Q 1991 1309 1228 531 
z
" transform="scale(0.015625)"/>
       </defs>
       <use xlink:href="#DejaVuSans-2212"/>
       <use xlink:href="#DejaVuSans-32" transform="translate(83.789062 0)"/>
       <use xlink:href="#DejaVuSans-35" transform="translate(147.412109 0)"/>
       <use xlink:href="#DejaVuSans-25" transform="translate(211.035156 0)"/>
      </g>
     </g>
    </g>
    <g id="ytick_4">
     <g id="line2d_42">
      <path d="M 44.80625 25.114471 
L 276.804693 25.114471 
" clip-path="url(#p2d1ff82739)" style="fill: none; stroke-dasharray: 2.96,1.28; stroke-dashoffset: 0; stroke: #000000; stroke-opacity: 0.1; stroke-width: 0.8"/>
     </g>
     <g id="line2d_43">
      <g>
       <use xlink:href="#m97defced6a" x="44.80625" y="25.114471" style="stroke: #000000; stroke-width: 0.8"/>
      </g>
     </g>
     <g id="text_4">
      <!-- 0% -->
      <g transform="translate(21.942188 28.913689) scale(0.1 -0.1)">
       <use xlink:href="#DejaVuSans-30"/>
       <use xlink:href="#DejaVuSans-25" transform="translate(63.623047 0)"/>
      </g>
     </g>
    </g>
   </g>
   <g id="line2d_44">
    <path d="M 51.482464 25.481413 
L 52.038815 25.437255 
L 52.595167 25.596083 
L 53.707869 25.444332 
L 54.26422 25.765526 
L 54.820571 24.350324 
L 55.376922 25.073919 
L 57.045976 24.844586 
L 58.158678 24.54933 
L 58.71503 24.024514 
L 59.271381 23.922856 
L 59.827732 26.544471 
L 60.384083 24.601558 
L 60.940434 24.537589 
L 61.496785 24.819452 
L 62.053137 21.212826 
L 62.609488 21.349378 
L 63.165839 20.777667 
L 63.72219 21.099506 
L 64.834893 20.585906 
L 65.391244 21.38107 
L 65.947595 24.727401 
L 67.060297 24.621679 
L 67.616649 25.010596 
L 68.729351 24.100517 
L 69.285702 25.071211 
L 69.842053 24.98142 
L 70.398404 27.464017 
L 70.954756 27.365532 
L 71.511107 27.150566 
L 72.067458 26.752991 
L 73.18016 26.412089 
L 73.736512 22.752996 
L 74.849214 22.526619 
L 75.405565 22.530599 
L 75.961916 22.195744 
L 76.518267 22.27708 
L 77.074619 21.281815 
L 77.63097 21.131712 
L 78.187321 20.014029 
L 79.856375 19.742703 
L 80.969077 19.576521 
L 81.525428 24.714192 
L 82.081779 24.658769 
L 82.63813 23.68165 
L 83.194482 23.277652 
L 83.750833 22.038815 
L 84.307184 22.282888 
L 84.863535 15.956927 
L 85.419886 15.276883 
L 85.976238 16.066008 
L 86.532589 15.296844 
L 87.645291 14.379714 
L 88.201642 12.541364 
L 88.757993 13.771815 
L 89.314345 13.005727 
L 89.870696 17.03077 
L 90.427047 16.514263 
L 91.539749 16.202078 
L 92.096101 15.011305 
L 92.652452 14.782198 
L 93.208803 14.693466 
L 93.765154 15.558062 
L 94.321505 14.92781 
L 94.877856 15.080818 
L 95.434208 32.116775 
L 95.990559 25.931925 
L 96.54691 24.88546 
L 97.103261 24.268499 
L 98.215964 23.878228 
L 98.772315 25.646687 
L 99.328666 25.313102 
L 99.885017 25.177083 
L 100.441368 26.050026 
L 100.99772 25.75219 
L 101.554071 26.00878 
L 102.110422 26.044226 
L 102.666773 29.067324 
L 103.223124 28.632849 
L 103.779475 28.57481 
L 104.335827 28.389026 
L 105.448529 32.51416 
L 106.00488 31.601426 
L 107.117583 32.074629 
L 107.673934 31.535288 
L 108.230285 31.944936 
L 108.786636 31.34397 
L 109.342987 32.11071 
L 109.899338 32.172401 
L 110.45569 40.102024 
L 111.568392 39.859918 
L 112.124743 48.074097 
L 112.681094 49.245668 
L 113.237446 48.163535 
L 113.793797 48.135199 
L 114.350148 49.090372 
L 114.906499 49.696479 
L 115.46285 53.553533 
L 116.019201 59.958423 
L 116.575553 58.693452 
L 117.131904 54.390063 
L 117.688255 54.325524 
L 118.244606 54.499105 
L 118.800957 54.889971 
L 119.357309 53.966364 
L 119.91366 57.526798 
L 120.470011 57.967368 
L 121.026362 61.450717 
L 121.582713 66.229796 
L 122.139064 65.972606 
L 122.695416 73.209529 
L 123.251767 71.854236 
L 123.808118 71.744146 
L 124.364469 75.186531 
L 124.92082 75.829937 
L 125.477172 76.064722 
L 126.033523 76.017636 
L 126.589874 75.671882 
L 127.146225 73.012079 
L 127.702576 72.97889 
L 128.258927 72.039908 
L 128.815279 71.976757 
L 129.37163 72.189937 
L 132.153386 71.771306 
L 133.266088 72.439086 
L 134.378791 72.338753 
L 134.935142 72.914441 
L 136.604195 72.739417 
L 137.160546 71.577627 
L 137.716898 71.447177 
L 138.273249 72.288087 
L 138.8296 72.242371 
L 139.385951 72.368736 
L 139.942302 73.182923 
L 140.498654 72.967675 
L 141.055005 72.990896 
L 141.611356 72.898116 
L 142.167707 73.130467 
L 142.724058 72.925642 
L 143.280409 73.15899 
L 143.836761 72.777813 
L 144.393112 72.854184 
L 144.949463 72.504958 
L 145.505814 72.477205 
L 146.062165 72.226759 
L 146.618517 71.724289 
L 147.174868 72.242767 
L 148.28757 72.229846 
L 151.625677 71.642313 
L 152.182028 72.557249 
L 152.73838 72.542748 
L 153.294731 71.984182 
L 153.851082 71.813156 
L 154.407433 71.926309 
L 154.963784 73.682451 
L 155.520135 73.621343 
L 156.076487 72.870822 
L 156.632838 72.764931 
L 157.189189 75.049583 
L 157.74554 75.482171 
L 158.301891 78.895799 
L 158.858243 79.810398 
L 159.414594 80.025924 
L 159.970945 79.719909 
L 160.527296 79.648657 
L 161.083647 84.257513 
L 161.639998 84.306633 
L 162.19635 83.939213 
L 162.752701 88.698263 
L 163.309052 95.841624 
L 163.865403 98.355139 
L 164.421754 98.300588 
L 164.978106 99.781828 
L 165.534457 102.054628 
L 166.647159 101.742296 
L 167.20351 101.359917 
L 168.316213 101.292602 
L 171.097969 101.044526 
L 171.65432 101.290861 
L 173.323373 101.171453 
L 173.879725 103.573726 
L 174.436076 104.499437 
L 174.992427 104.38974 
L 175.548778 105.333859 
L 177.217832 105.165217 
L 178.886885 105.022215 
L 181.11229 105.101464 
L 181.668641 105.277803 
L 182.224992 106.705716 
L 182.781343 108.578676 
L 183.337695 108.143407 
L 185.006748 108.075771 
L 186.675802 108.017416 
L 187.232153 109.436785 
L 193.352016 109.074049 
L 193.908367 108.939097 
L 194.464718 109.115429 
L 195.021069 109.036489 
L 195.577421 109.389721 
L 197.802825 109.252836 
L 198.359177 110.000523 
L 199.471879 109.91294 
L 204.47904 109.863911 
L 205.035391 110.520581 
L 205.591742 110.369338 
L 206.704444 110.430035 
L 208.373498 110.342061 
L 208.929849 111.613815 
L 209.4862 111.799968 
L 210.042551 111.385863 
L 211.155254 111.442339 
L 211.711605 112.381339 
L 213.380659 112.30545 
L 224.507682 111.900249 
L 225.064033 111.308998 
L 225.620385 111.473657 
L 226.176736 111.884853 
L 227.845789 111.84788 
L 228.958492 111.695421 
L 229.514843 111.693407 
L 230.071194 113.034607 
L 230.627545 112.971694 
L 231.183896 114.741568 
L 231.740248 114.482665 
L 233.409301 114.333129 
L 233.965652 115.448897 
L 234.522003 115.194752 
L 235.078355 115.183288 
L 235.634706 115.460608 
L 238.416462 115.384307 
L 238.972813 116.689304 
L 239.529164 118.670081 
L 240.085515 117.929576 
L 242.867271 117.772651 
L 243.423622 117.808741 
L 243.979974 117.395705 
L 248.987134 117.077075 
L 249.543485 117.165732 
L 250.099837 117.056825 
L 251.76889 117.143409 
L 252.325241 117.389627 
L 252.881593 117.335493 
L 253.437944 117.741941 
L 253.994295 117.740503 
L 254.550646 118.272892 
L 255.106997 118.178828 
L 255.663348 118.253835 
L 256.2197 118.637141 
L 256.776051 118.590253 
L 257.332402 118.395881 
L 257.888753 118.772628 
L 258.445104 118.572352 
L 259.557807 118.584901 
L 262.339563 118.492765 
L 263.452265 118.979453 
L 264.008616 118.498937 
L 265.121319 118.375365 
L 266.234021 118.310993 
L 266.790372 118.539232 
L 269.572128 118.416787 
L 270.128479 118.491201 
L 270.68483 118.41796 
L 272.353884 118.487316 
L 272.910235 119.273121 
L 273.466586 119.368636 
L 276.804693 119.162086 
L 276.804693 119.162086 
" clip-path="url(#p2d1ff82739)" style="fill: none; stroke: #1f77b4; stroke-width: 1.5; stroke-linecap: square"/>
   </g>
   <g id="patch_3">
    <path d="M 44.80625 124.71 
L 44.80625 7.2 
" style="fill: none"/>
   </g>
   <g id="patch_4">
    <path d="M 276.804693 124.71 
L 276.804693 7.2 
" style="fill: none"/>
   </g>
   <g id="patch_5">
    <path d="M 44.80625 124.71 
L 276.804693 124.71 
" style="fill: none; stroke: #000000; stroke-width: 0.8; stroke-linejoin: miter; stroke-linecap: square"/>
   </g>
   <g id="patch_6">
    <path d="M 44.80625 7.2 
L 276.804693 7.2 
" style="fill: none"/>
   </g>
   <g id="legend_1">
    <g id="patch_7">
     <path d="M 219.543756 29.878125 
L 269.804693 29.878125 
Q 271.804693 29.878125 271.804693 27.878125 
L 271.804693 14.2 
Q 271.804693 12.2 269.804693 12.2 
L 219.543756 12.2 
Q 217.543756 12.2 217.543756 14.2 
L 217.543756 27.878125 
Q 217.543756 29.878125 219.543756 29.878125 
L 219.543756 29.878125 
z
" style="fill: none; opacity: 0"/>
    </g>
    <g id="line2d_45">
     <path d="M 221.543756 20.298437 
L 231.543756 20.298437 
L 241.543756 20.298437 
" style="fill: none; stroke: #1f77b4; stroke-width: 1.5; stroke-linecap: square"/>
    </g>
    <g id="text_5">
     <!-- SPY -->
     <g transform="translate(249.543756 23.798437) scale(0.1 -0.1)">
      <defs>
       <path id="DejaVuSans-53" d="M 3425 4513 
L 3425 3897 
Q 3066 4069 2747 4153 
Q 2428 4238 2131 4238 
Q 1616 4238 1336 4038 
Q 1056 3838 1056 3469 
Q 1056 3159 1242 3001 
Q 1428 2844 1947 2747 
L 2328 2669 
Q 3034 2534 3370 2195 
Q 3706 1856 3706 1288 
Q 3706 609 3251 259 
Q 2797 -91 1919 -91 
Q 1588 -91 1214 -16 
Q 841 59 441 206 
L 441 856 
Q 825 641 1194 531 
Q 1563 422 1919 422 
Q 2459 422 2753 634 
Q 3047 847 3047 1241 
Q 3047 1584 2836 1778 
Q 2625 1972 2144 2069 
L 1759 2144 
Q 1053 2284 737 2584 
Q 422 2884 422 3419 
Q 422 4038 858 4394 
Q 1294 4750 2059 4750 
Q 2388 4750 2728 4690 
Q 3069 4631 3425 4513 
z
" transform="scale(0.015625)"/>
       <path id="DejaVuSans-50" d="M 1259 4147 
L 1259 2394 
L 2053 2394 
Q 2494 2394 2734 2622 
Q 2975 2850 2975 3272 
Q 2975 3691 2734 3919 
Q 2494 4147 2053 4147 
L 1259 4147 
z
M 628 4666 
L 2053 4666 
Q 2838 4666 3239 4311 
Q 3641 3956 3641 3272 
Q 3641 2581 3239 2228 
Q 2838 1875 2053 1875 
L 1259 1875 
L 1259 0 
L 628 0 
L 628 4666 
z
" transform="scale(0.015625)"/>
       <path id="DejaVuSans-59" d="M -13 4666 
L 666 4666 
L 1959 2747 
L 3244 4666 
L 3922 4666 
L 2272 2222 
L 2272 0 
L 1638 0 
L 1638 2222 
L -13 4666 
z
" transform="scale(0.015625)"/>
      </defs>
      <use xlink:href="#DejaVuSans-53"/>
      <use xlink:href="#DejaVuSans-50" transform="translate(63.476562 0)"/>
      <use xlink:href="#DejaVuSans-59" transform="translate(121.529297 0)"/>
     </g>
    </g>
   </g>
  </g>
  <g id="axes_2">
   <g id="patch_8">
    <path d="M 327.40625 124.71 
L 559.404693 124.71 
L 559.404693 7.2 
L 327.40625 7.2 
L 327.40625 124.71 
z
" style="fill: none"/>
   </g>
   <g id="matplotlib.axis_3">
    <g id="xtick_36">
     <g id="line2d_46">
      <g>
       <use xlink:href="#m6e9ad49515" x="347.434893" y="124.71" style="stroke: #000000; stroke-width: 0.8"/>
      </g>
     </g>
    </g>
    <g id="xtick_37">
     <g id="line2d_47">
      <g>
       <use xlink:href="#m6e9ad49515" x="380.815964" y="124.71" style="stroke: #000000; stroke-width: 0.8"/>
      </g>
     </g>
    </g>
    <g id="xtick_38">
     <g id="line2d_48">
      <g>
       <use xlink:href="#m6e9ad49515" x="414.197035" y="124.71" style="stroke: #000000; stroke-width: 0.8"/>
      </g>
     </g>
    </g>
    <g id="xtick_39">
     <g id="line2d_49">
      <g>
       <use xlink:href="#m6e9ad49515" x="447.578106" y="124.71" style="stroke: #000000; stroke-width: 0.8"/>
      </g>
     </g>
    </g>
    <g id="xtick_40">
     <g id="line2d_50">
      <g>
       <use xlink:href="#m6e9ad49515" x="480.959177" y="124.71" style="stroke: #000000; stroke-width: 0.8"/>
      </g>
     </g>
    </g>
    <g id="xtick_41">
     <g id="line2d_51">
      <g>
       <use xlink:href="#m6e9ad49515" x="514.340248" y="124.71" style="stroke: #000000; stroke-width: 0.8"/>
      </g>
     </g>
    </g>
    <g id="xtick_42">
     <g id="line2d_52">
      <g>
       <use xlink:href="#m6e9ad49515" x="547.721319" y="124.71" style="stroke: #000000; stroke-width: 0.8"/>
      </g>
     </g>
    </g>
    <g id="xtick_43">
     <g id="line2d_53">
      <g>
       <use xlink:href="#mb99b57f5ec" x="327.40625" y="124.71" style="stroke: #000000; stroke-width: 0.6"/>
      </g>
     </g>
    </g>
    <g id="xtick_44">
     <g id="line2d_54">
      <g>
       <use xlink:href="#mb99b57f5ec" x="334.082464" y="124.71" style="stroke: #000000; stroke-width: 0.6"/>
      </g>
     </g>
    </g>
    <g id="xtick_45">
     <g id="line2d_55">
      <g>
       <use xlink:href="#mb99b57f5ec" x="340.758678" y="124.71" style="stroke: #000000; stroke-width: 0.6"/>
      </g>
     </g>
    </g>
    <g id="xtick_46">
     <g id="line2d_56">
      <g>
       <use xlink:href="#mb99b57f5ec" x="354.111107" y="124.71" style="stroke: #000000; stroke-width: 0.6"/>
      </g>
     </g>
    </g>
    <g id="xtick_47">
     <g id="line2d_57">
      <g>
       <use xlink:href="#mb99b57f5ec" x="360.787321" y="124.71" style="stroke: #000000; stroke-width: 0.6"/>
      </g>
     </g>
    </g>
    <g id="xtick_48">
     <g id="line2d_58">
      <g>
       <use xlink:href="#mb99b57f5ec" x="367.463535" y="124.71" style="stroke: #000000; stroke-width: 0.6"/>
      </g>
     </g>
    </g>
    <g id="xtick_49">
     <g id="line2d_59">
      <g>
       <use xlink:href="#mb99b57f5ec" x="374.139749" y="124.71" style="stroke: #000000; stroke-width: 0.6"/>
      </g>
     </g>
    </g>
    <g id="xtick_50">
     <g id="line2d_60">
      <g>
       <use xlink:href="#mb99b57f5ec" x="387.492178" y="124.71" style="stroke: #000000; stroke-width: 0.6"/>
      </g>
     </g>
    </g>
    <g id="xtick_51">
     <g id="line2d_61">
      <g>
       <use xlink:href="#mb99b57f5ec" x="394.168392" y="124.71" style="stroke: #000000; stroke-width: 0.6"/>
      </g>
     </g>
    </g>
    <g id="xtick_52">
     <g id="line2d_62">
      <g>
       <use xlink:href="#mb99b57f5ec" x="400.844606" y="124.71" style="stroke: #000000; stroke-width: 0.6"/>
      </g>
     </g>
    </g>
    <g id="xtick_53">
     <g id="line2d_63">
      <g>
       <use xlink:href="#mb99b57f5ec" x="407.52082" y="124.71" style="stroke: #000000; stroke-width: 0.6"/>
      </g>
     </g>
    </g>
    <g id="xtick_54">
     <g id="line2d_64">
      <g>
       <use xlink:href="#mb99b57f5ec" x="420.873249" y="124.71" style="stroke: #000000; stroke-width: 0.6"/>
      </g>
     </g>
    </g>
    <g id="xtick_55">
     <g id="line2d_65">
      <g>
       <use xlink:href="#mb99b57f5ec" x="427.549463" y="124.71" style="stroke: #000000; stroke-width: 0.6"/>
      </g>
     </g>
    </g>
    <g id="xtick_56">
     <g id="line2d_66">
      <g>
       <use xlink:href="#mb99b57f5ec" x="434.225677" y="124.71" style="stroke: #000000; stroke-width: 0.6"/>
      </g>
     </g>
    </g>
    <g id="xtick_57">
     <g id="line2d_67">
      <g>
       <use xlink:href="#mb99b57f5ec" x="440.901891" y="124.71" style="stroke: #000000; stroke-width: 0.6"/>
      </g>
     </g>
    </g>
    <g id="xtick_58">
     <g id="line2d_68">
      <g>
       <use xlink:href="#mb99b57f5ec" x="454.25432" y="124.71" style="stroke: #000000; stroke-width: 0.6"/>
      </g>
     </g>
    </g>
    <g id="xtick_59">
     <g id="line2d_69">
      <g>
       <use xlink:href="#mb99b57f5ec" x="460.930534" y="124.71" style="stroke: #000000; stroke-width: 0.6"/>
      </g>
     </g>
    </g>
    <g id="xtick_60">
     <g id="line2d_70">
      <g>
       <use xlink:href="#mb99b57f5ec" x="467.606748" y="124.71" style="stroke: #000000; stroke-width: 0.6"/>
      </g>
     </g>
    </g>
    <g id="xtick_61">
     <g id="line2d_71">
      <g>
       <use xlink:href="#mb99b57f5ec" x="474.282962" y="124.71" style="stroke: #000000; stroke-width: 0.6"/>
      </g>
     </g>
    </g>
    <g id="xtick_62">
     <g id="line2d_72">
      <g>
       <use xlink:href="#mb99b57f5ec" x="487.635391" y="124.71" style="stroke: #000000; stroke-width: 0.6"/>
      </g>
     </g>
    </g>
    <g id="xtick_63">
     <g id="line2d_73">
      <g>
       <use xlink:href="#mb99b57f5ec" x="494.311605" y="124.71" style="stroke: #000000; stroke-width: 0.6"/>
      </g>
     </g>
    </g>
    <g id="xtick_64">
     <g id="line2d_74">
      <g>
       <use xlink:href="#mb99b57f5ec" x="500.987819" y="124.71" style="stroke: #000000; stroke-width: 0.6"/>
      </g>
     </g>
    </g>
    <g id="xtick_65">
     <g id="line2d_75">
      <g>
       <use xlink:href="#mb99b57f5ec" x="507.664033" y="124.71" style="stroke: #000000; stroke-width: 0.6"/>
      </g>
     </g>
    </g>
    <g id="xtick_66">
     <g id="line2d_76">
      <g>
       <use xlink:href="#mb99b57f5ec" x="521.016462" y="124.71" style="stroke: #000000; stroke-width: 0.6"/>
      </g>
     </g>
    </g>
    <g id="xtick_67">
     <g id="line2d_77">
      <g>
       <use xlink:href="#mb99b57f5ec" x="527.692676" y="124.71" style="stroke: #000000; stroke-width: 0.6"/>
      </g>
     </g>
    </g>
    <g id="xtick_68">
     <g id="line2d_78">
      <g>
       <use xlink:href="#mb99b57f5ec" x="534.36889" y="124.71" style="stroke: #000000; stroke-width: 0.6"/>
      </g>
     </g>
    </g>
    <g id="xtick_69">
     <g id="line2d_79">
      <g>
       <use xlink:href="#mb99b57f5ec" x="541.045104" y="124.71" style="stroke: #000000; stroke-width: 0.6"/>
      </g>
     </g>
    </g>
    <g id="xtick_70">
     <g id="line2d_80">
      <g>
       <use xlink:href="#mb99b57f5ec" x="554.397533" y="124.71" style="stroke: #000000; stroke-width: 0.6"/>
      </g>
     </g>
    </g>
   </g>
   <g id="matplotlib.axis_4">
    <g id="ytick_5">
     <g id="line2d_81">
      <path d="M 327.40625 119.283812 
L 559.404693 119.283812 
" clip-path="url(#pf6f0d2a4b7)" style="fill: none; stroke-dasharray: 2.96,1.28; stroke-dashoffset: 0; stroke: #000000; stroke-opacity: 0.1; stroke-width: 0.8"/>
     </g>
     <g id="line2d_82">
      <g>
       <use xlink:href="#m97defced6a" x="327.40625" y="119.283812" style="stroke: #000000; stroke-width: 0.8"/>
      </g>
     </g>
     <g id="text_6">
      <!-- 0% -->
      <g transform="translate(304.542188 123.083031) scale(0.1 -0.1)">
       <use xlink:href="#DejaVuSans-30"/>
       <use xlink:href="#DejaVuSans-25" transform="translate(63.623047 0)"/>
      </g>
     </g>
    </g>
    <g id="ytick_6">
     <g id="line2d_83">
      <path d="M 327.40625 90.93972 
L 559.404693 90.93972 
" clip-path="url(#pf6f0d2a4b7)" style="fill: none; stroke-dasharray: 2.96,1.28; stroke-dashoffset: 0; stroke: #000000; stroke-opacity: 0.1; stroke-width: 0.8"/>
     </g>
     <g id="line2d_84">
      <g>
       <use xlink:href="#m97defced6a" x="327.40625" y="90.93972" style="stroke: #000000; stroke-width: 0.8"/>
      </g>
     </g>
     <g id="text_7">
      <!-- 200% -->
      <g transform="translate(291.817188 94.738939) scale(0.1 -0.1)">
       <use xlink:href="#DejaVuSans-32"/>
       <use xlink:href="#DejaVuSans-30" transform="translate(63.623047 0)"/>
       <use xlink:href="#DejaVuSans-30" transform="translate(127.246094 0)"/>
       <use xlink:href="#DejaVuSans-25" transform="translate(190.869141 0)"/>
      </g>
     </g>
    </g>
    <g id="ytick_7">
     <g id="line2d_85">
      <path d="M 327.40625 62.595629 
L 559.404693 62.595629 
" clip-path="url(#pf6f0d2a4b7)" style="fill: none; stroke-dasharray: 2.96,1.28; stroke-dashoffset: 0; stroke: #000000; stroke-opacity: 0.1; stroke-width: 0.8"/>
     </g>
     <g id="line2d_86">
      <g>
       <use xlink:href="#m97defced6a" x="327.40625" y="62.595629" style="stroke: #000000; stroke-width: 0.8"/>
      </g>
     </g>
     <g id="text_8">
      <!-- 400% -->
      <g transform="translate(291.817188 66.394848) scale(0.1 -0.1)">
       <defs>
        <path id="DejaVuSans-34" d="M 2419 4116 
L 825 1625 
L 2419 1625 
L 2419 4116 
z
M 2253 4666 
L 3047 4666 
L 3047 1625 
L 3713 1625 
L 3713 1100 
L 3047 1100 
L 3047 0 
L 2419 0 
L 2419 1100 
L 313 1100 
L 313 1709 
L 2253 4666 
z
" transform="scale(0.015625)"/>
       </defs>
       <use xlink:href="#DejaVuSans-34"/>
       <use xlink:href="#DejaVuSans-30" transform="translate(63.623047 0)"/>
       <use xlink:href="#DejaVuSans-30" transform="translate(127.246094 0)"/>
       <use xlink:href="#DejaVuSans-25" transform="translate(190.869141 0)"/>
      </g>
     </g>
    </g>
    <g id="ytick_8">
     <g id="line2d_87">
      <path d="M 327.40625 34.251537 
L 559.404693 34.251537 
" clip-path="url(#pf6f0d2a4b7)" style="fill: none; stroke-dasharray: 2.96,1.28; stroke-dashoffset: 0; stroke: #000000; stroke-opacity: 0.1; stroke-width: 0.8"/>
     </g>
     <g id="line2d_88">
      <g>
       <use xlink:href="#m97defced6a" x="327.40625" y="34.251537" style="stroke: #000000; stroke-width: 0.8"/>
      </g>
     </g>
     <g id="text_9">
      <!-- 600% -->
      <g transform="translate(291.817188 38.050756) scale(0.1 -0.1)">
       <defs>
        <path id="DejaVuSans-36" d="M 2113 2584 
Q 1688 2584 1439 2293 
Q 1191 2003 1191 1497 
Q 1191 994 1439 701 
Q 1688 409 2113 409 
Q 2538 409 2786 701 
Q 3034 994 3034 1497 
Q 3034 2003 2786 2293 
Q 2538 2584 2113 2584 
z
M 3366 4563 
L 3366 3988 
Q 3128 4100 2886 4159 
Q 2644 4219 2406 4219 
Q 1781 4219 1451 3797 
Q 1122 3375 1075 2522 
Q 1259 2794 1537 2939 
Q 1816 3084 2150 3084 
Q 2853 3084 3261 2657 
Q 3669 2231 3669 1497 
Q 3669 778 3244 343 
Q 2819 -91 2113 -91 
Q 1303 -91 875 529 
Q 447 1150 447 2328 
Q 447 3434 972 4092 
Q 1497 4750 2381 4750 
Q 2619 4750 2861 4703 
Q 3103 4656 3366 4563 
z
" transform="scale(0.015625)"/>
       </defs>
       <use xlink:href="#DejaVuSans-36"/>
       <use xlink:href="#DejaVuSans-30" transform="translate(63.623047 0)"/>
       <use xlink:href="#DejaVuSans-30" transform="translate(127.246094 0)"/>
       <use xlink:href="#DejaVuSans-25" transform="translate(190.869141 0)"/>
      </g>
     </g>
    </g>
   </g>
   <g id="line2d_89">
    <path d="M 334.082464 119.359403 
L 336.86422 119.245015 
L 337.420571 119.03729 
L 339.089625 119.0175 
L 340.202327 118.949375 
L 340.758678 118.880023 
L 341.31503 118.599912 
L 342.984083 118.515522 
L 343.540434 118.027229 
L 344.096785 117.883582 
L 344.653137 116.896795 
L 345.765839 116.867839 
L 346.32219 116.994916 
L 347.434893 116.954447 
L 347.991244 117.137963 
L 348.547595 117.626733 
L 354.111107 117.670445 
L 355.78016 117.589192 
L 356.336512 116.264802 
L 359.118267 116.113369 
L 360.23097 115.959726 
L 360.787321 115.970559 
L 361.343672 116.11523 
L 363.012726 116.163924 
L 364.125428 116.062188 
L 365.23813 115.978381 
L 366.350833 115.764763 
L 369.68894 115.953659 
L 370.245291 115.920452 
L 370.801642 115.684296 
L 371.357993 115.788455 
L 371.914345 115.721043 
L 372.470696 115.066652 
L 377.477856 114.74807 
L 378.590559 112.869121 
L 379.703261 112.899177 
L 380.815964 112.893656 
L 381.372315 113.488583 
L 382.485017 113.492263 
L 383.59772 113.627474 
L 384.710422 113.640287 
L 385.266773 113.487228 
L 386.935827 113.505016 
L 387.492178 113.383034 
L 388.048529 112.646776 
L 389.161231 112.584052 
L 389.717583 112.594405 
L 391.386636 112.323519 
L 392.499338 112.326668 
L 393.05569 111.615834 
L 393.612041 111.500722 
L 394.168392 111.504521 
L 394.724743 110.972827 
L 396.950148 111.041828 
L 397.506499 110.409217 
L 398.06285 110.027298 
L 398.619201 109.908275 
L 399.175553 108.427384 
L 399.731904 109.483846 
L 400.844606 109.497448 
L 401.400957 109.456685 
L 401.957309 109.807018 
L 402.51366 109.129938 
L 403.070011 109.10316 
L 403.626362 108.831139 
L 404.182713 108.161089 
L 405.295416 105.920809 
L 405.851767 106.192402 
L 406.408118 106.200423 
L 406.964469 105.031095 
L 407.52082 105.098794 
L 408.077172 104.882605 
L 409.189874 104.899107 
L 409.746225 103.22273 
L 410.302576 103.249908 
L 410.858927 106.209871 
L 411.415279 106.188885 
L 411.97163 105.707162 
L 413.640683 105.705023 
L 414.753386 105.626452 
L 415.309737 105.50051 
L 415.866088 106.111428 
L 416.978791 106.095277 
L 417.535142 105.977218 
L 418.091493 105.70515 
L 419.204195 105.63139 
L 419.760546 105.970413 
L 420.316898 105.921746 
L 420.873249 105.38156 
L 421.985951 105.410996 
L 422.542302 104.616214 
L 423.655005 104.418076 
L 424.211356 104.458624 
L 424.767707 104.02695 
L 425.324058 105.052505 
L 425.880409 105.158517 
L 426.436761 105.129818 
L 426.993112 104.976582 
L 427.549463 105.069261 
L 428.105814 105.040779 
L 429.218517 105.991501 
L 430.88757 105.932687 
L 433.112975 105.737978 
L 434.225677 105.867381 
L 434.782028 105.1402 
L 437.007433 105.184751 
L 437.563784 104.30612 
L 439.232838 104.168834 
L 439.789189 102.603507 
L 440.34554 102.692662 
L 440.901891 102.048189 
L 441.458243 102.14337 
L 442.014594 101.939873 
L 443.127296 102.112573 
L 443.683647 101.281093 
L 444.239998 101.294447 
L 445.352701 100.370761 
L 445.909052 100.986351 
L 447.021754 91.503268 
L 447.578106 94.444563 
L 448.134457 94.837773 
L 448.690808 94.752702 
L 449.247159 94.923731 
L 449.80351 95.232059 
L 453.141617 95.171529 
L 453.697969 95.358553 
L 454.25432 95.133094 
L 455.923373 95.068799 
L 456.479725 93.143429 
L 457.036076 91.78524 
L 457.592427 91.808308 
L 458.148778 89.144895 
L 459.817832 89.384953 
L 461.486885 89.49138 
L 462.599588 89.421335 
L 463.155939 89.101498 
L 463.71229 89.209425 
L 464.268641 88.562195 
L 464.824992 84.314183 
L 465.381343 77.824511 
L 465.937695 78.186971 
L 466.494046 78.11984 
L 467.050397 77.712174 
L 468.163099 77.7649 
L 468.719451 77.934462 
L 469.275802 77.58014 
L 469.832153 72.599258 
L 470.388504 72.634209 
L 470.944855 72.415124 
L 471.501206 72.45075 
L 472.057558 72.657456 
L 475.395665 72.743204 
L 475.952016 71.644816 
L 477.064718 73.506393 
L 477.621069 73.597636 
L 478.177421 74.012291 
L 479.846474 74.017912 
L 480.402825 74.050886 
L 480.959177 70.570081 
L 482.62823 70.442361 
L 483.184581 70.305051 
L 484.297284 70.241394 
L 484.853635 69.819677 
L 485.409986 70.094907 
L 486.522688 69.759109 
L 487.07904 68.488868 
L 487.635391 62.116668 
L 488.191742 62.666629 
L 488.748093 62.530299 
L 490.417147 63.147963 
L 490.973498 62.244193 
L 491.529849 62.718906 
L 492.0862 62.302906 
L 493.755254 62.580179 
L 494.311605 58.948363 
L 494.867956 58.155238 
L 496.53701 58.201886 
L 497.093361 54.279577 
L 497.649712 54.036548 
L 498.762414 54.131382 
L 499.318766 54.624663 
L 499.875117 55.977785 
L 500.987819 55.949559 
L 501.54417 55.88052 
L 502.100522 55.924935 
L 503.769575 55.734054 
L 504.325926 55.751572 
L 504.882277 55.358836 
L 505.99498 55.416221 
L 506.551331 55.382924 
L 507.107682 55.230552 
L 507.664033 56.566442 
L 508.220385 57.081384 
L 508.776736 55.677674 
L 509.333087 55.753104 
L 510.445789 55.602641 
L 511.00214 55.77236 
L 511.558492 55.709731 
L 512.114843 55.860871 
L 512.671194 58.042315 
L 513.227545 57.799207 
L 513.783896 53.37069 
L 514.896599 53.342791 
L 515.45295 51.163104 
L 516.009301 51.206877 
L 516.565652 45.622399 
L 517.122003 45.422775 
L 517.678355 45.412523 
L 518.234706 35.756032 
L 519.347408 35.914307 
L 519.903759 35.930425 
L 520.460111 36.175863 
L 522.129164 14.960912 
L 522.685515 14.325531 
L 523.241867 14.471194 
L 523.798218 14.448047 
L 524.354569 13.568951 
L 524.91092 13.893907 
L 525.467271 13.750589 
L 526.023622 14.164981 
L 526.579974 13.630969 
L 527.136325 13.741078 
L 527.692676 13.99141 
L 528.249027 14.476846 
L 528.805378 15.150966 
L 529.36173 14.913911 
L 529.918081 14.913563 
L 530.474432 13.528084 
L 531.030783 13.157252 
L 531.587134 13.172969 
L 532.143485 13.593154 
L 532.699837 13.282591 
L 533.256188 12.541364 
L 533.812539 12.630877 
L 534.36889 13.132541 
L 534.925241 14.241108 
L 535.481593 14.943872 
L 536.037944 18.488059 
L 536.594295 18.604514 
L 537.150646 19.240232 
L 537.706997 19.032533 
L 538.263348 19.729123 
L 538.8197 22.459133 
L 539.376051 22.746471 
L 539.932402 20.671219 
L 540.488753 21.999469 
L 541.045104 19.937138 
L 541.601456 20.836623 
L 542.157807 20.31336 
L 542.714158 20.295788 
L 543.270509 20.605056 
L 543.82686 20.593479 
L 544.939563 21.17688 
L 545.495914 23.843744 
L 546.052265 29.740576 
L 546.608616 25.559088 
L 547.164967 23.59619 
L 548.27767 23.749527 
L 548.834021 23.656237 
L 549.390372 26.602656 
L 550.503074 26.362125 
L 551.059426 25.639096 
L 552.172128 25.325402 
L 552.728479 28.966184 
L 553.28483 28.776384 
L 553.841182 29.57705 
L 554.397533 29.539662 
L 554.953884 27.758831 
L 556.066586 30.267008 
L 556.622938 30.399159 
L 557.179289 30.178328 
L 558.291991 30.212643 
L 558.848342 29.447361 
L 559.404693 29.387962 
L 559.404693 29.387962 
" clip-path="url(#pf6f0d2a4b7)" style="fill: none; stroke: #ff7f0e; stroke-width: 1.5; stroke-linecap: square"/>
   </g>
   <g id="patch_9">
    <path d="M 327.40625 124.71 
L 327.40625 7.2 
" style="fill: none"/>
   </g>
   <g id="patch_10">
    <path d="M 559.404693 124.71 
L 559.404693 7.2 
" style="fill: none"/>
   </g>
   <g id="patch_11">
    <path d="M 327.40625 124.71 
L 559.404693 124.71 
" style="fill: none; stroke: #000000; stroke-width: 0.8; stroke-linejoin: miter; stroke-linecap: square"/>
   </g>
   <g id="patch_12">
    <path d="M 327.40625 7.2 
L 559.404693 7.2 
" style="fill: none"/>
   </g>
   <g id="legend_2">
    <g id="patch_13">
     <path d="M 334.40625 29.878125 
L 382.81875 29.878125 
Q 384.81875 29.878125 384.81875 27.878125 
L 384.81875 14.2 
Q 384.81875 12.2 382.81875 12.2 
L 334.40625 12.2 
Q 332.40625 12.2 332.40625 14.2 
L 332.40625 27.878125 
Q 332.40625 29.878125 334.40625 29.878125 
L 334.40625 29.878125 
z
" style="fill: none; opacity: 0"/>
    </g>
    <g id="line2d_90">
     <path d="M 336.40625 20.298437 
L 346.40625 20.298437 
L 356.40625 20.298437 
" style="fill: none; stroke: #ff7f0e; stroke-width: 1.5; stroke-linecap: square"/>
    </g>
    <g id="text_10">
     <!-- TLT -->
     <g transform="translate(364.40625 23.798437) scale(0.1 -0.1)">
      <defs>
       <path id="DejaVuSans-54" d="M -19 4666 
L 3928 4666 
L 3928 4134 
L 2272 4134 
L 2272 0 
L 1638 0 
L 1638 4134 
L -19 4134 
L -19 4666 
z
" transform="scale(0.015625)"/>
       <path id="DejaVuSans-4c" d="M 628 4666 
L 1259 4666 
L 1259 531 
L 3531 531 
L 3531 0 
L 628 0 
L 628 4666 
z
" transform="scale(0.015625)"/>
      </defs>
      <use xlink:href="#DejaVuSans-54"/>
      <use xlink:href="#DejaVuSans-4c" transform="translate(61.083984 0)"/>
      <use xlink:href="#DejaVuSans-54" transform="translate(103.046875 0)"/>
     </g>
    </g>
   </g>
  </g>
  <g id="axes_3">
   <g id="patch_14">
    <path d="M 44.80625 256.52 
L 276.804693 256.52 
L 276.804693 139.01 
L 44.80625 139.01 
L 44.80625 256.52 
z
" style="fill: none"/>
   </g>
   <g id="matplotlib.axis_5">
    <g id="xtick_71">
     <g id="line2d_91">
      <g>
       <use xlink:href="#m6e9ad49515" x="64.834893" y="256.52" style="stroke: #000000; stroke-width: 0.8"/>
      </g>
     </g>
     <g id="text_11">
      <!-- 1994 -->
      <g transform="translate(52.109893 271.118437) scale(0.1 -0.1)">
       <defs>
        <path id="DejaVuSans-31" d="M 794 531 
L 1825 531 
L 1825 4091 
L 703 3866 
L 703 4441 
L 1819 4666 
L 2450 4666 
L 2450 531 
L 3481 531 
L 3481 0 
L 794 0 
L 794 531 
z
" transform="scale(0.015625)"/>
        <path id="DejaVuSans-39" d="M 703 97 
L 703 672 
Q 941 559 1184 500 
Q 1428 441 1663 441 
Q 2288 441 2617 861 
Q 2947 1281 2994 2138 
Q 2813 1869 2534 1725 
Q 2256 1581 1919 1581 
Q 1219 1581 811 2004 
Q 403 2428 403 3163 
Q 403 3881 828 4315 
Q 1253 4750 1959 4750 
Q 2769 4750 3195 4129 
Q 3622 3509 3622 2328 
Q 3622 1225 3098 567 
Q 2575 -91 1691 -91 
Q 1453 -91 1209 -44 
Q 966 3 703 97 
z
M 1959 2075 
Q 2384 2075 2632 2365 
Q 2881 2656 2881 3163 
Q 2881 3666 2632 3958 
Q 2384 4250 1959 4250 
Q 1534 4250 1286 3958 
Q 1038 3666 1038 3163 
Q 1038 2656 1286 2365 
Q 1534 2075 1959 2075 
z
" transform="scale(0.015625)"/>
       </defs>
       <use xlink:href="#DejaVuSans-31"/>
       <use xlink:href="#DejaVuSans-39" transform="translate(63.623047 0)"/>
       <use xlink:href="#DejaVuSans-39" transform="translate(127.246094 0)"/>
       <use xlink:href="#DejaVuSans-34" transform="translate(190.869141 0)"/>
      </g>
     </g>
    </g>
    <g id="xtick_72">
     <g id="line2d_92">
      <g>
       <use xlink:href="#m6e9ad49515" x="98.215964" y="256.52" style="stroke: #000000; stroke-width: 0.8"/>
      </g>
     </g>
     <g id="text_12">
      <!-- 1999 -->
      <g transform="translate(85.490964 271.118437) scale(0.1 -0.1)">
       <use xlink:href="#DejaVuSans-31"/>
       <use xlink:href="#DejaVuSans-39" transform="translate(63.623047 0)"/>
       <use xlink:href="#DejaVuSans-39" transform="translate(127.246094 0)"/>
       <use xlink:href="#DejaVuSans-39" transform="translate(190.869141 0)"/>
      </g>
     </g>
    </g>
    <g id="xtick_73">
     <g id="line2d_93">
      <g>
       <use xlink:href="#m6e9ad49515" x="131.597035" y="256.52" style="stroke: #000000; stroke-width: 0.8"/>
      </g>
     </g>
     <g id="text_13">
      <!-- 2004 -->
      <g transform="translate(118.872035 271.118437) scale(0.1 -0.1)">
       <use xlink:href="#DejaVuSans-32"/>
       <use xlink:href="#DejaVuSans-30" transform="translate(63.623047 0)"/>
       <use xlink:href="#DejaVuSans-30" transform="translate(127.246094 0)"/>
       <use xlink:href="#DejaVuSans-34" transform="translate(190.869141 0)"/>
      </g>
     </g>
    </g>
    <g id="xtick_74">
     <g id="line2d_94">
      <g>
       <use xlink:href="#m6e9ad49515" x="164.978106" y="256.52" style="stroke: #000000; stroke-width: 0.8"/>
      </g>
     </g>
     <g id="text_14">
      <!-- 2009 -->
      <g transform="translate(152.253106 271.118437) scale(0.1 -0.1)">
       <use xlink:href="#DejaVuSans-32"/>
       <use xlink:href="#DejaVuSans-30" transform="translate(63.623047 0)"/>
       <use xlink:href="#DejaVuSans-30" transform="translate(127.246094 0)"/>
       <use xlink:href="#DejaVuSans-39" transform="translate(190.869141 0)"/>
      </g>
     </g>
    </g>
    <g id="xtick_75">
     <g id="line2d_95">
      <g>
       <use xlink:href="#m6e9ad49515" x="198.359177" y="256.52" style="stroke: #000000; stroke-width: 0.8"/>
      </g>
     </g>
     <g id="text_15">
      <!-- 2014 -->
      <g transform="translate(185.634177 271.118437) scale(0.1 -0.1)">
       <use xlink:href="#DejaVuSans-32"/>
       <use xlink:href="#DejaVuSans-30" transform="translate(63.623047 0)"/>
       <use xlink:href="#DejaVuSans-31" transform="translate(127.246094 0)"/>
       <use xlink:href="#DejaVuSans-34" transform="translate(190.869141 0)"/>
      </g>
     </g>
    </g>
    <g id="xtick_76">
     <g id="line2d_96">
      <g>
       <use xlink:href="#m6e9ad49515" x="231.740248" y="256.52" style="stroke: #000000; stroke-width: 0.8"/>
      </g>
     </g>
     <g id="text_16">
      <!-- 2019 -->
      <g transform="translate(219.015248 271.118437) scale(0.1 -0.1)">
       <use xlink:href="#DejaVuSans-32"/>
       <use xlink:href="#DejaVuSans-30" transform="translate(63.623047 0)"/>
       <use xlink:href="#DejaVuSans-31" transform="translate(127.246094 0)"/>
       <use xlink:href="#DejaVuSans-39" transform="translate(190.869141 0)"/>
      </g>
     </g>
    </g>
    <g id="xtick_77">
     <g id="line2d_97">
      <g>
       <use xlink:href="#m6e9ad49515" x="265.121319" y="256.52" style="stroke: #000000; stroke-width: 0.8"/>
      </g>
     </g>
     <g id="text_17">
      <!-- 2024 -->
      <g transform="translate(252.396319 271.118437) scale(0.1 -0.1)">
       <use xlink:href="#DejaVuSans-32"/>
       <use xlink:href="#DejaVuSans-30" transform="translate(63.623047 0)"/>
       <use xlink:href="#DejaVuSans-32" transform="translate(127.246094 0)"/>
       <use xlink:href="#DejaVuSans-34" transform="translate(190.869141 0)"/>
      </g>
     </g>
    </g>
    <g id="xtick_78">
     <g id="line2d_98">
      <g>
       <use xlink:href="#mb99b57f5ec" x="44.80625" y="256.52" style="stroke: #000000; stroke-width: 0.6"/>
      </g>
     </g>
    </g>
    <g id="xtick_79">
     <g id="line2d_99">
      <g>
       <use xlink:href="#mb99b57f5ec" x="51.482464" y="256.52" style="stroke: #000000; stroke-width: 0.6"/>
      </g>
     </g>
    </g>
    <g id="xtick_80">
     <g id="line2d_100">
      <g>
       <use xlink:href="#mb99b57f5ec" x="58.158678" y="256.52" style="stroke: #000000; stroke-width: 0.6"/>
      </g>
     </g>
    </g>
    <g id="xtick_81">
     <g id="line2d_101">
      <g>
       <use xlink:href="#mb99b57f5ec" x="71.511107" y="256.52" style="stroke: #000000; stroke-width: 0.6"/>
      </g>
     </g>
    </g>
    <g id="xtick_82">
     <g id="line2d_102">
      <g>
       <use xlink:href="#mb99b57f5ec" x="78.187321" y="256.52" style="stroke: #000000; stroke-width: 0.6"/>
      </g>
     </g>
    </g>
    <g id="xtick_83">
     <g id="line2d_103">
      <g>
       <use xlink:href="#mb99b57f5ec" x="84.863535" y="256.52" style="stroke: #000000; stroke-width: 0.6"/>
      </g>
     </g>
    </g>
    <g id="xtick_84">
     <g id="line2d_104">
      <g>
       <use xlink:href="#mb99b57f5ec" x="91.539749" y="256.52" style="stroke: #000000; stroke-width: 0.6"/>
      </g>
     </g>
    </g>
    <g id="xtick_85">
     <g id="line2d_105">
      <g>
       <use xlink:href="#mb99b57f5ec" x="104.892178" y="256.52" style="stroke: #000000; stroke-width: 0.6"/>
      </g>
     </g>
    </g>
    <g id="xtick_86">
     <g id="line2d_106">
      <g>
       <use xlink:href="#mb99b57f5ec" x="111.568392" y="256.52" style="stroke: #000000; stroke-width: 0.6"/>
      </g>
     </g>
    </g>
    <g id="xtick_87">
     <g id="line2d_107">
      <g>
       <use xlink:href="#mb99b57f5ec" x="118.244606" y="256.52" style="stroke: #000000; stroke-width: 0.6"/>
      </g>
     </g>
    </g>
    <g id="xtick_88">
     <g id="line2d_108">
      <g>
       <use xlink:href="#mb99b57f5ec" x="124.92082" y="256.52" style="stroke: #000000; stroke-width: 0.6"/>
      </g>
     </g>
    </g>
    <g id="xtick_89">
     <g id="line2d_109">
      <g>
       <use xlink:href="#mb99b57f5ec" x="138.273249" y="256.52" style="stroke: #000000; stroke-width: 0.6"/>
      </g>
     </g>
    </g>
    <g id="xtick_90">
     <g id="line2d_110">
      <g>
       <use xlink:href="#mb99b57f5ec" x="144.949463" y="256.52" style="stroke: #000000; stroke-width: 0.6"/>
      </g>
     </g>
    </g>
    <g id="xtick_91">
     <g id="line2d_111">
      <g>
       <use xlink:href="#mb99b57f5ec" x="151.625677" y="256.52" style="stroke: #000000; stroke-width: 0.6"/>
      </g>
     </g>
    </g>
    <g id="xtick_92">
     <g id="line2d_112">
      <g>
       <use xlink:href="#mb99b57f5ec" x="158.301891" y="256.52" style="stroke: #000000; stroke-width: 0.6"/>
      </g>
     </g>
    </g>
    <g id="xtick_93">
     <g id="line2d_113">
      <g>
       <use xlink:href="#mb99b57f5ec" x="171.65432" y="256.52" style="stroke: #000000; stroke-width: 0.6"/>
      </g>
     </g>
    </g>
    <g id="xtick_94">
     <g id="line2d_114">
      <g>
       <use xlink:href="#mb99b57f5ec" x="178.330534" y="256.52" style="stroke: #000000; stroke-width: 0.6"/>
      </g>
     </g>
    </g>
    <g id="xtick_95">
     <g id="line2d_115">
      <g>
       <use xlink:href="#mb99b57f5ec" x="185.006748" y="256.52" style="stroke: #000000; stroke-width: 0.6"/>
      </g>
     </g>
    </g>
    <g id="xtick_96">
     <g id="line2d_116">
      <g>
       <use xlink:href="#mb99b57f5ec" x="191.682962" y="256.52" style="stroke: #000000; stroke-width: 0.6"/>
      </g>
     </g>
    </g>
    <g id="xtick_97">
     <g id="line2d_117">
      <g>
       <use xlink:href="#mb99b57f5ec" x="205.035391" y="256.52" style="stroke: #000000; stroke-width: 0.6"/>
      </g>
     </g>
    </g>
    <g id="xtick_98">
     <g id="line2d_118">
      <g>
       <use xlink:href="#mb99b57f5ec" x="211.711605" y="256.52" style="stroke: #000000; stroke-width: 0.6"/>
      </g>
     </g>
    </g>
    <g id="xtick_99">
     <g id="line2d_119">
      <g>
       <use xlink:href="#mb99b57f5ec" x="218.387819" y="256.52" style="stroke: #000000; stroke-width: 0.6"/>
      </g>
     </g>
    </g>
    <g id="xtick_100">
     <g id="line2d_120">
      <g>
       <use xlink:href="#mb99b57f5ec" x="225.064033" y="256.52" style="stroke: #000000; stroke-width: 0.6"/>
      </g>
     </g>
    </g>
    <g id="xtick_101">
     <g id="line2d_121">
      <g>
       <use xlink:href="#mb99b57f5ec" x="238.416462" y="256.52" style="stroke: #000000; stroke-width: 0.6"/>
      </g>
     </g>
    </g>
    <g id="xtick_102">
     <g id="line2d_122">
      <g>
       <use xlink:href="#mb99b57f5ec" x="245.092676" y="256.52" style="stroke: #000000; stroke-width: 0.6"/>
      </g>
     </g>
    </g>
    <g id="xtick_103">
     <g id="line2d_123">
      <g>
       <use xlink:href="#mb99b57f5ec" x="251.76889" y="256.52" style="stroke: #000000; stroke-width: 0.6"/>
      </g>
     </g>
    </g>
    <g id="xtick_104">
     <g id="line2d_124">
      <g>
       <use xlink:href="#mb99b57f5ec" x="258.445104" y="256.52" style="stroke: #000000; stroke-width: 0.6"/>
      </g>
     </g>
    </g>
    <g id="xtick_105">
     <g id="line2d_125">
      <g>
       <use xlink:href="#mb99b57f5ec" x="271.797533" y="256.52" style="stroke: #000000; stroke-width: 0.6"/>
      </g>
     </g>
    </g>
   </g>
   <g id="matplotlib.axis_6">
    <g id="ytick_9">
     <g id="line2d_126">
      <path d="M 44.80625 250.325389 
L 276.804693 250.325389 
" clip-path="url(#p3d95580ec7)" style="fill: none; stroke-dasharray: 2.96,1.28; stroke-dashoffset: 0; stroke: #000000; stroke-opacity: 0.1; stroke-width: 0.8"/>
     </g>
     <g id="line2d_127">
      <g>
       <use xlink:href="#m97defced6a" x="44.80625" y="250.325389" style="stroke: #000000; stroke-width: 0.8"/>
      </g>
     </g>
     <g id="text_18">
      <!-- 0% -->
      <g transform="translate(21.942188 254.124607) scale(0.1 -0.1)">
       <use xlink:href="#DejaVuSans-30"/>
       <use xlink:href="#DejaVuSans-25" transform="translate(63.623047 0)"/>
      </g>
     </g>
    </g>
    <g id="ytick_10">
     <g id="line2d_128">
      <path d="M 44.80625 209.845701 
L 276.804693 209.845701 
" clip-path="url(#p3d95580ec7)" style="fill: none; stroke-dasharray: 2.96,1.28; stroke-dashoffset: 0; stroke: #000000; stroke-opacity: 0.1; stroke-width: 0.8"/>
     </g>
     <g id="line2d_129">
      <g>
       <use xlink:href="#m97defced6a" x="44.80625" y="209.845701" style="stroke: #000000; stroke-width: 0.8"/>
      </g>
     </g>
     <g id="text_19">
      <!-- 200% -->
      <g transform="translate(9.217188 213.64492) scale(0.1 -0.1)">
       <use xlink:href="#DejaVuSans-32"/>
       <use xlink:href="#DejaVuSans-30" transform="translate(63.623047 0)"/>
       <use xlink:href="#DejaVuSans-30" transform="translate(127.246094 0)"/>
       <use xlink:href="#DejaVuSans-25" transform="translate(190.869141 0)"/>
      </g>
     </g>
    </g>
    <g id="ytick_11">
     <g id="line2d_130">
      <path d="M 44.80625 169.366014 
L 276.804693 169.366014 
" clip-path="url(#p3d95580ec7)" style="fill: none; stroke-dasharray: 2.96,1.28; stroke-dashoffset: 0; stroke: #000000; stroke-opacity: 0.1; stroke-width: 0.8"/>
     </g>
     <g id="line2d_131">
      <g>
       <use xlink:href="#m97defced6a" x="44.80625" y="169.366014" style="stroke: #000000; stroke-width: 0.8"/>
      </g>
     </g>
     <g id="text_20">
      <!-- 400% -->
      <g transform="translate(9.217188 173.165233) scale(0.1 -0.1)">
       <use xlink:href="#DejaVuSans-34"/>
       <use xlink:href="#DejaVuSans-30" transform="translate(63.623047 0)"/>
       <use xlink:href="#DejaVuSans-30" transform="translate(127.246094 0)"/>
       <use xlink:href="#DejaVuSans-25" transform="translate(190.869141 0)"/>
      </g>
     </g>
    </g>
   </g>
   <g id="line2d_132">
    <path d="M 51.482464 250.289036 
L 54.26422 250.284878 
L 54.820571 249.945955 
L 55.376922 250.203419 
L 57.045976 250.263409 
L 59.271381 250.324944 
L 60.384083 248.18941 
L 60.940434 248.240487 
L 61.496785 247.30936 
L 62.053137 249.277874 
L 62.609488 249.408013 
L 63.165839 249.210571 
L 63.72219 249.180767 
L 64.278541 248.920986 
L 65.391244 248.977025 
L 65.947595 248.536337 
L 67.616649 248.566123 
L 68.729351 248.541707 
L 69.285702 248.413355 
L 72.067458 248.484788 
L 73.18016 248.462109 
L 74.849214 248.511295 
L 77.63097 248.489107 
L 78.187321 248.130223 
L 79.856375 248.221289 
L 80.412726 248.21925 
L 80.969077 248.402078 
L 81.525428 247.734448 
L 82.63813 247.843204 
L 84.307184 247.9253 
L 84.863535 249.263918 
L 85.419886 248.100662 
L 86.532589 248.300964 
L 87.645291 248.346846 
L 88.757993 248.45019 
L 89.314345 248.371915 
L 89.870696 249.975685 
L 90.983398 250.121989 
L 91.539749 249.997819 
L 92.652452 250.033613 
L 93.208803 250.007627 
L 93.765154 250.342413 
L 94.877856 250.37231 
L 95.434208 251.178636 
L 95.990559 249.791099 
L 97.659612 249.842413 
L 99.885017 249.864038 
L 100.441368 250.236215 
L 102.110422 250.302813 
L 102.666773 246.979635 
L 104.335827 246.997227 
L 104.892178 247.165683 
L 105.448529 246.558581 
L 106.561231 246.70509 
L 107.117583 246.704234 
L 107.673934 246.376982 
L 108.230285 246.548958 
L 109.342987 246.611214 
L 109.899338 246.706326 
L 110.45569 246.241355 
L 112.124743 246.132804 
L 112.681094 246.310161 
L 114.350148 245.982853 
L 114.906499 246.255161 
L 115.46285 245.707272 
L 116.019201 244.076686 
L 116.575553 245.211554 
L 117.131904 245.60862 
L 118.244606 245.516743 
L 118.800957 245.201607 
L 119.357309 245.037018 
L 119.91366 244.641816 
L 120.470011 243.678728 
L 121.582713 245.11315 
L 122.139064 244.493802 
L 122.695416 243.536684 
L 123.251767 243.668134 
L 123.808118 243.665048 
L 124.364469 241.390473 
L 124.92082 240.671857 
L 125.477172 241.033459 
L 126.033523 241.155078 
L 126.589874 241.133699 
L 127.146225 239.085883 
L 127.702576 239.165376 
L 128.258927 238.452572 
L 128.815279 238.336434 
L 129.37163 238.088714 
L 130.484332 238.032359 
L 131.040683 237.942064 
L 132.153386 238.038918 
L 132.709737 237.225731 
L 133.266088 238.32776 
L 134.935142 238.348429 
L 135.491493 237.9685 
L 136.604195 237.811215 
L 137.160546 236.924862 
L 137.716898 236.986113 
L 138.273249 237.707825 
L 139.385951 237.716936 
L 139.942302 237.363 
L 140.498654 237.525013 
L 141.055005 237.288084 
L 141.611356 237.307003 
L 142.167707 237.177807 
L 142.724058 234.564688 
L 143.280409 234.614549 
L 144.393112 233.980038 
L 144.949463 233.056262 
L 145.505814 233.111013 
L 146.062165 232.666781 
L 146.618517 229.573741 
L 147.731219 229.885006 
L 148.28757 229.77124 
L 149.956624 229.923654 
L 150.512975 229.618499 
L 151.069326 229.727854 
L 151.625677 229.652872 
L 152.182028 228.803679 
L 152.73838 228.816707 
L 153.294731 228.582687 
L 154.407433 228.764042 
L 154.963784 227.628621 
L 155.520135 227.596788 
L 156.076487 225.894474 
L 156.632838 225.506381 
L 157.189189 226.06325 
L 157.74554 224.683018 
L 158.301891 219.860063 
L 158.858243 218.053173 
L 159.414594 218.970702 
L 159.970945 219.34288 
L 160.527296 219.212483 
L 161.083647 216.961801 
L 161.639998 217.04223 
L 162.19635 219.53167 
L 162.752701 216.769633 
L 163.309052 226.455393 
L 163.865403 220.338598 
L 164.421754 216.389076 
L 164.978106 214.951895 
L 165.534457 214.391564 
L 166.647159 214.576262 
L 167.20351 213.376953 
L 167.759862 213.534963 
L 169.428915 213.270374 
L 169.985266 213.097425 
L 170.541617 212.397044 
L 171.097969 212.722725 
L 171.65432 212.864363 
L 172.767022 212.80907 
L 173.323373 212.556792 
L 173.879725 211.007535 
L 174.436076 210.056789 
L 174.992427 210.238096 
L 175.548778 207.646778 
L 177.774183 207.191885 
L 178.330534 207.386933 
L 179.999588 206.802813 
L 181.11229 207.123303 
L 181.668641 205.360187 
L 182.224992 197.513306 
L 182.781343 205.827224 
L 183.337695 205.121619 
L 183.894046 205.07225 
L 184.450397 206.514184 
L 185.006748 206.170919 
L 186.675802 206.341995 
L 187.232153 210.185924 
L 188.901206 209.983848 
L 189.457558 209.567701 
L 190.013909 209.737979 
L 191.682962 209.829032 
L 192.239314 210.080526 
L 192.795665 210.061361 
L 193.352016 211.857513 
L 193.908367 212.647896 
L 194.464718 215.547183 
L 195.021069 215.278695 
L 195.577421 213.456457 
L 196.133772 213.61155 
L 196.690123 213.618588 
L 197.802825 213.830249 
L 198.359177 212.153875 
L 198.915528 211.833062 
L 200.584581 212.041167 
L 201.140933 211.877291 
L 201.697284 212.18139 
L 202.253635 212.152432 
L 202.809986 212.852852 
L 203.366337 212.999755 
L 203.922688 212.978777 
L 204.47904 212.7173 
L 205.035391 208.098419 
L 205.591742 208.502795 
L 206.148093 208.769019 
L 207.817147 208.861393 
L 208.373498 210.00223 
L 208.929849 208.039566 
L 209.4862 208.305554 
L 210.042551 207.955063 
L 210.598903 209.116964 
L 211.155254 209.168765 
L 211.711605 206.18194 
L 212.267956 203.84449 
L 212.824307 203.843544 
L 213.380659 203.389384 
L 213.93701 203.659175 
L 214.493361 199.370346 
L 215.049712 199.129105 
L 216.162414 199.194897 
L 216.718766 199.517361 
L 217.275117 200.693237 
L 217.831468 200.735976 
L 218.94417 200.363758 
L 220.056873 200.318126 
L 220.613224 200.301506 
L 221.169575 200.396873 
L 221.725926 200.346724 
L 222.282277 199.939006 
L 223.951331 200.014635 
L 224.507682 199.81715 
L 225.064033 198.888147 
L 225.620385 199.165147 
L 226.176736 198.910493 
L 227.289438 198.979503 
L 228.40214 199.524614 
L 229.514843 199.643394 
L 230.071194 198.455677 
L 230.627545 198.370919 
L 231.183896 194.933409 
L 231.740248 194.472245 
L 232.296599 194.482769 
L 232.85295 195.043118 
L 233.409301 195.059034 
L 234.522003 192.252354 
L 235.078355 192.210991 
L 235.634706 187.138856 
L 236.191057 187.256281 
L 236.747408 187.128516 
L 237.303759 187.231137 
L 237.860111 186.98992 
L 238.416462 183.630528 
L 238.972813 184.66008 
L 239.529164 183.600067 
L 240.085515 181.16471 
L 241.198218 180.803349 
L 241.754569 179.387544 
L 242.31092 179.375569 
L 242.867271 179.950921 
L 243.423622 180.000505 
L 243.979974 181.320402 
L 244.536325 180.878746 
L 245.092676 181.003642 
L 245.649027 181.413256 
L 246.205378 181.492944 
L 246.76173 181.269642 
L 247.318081 180.343157 
L 247.874432 181.994992 
L 248.430783 181.814293 
L 248.987134 181.816902 
L 249.543485 182.160684 
L 250.099837 182.023184 
L 250.656188 182.159164 
L 251.212539 182.051945 
L 251.76889 182.209577 
L 252.325241 179.157943 
L 252.881593 179.031995 
L 253.437944 179.63336 
L 253.994295 179.766681 
L 254.550646 180.384169 
L 255.106997 180.558761 
L 255.663348 180.912977 
L 256.2197 181.667752 
L 256.776051 181.736602 
L 257.332402 179.759302 
L 258.445104 177.280436 
L 259.001456 178.098384 
L 259.557807 177.395604 
L 260.114158 177.358726 
L 261.22686 177.56981 
L 261.783211 177.312704 
L 262.339563 177.39242 
L 262.895914 178.717441 
L 263.452265 172.049485 
L 264.008616 171.036348 
L 264.564967 170.769073 
L 265.67767 170.801909 
L 266.234021 169.862583 
L 266.790372 168.611152 
L 267.903074 168.525324 
L 268.459426 167.506712 
L 269.015777 167.355535 
L 269.572128 166.980636 
L 270.128479 164.231734 
L 271.241182 164.714444 
L 272.353884 163.606523 
L 272.910235 153.51752 
L 273.466586 147.990376 
L 275.13564 147.975719 
L 275.691991 147.523236 
L 276.248342 144.536822 
L 276.804693 144.351364 
L 276.804693 144.351364 
" clip-path="url(#p3d95580ec7)" style="fill: none; stroke: #2ca02c; stroke-width: 1.5; stroke-linecap: square"/>
   </g>
   <g id="patch_15">
    <path d="M 44.80625 256.52 
L 44.80625 139.01 
" style="fill: none"/>
   </g>
   <g id="patch_16">
    <path d="M 276.804693 256.52 
L 276.804693 139.01 
" style="fill: none"/>
   </g>
   <g id="patch_17">
    <path d="M 44.80625 256.52 
L 276.804693 256.52 
" style="fill: none; stroke: #000000; stroke-width: 0.8; stroke-linejoin: miter; stroke-linecap: square"/>
   </g>
   <g id="patch_18">
    <path d="M 44.80625 139.01 
L 276.804693 139.01 
" style="fill: none"/>
   </g>
   <g id="legend_3">
    <g id="patch_19">
     <path d="M 216.784381 161.688125 
L 269.804693 161.688125 
Q 271.804693 161.688125 271.804693 159.688125 
L 271.804693 146.01 
Q 271.804693 144.01 269.804693 144.01 
L 216.784381 144.01 
Q 214.784381 144.01 214.784381 146.01 
L 214.784381 159.688125 
Q 214.784381 161.688125 216.784381 161.688125 
L 216.784381 161.688125 
z
" style="fill: none; opacity: 0"/>
    </g>
    <g id="line2d_133">
     <path d="M 218.784381 152.108437 
L 228.784381 152.108437 
L 238.784381 152.108437 
" style="fill: none; stroke: #2ca02c; stroke-width: 1.5; stroke-linecap: square"/>
    </g>
    <g id="text_21">
     <!-- GLD -->
     <g transform="translate(246.784381 155.608437) scale(0.1 -0.1)">
      <defs>
       <path id="DejaVuSans-47" d="M 3809 666 
L 3809 1919 
L 2778 1919 
L 2778 2438 
L 4434 2438 
L 4434 434 
Q 4069 175 3628 42 
Q 3188 -91 2688 -91 
Q 1594 -91 976 548 
Q 359 1188 359 2328 
Q 359 3472 976 4111 
Q 1594 4750 2688 4750 
Q 3144 4750 3555 4637 
Q 3966 4525 4313 4306 
L 4313 3634 
Q 3963 3931 3569 4081 
Q 3175 4231 2741 4231 
Q 1884 4231 1454 3753 
Q 1025 3275 1025 2328 
Q 1025 1384 1454 906 
Q 1884 428 2741 428 
Q 3075 428 3337 486 
Q 3600 544 3809 666 
z
" transform="scale(0.015625)"/>
       <path id="DejaVuSans-44" d="M 1259 4147 
L 1259 519 
L 2022 519 
Q 2988 519 3436 956 
Q 3884 1394 3884 2338 
Q 3884 3275 3436 3711 
Q 2988 4147 2022 4147 
L 1259 4147 
z
M 628 4666 
L 1925 4666 
Q 3281 4666 3915 4102 
Q 4550 3538 4550 2338 
Q 4550 1131 3912 565 
Q 3275 0 1925 0 
L 628 0 
L 628 4666 
z
" transform="scale(0.015625)"/>
      </defs>
      <use xlink:href="#DejaVuSans-47"/>
      <use xlink:href="#DejaVuSans-4c" transform="translate(77.490234 0)"/>
      <use xlink:href="#DejaVuSans-44" transform="translate(133.203125 0)"/>
     </g>
    </g>
   </g>
  </g>
  <g id="axes_4">
   <g id="patch_20">
    <path d="M 327.40625 256.52 
L 559.404693 256.52 
L 559.404693 139.01 
L 327.40625 139.01 
L 327.40625 256.52 
z
" style="fill: none"/>
   </g>
   <g id="matplotlib.axis_7">
    <g id="xtick_106">
     <g id="line2d_134">
      <g>
       <use xlink:href="#m6e9ad49515" x="347.434893" y="256.52" style="stroke: #000000; stroke-width: 0.8"/>
      </g>
     </g>
     <g id="text_22">
      <!-- 1994 -->
      <g transform="translate(334.709893 271.118437) scale(0.1 -0.1)">
       <use xlink:href="#DejaVuSans-31"/>
       <use xlink:href="#DejaVuSans-39" transform="translate(63.623047 0)"/>
       <use xlink:href="#DejaVuSans-39" transform="translate(127.246094 0)"/>
       <use xlink:href="#DejaVuSans-34" transform="translate(190.869141 0)"/>
      </g>
     </g>
    </g>
    <g id="xtick_107">
     <g id="line2d_135">
      <g>
       <use xlink:href="#m6e9ad49515" x="380.815964" y="256.52" style="stroke: #000000; stroke-width: 0.8"/>
      </g>
     </g>
     <g id="text_23">
      <!-- 1999 -->
      <g transform="translate(368.090964 271.118437) scale(0.1 -0.1)">
       <use xlink:href="#DejaVuSans-31"/>
       <use xlink:href="#DejaVuSans-39" transform="translate(63.623047 0)"/>
       <use xlink:href="#DejaVuSans-39" transform="translate(127.246094 0)"/>
       <use xlink:href="#DejaVuSans-39" transform="translate(190.869141 0)"/>
      </g>
     </g>
    </g>
    <g id="xtick_108">
     <g id="line2d_136">
      <g>
       <use xlink:href="#m6e9ad49515" x="414.197035" y="256.52" style="stroke: #000000; stroke-width: 0.8"/>
      </g>
     </g>
     <g id="text_24">
      <!-- 2004 -->
      <g transform="translate(401.472035 271.118437) scale(0.1 -0.1)">
       <use xlink:href="#DejaVuSans-32"/>
       <use xlink:href="#DejaVuSans-30" transform="translate(63.623047 0)"/>
       <use xlink:href="#DejaVuSans-30" transform="translate(127.246094 0)"/>
       <use xlink:href="#DejaVuSans-34" transform="translate(190.869141 0)"/>
      </g>
     </g>
    </g>
    <g id="xtick_109">
     <g id="line2d_137">
      <g>
       <use xlink:href="#m6e9ad49515" x="447.578106" y="256.52" style="stroke: #000000; stroke-width: 0.8"/>
      </g>
     </g>
     <g id="text_25">
      <!-- 2009 -->
      <g transform="translate(434.853106 271.118437) scale(0.1 -0.1)">
       <use xlink:href="#DejaVuSans-32"/>
       <use xlink:href="#DejaVuSans-30" transform="translate(63.623047 0)"/>
       <use xlink:href="#DejaVuSans-30" transform="translate(127.246094 0)"/>
       <use xlink:href="#DejaVuSans-39" transform="translate(190.869141 0)"/>
      </g>
     </g>
    </g>
    <g id="xtick_110">
     <g id="line2d_138">
      <g>
       <use xlink:href="#m6e9ad49515" x="480.959177" y="256.52" style="stroke: #000000; stroke-width: 0.8"/>
      </g>
     </g>
     <g id="text_26">
      <!-- 2014 -->
      <g transform="translate(468.234177 271.118437) scale(0.1 -0.1)">
       <use xlink:href="#DejaVuSans-32"/>
       <use xlink:href="#DejaVuSans-30" transform="translate(63.623047 0)"/>
       <use xlink:href="#DejaVuSans-31" transform="translate(127.246094 0)"/>
       <use xlink:href="#DejaVuSans-34" transform="translate(190.869141 0)"/>
      </g>
     </g>
    </g>
    <g id="xtick_111">
     <g id="line2d_139">
      <g>
       <use xlink:href="#m6e9ad49515" x="514.340248" y="256.52" style="stroke: #000000; stroke-width: 0.8"/>
      </g>
     </g>
     <g id="text_27">
      <!-- 2019 -->
      <g transform="translate(501.615248 271.118437) scale(0.1 -0.1)">
       <use xlink:href="#DejaVuSans-32"/>
       <use xlink:href="#DejaVuSans-30" transform="translate(63.623047 0)"/>
       <use xlink:href="#DejaVuSans-31" transform="translate(127.246094 0)"/>
       <use xlink:href="#DejaVuSans-39" transform="translate(190.869141 0)"/>
      </g>
     </g>
    </g>
    <g id="xtick_112">
     <g id="line2d_140">
      <g>
       <use xlink:href="#m6e9ad49515" x="547.721319" y="256.52" style="stroke: #000000; stroke-width: 0.8"/>
      </g>
     </g>
     <g id="text_28">
      <!-- 2024 -->
      <g transform="translate(534.996319 271.118437) scale(0.1 -0.1)">
       <use xlink:href="#DejaVuSans-32"/>
       <use xlink:href="#DejaVuSans-30" transform="translate(63.623047 0)"/>
       <use xlink:href="#DejaVuSans-32" transform="translate(127.246094 0)"/>
       <use xlink:href="#DejaVuSans-34" transform="translate(190.869141 0)"/>
      </g>
     </g>
    </g>
    <g id="xtick_113">
     <g id="line2d_141">
      <g>
       <use xlink:href="#mb99b57f5ec" x="327.40625" y="256.52" style="stroke: #000000; stroke-width: 0.6"/>
      </g>
     </g>
    </g>
    <g id="xtick_114">
     <g id="line2d_142">
      <g>
       <use xlink:href="#mb99b57f5ec" x="334.082464" y="256.52" style="stroke: #000000; stroke-width: 0.6"/>
      </g>
     </g>
    </g>
    <g id="xtick_115">
     <g id="line2d_143">
      <g>
       <use xlink:href="#mb99b57f5ec" x="340.758678" y="256.52" style="stroke: #000000; stroke-width: 0.6"/>
      </g>
     </g>
    </g>
    <g id="xtick_116">
     <g id="line2d_144">
      <g>
       <use xlink:href="#mb99b57f5ec" x="354.111107" y="256.52" style="stroke: #000000; stroke-width: 0.6"/>
      </g>
     </g>
    </g>
    <g id="xtick_117">
     <g id="line2d_145">
      <g>
       <use xlink:href="#mb99b57f5ec" x="360.787321" y="256.52" style="stroke: #000000; stroke-width: 0.6"/>
      </g>
     </g>
    </g>
    <g id="xtick_118">
     <g id="line2d_146">
      <g>
       <use xlink:href="#mb99b57f5ec" x="367.463535" y="256.52" style="stroke: #000000; stroke-width: 0.6"/>
      </g>
     </g>
    </g>
    <g id="xtick_119">
     <g id="line2d_147">
      <g>
       <use xlink:href="#mb99b57f5ec" x="374.139749" y="256.52" style="stroke: #000000; stroke-width: 0.6"/>
      </g>
     </g>
    </g>
    <g id="xtick_120">
     <g id="line2d_148">
      <g>
       <use xlink:href="#mb99b57f5ec" x="387.492178" y="256.52" style="stroke: #000000; stroke-width: 0.6"/>
      </g>
     </g>
    </g>
    <g id="xtick_121">
     <g id="line2d_149">
      <g>
       <use xlink:href="#mb99b57f5ec" x="394.168392" y="256.52" style="stroke: #000000; stroke-width: 0.6"/>
      </g>
     </g>
    </g>
    <g id="xtick_122">
     <g id="line2d_150">
      <g>
       <use xlink:href="#mb99b57f5ec" x="400.844606" y="256.52" style="stroke: #000000; stroke-width: 0.6"/>
      </g>
     </g>
    </g>
    <g id="xtick_123">
     <g id="line2d_151">
      <g>
       <use xlink:href="#mb99b57f5ec" x="407.52082" y="256.52" style="stroke: #000000; stroke-width: 0.6"/>
      </g>
     </g>
    </g>
    <g id="xtick_124">
     <g id="line2d_152">
      <g>
       <use xlink:href="#mb99b57f5ec" x="420.873249" y="256.52" style="stroke: #000000; stroke-width: 0.6"/>
      </g>
     </g>
    </g>
    <g id="xtick_125">
     <g id="line2d_153">
      <g>
       <use xlink:href="#mb99b57f5ec" x="427.549463" y="256.52" style="stroke: #000000; stroke-width: 0.6"/>
      </g>
     </g>
    </g>
    <g id="xtick_126">
     <g id="line2d_154">
      <g>
       <use xlink:href="#mb99b57f5ec" x="434.225677" y="256.52" style="stroke: #000000; stroke-width: 0.6"/>
      </g>
     </g>
    </g>
    <g id="xtick_127">
     <g id="line2d_155">
      <g>
       <use xlink:href="#mb99b57f5ec" x="440.901891" y="256.52" style="stroke: #000000; stroke-width: 0.6"/>
      </g>
     </g>
    </g>
    <g id="xtick_128">
     <g id="line2d_156">
      <g>
       <use xlink:href="#mb99b57f5ec" x="454.25432" y="256.52" style="stroke: #000000; stroke-width: 0.6"/>
      </g>
     </g>
    </g>
    <g id="xtick_129">
     <g id="line2d_157">
      <g>
       <use xlink:href="#mb99b57f5ec" x="460.930534" y="256.52" style="stroke: #000000; stroke-width: 0.6"/>
      </g>
     </g>
    </g>
    <g id="xtick_130">
     <g id="line2d_158">
      <g>
       <use xlink:href="#mb99b57f5ec" x="467.606748" y="256.52" style="stroke: #000000; stroke-width: 0.6"/>
      </g>
     </g>
    </g>
    <g id="xtick_131">
     <g id="line2d_159">
      <g>
       <use xlink:href="#mb99b57f5ec" x="474.282962" y="256.52" style="stroke: #000000; stroke-width: 0.6"/>
      </g>
     </g>
    </g>
    <g id="xtick_132">
     <g id="line2d_160">
      <g>
       <use xlink:href="#mb99b57f5ec" x="487.635391" y="256.52" style="stroke: #000000; stroke-width: 0.6"/>
      </g>
     </g>
    </g>
    <g id="xtick_133">
     <g id="line2d_161">
      <g>
       <use xlink:href="#mb99b57f5ec" x="494.311605" y="256.52" style="stroke: #000000; stroke-width: 0.6"/>
      </g>
     </g>
    </g>
    <g id="xtick_134">
     <g id="line2d_162">
      <g>
       <use xlink:href="#mb99b57f5ec" x="500.987819" y="256.52" style="stroke: #000000; stroke-width: 0.6"/>
      </g>
     </g>
    </g>
    <g id="xtick_135">
     <g id="line2d_163">
      <g>
       <use xlink:href="#mb99b57f5ec" x="507.664033" y="256.52" style="stroke: #000000; stroke-width: 0.6"/>
      </g>
     </g>
    </g>
    <g id="xtick_136">
     <g id="line2d_164">
      <g>
       <use xlink:href="#mb99b57f5ec" x="521.016462" y="256.52" style="stroke: #000000; stroke-width: 0.6"/>
      </g>
     </g>
    </g>
    <g id="xtick_137">
     <g id="line2d_165">
      <g>
       <use xlink:href="#mb99b57f5ec" x="527.692676" y="256.52" style="stroke: #000000; stroke-width: 0.6"/>
      </g>
     </g>
    </g>
    <g id="xtick_138">
     <g id="line2d_166">
      <g>
       <use xlink:href="#mb99b57f5ec" x="534.36889" y="256.52" style="stroke: #000000; stroke-width: 0.6"/>
      </g>
     </g>
    </g>
    <g id="xtick_139">
     <g id="line2d_167">
      <g>
       <use xlink:href="#mb99b57f5ec" x="541.045104" y="256.52" style="stroke: #000000; stroke-width: 0.6"/>
      </g>
     </g>
    </g>
    <g id="xtick_140">
     <g id="line2d_168">
      <g>
       <use xlink:href="#mb99b57f5ec" x="554.397533" y="256.52" style="stroke: #000000; stroke-width: 0.6"/>
      </g>
     </g>
    </g>
   </g>
   <g id="matplotlib.axis_8">
    <g id="ytick_12">
     <g id="line2d_169">
      <path d="M 327.40625 227.543423 
L 559.404693 227.543423 
" clip-path="url(#p4ee70cac49)" style="fill: none; stroke-dasharray: 2.96,1.28; stroke-dashoffset: 0; stroke: #000000; stroke-opacity: 0.1; stroke-width: 0.8"/>
     </g>
     <g id="line2d_170">
      <g>
       <use xlink:href="#m97defced6a" x="327.40625" y="227.543423" style="stroke: #000000; stroke-width: 0.8"/>
      </g>
     </g>
     <g id="text_29">
      <!-- −50% -->
      <g transform="translate(289.8 231.342641) scale(0.1 -0.1)">
       <use xlink:href="#DejaVuSans-2212"/>
       <use xlink:href="#DejaVuSans-35" transform="translate(83.789062 0)"/>
       <use xlink:href="#DejaVuSans-30" transform="translate(147.412109 0)"/>
       <use xlink:href="#DejaVuSans-25" transform="translate(211.035156 0)"/>
      </g>
     </g>
    </g>
    <g id="ytick_13">
     <g id="line2d_171">
      <path d="M 327.40625 194.260879 
L 559.404693 194.260879 
" clip-path="url(#p4ee70cac49)" style="fill: none; stroke-dasharray: 2.96,1.28; stroke-dashoffset: 0; stroke: #000000; stroke-opacity: 0.1; stroke-width: 0.8"/>
     </g>
     <g id="line2d_172">
      <g>
       <use xlink:href="#m97defced6a" x="327.40625" y="194.260879" style="stroke: #000000; stroke-width: 0.8"/>
      </g>
     </g>
     <g id="text_30">
      <!-- 0% -->
      <g transform="translate(304.542188 198.060098) scale(0.1 -0.1)">
       <use xlink:href="#DejaVuSans-30"/>
       <use xlink:href="#DejaVuSans-25" transform="translate(63.623047 0)"/>
      </g>
     </g>
    </g>
    <g id="ytick_14">
     <g id="line2d_173">
      <path d="M 327.40625 160.978336 
L 559.404693 160.978336 
" clip-path="url(#p4ee70cac49)" style="fill: none; stroke-dasharray: 2.96,1.28; stroke-dashoffset: 0; stroke: #000000; stroke-opacity: 0.1; stroke-width: 0.8"/>
     </g>
     <g id="line2d_174">
      <g>
       <use xlink:href="#m97defced6a" x="327.40625" y="160.978336" style="stroke: #000000; stroke-width: 0.8"/>
      </g>
     </g>
     <g id="text_31">
      <!-- 50% -->
      <g transform="translate(298.179688 164.777555) scale(0.1 -0.1)">
       <use xlink:href="#DejaVuSans-35"/>
       <use xlink:href="#DejaVuSans-30" transform="translate(63.623047 0)"/>
       <use xlink:href="#DejaVuSans-25" transform="translate(127.246094 0)"/>
      </g>
     </g>
    </g>
   </g>
   <g id="line2d_175">
    <path d="M 334.082464 193.94536 
L 335.195167 193.926048 
L 335.751518 193.838777 
L 336.307869 193.441904 
L 336.86422 193.506451 
L 337.420571 193.824051 
L 338.533274 193.763329 
L 339.089625 193.926404 
L 340.202327 193.943943 
L 340.758678 193.802648 
L 341.31503 193.439628 
L 341.871381 193.368861 
L 342.427732 194.061055 
L 343.540434 197.18055 
L 344.096785 197.451683 
L 344.653137 196.941476 
L 345.209488 196.921383 
L 346.32219 198.24546 
L 346.878541 198.493437 
L 347.434893 198.102541 
L 347.991244 198.426704 
L 348.547595 198.918265 
L 350.216649 198.606877 
L 350.773 198.474461 
L 351.329351 198.988746 
L 351.885702 199.183647 
L 352.442053 199.172445 
L 352.998404 200.358734 
L 353.554756 200.201816 
L 354.111107 200.329386 
L 355.78016 200.110771 
L 356.336512 200.600376 
L 357.449214 200.601124 
L 358.005565 200.4561 
L 359.118267 200.346159 
L 360.23097 199.501229 
L 360.787321 199.531884 
L 361.900023 198.864748 
L 362.456375 198.660016 
L 363.012726 198.679604 
L 363.569077 198.071764 
L 364.125428 201.040283 
L 364.681779 200.987382 
L 365.23813 200.630739 
L 365.794482 200.652045 
L 366.350833 199.873914 
L 366.907184 199.813202 
L 367.463535 200.657109 
L 368.019886 204.76049 
L 369.132589 204.462547 
L 369.68894 204.436296 
L 370.245291 204.719503 
L 370.801642 204.259482 
L 371.914345 203.827589 
L 372.470696 202.288155 
L 373.027047 202.870058 
L 373.583398 203.240316 
L 374.139749 203.351489 
L 374.696101 203.905397 
L 375.252452 203.916996 
L 375.808803 204.046494 
L 376.365154 205.095857 
L 376.921505 205.367207 
L 377.477856 205.858038 
L 378.034208 209.102085 
L 378.590559 203.85201 
L 379.14691 204.180627 
L 379.703261 204.852497 
L 380.815964 204.880026 
L 381.372315 206.1866 
L 381.928666 205.439833 
L 382.485017 205.362871 
L 383.041368 206.354017 
L 384.710422 205.818745 
L 385.266773 202.901198 
L 385.823124 203.102957 
L 386.935827 202.958515 
L 387.492178 201.184679 
L 388.048529 197.726169 
L 389.161231 197.843462 
L 389.717583 197.14841 
L 390.273934 196.124255 
L 390.830285 197.365013 
L 391.386636 196.396705 
L 391.942987 196.522424 
L 392.499338 196.504333 
L 393.05569 190.61966 
L 394.168392 191.097289 
L 394.724743 192.038204 
L 395.281094 192.62488 
L 395.837446 192.000852 
L 396.393797 192.131142 
L 396.950148 194.393865 
L 397.506499 194.285566 
L 398.06285 193.820106 
L 398.619201 201.161153 
L 399.731904 206.465039 
L 400.288255 206.544233 
L 400.844606 206.787465 
L 401.400957 206.213682 
L 401.957309 203.811022 
L 402.51366 203.341675 
L 403.070011 204.972607 
L 403.626362 203.731892 
L 404.182713 203.448559 
L 405.295416 197.925864 
L 405.851767 198.718285 
L 406.408118 198.722614 
L 406.964469 193.699906 
L 408.077172 189.126107 
L 408.633523 190.168201 
L 409.189874 190.499087 
L 409.746225 184.235728 
L 410.302576 184.227365 
L 410.858927 183.69178 
L 411.415279 183.505814 
L 411.97163 184.445883 
L 413.084332 184.288738 
L 413.640683 184.004169 
L 414.197035 183.986982 
L 415.309737 183.047373 
L 415.866088 182.295553 
L 416.422439 182.146337 
L 416.978791 182.39091 
L 417.535142 180.677723 
L 418.091493 181.417426 
L 418.647844 179.714638 
L 419.204195 179.515916 
L 419.760546 181.51628 
L 420.316898 182.043838 
L 420.873249 179.115314 
L 421.4296 178.904198 
L 421.985951 178.307779 
L 422.542302 183.783814 
L 423.098654 183.8479 
L 423.655005 183.168445 
L 424.211356 182.992181 
L 424.767707 177.945024 
L 425.324058 177.930677 
L 425.880409 179.356244 
L 426.436761 179.81682 
L 426.993112 179.395214 
L 427.549463 178.537091 
L 428.105814 179.290103 
L 428.662165 177.91072 
L 429.218517 174.348558 
L 429.774868 174.542048 
L 430.88757 174.323503 
L 432.000272 175.536037 
L 432.556624 175.673893 
L 433.112975 175.222682 
L 433.669326 176.097672 
L 434.225677 176.247402 
L 434.782028 173.804775 
L 435.894731 173.649992 
L 436.451082 173.735832 
L 437.007433 173.467046 
L 437.563784 169.558929 
L 438.120135 169.794884 
L 438.676487 166.511236 
L 439.232838 165.769038 
L 439.789189 166.205769 
L 440.34554 163.606491 
L 440.901891 164.048709 
L 441.458243 156.797425 
L 442.014594 157.095063 
L 442.570945 156.043332 
L 443.127296 155.248006 
L 443.683647 144.351364 
L 444.239998 146.104614 
L 444.79635 150.419054 
L 445.352701 161.938852 
L 445.909052 191.273663 
L 446.465403 201.621959 
L 447.021754 207.922967 
L 447.578106 210.858804 
L 448.134457 212.871111 
L 448.690808 212.75188 
L 449.247159 212.799209 
L 449.80351 210.562968 
L 452.028915 210.623562 
L 452.585266 210.391396 
L 453.697969 210.295043 
L 454.25432 211.195674 
L 455.923373 210.97399 
L 456.479725 217.629239 
L 457.036076 217.61116 
L 457.592427 217.465619 
L 458.148778 219.275954 
L 459.26148 219.046855 
L 459.817832 219.014203 
L 460.930534 218.784774 
L 462.599588 218.527518 
L 463.155939 219.142963 
L 463.71229 219.402976 
L 464.268641 218.968393 
L 464.824992 219.666933 
L 465.381343 224.902506 
L 465.937695 224.274875 
L 466.494046 224.241351 
L 467.050397 224.428902 
L 468.719451 224.397608 
L 469.275802 224.4142 
L 469.832153 229.010793 
L 470.388504 229.00323 
L 471.501206 228.725158 
L 473.17026 228.914116 
L 475.395665 228.994283 
L 475.952016 229.595824 
L 476.508367 229.715114 
L 477.064718 229.719285 
L 477.621069 229.600831 
L 478.177421 229.09995 
L 479.846474 229.193114 
L 480.402825 229.180406 
L 480.959177 229.829302 
L 481.515528 229.704742 
L 483.740933 229.664496 
L 484.297284 229.962787 
L 484.853635 230.030891 
L 485.409986 230.413216 
L 485.966337 230.554682 
L 486.522688 230.87283 
L 487.635391 235.786329 
L 488.191742 235.599562 
L 488.748093 235.891552 
L 489.304444 235.691286 
L 490.417147 235.729775 
L 490.973498 236.73489 
L 491.529849 236.67062 
L 492.0862 237.103887 
L 492.642551 237.107241 
L 493.198903 237.713819 
L 493.755254 238.025411 
L 494.311605 239.13034 
L 494.867956 239.28579 
L 495.424307 239.229647 
L 495.980659 238.887576 
L 497.093361 238.760476 
L 497.649712 239.084274 
L 502.100522 239.02218 
L 503.769575 239.094228 
L 507.107682 238.929335 
L 507.664033 238.498957 
L 508.220385 238.679427 
L 508.776736 238.346984 
L 510.445789 238.245827 
L 511.00214 238.370158 
L 512.114843 238.297179 
L 512.671194 239.633776 
L 513.227545 240.056752 
L 513.783896 241.554977 
L 514.340248 241.252198 
L 514.896599 241.234131 
L 515.45295 241.094154 
L 516.009301 241.079612 
L 516.565652 242.730173 
L 517.122003 242.545609 
L 517.678355 242.549321 
L 518.234706 243.434311 
L 520.460111 243.3257 
L 521.016462 245.114591 
L 521.572813 246.336318 
L 522.129164 250.739588 
L 522.685515 251.130802 
L 523.798218 250.99276 
L 524.91092 250.908031 
L 526.023622 251.011016 
L 526.579974 250.687936 
L 532.699837 250.208778 
L 533.256188 250.458964 
L 534.36889 250.301966 
L 534.925241 249.777154 
L 536.594295 249.481192 
L 537.150646 249.862899 
L 538.263348 249.91238 
L 538.8197 250.151154 
L 539.932402 250.155948 
L 541.601456 250.311725 
L 543.82686 250.363805 
L 544.383211 250.226982 
L 544.939563 250.223699 
L 545.495914 250.105477 
L 546.052265 250.51818 
L 546.608616 250.702104 
L 547.721319 250.751295 
L 553.841182 250.617764 
L 554.953884 250.637167 
L 555.510235 250.371247 
L 556.066586 251.178636 
L 559.404693 251.108085 
L 559.404693 251.108085 
" clip-path="url(#p4ee70cac49)" style="fill: none; stroke: #d62728; stroke-width: 1.5; stroke-linecap: square"/>
   </g>
   <g id="patch_21">
    <path d="M 327.40625 256.52 
L 327.40625 139.01 
" style="fill: none"/>
   </g>
   <g id="patch_22">
    <path d="M 559.404693 256.52 
L 559.404693 139.01 
" style="fill: none"/>
   </g>
   <g id="patch_23">
    <path d="M 327.40625 256.52 
L 559.404693 256.52 
" style="fill: none; stroke: #000000; stroke-width: 0.8; stroke-linejoin: miter; stroke-linecap: square"/>
   </g>
   <g id="patch_24">
    <path d="M 327.40625 139.01 
L 559.404693 139.01 
" style="fill: none"/>
   </g>
   <g id="legend_4">
    <g id="patch_25">
     <path d="M 498.559381 161.688125 
L 552.404693 161.688125 
Q 554.404693 161.688125 554.404693 159.688125 
L 554.404693 146.01 
Q 554.404693 144.01 552.404693 144.01 
L 498.559381 144.01 
Q 496.559381 144.01 496.559381 146.01 
L 496.559381 159.688125 
Q 496.559381 161.688125 498.559381 161.688125 
L 498.559381 161.688125 
z
" style="fill: none; opacity: 0"/>
    </g>
    <g id="line2d_176">
     <path d="M 500.559381 152.108437 
L 510.559381 152.108437 
L 520.559381 152.108437 
" style="fill: none; stroke: #d62728; stroke-width: 1.5; stroke-linecap: square"/>
    </g>
    <g id="text_32">
     <!-- GSG -->
     <g transform="translate(528.559381 155.608437) scale(0.1 -0.1)">
      <use xlink:href="#DejaVuSans-47"/>
      <use xlink:href="#DejaVuSans-53" transform="translate(77.490234 0)"/>
      <use xlink:href="#DejaVuSans-47" transform="translate(140.966797 0)"/>
     </g>
    </g>
   </g>
  </g>
 </g>
 <defs>
  <clipPath id="p2d1ff82739">
   <rect x="44.80625" y="7.2" width="231.998443" height="117.51"/>
  </clipPath>
  <clipPath id="pf6f0d2a4b7">
   <rect x="327.40625" y="7.2" width="231.998443" height="117.51"/>
  </clipPath>
  <clipPath id="p3d95580ec7">
   <rect x="44.80625" y="139.01" width="231.998443" height="117.51"/>
  </clipPath>
  <clipPath id="p4ee70cac49">
   <rect x="327.40625" y="139.01" width="231.998443" height="117.51"/>
  </clipPath>
 </defs>
</svg>
