<?xml version="1.0" encoding="utf-8" standalone="no"?>
<!DOCTYPE svg PUBLIC "-//W3C//DTD SVG 1.1//EN"
  "http://www.w3.org/Graphics/SVG/1.1/DTD/svg11.dtd">
<svg xmlns:xlink="http://www.w3.org/1999/xlink" width="856.8075pt" height="207.99625pt" viewBox="0 0 856.8075 207.99625" xmlns="http://www.w3.org/2000/svg" version="1.1">
 <metadata>
  <rdf:RDF xmlns:dc="http://purl.org/dc/elements/1.1/" xmlns:cc="http://creativecommons.org/ns#" xmlns:rdf="http://www.w3.org/1999/02/22-rdf-syntax-ns#">
   <cc:Work>
    <dc:type rdf:resource="http://purl.org/dc/dcmitype/StillImage"/>
    <dc:date>2025-11-16T14:07:57.375703</dc:date>
    <dc:format>image/svg+xml</dc:format>
    <dc:creator>
     <cc:Agent>
      <dc:title>Matplotlib v3.10.7, https://matplotlib.org/</dc:title>
     </cc:Agent>
    </dc:creator>
   </cc:Work>
  </rdf:RDF>
 </metadata>
 <defs>
  <style type="text/css">*{stroke-linejoin: round; stroke-linecap: butt}</style>
 </defs>
 <g id="figure_1">
  <g id="patch_1">
   <path d="M 0 207.99625 
L 856.8075 207.99625 
L 856.8075 0 
L 0 0 
L 0 207.99625 
z
" style="fill: none"/>
  </g>
  <g id="axes_1">
   <g id="patch_2">
    <path d="M 33.2875 170.44 
L 849.6075 170.44 
L 849.6075 7.2 
L 33.2875 7.2 
L 33.2875 170.44 
z
" style="fill: none"/>
   </g>
   <g id="matplotlib.axis_1">
    <g id="xtick_1">
     <g id="line2d_1">
      <defs>
       <path id="m296320d8cb" d="M 0 0 
L 0 3.5 
" style="stroke: #000000; stroke-width: 0.8"/>
      </defs>
      <g>
       <use xlink:href="#m296320d8cb" x="159.685435" y="170.44" style="stroke: #000000; stroke-width: 0.8"/>
      </g>
     </g>
     <g id="text_1">
      <!-- 2004 -->
      <g transform="translate(146.960435 185.038438) scale(0.1 -0.1)">
       <defs>
        <path id="DejaVuSans-32" d="M 1228 531 
L 3431 531 
L 3431 0 
L 469 0 
L 469 531 
Q 828 903 1448 1529 
Q 2069 2156 2228 2338 
Q 2531 2678 2651 2914 
Q 2772 3150 2772 3378 
Q 2772 3750 2511 3984 
Q 2250 4219 1831 4219 
Q 1534 4219 1204 4116 
Q 875 4013 500 3803 
L 500 4441 
Q 881 4594 1212 4672 
Q 1544 4750 1819 4750 
Q 2544 4750 2975 4387 
Q 3406 4025 3406 3419 
Q 3406 3131 3298 2873 
Q 3191 2616 2906 2266 
Q 2828 2175 2409 1742 
Q 1991 1309 1228 531 
z
" transform="scale(0.015625)"/>
        <path id="DejaVuSans-30" d="M 2034 4250 
Q 1547 4250 1301 3770 
Q 1056 3291 1056 2328 
Q 1056 1369 1301 889 
Q 1547 409 2034 409 
Q 2525 409 2770 889 
Q 3016 1369 3016 2328 
Q 3016 3291 2770 3770 
Q 2525 4250 2034 4250 
z
M 2034 4750 
Q 2819 4750 3233 4129 
Q 3647 3509 3647 2328 
Q 3647 1150 3233 529 
Q 2819 -91 2034 -91 
Q 1250 -91 836 529 
Q 422 1150 422 2328 
Q 422 3509 836 4129 
Q 1250 4750 2034 4750 
z
" transform="scale(0.015625)"/>
        <path id="DejaVuSans-34" d="M 2419 4116 
L 825 1625 
L 2419 1625 
L 2419 4116 
z
M 2253 4666 
L 3047 4666 
L 3047 1625 
L 3713 1625 
L 3713 1100 
L 3047 1100 
L 3047 0 
L 2419 0 
L 2419 1100 
L 313 1100 
L 313 1709 
L 2253 4666 
z
" transform="scale(0.015625)"/>
       </defs>
       <use xlink:href="#DejaVuSans-32"/>
       <use xlink:href="#DejaVuSans-30" transform="translate(63.623047 0)"/>
       <use xlink:href="#DejaVuSans-30" transform="translate(127.246094 0)"/>
       <use xlink:href="#DejaVuSans-34" transform="translate(190.869141 0)"/>
      </g>
     </g>
    </g>
    <g id="xtick_2">
     <g id="line2d_2">
      <g>
       <use xlink:href="#m296320d8cb" x="317.682855" y="170.44" style="stroke: #000000; stroke-width: 0.8"/>
      </g>
     </g>
     <g id="text_2">
      <!-- 2009 -->
      <g transform="translate(304.957855 185.038438) scale(0.1 -0.1)">
       <defs>
        <path id="DejaVuSans-39" d="M 703 97 
L 703 672 
Q 941 559 1184 500 
Q 1428 441 1663 441 
Q 2288 441 2617 861 
Q 2947 1281 2994 2138 
Q 2813 1869 2534 1725 
Q 2256 1581 1919 1581 
Q 1219 1581 811 2004 
Q 403 2428 403 3163 
Q 403 3881 828 4315 
Q 1253 4750 1959 4750 
Q 2769 4750 3195 4129 
Q 3622 3509 3622 2328 
Q 3622 1225 3098 567 
Q 2575 -91 1691 -91 
Q 1453 -91 1209 -44 
Q 966 3 703 97 
z
M 1959 2075 
Q 2384 2075 2632 2365 
Q 2881 2656 2881 3163 
Q 2881 3666 2632 3958 
Q 2384 4250 1959 4250 
Q 1534 4250 1286 3958 
Q 1038 3666 1038 3163 
Q 1038 2656 1286 2365 
Q 1534 2075 1959 2075 
z
" transform="scale(0.015625)"/>
       </defs>
       <use xlink:href="#DejaVuSans-32"/>
       <use xlink:href="#DejaVuSans-30" transform="translate(63.623047 0)"/>
       <use xlink:href="#DejaVuSans-30" transform="translate(127.246094 0)"/>
       <use xlink:href="#DejaVuSans-39" transform="translate(190.869141 0)"/>
      </g>
     </g>
    </g>
    <g id="xtick_3">
     <g id="line2d_3">
      <g>
       <use xlink:href="#m296320d8cb" x="475.680274" y="170.44" style="stroke: #000000; stroke-width: 0.8"/>
      </g>
     </g>
     <g id="text_3">
      <!-- 2014 -->
      <g transform="translate(462.955274 185.038438) scale(0.1 -0.1)">
       <defs>
        <path id="DejaVuSans-31" d="M 794 531 
L 1825 531 
L 1825 4091 
L 703 3866 
L 703 4441 
L 1819 4666 
L 2450 4666 
L 2450 531 
L 3481 531 
L 3481 0 
L 794 0 
L 794 531 
z
" transform="scale(0.015625)"/>
       </defs>
       <use xlink:href="#DejaVuSans-32"/>
       <use xlink:href="#DejaVuSans-30" transform="translate(63.623047 0)"/>
       <use xlink:href="#DejaVuSans-31" transform="translate(127.246094 0)"/>
       <use xlink:href="#DejaVuSans-34" transform="translate(190.869141 0)"/>
      </g>
     </g>
    </g>
    <g id="xtick_4">
     <g id="line2d_4">
      <g>
       <use xlink:href="#m296320d8cb" x="633.677694" y="170.44" style="stroke: #000000; stroke-width: 0.8"/>
      </g>
     </g>
     <g id="text_4">
      <!-- 2019 -->
      <g transform="translate(620.952694 185.038438) scale(0.1 -0.1)">
       <use xlink:href="#DejaVuSans-32"/>
       <use xlink:href="#DejaVuSans-30" transform="translate(63.623047 0)"/>
       <use xlink:href="#DejaVuSans-31" transform="translate(127.246094 0)"/>
       <use xlink:href="#DejaVuSans-39" transform="translate(190.869141 0)"/>
      </g>
     </g>
    </g>
    <g id="xtick_5">
     <g id="line2d_5">
      <g>
       <use xlink:href="#m296320d8cb" x="791.675113" y="170.44" style="stroke: #000000; stroke-width: 0.8"/>
      </g>
     </g>
     <g id="text_5">
      <!-- 2024 -->
      <g transform="translate(778.950113 185.038438) scale(0.1 -0.1)">
       <use xlink:href="#DejaVuSans-32"/>
       <use xlink:href="#DejaVuSans-30" transform="translate(63.623047 0)"/>
       <use xlink:href="#DejaVuSans-32" transform="translate(127.246094 0)"/>
       <use xlink:href="#DejaVuSans-34" transform="translate(190.869141 0)"/>
      </g>
     </g>
    </g>
    <g id="xtick_6">
     <g id="line2d_6">
      <defs>
       <path id="mc6c9785d61" d="M 0 0 
L 0 2 
" style="stroke: #000000; stroke-width: 0.6"/>
      </defs>
      <g>
       <use xlink:href="#mc6c9785d61" x="33.2875" y="170.44" style="stroke: #000000; stroke-width: 0.6"/>
      </g>
     </g>
    </g>
    <g id="xtick_7">
     <g id="line2d_7">
      <g>
       <use xlink:href="#mc6c9785d61" x="64.886984" y="170.44" style="stroke: #000000; stroke-width: 0.6"/>
      </g>
     </g>
    </g>
    <g id="xtick_8">
     <g id="line2d_8">
      <g>
       <use xlink:href="#mc6c9785d61" x="96.486468" y="170.44" style="stroke: #000000; stroke-width: 0.6"/>
      </g>
     </g>
    </g>
    <g id="xtick_9">
     <g id="line2d_9">
      <g>
       <use xlink:href="#mc6c9785d61" x="128.085952" y="170.44" style="stroke: #000000; stroke-width: 0.6"/>
      </g>
     </g>
    </g>
    <g id="xtick_10">
     <g id="line2d_10">
      <g>
       <use xlink:href="#mc6c9785d61" x="191.284919" y="170.44" style="stroke: #000000; stroke-width: 0.6"/>
      </g>
     </g>
    </g>
    <g id="xtick_11">
     <g id="line2d_11">
      <g>
       <use xlink:href="#mc6c9785d61" x="222.884403" y="170.44" style="stroke: #000000; stroke-width: 0.6"/>
      </g>
     </g>
    </g>
    <g id="xtick_12">
     <g id="line2d_12">
      <g>
       <use xlink:href="#mc6c9785d61" x="254.483887" y="170.44" style="stroke: #000000; stroke-width: 0.6"/>
      </g>
     </g>
    </g>
    <g id="xtick_13">
     <g id="line2d_13">
      <g>
       <use xlink:href="#mc6c9785d61" x="286.083371" y="170.44" style="stroke: #000000; stroke-width: 0.6"/>
      </g>
     </g>
    </g>
    <g id="xtick_14">
     <g id="line2d_14">
      <g>
       <use xlink:href="#mc6c9785d61" x="349.282339" y="170.44" style="stroke: #000000; stroke-width: 0.6"/>
      </g>
     </g>
    </g>
    <g id="xtick_15">
     <g id="line2d_15">
      <g>
       <use xlink:href="#mc6c9785d61" x="380.881823" y="170.44" style="stroke: #000000; stroke-width: 0.6"/>
      </g>
     </g>
    </g>
    <g id="xtick_16">
     <g id="line2d_16">
      <g>
       <use xlink:href="#mc6c9785d61" x="412.481306" y="170.44" style="stroke: #000000; stroke-width: 0.6"/>
      </g>
     </g>
    </g>
    <g id="xtick_17">
     <g id="line2d_17">
      <g>
       <use xlink:href="#mc6c9785d61" x="444.08079" y="170.44" style="stroke: #000000; stroke-width: 0.6"/>
      </g>
     </g>
    </g>
    <g id="xtick_18">
     <g id="line2d_18">
      <g>
       <use xlink:href="#mc6c9785d61" x="507.279758" y="170.44" style="stroke: #000000; stroke-width: 0.6"/>
      </g>
     </g>
    </g>
    <g id="xtick_19">
     <g id="line2d_19">
      <g>
       <use xlink:href="#mc6c9785d61" x="538.879242" y="170.44" style="stroke: #000000; stroke-width: 0.6"/>
      </g>
     </g>
    </g>
    <g id="xtick_20">
     <g id="line2d_20">
      <g>
       <use xlink:href="#mc6c9785d61" x="570.478726" y="170.44" style="stroke: #000000; stroke-width: 0.6"/>
      </g>
     </g>
    </g>
    <g id="xtick_21">
     <g id="line2d_21">
      <g>
       <use xlink:href="#mc6c9785d61" x="602.07821" y="170.44" style="stroke: #000000; stroke-width: 0.6"/>
      </g>
     </g>
    </g>
    <g id="xtick_22">
     <g id="line2d_22">
      <g>
       <use xlink:href="#mc6c9785d61" x="665.277177" y="170.44" style="stroke: #000000; stroke-width: 0.6"/>
      </g>
     </g>
    </g>
    <g id="xtick_23">
     <g id="line2d_23">
      <g>
       <use xlink:href="#mc6c9785d61" x="696.876661" y="170.44" style="stroke: #000000; stroke-width: 0.6"/>
      </g>
     </g>
    </g>
    <g id="xtick_24">
     <g id="line2d_24">
      <g>
       <use xlink:href="#mc6c9785d61" x="728.476145" y="170.44" style="stroke: #000000; stroke-width: 0.6"/>
      </g>
     </g>
    </g>
    <g id="xtick_25">
     <g id="line2d_25">
      <g>
       <use xlink:href="#mc6c9785d61" x="760.075629" y="170.44" style="stroke: #000000; stroke-width: 0.6"/>
      </g>
     </g>
    </g>
    <g id="xtick_26">
     <g id="line2d_26">
      <g>
       <use xlink:href="#mc6c9785d61" x="823.274597" y="170.44" style="stroke: #000000; stroke-width: 0.6"/>
      </g>
     </g>
    </g>
    <g id="text_6">
     <!-- date -->
     <g transform="translate(430.1725 198.716563) scale(0.1 -0.1)">
      <defs>
       <path id="DejaVuSans-64" d="M 2906 2969 
L 2906 4863 
L 3481 4863 
L 3481 0 
L 2906 0 
L 2906 525 
Q 2725 213 2448 61 
Q 2172 -91 1784 -91 
Q 1150 -91 751 415 
Q 353 922 353 1747 
Q 353 2572 751 3078 
Q 1150 3584 1784 3584 
Q 2172 3584 2448 3432 
Q 2725 3281 2906 2969 
z
M 947 1747 
Q 947 1113 1208 752 
Q 1469 391 1925 391 
Q 2381 391 2643 752 
Q 2906 1113 2906 1747 
Q 2906 2381 2643 2742 
Q 2381 3103 1925 3103 
Q 1469 3103 1208 2742 
Q 947 2381 947 1747 
z
" transform="scale(0.015625)"/>
       <path id="DejaVuSans-61" d="M 2194 1759 
Q 1497 1759 1228 1600 
Q 959 1441 959 1056 
Q 959 750 1161 570 
Q 1363 391 1709 391 
Q 2188 391 2477 730 
Q 2766 1069 2766 1631 
L 2766 1759 
L 2194 1759 
z
M 3341 1997 
L 3341 0 
L 2766 0 
L 2766 531 
Q 2569 213 2275 61 
Q 1981 -91 1556 -91 
Q 1019 -91 701 211 
Q 384 513 384 1019 
Q 384 1609 779 1909 
Q 1175 2209 1959 2209 
L 2766 2209 
L 2766 2266 
Q 2766 2663 2505 2880 
Q 2244 3097 1772 3097 
Q 1472 3097 1187 3025 
Q 903 2953 641 2809 
L 641 3341 
Q 956 3463 1253 3523 
Q 1550 3584 1831 3584 
Q 2591 3584 2966 3190 
Q 3341 2797 3341 1997 
z
" transform="scale(0.015625)"/>
       <path id="DejaVuSans-74" d="M 1172 4494 
L 1172 3500 
L 2356 3500 
L 2356 3053 
L 1172 3053 
L 1172 1153 
Q 1172 725 1289 603 
Q 1406 481 1766 481 
L 2356 481 
L 2356 0 
L 1766 0 
Q 1100 0 847 248 
Q 594 497 594 1153 
L 594 3053 
L 172 3053 
L 172 3500 
L 594 3500 
L 594 4494 
L 1172 4494 
z
" transform="scale(0.015625)"/>
       <path id="DejaVuSans-65" d="M 3597 1894 
L 3597 1613 
L 953 1613 
Q 991 1019 1311 708 
Q 1631 397 2203 397 
Q 2534 397 2845 478 
Q 3156 559 3463 722 
L 3463 178 
Q 3153 47 2828 -22 
Q 2503 -91 2169 -91 
Q 1331 -91 842 396 
Q 353 884 353 1716 
Q 353 2575 817 3079 
Q 1281 3584 2069 3584 
Q 2775 3584 3186 3129 
Q 3597 2675 3597 1894 
z
M 3022 2063 
Q 3016 2534 2758 2815 
Q 2500 3097 2075 3097 
Q 1594 3097 1305 2825 
Q 1016 2553 972 2059 
L 3022 2063 
z
" transform="scale(0.015625)"/>
      </defs>
      <use xlink:href="#DejaVuSans-64"/>
      <use xlink:href="#DejaVuSans-61" transform="translate(63.476562 0)"/>
      <use xlink:href="#DejaVuSans-74" transform="translate(124.755859 0)"/>
      <use xlink:href="#DejaVuSans-65" transform="translate(163.964844 0)"/>
     </g>
    </g>
   </g>
   <g id="matplotlib.axis_2">
    <g id="ytick_1">
     <g id="line2d_27">
      <path d="M 33.2875 163.02 
L 849.6075 163.02 
" clip-path="url(#p9cc8fe133b)" style="fill: none; stroke-dasharray: 2.96,1.28; stroke-dashoffset: 0; stroke: #000000; stroke-opacity: 0.1; stroke-width: 0.8"/>
     </g>
     <g id="line2d_28">
      <defs>
       <path id="me5e23acfe7" d="M 0 0 
L -3.5 0 
" style="stroke: #000000; stroke-width: 0.8"/>
      </defs>
      <g>
       <use xlink:href="#me5e23acfe7" x="33.2875" y="163.02" style="stroke: #000000; stroke-width: 0.8"/>
      </g>
     </g>
     <g id="text_7">
      <!-- 50 -->
      <g transform="translate(13.5625 166.819219) scale(0.1 -0.1)">
       <defs>
        <path id="DejaVuSans-35" d="M 691 4666 
L 3169 4666 
L 3169 4134 
L 1269 4134 
L 1269 2991 
Q 1406 3038 1543 3061 
Q 1681 3084 1819 3084 
Q 2600 3084 3056 2656 
Q 3513 2228 3513 1497 
Q 3513 744 3044 326 
Q 2575 -91 1722 -91 
Q 1428 -91 1123 -41 
Q 819 9 494 109 
L 494 744 
Q 775 591 1075 516 
Q 1375 441 1709 441 
Q 2250 441 2565 725 
Q 2881 1009 2881 1497 
Q 2881 1984 2565 2268 
Q 2250 2553 1709 2553 
Q 1456 2553 1204 2497 
Q 953 2441 691 2322 
L 691 4666 
z
" transform="scale(0.015625)"/>
       </defs>
       <use xlink:href="#DejaVuSans-35"/>
       <use xlink:href="#DejaVuSans-30" transform="translate(63.623047 0)"/>
      </g>
     </g>
    </g>
    <g id="ytick_2">
     <g id="line2d_29">
      <path d="M 33.2875 139.084516 
L 849.6075 139.084516 
" clip-path="url(#p9cc8fe133b)" style="fill: none; stroke-dasharray: 2.96,1.28; stroke-dashoffset: 0; stroke: #000000; stroke-opacity: 0.1; stroke-width: 0.8"/>
     </g>
     <g id="line2d_30">
      <g>
       <use xlink:href="#me5e23acfe7" x="33.2875" y="139.084516" style="stroke: #000000; stroke-width: 0.8"/>
      </g>
     </g>
     <g id="text_8">
      <!-- 60 -->
      <g transform="translate(13.5625 142.883735) scale(0.1 -0.1)">
       <defs>
        <path id="DejaVuSans-36" d="M 2113 2584 
Q 1688 2584 1439 2293 
Q 1191 2003 1191 1497 
Q 1191 994 1439 701 
Q 1688 409 2113 409 
Q 2538 409 2786 701 
Q 3034 994 3034 1497 
Q 3034 2003 2786 2293 
Q 2538 2584 2113 2584 
z
M 3366 4563 
L 3366 3988 
Q 3128 4100 2886 4159 
Q 2644 4219 2406 4219 
Q 1781 4219 1451 3797 
Q 1122 3375 1075 2522 
Q 1259 2794 1537 2939 
Q 1816 3084 2150 3084 
Q 2853 3084 3261 2657 
Q 3669 2231 3669 1497 
Q 3669 778 3244 343 
Q 2819 -91 2113 -91 
Q 1303 -91 875 529 
Q 447 1150 447 2328 
Q 447 3434 972 4092 
Q 1497 4750 2381 4750 
Q 2619 4750 2861 4703 
Q 3103 4656 3366 4563 
z
" transform="scale(0.015625)"/>
       </defs>
       <use xlink:href="#DejaVuSans-36"/>
       <use xlink:href="#DejaVuSans-30" transform="translate(63.623047 0)"/>
      </g>
     </g>
    </g>
    <g id="ytick_3">
     <g id="line2d_31">
      <path d="M 33.2875 115.149032 
L 849.6075 115.149032 
" clip-path="url(#p9cc8fe133b)" style="fill: none; stroke-dasharray: 2.96,1.28; stroke-dashoffset: 0; stroke: #000000; stroke-opacity: 0.1; stroke-width: 0.8"/>
     </g>
     <g id="line2d_32">
      <g>
       <use xlink:href="#me5e23acfe7" x="33.2875" y="115.149032" style="stroke: #000000; stroke-width: 0.8"/>
      </g>
     </g>
     <g id="text_9">
      <!-- 70 -->
      <g transform="translate(13.5625 118.948251) scale(0.1 -0.1)">
       <defs>
        <path id="DejaVuSans-37" d="M 525 4666 
L 3525 4666 
L 3525 4397 
L 1831 0 
L 1172 0 
L 2766 4134 
L 525 4134 
L 525 4666 
z
" transform="scale(0.015625)"/>
       </defs>
       <use xlink:href="#DejaVuSans-37"/>
       <use xlink:href="#DejaVuSans-30" transform="translate(63.623047 0)"/>
      </g>
     </g>
    </g>
    <g id="ytick_4">
     <g id="line2d_33">
      <path d="M 33.2875 91.213548 
L 849.6075 91.213548 
" clip-path="url(#p9cc8fe133b)" style="fill: none; stroke-dasharray: 2.96,1.28; stroke-dashoffset: 0; stroke: #000000; stroke-opacity: 0.1; stroke-width: 0.8"/>
     </g>
     <g id="line2d_34">
      <g>
       <use xlink:href="#me5e23acfe7" x="33.2875" y="91.213548" style="stroke: #000000; stroke-width: 0.8"/>
      </g>
     </g>
     <g id="text_10">
      <!-- 80 -->
      <g transform="translate(13.5625 95.012767) scale(0.1 -0.1)">
       <defs>
        <path id="DejaVuSans-38" d="M 2034 2216 
Q 1584 2216 1326 1975 
Q 1069 1734 1069 1313 
Q 1069 891 1326 650 
Q 1584 409 2034 409 
Q 2484 409 2743 651 
Q 3003 894 3003 1313 
Q 3003 1734 2745 1975 
Q 2488 2216 2034 2216 
z
M 1403 2484 
Q 997 2584 770 2862 
Q 544 3141 544 3541 
Q 544 4100 942 4425 
Q 1341 4750 2034 4750 
Q 2731 4750 3128 4425 
Q 3525 4100 3525 3541 
Q 3525 3141 3298 2862 
Q 3072 2584 2669 2484 
Q 3125 2378 3379 2068 
Q 3634 1759 3634 1313 
Q 3634 634 3220 271 
Q 2806 -91 2034 -91 
Q 1263 -91 848 271 
Q 434 634 434 1313 
Q 434 1759 690 2068 
Q 947 2378 1403 2484 
z
M 1172 3481 
Q 1172 3119 1398 2916 
Q 1625 2713 2034 2713 
Q 2441 2713 2670 2916 
Q 2900 3119 2900 3481 
Q 2900 3844 2670 4047 
Q 2441 4250 2034 4250 
Q 1625 4250 1398 4047 
Q 1172 3844 1172 3481 
z
" transform="scale(0.015625)"/>
       </defs>
       <use xlink:href="#DejaVuSans-38"/>
       <use xlink:href="#DejaVuSans-30" transform="translate(63.623047 0)"/>
      </g>
     </g>
    </g>
    <g id="ytick_5">
     <g id="line2d_35">
      <path d="M 33.2875 67.278065 
L 849.6075 67.278065 
" clip-path="url(#p9cc8fe133b)" style="fill: none; stroke-dasharray: 2.96,1.28; stroke-dashoffset: 0; stroke: #000000; stroke-opacity: 0.1; stroke-width: 0.8"/>
     </g>
     <g id="line2d_36">
      <g>
       <use xlink:href="#me5e23acfe7" x="33.2875" y="67.278065" style="stroke: #000000; stroke-width: 0.8"/>
      </g>
     </g>
     <g id="text_11">
      <!-- 90 -->
      <g transform="translate(13.5625 71.077283) scale(0.1 -0.1)">
       <use xlink:href="#DejaVuSans-39"/>
       <use xlink:href="#DejaVuSans-30" transform="translate(63.623047 0)"/>
      </g>
     </g>
    </g>
    <g id="ytick_6">
     <g id="line2d_37">
      <path d="M 33.2875 43.342581 
L 849.6075 43.342581 
" clip-path="url(#p9cc8fe133b)" style="fill: none; stroke-dasharray: 2.96,1.28; stroke-dashoffset: 0; stroke: #000000; stroke-opacity: 0.1; stroke-width: 0.8"/>
     </g>
     <g id="line2d_38">
      <g>
       <use xlink:href="#me5e23acfe7" x="33.2875" y="43.342581" style="stroke: #000000; stroke-width: 0.8"/>
      </g>
     </g>
     <g id="text_12">
      <!-- 100 -->
      <g transform="translate(7.2 47.141799) scale(0.1 -0.1)">
       <use xlink:href="#DejaVuSans-31"/>
       <use xlink:href="#DejaVuSans-30" transform="translate(63.623047 0)"/>
       <use xlink:href="#DejaVuSans-30" transform="translate(127.246094 0)"/>
      </g>
     </g>
    </g>
    <g id="ytick_7">
     <g id="line2d_39">
      <path d="M 33.2875 19.407097 
L 849.6075 19.407097 
" clip-path="url(#p9cc8fe133b)" style="fill: none; stroke-dasharray: 2.96,1.28; stroke-dashoffset: 0; stroke: #000000; stroke-opacity: 0.1; stroke-width: 0.8"/>
     </g>
     <g id="line2d_40">
      <g>
       <use xlink:href="#me5e23acfe7" x="33.2875" y="19.407097" style="stroke: #000000; stroke-width: 0.8"/>
      </g>
     </g>
     <g id="text_13">
      <!-- 110 -->
      <g transform="translate(7.2 23.206316) scale(0.1 -0.1)">
       <use xlink:href="#DejaVuSans-31"/>
       <use xlink:href="#DejaVuSans-31" transform="translate(63.623047 0)"/>
       <use xlink:href="#DejaVuSans-30" transform="translate(127.246094 0)"/>
      </g>
     </g>
    </g>
   </g>
   <g id="line2d_41">
    <path d="M 33.2875 26.109032 
L 35.92079 30.417419 
L 38.554081 14.62 
L 41.187371 16.295484 
L 43.820661 26.348387 
L 46.453952 21.321935 
L 49.087242 17.731613 
L 51.720532 28.023871 
L 54.353823 23.476129 
L 56.987113 25.869677 
L 59.620403 27.066452 
L 62.253694 29.46 
L 64.886984 25.151613 
L 67.520274 47.172258 
L 70.153565 56.028387 
L 72.786855 65.841935 
L 75.420145 63.687742 
L 78.053435 71.107742 
L 80.686726 62.490968 
L 83.320016 61.054839 
L 85.953306 61.533548 
L 88.586597 63.687742 
L 91.219887 86.905161 
L 93.853177 84.750968 
L 96.486468 81.87871 
L 99.119758 70.150323 
L 101.753048 60.097419 
L 104.386339 65.602581 
L 107.019629 53.634839 
L 109.652919 60.097419 
L 112.28621 50.762581 
L 114.9195 61.533548 
L 117.55279 71.825806 
L 120.186081 73.022581 
L 122.819371 76.612903 
L 125.452661 89.777419 
L 128.085952 81.160645 
L 130.719242 75.176774 
L 133.352532 85.469032 
L 135.985823 91.452903 
L 138.619113 96.958065 
L 141.252403 76.852258 
L 143.885694 62.251613 
L 146.518984 67.996129 
L 149.152274 65.123871 
L 154.418855 72.783226 
L 157.052145 68.235484 
L 159.685435 58.421935 
L 162.318726 61.054839 
L 164.952016 34.247097 
L 167.585306 56.746452 
L 170.218597 53.395484 
L 172.851887 57.225161 
L 175.485177 66.799355 
L 178.118468 53.874194 
L 180.751758 51.24129 
L 183.385048 53.156129 
L 186.018339 57.225161 
L 188.651629 63.209032 
L 191.284919 60.576129 
L 193.91821 50.283871 
L 196.5515 54.113548 
L 199.18479 57.464516 
L 201.818081 61.054839 
L 204.451371 72.783226 
L 207.084661 74.698065 
L 209.717952 52.916774 
L 212.351242 51.72 
L 214.984532 69.432258 
L 217.617823 98.633548 
L 220.251113 105.096129 
L 222.884403 87.383871 
L 225.517694 63.687742 
L 228.150984 64.405806 
L 230.784274 75.176774 
L 233.417565 69.910968 
L 236.050855 73.50129 
L 238.684145 93.367742 
L 241.317435 79.485161 
L 243.950726 79.963871 
L 246.584016 86.426452 
L 249.217306 78.288387 
L 251.850597 58.66129 
L 254.483887 62.251613 
L 257.117177 63.209032 
L 259.750468 50.762581 
L 262.383758 64.166452 
L 265.017048 71.107742 
L 267.650339 74.219355 
L 270.283629 71.347097 
L 272.916919 78.527742 
L 275.55021 66.320645 
L 278.1835 83.075484 
L 280.81679 83.075484 
L 283.450081 89.059355 
L 286.083371 100.548387 
L 288.716661 101.984516 
L 291.349952 95.043226 
L 293.983242 113.234194 
L 296.616532 116.345806 
L 299.249823 132.86129 
L 301.883113 139.563226 
L 304.516403 147.70129 
L 307.149694 136.212258 
L 309.782984 131.903871 
L 312.416274 114.430968 
L 315.049565 144.829032 
L 317.682855 150.334194 
L 320.316145 138.845161 
L 322.949435 136.212258 
L 325.582726 147.940645 
L 328.216016 145.547097 
L 330.849306 126.877419 
L 333.482597 118.260645 
L 336.115887 113.234194 
L 338.749177 124.723226 
L 341.382468 125.44129 
L 344.015758 106.771613 
L 346.649048 113.712903 
L 349.282339 121.372258 
L 351.915629 109.165161 
L 354.548919 104.617419 
L 357.18221 106.532258 
L 359.8155 106.532258 
L 362.44879 109.883226 
L 365.082081 106.532258 
L 367.715371 100.787742 
L 370.348661 120.414839 
L 372.981952 117.781935 
L 375.615242 119.457419 
L 378.248532 120.654194 
L 380.881823 111.319355 
L 383.515113 104.378065 
L 386.148403 105.096129 
L 388.781694 97.197419 
L 391.414984 121.132903 
L 394.048274 115.627742 
L 396.681565 104.856774 
L 399.314855 111.55871 
L 404.581435 149.137419 
L 407.214726 140.28129 
L 409.848016 137.169677 
L 412.481306 130.228387 
L 415.114597 115.388387 
L 417.747887 103.18129 
L 420.381177 102.463226 
L 423.014468 100.309032 
L 425.647758 99.830323 
L 428.281048 92.889032 
L 430.914339 107.489677 
L 433.547629 109.643871 
L 436.180919 104.856774 
L 438.81421 95.282581 
L 441.4475 84.990323 
L 444.08079 84.750968 
L 446.714081 108.207742 
L 449.347371 106.053548 
L 451.980661 96.958065 
L 454.613952 94.564516 
L 457.247242 99.830323 
L 459.880532 80.442581 
L 462.513823 81.4 
L 465.147113 79.006452 
L 467.780403 86.187097 
L 470.413694 97.197419 
L 473.046984 107.489677 
L 475.680274 102.941935 
L 478.313565 85.229677 
L 480.946855 88.34129 
L 483.580145 87.383871 
L 486.213435 91.213548 
L 488.846726 81.4 
L 491.480016 86.665806 
L 494.113306 85.229677 
L 496.746597 86.905161 
L 499.379887 85.229677 
L 502.013177 80.203226 
L 504.646468 74.698065 
L 507.279758 70.150323 
L 509.913048 58.66129 
L 512.546339 47.890323 
L 515.179629 54.352903 
L 517.812919 60.097419 
L 520.44621 53.156129 
L 523.0795 65.602581 
L 525.71279 52.677419 
L 528.346081 59.858065 
L 530.979371 62.730323 
L 533.612661 73.98 
L 536.245952 67.278065 
L 541.512532 61.054839 
L 544.145823 62.490968 
L 546.779113 63.209032 
L 549.412403 64.884516 
L 552.045694 69.671613 
L 554.678984 56.028387 
L 557.312274 58.900645 
L 559.945565 67.278065 
L 562.578855 67.756774 
L 565.212145 64.405806 
L 567.845435 73.98 
L 570.478726 58.182581 
L 573.112016 47.650968 
L 575.745306 46.932903 
L 578.378597 52.19871 
L 581.011887 50.762581 
L 586.278468 50.283871 
L 588.911758 55.310323 
L 591.545048 59.14 
L 594.178339 51.001935 
L 596.811629 55.070968 
L 599.444919 41.667097 
L 602.07821 46.932903 
L 604.7115 53.156129 
L 607.34479 53.634839 
L 609.978081 44.060645 
L 612.611371 39.991613 
L 615.244661 46.214839 
L 617.877952 48.129677 
L 620.511242 47.650968 
L 623.144532 48.369032 
L 625.777823 52.438065 
L 628.411113 43.103226 
L 631.044403 46.693548 
L 633.677694 49.326452 
L 636.310984 47.411613 
L 638.944274 64.405806 
L 641.577565 58.182581 
L 644.210855 47.172258 
L 646.844145 50.044516 
L 649.477435 43.342581 
L 652.110726 47.650968 
L 654.744016 47.172258 
L 657.377306 67.756774 
L 660.010597 59.61871 
L 662.643887 54.113548 
L 665.277177 51.001935 
L 667.910468 45.018065 
L 670.543758 43.82129 
L 673.177048 40.949032 
L 675.810339 69.432258 
L 678.443629 110.840645 
L 681.076919 109.643871 
L 683.71021 95.76129 
L 686.3435 109.165161 
L 688.97679 105.335484 
L 691.610081 90.256129 
L 694.243371 86.905161 
L 696.876661 98.633548 
L 699.509952 89.538065 
L 702.143242 93.607097 
L 704.776532 98.872903 
L 707.409823 79.485161 
L 710.043113 71.347097 
L 712.676403 84.272258 
L 715.309694 78.049032 
L 717.942984 88.34129 
L 720.576274 114.430968 
L 723.209565 108.447097 
L 725.842855 111.08 
L 728.476145 121.372258 
L 731.109435 113.712903 
L 733.742726 121.850968 
L 736.376016 132.382581 
L 739.009306 140.520645 
L 741.642597 126.638065 
L 744.275887 142.914194 
L 746.909177 163.02 
L 749.542468 159.429677 
L 752.175758 143.392903 
L 754.809048 142.435484 
L 757.442339 139.323871 
L 760.075629 146.983226 
L 762.708919 139.563226 
L 765.34221 127.356129 
L 767.9755 122.569032 
L 770.60879 134.297419 
L 773.242081 130.228387 
L 775.875371 141.478065 
L 778.508661 129.031613 
L 781.141952 111.55871 
L 783.775242 116.585161 
L 786.408532 120.414839 
L 789.041823 129.989032 
L 791.675113 135.972903 
L 794.308403 115.867097 
L 796.941694 93.607097 
L 799.574984 98.633548 
L 802.208274 92.649677 
L 804.841565 97.915484 
L 807.474855 117.303226 
L 810.108145 119.457419 
L 812.741435 123.765806 
L 815.374726 120.175484 
L 818.008016 114.909677 
L 820.641306 113.952258 
L 823.274597 110.840645 
L 825.907887 105.574839 
L 828.541177 111.08 
L 831.174468 127.834839 
L 833.807758 146.265161 
L 836.441048 157.754194 
L 839.074339 157.754194 
L 841.707629 137.409032 
L 844.340919 135.015484 
L 846.97421 143.392903 
L 849.6075 150.812903 
L 849.6075 150.812903 
" clip-path="url(#p9cc8fe133b)" style="fill: none; stroke: #1f77b4; stroke-width: 1.5; stroke-linecap: square"/>
   </g>
   <g id="patch_3">
    <path d="M 33.2875 170.44 
L 33.2875 7.2 
" style="fill: none"/>
   </g>
   <g id="patch_4">
    <path d="M 849.6075 170.44 
L 849.6075 7.2 
" style="fill: none"/>
   </g>
   <g id="patch_5">
    <path d="M 33.2875 170.44 
L 849.6075 170.44 
" style="fill: none"/>
   </g>
   <g id="patch_6">
    <path d="M 33.2875 7.2 
L 849.6075 7.2 
" style="fill: none"/>
   </g>
   <g id="legend_1">
    <g id="patch_7">
     <path d="M 761.421563 29.878125 
L 842.6075 29.878125 
Q 844.6075 29.878125 844.6075 27.878125 
L 844.6075 14.2 
Q 844.6075 12.2 842.6075 12.2 
L 761.421563 12.2 
Q 759.421563 12.2 759.421563 14.2 
L 759.421563 27.878125 
Q 759.421563 29.878125 761.421563 29.878125 
L 761.421563 29.878125 
z
" style="fill: none; opacity: 0"/>
    </g>
    <g id="line2d_42">
     <path d="M 763.421563 20.298438 
L 773.421563 20.298438 
L 783.421563 20.298438 
" style="fill: none; stroke: #1f77b4; stroke-width: 1.5; stroke-linecap: square"/>
    </g>
    <g id="text_14">
     <!-- UMCSENT -->
     <g transform="translate(791.421563 23.798438) scale(0.1 -0.1)">
      <defs>
       <path id="DejaVuSans-55" d="M 556 4666 
L 1191 4666 
L 1191 1831 
Q 1191 1081 1462 751 
Q 1734 422 2344 422 
Q 2950 422 3222 751 
Q 3494 1081 3494 1831 
L 3494 4666 
L 4128 4666 
L 4128 1753 
Q 4128 841 3676 375 
Q 3225 -91 2344 -91 
Q 1459 -91 1007 375 
Q 556 841 556 1753 
L 556 4666 
z
" transform="scale(0.015625)"/>
       <path id="DejaVuSans-4d" d="M 628 4666 
L 1569 4666 
L 2759 1491 
L 3956 4666 
L 4897 4666 
L 4897 0 
L 4281 0 
L 4281 4097 
L 3078 897 
L 2444 897 
L 1241 4097 
L 1241 0 
L 628 0 
L 628 4666 
z
" transform="scale(0.015625)"/>
       <path id="DejaVuSans-43" d="M 4122 4306 
L 4122 3641 
Q 3803 3938 3442 4084 
Q 3081 4231 2675 4231 
Q 1875 4231 1450 3742 
Q 1025 3253 1025 2328 
Q 1025 1406 1450 917 
Q 1875 428 2675 428 
Q 3081 428 3442 575 
Q 3803 722 4122 1019 
L 4122 359 
Q 3791 134 3420 21 
Q 3050 -91 2638 -91 
Q 1578 -91 968 557 
Q 359 1206 359 2328 
Q 359 3453 968 4101 
Q 1578 4750 2638 4750 
Q 3056 4750 3426 4639 
Q 3797 4528 4122 4306 
z
" transform="scale(0.015625)"/>
       <path id="DejaVuSans-53" d="M 3425 4513 
L 3425 3897 
Q 3066 4069 2747 4153 
Q 2428 4238 2131 4238 
Q 1616 4238 1336 4038 
Q 1056 3838 1056 3469 
Q 1056 3159 1242 3001 
Q 1428 2844 1947 2747 
L 2328 2669 
Q 3034 2534 3370 2195 
Q 3706 1856 3706 1288 
Q 3706 609 3251 259 
Q 2797 -91 1919 -91 
Q 1588 -91 1214 -16 
Q 841 59 441 206 
L 441 856 
Q 825 641 1194 531 
Q 1563 422 1919 422 
Q 2459 422 2753 634 
Q 3047 847 3047 1241 
Q 3047 1584 2836 1778 
Q 2625 1972 2144 2069 
L 1759 2144 
Q 1053 2284 737 2584 
Q 422 2884 422 3419 
Q 422 4038 858 4394 
Q 1294 4750 2059 4750 
Q 2388 4750 2728 4690 
Q 3069 4631 3425 4513 
z
" transform="scale(0.015625)"/>
       <path id="DejaVuSans-45" d="M 628 4666 
L 3578 4666 
L 3578 4134 
L 1259 4134 
L 1259 2753 
L 3481 2753 
L 3481 2222 
L 1259 2222 
L 1259 531 
L 3634 531 
L 3634 0 
L 628 0 
L 628 4666 
z
" transform="scale(0.015625)"/>
       <path id="DejaVuSans-4e" d="M 628 4666 
L 1478 4666 
L 3547 763 
L 3547 4666 
L 4159 4666 
L 4159 0 
L 3309 0 
L 1241 3903 
L 1241 0 
L 628 0 
L 628 4666 
z
" transform="scale(0.015625)"/>
       <path id="DejaVuSans-54" d="M -19 4666 
L 3928 4666 
L 3928 4134 
L 2272 4134 
L 2272 0 
L 1638 0 
L 1638 4134 
L -19 4134 
L -19 4666 
z
" transform="scale(0.015625)"/>
      </defs>
      <use xlink:href="#DejaVuSans-55"/>
      <use xlink:href="#DejaVuSans-4d" transform="translate(73.193359 0)"/>
      <use xlink:href="#DejaVuSans-43" transform="translate(159.472656 0)"/>
      <use xlink:href="#DejaVuSans-53" transform="translate(229.296875 0)"/>
      <use xlink:href="#DejaVuSans-45" transform="translate(292.773438 0)"/>
      <use xlink:href="#DejaVuSans-4e" transform="translate(355.957031 0)"/>
      <use xlink:href="#DejaVuSans-54" transform="translate(430.761719 0)"/>
     </g>
    </g>
   </g>
  </g>
 </g>
 <defs>
  <clipPath id="p9cc8fe133b">
   <rect x="33.2875" y="7.2" width="816.32" height="163.24"/>
  </clipPath>
 </defs>
</svg>
