<?xml version="1.0" encoding="utf-8" standalone="no"?>
<!DOCTYPE svg PUBLIC "-//W3C//DTD SVG 1.1//EN"
  "http://www.w3.org/Graphics/SVG/1.1/DTD/svg11.dtd">
<svg xmlns:xlink="http://www.w3.org/1999/xlink" width="856.835pt" height="207.99625pt" viewBox="0 0 856.835 207.99625" xmlns="http://www.w3.org/2000/svg" version="1.1">
 <metadata>
  <rdf:RDF xmlns:dc="http://purl.org/dc/elements/1.1/" xmlns:cc="http://creativecommons.org/ns#" xmlns:rdf="http://www.w3.org/1999/02/22-rdf-syntax-ns#">
   <cc:Work>
    <dc:type rdf:resource="http://purl.org/dc/dcmitype/StillImage"/>
    <dc:date>2025-11-16T13:39:35.503146</dc:date>
    <dc:format>image/svg+xml</dc:format>
    <dc:creator>
     <cc:Agent>
      <dc:title>Matplotlib v3.10.7, https://matplotlib.org/</dc:title>
     </cc:Agent>
    </dc:creator>
   </cc:Work>
  </rdf:RDF>
 </metadata>
 <defs>
  <style type="text/css">*{stroke-linejoin: round; stroke-linecap: butt}</style>
 </defs>
 <g id="figure_1">
  <g id="patch_1">
   <path d="M 0 207.99625 
L 856.835 207.99625 
L 856.835 0 
L 0 0 
L 0 207.99625 
z
" style="fill: none"/>
  </g>
  <g id="axes_1">
   <g id="patch_2">
    <path d="M 26.925 170.44 
L 849.635 170.44 
L 849.635 7.2 
L 26.925 7.2 
L 26.925 170.44 
z
" style="fill: none"/>
   </g>
   <g id="matplotlib.axis_1">
    <g id="xtick_1">
     <g id="line2d_1">
      <defs>
       <path id="md41ea22e2d" d="M 0 0 
L 0 3.5 
" style="stroke: #000000; stroke-width: 0.8"/>
      </defs>
      <g>
       <use xlink:href="#md41ea22e2d" x="155.557182" y="170.44" style="stroke: #000000; stroke-width: 0.8"/>
      </g>
     </g>
     <g id="text_1">
      <!-- 2004 -->
      <g transform="translate(142.832182 185.038437) scale(0.1 -0.1)">
       <defs>
        <path id="DejaVuSans-32" d="M 1228 531 
L 3431 531 
L 3431 0 
L 469 0 
L 469 531 
Q 828 903 1448 1529 
Q 2069 2156 2228 2338 
Q 2531 2678 2651 2914 
Q 2772 3150 2772 3378 
Q 2772 3750 2511 3984 
Q 2250 4219 1831 4219 
Q 1534 4219 1204 4116 
Q 875 4013 500 3803 
L 500 4441 
Q 881 4594 1212 4672 
Q 1544 4750 1819 4750 
Q 2544 4750 2975 4387 
Q 3406 4025 3406 3419 
Q 3406 3131 3298 2873 
Q 3191 2616 2906 2266 
Q 2828 2175 2409 1742 
Q 1991 1309 1228 531 
z
" transform="scale(0.015625)"/>
        <path id="DejaVuSans-30" d="M 2034 4250 
Q 1547 4250 1301 3770 
Q 1056 3291 1056 2328 
Q 1056 1369 1301 889 
Q 1547 409 2034 409 
Q 2525 409 2770 889 
Q 3016 1369 3016 2328 
Q 3016 3291 2770 3770 
Q 2525 4250 2034 4250 
z
M 2034 4750 
Q 2819 4750 3233 4129 
Q 3647 3509 3647 2328 
Q 3647 1150 3233 529 
Q 2819 -91 2034 -91 
Q 1250 -91 836 529 
Q 422 1150 422 2328 
Q 422 3509 836 4129 
Q 1250 4750 2034 4750 
z
" transform="scale(0.015625)"/>
        <path id="DejaVuSans-34" d="M 2419 4116 
L 825 1625 
L 2419 1625 
L 2419 4116 
z
M 2253 4666 
L 3047 4666 
L 3047 1625 
L 3713 1625 
L 3713 1100 
L 3047 1100 
L 3047 0 
L 2419 0 
L 2419 1100 
L 313 1100 
L 313 1709 
L 2253 4666 
z
" transform="scale(0.015625)"/>
       </defs>
       <use xlink:href="#DejaVuSans-32"/>
       <use xlink:href="#DejaVuSans-30" transform="translate(63.623047 0)"/>
       <use xlink:href="#DejaVuSans-30" transform="translate(127.246094 0)"/>
       <use xlink:href="#DejaVuSans-34" transform="translate(190.869141 0)"/>
      </g>
     </g>
    </g>
    <g id="xtick_2">
     <g id="line2d_2">
      <g>
       <use xlink:href="#md41ea22e2d" x="316.34741" y="170.44" style="stroke: #000000; stroke-width: 0.8"/>
      </g>
     </g>
     <g id="text_2">
      <!-- 2009 -->
      <g transform="translate(303.62241 185.038437) scale(0.1 -0.1)">
       <defs>
        <path id="DejaVuSans-39" d="M 703 97 
L 703 672 
Q 941 559 1184 500 
Q 1428 441 1663 441 
Q 2288 441 2617 861 
Q 2947 1281 2994 2138 
Q 2813 1869 2534 1725 
Q 2256 1581 1919 1581 
Q 1219 1581 811 2004 
Q 403 2428 403 3163 
Q 403 3881 828 4315 
Q 1253 4750 1959 4750 
Q 2769 4750 3195 4129 
Q 3622 3509 3622 2328 
Q 3622 1225 3098 567 
Q 2575 -91 1691 -91 
Q 1453 -91 1209 -44 
Q 966 3 703 97 
z
M 1959 2075 
Q 2384 2075 2632 2365 
Q 2881 2656 2881 3163 
Q 2881 3666 2632 3958 
Q 2384 4250 1959 4250 
Q 1534 4250 1286 3958 
Q 1038 3666 1038 3163 
Q 1038 2656 1286 2365 
Q 1534 2075 1959 2075 
z
" transform="scale(0.015625)"/>
       </defs>
       <use xlink:href="#DejaVuSans-32"/>
       <use xlink:href="#DejaVuSans-30" transform="translate(63.623047 0)"/>
       <use xlink:href="#DejaVuSans-30" transform="translate(127.246094 0)"/>
       <use xlink:href="#DejaVuSans-39" transform="translate(190.869141 0)"/>
      </g>
     </g>
    </g>
    <g id="xtick_3">
     <g id="line2d_3">
      <g>
       <use xlink:href="#md41ea22e2d" x="477.137638" y="170.44" style="stroke: #000000; stroke-width: 0.8"/>
      </g>
     </g>
     <g id="text_3">
      <!-- 2014 -->
      <g transform="translate(464.412638 185.038437) scale(0.1 -0.1)">
       <defs>
        <path id="DejaVuSans-31" d="M 794 531 
L 1825 531 
L 1825 4091 
L 703 3866 
L 703 4441 
L 1819 4666 
L 2450 4666 
L 2450 531 
L 3481 531 
L 3481 0 
L 794 0 
L 794 531 
z
" transform="scale(0.015625)"/>
       </defs>
       <use xlink:href="#DejaVuSans-32"/>
       <use xlink:href="#DejaVuSans-30" transform="translate(63.623047 0)"/>
       <use xlink:href="#DejaVuSans-31" transform="translate(127.246094 0)"/>
       <use xlink:href="#DejaVuSans-34" transform="translate(190.869141 0)"/>
      </g>
     </g>
    </g>
    <g id="xtick_4">
     <g id="line2d_4">
      <g>
       <use xlink:href="#md41ea22e2d" x="637.927866" y="170.44" style="stroke: #000000; stroke-width: 0.8"/>
      </g>
     </g>
     <g id="text_4">
      <!-- 2019 -->
      <g transform="translate(625.202866 185.038437) scale(0.1 -0.1)">
       <use xlink:href="#DejaVuSans-32"/>
       <use xlink:href="#DejaVuSans-30" transform="translate(63.623047 0)"/>
       <use xlink:href="#DejaVuSans-31" transform="translate(127.246094 0)"/>
       <use xlink:href="#DejaVuSans-39" transform="translate(190.869141 0)"/>
      </g>
     </g>
    </g>
    <g id="xtick_5">
     <g id="line2d_5">
      <g>
       <use xlink:href="#md41ea22e2d" x="798.718094" y="170.44" style="stroke: #000000; stroke-width: 0.8"/>
      </g>
     </g>
     <g id="text_5">
      <!-- 2024 -->
      <g transform="translate(785.993094 185.038437) scale(0.1 -0.1)">
       <use xlink:href="#DejaVuSans-32"/>
       <use xlink:href="#DejaVuSans-30" transform="translate(63.623047 0)"/>
       <use xlink:href="#DejaVuSans-32" transform="translate(127.246094 0)"/>
       <use xlink:href="#DejaVuSans-34" transform="translate(190.869141 0)"/>
      </g>
     </g>
    </g>
    <g id="xtick_6">
     <g id="line2d_6">
      <defs>
       <path id="ma501ffc3fc" d="M 0 0 
L 0 2 
" style="stroke: #000000; stroke-width: 0.6"/>
      </defs>
      <g>
       <use xlink:href="#ma501ffc3fc" x="26.925" y="170.44" style="stroke: #000000; stroke-width: 0.6"/>
      </g>
     </g>
    </g>
    <g id="xtick_7">
     <g id="line2d_7">
      <g>
       <use xlink:href="#ma501ffc3fc" x="59.083046" y="170.44" style="stroke: #000000; stroke-width: 0.6"/>
      </g>
     </g>
    </g>
    <g id="xtick_8">
     <g id="line2d_8">
      <g>
       <use xlink:href="#ma501ffc3fc" x="91.241091" y="170.44" style="stroke: #000000; stroke-width: 0.6"/>
      </g>
     </g>
    </g>
    <g id="xtick_9">
     <g id="line2d_9">
      <g>
       <use xlink:href="#ma501ffc3fc" x="123.399137" y="170.44" style="stroke: #000000; stroke-width: 0.6"/>
      </g>
     </g>
    </g>
    <g id="xtick_10">
     <g id="line2d_10">
      <g>
       <use xlink:href="#ma501ffc3fc" x="187.715228" y="170.44" style="stroke: #000000; stroke-width: 0.6"/>
      </g>
     </g>
    </g>
    <g id="xtick_11">
     <g id="line2d_11">
      <g>
       <use xlink:href="#ma501ffc3fc" x="219.873274" y="170.44" style="stroke: #000000; stroke-width: 0.6"/>
      </g>
     </g>
    </g>
    <g id="xtick_12">
     <g id="line2d_12">
      <g>
       <use xlink:href="#ma501ffc3fc" x="252.031319" y="170.44" style="stroke: #000000; stroke-width: 0.6"/>
      </g>
     </g>
    </g>
    <g id="xtick_13">
     <g id="line2d_13">
      <g>
       <use xlink:href="#ma501ffc3fc" x="284.189365" y="170.44" style="stroke: #000000; stroke-width: 0.6"/>
      </g>
     </g>
    </g>
    <g id="xtick_14">
     <g id="line2d_14">
      <g>
       <use xlink:href="#ma501ffc3fc" x="348.505456" y="170.44" style="stroke: #000000; stroke-width: 0.6"/>
      </g>
     </g>
    </g>
    <g id="xtick_15">
     <g id="line2d_15">
      <g>
       <use xlink:href="#ma501ffc3fc" x="380.663502" y="170.44" style="stroke: #000000; stroke-width: 0.6"/>
      </g>
     </g>
    </g>
    <g id="xtick_16">
     <g id="line2d_16">
      <g>
       <use xlink:href="#ma501ffc3fc" x="412.821547" y="170.44" style="stroke: #000000; stroke-width: 0.6"/>
      </g>
     </g>
    </g>
    <g id="xtick_17">
     <g id="line2d_17">
      <g>
       <use xlink:href="#ma501ffc3fc" x="444.979593" y="170.44" style="stroke: #000000; stroke-width: 0.6"/>
      </g>
     </g>
    </g>
    <g id="xtick_18">
     <g id="line2d_18">
      <g>
       <use xlink:href="#ma501ffc3fc" x="509.295684" y="170.44" style="stroke: #000000; stroke-width: 0.6"/>
      </g>
     </g>
    </g>
    <g id="xtick_19">
     <g id="line2d_19">
      <g>
       <use xlink:href="#ma501ffc3fc" x="541.45373" y="170.44" style="stroke: #000000; stroke-width: 0.6"/>
      </g>
     </g>
    </g>
    <g id="xtick_20">
     <g id="line2d_20">
      <g>
       <use xlink:href="#ma501ffc3fc" x="573.611775" y="170.44" style="stroke: #000000; stroke-width: 0.6"/>
      </g>
     </g>
    </g>
    <g id="xtick_21">
     <g id="line2d_21">
      <g>
       <use xlink:href="#ma501ffc3fc" x="605.769821" y="170.44" style="stroke: #000000; stroke-width: 0.6"/>
      </g>
     </g>
    </g>
    <g id="xtick_22">
     <g id="line2d_22">
      <g>
       <use xlink:href="#ma501ffc3fc" x="670.085912" y="170.44" style="stroke: #000000; stroke-width: 0.6"/>
      </g>
     </g>
    </g>
    <g id="xtick_23">
     <g id="line2d_23">
      <g>
       <use xlink:href="#ma501ffc3fc" x="702.243958" y="170.44" style="stroke: #000000; stroke-width: 0.6"/>
      </g>
     </g>
    </g>
    <g id="xtick_24">
     <g id="line2d_24">
      <g>
       <use xlink:href="#ma501ffc3fc" x="734.402003" y="170.44" style="stroke: #000000; stroke-width: 0.6"/>
      </g>
     </g>
    </g>
    <g id="xtick_25">
     <g id="line2d_25">
      <g>
       <use xlink:href="#ma501ffc3fc" x="766.560049" y="170.44" style="stroke: #000000; stroke-width: 0.6"/>
      </g>
     </g>
    </g>
    <g id="xtick_26">
     <g id="line2d_26">
      <g>
       <use xlink:href="#ma501ffc3fc" x="830.87614" y="170.44" style="stroke: #000000; stroke-width: 0.6"/>
      </g>
     </g>
    </g>
    <g id="text_6">
     <!-- date -->
     <g transform="translate(427.005 198.716562) scale(0.1 -0.1)">
      <defs>
       <path id="DejaVuSans-64" d="M 2906 2969 
L 2906 4863 
L 3481 4863 
L 3481 0 
L 2906 0 
L 2906 525 
Q 2725 213 2448 61 
Q 2172 -91 1784 -91 
Q 1150 -91 751 415 
Q 353 922 353 1747 
Q 353 2572 751 3078 
Q 1150 3584 1784 3584 
Q 2172 3584 2448 3432 
Q 2725 3281 2906 2969 
z
M 947 1747 
Q 947 1113 1208 752 
Q 1469 391 1925 391 
Q 2381 391 2643 752 
Q 2906 1113 2906 1747 
Q 2906 2381 2643 2742 
Q 2381 3103 1925 3103 
Q 1469 3103 1208 2742 
Q 947 2381 947 1747 
z
" transform="scale(0.015625)"/>
       <path id="DejaVuSans-61" d="M 2194 1759 
Q 1497 1759 1228 1600 
Q 959 1441 959 1056 
Q 959 750 1161 570 
Q 1363 391 1709 391 
Q 2188 391 2477 730 
Q 2766 1069 2766 1631 
L 2766 1759 
L 2194 1759 
z
M 3341 1997 
L 3341 0 
L 2766 0 
L 2766 531 
Q 2569 213 2275 61 
Q 1981 -91 1556 -91 
Q 1019 -91 701 211 
Q 384 513 384 1019 
Q 384 1609 779 1909 
Q 1175 2209 1959 2209 
L 2766 2209 
L 2766 2266 
Q 2766 2663 2505 2880 
Q 2244 3097 1772 3097 
Q 1472 3097 1187 3025 
Q 903 2953 641 2809 
L 641 3341 
Q 956 3463 1253 3523 
Q 1550 3584 1831 3584 
Q 2591 3584 2966 3190 
Q 3341 2797 3341 1997 
z
" transform="scale(0.015625)"/>
       <path id="DejaVuSans-74" d="M 1172 4494 
L 1172 3500 
L 2356 3500 
L 2356 3053 
L 1172 3053 
L 1172 1153 
Q 1172 725 1289 603 
Q 1406 481 1766 481 
L 2356 481 
L 2356 0 
L 1766 0 
Q 1100 0 847 248 
Q 594 497 594 1153 
L 594 3053 
L 172 3053 
L 172 3500 
L 594 3500 
L 594 4494 
L 1172 4494 
z
" transform="scale(0.015625)"/>
       <path id="DejaVuSans-65" d="M 3597 1894 
L 3597 1613 
L 953 1613 
Q 991 1019 1311 708 
Q 1631 397 2203 397 
Q 2534 397 2845 478 
Q 3156 559 3463 722 
L 3463 178 
Q 3153 47 2828 -22 
Q 2503 -91 2169 -91 
Q 1331 -91 842 396 
Q 353 884 353 1716 
Q 353 2575 817 3079 
Q 1281 3584 2069 3584 
Q 2775 3584 3186 3129 
Q 3597 2675 3597 1894 
z
M 3022 2063 
Q 3016 2534 2758 2815 
Q 2500 3097 2075 3097 
Q 1594 3097 1305 2825 
Q 1016 2553 972 2059 
L 3022 2063 
z
" transform="scale(0.015625)"/>
      </defs>
      <use xlink:href="#DejaVuSans-64"/>
      <use xlink:href="#DejaVuSans-61" transform="translate(63.476562 0)"/>
      <use xlink:href="#DejaVuSans-74" transform="translate(124.755859 0)"/>
      <use xlink:href="#DejaVuSans-65" transform="translate(163.964844 0)"/>
     </g>
    </g>
   </g>
   <g id="matplotlib.axis_2">
    <g id="ytick_1">
     <g id="line2d_27">
      <path d="M 26.925 151.604615 
L 849.635 151.604615 
" clip-path="url(#pcb1376c76f)" style="fill: none; stroke-dasharray: 2.96,1.28; stroke-dashoffset: 0; stroke: #000000; stroke-opacity: 0.1; stroke-width: 0.8"/>
     </g>
     <g id="line2d_28">
      <defs>
       <path id="m3222c48825" d="M 0 0 
L -3.5 0 
" style="stroke: #000000; stroke-width: 0.8"/>
      </defs>
      <g>
       <use xlink:href="#m3222c48825" x="26.925" y="151.604615" style="stroke: #000000; stroke-width: 0.8"/>
      </g>
     </g>
     <g id="text_7">
      <!-- 4 -->
      <g transform="translate(13.5625 155.403834) scale(0.1 -0.1)">
       <use xlink:href="#DejaVuSans-34"/>
      </g>
     </g>
    </g>
    <g id="ytick_2">
     <g id="line2d_29">
      <path d="M 26.925 126.237094 
L 849.635 126.237094 
" clip-path="url(#pcb1376c76f)" style="fill: none; stroke-dasharray: 2.96,1.28; stroke-dashoffset: 0; stroke: #000000; stroke-opacity: 0.1; stroke-width: 0.8"/>
     </g>
     <g id="line2d_30">
      <g>
       <use xlink:href="#m3222c48825" x="26.925" y="126.237094" style="stroke: #000000; stroke-width: 0.8"/>
      </g>
     </g>
     <g id="text_8">
      <!-- 6 -->
      <g transform="translate(13.5625 130.036313) scale(0.1 -0.1)">
       <defs>
        <path id="DejaVuSans-36" d="M 2113 2584 
Q 1688 2584 1439 2293 
Q 1191 2003 1191 1497 
Q 1191 994 1439 701 
Q 1688 409 2113 409 
Q 2538 409 2786 701 
Q 3034 994 3034 1497 
Q 3034 2003 2786 2293 
Q 2538 2584 2113 2584 
z
M 3366 4563 
L 3366 3988 
Q 3128 4100 2886 4159 
Q 2644 4219 2406 4219 
Q 1781 4219 1451 3797 
Q 1122 3375 1075 2522 
Q 1259 2794 1537 2939 
Q 1816 3084 2150 3084 
Q 2853 3084 3261 2657 
Q 3669 2231 3669 1497 
Q 3669 778 3244 343 
Q 2819 -91 2113 -91 
Q 1303 -91 875 529 
Q 447 1150 447 2328 
Q 447 3434 972 4092 
Q 1497 4750 2381 4750 
Q 2619 4750 2861 4703 
Q 3103 4656 3366 4563 
z
" transform="scale(0.015625)"/>
       </defs>
       <use xlink:href="#DejaVuSans-36"/>
      </g>
     </g>
    </g>
    <g id="ytick_3">
     <g id="line2d_31">
      <path d="M 26.925 100.869573 
L 849.635 100.869573 
" clip-path="url(#pcb1376c76f)" style="fill: none; stroke-dasharray: 2.96,1.28; stroke-dashoffset: 0; stroke: #000000; stroke-opacity: 0.1; stroke-width: 0.8"/>
     </g>
     <g id="line2d_32">
      <g>
       <use xlink:href="#m3222c48825" x="26.925" y="100.869573" style="stroke: #000000; stroke-width: 0.8"/>
      </g>
     </g>
     <g id="text_9">
      <!-- 8 -->
      <g transform="translate(13.5625 104.668791) scale(0.1 -0.1)">
       <defs>
        <path id="DejaVuSans-38" d="M 2034 2216 
Q 1584 2216 1326 1975 
Q 1069 1734 1069 1313 
Q 1069 891 1326 650 
Q 1584 409 2034 409 
Q 2484 409 2743 651 
Q 3003 894 3003 1313 
Q 3003 1734 2745 1975 
Q 2488 2216 2034 2216 
z
M 1403 2484 
Q 997 2584 770 2862 
Q 544 3141 544 3541 
Q 544 4100 942 4425 
Q 1341 4750 2034 4750 
Q 2731 4750 3128 4425 
Q 3525 4100 3525 3541 
Q 3525 3141 3298 2862 
Q 3072 2584 2669 2484 
Q 3125 2378 3379 2068 
Q 3634 1759 3634 1313 
Q 3634 634 3220 271 
Q 2806 -91 2034 -91 
Q 1263 -91 848 271 
Q 434 634 434 1313 
Q 434 1759 690 2068 
Q 947 2378 1403 2484 
z
M 1172 3481 
Q 1172 3119 1398 2916 
Q 1625 2713 2034 2713 
Q 2441 2713 2670 2916 
Q 2900 3119 2900 3481 
Q 2900 3844 2670 4047 
Q 2441 4250 2034 4250 
Q 1625 4250 1398 4047 
Q 1172 3844 1172 3481 
z
" transform="scale(0.015625)"/>
       </defs>
       <use xlink:href="#DejaVuSans-38"/>
      </g>
     </g>
    </g>
    <g id="ytick_4">
     <g id="line2d_33">
      <path d="M 26.925 75.502051 
L 849.635 75.502051 
" clip-path="url(#pcb1376c76f)" style="fill: none; stroke-dasharray: 2.96,1.28; stroke-dashoffset: 0; stroke: #000000; stroke-opacity: 0.1; stroke-width: 0.8"/>
     </g>
     <g id="line2d_34">
      <g>
       <use xlink:href="#m3222c48825" x="26.925" y="75.502051" style="stroke: #000000; stroke-width: 0.8"/>
      </g>
     </g>
     <g id="text_10">
      <!-- 10 -->
      <g transform="translate(7.2 79.30127) scale(0.1 -0.1)">
       <use xlink:href="#DejaVuSans-31"/>
       <use xlink:href="#DejaVuSans-30" transform="translate(63.623047 0)"/>
      </g>
     </g>
    </g>
    <g id="ytick_5">
     <g id="line2d_35">
      <path d="M 26.925 50.13453 
L 849.635 50.13453 
" clip-path="url(#pcb1376c76f)" style="fill: none; stroke-dasharray: 2.96,1.28; stroke-dashoffset: 0; stroke: #000000; stroke-opacity: 0.1; stroke-width: 0.8"/>
     </g>
     <g id="line2d_36">
      <g>
       <use xlink:href="#m3222c48825" x="26.925" y="50.13453" style="stroke: #000000; stroke-width: 0.8"/>
      </g>
     </g>
     <g id="text_11">
      <!-- 12 -->
      <g transform="translate(7.2 53.933749) scale(0.1 -0.1)">
       <use xlink:href="#DejaVuSans-31"/>
       <use xlink:href="#DejaVuSans-32" transform="translate(63.623047 0)"/>
      </g>
     </g>
    </g>
    <g id="ytick_6">
     <g id="line2d_37">
      <path d="M 26.925 24.767009 
L 849.635 24.767009 
" clip-path="url(#pcb1376c76f)" style="fill: none; stroke-dasharray: 2.96,1.28; stroke-dashoffset: 0; stroke: #000000; stroke-opacity: 0.1; stroke-width: 0.8"/>
     </g>
     <g id="line2d_38">
      <g>
       <use xlink:href="#m3222c48825" x="26.925" y="24.767009" style="stroke: #000000; stroke-width: 0.8"/>
      </g>
     </g>
     <g id="text_12">
      <!-- 14 -->
      <g transform="translate(7.2 28.566227) scale(0.1 -0.1)">
       <use xlink:href="#DejaVuSans-31"/>
       <use xlink:href="#DejaVuSans-34" transform="translate(63.623047 0)"/>
      </g>
     </g>
    </g>
   </g>
   <g id="line2d_39">
    <path d="M 26.925 151.604615 
L 29.604837 150.336239 
L 32.284674 151.604615 
L 34.964511 154.141368 
L 37.644349 151.604615 
L 43.004023 151.604615 
L 45.68386 150.336239 
L 48.363697 152.872991 
L 56.403208 152.872991 
L 59.083046 149.067863 
L 61.762883 149.067863 
L 67.122557 146.531111 
L 69.802394 147.799487 
L 72.482231 145.262735 
L 75.162068 143.994359 
L 77.841906 140.189231 
L 80.521743 138.920855 
L 83.20158 135.115726 
L 88.561254 130.042222 
L 96.600765 130.042222 
L 99.280603 127.50547 
L 101.96044 128.773846 
L 107.320114 128.773846 
L 109.999951 130.042222 
L 115.359625 130.042222 
L 118.039463 127.50547 
L 120.7193 126.237094 
L 123.399137 128.773846 
L 126.078974 127.50547 
L 128.758811 127.50547 
L 134.118485 124.968718 
L 136.798322 122.431966 
L 142.157997 124.968718 
L 144.837834 124.968718 
L 147.517671 126.237094 
L 150.197508 128.773846 
L 152.877345 130.042222 
L 155.557182 130.042222 
L 158.23702 131.310598 
L 160.916857 128.773846 
L 163.596694 131.310598 
L 168.956368 131.310598 
L 174.316042 133.84735 
L 176.995879 133.84735 
L 179.675717 132.578974 
L 182.355554 133.84735 
L 185.035391 133.84735 
L 187.715228 135.115726 
L 190.395065 133.84735 
L 193.074902 136.384103 
L 195.754739 136.384103 
L 201.114414 138.920855 
L 203.794251 138.920855 
L 206.474088 140.189231 
L 209.153925 138.920855 
L 214.513599 138.920855 
L 217.193436 140.189231 
L 219.873274 142.725983 
L 222.553111 141.457607 
L 225.232948 142.725983 
L 227.912785 142.725983 
L 230.592622 143.994359 
L 233.272459 143.994359 
L 235.952296 142.725983 
L 238.632134 142.725983 
L 241.311971 145.262735 
L 243.991808 146.531111 
L 246.671645 145.262735 
L 249.351482 146.531111 
L 252.031319 143.994359 
L 257.390993 146.531111 
L 260.070831 145.262735 
L 262.750668 146.531111 
L 265.430505 143.994359 
L 268.110342 142.725983 
L 270.790179 143.994359 
L 273.470016 142.725983 
L 278.829691 142.725983 
L 281.509528 138.920855 
L 284.189365 138.920855 
L 286.869202 140.189231 
L 289.549039 137.652479 
L 292.228876 138.920855 
L 294.908713 133.84735 
L 300.268388 128.773846 
L 302.948225 124.968718 
L 305.628062 124.968718 
L 308.307899 119.895214 
L 310.987736 116.090085 
L 319.027248 97.064444 
L 321.707085 91.99094 
L 324.386922 88.185812 
L 327.066759 83.112308 
L 329.746596 81.843932 
L 332.426433 81.843932 
L 335.10627 80.575556 
L 340.465945 75.502051 
L 343.145782 76.770427 
L 345.825619 76.770427 
L 348.505456 78.038803 
L 351.185293 78.038803 
L 353.86513 76.770427 
L 356.544967 76.770427 
L 359.224805 80.575556 
L 361.904642 83.112308 
L 364.584479 83.112308 
L 367.264316 81.843932 
L 369.944153 81.843932 
L 372.62399 83.112308 
L 375.303827 78.038803 
L 377.983664 84.380684 
L 380.663502 86.917436 
L 383.343339 88.185812 
L 386.023176 88.185812 
L 388.703013 86.917436 
L 391.38285 88.185812 
L 394.062687 86.917436 
L 396.742524 88.185812 
L 402.102199 88.185812 
L 407.461873 93.259316 
L 410.14171 94.527692 
L 412.821547 97.064444 
L 415.501384 97.064444 
L 418.181221 98.332821 
L 428.90057 98.332821 
L 431.580407 99.601197 
L 434.260244 103.406325 
L 436.940081 103.406325 
L 439.619919 104.674701 
L 442.299756 102.137949 
L 444.979593 100.869573 
L 447.65943 104.674701 
L 450.339267 107.211453 
L 453.019104 105.943077 
L 455.698941 107.211453 
L 458.378779 107.211453 
L 461.058616 109.748205 
L 463.738453 111.016581 
L 469.098127 111.016581 
L 471.777964 114.821709 
L 474.457801 117.358462 
L 477.137638 118.626838 
L 479.817476 117.358462 
L 482.497313 117.358462 
L 485.17715 123.700342 
L 487.856987 122.431966 
L 490.536824 124.968718 
L 493.216661 123.700342 
L 495.896498 124.968718 
L 501.256173 130.042222 
L 503.93601 128.773846 
L 506.615847 131.310598 
L 509.295684 130.042222 
L 511.975521 132.578974 
L 514.655358 133.84735 
L 517.335195 133.84735 
L 520.015033 131.310598 
L 522.69487 135.115726 
L 530.734381 138.920855 
L 533.414218 138.920855 
L 536.094055 137.652479 
L 538.773893 138.920855 
L 541.45373 141.457607 
L 549.493241 137.652479 
L 552.173078 141.457607 
L 554.852915 140.189231 
L 557.532752 141.457607 
L 562.892427 138.920855 
L 565.572264 140.189231 
L 568.252101 142.725983 
L 573.611775 142.725983 
L 576.291612 143.994359 
L 578.97145 146.531111 
L 584.331124 146.531111 
L 587.010961 147.799487 
L 589.690798 147.799487 
L 592.370635 146.531111 
L 597.730309 149.067863 
L 600.410147 149.067863 
L 605.769821 151.604615 
L 608.449658 150.336239 
L 611.129495 151.604615 
L 613.809332 151.604615 
L 616.489169 154.141368 
L 619.169007 151.604615 
L 621.848844 154.141368 
L 624.528681 154.141368 
L 627.208518 155.409744 
L 629.888355 154.141368 
L 632.568192 154.141368 
L 637.927866 151.604615 
L 640.607704 154.141368 
L 643.287541 154.141368 
L 648.647215 156.67812 
L 651.327052 156.67812 
L 654.006889 155.409744 
L 659.366564 157.946496 
L 662.046401 156.67812 
L 670.085912 156.67812 
L 672.765749 157.946496 
L 675.445586 146.531111 
L 678.125423 14.62 
L 680.805261 34.914017 
L 683.485098 62.818291 
L 686.164935 72.965299 
L 688.844772 95.796068 
L 691.524609 103.406325 
L 694.204446 114.821709 
L 696.884283 117.358462 
L 699.564121 117.358462 
L 702.243958 121.16359 
L 704.923795 123.700342 
L 707.603632 124.968718 
L 710.283469 124.968718 
L 712.963306 128.773846 
L 715.643143 127.50547 
L 718.32298 133.84735 
L 721.002818 137.652479 
L 723.682655 142.725983 
L 726.362492 145.262735 
L 731.722166 152.872991 
L 734.402003 151.604615 
L 737.08184 154.141368 
L 739.761678 155.409744 
L 742.441515 155.409744 
L 745.121352 156.67812 
L 747.801189 156.67812 
L 750.481026 157.946496 
L 753.160863 156.67812 
L 755.8407 157.946496 
L 758.520537 156.67812 
L 761.200375 156.67812 
L 763.880212 157.946496 
L 766.560049 157.946496 
L 769.239886 156.67812 
L 774.59956 159.214872 
L 777.279397 156.67812 
L 779.959235 156.67812 
L 782.639072 157.946496 
L 785.318909 155.409744 
L 790.678583 152.872991 
L 793.35842 155.409744 
L 796.038257 154.141368 
L 798.718094 155.409744 
L 801.397932 152.872991 
L 806.757606 152.872991 
L 814.797117 149.067863 
L 817.476954 149.067863 
L 820.156792 150.336239 
L 822.836629 150.336239 
L 825.516466 149.067863 
L 830.87614 151.604615 
L 836.235814 149.067863 
L 841.595489 149.067863 
L 844.275326 150.336239 
L 849.635 147.799487 
L 849.635 147.799487 
" clip-path="url(#pcb1376c76f)" style="fill: none; stroke: #1f77b4; stroke-width: 1.5; stroke-linecap: square"/>
   </g>
   <g id="line2d_40">
    <path d="M 26.925 145.262735 
L 32.284674 147.799487 
L 34.964511 155.409744 
L 37.644349 154.141368 
L 40.324186 150.336239 
L 43.004023 149.067863 
L 45.68386 150.336239 
L 48.363697 154.141368 
L 51.043534 156.67812 
L 53.723371 155.409744 
L 56.403208 155.409744 
L 59.083046 142.725983 
L 64.44272 145.262735 
L 67.122557 149.067863 
L 69.802394 150.336239 
L 72.482231 142.725983 
L 75.162068 142.725983 
L 77.841906 140.189231 
L 80.521743 142.725983 
L 85.881417 135.115726 
L 88.561254 133.84735 
L 91.241091 122.431966 
L 93.920928 124.968718 
L 96.600765 124.968718 
L 99.280603 130.042222 
L 101.96044 132.578974 
L 104.640277 126.237094 
L 107.320114 127.50547 
L 109.999951 130.042222 
L 112.679788 133.84735 
L 115.359625 135.115726 
L 118.039463 131.310598 
L 120.7193 130.042222 
L 123.399137 119.895214 
L 126.078974 121.16359 
L 128.758811 123.700342 
L 131.438648 128.773846 
L 134.118485 128.773846 
L 136.798322 119.895214 
L 139.47816 122.431966 
L 142.157997 126.237094 
L 147.517671 131.310598 
L 150.197508 131.310598 
L 152.877345 133.84735 
L 155.557182 122.431966 
L 158.23702 126.237094 
L 160.916857 126.237094 
L 163.596694 133.84735 
L 166.276531 135.115726 
L 168.956368 128.773846 
L 171.636205 130.042222 
L 176.995879 137.652479 
L 179.675717 137.652479 
L 182.355554 136.384103 
L 185.035391 137.652479 
L 187.715228 130.042222 
L 190.395065 128.773846 
L 193.074902 133.84735 
L 195.754739 140.189231 
L 198.434577 140.189231 
L 201.114414 136.384103 
L 203.794251 136.384103 
L 206.474088 140.189231 
L 209.153925 141.457607 
L 211.833762 143.994359 
L 214.513599 141.457607 
L 217.193436 143.994359 
L 219.873274 137.652479 
L 222.553111 137.652479 
L 227.912785 145.262735 
L 230.592622 146.531111 
L 233.272459 141.457607 
L 235.952296 138.920855 
L 238.632134 143.994359 
L 241.311971 146.531111 
L 243.991808 150.336239 
L 246.671645 147.799487 
L 249.351482 147.799487 
L 252.031319 138.920855 
L 254.711156 140.189231 
L 257.390993 145.262735 
L 260.070831 147.799487 
L 262.750668 147.799487 
L 265.430505 142.725983 
L 268.110342 140.189231 
L 270.790179 143.994359 
L 276.149853 146.531111 
L 278.829691 145.262735 
L 281.509528 141.457607 
L 284.189365 133.84735 
L 286.869202 136.384103 
L 289.549039 136.384103 
L 292.228876 141.457607 
L 294.908713 136.384103 
L 297.58855 130.042222 
L 300.268388 126.237094 
L 302.948225 124.968718 
L 305.628062 126.237094 
L 308.307899 124.968718 
L 310.987736 119.895214 
L 313.667573 112.284957 
L 316.34741 94.527692 
L 319.027248 89.454188 
L 321.707085 88.185812 
L 324.386922 93.259316 
L 327.066759 86.917436 
L 329.746596 79.307179 
L 332.426433 79.307179 
L 337.786107 81.843932 
L 340.465945 81.843932 
L 343.145782 83.112308 
L 345.825619 79.307179 
L 348.505456 67.891795 
L 353.86513 72.965299 
L 356.544967 81.843932 
L 359.224805 84.380684 
L 361.904642 80.575556 
L 364.584479 79.307179 
L 367.264316 81.843932 
L 369.944153 85.64906 
L 372.62399 88.185812 
L 375.303827 84.380684 
L 377.983664 86.917436 
L 380.663502 78.038803 
L 386.023176 85.64906 
L 388.703013 91.99094 
L 391.38285 91.99094 
L 394.062687 84.380684 
L 396.742524 84.380684 
L 399.422362 86.917436 
L 407.461873 98.332821 
L 410.14171 97.064444 
L 412.821547 90.722564 
L 415.501384 91.99094 
L 418.181221 95.796068 
L 420.861059 104.674701 
L 423.540896 102.137949 
L 426.220733 95.796068 
L 428.90057 93.259316 
L 431.580407 98.332821 
L 434.260244 105.943077 
L 439.619919 108.479829 
L 442.299756 105.943077 
L 444.979593 94.527692 
L 447.65943 99.601197 
L 453.019104 112.284957 
L 455.698941 109.748205 
L 458.378779 103.406325 
L 461.058616 104.674701 
L 463.738453 109.748205 
L 466.41829 113.553333 
L 469.098127 113.553333 
L 471.777964 118.626838 
L 474.457801 119.895214 
L 477.137638 113.553333 
L 479.817476 113.553333 
L 482.497313 116.090085 
L 485.17715 127.50547 
L 493.216661 119.895214 
L 495.896498 122.431966 
L 498.576336 130.042222 
L 501.256173 132.578974 
L 503.93601 132.578974 
L 506.615847 133.84735 
L 509.295684 124.968718 
L 511.975521 128.773846 
L 514.655358 131.310598 
L 517.335195 137.652479 
L 522.69487 132.578974 
L 525.374707 131.310598 
L 528.054544 136.384103 
L 530.734381 140.189231 
L 533.414218 141.457607 
L 538.773893 141.457607 
L 541.45373 135.115726 
L 546.813404 137.652479 
L 549.493241 142.725983 
L 552.173078 145.262735 
L 554.852915 137.652479 
L 557.532752 137.652479 
L 560.21259 138.920855 
L 562.892427 141.457607 
L 565.572264 142.725983 
L 568.252101 146.531111 
L 570.931938 145.262735 
L 573.611775 137.652479 
L 576.291612 140.189231 
L 578.97145 143.994359 
L 581.651287 150.336239 
L 584.331124 150.336239 
L 587.010961 145.262735 
L 589.690798 143.994359 
L 592.370635 145.262735 
L 595.050472 150.336239 
L 597.730309 152.872991 
L 603.089984 152.872991 
L 605.769821 145.262735 
L 608.449658 146.531111 
L 611.129495 150.336239 
L 613.809332 155.409744 
L 616.489169 156.67812 
L 619.169007 149.067863 
L 621.848844 150.336239 
L 624.528681 152.872991 
L 627.208518 156.67812 
L 629.888355 157.946496 
L 632.568192 157.946496 
L 635.248029 155.409744 
L 637.927866 146.531111 
L 640.607704 150.336239 
L 643.287541 152.872991 
L 645.967378 160.483248 
L 648.647215 159.214872 
L 651.327052 154.141368 
L 654.006889 151.604615 
L 656.686726 154.141368 
L 659.366564 160.483248 
L 664.726238 160.483248 
L 667.406075 159.214872 
L 670.085912 151.604615 
L 672.765749 154.141368 
L 675.445586 145.262735 
L 678.125423 19.693504 
L 680.805261 37.450769 
L 683.485098 60.281538 
L 686.164935 69.160171 
L 688.844772 94.527692 
L 691.524609 104.674701 
L 694.204446 118.626838 
L 696.884283 121.16359 
L 699.564121 119.895214 
L 702.243958 116.090085 
L 704.923795 118.626838 
L 707.603632 123.700342 
L 710.283469 130.042222 
L 712.963306 132.578974 
L 715.643143 124.968718 
L 721.002818 135.115726 
L 723.682655 143.994359 
L 726.362492 147.799487 
L 729.042329 152.872991 
L 731.722166 155.409744 
L 734.402003 146.531111 
L 739.761678 154.141368 
L 742.441515 160.483248 
L 745.121352 159.214872 
L 747.801189 154.141368 
L 753.160863 154.141368 
L 755.8407 160.483248 
L 758.520537 159.214872 
L 761.200375 159.214872 
L 763.880212 160.483248 
L 766.560049 152.872991 
L 769.239886 152.872991 
L 771.919723 156.67812 
L 774.59956 163.02 
L 777.279397 159.214872 
L 779.959235 154.141368 
L 782.639072 154.141368 
L 785.318909 152.872991 
L 787.998746 156.67812 
L 790.678583 156.67812 
L 793.35842 157.946496 
L 796.038257 157.946496 
L 798.718094 150.336239 
L 801.397932 149.067863 
L 804.077769 152.872991 
L 806.757606 157.946496 
L 809.437443 155.409744 
L 812.11728 147.799487 
L 814.797117 145.262735 
L 817.476954 146.531111 
L 820.156792 152.872991 
L 822.836629 152.872991 
L 825.516466 151.604615 
L 828.196303 154.141368 
L 830.87614 146.531111 
L 833.555977 145.262735 
L 838.915651 152.872991 
L 841.595489 151.604615 
L 844.275326 146.531111 
L 846.955163 143.994359 
L 849.635 145.262735 
L 849.635 145.262735 
" clip-path="url(#pcb1376c76f)" style="fill: none; stroke: #ff7f0e; stroke-width: 1.5; stroke-linecap: square"/>
   </g>
   <g id="patch_3">
    <path d="M 26.925 170.44 
L 26.925 7.2 
" style="fill: none"/>
   </g>
   <g id="patch_4">
    <path d="M 849.635 170.44 
L 849.635 7.2 
" style="fill: none"/>
   </g>
   <g id="patch_5">
    <path d="M 26.925 170.44 
L 849.635 170.44 
" style="fill: none"/>
   </g>
   <g id="patch_6">
    <path d="M 26.925 7.2 
L 849.635 7.2 
" style="fill: none"/>
   </g>
   <g id="legend_1">
    <g id="patch_7">
     <path d="M 749.936563 44.55625 
L 842.635 44.55625 
Q 844.635 44.55625 844.635 42.55625 
L 844.635 14.2 
Q 844.635 12.2 842.635 12.2 
L 749.936563 12.2 
Q 747.936563 12.2 747.936563 14.2 
L 747.936563 42.55625 
Q 747.936563 44.55625 749.936563 44.55625 
L 749.936563 44.55625 
z
" style="fill: none; opacity: 0"/>
    </g>
    <g id="line2d_41">
     <path d="M 751.936563 20.298438 
L 761.936563 20.298438 
L 771.936563 20.298438 
" style="fill: none; stroke: #1f77b4; stroke-width: 1.5; stroke-linecap: square"/>
    </g>
    <g id="text_13">
     <!-- UNRATE -->
     <g transform="translate(779.936563 23.798438) scale(0.1 -0.1)">
      <defs>
       <path id="DejaVuSans-55" d="M 556 4666 
L 1191 4666 
L 1191 1831 
Q 1191 1081 1462 751 
Q 1734 422 2344 422 
Q 2950 422 3222 751 
Q 3494 1081 3494 1831 
L 3494 4666 
L 4128 4666 
L 4128 1753 
Q 4128 841 3676 375 
Q 3225 -91 2344 -91 
Q 1459 -91 1007 375 
Q 556 841 556 1753 
L 556 4666 
z
" transform="scale(0.015625)"/>
       <path id="DejaVuSans-4e" d="M 628 4666 
L 1478 4666 
L 3547 763 
L 3547 4666 
L 4159 4666 
L 4159 0 
L 3309 0 
L 1241 3903 
L 1241 0 
L 628 0 
L 628 4666 
z
" transform="scale(0.015625)"/>
       <path id="DejaVuSans-52" d="M 2841 2188 
Q 3044 2119 3236 1894 
Q 3428 1669 3622 1275 
L 4263 0 
L 3584 0 
L 2988 1197 
Q 2756 1666 2539 1819 
Q 2322 1972 1947 1972 
L 1259 1972 
L 1259 0 
L 628 0 
L 628 4666 
L 2053 4666 
Q 2853 4666 3247 4331 
Q 3641 3997 3641 3322 
Q 3641 2881 3436 2590 
Q 3231 2300 2841 2188 
z
M 1259 4147 
L 1259 2491 
L 2053 2491 
Q 2509 2491 2742 2702 
Q 2975 2913 2975 3322 
Q 2975 3731 2742 3939 
Q 2509 4147 2053 4147 
L 1259 4147 
z
" transform="scale(0.015625)"/>
       <path id="DejaVuSans-41" d="M 2188 4044 
L 1331 1722 
L 3047 1722 
L 2188 4044 
z
M 1831 4666 
L 2547 4666 
L 4325 0 
L 3669 0 
L 3244 1197 
L 1141 1197 
L 716 0 
L 50 0 
L 1831 4666 
z
" transform="scale(0.015625)"/>
       <path id="DejaVuSans-54" d="M -19 4666 
L 3928 4666 
L 3928 4134 
L 2272 4134 
L 2272 0 
L 1638 0 
L 1638 4134 
L -19 4134 
L -19 4666 
z
" transform="scale(0.015625)"/>
       <path id="DejaVuSans-45" d="M 628 4666 
L 3578 4666 
L 3578 4134 
L 1259 4134 
L 1259 2753 
L 3481 2753 
L 3481 2222 
L 1259 2222 
L 1259 531 
L 3634 531 
L 3634 0 
L 628 0 
L 628 4666 
z
" transform="scale(0.015625)"/>
      </defs>
      <use xlink:href="#DejaVuSans-55"/>
      <use xlink:href="#DejaVuSans-4e" transform="translate(73.193359 0)"/>
      <use xlink:href="#DejaVuSans-52" transform="translate(147.998047 0)"/>
      <use xlink:href="#DejaVuSans-41" transform="translate(213.480469 0)"/>
      <use xlink:href="#DejaVuSans-54" transform="translate(274.138672 0)"/>
      <use xlink:href="#DejaVuSans-45" transform="translate(335.222656 0)"/>
     </g>
    </g>
    <g id="line2d_42">
     <path d="M 751.936563 34.976562 
L 761.936563 34.976562 
L 771.936563 34.976562 
" style="fill: none; stroke: #ff7f0e; stroke-width: 1.5; stroke-linecap: square"/>
    </g>
    <g id="text_14">
     <!-- UNRATENSA -->
     <g transform="translate(779.936563 38.476562) scale(0.1 -0.1)">
      <defs>
       <path id="DejaVuSans-53" d="M 3425 4513 
L 3425 3897 
Q 3066 4069 2747 4153 
Q 2428 4238 2131 4238 
Q 1616 4238 1336 4038 
Q 1056 3838 1056 3469 
Q 1056 3159 1242 3001 
Q 1428 2844 1947 2747 
L 2328 2669 
Q 3034 2534 3370 2195 
Q 3706 1856 3706 1288 
Q 3706 609 3251 259 
Q 2797 -91 1919 -91 
Q 1588 -91 1214 -16 
Q 841 59 441 206 
L 441 856 
Q 825 641 1194 531 
Q 1563 422 1919 422 
Q 2459 422 2753 634 
Q 3047 847 3047 1241 
Q 3047 1584 2836 1778 
Q 2625 1972 2144 2069 
L 1759 2144 
Q 1053 2284 737 2584 
Q 422 2884 422 3419 
Q 422 4038 858 4394 
Q 1294 4750 2059 4750 
Q 2388 4750 2728 4690 
Q 3069 4631 3425 4513 
z
" transform="scale(0.015625)"/>
      </defs>
      <use xlink:href="#DejaVuSans-55"/>
      <use xlink:href="#DejaVuSans-4e" transform="translate(73.193359 0)"/>
      <use xlink:href="#DejaVuSans-52" transform="translate(147.998047 0)"/>
      <use xlink:href="#DejaVuSans-41" transform="translate(213.480469 0)"/>
      <use xlink:href="#DejaVuSans-54" transform="translate(274.138672 0)"/>
      <use xlink:href="#DejaVuSans-45" transform="translate(335.222656 0)"/>
      <use xlink:href="#DejaVuSans-4e" transform="translate(398.40625 0)"/>
      <use xlink:href="#DejaVuSans-53" transform="translate(473.210938 0)"/>
      <use xlink:href="#DejaVuSans-41" transform="translate(538.5625 0)"/>
     </g>
    </g>
   </g>
  </g>
 </g>
 <defs>
  <clipPath id="pcb1376c76f">
   <rect x="26.925" y="7.2" width="822.71" height="163.24"/>
  </clipPath>
 </defs>
</svg>
