<?xml version="1.0" encoding="utf-8" standalone="no"?>
<!DOCTYPE svg PUBLIC "-//W3C//DTD SVG 1.1//EN"
  "http://www.w3.org/Graphics/SVG/1.1/DTD/svg11.dtd">
<!-- Created with matplotlib (https://matplotlib.org/) -->
<svg height="352.584506pt" version="1.1" viewBox="0 0 712.7375 352.584506" width="712.7375pt" xmlns="http://www.w3.org/2000/svg" xmlns:xlink="http://www.w3.org/1999/xlink">
 <defs>
  <style type="text/css">
*{stroke-linecap:butt;stroke-linejoin:round;}
  </style>
 </defs>
 <g id="figure_1">
  <g id="patch_1">
   <path d="M -0 352.584506 
L 712.7375 352.584506 
L 712.7375 0 
L -0 0 
z
" style="fill:none;"/>
  </g>
  <g id="axes_1">
   <g id="patch_2">
    <path d="M 49.7625 322.899506 
L 705.5375 322.899506 
L 705.5375 7.627443 
L 49.7625 7.627443 
z
" style="fill:none;"/>
   </g>
   <g id="matplotlib.axis_1">
    <g id="xtick_1">
     <g id="line2d_1">
      <defs>
       <path d="M 0 0 
L 0 3.5 
" id="m64d2ca8c8e" style="stroke:#003559;stroke-width:0.8;"/>
      </defs>
      <g>
       <use style="fill:#003559;stroke:#003559;stroke-width:0.8;" x="79.570455" xlink:href="#m64d2ca8c8e" y="322.899506"/>
      </g>
     </g>
     <g id="text_1">
      <!-- 2010 -->
      <defs>
       <path d="M 19.1875 8.296875 
L 53.609375 8.296875 
L 53.609375 0 
L 7.328125 0 
L 7.328125 8.296875 
Q 12.9375 14.109375 22.625 23.890625 
Q 32.328125 33.6875 34.8125 36.53125 
Q 39.546875 41.84375 41.421875 45.53125 
Q 43.3125 49.21875 43.3125 52.78125 
Q 43.3125 58.59375 39.234375 62.25 
Q 35.15625 65.921875 28.609375 65.921875 
Q 23.96875 65.921875 18.8125 64.3125 
Q 13.671875 62.703125 7.8125 59.421875 
L 7.8125 69.390625 
Q 13.765625 71.78125 18.9375 73 
Q 24.125 74.21875 28.421875 74.21875 
Q 39.75 74.21875 46.484375 68.546875 
Q 53.21875 62.890625 53.21875 53.421875 
Q 53.21875 48.921875 51.53125 44.890625 
Q 49.859375 40.875 45.40625 35.40625 
Q 44.1875 33.984375 37.640625 27.21875 
Q 31.109375 20.453125 19.1875 8.296875 
z
" id="DejaVuSans-50"/>
       <path d="M 31.78125 66.40625 
Q 24.171875 66.40625 20.328125 58.90625 
Q 16.5 51.421875 16.5 36.375 
Q 16.5 21.390625 20.328125 13.890625 
Q 24.171875 6.390625 31.78125 6.390625 
Q 39.453125 6.390625 43.28125 13.890625 
Q 47.125 21.390625 47.125 36.375 
Q 47.125 51.421875 43.28125 58.90625 
Q 39.453125 66.40625 31.78125 66.40625 
z
M 31.78125 74.21875 
Q 44.046875 74.21875 50.515625 64.515625 
Q 56.984375 54.828125 56.984375 36.375 
Q 56.984375 17.96875 50.515625 8.265625 
Q 44.046875 -1.421875 31.78125 -1.421875 
Q 19.53125 -1.421875 13.0625 8.265625 
Q 6.59375 17.96875 6.59375 36.375 
Q 6.59375 54.828125 13.0625 64.515625 
Q 19.53125 74.21875 31.78125 74.21875 
z
" id="DejaVuSans-48"/>
       <path d="M 12.40625 8.296875 
L 28.515625 8.296875 
L 28.515625 63.921875 
L 10.984375 60.40625 
L 10.984375 69.390625 
L 28.421875 72.90625 
L 38.28125 72.90625 
L 38.28125 8.296875 
L 54.390625 8.296875 
L 54.390625 0 
L 12.40625 0 
z
" id="DejaVuSans-49"/>
      </defs>
      <g style="fill:#2f2235;" transform="translate(59.210455 342.057006)scale(0.16 -0.16)">
       <use xlink:href="#DejaVuSans-50"/>
       <use x="63.623047" xlink:href="#DejaVuSans-48"/>
       <use x="127.246094" xlink:href="#DejaVuSans-49"/>
       <use x="190.869141" xlink:href="#DejaVuSans-48"/>
      </g>
     </g>
    </g>
    <g id="xtick_2">
     <g id="line2d_2">
      <g>
       <use style="fill:#003559;stroke:#003559;stroke-width:0.8;" x="178.203723" xlink:href="#m64d2ca8c8e" y="322.899506"/>
      </g>
     </g>
     <g id="text_2">
      <!-- Jul -->
      <defs>
       <path d="M 9.8125 72.90625 
L 19.671875 72.90625 
L 19.671875 5.078125 
Q 19.671875 -8.109375 14.671875 -14.0625 
Q 9.671875 -20.015625 -1.421875 -20.015625 
L -5.171875 -20.015625 
L -5.171875 -11.71875 
L -2.09375 -11.71875 
Q 4.4375 -11.71875 7.125 -8.046875 
Q 9.8125 -4.390625 9.8125 5.078125 
z
" id="DejaVuSans-74"/>
       <path d="M 8.5 21.578125 
L 8.5 54.6875 
L 17.484375 54.6875 
L 17.484375 21.921875 
Q 17.484375 14.15625 20.5 10.265625 
Q 23.53125 6.390625 29.59375 6.390625 
Q 36.859375 6.390625 41.078125 11.03125 
Q 45.3125 15.671875 45.3125 23.6875 
L 45.3125 54.6875 
L 54.296875 54.6875 
L 54.296875 0 
L 45.3125 0 
L 45.3125 8.40625 
Q 42.046875 3.421875 37.71875 1 
Q 33.40625 -1.421875 27.6875 -1.421875 
Q 18.265625 -1.421875 13.375 4.4375 
Q 8.5 10.296875 8.5 21.578125 
z
M 31.109375 56 
z
" id="DejaVuSans-117"/>
       <path d="M 9.421875 75.984375 
L 18.40625 75.984375 
L 18.40625 0 
L 9.421875 0 
z
" id="DejaVuSans-108"/>
      </defs>
      <g style="fill:#2f2235;" transform="translate(168.551223 342.057006)scale(0.16 -0.16)">
       <use xlink:href="#DejaVuSans-74"/>
       <use x="29.492188" xlink:href="#DejaVuSans-117"/>
       <use x="92.871094" xlink:href="#DejaVuSans-108"/>
      </g>
     </g>
    </g>
    <g id="xtick_3">
     <g id="line2d_3">
      <g>
       <use style="fill:#003559;stroke:#003559;stroke-width:0.8;" x="278.471797" xlink:href="#m64d2ca8c8e" y="322.899506"/>
      </g>
     </g>
     <g id="text_3">
      <!-- 2011 -->
      <g style="fill:#2f2235;" transform="translate(258.111797 342.057006)scale(0.16 -0.16)">
       <use xlink:href="#DejaVuSans-50"/>
       <use x="63.623047" xlink:href="#DejaVuSans-48"/>
       <use x="127.246094" xlink:href="#DejaVuSans-49"/>
       <use x="190.869141" xlink:href="#DejaVuSans-49"/>
      </g>
     </g>
    </g>
    <g id="xtick_4">
     <g id="line2d_4">
      <g>
       <use style="fill:#003559;stroke:#003559;stroke-width:0.8;" x="377.105065" xlink:href="#m64d2ca8c8e" y="322.899506"/>
      </g>
     </g>
     <g id="text_4">
      <!-- Jul -->
      <g style="fill:#2f2235;" transform="translate(367.452565 342.057006)scale(0.16 -0.16)">
       <use xlink:href="#DejaVuSans-74"/>
       <use x="29.492188" xlink:href="#DejaVuSans-117"/>
       <use x="92.871094" xlink:href="#DejaVuSans-108"/>
      </g>
     </g>
    </g>
    <g id="xtick_5">
     <g id="line2d_5">
      <g>
       <use style="fill:#003559;stroke:#003559;stroke-width:0.8;" x="477.373139" xlink:href="#m64d2ca8c8e" y="322.899506"/>
      </g>
     </g>
     <g id="text_5">
      <!-- 2012 -->
      <g style="fill:#2f2235;" transform="translate(457.013139 342.057006)scale(0.16 -0.16)">
       <use xlink:href="#DejaVuSans-50"/>
       <use x="63.623047" xlink:href="#DejaVuSans-48"/>
       <use x="127.246094" xlink:href="#DejaVuSans-49"/>
       <use x="190.869141" xlink:href="#DejaVuSans-50"/>
      </g>
     </g>
    </g>
    <g id="xtick_6">
     <g id="line2d_6">
      <g>
       <use style="fill:#003559;stroke:#003559;stroke-width:0.8;" x="576.551342" xlink:href="#m64d2ca8c8e" y="322.899506"/>
      </g>
     </g>
     <g id="text_6">
      <!-- Jul -->
      <g style="fill:#2f2235;" transform="translate(566.898842 342.057006)scale(0.16 -0.16)">
       <use xlink:href="#DejaVuSans-74"/>
       <use x="29.492188" xlink:href="#DejaVuSans-117"/>
       <use x="92.871094" xlink:href="#DejaVuSans-108"/>
      </g>
     </g>
    </g>
    <g id="xtick_7">
     <g id="line2d_7">
      <g>
       <use style="fill:#003559;stroke:#003559;stroke-width:0.8;" x="676.819416" xlink:href="#m64d2ca8c8e" y="322.899506"/>
      </g>
     </g>
     <g id="text_7">
      <!-- 2013 -->
      <defs>
       <path d="M 40.578125 39.3125 
Q 47.65625 37.796875 51.625 33 
Q 55.609375 28.21875 55.609375 21.1875 
Q 55.609375 10.40625 48.1875 4.484375 
Q 40.765625 -1.421875 27.09375 -1.421875 
Q 22.515625 -1.421875 17.65625 -0.515625 
Q 12.796875 0.390625 7.625 2.203125 
L 7.625 11.71875 
Q 11.71875 9.328125 16.59375 8.109375 
Q 21.484375 6.890625 26.8125 6.890625 
Q 36.078125 6.890625 40.9375 10.546875 
Q 45.796875 14.203125 45.796875 21.1875 
Q 45.796875 27.640625 41.28125 31.265625 
Q 36.765625 34.90625 28.71875 34.90625 
L 20.21875 34.90625 
L 20.21875 43.015625 
L 29.109375 43.015625 
Q 36.375 43.015625 40.234375 45.921875 
Q 44.09375 48.828125 44.09375 54.296875 
Q 44.09375 59.90625 40.109375 62.90625 
Q 36.140625 65.921875 28.71875 65.921875 
Q 24.65625 65.921875 20.015625 65.03125 
Q 15.375 64.15625 9.8125 62.3125 
L 9.8125 71.09375 
Q 15.4375 72.65625 20.34375 73.4375 
Q 25.25 74.21875 29.59375 74.21875 
Q 40.828125 74.21875 47.359375 69.109375 
Q 53.90625 64.015625 53.90625 55.328125 
Q 53.90625 49.265625 50.4375 45.09375 
Q 46.96875 40.921875 40.578125 39.3125 
z
" id="DejaVuSans-51"/>
      </defs>
      <g style="fill:#2f2235;" transform="translate(656.459416 342.057006)scale(0.16 -0.16)">
       <use xlink:href="#DejaVuSans-50"/>
       <use x="63.623047" xlink:href="#DejaVuSans-48"/>
       <use x="127.246094" xlink:href="#DejaVuSans-49"/>
       <use x="190.869141" xlink:href="#DejaVuSans-51"/>
      </g>
     </g>
    </g>
   </g>
   <g id="matplotlib.axis_2">
    <g id="ytick_1">
     <g id="line2d_8">
      <path clip-path="url(#p0dff931090)" d="M 49.7625 284.790995 
L 705.5375 284.790995 
" style="fill:none;stroke:#f0f0f0;stroke-linecap:square;"/>
     </g>
     <g id="line2d_9">
      <defs>
       <path d="M 0 0 
L -3.5 0 
" id="m351e850297" style="stroke:#003559;stroke-width:0.8;"/>
      </defs>
      <g>
       <use style="fill:#003559;stroke:#003559;stroke-width:0.8;" x="49.7625" xlink:href="#m351e850297" y="284.790995"/>
      </g>
     </g>
     <g id="text_8">
      <!-- 0% -->
      <defs>
       <path d="M 72.703125 32.078125 
Q 68.453125 32.078125 66.03125 28.46875 
Q 63.625 24.859375 63.625 18.40625 
Q 63.625 12.0625 66.03125 8.421875 
Q 68.453125 4.78125 72.703125 4.78125 
Q 76.859375 4.78125 79.265625 8.421875 
Q 81.6875 12.0625 81.6875 18.40625 
Q 81.6875 24.8125 79.265625 28.4375 
Q 76.859375 32.078125 72.703125 32.078125 
z
M 72.703125 38.28125 
Q 80.421875 38.28125 84.953125 32.90625 
Q 89.5 27.546875 89.5 18.40625 
Q 89.5 9.28125 84.9375 3.921875 
Q 80.375 -1.421875 72.703125 -1.421875 
Q 64.890625 -1.421875 60.34375 3.921875 
Q 55.8125 9.28125 55.8125 18.40625 
Q 55.8125 27.59375 60.375 32.9375 
Q 64.9375 38.28125 72.703125 38.28125 
z
M 22.3125 68.015625 
Q 18.109375 68.015625 15.6875 64.375 
Q 13.28125 60.75 13.28125 54.390625 
Q 13.28125 47.953125 15.671875 44.328125 
Q 18.0625 40.71875 22.3125 40.71875 
Q 26.5625 40.71875 28.96875 44.328125 
Q 31.390625 47.953125 31.390625 54.390625 
Q 31.390625 60.6875 28.953125 64.34375 
Q 26.515625 68.015625 22.3125 68.015625 
z
M 66.40625 74.21875 
L 74.21875 74.21875 
L 28.609375 -1.421875 
L 20.796875 -1.421875 
z
M 22.3125 74.21875 
Q 30.03125 74.21875 34.609375 68.875 
Q 39.203125 63.53125 39.203125 54.390625 
Q 39.203125 45.171875 34.640625 39.84375 
Q 30.078125 34.515625 22.3125 34.515625 
Q 14.546875 34.515625 10.03125 39.859375 
Q 5.515625 45.21875 5.515625 54.390625 
Q 5.515625 63.484375 10.046875 68.84375 
Q 14.59375 74.21875 22.3125 74.21875 
z
" id="DejaVuSans-37"/>
      </defs>
      <g style="fill:#2f2235;" transform="translate(17.38 290.869745)scale(0.16 -0.16)">
       <use xlink:href="#DejaVuSans-48"/>
       <use x="63.623047" xlink:href="#DejaVuSans-37"/>
      </g>
     </g>
    </g>
    <g id="ytick_2">
     <g id="line2d_10">
      <path clip-path="url(#p0dff931090)" d="M 49.7625 230.488546 
L 705.5375 230.488546 
" style="fill:none;stroke:#f0f0f0;stroke-linecap:square;"/>
     </g>
     <g id="line2d_11">
      <g>
       <use style="fill:#003559;stroke:#003559;stroke-width:0.8;" x="49.7625" xlink:href="#m351e850297" y="230.488546"/>
      </g>
     </g>
     <g id="text_9">
      <!-- 5% -->
      <defs>
       <path d="M 10.796875 72.90625 
L 49.515625 72.90625 
L 49.515625 64.59375 
L 19.828125 64.59375 
L 19.828125 46.734375 
Q 21.96875 47.46875 24.109375 47.828125 
Q 26.265625 48.1875 28.421875 48.1875 
Q 40.625 48.1875 47.75 41.5 
Q 54.890625 34.8125 54.890625 23.390625 
Q 54.890625 11.625 47.5625 5.09375 
Q 40.234375 -1.421875 26.90625 -1.421875 
Q 22.3125 -1.421875 17.546875 -0.640625 
Q 12.796875 0.140625 7.71875 1.703125 
L 7.71875 11.625 
Q 12.109375 9.234375 16.796875 8.0625 
Q 21.484375 6.890625 26.703125 6.890625 
Q 35.15625 6.890625 40.078125 11.328125 
Q 45.015625 15.765625 45.015625 23.390625 
Q 45.015625 31 40.078125 35.4375 
Q 35.15625 39.890625 26.703125 39.890625 
Q 22.75 39.890625 18.8125 39.015625 
Q 14.890625 38.140625 10.796875 36.28125 
z
" id="DejaVuSans-53"/>
      </defs>
      <g style="fill:#2f2235;" transform="translate(17.38 236.567296)scale(0.16 -0.16)">
       <use xlink:href="#DejaVuSans-53"/>
       <use x="63.623047" xlink:href="#DejaVuSans-37"/>
      </g>
     </g>
    </g>
    <g id="ytick_3">
     <g id="line2d_12">
      <path clip-path="url(#p0dff931090)" d="M 49.7625 176.186097 
L 705.5375 176.186097 
" style="fill:none;stroke:#f0f0f0;stroke-linecap:square;"/>
     </g>
     <g id="line2d_13">
      <g>
       <use style="fill:#003559;stroke:#003559;stroke-width:0.8;" x="49.7625" xlink:href="#m351e850297" y="176.186097"/>
      </g>
     </g>
     <g id="text_10">
      <!-- 10% -->
      <g style="fill:#2f2235;" transform="translate(7.2 182.264847)scale(0.16 -0.16)">
       <use xlink:href="#DejaVuSans-49"/>
       <use x="63.623047" xlink:href="#DejaVuSans-48"/>
       <use x="127.246094" xlink:href="#DejaVuSans-37"/>
      </g>
     </g>
    </g>
    <g id="ytick_4">
     <g id="line2d_14">
      <path clip-path="url(#p0dff931090)" d="M 49.7625 121.883648 
L 705.5375 121.883648 
" style="fill:none;stroke:#f0f0f0;stroke-linecap:square;"/>
     </g>
     <g id="line2d_15">
      <g>
       <use style="fill:#003559;stroke:#003559;stroke-width:0.8;" x="49.7625" xlink:href="#m351e850297" y="121.883648"/>
      </g>
     </g>
     <g id="text_11">
      <!-- 15% -->
      <g style="fill:#2f2235;" transform="translate(7.2 127.962398)scale(0.16 -0.16)">
       <use xlink:href="#DejaVuSans-49"/>
       <use x="63.623047" xlink:href="#DejaVuSans-53"/>
       <use x="127.246094" xlink:href="#DejaVuSans-37"/>
      </g>
     </g>
    </g>
    <g id="ytick_5">
     <g id="line2d_16">
      <path clip-path="url(#p0dff931090)" d="M 49.7625 67.581199 
L 705.5375 67.581199 
" style="fill:none;stroke:#f0f0f0;stroke-linecap:square;"/>
     </g>
     <g id="line2d_17">
      <g>
       <use style="fill:#003559;stroke:#003559;stroke-width:0.8;" x="49.7625" xlink:href="#m351e850297" y="67.581199"/>
      </g>
     </g>
     <g id="text_12">
      <!-- 20% -->
      <g style="fill:#2f2235;" transform="translate(7.2 73.659949)scale(0.16 -0.16)">
       <use xlink:href="#DejaVuSans-50"/>
       <use x="63.623047" xlink:href="#DejaVuSans-48"/>
       <use x="127.246094" xlink:href="#DejaVuSans-37"/>
      </g>
     </g>
    </g>
    <g id="ytick_6">
     <g id="line2d_18">
      <path clip-path="url(#p0dff931090)" d="M 49.7625 13.27875 
L 705.5375 13.27875 
" style="fill:none;stroke:#f0f0f0;stroke-linecap:square;"/>
     </g>
     <g id="line2d_19">
      <g>
       <use style="fill:#003559;stroke:#003559;stroke-width:0.8;" x="49.7625" xlink:href="#m351e850297" y="13.27875"/>
      </g>
     </g>
     <g id="text_13">
      <!-- 25% -->
      <g style="fill:#2f2235;" transform="translate(7.2 19.3575)scale(0.16 -0.16)">
       <use xlink:href="#DejaVuSans-50"/>
       <use x="63.623047" xlink:href="#DejaVuSans-53"/>
       <use x="127.246094" xlink:href="#DejaVuSans-37"/>
      </g>
     </g>
    </g>
   </g>
   <g id="line2d_20">
    <path clip-path="url(#p0dff931090)" d="M 79.570455 281.174803 
L 80.660325 283.481373 
L 81.20526 285.726715 
L 81.750195 283.760705 
L 82.29513 288.676577 
L 82.840066 284.812593 
L 83.385001 286.378023 
L 83.929936 285.598225 
L 84.474871 286.05159 
L 85.019806 282.791581 
L 85.564742 287.18653 
L 86.654612 288.541728 
L 87.199547 285.999924 
L 87.744482 288.298479 
L 88.289417 288.584129 
L 88.834353 290.396616 
L 89.379288 290.217896 
L 89.924223 288.870774 
L 90.469158 291.164822 
L 91.559029 286.566412 
L 92.103964 285.388918 
L 92.648899 283.345341 
L 93.193834 284.74437 
L 93.738769 284.923352 
L 94.283705 286.867743 
L 94.82864 287.360722 
L 95.373575 286.123717 
L 95.91851 287.536381 
L 96.463445 288.308258 
L 97.00838 289.70836 
L 97.553316 291.44836 
L 98.098251 292.810019 
L 98.643186 292.750019 
L 99.188121 295.071831 
L 99.733056 294.480354 
L 100.277992 290.820096 
L 100.822927 289.129784 
L 101.367862 289.457201 
L 102.457732 292.815119 
L 103.002667 289.078798 
L 103.547603 288.881266 
L 104.092538 290.172048 
L 104.637473 289.671896 
L 105.182408 285.042879 
L 105.727343 284.694008 
L 106.272279 283.2653 
L 106.817214 282.524306 
L 107.362149 283.202885 
L 107.907084 285.600092 
L 108.452019 286.270443 
L 108.996954 286.635729 
L 109.54189 285.275884 
L 110.63176 281.25326 
L 111.176695 280.542674 
L 111.72163 278.524241 
L 112.266566 280.08386 
L 112.811501 277.262376 
L 113.356436 276.051954 
L 113.901371 276.615988 
L 114.446306 275.458275 
L 114.991241 275.535123 
L 115.536177 272.96746 
L 116.081112 269.541418 
L 116.626047 264.638285 
L 117.715917 270.735265 
L 118.260853 271.756102 
L 118.805788 271.315303 
L 119.350723 269.299518 
L 119.895658 268.514939 
L 120.440593 272.883911 
L 120.985529 273.467389 
L 121.530464 271.561324 
L 122.075399 270.966421 
L 122.620334 269.201114 
L 123.710204 269.954727 
L 124.25514 269.454805 
L 124.800075 268.462358 
L 125.34501 267.935878 
L 125.889945 267.584048 
L 126.43488 268.974524 
L 126.979816 268.053239 
L 127.524751 267.695242 
L 128.614621 262.373036 
L 129.159556 261.872786 
L 129.704491 262.615332 
L 130.249427 263.941295 
L 130.794362 262.91412 
L 131.339297 262.653019 
L 131.884232 263.32538 
L 132.429167 263.139118 
L 132.974103 264.42296 
L 133.519038 262.788727 
L 134.063973 263.689872 
L 134.608908 260.888781 
L 135.153843 259.903178 
L 135.698778 258.494351 
L 136.243714 260.840107 
L 136.788649 260.374183 
L 137.333584 258.639525 
L 137.878519 260.670865 
L 138.423454 261.172051 
L 138.96839 261.009801 
L 139.513325 263.967774 
L 140.05826 263.18045 
L 140.603195 261.216229 
L 141.14813 263.033843 
L 141.693065 262.167452 
L 142.238001 264.98745 
L 142.782936 264.983474 
L 143.327871 268.46754 
L 143.872806 265.905823 
L 144.417741 264.912722 
L 144.962677 264.877606 
L 145.507612 266.502637 
L 146.052547 263.599889 
L 146.597482 259.15411 
L 147.142417 263.195063 
L 147.687353 260.366897 
L 148.232288 256.662039 
L 148.777223 255.818596 
L 149.322158 258.402713 
L 149.867093 256.391786 
L 150.412028 256.704784 
L 150.956964 257.960252 
L 151.501899 260.607938 
L 152.046834 259.295576 
L 152.591769 257.443076 
L 153.136704 258.74138 
L 153.68164 257.493451 
L 154.226575 259.951382 
L 154.77151 258.079859 
L 155.316445 257.886104 
L 155.86138 258.211257 
L 156.406315 258.34756 
L 157.496186 254.561253 
L 158.041121 253.288788 
L 159.130991 252.625967 
L 159.675927 251.152444 
L 160.220862 250.541122 
L 160.765797 248.92107 
L 161.310732 249.526062 
L 161.855667 254.895686 
L 162.400602 252.486769 
L 162.945538 247.504566 
L 163.490473 246.421991 
L 164.580343 246.771914 
L 165.125278 246.94853 
L 165.670214 246.818378 
L 166.215149 249.249694 
L 166.760084 250.318797 
L 167.305019 252.46243 
L 167.849954 251.815353 
L 168.394889 252.388625 
L 168.939825 251.190307 
L 169.48476 251.490843 
L 170.029695 249.192084 
L 170.57463 248.622226 
L 171.119565 243.614458 
L 171.664501 247.798421 
L 172.209436 249.160498 
L 172.754371 247.047299 
L 173.299306 241.273659 
L 173.844241 241.743879 
L 174.389176 241.553825 
L 174.934112 241.973515 
L 175.479047 238.876018 
L 176.023982 239.434789 
L 176.568917 237.804291 
L 177.113852 238.437224 
L 177.658788 241.227613 
L 178.203723 240.427755 
L 178.748658 239.198595 
L 179.293593 236.180011 
L 179.838528 236.338759 
L 180.383464 237.647676 
L 180.928399 236.28047 
L 182.018269 234.913169 
L 182.563204 234.987276 
L 183.108139 232.25934 
L 183.653075 231.325736 
L 184.19801 226.892679 
L 184.742945 224.258055 
L 185.28788 222.653888 
L 185.832815 226.298105 
L 186.377751 224.826653 
L 186.922686 223.770544 
L 187.467621 221.817211 
L 188.012556 219.323981 
L 188.557491 220.153959 
L 189.102426 218.164426 
L 189.647362 219.367386 
L 190.192297 214.772156 
L 190.737232 217.758183 
L 191.827102 225.425909 
L 192.372038 227.373256 
L 192.916973 229.839993 
L 193.461908 225.283816 
L 194.006843 225.939088 
L 194.551778 228.920828 
L 195.096713 226.283278 
L 195.641649 227.533205 
L 196.186584 230.268818 
L 196.731519 228.178534 
L 197.276454 226.66141 
L 197.821389 227.564084 
L 198.366325 224.253081 
L 198.91126 223.864171 
L 199.456195 220.062077 
L 200.00113 218.811794 
L 200.546065 215.12692 
L 201.091 214.780446 
L 201.635936 217.507016 
L 202.180871 211.763736 
L 202.725806 212.935055 
L 203.270741 213.301751 
L 203.815676 214.829482 
L 204.360612 215.206114 
L 205.450482 213.991258 
L 205.995417 212.368168 
L 206.540352 208.122018 
L 207.085288 208.307987 
L 208.175158 213.729406 
L 208.720093 215.176399 
L 209.265028 218.95242 
L 209.809963 216.95845 
L 210.354899 218.01476 
L 210.899834 218.63842 
L 211.444769 218.549466 
L 211.989704 221.674771 
L 212.534639 223.561294 
L 213.62451 220.405865 
L 214.169445 221.332376 
L 214.71438 217.076835 
L 215.259315 219.996395 
L 215.80425 220.697245 
L 216.349186 221.135096 
L 216.894121 227.464433 
L 217.439056 222.941189 
L 217.983991 222.007201 
L 218.528926 224.314278 
L 219.073862 219.517979 
L 219.618797 218.076167 
L 220.163732 216.992524 
L 220.708667 218.299846 
L 221.253602 217.961654 
L 221.798537 221.386134 
L 222.343473 219.465352 
L 222.888408 220.234344 
L 223.433343 219.832688 
L 223.978278 216.972324 
L 225.613084 214.789692 
L 226.158019 216.391465 
L 226.702954 214.367722 
L 227.247889 210.704359 
L 228.33776 206.699153 
L 229.42763 210.570382 
L 229.972565 213.820026 
L 230.5175 210.87484 
L 231.062436 211.370578 
L 231.607371 208.030525 
L 232.152306 209.754782 
L 232.697241 210.67672 
L 233.242176 210.361346 
L 233.787112 208.128716 
L 234.332047 207.893283 
L 234.876982 207.308046 
L 235.421917 207.175356 
L 235.966852 206.668741 
L 236.511787 209.173983 
L 237.056723 208.891884 
L 237.601658 209.231372 
L 238.146593 209.269313 
L 238.691528 208.031474 
L 239.236463 209.5203 
L 239.781399 209.62253 
L 240.326334 210.219091 
L 240.871269 209.156438 
L 241.416204 207.239047 
L 241.961139 209.368279 
L 242.506074 207.913179 
L 243.05101 203.014288 
L 243.595945 206.35582 
L 244.685815 210.148397 
L 245.23075 210.702289 
L 245.775686 206.842877 
L 246.320621 206.717525 
L 246.865556 208.240663 
L 247.410491 206.700692 
L 247.955426 208.002925 
L 248.500361 205.29606 
L 249.045297 204.490063 
L 249.590232 201.155999 
L 250.135167 202.608398 
L 250.680102 195.432302 
L 251.769973 191.761848 
L 252.314908 191.787069 
L 253.404778 195.350747 
L 253.949713 195.575228 
L 254.494648 197.354054 
L 255.039584 196.595585 
L 255.584519 198.440568 
L 256.129454 196.889306 
L 256.674389 194.549353 
L 257.219324 196.114636 
L 257.76426 193.217343 
L 258.309195 193.682383 
L 258.85413 190.867137 
L 259.399065 189.737527 
L 259.944 186.990704 
L 260.488936 189.255471 
L 261.033871 189.412151 
L 261.578806 185.886954 
L 262.123741 187.255678 
L 264.303482 207.105215 
L 264.848417 207.969046 
L 265.393352 204.901343 
L 265.938287 205.838143 
L 266.483223 204.989973 
L 267.028158 205.152023 
L 267.573093 205.037687 
L 268.662963 205.647072 
L 269.207898 204.478017 
L 269.752834 207.126801 
L 270.842704 202.441343 
L 271.387639 202.802529 
L 271.932574 200.826474 
L 272.47751 202.372884 
L 273.022445 203.533709 
L 273.56738 203.074358 
L 274.112315 203.424052 
L 274.65725 204.377235 
L 275.747121 207.05614 
L 276.292056 204.775911 
L 276.836991 209.213555 
L 277.381926 208.300546 
L 277.926861 208.75613 
L 278.471797 206.970457 
L 279.016732 205.677242 
L 279.561667 212.067091 
L 280.106602 210.618301 
L 280.651537 209.771879 
L 281.196472 209.62708 
L 281.741408 210.621498 
L 282.286343 208.547551 
L 282.831278 209.413543 
L 283.376213 205.057704 
L 283.921148 203.647396 
L 284.466084 198.562356 
L 285.011019 200.309145 
L 285.555954 204.325078 
L 286.645824 200.475978 
L 287.19076 200.298426 
L 287.735695 203.806071 
L 288.28063 204.756975 
L 288.825565 203.221293 
L 289.3705 203.556828 
L 289.915435 203.733069 
L 290.460371 204.048108 
L 291.005306 206.132982 
L 291.550241 207.280282 
L 292.095176 210.505814 
L 292.640111 206.308994 
L 293.185047 207.321856 
L 293.729982 206.116211 
L 294.274917 208.402314 
L 294.819852 206.460993 
L 295.364787 210.728833 
L 295.909722 208.498848 
L 296.454658 208.486934 
L 296.999593 203.486262 
L 297.544528 206.442098 
L 298.089463 206.169923 
L 298.634398 205.220193 
L 299.179334 202.25161 
L 299.724269 203.145262 
L 300.269204 202.848767 
L 300.814139 207.75894 
L 301.359074 209.595854 
L 301.904009 208.452936 
L 302.448945 205.791843 
L 302.99388 206.353962 
L 304.08375 197.258994 
L 304.628685 197.306311 
L 305.173621 202.875925 
L 305.718556 206.933603 
L 306.263491 208.650053 
L 306.808426 205.962292 
L 307.353361 205.145095 
L 307.898296 209.933197 
L 308.443232 210.370331 
L 308.988167 206.531836 
L 309.533102 207.310319 
L 310.078037 208.961313 
L 310.622972 204.092769 
L 311.167908 203.873647 
L 311.712843 204.897459 
L 312.257778 203.986484 
L 312.802713 203.851928 
L 313.347648 204.759026 
L 314.437519 199.143104 
L 314.982454 197.077743 
L 315.527389 197.224214 
L 316.072324 194.437127 
L 316.617259 194.458795 
L 317.162195 193.265623 
L 318.252065 188.731156 
L 318.797 184.404052 
L 319.341935 183.237128 
L 319.886871 187.140937 
L 320.431806 189.791658 
L 320.976741 186.506927 
L 321.521676 187.195711 
L 322.066611 186.184802 
L 322.611546 188.106224 
L 323.156482 185.642887 
L 323.701417 186.459106 
L 324.246352 182.909276 
L 324.791287 184.077585 
L 325.336222 181.327556 
L 325.881158 179.626816 
L 326.426093 181.25139 
L 326.971028 178.540343 
L 328.060898 182.455303 
L 328.605833 180.643719 
L 329.695704 183.351538 
L 330.240639 184.072124 
L 330.785574 186.349949 
L 331.330509 183.778451 
L 331.875445 182.237626 
L 332.965315 182.467575 
L 333.51025 181.301428 
L 334.055185 177.005223 
L 334.60012 174.828951 
L 335.145056 175.948331 
L 335.689991 173.993698 
L 336.234926 174.181071 
L 336.779861 174.560424 
L 337.324796 169.997899 
L 338.414667 171.959605 
L 338.959602 176.543194 
L 339.504537 179.796067 
L 340.049472 178.624994 
L 340.594408 180.185431 
L 341.139343 178.861645 
L 341.684278 181.422915 
L 342.229213 183.151891 
L 342.774148 181.453346 
L 343.319083 177.88189 
L 343.864019 176.371686 
L 344.408954 173.413409 
L 344.953889 169.234181 
L 345.498824 166.637313 
L 346.043759 168.751765 
L 346.588695 168.90768 
L 347.13363 167.295434 
L 347.678565 168.196537 
L 348.2235 167.01208 
L 348.768435 170.716651 
L 349.31337 172.608369 
L 349.858306 171.243888 
L 350.403241 176.513937 
L 350.948176 179.063153 
L 351.493111 179.008868 
L 352.038046 183.010802 
L 352.582982 182.778904 
L 353.127917 184.58251 
L 354.217787 185.696361 
L 354.762722 185.151702 
L 355.307657 186.392633 
L 355.852593 186.084251 
L 356.397528 187.41275 
L 356.942463 186.000763 
L 357.487398 181.891025 
L 358.577269 180.826142 
L 359.122204 183.500139 
L 359.667139 181.757458 
L 360.757009 185.288618 
L 361.301944 183.870858 
L 361.84688 183.344955 
L 362.391815 180.619254 
L 362.93675 177.088178 
L 363.481685 178.279992 
L 364.02662 177.877217 
L 364.571556 173.580383 
L 365.116491 171.169025 
L 365.661426 169.36102 
L 366.206361 166.124958 
L 366.751296 167.484141 
L 367.296232 165.854613 
L 368.386102 158.345219 
L 368.931037 160.202013 
L 369.475972 160.713341 
L 370.020907 159.689069 
L 370.565843 160.291021 
L 371.110778 161.141609 
L 371.655713 159.388769 
L 372.200648 160.146936 
L 372.745583 164.378114 
L 373.290519 163.407297 
L 373.835454 164.334605 
L 374.380389 166.002086 
L 374.925324 169.677432 
L 375.470259 167.144624 
L 376.015194 172.408671 
L 376.56013 176.384684 
L 377.105065 176.946921 
L 378.194935 170.683577 
L 378.73987 173.3587 
L 379.284806 173.687143 
L 379.829741 177.206684 
L 380.374676 174.695995 
L 380.919611 178.131487 
L 381.464546 178.376476 
L 382.009481 175.816312 
L 382.554417 176.251111 
L 383.099352 172.641892 
L 383.644287 174.629738 
L 384.189222 173.649603 
L 384.734157 171.509564 
L 385.279093 171.747556 
L 385.824028 168.325808 
L 386.368963 166.910154 
L 386.913898 170.755401 
L 387.458833 161.156894 
L 388.003768 159.48962 
L 388.548704 159.131457 
L 389.093639 162.423232 
L 389.638574 162.127747 
L 390.183509 163.141735 
L 390.728444 161.487559 
L 391.27338 160.490657 
L 391.818315 155.907058 
L 392.36325 155.463013 
L 392.908185 154.116379 
L 393.45312 153.111487 
L 394.542991 153.722477 
L 395.087926 150.943813 
L 395.632861 148.941914 
L 396.177796 150.381184 
L 396.722731 153.00015 
L 397.267667 153.065711 
L 397.812602 150.138344 
L 398.357537 150.106694 
L 398.902472 145.743969 
L 399.447407 147.543824 
L 399.992343 147.098217 
L 400.537278 153.157723 
L 401.082213 154.509776 
L 401.627148 155.163257 
L 402.172083 153.822533 
L 402.717018 149.560161 
L 403.261954 149.375902 
L 403.806889 145.725164 
L 404.351824 144.004676 
L 404.896759 141.485136 
L 405.441694 142.531714 
L 405.98663 139.029846 
L 406.531565 141.573462 
L 407.0765 140.256545 
L 407.621435 142.500068 
L 408.16637 143.673507 
L 408.711305 147.160895 
L 409.256241 148.325482 
L 409.801176 147.367984 
L 410.346111 147.437177 
L 410.891046 150.635817 
L 411.435981 146.947791 
L 411.980917 146.023228 
L 412.525852 143.454644 
L 413.070787 141.427691 
L 413.615722 142.962918 
L 414.160657 147.640034 
L 414.705592 149.780466 
L 415.250528 146.6896 
L 415.795463 149.169859 
L 416.340398 147.077048 
L 416.885333 148.476822 
L 417.430268 147.416782 
L 417.975204 151.780554 
L 418.520139 148.836359 
L 419.065074 148.834344 
L 419.610009 146.57041 
L 420.154944 146.006377 
L 420.69988 143.952191 
L 421.244815 144.102949 
L 421.78975 142.179794 
L 422.334685 145.789793 
L 422.87962 148.33843 
L 423.424555 146.465638 
L 423.969491 146.462418 
L 425.059361 147.263964 
L 425.604296 145.937073 
L 426.149231 147.29145 
L 426.694167 145.943587 
L 427.239102 148.087888 
L 427.784037 148.984798 
L 428.873907 143.756552 
L 429.418842 146.349775 
L 429.963778 144.196808 
L 430.508713 146.646878 
L 431.053648 144.753011 
L 431.598583 149.309933 
L 432.143518 151.940174 
L 432.688454 153.082232 
L 433.233389 153.38909 
L 433.778324 149.824132 
L 434.323259 147.517651 
L 434.868194 143.563969 
L 435.413129 140.502894 
L 436.503 141.654723 
L 437.047935 138.927247 
L 437.59287 138.728011 
L 438.137805 139.015095 
L 438.682741 142.204806 
L 439.227676 142.366904 
L 439.772611 149.124743 
L 440.317546 150.140292 
L 440.862481 152.433735 
L 441.407416 150.647387 
L 441.952352 151.716713 
L 442.497287 152.42029 
L 443.042222 149.038935 
L 443.587157 151.50349 
L 444.132092 150.632513 
L 444.677028 155.158931 
L 445.221963 154.842313 
L 445.766898 153.74607 
L 446.311833 151.554414 
L 446.856768 153.647172 
L 447.946639 151.896713 
L 448.491574 151.84488 
L 449.036509 151.380419 
L 450.126379 149.080902 
L 451.21625 154.233495 
L 451.761185 148.037383 
L 452.30612 143.243299 
L 452.851055 146.560758 
L 453.395991 145.359223 
L 454.485861 141.778814 
L 455.030796 141.334167 
L 455.575731 143.513783 
L 456.120666 143.862165 
L 456.665602 144.967996 
L 457.210537 144.539269 
L 457.755472 145.098163 
L 458.300407 145.321696 
L 459.390278 139.603944 
L 459.935213 142.412664 
L 460.480148 143.44316 
L 461.025083 145.285008 
L 461.570018 142.186277 
L 462.114953 142.232658 
L 462.659889 138.57268 
L 463.204824 139.649898 
L 463.749759 139.486167 
L 464.294694 142.707889 
L 464.839629 139.409056 
L 465.384565 140.20239 
L 465.9295 143.758104 
L 466.474435 145.112724 
L 467.01937 150.663834 
L 467.564305 150.642661 
L 468.10924 150.269328 
L 468.654176 149.467239 
L 469.199111 145.708827 
L 469.744046 146.347079 
L 470.288981 144.270464 
L 470.833916 143.405163 
L 471.378852 143.780337 
L 471.923787 148.777682 
L 472.468722 146.362901 
L 473.013657 147.497944 
L 473.558592 147.354938 
L 474.103528 150.364632 
L 474.648463 149.575012 
L 475.193398 149.212238 
L 475.738333 149.041428 
L 476.283268 149.271859 
L 477.373139 144.144646 
L 477.918074 142.264343 
L 478.463009 134.004452 
L 479.007944 135.389045 
L 479.552879 136.226741 
L 480.097815 138.632535 
L 480.64275 137.458292 
L 481.187685 139.054273 
L 481.73262 145.602123 
L 482.277555 148.476151 
L 482.82249 148.20052 
L 483.367426 145.632291 
L 483.912361 149.34822 
L 484.457296 150.745481 
L 485.002231 150.986715 
L 485.547166 152.665342 
L 486.092102 151.272586 
L 486.637037 151.164059 
L 487.181972 150.281601 
L 487.726907 151.953087 
L 488.271842 148.108646 
L 488.816777 148.010538 
L 489.361713 144.747925 
L 489.906648 145.725131 
L 490.451583 144.180181 
L 490.996518 145.747584 
L 491.541453 147.978272 
L 492.086389 149.601883 
L 492.631324 149.615008 
L 493.176259 150.050351 
L 493.721194 146.193388 
L 494.811064 151.473401 
L 495.356 147.228344 
L 495.900935 145.639418 
L 496.44587 150.150405 
L 496.990805 148.837524 
L 497.53574 148.158516 
L 498.080676 153.30344 
L 498.625611 154.104747 
L 499.170546 154.048685 
L 499.715481 152.170213 
L 500.260416 149.745087 
L 500.805352 149.412363 
L 501.350287 146.788874 
L 501.895222 147.047834 
L 502.985092 151.231324 
L 503.530027 149.808922 
L 504.074963 154.492006 
L 504.619898 152.744599 
L 505.164833 155.341773 
L 505.709768 156.116607 
L 506.254703 154.790432 
L 506.799639 151.729796 
L 507.344574 156.362873 
L 507.889509 158.222687 
L 508.434444 158.005495 
L 508.979379 159.35318 
L 509.524314 157.167376 
L 510.06925 162.133476 
L 511.15912 160.032542 
L 511.704055 159.81563 
L 512.24899 157.047882 
L 512.793926 159.934477 
L 513.338861 157.15155 
L 513.883796 158.75951 
L 514.428731 156.902497 
L 514.973666 157.591312 
L 516.063537 153.521584 
L 516.608472 156.987436 
L 517.153407 157.26419 
L 517.698342 157.390254 
L 518.243277 157.869281 
L 518.788213 159.60424 
L 519.333148 155.021091 
L 519.878083 154.414179 
L 520.423018 150.532542 
L 520.967953 151.822787 
L 521.512888 154.31276 
L 522.057824 153.892472 
L 522.602759 155.164775 
L 523.147694 149.255039 
L 523.692629 148.556498 
L 524.237564 145.639904 
L 524.7825 146.090147 
L 525.327435 146.789646 
L 525.87237 146.766189 
L 526.417305 145.796207 
L 526.96224 143.615434 
L 527.507176 143.815866 
L 528.052111 145.387336 
L 528.597046 147.905356 
L 529.141981 147.993863 
L 530.231851 145.273011 
L 530.776787 145.21743 
L 531.321722 146.589259 
L 531.866657 146.130757 
L 532.411592 144.630982 
L 532.956527 144.621969 
L 533.501463 144.247085 
L 534.046398 144.516963 
L 534.591333 142.172252 
L 535.136268 143.149552 
L 535.681203 142.594565 
L 536.226138 141.526185 
L 536.771074 139.642838 
L 537.316009 135.85967 
L 538.405879 132.508997 
L 538.950814 136.049989 
L 539.49575 134.452425 
L 540.040685 128.680447 
L 540.58562 130.641861 
L 541.130555 133.070235 
L 541.67549 133.501377 
L 542.220425 130.87391 
L 542.765361 129.472144 
L 543.310296 130.556184 
L 543.855231 130.545014 
L 544.400166 127.872098 
L 544.945101 126.099346 
L 545.490037 119.951895 
L 546.034972 117.334587 
L 546.579907 116.346674 
L 547.124842 114.702737 
L 547.669777 115.477751 
L 548.214712 117.831002 
L 548.759648 117.298598 
L 549.304583 115.967201 
L 549.849518 119.367379 
L 550.394453 120.573457 
L 550.939388 121.395539 
L 551.484324 120.63054 
L 552.029259 121.180565 
L 552.574194 119.966921 
L 553.119129 119.620165 
L 553.664064 116.865428 
L 554.209 121.055395 
L 555.29887 113.154917 
L 555.843805 112.926496 
L 556.933675 109.558427 
L 557.478611 111.316141 
L 558.023546 110.799337 
L 558.568481 108.736229 
L 559.113416 107.851974 
L 559.658351 105.094078 
L 560.748222 104.444077 
L 561.293157 106.286203 
L 561.838092 107.105747 
L 562.383027 108.165324 
L 562.927962 103.756123 
L 563.472898 103.044025 
L 564.017833 105.475489 
L 564.562768 104.364267 
L 565.107703 104.748036 
L 565.652638 112.378193 
L 566.197574 111.068523 
L 566.742509 114.87859 
L 567.287444 113.323817 
L 567.832379 115.639584 
L 568.377314 119.198909 
L 568.922249 117.860066 
L 569.467185 121.502982 
L 570.01212 122.517958 
L 570.557055 121.906604 
L 571.646925 118.311852 
L 572.191861 118.301301 
L 572.736796 120.285077 
L 573.281731 115.372126 
L 573.826666 116.79203 
L 574.371601 112.166896 
L 574.916536 113.204122 
L 576.006407 107.381503 
L 576.551342 109.921159 
L 577.096277 108.923072 
L 578.186148 105.040051 
L 578.731083 105.441168 
L 579.276018 104.574488 
L 579.820953 105.471502 
L 580.365888 108.334576 
L 580.910824 105.747689 
L 581.455759 107.061331 
L 582.000694 103.471564 
L 582.545629 101.84187 
L 583.090564 104.004633 
L 583.635499 104.31046 
L 584.180435 104.933318 
L 584.72537 107.035722 
L 585.270305 105.665954 
L 585.81524 106.774552 
L 586.360175 102.54705 
L 586.905111 100.260612 
L 587.450046 102.394412 
L 587.994981 102.339888 
L 588.539916 102.812447 
L 589.084851 106.677432 
L 590.719657 99.259923 
L 591.264592 100.319136 
L 591.809527 97.499903 
L 592.354462 97.930953 
L 592.899398 95.447149 
L 593.444333 90.72049 
L 593.989268 90.258103 
L 594.534203 93.789066 
L 595.079138 94.49504 
L 595.624073 92.755435 
L 596.169009 89.533723 
L 596.713944 92.335424 
L 597.258879 92.719117 
L 597.803814 92.019135 
L 598.348749 90.802998 
L 598.893685 88.368581 
L 599.43862 90.697412 
L 599.983555 91.677963 
L 600.52849 88.995664 
L 601.61836 86.631622 
L 602.163296 83.637319 
L 602.708231 83.265198 
L 603.253166 81.801234 
L 603.798101 82.50781 
L 604.887972 89.093784 
L 605.432907 88.79946 
L 605.977842 89.207322 
L 606.522777 90.781449 
L 607.067712 89.863628 
L 607.612647 92.04072 
L 608.157583 91.652399 
L 608.702518 91.598748 
L 609.247453 93.644244 
L 609.792388 99.411326 
L 610.337323 95.604617 
L 610.882259 94.693766 
L 611.427194 101.390044 
L 611.972129 102.369896 
L 612.517064 101.268151 
L 613.061999 101.744615 
L 613.606935 100.168847 
L 614.15187 102.539346 
L 614.696805 101.992301 
L 615.24174 102.025267 
L 616.33161 102.845056 
L 616.876546 102.235777 
L 617.421481 99.766529 
L 617.966416 101.011232 
L 618.511351 101.942644 
L 619.056286 101.432399 
L 619.601222 101.634633 
L 620.146157 100.553028 
L 620.691092 98.625282 
L 621.236027 95.236911 
L 621.780962 95.430677 
L 622.325897 101.136361 
L 622.870833 101.210337 
L 623.415768 100.208946 
L 624.505638 100.867569 
L 625.050573 106.943156 
L 625.595509 105.556718 
L 626.140444 106.274233 
L 626.685379 109.993532 
L 627.775249 114.164149 
L 628.86512 111.017043 
L 629.410055 107.09838 
L 629.95499 105.358415 
L 631.04486 112.131989 
L 631.589796 109.183545 
L 632.134731 105.128128 
L 632.679666 105.627464 
L 633.224601 104.11099 
L 633.769536 107.820981 
L 634.314471 112.629114 
L 634.859407 115.481555 
L 635.404342 116.276685 
L 635.949277 117.483282 
L 636.494212 117.958607 
L 637.039147 119.087507 
L 637.584083 117.285498 
L 638.129018 113.604962 
L 638.673953 113.412125 
L 639.218888 108.20514 
L 640.308759 110.927245 
L 640.853694 109.848186 
L 641.398629 110.640859 
L 641.943564 107.57216 
L 642.488499 109.089634 
L 643.033434 105.649631 
L 643.57837 105.055831 
L 644.123305 98.458701 
L 644.66824 99.536718 
L 645.213175 99.94913 
L 645.75811 99.47599 
L 646.303046 104.918788 
L 647.392916 101.96978 
L 647.937851 101.589597 
L 649.027721 109.21891 
L 649.572657 107.636556 
L 650.117592 104.565274 
L 650.662527 100.424663 
L 651.752397 105.108836 
L 652.297333 105.694732 
L 652.842268 110.591444 
L 653.387203 111.97378 
L 653.932138 109.727251 
L 654.477073 105.502282 
L 655.022008 104.693355 
L 655.566944 100.436452 
L 656.111879 99.289618 
L 656.656814 98.699982 
L 657.201749 99.03315 
L 657.746684 98.454656 
L 658.29162 99.000152 
L 658.836555 99.255583 
L 659.38149 100.835904 
L 659.926425 100.075108 
L 660.47136 99.935473 
L 661.016295 103.593357 
L 661.561231 104.100781 
L 662.106166 106.166017 
L 662.651101 111.244208 
L 663.196036 109.923202 
L 663.740971 105.890333 
L 664.285907 99.79271 
L 664.830842 95.717955 
L 665.375777 97.835444 
L 666.465647 91.778611 
L 667.010583 96.760137 
L 667.555518 94.462253 
L 668.100453 92.757854 
L 668.645388 92.238182 
L 669.190323 91.396582 
L 669.735258 91.143762 
L 670.280194 86.86336 
L 670.825129 87.79115 
L 671.370064 88.200305 
L 671.914999 88.077474 
L 672.459934 87.266365 
L 673.00487 91.688935 
L 673.549805 88.034485 
L 674.09474 87.350254 
L 674.639675 85.785378 
L 675.18461 85.174183 
L 675.729545 85.549464 
L 675.729545 85.549464 
" style="fill:none;stroke:#6083a9;stroke-linecap:square;stroke-opacity:0.25;stroke-width:2;"/>
   </g>
   <g id="line2d_21">
    <path clip-path="url(#p0dff931090)" d="M 79.570455 285.816492 
L 80.11539 285.371825 
L 80.660325 284.744819 
L 81.20526 280.848709 
L 81.750195 279.584697 
L 82.29513 279.889143 
L 82.840066 273.25488 
L 83.929936 281.598124 
L 84.474871 280.307061 
L 85.019806 280.869384 
L 85.564742 286.539747 
L 86.109677 287.423679 
L 86.654612 289.601874 
L 87.199547 285.801468 
L 87.744482 287.691904 
L 88.289417 284.14641 
L 88.834353 282.515474 
L 89.379288 283.05693 
L 89.924223 282.855696 
L 90.469158 281.324406 
L 91.014093 288.735984 
L 91.559029 287.542764 
L 92.103964 288.643264 
L 92.648899 282.674692 
L 93.193834 284.799147 
L 93.738769 280.944602 
L 94.283705 289.035216 
L 94.82864 286.260003 
L 95.373575 285.229883 
L 95.91851 285.902494 
L 96.463445 286.164169 
L 97.00838 286.880274 
L 97.553316 285.37304 
L 98.098251 285.678345 
L 98.643186 291.366473 
L 99.188121 291.837073 
L 99.733056 284.472183 
L 100.277992 284.187535 
L 100.822927 283.107573 
L 101.367862 284.404894 
L 102.457732 282.993201 
L 103.002667 283.713493 
L 103.547603 280.766 
L 104.092538 283.652248 
L 104.637473 283.944817 
L 105.182408 282.16596 
L 105.727343 282.90575 
L 106.272279 286.76809 
L 106.817214 284.820802 
L 107.362149 287.88881 
L 107.907084 289.210492 
L 108.452019 291.766343 
L 108.996954 291.99371 
L 110.086825 294.655709 
L 110.63176 292.326398 
L 111.176695 286.492388 
L 111.72163 287.523671 
L 112.266566 285.693468 
L 112.811501 286.718672 
L 113.356436 286.265177 
L 113.901371 282.464031 
L 114.446306 282.167602 
L 115.536177 286.945409 
L 116.081112 288.819202 
L 116.626047 288.730945 
L 117.170982 285.814105 
L 117.715917 290.105286 
L 118.805788 296.194795 
L 119.350723 301.704218 
L 119.895658 297.321566 
L 120.440593 297.308315 
L 120.985529 291.056263 
L 121.530464 295.539008 
L 122.075399 291.233475 
L 122.620334 293.374838 
L 123.165269 294.560728 
L 124.25514 300.551043 
L 124.800075 304.671395 
L 125.34501 303.849936 
L 125.889945 307.927036 
L 126.43488 308.568957 
L 126.979816 308.469237 
L 127.524751 306.215618 
L 128.069686 305.765649 
L 128.614621 304.609557 
L 129.159556 302.834588 
L 129.704491 302.760119 
L 130.249427 301.466116 
L 130.794362 304.47927 
L 131.339297 306.830523 
L 131.884232 300.644359 
L 132.429167 300.552026 
L 132.974103 302.703329 
L 133.519038 298.151872 
L 134.063973 298.526292 
L 134.608908 300.475751 
L 135.153843 304.99857 
L 135.698778 302.376648 
L 136.243714 305.72887 
L 136.788649 307.32187 
L 137.333584 305.137638 
L 137.878519 304.421081 
L 138.423454 304.568035 
L 138.96839 305.123012 
L 139.513325 301.329847 
L 140.05826 294.044021 
L 140.603195 295.685923 
L 141.14813 293.720335 
L 141.693065 287.356841 
L 142.238001 283.7178 
L 142.782936 285.825746 
L 143.327871 287.095823 
L 143.872806 288.908305 
L 144.417741 291.741723 
L 144.962677 293.630399 
L 145.507612 292.653256 
L 146.052547 294.421059 
L 146.597482 291.460822 
L 147.142417 290.930582 
L 147.687353 292.085974 
L 148.232288 289.087309 
L 149.322158 286.928709 
L 149.867093 283.415108 
L 150.412028 281.412859 
L 150.956964 281.636426 
L 151.501899 278.440546 
L 152.046834 277.294147 
L 152.591769 267.590671 
L 153.68164 259.855899 
L 154.226575 255.418118 
L 154.77151 255.015453 
L 155.316445 250.48502 
L 155.86138 250.270416 
L 156.406315 252.928452 
L 156.951251 254.68411 
L 157.496186 252.780695 
L 158.041121 257.881147 
L 158.586056 257.050281 
L 159.130991 259.348665 
L 159.675927 256.818768 
L 160.220862 259.177197 
L 160.765797 252.798043 
L 161.310732 250.086866 
L 161.855667 254.21695 
L 162.400602 248.18969 
L 162.945538 248.818686 
L 163.490473 251.131115 
L 164.035408 254.434165 
L 164.580343 252.396977 
L 165.125278 247.212943 
L 165.670214 249.026254 
L 166.760084 255.936105 
L 167.849954 245.045688 
L 168.394889 246.085847 
L 168.939825 244.134855 
L 169.48476 244.007804 
L 170.029695 244.075878 
L 170.57463 240.680321 
L 171.119565 239.047978 
L 171.664501 237.791746 
L 172.209436 238.648622 
L 172.754371 235.740837 
L 173.299306 236.56326 
L 173.844241 236.255591 
L 174.389176 235.370715 
L 174.934112 239.324404 
L 176.023982 241.125213 
L 176.568917 240.644984 
L 177.658788 248.150723 
L 178.203723 242.546409 
L 178.748658 238.494921 
L 179.293593 235.337266 
L 179.838528 228.983066 
L 180.383464 227.407 
L 180.928399 227.580524 
L 181.473334 225.787886 
L 182.018269 232.10443 
L 182.563204 235.717376 
L 183.108139 232.996043 
L 183.653075 232.746485 
L 184.19801 236.970439 
L 184.742945 234.592612 
L 185.28788 231.049583 
L 185.832815 228.627394 
L 186.377751 228.592455 
L 186.922686 231.318621 
L 187.467621 230.812373 
L 188.012556 229.213766 
L 188.557491 230.303205 
L 189.102426 228.1013 
L 190.192297 225.602368 
L 190.737232 232.446468 
L 191.282167 228.616049 
L 191.827102 222.568368 
L 192.372038 223.815303 
L 192.916973 228.758082 
L 193.461908 226.430214 
L 194.006843 227.889908 
L 194.551778 231.066804 
L 195.096713 226.764584 
L 195.641649 231.373673 
L 196.186584 228.782794 
L 196.731519 232.919008 
L 197.276454 227.788938 
L 197.821389 225.878744 
L 198.366325 226.623776 
L 198.91126 225.972043 
L 199.456195 223.833725 
L 200.546065 217.84312 
L 201.091 215.81192 
L 201.635936 217.325776 
L 202.180871 214.887572 
L 202.725806 219.294633 
L 203.815676 212.520272 
L 204.360612 207.535185 
L 204.905547 209.448658 
L 205.450482 208.658779 
L 205.995417 205.525146 
L 206.540352 204.272371 
L 207.085288 205.623865 
L 207.630223 204.407994 
L 208.175158 204.028233 
L 208.720093 200.401092 
L 209.265028 202.465638 
L 210.354899 199.963733 
L 210.899834 197.161283 
L 211.444769 197.275362 
L 211.989704 196.684562 
L 212.534639 196.791844 
L 213.62451 196.357133 
L 214.169445 197.365725 
L 214.71438 187.269881 
L 215.259315 190.122587 
L 215.80425 194.135551 
L 216.894121 199.159523 
L 217.439056 198.976988 
L 218.528926 187.699209 
L 219.073862 186.713117 
L 219.618797 195.443872 
L 220.163732 193.945762 
L 220.708667 198.430299 
L 221.253602 200.048958 
L 221.798537 203.944986 
L 222.343473 202.313262 
L 222.888408 204.367932 
L 223.433343 201.524262 
L 223.978278 199.707862 
L 224.523213 200.409053 
L 225.068149 199.983999 
L 225.613084 196.619265 
L 226.158019 197.787516 
L 226.702954 194.422807 
L 227.247889 194.348068 
L 227.792824 193.254317 
L 228.33776 190.28774 
L 228.882695 185.428497 
L 229.42763 183.432363 
L 229.972565 183.080184 
L 230.5175 180.36789 
L 231.062436 185.742709 
L 231.607371 179.771757 
L 232.152306 184.363319 
L 232.697241 181.002496 
L 233.242176 182.871745 
L 233.787112 180.919635 
L 234.332047 181.191202 
L 234.876982 179.963188 
L 235.421917 182.679438 
L 235.966852 190.236619 
L 236.511787 188.652903 
L 237.601658 192.792209 
L 238.146593 195.212496 
L 238.691528 188.070896 
L 239.236463 189.993012 
L 239.781399 188.691815 
L 240.326334 192.663655 
L 240.871269 187.137102 
L 241.416204 188.968674 
L 241.961139 198.045973 
L 242.506074 188.361827 
L 243.05101 192.11379 
L 243.595945 187.341981 
L 244.685815 182.130402 
L 245.23075 182.811503 
L 245.775686 181.992862 
L 246.320621 177.483223 
L 246.865556 178.415608 
L 247.410491 177.371749 
L 247.955426 173.903113 
L 248.500361 173.458276 
L 249.045297 174.83942 
L 249.590232 169.485504 
L 250.135167 168.108097 
L 250.680102 168.413637 
L 251.225037 171.066436 
L 251.769973 174.540155 
L 252.859843 167.625019 
L 253.404778 175.314349 
L 253.949713 177.376625 
L 254.494648 173.776968 
L 255.584519 156.999483 
L 256.129454 153.422201 
L 256.674389 148.258551 
L 257.219324 150.044473 
L 257.76426 147.059526 
L 258.309195 151.452916 
L 258.85413 153.36022 
L 259.399065 152.039994 
L 259.944 143.965089 
L 260.488936 141.063077 
L 261.033871 139.903446 
L 261.578806 140.381998 
L 262.123741 145.114155 
L 262.668676 142.74842 
L 263.213611 143.885389 
L 263.758547 142.856448 
L 264.303482 145.983525 
L 264.848417 145.38917 
L 265.393352 150.890963 
L 265.938287 148.898544 
L 266.483223 143.91222 
L 267.028158 140.399119 
L 267.573093 132.44684 
L 268.118028 131.090626 
L 269.207898 126.991554 
L 269.752834 130.123203 
L 270.297769 121.957823 
L 270.842704 118.102257 
L 271.387639 118.862669 
L 271.932574 122.101554 
L 272.47751 119.771399 
L 273.022445 116.400867 
L 273.56738 115.729574 
L 274.112315 114.876472 
L 274.65725 115.432702 
L 275.202185 115.290543 
L 276.292056 104.658452 
L 276.836991 110.203125 
L 277.381926 109.524756 
L 278.471797 118.811653 
L 279.016732 116.458669 
L 279.561667 119.473234 
L 280.106602 131.159239 
L 280.651537 128.609293 
L 281.196472 123.68024 
L 281.741408 115.900693 
L 282.286343 117.240216 
L 282.831278 111.6519 
L 283.376213 121.399974 
L 283.921148 125.159188 
L 285.011019 121.151773 
L 285.555954 116.04963 
L 286.100889 112.295864 
L 286.645824 112.450956 
L 287.19076 106.524921 
L 287.735695 103.767542 
L 288.28063 97.086591 
L 288.825565 100.005208 
L 289.3705 98.706109 
L 289.915435 100.191081 
L 290.460371 96.964624 
L 291.550241 98.456222 
L 292.095176 103.365065 
L 292.640111 102.03917 
L 293.729982 93.633461 
L 294.274917 105.034594 
L 294.819852 111.031293 
L 295.364787 103.299972 
L 296.454658 104.271668 
L 296.999593 99.689876 
L 297.544528 98.78556 
L 298.089463 101.045099 
L 298.634398 101.690232 
L 299.179334 94.312714 
L 299.724269 99.447792 
L 300.269204 94.330243 
L 301.359074 96.254376 
L 301.904009 88.976213 
L 302.448945 91.292722 
L 302.99388 87.931794 
L 303.538815 89.17324 
L 304.08375 94.523841 
L 304.628685 95.004477 
L 305.173621 90.375416 
L 305.718556 90.933951 
L 306.263491 88.668843 
L 306.808426 87.787813 
L 307.353361 87.451687 
L 307.898296 88.903218 
L 308.443232 88.240679 
L 308.988167 95.907033 
L 309.533102 97.466894 
L 310.078037 104.203486 
L 310.622972 103.024784 
L 311.167908 101.521839 
L 311.712843 104.399023 
L 312.257778 101.20075 
L 312.802713 99.538829 
L 313.347648 98.264736 
L 313.892584 99.489885 
L 314.437519 97.532186 
L 314.982454 93.350515 
L 315.527389 95.726454 
L 316.072324 98.696262 
L 316.617259 94.003945 
L 318.252065 119.230179 
L 319.341935 117.671061 
L 319.886871 115.652212 
L 320.431806 115.213636 
L 322.066611 98.591054 
L 322.611546 102.847899 
L 323.156482 101.310823 
L 323.701417 104.45561 
L 324.246352 106.204045 
L 324.791287 109.93296 
L 325.336222 109.739263 
L 325.881158 107.52748 
L 326.426093 107.075775 
L 326.971028 111.446664 
L 327.515963 117.059309 
L 328.605833 122.540115 
L 329.150769 119.451448 
L 329.695704 120.498063 
L 330.785574 121.490447 
L 331.330509 117.227637 
L 331.875445 110.922186 
L 332.42038 109.154956 
L 332.965315 109.941539 
L 333.51025 104.483129 
L 334.055185 102.664383 
L 334.60012 104.1124 
L 335.145056 100.118154 
L 335.689991 99.173793 
L 336.234926 104.490136 
L 336.779861 101.954653 
L 337.324796 100.659178 
L 338.414667 115.57821 
L 338.959602 114.912441 
L 340.049472 109.734257 
L 340.594408 114.730076 
L 341.139343 115.885133 
L 341.684278 113.223061 
L 342.229213 118.86445 
L 342.774148 118.392044 
L 343.319083 117.438346 
L 343.864019 113.812572 
L 344.408954 122.913697 
L 344.953889 122.219299 
L 345.498824 114.508011 
L 346.043759 116.696721 
L 346.588695 117.734196 
L 347.13363 113.99561 
L 347.678565 116.720384 
L 348.2235 112.215155 
L 348.768435 110.021272 
L 349.31337 115.821972 
L 349.858306 115.290774 
L 350.403241 120.633721 
L 350.948176 116.909203 
L 352.038046 129.709553 
L 352.582982 133.79341 
L 353.127917 136.62345 
L 353.672852 131.604753 
L 354.217787 131.522087 
L 354.762722 130.289594 
L 355.307657 126.138491 
L 356.942463 133.599819 
L 357.487398 130.536173 
L 358.032333 124.308226 
L 358.577269 123.189206 
L 359.667139 127.163531 
L 360.212074 131.162527 
L 360.757009 128.292779 
L 361.301944 132.104052 
L 361.84688 132.899841 
L 362.391815 137.090769 
L 362.93675 143.971277 
L 363.481685 153.170813 
L 364.02662 156.273927 
L 364.571556 155.33177 
L 365.116491 156.343033 
L 365.661426 157.01009 
L 367.296232 167.718304 
L 367.841167 166.80973 
L 368.386102 159.26715 
L 368.931037 159.615644 
L 369.475972 164.444023 
L 370.020907 159.691608 
L 370.565843 163.172714 
L 371.110778 161.006066 
L 371.655713 162.465714 
L 372.200648 162.024985 
L 372.745583 149.429774 
L 373.290519 152.020506 
L 373.835454 154.017617 
L 374.380389 152.500014 
L 374.925324 152.432226 
L 375.470259 153.768495 
L 376.015194 156.134169 
L 376.56013 153.834778 
L 377.105065 149.753419 
L 378.194935 157.096546 
L 378.73987 150.285991 
L 379.284806 155.356159 
L 379.829741 152.600074 
L 380.374676 150.847196 
L 380.919611 154.735836 
L 381.464546 151.817235 
L 382.554417 159.527931 
L 383.099352 164.430318 
L 383.644287 161.264302 
L 384.189222 162.747917 
L 384.734157 158.667908 
L 385.279093 161.466742 
L 385.824028 159.089758 
L 386.368963 153.826265 
L 386.913898 153.992462 
L 387.458833 157.953153 
L 388.003768 159.052312 
L 388.548704 154.336407 
L 389.093639 151.491296 
L 389.638574 152.755133 
L 390.183509 158.981541 
L 390.728444 156.232937 
L 391.818315 143.957064 
L 392.36325 142.215074 
L 392.908185 142.769931 
L 393.45312 145.516982 
L 393.998056 147.472997 
L 394.542991 153.379133 
L 395.087926 145.435038 
L 395.632861 145.385303 
L 396.177796 136.470494 
L 396.722731 136.596416 
L 397.267667 142.438676 
L 397.812602 135.429204 
L 398.357537 138.465845 
L 398.902472 139.935138 
L 399.992343 128.133563 
L 400.537278 135.536539 
L 401.082213 135.382566 
L 401.627148 139.270706 
L 402.172083 137.129137 
L 402.717018 130.272159 
L 403.261954 132.047399 
L 403.806889 126.347532 
L 404.351824 129.663424 
L 404.896759 121.424132 
L 405.441694 124.367109 
L 405.98663 125.948303 
L 406.531565 124.688035 
L 407.0765 129.772714 
L 407.621435 123.852443 
L 408.16637 127.703853 
L 408.711305 125.263161 
L 409.256241 129.928981 
L 409.801176 129.369543 
L 410.346111 129.257934 
L 410.891046 130.553206 
L 411.435981 128.58222 
L 411.980917 132.593492 
L 412.525852 126.789736 
L 413.070787 125.883045 
L 413.615722 136.157491 
L 414.160657 128.578807 
L 414.705592 126.740733 
L 415.250528 120.791232 
L 415.795463 121.302915 
L 416.340398 129.632787 
L 416.885333 131.044876 
L 417.430268 135.454493 
L 417.975204 135.447041 
L 418.520139 137.086038 
L 419.065074 136.162554 
L 419.610009 142.54799 
L 420.154944 142.200596 
L 420.69988 143.745323 
L 421.244815 141.26413 
L 421.78975 147.357205 
L 422.334685 148.768778 
L 422.87962 142.540275 
L 423.424555 146.74316 
L 423.969491 143.88411 
L 424.514426 138.837643 
L 425.059361 138.725272 
L 426.149231 130.910178 
L 426.694167 124.920392 
L 427.239102 126.143907 
L 427.784037 126.412036 
L 428.328972 123.258845 
L 428.873907 125.898044 
L 429.418842 125.567348 
L 429.963778 128.025806 
L 430.508713 136.558525 
L 431.053648 135.168447 
L 431.598583 128.707405 
L 432.143518 129.942973 
L 432.688454 129.478416 
L 433.233389 131.015017 
L 433.778324 133.620399 
L 434.323259 132.964928 
L 434.868194 128.830088 
L 435.413129 120.422912 
L 435.958065 117.17069 
L 436.503 120.634092 
L 437.047935 125.834408 
L 437.59287 120.802131 
L 438.137805 119.46256 
L 438.682741 121.602303 
L 439.227676 125.408777 
L 439.772611 128.27537 
L 440.317546 123.526594 
L 440.862481 123.458738 
L 441.407416 128.547967 
L 441.952352 125.14506 
L 442.497287 123.834854 
L 443.042222 124.772499 
L 443.587157 122.349364 
L 444.132092 125.297765 
L 444.677028 121.544706 
L 445.221963 126.733158 
L 445.766898 129.953963 
L 446.311833 134.928885 
L 446.856768 136.323237 
L 447.401704 138.978527 
L 447.946639 140.16907 
L 448.491574 140.001966 
L 449.036509 137.805859 
L 449.581444 137.114033 
L 450.126379 136.031983 
L 450.671315 129.938883 
L 451.21625 130.780205 
L 451.761185 136.054834 
L 452.30612 132.380577 
L 452.851055 125.40918 
L 453.395991 124.55812 
L 453.940926 121.267834 
L 454.485861 123.573757 
L 455.030796 122.72748 
L 455.575731 120.190623 
L 456.120666 118.618299 
L 456.665602 120.493643 
L 457.210537 114.225195 
L 457.755472 113.421053 
L 458.300407 109.759356 
L 458.845342 108.071 
L 459.935213 100.908887 
L 460.480148 101.578122 
L 461.025083 98.249463 
L 462.114953 82.009043 
L 462.659889 78.898316 
L 463.204824 72.201866 
L 463.749759 77.139852 
L 464.294694 71.268176 
L 464.839629 70.818384 
L 465.384565 77.629622 
L 465.9295 76.831568 
L 466.474435 72.884365 
L 467.01937 75.43693 
L 467.564305 67.751466 
L 468.10924 62.318679 
L 468.654176 67.165261 
L 469.199111 63.060315 
L 469.744046 62.46214 
L 470.288981 64.468617 
L 470.833916 65.550836 
L 471.378852 67.134811 
L 471.923787 71.733414 
L 472.468722 73.322858 
L 473.013657 70.468909 
L 474.103528 58.875345 
L 474.648463 60.972655 
L 475.193398 61.27427 
L 475.738333 64.491394 
L 476.283268 60.296073 
L 477.373139 71.792413 
L 477.918074 74.112591 
L 478.463009 72.976788 
L 479.007944 74.069543 
L 480.097815 73.440852 
L 480.64275 72.375274 
L 481.187685 76.247178 
L 481.73262 77.40791 
L 482.277555 75.009477 
L 482.82249 73.762672 
L 483.367426 69.350794 
L 483.912361 72.106298 
L 484.457296 68.417552 
L 485.002231 62.52884 
L 485.547166 62.929564 
L 486.637037 60.683816 
L 487.181972 58.419223 
L 487.726907 56.732444 
L 488.271842 50.779612 
L 488.816777 48.586234 
L 489.361713 44.996335 
L 489.906648 43.516615 
L 490.451583 47.50367 
L 490.996518 45.622468 
L 491.541453 46.375706 
L 492.086389 48.738263 
L 492.631324 52.125001 
L 493.176259 52.243306 
L 493.721194 54.486124 
L 494.266129 46.271422 
L 494.811064 39.765413 
L 495.356 40.669627 
L 495.900935 37.678139 
L 496.44587 32.888933 
L 496.990805 33.420151 
L 497.53574 25.84209 
L 498.080676 21.957991 
L 498.625611 22.205711 
L 499.170546 29.321669 
L 499.715481 33.046241 
L 500.260416 31.604692 
L 500.805352 33.202818 
L 501.350287 33.123604 
L 501.895222 36.120706 
L 502.440157 34.969847 
L 502.985092 36.644262 
L 503.530027 42.697026 
L 504.074963 43.896937 
L 504.619898 46.012878 
L 505.164833 52.018973 
L 505.709768 46.228015 
L 506.254703 46.369316 
L 506.799639 47.507194 
L 507.344574 44.367449 
L 507.889509 44.534991 
L 508.434444 41.320876 
L 508.979379 47.065043 
L 509.524314 51.021128 
L 510.06925 48.701993 
L 510.614185 42.623897 
L 511.15912 42.342961 
L 511.704055 41.318979 
L 512.24899 44.441828 
L 512.793926 44.399818 
L 513.338861 47.059769 
L 513.883796 47.535317 
L 514.428731 44.507173 
L 514.973666 52.299129 
L 515.518601 51.296304 
L 516.063537 54.32089 
L 516.608472 56.714674 
L 517.153407 52.06793 
L 517.698342 50.738873 
L 518.243277 46.881052 
L 518.788213 53.725714 
L 519.878083 56.8174 
L 520.423018 58.981345 
L 520.967953 57.089405 
L 521.512888 53.398759 
L 523.147694 66.005697 
L 523.692629 61.354877 
L 524.237564 63.217914 
L 524.7825 63.456768 
L 525.327435 64.600928 
L 525.87237 68.218544 
L 526.96224 64.944536 
L 527.507176 61.098078 
L 528.052111 61.824698 
L 528.597046 62.832356 
L 529.141981 64.97106 
L 529.686916 58.982471 
L 530.231851 54.857754 
L 530.776787 54.857328 
L 531.321722 52.135349 
L 531.866657 54.292818 
L 532.411592 46.018446 
L 532.956527 48.208666 
L 534.046398 50.864766 
L 534.591333 43.967652 
L 535.136268 43.218916 
L 535.681203 38.738546 
L 536.226138 39.016704 
L 536.771074 43.70132 
L 537.316009 40.452591 
L 537.860944 42.791266 
L 538.405879 47.883121 
L 538.950814 49.373759 
L 539.49575 46.709088 
L 540.040685 39.5398 
L 540.58562 44.919523 
L 541.130555 53.505779 
L 541.67549 49.669767 
L 542.220425 48.320016 
L 542.765361 50.394969 
L 543.310296 48.577291 
L 543.855231 45.523117 
L 544.400166 37.759827 
L 544.945101 38.119154 
L 545.490037 32.840407 
L 546.579907 36.372162 
L 547.124842 34.513515 
L 548.214712 43.86195 
L 548.759648 39.866341 
L 549.304583 47.543059 
L 549.849518 46.932325 
L 550.939388 49.380863 
L 551.484324 54.502094 
L 552.029259 62.381992 
L 552.574194 64.817355 
L 553.119129 69.224103 
L 553.664064 70.72718 
L 554.209 70.225872 
L 554.753935 72.962106 
L 555.29887 76.980461 
L 555.843805 75.697465 
L 556.38874 78.500186 
L 556.933675 82.063316 
L 557.478611 83.063382 
L 558.023546 81.803996 
L 558.568481 73.492647 
L 559.113416 67.054996 
L 560.203287 76.840949 
L 560.748222 76.432522 
L 561.293157 74.112327 
L 561.838092 74.46716 
L 562.383027 65.861218 
L 562.927962 61.094535 
L 563.472898 54.491255 
L 564.017833 55.981536 
L 565.107703 63.411285 
L 565.652638 63.698743 
L 566.197574 68.474476 
L 566.742509 70.792552 
L 567.287444 72.314686 
L 567.832379 68.478409 
L 568.377314 70.167764 
L 568.922249 75.500146 
L 569.467185 77.081679 
L 570.01212 76.192572 
L 570.557055 73.856725 
L 571.10199 77.285298 
L 571.646925 74.615912 
L 572.191861 69.065537 
L 572.736796 66.995678 
L 573.281731 65.90323 
L 573.826666 67.498979 
L 574.371601 69.728873 
L 574.916536 77.494367 
L 575.461472 74.978397 
L 576.006407 76.197604 
L 576.551342 75.447717 
L 577.096277 73.34231 
L 577.641212 76.245758 
L 578.186148 72.138701 
L 578.731083 71.540245 
L 579.276018 65.547271 
L 579.820953 64.727165 
L 580.365888 63.32002 
L 580.910824 64.233521 
L 581.455759 58.287519 
L 582.000694 66.410905 
L 582.545629 68.337568 
L 583.090564 69.371342 
L 583.635499 75.188624 
L 584.180435 78.120201 
L 584.72537 86.387 
L 585.270305 85.497335 
L 585.81524 90.759789 
L 586.360175 89.183933 
L 586.905111 90.03478 
L 587.450046 93.07882 
L 587.994981 98.879687 
L 588.539916 101.330836 
L 589.084851 99.993598 
L 589.629786 100.317488 
L 590.174722 97.623713 
L 590.719657 100.480188 
L 591.264592 94.205297 
L 591.809527 94.96155 
L 592.354462 98.041657 
L 593.444333 87.524358 
L 593.989268 87.715609 
L 594.534203 89.423995 
L 595.079138 85.769777 
L 595.624073 89.060754 
L 596.169009 85.308917 
L 596.713944 90.502542 
L 597.258879 90.667322 
L 597.803814 90.46666 
L 598.348749 85.670666 
L 598.893685 92.567115 
L 599.43862 91.512809 
L 599.983555 91.820682 
L 600.52849 91.654148 
L 601.073425 94.891559 
L 601.61836 99.720009 
L 602.163296 101.331703 
L 602.708231 102.097866 
L 603.253166 96.328858 
L 603.798101 95.748159 
L 604.343036 95.60962 
L 604.887972 92.783048 
L 605.432907 98.807917 
L 605.977842 95.896008 
L 607.067712 88.605022 
L 607.612647 89.730187 
L 608.157583 94.322031 
L 608.702518 97.938797 
L 609.247453 96.839213 
L 609.792388 94.632931 
L 611.427194 80.065892 
L 611.972129 79.777706 
L 612.517064 78.594784 
L 613.061999 79.350046 
L 613.606935 75.106101 
L 614.15187 72.638643 
L 614.696805 71.64025 
L 615.24174 76.376252 
L 615.786675 72.154405 
L 616.33161 77.945477 
L 617.421481 69.019422 
L 617.966416 75.059514 
L 618.511351 75.0905 
L 619.056286 79.758701 
L 619.601222 80.162007 
L 620.146157 77.85558 
L 620.691092 78.228521 
L 621.236027 83.36035 
L 622.325897 81.036813 
L 622.870833 80.985511 
L 623.415768 84.873052 
L 623.960703 86.066256 
L 624.505638 84.875193 
L 625.050573 85.31714 
L 625.595509 77.013504 
L 626.140444 75.862363 
L 626.685379 76.508304 
L 627.230314 74.477144 
L 627.775249 78.618787 
L 628.320184 76.830682 
L 628.86512 70.397046 
L 629.410055 73.686952 
L 629.95499 72.36647 
L 630.499925 69.220504 
L 631.04486 75.674671 
L 631.589796 69.149439 
L 632.134731 73.072103 
L 632.679666 74.218918 
L 633.224601 72.580642 
L 633.769536 73.328867 
L 634.314471 70.045788 
L 634.859407 69.2988 
L 635.404342 66.916025 
L 635.949277 66.464346 
L 636.494212 60.545762 
L 637.039147 68.309275 
L 637.584083 66.728312 
L 638.129018 67.745996 
L 639.218888 74.343033 
L 639.763823 76.410246 
L 640.308759 74.006864 
L 640.853694 77.33572 
L 641.398629 77.811822 
L 641.943564 76.587032 
L 642.488499 80.917467 
L 643.033434 76.456237 
L 643.57837 66.895599 
L 644.123305 69.373839 
L 644.66824 65.62585 
L 645.213175 66.679887 
L 645.75811 64.434669 
L 646.303046 64.98811 
L 646.847981 56.176921 
L 647.392916 57.296377 
L 647.937851 54.008222 
L 648.482786 51.448857 
L 649.027721 55.57908 
L 649.572657 63.943257 
L 650.117592 61.514074 
L 650.662527 58.037768 
L 651.752397 62.323586 
L 653.387203 50.87889 
L 653.932138 49.68342 
L 654.477073 52.647237 
L 655.022008 57.303674 
L 655.566944 64.998278 
L 656.111879 65.065615 
L 656.656814 57.388986 
L 657.201749 55.346356 
L 657.746684 55.501244 
L 658.29162 61.342346 
L 658.836555 63.807228 
L 659.38149 63.629085 
L 659.926425 64.341749 
L 660.47136 60.622803 
L 661.016295 61.087067 
L 661.561231 58.195922 
L 662.106166 58.486246 
L 662.651101 59.073947 
L 663.196036 53.959529 
L 663.740971 56.770348 
L 664.285907 57.726569 
L 664.830842 62.659585 
L 665.375777 62.121011 
L 665.920712 57.762999 
L 667.010583 51.861727 
L 667.555518 47.534678 
L 669.190323 39.943285 
L 669.735258 43.676033 
L 670.280194 41.420166 
L 670.825129 37.486229 
L 671.370064 40.891947 
L 671.914999 39.788823 
L 672.459934 35.303288 
L 673.00487 36.637423 
L 673.549805 41.763216 
L 674.09474 41.35641 
L 674.639675 34.838569 
L 675.18461 38.335361 
L 675.729545 38.594788 
L 675.729545 38.594788 
" style="fill:none;stroke:#86a776;stroke-linecap:square;stroke-width:2;"/>
   </g>
   <g id="line2d_22">
    <defs>
     <path d="M 0 10 
C 2.652031 10 5.195799 8.946337 7.071068 7.071068 
C 8.946337 5.195799 10 2.652031 10 0 
C 10 -2.652031 8.946337 -5.195799 7.071068 -7.071068 
C 5.195799 -8.946337 2.652031 -10 0 -10 
C -2.652031 -10 -5.195799 -8.946337 -7.071068 -7.071068 
C -8.946337 -5.195799 -10 -2.652031 -10 0 
C -10 2.652031 -8.946337 5.195799 -7.071068 7.071068 
C -5.195799 8.946337 -2.652031 10 0 10 
z
" id="mcad91168f6" style="stroke:#6083a9;stroke-width:2;"/>
    </defs>
    <g clip-path="url(#p0dff931090)">
     <use style="fill-opacity:0;stroke:#6083a9;stroke-width:2;" x="307.353361" xlink:href="#mcad91168f6" y="87.451687"/>
    </g>
   </g>
   <g id="line2d_23">
    <g clip-path="url(#p0dff931090)">
     <use style="fill-opacity:0;stroke:#6083a9;stroke-width:2;" x="367.296232" xlink:href="#mcad91168f6" y="167.718304"/>
    </g>
   </g>
   <g id="patch_3">
    <path d="M 49.7625 322.899506 
L 49.7625 7.627443 
" style="fill:none;"/>
   </g>
   <g id="patch_4">
    <path d="M 705.5375 322.899506 
L 705.5375 7.627443 
" style="fill:none;"/>
   </g>
   <g id="patch_5">
    <path d="M 49.7625 322.899506 
L 705.5375 322.899506 
" style="fill:none;"/>
   </g>
   <g id="patch_6">
    <path d="M 49.7625 7.627443 
L 705.5375 7.627443 
" style="fill:none;"/>
   </g>
   <g id="text_14">
    <g id="patch_7">
     <path d="M 307.353361 68.268826 
L 422.983361 68.268826 
Q 427.783361 68.268826 427.783361 63.468826 
L 427.783361 47.983826 
Q 427.783361 43.183826 422.983361 43.183826 
L 307.353361 43.183826 
Q 302.553361 43.183826 302.553361 47.983826 
L 302.553361 63.468826 
Q 302.553361 68.268826 307.353361 68.268826 
z
" style="fill:none;"/>
    </g>
    <!-- Peak at 18.2% -->
    <defs>
     <path d="M 19.671875 64.796875 
L 19.671875 37.40625 
L 32.078125 37.40625 
Q 38.96875 37.40625 42.71875 40.96875 
Q 46.484375 44.53125 46.484375 51.125 
Q 46.484375 57.671875 42.71875 61.234375 
Q 38.96875 64.796875 32.078125 64.796875 
z
M 9.8125 72.90625 
L 32.078125 72.90625 
Q 44.34375 72.90625 50.609375 67.359375 
Q 56.890625 61.8125 56.890625 51.125 
Q 56.890625 40.328125 50.609375 34.8125 
Q 44.34375 29.296875 32.078125 29.296875 
L 19.671875 29.296875 
L 19.671875 0 
L 9.8125 0 
z
" id="DejaVuSans-80"/>
     <path d="M 56.203125 29.59375 
L 56.203125 25.203125 
L 14.890625 25.203125 
Q 15.484375 15.921875 20.484375 11.0625 
Q 25.484375 6.203125 34.421875 6.203125 
Q 39.59375 6.203125 44.453125 7.46875 
Q 49.3125 8.734375 54.109375 11.28125 
L 54.109375 2.78125 
Q 49.265625 0.734375 44.1875 -0.34375 
Q 39.109375 -1.421875 33.890625 -1.421875 
Q 20.796875 -1.421875 13.15625 6.1875 
Q 5.515625 13.8125 5.515625 26.8125 
Q 5.515625 40.234375 12.765625 48.109375 
Q 20.015625 56 32.328125 56 
Q 43.359375 56 49.78125 48.890625 
Q 56.203125 41.796875 56.203125 29.59375 
z
M 47.21875 32.234375 
Q 47.125 39.59375 43.09375 43.984375 
Q 39.0625 48.390625 32.421875 48.390625 
Q 24.90625 48.390625 20.390625 44.140625 
Q 15.875 39.890625 15.1875 32.171875 
z
" id="DejaVuSans-101"/>
     <path d="M 34.28125 27.484375 
Q 23.390625 27.484375 19.1875 25 
Q 14.984375 22.515625 14.984375 16.5 
Q 14.984375 11.71875 18.140625 8.90625 
Q 21.296875 6.109375 26.703125 6.109375 
Q 34.1875 6.109375 38.703125 11.40625 
Q 43.21875 16.703125 43.21875 25.484375 
L 43.21875 27.484375 
z
M 52.203125 31.203125 
L 52.203125 0 
L 43.21875 0 
L 43.21875 8.296875 
Q 40.140625 3.328125 35.546875 0.953125 
Q 30.953125 -1.421875 24.3125 -1.421875 
Q 15.921875 -1.421875 10.953125 3.296875 
Q 6 8.015625 6 15.921875 
Q 6 25.140625 12.171875 29.828125 
Q 18.359375 34.515625 30.609375 34.515625 
L 43.21875 34.515625 
L 43.21875 35.40625 
Q 43.21875 41.609375 39.140625 45 
Q 35.0625 48.390625 27.6875 48.390625 
Q 23 48.390625 18.546875 47.265625 
Q 14.109375 46.140625 10.015625 43.890625 
L 10.015625 52.203125 
Q 14.9375 54.109375 19.578125 55.046875 
Q 24.21875 56 28.609375 56 
Q 40.484375 56 46.34375 49.84375 
Q 52.203125 43.703125 52.203125 31.203125 
z
" id="DejaVuSans-97"/>
     <path d="M 9.078125 75.984375 
L 18.109375 75.984375 
L 18.109375 31.109375 
L 44.921875 54.6875 
L 56.390625 54.6875 
L 27.390625 29.109375 
L 57.625 0 
L 45.90625 0 
L 18.109375 26.703125 
L 18.109375 0 
L 9.078125 0 
z
" id="DejaVuSans-107"/>
     <path id="DejaVuSans-32"/>
     <path d="M 18.3125 70.21875 
L 18.3125 54.6875 
L 36.8125 54.6875 
L 36.8125 47.703125 
L 18.3125 47.703125 
L 18.3125 18.015625 
Q 18.3125 11.328125 20.140625 9.421875 
Q 21.96875 7.515625 27.59375 7.515625 
L 36.8125 7.515625 
L 36.8125 0 
L 27.59375 0 
Q 17.1875 0 13.234375 3.875 
Q 9.28125 7.765625 9.28125 18.015625 
L 9.28125 47.703125 
L 2.6875 47.703125 
L 2.6875 54.6875 
L 9.28125 54.6875 
L 9.28125 70.21875 
z
" id="DejaVuSans-116"/>
     <path d="M 31.78125 34.625 
Q 24.75 34.625 20.71875 30.859375 
Q 16.703125 27.09375 16.703125 20.515625 
Q 16.703125 13.921875 20.71875 10.15625 
Q 24.75 6.390625 31.78125 6.390625 
Q 38.8125 6.390625 42.859375 10.171875 
Q 46.921875 13.96875 46.921875 20.515625 
Q 46.921875 27.09375 42.890625 30.859375 
Q 38.875 34.625 31.78125 34.625 
z
M 21.921875 38.8125 
Q 15.578125 40.375 12.03125 44.71875 
Q 8.5 49.078125 8.5 55.328125 
Q 8.5 64.0625 14.71875 69.140625 
Q 20.953125 74.21875 31.78125 74.21875 
Q 42.671875 74.21875 48.875 69.140625 
Q 55.078125 64.0625 55.078125 55.328125 
Q 55.078125 49.078125 51.53125 44.71875 
Q 48 40.375 41.703125 38.8125 
Q 48.828125 37.15625 52.796875 32.3125 
Q 56.78125 27.484375 56.78125 20.515625 
Q 56.78125 9.90625 50.3125 4.234375 
Q 43.84375 -1.421875 31.78125 -1.421875 
Q 19.734375 -1.421875 13.25 4.234375 
Q 6.78125 9.90625 6.78125 20.515625 
Q 6.78125 27.484375 10.78125 32.3125 
Q 14.796875 37.15625 21.921875 38.8125 
z
M 18.3125 54.390625 
Q 18.3125 48.734375 21.84375 45.5625 
Q 25.390625 42.390625 31.78125 42.390625 
Q 38.140625 42.390625 41.71875 45.5625 
Q 45.3125 48.734375 45.3125 54.390625 
Q 45.3125 60.0625 41.71875 63.234375 
Q 38.140625 66.40625 31.78125 66.40625 
Q 25.390625 66.40625 21.84375 63.234375 
Q 18.3125 60.0625 18.3125 54.390625 
z
" id="DejaVuSans-56"/>
     <path d="M 10.6875 12.40625 
L 21 12.40625 
L 21 0 
L 10.6875 0 
z
" id="DejaVuSans-46"/>
    </defs>
    <g style="fill:#2f2235;" transform="translate(307.353361 60.141326)scale(0.16 -0.16)">
     <use xlink:href="#DejaVuSans-80"/>
     <use x="60.255859" xlink:href="#DejaVuSans-101"/>
     <use x="121.779297" xlink:href="#DejaVuSans-97"/>
     <use x="183.058594" xlink:href="#DejaVuSans-107"/>
     <use x="240.96875" xlink:href="#DejaVuSans-32"/>
     <use x="272.755859" xlink:href="#DejaVuSans-97"/>
     <use x="334.035156" xlink:href="#DejaVuSans-116"/>
     <use x="373.244141" xlink:href="#DejaVuSans-32"/>
     <use x="405.03125" xlink:href="#DejaVuSans-49"/>
     <use x="468.654297" xlink:href="#DejaVuSans-56"/>
     <use x="532.277344" xlink:href="#DejaVuSans-46"/>
     <use x="564.064453" xlink:href="#DejaVuSans-50"/>
     <use x="627.6875" xlink:href="#DejaVuSans-37"/>
    </g>
   </g>
   <g id="text_15">
    <g id="patch_8">
     <path d="M 367.296232 211.417842 
L 514.351232 211.417842 
Q 519.151232 211.417842 519.151232 206.617842 
L 519.151232 191.132842 
Q 519.151232 186.332842 514.351232 186.332842 
L 367.296232 186.332842 
Q 362.496232 186.332842 362.496232 191.132842 
L 362.496232 206.617842 
Q 362.496232 211.417842 367.296232 211.417842 
z
" style="fill:none;"/>
    </g>
    <!-- Declined to 10.8% -->
    <defs>
     <path d="M 19.671875 64.796875 
L 19.671875 8.109375 
L 31.59375 8.109375 
Q 46.6875 8.109375 53.6875 14.9375 
Q 60.6875 21.78125 60.6875 36.53125 
Q 60.6875 51.171875 53.6875 57.984375 
Q 46.6875 64.796875 31.59375 64.796875 
z
M 9.8125 72.90625 
L 30.078125 72.90625 
Q 51.265625 72.90625 61.171875 64.09375 
Q 71.09375 55.28125 71.09375 36.53125 
Q 71.09375 17.671875 61.125 8.828125 
Q 51.171875 0 30.078125 0 
L 9.8125 0 
z
" id="DejaVuSans-68"/>
     <path d="M 48.78125 52.59375 
L 48.78125 44.1875 
Q 44.96875 46.296875 41.140625 47.34375 
Q 37.3125 48.390625 33.40625 48.390625 
Q 24.65625 48.390625 19.8125 42.84375 
Q 14.984375 37.3125 14.984375 27.296875 
Q 14.984375 17.28125 19.8125 11.734375 
Q 24.65625 6.203125 33.40625 6.203125 
Q 37.3125 6.203125 41.140625 7.25 
Q 44.96875 8.296875 48.78125 10.40625 
L 48.78125 2.09375 
Q 45.015625 0.34375 40.984375 -0.53125 
Q 36.96875 -1.421875 32.421875 -1.421875 
Q 20.0625 -1.421875 12.78125 6.34375 
Q 5.515625 14.109375 5.515625 27.296875 
Q 5.515625 40.671875 12.859375 48.328125 
Q 20.21875 56 33.015625 56 
Q 37.15625 56 41.109375 55.140625 
Q 45.0625 54.296875 48.78125 52.59375 
z
" id="DejaVuSans-99"/>
     <path d="M 9.421875 54.6875 
L 18.40625 54.6875 
L 18.40625 0 
L 9.421875 0 
z
M 9.421875 75.984375 
L 18.40625 75.984375 
L 18.40625 64.59375 
L 9.421875 64.59375 
z
" id="DejaVuSans-105"/>
     <path d="M 54.890625 33.015625 
L 54.890625 0 
L 45.90625 0 
L 45.90625 32.71875 
Q 45.90625 40.484375 42.875 44.328125 
Q 39.84375 48.1875 33.796875 48.1875 
Q 26.515625 48.1875 22.3125 43.546875 
Q 18.109375 38.921875 18.109375 30.90625 
L 18.109375 0 
L 9.078125 0 
L 9.078125 54.6875 
L 18.109375 54.6875 
L 18.109375 46.1875 
Q 21.34375 51.125 25.703125 53.5625 
Q 30.078125 56 35.796875 56 
Q 45.21875 56 50.046875 50.171875 
Q 54.890625 44.34375 54.890625 33.015625 
z
" id="DejaVuSans-110"/>
     <path d="M 45.40625 46.390625 
L 45.40625 75.984375 
L 54.390625 75.984375 
L 54.390625 0 
L 45.40625 0 
L 45.40625 8.203125 
Q 42.578125 3.328125 38.25 0.953125 
Q 33.9375 -1.421875 27.875 -1.421875 
Q 17.96875 -1.421875 11.734375 6.484375 
Q 5.515625 14.40625 5.515625 27.296875 
Q 5.515625 40.1875 11.734375 48.09375 
Q 17.96875 56 27.875 56 
Q 33.9375 56 38.25 53.625 
Q 42.578125 51.265625 45.40625 46.390625 
z
M 14.796875 27.296875 
Q 14.796875 17.390625 18.875 11.75 
Q 22.953125 6.109375 30.078125 6.109375 
Q 37.203125 6.109375 41.296875 11.75 
Q 45.40625 17.390625 45.40625 27.296875 
Q 45.40625 37.203125 41.296875 42.84375 
Q 37.203125 48.484375 30.078125 48.484375 
Q 22.953125 48.484375 18.875 42.84375 
Q 14.796875 37.203125 14.796875 27.296875 
z
" id="DejaVuSans-100"/>
     <path d="M 30.609375 48.390625 
Q 23.390625 48.390625 19.1875 42.75 
Q 14.984375 37.109375 14.984375 27.296875 
Q 14.984375 17.484375 19.15625 11.84375 
Q 23.34375 6.203125 30.609375 6.203125 
Q 37.796875 6.203125 41.984375 11.859375 
Q 46.1875 17.53125 46.1875 27.296875 
Q 46.1875 37.015625 41.984375 42.703125 
Q 37.796875 48.390625 30.609375 48.390625 
z
M 30.609375 56 
Q 42.328125 56 49.015625 48.375 
Q 55.71875 40.765625 55.71875 27.296875 
Q 55.71875 13.875 49.015625 6.21875 
Q 42.328125 -1.421875 30.609375 -1.421875 
Q 18.84375 -1.421875 12.171875 6.21875 
Q 5.515625 13.875 5.515625 27.296875 
Q 5.515625 40.765625 12.171875 48.375 
Q 18.84375 56 30.609375 56 
z
" id="DejaVuSans-111"/>
    </defs>
    <g style="fill:#2f2235;" transform="translate(367.296232 203.290342)scale(0.16 -0.16)">
     <use xlink:href="#DejaVuSans-68"/>
     <use x="77.001953" xlink:href="#DejaVuSans-101"/>
     <use x="138.525391" xlink:href="#DejaVuSans-99"/>
     <use x="193.505859" xlink:href="#DejaVuSans-108"/>
     <use x="221.289062" xlink:href="#DejaVuSans-105"/>
     <use x="249.072266" xlink:href="#DejaVuSans-110"/>
     <use x="312.451172" xlink:href="#DejaVuSans-101"/>
     <use x="373.974609" xlink:href="#DejaVuSans-100"/>
     <use x="437.451172" xlink:href="#DejaVuSans-32"/>
     <use x="469.238281" xlink:href="#DejaVuSans-116"/>
     <use x="508.447266" xlink:href="#DejaVuSans-111"/>
     <use x="569.628906" xlink:href="#DejaVuSans-32"/>
     <use x="601.416016" xlink:href="#DejaVuSans-49"/>
     <use x="665.039062" xlink:href="#DejaVuSans-48"/>
     <use x="728.662109" xlink:href="#DejaVuSans-46"/>
     <use x="760.449219" xlink:href="#DejaVuSans-56"/>
     <use x="824.072266" xlink:href="#DejaVuSans-37"/>
    </g>
   </g>
   <g id="legend_1">
    <g id="line2d_24">
     <path d="M 58.7625 25.284943 
L 78.7625 25.284943 
" style="fill:none;stroke:#6083a9;stroke-linecap:square;stroke-opacity:0.25;stroke-width:2;"/>
    </g>
    <g id="line2d_25"/>
    <g id="text_16">
     <!-- Investment A -->
     <defs>
      <path d="M 9.8125 72.90625 
L 19.671875 72.90625 
L 19.671875 0 
L 9.8125 0 
z
" id="DejaVuSans-73"/>
      <path d="M 2.984375 54.6875 
L 12.5 54.6875 
L 29.59375 8.796875 
L 46.6875 54.6875 
L 56.203125 54.6875 
L 35.6875 0 
L 23.484375 0 
z
" id="DejaVuSans-118"/>
      <path d="M 44.28125 53.078125 
L 44.28125 44.578125 
Q 40.484375 46.53125 36.375 47.5 
Q 32.28125 48.484375 27.875 48.484375 
Q 21.1875 48.484375 17.84375 46.4375 
Q 14.5 44.390625 14.5 40.28125 
Q 14.5 37.15625 16.890625 35.375 
Q 19.28125 33.59375 26.515625 31.984375 
L 29.59375 31.296875 
Q 39.15625 29.25 43.1875 25.515625 
Q 47.21875 21.78125 47.21875 15.09375 
Q 47.21875 7.46875 41.1875 3.015625 
Q 35.15625 -1.421875 24.609375 -1.421875 
Q 20.21875 -1.421875 15.453125 -0.5625 
Q 10.6875 0.296875 5.421875 2 
L 5.421875 11.28125 
Q 10.40625 8.6875 15.234375 7.390625 
Q 20.0625 6.109375 24.8125 6.109375 
Q 31.15625 6.109375 34.5625 8.28125 
Q 37.984375 10.453125 37.984375 14.40625 
Q 37.984375 18.0625 35.515625 20.015625 
Q 33.0625 21.96875 24.703125 23.78125 
L 21.578125 24.515625 
Q 13.234375 26.265625 9.515625 29.90625 
Q 5.8125 33.546875 5.8125 39.890625 
Q 5.8125 47.609375 11.28125 51.796875 
Q 16.75 56 26.8125 56 
Q 31.78125 56 36.171875 55.265625 
Q 40.578125 54.546875 44.28125 53.078125 
z
" id="DejaVuSans-115"/>
      <path d="M 52 44.1875 
Q 55.375 50.25 60.0625 53.125 
Q 64.75 56 71.09375 56 
Q 79.640625 56 84.28125 50.015625 
Q 88.921875 44.046875 88.921875 33.015625 
L 88.921875 0 
L 79.890625 0 
L 79.890625 32.71875 
Q 79.890625 40.578125 77.09375 44.375 
Q 74.3125 48.1875 68.609375 48.1875 
Q 61.625 48.1875 57.5625 43.546875 
Q 53.515625 38.921875 53.515625 30.90625 
L 53.515625 0 
L 44.484375 0 
L 44.484375 32.71875 
Q 44.484375 40.625 41.703125 44.40625 
Q 38.921875 48.1875 33.109375 48.1875 
Q 26.21875 48.1875 22.15625 43.53125 
Q 18.109375 38.875 18.109375 30.90625 
L 18.109375 0 
L 9.078125 0 
L 9.078125 54.6875 
L 18.109375 54.6875 
L 18.109375 46.1875 
Q 21.1875 51.21875 25.484375 53.609375 
Q 29.78125 56 35.6875 56 
Q 41.65625 56 45.828125 52.96875 
Q 50 49.953125 52 44.1875 
z
" id="DejaVuSans-109"/>
      <path d="M 34.1875 63.1875 
L 20.796875 26.90625 
L 47.609375 26.90625 
z
M 28.609375 72.90625 
L 39.796875 72.90625 
L 67.578125 0 
L 57.328125 0 
L 50.6875 18.703125 
L 17.828125 18.703125 
L 11.1875 0 
L 0.78125 0 
z
" id="DejaVuSans-65"/>
     </defs>
     <g style="fill:#2f2235;" transform="translate(86.7625 28.784943)scale(0.16 -0.16)">
      <use xlink:href="#DejaVuSans-73"/>
      <use x="29.492188" xlink:href="#DejaVuSans-110"/>
      <use x="92.871094" xlink:href="#DejaVuSans-118"/>
      <use x="152.050781" xlink:href="#DejaVuSans-101"/>
      <use x="213.574219" xlink:href="#DejaVuSans-115"/>
      <use x="265.673828" xlink:href="#DejaVuSans-116"/>
      <use x="304.882812" xlink:href="#DejaVuSans-109"/>
      <use x="402.294922" xlink:href="#DejaVuSans-101"/>
      <use x="463.818359" xlink:href="#DejaVuSans-110"/>
      <use x="527.197266" xlink:href="#DejaVuSans-116"/>
      <use x="566.40625" xlink:href="#DejaVuSans-32"/>
      <use x="598.193359" xlink:href="#DejaVuSans-65"/>
     </g>
    </g>
    <g id="line2d_26">
     <path d="M 58.7625 45.769943 
L 78.7625 45.769943 
" style="fill:none;stroke:#86a776;stroke-linecap:square;stroke-width:2;"/>
    </g>
    <g id="line2d_27"/>
    <g id="text_17">
     <!-- Investment B -->
     <defs>
      <path d="M 19.671875 34.8125 
L 19.671875 8.109375 
L 35.5 8.109375 
Q 43.453125 8.109375 47.28125 11.40625 
Q 51.125 14.703125 51.125 21.484375 
Q 51.125 28.328125 47.28125 31.5625 
Q 43.453125 34.8125 35.5 34.8125 
z
M 19.671875 64.796875 
L 19.671875 42.828125 
L 34.28125 42.828125 
Q 41.5 42.828125 45.03125 45.53125 
Q 48.578125 48.25 48.578125 53.8125 
Q 48.578125 59.328125 45.03125 62.0625 
Q 41.5 64.796875 34.28125 64.796875 
z
M 9.8125 72.90625 
L 35.015625 72.90625 
Q 46.296875 72.90625 52.390625 68.21875 
Q 58.5 63.53125 58.5 54.890625 
Q 58.5 48.1875 55.375 44.234375 
Q 52.25 40.28125 46.1875 39.3125 
Q 53.46875 37.75 57.5 32.78125 
Q 61.53125 27.828125 61.53125 20.40625 
Q 61.53125 10.640625 54.890625 5.3125 
Q 48.25 0 35.984375 0 
L 9.8125 0 
z
" id="DejaVuSans-66"/>
     </defs>
     <g style="fill:#2f2235;" transform="translate(86.7625 49.269943)scale(0.16 -0.16)">
      <use xlink:href="#DejaVuSans-73"/>
      <use x="29.492188" xlink:href="#DejaVuSans-110"/>
      <use x="92.871094" xlink:href="#DejaVuSans-118"/>
      <use x="152.050781" xlink:href="#DejaVuSans-101"/>
      <use x="213.574219" xlink:href="#DejaVuSans-115"/>
      <use x="265.673828" xlink:href="#DejaVuSans-116"/>
      <use x="304.882812" xlink:href="#DejaVuSans-109"/>
      <use x="402.294922" xlink:href="#DejaVuSans-101"/>
      <use x="463.818359" xlink:href="#DejaVuSans-110"/>
      <use x="527.197266" xlink:href="#DejaVuSans-116"/>
      <use x="566.40625" xlink:href="#DejaVuSans-32"/>
      <use x="598.193359" xlink:href="#DejaVuSans-66"/>
     </g>
    </g>
   </g>
   <g id="patch_9">
    <path clip-path="url(#p0dff931090)" d="M 278.471797 322.899506 
L 278.471797 7.627443 
L 377.105065 7.627443 
L 377.105065 322.899506 
z
" style="opacity:0.03;"/>
   </g>
  </g>
 </g>
 <defs>
  <clipPath id="p0dff931090">
   <rect height="315.272063" width="655.775" x="49.7625" y="7.627443"/>
  </clipPath>
 </defs>
</svg>
