<?xml version="1.0" encoding="utf-8" standalone="no"?>
<!DOCTYPE svg PUBLIC "-//W3C//DTD SVG 1.1//EN"
  "http://www.w3.org/Graphics/SVG/1.1/DTD/svg11.dtd">
<!-- Created with matplotlib (https://matplotlib.org/) -->
<svg height="353.285pt" version="1.1" viewBox="0 0 712.7375 353.285" width="712.7375pt" xmlns="http://www.w3.org/2000/svg" xmlns:xlink="http://www.w3.org/1999/xlink">
 <defs>
  <style type="text/css">
*{stroke-linecap:butt;stroke-linejoin:round;}
  </style>
 </defs>
 <g id="figure_1">
  <g id="patch_1">
   <path d="M -0 353.285 
L 712.7375 353.285 
L 712.7375 0 
L -0 0 
z
" style="fill:none;"/>
  </g>
  <g id="axes_1">
   <g id="patch_2">
    <path d="M 49.7625 323.6 
L 705.5375 323.6 
L 705.5375 7.2 
L 49.7625 7.2 
z
" style="fill:none;"/>
   </g>
   <g id="matplotlib.axis_1">
    <g id="xtick_1">
     <g id="line2d_1">
      <defs>
       <path d="M 0 0 
L 0 3.5 
" id="mfadfe9acb3" style="stroke:#003559;stroke-width:0.8;"/>
      </defs>
      <g>
       <use style="fill:#003559;stroke:#003559;stroke-width:0.8;" x="79.570455" xlink:href="#mfadfe9acb3" y="323.6"/>
      </g>
     </g>
     <g id="text_1">
      <!-- 2010 -->
      <defs>
       <path d="M 19.1875 8.296875 
L 53.609375 8.296875 
L 53.609375 0 
L 7.328125 0 
L 7.328125 8.296875 
Q 12.9375 14.109375 22.625 23.890625 
Q 32.328125 33.6875 34.8125 36.53125 
Q 39.546875 41.84375 41.421875 45.53125 
Q 43.3125 49.21875 43.3125 52.78125 
Q 43.3125 58.59375 39.234375 62.25 
Q 35.15625 65.921875 28.609375 65.921875 
Q 23.96875 65.921875 18.8125 64.3125 
Q 13.671875 62.703125 7.8125 59.421875 
L 7.8125 69.390625 
Q 13.765625 71.78125 18.9375 73 
Q 24.125 74.21875 28.421875 74.21875 
Q 39.75 74.21875 46.484375 68.546875 
Q 53.21875 62.890625 53.21875 53.421875 
Q 53.21875 48.921875 51.53125 44.890625 
Q 49.859375 40.875 45.40625 35.40625 
Q 44.1875 33.984375 37.640625 27.21875 
Q 31.109375 20.453125 19.1875 8.296875 
z
" id="DejaVuSans-50"/>
       <path d="M 31.78125 66.40625 
Q 24.171875 66.40625 20.328125 58.90625 
Q 16.5 51.421875 16.5 36.375 
Q 16.5 21.390625 20.328125 13.890625 
Q 24.171875 6.390625 31.78125 6.390625 
Q 39.453125 6.390625 43.28125 13.890625 
Q 47.125 21.390625 47.125 36.375 
Q 47.125 51.421875 43.28125 58.90625 
Q 39.453125 66.40625 31.78125 66.40625 
z
M 31.78125 74.21875 
Q 44.046875 74.21875 50.515625 64.515625 
Q 56.984375 54.828125 56.984375 36.375 
Q 56.984375 17.96875 50.515625 8.265625 
Q 44.046875 -1.421875 31.78125 -1.421875 
Q 19.53125 -1.421875 13.0625 8.265625 
Q 6.59375 17.96875 6.59375 36.375 
Q 6.59375 54.828125 13.0625 64.515625 
Q 19.53125 74.21875 31.78125 74.21875 
z
" id="DejaVuSans-48"/>
       <path d="M 12.40625 8.296875 
L 28.515625 8.296875 
L 28.515625 63.921875 
L 10.984375 60.40625 
L 10.984375 69.390625 
L 28.421875 72.90625 
L 38.28125 72.90625 
L 38.28125 8.296875 
L 54.390625 8.296875 
L 54.390625 0 
L 12.40625 0 
z
" id="DejaVuSans-49"/>
      </defs>
      <g style="fill:#2f2235;" transform="translate(59.210455 342.7575)scale(0.16 -0.16)">
       <use xlink:href="#DejaVuSans-50"/>
       <use x="63.623047" xlink:href="#DejaVuSans-48"/>
       <use x="127.246094" xlink:href="#DejaVuSans-49"/>
       <use x="190.869141" xlink:href="#DejaVuSans-48"/>
      </g>
     </g>
    </g>
    <g id="xtick_2">
     <g id="line2d_2">
      <g>
       <use style="fill:#003559;stroke:#003559;stroke-width:0.8;" x="178.203723" xlink:href="#mfadfe9acb3" y="323.6"/>
      </g>
     </g>
     <g id="text_2">
      <!-- Jul -->
      <defs>
       <path d="M 9.8125 72.90625 
L 19.671875 72.90625 
L 19.671875 5.078125 
Q 19.671875 -8.109375 14.671875 -14.0625 
Q 9.671875 -20.015625 -1.421875 -20.015625 
L -5.171875 -20.015625 
L -5.171875 -11.71875 
L -2.09375 -11.71875 
Q 4.4375 -11.71875 7.125 -8.046875 
Q 9.8125 -4.390625 9.8125 5.078125 
z
" id="DejaVuSans-74"/>
       <path d="M 8.5 21.578125 
L 8.5 54.6875 
L 17.484375 54.6875 
L 17.484375 21.921875 
Q 17.484375 14.15625 20.5 10.265625 
Q 23.53125 6.390625 29.59375 6.390625 
Q 36.859375 6.390625 41.078125 11.03125 
Q 45.3125 15.671875 45.3125 23.6875 
L 45.3125 54.6875 
L 54.296875 54.6875 
L 54.296875 0 
L 45.3125 0 
L 45.3125 8.40625 
Q 42.046875 3.421875 37.71875 1 
Q 33.40625 -1.421875 27.6875 -1.421875 
Q 18.265625 -1.421875 13.375 4.4375 
Q 8.5 10.296875 8.5 21.578125 
z
M 31.109375 56 
z
" id="DejaVuSans-117"/>
       <path d="M 9.421875 75.984375 
L 18.40625 75.984375 
L 18.40625 0 
L 9.421875 0 
z
" id="DejaVuSans-108"/>
      </defs>
      <g style="fill:#2f2235;" transform="translate(168.551223 342.7575)scale(0.16 -0.16)">
       <use xlink:href="#DejaVuSans-74"/>
       <use x="29.492188" xlink:href="#DejaVuSans-117"/>
       <use x="92.871094" xlink:href="#DejaVuSans-108"/>
      </g>
     </g>
    </g>
    <g id="xtick_3">
     <g id="line2d_3">
      <g>
       <use style="fill:#003559;stroke:#003559;stroke-width:0.8;" x="278.471797" xlink:href="#mfadfe9acb3" y="323.6"/>
      </g>
     </g>
     <g id="text_3">
      <!-- 2011 -->
      <g style="fill:#2f2235;" transform="translate(258.111797 342.7575)scale(0.16 -0.16)">
       <use xlink:href="#DejaVuSans-50"/>
       <use x="63.623047" xlink:href="#DejaVuSans-48"/>
       <use x="127.246094" xlink:href="#DejaVuSans-49"/>
       <use x="190.869141" xlink:href="#DejaVuSans-49"/>
      </g>
     </g>
    </g>
    <g id="xtick_4">
     <g id="line2d_4">
      <g>
       <use style="fill:#003559;stroke:#003559;stroke-width:0.8;" x="377.105065" xlink:href="#mfadfe9acb3" y="323.6"/>
      </g>
     </g>
     <g id="text_4">
      <!-- Jul -->
      <g style="fill:#2f2235;" transform="translate(367.452565 342.7575)scale(0.16 -0.16)">
       <use xlink:href="#DejaVuSans-74"/>
       <use x="29.492188" xlink:href="#DejaVuSans-117"/>
       <use x="92.871094" xlink:href="#DejaVuSans-108"/>
      </g>
     </g>
    </g>
    <g id="xtick_5">
     <g id="line2d_5">
      <g>
       <use style="fill:#003559;stroke:#003559;stroke-width:0.8;" x="477.373139" xlink:href="#mfadfe9acb3" y="323.6"/>
      </g>
     </g>
     <g id="text_5">
      <!-- 2012 -->
      <g style="fill:#2f2235;" transform="translate(457.013139 342.7575)scale(0.16 -0.16)">
       <use xlink:href="#DejaVuSans-50"/>
       <use x="63.623047" xlink:href="#DejaVuSans-48"/>
       <use x="127.246094" xlink:href="#DejaVuSans-49"/>
       <use x="190.869141" xlink:href="#DejaVuSans-50"/>
      </g>
     </g>
    </g>
    <g id="xtick_6">
     <g id="line2d_6">
      <g>
       <use style="fill:#003559;stroke:#003559;stroke-width:0.8;" x="576.551342" xlink:href="#mfadfe9acb3" y="323.6"/>
      </g>
     </g>
     <g id="text_6">
      <!-- Jul -->
      <g style="fill:#2f2235;" transform="translate(566.898842 342.7575)scale(0.16 -0.16)">
       <use xlink:href="#DejaVuSans-74"/>
       <use x="29.492188" xlink:href="#DejaVuSans-117"/>
       <use x="92.871094" xlink:href="#DejaVuSans-108"/>
      </g>
     </g>
    </g>
    <g id="xtick_7">
     <g id="line2d_7">
      <g>
       <use style="fill:#003559;stroke:#003559;stroke-width:0.8;" x="676.819416" xlink:href="#mfadfe9acb3" y="323.6"/>
      </g>
     </g>
     <g id="text_7">
      <!-- 2013 -->
      <defs>
       <path d="M 40.578125 39.3125 
Q 47.65625 37.796875 51.625 33 
Q 55.609375 28.21875 55.609375 21.1875 
Q 55.609375 10.40625 48.1875 4.484375 
Q 40.765625 -1.421875 27.09375 -1.421875 
Q 22.515625 -1.421875 17.65625 -0.515625 
Q 12.796875 0.390625 7.625 2.203125 
L 7.625 11.71875 
Q 11.71875 9.328125 16.59375 8.109375 
Q 21.484375 6.890625 26.8125 6.890625 
Q 36.078125 6.890625 40.9375 10.546875 
Q 45.796875 14.203125 45.796875 21.1875 
Q 45.796875 27.640625 41.28125 31.265625 
Q 36.765625 34.90625 28.71875 34.90625 
L 20.21875 34.90625 
L 20.21875 43.015625 
L 29.109375 43.015625 
Q 36.375 43.015625 40.234375 45.921875 
Q 44.09375 48.828125 44.09375 54.296875 
Q 44.09375 59.90625 40.109375 62.90625 
Q 36.140625 65.921875 28.71875 65.921875 
Q 24.65625 65.921875 20.015625 65.03125 
Q 15.375 64.15625 9.8125 62.3125 
L 9.8125 71.09375 
Q 15.4375 72.65625 20.34375 73.4375 
Q 25.25 74.21875 29.59375 74.21875 
Q 40.828125 74.21875 47.359375 69.109375 
Q 53.90625 64.015625 53.90625 55.328125 
Q 53.90625 49.265625 50.4375 45.09375 
Q 46.96875 40.921875 40.578125 39.3125 
z
" id="DejaVuSans-51"/>
      </defs>
      <g style="fill:#2f2235;" transform="translate(656.459416 342.7575)scale(0.16 -0.16)">
       <use xlink:href="#DejaVuSans-50"/>
       <use x="63.623047" xlink:href="#DejaVuSans-48"/>
       <use x="127.246094" xlink:href="#DejaVuSans-49"/>
       <use x="190.869141" xlink:href="#DejaVuSans-51"/>
      </g>
     </g>
    </g>
   </g>
   <g id="matplotlib.axis_2">
    <g id="ytick_1">
     <g id="line2d_8">
      <path clip-path="url(#pdd6d8feff9)" d="M 49.7625 278.9227 
L 705.5375 278.9227 
" style="fill:none;stroke:#f0f0f0;stroke-linecap:square;"/>
     </g>
     <g id="line2d_9">
      <defs>
       <path d="M 0 0 
L -3.5 0 
" id="m37299605c8" style="stroke:#003559;stroke-width:0.8;"/>
      </defs>
      <g>
       <use style="fill:#003559;stroke:#003559;stroke-width:0.8;" x="49.7625" xlink:href="#m37299605c8" y="278.9227"/>
      </g>
     </g>
     <g id="text_8">
      <!-- 0% -->
      <defs>
       <path d="M 72.703125 32.078125 
Q 68.453125 32.078125 66.03125 28.46875 
Q 63.625 24.859375 63.625 18.40625 
Q 63.625 12.0625 66.03125 8.421875 
Q 68.453125 4.78125 72.703125 4.78125 
Q 76.859375 4.78125 79.265625 8.421875 
Q 81.6875 12.0625 81.6875 18.40625 
Q 81.6875 24.8125 79.265625 28.4375 
Q 76.859375 32.078125 72.703125 32.078125 
z
M 72.703125 38.28125 
Q 80.421875 38.28125 84.953125 32.90625 
Q 89.5 27.546875 89.5 18.40625 
Q 89.5 9.28125 84.9375 3.921875 
Q 80.375 -1.421875 72.703125 -1.421875 
Q 64.890625 -1.421875 60.34375 3.921875 
Q 55.8125 9.28125 55.8125 18.40625 
Q 55.8125 27.59375 60.375 32.9375 
Q 64.9375 38.28125 72.703125 38.28125 
z
M 22.3125 68.015625 
Q 18.109375 68.015625 15.6875 64.375 
Q 13.28125 60.75 13.28125 54.390625 
Q 13.28125 47.953125 15.671875 44.328125 
Q 18.0625 40.71875 22.3125 40.71875 
Q 26.5625 40.71875 28.96875 44.328125 
Q 31.390625 47.953125 31.390625 54.390625 
Q 31.390625 60.6875 28.953125 64.34375 
Q 26.515625 68.015625 22.3125 68.015625 
z
M 66.40625 74.21875 
L 74.21875 74.21875 
L 28.609375 -1.421875 
L 20.796875 -1.421875 
z
M 22.3125 74.21875 
Q 30.03125 74.21875 34.609375 68.875 
Q 39.203125 63.53125 39.203125 54.390625 
Q 39.203125 45.171875 34.640625 39.84375 
Q 30.078125 34.515625 22.3125 34.515625 
Q 14.546875 34.515625 10.03125 39.859375 
Q 5.515625 45.21875 5.515625 54.390625 
Q 5.515625 63.484375 10.046875 68.84375 
Q 14.59375 74.21875 22.3125 74.21875 
z
" id="DejaVuSans-37"/>
      </defs>
      <g style="fill:#2f2235;" transform="translate(17.38 285.00145)scale(0.16 -0.16)">
       <use xlink:href="#DejaVuSans-48"/>
       <use x="63.623047" xlink:href="#DejaVuSans-37"/>
      </g>
     </g>
    </g>
    <g id="ytick_2">
     <g id="line2d_10">
      <path clip-path="url(#pdd6d8feff9)" d="M 49.7625 219.627261 
L 705.5375 219.627261 
" style="fill:none;stroke:#f0f0f0;stroke-linecap:square;"/>
     </g>
     <g id="line2d_11">
      <g>
       <use style="fill:#003559;stroke:#003559;stroke-width:0.8;" x="49.7625" xlink:href="#m37299605c8" y="219.627261"/>
      </g>
     </g>
     <g id="text_9">
      <!-- 5% -->
      <defs>
       <path d="M 10.796875 72.90625 
L 49.515625 72.90625 
L 49.515625 64.59375 
L 19.828125 64.59375 
L 19.828125 46.734375 
Q 21.96875 47.46875 24.109375 47.828125 
Q 26.265625 48.1875 28.421875 48.1875 
Q 40.625 48.1875 47.75 41.5 
Q 54.890625 34.8125 54.890625 23.390625 
Q 54.890625 11.625 47.5625 5.09375 
Q 40.234375 -1.421875 26.90625 -1.421875 
Q 22.3125 -1.421875 17.546875 -0.640625 
Q 12.796875 0.140625 7.71875 1.703125 
L 7.71875 11.625 
Q 12.109375 9.234375 16.796875 8.0625 
Q 21.484375 6.890625 26.703125 6.890625 
Q 35.15625 6.890625 40.078125 11.328125 
Q 45.015625 15.765625 45.015625 23.390625 
Q 45.015625 31 40.078125 35.4375 
Q 35.15625 39.890625 26.703125 39.890625 
Q 22.75 39.890625 18.8125 39.015625 
Q 14.890625 38.140625 10.796875 36.28125 
z
" id="DejaVuSans-53"/>
      </defs>
      <g style="fill:#2f2235;" transform="translate(17.38 225.706011)scale(0.16 -0.16)">
       <use xlink:href="#DejaVuSans-53"/>
       <use x="63.623047" xlink:href="#DejaVuSans-37"/>
      </g>
     </g>
    </g>
    <g id="ytick_3">
     <g id="line2d_12">
      <path clip-path="url(#pdd6d8feff9)" d="M 49.7625 160.331822 
L 705.5375 160.331822 
" style="fill:none;stroke:#f0f0f0;stroke-linecap:square;"/>
     </g>
     <g id="line2d_13">
      <g>
       <use style="fill:#003559;stroke:#003559;stroke-width:0.8;" x="49.7625" xlink:href="#m37299605c8" y="160.331822"/>
      </g>
     </g>
     <g id="text_10">
      <!-- 10% -->
      <g style="fill:#2f2235;" transform="translate(7.2 166.410572)scale(0.16 -0.16)">
       <use xlink:href="#DejaVuSans-49"/>
       <use x="63.623047" xlink:href="#DejaVuSans-48"/>
       <use x="127.246094" xlink:href="#DejaVuSans-37"/>
      </g>
     </g>
    </g>
    <g id="ytick_4">
     <g id="line2d_14">
      <path clip-path="url(#pdd6d8feff9)" d="M 49.7625 101.036384 
L 705.5375 101.036384 
" style="fill:none;stroke:#f0f0f0;stroke-linecap:square;"/>
     </g>
     <g id="line2d_15">
      <g>
       <use style="fill:#003559;stroke:#003559;stroke-width:0.8;" x="49.7625" xlink:href="#m37299605c8" y="101.036384"/>
      </g>
     </g>
     <g id="text_11">
      <!-- 15% -->
      <g style="fill:#2f2235;" transform="translate(7.2 107.115134)scale(0.16 -0.16)">
       <use xlink:href="#DejaVuSans-49"/>
       <use x="63.623047" xlink:href="#DejaVuSans-53"/>
       <use x="127.246094" xlink:href="#DejaVuSans-37"/>
      </g>
     </g>
    </g>
    <g id="ytick_5">
     <g id="line2d_16">
      <path clip-path="url(#pdd6d8feff9)" d="M 49.7625 41.740945 
L 705.5375 41.740945 
" style="fill:none;stroke:#f0f0f0;stroke-linecap:square;"/>
     </g>
     <g id="line2d_17">
      <g>
       <use style="fill:#003559;stroke:#003559;stroke-width:0.8;" x="49.7625" xlink:href="#m37299605c8" y="41.740945"/>
      </g>
     </g>
     <g id="text_12">
      <!-- 20% -->
      <g style="fill:#2f2235;" transform="translate(7.2 47.819695)scale(0.16 -0.16)">
       <use xlink:href="#DejaVuSans-50"/>
       <use x="63.623047" xlink:href="#DejaVuSans-48"/>
       <use x="127.246094" xlink:href="#DejaVuSans-37"/>
      </g>
     </g>
    </g>
   </g>
   <g id="line2d_18">
    <path clip-path="url(#pdd6d8feff9)" d="M 79.570455 274.589144 
L 80.11539 273.465847 
L 80.660325 273.152137 
L 81.20526 277.501788 
L 81.750195 278.076894 
L 82.29513 278.835258 
L 82.840066 278.948152 
L 83.385001 280.351065 
L 83.929936 280.371611 
L 84.474871 281.418384 
L 85.019806 284.441025 
L 86.109677 280.098117 
L 86.654612 275.956845 
L 87.199547 275.754294 
L 87.744482 276.632775 
L 88.289417 277.84463 
L 88.834353 281.427076 
L 89.379288 279.016367 
L 90.469158 284.259856 
L 91.014093 284.662373 
L 91.559029 281.066139 
L 92.103964 280.422324 
L 92.648899 282.761919 
L 93.193834 284.363361 
L 93.738769 282.803192 
L 94.283705 283.099533 
L 94.82864 284.832314 
L 95.373575 285.292155 
L 95.91851 283.450162 
L 96.463445 278.688472 
L 97.00838 281.55305 
L 97.553316 282.951501 
L 98.098251 284.766941 
L 98.643186 290.379952 
L 99.733056 294.781462 
L 100.277992 292.065852 
L 100.822927 292.292805 
L 101.367862 296.011209 
L 101.912797 294.416271 
L 102.457732 295.16773 
L 103.002667 299.156476 
L 104.092538 301.752928 
L 104.637473 303.702327 
L 105.182408 303.551699 
L 105.727343 308.680426 
L 106.272279 309.218182 
L 108.452019 299.390574 
L 108.996954 295.835958 
L 109.54189 298.365625 
L 110.086825 296.308551 
L 110.63176 300.567619 
L 111.176695 301.888868 
L 111.72163 306.251763 
L 112.266566 303.73888 
L 112.811501 300.555725 
L 113.356436 300.933517 
L 113.901371 296.713062 
L 114.446306 298.206323 
L 115.536177 297.333706 
L 116.081112 299.734062 
L 116.626047 298.631145 
L 117.170982 294.017597 
L 117.715917 296.333014 
L 118.260853 294.147088 
L 118.805788 294.426524 
L 119.350723 290.194262 
L 119.895658 288.974512 
L 120.985529 285.701861 
L 121.530464 285.031379 
L 122.075399 288.23753 
L 122.620334 284.875188 
L 123.165269 288.022703 
L 123.710204 287.378322 
L 124.25514 285.848472 
L 124.800075 287.739851 
L 125.34501 287.315532 
L 125.889945 284.478953 
L 126.43488 284.452889 
L 126.979816 286.466106 
L 127.524751 293.23537 
L 128.069686 295.428173 
L 129.159556 297.851483 
L 129.704491 300.008054 
L 130.249427 299.046817 
L 130.794362 300.304168 
L 131.339297 300.477226 
L 131.884232 298.812836 
L 132.429167 300.724219 
L 132.974103 301.341175 
L 133.519038 296.226211 
L 134.063973 294.098746 
L 134.608908 297.041522 
L 135.153843 297.145675 
L 135.698778 295.744475 
L 136.243714 292.774464 
L 136.788649 292.342759 
L 137.333584 293.503973 
L 137.878519 295.13188 
L 138.423454 293.539521 
L 138.96839 292.723537 
L 139.513325 293.851741 
L 140.05826 294.212175 
L 140.603195 295.103972 
L 141.14813 293.325096 
L 141.693065 294.858334 
L 142.238001 293.637276 
L 142.782936 291.558522 
L 143.327871 290.334408 
L 143.872806 292.209978 
L 144.417741 288.96875 
L 144.962677 290.480096 
L 145.507612 289.395481 
L 146.052547 291.082642 
L 146.597482 295.087586 
L 147.687353 293.722692 
L 148.232288 293.821754 
L 148.777223 293.09266 
L 149.867093 296.171653 
L 150.412028 296.482347 
L 150.956964 291.929974 
L 151.501899 289.934441 
L 152.046834 291.073179 
L 152.591769 289.678259 
L 153.68164 291.710304 
L 154.226575 289.609878 
L 154.77151 290.761312 
L 155.316445 294.6071 
L 155.86138 296.644673 
L 156.951251 295.974613 
L 157.496186 292.986096 
L 158.041121 294.580784 
L 158.586056 292.785154 
L 159.130991 291.703767 
L 159.675927 291.970902 
L 160.220862 289.926025 
L 160.765797 288.686401 
L 161.310732 290.630521 
L 161.855667 288.028363 
L 162.400602 290.815861 
L 162.945538 290.59334 
L 163.490473 290.505059 
L 164.035408 289.424697 
L 164.580343 291.046317 
L 165.125278 291.045844 
L 165.670214 291.293428 
L 166.215149 288.868196 
L 166.760084 290.65611 
L 167.305019 290.402718 
L 167.849954 290.933664 
L 168.394889 293.894957 
L 168.939825 287.528291 
L 169.48476 287.613228 
L 170.029695 291.025768 
L 170.57463 287.631454 
L 171.119565 290.066773 
L 171.664501 289.112441 
L 172.209436 286.999006 
L 172.754371 288.44282 
L 173.299306 289.373551 
L 173.844241 290.560459 
L 174.389176 290.781708 
L 174.934112 294.502975 
L 175.479047 297.309544 
L 176.023982 297.556195 
L 176.568917 295.045966 
L 177.113852 293.48469 
L 177.658788 289.343558 
L 178.203723 287.627983 
L 178.748658 288.74811 
L 179.293593 288.954373 
L 179.838528 293.637357 
L 180.928399 298.104755 
L 181.473334 297.39111 
L 182.018269 295.795356 
L 183.108139 298.314448 
L 183.653075 301.835297 
L 184.19801 302.050704 
L 184.742945 301.391655 
L 185.28788 300.27206 
L 185.832815 302.011925 
L 186.377751 297.296144 
L 186.922686 294.419996 
L 187.467621 294.560654 
L 188.012556 295.711734 
L 188.557491 296.381307 
L 189.102426 295.945919 
L 189.647362 295.907305 
L 190.192297 294.694095 
L 190.737232 292.810742 
L 191.827102 286.738538 
L 192.372038 286.915437 
L 192.916973 285.917566 
L 193.461908 286.747188 
L 194.006843 288.047252 
L 194.551778 283.45835 
L 195.096713 284.461386 
L 195.641649 279.669101 
L 196.186584 280.412889 
L 196.731519 279.730539 
L 197.276454 277.062118 
L 197.821389 276.921794 
L 198.366325 275.903865 
L 198.91126 276.394173 
L 199.456195 277.440439 
L 200.00113 277.750622 
L 200.546065 279.20882 
L 201.091 275.25048 
L 201.635936 275.565805 
L 202.180871 271.377431 
L 202.725806 277.685919 
L 203.270741 277.558731 
L 203.815676 276.140051 
L 204.360612 276.754865 
L 204.905547 274.067256 
L 205.450482 272.459027 
L 205.995417 273.02993 
L 206.540352 271.908741 
L 207.085288 265.096808 
L 208.175158 263.603921 
L 208.720093 264.576152 
L 209.265028 264.171257 
L 209.809963 267.179018 
L 210.354899 267.569737 
L 210.899834 261.585927 
L 211.444769 258.93018 
L 211.989704 257.297333 
L 212.534639 254.543273 
L 213.079575 249.894364 
L 213.62451 248.365661 
L 214.169445 243.231044 
L 214.71438 240.52846 
L 215.259315 240.034564 
L 215.80425 235.728904 
L 216.349186 241.428687 
L 216.894121 242.739971 
L 217.439056 242.004216 
L 217.983991 244.147044 
L 218.528926 244.442202 
L 219.618797 247.423423 
L 220.163732 240.716401 
L 220.708667 239.093082 
L 221.253602 239.139176 
L 221.798537 235.824568 
L 222.343473 236.32146 
L 222.888408 234.057727 
L 223.433343 233.1073 
L 223.978278 229.006932 
L 224.523213 232.424755 
L 225.068149 230.449188 
L 225.613084 230.060556 
L 226.158019 232.828863 
L 226.702954 230.114078 
L 227.247889 232.179835 
L 227.792824 228.094523 
L 228.33776 226.737727 
L 228.882695 224.92723 
L 229.42763 224.640525 
L 229.972565 222.307585 
L 230.5175 226.848163 
L 231.062436 226.576092 
L 231.607371 228.044055 
L 232.152306 227.25769 
L 232.697241 227.287421 
L 233.242176 225.673297 
L 233.787112 227.660518 
L 234.332047 223.014163 
L 234.876982 217.16138 
L 235.421917 217.593345 
L 235.966852 217.543026 
L 236.511787 216.737759 
L 237.056723 213.490419 
L 237.601658 208.645768 
L 238.146593 211.583455 
L 238.691528 213.036289 
L 239.781399 218.294389 
L 240.326334 222.287249 
L 240.871269 221.297918 
L 241.416204 224.089973 
L 241.961139 220.266563 
L 242.506074 217.915943 
L 243.595945 222.86788 
L 244.14088 224.300874 
L 244.685815 220.735162 
L 245.23075 222.760052 
L 245.775686 226.377659 
L 246.320621 226.413026 
L 246.865556 225.400738 
L 247.410491 226.94191 
L 247.955426 222.838761 
L 248.500361 222.153981 
L 249.045297 220.940081 
L 249.590232 222.979354 
L 250.135167 222.990742 
L 250.680102 223.292159 
L 251.225037 228.834644 
L 251.769973 228.036421 
L 252.314908 232.381454 
L 252.859843 232.365779 
L 253.404778 235.907219 
L 253.949713 230.846451 
L 254.494648 229.954186 
L 255.584519 225.375052 
L 256.129454 228.567105 
L 256.674389 234.109544 
L 257.219324 234.834062 
L 257.76426 232.538482 
L 258.309195 232.227462 
L 259.399065 227.801006 
L 259.944 231.401088 
L 260.488936 230.604457 
L 261.033871 225.653648 
L 261.578806 226.979819 
L 262.123741 231.906361 
L 262.668676 232.391445 
L 263.213611 233.449715 
L 263.758547 232.332281 
L 264.303482 234.443619 
L 264.848417 234.133862 
L 265.393352 239.493593 
L 265.938287 237.312738 
L 267.028158 230.036538 
L 267.573093 233.686302 
L 268.118028 232.813502 
L 268.662963 240.058129 
L 269.207898 239.278114 
L 269.752834 239.349722 
L 270.297769 241.701978 
L 270.842704 240.774642 
L 271.387639 240.350654 
L 271.932574 237.961451 
L 272.47751 237.562768 
L 273.022445 236.899442 
L 273.56738 241.581016 
L 274.112315 244.329206 
L 274.65725 245.404615 
L 275.202185 244.594673 
L 275.747121 244.524272 
L 276.292056 240.769638 
L 276.836991 242.81215 
L 277.381926 243.311822 
L 277.926861 242.602584 
L 278.471797 243.082465 
L 279.016732 241.78495 
L 279.561667 243.093931 
L 280.106602 239.532303 
L 280.651537 240.229165 
L 281.196472 237.406662 
L 281.741408 237.394777 
L 282.286343 233.641275 
L 282.831278 236.992858 
L 283.376213 235.636717 
L 283.921148 236.61337 
L 284.466084 235.958443 
L 285.011019 232.936744 
L 286.645824 241.172783 
L 287.19076 240.464 
L 287.735695 244.989917 
L 288.28063 244.668474 
L 289.3705 250.41325 
L 289.915435 251.22429 
L 290.460371 250.214774 
L 291.005306 251.650257 
L 291.550241 252.758353 
L 292.095176 252.774593 
L 292.640111 253.350403 
L 293.185047 259.733483 
L 293.729982 260.685028 
L 294.274917 260.395735 
L 294.819852 257.663572 
L 295.364787 252.627711 
L 295.909722 250.924259 
L 296.454658 250.646881 
L 296.999593 252.90224 
L 297.544528 252.601164 
L 298.089463 250.625944 
L 298.634398 247.465413 
L 299.179334 249.521915 
L 299.724269 248.8617 
L 300.269204 246.790968 
L 300.814139 242.163496 
L 301.359074 241.452343 
L 301.904009 242.690654 
L 302.448945 244.289279 
L 302.99388 245.075776 
L 303.538815 246.579479 
L 304.08375 244.47818 
L 304.628685 241.779561 
L 305.173621 239.919104 
L 305.718556 236.908664 
L 306.263491 237.936309 
L 306.808426 236.916384 
L 307.353361 237.774442 
L 307.898296 237.581033 
L 308.443232 234.484141 
L 308.988167 234.470829 
L 309.533102 238.964887 
L 310.078037 239.498442 
L 310.622972 241.158145 
L 311.167908 244.759666 
L 311.712843 246.601122 
L 312.257778 244.172551 
L 312.802713 239.975916 
L 313.347648 241.08724 
L 314.437519 235.565406 
L 314.982454 238.32728 
L 316.072324 238.360476 
L 316.617259 237.85131 
L 317.162195 241.670112 
L 317.70713 242.438009 
L 318.797 236.580209 
L 319.341935 231.986561 
L 319.886871 232.731872 
L 320.431806 228.029478 
L 320.976741 226.294141 
L 321.521676 229.569589 
L 322.066611 227.599619 
L 322.611546 228.38411 
L 323.156482 227.012819 
L 323.701417 227.179614 
L 324.246352 224.098032 
L 324.791287 223.373964 
L 325.336222 223.987986 
L 325.881158 221.50354 
L 326.426093 220.7788 
L 326.971028 221.71848 
L 327.515963 218.451223 
L 328.060898 219.381175 
L 329.150769 222.134109 
L 329.695704 225.683957 
L 330.240639 226.967203 
L 330.785574 222.264254 
L 331.330509 224.432228 
L 331.875445 224.32415 
L 332.42038 226.98352 
L 332.965315 228.409214 
L 333.51025 224.56084 
L 334.055185 222.248061 
L 334.60012 223.676472 
L 335.145056 223.573787 
L 337.324796 231.693712 
L 337.869732 230.802833 
L 338.959602 227.948126 
L 339.504537 228.280289 
L 340.049472 231.547632 
L 340.594408 231.626475 
L 341.139343 233.817531 
L 341.684278 231.559146 
L 342.229213 230.099105 
L 342.774148 228.166382 
L 343.319083 228.940845 
L 343.864019 233.322631 
L 344.408954 230.874322 
L 344.953889 227.757201 
L 345.498824 231.335009 
L 346.043759 230.907995 
L 346.588695 227.872771 
L 347.13363 230.444399 
L 347.678565 225.985591 
L 348.2235 226.763064 
L 348.768435 229.336175 
L 349.31337 225.855083 
L 349.858306 225.03789 
L 350.403241 226.569311 
L 350.948176 224.301383 
L 351.493111 229.057422 
L 352.038046 224.475469 
L 352.582982 226.411653 
L 353.127917 225.616012 
L 353.672852 226.516523 
L 354.217787 225.348546 
L 354.762722 223.058172 
L 355.307657 225.015503 
L 355.852593 222.976791 
L 356.397528 223.619628 
L 356.942463 225.238885 
L 357.487398 225.707111 
L 358.032333 228.107356 
L 358.577269 229.987039 
L 359.122204 227.553783 
L 359.667139 227.840001 
L 360.212074 224.925492 
L 360.757009 223.767122 
L 361.301944 226.224038 
L 361.84688 230.829827 
L 362.391815 232.438155 
L 362.93675 231.700294 
L 363.481685 231.591878 
L 364.02662 233.551049 
L 364.571556 230.967684 
L 365.116491 235.181714 
L 365.661426 238.186992 
L 366.206361 237.788415 
L 366.751296 232.306272 
L 367.296232 231.198773 
L 367.841167 233.589933 
L 368.931037 230.270117 
L 369.475972 227.865317 
L 370.020907 228.792001 
L 370.565843 230.680662 
L 371.110778 230.30206 
L 371.655713 229.189446 
L 372.200648 225.146299 
L 372.745583 219.866938 
L 373.290519 221.60351 
L 373.835454 222.815878 
L 374.380389 222.886492 
L 374.925324 223.419488 
L 376.015194 220.830142 
L 376.56013 220.100839 
L 377.105065 216.662594 
L 377.65 216.970519 
L 378.194935 219.502759 
L 378.73987 223.296358 
L 379.829741 228.257792 
L 380.374676 232.82042 
L 380.919611 231.098511 
L 381.464546 230.55453 
L 382.009481 231.511088 
L 382.554417 233.617634 
L 383.099352 237.418178 
L 383.644287 239.587735 
L 384.189222 234.964635 
L 384.734157 240.30452 
L 385.279093 239.87107 
L 385.824028 237.961629 
L 386.368963 237.541288 
L 386.913898 238.23245 
L 387.458833 236.260411 
L 388.003768 238.882288 
L 388.548704 237.43312 
L 389.093639 233.829496 
L 389.638574 236.304346 
L 390.183509 238.230856 
L 390.728444 237.811077 
L 391.27338 235.293799 
L 391.818315 231.90966 
L 392.36325 230.143414 
L 392.908185 231.708889 
L 393.45312 234.367757 
L 393.998056 233.683125 
L 394.542991 232.615497 
L 395.087926 235.238325 
L 395.632861 235.004839 
L 396.177796 234.100874 
L 396.722731 231.439107 
L 397.267667 233.793667 
L 397.812602 232.334985 
L 398.357537 235.127441 
L 398.902472 236.089778 
L 399.447407 236.195769 
L 399.992343 232.373543 
L 400.537278 224.089717 
L 401.082213 223.373129 
L 401.627148 222.055401 
L 402.172083 219.461045 
L 402.717018 222.760662 
L 403.261954 220.769746 
L 403.806889 223.768284 
L 404.896759 215.942655 
L 405.441694 214.601417 
L 405.98663 216.529168 
L 406.531565 212.269775 
L 407.0765 211.530963 
L 407.621435 211.166479 
L 408.16637 209.624305 
L 408.711305 213.827722 
L 409.256241 212.667142 
L 409.801176 210.081881 
L 410.346111 209.14261 
L 410.891046 208.689467 
L 411.435981 210.994914 
L 411.980917 209.291802 
L 412.525852 208.700017 
L 413.070787 208.588948 
L 413.615722 209.91499 
L 414.160657 207.675941 
L 414.705592 204.447628 
L 415.250528 203.380158 
L 415.795463 201.026887 
L 416.885333 193.460744 
L 417.430268 192.797437 
L 417.975204 193.250666 
L 418.520139 194.216194 
L 419.065074 194.091942 
L 419.610009 192.598935 
L 420.154944 190.119926 
L 420.69988 191.117882 
L 421.244815 190.646514 
L 421.78975 193.094252 
L 422.334685 189.785706 
L 422.87962 190.694021 
L 423.424555 189.691986 
L 423.969491 191.435758 
L 424.514426 192.105722 
L 425.059361 193.761354 
L 425.604296 189.33004 
L 426.149231 188.32325 
L 426.694167 188.658416 
L 427.239102 190.985301 
L 427.784037 192.449776 
L 428.328972 190.912193 
L 428.873907 186.57076 
L 429.418842 190.134033 
L 429.963778 192.380367 
L 430.508713 192.73824 
L 431.053648 194.246359 
L 431.598583 198.366619 
L 432.143518 198.228682 
L 432.688454 196.23554 
L 433.233389 200.141779 
L 433.778324 199.519133 
L 434.868194 194.408899 
L 435.413129 195.386051 
L 435.958065 189.431393 
L 436.503 187.924873 
L 437.047935 189.904894 
L 437.59287 187.30281 
L 438.137805 190.07827 
L 438.682741 187.703964 
L 439.227676 190.833962 
L 439.772611 188.728376 
L 440.317546 190.127282 
L 440.862481 187.147541 
L 441.407416 185.16349 
L 441.952352 183.928392 
L 442.497287 183.68813 
L 443.042222 180.809602 
L 443.587157 185.34239 
L 444.677028 182.995507 
L 445.221963 181.463324 
L 445.766898 179.250499 
L 446.311833 169.604508 
L 446.856768 169.210887 
L 447.401704 167.033338 
L 447.946639 166.546537 
L 448.491574 162.365019 
L 449.036509 167.527287 
L 449.581444 163.022788 
L 450.126379 164.71056 
L 450.671315 170.488671 
L 451.21625 173.185961 
L 451.761185 173.545955 
L 452.30612 172.953403 
L 452.851055 172.981168 
L 453.395991 170.778075 
L 454.485861 170.85076 
L 455.030796 176.295653 
L 455.575731 174.948458 
L 456.120666 172.248784 
L 456.665602 173.245053 
L 457.210537 177.994347 
L 457.755472 181.339271 
L 458.300407 176.945544 
L 459.390278 180.034052 
L 459.935213 182.047821 
L 460.480148 180.209484 
L 461.025083 181.628717 
L 461.570018 183.767026 
L 462.114953 187.530935 
L 462.659889 187.716524 
L 463.204824 185.067361 
L 463.749759 185.356013 
L 464.294694 183.006367 
L 465.9295 181.447564 
L 466.474435 181.268939 
L 467.01937 178.541427 
L 467.564305 177.19527 
L 468.10924 178.592795 
L 468.654176 178.171444 
L 469.199111 178.276482 
L 469.744046 176.937571 
L 470.288981 176.382468 
L 470.833916 175.223057 
L 471.378852 178.937384 
L 471.923787 177.870328 
L 472.468722 174.394046 
L 473.013657 177.783563 
L 473.558592 173.565246 
L 474.103528 172.706997 
L 474.648463 173.152971 
L 475.193398 177.715738 
L 475.738333 174.822293 
L 476.283268 177.230823 
L 476.828203 178.456153 
L 477.373139 176.96039 
L 479.007944 184.813634 
L 479.552879 185.008733 
L 480.097815 183.411333 
L 481.187685 181.152254 
L 481.73262 181.945413 
L 482.277555 181.494748 
L 482.82249 183.174551 
L 483.367426 177.953188 
L 483.912361 177.361417 
L 484.457296 182.295412 
L 485.002231 184.945373 
L 485.547166 180.749577 
L 486.092102 184.164135 
L 486.637037 185.194784 
L 487.181972 184.071358 
L 487.726907 186.787473 
L 488.271842 183.968199 
L 488.816777 179.569278 
L 489.361713 181.597347 
L 489.906648 178.605365 
L 490.996518 183.275854 
L 492.086389 181.855344 
L 492.631324 183.293755 
L 493.176259 181.043531 
L 493.721194 184.720254 
L 494.266129 186.819247 
L 494.811064 189.481699 
L 496.44587 183.512807 
L 496.990805 186.738829 
L 497.53574 186.30954 
L 498.080676 185.048811 
L 498.625611 189.091224 
L 499.170546 191.096508 
L 500.260416 187.474454 
L 500.805352 186.732401 
L 501.350287 185.256059 
L 501.895222 184.336377 
L 502.440157 183.862343 
L 502.985092 184.052199 
L 503.530027 186.192607 
L 504.074963 186.730554 
L 504.619898 187.670302 
L 505.164833 181.646024 
L 505.709768 180.88773 
L 506.254703 180.824945 
L 506.799639 181.330314 
L 507.344574 181.535812 
L 507.889509 182.144263 
L 508.434444 180.655867 
L 508.979379 180.641227 
L 509.524314 178.46596 
L 510.06925 180.162923 
L 510.614185 179.172371 
L 511.15912 176.824413 
L 511.704055 179.704043 
L 512.24899 179.182394 
L 512.793926 178.456537 
L 513.338861 179.227107 
L 513.883796 180.38881 
L 514.428731 185.055081 
L 514.973666 182.021066 
L 515.518601 184.32236 
L 516.063537 187.405247 
L 516.608472 185.633358 
L 517.153407 190.222875 
L 517.698342 187.675152 
L 518.243277 186.475687 
L 518.788213 184.855663 
L 519.333148 185.185485 
L 519.878083 188.20751 
L 520.423018 192.931495 
L 520.967953 189.130587 
L 522.057824 191.471471 
L 522.602759 187.345972 
L 523.147694 188.868485 
L 524.237564 189.900751 
L 524.7825 190.161612 
L 525.327435 192.719337 
L 525.87237 194.054528 
L 526.417305 190.693629 
L 526.96224 188.662979 
L 527.507176 196.149856 
L 528.052111 201.020812 
L 528.597046 200.088328 
L 529.141981 200.28513 
L 529.686916 201.143166 
L 530.231851 198.416008 
L 530.776787 202.838479 
L 531.321722 199.718169 
L 531.866657 199.296219 
L 532.411592 197.818348 
L 532.956527 197.087033 
L 533.501463 194.850573 
L 534.046398 195.397021 
L 534.591333 196.683862 
L 535.136268 194.610736 
L 535.681203 194.076501 
L 536.226138 197.171193 
L 537.860944 186.715107 
L 538.405879 186.42151 
L 538.950814 185.435021 
L 539.49575 186.321074 
L 540.040685 188.716505 
L 540.58562 188.459681 
L 541.130555 187.91927 
L 541.67549 189.521087 
L 542.220425 184.755707 
L 542.765361 188.796326 
L 543.855231 192.40603 
L 544.400166 189.026185 
L 544.945101 189.591103 
L 545.490037 190.330001 
L 546.579907 194.350298 
L 547.124842 197.571895 
L 547.669777 194.906121 
L 548.214712 193.269313 
L 548.759648 190.65948 
L 549.304583 192.256838 
L 549.849518 185.757645 
L 550.394453 188.175792 
L 550.939388 193.319691 
L 551.484324 193.972991 
L 552.029259 193.535068 
L 552.574194 191.521049 
L 553.119129 194.020103 
L 553.664064 192.42805 
L 554.209 187.984718 
L 555.29887 191.865024 
L 555.843805 196.103842 
L 556.38874 195.403093 
L 558.023546 188.878245 
L 558.568481 185.169303 
L 559.113416 184.753122 
L 559.658351 182.221399 
L 560.748222 186.503882 
L 561.293157 185.798022 
L 561.838092 187.799106 
L 562.383027 186.248235 
L 562.927962 182.637038 
L 563.472898 181.511595 
L 564.562768 185.139837 
L 565.107703 181.550367 
L 565.652638 183.507137 
L 566.197574 183.188144 
L 566.742509 183.761551 
L 567.287444 183.535636 
L 567.832379 180.632744 
L 568.377314 181.925661 
L 568.922249 185.44944 
L 569.467185 181.639199 
L 570.01212 180.976493 
L 570.557055 179.021301 
L 571.10199 178.980754 
L 571.646925 176.888858 
L 572.736796 169.91165 
L 573.281731 170.528685 
L 573.826666 171.349032 
L 574.371601 170.236124 
L 574.916536 169.608569 
L 575.461472 168.050927 
L 576.006407 169.802456 
L 576.551342 175.718976 
L 577.096277 174.467505 
L 578.186148 170.604706 
L 578.731083 166.210903 
L 579.276018 163.904133 
L 579.820953 164.822753 
L 580.365888 162.166541 
L 580.910824 162.296253 
L 581.455759 158.930251 
L 582.000694 158.216687 
L 582.545629 156.939094 
L 583.090564 156.251305 
L 583.635499 156.016656 
L 584.180435 159.836547 
L 584.72537 159.594096 
L 585.270305 165.421732 
L 585.81524 164.035958 
L 586.360175 161.361212 
L 586.905111 155.911124 
L 587.450046 154.83941 
L 587.994981 156.623324 
L 588.539916 160.684049 
L 589.084851 155.501752 
L 589.629786 159.139573 
L 590.174722 156.706977 
L 590.719657 162.63533 
L 591.264592 162.677897 
L 591.809527 160.8057 
L 592.354462 159.86547 
L 592.899398 159.882161 
L 593.989268 164.210232 
L 594.534203 161.492288 
L 595.079138 160.26429 
L 595.624073 160.591548 
L 596.169009 159.960217 
L 596.713944 162.284879 
L 597.258879 159.527245 
L 597.803814 156.139196 
L 598.348749 158.086926 
L 598.893685 157.728396 
L 599.43862 154.893114 
L 599.983555 156.481587 
L 600.52849 151.054522 
L 601.073425 146.986632 
L 601.61836 147.628875 
L 602.163296 144.955097 
L 602.708231 140.466921 
L 603.253166 143.665222 
L 603.798101 141.935029 
L 604.343036 142.223932 
L 604.887972 142.703665 
L 605.432907 140.73103 
L 605.977842 141.900839 
L 607.067712 149.16126 
L 607.612647 149.120711 
L 608.157583 147.372165 
L 608.702518 147.342473 
L 609.247453 147.651916 
L 609.792388 147.640461 
L 610.337323 144.146707 
L 610.882259 142.651908 
L 611.427194 144.530093 
L 611.972129 145.199685 
L 612.517064 141.923376 
L 613.061999 143.364976 
L 613.606935 144.315009 
L 614.15187 144.288385 
L 614.696805 147.005287 
L 615.24174 144.532011 
L 615.786675 150.208491 
L 616.33161 146.294257 
L 616.876546 147.3487 
L 617.421481 150.563216 
L 617.966416 149.728631 
L 618.511351 154.129682 
L 619.056286 152.628081 
L 619.601222 150.503825 
L 620.146157 151.924542 
L 620.691092 152.853097 
L 621.236027 150.268871 
L 621.780962 151.938881 
L 622.325897 151.787502 
L 622.870833 150.781952 
L 623.415768 146.583165 
L 623.960703 147.816284 
L 624.505638 147.632347 
L 625.050573 144.554012 
L 625.595509 151.195625 
L 626.140444 151.80977 
L 627.230314 161.436581 
L 627.775249 156.233197 
L 628.320184 155.588096 
L 628.86512 151.605533 
L 629.410055 152.147167 
L 629.95499 150.635141 
L 630.499925 151.676943 
L 631.04486 153.020417 
L 631.589796 153.124029 
L 632.134731 152.695091 
L 632.679666 148.572681 
L 633.224601 148.998246 
L 633.769536 147.905693 
L 634.314471 148.489694 
L 634.859407 148.015692 
L 635.404342 151.372005 
L 635.949277 148.409267 
L 636.494212 149.687501 
L 637.039147 149.485799 
L 637.584083 149.956623 
L 638.129018 147.272087 
L 638.673953 145.804011 
L 639.218888 145.677013 
L 639.763823 145.122468 
L 640.308759 144.122847 
L 640.853694 142.030008 
L 641.398629 140.595037 
L 641.943564 137.093499 
L 642.488499 132.695216 
L 643.033434 130.963486 
L 643.57837 134.393682 
L 644.123305 129.640909 
L 644.66824 123.793212 
L 645.75811 125.690269 
L 646.303046 131.09949 
L 646.847981 128.925369 
L 647.392916 131.521752 
L 647.937851 126.540244 
L 648.482786 133.060904 
L 649.027721 132.774431 
L 649.572657 130.882561 
L 650.117592 131.861699 
L 650.662527 133.887116 
L 651.207462 133.129917 
L 651.752397 134.440851 
L 652.297333 135.260438 
L 652.842268 135.271699 
L 653.387203 136.659486 
L 653.932138 137.171702 
L 654.477073 134.987239 
L 655.022008 135.933461 
L 655.566944 135.398925 
L 656.111879 137.313612 
L 656.656814 134.793152 
L 657.201749 138.119039 
L 657.746684 135.485331 
L 658.29162 143.416129 
L 658.836555 145.729303 
L 659.38149 149.824469 
L 659.926425 147.062956 
L 660.47136 146.262382 
L 661.016295 149.625725 
L 661.561231 151.044295 
L 662.106166 147.434602 
L 662.651101 147.519668 
L 663.196036 145.974823 
L 664.285907 153.785576 
L 664.830842 152.236379 
L 665.375777 146.12206 
L 665.920712 147.502829 
L 666.465647 145.906502 
L 667.010583 148.361716 
L 667.555518 145.031422 
L 668.645388 147.323106 
L 669.190323 152.275888 
L 669.735258 153.344657 
L 670.280194 152.838157 
L 670.825129 149.200867 
L 671.370064 152.27402 
L 671.914999 149.684285 
L 673.00487 151.327589 
L 673.549805 153.812801 
L 674.09474 158.267439 
L 674.639675 161.440443 
L 675.18461 157.205663 
L 675.729545 160.331822 
L 675.729545 160.331822 
" style="fill:none;stroke:#6083a9;stroke-linecap:square;stroke-width:2;"/>
   </g>
   <g id="line2d_19">
    <path clip-path="url(#pdd6d8feff9)" d="M 79.570455 280.286578 
L 80.11539 279.000333 
L 80.660325 278.333026 
L 81.20526 276.053914 
L 81.750195 276.916443 
L 82.29513 275.263846 
L 82.840066 271.964221 
L 83.385001 270.151677 
L 83.929936 272.212789 
L 84.474871 271.243534 
L 85.019806 268.807257 
L 85.564742 266.895336 
L 86.109677 267.929892 
L 86.654612 261.41661 
L 87.199547 261.473841 
L 87.744482 264.643261 
L 88.289417 266.01353 
L 88.834353 266.709089 
L 89.379288 264.056401 
L 90.469158 266.867976 
L 91.014093 266.043208 
L 91.559029 264.422449 
L 92.103964 261.562224 
L 92.648899 261.51999 
L 93.193834 262.818543 
L 93.738769 262.223216 
L 94.283705 258.159376 
L 94.82864 256.821601 
L 95.373575 254.583341 
L 95.91851 254.566559 
L 96.463445 252.888608 
L 97.00838 256.193996 
L 97.553316 255.796099 
L 98.098251 254.997909 
L 99.188121 251.981644 
L 99.733056 246.922047 
L 100.822927 239.899432 
L 101.367862 238.38984 
L 101.912797 235.422959 
L 102.457732 233.784225 
L 103.002667 235.670354 
L 104.092538 239.947686 
L 104.637473 241.796284 
L 105.182408 238.446608 
L 106.272279 233.660683 
L 106.817214 236.16332 
L 107.362149 235.654039 
L 107.907084 233.458478 
L 108.452019 232.575521 
L 108.996954 230.898694 
L 110.086825 232.210513 
L 110.63176 231.408617 
L 111.176695 235.566211 
L 111.72163 235.190069 
L 112.266566 239.375366 
L 112.811501 233.978881 
L 113.356436 230.766459 
L 113.901371 229.779221 
L 114.446306 228.071478 
L 114.991241 229.228676 
L 115.536177 227.484317 
L 116.081112 225.209843 
L 116.626047 224.099441 
L 117.170982 221.575184 
L 117.715917 222.284797 
L 118.260853 218.801937 
L 118.805788 218.786075 
L 119.350723 214.864276 
L 119.895658 214.240668 
L 120.440593 209.638889 
L 120.985529 203.885895 
L 121.530464 202.973956 
L 122.075399 201.267838 
L 122.620334 201.877727 
L 123.165269 198.713087 
L 123.710204 198.507713 
L 124.25514 196.413077 
L 124.800075 195.638229 
L 125.34501 194.250891 
L 125.889945 189.865132 
L 126.43488 188.487414 
L 126.979816 186.109748 
L 127.524751 185.993891 
L 128.069686 187.684925 
L 128.614621 185.378991 
L 129.159556 186.293958 
L 129.704491 179.64117 
L 130.249427 179.00724 
L 130.794362 174.175543 
L 131.884232 179.817255 
L 132.429167 185.668593 
L 132.974103 185.000702 
L 133.519038 185.561211 
L 134.063973 182.983398 
L 134.608908 183.464692 
L 135.153843 185.883216 
L 135.698778 182.478599 
L 136.243714 178.328494 
L 136.788649 176.50121 
L 137.333584 181.174972 
L 137.878519 184.350968 
L 140.05826 170.631589 
L 140.603195 169.603638 
L 141.14813 171.27621 
L 141.693065 173.953271 
L 142.238001 173.817096 
L 142.782936 170.300003 
L 143.327871 171.03939 
L 143.872806 174.299116 
L 144.417741 168.773718 
L 144.962677 170.834225 
L 145.507612 168.742542 
L 146.052547 164.586023 
L 147.142417 168.864515 
L 147.687353 167.927278 
L 148.232288 166.002623 
L 148.777223 163.205565 
L 149.322158 163.274573 
L 149.867093 162.379779 
L 150.412028 159.443024 
L 150.956964 158.622323 
L 151.501899 161.195842 
L 152.046834 161.60907 
L 152.591769 161.376991 
L 153.136704 157.466826 
L 153.68164 160.186125 
L 154.226575 161.274837 
L 154.77151 162.864183 
L 155.316445 167.347786 
L 155.86138 166.73931 
L 156.406315 167.301261 
L 156.951251 168.264667 
L 157.496186 171.24501 
L 158.586056 169.316946 
L 159.130991 168.011983 
L 159.675927 169.105357 
L 160.220862 169.024306 
L 160.765797 169.797058 
L 161.310732 168.794566 
L 162.400602 174.995666 
L 163.490473 170.564287 
L 164.035408 169.270556 
L 164.580343 169.302529 
L 165.125278 168.406015 
L 165.670214 168.722247 
L 166.215149 174.595674 
L 166.760084 172.962331 
L 167.305019 174.337099 
L 167.849954 173.76966 
L 168.394889 170.243276 
L 168.939825 168.492628 
L 169.48476 169.255137 
L 170.029695 167.477998 
L 170.57463 163.820624 
L 171.119565 160.945674 
L 171.664501 160.60772 
L 172.209436 161.710973 
L 172.754371 160.088326 
L 173.299306 155.500432 
L 173.844241 155.490284 
L 174.389176 153.010648 
L 174.934112 153.269463 
L 175.479047 148.457281 
L 176.023982 146.956311 
L 176.568917 143.746748 
L 177.113852 142.450389 
L 177.658788 138.643797 
L 178.748658 137.11465 
L 179.293593 139.529688 
L 180.383464 130.343864 
L 180.928399 129.078306 
L 182.018269 133.228972 
L 182.563204 139.747218 
L 183.108139 137.983974 
L 183.653075 140.054158 
L 184.19801 140.533595 
L 184.742945 139.838381 
L 185.832815 135.684041 
L 186.377751 136.691588 
L 186.922686 134.256586 
L 187.467621 137.030461 
L 188.012556 135.224988 
L 188.557491 130.994467 
L 189.102426 131.929734 
L 189.647362 126.46635 
L 190.192297 122.953465 
L 190.737232 124.749114 
L 191.282167 123.924838 
L 191.827102 120.045512 
L 192.372038 119.362813 
L 192.916973 115.295455 
L 193.461908 112.852815 
L 194.006843 107.339918 
L 194.551778 103.979502 
L 195.096713 103.460588 
L 195.641649 101.261507 
L 196.186584 97.481131 
L 196.731519 97.845645 
L 197.276454 96.154452 
L 197.821389 101.295415 
L 198.366325 99.236917 
L 198.91126 96.046506 
L 199.456195 99.10224 
L 200.00113 95.68209 
L 200.546065 94.670347 
L 201.091 92.081099 
L 201.635936 91.522842 
L 202.180871 90.064874 
L 202.725806 85.866444 
L 203.270741 88.06791 
L 203.815676 86.611411 
L 204.360612 88.085591 
L 204.905547 83.789995 
L 205.450482 83.266261 
L 205.995417 87.82159 
L 206.540352 89.016381 
L 207.085288 87.89281 
L 207.630223 87.366954 
L 208.175158 88.060546 
L 208.720093 86.068224 
L 209.265028 89.434341 
L 209.809963 89.975334 
L 210.354899 88.447526 
L 210.899834 83.135923 
L 211.444769 86.640999 
L 211.989704 81.9961 
L 213.079575 78.25382 
L 213.62451 81.135225 
L 214.169445 82.02378 
L 214.71438 78.312352 
L 215.259315 79.494398 
L 215.80425 79.431758 
L 216.349186 77.842675 
L 216.894121 81.575372 
L 217.439056 82.629311 
L 217.983991 84.229774 
L 218.528926 84.648428 
L 219.073862 82.0178 
L 220.163732 82.38733 
L 220.708667 82.19221 
L 221.253602 76.495995 
L 221.798537 74.91186 
L 222.343473 74.487156 
L 222.888408 79.286404 
L 223.433343 75.063022 
L 223.978278 72.809263 
L 224.523213 68.758066 
L 225.068149 66.760726 
L 225.613084 70.648865 
L 226.158019 67.350915 
L 226.702954 65.109148 
L 227.247889 69.801522 
L 228.33776 69.179412 
L 228.882695 71.680603 
L 229.42763 76.381304 
L 229.972565 74.34962 
L 230.5175 73.420466 
L 231.062436 75.572846 
L 231.607371 69.661344 
L 232.152306 67.803551 
L 232.697241 69.743847 
L 233.242176 61.719907 
L 233.787112 62.058144 
L 234.332047 60.246966 
L 234.876982 61.547952 
L 235.421917 59.156801 
L 236.511787 52.670814 
L 237.056723 48.047905 
L 237.601658 53.740381 
L 238.146593 54.635972 
L 238.691528 52.822331 
L 239.236463 48.498295 
L 239.781399 46.509943 
L 240.326334 46.654844 
L 240.871269 50.197948 
L 241.416204 50.806792 
L 241.961139 53.196685 
L 242.506074 50.977294 
L 243.05101 52.469988 
L 243.595945 49.227877 
L 244.14088 54.498093 
L 244.685815 55.240766 
L 245.775686 48.539186 
L 246.320621 55.158553 
L 246.865556 55.707299 
L 247.410491 58.331205 
L 247.955426 61.575794 
L 248.500361 59.282484 
L 249.045297 59.573929 
L 249.590232 60.335981 
L 250.135167 56.513661 
L 250.680102 56.996055 
L 251.225037 57.987835 
L 251.769973 57.419436 
L 252.314908 55.125443 
L 252.859843 58.999868 
L 253.404778 58.960663 
L 253.949713 60.356289 
L 254.494648 56.961725 
L 255.039584 55.988027 
L 255.584519 56.117013 
L 256.129454 60.343254 
L 256.674389 60.292648 
L 257.76426 63.057473 
L 258.309195 63.376636 
L 258.85413 64.17329 
L 259.399065 64.195458 
L 259.944 63.891282 
L 260.488936 67.051576 
L 261.033871 60.57558 
L 261.578806 59.550499 
L 262.123741 60.124137 
L 262.668676 62.882536 
L 263.213611 62.938142 
L 263.758547 64.194527 
L 264.848417 70.840057 
L 265.393352 65.948347 
L 265.938287 63.392412 
L 266.483223 64.039121 
L 267.028158 68.11711 
L 267.573093 69.590316 
L 268.118028 68.922288 
L 268.662963 64.90108 
L 269.207898 65.496072 
L 269.752834 71.393879 
L 270.297769 72.483165 
L 270.842704 70.431481 
L 271.387639 70.615516 
L 271.932574 66.289633 
L 272.47751 67.907024 
L 273.022445 68.853715 
L 274.112315 64.637373 
L 274.65725 59.257313 
L 275.202185 58.790576 
L 275.747121 55.869618 
L 276.292056 56.189133 
L 276.836991 55.18039 
L 277.381926 59.200139 
L 277.926861 59.90421 
L 278.471797 63.995628 
L 279.016732 63.078937 
L 279.561667 64.922041 
L 280.106602 66.294606 
L 280.651537 69.275139 
L 281.196472 69.895686 
L 281.741408 71.918711 
L 282.286343 71.489114 
L 283.376213 78.181051 
L 283.921148 78.610769 
L 284.466084 79.393625 
L 285.011019 83.150284 
L 285.555954 82.869851 
L 286.100889 84.764071 
L 286.645824 83.511518 
L 287.19076 84.064098 
L 287.735695 83.94413 
L 288.28063 82.447865 
L 289.3705 87.259211 
L 289.915435 88.024825 
L 290.460371 86.299572 
L 291.005306 83.709441 
L 291.550241 85.445799 
L 292.095176 85.862487 
L 292.640111 85.837093 
L 293.185047 87.37735 
L 293.729982 91.870102 
L 294.274917 93.983002 
L 295.364787 104.424422 
L 295.909722 105.201013 
L 296.454658 100.762095 
L 296.999593 104.522322 
L 297.544528 104.202139 
L 298.089463 105.214686 
L 298.634398 107.609575 
L 299.179334 111.269152 
L 299.724269 111.803753 
L 300.814139 105.748268 
L 301.359074 109.967 
L 301.904009 113.308961 
L 302.448945 111.936275 
L 302.99388 113.068058 
L 303.538815 112.428092 
L 304.08375 117.090397 
L 304.628685 119.363791 
L 305.718556 125.32853 
L 306.263491 122.820053 
L 306.808426 123.275564 
L 307.353361 123.284387 
L 307.898296 116.572673 
L 308.443232 118.868397 
L 308.988167 119.377501 
L 309.533102 121.930101 
L 310.078037 117.81306 
L 310.622972 119.15986 
L 311.167908 122.145304 
L 311.712843 117.33096 
L 312.257778 114.264244 
L 312.802713 118.300056 
L 313.347648 118.820868 
L 313.892584 114.365882 
L 314.437519 112.272161 
L 314.982454 107.801217 
L 315.527389 108.415418 
L 316.072324 107.70683 
L 316.617259 105.47236 
L 317.162195 104.182417 
L 317.70713 104.716135 
L 318.252065 104.04783 
L 318.797 103.716953 
L 319.341935 104.174273 
L 319.886871 101.584691 
L 320.976741 103.705585 
L 321.521676 107.717776 
L 322.066611 104.373513 
L 322.611546 102.0354 
L 323.156482 102.480503 
L 323.701417 104.441726 
L 324.246352 102.211798 
L 324.791287 98.015967 
L 325.336222 97.065449 
L 325.881158 101.604844 
L 326.426093 99.025281 
L 326.971028 106.718566 
L 327.515963 106.942495 
L 328.060898 102.843032 
L 328.605833 105.780411 
L 329.150769 107.282631 
L 329.695704 108.254234 
L 330.785574 106.091876 
L 331.330509 108.060801 
L 332.42038 108.921545 
L 332.965315 104.212732 
L 333.51025 107.609153 
L 334.055185 105.968476 
L 334.60012 106.962171 
L 335.145056 107.31151 
L 335.689991 106.353317 
L 336.234926 106.261159 
L 336.779861 105.751786 
L 337.324796 104.428867 
L 337.869732 104.239502 
L 338.414667 101.170464 
L 338.959602 101.618577 
L 339.504537 102.438697 
L 340.049472 107.651033 
L 341.139343 100.736876 
L 341.684278 98.254498 
L 342.229213 95.152588 
L 342.774148 97.404841 
L 343.319083 101.624602 
L 343.864019 101.648863 
L 344.408954 99.981036 
L 344.953889 103.567428 
L 345.498824 101.297991 
L 346.043759 102.997903 
L 346.588695 101.670651 
L 347.13363 102.64821 
L 347.678565 104.072181 
L 348.2235 107.487937 
L 348.768435 113.086506 
L 349.31337 111.747189 
L 349.858306 111.981477 
L 350.403241 114.987846 
L 350.948176 104.766294 
L 351.493111 101.075008 
L 352.038046 98.94053 
L 352.582982 99.972681 
L 353.672852 105.948612 
L 354.217787 106.101882 
L 354.762722 108.872204 
L 355.307657 109.720521 
L 355.852593 109.195319 
L 356.397528 108.347488 
L 357.487398 111.801624 
L 358.032333 111.899116 
L 358.577269 107.306781 
L 359.122204 104.30419 
L 359.667139 108.903583 
L 360.212074 107.999667 
L 361.301944 108.89937 
L 361.84688 110.271209 
L 362.391815 114.058336 
L 363.481685 117.022229 
L 364.02662 116.320586 
L 364.571556 116.948049 
L 365.116491 114.339081 
L 365.661426 118.293797 
L 366.206361 117.885964 
L 366.751296 116.737543 
L 367.296232 121.517037 
L 367.841167 125.29119 
L 369.475972 132.655113 
L 370.020907 133.073581 
L 370.565843 135.274316 
L 371.110778 129.909049 
L 371.655713 131.681506 
L 372.200648 131.765476 
L 372.745583 133.588235 
L 373.290519 132.858521 
L 373.835454 135.077375 
L 374.380389 130.090131 
L 374.925324 133.075422 
L 376.56013 135.082724 
L 377.105065 137.208135 
L 377.65 138.524581 
L 378.194935 136.838371 
L 378.73987 138.407547 
L 379.284806 140.475174 
L 379.829741 140.572698 
L 380.374676 142.26889 
L 380.919611 143.255476 
L 381.464546 146.637237 
L 382.009481 144.474603 
L 382.554417 149.37617 
L 383.099352 147.902377 
L 383.644287 145.634415 
L 384.189222 153.275849 
L 384.734157 149.987378 
L 385.279093 152.712609 
L 385.824028 154.273534 
L 386.368963 157.440153 
L 387.458833 165.429212 
L 388.003768 167.942974 
L 388.548704 167.491791 
L 389.638574 168.689129 
L 390.183509 168.307604 
L 390.728444 168.873367 
L 391.27338 166.960034 
L 391.818315 167.827667 
L 392.908185 164.790285 
L 393.45312 168.439138 
L 393.998056 169.593414 
L 394.542991 173.763189 
L 395.087926 174.941561 
L 396.177796 176.145167 
L 396.722731 173.242436 
L 397.267667 169.517718 
L 397.812602 177.336719 
L 398.902472 183.581161 
L 399.447407 186.09497 
L 399.992343 190.742155 
L 401.082213 192.465917 
L 401.627148 194.890841 
L 402.172083 195.239277 
L 402.717018 189.323502 
L 403.261954 181.253586 
L 403.806889 182.984281 
L 404.351824 180.673647 
L 405.441694 183.576219 
L 405.98663 184.260236 
L 406.531565 188.82633 
L 407.621435 191.50106 
L 408.16637 185.063944 
L 408.711305 184.507797 
L 409.256241 181.230859 
L 409.801176 183.008721 
L 410.346111 183.206475 
L 410.891046 185.772634 
L 411.435981 189.053793 
L 411.980917 189.624375 
L 412.525852 195.114407 
L 413.070787 195.490707 
L 413.615722 200.428048 
L 414.160657 200.104662 
L 414.705592 202.721549 
L 415.250528 204.117861 
L 415.795463 205.863746 
L 416.340398 206.821766 
L 416.885333 204.248362 
L 417.430268 203.220928 
L 417.975204 200.260458 
L 418.520139 203.534107 
L 419.065074 204.900995 
L 419.610009 205.767714 
L 420.154944 209.076487 
L 420.69988 208.032916 
L 421.244815 208.941207 
L 421.78975 207.3274 
L 422.334685 210.067529 
L 422.87962 207.791622 
L 423.424555 209.234549 
L 423.969491 207.200982 
L 424.514426 206.517747 
L 425.059361 204.086152 
L 425.604296 204.966834 
L 426.149231 207.55041 
L 426.694167 207.462699 
L 427.784037 205.168097 
L 428.328972 199.761699 
L 428.873907 200.434529 
L 429.418842 197.962286 
L 429.963778 198.535726 
L 430.508713 196.180625 
L 431.053648 194.914987 
L 431.598583 192.803599 
L 432.143518 193.683973 
L 432.688454 192.260406 
L 433.233389 193.114215 
L 433.778324 194.537887 
L 434.323259 195.395936 
L 435.413129 193.955011 
L 435.958065 194.425682 
L 436.503 192.644743 
L 437.047935 195.99926 
L 437.59287 198.546973 
L 438.137805 200.002504 
L 439.227676 208.505143 
L 439.772611 205.343674 
L 440.317546 204.642646 
L 440.862481 206.799746 
L 441.407416 205.813264 
L 442.497287 209.784389 
L 443.042222 209.557972 
L 443.587157 210.610904 
L 444.132092 213.899569 
L 444.677028 212.862059 
L 445.221963 213.17423 
L 445.766898 207.641075 
L 446.311833 210.367752 
L 446.856768 208.919193 
L 447.401704 211.01051 
L 447.946639 209.695447 
L 448.491574 212.369545 
L 449.036509 210.305758 
L 449.581444 206.918413 
L 450.126379 208.724933 
L 450.671315 206.122837 
L 451.21625 202.620999 
L 452.30612 197.690368 
L 452.851055 200.888781 
L 453.395991 200.843725 
L 453.940926 196.130031 
L 454.485861 193.482549 
L 455.030796 195.068446 
L 455.575731 194.627266 
L 456.120666 193.735644 
L 456.665602 191.021031 
L 457.210537 185.481102 
L 457.755472 188.658653 
L 458.845342 189.909348 
L 459.390278 185.999452 
L 459.935213 190.938688 
L 460.480148 192.495317 
L 461.025083 188.808824 
L 461.570018 186.64356 
L 462.114953 180.592584 
L 462.659889 178.292855 
L 463.204824 175.3614 
L 463.749759 175.228574 
L 464.294694 176.114928 
L 464.839629 172.941367 
L 465.384565 173.51025 
L 465.9295 178.509568 
L 466.474435 178.628547 
L 467.01937 179.827044 
L 467.564305 181.683331 
L 468.10924 184.462008 
L 468.654176 183.107732 
L 469.744046 181.419455 
L 470.288981 181.439311 
L 470.833916 186.409045 
L 471.378852 186.474519 
L 471.923787 189.152915 
L 472.468722 186.869163 
L 473.013657 189.740939 
L 474.103528 184.36233 
L 474.648463 184.529572 
L 475.193398 186.365949 
L 475.738333 185.029397 
L 476.283268 185.406525 
L 476.828203 186.246883 
L 477.373139 189.265531 
L 477.918074 187.829735 
L 478.463009 186.869449 
L 479.007944 188.06165 
L 479.552879 191.488366 
L 480.097815 191.862904 
L 480.64275 193.702179 
L 481.187685 194.315536 
L 481.73262 192.207325 
L 482.277555 187.675492 
L 482.82249 184.870876 
L 483.367426 185.87956 
L 483.912361 186.187223 
L 484.457296 188.387439 
L 485.002231 192.895595 
L 485.547166 194.084098 
L 486.637037 200.078795 
L 487.181972 198.623079 
L 487.726907 198.319937 
L 488.816777 195.922704 
L 489.361713 199.224008 
L 489.906648 203.542414 
L 490.451583 202.553474 
L 490.996518 200.200931 
L 491.541453 199.333279 
L 492.086389 204.249586 
L 493.176259 207.009187 
L 493.721194 209.262817 
L 494.266129 209.955786 
L 495.356 215.852814 
L 495.900935 216.08883 
L 496.44587 216.108138 
L 496.990805 214.678428 
L 497.53574 212.652432 
L 498.080676 215.69638 
L 498.625611 215.896949 
L 499.170546 215.252931 
L 499.715481 210.785383 
L 500.260416 209.447354 
L 500.805352 212.510375 
L 501.350287 217.211948 
L 501.895222 222.92954 
L 502.440157 222.453757 
L 502.985092 220.21672 
L 503.530027 221.261021 
L 504.074963 219.113615 
L 505.709768 223.313528 
L 506.254703 221.119587 
L 506.799639 220.078495 
L 507.344574 219.936911 
L 507.889509 219.107811 
L 508.434444 220.14222 
L 508.979379 220.001326 
L 509.524314 221.070463 
L 510.06925 223.596108 
L 510.614185 219.074023 
L 511.15912 221.924673 
L 511.704055 220.930685 
L 512.24899 219.48673 
L 512.793926 218.382365 
L 513.338861 218.911565 
L 513.883796 219.05526 
L 514.428731 218.338819 
L 514.973666 215.03425 
L 515.518601 213.823686 
L 516.063537 218.03765 
L 516.608472 218.997315 
L 517.153407 216.819388 
L 517.698342 217.326587 
L 518.243277 218.470819 
L 518.788213 219.239598 
L 519.333148 216.272253 
L 519.878083 218.311132 
L 520.423018 214.386388 
L 520.967953 213.211525 
L 521.512888 209.861096 
L 522.057824 205.533709 
L 523.147694 204.574786 
L 523.692629 206.238539 
L 524.237564 210.018049 
L 524.7825 207.144699 
L 525.327435 207.970088 
L 525.87237 204.280688 
L 526.417305 202.430115 
L 526.96224 202.586971 
L 527.507176 202.954002 
L 528.052111 204.319032 
L 528.597046 205.232081 
L 529.141981 205.089337 
L 529.686916 202.032731 
L 530.231851 201.741883 
L 530.776787 202.319694 
L 531.321722 205.006423 
L 532.411592 202.507384 
L 532.956527 200.137219 
L 533.501463 203.078423 
L 534.046398 201.367153 
L 534.591333 201.797402 
L 535.136268 201.350168 
L 535.681203 204.482208 
L 536.226138 200.577862 
L 536.771074 204.464447 
L 537.316009 203.13589 
L 537.860944 206.653714 
L 538.405879 206.302373 
L 538.950814 201.831833 
L 539.49575 200.907589 
L 540.040685 201.270278 
L 540.58562 202.158003 
L 541.130555 201.90965 
L 541.67549 200.721494 
L 542.220425 199.887007 
L 542.765361 202.558608 
L 543.855231 203.080914 
L 544.400166 205.498541 
L 544.945101 209.677239 
L 546.034972 197.894683 
L 546.579907 197.452331 
L 547.124842 195.287434 
L 547.669777 190.455841 
L 548.214712 189.366156 
L 548.759648 181.929378 
L 549.304583 180.95265 
L 549.849518 181.217393 
L 550.394453 180.684971 
L 550.939388 179.393828 
L 551.484324 178.708836 
L 552.029259 179.726945 
L 552.574194 181.454272 
L 553.119129 184.93536 
L 553.664064 184.358696 
L 554.209 186.67772 
L 554.753935 186.107467 
L 555.843805 178.831008 
L 556.38874 180.813932 
L 556.933675 180.954454 
L 557.478611 181.68034 
L 558.023546 181.946787 
L 558.568481 178.929919 
L 559.113416 178.990279 
L 559.658351 181.165019 
L 560.203287 182.300417 
L 560.748222 181.562012 
L 561.293157 177.375312 
L 561.838092 177.072365 
L 562.383027 174.128543 
L 562.927962 176.371958 
L 563.472898 174.851981 
L 564.017833 174.146188 
L 564.562768 174.274122 
L 565.107703 172.499916 
L 565.652638 176.726792 
L 566.197574 175.536983 
L 567.287444 177.769386 
L 567.832379 176.574076 
L 568.377314 174.29417 
L 568.922249 174.680433 
L 569.467185 174.277832 
L 570.01212 179.255019 
L 570.557055 174.716041 
L 571.10199 173.046908 
L 571.646925 173.906379 
L 572.191861 173.699014 
L 572.736796 171.377862 
L 573.281731 171.296675 
L 573.826666 168.070108 
L 574.371601 167.134763 
L 574.916536 164.791905 
L 575.461472 164.424991 
L 576.006407 168.919982 
L 577.096277 173.194958 
L 577.641212 173.579326 
L 578.186148 171.934279 
L 578.731083 169.112913 
L 579.276018 168.852676 
L 579.820953 172.48044 
L 580.365888 170.486377 
L 580.910824 170.316977 
L 582.000694 162.95014 
L 582.545629 165.260554 
L 583.090564 161.454836 
L 583.635499 162.958128 
L 584.180435 162.38223 
L 584.72537 160.98905 
L 585.270305 158.676447 
L 586.360175 148.705995 
L 586.905111 153.673857 
L 587.450046 153.211331 
L 587.994981 152.358874 
L 588.539916 150.001512 
L 589.629786 148.102789 
L 590.174722 146.73917 
L 590.719657 145.722725 
L 591.264592 145.638907 
L 591.809527 144.26763 
L 592.354462 148.908102 
L 592.899398 147.20247 
L 593.444333 147.88342 
L 593.989268 147.541665 
L 594.534203 141.808121 
L 595.079138 138.298408 
L 595.624073 138.31082 
L 596.169009 136.867883 
L 596.713944 135.91518 
L 597.258879 138.099939 
L 597.803814 137.543731 
L 598.348749 135.666624 
L 598.893685 137.384741 
L 599.43862 135.647481 
L 599.983555 140.586257 
L 600.52849 138.311936 
L 601.073425 132.100776 
L 601.61836 130.441947 
L 602.163296 134.02389 
L 602.708231 136.505146 
L 603.253166 135.435302 
L 603.798101 137.325149 
L 604.343036 131.417257 
L 604.887972 131.039141 
L 605.432907 130.8638 
L 605.977842 132.46847 
L 606.522777 130.316923 
L 607.067712 125.60186 
L 608.157583 120.591569 
L 608.702518 116.286077 
L 609.247453 115.914291 
L 609.792388 115.733642 
L 610.337323 115.848707 
L 610.882259 113.218973 
L 611.427194 112.80337 
L 611.972129 113.542315 
L 612.517064 120.0784 
L 613.061999 120.746473 
L 613.606935 118.840235 
L 614.15187 118.1303 
L 614.696805 114.877692 
L 615.24174 117.618764 
L 615.786675 112.999917 
L 616.33161 111.761854 
L 616.876546 106.350549 
L 617.421481 105.100444 
L 617.966416 107.112615 
L 618.511351 102.107723 
L 619.056286 102.949534 
L 619.601222 101.768039 
L 620.146157 102.009895 
L 621.236027 95.081131 
L 621.780962 93.624136 
L 622.325897 97.828094 
L 622.870833 95.286687 
L 623.415768 98.391297 
L 623.960703 99.849269 
L 624.505638 99.980837 
L 625.050573 100.850818 
L 625.595509 102.423287 
L 626.140444 97.355473 
L 626.685379 98.128897 
L 627.230314 100.035638 
L 627.775249 104.534627 
L 628.320184 100.952503 
L 628.86512 100.584276 
L 629.410055 99.921458 
L 629.95499 101.264043 
L 630.499925 101.324476 
L 631.04486 101.753183 
L 631.589796 102.392709 
L 632.134731 101.702416 
L 633.224601 97.119789 
L 633.769536 98.261696 
L 634.859407 94.485772 
L 635.404342 91.953713 
L 635.949277 90.846412 
L 636.494212 88.110063 
L 637.039147 88.737469 
L 637.584083 91.374483 
L 638.129018 94.807565 
L 638.673953 95.715274 
L 639.218888 95.195274 
L 639.763823 94.100436 
L 640.308759 92.31522 
L 640.853694 93.410585 
L 641.398629 93.257852 
L 641.943564 87.312213 
L 642.488499 87.979338 
L 643.033434 85.489645 
L 643.57837 85.019384 
L 644.123305 82.240558 
L 644.66824 81.419642 
L 645.213175 80.923584 
L 645.75811 80.614969 
L 646.303046 84.613894 
L 646.847981 81.934766 
L 647.392916 82.517528 
L 648.482786 73.963571 
L 649.572657 72.732842 
L 650.117592 76.963402 
L 650.662527 73.365531 
L 651.207462 67.644402 
L 651.752397 66.175533 
L 652.297333 61.584781 
L 652.842268 60.282472 
L 653.387203 58.309488 
L 653.932138 58.890679 
L 654.477073 58.436373 
L 655.022008 63.365518 
L 655.566944 61.1747 
L 656.111879 57.98873 
L 657.201749 53.268948 
L 657.746684 52.311351 
L 658.29162 50.715684 
L 658.836555 46.851273 
L 659.38149 47.852921 
L 659.926425 44.424181 
L 660.47136 37.722223 
L 661.016295 39.50864 
L 661.561231 40.426287 
L 662.106166 37.989953 
L 662.651101 38.388996 
L 663.196036 39.808431 
L 663.740971 40.887942 
L 664.285907 38.345734 
L 664.830842 37.119154 
L 665.375777 34.031967 
L 665.920712 32.736553 
L 666.465647 35.171959 
L 667.010583 34.586142 
L 667.555518 37.480706 
L 668.100453 33.898716 
L 668.645388 33.794466 
L 669.190323 31.743106 
L 669.735258 28.483017 
L 670.280194 26.901853 
L 670.825129 28.014846 
L 671.370064 29.921354 
L 671.914999 29.318094 
L 672.459934 28.514298 
L 673.00487 21.581818 
L 673.549805 21.764605 
L 674.09474 24.278241 
L 674.639675 27.581689 
L 675.18461 27.258961 
L 675.729545 29.881857 
L 675.729545 29.881857 
" style="fill:none;stroke:#86a776;stroke-linecap:square;stroke-width:2;"/>
   </g>
   <g id="patch_3">
    <path d="M 49.7625 323.6 
L 49.7625 7.2 
" style="fill:none;"/>
   </g>
   <g id="patch_4">
    <path d="M 705.5375 323.6 
L 705.5375 7.2 
" style="fill:none;"/>
   </g>
   <g id="patch_5">
    <path d="M 49.7625 323.6 
L 705.5375 323.6 
" style="fill:none;"/>
   </g>
   <g id="patch_6">
    <path d="M 49.7625 7.2 
L 705.5375 7.2 
" style="fill:none;"/>
   </g>
   <g id="legend_1">
    <g id="line2d_20">
     <path d="M 504.68 287.2875 
L 524.68 287.2875 
" style="fill:none;stroke:#6083a9;stroke-linecap:square;stroke-width:2;"/>
    </g>
    <g id="line2d_21"/>
    <g id="text_13">
     <!-- Imaginary Corp. -->
     <defs>
      <path d="M 9.8125 72.90625 
L 19.671875 72.90625 
L 19.671875 0 
L 9.8125 0 
z
" id="DejaVuSans-73"/>
      <path d="M 52 44.1875 
Q 55.375 50.25 60.0625 53.125 
Q 64.75 56 71.09375 56 
Q 79.640625 56 84.28125 50.015625 
Q 88.921875 44.046875 88.921875 33.015625 
L 88.921875 0 
L 79.890625 0 
L 79.890625 32.71875 
Q 79.890625 40.578125 77.09375 44.375 
Q 74.3125 48.1875 68.609375 48.1875 
Q 61.625 48.1875 57.5625 43.546875 
Q 53.515625 38.921875 53.515625 30.90625 
L 53.515625 0 
L 44.484375 0 
L 44.484375 32.71875 
Q 44.484375 40.625 41.703125 44.40625 
Q 38.921875 48.1875 33.109375 48.1875 
Q 26.21875 48.1875 22.15625 43.53125 
Q 18.109375 38.875 18.109375 30.90625 
L 18.109375 0 
L 9.078125 0 
L 9.078125 54.6875 
L 18.109375 54.6875 
L 18.109375 46.1875 
Q 21.1875 51.21875 25.484375 53.609375 
Q 29.78125 56 35.6875 56 
Q 41.65625 56 45.828125 52.96875 
Q 50 49.953125 52 44.1875 
z
" id="DejaVuSans-109"/>
      <path d="M 34.28125 27.484375 
Q 23.390625 27.484375 19.1875 25 
Q 14.984375 22.515625 14.984375 16.5 
Q 14.984375 11.71875 18.140625 8.90625 
Q 21.296875 6.109375 26.703125 6.109375 
Q 34.1875 6.109375 38.703125 11.40625 
Q 43.21875 16.703125 43.21875 25.484375 
L 43.21875 27.484375 
z
M 52.203125 31.203125 
L 52.203125 0 
L 43.21875 0 
L 43.21875 8.296875 
Q 40.140625 3.328125 35.546875 0.953125 
Q 30.953125 -1.421875 24.3125 -1.421875 
Q 15.921875 -1.421875 10.953125 3.296875 
Q 6 8.015625 6 15.921875 
Q 6 25.140625 12.171875 29.828125 
Q 18.359375 34.515625 30.609375 34.515625 
L 43.21875 34.515625 
L 43.21875 35.40625 
Q 43.21875 41.609375 39.140625 45 
Q 35.0625 48.390625 27.6875 48.390625 
Q 23 48.390625 18.546875 47.265625 
Q 14.109375 46.140625 10.015625 43.890625 
L 10.015625 52.203125 
Q 14.9375 54.109375 19.578125 55.046875 
Q 24.21875 56 28.609375 56 
Q 40.484375 56 46.34375 49.84375 
Q 52.203125 43.703125 52.203125 31.203125 
z
" id="DejaVuSans-97"/>
      <path d="M 45.40625 27.984375 
Q 45.40625 37.75 41.375 43.109375 
Q 37.359375 48.484375 30.078125 48.484375 
Q 22.859375 48.484375 18.828125 43.109375 
Q 14.796875 37.75 14.796875 27.984375 
Q 14.796875 18.265625 18.828125 12.890625 
Q 22.859375 7.515625 30.078125 7.515625 
Q 37.359375 7.515625 41.375 12.890625 
Q 45.40625 18.265625 45.40625 27.984375 
z
M 54.390625 6.78125 
Q 54.390625 -7.171875 48.1875 -13.984375 
Q 42 -20.796875 29.203125 -20.796875 
Q 24.46875 -20.796875 20.265625 -20.09375 
Q 16.0625 -19.390625 12.109375 -17.921875 
L 12.109375 -9.1875 
Q 16.0625 -11.328125 19.921875 -12.34375 
Q 23.78125 -13.375 27.78125 -13.375 
Q 36.625 -13.375 41.015625 -8.765625 
Q 45.40625 -4.15625 45.40625 5.171875 
L 45.40625 9.625 
Q 42.625 4.78125 38.28125 2.390625 
Q 33.9375 0 27.875 0 
Q 17.828125 0 11.671875 7.65625 
Q 5.515625 15.328125 5.515625 27.984375 
Q 5.515625 40.671875 11.671875 48.328125 
Q 17.828125 56 27.875 56 
Q 33.9375 56 38.28125 53.609375 
Q 42.625 51.21875 45.40625 46.390625 
L 45.40625 54.6875 
L 54.390625 54.6875 
z
" id="DejaVuSans-103"/>
      <path d="M 9.421875 54.6875 
L 18.40625 54.6875 
L 18.40625 0 
L 9.421875 0 
z
M 9.421875 75.984375 
L 18.40625 75.984375 
L 18.40625 64.59375 
L 9.421875 64.59375 
z
" id="DejaVuSans-105"/>
      <path d="M 54.890625 33.015625 
L 54.890625 0 
L 45.90625 0 
L 45.90625 32.71875 
Q 45.90625 40.484375 42.875 44.328125 
Q 39.84375 48.1875 33.796875 48.1875 
Q 26.515625 48.1875 22.3125 43.546875 
Q 18.109375 38.921875 18.109375 30.90625 
L 18.109375 0 
L 9.078125 0 
L 9.078125 54.6875 
L 18.109375 54.6875 
L 18.109375 46.1875 
Q 21.34375 51.125 25.703125 53.5625 
Q 30.078125 56 35.796875 56 
Q 45.21875 56 50.046875 50.171875 
Q 54.890625 44.34375 54.890625 33.015625 
z
" id="DejaVuSans-110"/>
      <path d="M 41.109375 46.296875 
Q 39.59375 47.171875 37.8125 47.578125 
Q 36.03125 48 33.890625 48 
Q 26.265625 48 22.1875 43.046875 
Q 18.109375 38.09375 18.109375 28.8125 
L 18.109375 0 
L 9.078125 0 
L 9.078125 54.6875 
L 18.109375 54.6875 
L 18.109375 46.1875 
Q 20.953125 51.171875 25.484375 53.578125 
Q 30.03125 56 36.53125 56 
Q 37.453125 56 38.578125 55.875 
Q 39.703125 55.765625 41.0625 55.515625 
z
" id="DejaVuSans-114"/>
      <path d="M 32.171875 -5.078125 
Q 28.375 -14.84375 24.75 -17.8125 
Q 21.140625 -20.796875 15.09375 -20.796875 
L 7.90625 -20.796875 
L 7.90625 -13.28125 
L 13.1875 -13.28125 
Q 16.890625 -13.28125 18.9375 -11.515625 
Q 21 -9.765625 23.484375 -3.21875 
L 25.09375 0.875 
L 2.984375 54.6875 
L 12.5 54.6875 
L 29.59375 11.921875 
L 46.6875 54.6875 
L 56.203125 54.6875 
z
" id="DejaVuSans-121"/>
      <path id="DejaVuSans-32"/>
      <path d="M 64.40625 67.28125 
L 64.40625 56.890625 
Q 59.421875 61.53125 53.78125 63.8125 
Q 48.140625 66.109375 41.796875 66.109375 
Q 29.296875 66.109375 22.65625 58.46875 
Q 16.015625 50.828125 16.015625 36.375 
Q 16.015625 21.96875 22.65625 14.328125 
Q 29.296875 6.6875 41.796875 6.6875 
Q 48.140625 6.6875 53.78125 8.984375 
Q 59.421875 11.28125 64.40625 15.921875 
L 64.40625 5.609375 
Q 59.234375 2.09375 53.4375 0.328125 
Q 47.65625 -1.421875 41.21875 -1.421875 
Q 24.65625 -1.421875 15.125 8.703125 
Q 5.609375 18.84375 5.609375 36.375 
Q 5.609375 53.953125 15.125 64.078125 
Q 24.65625 74.21875 41.21875 74.21875 
Q 47.75 74.21875 53.53125 72.484375 
Q 59.328125 70.75 64.40625 67.28125 
z
" id="DejaVuSans-67"/>
      <path d="M 30.609375 48.390625 
Q 23.390625 48.390625 19.1875 42.75 
Q 14.984375 37.109375 14.984375 27.296875 
Q 14.984375 17.484375 19.15625 11.84375 
Q 23.34375 6.203125 30.609375 6.203125 
Q 37.796875 6.203125 41.984375 11.859375 
Q 46.1875 17.53125 46.1875 27.296875 
Q 46.1875 37.015625 41.984375 42.703125 
Q 37.796875 48.390625 30.609375 48.390625 
z
M 30.609375 56 
Q 42.328125 56 49.015625 48.375 
Q 55.71875 40.765625 55.71875 27.296875 
Q 55.71875 13.875 49.015625 6.21875 
Q 42.328125 -1.421875 30.609375 -1.421875 
Q 18.84375 -1.421875 12.171875 6.21875 
Q 5.515625 13.875 5.515625 27.296875 
Q 5.515625 40.765625 12.171875 48.375 
Q 18.84375 56 30.609375 56 
z
" id="DejaVuSans-111"/>
      <path d="M 18.109375 8.203125 
L 18.109375 -20.796875 
L 9.078125 -20.796875 
L 9.078125 54.6875 
L 18.109375 54.6875 
L 18.109375 46.390625 
Q 20.953125 51.265625 25.265625 53.625 
Q 29.59375 56 35.59375 56 
Q 45.5625 56 51.78125 48.09375 
Q 58.015625 40.1875 58.015625 27.296875 
Q 58.015625 14.40625 51.78125 6.484375 
Q 45.5625 -1.421875 35.59375 -1.421875 
Q 29.59375 -1.421875 25.265625 0.953125 
Q 20.953125 3.328125 18.109375 8.203125 
z
M 48.6875 27.296875 
Q 48.6875 37.203125 44.609375 42.84375 
Q 40.53125 48.484375 33.40625 48.484375 
Q 26.265625 48.484375 22.1875 42.84375 
Q 18.109375 37.203125 18.109375 27.296875 
Q 18.109375 17.390625 22.1875 11.75 
Q 26.265625 6.109375 33.40625 6.109375 
Q 40.53125 6.109375 44.609375 11.75 
Q 48.6875 17.390625 48.6875 27.296875 
z
" id="DejaVuSans-112"/>
      <path d="M 10.6875 12.40625 
L 21 12.40625 
L 21 0 
L 10.6875 0 
z
" id="DejaVuSans-46"/>
     </defs>
     <g style="fill:#2f2235;" transform="translate(532.68 290.7875)scale(0.16 -0.16)">
      <use xlink:href="#DejaVuSans-73"/>
      <use x="29.492188" xlink:href="#DejaVuSans-109"/>
      <use x="126.904297" xlink:href="#DejaVuSans-97"/>
      <use x="188.183594" xlink:href="#DejaVuSans-103"/>
      <use x="251.660156" xlink:href="#DejaVuSans-105"/>
      <use x="279.443359" xlink:href="#DejaVuSans-110"/>
      <use x="342.822266" xlink:href="#DejaVuSans-97"/>
      <use x="404.101562" xlink:href="#DejaVuSans-114"/>
      <use x="445.214844" xlink:href="#DejaVuSans-121"/>
      <use x="504.394531" xlink:href="#DejaVuSans-32"/>
      <use x="536.181641" xlink:href="#DejaVuSans-67"/>
      <use x="606.005859" xlink:href="#DejaVuSans-111"/>
      <use x="667.1875" xlink:href="#DejaVuSans-114"/>
      <use x="708.300781" xlink:href="#DejaVuSans-112"/>
      <use x="771.777344" xlink:href="#DejaVuSans-46"/>
     </g>
    </g>
    <g id="line2d_22">
     <path d="M 504.68 307.7725 
L 524.68 307.7725 
" style="fill:none;stroke:#86a776;stroke-linecap:square;stroke-width:2;"/>
    </g>
    <g id="line2d_23"/>
    <g id="text_14">
     <!-- Diamond Bread LLC. -->
     <defs>
      <path d="M 19.671875 64.796875 
L 19.671875 8.109375 
L 31.59375 8.109375 
Q 46.6875 8.109375 53.6875 14.9375 
Q 60.6875 21.78125 60.6875 36.53125 
Q 60.6875 51.171875 53.6875 57.984375 
Q 46.6875 64.796875 31.59375 64.796875 
z
M 9.8125 72.90625 
L 30.078125 72.90625 
Q 51.265625 72.90625 61.171875 64.09375 
Q 71.09375 55.28125 71.09375 36.53125 
Q 71.09375 17.671875 61.125 8.828125 
Q 51.171875 0 30.078125 0 
L 9.8125 0 
z
" id="DejaVuSans-68"/>
      <path d="M 45.40625 46.390625 
L 45.40625 75.984375 
L 54.390625 75.984375 
L 54.390625 0 
L 45.40625 0 
L 45.40625 8.203125 
Q 42.578125 3.328125 38.25 0.953125 
Q 33.9375 -1.421875 27.875 -1.421875 
Q 17.96875 -1.421875 11.734375 6.484375 
Q 5.515625 14.40625 5.515625 27.296875 
Q 5.515625 40.1875 11.734375 48.09375 
Q 17.96875 56 27.875 56 
Q 33.9375 56 38.25 53.625 
Q 42.578125 51.265625 45.40625 46.390625 
z
M 14.796875 27.296875 
Q 14.796875 17.390625 18.875 11.75 
Q 22.953125 6.109375 30.078125 6.109375 
Q 37.203125 6.109375 41.296875 11.75 
Q 45.40625 17.390625 45.40625 27.296875 
Q 45.40625 37.203125 41.296875 42.84375 
Q 37.203125 48.484375 30.078125 48.484375 
Q 22.953125 48.484375 18.875 42.84375 
Q 14.796875 37.203125 14.796875 27.296875 
z
" id="DejaVuSans-100"/>
      <path d="M 19.671875 34.8125 
L 19.671875 8.109375 
L 35.5 8.109375 
Q 43.453125 8.109375 47.28125 11.40625 
Q 51.125 14.703125 51.125 21.484375 
Q 51.125 28.328125 47.28125 31.5625 
Q 43.453125 34.8125 35.5 34.8125 
z
M 19.671875 64.796875 
L 19.671875 42.828125 
L 34.28125 42.828125 
Q 41.5 42.828125 45.03125 45.53125 
Q 48.578125 48.25 48.578125 53.8125 
Q 48.578125 59.328125 45.03125 62.0625 
Q 41.5 64.796875 34.28125 64.796875 
z
M 9.8125 72.90625 
L 35.015625 72.90625 
Q 46.296875 72.90625 52.390625 68.21875 
Q 58.5 63.53125 58.5 54.890625 
Q 58.5 48.1875 55.375 44.234375 
Q 52.25 40.28125 46.1875 39.3125 
Q 53.46875 37.75 57.5 32.78125 
Q 61.53125 27.828125 61.53125 20.40625 
Q 61.53125 10.640625 54.890625 5.3125 
Q 48.25 0 35.984375 0 
L 9.8125 0 
z
" id="DejaVuSans-66"/>
      <path d="M 56.203125 29.59375 
L 56.203125 25.203125 
L 14.890625 25.203125 
Q 15.484375 15.921875 20.484375 11.0625 
Q 25.484375 6.203125 34.421875 6.203125 
Q 39.59375 6.203125 44.453125 7.46875 
Q 49.3125 8.734375 54.109375 11.28125 
L 54.109375 2.78125 
Q 49.265625 0.734375 44.1875 -0.34375 
Q 39.109375 -1.421875 33.890625 -1.421875 
Q 20.796875 -1.421875 13.15625 6.1875 
Q 5.515625 13.8125 5.515625 26.8125 
Q 5.515625 40.234375 12.765625 48.109375 
Q 20.015625 56 32.328125 56 
Q 43.359375 56 49.78125 48.890625 
Q 56.203125 41.796875 56.203125 29.59375 
z
M 47.21875 32.234375 
Q 47.125 39.59375 43.09375 43.984375 
Q 39.0625 48.390625 32.421875 48.390625 
Q 24.90625 48.390625 20.390625 44.140625 
Q 15.875 39.890625 15.1875 32.171875 
z
" id="DejaVuSans-101"/>
      <path d="M 9.8125 72.90625 
L 19.671875 72.90625 
L 19.671875 8.296875 
L 55.171875 8.296875 
L 55.171875 0 
L 9.8125 0 
z
" id="DejaVuSans-76"/>
     </defs>
     <g style="fill:#2f2235;" transform="translate(532.68 311.2725)scale(0.16 -0.16)">
      <use xlink:href="#DejaVuSans-68"/>
      <use x="77.001953" xlink:href="#DejaVuSans-105"/>
      <use x="104.785156" xlink:href="#DejaVuSans-97"/>
      <use x="166.064453" xlink:href="#DejaVuSans-109"/>
      <use x="263.476562" xlink:href="#DejaVuSans-111"/>
      <use x="324.658203" xlink:href="#DejaVuSans-110"/>
      <use x="388.037109" xlink:href="#DejaVuSans-100"/>
      <use x="451.513672" xlink:href="#DejaVuSans-32"/>
      <use x="483.300781" xlink:href="#DejaVuSans-66"/>
      <use x="551.904297" xlink:href="#DejaVuSans-114"/>
      <use x="592.986328" xlink:href="#DejaVuSans-101"/>
      <use x="654.509766" xlink:href="#DejaVuSans-97"/>
      <use x="715.789062" xlink:href="#DejaVuSans-100"/>
      <use x="779.265625" xlink:href="#DejaVuSans-32"/>
      <use x="811.052734" xlink:href="#DejaVuSans-76"/>
      <use x="866.765625" xlink:href="#DejaVuSans-76"/>
      <use x="922.478516" xlink:href="#DejaVuSans-67"/>
      <use x="992.302734" xlink:href="#DejaVuSans-46"/>
     </g>
    </g>
   </g>
  </g>
 </g>
 <defs>
  <clipPath id="pdd6d8feff9">
   <rect height="316.4" width="655.775" x="49.7625" y="7.2"/>
  </clipPath>
 </defs>
</svg>
