<?xml version="1.0" encoding="utf-8" standalone="no"?>
<!DOCTYPE svg PUBLIC "-//W3C//DTD SVG 1.1//EN"
  "http://www.w3.org/Graphics/SVG/1.1/DTD/svg11.dtd">
<!-- Created with matplotlib (https://matplotlib.org/) -->
<svg height="353.285pt" version="1.1" viewBox="0 0 712.7375 353.285" width="712.7375pt" xmlns="http://www.w3.org/2000/svg" xmlns:xlink="http://www.w3.org/1999/xlink">
 <defs>
  <style type="text/css">
*{stroke-linecap:butt;stroke-linejoin:round;}
  </style>
 </defs>
 <g id="figure_1">
  <g id="patch_1">
   <path d="M -0 353.285 
L 712.7375 353.285 
L 712.7375 0 
L -0 0 
z
" style="fill:none;"/>
  </g>
  <g id="axes_1">
   <g id="patch_2">
    <path d="M 49.7625 323.6 
L 705.5375 323.6 
L 705.5375 7.2 
L 49.7625 7.2 
z
" style="fill:none;"/>
   </g>
   <g id="matplotlib.axis_1">
    <g id="xtick_1">
     <g id="line2d_1">
      <defs>
       <path d="M 0 0 
L 0 3.5 
" id="m48eceb7e9b" style="stroke:#003559;stroke-width:0.8;"/>
      </defs>
      <g>
       <use style="fill:#003559;stroke:#003559;stroke-width:0.8;" x="79.570455" xlink:href="#m48eceb7e9b" y="323.6"/>
      </g>
     </g>
     <g id="text_1">
      <!-- 2010 -->
      <defs>
       <path d="M 19.1875 8.296875 
L 53.609375 8.296875 
L 53.609375 0 
L 7.328125 0 
L 7.328125 8.296875 
Q 12.9375 14.109375 22.625 23.890625 
Q 32.328125 33.6875 34.8125 36.53125 
Q 39.546875 41.84375 41.421875 45.53125 
Q 43.3125 49.21875 43.3125 52.78125 
Q 43.3125 58.59375 39.234375 62.25 
Q 35.15625 65.921875 28.609375 65.921875 
Q 23.96875 65.921875 18.8125 64.3125 
Q 13.671875 62.703125 7.8125 59.421875 
L 7.8125 69.390625 
Q 13.765625 71.78125 18.9375 73 
Q 24.125 74.21875 28.421875 74.21875 
Q 39.75 74.21875 46.484375 68.546875 
Q 53.21875 62.890625 53.21875 53.421875 
Q 53.21875 48.921875 51.53125 44.890625 
Q 49.859375 40.875 45.40625 35.40625 
Q 44.1875 33.984375 37.640625 27.21875 
Q 31.109375 20.453125 19.1875 8.296875 
z
" id="DejaVuSans-50"/>
       <path d="M 31.78125 66.40625 
Q 24.171875 66.40625 20.328125 58.90625 
Q 16.5 51.421875 16.5 36.375 
Q 16.5 21.390625 20.328125 13.890625 
Q 24.171875 6.390625 31.78125 6.390625 
Q 39.453125 6.390625 43.28125 13.890625 
Q 47.125 21.390625 47.125 36.375 
Q 47.125 51.421875 43.28125 58.90625 
Q 39.453125 66.40625 31.78125 66.40625 
z
M 31.78125 74.21875 
Q 44.046875 74.21875 50.515625 64.515625 
Q 56.984375 54.828125 56.984375 36.375 
Q 56.984375 17.96875 50.515625 8.265625 
Q 44.046875 -1.421875 31.78125 -1.421875 
Q 19.53125 -1.421875 13.0625 8.265625 
Q 6.59375 17.96875 6.59375 36.375 
Q 6.59375 54.828125 13.0625 64.515625 
Q 19.53125 74.21875 31.78125 74.21875 
z
" id="DejaVuSans-48"/>
       <path d="M 12.40625 8.296875 
L 28.515625 8.296875 
L 28.515625 63.921875 
L 10.984375 60.40625 
L 10.984375 69.390625 
L 28.421875 72.90625 
L 38.28125 72.90625 
L 38.28125 8.296875 
L 54.390625 8.296875 
L 54.390625 0 
L 12.40625 0 
z
" id="DejaVuSans-49"/>
      </defs>
      <g style="fill:#2f2235;" transform="translate(59.210455 342.7575)scale(0.16 -0.16)">
       <use xlink:href="#DejaVuSans-50"/>
       <use x="63.623047" xlink:href="#DejaVuSans-48"/>
       <use x="127.246094" xlink:href="#DejaVuSans-49"/>
       <use x="190.869141" xlink:href="#DejaVuSans-48"/>
      </g>
     </g>
    </g>
    <g id="xtick_2">
     <g id="line2d_2">
      <g>
       <use style="fill:#003559;stroke:#003559;stroke-width:0.8;" x="178.203723" xlink:href="#m48eceb7e9b" y="323.6"/>
      </g>
     </g>
     <g id="text_2">
      <!-- Jul -->
      <defs>
       <path d="M 9.8125 72.90625 
L 19.671875 72.90625 
L 19.671875 5.078125 
Q 19.671875 -8.109375 14.671875 -14.0625 
Q 9.671875 -20.015625 -1.421875 -20.015625 
L -5.171875 -20.015625 
L -5.171875 -11.71875 
L -2.09375 -11.71875 
Q 4.4375 -11.71875 7.125 -8.046875 
Q 9.8125 -4.390625 9.8125 5.078125 
z
" id="DejaVuSans-74"/>
       <path d="M 8.5 21.578125 
L 8.5 54.6875 
L 17.484375 54.6875 
L 17.484375 21.921875 
Q 17.484375 14.15625 20.5 10.265625 
Q 23.53125 6.390625 29.59375 6.390625 
Q 36.859375 6.390625 41.078125 11.03125 
Q 45.3125 15.671875 45.3125 23.6875 
L 45.3125 54.6875 
L 54.296875 54.6875 
L 54.296875 0 
L 45.3125 0 
L 45.3125 8.40625 
Q 42.046875 3.421875 37.71875 1 
Q 33.40625 -1.421875 27.6875 -1.421875 
Q 18.265625 -1.421875 13.375 4.4375 
Q 8.5 10.296875 8.5 21.578125 
z
M 31.109375 56 
z
" id="DejaVuSans-117"/>
       <path d="M 9.421875 75.984375 
L 18.40625 75.984375 
L 18.40625 0 
L 9.421875 0 
z
" id="DejaVuSans-108"/>
      </defs>
      <g style="fill:#2f2235;" transform="translate(168.551223 342.7575)scale(0.16 -0.16)">
       <use xlink:href="#DejaVuSans-74"/>
       <use x="29.492188" xlink:href="#DejaVuSans-117"/>
       <use x="92.871094" xlink:href="#DejaVuSans-108"/>
      </g>
     </g>
    </g>
    <g id="xtick_3">
     <g id="line2d_3">
      <g>
       <use style="fill:#003559;stroke:#003559;stroke-width:0.8;" x="278.471797" xlink:href="#m48eceb7e9b" y="323.6"/>
      </g>
     </g>
     <g id="text_3">
      <!-- 2011 -->
      <g style="fill:#2f2235;" transform="translate(258.111797 342.7575)scale(0.16 -0.16)">
       <use xlink:href="#DejaVuSans-50"/>
       <use x="63.623047" xlink:href="#DejaVuSans-48"/>
       <use x="127.246094" xlink:href="#DejaVuSans-49"/>
       <use x="190.869141" xlink:href="#DejaVuSans-49"/>
      </g>
     </g>
    </g>
    <g id="xtick_4">
     <g id="line2d_4">
      <g>
       <use style="fill:#003559;stroke:#003559;stroke-width:0.8;" x="377.105065" xlink:href="#m48eceb7e9b" y="323.6"/>
      </g>
     </g>
     <g id="text_4">
      <!-- Jul -->
      <g style="fill:#2f2235;" transform="translate(367.452565 342.7575)scale(0.16 -0.16)">
       <use xlink:href="#DejaVuSans-74"/>
       <use x="29.492188" xlink:href="#DejaVuSans-117"/>
       <use x="92.871094" xlink:href="#DejaVuSans-108"/>
      </g>
     </g>
    </g>
    <g id="xtick_5">
     <g id="line2d_5">
      <g>
       <use style="fill:#003559;stroke:#003559;stroke-width:0.8;" x="477.373139" xlink:href="#m48eceb7e9b" y="323.6"/>
      </g>
     </g>
     <g id="text_5">
      <!-- 2012 -->
      <g style="fill:#2f2235;" transform="translate(457.013139 342.7575)scale(0.16 -0.16)">
       <use xlink:href="#DejaVuSans-50"/>
       <use x="63.623047" xlink:href="#DejaVuSans-48"/>
       <use x="127.246094" xlink:href="#DejaVuSans-49"/>
       <use x="190.869141" xlink:href="#DejaVuSans-50"/>
      </g>
     </g>
    </g>
    <g id="xtick_6">
     <g id="line2d_6">
      <g>
       <use style="fill:#003559;stroke:#003559;stroke-width:0.8;" x="576.551342" xlink:href="#m48eceb7e9b" y="323.6"/>
      </g>
     </g>
     <g id="text_6">
      <!-- Jul -->
      <g style="fill:#2f2235;" transform="translate(566.898842 342.7575)scale(0.16 -0.16)">
       <use xlink:href="#DejaVuSans-74"/>
       <use x="29.492188" xlink:href="#DejaVuSans-117"/>
       <use x="92.871094" xlink:href="#DejaVuSans-108"/>
      </g>
     </g>
    </g>
    <g id="xtick_7">
     <g id="line2d_7">
      <g>
       <use style="fill:#003559;stroke:#003559;stroke-width:0.8;" x="676.819416" xlink:href="#m48eceb7e9b" y="323.6"/>
      </g>
     </g>
     <g id="text_7">
      <!-- 2013 -->
      <defs>
       <path d="M 40.578125 39.3125 
Q 47.65625 37.796875 51.625 33 
Q 55.609375 28.21875 55.609375 21.1875 
Q 55.609375 10.40625 48.1875 4.484375 
Q 40.765625 -1.421875 27.09375 -1.421875 
Q 22.515625 -1.421875 17.65625 -0.515625 
Q 12.796875 0.390625 7.625 2.203125 
L 7.625 11.71875 
Q 11.71875 9.328125 16.59375 8.109375 
Q 21.484375 6.890625 26.8125 6.890625 
Q 36.078125 6.890625 40.9375 10.546875 
Q 45.796875 14.203125 45.796875 21.1875 
Q 45.796875 27.640625 41.28125 31.265625 
Q 36.765625 34.90625 28.71875 34.90625 
L 20.21875 34.90625 
L 20.21875 43.015625 
L 29.109375 43.015625 
Q 36.375 43.015625 40.234375 45.921875 
Q 44.09375 48.828125 44.09375 54.296875 
Q 44.09375 59.90625 40.109375 62.90625 
Q 36.140625 65.921875 28.71875 65.921875 
Q 24.65625 65.921875 20.015625 65.03125 
Q 15.375 64.15625 9.8125 62.3125 
L 9.8125 71.09375 
Q 15.4375 72.65625 20.34375 73.4375 
Q 25.25 74.21875 29.59375 74.21875 
Q 40.828125 74.21875 47.359375 69.109375 
Q 53.90625 64.015625 53.90625 55.328125 
Q 53.90625 49.265625 50.4375 45.09375 
Q 46.96875 40.921875 40.578125 39.3125 
z
" id="DejaVuSans-51"/>
      </defs>
      <g style="fill:#2f2235;" transform="translate(656.459416 342.7575)scale(0.16 -0.16)">
       <use xlink:href="#DejaVuSans-50"/>
       <use x="63.623047" xlink:href="#DejaVuSans-48"/>
       <use x="127.246094" xlink:href="#DejaVuSans-49"/>
       <use x="190.869141" xlink:href="#DejaVuSans-51"/>
      </g>
     </g>
    </g>
   </g>
   <g id="matplotlib.axis_2">
    <g id="ytick_1">
     <g id="line2d_8">
      <path clip-path="url(#pba79d0323a)" d="M 49.7625 292.504089 
L 705.5375 292.504089 
" style="fill:none;stroke:#f0f0f0;stroke-linecap:square;"/>
     </g>
     <g id="line2d_9">
      <defs>
       <path d="M 0 0 
L -3.5 0 
" id="mbd0bc6fe37" style="stroke:#003559;stroke-width:0.8;"/>
      </defs>
      <g>
       <use style="fill:#003559;stroke:#003559;stroke-width:0.8;" x="49.7625" xlink:href="#mbd0bc6fe37" y="292.504089"/>
      </g>
     </g>
     <g id="text_8">
      <!-- -5% -->
      <defs>
       <path d="M 4.890625 31.390625 
L 31.203125 31.390625 
L 31.203125 23.390625 
L 4.890625 23.390625 
z
" id="DejaVuSans-45"/>
       <path d="M 10.796875 72.90625 
L 49.515625 72.90625 
L 49.515625 64.59375 
L 19.828125 64.59375 
L 19.828125 46.734375 
Q 21.96875 47.46875 24.109375 47.828125 
Q 26.265625 48.1875 28.421875 48.1875 
Q 40.625 48.1875 47.75 41.5 
Q 54.890625 34.8125 54.890625 23.390625 
Q 54.890625 11.625 47.5625 5.09375 
Q 40.234375 -1.421875 26.90625 -1.421875 
Q 22.3125 -1.421875 17.546875 -0.640625 
Q 12.796875 0.140625 7.71875 1.703125 
L 7.71875 11.625 
Q 12.109375 9.234375 16.796875 8.0625 
Q 21.484375 6.890625 26.703125 6.890625 
Q 35.15625 6.890625 40.078125 11.328125 
Q 45.015625 15.765625 45.015625 23.390625 
Q 45.015625 31 40.078125 35.4375 
Q 35.15625 39.890625 26.703125 39.890625 
Q 22.75 39.890625 18.8125 39.015625 
Q 14.890625 38.140625 10.796875 36.28125 
z
" id="DejaVuSans-53"/>
       <path d="M 72.703125 32.078125 
Q 68.453125 32.078125 66.03125 28.46875 
Q 63.625 24.859375 63.625 18.40625 
Q 63.625 12.0625 66.03125 8.421875 
Q 68.453125 4.78125 72.703125 4.78125 
Q 76.859375 4.78125 79.265625 8.421875 
Q 81.6875 12.0625 81.6875 18.40625 
Q 81.6875 24.8125 79.265625 28.4375 
Q 76.859375 32.078125 72.703125 32.078125 
z
M 72.703125 38.28125 
Q 80.421875 38.28125 84.953125 32.90625 
Q 89.5 27.546875 89.5 18.40625 
Q 89.5 9.28125 84.9375 3.921875 
Q 80.375 -1.421875 72.703125 -1.421875 
Q 64.890625 -1.421875 60.34375 3.921875 
Q 55.8125 9.28125 55.8125 18.40625 
Q 55.8125 27.59375 60.375 32.9375 
Q 64.9375 38.28125 72.703125 38.28125 
z
M 22.3125 68.015625 
Q 18.109375 68.015625 15.6875 64.375 
Q 13.28125 60.75 13.28125 54.390625 
Q 13.28125 47.953125 15.671875 44.328125 
Q 18.0625 40.71875 22.3125 40.71875 
Q 26.5625 40.71875 28.96875 44.328125 
Q 31.390625 47.953125 31.390625 54.390625 
Q 31.390625 60.6875 28.953125 64.34375 
Q 26.515625 68.015625 22.3125 68.015625 
z
M 66.40625 74.21875 
L 74.21875 74.21875 
L 28.609375 -1.421875 
L 20.796875 -1.421875 
z
M 22.3125 74.21875 
Q 30.03125 74.21875 34.609375 68.875 
Q 39.203125 63.53125 39.203125 54.390625 
Q 39.203125 45.171875 34.640625 39.84375 
Q 30.078125 34.515625 22.3125 34.515625 
Q 14.546875 34.515625 10.03125 39.859375 
Q 5.515625 45.21875 5.515625 54.390625 
Q 5.515625 63.484375 10.046875 68.84375 
Q 14.59375 74.21875 22.3125 74.21875 
z
" id="DejaVuSans-37"/>
      </defs>
      <g style="fill:#2f2235;" transform="translate(11.6075 298.582839)scale(0.16 -0.16)">
       <use xlink:href="#DejaVuSans-45"/>
       <use x="36.083984" xlink:href="#DejaVuSans-53"/>
       <use x="99.707031" xlink:href="#DejaVuSans-37"/>
      </g>
     </g>
    </g>
    <g id="ytick_2">
     <g id="line2d_10">
      <path clip-path="url(#pba79d0323a)" d="M 49.7625 255.044697 
L 705.5375 255.044697 
" style="fill:none;stroke:#f0f0f0;stroke-linecap:square;"/>
     </g>
     <g id="line2d_11">
      <g>
       <use style="fill:#003559;stroke:#003559;stroke-width:0.8;" x="49.7625" xlink:href="#mbd0bc6fe37" y="255.044697"/>
      </g>
     </g>
     <g id="text_9">
      <!-- -3% -->
      <g style="fill:#2f2235;" transform="translate(11.6075 261.123447)scale(0.16 -0.16)">
       <use xlink:href="#DejaVuSans-45"/>
       <use x="36.083984" xlink:href="#DejaVuSans-51"/>
       <use x="99.707031" xlink:href="#DejaVuSans-37"/>
      </g>
     </g>
    </g>
    <g id="ytick_3">
     <g id="line2d_12">
      <path clip-path="url(#pba79d0323a)" d="M 49.7625 217.585304 
L 705.5375 217.585304 
" style="fill:none;stroke:#f0f0f0;stroke-linecap:square;"/>
     </g>
     <g id="line2d_13">
      <g>
       <use style="fill:#003559;stroke:#003559;stroke-width:0.8;" x="49.7625" xlink:href="#mbd0bc6fe37" y="217.585304"/>
      </g>
     </g>
     <g id="text_10">
      <!-- 0% -->
      <g style="fill:#2f2235;" transform="translate(17.38 223.664054)scale(0.16 -0.16)">
       <use xlink:href="#DejaVuSans-48"/>
       <use x="63.623047" xlink:href="#DejaVuSans-37"/>
      </g>
     </g>
    </g>
    <g id="ytick_4">
     <g id="line2d_14">
      <path clip-path="url(#pba79d0323a)" d="M 49.7625 180.125912 
L 705.5375 180.125912 
" style="fill:none;stroke:#f0f0f0;stroke-linecap:square;"/>
     </g>
     <g id="line2d_15">
      <g>
       <use style="fill:#003559;stroke:#003559;stroke-width:0.8;" x="49.7625" xlink:href="#mbd0bc6fe37" y="180.125912"/>
      </g>
     </g>
     <g id="text_11">
      <!-- 2% -->
      <g style="fill:#2f2235;" transform="translate(17.38 186.204662)scale(0.16 -0.16)">
       <use xlink:href="#DejaVuSans-50"/>
       <use x="63.623047" xlink:href="#DejaVuSans-37"/>
      </g>
     </g>
    </g>
    <g id="ytick_5">
     <g id="line2d_16">
      <path clip-path="url(#pba79d0323a)" d="M 49.7625 142.66652 
L 705.5375 142.66652 
" style="fill:none;stroke:#f0f0f0;stroke-linecap:square;"/>
     </g>
     <g id="line2d_17">
      <g>
       <use style="fill:#003559;stroke:#003559;stroke-width:0.8;" x="49.7625" xlink:href="#mbd0bc6fe37" y="142.66652"/>
      </g>
     </g>
     <g id="text_12">
      <!-- 5% -->
      <g style="fill:#2f2235;" transform="translate(17.38 148.74527)scale(0.16 -0.16)">
       <use xlink:href="#DejaVuSans-53"/>
       <use x="63.623047" xlink:href="#DejaVuSans-37"/>
      </g>
     </g>
    </g>
    <g id="ytick_6">
     <g id="line2d_18">
      <path clip-path="url(#pba79d0323a)" d="M 49.7625 105.207127 
L 705.5375 105.207127 
" style="fill:none;stroke:#f0f0f0;stroke-linecap:square;"/>
     </g>
     <g id="line2d_19">
      <g>
       <use style="fill:#003559;stroke:#003559;stroke-width:0.8;" x="49.7625" xlink:href="#mbd0bc6fe37" y="105.207127"/>
      </g>
     </g>
     <g id="text_13">
      <!-- 8% -->
      <defs>
       <path d="M 31.78125 34.625 
Q 24.75 34.625 20.71875 30.859375 
Q 16.703125 27.09375 16.703125 20.515625 
Q 16.703125 13.921875 20.71875 10.15625 
Q 24.75 6.390625 31.78125 6.390625 
Q 38.8125 6.390625 42.859375 10.171875 
Q 46.921875 13.96875 46.921875 20.515625 
Q 46.921875 27.09375 42.890625 30.859375 
Q 38.875 34.625 31.78125 34.625 
z
M 21.921875 38.8125 
Q 15.578125 40.375 12.03125 44.71875 
Q 8.5 49.078125 8.5 55.328125 
Q 8.5 64.0625 14.71875 69.140625 
Q 20.953125 74.21875 31.78125 74.21875 
Q 42.671875 74.21875 48.875 69.140625 
Q 55.078125 64.0625 55.078125 55.328125 
Q 55.078125 49.078125 51.53125 44.71875 
Q 48 40.375 41.703125 38.8125 
Q 48.828125 37.15625 52.796875 32.3125 
Q 56.78125 27.484375 56.78125 20.515625 
Q 56.78125 9.90625 50.3125 4.234375 
Q 43.84375 -1.421875 31.78125 -1.421875 
Q 19.734375 -1.421875 13.25 4.234375 
Q 6.78125 9.90625 6.78125 20.515625 
Q 6.78125 27.484375 10.78125 32.3125 
Q 14.796875 37.15625 21.921875 38.8125 
z
M 18.3125 54.390625 
Q 18.3125 48.734375 21.84375 45.5625 
Q 25.390625 42.390625 31.78125 42.390625 
Q 38.140625 42.390625 41.71875 45.5625 
Q 45.3125 48.734375 45.3125 54.390625 
Q 45.3125 60.0625 41.71875 63.234375 
Q 38.140625 66.40625 31.78125 66.40625 
Q 25.390625 66.40625 21.84375 63.234375 
Q 18.3125 60.0625 18.3125 54.390625 
z
" id="DejaVuSans-56"/>
      </defs>
      <g style="fill:#2f2235;" transform="translate(17.38 111.285877)scale(0.16 -0.16)">
       <use xlink:href="#DejaVuSans-56"/>
       <use x="63.623047" xlink:href="#DejaVuSans-37"/>
      </g>
     </g>
    </g>
    <g id="ytick_7">
     <g id="line2d_20">
      <path clip-path="url(#pba79d0323a)" d="M 49.7625 67.747735 
L 705.5375 67.747735 
" style="fill:none;stroke:#f0f0f0;stroke-linecap:square;"/>
     </g>
     <g id="line2d_21">
      <g>
       <use style="fill:#003559;stroke:#003559;stroke-width:0.8;" x="49.7625" xlink:href="#mbd0bc6fe37" y="67.747735"/>
      </g>
     </g>
     <g id="text_14">
      <!-- 10% -->
      <g style="fill:#2f2235;" transform="translate(7.2 73.826485)scale(0.16 -0.16)">
       <use xlink:href="#DejaVuSans-49"/>
       <use x="63.623047" xlink:href="#DejaVuSans-48"/>
       <use x="127.246094" xlink:href="#DejaVuSans-37"/>
      </g>
     </g>
    </g>
    <g id="ytick_8">
     <g id="line2d_22">
      <path clip-path="url(#pba79d0323a)" d="M 49.7625 30.288342 
L 705.5375 30.288342 
" style="fill:none;stroke:#f0f0f0;stroke-linecap:square;"/>
     </g>
     <g id="line2d_23">
      <g>
       <use style="fill:#003559;stroke:#003559;stroke-width:0.8;" x="49.7625" xlink:href="#mbd0bc6fe37" y="30.288342"/>
      </g>
     </g>
     <g id="text_15">
      <!-- 12% -->
      <g style="fill:#2f2235;" transform="translate(7.2 36.367092)scale(0.16 -0.16)">
       <use xlink:href="#DejaVuSans-49"/>
       <use x="63.623047" xlink:href="#DejaVuSans-50"/>
       <use x="127.246094" xlink:href="#DejaVuSans-37"/>
      </g>
     </g>
    </g>
   </g>
   <g id="line2d_24">
    <path clip-path="url(#pba79d0323a)" d="M 79.570455 212.109929 
L 80.11539 210.690662 
L 80.660325 210.294295 
L 81.20526 215.790006 
L 81.750195 216.516642 
L 82.29513 217.474823 
L 82.840066 217.617462 
L 83.385001 219.390019 
L 83.929936 219.415979 
L 84.474871 220.738558 
L 85.019806 224.557614 
L 86.109677 219.070424 
L 86.654612 213.837996 
L 87.199547 213.582077 
L 87.744482 214.692022 
L 88.289417 216.223181 
L 88.834353 220.749541 
L 89.379288 217.703651 
L 90.469158 224.32871 
L 91.014093 224.837285 
L 91.559029 220.293503 
L 92.103964 219.480053 
L 92.648899 222.436092 
L 93.193834 224.459487 
L 93.738769 222.48824 
L 94.283705 222.862662 
L 94.82864 225.052002 
L 95.373575 225.633003 
L 95.91851 223.305676 
L 96.463445 217.289361 
L 97.00838 220.908706 
L 97.553316 222.675626 
L 98.098251 224.969404 
L 98.643186 232.061348 
L 99.733056 237.622581 
L 100.277992 234.191454 
L 100.822927 234.478206 
L 101.367862 239.176346 
L 101.912797 237.161169 
L 102.457732 238.110625 
L 103.002667 243.150338 
L 104.092538 246.430911 
L 104.637473 248.893945 
L 105.182408 248.703628 
L 105.727343 255.183688 
L 106.272279 255.863133 
L 108.452019 243.446117 
L 108.996954 238.95492 
L 109.54189 242.151112 
L 110.086825 239.552033 
L 110.63176 244.933294 
L 111.176695 246.602669 
L 111.72163 252.115113 
L 112.266566 248.940128 
L 112.811501 244.918266 
L 113.356436 245.3956 
L 113.901371 240.063126 
L 114.446306 241.949836 
L 115.536177 240.847298 
L 116.081112 243.880109 
L 116.626047 242.486592 
L 117.170982 236.657451 
L 117.715917 239.582942 
L 118.260853 236.82106 
L 118.805788 237.174124 
L 119.350723 231.826732 
L 119.895658 230.285599 
L 120.985529 226.15066 
L 121.530464 225.303516 
L 122.075399 229.354435 
L 122.620334 225.106172 
L 123.165269 229.083004 
L 123.710204 228.26884 
L 124.25514 226.3359 
L 124.800075 228.725626 
L 125.34501 228.189505 
L 125.889945 224.605536 
L 126.43488 224.572605 
L 126.979816 227.11627 
L 127.524751 235.66912 
L 128.069686 238.43969 
L 129.159556 241.501502 
L 129.704491 244.226292 
L 130.249427 243.011786 
L 130.794362 244.600428 
L 131.339297 244.819084 
L 131.884232 242.716154 
L 132.429167 245.131155 
L 132.974103 245.910668 
L 133.519038 239.447998 
L 134.063973 236.759982 
L 134.608908 240.478129 
L 135.153843 240.609725 
L 135.698778 238.839332 
L 136.243714 235.086773 
L 136.788649 234.541322 
L 137.333584 236.008496 
L 137.878519 238.065329 
L 138.423454 236.053411 
L 138.96839 235.022429 
L 139.513325 236.447895 
L 140.05826 236.903298 
L 140.603195 238.030067 
L 141.14813 235.782488 
L 141.693065 237.719708 
L 142.238001 236.176922 
L 142.782936 233.550452 
L 143.327871 232.003805 
L 143.872806 234.373556 
L 144.417741 230.278318 
L 144.962677 232.187879 
L 145.507612 230.817486 
L 146.052547 232.949185 
L 146.597482 238.009364 
L 147.687353 236.284844 
L 148.232288 236.410008 
L 148.777223 235.488809 
L 149.867093 239.379065 
L 150.412028 239.771621 
L 150.956964 234.019775 
L 151.501899 231.498453 
L 152.046834 232.937229 
L 152.591769 231.174771 
L 153.68164 233.742225 
L 154.226575 231.088373 
L 154.77151 232.543191 
L 155.316445 237.402278 
L 155.86138 239.976718 
L 156.951251 239.130108 
L 157.496186 235.354167 
L 158.041121 237.369029 
L 158.586056 235.100281 
L 159.130991 233.733967 
L 159.675927 234.071487 
L 160.220862 231.487819 
L 160.765797 229.921575 
L 161.310732 232.377938 
L 161.855667 229.090155 
L 162.400602 232.612112 
L 162.945538 232.33096 
L 163.490473 232.219419 
L 164.035408 230.8544 
L 164.580343 232.90329 
L 165.125278 232.902692 
L 165.670214 233.21551 
L 166.215149 230.15127 
L 166.760084 232.410269 
L 167.305019 232.090112 
L 167.849954 232.760954 
L 168.394889 236.502498 
L 168.939825 228.458322 
L 169.48476 228.565639 
L 170.029695 232.877325 
L 170.57463 228.588667 
L 171.119565 231.665651 
L 171.664501 230.45987 
L 172.209436 227.789581 
L 172.754371 229.613814 
L 173.299306 230.789778 
L 173.844241 232.289416 
L 174.389176 232.568961 
L 174.934112 237.270718 
L 175.479047 240.81677 
L 176.023982 241.12841 
L 176.568917 237.956778 
L 177.113852 235.984133 
L 177.658788 230.751882 
L 178.203723 228.584282 
L 178.748658 229.999543 
L 179.293593 230.260153 
L 179.838528 236.177025 
L 180.928399 241.821506 
L 181.473334 240.919828 
L 182.018269 238.90362 
L 183.108139 242.08645 
L 183.653075 246.534983 
L 184.19801 246.807146 
L 184.742945 245.974449 
L 185.28788 244.55986 
L 185.832815 246.758149 
L 186.377751 240.79984 
L 186.922686 237.165876 
L 187.467621 237.343594 
L 188.012556 238.797965 
L 188.557491 239.643959 
L 189.102426 239.093853 
L 189.647362 239.045065 
L 190.192297 237.512195 
L 190.737232 235.132611 
L 191.827102 227.460483 
L 192.372038 227.683992 
L 192.916973 226.423199 
L 193.461908 227.471412 
L 194.006843 229.114022 
L 194.551778 223.316022 
L 195.096713 224.58334 
L 195.641649 218.528369 
L 196.186584 219.468133 
L 196.731519 218.605995 
L 197.276454 215.23449 
L 197.821389 215.057193 
L 198.366325 213.771057 
L 198.91126 214.390552 
L 199.456195 215.712493 
L 200.00113 216.104403 
L 200.546065 217.946812 
L 201.091 212.945516 
L 201.635936 213.343924 
L 202.180871 208.051984 
L 202.725806 216.022652 
L 203.270741 215.861953 
L 203.815676 214.069474 
L 204.360612 214.846281 
L 204.905547 211.450533 
L 205.450482 209.418562 
L 205.995417 210.139888 
L 206.540352 208.723286 
L 207.085288 200.116524 
L 208.175158 198.230285 
L 208.720093 199.458683 
L 209.265028 198.947105 
L 209.809963 202.747361 
L 210.354899 203.241028 
L 210.899834 195.680584 
L 211.444769 192.325093 
L 211.989704 190.262018 
L 212.534639 186.78231 
L 213.079575 180.908493 
L 213.62451 178.977002 
L 214.169445 172.4895 
L 214.71438 169.074831 
L 215.259315 168.450802 
L 215.80425 163.010672 
L 216.349186 170.212252 
L 216.894121 171.869037 
L 217.439056 170.939424 
L 217.983991 173.64685 
L 218.528926 174.019778 
L 219.618797 177.786499 
L 220.163732 169.312291 
L 220.708667 167.261256 
L 221.253602 167.319495 
L 221.798537 163.131543 
L 222.343473 163.759357 
L 222.888408 160.89917 
L 223.433343 159.69832 
L 223.978278 154.517575 
L 224.523213 158.835936 
L 225.068149 156.339841 
L 225.613084 155.848811 
L 226.158019 159.34652 
L 226.702954 155.916435 
L 227.247889 158.526484 
L 227.792824 153.364761 
L 228.33776 151.650472 
L 228.882695 149.36294 
L 229.42763 149.000694 
L 229.972565 146.053063 
L 230.5175 151.790007 
L 231.062436 151.44625 
L 231.607371 153.300996 
L 232.152306 152.307437 
L 232.697241 152.345001 
L 233.242176 150.305584 
L 233.787112 152.816403 
L 234.332047 146.945813 
L 234.876982 139.55092 
L 235.421917 140.0967 
L 235.966852 140.033123 
L 236.511787 139.015683 
L 237.056723 134.912723 
L 237.601658 128.791588 
L 238.146593 132.503306 
L 238.691528 134.338937 
L 239.781399 140.982458 
L 240.326334 146.027369 
L 240.871269 144.777366 
L 241.416204 148.30508 
L 241.961139 143.474267 
L 242.506074 140.504297 
L 243.595945 146.760987 
L 244.14088 148.57155 
L 244.685815 144.066333 
L 245.23075 146.624747 
L 245.775686 151.195533 
L 246.320621 151.240219 
L 246.865556 149.96121 
L 247.410491 151.908455 
L 247.955426 146.724195 
L 248.500361 145.858987 
L 249.045297 144.325245 
L 249.590232 146.901833 
L 250.135167 146.91622 
L 250.680102 147.297056 
L 251.225037 154.299892 
L 251.769973 153.291351 
L 252.314908 158.781226 
L 252.859843 158.761421 
L 253.404778 163.235971 
L 253.949713 156.841776 
L 254.494648 155.714415 
L 255.584519 149.928756 
L 256.129454 153.961861 
L 256.674389 160.964639 
L 257.219324 161.880055 
L 257.76426 158.979629 
L 258.309195 158.586661 
L 259.399065 152.993908 
L 259.944 157.542551 
L 260.488936 156.536021 
L 261.033871 150.280758 
L 261.578806 151.956351 
L 262.123741 158.180954 
L 262.668676 158.79385 
L 263.213611 160.130956 
L 263.758547 158.719098 
L 264.303482 161.386737 
L 264.848417 160.995365 
L 265.393352 167.767294 
L 265.938287 165.011821 
L 267.028158 155.818465 
L 267.573093 160.429879 
L 268.118028 159.327111 
L 268.662963 168.480575 
L 269.207898 167.49504 
L 269.752834 167.585515 
L 270.297769 170.557551 
L 270.842704 169.385878 
L 271.387639 168.850176 
L 271.932574 165.831459 
L 272.47751 165.327729 
L 273.022445 164.489627 
L 273.56738 170.404718 
L 274.112315 173.877009 
L 274.65725 175.235771 
L 275.202185 174.212422 
L 275.747121 174.123472 
L 276.292056 169.379555 
L 276.836991 171.960235 
L 277.381926 172.591562 
L 277.926861 171.695451 
L 278.471797 172.301773 
L 279.016732 170.662385 
L 279.561667 172.31626 
L 280.106602 167.816203 
L 280.651537 168.696677 
L 281.196472 165.130492 
L 281.741408 165.115475 
L 282.286343 160.372989 
L 282.831278 164.607657 
L 283.376213 162.894196 
L 283.921148 164.12818 
L 284.466084 163.300691 
L 285.011019 159.482826 
L 286.645824 169.888922 
L 287.19076 168.993387 
L 287.735695 174.711806 
L 288.28063 174.305668 
L 289.3705 181.564096 
L 289.915435 182.588832 
L 290.460371 181.313325 
L 291.005306 183.127034 
L 291.550241 184.527094 
L 292.095176 184.547613 
L 292.640111 185.275139 
L 293.185047 193.340053 
L 293.729982 194.542313 
L 294.274917 194.176797 
L 294.819852 190.724755 
L 295.364787 184.36203 
L 295.909722 182.209747 
L 296.454658 181.859284 
L 296.999593 184.708893 
L 297.544528 184.328488 
L 298.089463 181.832831 
L 298.634398 177.839554 
L 299.179334 180.437909 
L 299.724269 179.603739 
L 300.269204 176.987403 
L 300.814139 171.140671 
L 301.359074 170.242142 
L 301.904009 171.806726 
L 302.448945 173.826562 
L 302.99388 174.820288 
L 303.538815 176.720191 
L 304.08375 174.065235 
L 304.628685 170.655575 
L 305.173621 168.30492 
L 305.718556 164.50128 
L 306.263491 165.799692 
L 306.808426 164.511034 
L 307.353361 165.595175 
L 307.898296 165.350807 
L 308.443232 161.437935 
L 308.988167 161.421116 
L 309.533102 167.099283 
L 310.078037 167.77342 
L 310.622972 169.870427 
L 311.167908 174.420888 
L 311.712843 176.747537 
L 312.257778 173.679078 
L 312.802713 168.376701 
L 313.347648 169.78084 
L 314.437519 162.804096 
L 314.982454 166.293677 
L 316.072324 166.33562 
L 316.617259 165.692297 
L 317.162195 170.517288 
L 317.70713 171.487514 
L 318.797 164.086283 
L 319.341935 158.282286 
L 319.886871 159.223974 
L 320.431806 153.282578 
L 320.976741 151.09001 
L 321.521676 155.228482 
L 322.066611 152.739459 
L 322.611546 153.730649 
L 323.156482 151.998047 
L 323.701417 152.208789 
L 324.246352 148.315262 
L 324.791287 147.400415 
L 325.336222 148.176222 
L 325.881158 145.037167 
L 326.426093 144.12147 
L 326.971028 145.308739 
L 327.515963 141.180615 
L 328.060898 142.355593 
L 329.150769 145.833879 
L 329.695704 150.319052 
L 330.240639 151.940411 
L 330.785574 145.998315 
L 331.330509 148.737514 
L 331.875445 148.60096 
L 332.42038 151.961028 
L 332.965315 153.762369 
L 333.51025 148.900013 
L 334.055185 145.977855 
L 334.60012 147.782629 
L 335.145056 147.652888 
L 337.324796 157.912277 
L 337.869732 156.786665 
L 338.959602 153.179792 
L 339.504537 153.599473 
L 340.049472 157.727707 
L 340.594408 157.827323 
L 341.139343 160.595686 
L 341.684278 157.742255 
L 342.229213 155.897517 
L 342.774148 153.455555 
L 343.319083 154.434075 
L 343.864019 159.970388 
L 344.408954 156.876991 
L 344.953889 152.938561 
L 345.498824 157.459061 
L 346.043759 156.919536 
L 346.588695 153.084581 
L 347.13363 156.333791 
L 347.678565 150.700162 
L 348.2235 151.682485 
L 348.768435 154.933568 
L 349.31337 150.535268 
L 349.858306 149.502757 
L 350.403241 151.437682 
L 350.948176 148.572194 
L 351.493111 154.581368 
L 352.038046 148.792148 
L 352.582982 151.238484 
L 353.127917 150.233205 
L 353.672852 151.370985 
L 354.217787 149.895266 
L 354.762722 147.001417 
L 355.307657 149.474472 
L 355.852593 146.898594 
L 356.397528 147.710808 
L 356.942463 149.756712 
L 357.487398 150.348308 
L 358.032333 153.380976 
L 358.577269 155.755924 
L 359.122204 152.681545 
L 359.667139 153.043178 
L 360.212074 149.360744 
L 360.757009 147.897164 
L 361.301944 151.001435 
L 361.84688 156.820772 
L 362.391815 158.852867 
L 362.93675 157.920592 
L 363.481685 157.78361 
L 364.02662 160.25899 
L 364.571556 156.994952 
L 365.116491 162.319307 
L 365.661426 166.116426 
L 366.206361 165.61283 
L 366.751296 158.686236 
L 367.296232 157.286928 
L 367.841167 160.30812 
L 368.931037 156.113588 
L 369.475972 153.075164 
L 370.020907 154.246013 
L 370.565843 156.632305 
L 371.110778 156.153947 
L 371.655713 154.748178 
L 372.200648 149.63973 
L 372.745583 142.969347 
L 373.290519 145.163476 
L 373.835454 146.695283 
L 374.380389 146.784503 
L 374.925324 147.457934 
L 376.015194 144.186339 
L 376.56013 143.264878 
L 377.105065 138.920713 
L 377.65 139.309771 
L 378.194935 142.509213 
L 378.73987 147.302361 
L 379.829741 153.57105 
L 380.374676 159.335853 
L 380.919611 157.160249 
L 381.464546 156.472939 
L 382.009481 157.681534 
L 382.554417 160.343119 
L 383.099352 165.145042 
L 383.644287 167.886241 
L 384.189222 162.045032 
L 384.734157 168.791887 
L 385.279093 168.24423 
L 385.824028 165.831684 
L 386.368963 165.300589 
L 386.913898 166.173861 
L 387.458833 163.682224 
L 388.003768 166.99492 
L 388.548704 165.163922 
L 389.093639 160.610803 
L 389.638574 163.737734 
L 390.183509 166.171846 
L 390.728444 165.641463 
L 391.27338 162.460925 
L 391.818315 158.185122 
L 392.36325 155.953501 
L 392.908185 157.931452 
L 393.45312 161.290887 
L 393.998056 160.425866 
L 394.542991 159.076935 
L 395.087926 162.390835 
L 395.632861 162.095829 
L 396.177796 160.953684 
L 396.722731 157.590587 
L 397.267667 160.565533 
L 397.812602 158.722513 
L 398.357537 162.250735 
L 398.902472 163.466631 
L 399.447407 163.600549 
L 399.992343 158.771231 
L 400.537278 148.304757 
L 401.082213 147.39936 
L 401.627148 145.734433 
L 402.172083 142.456508 
L 402.717018 146.625518 
L 403.261954 144.11003 
L 403.806889 147.898632 
L 404.896759 138.011082 
L 405.441694 136.31645 
L 405.98663 138.752131 
L 406.531565 133.37046 
L 407.0765 132.436984 
L 407.621435 131.976464 
L 408.16637 130.027953 
L 408.711305 135.3389 
L 409.256241 133.872527 
L 409.801176 130.606092 
L 410.346111 129.41934 
L 410.891046 128.846801 
L 411.435981 131.759695 
L 411.980917 129.607841 
L 412.525852 128.860131 
L 413.070787 128.719797 
L 413.615722 130.395229 
L 414.160657 127.566228 
L 414.705592 123.48731 
L 415.250528 122.138579 
L 415.795463 119.165262 
L 416.885333 109.605567 
L 417.430268 108.76749 
L 417.975204 109.340137 
L 418.520139 110.560066 
L 419.065074 110.403076 
L 419.610009 108.516686 
L 420.154944 105.3845 
L 420.69988 106.645401 
L 421.244815 106.049836 
L 421.78975 109.142511 
L 422.334685 104.962218 
L 422.87962 106.109859 
L 423.424555 104.843806 
L 423.969491 107.047032 
L 424.514426 107.893519 
L 425.059361 109.985383 
L 425.604296 104.386492 
L 426.149231 103.11443 
L 426.694167 103.537907 
L 427.239102 106.477887 
L 427.784037 108.328227 
L 428.328972 106.385516 
L 428.873907 100.900189 
L 429.418842 105.402325 
L 429.963778 108.240529 
L 430.508713 108.692696 
L 431.053648 110.598179 
L 431.598583 115.804057 
L 432.143518 115.629776 
L 432.688454 113.111476 
L 433.233389 118.046942 
L 433.778324 117.26024 
L 434.868194 110.803544 
L 435.413129 112.03816 
L 435.958065 104.514551 
L 436.503 102.611088 
L 437.047935 105.112811 
L 437.59287 101.825122 
L 438.137805 105.331869 
L 438.682741 102.331973 
L 439.227676 106.286673 
L 439.772611 103.626301 
L 440.317546 105.393794 
L 440.862481 101.628942 
L 441.407416 99.122128 
L 441.952352 97.561601 
L 442.497287 97.258034 
L 443.042222 93.621063 
L 443.587157 99.348164 
L 444.677028 96.382917 
L 445.221963 94.44703 
L 445.766898 91.651163 
L 446.311833 79.463616 
L 446.856768 78.966283 
L 447.401704 76.214986 
L 447.946639 75.599922 
L 448.491574 70.316644 
L 449.036509 76.839082 
L 449.581444 71.147725 
L 450.126379 73.280195 
L 450.671315 80.580741 
L 451.21625 83.988721 
L 451.761185 84.443568 
L 452.30612 83.694888 
L 452.851055 83.72997 
L 453.395991 80.946399 
L 454.485861 81.038234 
L 455.030796 87.917765 
L 455.575731 86.215607 
L 456.120666 82.804614 
L 456.665602 84.063383 
L 457.210537 90.064036 
L 457.755472 94.29029 
L 458.300407 88.738891 
L 459.390278 92.641169 
L 459.935213 95.185532 
L 460.480148 92.862825 
L 461.025083 94.656002 
L 461.570018 97.357718 
L 462.114953 102.113354 
L 462.659889 102.347842 
L 463.204824 99.00067 
L 463.749759 99.365376 
L 464.294694 96.396638 
L 465.9295 94.427117 
L 466.474435 94.201428 
L 467.01937 90.755263 
L 467.564305 89.054415 
L 468.10924 90.820165 
L 468.654176 90.287796 
L 469.199111 90.420509 
L 469.744046 88.728817 
L 470.288981 88.027454 
L 470.833916 86.562557 
L 471.378852 91.255548 
L 471.923787 89.90734 
L 472.468722 85.515117 
L 473.013657 89.797715 
L 473.558592 84.467941 
L 474.103528 83.383559 
L 474.648463 83.947039 
L 475.193398 89.712019 
L 475.738333 86.0562 
L 476.283268 89.099336 
L 476.828203 90.647521 
L 477.373139 88.757648 
L 479.007944 98.68009 
L 479.552879 98.926594 
L 480.097815 96.908307 
L 481.187685 94.053998 
L 481.73262 95.056142 
L 482.277555 94.486733 
L 482.82249 96.609136 
L 483.367426 90.012032 
L 483.912361 89.26434 
L 484.457296 95.49836 
L 485.002231 98.84654 
L 485.547166 93.545223 
L 486.092102 97.859458 
L 486.637037 99.161667 
L 487.181972 97.742236 
L 487.726907 101.174002 
L 488.271842 97.611897 
L 488.816777 92.053934 
L 489.361713 94.616366 
L 489.906648 90.836046 
L 490.996518 96.737131 
L 492.086389 94.94234 
L 492.631324 96.759748 
L 493.176259 93.916628 
L 493.721194 98.562106 
L 494.266129 101.214148 
L 494.811064 104.578111 
L 496.44587 97.036517 
L 496.990805 101.112541 
L 497.53574 100.570142 
L 498.080676 98.977233 
L 498.625611 104.084752 
L 499.170546 106.618396 
L 500.260416 102.041991 
L 500.805352 101.10442 
L 501.350287 99.239086 
L 501.895222 98.077083 
L 502.440157 97.47815 
L 502.985092 97.718029 
L 503.530027 100.422399 
L 504.074963 101.102086 
L 504.619898 102.289442 
L 505.164833 94.677868 
L 505.709768 93.719777 
L 506.254703 93.640448 
L 506.799639 94.278974 
L 507.344574 94.538617 
L 507.889509 95.307384 
L 508.434444 93.426822 
L 508.979379 93.408325 
L 509.524314 90.659911 
L 510.06925 92.803995 
L 510.614185 91.552449 
L 511.15912 88.585844 
L 511.704055 92.224208 
L 512.24899 91.565113 
L 512.793926 90.648005 
L 513.338861 91.621608 
L 513.883796 93.089399 
L 514.428731 98.985154 
L 514.973666 95.151728 
L 515.518601 98.059373 
L 516.063537 101.95455 
L 516.608472 99.715797 
L 517.153407 105.514574 
L 517.698342 102.29557 
L 518.243277 100.780066 
L 518.788213 98.733193 
L 519.333148 99.149918 
L 519.878083 102.968195 
L 520.423018 108.93687 
L 520.967953 104.134487 
L 522.057824 107.092154 
L 522.602759 101.879657 
L 523.147694 103.803326 
L 524.237564 105.107576 
L 524.7825 105.43717 
L 525.327435 108.668812 
L 525.87237 110.355804 
L 526.417305 106.109365 
L 526.96224 103.543672 
L 527.507176 113.003215 
L 528.052111 119.157585 
L 528.597046 117.979407 
L 529.141981 118.228064 
L 529.686916 119.312178 
L 530.231851 115.86646 
L 530.776787 121.454177 
L 531.321722 117.511718 
L 531.866657 116.978591 
L 532.411592 115.111326 
L 532.956527 114.187322 
L 533.501463 111.361592 
L 534.046398 112.052021 
L 534.591333 113.677923 
L 535.136268 111.058563 
L 535.681203 110.383566 
L 536.226138 114.293656 
L 537.860944 101.082568 
L 538.405879 100.711614 
L 538.950814 99.465202 
L 539.49575 100.584714 
L 540.040685 103.611302 
L 540.58562 103.286809 
L 541.130555 102.604009 
L 541.67549 104.627877 
L 542.220425 98.6069 
L 542.765361 103.712154 
L 543.855231 108.272954 
L 544.400166 104.002577 
L 544.945101 104.716341 
L 545.490037 105.649926 
L 546.579907 110.729504 
L 547.124842 114.799936 
L 547.669777 111.431776 
L 548.214712 109.363697 
L 548.759648 106.066218 
L 549.304583 108.084452 
L 549.849518 99.872832 
L 550.394453 102.928119 
L 550.939388 109.427349 
L 551.484324 110.252782 
L 552.029259 109.699474 
L 552.574194 107.154795 
L 553.119129 110.312307 
L 553.664064 108.300776 
L 554.209 102.686701 
L 555.29887 107.589402 
L 555.843805 112.945077 
L 556.38874 112.059693 
L 558.023546 103.815657 
L 558.568481 99.129472 
L 559.113416 98.603634 
L 559.658351 95.404845 
L 560.748222 100.815689 
L 561.293157 99.923847 
L 561.838092 102.452183 
L 562.383027 100.492684 
L 562.927962 95.929998 
L 563.472898 94.50802 
L 564.562768 99.092242 
L 565.107703 94.557007 
L 565.652638 97.029353 
L 566.197574 96.626311 
L 566.742509 97.350801 
L 567.287444 97.065361 
L 567.832379 93.397606 
L 568.377314 95.031185 
L 568.922249 99.48342 
L 569.467185 94.669245 
L 570.01212 93.831927 
L 570.557055 91.361576 
L 571.10199 91.310345 
L 571.646925 88.667269 
L 572.736796 79.851684 
L 573.281731 80.631298 
L 573.826666 81.667793 
L 574.371601 80.261653 
L 574.916536 79.468747 
L 575.461472 77.500693 
L 576.006407 79.71372 
L 576.551342 87.189144 
L 577.096277 85.607931 
L 578.186148 80.72735 
L 578.731083 75.175853 
L 579.276018 72.261288 
L 579.820953 73.42195 
L 580.365888 70.065871 
L 580.910824 70.22976 
L 581.455759 65.976873 
L 582.000694 65.075297 
L 582.545629 63.461079 
L 583.090564 62.59207 
L 583.635499 62.295594 
L 584.180435 67.121963 
L 584.72537 66.81563 
L 585.270305 74.17875 
L 585.81524 72.427848 
L 586.360175 69.048351 
L 586.905111 62.162258 
L 587.450046 60.808164 
L 587.994981 63.06211 
L 588.539916 68.192767 
L 589.084851 61.645023 
L 589.629786 66.241347 
L 590.174722 63.167804 
L 590.719657 70.658178 
L 591.264592 70.71196 
L 591.809527 68.346471 
L 592.354462 67.158506 
L 592.899398 67.179596 
L 593.989268 72.64804 
L 594.534203 69.213963 
L 595.079138 67.662409 
L 595.624073 68.075894 
L 596.169009 67.278218 
L 596.713944 70.215389 
L 597.258879 66.731165 
L 597.803814 62.450422 
L 598.348749 64.911347 
L 598.893685 64.458349 
L 599.43862 60.876019 
L 599.983555 62.883027 
L 600.52849 56.026022 
L 601.073425 50.886313 
L 601.61836 51.697776 
L 602.163296 48.319502 
L 602.708231 42.648768 
L 603.253166 46.689767 
L 603.798101 44.503698 
L 604.343036 44.868722 
L 604.887972 45.474856 
L 605.432907 42.982465 
L 605.977842 44.460498 
L 607.067712 53.633918 
L 607.612647 53.582686 
L 608.157583 51.373427 
L 608.702518 51.335912 
L 609.247453 51.726888 
L 609.792388 51.712414 
L 610.337323 47.298115 
L 610.882259 45.409462 
L 611.427194 47.782517 
L 611.972129 48.628535 
L 612.517064 44.488974 
L 613.061999 46.310411 
L 613.606935 47.510762 
L 614.15187 47.477123 
L 614.696805 50.909882 
L 615.24174 47.78494 
L 615.786675 54.957077 
L 616.33161 50.011508 
L 616.876546 51.343779 
L 617.421481 55.405265 
L 617.966416 54.350782 
L 618.511351 59.911435 
L 619.056286 58.014188 
L 619.601222 55.330226 
L 620.146157 57.125279 
L 620.691092 58.298491 
L 621.236027 55.033366 
L 621.780962 57.143395 
L 622.325897 56.952131 
L 622.870833 55.681635 
L 623.415768 50.376538 
L 623.960703 51.934564 
L 624.505638 51.702163 
L 625.050573 47.812737 
L 625.595509 56.204303 
L 626.140444 56.980265 
L 627.230314 69.143579 
L 627.775249 62.569191 
L 628.320184 61.754117 
L 628.86512 56.722216 
L 629.410055 57.406561 
L 629.95499 55.496142 
L 630.499925 56.812441 
L 631.04486 58.509898 
L 631.589796 58.64081 
L 632.134731 58.098853 
L 632.679666 52.890259 
L 633.224601 53.427952 
L 633.769536 52.04753 
L 634.314471 52.785406 
L 634.859407 52.186512 
L 635.404342 56.427156 
L 635.949277 52.683788 
L 636.494212 54.298815 
L 637.039147 54.043968 
L 637.584083 54.638846 
L 638.129018 51.246979 
L 638.673953 49.39209 
L 639.218888 49.231631 
L 639.763823 48.530973 
L 640.308759 47.267968 
L 640.853694 44.623702 
L 641.398629 42.81064 
L 641.943564 38.386506 
L 642.488499 32.82935 
L 643.033434 30.641338 
L 643.57837 34.975333 
L 644.123305 28.970284 
L 644.66824 21.581818 
L 645.75811 23.978717 
L 646.303046 30.813177 
L 646.847981 28.066212 
L 647.392916 31.346697 
L 647.937851 25.052647 
L 648.482786 33.29139 
L 649.027721 32.929436 
L 649.572657 30.53909 
L 650.117592 31.776215 
L 650.662527 34.335295 
L 651.207462 33.378587 
L 651.752397 35.03493 
L 652.297333 36.070465 
L 652.842268 36.084693 
L 653.387203 37.838138 
L 653.932138 38.485314 
L 654.477073 35.725281 
L 655.022008 36.920818 
L 655.566944 36.245441 
L 656.111879 38.664614 
L 656.656814 35.480056 
L 657.201749 39.682258 
L 657.746684 36.354613 
L 658.29162 46.375042 
L 658.836555 49.297698 
L 659.38149 54.471871 
L 659.926425 50.982747 
L 660.47136 49.971235 
L 661.016295 54.220762 
L 661.561231 56.013101 
L 662.106166 51.452315 
L 662.651101 51.559794 
L 663.196036 49.607909 
L 664.285907 59.476664 
L 664.830842 57.519279 
L 665.375777 49.79394 
L 665.920712 51.538519 
L 666.465647 49.521586 
L 667.010583 52.623708 
L 667.555518 48.415937 
L 668.645388 51.311442 
L 669.190323 57.569198 
L 669.735258 58.919569 
L 670.280194 58.279615 
L 670.825129 53.683961 
L 671.370064 57.566838 
L 671.914999 54.294751 
L 673.00487 56.371038 
L 673.549805 59.511061 
L 674.09474 65.139421 
L 674.639675 69.148459 
L 675.18461 63.797885 
L 675.729545 67.747735 
L 675.729545 67.747735 
" style="fill:none;stroke:#6083a9;stroke-linecap:square;stroke-width:2;"/>
   </g>
   <g id="line2d_25">
    <path clip-path="url(#pba79d0323a)" d="M 79.570455 219.960836 
L 80.11539 213.106625 
L 80.660325 225.548193 
L 81.20526 222.699666 
L 81.750195 225.567778 
L 82.29513 224.279482 
L 82.840066 218.934278 
L 83.385001 219.677498 
L 83.929936 220.688454 
L 85.019806 212.172381 
L 85.564742 216.326469 
L 86.109677 217.284569 
L 86.654612 225.152992 
L 87.199547 217.262506 
L 87.744482 224.336103 
L 88.289417 223.05509 
L 88.834353 212.421014 
L 89.379288 207.389596 
L 89.924223 208.957422 
L 91.014093 216.712118 
L 91.559029 210.978564 
L 92.103964 208.701791 
L 92.648899 208.489972 
L 93.193834 192.436542 
L 93.738769 197.245392 
L 94.283705 199.941415 
L 94.82864 201.933048 
L 95.373575 200.329273 
L 95.91851 198.15941 
L 96.463445 199.517518 
L 97.00838 194.742451 
L 97.553316 191.156353 
L 98.098251 192.707445 
L 98.643186 207.306718 
L 99.188121 202.264147 
L 99.733056 207.770404 
L 100.277992 211.495606 
L 100.822927 212.178342 
L 101.367862 219.443467 
L 101.912797 224.138702 
L 102.457732 223.650053 
L 103.002667 225.657337 
L 103.547603 223.747664 
L 104.092538 228.867783 
L 104.637473 230.274362 
L 105.182408 236.604244 
L 105.727343 238.338187 
L 106.272279 236.689198 
L 106.817214 238.193701 
L 107.362149 246.689218 
L 107.907084 247.85589 
L 108.452019 247.036124 
L 108.996954 240.413095 
L 109.54189 240.69479 
L 110.086825 243.151617 
L 110.63176 250.06221 
L 111.176695 238.36898 
L 112.266566 250.641354 
L 112.811501 251.543751 
L 113.356436 262.197279 
L 113.901371 255.95393 
L 114.446306 254.894823 
L 114.991241 252.035726 
L 115.536177 257.75363 
L 116.081112 260.706053 
L 117.170982 250.373518 
L 117.715917 233.620195 
L 118.260853 227.044014 
L 118.805788 238.213232 
L 119.350723 237.62617 
L 119.895658 239.691945 
L 120.440593 233.127763 
L 120.985529 233.561839 
L 121.530464 230.551619 
L 122.075399 232.332596 
L 122.620334 228.59019 
L 123.165269 219.736786 
L 123.710204 223.264208 
L 124.25514 235.24058 
L 124.800075 241.210038 
L 125.34501 231.819305 
L 125.889945 230.350302 
L 126.43488 231.950472 
L 126.979816 237.501989 
L 127.524751 231.122514 
L 128.069686 229.248979 
L 128.614621 229.755047 
L 129.159556 232.805085 
L 129.704491 233.560774 
L 130.249427 235.289048 
L 130.794362 231.726728 
L 131.339297 223.97513 
L 131.884232 235.450263 
L 132.429167 243.855426 
L 132.974103 244.259135 
L 133.519038 243.61947 
L 134.063973 252.561736 
L 134.608908 256.028467 
L 135.698778 260.635992 
L 136.243714 263.175732 
L 136.788649 263.518061 
L 137.878519 253.730604 
L 138.423454 250.099197 
L 138.96839 248.32362 
L 139.513325 252.362963 
L 140.05826 255.031867 
L 140.603195 250.817104 
L 141.14813 249.985103 
L 141.693065 245.127484 
L 142.238001 243.401972 
L 142.782936 242.878215 
L 143.327871 240.110558 
L 143.872806 249.008648 
L 144.417741 249.778748 
L 144.962677 253.059887 
L 145.507612 247.940802 
L 146.052547 251.71672 
L 146.597482 250.193735 
L 147.142417 252.561931 
L 147.687353 249.63672 
L 148.232288 245.281232 
L 148.777223 246.382409 
L 149.322158 245.645433 
L 149.867093 244.493921 
L 150.412028 239.817291 
L 150.956964 241.645864 
L 151.501899 241.313928 
L 152.046834 243.738918 
L 152.591769 249.303854 
L 153.136704 248.200602 
L 153.68164 245.631592 
L 154.226575 250.326155 
L 154.77151 241.005894 
L 155.316445 245.362959 
L 155.86138 240.918881 
L 156.406315 238.660943 
L 156.951251 248.665249 
L 157.496186 248.782519 
L 158.041121 257.961828 
L 158.586056 258.557163 
L 159.130991 254.585785 
L 159.675927 243.718418 
L 160.220862 239.063503 
L 160.765797 248.036355 
L 161.310732 250.078599 
L 161.855667 241.221792 
L 162.400602 240.135356 
L 162.945538 229.642393 
L 163.490473 233.93546 
L 164.035408 237.226371 
L 164.580343 245.187515 
L 165.125278 247.43738 
L 165.670214 240.021107 
L 166.215149 245.493446 
L 166.760084 240.56441 
L 167.305019 237.846618 
L 167.849954 233.167819 
L 168.394889 234.70147 
L 168.939825 234.560735 
L 169.48476 221.824447 
L 170.029695 229.271607 
L 170.57463 224.738695 
L 171.119565 215.625926 
L 171.664501 212.853791 
L 172.209436 202.854265 
L 172.754371 220.723296 
L 173.299306 222.561229 
L 173.844241 229.5627 
L 174.389176 232.075386 
L 174.934112 232.75689 
L 175.479047 229.937768 
L 176.023982 235.071104 
L 176.568917 229.936634 
L 177.113852 239.340537 
L 177.658788 233.713188 
L 178.203723 235.285553 
L 179.838528 266.959922 
L 180.383464 272.861345 
L 180.928399 272.337557 
L 181.473334 264.848221 
L 182.018269 260.442159 
L 182.563204 268.368806 
L 183.108139 281.833383 
L 183.653075 283.766741 
L 184.19801 292.135747 
L 184.742945 293.367363 
L 185.28788 297.510568 
L 185.832815 283.084738 
L 186.377751 293.193788 
L 186.922686 291.668173 
L 187.467621 281.318699 
L 188.012556 283.963133 
L 188.557491 288.739978 
L 189.102426 279.409708 
L 190.192297 301.948748 
L 190.737232 309.218182 
L 191.282167 307.298583 
L 191.827102 303.254547 
L 192.372038 304.304229 
L 192.916973 292.215779 
L 193.461908 293.703928 
L 194.006843 294.022897 
L 194.551778 296.065994 
L 195.096713 289.318078 
L 195.641649 289.509299 
L 196.186584 292.003448 
L 196.731519 282.54069 
L 197.276454 275.275122 
L 197.821389 269.604033 
L 198.91126 283.42976 
L 200.00113 286.524308 
L 200.546065 289.074372 
L 201.091 290.418295 
L 201.635936 286.739134 
L 202.180871 292.583258 
L 202.725806 291.188563 
L 204.360612 297.806346 
L 204.905547 293.538717 
L 205.450482 291.876481 
L 205.995417 296.293268 
L 206.540352 294.303991 
L 207.085288 293.406664 
L 207.630223 290.887707 
L 208.175158 292.226771 
L 208.720093 286.300901 
L 209.265028 283.87752 
L 210.354899 297.287916 
L 210.899834 305.028677 
L 211.444769 302.473953 
L 211.989704 306.099356 
L 212.534639 307.768008 
L 213.079575 307.838634 
L 213.62451 300.525578 
L 214.169445 287.677167 
L 214.71438 287.947175 
L 215.259315 276.06899 
L 215.80425 272.484235 
L 216.349186 265.057562 
L 216.894121 266.263192 
L 217.439056 273.051029 
L 217.983991 269.810265 
L 218.528926 261.846139 
L 219.073862 270.504889 
L 219.618797 270.41799 
L 220.163732 268.704377 
L 220.708667 264.784608 
L 221.253602 270.663191 
L 221.798537 273.461385 
L 222.343473 267.620028 
L 222.888408 256.621353 
L 223.433343 255.568274 
L 223.978278 249.358107 
L 224.523213 247.896809 
L 225.068149 244.888618 
L 225.613084 246.715242 
L 226.158019 247.607474 
L 226.702954 250.537169 
L 227.247889 249.495853 
L 227.792824 242.522271 
L 228.33776 240.937651 
L 228.882695 236.587892 
L 229.42763 239.930155 
L 229.972565 235.214823 
L 230.5175 253.419504 
L 231.062436 261.31811 
L 231.607371 262.841704 
L 232.152306 273.008085 
L 232.697241 269.290079 
L 233.242176 267.652918 
L 233.787112 272.545732 
L 234.332047 271.568802 
L 234.876982 279.896159 
L 235.421917 284.695157 
L 235.966852 286.490228 
L 236.511787 295.276134 
L 237.056723 288.871646 
L 237.601658 292.225548 
L 238.146593 285.93875 
L 238.691528 286.356349 
L 239.236463 284.140443 
L 239.781399 288.950779 
L 240.326334 290.281866 
L 240.871269 292.265905 
L 241.416204 290.490962 
L 241.961139 282.162003 
L 242.506074 284.960416 
L 243.05101 285.460843 
L 243.595945 282.951766 
L 244.14088 277.549685 
L 244.685815 277.745329 
L 245.23075 279.508512 
L 245.775686 282.422839 
L 246.320621 281.928851 
L 246.865556 280.0828 
L 247.410491 283.567364 
L 247.955426 284.876618 
L 248.500361 280.055469 
L 249.045297 279.742927 
L 249.590232 282.583232 
L 251.769973 265.121179 
L 252.314908 266.952668 
L 252.859843 265.296538 
L 253.404778 262.994826 
L 253.949713 261.812522 
L 254.494648 271.537389 
L 255.039584 271.175754 
L 255.584519 268.66958 
L 256.129454 265.326523 
L 256.674389 266.584687 
L 257.219324 265.923767 
L 258.309195 284.038079 
L 258.85413 300.493719 
L 259.399065 301.329894 
L 260.488936 281.14669 
L 261.033871 287.144517 
L 261.578806 282.947001 
L 262.123741 275.232241 
L 262.668676 276.513994 
L 263.213611 287.330559 
L 263.758547 278.695491 
L 264.848417 282.062921 
L 265.393352 271.725499 
L 265.938287 268.521426 
L 266.483223 263.12983 
L 267.028158 253.276621 
L 267.573093 253.635844 
L 268.118028 258.820606 
L 268.662963 253.678189 
L 269.207898 253.115046 
L 269.752834 248.17254 
L 270.297769 245.207497 
L 270.842704 249.064264 
L 271.387639 248.261697 
L 271.932574 249.575329 
L 272.47751 250.288872 
L 273.022445 249.853077 
L 273.56738 247.106427 
L 274.112315 245.186256 
L 274.65725 251.971306 
L 275.202185 247.551365 
L 275.747121 255.254675 
L 276.292056 241.505321 
L 276.836991 245.278904 
L 277.381926 244.899684 
L 277.926861 236.249468 
L 278.471797 236.68846 
L 279.561667 251.120714 
L 280.106602 248.72422 
L 280.651537 245.558747 
L 281.196472 239.922318 
L 281.741408 237.56551 
L 282.286343 239.666099 
L 282.831278 236.121046 
L 283.376213 226.805157 
L 283.921148 230.82207 
L 284.466084 208.638435 
L 285.011019 210.395875 
L 285.555954 202.057052 
L 286.100889 189.798289 
L 286.645824 183.433078 
L 287.19076 180.795617 
L 287.735695 175.563622 
L 288.28063 166.519419 
L 288.825565 182.052038 
L 289.3705 178.455498 
L 289.915435 180.186474 
L 290.460371 183.692647 
L 291.005306 182.220569 
L 291.550241 180.376043 
L 292.095176 176.596036 
L 292.640111 179.477441 
L 293.185047 171.80433 
L 293.729982 183.997293 
L 294.274917 189.263243 
L 294.819852 196.050912 
L 295.364787 194.79628 
L 295.909722 197.24722 
L 296.454658 193.441995 
L 296.999593 197.664351 
L 297.544528 189.265298 
L 298.089463 184.176145 
L 298.634398 186.797496 
L 299.179334 196.617455 
L 299.724269 203.340695 
L 300.269204 212.212502 
L 300.814139 204.228543 
L 301.359074 199.147293 
L 301.904009 206.350903 
L 302.448945 194.411839 
L 302.99388 195.719539 
L 303.538815 208.900899 
L 304.628685 193.3974 
L 305.173621 192.858691 
L 305.718556 197.828259 
L 306.263491 189.797385 
L 306.808426 192.3834 
L 307.353361 191.991503 
L 307.898296 188.617232 
L 308.443232 186.243028 
L 308.988167 188.555371 
L 309.533102 194.421111 
L 310.078037 189.320456 
L 310.622972 202.283515 
L 311.712843 197.63195 
L 312.257778 193.920897 
L 312.802713 195.658101 
L 313.347648 193.807916 
L 313.892584 188.448455 
L 314.437519 194.315942 
L 314.982454 193.475684 
L 315.527389 190.639636 
L 316.072324 197.807866 
L 316.617259 203.046456 
L 317.162195 192.917844 
L 317.70713 186.053524 
L 318.252065 190.089876 
L 318.797 185.150039 
L 319.341935 182.119961 
L 320.431806 165.330903 
L 320.976741 179.821577 
L 321.521676 181.136528 
L 322.611546 161.429299 
L 323.156482 164.733484 
L 323.701417 171.841667 
L 324.246352 169.722413 
L 324.791287 173.165725 
L 325.336222 172.735573 
L 325.881158 179.42342 
L 326.426093 174.171996 
L 327.515963 166.729884 
L 328.060898 173.002411 
L 328.605833 182.874973 
L 329.150769 190.182427 
L 329.695704 186.62399 
L 330.240639 197.086821 
L 330.785574 192.560743 
L 331.330509 181.180969 
L 331.875445 184.517516 
L 332.42038 185.137989 
L 333.51025 172.396162 
L 334.055185 175.681698 
L 334.60012 176.230311 
L 335.145056 174.944304 
L 335.689991 176.045308 
L 336.234926 171.933107 
L 336.779861 169.344453 
L 337.324796 160.679008 
L 337.869732 170.723079 
L 338.414667 162.822788 
L 338.959602 157.173276 
L 339.504537 157.439328 
L 340.049472 154.269811 
L 340.594408 147.582018 
L 341.139343 145.118168 
L 341.684278 146.101965 
L 342.229213 143.752857 
L 342.774148 147.553923 
L 343.319083 155.189354 
L 344.408954 164.299771 
L 344.953889 162.546578 
L 345.498824 157.02645 
L 346.043759 154.918384 
L 346.588695 145.208179 
L 347.13363 145.174973 
L 348.2235 152.578064 
L 348.768435 157.6087 
L 349.31337 158.909561 
L 349.858306 149.714769 
L 350.403241 158.302955 
L 350.948176 154.241874 
L 351.493111 153.695327 
L 352.038046 147.802387 
L 352.582982 150.081107 
L 353.127917 144.844148 
L 353.672852 147.270992 
L 354.217787 142.589941 
L 354.762722 154.134419 
L 355.307657 150.317272 
L 355.852593 144.898476 
L 356.397528 154.122021 
L 356.942463 148.035519 
L 357.487398 154.358903 
L 358.032333 147.371849 
L 358.577269 146.583381 
L 359.122204 141.434822 
L 359.667139 138.239326 
L 360.212074 144.928654 
L 361.301944 125.689405 
L 361.84688 131.274802 
L 362.93675 122.907152 
L 363.481685 126.289772 
L 364.02662 131.952982 
L 364.571556 122.851215 
L 365.116491 124.419744 
L 365.661426 117.659272 
L 366.206361 104.449169 
L 366.751296 100.309749 
L 367.296232 105.018005 
L 367.841167 97.644052 
L 368.386102 105.495949 
L 368.931037 110.316384 
L 369.475972 90.359386 
L 370.020907 94.491301 
L 370.565843 91.180892 
L 371.110778 97.012432 
L 371.655713 96.765665 
L 372.200648 94.426874 
L 372.745583 110.494695 
L 373.290519 113.684955 
L 373.835454 108.415878 
L 374.380389 101.807828 
L 374.925324 98.611298 
L 375.470259 103.720115 
L 376.015194 100.165829 
L 376.56013 102.34739 
L 377.105065 106.336164 
L 377.65 105.357498 
L 378.194935 89.626327 
L 378.73987 94.50508 
L 379.284806 86.759698 
L 379.829741 84.122976 
L 380.374676 92.815643 
L 380.919611 97.764117 
L 381.464546 97.905477 
L 382.009481 100.008556 
L 382.554417 97.362946 
L 383.644287 108.422755 
L 384.189222 101.004958 
L 384.734157 100.27297 
L 385.279093 104.830023 
L 385.824028 103.899867 
L 386.368963 91.081892 
L 386.913898 93.928801 
L 387.458833 102.640701 
L 388.003768 95.66683 
L 388.548704 81.958106 
L 389.093639 72.78023 
L 389.638574 80.494048 
L 390.183509 93.038053 
L 390.728444 83.944982 
L 391.27338 84.254758 
L 391.818315 80.103901 
L 392.36325 80.48565 
L 392.908185 68.625156 
L 393.45312 67.32566 
L 393.998056 68.604059 
L 394.542991 66.878002 
L 395.087926 73.996918 
L 395.632861 72.152928 
L 396.177796 71.989106 
L 396.722731 85.119563 
L 397.812602 99.29618 
L 398.357537 108.754131 
L 398.902472 105.801451 
L 399.447407 97.873999 
L 399.992343 95.152868 
L 400.537278 104.127873 
L 401.082213 114.981681 
L 401.627148 109.383546 
L 402.172083 110.798338 
L 402.717018 110.886807 
L 403.261954 118.656964 
L 403.806889 131.047783 
L 404.351824 116.423951 
L 404.896759 119.802546 
L 405.441694 120.545325 
L 405.98663 127.3607 
L 406.531565 117.144183 
L 407.0765 118.956298 
L 407.621435 119.542546 
L 408.16637 118.828885 
L 408.711305 118.494356 
L 409.256241 109.001339 
L 409.801176 120.264665 
L 410.346111 115.860939 
L 410.891046 119.453182 
L 411.435981 121.691759 
L 411.980917 125.267306 
L 412.525852 122.204096 
L 413.070787 130.022616 
L 413.615722 133.109134 
L 414.160657 129.227081 
L 415.250528 135.241628 
L 415.795463 132.551357 
L 416.340398 131.685374 
L 416.885333 133.505953 
L 417.430268 132.868273 
L 417.975204 138.174323 
L 418.520139 132.474012 
L 419.065074 139.098647 
L 419.610009 148.917882 
L 420.154944 145.986685 
L 420.69988 153.972305 
L 421.244815 159.693506 
L 421.78975 160.808243 
L 422.334685 156.183871 
L 423.969491 163.97529 
L 424.514426 161.459673 
L 425.059361 164.459493 
L 425.604296 162.81587 
L 426.149231 154.210465 
L 426.694167 155.474882 
L 427.239102 157.663914 
L 428.873907 175.48091 
L 429.418842 182.137875 
L 429.963778 185.604466 
L 430.508713 183.465112 
L 431.053648 180.41419 
L 431.598583 182.983166 
L 432.143518 180.947864 
L 432.688454 188.828128 
L 433.233389 176.093425 
L 433.778324 160.739146 
L 434.323259 161.410407 
L 434.868194 158.206001 
L 435.413129 157.525027 
L 435.958065 152.60462 
L 436.503 156.474775 
L 437.047935 165.841675 
L 437.59287 160.764416 
L 438.137805 167.457336 
L 438.682741 165.213023 
L 439.772611 175.523278 
L 440.317546 169.389639 
L 440.862481 159.326195 
L 441.407416 160.212755 
L 441.952352 162.758081 
L 442.497287 160.827367 
L 443.042222 164.141455 
L 443.587157 174.760473 
L 444.132092 174.813623 
L 444.677028 188.453899 
L 445.221963 185.761868 
L 445.766898 188.768667 
L 446.311833 187.539754 
L 446.856768 196.426079 
L 447.401704 200.903859 
L 447.946639 197.400932 
L 448.491574 189.044494 
L 449.036509 183.85978 
L 449.581444 181.439484 
L 450.126379 188.182162 
L 450.671315 184.634378 
L 451.21625 183.763923 
L 451.761185 185.641221 
L 452.30612 177.602766 
L 452.851055 182.261109 
L 453.395991 171.389407 
L 454.485861 179.414114 
L 455.030796 179.959499 
L 455.575731 187.979071 
L 456.120666 190.784712 
L 456.665602 190.249647 
L 457.210537 200.5023 
L 457.755472 205.467595 
L 458.300407 213.788507 
L 458.845342 216.376319 
L 459.390278 209.488557 
L 459.935213 212.057986 
L 460.480148 213.145668 
L 461.025083 211.753375 
L 461.570018 218.373456 
L 462.114953 216.975166 
L 462.659889 220.045371 
L 463.204824 223.867327 
L 463.749759 233.998882 
L 464.294694 237.70116 
L 465.384565 224.32353 
L 465.9295 226.046582 
L 466.474435 225.590693 
L 467.01937 228.060712 
L 467.564305 234.543746 
L 468.10924 245.113456 
L 468.654176 235.006149 
L 469.199111 240.774044 
L 469.744046 239.460507 
L 470.288981 230.198566 
L 470.833916 232.373172 
L 471.378852 233.236787 
L 471.923787 231.530584 
L 472.468722 233.496315 
L 473.013657 231.844876 
L 473.558592 233.65902 
L 474.103528 226.738394 
L 474.648463 223.612433 
L 475.738333 238.052548 
L 477.373139 248.94928 
L 477.918074 243.204896 
L 478.463009 247.129607 
L 479.007944 249.482902 
L 479.552879 248.31881 
L 480.097815 259.585366 
L 480.64275 256.727866 
L 481.187685 252.986887 
L 481.73262 244.421929 
L 482.277555 249.80554 
L 482.82249 252.138152 
L 483.367426 250.511544 
L 483.912361 252.307691 
L 484.457296 260.387653 
L 485.002231 254.696578 
L 485.547166 255.927555 
L 486.092102 253.462197 
L 486.637037 259.284135 
L 487.181972 253.261423 
L 487.726907 254.851562 
L 488.271842 258.589182 
L 488.816777 253.537679 
L 489.361713 246.60466 
L 489.906648 251.612873 
L 490.451583 245.316132 
L 490.996518 235.299691 
L 491.541453 233.272307 
L 492.086389 241.119369 
L 492.631324 237.282455 
L 493.176259 230.486037 
L 493.721194 236.031953 
L 494.266129 225.618131 
L 494.811064 226.280054 
L 495.356 226.48203 
L 495.900935 219.432941 
L 496.44587 217.664583 
L 496.990805 209.646742 
L 497.53574 209.189864 
L 498.080676 206.317017 
L 498.625611 205.64617 
L 499.170546 203.671569 
L 500.260416 196.138251 
L 500.805352 197.435537 
L 501.350287 191.199043 
L 501.895222 191.188827 
L 502.440157 183.301244 
L 502.985092 178.969288 
L 503.530027 178.968345 
L 504.074963 182.912149 
L 504.619898 182.109403 
L 505.164833 173.032217 
L 505.709768 171.300668 
L 506.254703 164.729455 
L 506.799639 164.702692 
L 507.344574 166.092051 
L 507.889509 169.847144 
L 508.434444 181.25415 
L 508.979379 178.790849 
L 509.524314 178.026385 
L 510.06925 177.803729 
L 510.614185 172.468067 
L 511.15912 178.005816 
L 511.704055 167.014396 
L 512.24899 175.528964 
L 512.793926 173.466958 
L 513.338861 180.278068 
L 513.883796 181.44455 
L 514.428731 173.826921 
L 514.973666 182.495483 
L 515.518601 180.902449 
L 516.063537 179.744661 
L 516.608472 178.158803 
L 517.153407 176.109004 
L 517.698342 170.679488 
L 518.788213 164.324701 
L 519.333148 158.296233 
L 519.878083 153.680186 
L 520.423018 154.000968 
L 520.967953 161.175028 
L 521.512888 155.753765 
L 522.057824 157.428685 
L 522.602759 146.674328 
L 523.147694 149.714918 
L 523.692629 156.781217 
L 524.237564 149.240676 
L 524.7825 153.438969 
L 525.327435 162.306888 
L 525.87237 154.521299 
L 526.417305 163.121986 
L 526.96224 154.479961 
L 527.507176 159.981903 
L 528.052111 157.002131 
L 528.597046 155.172095 
L 529.141981 166.023987 
L 529.686916 165.68756 
L 530.231851 167.86105 
L 530.776787 166.653425 
L 531.321722 162.930182 
L 531.866657 152.671226 
L 532.411592 153.728383 
L 532.956527 153.924354 
L 533.501463 139.984378 
L 534.591333 129.726258 
L 535.681203 147.331788 
L 536.226138 150.371883 
L 536.771074 151.123209 
L 537.316009 147.634907 
L 537.860944 129.95656 
L 538.405879 137.455401 
L 538.950814 139.621161 
L 539.49575 135.23344 
L 540.040685 133.099532 
L 540.58562 125.560409 
L 541.130555 126.974392 
L 541.67549 132.253341 
L 542.220425 118.542989 
L 542.765361 115.313522 
L 543.310296 122.544922 
L 543.855231 124.339885 
L 544.400166 124.337053 
L 544.945101 133.420324 
L 545.490037 128.139811 
L 546.034972 126.816847 
L 546.579907 128.788868 
L 547.124842 132.58755 
L 547.669777 121.795467 
L 548.214712 121.979454 
L 548.759648 126.607248 
L 549.304583 139.272433 
L 549.849518 145.686624 
L 550.394453 141.053988 
L 550.939388 131.363062 
L 551.484324 138.461406 
L 552.029259 151.063674 
L 552.574194 150.609492 
L 553.119129 150.663877 
L 553.664064 145.018661 
L 554.209 149.243464 
L 554.753935 148.335238 
L 555.29887 159.710864 
L 555.843805 167.16305 
L 556.933675 172.850424 
L 557.478611 169.344936 
L 558.023546 161.539567 
L 558.568481 170.129898 
L 559.113416 159.455393 
L 559.658351 163.882098 
L 560.203287 166.264829 
L 560.748222 159.024357 
L 561.293157 173.664702 
L 561.838092 182.355372 
L 562.383027 187.182246 
L 562.927962 186.435098 
L 564.017833 172.512625 
L 564.562768 177.872209 
L 565.107703 172.972941 
L 565.652638 175.278203 
L 566.197574 165.785351 
L 566.742509 167.208461 
L 567.287444 160.324566 
L 567.832379 166.404803 
L 568.377314 161.272946 
L 568.922249 169.43929 
L 569.467185 168.449533 
L 570.01212 178.122508 
L 570.557055 178.681496 
L 571.10199 183.193291 
L 571.646925 188.834983 
L 572.191861 187.024589 
L 572.736796 181.855454 
L 573.281731 180.786995 
L 573.826666 178.523686 
L 574.371601 173.704321 
L 575.461472 159.065554 
L 576.006407 156.159026 
L 576.551342 143.248335 
L 577.096277 146.050952 
L 577.641212 140.619673 
L 578.186148 147.42075 
L 578.731083 131.93534 
L 579.276018 133.110725 
L 579.820953 131.719701 
L 580.365888 122.54302 
L 580.910824 123.375141 
L 581.455759 128.355071 
L 582.000694 139.708134 
L 582.545629 141.048269 
L 583.090564 127.734353 
L 583.635499 126.297819 
L 584.180435 114.867672 
L 584.72537 109.187141 
L 585.270305 111.716147 
L 585.81524 120.428035 
L 586.360175 121.321591 
L 586.905111 117.0315 
L 587.450046 118.108139 
L 587.994981 116.687436 
L 588.539916 112.668506 
L 589.084851 114.700886 
L 589.629786 123.70041 
L 590.174722 125.531473 
L 590.719657 121.643517 
L 591.264592 126.662413 
L 592.354462 139.300105 
L 592.899398 140.593285 
L 593.444333 141.202993 
L 593.989268 141.394476 
L 594.534203 149.229745 
L 595.079138 148.90137 
L 595.624073 152.714656 
L 596.169009 158.496658 
L 596.713944 169.882332 
L 597.258879 176.655523 
L 597.803814 180.347762 
L 598.348749 179.39016 
L 598.893685 176.799295 
L 599.43862 176.532738 
L 599.983555 175.040796 
L 600.52849 181.930376 
L 602.163296 167.523574 
L 602.708231 170.510411 
L 603.253166 170.942826 
L 603.798101 173.736429 
L 604.343036 181.759136 
L 604.887972 183.744628 
L 605.977842 203.73994 
L 607.067712 196.783599 
L 607.612647 191.562396 
L 608.157583 194.106873 
L 608.702518 193.803289 
L 609.247453 190.408554 
L 609.792388 192.529007 
L 610.337323 204.73738 
L 610.882259 190.950518 
L 611.972129 175.257812 
L 612.517064 174.479643 
L 613.061999 179.159864 
L 613.606935 178.393814 
L 614.15187 176.336764 
L 614.696805 184.456506 
L 615.24174 187.047217 
L 615.786675 183.28679 
L 616.33161 173.665494 
L 616.876546 169.537643 
L 617.421481 171.647474 
L 617.966416 179.164406 
L 618.511351 166.216527 
L 619.056286 165.022892 
L 619.601222 159.815252 
L 620.146157 159.160565 
L 620.691092 167.023671 
L 621.236027 153.045956 
L 621.780962 148.385519 
L 622.325897 140.222043 
L 622.870833 144.699375 
L 623.415768 144.408929 
L 623.960703 135.318381 
L 624.505638 137.07261 
L 625.050573 141.138186 
L 625.595509 147.747118 
L 626.140444 155.769715 
L 626.685379 150.115823 
L 627.230314 150.016755 
L 627.775249 160.797837 
L 628.86512 142.313187 
L 629.410055 134.541247 
L 629.95499 145.724906 
L 630.499925 144.588889 
L 631.04486 135.925331 
L 631.589796 141.98624 
L 632.134731 146.549187 
L 632.679666 147.577996 
L 633.224601 159.738628 
L 633.769536 157.915874 
L 634.314471 151.243461 
L 634.859407 146.59412 
L 635.404342 136.687514 
L 635.949277 135.60453 
L 636.494212 135.307526 
L 637.039147 136.012537 
L 637.584083 139.951576 
L 638.129018 146.232901 
L 638.673953 150.416034 
L 639.218888 150.46871 
L 639.763823 153.374542 
L 640.853694 151.267887 
L 641.398629 146.781907 
L 641.943564 149.54536 
L 642.488499 162.010058 
L 643.033434 167.520771 
L 643.57837 155.143541 
L 644.123305 149.959082 
L 644.66824 152.039131 
L 645.213175 152.843467 
L 645.75811 152.903487 
L 646.303046 155.361969 
L 646.847981 153.651856 
L 647.392916 148.861746 
L 647.937851 140.696486 
L 648.482786 142.4869 
L 649.572657 145.413493 
L 650.117592 144.732266 
L 650.662527 137.53131 
L 651.207462 141.797572 
L 651.752397 127.32255 
L 652.297333 123.274867 
L 652.842268 115.659792 
L 653.387203 120.912114 
L 653.932138 122.787187 
L 654.477073 125.609409 
L 655.022008 124.791969 
L 655.566944 137.193694 
L 656.111879 133.519145 
L 656.656814 143.618058 
L 657.201749 140.70088 
L 657.746684 133.697088 
L 658.29162 133.487876 
L 659.38149 134.441077 
L 659.926425 135.218679 
L 660.47136 132.912499 
L 661.016295 126.474053 
L 661.561231 121.652013 
L 662.106166 111.30641 
L 662.651101 109.939044 
L 663.740971 114.595664 
L 664.285907 121.660611 
L 664.830842 123.257242 
L 665.375777 126.123323 
L 665.920712 113.799899 
L 666.465647 109.485138 
L 667.010583 96.916328 
L 667.555518 108.232681 
L 668.100453 105.290014 
L 668.645388 97.625639 
L 669.190323 94.484141 
L 669.735258 96.415695 
L 670.825129 92.510079 
L 671.370064 90.563519 
L 671.914999 87.737669 
L 672.459934 80.448261 
L 673.549805 74.800339 
L 674.09474 73.514153 
L 674.639675 69.326621 
L 675.18461 72.775007 
L 675.729545 67.747735 
L 675.729545 67.747735 
" style="fill:none;stroke:#86a776;stroke-linecap:square;stroke-width:2;"/>
   </g>
   <g id="patch_3">
    <path d="M 49.7625 323.6 
L 49.7625 7.2 
" style="fill:none;"/>
   </g>
   <g id="patch_4">
    <path d="M 705.5375 323.6 
L 705.5375 7.2 
" style="fill:none;"/>
   </g>
   <g id="patch_5">
    <path d="M 49.7625 323.6 
L 705.5375 323.6 
" style="fill:none;"/>
   </g>
   <g id="patch_6">
    <path d="M 49.7625 7.2 
L 705.5375 7.2 
" style="fill:none;"/>
   </g>
   <g id="legend_1">
    <g id="line2d_26">
     <path d="M 58.7625 24.8575 
L 78.7625 24.8575 
" style="fill:none;stroke:#6083a9;stroke-linecap:square;stroke-width:2;"/>
    </g>
    <g id="line2d_27"/>
    <g id="text_16">
     <!-- Calm Corp -->
     <defs>
      <path d="M 64.40625 67.28125 
L 64.40625 56.890625 
Q 59.421875 61.53125 53.78125 63.8125 
Q 48.140625 66.109375 41.796875 66.109375 
Q 29.296875 66.109375 22.65625 58.46875 
Q 16.015625 50.828125 16.015625 36.375 
Q 16.015625 21.96875 22.65625 14.328125 
Q 29.296875 6.6875 41.796875 6.6875 
Q 48.140625 6.6875 53.78125 8.984375 
Q 59.421875 11.28125 64.40625 15.921875 
L 64.40625 5.609375 
Q 59.234375 2.09375 53.4375 0.328125 
Q 47.65625 -1.421875 41.21875 -1.421875 
Q 24.65625 -1.421875 15.125 8.703125 
Q 5.609375 18.84375 5.609375 36.375 
Q 5.609375 53.953125 15.125 64.078125 
Q 24.65625 74.21875 41.21875 74.21875 
Q 47.75 74.21875 53.53125 72.484375 
Q 59.328125 70.75 64.40625 67.28125 
z
" id="DejaVuSans-67"/>
      <path d="M 34.28125 27.484375 
Q 23.390625 27.484375 19.1875 25 
Q 14.984375 22.515625 14.984375 16.5 
Q 14.984375 11.71875 18.140625 8.90625 
Q 21.296875 6.109375 26.703125 6.109375 
Q 34.1875 6.109375 38.703125 11.40625 
Q 43.21875 16.703125 43.21875 25.484375 
L 43.21875 27.484375 
z
M 52.203125 31.203125 
L 52.203125 0 
L 43.21875 0 
L 43.21875 8.296875 
Q 40.140625 3.328125 35.546875 0.953125 
Q 30.953125 -1.421875 24.3125 -1.421875 
Q 15.921875 -1.421875 10.953125 3.296875 
Q 6 8.015625 6 15.921875 
Q 6 25.140625 12.171875 29.828125 
Q 18.359375 34.515625 30.609375 34.515625 
L 43.21875 34.515625 
L 43.21875 35.40625 
Q 43.21875 41.609375 39.140625 45 
Q 35.0625 48.390625 27.6875 48.390625 
Q 23 48.390625 18.546875 47.265625 
Q 14.109375 46.140625 10.015625 43.890625 
L 10.015625 52.203125 
Q 14.9375 54.109375 19.578125 55.046875 
Q 24.21875 56 28.609375 56 
Q 40.484375 56 46.34375 49.84375 
Q 52.203125 43.703125 52.203125 31.203125 
z
" id="DejaVuSans-97"/>
      <path d="M 52 44.1875 
Q 55.375 50.25 60.0625 53.125 
Q 64.75 56 71.09375 56 
Q 79.640625 56 84.28125 50.015625 
Q 88.921875 44.046875 88.921875 33.015625 
L 88.921875 0 
L 79.890625 0 
L 79.890625 32.71875 
Q 79.890625 40.578125 77.09375 44.375 
Q 74.3125 48.1875 68.609375 48.1875 
Q 61.625 48.1875 57.5625 43.546875 
Q 53.515625 38.921875 53.515625 30.90625 
L 53.515625 0 
L 44.484375 0 
L 44.484375 32.71875 
Q 44.484375 40.625 41.703125 44.40625 
Q 38.921875 48.1875 33.109375 48.1875 
Q 26.21875 48.1875 22.15625 43.53125 
Q 18.109375 38.875 18.109375 30.90625 
L 18.109375 0 
L 9.078125 0 
L 9.078125 54.6875 
L 18.109375 54.6875 
L 18.109375 46.1875 
Q 21.1875 51.21875 25.484375 53.609375 
Q 29.78125 56 35.6875 56 
Q 41.65625 56 45.828125 52.96875 
Q 50 49.953125 52 44.1875 
z
" id="DejaVuSans-109"/>
      <path id="DejaVuSans-32"/>
      <path d="M 30.609375 48.390625 
Q 23.390625 48.390625 19.1875 42.75 
Q 14.984375 37.109375 14.984375 27.296875 
Q 14.984375 17.484375 19.15625 11.84375 
Q 23.34375 6.203125 30.609375 6.203125 
Q 37.796875 6.203125 41.984375 11.859375 
Q 46.1875 17.53125 46.1875 27.296875 
Q 46.1875 37.015625 41.984375 42.703125 
Q 37.796875 48.390625 30.609375 48.390625 
z
M 30.609375 56 
Q 42.328125 56 49.015625 48.375 
Q 55.71875 40.765625 55.71875 27.296875 
Q 55.71875 13.875 49.015625 6.21875 
Q 42.328125 -1.421875 30.609375 -1.421875 
Q 18.84375 -1.421875 12.171875 6.21875 
Q 5.515625 13.875 5.515625 27.296875 
Q 5.515625 40.765625 12.171875 48.375 
Q 18.84375 56 30.609375 56 
z
" id="DejaVuSans-111"/>
      <path d="M 41.109375 46.296875 
Q 39.59375 47.171875 37.8125 47.578125 
Q 36.03125 48 33.890625 48 
Q 26.265625 48 22.1875 43.046875 
Q 18.109375 38.09375 18.109375 28.8125 
L 18.109375 0 
L 9.078125 0 
L 9.078125 54.6875 
L 18.109375 54.6875 
L 18.109375 46.1875 
Q 20.953125 51.171875 25.484375 53.578125 
Q 30.03125 56 36.53125 56 
Q 37.453125 56 38.578125 55.875 
Q 39.703125 55.765625 41.0625 55.515625 
z
" id="DejaVuSans-114"/>
      <path d="M 18.109375 8.203125 
L 18.109375 -20.796875 
L 9.078125 -20.796875 
L 9.078125 54.6875 
L 18.109375 54.6875 
L 18.109375 46.390625 
Q 20.953125 51.265625 25.265625 53.625 
Q 29.59375 56 35.59375 56 
Q 45.5625 56 51.78125 48.09375 
Q 58.015625 40.1875 58.015625 27.296875 
Q 58.015625 14.40625 51.78125 6.484375 
Q 45.5625 -1.421875 35.59375 -1.421875 
Q 29.59375 -1.421875 25.265625 0.953125 
Q 20.953125 3.328125 18.109375 8.203125 
z
M 48.6875 27.296875 
Q 48.6875 37.203125 44.609375 42.84375 
Q 40.53125 48.484375 33.40625 48.484375 
Q 26.265625 48.484375 22.1875 42.84375 
Q 18.109375 37.203125 18.109375 27.296875 
Q 18.109375 17.390625 22.1875 11.75 
Q 26.265625 6.109375 33.40625 6.109375 
Q 40.53125 6.109375 44.609375 11.75 
Q 48.6875 17.390625 48.6875 27.296875 
z
" id="DejaVuSans-112"/>
     </defs>
     <g style="fill:#2f2235;" transform="translate(86.7625 28.3575)scale(0.16 -0.16)">
      <use xlink:href="#DejaVuSans-67"/>
      <use x="69.824219" xlink:href="#DejaVuSans-97"/>
      <use x="131.103516" xlink:href="#DejaVuSans-108"/>
      <use x="158.886719" xlink:href="#DejaVuSans-109"/>
      <use x="256.298828" xlink:href="#DejaVuSans-32"/>
      <use x="288.085938" xlink:href="#DejaVuSans-67"/>
      <use x="357.910156" xlink:href="#DejaVuSans-111"/>
      <use x="419.091797" xlink:href="#DejaVuSans-114"/>
      <use x="460.205078" xlink:href="#DejaVuSans-112"/>
     </g>
    </g>
    <g id="line2d_28">
     <path d="M 58.7625 45.3425 
L 78.7625 45.3425 
" style="fill:none;stroke:#86a776;stroke-linecap:square;stroke-width:2;"/>
    </g>
    <g id="line2d_29"/>
    <g id="text_17">
     <!-- Crazy Corp -->
     <defs>
      <path d="M 5.515625 54.6875 
L 48.1875 54.6875 
L 48.1875 46.484375 
L 14.40625 7.171875 
L 48.1875 7.171875 
L 48.1875 0 
L 4.296875 0 
L 4.296875 8.203125 
L 38.09375 47.515625 
L 5.515625 47.515625 
z
" id="DejaVuSans-122"/>
      <path d="M 32.171875 -5.078125 
Q 28.375 -14.84375 24.75 -17.8125 
Q 21.140625 -20.796875 15.09375 -20.796875 
L 7.90625 -20.796875 
L 7.90625 -13.28125 
L 13.1875 -13.28125 
Q 16.890625 -13.28125 18.9375 -11.515625 
Q 21 -9.765625 23.484375 -3.21875 
L 25.09375 0.875 
L 2.984375 54.6875 
L 12.5 54.6875 
L 29.59375 11.921875 
L 46.6875 54.6875 
L 56.203125 54.6875 
z
" id="DejaVuSans-121"/>
     </defs>
     <g style="fill:#2f2235;" transform="translate(86.7625 48.8425)scale(0.16 -0.16)">
      <use xlink:href="#DejaVuSans-67"/>
      <use x="69.824219" xlink:href="#DejaVuSans-114"/>
      <use x="110.9375" xlink:href="#DejaVuSans-97"/>
      <use x="172.216797" xlink:href="#DejaVuSans-122"/>
      <use x="224.707031" xlink:href="#DejaVuSans-121"/>
      <use x="283.886719" xlink:href="#DejaVuSans-32"/>
      <use x="315.673828" xlink:href="#DejaVuSans-67"/>
      <use x="385.498047" xlink:href="#DejaVuSans-111"/>
      <use x="446.679688" xlink:href="#DejaVuSans-114"/>
      <use x="487.792969" xlink:href="#DejaVuSans-112"/>
     </g>
    </g>
   </g>
  </g>
 </g>
 <defs>
  <clipPath id="pba79d0323a">
   <rect height="316.4" width="655.775" x="49.7625" y="7.2"/>
  </clipPath>
 </defs>
</svg>
