<?xml version="1.0" encoding="utf-8" standalone="no"?>
<!DOCTYPE svg PUBLIC "-//W3C//DTD SVG 1.1//EN"
  "http://www.w3.org/Graphics/SVG/1.1/DTD/svg11.dtd">
<svg xmlns:xlink="http://www.w3.org/1999/xlink" width="576pt" height="288pt" viewBox="0 0 576 288" xmlns="http://www.w3.org/2000/svg" version="1.1">
 <metadata>
  <rdf:RDF xmlns:dc="http://purl.org/dc/elements/1.1/" xmlns:cc="http://creativecommons.org/ns#" xmlns:rdf="http://www.w3.org/1999/02/22-rdf-syntax-ns#">
   <cc:Work>
    <dc:type rdf:resource="http://purl.org/dc/dcmitype/StillImage"/>
    <dc:date>2022-11-18T11:51:15.876375</dc:date>
    <dc:format>image/svg+xml</dc:format>
    <dc:creator>
     <cc:Agent>
      <dc:title>Matplotlib v3.6.2, https://matplotlib.org/</dc:title>
     </cc:Agent>
    </dc:creator>
   </cc:Work>
  </rdf:RDF>
 </metadata>
 <defs>
  <style type="text/css">*{stroke-linejoin: round; stroke-linecap: butt}</style>
 </defs>
 <g id="figure_1">
  <g id="patch_1">
   <path d="M 0 288 
L 576 288 
L 576 0 
L 0 0 
L 0 288 
z
" style="fill: none"/>
  </g>
  <g id="axes_1">
   <g id="patch_2">
    <path d="M 10.8 260.12 
L 565.2 260.12 
L 565.2 10.8 
L 10.8 10.8 
L 10.8 260.12 
z
" style="fill: none"/>
   </g>
   <g id="patch_3">
    <path d="M 435.461132 260.12 
L 435.461132 10.8 
L 540 10.8 
L 540 260.12 
z
" clip-path="url(#pd3bbd751c7)" style="opacity: 0.025"/>
   </g>
   <g id="patch_4">
    <path d="M 226.538477 260.12 
L 226.538477 251.817644 
L 539.985902 251.817644 
L 539.985902 260.12 
z
" clip-path="url(#pd3bbd751c7)" style="fill: #008000"/>
   </g>
   <g id="matplotlib.axis_1">
    <g id="xtick_1">
     <g id="line2d_1">
      <defs>
       <path id="m71b18814e5" d="M 0 0 
L 0 3.5 
" style="stroke: #000000; stroke-width: 0.8"/>
      </defs>
      <g>
       <use xlink:href="#m71b18814e5" x="113.230468" y="260.12" style="stroke: #000000; stroke-width: 0.8"/>
      </g>
     </g>
     <g id="text_1">
      <!-- 1940 -->
      <g transform="translate(100.505468 274.718437) scale(0.1 -0.1)">
       <defs>
        <path id="DejaVuSans-31" d="M 794 531 
L 1825 531 
L 1825 4091 
L 703 3866 
L 703 4441 
L 1819 4666 
L 2450 4666 
L 2450 531 
L 3481 531 
L 3481 0 
L 794 0 
L 794 531 
z
" transform="scale(0.015625)"/>
        <path id="DejaVuSans-39" d="M 703 97 
L 703 672 
Q 941 559 1184 500 
Q 1428 441 1663 441 
Q 2288 441 2617 861 
Q 2947 1281 2994 2138 
Q 2813 1869 2534 1725 
Q 2256 1581 1919 1581 
Q 1219 1581 811 2004 
Q 403 2428 403 3163 
Q 403 3881 828 4315 
Q 1253 4750 1959 4750 
Q 2769 4750 3195 4129 
Q 3622 3509 3622 2328 
Q 3622 1225 3098 567 
Q 2575 -91 1691 -91 
Q 1453 -91 1209 -44 
Q 966 3 703 97 
z
M 1959 2075 
Q 2384 2075 2632 2365 
Q 2881 2656 2881 3163 
Q 2881 3666 2632 3958 
Q 2384 4250 1959 4250 
Q 1534 4250 1286 3958 
Q 1038 3666 1038 3163 
Q 1038 2656 1286 2365 
Q 1534 2075 1959 2075 
z
" transform="scale(0.015625)"/>
        <path id="DejaVuSans-34" d="M 2419 4116 
L 825 1625 
L 2419 1625 
L 2419 4116 
z
M 2253 4666 
L 3047 4666 
L 3047 1625 
L 3713 1625 
L 3713 1100 
L 3047 1100 
L 3047 0 
L 2419 0 
L 2419 1100 
L 313 1100 
L 313 1709 
L 2253 4666 
z
" transform="scale(0.015625)"/>
        <path id="DejaVuSans-30" d="M 2034 4250 
Q 1547 4250 1301 3770 
Q 1056 3291 1056 2328 
Q 1056 1369 1301 889 
Q 1547 409 2034 409 
Q 2525 409 2770 889 
Q 3016 1369 3016 2328 
Q 3016 3291 2770 3770 
Q 2525 4250 2034 4250 
z
M 2034 4750 
Q 2819 4750 3233 4129 
Q 3647 3509 3647 2328 
Q 3647 1150 3233 529 
Q 2819 -91 2034 -91 
Q 1250 -91 836 529 
Q 422 1150 422 2328 
Q 422 3509 836 4129 
Q 1250 4750 2034 4750 
z
" transform="scale(0.015625)"/>
       </defs>
       <use xlink:href="#DejaVuSans-31"/>
       <use xlink:href="#DejaVuSans-39" x="63.623047"/>
       <use xlink:href="#DejaVuSans-34" x="127.246094"/>
       <use xlink:href="#DejaVuSans-30" x="190.869141"/>
      </g>
     </g>
    </g>
    <g id="xtick_2">
     <g id="line2d_2">
      <g>
       <use xlink:href="#m71b18814e5" x="216.218524" y="260.12" style="stroke: #000000; stroke-width: 0.8"/>
      </g>
     </g>
     <g id="text_2">
      <!-- 1960 -->
      <g transform="translate(203.493524 274.718437) scale(0.1 -0.1)">
       <defs>
        <path id="DejaVuSans-36" d="M 2113 2584 
Q 1688 2584 1439 2293 
Q 1191 2003 1191 1497 
Q 1191 994 1439 701 
Q 1688 409 2113 409 
Q 2538 409 2786 701 
Q 3034 994 3034 1497 
Q 3034 2003 2786 2293 
Q 2538 2584 2113 2584 
z
M 3366 4563 
L 3366 3988 
Q 3128 4100 2886 4159 
Q 2644 4219 2406 4219 
Q 1781 4219 1451 3797 
Q 1122 3375 1075 2522 
Q 1259 2794 1537 2939 
Q 1816 3084 2150 3084 
Q 2853 3084 3261 2657 
Q 3669 2231 3669 1497 
Q 3669 778 3244 343 
Q 2819 -91 2113 -91 
Q 1303 -91 875 529 
Q 447 1150 447 2328 
Q 447 3434 972 4092 
Q 1497 4750 2381 4750 
Q 2619 4750 2861 4703 
Q 3103 4656 3366 4563 
z
" transform="scale(0.015625)"/>
       </defs>
       <use xlink:href="#DejaVuSans-31"/>
       <use xlink:href="#DejaVuSans-39" x="63.623047"/>
       <use xlink:href="#DejaVuSans-36" x="127.246094"/>
       <use xlink:href="#DejaVuSans-30" x="190.869141"/>
      </g>
     </g>
    </g>
    <g id="xtick_3">
     <g id="line2d_3">
      <g>
       <use xlink:href="#m71b18814e5" x="319.206579" y="260.12" style="stroke: #000000; stroke-width: 0.8"/>
      </g>
     </g>
     <g id="text_3">
      <!-- 1980 -->
      <g transform="translate(306.481579 274.718437) scale(0.1 -0.1)">
       <defs>
        <path id="DejaVuSans-38" d="M 2034 2216 
Q 1584 2216 1326 1975 
Q 1069 1734 1069 1313 
Q 1069 891 1326 650 
Q 1584 409 2034 409 
Q 2484 409 2743 651 
Q 3003 894 3003 1313 
Q 3003 1734 2745 1975 
Q 2488 2216 2034 2216 
z
M 1403 2484 
Q 997 2584 770 2862 
Q 544 3141 544 3541 
Q 544 4100 942 4425 
Q 1341 4750 2034 4750 
Q 2731 4750 3128 4425 
Q 3525 4100 3525 3541 
Q 3525 3141 3298 2862 
Q 3072 2584 2669 2484 
Q 3125 2378 3379 2068 
Q 3634 1759 3634 1313 
Q 3634 634 3220 271 
Q 2806 -91 2034 -91 
Q 1263 -91 848 271 
Q 434 634 434 1313 
Q 434 1759 690 2068 
Q 947 2378 1403 2484 
z
M 1172 3481 
Q 1172 3119 1398 2916 
Q 1625 2713 2034 2713 
Q 2441 2713 2670 2916 
Q 2900 3119 2900 3481 
Q 2900 3844 2670 4047 
Q 2441 4250 2034 4250 
Q 1625 4250 1398 4047 
Q 1172 3844 1172 3481 
z
" transform="scale(0.015625)"/>
       </defs>
       <use xlink:href="#DejaVuSans-31"/>
       <use xlink:href="#DejaVuSans-39" x="63.623047"/>
       <use xlink:href="#DejaVuSans-38" x="127.246094"/>
       <use xlink:href="#DejaVuSans-30" x="190.869141"/>
      </g>
     </g>
    </g>
    <g id="xtick_4">
     <g id="line2d_4">
      <g>
       <use xlink:href="#m71b18814e5" x="422.194635" y="260.12" style="stroke: #000000; stroke-width: 0.8"/>
      </g>
     </g>
     <g id="text_4">
      <!-- 2000 -->
      <g transform="translate(409.469635 274.718437) scale(0.1 -0.1)">
       <defs>
        <path id="DejaVuSans-32" d="M 1228 531 
L 3431 531 
L 3431 0 
L 469 0 
L 469 531 
Q 828 903 1448 1529 
Q 2069 2156 2228 2338 
Q 2531 2678 2651 2914 
Q 2772 3150 2772 3378 
Q 2772 3750 2511 3984 
Q 2250 4219 1831 4219 
Q 1534 4219 1204 4116 
Q 875 4013 500 3803 
L 500 4441 
Q 881 4594 1212 4672 
Q 1544 4750 1819 4750 
Q 2544 4750 2975 4387 
Q 3406 4025 3406 3419 
Q 3406 3131 3298 2873 
Q 3191 2616 2906 2266 
Q 2828 2175 2409 1742 
Q 1991 1309 1228 531 
z
" transform="scale(0.015625)"/>
       </defs>
       <use xlink:href="#DejaVuSans-32"/>
       <use xlink:href="#DejaVuSans-30" x="63.623047"/>
       <use xlink:href="#DejaVuSans-30" x="127.246094"/>
       <use xlink:href="#DejaVuSans-30" x="190.869141"/>
      </g>
     </g>
    </g>
    <g id="xtick_5">
     <g id="line2d_5">
      <g>
       <use xlink:href="#m71b18814e5" x="525.18269" y="260.12" style="stroke: #000000; stroke-width: 0.8"/>
      </g>
     </g>
     <g id="text_5">
      <!-- 2020 -->
      <g transform="translate(512.45769 274.718437) scale(0.1 -0.1)">
       <use xlink:href="#DejaVuSans-32"/>
       <use xlink:href="#DejaVuSans-30" x="63.623047"/>
       <use xlink:href="#DejaVuSans-32" x="127.246094"/>
       <use xlink:href="#DejaVuSans-30" x="190.869141"/>
      </g>
     </g>
    </g>
   </g>
   <g id="matplotlib.axis_2"/>
   <g id="line2d_6">
    <path d="M 36 210.333647 
L 36.437047 210.51852 
L 36.831799 210.333647 
L 37.268847 210.888266 
L 37.691796 211.997506 
L 38.128843 213.476491 
L 38.551792 213.476491 
L 38.988839 212.367252 
L 39.425886 212.367252 
L 40.285882 213.476491 
L 40.708831 213.291618 
L 41.145878 213.846238 
L 41.582925 214.955477 
L 41.977678 214.955477 
L 42.414725 215.14035 
L 42.837674 215.69497 
L 43.274721 215.69497 
L 43.69767 215.510096 
L 44.134717 215.14035 
L 44.571764 215.14035 
L 44.994713 215.510096 
L 46.291756 218.652941 
L 46.728804 219.20756 
L 47.123556 221.241166 
L 47.560603 221.610912 
L 47.983552 222.350405 
L 48.843548 221.426039 
L 49.280595 222.165532 
L 49.717642 222.535278 
L 50.140591 222.720151 
L 51.000587 224.93863 
L 51.874682 224.568883 
L 52.283532 224.93863 
L 52.72058 224.38401 
L 53.580576 222.720151 
L 54.003525 220.3168 
L 54.440572 219.20756 
L 54.877619 219.577307 
L 55.300568 219.392434 
L 55.737615 221.056292 
L 56.597611 218.468068 
L 57.034658 216.619336 
L 57.429411 214.400857 
L 57.866458 216.249589 
L 58.289407 216.249589 
L 58.726454 215.325223 
L 59.149403 216.249589 
L 59.58645 214.955477 
L 60.023497 215.14035 
L 60.446446 216.804209 
L 60.883493 221.610912 
L 61.306442 221.426039 
L 61.743489 220.131926 
L 62.180537 220.501673 
L 62.575289 222.720151 
L 63.012336 221.241166 
L 63.872332 223.459644 
L 64.295281 223.459644 
L 64.732328 223.274771 
L 65.169375 223.644517 
L 65.592324 224.199137 
L 66.029371 224.568883 
L 66.45232 224.014264 
L 66.889368 224.38401 
L 67.326415 222.535278 
L 67.721167 223.089898 
L 68.158214 223.274771 
L 68.581163 225.123503 
L 69.01821 225.678122 
L 69.441159 225.308376 
L 69.878206 224.753756 
L 70.315254 223.459644 
L 70.738202 216.434462 
L 71.17525 216.434462 
L 72.035246 204.787451 
L 72.472293 207.560549 
L 73.318191 215.510096 
L 73.74114 214.031111 
L 74.178187 214.031111 
L 74.601136 217.358828 
L 75.038183 219.76218 
L 75.47523 220.3168 
L 75.898179 220.131926 
L 76.335226 219.76218 
L 77.195222 224.014264 
L 77.632269 222.350405 
L 78.027022 220.3168 
L 78.464069 220.3168 
L 78.887018 222.535278 
L 79.324065 224.199137 
L 79.747014 224.38401 
L 80.184061 224.199137 
L 80.621108 224.568883 
L 81.044057 224.014264 
L 81.481104 219.577307 
L 81.904053 218.283194 
L 82.3411 218.837814 
L 83.1729 224.38401 
L 84.032896 227.711728 
L 84.469943 228.451221 
L 84.892892 229.56046 
L 85.329939 227.526855 
L 85.766986 224.38401 
L 86.189935 226.232742 
L 86.626983 226.787362 
L 87.049931 227.896601 
L 87.486979 230.299953 
L 87.924026 231.963811 
L 89.178774 233.257924 
L 89.615821 233.257924 
L 90.03877 233.812543 
L 90.475818 232.518431 
L 90.912865 230.854572 
L 91.335814 230.854572 
L 91.772861 231.224319 
L 92.19581 231.039445 
L 93.069904 232.148685 
L 93.478755 233.073051 
L 94.338751 233.997417 
L 94.775798 233.812543 
L 95.198747 233.997417 
L 95.635794 234.736909 
L 96.072841 234.552036 
L 96.49579 233.997417 
L 96.932837 235.476402 
L 97.355786 235.661275 
L 97.792833 236.031022 
L 98.229881 236.585641 
L 98.624633 234.367163 
L 99.06168 231.224319 
L 99.484629 231.778938 
L 99.921676 231.594065 
L 100.344625 232.148685 
L 100.781672 232.148685 
L 101.218719 231.409192 
L 101.641668 231.409192 
L 102.938712 233.812543 
L 104.207558 234.367163 
L 104.630507 236.215895 
L 105.067554 235.846149 
L 105.490503 235.846149 
L 105.92755 236.031022 
L 106.364598 234.921783 
L 106.787547 236.400768 
L 107.224594 236.215895 
L 107.647543 236.215895 
L 108.08459 236.585641 
L 108.521637 237.140261 
L 108.916389 238.619247 
L 109.353436 239.543613 
L 109.776385 241.577218 
L 110.213433 242.501584 
L 110.636381 242.316711 
L 111.073429 241.577218 
L 111.510476 234.18229 
L 111.933425 235.476402 
L 112.793421 240.098232 
L 113.230468 241.022598 
L 113.667515 240.652852 
L 114.076366 241.762091 
L 114.513413 241.762091 
L 114.936362 239.358739 
L 115.373409 239.173866 
L 115.796358 241.022598 
L 116.233405 240.837725 
L 116.670452 241.946964 
L 117.093401 242.686457 
L 117.530448 244.904935 
L 117.953397 246.383921 
L 118.827492 242.501584 
L 119.222244 244.350316 
L 119.659291 245.274682 
L 120.942236 246.938541 
L 121.379283 246.383921 
L 121.816331 246.199048 
L 122.239279 246.938541 
L 122.676327 240.283105 
L 123.099276 237.879754 
L 123.536323 237.694881 
L 123.97337 237.694881 
L 124.805169 238.434373 
L 125.228118 238.2495 
L 125.665165 238.619247 
L 126.088114 238.064627 
L 126.525162 237.879754 
L 127.385158 238.2495 
L 128.245154 237.510007 
L 128.682201 238.064627 
L 129.119248 238.064627 
L 129.514 237.694881 
L 129.951048 237.694881 
L 130.373996 238.064627 
L 130.811044 238.2495 
L 131.233993 238.2495 
L 131.67104 238.064627 
L 132.108087 237.694881 
L 132.968083 237.694881 
L 133.391032 237.510007 
L 134.265126 237.510007 
L 134.673977 237.694881 
L 135.111024 237.694881 
L 135.533973 237.510007 
L 136.393969 237.510007 
L 137.268063 237.879754 
L 137.691012 237.694881 
L 138.551008 237.694881 
L 138.988056 238.434373 
L 139.425103 239.543613 
L 139.819855 239.173866 
L 140.256902 239.358739 
L 140.679851 239.358739 
L 141.116898 240.098232 
L 141.539847 240.283105 
L 141.976894 239.913359 
L 142.413942 239.728486 
L 143.273938 240.467979 
L 143.696887 240.467979 
L 144.570981 244.350316 
L 144.965733 244.904935 
L 145.40278 245.089809 
L 145.825729 243.056203 
L 146.262777 243.610823 
L 146.685725 243.241077 
L 147.55982 241.392345 
L 147.982769 241.762091 
L 148.842765 242.131837 
L 149.279812 242.686457 
L 149.716859 242.686457 
L 150.111612 243.056203 
L 150.971608 243.056203 
L 151.831604 241.946964 
L 152.268651 242.131837 
L 152.705698 242.131837 
L 153.128647 241.577218 
L 153.565694 239.913359 
L 153.988643 239.358739 
L 154.42569 238.2495 
L 154.862737 238.2495 
L 155.271588 238.434373 
L 155.708635 238.434373 
L 156.131584 238.80412 
L 156.568631 238.988993 
L 156.99158 238.988993 
L 157.428627 238.2495 
L 158.288623 238.2495 
L 158.725671 238.434373 
L 159.14862 238.434373 
L 159.585667 238.80412 
L 160.022714 239.358739 
L 160.417466 239.543613 
L 161.714509 239.543613 
L 162.137458 241.577218 
L 162.574506 242.131837 
L 163.011553 242.501584 
L 163.434502 242.501584 
L 163.871549 242.87133 
L 164.294498 243.056203 
L 164.731545 242.87133 
L 165.563344 241.577218 
L 166.000392 241.022598 
L 166.423341 240.837725 
L 166.860388 240.467979 
L 167.283337 240.283105 
L 167.720384 240.467979 
L 168.58038 239.543613 
L 169.017427 239.543613 
L 169.440376 239.358739 
L 169.877423 239.358739 
L 170.31447 239.173866 
L 171.569219 234.921783 
L 172.006266 234.552036 
L 172.429215 234.921783 
L 172.866262 236.031022 
L 173.303309 236.215895 
L 174.586254 233.62767 
L 175.023301 232.888177 
L 175.460349 233.442797 
L 175.869199 233.62767 
L 176.729195 236.031022 
L 177.166242 235.291529 
L 177.589191 235.291529 
L 178.026238 233.62767 
L 178.463286 233.442797 
L 178.886235 232.888177 
L 179.323282 233.442797 
L 180.620325 231.224319 
L 181.452125 228.636094 
L 181.875073 225.862996 
L 182.312121 225.678122 
L 182.73507 227.341981 
L 183.172117 227.157108 
L 183.609164 227.896601 
L 184.032113 230.484826 
L 184.46916 230.669699 
L 184.892109 231.963811 
L 185.329156 233.812543 
L 185.766203 235.106656 
L 186.160956 236.770515 
L 186.598003 237.694881 
L 187.020952 236.585641 
L 187.457999 236.400768 
L 187.880948 237.879754 
L 188.317995 237.694881 
L 188.755042 236.955388 
L 189.177991 236.585641 
L 190.037987 235.661275 
L 190.912081 232.333558 
L 191.306834 232.148685 
L 191.743881 231.409192 
L 192.16683 231.594065 
L 192.603877 231.409192 
L 193.026826 229.745333 
L 193.463873 229.00584 
L 193.90092 229.56046 
L 194.323869 230.484826 
L 195.183865 229.745333 
L 196.05796 230.854572 
L 196.46681 229.375587 
L 196.903857 226.787362 
L 197.326806 228.636094 
L 197.763854 229.375587 
L 198.186802 228.081474 
L 198.62385 224.93863 
L 199.060897 224.199137 
L 199.483846 224.38401 
L 200.343842 220.686546 
L 200.780889 221.795785 
L 201.217936 224.014264 
L 201.612688 223.274771 
L 202.049736 222.165532 
L 202.472685 220.686546 
L 202.909732 217.358828 
L 203.332681 216.989082 
L 204.206775 215.879843 
L 204.629724 214.58573 
L 205.066771 217.543702 
L 205.48972 222.535278 
L 205.926767 223.644517 
L 206.363814 223.274771 
L 206.758567 223.459644 
L 207.195614 225.862996 
L 207.618563 225.493249 
L 208.05561 224.568883 
L 208.478559 221.426039 
L 208.915606 216.989082 
L 209.352653 214.215984 
L 209.775602 214.031111 
L 210.212649 215.14035 
L 211.072645 211.442886 
L 211.509693 211.07314 
L 211.904445 211.07314 
L 212.764441 208.115168 
L 213.201488 207.930295 
L 213.624437 207.560549 
L 214.061484 207.745422 
L 214.498531 204.787451 
L 214.92148 207.560549 
L 215.358528 207.375676 
L 215.781476 204.602577 
L 216.218524 202.753845 
L 217.064421 208.115168 
L 217.501469 206.45131 
L 217.924417 206.636183 
L 218.784414 212.182379 
L 219.221461 213.476491 
L 219.658508 212.921872 
L 220.081457 211.258013 
L 220.518504 210.888266 
L 220.941453 211.812632 
L 221.3785 211.627759 
L 221.815547 213.106745 
L 222.2103 213.661364 
L 222.647347 213.291618 
L 223.070296 214.58573 
L 223.507343 211.812632 
L 223.930292 211.442886 
L 224.367339 209.594154 
L 224.804386 209.224408 
L 225.227335 209.9639 
L 225.664382 209.9639 
L 226.087331 208.484915 
L 226.524378 208.115168 
L 226.961425 207.930295 
L 227.356178 209.409281 
L 227.793225 211.627759 
L 228.216174 211.812632 
L 228.653221 211.442886 
L 229.07617 209.224408 
L 229.513217 210.148774 
L 229.950264 210.703393 
L 230.373213 211.627759 
L 230.81026 211.997506 
L 231.233209 211.997506 
L 231.670257 211.812632 
L 232.107304 211.07314 
L 232.502056 210.888266 
L 232.939103 210.148774 
L 233.362052 210.148774 
L 233.799099 209.594154 
L 234.222048 209.409281 
L 234.659095 209.779027 
L 235.096143 208.854661 
L 236.379088 207.005929 
L 236.816135 206.821056 
L 237.253182 207.005929 
L 237.662033 206.266436 
L 238.09908 205.89669 
L 238.959076 207.190802 
L 239.382025 207.190802 
L 239.819072 207.005929 
L 240.256119 206.636183 
L 240.679068 206.636183 
L 241.116115 207.375676 
L 241.539064 207.005929 
L 241.976111 207.005929 
L 242.413158 206.636183 
L 242.807911 206.821056 
L 243.244958 206.821056 
L 243.667907 207.005929 
L 244.104954 207.005929 
L 244.527903 206.821056 
L 244.96495 206.081563 
L 245.401997 204.972324 
L 245.824946 204.602577 
L 246.261993 203.308465 
L 246.684942 201.644606 
L 247.121989 201.644606 
L 247.559037 198.316889 
L 247.953789 197.947142 
L 248.390836 199.426128 
L 248.813785 199.056381 
L 249.250832 197.947142 
L 249.673781 195.913537 
L 250.110828 194.804298 
L 250.547875 194.989171 
L 250.970824 196.65303 
L 251.407872 195.913537 
L 251.83082 197.577396 
L 252.267868 202.199226 
L 252.704915 200.905113 
L 253.099667 201.27486 
L 253.536714 200.165621 
L 253.959663 195.543791 
L 254.39671 193.695059 
L 254.819659 193.695059 
L 255.256706 192.0312 
L 255.693754 191.291707 
L 256.116703 187.779116 
L 256.55375 182.972413 
L 256.976699 184.451398 
L 257.413746 187.779116 
L 257.850793 188.148863 
L 258.259644 183.896779 
L 258.696691 185.930384 
L 259.11964 183.711906 
L 259.979636 189.442975 
L 260.416683 190.367341 
L 260.85373 189.442975 
L 261.713726 184.451398 
L 262.136675 179.090076 
L 262.573722 177.426217 
L 263.01077 175.207738 
L 263.405522 171.695148 
L 263.842569 175.577485 
L 264.265518 175.392612 
L 264.702565 171.510274 
L 265.125514 171.325401 
L 265.562561 172.249767 
L 265.999608 166.703571 
L 266.422557 167.627937 
L 266.859604 163.19098 
L 267.282553 157.644784 
L 267.719601 156.720418 
L 268.156648 164.485093 
L 268.5514 165.409459 
L 268.988447 162.821234 
L 269.411396 155.241433 
L 269.848443 154.317067 
L 270.271392 162.081741 
L 270.708439 158.754023 
L 271.145487 160.972502 
L 271.568435 161.711995 
L 272.428432 173.174133 
L 273.302526 175.577485 
L 273.697278 177.980836 
L 274.134325 177.241344 
L 274.557274 173.359006 
L 274.994322 173.728753 
L 275.41727 174.283372 
L 275.854318 176.686724 
L 276.291365 180.753934 
L 276.714314 182.602666 
L 277.151361 182.972413 
L 277.57431 179.644695 
L 278.011357 179.644695 
L 278.448404 178.720329 
L 278.857255 178.905202 
L 279.294302 177.426217 
L 279.717251 179.274949 
L 280.154298 180.199315 
L 280.577247 180.569061 
L 281.014294 181.123681 
L 281.451341 178.16571 
L 281.87429 178.350583 
L 282.311337 181.863174 
L 282.734286 179.459822 
L 283.171333 173.728753 
L 283.608381 170.031289 
L 284.003133 168.92205 
L 284.44018 170.585908 
L 285.300176 166.703571 
L 285.723125 162.821234 
L 286.160172 157.644784 
L 286.59722 164.854839 
L 287.020168 167.81281 
L 287.880164 166.148952 
L 288.317212 162.266614 
L 288.754259 162.636361 
L 289.586058 153.392701 
L 290.009007 152.838081 
L 290.446054 153.577574 
L 291.306051 148.031378 
L 291.743098 148.585997 
L 292.166047 150.064983 
L 292.603094 155.426306 
L 293.026043 158.199404 
L 293.46309 160.048136 
L 293.900137 161.342248 
L 294.294889 159.12377 
L 294.731937 153.577574 
L 295.154885 154.317067 
L 295.591933 156.720418 
L 296.014882 156.165799 
L 296.451929 153.022954 
L 296.888976 148.770871 
L 297.311925 148.770871 
L 297.748972 150.249856 
L 298.171921 150.989349 
L 298.608968 155.241433 
L 299.046015 155.611179 
L 299.454866 156.535545 
L 299.891913 159.12377 
L 300.314862 154.317067 
L 302.471901 160.602755 
L 302.908949 161.157375 
L 303.331897 165.409459 
L 303.768945 160.048136 
L 304.205992 151.359095 
L 304.600744 150.434729 
L 305.037791 151.728842 
L 305.46074 150.989349 
L 305.897787 154.317067 
L 306.320736 154.686813 
L 306.757783 154.132193 
L 307.194831 155.241433 
L 307.61778 152.653208 
L 308.054827 151.543969 
L 308.477776 149.88011 
L 308.914823 144.888533 
L 309.35187 143.039801 
L 309.746622 142.485182 
L 311.466614 133.981014 
L 311.903662 138.048225 
L 312.340709 138.972591 
L 312.763658 134.350761 
L 313.200705 132.686902 
L 313.623654 129.174311 
L 314.060701 127.695326 
L 314.497748 127.695326 
L 314.8925 127.325579 
L 315.329548 127.510452 
L 315.752497 125.476847 
L 316.189544 129.728931 
L 316.612493 129.174311 
L 317.04954 127.880199 
L 317.486587 123.073495 
L 317.909536 109.023132 
L 318.346583 102.367697 
L 318.769532 106.250034 
L 319.206579 98.115613 
L 319.643626 70.014887 
L 320.052477 64.098944 
L 320.912473 101.99795 
L 321.34952 109.762625 
L 321.772469 101.813077 
L 322.209516 88.871953 
L 322.646564 81.292152 
L 323.069512 76.485449 
L 323.50656 64.838437 
L 323.929509 63.729198 
L 324.366556 68.166155 
L 324.803603 57.443509 
L 325.198355 58.922494 
L 326.058351 43.947765 
L 326.495398 54.485538 
L 327.355395 28.788163 
L 327.792442 22.132727 
L 328.215391 22.3176 
L 328.652438 49.124215 
L 329.075387 45.426751 
L 329.512434 29.712529 
L 329.949481 31.561261 
L 330.344233 43.578019 
L 331.204229 49.309088 
L 331.641277 37.29233 
L 332.064226 43.762892 
L 333.361269 89.2417 
L 333.798316 95.342515 
L 334.221265 92.569417 
L 334.658312 91.829924 
L 335.095359 87.577841 
L 335.490112 92.384544 
L 335.927159 95.157642 
L 336.350108 94.787896 
L 337.647151 72.418238 
L 338.084198 75.376209 
L 338.507147 76.300575 
L 339.367143 72.048492 
L 339.80419 74.82159 
L 340.241238 72.048492 
L 340.650088 63.544324 
L 341.087135 58.552748 
L 341.510084 45.241878 
L 341.947131 42.468779 
L 342.37008 46.53599 
L 342.807127 57.443509 
L 343.667124 67.981281 
L 344.104171 75.561083 
L 344.52712 76.300575 
L 344.964167 77.409815 
L 345.401214 73.712351 
L 345.795966 65.762803 
L 346.233014 72.418238 
L 346.655962 80.922405 
L 347.09301 92.014798 
L 347.515958 89.2417 
L 348.390053 86.283728 
L 348.813002 88.317334 
L 349.672998 106.250034 
L 350.110045 107.72902 
L 350.547092 115.863441 
L 350.941845 133.241522 
L 351.378892 143.224674 
L 351.801841 135.275127 
L 352.238888 131.39279 
L 352.661837 138.233098 
L 353.098884 140.821323 
L 353.535931 134.165888 
L 353.95888 134.90538 
L 354.395927 139.157464 
L 354.818876 141.745689 
L 355.255923 143.039801 
L 355.69297 141.375942 
L 356.087723 142.670055 
L 356.52477 129.913804 
L 356.947719 121.03989 
L 357.384766 123.997861 
L 357.807715 122.703749 
L 358.244762 117.712173 
L 358.681809 106.434907 
L 359.104758 105.880288 
L 359.541805 117.342426 
L 359.964754 114.939075 
L 360.401801 120.485271 
L 360.838849 128.065072 
L 361.247699 124.367608 
L 362.107695 112.720596 
L 362.544743 116.41806 
L 363.404739 111.056737 
L 363.841786 116.048314 
L 364.264735 119.191158 
L 364.701782 115.863441 
L 365.124731 114.754201 
L 365.561778 115.863441 
L 365.998825 114.199582 
L 366.393577 111.056737 
L 366.830625 113.829835 
L 367.253574 118.081919 
L 367.690621 128.249945 
L 368.11357 132.132282 
L 368.550617 130.83817 
L 368.987664 129.913804 
L 369.410613 132.871775 
L 369.84766 135.090254 
L 370.270609 135.275127 
L 370.707656 128.434818 
L 371.144703 123.443242 
L 371.539456 121.964256 
L 371.976503 118.636539 
L 372.399452 119.006285 
L 372.836499 124.182735 
L 373.259448 123.812988 
L 373.696495 117.712173 
L 374.133542 115.123948 
L 374.556491 118.451665 
L 375.416487 129.913804 
L 375.853534 129.544058 
L 376.290582 133.426395 
L 376.685334 128.619692 
L 377.122381 130.28355 
L 377.54533 129.544058 
L 377.982377 125.66172 
L 378.405326 126.401213 
L 378.842373 132.502029 
L 379.27942 136.384366 
L 379.702369 137.863352 
L 380.139416 138.787718 
L 380.562365 143.409548 
L 380.999413 145.25828 
L 381.43646 139.712084 
L 381.84531 136.938986 
L 382.282358 137.863352 
L 383.142354 140.821323 
L 383.565303 146.737265 
L 384.00235 150.619603 
L 384.439397 152.653208 
L 385.299393 146.182646 
L 386.159389 150.989349 
L 386.991189 160.602755 
L 387.428236 160.787629 
L 387.851185 160.048136 
L 388.288232 162.451487 
L 388.711181 166.333825 
L 389.148228 169.291796 
L 389.585275 173.728753 
L 390.008224 174.468246 
L 390.445271 167.997684 
L 390.86822 167.627937 
L 391.305267 168.182557 
L 391.742314 164.485093 
L 392.574114 148.216251 
L 392.997063 145.443153 
L 393.43411 146.182646 
L 393.857059 142.854928 
L 394.294106 143.964167 
L 395.154102 135.275127 
L 395.591149 132.686902 
L 396.014098 136.199493 
L 396.451145 136.938986 
L 397.282945 144.518787 
L 397.719992 146.552392 
L 398.579988 161.711995 
L 399.002937 159.493516 
L 399.439984 155.980925 
L 400.29998 164.669966 
L 400.737028 166.888444 
L 401.159977 170.585908 
L 401.597024 171.325401 
L 402.034071 167.443064 
L 402.442921 159.308643 
L 402.879969 155.241433 
L 403.739965 150.434729 
L 404.162914 151.728842 
L 404.599961 155.241433 
L 405.037008 151.728842 
L 405.897004 162.451487 
L 406.319953 160.972502 
L 406.757 156.165799 
L 407.194047 158.56915 
L 407.5888 153.577574 
L 408.025847 150.804476 
L 408.885843 157.459911 
L 409.308792 162.451487 
L 409.745839 160.787629 
L 410.182886 162.636361 
L 411.902878 175.022865 
L 412.734678 172.619514 
L 413.171725 172.98926 
L 413.594674 172.804387 
L 414.031721 176.686724 
L 414.45467 177.05647 
L 414.891717 179.274949 
L 415.328764 184.821145 
L 415.751713 186.669877 
L 416.188761 183.157286 
L 416.611709 185.745511 
L 417.048757 183.896779 
L 417.880556 176.132104 
L 418.317603 176.871597 
L 419.177599 166.888444 
L 419.600548 168.552303 
L 420.037595 165.779205 
L 420.474643 164.669966 
L 420.897592 161.527121 
L 421.334639 164.854839 
L 422.194635 157.644784 
L 422.631682 163.560727 
L 423.47758 170.031289 
L 423.900529 163.560727 
L 424.337576 168.36743 
L 424.337576 168.36743 
" clip-path="url(#pd3bbd751c7)" style="fill: none; stroke: #1f77b4; stroke-width: 1.5; stroke-linecap: square"/>
   </g>
   <g id="line2d_7">
    <path d="M 123.536323 239.543613 
L 123.97337 239.358739 
L 124.368122 239.728486 
L 124.805169 239.913359 
L 125.228118 239.913359 
L 125.665165 240.652852 
L 126.088114 239.913359 
L 126.962209 239.913359 
L 127.385158 240.098232 
L 127.822205 240.098232 
L 128.245154 239.913359 
L 128.682201 240.652852 
L 129.119248 240.283105 
L 129.514 239.728486 
L 129.951048 240.098232 
L 130.373996 240.652852 
L 130.811044 240.652852 
L 131.233993 241.022598 
L 131.67104 240.467979 
L 132.108087 240.098232 
L 132.531036 240.098232 
L 132.968083 239.728486 
L 133.391032 239.543613 
L 134.265126 239.543613 
L 134.673977 239.728486 
L 135.97102 239.728486 
L 136.393969 239.543613 
L 136.831016 239.543613 
L 137.268063 239.728486 
L 137.691012 239.728486 
L 138.551008 239.358739 
L 138.988056 239.358739 
L 139.425103 241.392345 
L 139.819855 241.392345 
L 140.256902 242.501584 
L 140.679851 242.501584 
L 141.116898 244.165443 
L 141.539847 244.350316 
L 141.976894 243.795696 
L 142.413942 243.795696 
L 142.836891 245.089809 
L 143.273938 246.014175 
L 143.696887 246.568794 
L 144.133934 248.232653 
L 144.570981 248.787273 
L 144.965733 248.232653 
L 145.40278 247.862907 
L 145.825729 246.014175 
L 146.262777 246.383921 
L 146.685725 246.383921 
L 147.55982 243.795696 
L 147.982769 244.165443 
L 148.419816 244.165443 
L 148.842765 244.350316 
L 149.279812 244.904935 
L 149.716859 244.350316 
L 150.111612 244.350316 
L 151.408655 243.795696 
L 151.831604 243.980569 
L 152.268651 244.720062 
L 152.705698 244.535189 
L 153.128647 243.795696 
L 153.565694 242.316711 
L 154.42569 238.2495 
L 155.271588 238.988993 
L 155.708635 238.988993 
L 156.131584 239.913359 
L 156.568631 239.913359 
L 156.99158 239.543613 
L 157.428627 238.80412 
L 157.865675 238.619247 
L 158.288623 238.2495 
L 159.14862 238.988993 
L 159.585667 239.543613 
L 160.022714 240.283105 
L 160.854513 240.652852 
L 161.277462 240.652852 
L 161.714509 240.837725 
L 162.137458 242.686457 
L 162.574506 243.056203 
L 163.011553 243.056203 
L 163.434502 242.87133 
L 164.294498 243.241077 
L 165.563344 241.762091 
L 166.000392 241.762091 
L 166.423341 242.131837 
L 166.860388 242.131837 
L 167.283337 241.577218 
L 167.720384 241.577218 
L 168.157431 241.207471 
L 168.58038 240.652852 
L 169.017427 241.022598 
L 169.440376 240.652852 
L 169.877423 240.652852 
L 170.31447 240.283105 
L 170.709223 238.434373 
L 171.14627 238.434373 
L 171.569219 237.694881 
L 172.006266 236.585641 
L 172.429215 237.325134 
L 172.866262 236.770515 
L 173.303309 236.770515 
L 173.726258 237.325134 
L 174.586254 234.921783 
L 175.023301 233.997417 
L 175.460349 234.18229 
L 175.869199 234.552036 
L 176.306246 236.215895 
L 176.729195 236.585641 
L 177.166242 235.846149 
L 177.589191 235.846149 
L 178.026238 234.18229 
L 178.463286 233.812543 
L 178.886235 233.257924 
L 179.323282 233.812543 
L 179.746231 232.703304 
L 180.620325 231.409192 
L 181.875073 226.047869 
L 182.312121 225.123503 
L 182.73507 226.602489 
L 183.172117 226.787362 
L 183.609164 227.711728 
L 184.032113 230.299953 
L 184.46916 230.299953 
L 184.892109 231.409192 
L 185.766203 234.18229 
L 186.160956 234.921783 
L 186.598003 235.291529 
L 187.020952 233.997417 
L 187.457999 235.476402 
L 187.880948 236.400768 
L 188.317995 236.400768 
L 188.755042 235.661275 
L 189.177991 235.661275 
L 189.615038 235.476402 
L 190.037987 235.106656 
L 190.912081 232.518431 
L 191.306834 232.888177 
L 191.743881 231.409192 
L 192.16683 232.148685 
L 192.603877 231.594065 
L 193.026826 229.745333 
L 193.463873 228.820967 
L 193.90092 229.375587 
L 194.323869 230.854572 
L 195.183865 229.745333 
L 195.620912 229.930206 
L 196.05796 230.854572 
L 196.46681 229.375587 
L 196.903857 226.787362 
L 197.326806 228.636094 
L 197.763854 229.56046 
L 198.186802 228.081474 
L 198.62385 225.123503 
L 199.060897 223.82939 
L 199.483846 224.014264 
L 200.343842 220.3168 
L 200.780889 221.241166 
L 201.217936 224.014264 
L 202.049736 221.980658 
L 202.472685 220.3168 
L 202.909732 216.249589 
L 203.332681 216.619336 
L 203.769728 216.064716 
L 204.206775 216.249589 
L 204.629724 214.955477 
L 205.066771 218.468068 
L 205.48972 224.014264 
L 205.926767 224.93863 
L 206.363814 224.014264 
L 206.758567 224.38401 
L 207.195614 226.787362 
L 207.618563 226.232742 
L 208.05561 225.123503 
L 209.352653 215.510096 
L 209.775602 214.215984 
L 210.212649 215.510096 
L 210.635598 213.846238 
L 211.072645 211.442886 
L 211.509693 211.442886 
L 211.904445 211.258013 
L 212.764441 207.005929 
L 213.624437 207.375676 
L 214.061484 207.190802 
L 214.498531 204.417704 
L 214.92148 206.266436 
L 215.358528 206.821056 
L 215.781476 202.938719 
L 216.218524 201.089987 
L 217.064421 207.190802 
L 217.501469 205.34207 
L 217.924417 206.081563 
L 218.784414 212.736998 
L 219.221461 213.661364 
L 219.658508 213.476491 
L 220.081457 211.997506 
L 220.518504 211.07314 
L 220.941453 211.997506 
L 221.3785 211.627759 
L 221.815547 213.291618 
L 222.2103 213.661364 
L 222.647347 213.661364 
L 223.070296 214.58573 
L 223.507343 211.997506 
L 223.930292 211.258013 
L 224.367339 209.224408 
L 224.804386 209.409281 
L 225.227335 209.779027 
L 225.664382 209.9639 
L 226.524378 207.930295 
L 226.961425 207.375676 
L 227.356178 209.039534 
L 227.793225 211.442886 
L 228.216174 211.442886 
L 228.653221 211.258013 
L 228.653221 211.258013 
" clip-path="url(#pd3bbd751c7)" style="fill: none; stroke: #ff7f0e; stroke-width: 1.5; stroke-linecap: square"/>
   </g>
   <g id="patch_5">
    <path d="M 10.8 260.12 
L 565.2 260.12 
" style="fill: none; stroke: #000000; stroke-width: 0.8; stroke-linejoin: miter; stroke-linecap: square"/>
   </g>
   <g id="legend_1">
    <g id="patch_6">
     <path d="M 17.8 48.15625 
L 160.395313 48.15625 
Q 162.395313 48.15625 162.395313 46.15625 
L 162.395313 17.8 
Q 162.395313 15.8 160.395313 15.8 
L 17.8 15.8 
Q 15.8 15.8 15.8 17.8 
L 15.8 46.15625 
Q 15.8 48.15625 17.8 48.15625 
z
" style="fill: #ffffff; opacity: 0.8; stroke: #cccccc; stroke-linejoin: miter"/>
    </g>
    <g id="line2d_8">
     <path d="M 19.8 23.898438 
L 29.8 23.898438 
L 39.8 23.898438 
" style="fill: none; stroke: #1f77b4; stroke-width: 1.5; stroke-linecap: square"/>
    </g>
    <g id="text_6">
     <!-- LTGOVTBD -->
     <g transform="translate(47.8 27.398438) scale(0.1 -0.1)">
      <defs>
       <path id="DejaVuSans-4c" d="M 628 4666 
L 1259 4666 
L 1259 531 
L 3531 531 
L 3531 0 
L 628 0 
L 628 4666 
z
" transform="scale(0.015625)"/>
       <path id="DejaVuSans-54" d="M -19 4666 
L 3928 4666 
L 3928 4134 
L 2272 4134 
L 2272 0 
L 1638 0 
L 1638 4134 
L -19 4134 
L -19 4666 
z
" transform="scale(0.015625)"/>
       <path id="DejaVuSans-47" d="M 3809 666 
L 3809 1919 
L 2778 1919 
L 2778 2438 
L 4434 2438 
L 4434 434 
Q 4069 175 3628 42 
Q 3188 -91 2688 -91 
Q 1594 -91 976 548 
Q 359 1188 359 2328 
Q 359 3472 976 4111 
Q 1594 4750 2688 4750 
Q 3144 4750 3555 4637 
Q 3966 4525 4313 4306 
L 4313 3634 
Q 3963 3931 3569 4081 
Q 3175 4231 2741 4231 
Q 1884 4231 1454 3753 
Q 1025 3275 1025 2328 
Q 1025 1384 1454 906 
Q 1884 428 2741 428 
Q 3075 428 3337 486 
Q 3600 544 3809 666 
z
" transform="scale(0.015625)"/>
       <path id="DejaVuSans-4f" d="M 2522 4238 
Q 1834 4238 1429 3725 
Q 1025 3213 1025 2328 
Q 1025 1447 1429 934 
Q 1834 422 2522 422 
Q 3209 422 3611 934 
Q 4013 1447 4013 2328 
Q 4013 3213 3611 3725 
Q 3209 4238 2522 4238 
z
M 2522 4750 
Q 3503 4750 4090 4092 
Q 4678 3434 4678 2328 
Q 4678 1225 4090 567 
Q 3503 -91 2522 -91 
Q 1538 -91 948 565 
Q 359 1222 359 2328 
Q 359 3434 948 4092 
Q 1538 4750 2522 4750 
z
" transform="scale(0.015625)"/>
       <path id="DejaVuSans-56" d="M 1831 0 
L 50 4666 
L 709 4666 
L 2188 738 
L 3669 4666 
L 4325 4666 
L 2547 0 
L 1831 0 
z
" transform="scale(0.015625)"/>
       <path id="DejaVuSans-42" d="M 1259 2228 
L 1259 519 
L 2272 519 
Q 2781 519 3026 730 
Q 3272 941 3272 1375 
Q 3272 1813 3026 2020 
Q 2781 2228 2272 2228 
L 1259 2228 
z
M 1259 4147 
L 1259 2741 
L 2194 2741 
Q 2656 2741 2882 2914 
Q 3109 3088 3109 3444 
Q 3109 3797 2882 3972 
Q 2656 4147 2194 4147 
L 1259 4147 
z
M 628 4666 
L 2241 4666 
Q 2963 4666 3353 4366 
Q 3744 4066 3744 3513 
Q 3744 3084 3544 2831 
Q 3344 2578 2956 2516 
Q 3422 2416 3680 2098 
Q 3938 1781 3938 1306 
Q 3938 681 3513 340 
Q 3088 0 2303 0 
L 628 0 
L 628 4666 
z
" transform="scale(0.015625)"/>
       <path id="DejaVuSans-44" d="M 1259 4147 
L 1259 519 
L 2022 519 
Q 2988 519 3436 956 
Q 3884 1394 3884 2338 
Q 3884 3275 3436 3711 
Q 2988 4147 2022 4147 
L 1259 4147 
z
M 628 4666 
L 1925 4666 
Q 3281 4666 3915 4102 
Q 4550 3538 4550 2338 
Q 4550 1131 3912 565 
Q 3275 0 1925 0 
L 628 0 
L 628 4666 
z
" transform="scale(0.015625)"/>
      </defs>
      <use xlink:href="#DejaVuSans-4c"/>
      <use xlink:href="#DejaVuSans-54" x="41.962891"/>
      <use xlink:href="#DejaVuSans-47" x="103.046875"/>
      <use xlink:href="#DejaVuSans-4f" x="180.537109"/>
      <use xlink:href="#DejaVuSans-56" x="257.498047"/>
      <use xlink:href="#DejaVuSans-54" x="325.90625"/>
      <use xlink:href="#DejaVuSans-42" x="386.990234"/>
      <use xlink:href="#DejaVuSans-44" x="455.59375"/>
     </g>
    </g>
    <g id="line2d_9">
     <path d="M 19.8 38.576562 
L 29.8 38.576562 
L 39.8 38.576562 
" style="fill: none; stroke: #ff7f0e; stroke-width: 1.5; stroke-linecap: square"/>
    </g>
    <g id="text_7">
     <!-- M13058USM156NNBR -->
     <g transform="translate(47.8 42.076562) scale(0.1 -0.1)">
      <defs>
       <path id="DejaVuSans-4d" d="M 628 4666 
L 1569 4666 
L 2759 1491 
L 3956 4666 
L 4897 4666 
L 4897 0 
L 4281 0 
L 4281 4097 
L 3078 897 
L 2444 897 
L 1241 4097 
L 1241 0 
L 628 0 
L 628 4666 
z
" transform="scale(0.015625)"/>
       <path id="DejaVuSans-33" d="M 2597 2516 
Q 3050 2419 3304 2112 
Q 3559 1806 3559 1356 
Q 3559 666 3084 287 
Q 2609 -91 1734 -91 
Q 1441 -91 1130 -33 
Q 819 25 488 141 
L 488 750 
Q 750 597 1062 519 
Q 1375 441 1716 441 
Q 2309 441 2620 675 
Q 2931 909 2931 1356 
Q 2931 1769 2642 2001 
Q 2353 2234 1838 2234 
L 1294 2234 
L 1294 2753 
L 1863 2753 
Q 2328 2753 2575 2939 
Q 2822 3125 2822 3475 
Q 2822 3834 2567 4026 
Q 2313 4219 1838 4219 
Q 1578 4219 1281 4162 
Q 984 4106 628 3988 
L 628 4550 
Q 988 4650 1302 4700 
Q 1616 4750 1894 4750 
Q 2613 4750 3031 4423 
Q 3450 4097 3450 3541 
Q 3450 3153 3228 2886 
Q 3006 2619 2597 2516 
z
" transform="scale(0.015625)"/>
       <path id="DejaVuSans-35" d="M 691 4666 
L 3169 4666 
L 3169 4134 
L 1269 4134 
L 1269 2991 
Q 1406 3038 1543 3061 
Q 1681 3084 1819 3084 
Q 2600 3084 3056 2656 
Q 3513 2228 3513 1497 
Q 3513 744 3044 326 
Q 2575 -91 1722 -91 
Q 1428 -91 1123 -41 
Q 819 9 494 109 
L 494 744 
Q 775 591 1075 516 
Q 1375 441 1709 441 
Q 2250 441 2565 725 
Q 2881 1009 2881 1497 
Q 2881 1984 2565 2268 
Q 2250 2553 1709 2553 
Q 1456 2553 1204 2497 
Q 953 2441 691 2322 
L 691 4666 
z
" transform="scale(0.015625)"/>
       <path id="DejaVuSans-55" d="M 556 4666 
L 1191 4666 
L 1191 1831 
Q 1191 1081 1462 751 
Q 1734 422 2344 422 
Q 2950 422 3222 751 
Q 3494 1081 3494 1831 
L 3494 4666 
L 4128 4666 
L 4128 1753 
Q 4128 841 3676 375 
Q 3225 -91 2344 -91 
Q 1459 -91 1007 375 
Q 556 841 556 1753 
L 556 4666 
z
" transform="scale(0.015625)"/>
       <path id="DejaVuSans-53" d="M 3425 4513 
L 3425 3897 
Q 3066 4069 2747 4153 
Q 2428 4238 2131 4238 
Q 1616 4238 1336 4038 
Q 1056 3838 1056 3469 
Q 1056 3159 1242 3001 
Q 1428 2844 1947 2747 
L 2328 2669 
Q 3034 2534 3370 2195 
Q 3706 1856 3706 1288 
Q 3706 609 3251 259 
Q 2797 -91 1919 -91 
Q 1588 -91 1214 -16 
Q 841 59 441 206 
L 441 856 
Q 825 641 1194 531 
Q 1563 422 1919 422 
Q 2459 422 2753 634 
Q 3047 847 3047 1241 
Q 3047 1584 2836 1778 
Q 2625 1972 2144 2069 
L 1759 2144 
Q 1053 2284 737 2584 
Q 422 2884 422 3419 
Q 422 4038 858 4394 
Q 1294 4750 2059 4750 
Q 2388 4750 2728 4690 
Q 3069 4631 3425 4513 
z
" transform="scale(0.015625)"/>
       <path id="DejaVuSans-4e" d="M 628 4666 
L 1478 4666 
L 3547 763 
L 3547 4666 
L 4159 4666 
L 4159 0 
L 3309 0 
L 1241 3903 
L 1241 0 
L 628 0 
L 628 4666 
z
" transform="scale(0.015625)"/>
       <path id="DejaVuSans-52" d="M 2841 2188 
Q 3044 2119 3236 1894 
Q 3428 1669 3622 1275 
L 4263 0 
L 3584 0 
L 2988 1197 
Q 2756 1666 2539 1819 
Q 2322 1972 1947 1972 
L 1259 1972 
L 1259 0 
L 628 0 
L 628 4666 
L 2053 4666 
Q 2853 4666 3247 4331 
Q 3641 3997 3641 3322 
Q 3641 2881 3436 2590 
Q 3231 2300 2841 2188 
z
M 1259 4147 
L 1259 2491 
L 2053 2491 
Q 2509 2491 2742 2702 
Q 2975 2913 2975 3322 
Q 2975 3731 2742 3939 
Q 2509 4147 2053 4147 
L 1259 4147 
z
" transform="scale(0.015625)"/>
      </defs>
      <use xlink:href="#DejaVuSans-4d"/>
      <use xlink:href="#DejaVuSans-31" x="86.279297"/>
      <use xlink:href="#DejaVuSans-33" x="149.902344"/>
      <use xlink:href="#DejaVuSans-30" x="213.525391"/>
      <use xlink:href="#DejaVuSans-35" x="277.148438"/>
      <use xlink:href="#DejaVuSans-38" x="340.771484"/>
      <use xlink:href="#DejaVuSans-55" x="404.394531"/>
      <use xlink:href="#DejaVuSans-53" x="477.587891"/>
      <use xlink:href="#DejaVuSans-4d" x="541.064453"/>
      <use xlink:href="#DejaVuSans-31" x="627.34375"/>
      <use xlink:href="#DejaVuSans-35" x="690.966797"/>
      <use xlink:href="#DejaVuSans-36" x="754.589844"/>
      <use xlink:href="#DejaVuSans-4e" x="818.212891"/>
      <use xlink:href="#DejaVuSans-4e" x="893.017578"/>
      <use xlink:href="#DejaVuSans-42" x="967.822266"/>
      <use xlink:href="#DejaVuSans-52" x="1036.425781"/>
     </g>
    </g>
   </g>
  </g>
 </g>
 <defs>
  <clipPath id="pd3bbd751c7">
   <rect x="10.8" y="10.8" width="554.4" height="249.32"/>
  </clipPath>
 </defs>
</svg>
