<?xml version="1.0"?><!DOCTYPE svg  PUBLIC '-//W3C//DTD SVG 1.1//EN'  'http://www.w3.org/Graphics/SVG/1.1/DTD/svg11.dtd'><svg enable-background="new 0 0 24 24" height="24px" id="Layer_1" version="1.1" viewBox="0 0 24 24" width="24px" xml:space="preserve" xmlns="http://www.w3.org/2000/svg" xmlns:xlink="http://www.w3.org/1999/xlink" fill="#428AD2"><path d="M23.5,4.6c0-1.9-1.5-3.4-3.4-3.4H3.9C2,1.2,0.5,2.8,0.5,4.6v8.1c0,0.2,0,0.3,0,0.5c0,0.2,0,0.4,0,0.6  c0,4.9,5.2,8.9,11.5,8.9s11.5-4,11.5-8.9c0-0.2,0-0.4,0-0.6c0-0.1,0-0.3,0-0.5V4.6z M19.1,10.5l-5.7,5.7c-0.4,0.4-0.9,0.6-1.4,0.6  l-0.1,0c-0.5,0-1-0.2-1.4-0.6l-5.7-5.7c-0.8-0.8-0.8-2,0-2.8c0.7-0.7,2-0.7,2.8,0l4.3,4.4l4.3-4.4c0.7-0.7,2-0.7,2.8,0  C19.9,8.5,19.9,9.8,19.1,10.5z"/></svg>