<?xml version="1.0" encoding="utf-8" standalone="no"?>
<!DOCTYPE svg PUBLIC "-//W3C//DTD SVG 1.1//EN"
  "http://www.w3.org/Graphics/SVG/1.1/DTD/svg11.dtd">
<svg xmlns:xlink="http://www.w3.org/1999/xlink" width="576pt" height="288pt" viewBox="0 0 576 288" xmlns="http://www.w3.org/2000/svg" version="1.1">
 <metadata>
  <rdf:RDF xmlns:dc="http://purl.org/dc/elements/1.1/" xmlns:cc="http://creativecommons.org/ns#" xmlns:rdf="http://www.w3.org/1999/02/22-rdf-syntax-ns#">
   <cc:Work>
    <dc:type rdf:resource="http://purl.org/dc/dcmitype/StillImage"/>
    <dc:date>2022-11-24T06:40:42.706175</dc:date>
    <dc:format>image/svg+xml</dc:format>
    <dc:creator>
     <cc:Agent>
      <dc:title>Matplotlib v3.6.2, https://matplotlib.org/</dc:title>
     </cc:Agent>
    </dc:creator>
   </cc:Work>
  </rdf:RDF>
 </metadata>
 <defs>
  <style type="text/css">*{stroke-linejoin: round; stroke-linecap: butt}</style>
 </defs>
 <g id="figure_1">
  <g id="patch_1">
   <path d="M 0 288 
L 576 288 
L 576 0 
L 0 0 
L 0 288 
z
" style="fill: none"/>
  </g>
  <g id="axes_1">
   <g id="patch_2">
    <path d="M 12.96 257.96 
L 563.04 257.96 
L 563.04 12.96 
L 12.96 12.96 
L 12.96 257.96 
z
" style="fill: none"/>
   </g>
   <g id="patch_3">
    <path d="M 434.245573 257.96 
L 434.245573 12.96 
L 538.036364 12.96 
L 538.036364 257.96 
z
" clip-path="url(#p9f63beaa57)" style="opacity: 0.025"/>
   </g>
   <g id="patch_4">
    <path d="M 226.985673 257.96 
L 226.985673 249.8015 
L 537.938461 249.8015 
L 537.938461 257.96 
z
" clip-path="url(#p9f63beaa57)" style="fill: #008000"/>
   </g>
   <g id="matplotlib.axis_1">
    <g id="xtick_1">
     <g id="line2d_1">
      <defs>
       <path id="m126b6489c8" d="M 0 0 
L 0 3.5 
" style="stroke: #000000; stroke-width: 0.8"/>
      </defs>
      <g>
       <use xlink:href="#m126b6489c8" x="114.57945" y="257.96" style="stroke: #000000; stroke-width: 0.8"/>
      </g>
     </g>
     <g id="text_1">
      <!-- 1940 -->
      <g transform="translate(102.6507 273.504375) scale(0.12 -0.12)">
       <defs>
        <path id="SourceSansPro-Regular-31" d="M 506 0 
L 506 435 
L 1440 435 
L 1440 3443 
L 698 3443 
L 698 3782 
Q 979 3834 1187 3907 
Q 1395 3981 1562 4083 
L 1965 4083 
L 1965 435 
L 2810 435 
L 2810 0 
L 506 0 
z
" transform="scale(0.015625)"/>
        <path id="SourceSansPro-Regular-39" d="M 749 2848 
Q 749 2451 937 2217 
Q 1126 1984 1504 1984 
Q 1709 1984 1936 2112 
Q 2163 2240 2362 2528 
Q 2310 3123 2080 3433 
Q 1850 3744 1459 3744 
Q 1165 3744 957 3497 
Q 749 3251 749 2848 
z
M 1312 -77 
Q 986 -77 739 48 
Q 493 173 326 352 
L 621 685 
Q 749 538 925 448 
Q 1101 358 1293 358 
Q 1581 358 1824 524 
Q 2067 691 2217 1075 
Q 2368 1459 2374 2112 
Q 2182 1869 1926 1728 
Q 1670 1587 1414 1587 
Q 890 1587 573 1904 
Q 256 2221 256 2848 
Q 256 3238 422 3532 
Q 589 3827 861 3993 
Q 1133 4160 1459 4160 
Q 1862 4160 2182 3942 
Q 2502 3725 2684 3289 
Q 2867 2854 2867 2195 
Q 2867 1376 2646 877 
Q 2426 378 2074 150 
Q 1722 -77 1312 -77 
z
" transform="scale(0.015625)"/>
        <path id="SourceSansPro-Regular-34" d="M 666 1549 
L 1946 1549 
L 1946 2733 
Q 1946 2899 1958 3129 
Q 1971 3360 1978 3520 
L 1952 3520 
Q 1875 3373 1792 3232 
Q 1709 3091 1619 2944 
L 666 1549 
z
M 1946 0 
L 1946 1126 
L 109 1126 
L 109 1472 
L 1856 4083 
L 2445 4083 
L 2445 1549 
L 3002 1549 
L 3002 1126 
L 2445 1126 
L 2445 0 
L 1946 0 
z
" transform="scale(0.015625)"/>
        <path id="SourceSansPro-Regular-30" d="M 1594 -77 
Q 979 -77 630 476 
Q 282 1030 282 2054 
Q 282 3085 630 3622 
Q 979 4160 1594 4160 
Q 2202 4160 2550 3622 
Q 2899 3085 2899 2054 
Q 2899 1030 2550 476 
Q 2202 -77 1594 -77 
z
M 1594 346 
Q 1952 346 2169 752 
Q 2387 1158 2387 2054 
Q 2387 2950 2169 3344 
Q 1952 3738 1594 3738 
Q 1235 3738 1014 3344 
Q 794 2950 794 2054 
Q 794 1158 1014 752 
Q 1235 346 1594 346 
z
" transform="scale(0.015625)"/>
       </defs>
       <use xlink:href="#SourceSansPro-Regular-31"/>
       <use xlink:href="#SourceSansPro-Regular-39" x="49.699997"/>
       <use xlink:href="#SourceSansPro-Regular-34" x="99.399994"/>
       <use xlink:href="#SourceSansPro-Regular-30" x="149.099991"/>
      </g>
     </g>
    </g>
    <g id="xtick_2">
     <g id="line2d_2">
      <g>
       <use xlink:href="#m126b6489c8" x="216.747853" y="257.96" style="stroke: #000000; stroke-width: 0.8"/>
      </g>
     </g>
     <g id="text_2">
      <!-- 1960 -->
      <g transform="translate(204.819103 273.504375) scale(0.12 -0.12)">
       <defs>
        <path id="SourceSansPro-Regular-36" d="M 1670 2099 
Q 1472 2099 1241 1971 
Q 1011 1843 819 1562 
Q 870 966 1097 652 
Q 1325 339 1715 339 
Q 2016 339 2221 585 
Q 2426 832 2426 1235 
Q 2426 1632 2237 1865 
Q 2048 2099 1670 2099 
z
M 1715 -77 
Q 1318 -77 998 140 
Q 678 358 492 796 
Q 307 1235 307 1888 
Q 307 2707 528 3206 
Q 749 3706 1104 3933 
Q 1459 4160 1862 4160 
Q 2195 4160 2435 4035 
Q 2675 3910 2848 3725 
L 2554 3398 
Q 2432 3546 2253 3632 
Q 2074 3718 1882 3718 
Q 1594 3718 1357 3555 
Q 1120 3392 969 3011 
Q 819 2630 806 1984 
Q 998 2221 1254 2358 
Q 1510 2496 1760 2496 
Q 2291 2496 2608 2179 
Q 2925 1862 2925 1235 
Q 2925 845 2758 550 
Q 2592 256 2320 89 
Q 2048 -77 1715 -77 
z
" transform="scale(0.015625)"/>
       </defs>
       <use xlink:href="#SourceSansPro-Regular-31"/>
       <use xlink:href="#SourceSansPro-Regular-39" x="49.699997"/>
       <use xlink:href="#SourceSansPro-Regular-36" x="99.399994"/>
       <use xlink:href="#SourceSansPro-Regular-30" x="149.099991"/>
      </g>
     </g>
    </g>
    <g id="xtick_3">
     <g id="line2d_3">
      <g>
       <use xlink:href="#m126b6489c8" x="318.916257" y="257.96" style="stroke: #000000; stroke-width: 0.8"/>
      </g>
     </g>
     <g id="text_3">
      <!-- 1980 -->
      <g transform="translate(306.987507 273.504375) scale(0.12 -0.12)">
       <defs>
        <path id="SourceSansPro-Regular-38" d="M 1600 -77 
Q 1216 -77 915 67 
Q 614 211 438 467 
Q 262 723 262 1043 
Q 262 1312 374 1520 
Q 486 1728 662 1885 
Q 838 2042 1030 2144 
L 1030 2170 
Q 806 2330 633 2560 
Q 461 2790 461 3110 
Q 461 3424 614 3661 
Q 768 3898 1030 4029 
Q 1293 4160 1619 4160 
Q 2150 4160 2460 3853 
Q 2771 3546 2771 3072 
Q 2771 2861 2681 2672 
Q 2592 2483 2464 2332 
Q 2336 2182 2208 2086 
L 2208 2061 
Q 2394 1958 2554 1817 
Q 2714 1677 2816 1481 
Q 2918 1286 2918 1011 
Q 2918 710 2755 460 
Q 2592 211 2294 67 
Q 1997 -77 1600 -77 
z
M 1888 2227 
Q 2093 2413 2205 2617 
Q 2317 2822 2317 3046 
Q 2317 3347 2131 3558 
Q 1946 3770 1606 3770 
Q 1325 3770 1136 3590 
Q 947 3411 947 3110 
Q 947 2867 1078 2707 
Q 1210 2547 1427 2435 
Q 1645 2323 1888 2227 
z
M 1613 314 
Q 1971 314 2192 515 
Q 2413 717 2413 1030 
Q 2413 1293 2259 1459 
Q 2106 1626 1853 1747 
Q 1600 1869 1306 1984 
Q 1062 1824 899 1600 
Q 736 1376 736 1094 
Q 736 755 989 534 
Q 1242 314 1613 314 
z
" transform="scale(0.015625)"/>
       </defs>
       <use xlink:href="#SourceSansPro-Regular-31"/>
       <use xlink:href="#SourceSansPro-Regular-39" x="49.699997"/>
       <use xlink:href="#SourceSansPro-Regular-38" x="99.399994"/>
       <use xlink:href="#SourceSansPro-Regular-30" x="149.099991"/>
      </g>
     </g>
    </g>
    <g id="xtick_4">
     <g id="line2d_4">
      <g>
       <use xlink:href="#m126b6489c8" x="421.084661" y="257.96" style="stroke: #000000; stroke-width: 0.8"/>
      </g>
     </g>
     <g id="text_4">
      <!-- 2000 -->
      <g transform="translate(409.155911 273.504375) scale(0.12 -0.12)">
       <defs>
        <path id="SourceSansPro-Regular-32" d="M 256 0 
L 256 314 
Q 870 928 1299 1392 
Q 1728 1856 1952 2230 
Q 2176 2605 2176 2931 
Q 2176 3283 1984 3507 
Q 1792 3731 1402 3731 
Q 1146 3731 928 3587 
Q 710 3443 531 3238 
L 230 3539 
Q 486 3821 777 3990 
Q 1069 4160 1466 4160 
Q 2035 4160 2361 3830 
Q 2688 3501 2688 2957 
Q 2688 2573 2473 2179 
Q 2259 1786 1884 1354 
Q 1510 922 1024 416 
Q 1190 429 1369 441 
Q 1549 454 1709 454 
L 2893 454 
L 2893 0 
L 256 0 
z
" transform="scale(0.015625)"/>
       </defs>
       <use xlink:href="#SourceSansPro-Regular-32"/>
       <use xlink:href="#SourceSansPro-Regular-30" x="49.699997"/>
       <use xlink:href="#SourceSansPro-Regular-30" x="99.399994"/>
       <use xlink:href="#SourceSansPro-Regular-30" x="149.099991"/>
      </g>
     </g>
    </g>
    <g id="xtick_5">
     <g id="line2d_5">
      <g>
       <use xlink:href="#m126b6489c8" x="523.253064" y="257.96" style="stroke: #000000; stroke-width: 0.8"/>
      </g>
     </g>
     <g id="text_5">
      <!-- 2020 -->
      <g transform="translate(511.324314 273.504375) scale(0.12 -0.12)">
       <use xlink:href="#SourceSansPro-Regular-32"/>
       <use xlink:href="#SourceSansPro-Regular-30" x="49.699997"/>
       <use xlink:href="#SourceSansPro-Regular-32" x="99.399994"/>
       <use xlink:href="#SourceSansPro-Regular-30" x="149.099991"/>
      </g>
     </g>
    </g>
   </g>
   <g id="matplotlib.axis_2"/>
   <g id="line2d_6">
    <path d="M 37.963636 209.036301 
L 38.397205 209.217971 
L 38.788816 209.036301 
L 39.222385 209.581311 
L 39.641967 210.67133 
L 40.075536 212.124689 
L 40.495119 212.124689 
L 40.928688 211.03467 
L 41.362257 211.03467 
L 42.215408 212.124689 
L 42.634991 211.943019 
L 43.06856 212.488029 
L 43.502129 213.578048 
L 43.893739 213.578048 
L 44.327308 213.759718 
L 44.746891 214.304728 
L 45.18046 214.304728 
L 45.600043 214.123058 
L 46.033612 213.759718 
L 46.46718 213.759718 
L 46.886763 214.123058 
L 48.173484 217.211446 
L 48.607053 217.756456 
L 48.998663 219.754824 
L 49.432232 220.118164 
L 49.851815 220.844844 
L 50.704966 219.936494 
L 51.138535 220.663174 
L 51.572104 221.026513 
L 51.991687 221.208183 
L 52.844838 223.388222 
L 53.711976 223.024882 
L 54.117573 223.388222 
L 54.551142 222.843212 
L 55.404293 221.208183 
L 55.823876 218.846475 
L 56.257445 217.756456 
L 56.691014 218.119795 
L 57.110597 217.938125 
L 57.544165 219.573154 
L 58.397317 217.029776 
L 58.830886 215.213077 
L 59.222497 213.033039 
L 59.656065 214.849738 
L 60.075648 214.849738 
L 60.509217 213.941388 
L 60.9288 214.849738 
L 61.362369 213.578048 
L 61.795938 213.759718 
L 62.21552 215.394747 
L 62.649089 220.118164 
L 63.068672 219.936494 
L 63.502241 218.664805 
L 63.93581 219.028145 
L 64.32742 221.208183 
L 64.760989 219.754824 
L 65.614141 221.934863 
L 66.033723 221.934863 
L 66.467292 221.753193 
L 66.900861 222.116533 
L 67.320444 222.661542 
L 67.754013 223.024882 
L 68.173596 222.479872 
L 68.607164 222.843212 
L 69.040733 221.026513 
L 69.432344 221.571523 
L 69.865913 221.753193 
L 70.285495 223.569892 
L 70.719064 224.114901 
L 71.138647 223.751562 
L 71.572216 223.206552 
L 72.005785 221.934863 
L 72.425368 215.031407 
L 72.858936 215.031407 
L 73.712088 203.586205 
L 74.145657 206.311253 
L 74.984822 214.123058 
L 75.404405 212.669699 
L 75.837974 212.669699 
L 76.257557 215.939757 
L 76.691126 218.301465 
L 77.124695 218.846475 
L 77.544277 218.664805 
L 77.977846 218.301465 
L 78.830998 222.479872 
L 79.264567 220.844844 
L 79.656177 218.846475 
L 80.089746 218.846475 
L 80.509329 221.026513 
L 80.942898 222.661542 
L 81.362481 222.843212 
L 81.796049 222.661542 
L 82.229618 223.024882 
L 82.649201 222.479872 
L 83.08277 218.119795 
L 83.502353 216.848106 
L 83.935921 217.393116 
L 84.761101 222.843212 
L 85.614253 226.11327 
L 86.047821 226.83995 
L 86.467404 227.929969 
L 86.900973 225.9316 
L 87.334542 222.843212 
L 87.754125 224.659911 
L 88.187694 225.204921 
L 88.607276 226.29494 
L 89.040845 228.656648 
L 89.474414 230.291677 
L 90.719176 231.563366 
L 91.152745 231.563366 
L 91.572328 232.108376 
L 92.005897 230.836687 
L 92.439466 229.201658 
L 92.859048 229.201658 
L 93.292617 229.564998 
L 93.7122 229.383328 
L 94.579338 230.473347 
L 94.984934 231.381697 
L 95.838086 232.290046 
L 96.271655 232.108376 
L 96.691238 232.290046 
L 97.124806 233.016725 
L 97.558375 232.835056 
L 97.977958 232.290046 
L 98.411527 233.743405 
L 98.83111 233.925075 
L 99.264679 234.288415 
L 99.698247 234.833424 
L 100.089858 232.653386 
L 100.523427 229.564998 
L 100.94301 230.110007 
L 101.376578 229.928338 
L 101.796161 230.473347 
L 102.22973 230.473347 
L 102.663299 229.746668 
L 103.082882 229.746668 
L 104.369602 232.108376 
L 105.628351 232.653386 
L 106.047933 234.470085 
L 106.481502 234.106745 
L 106.901085 234.106745 
L 107.334654 234.288415 
L 107.768223 233.198395 
L 108.187805 234.651754 
L 108.621374 234.470085 
L 109.040957 234.470085 
L 109.474526 234.833424 
L 109.908095 235.378434 
L 110.299705 236.831793 
L 110.733274 237.740142 
L 111.152857 239.738511 
L 111.586426 240.64686 
L 112.006009 240.465191 
L 112.439577 239.738511 
L 112.873146 232.471716 
L 113.292729 233.743405 
L 114.145881 238.285152 
L 114.57945 239.193501 
L 115.013018 238.830162 
L 115.418615 239.920181 
L 115.852184 239.920181 
L 116.271767 237.558472 
L 116.705336 237.376803 
L 117.124918 239.193501 
L 117.558487 239.011832 
L 117.992056 240.101851 
L 118.411639 240.82853 
L 118.845208 243.008569 
L 119.26479 244.461928 
L 120.131928 240.64686 
L 120.523539 242.463559 
L 120.957108 243.371909 
L 122.229842 245.006938 
L 122.663411 244.461928 
L 123.09698 244.280258 
L 123.516562 245.006938 
L 123.950131 238.466822 
L 124.369714 236.105113 
L 124.803283 235.923444 
L 125.236852 235.923444 
L 126.062031 236.650123 
L 126.481614 236.468453 
L 126.915183 236.831793 
L 127.334766 236.286783 
L 127.768334 236.105113 
L 128.621486 236.468453 
L 129.474638 235.741774 
L 129.908207 236.286783 
L 130.341775 236.286783 
L 130.733386 235.923444 
L 131.166955 235.923444 
L 131.586538 236.286783 
L 132.020107 236.468453 
L 132.439689 236.468453 
L 132.873258 236.286783 
L 133.306827 235.923444 
L 134.159979 235.923444 
L 134.579561 235.741774 
L 135.446699 235.741774 
L 135.852296 235.923444 
L 136.285865 235.923444 
L 136.705447 235.741774 
L 137.558599 235.741774 
L 138.425737 236.105113 
L 138.84532 235.923444 
L 139.698471 235.923444 
L 140.13204 236.650123 
L 140.565609 237.740142 
L 140.957219 237.376803 
L 141.390788 237.558472 
L 141.810371 237.558472 
L 142.24394 238.285152 
L 142.663523 238.466822 
L 143.097092 238.103482 
L 143.53066 237.921812 
L 144.383812 238.648492 
L 144.803395 238.648492 
L 145.670533 242.463559 
L 146.062143 243.008569 
L 146.495712 243.190239 
L 146.915295 241.19187 
L 147.348864 241.73688 
L 147.768446 241.37354 
L 148.635584 239.556841 
L 149.055167 239.920181 
L 149.908318 240.283521 
L 150.341887 240.82853 
L 150.775456 240.82853 
L 151.167067 241.19187 
L 152.020218 241.19187 
L 152.87337 240.101851 
L 153.306939 240.283521 
L 153.740508 240.283521 
L 154.160091 239.738511 
L 154.593659 238.103482 
L 155.013242 237.558472 
L 155.446811 236.468453 
L 155.88038 236.468453 
L 156.285977 236.650123 
L 156.719545 236.650123 
L 157.139128 237.013463 
L 157.572697 237.195133 
L 157.99228 237.195133 
L 158.425849 236.468453 
L 159.279 236.468453 
L 159.712569 236.650123 
L 160.132152 236.650123 
L 160.565721 237.013463 
L 160.99929 237.558472 
L 161.3909 237.740142 
L 162.677621 237.740142 
L 163.097203 239.738511 
L 163.530772 240.283521 
L 163.964341 240.64686 
L 164.383924 240.64686 
L 164.817493 241.0102 
L 165.237076 241.19187 
L 165.670644 241.0102 
L 166.495824 239.738511 
L 166.929393 239.193501 
L 167.348975 239.011832 
L 167.782544 238.648492 
L 168.202127 238.466822 
L 168.635696 238.648492 
L 169.488848 237.740142 
L 169.922416 237.740142 
L 170.341999 237.558472 
L 170.775568 237.558472 
L 171.209137 237.376803 
L 172.453899 233.198395 
L 172.887468 232.835056 
L 173.307051 233.198395 
L 173.74062 234.288415 
L 174.174188 234.470085 
L 175.446923 231.926706 
L 175.880492 231.200027 
L 176.314061 231.745036 
L 176.719657 231.926706 
L 177.572809 234.288415 
L 178.006378 233.561735 
L 178.425961 233.561735 
L 178.859529 231.926706 
L 179.293098 231.745036 
L 179.712681 231.200027 
L 180.14625 231.745036 
L 181.43297 229.564998 
L 182.25815 227.021619 
L 182.677733 224.296571 
L 183.111301 224.114901 
L 183.530884 225.74993 
L 183.964453 225.56826 
L 184.398022 226.29494 
L 184.817605 228.838318 
L 185.251174 229.019988 
L 185.670756 230.291677 
L 186.104325 232.108376 
L 186.537894 233.380065 
L 186.929505 235.015094 
L 187.363073 235.923444 
L 187.782656 234.833424 
L 188.216225 234.651754 
L 188.635808 236.105113 
L 189.069377 235.923444 
L 189.502946 235.196764 
L 189.922528 234.833424 
L 190.77568 233.925075 
L 191.642818 230.655017 
L 192.034428 230.473347 
L 192.467997 229.746668 
L 192.88758 229.928338 
L 193.321149 229.746668 
L 193.740731 228.111639 
L 194.1743 227.384959 
L 194.607869 227.929969 
L 195.027452 228.838318 
L 195.880604 228.111639 
L 196.747741 229.201658 
L 197.153338 227.748299 
L 197.586907 225.204921 
L 198.00649 227.021619 
L 198.440058 227.748299 
L 198.859641 226.47661 
L 199.29321 223.388222 
L 199.726779 222.661542 
L 200.146362 222.843212 
L 200.999513 219.209815 
L 201.433082 220.299834 
L 201.866651 222.479872 
L 202.258262 221.753193 
L 202.691831 220.663174 
L 203.111413 219.209815 
L 203.544982 215.939757 
L 203.964565 215.576417 
L 204.831703 214.486398 
L 205.251285 213.214709 
L 205.684854 216.121427 
L 206.104437 221.026513 
L 206.538006 222.116533 
L 206.971575 221.753193 
L 207.363185 221.934863 
L 207.796754 224.296571 
L 208.216337 223.933231 
L 208.649906 223.024882 
L 209.069489 219.936494 
L 209.503057 215.576417 
L 209.936626 212.851369 
L 210.356209 212.669699 
L 210.789778 213.759718 
L 211.64293 210.126321 
L 212.076498 209.762981 
L 212.468109 209.762981 
L 213.321261 206.856263 
L 213.754829 206.674593 
L 214.174412 206.311253 
L 214.607981 206.492923 
L 215.04155 203.586205 
L 215.461133 206.311253 
L 215.894702 206.129583 
L 216.314284 203.404535 
L 216.747853 201.587836 
L 217.587019 206.856263 
L 218.020588 205.221234 
L 218.44017 205.402904 
L 219.293322 210.853 
L 219.726891 212.124689 
L 220.16046 211.57968 
L 220.580042 209.944651 
L 221.013611 209.581311 
L 221.433194 210.48966 
L 221.866763 210.307991 
L 222.300332 211.76135 
L 222.691942 212.306359 
L 223.125511 211.943019 
L 223.545094 213.214709 
L 223.978663 210.48966 
L 224.398246 210.126321 
L 224.831814 208.309622 
L 225.265383 207.946282 
L 225.684966 208.672962 
L 226.118535 208.672962 
L 226.538118 207.219603 
L 226.971687 206.856263 
L 227.405255 206.674593 
L 227.796866 208.127952 
L 228.230435 210.307991 
L 228.650018 210.48966 
L 229.083587 210.126321 
L 229.503169 207.946282 
L 229.936738 208.854631 
L 230.370307 209.399641 
L 230.78989 210.307991 
L 231.223459 210.67133 
L 231.643041 210.67133 
L 232.07661 210.48966 
L 232.510179 209.762981 
L 232.90179 209.581311 
L 233.335359 208.854631 
L 233.754941 208.854631 
L 234.18851 208.309622 
L 234.608093 208.127952 
L 235.041662 208.491292 
L 235.475231 207.582942 
L 236.747965 205.766244 
L 237.181534 205.584574 
L 237.615103 205.766244 
L 238.020699 205.039564 
L 238.454268 204.676224 
L 239.30742 205.947913 
L 239.727003 205.947913 
L 240.160572 205.766244 
L 240.59414 205.402904 
L 241.013723 205.402904 
L 241.447292 206.129583 
L 241.866875 205.766244 
L 242.300444 205.766244 
L 242.734013 205.402904 
L 243.125623 205.584574 
L 243.559192 205.584574 
L 243.978775 205.766244 
L 244.412344 205.766244 
L 244.831926 205.584574 
L 245.265495 204.857894 
L 245.699064 203.767875 
L 246.118647 203.404535 
L 246.552216 202.132846 
L 246.971798 200.497817 
L 247.405367 200.497817 
L 247.838936 197.227759 
L 248.230547 196.864419 
L 248.664116 198.317778 
L 249.083698 197.954439 
L 249.517267 196.864419 
L 249.93685 194.866051 
L 250.370419 193.776031 
L 250.803988 193.957701 
L 251.223571 195.59273 
L 251.657139 194.866051 
L 252.076722 196.50108 
L 252.510291 201.042827 
L 252.94386 199.771137 
L 253.33547 200.134477 
L 253.769039 199.044458 
L 254.188622 194.502711 
L 254.622191 192.686012 
L 255.041774 192.686012 
L 255.475343 191.050983 
L 255.908911 190.324304 
L 256.328494 186.872576 
L 256.762063 182.149159 
L 257.181646 183.602518 
L 257.615215 186.872576 
L 258.048784 187.235916 
L 258.45438 183.057509 
L 258.887949 185.055877 
L 259.307532 182.875839 
L 260.160683 188.507605 
L 260.594252 189.415954 
L 261.027821 188.507605 
L 261.880973 183.602518 
L 262.300556 178.334092 
L 262.734124 176.699063 
L 263.167693 174.519024 
L 263.559304 171.067296 
L 263.992873 174.882364 
L 264.412455 174.700694 
L 264.846024 170.885627 
L 265.265607 170.703957 
L 265.699176 171.612306 
L 266.132745 166.16221 
L 266.552328 167.070559 
L 266.985896 162.710482 
L 267.405479 157.260386 
L 267.839048 156.352036 
L 268.272617 163.982171 
L 268.664228 164.890521 
L 269.097796 162.347142 
L 269.517379 154.898677 
L 269.950948 153.990328 
L 270.370531 161.620463 
L 270.8041 158.350405 
L 271.237668 160.530443 
L 271.657251 161.257123 
L 272.510403 172.520655 
L 273.377541 174.882364 
L 273.769151 177.244072 
L 274.20272 176.517393 
L 274.622303 172.702325 
L 275.055872 173.065665 
L 275.475454 173.610675 
L 275.909023 175.972383 
L 276.342592 179.969121 
L 276.762175 181.785819 
L 277.195744 182.149159 
L 277.615327 178.879101 
L 278.048895 178.879101 
L 278.482464 177.970752 
L 278.888061 178.152422 
L 279.32163 176.699063 
L 279.741213 178.515762 
L 280.174781 179.424111 
L 280.594364 179.787451 
L 281.027933 180.33246 
L 281.461502 177.425742 
L 281.881085 177.607412 
L 282.314654 181.05914 
L 282.734236 178.697431 
L 283.167805 173.065665 
L 283.601374 169.432268 
L 283.992985 168.342248 
L 284.426553 169.977277 
L 285.279705 166.16221 
L 285.699288 162.347142 
L 286.132857 157.260386 
L 286.566426 164.345511 
L 286.986008 167.252229 
L 287.83916 165.6172 
L 288.272729 161.802133 
L 288.706298 162.165472 
L 289.531477 153.081978 
L 289.95106 152.536969 
L 290.384629 153.263648 
L 291.23778 147.813552 
L 291.671349 148.358561 
L 292.090932 149.811921 
L 292.524501 155.080347 
L 292.944084 157.805395 
L 293.377652 159.622094 
L 293.811221 160.893783 
L 294.202832 158.713745 
L 294.636401 153.263648 
L 295.055984 153.990328 
L 295.489552 156.352036 
L 295.909135 155.807027 
L 296.342704 152.718639 
L 296.776273 148.540231 
L 297.195856 148.540231 
L 297.629424 149.99359 
L 298.049007 150.72027 
L 298.482576 154.898677 
L 298.916145 155.262017 
L 299.321742 156.170366 
L 299.755311 158.713745 
L 300.174893 153.990328 
L 302.314765 160.167104 
L 302.748334 160.712113 
L 303.167917 164.890521 
L 303.601486 159.622094 
L 304.035055 151.08361 
L 304.426665 150.17526 
L 304.860234 151.446949 
L 305.279817 150.72027 
L 305.713386 153.990328 
L 306.132969 154.353668 
L 306.566537 153.808658 
L 307.000106 154.898677 
L 307.419689 152.355299 
L 307.853258 151.26528 
L 308.272841 149.630251 
L 308.70641 144.725164 
L 309.139978 142.908465 
L 309.531589 142.363455 
L 311.237892 134.006641 
L 311.671461 138.003378 
L 312.10503 138.911728 
L 312.524613 134.369981 
L 312.958182 132.734952 
L 313.377764 129.283224 
L 313.811333 127.829865 
L 314.244902 127.829865 
L 314.636513 127.466525 
L 315.070081 127.648195 
L 315.489664 125.649826 
L 315.923233 129.828234 
L 316.342816 129.283224 
L 316.776385 128.011535 
L 317.209954 123.288118 
L 317.629536 109.481207 
L 318.063105 102.941092 
L 318.482688 106.756159 
L 318.916257 98.762684 
L 319.349826 71.148863 
L 319.755422 65.335426 
L 320.608574 102.577752 
L 321.042143 110.207887 
L 321.461726 102.396082 
L 321.895294 89.67919 
L 322.328863 82.230725 
L 322.748446 77.507308 
L 323.182015 66.062106 
L 323.601598 64.972087 
L 324.035167 69.332164 
L 324.468735 58.795311 
L 324.860346 60.24867 
L 325.713498 45.533409 
L 326.147067 55.888593 
L 327.000218 30.636479 
L 327.433787 24.096364 
L 327.85337 24.278034 
L 328.286939 50.620166 
L 328.706521 46.986769 
L 329.14009 31.544829 
L 329.573659 33.361528 
L 329.96527 45.17007 
L 330.818421 50.801836 
L 331.25199 38.993294 
L 331.671573 45.35174 
L 332.958293 90.04253 
L 333.391862 96.037636 
L 333.811445 93.312588 
L 334.245014 92.585908 
L 334.678583 88.407501 
L 335.070193 93.130918 
L 335.503762 95.855966 
L 335.923345 95.492626 
L 337.210065 73.510571 
L 337.643634 76.417289 
L 338.063217 77.325638 
L 338.916369 73.147231 
L 339.349938 75.872279 
L 339.783506 73.147231 
L 340.189103 64.790417 
L 340.622672 59.88533 
L 341.042255 46.805099 
L 341.475824 44.08005 
L 341.895406 48.076788 
L 342.328975 58.795311 
L 343.182127 69.150494 
L 343.615696 76.598959 
L 344.035278 77.325638 
L 344.468847 78.415658 
L 344.902416 74.78226 
L 345.294027 66.970455 
L 345.727596 73.510571 
L 346.147178 81.867385 
L 346.580747 92.767578 
L 347.00033 90.04253 
L 347.867468 87.135812 
L 348.287051 89.134181 
L 349.140202 106.756159 
L 349.573771 108.209518 
L 350.00734 116.202993 
L 350.39895 133.279961 
L 350.832519 143.090135 
L 351.252102 135.27833 
L 351.685671 131.463263 
L 352.105254 138.185048 
L 352.538823 140.728427 
L 352.972391 134.188311 
L 353.391974 134.91499 
L 353.825543 139.093398 
L 354.245126 141.636776 
L 354.678695 142.908465 
L 355.112264 141.273436 
L 355.503874 142.545125 
L 355.937443 130.009904 
L 356.357026 121.289749 
L 356.790595 124.196467 
L 357.210177 122.924778 
L 357.643746 118.019692 
L 358.077315 106.937829 
L 358.496898 106.392819 
L 358.930467 117.656352 
L 359.350049 115.294643 
L 359.783618 120.74474 
L 360.217187 128.193205 
L 360.622784 124.559807 
L 361.475935 113.114605 
L 361.909504 116.748002 
L 362.762656 111.479576 
L 363.196225 116.384663 
L 363.615808 119.473051 
L 364.049376 116.202993 
L 364.468959 115.112973 
L 364.902528 116.202993 
L 365.336097 114.567964 
L 365.727708 111.479576 
L 366.161276 114.204624 
L 366.580859 118.383031 
L 367.014428 128.374875 
L 367.434011 132.189942 
L 367.86758 130.918253 
L 368.301148 130.009904 
L 368.720731 132.916622 
L 369.1543 135.09666 
L 369.573883 135.27833 
L 370.007452 128.556545 
L 370.441021 123.651458 
L 370.832631 122.198099 
L 371.2662 118.928041 
L 371.685783 119.291381 
L 372.119352 124.378137 
L 372.538934 124.014798 
L 372.972503 118.019692 
L 373.406072 115.476313 
L 373.825655 118.746371 
L 374.678807 130.009904 
L 375.112375 129.646564 
L 375.545944 133.461631 
L 375.937555 128.738214 
L 376.371124 130.373243 
L 376.790706 129.646564 
L 377.224275 125.831496 
L 377.643858 126.558176 
L 378.077427 132.553282 
L 378.510996 136.368349 
L 378.930579 137.821708 
L 379.364147 138.730058 
L 379.78373 143.271805 
L 380.217299 145.088504 
L 380.650868 139.638407 
L 381.056465 136.913359 
L 381.490033 137.821708 
L 382.343185 140.728427 
L 382.762768 146.541863 
L 383.196337 150.35693 
L 383.629906 152.355299 
L 384.483057 145.996853 
L 385.336209 150.72027 
L 386.161388 160.167104 
L 386.594957 160.348774 
L 387.01454 159.622094 
L 387.448109 161.983802 
L 387.867691 165.79887 
L 388.30126 168.705588 
L 388.734829 173.065665 
L 389.154412 173.792345 
L 389.587981 167.433899 
L 390.007564 167.070559 
L 390.441132 167.615569 
L 390.874701 163.982171 
L 391.699881 147.995222 
L 392.119464 145.270174 
L 392.553032 145.996853 
L 392.972615 142.726795 
L 393.406184 143.816814 
L 394.259336 135.27833 
L 394.692904 132.734952 
L 395.112487 136.18668 
L 395.546056 136.913359 
L 396.371236 144.361824 
L 396.804804 146.360193 
L 397.657956 161.257123 
L 398.077539 159.077084 
L 398.511108 155.625357 
L 399.364259 164.163841 
L 399.797828 166.34388 
L 400.217411 169.977277 
L 400.65098 170.703957 
L 401.084549 166.888889 
L 401.490145 158.895415 
L 401.923714 154.898677 
L 402.776866 150.17526 
L 403.196449 151.446949 
L 403.630017 154.898677 
L 404.063586 151.446949 
L 404.916738 161.983802 
L 405.336321 160.530443 
L 405.76989 155.807027 
L 406.203458 158.168735 
L 406.595069 153.263648 
L 407.028638 150.5386 
L 407.881789 157.078716 
L 408.301372 161.983802 
L 408.734941 160.348774 
L 409.16851 162.165472 
L 410.874813 174.337354 
L 411.699993 171.975646 
L 412.133561 172.338986 
L 412.553144 172.157316 
L 412.986713 175.972383 
L 413.406296 176.335723 
L 413.839865 178.515762 
L 414.273434 183.965858 
L 414.693016 185.782557 
L 415.126585 182.330829 
L 415.546168 184.874207 
L 415.979737 183.057509 
L 416.804916 175.427374 
L 417.238485 176.154053 
L 418.091637 166.34388 
L 418.51122 167.978908 
L 418.944788 165.25386 
L 419.378357 164.163841 
L 419.79794 161.075453 
L 420.231509 164.345511 
L 421.084661 157.260386 
L 421.518229 163.073822 
L 422.357395 169.432268 
L 422.776978 163.073822 
L 423.210547 167.797239 
L 423.210547 167.797239 
" clip-path="url(#p9f63beaa57)" style="fill: none; stroke: #1f77b4; stroke-width: 1.5; stroke-linecap: square"/>
   </g>
   <g id="line2d_7">
    <path d="M 124.803283 237.740142 
L 125.236852 237.558472 
L 125.628462 237.921812 
L 126.062031 238.103482 
L 126.481614 238.103482 
L 126.915183 238.830162 
L 127.334766 238.103482 
L 128.201903 238.103482 
L 128.621486 238.285152 
L 129.055055 238.285152 
L 129.474638 238.103482 
L 129.908207 238.830162 
L 130.341775 238.466822 
L 130.733386 237.921812 
L 131.166955 238.285152 
L 131.586538 238.830162 
L 132.020107 238.830162 
L 132.439689 239.193501 
L 132.873258 238.648492 
L 133.306827 238.285152 
L 133.72641 238.285152 
L 134.159979 237.921812 
L 134.579561 237.740142 
L 135.446699 237.740142 
L 135.852296 237.921812 
L 137.139016 237.921812 
L 137.558599 237.740142 
L 137.992168 237.740142 
L 138.425737 237.921812 
L 138.84532 237.921812 
L 139.698471 237.558472 
L 140.13204 237.558472 
L 140.565609 239.556841 
L 140.957219 239.556841 
L 141.390788 240.64686 
L 141.810371 240.64686 
L 142.24394 242.281889 
L 142.663523 242.463559 
L 143.097092 241.91855 
L 143.53066 241.91855 
L 143.950243 243.190239 
L 144.383812 244.098588 
L 144.803395 244.643598 
L 145.236964 246.278627 
L 145.670533 246.823636 
L 146.062143 246.278627 
L 146.495712 245.915287 
L 146.915295 244.098588 
L 147.348864 244.461928 
L 147.768446 244.461928 
L 148.635584 241.91855 
L 149.055167 242.281889 
L 149.488736 242.281889 
L 149.908318 242.463559 
L 150.341887 243.008569 
L 150.775456 242.463559 
L 151.167067 242.463559 
L 152.453787 241.91855 
L 152.87337 242.100219 
L 153.306939 242.826899 
L 153.740508 242.645229 
L 154.160091 241.91855 
L 154.593659 240.465191 
L 155.446811 236.468453 
L 156.285977 237.195133 
L 156.719545 237.195133 
L 157.139128 238.103482 
L 157.572697 238.103482 
L 157.99228 237.740142 
L 158.425849 237.013463 
L 158.859418 236.831793 
L 159.279 236.468453 
L 160.132152 237.195133 
L 160.565721 237.740142 
L 160.99929 238.466822 
L 161.824469 238.830162 
L 162.244052 238.830162 
L 162.677621 239.011832 
L 163.097203 240.82853 
L 163.530772 241.19187 
L 163.964341 241.19187 
L 164.383924 241.0102 
L 165.237076 241.37354 
L 166.495824 239.920181 
L 166.929393 239.920181 
L 167.348975 240.283521 
L 167.782544 240.283521 
L 168.202127 239.738511 
L 168.635696 239.738511 
L 169.069265 239.375171 
L 169.488848 238.830162 
L 169.922416 239.193501 
L 170.341999 238.830162 
L 170.775568 238.830162 
L 171.209137 238.466822 
L 171.600748 236.650123 
L 172.034316 236.650123 
L 172.453899 235.923444 
L 172.887468 234.833424 
L 173.307051 235.560104 
L 173.74062 235.015094 
L 174.174188 235.015094 
L 174.593771 235.560104 
L 175.446923 233.198395 
L 175.880492 232.290046 
L 176.314061 232.471716 
L 176.719657 232.835056 
L 177.153226 234.470085 
L 177.572809 234.833424 
L 178.006378 234.106745 
L 178.425961 234.106745 
L 178.859529 232.471716 
L 179.293098 232.108376 
L 179.712681 231.563366 
L 180.14625 232.108376 
L 180.565833 231.018357 
L 181.43297 229.746668 
L 182.677733 224.478241 
L 183.111301 223.569892 
L 183.530884 225.023251 
L 183.964453 225.204921 
L 184.398022 226.11327 
L 184.817605 228.656648 
L 185.251174 228.656648 
L 185.670756 229.746668 
L 186.537894 232.471716 
L 186.929505 233.198395 
L 187.363073 233.561735 
L 187.782656 232.290046 
L 188.216225 233.743405 
L 188.635808 234.651754 
L 189.069377 234.651754 
L 189.502946 233.925075 
L 189.922528 233.925075 
L 190.356097 233.743405 
L 190.77568 233.380065 
L 191.642818 230.836687 
L 192.034428 231.200027 
L 192.467997 229.746668 
L 192.88758 230.473347 
L 193.321149 229.928338 
L 193.740731 228.111639 
L 194.1743 227.203289 
L 194.607869 227.748299 
L 195.027452 229.201658 
L 195.880604 228.111639 
L 196.314172 228.293309 
L 196.747741 229.201658 
L 197.153338 227.748299 
L 197.586907 225.204921 
L 198.00649 227.021619 
L 198.440058 227.929969 
L 198.859641 226.47661 
L 199.29321 223.569892 
L 199.726779 222.298203 
L 200.146362 222.479872 
L 200.999513 218.846475 
L 201.433082 219.754824 
L 201.866651 222.479872 
L 202.691831 220.481504 
L 203.111413 218.846475 
L 203.544982 214.849738 
L 203.964565 215.213077 
L 204.398134 214.668068 
L 204.831703 214.849738 
L 205.251285 213.578048 
L 205.684854 217.029776 
L 206.104437 222.479872 
L 206.538006 223.388222 
L 206.971575 222.479872 
L 207.363185 222.843212 
L 207.796754 225.204921 
L 208.216337 224.659911 
L 208.649906 223.569892 
L 209.936626 214.123058 
L 210.356209 212.851369 
L 210.789778 214.123058 
L 211.209361 212.488029 
L 211.64293 210.126321 
L 212.076498 210.126321 
L 212.468109 209.944651 
L 213.321261 205.766244 
L 214.174412 206.129583 
L 214.607981 205.947913 
L 215.04155 203.222865 
L 215.461133 205.039564 
L 215.894702 205.584574 
L 216.314284 201.769506 
L 216.747853 199.952807 
L 217.587019 205.947913 
L 218.020588 204.131215 
L 218.44017 204.857894 
L 219.293322 211.39801 
L 219.726891 212.306359 
L 220.16046 212.124689 
L 220.580042 210.67133 
L 221.013611 209.762981 
L 221.433194 210.67133 
L 221.866763 210.307991 
L 222.300332 211.943019 
L 222.691942 212.306359 
L 223.125511 212.306359 
L 223.545094 213.214709 
L 223.978663 210.67133 
L 224.398246 209.944651 
L 224.831814 207.946282 
L 225.265383 208.127952 
L 225.684966 208.491292 
L 226.118535 208.672962 
L 226.971687 206.674593 
L 227.405255 206.129583 
L 227.796866 207.764612 
L 228.230435 210.126321 
L 228.650018 210.126321 
L 229.083587 209.944651 
L 229.083587 209.944651 
" clip-path="url(#p9f63beaa57)" style="fill: none; stroke: #ff7f0e; stroke-width: 1.5; stroke-linecap: square"/>
   </g>
   <g id="patch_5">
    <path d="M 12.96 257.96 
L 563.04 257.96 
" style="fill: none; stroke: #000000; stroke-width: 0.8; stroke-linejoin: miter; stroke-linecap: square"/>
   </g>
   <g id="text_6">
    <!-- TLT timeframe -->
    <g style="opacity: 0.6" transform="translate(449.331906 32.640739) scale(0.12 -0.12)">
     <defs>
      <path id="SourceSansPro-Regular-54" d="M 1446 0 
L 1446 3750 
L 179 3750 
L 179 4198 
L 3251 4198 
L 3251 3750 
L 1984 3750 
L 1984 0 
L 1446 0 
z
" transform="scale(0.015625)"/>
      <path id="SourceSansPro-Regular-4c" d="M 576 0 
L 576 4198 
L 1107 4198 
L 1107 454 
L 2944 454 
L 2944 0 
L 576 0 
z
" transform="scale(0.015625)"/>
      <path id="SourceSansPro-Regular-20" transform="scale(0.015625)"/>
      <path id="SourceSansPro-Regular-74" d="M 1504 -77 
Q 1005 -77 809 211 
Q 614 499 614 960 
L 614 2682 
L 154 2682 
L 154 3078 
L 640 3110 
L 704 3981 
L 1146 3981 
L 1146 3110 
L 1984 3110 
L 1984 2682 
L 1146 2682 
L 1146 954 
Q 1146 666 1251 509 
Q 1357 352 1626 352 
Q 1709 352 1805 381 
Q 1901 410 1978 435 
L 2080 38 
Q 1952 -6 1801 -41 
Q 1651 -77 1504 -77 
z
" transform="scale(0.015625)"/>
      <path id="SourceSansPro-Regular-69" d="M 525 0 
L 525 3110 
L 1050 3110 
L 1050 0 
L 525 0 
z
M 792 3750 
Q 638 3750 539 3843 
Q 440 3936 440 4096 
Q 440 4250 539 4346 
Q 638 4442 792 4442 
Q 946 4442 1045 4346 
Q 1144 4250 1144 4096 
Q 1144 3936 1045 3843 
Q 946 3750 792 3750 
z
" transform="scale(0.015625)"/>
      <path id="SourceSansPro-Regular-6d" d="M 525 0 
L 525 3110 
L 960 3110 
L 1005 2662 
L 1024 2662 
Q 1229 2886 1472 3036 
Q 1715 3187 1990 3187 
Q 2349 3187 2550 3030 
Q 2752 2874 2848 2592 
Q 3091 2854 3340 3020 
Q 3590 3187 3872 3187 
Q 4352 3187 4585 2876 
Q 4819 2566 4819 1971 
L 4819 0 
L 4294 0 
L 4294 1901 
Q 4294 2336 4153 2534 
Q 4013 2733 3718 2733 
Q 3373 2733 2938 2253 
L 2938 0 
L 2413 0 
L 2413 1901 
Q 2413 2336 2272 2534 
Q 2131 2733 1830 2733 
Q 1485 2733 1050 2253 
L 1050 0 
L 525 0 
z
" transform="scale(0.015625)"/>
      <path id="SourceSansPro-Regular-65" d="M 1786 -77 
Q 1370 -77 1030 118 
Q 691 314 492 678 
Q 294 1043 294 1549 
Q 294 2061 496 2425 
Q 698 2790 1018 2988 
Q 1338 3187 1690 3187 
Q 2285 3187 2608 2790 
Q 2931 2394 2931 1728 
Q 2931 1645 2928 1565 
Q 2925 1485 2912 1427 
L 813 1427 
Q 845 934 1123 640 
Q 1402 346 1850 346 
Q 2074 346 2262 413 
Q 2451 480 2624 589 
L 2810 243 
Q 2611 115 2358 19 
Q 2106 -77 1786 -77 
z
M 806 1805 
L 2470 1805 
Q 2470 2278 2268 2524 
Q 2067 2771 1702 2771 
Q 1376 2771 1117 2518 
Q 858 2266 806 1805 
z
" transform="scale(0.015625)"/>
      <path id="SourceSansPro-Regular-66" d="M 614 0 
L 614 2682 
L 192 2682 
L 192 3078 
L 614 3110 
L 614 3603 
Q 614 4077 835 4355 
Q 1056 4634 1523 4634 
Q 1670 4634 1804 4605 
Q 1939 4576 2042 4531 
L 1926 4128 
Q 1754 4205 1574 4205 
Q 1139 4205 1139 3603 
L 1139 3110 
L 1798 3110 
L 1798 2682 
L 1139 2682 
L 1139 0 
L 614 0 
z
" transform="scale(0.015625)"/>
      <path id="SourceSansPro-Regular-72" d="M 525 0 
L 525 3110 
L 960 3110 
L 1005 2547 
L 1024 2547 
Q 1184 2842 1414 3014 
Q 1645 3187 1907 3187 
Q 2093 3187 2240 3123 
L 2138 2662 
Q 2061 2688 1997 2701 
Q 1933 2714 1837 2714 
Q 1638 2714 1424 2554 
Q 1210 2394 1050 1997 
L 1050 0 
L 525 0 
z
" transform="scale(0.015625)"/>
      <path id="SourceSansPro-Regular-61" d="M 1242 -77 
Q 851 -77 592 156 
Q 333 390 333 806 
Q 333 1318 790 1590 
Q 1248 1862 2240 1971 
Q 2240 2170 2185 2349 
Q 2131 2528 1993 2640 
Q 1856 2752 1600 2752 
Q 1331 2752 1094 2649 
Q 858 2547 672 2419 
L 467 2784 
Q 685 2925 1001 3056 
Q 1318 3187 1690 3187 
Q 2259 3187 2515 2838 
Q 2771 2490 2771 1907 
L 2771 0 
L 2336 0 
L 2291 371 
L 2272 371 
Q 2054 192 1795 57 
Q 1536 -77 1242 -77 
z
M 1395 346 
Q 1619 346 1817 454 
Q 2016 563 2240 762 
L 2240 1626 
Q 1466 1530 1155 1338 
Q 845 1146 845 845 
Q 845 582 1005 464 
Q 1165 346 1395 346 
z
" transform="scale(0.015625)"/>
     </defs>
     <use xlink:href="#SourceSansPro-Regular-54"/>
     <use xlink:href="#SourceSansPro-Regular-4c" x="53.599991"/>
     <use xlink:href="#SourceSansPro-Regular-54" x="102.199982"/>
     <use xlink:href="#SourceSansPro-Regular-20" x="155.799973"/>
     <use xlink:href="#SourceSansPro-Regular-74" x="175.799957"/>
     <use xlink:href="#SourceSansPro-Regular-69" x="209.599945"/>
     <use xlink:href="#SourceSansPro-Regular-6d" x="234.199936"/>
     <use xlink:href="#SourceSansPro-Regular-65" x="317.09993"/>
     <use xlink:href="#SourceSansPro-Regular-66" x="366.699921"/>
     <use xlink:href="#SourceSansPro-Regular-72" x="395.899918"/>
     <use xlink:href="#SourceSansPro-Regular-61" x="430.599915"/>
     <use xlink:href="#SourceSansPro-Regular-6d" x="480.999908"/>
     <use xlink:href="#SourceSansPro-Regular-65" x="563.899902"/>
    </g>
   </g>
   <g id="legend_1">
    <g id="patch_6">
     <path d="M 21.36 56.56875 
L 168.485625 56.56875 
Q 170.885625 56.56875 170.885625 54.16875 
L 170.885625 21.36 
Q 170.885625 18.96 168.485625 18.96 
L 21.36 18.96 
Q 18.96 18.96 18.96 21.36 
L 18.96 54.16875 
Q 18.96 56.56875 21.36 56.56875 
L 21.36 56.56875 
z
" style="fill: none; opacity: 0"/>
    </g>
    <g id="line2d_8">
     <path d="M 23.76 28.104375 
L 35.76 28.104375 
L 47.76 28.104375 
" style="fill: none; stroke: #1f77b4; stroke-width: 1.5; stroke-linecap: square"/>
    </g>
    <g id="text_7">
     <!-- LTGOVTBD -->
     <g transform="translate(57.36 32.304375) scale(0.12 -0.12)">
      <defs>
       <path id="SourceSansPro-Regular-47" d="M 2227 -77 
Q 1677 -77 1248 182 
Q 819 442 576 928 
Q 333 1414 333 2099 
Q 333 2778 582 3264 
Q 832 3750 1267 4012 
Q 1702 4275 2259 4275 
Q 2694 4275 2992 4112 
Q 3290 3949 3469 3757 
L 3174 3411 
Q 3014 3578 2803 3693 
Q 2592 3808 2272 3808 
Q 1850 3808 1536 3600 
Q 1222 3392 1052 3014 
Q 883 2637 883 2112 
Q 883 1318 1244 854 
Q 1606 390 2278 390 
Q 2502 390 2707 457 
Q 2912 525 3034 640 
L 3034 1734 
L 2144 1734 
L 2144 2176 
L 3520 2176 
L 3520 410 
Q 3322 198 2986 60 
Q 2650 -77 2227 -77 
z
" transform="scale(0.015625)"/>
       <path id="SourceSansPro-Regular-4f" d="M 2125 -77 
Q 1600 -77 1193 192 
Q 787 461 560 953 
Q 333 1446 333 2118 
Q 333 2790 560 3273 
Q 787 3757 1193 4016 
Q 1600 4275 2125 4275 
Q 2656 4275 3059 4016 
Q 3462 3757 3692 3273 
Q 3923 2790 3923 2118 
Q 3923 1446 3692 953 
Q 3462 461 3059 192 
Q 2656 -77 2125 -77 
z
M 2125 390 
Q 2502 390 2780 604 
Q 3059 819 3212 1206 
Q 3366 1594 3366 2118 
Q 3366 2899 3027 3353 
Q 2688 3808 2125 3808 
Q 1562 3808 1222 3353 
Q 883 2899 883 2118 
Q 883 1594 1036 1206 
Q 1190 819 1472 604 
Q 1754 390 2125 390 
z
" transform="scale(0.015625)"/>
       <path id="SourceSansPro-Regular-56" d="M 1344 0 
L 0 4198 
L 570 4198 
L 1242 1933 
Q 1357 1562 1443 1238 
Q 1530 915 1651 544 
L 1677 544 
Q 1792 915 1881 1238 
Q 1971 1562 2080 1933 
L 2752 4198 
L 3296 4198 
L 1965 0 
L 1344 0 
z
" transform="scale(0.015625)"/>
       <path id="SourceSansPro-Regular-42" d="M 576 0 
L 576 4198 
L 1824 4198 
Q 2253 4198 2576 4096 
Q 2899 3994 3081 3770 
Q 3264 3546 3264 3174 
Q 3264 2861 3107 2608 
Q 2950 2355 2650 2259 
L 2650 2234 
Q 3027 2163 3267 1913 
Q 3507 1664 3507 1229 
Q 3507 819 3305 544 
Q 3104 269 2745 134 
Q 2387 0 1914 0 
L 576 0 
z
M 1107 2413 
L 1728 2413 
Q 2266 2413 2502 2598 
Q 2739 2784 2739 3104 
Q 2739 3469 2492 3622 
Q 2246 3776 1754 3776 
L 1107 3776 
L 1107 2413 
z
M 1107 422 
L 1837 422 
Q 2381 422 2681 624 
Q 2982 826 2982 1248 
Q 2982 1638 2684 1820 
Q 2387 2003 1837 2003 
L 1107 2003 
L 1107 422 
z
" transform="scale(0.015625)"/>
       <path id="SourceSansPro-Regular-44" d="M 576 0 
L 576 4198 
L 1626 4198 
Q 2598 4198 3104 3657 
Q 3610 3117 3610 2118 
Q 3610 1114 3107 557 
Q 2605 0 1651 0 
L 576 0 
z
M 1107 435 
L 1587 435 
Q 2323 435 2691 880 
Q 3059 1325 3059 2118 
Q 3059 2912 2691 3337 
Q 2323 3763 1587 3763 
L 1107 3763 
L 1107 435 
z
" transform="scale(0.015625)"/>
      </defs>
      <use xlink:href="#SourceSansPro-Regular-4c"/>
      <use xlink:href="#SourceSansPro-Regular-54" x="48.599991"/>
      <use xlink:href="#SourceSansPro-Regular-47" x="102.199982"/>
      <use xlink:href="#SourceSansPro-Regular-4f" x="163.899979"/>
      <use xlink:href="#SourceSansPro-Regular-56" x="230.299973"/>
      <use xlink:href="#SourceSansPro-Regular-54" x="281.799957"/>
      <use xlink:href="#SourceSansPro-Regular-42" x="335.399948"/>
      <use xlink:href="#SourceSansPro-Regular-44" x="394.199936"/>
     </g>
    </g>
    <g id="line2d_9">
     <path d="M 23.76 45.10875 
L 35.76 45.10875 
L 47.76 45.10875 
" style="fill: none; stroke: #ff7f0e; stroke-width: 1.5; stroke-linecap: square"/>
    </g>
    <g id="text_8">
     <!-- M13058USM156NNBR -->
     <g transform="translate(57.36 49.30875) scale(0.12 -0.12)">
      <defs>
       <path id="SourceSansPro-Regular-4d" d="M 576 0 
L 576 4198 
L 1216 4198 
L 2022 1958 
Q 2099 1741 2172 1520 
Q 2246 1299 2323 1082 
L 2349 1082 
Q 2426 1299 2493 1520 
Q 2560 1741 2637 1958 
L 3430 4198 
L 4077 4198 
L 4077 0 
L 3578 0 
L 3578 2310 
Q 3578 2592 3603 2934 
Q 3629 3277 3648 3552 
L 3622 3552 
L 3290 2598 
L 2496 422 
L 2144 422 
L 1350 2598 
L 1018 3552 
L 992 3552 
Q 1011 3277 1033 2934 
Q 1056 2592 1056 2310 
L 1056 0 
L 576 0 
z
" transform="scale(0.015625)"/>
       <path id="SourceSansPro-Regular-33" d="M 1510 -77 
Q 1024 -77 697 99 
Q 371 275 166 499 
L 435 845 
Q 621 653 870 505 
Q 1120 358 1478 358 
Q 1850 358 2086 563 
Q 2323 768 2323 1107 
Q 2323 1350 2198 1532 
Q 2074 1715 1789 1817 
Q 1504 1920 1018 1920 
L 1018 2323 
Q 1453 2323 1705 2425 
Q 1958 2528 2067 2701 
Q 2176 2874 2176 3085 
Q 2176 3386 1987 3558 
Q 1798 3731 1472 3731 
Q 1216 3731 1001 3616 
Q 787 3501 602 3315 
L 320 3648 
Q 557 3872 845 4016 
Q 1133 4160 1491 4160 
Q 2022 4160 2368 3888 
Q 2714 3616 2714 3123 
Q 2714 2752 2509 2515 
Q 2304 2278 1971 2150 
L 1971 2125 
Q 2342 2042 2598 1776 
Q 2854 1510 2854 1088 
Q 2854 730 2675 467 
Q 2496 205 2192 64 
Q 1888 -77 1510 -77 
z
" transform="scale(0.015625)"/>
       <path id="SourceSansPro-Regular-35" d="M 1498 -77 
Q 1011 -77 691 96 
Q 371 269 160 480 
L 416 826 
Q 602 646 845 502 
Q 1088 358 1446 358 
Q 1824 358 2083 611 
Q 2342 864 2342 1293 
Q 2342 1715 2105 1952 
Q 1869 2189 1472 2189 
Q 1261 2189 1110 2125 
Q 960 2061 774 1939 
L 493 2118 
L 627 4083 
L 2669 4083 
L 2669 3629 
L 1088 3629 
L 979 2419 
Q 1126 2496 1273 2541 
Q 1421 2586 1606 2586 
Q 1958 2586 2243 2448 
Q 2528 2310 2701 2028 
Q 2874 1747 2874 1306 
Q 2874 864 2678 553 
Q 2483 243 2169 83 
Q 1856 -77 1498 -77 
z
" transform="scale(0.015625)"/>
       <path id="SourceSansPro-Regular-55" d="M 2067 -77 
Q 1638 -77 1296 96 
Q 954 269 755 665 
Q 557 1062 557 1734 
L 557 4198 
L 1088 4198 
L 1088 1722 
Q 1088 1216 1219 925 
Q 1350 634 1571 512 
Q 1792 390 2067 390 
Q 2349 390 2573 512 
Q 2797 634 2928 925 
Q 3059 1216 3059 1722 
L 3059 4198 
L 3571 4198 
L 3571 1734 
Q 3571 1062 3372 665 
Q 3174 269 2835 96 
Q 2496 -77 2067 -77 
z
" transform="scale(0.015625)"/>
       <path id="SourceSansPro-Regular-53" d="M 1741 -77 
Q 1299 -77 921 92 
Q 544 262 269 544 
L 589 915 
Q 813 678 1117 534 
Q 1421 390 1747 390 
Q 2163 390 2393 579 
Q 2624 768 2624 1075 
Q 2624 1293 2531 1421 
Q 2438 1549 2281 1638 
Q 2125 1728 1926 1818 
L 1325 2080 
Q 1126 2163 931 2297 
Q 736 2432 605 2643 
Q 474 2854 474 3162 
Q 474 3482 643 3734 
Q 813 3987 1113 4131 
Q 1414 4275 1792 4275 
Q 2170 4275 2490 4131 
Q 2810 3987 3034 3757 
L 2746 3411 
Q 2554 3597 2320 3702 
Q 2086 3808 1792 3808 
Q 1440 3808 1225 3641 
Q 1011 3475 1011 3194 
Q 1011 2995 1116 2864 
Q 1222 2733 1382 2649 
Q 1542 2566 1709 2496 
L 2304 2240 
Q 2547 2138 2742 1994 
Q 2938 1850 3053 1642 
Q 3168 1434 3168 1120 
Q 3168 787 2995 515 
Q 2822 243 2502 83 
Q 2182 -77 1741 -77 
z
" transform="scale(0.015625)"/>
       <path id="SourceSansPro-Regular-4e" d="M 576 0 
L 576 4198 
L 1126 4198 
L 2643 1562 
L 3098 691 
L 3123 691 
Q 3104 1011 3081 1353 
Q 3059 1696 3059 2029 
L 3059 4198 
L 3565 4198 
L 3565 0 
L 3014 0 
L 1491 2643 
L 1037 3507 
L 1011 3507 
Q 1037 3194 1059 2861 
Q 1082 2528 1082 2195 
L 1082 0 
L 576 0 
z
" transform="scale(0.015625)"/>
       <path id="SourceSansPro-Regular-52" d="M 576 0 
L 576 4198 
L 1888 4198 
Q 2317 4198 2649 4086 
Q 2982 3974 3171 3715 
Q 3360 3456 3360 3021 
Q 3360 2534 3104 2236 
Q 2848 1939 2413 1830 
L 3482 0 
L 2880 0 
L 1869 1773 
L 1107 1773 
L 1107 0 
L 576 0 
z
M 1107 2208 
L 1811 2208 
Q 2304 2208 2566 2409 
Q 2829 2611 2829 3021 
Q 2829 3437 2566 3603 
Q 2304 3770 1811 3770 
L 1107 3770 
L 1107 2208 
z
" transform="scale(0.015625)"/>
      </defs>
      <use xlink:href="#SourceSansPro-Regular-4d"/>
      <use xlink:href="#SourceSansPro-Regular-31" x="72.699982"/>
      <use xlink:href="#SourceSansPro-Regular-33" x="122.399979"/>
      <use xlink:href="#SourceSansPro-Regular-30" x="172.099976"/>
      <use xlink:href="#SourceSansPro-Regular-35" x="221.799973"/>
      <use xlink:href="#SourceSansPro-Regular-38" x="271.499969"/>
      <use xlink:href="#SourceSansPro-Regular-55" x="321.199966"/>
      <use xlink:href="#SourceSansPro-Regular-53" x="385.699951"/>
      <use xlink:href="#SourceSansPro-Regular-4d" x="439.099945"/>
      <use xlink:href="#SourceSansPro-Regular-31" x="511.799927"/>
      <use xlink:href="#SourceSansPro-Regular-35" x="561.499924"/>
      <use xlink:href="#SourceSansPro-Regular-36" x="611.199921"/>
      <use xlink:href="#SourceSansPro-Regular-4e" x="660.899918"/>
      <use xlink:href="#SourceSansPro-Regular-4e" x="725.599915"/>
      <use xlink:href="#SourceSansPro-Regular-42" x="790.299911"/>
      <use xlink:href="#SourceSansPro-Regular-52" x="849.099899"/>
     </g>
    </g>
   </g>
  </g>
 </g>
 <defs>
  <clipPath id="p9f63beaa57">
   <rect x="12.96" y="12.96" width="550.08" height="245"/>
  </clipPath>
 </defs>
</svg>
