<?xml version="1.0" encoding="UTF-8" standalone="no"?>
<!-- Created with Inkscape (http://www.inkscape.org/) -->

<svg
   width="1600"
   height="800"
   viewBox="0 0 423.33332 211.66667"
   version="1.1"
   id="svg1"
   xml:space="preserve"
   inkscape:version="1.3.2 (091e20e, 2023-11-25)"
   sodipodi:docname="feature.svg"
   xmlns:inkscape="http://www.inkscape.org/namespaces/inkscape"
   xmlns:sodipodi="http://sodipodi.sourceforge.net/DTD/sodipodi-0.dtd"
   xmlns:xlink="http://www.w3.org/1999/xlink"
   xmlns="http://www.w3.org/2000/svg"
   xmlns:svg="http://www.w3.org/2000/svg"><sodipodi:namedview
     id="namedview1"
     pagecolor="#ffffff"
     bordercolor="#000000"
     borderopacity="0.25"
     inkscape:showpageshadow="2"
     inkscape:pageopacity="0.0"
     inkscape:pagecheckerboard="0"
     inkscape:deskcolor="#d1d1d1"
     inkscape:document-units="mm"
     inkscape:zoom="0.5946522"
     inkscape:cx="742.4508"
     inkscape:cy="441.43451"
     inkscape:window-width="2704"
     inkscape:window-height="1644"
     inkscape:window-x="309"
     inkscape:window-y="246"
     inkscape:window-maximized="0"
     inkscape:current-layer="layer1" /><defs
     id="defs1"><linearGradient
       id="linearGradient48"
       inkscape:collect="always"><stop
         style="stop-color:#915546;stop-opacity:1;"
         offset="0"
         id="stop49" /><stop
         style="stop-color:#852710;stop-opacity:1;"
         offset="1"
         id="stop50" /></linearGradient><style
       type="text/css"
       id="style1">*{stroke-linejoin: round; stroke-linecap: butt}</style><path
       id="m8421fc08a7"
       d="M 0 0  L 0 3.5  "
       style="stroke: #000000; stroke-opacity: 0; stroke-width: 0.8" /><path
       id="ArialMT-32"
       d="M 3222 541  L 3222 0  L 194 0  Q 188 203 259 391  Q 375 700 629 1000  Q 884 1300 1366 1694  Q 2113 2306 2375 2664  Q 2638 3022 2638 3341  Q 2638 3675 2398 3904  Q 2159 4134 1775 4134  Q 1369 4134 1125 3890  Q 881 3647 878 3216  L 300 3275  Q 359 3922 746 4261  Q 1134 4600 1788 4600  Q 2447 4600 2831 4234  Q 3216 3869 3216 3328  Q 3216 3053 3103 2787  Q 2991 2522 2730 2228  Q 2469 1934 1863 1422  Q 1356 997 1212 845  Q 1069 694 975 541  L 3222 541  z "
       transform="scale(0.015625)" /><path
       id="ArialMT-30"
       d="M 266 2259  Q 266 3072 433 3567  Q 600 4063 929 4331  Q 1259 4600 1759 4600  Q 2128 4600 2406 4451  Q 2684 4303 2865 4023  Q 3047 3744 3150 3342  Q 3253 2941 3253 2259  Q 3253 1453 3087 958  Q 2922 463 2592 192  Q 2263 -78 1759 -78  Q 1097 -78 719 397  Q 266 969 266 2259  z M 844 2259  Q 844 1131 1108 757  Q 1372 384 1759 384  Q 2147 384 2411 759  Q 2675 1134 2675 2259  Q 2675 3391 2411 3762  Q 2147 4134 1753 4134  Q 1366 4134 1134 3806  Q 844 3388 844 2259  z "
       transform="scale(0.015625)" /><path
       id="ArialMT-36"
       d="M 3184 3459  L 2625 3416  Q 2550 3747 2413 3897  Q 2184 4138 1850 4138  Q 1581 4138 1378 3988  Q 1113 3794 959 3422  Q 806 3050 800 2363  Q 1003 2672 1297 2822  Q 1591 2972 1913 2972  Q 2475 2972 2870 2558  Q 3266 2144 3266 1488  Q 3266 1056 3080 686  Q 2894 316 2569 119  Q 2244 -78 1831 -78  Q 1128 -78 684 439  Q 241 956 241 2144  Q 241 3472 731 4075  Q 1159 4600 1884 4600  Q 2425 4600 2770 4297  Q 3116 3994 3184 3459  z M 888 1484  Q 888 1194 1011 928  Q 1134 663 1356 523  Q 1578 384 1822 384  Q 2178 384 2434 671  Q 2691 959 2691 1453  Q 2691 1928 2437 2201  Q 2184 2475 1800 2475  Q 1419 2475 1153 2201  Q 888 1928 888 1484  z "
       transform="scale(0.015625)" /><path
       id="ArialMT-2d"
       d="M 203 1375  L 203 1941  L 1931 1941  L 1931 1375  L 203 1375  z "
       transform="scale(0.015625)" /><path
       id="ArialMT-33"
       d="M 269 1209  L 831 1284  Q 928 806 1161 595  Q 1394 384 1728 384  Q 2125 384 2398 659  Q 2672 934 2672 1341  Q 2672 1728 2419 1979  Q 2166 2231 1775 2231  Q 1616 2231 1378 2169  L 1441 2663  Q 1497 2656 1531 2656  Q 1891 2656 2178 2843  Q 2466 3031 2466 3422  Q 2466 3731 2256 3934  Q 2047 4138 1716 4138  Q 1388 4138 1169 3931  Q 950 3725 888 3313  L 325 3413  Q 428 3978 793 4289  Q 1159 4600 1703 4600  Q 2078 4600 2393 4439  Q 2709 4278 2876 4000  Q 3044 3722 3044 3409  Q 3044 3113 2884 2869  Q 2725 2625 2413 2481  Q 2819 2388 3044 2092  Q 3269 1797 3269 1353  Q 3269 753 2831 336  Q 2394 -81 1725 -81  Q 1122 -81 723 278  Q 325 638 269 1209  z "
       transform="scale(0.015625)" /><path
       id="ArialMT-35"
       d="M 266 1200  L 856 1250  Q 922 819 1161 601  Q 1400 384 1738 384  Q 2144 384 2425 690  Q 2706 997 2706 1503  Q 2706 1984 2436 2262  Q 2166 2541 1728 2541  Q 1456 2541 1237 2417  Q 1019 2294 894 2097  L 366 2166  L 809 4519  L 3088 4519  L 3088 3981  L 1259 3981  L 1013 2750  Q 1425 3038 1878 3038  Q 2478 3038 2890 2622  Q 3303 2206 3303 1553  Q 3303 931 2941 478  Q 2500 -78 1738 -78  Q 1113 -78 717 272  Q 322 622 266 1200  z "
       transform="scale(0.015625)" /><path
       id="ArialMT-37"
       d="M 303 3981  L 303 4522  L 3269 4522  L 3269 4084  Q 2831 3619 2401 2847  Q 1972 2075 1738 1259  Q 1569 684 1522 0  L 944 0  Q 953 541 1156 1306  Q 1359 2072 1739 2783  Q 2119 3494 2547 3981  L 303 3981  z "
       transform="scale(0.015625)" /><path
       id="ArialMT-39"
       d="M 350 1059  L 891 1109  Q 959 728 1153 556  Q 1347 384 1650 384  Q 1909 384 2104 503  Q 2300 622 2425 820  Q 2550 1019 2634 1356  Q 2719 1694 2719 2044  Q 2719 2081 2716 2156  Q 2547 1888 2255 1720  Q 1963 1553 1622 1553  Q 1053 1553 659 1965  Q 266 2378 266 3053  Q 266 3750 677 4175  Q 1088 4600 1706 4600  Q 2153 4600 2523 4359  Q 2894 4119 3086 3673  Q 3278 3228 3278 2384  Q 3278 1506 3087 986  Q 2897 466 2520 194  Q 2144 -78 1638 -78  Q 1100 -78 759 220  Q 419 519 350 1059  z M 2653 3081  Q 2653 3566 2395 3850  Q 2138 4134 1775 4134  Q 1400 4134 1122 3828  Q 844 3522 844 3034  Q 844 2597 1108 2323  Q 1372 2050 1759 2050  Q 2150 2050 2401 2323  Q 2653 2597 2653 3081  z "
       transform="scale(0.015625)" /><path
       id="ArialMT-31"
       d="M 2384 0  L 1822 0  L 1822 3584  Q 1619 3391 1289 3197  Q 959 3003 697 2906  L 697 3450  Q 1169 3672 1522 3987  Q 1875 4303 2022 4600  L 2384 4600  L 2384 0  z "
       transform="scale(0.015625)" /><path
       id="mc59ee617ad"
       d="M 0 0  L -3.5 0  "
       style="stroke: #000000; stroke-opacity: 0; stroke-width: 0.8" /><path
       id="ArialMT-2e"
       d="M 581 0  L 581 641  L 1222 641  L 1222 0  L 581 0  z "
       transform="scale(0.015625)" /><path
       id="ArialMT-38"
       d="M 1131 2484  Q 781 2613 612 2850  Q 444 3088 444 3419  Q 444 3919 803 4259  Q 1163 4600 1759 4600  Q 2359 4600 2725 4251  Q 3091 3903 3091 3403  Q 3091 3084 2923 2848  Q 2756 2613 2416 2484  Q 2838 2347 3058 2040  Q 3278 1734 3278 1309  Q 3278 722 2862 322  Q 2447 -78 1769 -78  Q 1091 -78 675 323  Q 259 725 259 1325  Q 259 1772 486 2073  Q 713 2375 1131 2484  z M 1019 3438  Q 1019 3113 1228 2906  Q 1438 2700 1772 2700  Q 2097 2700 2305 2904  Q 2513 3109 2513 3406  Q 2513 3716 2298 3927  Q 2084 4138 1766 4138  Q 1444 4138 1231 3931  Q 1019 3725 1019 3438  z M 838 1322  Q 838 1081 952 856  Q 1066 631 1291 507  Q 1516 384 1775 384  Q 2178 384 2440 643  Q 2703 903 2703 1303  Q 2703 1709 2433 1975  Q 2163 2241 1756 2241  Q 1359 2241 1098 1978  Q 838 1716 838 1322  z "
       transform="scale(0.015625)" /><path
       id="ArialMT-43"
       d="M 3763 1606  L 4369 1453  Q 4178 706 3683 314  Q 3188 -78 2472 -78  Q 1731 -78 1267 223  Q 803 525 561 1097  Q 319 1669 319 2325  Q 319 3041 592 3573  Q 866 4106 1370 4382  Q 1875 4659 2481 4659  Q 3169 4659 3637 4309  Q 4106 3959 4291 3325  L 3694 3184  Q 3534 3684 3231 3912  Q 2928 4141 2469 4141  Q 1941 4141 1586 3887  Q 1231 3634 1087 3207  Q 944 2781 944 2328  Q 944 1744 1114 1308  Q 1284 872 1643 656  Q 2003 441 2422 441  Q 2931 441 3284 734  Q 3638 1028 3763 1606  z "
       transform="scale(0.015625)" /><path
       id="ArialMT-72"
       d="M 416 0  L 416 3319  L 922 3319  L 922 2816  Q 1116 3169 1280 3281  Q 1444 3394 1641 3394  Q 1925 3394 2219 3213  L 2025 2691  Q 1819 2813 1613 2813  Q 1428 2813 1281 2702  Q 1134 2591 1072 2394  Q 978 2094 978 1738  L 978 0  L 416 0  z "
       transform="scale(0.015625)" /><path
       id="ArialMT-75"
       d="M 2597 0  L 2597 488  Q 2209 -75 1544 -75  Q 1250 -75 995 37  Q 741 150 617 320  Q 494 491 444 738  Q 409 903 409 1263  L 409 3319  L 972 3319  L 972 1478  Q 972 1038 1006 884  Q 1059 663 1231 536  Q 1403 409 1656 409  Q 1909 409 2131 539  Q 2353 669 2445 892  Q 2538 1116 2538 1541  L 2538 3319  L 3100 3319  L 3100 0  L 2597 0  z "
       transform="scale(0.015625)" /><path
       id="ArialMT-64"
       d="M 2575 0  L 2575 419  Q 2259 -75 1647 -75  Q 1250 -75 917 144  Q 584 363 401 755  Q 219 1147 219 1656  Q 219 2153 384 2558  Q 550 2963 881 3178  Q 1213 3394 1622 3394  Q 1922 3394 2156 3267  Q 2391 3141 2538 2938  L 2538 4581  L 3097 4581  L 3097 0  L 2575 0  z M 797 1656  Q 797 1019 1065 703  Q 1334 388 1700 388  Q 2069 388 2326 689  Q 2584 991 2584 1609  Q 2584 2291 2321 2609  Q 2059 2928 1675 2928  Q 1300 2928 1048 2622  Q 797 2316 797 1656  z "
       transform="scale(0.015625)" /><path
       id="ArialMT-65"
       d="M 2694 1069  L 3275 997  Q 3138 488 2766 206  Q 2394 -75 1816 -75  Q 1088 -75 661 373  Q 234 822 234 1631  Q 234 2469 665 2931  Q 1097 3394 1784 3394  Q 2450 3394 2872 2941  Q 3294 2488 3294 1666  Q 3294 1616 3291 1516  L 816 1516  Q 847 969 1125 678  Q 1403 388 1819 388  Q 2128 388 2347 550  Q 2566 713 2694 1069  z M 847 1978  L 2700 1978  Q 2663 2397 2488 2606  Q 2219 2931 1791 2931  Q 1403 2931 1139 2672  Q 875 2413 847 1978  z "
       transform="scale(0.015625)" /><path
       id="ArialMT-20"
       transform="scale(0.015625)" /><path
       id="ArialMT-4f"
       d="M 309 2231  Q 309 3372 921 4017  Q 1534 4663 2503 4663  Q 3138 4663 3647 4359  Q 4156 4056 4423 3514  Q 4691 2972 4691 2284  Q 4691 1588 4409 1038  Q 4128 488 3612 205  Q 3097 -78 2500 -78  Q 1853 -78 1343 234  Q 834 547 571 1087  Q 309 1628 309 2231  z M 934 2222  Q 934 1394 1379 917  Q 1825 441 2497 441  Q 3181 441 3623 922  Q 4066 1403 4066 2288  Q 4066 2847 3877 3264  Q 3688 3681 3323 3911  Q 2959 4141 2506 4141  Q 1863 4141 1398 3698  Q 934 3256 934 2222  z "
       transform="scale(0.015625)" /><path
       id="ArialMT-69"
       d="M 425 3934  L 425 4581  L 988 4581  L 988 3934  L 425 3934  z M 425 0  L 425 3319  L 988 3319  L 988 0  L 425 0  z "
       transform="scale(0.015625)" /><path
       id="ArialMT-6c"
       d="M 409 0  L 409 4581  L 972 4581  L 972 0  L 409 0  z "
       transform="scale(0.015625)" /><path
       id="ArialMT-48"
       d="M 513 0  L 513 4581  L 1119 4581  L 1119 2700  L 3500 2700  L 3500 4581  L 4106 4581  L 4106 0  L 3500 0  L 3500 2159  L 1119 2159  L 1119 0  L 513 0  z "
       transform="scale(0.015625)" /><path
       id="ArialMT-61"
       d="M 2588 409  Q 2275 144 1986 34  Q 1697 -75 1366 -75  Q 819 -75 525 192  Q 231 459 231 875  Q 231 1119 342 1320  Q 453 1522 633 1644  Q 813 1766 1038 1828  Q 1203 1872 1538 1913  Q 2219 1994 2541 2106  Q 2544 2222 2544 2253  Q 2544 2597 2384 2738  Q 2169 2928 1744 2928  Q 1347 2928 1158 2789  Q 969 2650 878 2297  L 328 2372  Q 403 2725 575 2942  Q 747 3159 1072 3276  Q 1397 3394 1825 3394  Q 2250 3394 2515 3294  Q 2781 3194 2906 3042  Q 3031 2891 3081 2659  Q 3109 2516 3109 2141  L 3109 1391  Q 3109 606 3145 398  Q 3181 191 3288 0  L 2700 0  Q 2613 175 2588 409  z M 2541 1666  Q 2234 1541 1622 1453  Q 1275 1403 1131 1340  Q 988 1278 909 1158  Q 831 1038 831 891  Q 831 666 1001 516  Q 1172 366 1500 366  Q 1825 366 2078 508  Q 2331 650 2450 897  Q 2541 1088 2541 1459  L 2541 1666  z "
       transform="scale(0.015625)" /><path
       id="ArialMT-74"
       d="M 1650 503  L 1731 6  Q 1494 -44 1306 -44  Q 1000 -44 831 53  Q 663 150 594 308  Q 525 466 525 972  L 525 2881  L 113 2881  L 113 3319  L 525 3319  L 525 4141  L 1084 4478  L 1084 3319  L 1650 3319  L 1650 2881  L 1084 2881  L 1084 941  Q 1084 700 1114 631  Q 1144 563 1211 522  Q 1278 481 1403 481  Q 1497 481 1650 503  z "
       transform="scale(0.015625)" /><path
       id="ArialMT-6e"
       d="M 422 0  L 422 3319  L 928 3319  L 928 2847  Q 1294 3394 1984 3394  Q 2284 3394 2536 3286  Q 2788 3178 2913 3003  Q 3038 2828 3088 2588  Q 3119 2431 3119 2041  L 3119 0  L 2556 0  L 2556 2019  Q 2556 2363 2490 2533  Q 2425 2703 2258 2804  Q 2091 2906 1866 2906  Q 1506 2906 1245 2678  Q 984 2450 984 1813  L 984 0  L 422 0  z "
       transform="scale(0.015625)" /><path
       id="ArialMT-67"
       d="M 319 -275  L 866 -356  Q 900 -609 1056 -725  Q 1266 -881 1628 -881  Q 2019 -881 2231 -725  Q 2444 -569 2519 -288  Q 2563 -116 2559 434  Q 2191 0 1641 0  Q 956 0 581 494  Q 206 988 206 1678  Q 206 2153 378 2554  Q 550 2956 876 3175  Q 1203 3394 1644 3394  Q 2231 3394 2613 2919  L 2613 3319  L 3131 3319  L 3131 450  Q 3131 -325 2973 -648  Q 2816 -972 2473 -1159  Q 2131 -1347 1631 -1347  Q 1038 -1347 672 -1080  Q 306 -813 319 -275  z M 784 1719  Q 784 1066 1043 766  Q 1303 466 1694 466  Q 2081 466 2343 764  Q 2606 1063 2606 1700  Q 2606 2309 2336 2618  Q 2066 2928 1684 2928  Q 1309 2928 1046 2623  Q 784 2319 784 1719  z "
       transform="scale(0.015625)" /><path
       id="ArialMT-47"
       d="M 2638 1797  L 2638 2334  L 4578 2338  L 4578 638  Q 4131 281 3656 101  Q 3181 -78 2681 -78  Q 2006 -78 1454 211  Q 903 500 622 1047  Q 341 1594 341 2269  Q 341 2938 620 3517  Q 900 4097 1425 4378  Q 1950 4659 2634 4659  Q 3131 4659 3532 4498  Q 3934 4338 4162 4050  Q 4391 3763 4509 3300  L 3963 3150  Q 3859 3500 3706 3700  Q 3553 3900 3268 4020  Q 2984 4141 2638 4141  Q 2222 4141 1919 4014  Q 1616 3888 1430 3681  Q 1244 3475 1141 3228  Q 966 2803 966 2306  Q 966 1694 1177 1281  Q 1388 869 1791 669  Q 2194 469 2647 469  Q 3041 469 3416 620  Q 3791 772 3984 944  L 3984 1797  L 2638 1797  z "
       transform="scale(0.015625)" /><path
       id="ArialMT-73"
       d="M 197 991  L 753 1078  Q 800 744 1014 566  Q 1228 388 1613 388  Q 2000 388 2187 545  Q 2375 703 2375 916  Q 2375 1106 2209 1216  Q 2094 1291 1634 1406  Q 1016 1563 777 1677  Q 538 1791 414 1992  Q 291 2194 291 2438  Q 291 2659 392 2848  Q 494 3038 669 3163  Q 800 3259 1026 3326  Q 1253 3394 1513 3394  Q 1903 3394 2198 3281  Q 2494 3169 2634 2976  Q 2775 2784 2828 2463  L 2278 2388  Q 2241 2644 2061 2787  Q 1881 2931 1553 2931  Q 1166 2931 1000 2803  Q 834 2675 834 2503  Q 834 2394 903 2306  Q 972 2216 1119 2156  Q 1203 2125 1616 2013  Q 2213 1853 2448 1751  Q 2684 1650 2818 1456  Q 2953 1263 2953 975  Q 2953 694 2789 445  Q 2625 197 2315 61  Q 2006 -75 1616 -75  Q 969 -75 630 194  Q 291 463 197 991  z "
       transform="scale(0.015625)" /><path
       id="ArialMT-6f"
       d="M 213 1659  Q 213 2581 725 3025  Q 1153 3394 1769 3394  Q 2453 3394 2887 2945  Q 3322 2497 3322 1706  Q 3322 1066 3130 698  Q 2938 331 2570 128  Q 2203 -75 1769 -75  Q 1072 -75 642 372  Q 213 819 213 1659  z M 791 1659  Q 791 1022 1069 705  Q 1347 388 1769 388  Q 2188 388 2466 706  Q 2744 1025 2744 1678  Q 2744 2294 2464 2611  Q 2184 2928 1769 2928  Q 1347 2928 1069 2612  Q 791 2297 791 1659  z "
       transform="scale(0.015625)" /><clipPath
       id="p9959c4a7f5"><rect
         x="38.38"
         y="7.2"
         width="558"
         height="221.76"
         id="rect130" /></clipPath><linearGradient
       inkscape:collect="always"
       xlink:href="#linearGradient48"
       id="linearGradient50"
       x1="0"
       y1="105.83334"
       x2="423.33334"
       y2="105.83334"
       gradientUnits="userSpaceOnUse"
       gradientTransform="matrix(1.6939665,-5.6912866e-8,0,1.7407664,-95.795323,-166.65945)" /><clipPath
       clipPathUnits="userSpaceOnUse"
       id="clipPath50"><rect
         style="fill:none;stroke-width:0.241445"
         id="rect51"
         width="427.38126"
         height="209.77351"
         x="3.5866848e-15"
         y="0"
         transform="matrix(0.92283037,-0.38520659,0.36760031,0.92998388,0,0)" /></clipPath></defs><g
     inkscape:label="Layer 1"
     inkscape:groupmode="layer"
     id="layer1"><rect
       style="fill:url(#linearGradient50);stroke-width:2.03076"
       id="rect37"
       width="717.11249"
       height="368.46219"
       x="-95.795334"
       y="-166.65948"
       transform="matrix(0.92134193,0.38875319,-0.36418435,0.93132688,0,0)"
       clip-path="url(#clipPath50)"
       inkscape:label="rect37" /><g
       id="g2"
       style="stroke:#f5c875;stroke-width:4.13411;stroke-linejoin:round;stroke-dasharray:none;stroke-opacity:1"
       transform="matrix(0.39941759,0,0,0.39941759,84.899513,71.281463)"><path
         d="m 63.743636,198.25719 h 30.358021 v 1.09779 h 29.378733 v 1.33302 h 30.35802 v 1.64671 h 29.37873 v 2.11717 h 30.35802 v 2.27397 h 30.35802 v 2.43084 h 29.37873 v 2.43083 h 30.35802 v 2.03875 h 29.37873 v 1.72511 h 30.35802 v 1.41145 h 30.35802 v 1.09778 h 27.42014 v 0.6273 h 30.35802 V 218.88 h 29.37873 v 0 h 30.35802 v -0.0784 h 29.37873 v 0 h 30.35802 v 0"
         clip-path="url(#p9959c4a7f5)"
         style="fill:none;stroke:#f5c875;stroke-width:4.13411;stroke-linecap:square;stroke-dasharray:none;stroke-opacity:1"
         id="path98"
         transform="translate(-2.816601e-6,-63.148742)" /><path
         d="M 63.743636,36.710853 H 94.101657 V 65.56089 h 29.378733 v 11.493861 h 30.35802 v 7.080714 h 29.37873 v 2.865279 h 30.35802 v 1.383212 h 30.35802 v -0.428171 h 29.37873 v -0.757484 h 30.35802 v 0.658706 h 29.37873 v 2.107717 h 30.35802 v 1.020997 h 30.35802 v 2.239474 h 27.42014 v 4.676583 h 30.35802 v 6.685602 h 29.37873 v 4.18253 h 30.35802 v 2.7994 h 29.37873 v -0.0659 h 30.35802 v -0.75748"
         clip-path="url(#p9959c4a7f5)"
         style="fill:none;stroke:#f5c875;stroke-width:4.13411;stroke-linecap:square;stroke-dasharray:none;stroke-opacity:1"
         id="path99"
         transform="translate(-2.816601e-6)" /><path
         d="M 63.743636,94.970683 H 94.101657 V 19.552374 H 123.48039 V 17.28 h 30.35802 v 2.963979 h 29.37873 v 6.422087 h 30.35802 v 9.419122 h 30.35802 v 13.239364 h 29.37873 v 50.882598 h 30.35802 v 14.02979 h 29.37873 v 9.74836 h 30.35802 v 3.85326 h 30.35802 v -1.77841 h 27.42014 v -5.467 h 30.35802 V 54.429227 h 29.37873 V 53.30953 h 30.35802 v 2.43703 h 29.37873 v 5.005975 h 30.35802 v 7.047813"
         clip-path="url(#p9959c4a7f5)"
         style="fill:none;stroke:#f5c875;stroke-width:4.13411;stroke-linecap:square;stroke-linejoin:round;stroke-dasharray:none;stroke-opacity:1"
         id="path100" /></g></g></svg>
