<svg width="592" height="239" viewBox="0 0 592 239" fill="none" xmlns="http://www.w3.org/2000/svg">
<g clip-path="url(#clip0_505_2)">
<path d="M82.0026 178.5L286 178.5L407 38.9996" stroke="black" stroke-width="3" stroke-linejoin="round" stroke-dasharray="10 10"/>
<path d="M81.5 172C81.5 172 212 173.542 271 146C330 118.457 401 34.9998 401 34.9998" stroke="black" stroke-width="3"/>
<path d="M82.0239 -5.14129e-05L76.2504 9.99995L87.7974 9.99995L82.0239 -5.14129e-05ZM83.0239 178.5L83.0239 8.99995L81.0239 8.99995L81.0239 178.5L83.0239 178.5Z" fill="black"/>
<path d="M515 178L505 172.227L505 183.774L515 178ZM81 179L506 179L506 177L81 177L81 179Z" fill="black"/>
<path d="M284 210.5L284 138" stroke="black" stroke-dasharray="4 4"/>
<path d="M414 116L373 89.9998" stroke="black" stroke-dasharray="4 4"/>
<path d="M373 58.9998L353 48.9998" stroke="black" stroke-dasharray="4 4"/>
<path d="M23.2413 22.144C22.5853 22.144 21.9893 21.988 21.4533 21.676C20.9173 21.364 20.4893 20.908 20.1693 20.308C19.8573 19.7 19.7013 18.964 19.7013 18.1C19.7013 17.244 19.8613 16.512 20.1813 15.904C20.5093 15.288 20.9453 14.82 21.4893 14.5C22.0333 14.172 22.6333 14.008 23.2893 14.008C23.7853 14.008 24.2253 14.108 24.6093 14.308C24.9933 14.508 25.3093 14.74 25.5573 15.004L24.8133 15.904C24.6133 15.696 24.3893 15.532 24.1413 15.412C23.9013 15.284 23.6293 15.22 23.3253 15.22C22.9013 15.22 22.5213 15.336 22.1853 15.568C21.8573 15.792 21.5973 16.116 21.4053 16.54C21.2213 16.964 21.1293 17.472 21.1293 18.064C21.1293 18.96 21.3253 19.664 21.7173 20.176C22.1093 20.68 22.6333 20.932 23.2893 20.932C23.6413 20.932 23.9533 20.86 24.2253 20.716C24.4973 20.564 24.7453 20.368 24.9693 20.128L25.7133 21.004C25.3933 21.372 25.0253 21.656 24.6093 21.856C24.2013 22.048 23.7453 22.144 23.2413 22.144ZM28.3313 22.144C27.8193 22.144 27.3993 21.984 27.0713 21.664C26.7513 21.344 26.5913 20.928 26.5913 20.416C26.5913 19.784 26.8673 19.296 27.4193 18.952C27.9713 18.6 28.8513 18.36 30.0593 18.232C30.0513 17.92 29.9673 17.652 29.8073 17.428C29.6553 17.196 29.3793 17.08 28.9793 17.08C28.6913 17.08 28.4073 17.136 28.1273 17.248C27.8553 17.36 27.5873 17.496 27.3233 17.656L26.8193 16.732C27.1473 16.524 27.5153 16.344 27.9233 16.192C28.3393 16.04 28.7793 15.964 29.2433 15.964C29.9793 15.964 30.5273 16.184 30.8873 16.624C31.2553 17.056 31.4393 17.684 31.4393 18.508V22H30.2993L30.2033 21.352H30.1553C29.8913 21.576 29.6073 21.764 29.3033 21.916C29.0073 22.068 28.6833 22.144 28.3313 22.144ZM28.7753 21.064C29.0153 21.064 29.2313 21.008 29.4233 20.896C29.6233 20.776 29.8353 20.616 30.0593 20.416V19.096C29.2593 19.2 28.7033 19.356 28.3913 19.564C28.0793 19.764 27.9233 20.012 27.9233 20.308C27.9233 20.572 28.0033 20.764 28.1633 20.884C28.3233 21.004 28.5273 21.064 28.7753 21.064ZM34.4348 22.144C33.9468 22.144 33.5988 21.996 33.3908 21.7C33.1908 21.404 33.0908 21 33.0908 20.488V13.528H34.4708V20.56C34.4708 20.728 34.5028 20.848 34.5668 20.92C34.6308 20.984 34.6988 21.016 34.7708 21.016C34.8028 21.016 34.8308 21.016 34.8548 21.016C34.8868 21.008 34.9308 21 34.9868 20.992L35.1668 22.024C35.0868 22.056 34.9828 22.084 34.8548 22.108C34.7348 22.132 34.5948 22.144 34.4348 22.144ZM37.6927 22.144C37.2047 22.144 36.8567 21.996 36.6487 21.7C36.4487 21.404 36.3487 21 36.3487 20.488V13.528H37.7287V20.56C37.7287 20.728 37.7607 20.848 37.8247 20.92C37.8887 20.984 37.9567 21.016 38.0287 21.016C38.0607 21.016 38.0887 21.016 38.1127 21.016C38.1447 21.008 38.1887 21 38.2447 20.992L38.4247 22.024C38.3447 22.056 38.2407 22.084 38.1127 22.108C37.9927 22.132 37.8527 22.144 37.6927 22.144ZM44.4208 22.144C43.9328 22.144 43.4768 22.024 43.0528 21.784C42.6288 21.536 42.2848 21.184 42.0208 20.728C41.7568 20.264 41.6248 19.708 41.6248 19.06C41.6248 18.404 41.7568 17.848 42.0208 17.392C42.2848 16.928 42.6288 16.576 43.0528 16.336C43.4768 16.088 43.9328 15.964 44.4208 15.964C44.9168 15.964 45.3768 16.088 45.8008 16.336C46.2248 16.576 46.5688 16.928 46.8328 17.392C47.0968 17.848 47.2288 18.404 47.2288 19.06C47.2288 19.708 47.0968 20.264 46.8328 20.728C46.5688 21.184 46.2248 21.536 45.8008 21.784C45.3768 22.024 44.9168 22.144 44.4208 22.144ZM44.4208 21.016C44.8528 21.016 45.1928 20.836 45.4408 20.476C45.6888 20.116 45.8128 19.644 45.8128 19.06C45.8128 18.468 45.6888 17.992 45.4408 17.632C45.1928 17.272 44.8528 17.092 44.4208 17.092C43.9888 17.092 43.6488 17.272 43.4008 17.632C43.1608 17.992 43.0408 18.468 43.0408 19.06C43.0408 19.644 43.1608 20.116 43.4008 20.476C43.6488 20.836 43.9888 21.016 44.4208 21.016ZM48.5948 24.328V16.108H49.7348L49.8308 16.732H49.8788C50.1268 16.524 50.4028 16.344 50.7068 16.192C51.0188 16.04 51.3348 15.964 51.6548 15.964C52.3908 15.964 52.9588 16.236 53.3588 16.78C53.7668 17.324 53.9708 18.052 53.9708 18.964C53.9708 19.636 53.8508 20.212 53.6108 20.692C53.3708 21.164 53.0588 21.524 52.6748 21.772C52.2988 22.02 51.8908 22.144 51.4508 22.144C51.1948 22.144 50.9388 22.088 50.6828 21.976C50.4268 21.856 50.1788 21.696 49.9388 21.496L49.9748 22.48V24.328H48.5948ZM51.1628 21.004C51.5548 21.004 51.8828 20.832 52.1468 20.488C52.4108 20.144 52.5428 19.64 52.5428 18.976C52.5428 18.384 52.4428 17.924 52.2428 17.596C52.0428 17.268 51.7188 17.104 51.2708 17.104C50.8548 17.104 50.4228 17.324 49.9748 17.764V20.512C50.1908 20.688 50.3988 20.816 50.5988 20.896C50.7988 20.968 50.9868 21.004 51.1628 21.004ZM57.1747 22.144C56.4947 22.144 56.0107 21.948 55.7227 21.556C55.4427 21.156 55.3027 20.64 55.3027 20.008V17.2H54.4627V16.168L55.3747 16.108L55.5427 14.5H56.6947V16.108H58.1947V17.2H56.6947V20.008C56.6947 20.696 56.9707 21.04 57.5227 21.04C57.6267 21.04 57.7347 21.028 57.8467 21.004C57.9587 20.972 58.0547 20.94 58.1347 20.908L58.3747 21.928C58.2147 21.984 58.0307 22.032 57.8227 22.072C57.6227 22.12 57.4067 22.144 57.1747 22.144ZM59.4346 22V16.108H60.8146V22H59.4346ZM60.1306 15.076C59.8826 15.076 59.6826 15.004 59.5306 14.86C59.3786 14.716 59.3026 14.524 59.3026 14.284C59.3026 14.052 59.3786 13.864 59.5306 13.72C59.6826 13.576 59.8826 13.504 60.1306 13.504C60.3786 13.504 60.5786 13.576 60.7306 13.72C60.8826 13.864 60.9586 14.052 60.9586 14.284C60.9586 14.524 60.8826 14.716 60.7306 14.86C60.5786 15.004 60.3786 15.076 60.1306 15.076ZM64.9872 22.144C64.4992 22.144 64.0432 22.024 63.6192 21.784C63.1952 21.536 62.8512 21.184 62.5872 20.728C62.3232 20.264 62.1912 19.708 62.1912 19.06C62.1912 18.404 62.3232 17.848 62.5872 17.392C62.8512 16.928 63.1952 16.576 63.6192 16.336C64.0432 16.088 64.4992 15.964 64.9872 15.964C65.4832 15.964 65.9432 16.088 66.3672 16.336C66.7912 16.576 67.1352 16.928 67.3992 17.392C67.6632 17.848 67.7952 18.404 67.7952 19.06C67.7952 19.708 67.6632 20.264 67.3992 20.728C67.1352 21.184 66.7912 21.536 66.3672 21.784C65.9432 22.024 65.4832 22.144 64.9872 22.144ZM64.9872 21.016C65.4192 21.016 65.7592 20.836 66.0072 20.476C66.2552 20.116 66.3792 19.644 66.3792 19.06C66.3792 18.468 66.2552 17.992 66.0072 17.632C65.7592 17.272 65.4192 17.092 64.9872 17.092C64.5552 17.092 64.2152 17.272 63.9672 17.632C63.7272 17.992 63.6072 18.468 63.6072 19.06C63.6072 19.644 63.7272 20.116 63.9672 20.476C64.2152 20.836 64.5552 21.016 64.9872 21.016ZM69.1612 22V16.108H70.3012L70.3972 16.9H70.4452C70.7092 16.644 70.9972 16.424 71.3092 16.24C71.6212 16.056 71.9772 15.964 72.3772 15.964C73.0092 15.964 73.4692 16.168 73.7572 16.576C74.0452 16.984 74.1892 17.56 74.1892 18.304V22H72.8092V18.484C72.8092 17.996 72.7372 17.652 72.5932 17.452C72.4492 17.252 72.2132 17.152 71.8852 17.152C71.6292 17.152 71.4012 17.216 71.2012 17.344C71.0092 17.464 70.7892 17.644 70.5412 17.884V22H69.1612ZM49.2937 37L47.2417 31.108H48.6457L49.5817 34.168C49.6617 34.456 49.7417 34.748 49.8217 35.044C49.9097 35.34 49.9937 35.64 50.0737 35.944H50.1217C50.2097 35.64 50.2937 35.34 50.3737 35.044C50.4617 34.748 50.5457 34.456 50.6257 34.168L51.5617 31.108H52.8937L50.8897 37H49.2937ZM55.1087 37.144C54.5967 37.144 54.1767 36.984 53.8487 36.664C53.5287 36.344 53.3687 35.928 53.3687 35.416C53.3687 34.784 53.6447 34.296 54.1967 33.952C54.7487 33.6 55.6287 33.36 56.8367 33.232C56.8287 32.92 56.7447 32.652 56.5847 32.428C56.4327 32.196 56.1567 32.08 55.7567 32.08C55.4687 32.08 55.1847 32.136 54.9047 32.248C54.6327 32.36 54.3647 32.496 54.1007 32.656L53.5967 31.732C53.9247 31.524 54.2927 31.344 54.7007 31.192C55.1167 31.04 55.5567 30.964 56.0207 30.964C56.7567 30.964 57.3047 31.184 57.6647 31.624C58.0327 32.056 58.2167 32.684 58.2167 33.508V37H57.0767L56.9807 36.352H56.9327C56.6687 36.576 56.3847 36.764 56.0807 36.916C55.7847 37.068 55.4607 37.144 55.1087 37.144ZM55.5527 36.064C55.7927 36.064 56.0087 36.008 56.2007 35.896C56.4007 35.776 56.6127 35.616 56.8367 35.416V34.096C56.0367 34.2 55.4807 34.356 55.1687 34.564C54.8567 34.764 54.7007 35.012 54.7007 35.308C54.7007 35.572 54.7807 35.764 54.9407 35.884C55.1007 36.004 55.3047 36.064 55.5527 36.064ZM61.2122 37.144C60.7242 37.144 60.3762 36.996 60.1682 36.7C59.9682 36.404 59.8682 36 59.8682 35.488V28.528H61.2482V35.56C61.2482 35.728 61.2802 35.848 61.3442 35.92C61.4082 35.984 61.4762 36.016 61.5482 36.016C61.5802 36.016 61.6082 36.016 61.6322 36.016C61.6642 36.008 61.7082 36 61.7642 35.992L61.9442 37.024C61.8642 37.056 61.7602 37.084 61.6322 37.108C61.5122 37.132 61.3722 37.144 61.2122 37.144ZM64.878 37.144C64.246 37.144 63.786 36.94 63.498 36.532C63.21 36.124 63.066 35.548 63.066 34.804V31.108H64.446V34.624C64.446 35.112 64.518 35.456 64.662 35.656C64.806 35.856 65.038 35.956 65.358 35.956C65.614 35.956 65.838 35.892 66.03 35.764C66.23 35.636 66.442 35.428 66.666 35.14V31.108H68.046V37H66.918L66.81 36.136H66.774C66.518 36.44 66.238 36.684 65.934 36.868C65.63 37.052 65.278 37.144 64.878 37.144ZM72.314 37.144C71.77 37.144 71.278 37.024 70.838 36.784C70.398 36.536 70.05 36.184 69.794 35.728C69.538 35.264 69.41 34.708 69.41 34.06C69.41 33.42 69.538 32.868 69.794 32.404C70.058 31.94 70.398 31.584 70.814 31.336C71.23 31.088 71.666 30.964 72.122 30.964C72.658 30.964 73.106 31.084 73.466 31.324C73.826 31.556 74.098 31.884 74.282 32.308C74.466 32.724 74.558 33.208 74.558 33.76C74.558 34.048 74.538 34.272 74.498 34.432H70.754C70.818 34.952 71.006 35.356 71.318 35.644C71.63 35.932 72.022 36.076 72.494 36.076C72.75 36.076 72.986 36.04 73.202 35.968C73.426 35.888 73.646 35.78 73.862 35.644L74.33 36.508C74.05 36.692 73.738 36.844 73.394 36.964C73.05 37.084 72.69 37.144 72.314 37.144ZM70.742 33.496H73.358C73.358 33.04 73.258 32.684 73.058 32.428C72.858 32.164 72.558 32.032 72.158 32.032C71.814 32.032 71.506 32.16 71.234 32.416C70.97 32.664 70.806 33.024 70.742 33.496Z" fill="black"/>
<path d="M251.154 227V219.128H255.69V219.968H252.15V222.44H255.138V223.292H252.15V226.148H255.81V227H251.154ZM256.195 227L258.103 223.952L256.339 221.168H257.407L258.187 222.452C258.275 222.604 258.367 222.764 258.463 222.932C258.559 223.1 258.659 223.264 258.763 223.424H258.811C258.899 223.264 258.987 223.1 259.075 222.932C259.163 222.764 259.251 222.604 259.339 222.452L260.047 221.168H261.079L259.315 224.06L261.211 227H260.143L259.291 225.644C259.187 225.468 259.083 225.292 258.979 225.116C258.875 224.94 258.767 224.768 258.655 224.6H258.607C258.503 224.768 258.403 224.94 258.307 225.116C258.211 225.284 258.115 225.46 258.019 225.644L257.227 227H256.195ZM264.532 227.144C264.012 227.144 263.54 227.024 263.116 226.784C262.692 226.536 262.356 226.184 262.108 225.728C261.86 225.272 261.736 224.728 261.736 224.096C261.736 223.456 261.86 222.908 262.108 222.452C262.364 221.996 262.692 221.644 263.092 221.396C263.492 221.148 263.912 221.024 264.352 221.024C265.096 221.024 265.668 221.272 266.068 221.768C266.476 222.264 266.68 222.928 266.68 223.76C266.68 223.864 266.676 223.968 266.668 224.072C266.668 224.168 266.66 224.252 266.644 224.324H262.708C262.748 224.94 262.94 225.432 263.284 225.8C263.636 226.168 264.092 226.352 264.652 226.352C264.932 226.352 265.188 226.312 265.42 226.232C265.66 226.144 265.888 226.032 266.104 225.896L266.452 226.544C266.204 226.704 265.92 226.844 265.6 226.964C265.288 227.084 264.932 227.144 264.532 227.144ZM262.696 223.616H265.816C265.816 223.024 265.688 222.576 265.432 222.272C265.184 221.96 264.832 221.804 264.376 221.804C263.968 221.804 263.6 221.964 263.272 222.284C262.952 222.596 262.76 223.04 262.696 223.616ZM268.121 227V221.168H268.937L269.021 222.224H269.057C269.257 221.856 269.501 221.564 269.789 221.348C270.077 221.132 270.385 221.024 270.713 221.024C270.945 221.024 271.153 221.064 271.337 221.144L271.145 222.008C271.049 221.976 270.961 221.952 270.881 221.936C270.801 221.92 270.701 221.912 270.581 221.912C270.333 221.912 270.073 222.012 269.801 222.212C269.537 222.412 269.305 222.76 269.105 223.256V227H268.121ZM274.468 227.144C273.956 227.144 273.492 227.024 273.076 226.784C272.66 226.544 272.332 226.196 272.092 225.74C271.852 225.284 271.732 224.736 271.732 224.096C271.732 223.44 271.86 222.884 272.116 222.428C272.38 221.972 272.724 221.624 273.148 221.384C273.58 221.144 274.044 221.024 274.54 221.024C274.924 221.024 275.252 221.092 275.524 221.228C275.804 221.364 276.044 221.524 276.244 221.708L275.74 222.356C275.572 222.204 275.392 222.08 275.2 221.984C275.016 221.888 274.808 221.84 274.576 221.84C274.224 221.84 273.908 221.936 273.628 222.128C273.356 222.312 273.14 222.576 272.98 222.92C272.828 223.256 272.752 223.648 272.752 224.096C272.752 224.76 272.916 225.3 273.244 225.716C273.58 226.124 274.016 226.328 274.552 226.328C274.824 226.328 275.076 226.272 275.308 226.16C275.54 226.04 275.744 225.9 275.92 225.74L276.352 226.4C276.088 226.632 275.796 226.816 275.476 226.952C275.156 227.08 274.82 227.144 274.468 227.144ZM277.636 227V221.168H278.62V227H277.636ZM278.14 219.968C277.948 219.968 277.788 219.912 277.66 219.8C277.54 219.68 277.48 219.52 277.48 219.32C277.48 219.128 277.54 218.972 277.66 218.852C277.788 218.732 277.948 218.672 278.14 218.672C278.332 218.672 278.488 218.732 278.608 218.852C278.736 218.972 278.8 219.128 278.8 219.32C278.8 219.52 278.736 219.68 278.608 219.8C278.488 219.912 278.332 219.968 278.14 219.968ZM282.113 227.144C281.697 227.144 281.301 227.068 280.925 226.916C280.549 226.756 280.221 226.564 279.941 226.34L280.433 225.68C280.689 225.88 280.953 226.048 281.225 226.184C281.497 226.312 281.805 226.376 282.149 226.376C282.533 226.376 282.821 226.288 283.013 226.112C283.205 225.928 283.301 225.712 283.301 225.464C283.301 225.264 283.233 225.096 283.097 224.96C282.969 224.824 282.801 224.712 282.593 224.624C282.393 224.528 282.185 224.44 281.969 224.36C281.697 224.256 281.429 224.14 281.165 224.012C280.901 223.876 280.685 223.704 280.517 223.496C280.349 223.28 280.265 223.008 280.265 222.68C280.265 222.208 280.441 221.816 280.793 221.504C281.153 221.184 281.649 221.024 282.281 221.024C282.641 221.024 282.977 221.088 283.289 221.216C283.601 221.344 283.869 221.5 284.093 221.684L283.613 222.308C283.413 222.156 283.205 222.032 282.989 221.936C282.773 221.84 282.537 221.792 282.281 221.792C281.913 221.792 281.641 221.876 281.465 222.044C281.297 222.212 281.213 222.408 281.213 222.632C281.213 222.816 281.273 222.968 281.393 223.088C281.513 223.2 281.669 223.3 281.861 223.388C282.053 223.468 282.257 223.552 282.473 223.64C282.753 223.744 283.029 223.864 283.301 224C283.573 224.128 283.797 224.304 283.973 224.528C284.157 224.744 284.249 225.036 284.249 225.404C284.249 225.716 284.165 226.004 283.997 226.268C283.837 226.532 283.597 226.744 283.277 226.904C282.965 227.064 282.577 227.144 282.113 227.144ZM287.981 227.144C287.461 227.144 286.989 227.024 286.565 226.784C286.141 226.536 285.805 226.184 285.557 225.728C285.309 225.272 285.185 224.728 285.185 224.096C285.185 223.456 285.309 222.908 285.557 222.452C285.813 221.996 286.141 221.644 286.541 221.396C286.941 221.148 287.361 221.024 287.801 221.024C288.545 221.024 289.117 221.272 289.517 221.768C289.925 222.264 290.129 222.928 290.129 223.76C290.129 223.864 290.125 223.968 290.117 224.072C290.117 224.168 290.109 224.252 290.093 224.324H286.157C286.197 224.94 286.389 225.432 286.733 225.8C287.085 226.168 287.541 226.352 288.101 226.352C288.381 226.352 288.637 226.312 288.869 226.232C289.109 226.144 289.337 226.032 289.553 225.896L289.901 226.544C289.653 226.704 289.369 226.844 289.049 226.964C288.737 227.084 288.381 227.144 287.981 227.144ZM286.145 223.616H289.265C289.265 223.024 289.137 222.576 288.881 222.272C288.633 221.96 288.281 221.804 287.825 221.804C287.417 221.804 287.049 221.964 286.721 222.284C286.401 222.596 286.209 223.04 286.145 223.616ZM293.972 229.46V221.168H294.788L294.872 221.84H294.908C295.172 221.616 295.46 221.424 295.772 221.264C296.092 221.104 296.424 221.024 296.768 221.024C297.52 221.024 298.092 221.296 298.484 221.84C298.876 222.376 299.072 223.096 299.072 224C299.072 224.656 298.952 225.22 298.712 225.692C298.48 226.164 298.172 226.524 297.788 226.772C297.412 227.02 297 227.144 296.552 227.144C296.28 227.144 296.008 227.084 295.736 226.964C295.472 226.844 295.204 226.68 294.932 226.472L294.956 227.492V229.46H293.972ZM296.384 226.316C296.864 226.316 297.26 226.112 297.572 225.704C297.892 225.288 298.052 224.72 298.052 224C298.052 223.36 297.932 222.844 297.692 222.452C297.46 222.052 297.068 221.852 296.516 221.852C296.268 221.852 296.016 221.92 295.76 222.056C295.512 222.192 295.244 222.388 294.956 222.644V225.704C295.22 225.928 295.476 226.088 295.724 226.184C295.972 226.272 296.192 226.316 296.384 226.316ZM300.629 227V221.168H301.445L301.529 222.224H301.565C301.765 221.856 302.009 221.564 302.297 221.348C302.585 221.132 302.893 221.024 303.221 221.024C303.453 221.024 303.661 221.064 303.845 221.144L303.653 222.008C303.557 221.976 303.469 221.952 303.389 221.936C303.309 221.92 303.209 221.912 303.089 221.912C302.841 221.912 302.581 222.012 302.309 222.212C302.045 222.412 301.813 222.76 301.613 223.256V227H300.629ZM304.789 227V221.168H305.773V227H304.789ZM305.293 219.968C305.101 219.968 304.941 219.912 304.813 219.8C304.693 219.68 304.633 219.52 304.633 219.32C304.633 219.128 304.693 218.972 304.813 218.852C304.941 218.732 305.101 218.672 305.293 218.672C305.485 218.672 305.641 218.732 305.761 218.852C305.889 218.972 305.953 219.128 305.953 219.32C305.953 219.52 305.889 219.68 305.761 219.8C305.641 219.912 305.485 219.968 305.293 219.968ZM310.046 227.144C309.534 227.144 309.07 227.024 308.654 226.784C308.238 226.544 307.91 226.196 307.67 225.74C307.43 225.284 307.31 224.736 307.31 224.096C307.31 223.44 307.438 222.884 307.694 222.428C307.958 221.972 308.302 221.624 308.726 221.384C309.158 221.144 309.622 221.024 310.118 221.024C310.502 221.024 310.83 221.092 311.102 221.228C311.382 221.364 311.622 221.524 311.822 221.708L311.318 222.356C311.15 222.204 310.97 222.08 310.778 221.984C310.594 221.888 310.386 221.84 310.154 221.84C309.802 221.84 309.486 221.936 309.206 222.128C308.934 222.312 308.718 222.576 308.558 222.92C308.406 223.256 308.33 223.648 308.33 224.096C308.33 224.76 308.494 225.3 308.822 225.716C309.158 226.124 309.594 226.328 310.13 226.328C310.402 226.328 310.654 226.272 310.886 226.16C311.118 226.04 311.322 225.9 311.498 225.74L311.93 226.4C311.666 226.632 311.374 226.816 311.054 226.952C310.734 227.08 310.398 227.144 310.046 227.144ZM315.321 227.144C314.801 227.144 314.329 227.024 313.905 226.784C313.481 226.536 313.145 226.184 312.897 225.728C312.649 225.272 312.525 224.728 312.525 224.096C312.525 223.456 312.649 222.908 312.897 222.452C313.153 221.996 313.481 221.644 313.881 221.396C314.281 221.148 314.701 221.024 315.141 221.024C315.885 221.024 316.457 221.272 316.857 221.768C317.265 222.264 317.469 222.928 317.469 223.76C317.469 223.864 317.465 223.968 317.457 224.072C317.457 224.168 317.449 224.252 317.433 224.324H313.497C313.537 224.94 313.729 225.432 314.073 225.8C314.425 226.168 314.881 226.352 315.441 226.352C315.721 226.352 315.977 226.312 316.209 226.232C316.449 226.144 316.677 226.032 316.893 225.896L317.241 226.544C316.993 226.704 316.709 226.844 316.389 226.964C316.077 227.084 315.721 227.144 315.321 227.144ZM313.485 223.616H316.605C316.605 223.024 316.477 222.576 316.221 222.272C315.973 221.96 315.621 221.804 315.165 221.804C314.757 221.804 314.389 221.964 314.061 222.284C313.741 222.596 313.549 223.04 313.485 223.616Z" fill="black"/>
<path d="M421.52 125L419 117.128L420.068 117.128L421.328 121.376C421.472 121.84 421.596 122.276 421.7 122.684C421.812 123.084 421.944 123.516 422.096 123.98L422.144 123.98C422.288 123.516 422.416 123.084 422.528 122.684C422.64 122.276 422.764 121.84 422.9 121.376L424.16 117.128L425.18 117.128L422.684 125L421.52 125ZM427.234 125.144C426.746 125.144 426.338 125 426.01 124.712C425.69 124.416 425.53 124.008 425.53 123.488C425.53 122.848 425.814 122.36 426.382 122.024C426.958 121.68 427.866 121.44 429.106 121.304C429.106 121.056 429.07 120.82 428.998 120.596C428.934 120.372 428.814 120.192 428.638 120.056C428.47 119.912 428.226 119.84 427.906 119.84C427.57 119.84 427.254 119.904 426.958 120.032C426.662 120.16 426.398 120.304 426.166 120.464L425.782 119.78C426.054 119.604 426.386 119.436 426.778 119.276C427.178 119.108 427.61 119.024 428.074 119.024C428.786 119.024 429.302 119.244 429.622 119.684C429.942 120.116 430.102 120.696 430.102 121.424L430.102 125L429.286 125L429.202 124.304L429.166 124.304C428.894 124.528 428.594 124.724 428.266 124.892C427.946 125.06 427.602 125.144 427.234 125.144ZM427.522 124.352C427.802 124.352 428.066 124.284 428.314 124.148C428.562 124.012 428.826 123.82 429.106 123.572L429.106 121.952C428.138 122.072 427.458 122.252 427.066 122.492C426.682 122.732 426.49 123.04 426.49 123.416C426.49 123.744 426.59 123.984 426.79 124.136C426.99 124.28 427.234 124.352 427.522 124.352ZM432.981 125.144C432.613 125.144 432.345 125.032 432.177 124.808C432.017 124.576 431.937 124.248 431.937 123.824L431.937 116.456L432.921 116.456L432.921 123.896C432.921 124.048 432.949 124.16 433.005 124.232C433.061 124.296 433.125 124.328 433.197 124.328C433.229 124.328 433.257 124.328 433.281 124.328C433.313 124.32 433.357 124.312 433.413 124.304L433.545 125.048C433.481 125.08 433.405 125.104 433.317 125.12C433.229 125.136 433.117 125.144 432.981 125.144ZM436.7 125.144C436.084 125.144 435.632 124.952 435.344 124.568C435.056 124.176 434.912 123.608 434.912 122.864L434.912 119.168L435.908 119.168L435.908 122.732C435.908 123.276 435.992 123.672 436.16 123.92C436.336 124.168 436.616 124.292 437 124.292C437.304 124.292 437.572 124.216 437.804 124.064C438.044 123.904 438.3 123.652 438.572 123.308L438.572 119.168L439.556 119.168L439.556 125L438.74 125L438.656 124.088L438.62 124.088C438.348 124.408 438.06 124.664 437.756 124.856C437.452 125.048 437.1 125.144 436.7 125.144ZM443.887 125.144C443.367 125.144 442.895 125.024 442.471 124.784C442.047 124.536 441.711 124.184 441.463 123.728C441.215 123.272 441.091 122.728 441.091 122.096C441.091 121.456 441.215 120.908 441.463 120.452C441.719 119.996 442.047 119.644 442.447 119.396C442.847 119.148 443.267 119.024 443.707 119.024C444.451 119.024 445.023 119.272 445.423 119.768C445.831 120.264 446.035 120.928 446.035 121.76C446.035 121.864 446.031 121.968 446.023 122.072C446.023 122.168 446.015 122.252 445.999 122.324L442.063 122.324C442.103 122.94 442.295 123.432 442.639 123.8C442.991 124.168 443.447 124.352 444.007 124.352C444.287 124.352 444.543 124.312 444.775 124.232C445.015 124.144 445.243 124.032 445.459 123.896L445.807 124.544C445.559 124.704 445.275 124.844 444.955 124.964C444.643 125.084 444.287 125.144 443.887 125.144ZM442.051 121.616L445.171 121.616C445.171 121.024 445.043 120.576 444.787 120.272C444.539 119.96 444.187 119.804 443.731 119.804C443.323 119.804 442.955 119.964 442.627 120.284C442.307 120.596 442.115 121.04 442.051 121.616ZM451.223 125.144C450.735 125.144 450.327 125 449.999 124.712C449.679 124.416 449.519 124.008 449.519 123.488C449.519 122.848 449.803 122.36 450.371 122.024C450.947 121.68 451.855 121.44 453.095 121.304C453.095 121.056 453.059 120.82 452.987 120.596C452.923 120.372 452.803 120.192 452.627 120.056C452.459 119.912 452.215 119.84 451.895 119.84C451.559 119.84 451.243 119.904 450.947 120.032C450.651 120.16 450.387 120.304 450.155 120.464L449.771 119.78C450.043 119.604 450.375 119.436 450.767 119.276C451.167 119.108 451.599 119.024 452.063 119.024C452.775 119.024 453.291 119.244 453.611 119.684C453.931 120.116 454.091 120.696 454.091 121.424L454.091 125L453.275 125L453.191 124.304L453.155 124.304C452.883 124.528 452.583 124.724 452.255 124.892C451.935 125.06 451.591 125.144 451.223 125.144ZM451.511 124.352C451.791 124.352 452.055 124.284 452.303 124.148C452.551 124.012 452.815 123.82 453.095 123.572L453.095 121.952C452.127 122.072 451.447 122.252 451.055 122.492C450.671 122.732 450.479 123.04 450.479 123.416C450.479 123.744 450.579 123.984 450.779 124.136C450.979 124.28 451.223 124.352 451.511 124.352ZM457.597 125.144C456.973 125.144 456.537 124.964 456.289 124.604C456.049 124.244 455.929 123.776 455.929 123.2L455.929 119.972L455.065 119.972L455.065 119.228L455.977 119.168L456.097 117.536L456.925 117.536L456.925 119.168L458.497 119.168L458.497 119.972L456.925 119.972L456.925 123.212C456.925 123.572 456.989 123.852 457.117 124.052C457.253 124.244 457.489 124.34 457.825 124.34C457.929 124.34 458.041 124.324 458.161 124.292C458.281 124.252 458.389 124.216 458.485 124.184L458.677 124.928C458.517 124.984 458.341 125.032 458.149 125.072C457.965 125.12 457.781 125.144 457.597 125.144ZM464.582 125.144C464.062 125.144 463.59 125.024 463.166 124.784C462.742 124.536 462.406 124.184 462.158 123.728C461.91 123.272 461.786 122.728 461.786 122.096C461.786 121.456 461.91 120.908 462.158 120.452C462.414 119.996 462.742 119.644 463.142 119.396C463.542 119.148 463.962 119.024 464.402 119.024C465.146 119.024 465.718 119.272 466.118 119.768C466.526 120.264 466.73 120.928 466.73 121.76C466.73 121.864 466.726 121.968 466.718 122.072C466.718 122.168 466.71 122.252 466.694 122.324L462.758 122.324C462.798 122.94 462.99 123.432 463.334 123.8C463.686 124.168 464.142 124.352 464.702 124.352C464.982 124.352 465.238 124.312 465.47 124.232C465.71 124.144 465.938 124.032 466.154 123.896L466.502 124.544C466.254 124.704 465.97 124.844 465.65 124.964C465.338 125.084 464.982 125.144 464.582 125.144ZM462.746 121.616L465.866 121.616C465.866 121.024 465.738 120.576 465.482 120.272C465.234 119.96 464.882 119.804 464.426 119.804C464.018 119.804 463.65 119.964 463.322 120.284C463.002 120.596 462.81 121.04 462.746 121.616ZM467.273 125L469.181 121.952L467.417 119.168L468.485 119.168L469.265 120.452C469.353 120.604 469.445 120.764 469.541 120.932C469.637 121.1 469.737 121.264 469.841 121.424L469.889 121.424C469.977 121.264 470.065 121.1 470.153 120.932C470.241 120.764 470.329 120.604 470.417 120.452L471.125 119.168L472.157 119.168L470.393 122.06L472.289 125L471.221 125L470.369 123.644C470.265 123.468 470.161 123.292 470.057 123.116C469.953 122.94 469.845 122.768 469.733 122.6L469.685 122.6C469.581 122.768 469.481 122.94 469.385 123.116C469.289 123.284 469.193 123.46 469.097 123.644L468.305 125L467.273 125ZM473.445 127.46L473.445 119.168L474.261 119.168L474.345 119.84L474.381 119.84C474.645 119.616 474.933 119.424 475.245 119.264C475.565 119.104 475.897 119.024 476.241 119.024C476.993 119.024 477.565 119.296 477.957 119.84C478.349 120.376 478.545 121.096 478.545 122C478.545 122.656 478.425 123.22 478.185 123.692C477.953 124.164 477.645 124.524 477.261 124.772C476.885 125.02 476.473 125.144 476.025 125.144C475.753 125.144 475.481 125.084 475.209 124.964C474.945 124.844 474.677 124.68 474.405 124.472L474.429 125.492L474.429 127.46L473.445 127.46ZM475.857 124.316C476.337 124.316 476.733 124.112 477.045 123.704C477.365 123.288 477.525 122.72 477.525 122C477.525 121.36 477.405 120.844 477.165 120.452C476.933 120.052 476.541 119.852 475.989 119.852C475.741 119.852 475.489 119.92 475.233 120.056C474.985 120.192 474.717 120.388 474.429 120.644L474.429 123.704C474.693 123.928 474.949 124.088 475.197 124.184C475.445 124.272 475.665 124.316 475.857 124.316ZM480.101 125L480.101 119.168L481.085 119.168L481.085 125L480.101 125ZM480.605 117.968C480.413 117.968 480.253 117.912 480.125 117.8C480.005 117.68 479.945 117.52 479.945 117.32C479.945 117.128 480.005 116.972 480.125 116.852C480.253 116.732 480.413 116.672 480.605 116.672C480.797 116.672 480.953 116.732 481.073 116.852C481.201 116.972 481.265 117.128 481.265 117.32C481.265 117.52 481.201 117.68 481.073 117.8C480.953 117.912 480.797 117.968 480.605 117.968ZM483.054 125L483.054 119.168L483.87 119.168L483.954 120.224L483.99 120.224C484.19 119.856 484.434 119.564 484.722 119.348C485.01 119.132 485.318 119.024 485.646 119.024C485.878 119.024 486.086 119.064 486.27 119.144L486.078 120.008C485.982 119.976 485.894 119.952 485.814 119.936C485.734 119.92 485.634 119.912 485.514 119.912C485.266 119.912 485.006 120.012 484.734 120.212C484.47 120.412 484.238 120.76 484.038 121.256L484.038 125L483.054 125ZM488.266 125.144C487.778 125.144 487.37 125 487.042 124.712C486.722 124.416 486.562 124.008 486.562 123.488C486.562 122.848 486.846 122.36 487.414 122.024C487.99 121.68 488.898 121.44 490.138 121.304C490.138 121.056 490.102 120.82 490.03 120.596C489.966 120.372 489.846 120.192 489.67 120.056C489.502 119.912 489.258 119.84 488.938 119.84C488.602 119.84 488.286 119.904 487.99 120.032C487.694 120.16 487.43 120.304 487.198 120.464L486.814 119.78C487.086 119.604 487.418 119.436 487.81 119.276C488.21 119.108 488.642 119.024 489.106 119.024C489.818 119.024 490.334 119.244 490.654 119.684C490.974 120.116 491.134 120.696 491.134 121.424L491.134 125L490.318 125L490.234 124.304L490.198 124.304C489.926 124.528 489.626 124.724 489.298 124.892C488.978 125.06 488.634 125.144 488.266 125.144ZM488.554 124.352C488.834 124.352 489.098 124.284 489.346 124.148C489.594 124.012 489.858 123.82 490.138 123.572L490.138 121.952C489.17 122.072 488.49 122.252 488.098 122.492C487.714 122.732 487.522 123.04 487.522 123.416C487.522 123.744 487.622 123.984 487.822 124.136C488.022 124.28 488.266 124.352 488.554 124.352ZM494.64 125.144C494.016 125.144 493.58 124.964 493.332 124.604C493.092 124.244 492.972 123.776 492.972 123.2L492.972 119.972L492.108 119.972L492.108 119.228L493.02 119.168L493.14 117.536L493.968 117.536L493.968 119.168L495.54 119.168L495.54 119.972L493.968 119.972L493.968 123.212C493.968 123.572 494.032 123.852 494.16 124.052C494.296 124.244 494.532 124.34 494.868 124.34C494.972 124.34 495.084 124.324 495.204 124.292C495.324 124.252 495.432 124.216 495.528 124.184L495.72 124.928C495.56 124.984 495.384 125.032 495.192 125.072C495.008 125.12 494.824 125.144 494.64 125.144ZM496.859 125L496.859 119.168L497.843 119.168L497.843 125L496.859 125ZM497.363 117.968C497.171 117.968 497.011 117.912 496.883 117.8C496.763 117.68 496.703 117.52 496.703 117.32C496.703 117.128 496.763 116.972 496.883 116.852C497.011 116.732 497.171 116.672 497.363 116.672C497.555 116.672 497.711 116.732 497.831 116.852C497.959 116.972 498.023 117.128 498.023 117.32C498.023 117.52 497.959 117.68 497.831 117.8C497.711 117.912 497.555 117.968 497.363 117.968ZM502.08 125.144C501.608 125.144 501.164 125.024 500.748 124.784C500.34 124.544 500.008 124.196 499.752 123.74C499.504 123.284 499.38 122.736 499.38 122.096C499.38 121.44 499.504 120.884 499.752 120.428C500.008 119.972 500.34 119.624 500.748 119.384C501.164 119.144 501.608 119.024 502.08 119.024C502.56 119.024 503.004 119.144 503.412 119.384C503.82 119.624 504.148 119.972 504.396 120.428C504.652 120.884 504.78 121.44 504.78 122.096C504.78 122.736 504.652 123.284 504.396 123.74C504.148 124.196 503.82 124.544 503.412 124.784C503.004 125.024 502.56 125.144 502.08 125.144ZM502.08 124.328C502.584 124.328 502.988 124.124 503.292 123.716C503.604 123.3 503.76 122.76 503.76 122.096C503.76 121.424 503.604 120.88 503.292 120.464C502.988 120.048 502.584 119.84 502.08 119.84C501.584 119.84 501.18 120.048 500.868 120.464C500.556 120.88 500.4 121.424 500.4 122.096C500.4 122.76 500.556 123.3 500.868 123.716C501.18 124.124 501.584 124.328 502.08 124.328ZM506.316 125L506.316 119.168L507.132 119.168L507.216 120.008L507.252 120.008C507.532 119.728 507.828 119.496 508.14 119.312C508.452 119.12 508.808 119.024 509.208 119.024C509.824 119.024 510.272 119.22 510.552 119.612C510.84 119.996 510.984 120.56 510.984 121.304L510.984 125L510 125L510 121.436C510 120.892 509.912 120.496 509.736 120.248C509.56 120 509.28 119.876 508.896 119.876C508.6 119.876 508.332 119.952 508.092 120.104C507.86 120.256 507.596 120.48 507.3 120.776L507.3 125L506.316 125Z" fill="black"/>
<path d="M189.02 36.9998L189.02 29.1278L191.36 29.1278C191.896 29.1278 192.364 29.1918 192.764 29.3198C193.172 29.4478 193.488 29.6518 193.712 29.9318C193.944 30.2118 194.06 30.5838 194.06 31.0478C194.06 31.4398 193.96 31.7958 193.76 32.1158C193.568 32.4278 193.284 32.6438 192.908 32.7638L192.908 32.8118C193.38 32.8998 193.764 33.0998 194.06 33.4118C194.364 33.7238 194.516 34.1518 194.516 34.6958C194.516 35.2078 194.388 35.6358 194.132 35.9798C193.884 36.3238 193.536 36.5798 193.088 36.7478C192.64 36.9158 192.12 36.9998 191.528 36.9998L189.02 36.9998ZM190.016 32.4758L191.18 32.4758C191.852 32.4758 192.336 32.3598 192.632 32.1278C192.928 31.8958 193.076 31.5798 193.076 31.1798C193.076 30.7238 192.92 30.3998 192.608 30.2078C192.304 30.0158 191.844 29.9198 191.228 29.9198L190.016 29.9198L190.016 32.4758ZM190.016 36.2078L191.384 36.2078C192.064 36.2078 192.592 36.0838 192.968 35.8358C193.344 35.5798 193.532 35.1878 193.532 34.6598C193.532 34.1718 193.344 33.8158 192.968 33.5918C192.6 33.3598 192.072 33.2438 191.384 33.2438L190.016 33.2438L190.016 36.2078ZM197.022 37.1438C196.654 37.1438 196.386 37.0318 196.218 36.8078C196.058 36.5758 195.978 36.2478 195.978 35.8238L195.978 28.4558L196.962 28.4558L196.962 35.8958C196.962 36.0478 196.99 36.1598 197.046 36.2318C197.102 36.2958 197.166 36.3278 197.238 36.3278C197.27 36.3278 197.298 36.3278 197.322 36.3278C197.354 36.3198 197.398 36.3118 197.454 36.3038L197.586 37.0478C197.522 37.0798 197.446 37.1038 197.358 37.1198C197.27 37.1358 197.158 37.1438 197.022 37.1438ZM200.381 37.1438C199.893 37.1438 199.485 36.9998 199.157 36.7118C198.837 36.4158 198.677 36.0078 198.677 35.4878C198.677 34.8478 198.961 34.3598 199.529 34.0238C200.105 33.6798 201.013 33.4398 202.253 33.3038C202.253 33.0558 202.217 32.8198 202.145 32.5958C202.081 32.3718 201.961 32.1918 201.785 32.0558C201.617 31.9118 201.373 31.8398 201.053 31.8398C200.717 31.8398 200.401 31.9038 200.105 32.0318C199.809 32.1598 199.545 32.3038 199.313 32.4638L198.929 31.7798C199.201 31.6038 199.533 31.4358 199.925 31.2758C200.325 31.1078 200.757 31.0238 201.221 31.0238C201.933 31.0238 202.449 31.2438 202.769 31.6838C203.089 32.1157 203.249 32.6957 203.249 33.4238L203.249 36.9998L202.433 36.9998L202.349 36.3038L202.313 36.3038C202.041 36.5278 201.741 36.7238 201.413 36.8918C201.093 37.0598 200.749 37.1438 200.381 37.1438ZM200.669 36.3518C200.949 36.3518 201.213 36.2838 201.461 36.1478C201.709 36.0118 201.973 35.8198 202.253 35.5718L202.253 33.9518C201.285 34.0718 200.605 34.2518 200.213 34.4918C199.829 34.7318 199.637 35.0398 199.637 35.4158C199.637 35.7438 199.737 35.9838 199.937 36.1358C200.137 36.2798 200.381 36.3518 200.669 36.3518ZM207.388 37.1437C206.876 37.1437 206.412 37.0237 205.996 36.7837C205.58 36.5437 205.252 36.1957 205.012 35.7397C204.772 35.2837 204.652 34.7357 204.652 34.0957C204.652 33.4397 204.78 32.8837 205.036 32.4277C205.3 31.9717 205.644 31.6237 206.068 31.3837C206.5 31.1437 206.964 31.0237 207.46 31.0237C207.844 31.0237 208.172 31.0917 208.444 31.2277C208.724 31.3637 208.964 31.5237 209.164 31.7077L208.66 32.3557C208.492 32.2037 208.312 32.0797 208.12 31.9837C207.936 31.8877 207.728 31.8397 207.496 31.8397C207.144 31.8397 206.828 31.9357 206.548 32.1277C206.276 32.3117 206.06 32.5757 205.9 32.9197C205.748 33.2557 205.672 33.6477 205.672 34.0957C205.672 34.7597 205.836 35.2997 206.164 35.7157C206.5 36.1237 206.936 36.3277 207.472 36.3277C207.744 36.3277 207.996 36.2717 208.228 36.1597C208.46 36.0397 208.664 35.8997 208.84 35.7397L209.272 36.3997C209.008 36.6317 208.716 36.8157 208.396 36.9517C208.076 37.0797 207.74 37.1437 207.388 37.1437ZM210.557 36.9997L210.557 28.4557L211.529 28.4557L211.529 34.2397L211.565 34.2397L214.049 31.1677L215.141 31.1677L213.185 33.5077L215.405 36.9997L214.325 36.9997L212.621 34.1917L211.529 35.4637L211.529 36.9997L210.557 36.9997ZM215.479 34.3717L215.479 33.6157L218.239 33.6157L218.239 34.3717L215.479 34.3717ZM221.778 37.1437C221.226 37.1437 220.714 37.0397 220.242 36.8317C219.77 36.6157 219.362 36.3317 219.018 35.9797L219.618 35.2837C219.898 35.5797 220.226 35.8197 220.602 36.0037C220.986 36.1797 221.382 36.2677 221.79 36.2677C222.31 36.2677 222.714 36.1517 223.002 35.9197C223.29 35.6797 223.434 35.3677 223.434 34.9837C223.434 34.7117 223.374 34.4957 223.254 34.3357C223.142 34.1757 222.986 34.0397 222.786 33.9277C222.594 33.8157 222.374 33.7037 222.126 33.5917L220.998 33.0997C220.75 32.9957 220.502 32.8597 220.254 32.6917C220.014 32.5237 219.81 32.3077 219.642 32.0437C219.482 31.7797 219.402 31.4557 219.402 31.0717C219.402 30.6717 219.506 30.3157 219.714 30.0037C219.93 29.6837 220.226 29.4357 220.602 29.2597C220.978 29.0757 221.402 28.9837 221.874 28.9837C222.346 28.9837 222.782 29.0757 223.182 29.2597C223.582 29.4357 223.922 29.6677 224.202 29.9557L223.662 30.6037C223.422 30.3717 223.154 30.1917 222.858 30.0637C222.57 29.9277 222.242 29.8597 221.874 29.8597C221.434 29.8597 221.078 29.9637 220.806 30.1717C220.542 30.3797 220.41 30.6597 220.41 31.0117C220.41 31.2597 220.474 31.4677 220.602 31.6357C220.738 31.7957 220.906 31.9277 221.106 32.0317C221.306 32.1357 221.51 32.2317 221.718 32.3197L222.834 32.7997C223.138 32.9277 223.41 33.0837 223.65 33.2677C223.898 33.4437 224.094 33.6637 224.238 33.9277C224.382 34.1837 224.454 34.5077 224.454 34.8997C224.454 35.3157 224.346 35.6957 224.13 36.0397C223.914 36.3757 223.606 36.6437 223.206 36.8437C222.806 37.0437 222.33 37.1437 221.778 37.1437ZM228.212 37.1437C227.7 37.1437 227.236 37.0237 226.82 36.7837C226.404 36.5437 226.076 36.1957 225.836 35.7397C225.596 35.2837 225.476 34.7357 225.476 34.0957C225.476 33.4397 225.604 32.8837 225.86 32.4277C226.124 31.9717 226.468 31.6237 226.892 31.3837C227.324 31.1437 227.788 31.0237 228.284 31.0237C228.668 31.0237 228.996 31.0917 229.268 31.2277C229.548 31.3637 229.788 31.5237 229.988 31.7077L229.484 32.3557C229.316 32.2037 229.136 32.0797 228.944 31.9837C228.76 31.8877 228.552 31.8397 228.32 31.8397C227.968 31.8397 227.652 31.9357 227.372 32.1277C227.1 32.3117 226.884 32.5757 226.724 32.9197C226.572 33.2557 226.496 33.6477 226.496 34.0957C226.496 34.7597 226.66 35.2997 226.988 35.7157C227.324 36.1237 227.76 36.3277 228.296 36.3277C228.568 36.3277 228.82 36.2717 229.052 36.1597C229.284 36.0397 229.488 35.8997 229.664 35.7397L230.096 36.3997C229.832 36.6317 229.54 36.8157 229.22 36.9517C228.9 37.0797 228.564 37.1437 228.212 37.1437ZM231.381 36.9997L231.381 28.4557L232.365 28.4557L232.365 30.7837L232.329 31.9837C232.609 31.7197 232.901 31.4957 233.205 31.3117C233.517 31.1197 233.873 31.0237 234.273 31.0237C234.889 31.0237 235.337 31.2197 235.617 31.6117C235.905 31.9957 236.049 32.5597 236.049 33.3037L236.049 36.9997L235.065 36.9997L235.065 33.4357C235.065 32.8917 234.977 32.4957 234.801 32.2477C234.625 31.9997 234.345 31.8757 233.961 31.8757C233.665 31.8757 233.397 31.9517 233.157 32.1037C232.925 32.2557 232.661 32.4797 232.365 32.7757L232.365 36.9997L231.381 36.9997ZM240.176 37.1437C239.704 37.1437 239.26 37.0237 238.844 36.7837C238.436 36.5437 238.104 36.1957 237.848 35.7397C237.6 35.2837 237.476 34.7357 237.476 34.0957C237.476 33.4397 237.6 32.8837 237.848 32.4277C238.104 31.9717 238.436 31.6237 238.844 31.3837C239.26 31.1437 239.704 31.0237 240.176 31.0237C240.656 31.0237 241.1 31.1437 241.508 31.3837C241.916 31.6237 242.244 31.9717 242.492 32.4277C242.748 32.8837 242.876 33.4397 242.876 34.0957C242.876 34.7357 242.748 35.2837 242.492 35.7397C242.244 36.1957 241.916 36.5437 241.508 36.7837C241.1 37.0237 240.656 37.1437 240.176 37.1437ZM240.176 36.3277C240.68 36.3277 241.084 36.1237 241.388 35.7157C241.7 35.2997 241.856 34.7597 241.856 34.0957C241.856 33.4237 241.7 32.8797 241.388 32.4637C241.084 32.0477 240.68 31.8397 240.176 31.8397C239.68 31.8397 239.276 32.0477 238.964 32.4637C238.652 32.8797 238.496 33.4237 238.496 34.0957C238.496 34.7597 238.652 35.2997 238.964 35.7157C239.276 36.1237 239.68 36.3277 240.176 36.3277ZM245.456 37.1437C245.088 37.1437 244.82 37.0317 244.652 36.8077C244.492 36.5757 244.412 36.2477 244.412 35.8237L244.412 28.4557L245.396 28.4557L245.396 35.8957C245.396 36.0477 245.424 36.1597 245.48 36.2317C245.536 36.2957 245.6 36.3277 245.672 36.3277C245.704 36.3277 245.732 36.3277 245.756 36.3277C245.788 36.3197 245.832 36.3117 245.888 36.3037L246.02 37.0477C245.956 37.0797 245.88 37.1037 245.792 37.1197C245.704 37.1357 245.592 37.1437 245.456 37.1437ZM249.835 37.1437C249.315 37.1437 248.843 37.0237 248.419 36.7837C247.995 36.5357 247.659 36.1837 247.411 35.7277C247.163 35.2717 247.039 34.7277 247.039 34.0957C247.039 33.4557 247.163 32.9077 247.411 32.4517C247.667 31.9957 247.995 31.6437 248.395 31.3957C248.795 31.1477 249.215 31.0237 249.655 31.0237C250.399 31.0237 250.971 31.2717 251.371 31.7677C251.779 32.2637 251.983 32.9277 251.983 33.7597C251.983 33.8637 251.979 33.9677 251.971 34.0717C251.971 34.1677 251.963 34.2517 251.947 34.3237L248.011 34.3237C248.051 34.9397 248.243 35.4317 248.587 35.7997C248.939 36.1677 249.395 36.3517 249.955 36.3517C250.235 36.3517 250.491 36.3117 250.723 36.2317C250.963 36.1437 251.191 36.0317 251.407 35.8957L251.755 36.5437C251.507 36.7037 251.223 36.8437 250.903 36.9637C250.591 37.0837 250.235 37.1437 249.835 37.1437ZM247.999 33.6157L251.119 33.6157C251.119 33.0237 250.991 32.5757 250.735 32.2717C250.487 31.9597 250.135 31.8037 249.679 31.8037C249.271 31.8037 248.903 31.9637 248.575 32.2837C248.255 32.5957 248.063 33.0397 247.999 33.6157ZM254.948 37.1437C254.532 37.1437 254.136 37.0677 253.76 36.9157C253.384 36.7557 253.056 36.5637 252.776 36.3397L253.268 35.6797C253.524 35.8797 253.788 36.0477 254.06 36.1837C254.332 36.3117 254.64 36.3757 254.984 36.3757C255.368 36.3757 255.656 36.2877 255.848 36.1117C256.04 35.9277 256.136 35.7117 256.136 35.4637C256.136 35.2637 256.068 35.0957 255.932 34.9597C255.804 34.8237 255.636 34.7117 255.428 34.6237C255.228 34.5277 255.02 34.4397 254.804 34.3597C254.532 34.2557 254.264 34.1397 254 34.0117C253.736 33.8757 253.52 33.7037 253.352 33.4957C253.184 33.2797 253.1 33.0077 253.1 32.6797C253.1 32.2077 253.276 31.8157 253.628 31.5037C253.988 31.1837 254.484 31.0237 255.116 31.0237C255.476 31.0237 255.812 31.0877 256.124 31.2157C256.436 31.3437 256.704 31.4997 256.928 31.6837L256.448 32.3077C256.248 32.1557 256.04 32.0317 255.824 31.9357C255.608 31.8397 255.372 31.7917 255.116 31.7917C254.748 31.7917 254.476 31.8757 254.3 32.0437C254.132 32.2117 254.048 32.4077 254.048 32.6317C254.048 32.8157 254.108 32.9677 254.228 33.0877C254.348 33.1997 254.504 33.2997 254.696 33.3877C254.888 33.4677 255.092 33.5517 255.308 33.6397C255.588 33.7437 255.864 33.8637 256.136 33.9997C256.408 34.1277 256.632 34.3037 256.808 34.5277C256.992 34.7437 257.084 35.0357 257.084 35.4037C257.084 35.7157 257 36.0037 256.832 36.2677C256.672 36.5317 256.432 36.7437 256.112 36.9037C255.8 37.0637 255.412 37.1437 254.948 37.1437ZM262.689 37.1437C262.065 37.1437 261.629 36.9637 261.381 36.6037C261.141 36.2437 261.021 35.7757 261.021 35.1997L261.021 31.9717L260.157 31.9717L260.157 31.2277L261.069 31.1677L261.189 29.5357L262.017 29.5357L262.017 31.1677L263.589 31.1677L263.589 31.9717L262.017 31.9717L262.017 35.2117C262.017 35.5717 262.081 35.8517 262.209 36.0517C262.345 36.2437 262.581 36.3397 262.917 36.3397C263.021 36.3397 263.133 36.3237 263.253 36.2917C263.373 36.2517 263.481 36.2157 263.577 36.1837L263.769 36.9277C263.609 36.9837 263.433 37.0317 263.241 37.0717C263.057 37.1197 262.873 37.1437 262.689 37.1437ZM264.908 36.9997L264.908 28.4557L265.892 28.4557L265.892 30.7837L265.856 31.9837C266.136 31.7197 266.428 31.4957 266.732 31.3117C267.044 31.1197 267.4 31.0237 267.8 31.0237C268.416 31.0237 268.864 31.2197 269.144 31.6117C269.432 31.9957 269.576 32.5597 269.576 33.3037L269.576 36.9997L268.592 36.9997L268.592 33.4357C268.592 32.8917 268.504 32.4957 268.328 32.2477C268.152 31.9997 267.872 31.8757 267.488 31.8757C267.192 31.8757 266.924 31.9517 266.684 32.1037C266.452 32.2557 266.188 32.4797 265.892 32.7757L265.892 36.9997L264.908 36.9997ZM273.799 37.1437C273.279 37.1437 272.807 37.0237 272.383 36.7837C271.959 36.5357 271.623 36.1837 271.375 35.7277C271.127 35.2717 271.003 34.7277 271.003 34.0957C271.003 33.4557 271.127 32.9077 271.375 32.4517C271.631 31.9957 271.959 31.6437 272.359 31.3957C272.759 31.1477 273.179 31.0237 273.619 31.0237C274.363 31.0237 274.935 31.2717 275.335 31.7677C275.743 32.2637 275.947 32.9277 275.947 33.7597C275.947 33.8637 275.943 33.9677 275.935 34.0717C275.935 34.1677 275.927 34.2517 275.911 34.3237L271.975 34.3237C272.015 34.9397 272.207 35.4317 272.551 35.7997C272.903 36.1677 273.359 36.3517 273.919 36.3517C274.199 36.3517 274.455 36.3117 274.687 36.2317C274.927 36.1437 275.155 36.0317 275.371 35.8957L275.719 36.5437C275.471 36.7037 275.187 36.8437 274.867 36.9637C274.555 37.0837 274.199 37.1437 273.799 37.1437ZM271.963 33.6157L275.083 33.6157C275.083 33.0237 274.955 32.5757 274.699 32.2717C274.451 31.9597 274.099 31.8037 273.643 31.8037C273.235 31.8037 272.867 31.9637 272.539 32.2837C272.219 32.5957 272.027 33.0397 271.963 33.6157ZM279.657 37.1437C279.185 37.1437 278.741 37.0237 278.325 36.7837C277.917 36.5437 277.585 36.1957 277.329 35.7397C277.081 35.2837 276.957 34.7357 276.957 34.0957C276.957 33.4397 277.081 32.8837 277.329 32.4277C277.585 31.9717 277.917 31.6237 278.325 31.3837C278.741 31.1437 279.185 31.0237 279.657 31.0237C280.137 31.0237 280.581 31.1437 280.989 31.3837C281.397 31.6237 281.725 31.9717 281.973 32.4277C282.229 32.8837 282.357 33.4397 282.357 34.0957C282.357 34.7357 282.229 35.2837 281.973 35.7397C281.725 36.1957 281.397 36.5437 280.989 36.7837C280.581 37.0237 280.137 37.1437 279.657 37.1437ZM279.657 36.3277C280.161 36.3277 280.565 36.1237 280.869 35.7157C281.181 35.2997 281.337 34.7597 281.337 34.0957C281.337 33.4237 281.181 32.8797 280.869 32.4637C280.565 32.0477 280.161 31.8397 279.657 31.8397C279.161 31.8397 278.757 32.0477 278.445 32.4637C278.133 32.8797 277.977 33.4237 277.977 34.0957C277.977 34.7597 278.133 35.2997 278.445 35.7157C278.757 36.1237 279.161 36.3277 279.657 36.3277ZM283.892 36.9997L283.892 31.1677L284.708 31.1677L284.792 32.2237L284.828 32.2237C285.028 31.8557 285.272 31.5637 285.56 31.3477C285.848 31.1317 286.156 31.0237 286.484 31.0237C286.716 31.0237 286.924 31.0637 287.108 31.1437L286.916 32.0077C286.82 31.9757 286.732 31.9517 286.652 31.9357C286.572 31.9197 286.472 31.9117 286.352 31.9117C286.104 31.9117 285.844 32.0117 285.572 32.2117C285.308 32.4117 285.076 32.7597 284.876 33.2557L284.876 36.9997L283.892 36.9997ZM290.299 37.1437C289.779 37.1437 289.307 37.0237 288.883 36.7837C288.459 36.5357 288.123 36.1837 287.875 35.7277C287.627 35.2717 287.503 34.7277 287.503 34.0957C287.503 33.4557 287.627 32.9077 287.875 32.4517C288.131 31.9957 288.459 31.6437 288.859 31.3957C289.259 31.1477 289.679 31.0237 290.119 31.0237C290.863 31.0237 291.435 31.2717 291.835 31.7677C292.243 32.2637 292.447 32.9277 292.447 33.7597C292.447 33.8637 292.443 33.9677 292.435 34.0717C292.435 34.1677 292.427 34.2517 292.411 34.3237L288.475 34.3237C288.515 34.9397 288.707 35.4317 289.051 35.7997C289.403 36.1677 289.859 36.3517 290.419 36.3517C290.699 36.3517 290.955 36.3117 291.187 36.2317C291.427 36.1437 291.655 36.0317 291.871 35.8957L292.219 36.5437C291.971 36.7037 291.687 36.8437 291.367 36.9637C291.055 37.0837 290.699 37.1437 290.299 37.1437ZM288.463 33.6157L291.583 33.6157C291.583 33.0237 291.455 32.5757 291.199 32.2717C290.951 31.9597 290.599 31.8037 290.143 31.8037C289.735 31.8037 289.367 31.9637 289.039 32.2837C288.719 32.5957 288.527 33.0397 288.463 33.6157ZM295.607 37.1437C294.983 37.1437 294.547 36.9637 294.299 36.6037C294.059 36.2437 293.939 35.7757 293.939 35.1997L293.939 31.9717L293.075 31.9717L293.075 31.2277L293.987 31.1677L294.107 29.5357L294.935 29.5357L294.935 31.1677L296.507 31.1677L296.507 31.9717L294.935 31.9717L294.935 35.2117C294.935 35.5717 294.999 35.8517 295.127 36.0517C295.263 36.2437 295.499 36.3397 295.835 36.3397C295.939 36.3397 296.051 36.3237 296.171 36.2917C296.291 36.2517 296.399 36.2157 296.495 36.1837L296.687 36.9277C296.527 36.9837 296.351 37.0317 296.159 37.0717C295.975 37.1197 295.791 37.1437 295.607 37.1437ZM297.826 36.9997L297.826 31.1677L298.81 31.1677L298.81 36.9997L297.826 36.9997ZM298.33 29.9677C298.138 29.9677 297.978 29.9117 297.85 29.7997C297.73 29.6797 297.67 29.5197 297.67 29.3197C297.67 29.1277 297.73 28.9717 297.85 28.8517C297.978 28.7317 298.138 28.6717 298.33 28.6717C298.522 28.6717 298.678 28.7317 298.798 28.8517C298.926 28.9717 298.99 29.1277 298.99 29.3197C298.99 29.5197 298.926 29.6797 298.798 29.7997C298.678 29.9117 298.522 29.9677 298.33 29.9677ZM303.083 37.1437C302.571 37.1437 302.107 37.0237 301.691 36.7837C301.275 36.5437 300.947 36.1957 300.707 35.7397C300.467 35.2837 300.347 34.7357 300.347 34.0957C300.347 33.4397 300.475 32.8837 300.731 32.4277C300.995 31.9717 301.339 31.6237 301.763 31.3837C302.195 31.1437 302.659 31.0237 303.155 31.0237C303.539 31.0237 303.867 31.0917 304.139 31.2277C304.419 31.3637 304.659 31.5237 304.859 31.7077L304.355 32.3557C304.187 32.2037 304.007 32.0797 303.815 31.9837C303.631 31.8877 303.423 31.8397 303.191 31.8397C302.839 31.8397 302.523 31.9357 302.243 32.1277C301.971 32.3117 301.755 32.5757 301.595 32.9197C301.443 33.2557 301.367 33.6477 301.367 34.0957C301.367 34.7597 301.531 35.2997 301.859 35.7157C302.195 36.1237 302.631 36.3277 303.167 36.3277C303.439 36.3277 303.691 36.2717 303.923 36.1597C304.155 36.0397 304.359 35.8997 304.535 35.7397L304.967 36.3997C304.703 36.6317 304.411 36.8157 304.091 36.9517C303.771 37.0797 303.435 37.1437 303.083 37.1437ZM307.479 37.1437C306.991 37.1437 306.583 36.9997 306.255 36.7117C305.935 36.4157 305.775 36.0077 305.775 35.4877C305.775 34.8477 306.059 34.3597 306.627 34.0237C307.203 33.6797 308.111 33.4397 309.351 33.3037C309.351 33.0557 309.315 32.8197 309.243 32.5957C309.179 32.3717 309.059 32.1917 308.883 32.0557C308.715 31.9117 308.471 31.8397 308.151 31.8397C307.815 31.8397 307.499 31.9037 307.203 32.0317C306.907 32.1597 306.643 32.3037 306.411 32.4637L306.027 31.7797C306.299 31.6037 306.631 31.4357 307.023 31.2757C307.423 31.1077 307.855 31.0237 308.319 31.0237C309.031 31.0237 309.547 31.2437 309.867 31.6837C310.187 32.1157 310.347 32.6957 310.347 33.4237L310.347 36.9997L309.531 36.9997L309.447 36.3037L309.411 36.3037C309.139 36.5277 308.839 36.7237 308.511 36.8917C308.191 37.0597 307.847 37.1437 307.479 37.1437ZM307.767 36.3517C308.047 36.3517 308.311 36.2837 308.559 36.1477C308.807 36.0117 309.071 35.8197 309.351 35.5717L309.351 33.9517C308.383 34.0717 307.703 34.2517 307.311 34.4917C306.927 34.7317 306.735 35.0397 306.735 35.4157C306.735 35.7437 306.835 35.9837 307.035 36.1357C307.235 36.2797 307.479 36.3517 307.767 36.3517ZM313.226 37.1437C312.858 37.1437 312.59 37.0317 312.422 36.8077C312.262 36.5757 312.182 36.2477 312.182 35.8237L312.182 28.4557L313.166 28.4557L313.166 35.8957C313.166 36.0477 313.194 36.1597 313.25 36.2317C313.306 36.2957 313.37 36.3277 313.442 36.3277C313.474 36.3277 313.502 36.3277 313.526 36.3277C313.558 36.3197 313.602 36.3117 313.658 36.3037L313.79 37.0477C313.726 37.0797 313.65 37.1037 313.562 37.1197C313.474 37.1357 313.362 37.1437 313.226 37.1437ZM318.902 36.9997L316.802 31.1677L317.822 31.1677L318.926 34.4797C319.014 34.7677 319.102 35.0557 319.19 35.3437C319.286 35.6317 319.378 35.9157 319.466 36.1957L319.514 36.1957C319.602 35.9157 319.69 35.6317 319.778 35.3437C319.874 35.0557 319.962 34.7677 320.042 34.4797L321.146 31.1677L322.118 31.1677L320.054 36.9997L318.902 36.9997ZM324.354 37.1437C323.866 37.1437 323.458 36.9997 323.13 36.7117C322.81 36.4157 322.65 36.0077 322.65 35.4877C322.65 34.8477 322.934 34.3597 323.502 34.0237C324.078 33.6797 324.986 33.4397 326.226 33.3037C326.226 33.0557 326.19 32.8197 326.118 32.5957C326.054 32.3717 325.934 32.1917 325.758 32.0557C325.59 31.9117 325.346 31.8397 325.026 31.8397C324.69 31.8397 324.374 31.9037 324.078 32.0317C323.782 32.1597 323.518 32.3037 323.286 32.4637L322.902 31.7797C323.174 31.6037 323.506 31.4357 323.898 31.2757C324.298 31.1077 324.73 31.0237 325.194 31.0237C325.906 31.0237 326.422 31.2437 326.742 31.6837C327.062 32.1157 327.222 32.6957 327.222 33.4237L327.222 36.9997L326.406 36.9997L326.322 36.3037L326.286 36.3037C326.014 36.5277 325.714 36.7237 325.386 36.8917C325.066 37.0597 324.722 37.1437 324.354 37.1437ZM324.642 36.3517C324.922 36.3517 325.186 36.2837 325.434 36.1477C325.682 36.0117 325.946 35.8197 326.226 35.5717L326.226 33.9517C325.258 34.0717 324.578 34.2517 324.186 34.4917C323.802 34.7317 323.61 35.0397 323.61 35.4157C323.61 35.7437 323.71 35.9837 323.91 36.1357C324.11 36.2797 324.354 36.3517 324.642 36.3517ZM330.101 37.1437C329.733 37.1437 329.465 37.0317 329.297 36.8077C329.137 36.5757 329.057 36.2477 329.057 35.8237L329.057 28.4557L330.041 28.4557L330.041 35.8957C330.041 36.0477 330.069 36.1597 330.125 36.2317C330.181 36.2957 330.245 36.3277 330.317 36.3277C330.349 36.3277 330.377 36.3277 330.401 36.3277C330.433 36.3197 330.477 36.3117 330.533 36.3037L330.665 37.0477C330.601 37.0797 330.525 37.1037 330.437 37.1197C330.349 37.1357 330.237 37.1437 330.101 37.1437ZM333.819 37.1437C333.203 37.1437 332.751 36.9517 332.463 36.5677C332.175 36.1757 332.031 35.6077 332.031 34.8637L332.031 31.1677L333.027 31.1677L333.027 34.7317C333.027 35.2757 333.111 35.6717 333.279 35.9197C333.455 36.1677 333.735 36.2917 334.119 36.2917C334.423 36.2917 334.691 36.2157 334.923 36.0637C335.163 35.9037 335.419 35.6517 335.691 35.3077L335.691 31.1677L336.675 31.1677L336.675 36.9997L335.859 36.9997L335.775 36.0877L335.739 36.0877C335.467 36.4077 335.179 36.6637 334.875 36.8557C334.571 37.0477 334.219 37.1437 333.819 37.1437ZM341.006 37.1437C340.486 37.1437 340.014 37.0237 339.59 36.7837C339.166 36.5357 338.83 36.1837 338.582 35.7277C338.334 35.2717 338.21 34.7277 338.21 34.0957C338.21 33.4557 338.334 32.9077 338.582 32.4517C338.838 31.9957 339.166 31.6437 339.566 31.3957C339.966 31.1477 340.386 31.0237 340.826 31.0237C341.57 31.0237 342.142 31.2717 342.542 31.7677C342.95 32.2637 343.154 32.9277 343.154 33.7597C343.154 33.8637 343.15 33.9677 343.142 34.0717C343.142 34.1677 343.134 34.2517 343.118 34.3237L339.182 34.3237C339.222 34.9397 339.414 35.4317 339.758 35.7997C340.11 36.1677 340.566 36.3517 341.126 36.3517C341.406 36.3517 341.662 36.3117 341.894 36.2317C342.134 36.1437 342.362 36.0317 342.578 35.8957L342.926 36.5437C342.678 36.7037 342.394 36.8437 342.074 36.9637C341.762 37.0837 341.406 37.1437 341.006 37.1437ZM339.17 33.6157L342.29 33.6157C342.29 33.0237 342.162 32.5757 341.906 32.2717C341.658 31.9597 341.306 31.8037 340.85 31.8037C340.442 31.8037 340.074 31.9637 339.746 32.2837C339.426 32.5957 339.234 33.0397 339.17 33.6157ZM261.64 52.1437C261.368 52.1437 261.084 52.0797 260.788 51.9517C260.5 51.8157 260.228 51.6317 259.972 51.3997L259.936 51.3997L259.852 51.9997L259.06 51.9997L259.06 43.4557L260.044 43.4557L260.044 45.7837L260.02 46.8397C260.284 46.6077 260.572 46.4157 260.884 46.2637C261.204 46.1037 261.524 46.0237 261.844 46.0237C262.604 46.0237 263.18 46.2917 263.572 46.8277C263.964 47.3637 264.16 48.0837 264.16 48.9877C264.16 49.6517 264.04 50.2197 263.8 50.6917C263.568 51.1637 263.26 51.5237 262.876 51.7717C262.5 52.0197 262.088 52.1437 261.64 52.1437ZM261.472 51.3157C261.952 51.3157 262.348 51.1117 262.66 50.7037C262.98 50.2877 263.14 49.7197 263.14 48.9997C263.14 48.3597 263.02 47.8437 262.78 47.4517C262.548 47.0517 262.156 46.8517 261.604 46.8517C261.356 46.8517 261.104 46.9197 260.848 47.0557C260.592 47.1917 260.324 47.3877 260.044 47.6437L260.044 50.7037C260.3 50.9277 260.552 51.0877 260.8 51.1837C261.056 51.2717 261.28 51.3157 261.472 51.3157ZM268.057 52.1437C267.537 52.1437 267.065 52.0237 266.641 51.7837C266.217 51.5357 265.881 51.1837 265.633 50.7277C265.385 50.2717 265.261 49.7277 265.261 49.0957C265.261 48.4557 265.385 47.9077 265.633 47.4517C265.889 46.9957 266.217 46.6437 266.617 46.3957C267.017 46.1477 267.437 46.0237 267.877 46.0237C268.621 46.0237 269.193 46.2717 269.593 46.7677C270.001 47.2637 270.205 47.9277 270.205 48.7597C270.205 48.8637 270.201 48.9677 270.193 49.0717C270.193 49.1677 270.185 49.2517 270.169 49.3237L266.233 49.3237C266.273 49.9397 266.465 50.4317 266.809 50.7997C267.161 51.1677 267.617 51.3517 268.177 51.3517C268.457 51.3517 268.713 51.3117 268.945 51.2317C269.185 51.1437 269.413 51.0317 269.629 50.8957L269.977 51.5437C269.729 51.7037 269.445 51.8437 269.125 51.9637C268.813 52.0837 268.457 52.1437 268.057 52.1437ZM266.221 48.6157L269.341 48.6157C269.341 48.0237 269.213 47.5757 268.957 47.2717C268.709 46.9597 268.357 46.8037 267.901 46.8037C267.493 46.8037 267.125 46.9637 266.797 47.2837C266.477 47.5957 266.285 48.0397 266.221 48.6157ZM271.814 51.9997L271.814 46.9717L271.022 46.9717L271.022 46.2277L271.814 46.1677L271.814 45.2437C271.814 44.6517 271.95 44.1837 272.222 43.8397C272.502 43.4877 272.934 43.3117 273.518 43.3117C273.702 43.3117 273.878 43.3317 274.046 43.3717C274.214 43.4037 274.362 43.4477 274.49 43.5037L274.274 44.2597C274.058 44.1637 273.838 44.1157 273.614 44.1157C273.07 44.1157 272.798 44.4917 272.798 45.2437L272.798 46.1677L274.034 46.1677L274.034 46.9717L272.798 46.9717L272.798 51.9997L271.814 51.9997ZM277.301 52.1437C276.829 52.1437 276.385 52.0237 275.969 51.7837C275.561 51.5437 275.229 51.1957 274.973 50.7397C274.725 50.2837 274.601 49.7357 274.601 49.0957C274.601 48.4397 274.725 47.8837 274.973 47.4277C275.229 46.9717 275.561 46.6237 275.969 46.3837C276.385 46.1437 276.829 46.0237 277.301 46.0237C277.781 46.0237 278.225 46.1437 278.633 46.3837C279.041 46.6237 279.369 46.9717 279.617 47.4277C279.873 47.8837 280.001 48.4397 280.001 49.0957C280.001 49.7357 279.873 50.2837 279.617 50.7397C279.369 51.1957 279.041 51.5437 278.633 51.7837C278.225 52.0237 277.781 52.1437 277.301 52.1437ZM277.301 51.3277C277.805 51.3277 278.209 51.1237 278.513 50.7157C278.825 50.2997 278.981 49.7597 278.981 49.0957C278.981 48.4237 278.825 47.8797 278.513 47.4637C278.209 47.0477 277.805 46.8397 277.301 46.8397C276.805 46.8397 276.401 47.0477 276.089 47.4637C275.777 47.8797 275.621 48.4237 275.621 49.0957C275.621 49.7597 275.777 50.2997 276.089 50.7157C276.401 51.1237 276.805 51.3277 277.301 51.3277ZM281.537 51.9997L281.537 46.1677L282.353 46.1677L282.437 47.2237L282.473 47.2237C282.673 46.8557 282.917 46.5637 283.205 46.3477C283.493 46.1317 283.801 46.0237 284.129 46.0237C284.361 46.0237 284.569 46.0637 284.753 46.1437L284.561 47.0077C284.465 46.9757 284.377 46.9517 284.297 46.9357C284.217 46.9197 284.117 46.9117 283.997 46.9117C283.749 46.9117 283.489 47.0117 283.217 47.2117C282.953 47.4117 282.721 47.7597 282.521 48.2557L282.521 51.9997L281.537 51.9997ZM287.944 52.1437C287.424 52.1437 286.952 52.0237 286.528 51.7837C286.104 51.5357 285.768 51.1837 285.52 50.7277C285.272 50.2717 285.148 49.7277 285.148 49.0957C285.148 48.4557 285.272 47.9077 285.52 47.4517C285.776 46.9957 286.104 46.6437 286.504 46.3957C286.904 46.1477 287.324 46.0237 287.764 46.0237C288.508 46.0237 289.08 46.2717 289.48 46.7677C289.888 47.2637 290.092 47.9277 290.092 48.7597C290.092 48.8637 290.088 48.9677 290.08 49.0717C290.08 49.1677 290.072 49.2517 290.056 49.3237L286.12 49.3237C286.16 49.9397 286.352 50.4317 286.696 50.7997C287.048 51.1677 287.504 51.3517 288.064 51.3517C288.344 51.3517 288.6 51.3117 288.832 51.2317C289.072 51.1437 289.3 51.0317 289.516 50.8957L289.864 51.5437C289.616 51.7037 289.332 51.8437 289.012 51.9637C288.7 52.0837 288.344 52.1437 287.944 52.1437ZM286.108 48.6157L289.228 48.6157C289.228 48.0237 289.1 47.5757 288.844 47.2717C288.596 46.9597 288.244 46.8037 287.788 46.8037C287.38 46.8037 287.012 46.9637 286.684 47.2837C286.364 47.5957 286.172 48.0397 286.108 48.6157ZM296.299 52.1437C295.779 52.1437 295.307 52.0237 294.883 51.7837C294.459 51.5357 294.123 51.1837 293.875 50.7277C293.627 50.2717 293.503 49.7277 293.503 49.0957C293.503 48.4557 293.627 47.9077 293.875 47.4517C294.131 46.9957 294.459 46.6437 294.859 46.3957C295.259 46.1477 295.679 46.0237 296.119 46.0237C296.863 46.0237 297.435 46.2717 297.835 46.7677C298.243 47.2637 298.447 47.9277 298.447 48.7597C298.447 48.8637 298.443 48.9677 298.435 49.0717C298.435 49.1677 298.427 49.2517 298.411 49.3237L294.475 49.3237C294.515 49.9397 294.707 50.4317 295.051 50.7997C295.403 51.1677 295.859 51.3517 296.419 51.3517C296.699 51.3517 296.955 51.3117 297.187 51.2317C297.427 51.1437 297.655 51.0317 297.871 50.8957L298.219 51.5437C297.971 51.7037 297.687 51.8437 297.367 51.9637C297.055 52.0837 296.699 52.1437 296.299 52.1437ZM294.463 48.6157L297.583 48.6157C297.583 48.0237 297.455 47.5757 297.199 47.2717C296.951 46.9597 296.599 46.8037 296.143 46.8037C295.735 46.8037 295.367 46.9637 295.039 47.2837C294.719 47.5957 294.527 48.0397 294.463 48.6157ZM298.991 51.9997L300.899 48.9517L299.135 46.1677L300.203 46.1677L300.983 47.4517C301.071 47.6037 301.163 47.7637 301.259 47.9317C301.355 48.0997 301.455 48.2637 301.559 48.4237L301.607 48.4237C301.695 48.2637 301.783 48.0997 301.871 47.9317C301.959 47.7637 302.047 47.6037 302.135 47.4517L302.843 46.1677L303.875 46.1677L302.111 49.0597L304.007 51.9997L302.939 51.9997L302.087 50.6437C301.983 50.4677 301.879 50.2917 301.775 50.1157C301.671 49.9397 301.563 49.7677 301.451 49.5997L301.403 49.5997C301.299 49.7677 301.199 49.9397 301.103 50.1157C301.007 50.2837 300.911 50.4597 300.815 50.6437L300.023 51.9997L298.991 51.9997ZM305.162 54.4597L305.162 46.1677L305.978 46.1677L306.062 46.8397L306.098 46.8397C306.362 46.6157 306.65 46.4237 306.962 46.2637C307.282 46.1037 307.614 46.0237 307.958 46.0237C308.71 46.0237 309.282 46.2957 309.674 46.8397C310.066 47.3757 310.262 48.0957 310.262 48.9997C310.262 49.6557 310.142 50.2197 309.902 50.6917C309.67 51.1637 309.362 51.5237 308.978 51.7717C308.602 52.0197 308.19 52.1437 307.742 52.1437C307.47 52.1437 307.198 52.0837 306.926 51.9637C306.662 51.8437 306.394 51.6797 306.122 51.4717L306.146 52.4917L306.146 54.4597L305.162 54.4597ZM307.574 51.3157C308.054 51.3157 308.45 51.1117 308.762 50.7037C309.082 50.2877 309.242 49.7197 309.242 48.9997C309.242 48.3597 309.122 47.8437 308.882 47.4517C308.65 47.0517 308.258 46.8517 307.706 46.8517C307.458 46.8517 307.206 46.9197 306.95 47.0557C306.702 47.1917 306.434 47.3877 306.146 47.6437L306.146 50.7037C306.41 50.9277 306.666 51.0877 306.914 51.1837C307.162 51.2717 307.382 51.3157 307.574 51.3157ZM311.818 51.9997L311.818 46.1677L312.802 46.1677L312.802 51.9997L311.818 51.9997ZM312.322 44.9677C312.13 44.9677 311.97 44.9117 311.842 44.7997C311.722 44.6797 311.662 44.5197 311.662 44.3197C311.662 44.1277 311.722 43.9717 311.842 43.8517C311.97 43.7317 312.13 43.6717 312.322 43.6717C312.514 43.6717 312.67 43.7317 312.79 43.8517C312.918 43.9717 312.982 44.1277 312.982 44.3197C312.982 44.5197 312.918 44.6797 312.79 44.7997C312.67 44.9117 312.514 44.9677 312.322 44.9677ZM314.771 51.9997L314.771 46.1677L315.587 46.1677L315.671 47.2237L315.707 47.2237C315.907 46.8557 316.151 46.5637 316.439 46.3477C316.727 46.1317 317.035 46.0237 317.363 46.0237C317.595 46.0237 317.803 46.0637 317.987 46.1437L317.795 47.0077C317.699 46.9757 317.611 46.9517 317.531 46.9357C317.451 46.9197 317.351 46.9117 317.231 46.9117C316.983 46.9117 316.723 47.0117 316.451 47.2117C316.187 47.4117 315.955 47.7597 315.755 48.2557L315.755 51.9997L314.771 51.9997ZM319.983 52.1437C319.495 52.1437 319.087 51.9997 318.759 51.7117C318.439 51.4157 318.279 51.0077 318.279 50.4877C318.279 49.8477 318.563 49.3597 319.131 49.0237C319.707 48.6797 320.615 48.4397 321.855 48.3037C321.855 48.0557 321.819 47.8197 321.747 47.5957C321.683 47.3717 321.563 47.1917 321.387 47.0557C321.219 46.9117 320.975 46.8397 320.655 46.8397C320.319 46.8397 320.003 46.9037 319.707 47.0317C319.411 47.1597 319.147 47.3037 318.915 47.4637L318.531 46.7797C318.803 46.6037 319.135 46.4357 319.527 46.2757C319.927 46.1077 320.359 46.0237 320.823 46.0237C321.535 46.0237 322.051 46.2437 322.371 46.6837C322.691 47.1157 322.851 47.6957 322.851 48.4237L322.851 51.9997L322.035 51.9997L321.951 51.3037L321.915 51.3037C321.643 51.5277 321.343 51.7237 321.015 51.8917C320.695 52.0597 320.351 52.1437 319.983 52.1437ZM320.271 51.3517C320.551 51.3517 320.815 51.2837 321.063 51.1477C321.311 51.0117 321.575 50.8197 321.855 50.5717L321.855 48.9517C320.887 49.0717 320.207 49.2517 319.815 49.4917C319.431 49.7317 319.239 50.0397 319.239 50.4157C319.239 50.7437 319.339 50.9837 319.539 51.1357C319.739 51.2797 319.983 51.3517 320.271 51.3517ZM326.357 52.1437C325.733 52.1437 325.297 51.9637 325.049 51.6037C324.809 51.2437 324.689 50.7757 324.689 50.1997L324.689 46.9717L323.825 46.9717L323.825 46.2277L324.737 46.1677L324.857 44.5357L325.685 44.5357L325.685 46.1677L327.257 46.1677L327.257 46.9717L325.685 46.9717L325.685 50.2117C325.685 50.5717 325.749 50.8517 325.877 51.0517C326.013 51.2437 326.249 51.3397 326.585 51.3397C326.689 51.3397 326.801 51.3237 326.921 51.2917C327.041 51.2517 327.149 51.2157 327.245 51.1837L327.437 51.9277C327.277 51.9837 327.101 52.0317 326.909 52.0717C326.725 52.1197 326.541 52.1437 326.357 52.1437ZM328.576 51.9997L328.576 46.1677L329.56 46.1677L329.56 51.9997L328.576 51.9997ZM329.08 44.9677C328.888 44.9677 328.728 44.9117 328.6 44.7997C328.48 44.6797 328.42 44.5197 328.42 44.3197C328.42 44.1277 328.48 43.9717 328.6 43.8517C328.728 43.7317 328.888 43.6717 329.08 43.6717C329.272 43.6717 329.428 43.7317 329.548 43.8517C329.676 43.9717 329.74 44.1277 329.74 44.3197C329.74 44.5197 329.676 44.6797 329.548 44.7997C329.428 44.9117 329.272 44.9677 329.08 44.9677ZM333.797 52.1437C333.325 52.1437 332.881 52.0237 332.465 51.7837C332.057 51.5437 331.725 51.1957 331.469 50.7397C331.221 50.2837 331.097 49.7357 331.097 49.0957C331.097 48.4397 331.221 47.8837 331.469 47.4277C331.725 46.9717 332.057 46.6237 332.465 46.3837C332.881 46.1437 333.325 46.0237 333.797 46.0237C334.277 46.0237 334.721 46.1437 335.129 46.3837C335.537 46.6237 335.865 46.9717 336.113 47.4277C336.369 47.8837 336.497 48.4397 336.497 49.0957C336.497 49.7357 336.369 50.2837 336.113 50.7397C335.865 51.1957 335.537 51.5437 335.129 51.7837C334.721 52.0237 334.277 52.1437 333.797 52.1437ZM333.797 51.3277C334.301 51.3277 334.705 51.1237 335.009 50.7157C335.321 50.2997 335.477 49.7597 335.477 49.0957C335.477 48.4237 335.321 47.8797 335.009 47.4637C334.705 47.0477 334.301 46.8397 333.797 46.8397C333.301 46.8397 332.897 47.0477 332.585 47.4637C332.273 47.8797 332.117 48.4237 332.117 49.0957C332.117 49.7597 332.273 50.2997 332.585 50.7157C332.897 51.1237 333.301 51.3277 333.797 51.3277ZM338.033 51.9997L338.033 46.1677L338.849 46.1677L338.933 47.0077L338.969 47.0077C339.249 46.7277 339.545 46.4957 339.857 46.3117C340.169 46.1197 340.525 46.0237 340.925 46.0237C341.541 46.0237 341.989 46.2197 342.269 46.6117C342.557 46.9957 342.701 47.5597 342.701 48.3037L342.701 51.9997L341.717 51.9997L341.717 48.4357C341.717 47.8917 341.629 47.4957 341.453 47.2477C341.277 46.9997 340.997 46.8757 340.613 46.8757C340.317 46.8757 340.049 46.9517 339.809 47.1037C339.577 47.2557 339.313 47.4797 339.017 47.7757L339.017 51.9997L338.033 51.9997Z" fill="black"/>
<path d="M444.393 191.144C443.865 191.144 443.353 191.044 442.857 190.844C442.369 190.644 441.937 190.36 441.561 189.992L442.377 189.044C442.657 189.308 442.977 189.524 443.337 189.692C443.697 189.852 444.057 189.932 444.417 189.932C444.865 189.932 445.205 189.84 445.437 189.656C445.669 189.472 445.785 189.228 445.785 188.924C445.785 188.596 445.669 188.36 445.437 188.216C445.213 188.072 444.925 187.924 444.573 187.772L443.493 187.304C443.237 187.192 442.985 187.048 442.737 186.872C442.497 186.696 442.297 186.472 442.137 186.2C441.985 185.928 441.909 185.6 441.909 185.216C441.909 184.8 442.021 184.428 442.245 184.1C442.477 183.764 442.789 183.5 443.181 183.308C443.581 183.108 444.037 183.008 444.549 183.008C445.005 183.008 445.445 183.1 445.869 183.284C446.293 183.46 446.657 183.7 446.961 184.004L446.253 184.892C446.005 184.684 445.741 184.52 445.461 184.4C445.189 184.28 444.885 184.22 444.549 184.22C444.181 184.22 443.881 184.304 443.649 184.472C443.425 184.632 443.313 184.856 443.313 185.144C443.313 185.344 443.369 185.512 443.481 185.648C443.601 185.776 443.757 185.888 443.949 185.984C444.141 186.072 444.345 186.16 444.561 186.248L445.629 186.692C446.093 186.892 446.473 187.156 446.769 187.484C447.065 187.804 447.213 188.248 447.213 188.816C447.213 189.24 447.101 189.628 446.877 189.98C446.653 190.332 446.329 190.616 445.905 190.832C445.489 191.04 444.985 191.144 444.393 191.144ZM450.28 191.144C449.6 191.144 449.116 190.948 448.828 190.556C448.548 190.156 448.408 189.64 448.408 189.008V186.2H447.568V185.168L448.48 185.108L448.648 183.5H449.8V185.108H451.3V186.2H449.8V189.008C449.8 189.696 450.076 190.04 450.628 190.04C450.732 190.04 450.84 190.028 450.952 190.004C451.064 189.972 451.16 189.94 451.24 189.908L451.48 190.928C451.32 190.984 451.136 191.032 450.928 191.072C450.728 191.12 450.512 191.144 450.28 191.144ZM454.765 191.144C454.277 191.144 453.821 191.024 453.397 190.784C452.973 190.536 452.629 190.184 452.365 189.728C452.101 189.264 451.969 188.708 451.969 188.06C451.969 187.404 452.101 186.848 452.365 186.392C452.629 185.928 452.973 185.576 453.397 185.336C453.821 185.088 454.277 184.964 454.765 184.964C455.261 184.964 455.721 185.088 456.145 185.336C456.569 185.576 456.913 185.928 457.177 186.392C457.441 186.848 457.573 187.404 457.573 188.06C457.573 188.708 457.441 189.264 457.177 189.728C456.913 190.184 456.569 190.536 456.145 190.784C455.721 191.024 455.261 191.144 454.765 191.144ZM454.765 190.016C455.197 190.016 455.537 189.836 455.785 189.476C456.033 189.116 456.157 188.644 456.157 188.06C456.157 187.468 456.033 186.992 455.785 186.632C455.537 186.272 455.197 186.092 454.765 186.092C454.333 186.092 453.993 186.272 453.745 186.632C453.505 186.992 453.385 187.468 453.385 188.06C453.385 188.644 453.505 189.116 453.745 189.476C453.993 189.836 454.333 190.016 454.765 190.016ZM461.399 191.144C460.863 191.144 460.379 191.024 459.947 190.784C459.523 190.536 459.183 190.184 458.927 189.728C458.679 189.264 458.555 188.708 458.555 188.06C458.555 187.404 458.691 186.848 458.963 186.392C459.235 185.928 459.595 185.576 460.043 185.336C460.499 185.088 460.987 184.964 461.507 184.964C461.883 184.964 462.211 185.028 462.491 185.156C462.771 185.284 463.019 185.44 463.235 185.624L462.563 186.524C462.411 186.388 462.255 186.284 462.095 186.212C461.935 186.132 461.763 186.092 461.579 186.092C461.107 186.092 460.719 186.272 460.415 186.632C460.119 186.992 459.971 187.468 459.971 188.06C459.971 188.644 460.115 189.116 460.403 189.476C460.699 189.836 461.079 190.016 461.543 190.016C461.775 190.016 461.991 189.968 462.191 189.872C462.399 189.768 462.587 189.648 462.755 189.512L463.319 190.424C463.047 190.664 462.743 190.844 462.407 190.964C462.071 191.084 461.735 191.144 461.399 191.144ZM464.481 191V182.528H465.837V187.82H465.873L468.057 185.108H469.569L467.553 187.508L469.773 191H468.273L466.761 188.444L465.837 189.5V191H464.481ZM473.153 193.328V185.108H474.293L474.389 185.732H474.437C474.685 185.524 474.961 185.344 475.265 185.192C475.577 185.04 475.893 184.964 476.213 184.964C476.949 184.964 477.517 185.236 477.917 185.78C478.325 186.324 478.529 187.052 478.529 187.964C478.529 188.636 478.409 189.212 478.169 189.692C477.929 190.164 477.617 190.524 477.233 190.772C476.857 191.02 476.449 191.144 476.009 191.144C475.753 191.144 475.497 191.088 475.241 190.976C474.985 190.856 474.737 190.696 474.497 190.496L474.533 191.48V193.328H473.153ZM475.721 190.004C476.113 190.004 476.441 189.832 476.705 189.488C476.969 189.144 477.101 188.64 477.101 187.976C477.101 187.384 477.001 186.924 476.801 186.596C476.601 186.268 476.277 186.104 475.829 186.104C475.413 186.104 474.981 186.324 474.533 186.764V189.512C474.749 189.688 474.957 189.816 475.157 189.896C475.357 189.968 475.545 190.004 475.721 190.004ZM479.927 191V185.108H481.067L481.163 186.152H481.211C481.419 185.768 481.671 185.476 481.967 185.276C482.263 185.068 482.567 184.964 482.879 184.964C483.159 184.964 483.383 185.004 483.551 185.084L483.311 186.284C483.207 186.252 483.111 186.228 483.023 186.212C482.935 186.196 482.827 186.188 482.699 186.188C482.467 186.188 482.223 186.28 481.967 186.464C481.711 186.64 481.491 186.952 481.307 187.4V191H479.927ZM484.403 191V185.108H485.783V191H484.403ZM485.099 184.076C484.851 184.076 484.651 184.004 484.499 183.86C484.347 183.716 484.271 183.524 484.271 183.284C484.271 183.052 484.347 182.864 484.499 182.72C484.651 182.576 484.851 182.504 485.099 182.504C485.347 182.504 485.547 182.576 485.699 182.72C485.851 182.864 485.927 183.052 485.927 183.284C485.927 183.524 485.851 183.716 485.699 183.86C485.547 184.004 485.347 184.076 485.099 184.076ZM490.004 191.144C489.468 191.144 488.984 191.024 488.552 190.784C488.128 190.536 487.788 190.184 487.532 189.728C487.284 189.264 487.16 188.708 487.16 188.06C487.16 187.404 487.296 186.848 487.568 186.392C487.84 185.928 488.2 185.576 488.648 185.336C489.104 185.088 489.592 184.964 490.112 184.964C490.488 184.964 490.816 185.028 491.096 185.156C491.376 185.284 491.624 185.44 491.84 185.624L491.168 186.524C491.016 186.388 490.86 186.284 490.7 186.212C490.54 186.132 490.368 186.092 490.184 186.092C489.712 186.092 489.324 186.272 489.02 186.632C488.724 186.992 488.576 187.468 488.576 188.06C488.576 188.644 488.72 189.116 489.008 189.476C489.304 189.836 489.684 190.016 490.148 190.016C490.38 190.016 490.596 189.968 490.796 189.872C491.004 189.768 491.192 189.648 491.36 189.512L491.924 190.424C491.652 190.664 491.348 190.844 491.012 190.964C490.676 191.084 490.34 191.144 490.004 191.144ZM495.314 191.144C494.77 191.144 494.278 191.024 493.838 190.784C493.398 190.536 493.05 190.184 492.794 189.728C492.538 189.264 492.41 188.708 492.41 188.06C492.41 187.42 492.538 186.868 492.794 186.404C493.058 185.94 493.398 185.584 493.814 185.336C494.23 185.088 494.666 184.964 495.122 184.964C495.658 184.964 496.106 185.084 496.466 185.324C496.826 185.556 497.098 185.884 497.282 186.308C497.466 186.724 497.558 187.208 497.558 187.76C497.558 188.048 497.538 188.272 497.498 188.432H493.754C493.818 188.952 494.006 189.356 494.318 189.644C494.63 189.932 495.022 190.076 495.494 190.076C495.75 190.076 495.986 190.04 496.202 189.968C496.426 189.888 496.646 189.78 496.862 189.644L497.33 190.508C497.05 190.692 496.738 190.844 496.394 190.964C496.05 191.084 495.69 191.144 495.314 191.144ZM493.742 187.496H496.358C496.358 187.04 496.258 186.684 496.058 186.428C495.858 186.164 495.558 186.032 495.158 186.032C494.814 186.032 494.506 186.16 494.234 186.416C493.97 186.664 493.806 187.024 493.742 187.496Z" fill="black"/>
<path d="M70.8929 184.192C69.8369 184.192 68.9942 183.733 68.3649 182.816C67.7462 181.898 67.4369 180.581 67.4369 178.864C67.4369 177.146 67.7462 175.845 68.3649 174.96C68.9942 174.074 69.8369 173.632 70.8929 173.632C71.9489 173.632 72.7862 174.074 73.4049 174.96C74.0342 175.845 74.3489 177.146 74.3489 178.864C74.3489 180.581 74.0342 181.898 73.4049 182.816C72.7862 183.733 71.9489 184.192 70.8929 184.192ZM70.8929 182.752C71.2235 182.752 71.5169 182.629 71.7729 182.384C72.0289 182.128 72.2262 181.717 72.3649 181.152C72.5142 180.586 72.5889 179.824 72.5889 178.864C72.5889 177.904 72.5142 177.146 72.3649 176.592C72.2262 176.037 72.0289 175.648 71.7729 175.424C71.5169 175.189 71.2235 175.072 70.8929 175.072C70.5729 175.072 70.2849 175.189 70.0289 175.424C69.7729 175.648 69.5702 176.037 69.4209 176.592C69.2715 177.146 69.1969 177.904 69.1969 178.864C69.1969 179.824 69.2715 180.586 69.4209 181.152C69.5702 181.717 69.7729 182.128 70.0289 182.384C70.2849 182.629 70.5729 182.752 70.8929 182.752Z" fill="black"/>
</g>
<defs>
<clipPath id="clip0_505_2">
<rect width="592" height="239" fill="white"/>
</clipPath>
</defs>
</svg>
