<svg width="592" height="236" viewBox="0 0 592 236" fill="none" xmlns="http://www.w3.org/2000/svg">
<g clip-path="url(#clip0_508_179)">
<path d="M495.908 178.5L282.824 178.5L135.5 29.5" stroke="black" stroke-width="3" stroke-linejoin="round" stroke-dasharray="10 10"/>
<path d="M498 172C498 172 355.128 168.542 293.5 141C231.872 113.458 143 26.5 143 26.5" stroke="black" stroke-width="3"/>
<path d="M82.0239 -9.84328e-05L76.2504 9.9999L87.7974 9.9999L82.0239 -9.84328e-05ZM83.0239 177.5L83.0239 8.9999L81.0239 8.9999L81.0239 177.5L83.0239 177.5Z" fill="black"/>
<path d="M515 178L505 172.227L505 183.774L515 178ZM81 179L506 179L506 177L81 177L81 179Z" fill="black"/>
<path d="M284 211.5L284 138" stroke="black" stroke-dasharray="4 4"/>
<path d="M190.5 96L146 135" stroke="black" stroke-dasharray="4 4"/>
<path d="M212 49.0001L190.5 57.5" stroke="black" stroke-dasharray="4 4"/>
<path d="M21.7382 22V14.152H24.2102C24.7942 14.152 25.3142 14.228 25.7702 14.38C26.2262 14.532 26.5862 14.784 26.8502 15.136C27.1142 15.488 27.2462 15.968 27.2462 16.576C27.2462 17.152 27.1142 17.628 26.8502 18.004C26.5862 18.38 26.2302 18.66 25.7822 18.844C25.3342 19.028 24.8262 19.12 24.2582 19.12H23.1302V22H21.7382ZM23.1302 18.004H24.1502C25.3022 18.004 25.8782 17.528 25.8782 16.576C25.8782 16.08 25.7262 15.74 25.4222 15.556C25.1262 15.364 24.6862 15.268 24.1022 15.268H23.1302V18.004ZM30.3546 22.144C29.7226 22.144 29.2626 21.94 28.9746 21.532C28.6866 21.124 28.5426 20.548 28.5426 19.804V16.108H29.9226V19.624C29.9226 20.112 29.9946 20.456 30.1386 20.656C30.2826 20.856 30.5146 20.956 30.8346 20.956C31.0906 20.956 31.3146 20.892 31.5066 20.764C31.7066 20.636 31.9186 20.428 32.1426 20.14V16.108H33.5226V22H32.3946L32.2866 21.136H32.2506C31.9946 21.44 31.7146 21.684 31.4106 21.868C31.1066 22.052 30.7546 22.144 30.3546 22.144ZM37.3465 22.144C36.6665 22.144 36.1825 21.948 35.8945 21.556C35.6145 21.156 35.4745 20.64 35.4745 20.008V17.2H34.6345V16.168L35.5465 16.108L35.7145 14.5H36.8665V16.108H38.3665V17.2H36.8665V20.008C36.8665 20.696 37.1425 21.04 37.6945 21.04C37.7985 21.04 37.9065 21.028 38.0185 21.004C38.1305 20.972 38.2265 20.94 38.3065 20.908L38.5465 21.928C38.3865 21.984 38.2025 22.032 37.9945 22.072C37.7945 22.12 37.5785 22.144 37.3465 22.144ZM44.4208 22.144C43.9328 22.144 43.4768 22.024 43.0528 21.784C42.6288 21.536 42.2848 21.184 42.0208 20.728C41.7568 20.264 41.6248 19.708 41.6248 19.06C41.6248 18.404 41.7568 17.848 42.0208 17.392C42.2848 16.928 42.6288 16.576 43.0528 16.336C43.4768 16.088 43.9328 15.964 44.4208 15.964C44.9168 15.964 45.3768 16.088 45.8008 16.336C46.2248 16.576 46.5688 16.928 46.8328 17.392C47.0968 17.848 47.2288 18.404 47.2288 19.06C47.2288 19.708 47.0968 20.264 46.8328 20.728C46.5688 21.184 46.2248 21.536 45.8008 21.784C45.3768 22.024 44.9168 22.144 44.4208 22.144ZM44.4208 21.016C44.8528 21.016 45.1928 20.836 45.4408 20.476C45.6888 20.116 45.8128 19.644 45.8128 19.06C45.8128 18.468 45.6888 17.992 45.4408 17.632C45.1928 17.272 44.8528 17.092 44.4208 17.092C43.9888 17.092 43.6488 17.272 43.4008 17.632C43.1608 17.992 43.0408 18.468 43.0408 19.06C43.0408 19.644 43.1608 20.116 43.4008 20.476C43.6488 20.836 43.9888 21.016 44.4208 21.016ZM48.5948 24.328V16.108H49.7348L49.8308 16.732H49.8788C50.1268 16.524 50.4028 16.344 50.7068 16.192C51.0188 16.04 51.3348 15.964 51.6548 15.964C52.3908 15.964 52.9588 16.236 53.3588 16.78C53.7668 17.324 53.9708 18.052 53.9708 18.964C53.9708 19.636 53.8508 20.212 53.6108 20.692C53.3708 21.164 53.0588 21.524 52.6748 21.772C52.2988 22.02 51.8908 22.144 51.4508 22.144C51.1948 22.144 50.9388 22.088 50.6828 21.976C50.4268 21.856 50.1788 21.696 49.9388 21.496L49.9748 22.48V24.328H48.5948ZM51.1628 21.004C51.5548 21.004 51.8828 20.832 52.1468 20.488C52.4108 20.144 52.5428 19.64 52.5428 18.976C52.5428 18.384 52.4428 17.924 52.2428 17.596C52.0428 17.268 51.7188 17.104 51.2708 17.104C50.8548 17.104 50.4228 17.324 49.9748 17.764V20.512C50.1908 20.688 50.3988 20.816 50.5988 20.896C50.7988 20.968 50.9868 21.004 51.1628 21.004ZM57.1747 22.144C56.4947 22.144 56.0107 21.948 55.7227 21.556C55.4427 21.156 55.3027 20.64 55.3027 20.008V17.2H54.4627V16.168L55.3747 16.108L55.5427 14.5H56.6947V16.108H58.1947V17.2H56.6947V20.008C56.6947 20.696 56.9707 21.04 57.5227 21.04C57.6267 21.04 57.7347 21.028 57.8467 21.004C57.9587 20.972 58.0547 20.94 58.1347 20.908L58.3747 21.928C58.2147 21.984 58.0307 22.032 57.8227 22.072C57.6227 22.12 57.4067 22.144 57.1747 22.144ZM59.4346 22V16.108H60.8146V22H59.4346ZM60.1306 15.076C59.8826 15.076 59.6826 15.004 59.5306 14.86C59.3786 14.716 59.3026 14.524 59.3026 14.284C59.3026 14.052 59.3786 13.864 59.5306 13.72C59.6826 13.576 59.8826 13.504 60.1306 13.504C60.3786 13.504 60.5786 13.576 60.7306 13.72C60.8826 13.864 60.9586 14.052 60.9586 14.284C60.9586 14.524 60.8826 14.716 60.7306 14.86C60.5786 15.004 60.3786 15.076 60.1306 15.076ZM64.9872 22.144C64.4992 22.144 64.0432 22.024 63.6192 21.784C63.1952 21.536 62.8512 21.184 62.5872 20.728C62.3232 20.264 62.1912 19.708 62.1912 19.06C62.1912 18.404 62.3232 17.848 62.5872 17.392C62.8512 16.928 63.1952 16.576 63.6192 16.336C64.0432 16.088 64.4992 15.964 64.9872 15.964C65.4832 15.964 65.9432 16.088 66.3672 16.336C66.7912 16.576 67.1352 16.928 67.3992 17.392C67.6632 17.848 67.7952 18.404 67.7952 19.06C67.7952 19.708 67.6632 20.264 67.3992 20.728C67.1352 21.184 66.7912 21.536 66.3672 21.784C65.9432 22.024 65.4832 22.144 64.9872 22.144ZM64.9872 21.016C65.4192 21.016 65.7592 20.836 66.0072 20.476C66.2552 20.116 66.3792 19.644 66.3792 19.06C66.3792 18.468 66.2552 17.992 66.0072 17.632C65.7592 17.272 65.4192 17.092 64.9872 17.092C64.5552 17.092 64.2152 17.272 63.9672 17.632C63.7272 17.992 63.6072 18.468 63.6072 19.06C63.6072 19.644 63.7272 20.116 63.9672 20.476C64.2152 20.836 64.5552 21.016 64.9872 21.016ZM69.1612 22V16.108H70.3012L70.3972 16.9H70.4452C70.7092 16.644 70.9972 16.424 71.3092 16.24C71.6212 16.056 71.9772 15.964 72.3772 15.964C73.0092 15.964 73.4692 16.168 73.7572 16.576C74.0452 16.984 74.1892 17.56 74.1892 18.304V22H72.8092V18.484C72.8092 17.996 72.7372 17.652 72.5932 17.452C72.4492 17.252 72.2132 17.152 71.8852 17.152C71.6292 17.152 71.4012 17.216 71.2012 17.344C71.0092 17.464 70.7892 17.644 70.5412 17.884V22H69.1612ZM49.2937 37L47.2417 31.108H48.6457L49.5817 34.168C49.6617 34.456 49.7417 34.748 49.8217 35.044C49.9097 35.34 49.9937 35.64 50.0737 35.944H50.1217C50.2097 35.64 50.2937 35.34 50.3737 35.044C50.4617 34.748 50.5457 34.456 50.6257 34.168L51.5617 31.108H52.8937L50.8897 37H49.2937ZM55.1087 37.144C54.5967 37.144 54.1767 36.984 53.8487 36.664C53.5287 36.344 53.3687 35.928 53.3687 35.416C53.3687 34.784 53.6447 34.296 54.1967 33.952C54.7487 33.6 55.6287 33.36 56.8367 33.232C56.8287 32.92 56.7447 32.652 56.5847 32.428C56.4327 32.196 56.1567 32.08 55.7567 32.08C55.4687 32.08 55.1847 32.136 54.9047 32.248C54.6327 32.36 54.3647 32.496 54.1007 32.656L53.5967 31.732C53.9247 31.524 54.2927 31.344 54.7007 31.192C55.1167 31.04 55.5567 30.964 56.0207 30.964C56.7567 30.964 57.3047 31.184 57.6647 31.624C58.0327 32.056 58.2167 32.684 58.2167 33.508V37H57.0767L56.9807 36.352H56.9327C56.6687 36.576 56.3847 36.764 56.0807 36.916C55.7847 37.068 55.4607 37.144 55.1087 37.144ZM55.5527 36.064C55.7927 36.064 56.0087 36.008 56.2007 35.896C56.4007 35.776 56.6127 35.616 56.8367 35.416V34.096C56.0367 34.2 55.4807 34.356 55.1687 34.564C54.8567 34.764 54.7007 35.012 54.7007 35.308C54.7007 35.572 54.7807 35.764 54.9407 35.884C55.1007 36.004 55.3047 36.064 55.5527 36.064ZM61.2122 37.144C60.7242 37.144 60.3762 36.996 60.1682 36.7C59.9682 36.404 59.8682 36 59.8682 35.488V28.528H61.2482V35.56C61.2482 35.728 61.2802 35.848 61.3442 35.92C61.4082 35.984 61.4762 36.016 61.5482 36.016C61.5802 36.016 61.6082 36.016 61.6322 36.016C61.6642 36.008 61.7082 36 61.7642 35.992L61.9442 37.024C61.8642 37.056 61.7602 37.084 61.6322 37.108C61.5122 37.132 61.3722 37.144 61.2122 37.144ZM64.878 37.144C64.246 37.144 63.786 36.94 63.498 36.532C63.21 36.124 63.066 35.548 63.066 34.804V31.108H64.446V34.624C64.446 35.112 64.518 35.456 64.662 35.656C64.806 35.856 65.038 35.956 65.358 35.956C65.614 35.956 65.838 35.892 66.03 35.764C66.23 35.636 66.442 35.428 66.666 35.14V31.108H68.046V37H66.918L66.81 36.136H66.774C66.518 36.44 66.238 36.684 65.934 36.868C65.63 37.052 65.278 37.144 64.878 37.144ZM72.314 37.144C71.77 37.144 71.278 37.024 70.838 36.784C70.398 36.536 70.05 36.184 69.794 35.728C69.538 35.264 69.41 34.708 69.41 34.06C69.41 33.42 69.538 32.868 69.794 32.404C70.058 31.94 70.398 31.584 70.814 31.336C71.23 31.088 71.666 30.964 72.122 30.964C72.658 30.964 73.106 31.084 73.466 31.324C73.826 31.556 74.098 31.884 74.282 32.308C74.466 32.724 74.558 33.208 74.558 33.76C74.558 34.048 74.538 34.272 74.498 34.432H70.754C70.818 34.952 71.006 35.356 71.318 35.644C71.63 35.932 72.022 36.076 72.494 36.076C72.75 36.076 72.986 36.04 73.202 35.968C73.426 35.888 73.646 35.78 73.862 35.644L74.33 36.508C74.05 36.692 73.738 36.844 73.394 36.964C73.05 37.084 72.69 37.144 72.314 37.144ZM70.742 33.496H73.358C73.358 33.04 73.258 32.684 73.058 32.428C72.858 32.164 72.558 32.032 72.158 32.032C71.814 32.032 71.506 32.16 71.234 32.416C70.97 32.664 70.806 33.024 70.742 33.496Z" fill="black"/>
<path d="M251.154 225V217.128H255.69V217.968H252.15V220.44H255.138V221.292H252.15V224.148H255.81V225H251.154ZM256.195 225L258.103 221.952L256.339 219.168H257.407L258.187 220.452C258.275 220.604 258.367 220.764 258.463 220.932C258.559 221.1 258.659 221.264 258.763 221.424H258.811C258.899 221.264 258.987 221.1 259.075 220.932C259.163 220.764 259.251 220.604 259.339 220.452L260.047 219.168H261.079L259.315 222.06L261.211 225H260.143L259.291 223.644C259.187 223.468 259.083 223.292 258.979 223.116C258.875 222.94 258.767 222.768 258.655 222.6H258.607C258.503 222.768 258.403 222.94 258.307 223.116C258.211 223.284 258.115 223.46 258.019 223.644L257.227 225H256.195ZM264.532 225.144C264.012 225.144 263.54 225.024 263.116 224.784C262.692 224.536 262.356 224.184 262.108 223.728C261.86 223.272 261.736 222.728 261.736 222.096C261.736 221.456 261.86 220.908 262.108 220.452C262.364 219.996 262.692 219.644 263.092 219.396C263.492 219.148 263.912 219.024 264.352 219.024C265.096 219.024 265.668 219.272 266.068 219.768C266.476 220.264 266.68 220.928 266.68 221.76C266.68 221.864 266.676 221.968 266.668 222.072C266.668 222.168 266.66 222.252 266.644 222.324H262.708C262.748 222.94 262.94 223.432 263.284 223.8C263.636 224.168 264.092 224.352 264.652 224.352C264.932 224.352 265.188 224.312 265.42 224.232C265.66 224.144 265.888 224.032 266.104 223.896L266.452 224.544C266.204 224.704 265.92 224.844 265.6 224.964C265.288 225.084 264.932 225.144 264.532 225.144ZM262.696 221.616H265.816C265.816 221.024 265.688 220.576 265.432 220.272C265.184 219.96 264.832 219.804 264.376 219.804C263.968 219.804 263.6 219.964 263.272 220.284C262.952 220.596 262.76 221.04 262.696 221.616ZM268.121 225V219.168H268.937L269.021 220.224H269.057C269.257 219.856 269.501 219.564 269.789 219.348C270.077 219.132 270.385 219.024 270.713 219.024C270.945 219.024 271.153 219.064 271.337 219.144L271.145 220.008C271.049 219.976 270.961 219.952 270.881 219.936C270.801 219.92 270.701 219.912 270.581 219.912C270.333 219.912 270.073 220.012 269.801 220.212C269.537 220.412 269.305 220.76 269.105 221.256V225H268.121ZM274.468 225.144C273.956 225.144 273.492 225.024 273.076 224.784C272.66 224.544 272.332 224.196 272.092 223.74C271.852 223.284 271.732 222.736 271.732 222.096C271.732 221.44 271.86 220.884 272.116 220.428C272.38 219.972 272.724 219.624 273.148 219.384C273.58 219.144 274.044 219.024 274.54 219.024C274.924 219.024 275.252 219.092 275.524 219.228C275.804 219.364 276.044 219.524 276.244 219.708L275.74 220.356C275.572 220.204 275.392 220.08 275.2 219.984C275.016 219.888 274.808 219.84 274.576 219.84C274.224 219.84 273.908 219.936 273.628 220.128C273.356 220.312 273.14 220.576 272.98 220.92C272.828 221.256 272.752 221.648 272.752 222.096C272.752 222.76 272.916 223.3 273.244 223.716C273.58 224.124 274.016 224.328 274.552 224.328C274.824 224.328 275.076 224.272 275.308 224.16C275.54 224.04 275.744 223.9 275.92 223.74L276.352 224.4C276.088 224.632 275.796 224.816 275.476 224.952C275.156 225.08 274.82 225.144 274.468 225.144ZM277.636 225V219.168H278.62V225H277.636ZM278.14 217.968C277.948 217.968 277.788 217.912 277.66 217.8C277.54 217.68 277.48 217.52 277.48 217.32C277.48 217.128 277.54 216.972 277.66 216.852C277.788 216.732 277.948 216.672 278.14 216.672C278.332 216.672 278.488 216.732 278.608 216.852C278.736 216.972 278.8 217.128 278.8 217.32C278.8 217.52 278.736 217.68 278.608 217.8C278.488 217.912 278.332 217.968 278.14 217.968ZM282.113 225.144C281.697 225.144 281.301 225.068 280.925 224.916C280.549 224.756 280.221 224.564 279.941 224.34L280.433 223.68C280.689 223.88 280.953 224.048 281.225 224.184C281.497 224.312 281.805 224.376 282.149 224.376C282.533 224.376 282.821 224.288 283.013 224.112C283.205 223.928 283.301 223.712 283.301 223.464C283.301 223.264 283.233 223.096 283.097 222.96C282.969 222.824 282.801 222.712 282.593 222.624C282.393 222.528 282.185 222.44 281.969 222.36C281.697 222.256 281.429 222.14 281.165 222.012C280.901 221.876 280.685 221.704 280.517 221.496C280.349 221.28 280.265 221.008 280.265 220.68C280.265 220.208 280.441 219.816 280.793 219.504C281.153 219.184 281.649 219.024 282.281 219.024C282.641 219.024 282.977 219.088 283.289 219.216C283.601 219.344 283.869 219.5 284.093 219.684L283.613 220.308C283.413 220.156 283.205 220.032 282.989 219.936C282.773 219.84 282.537 219.792 282.281 219.792C281.913 219.792 281.641 219.876 281.465 220.044C281.297 220.212 281.213 220.408 281.213 220.632C281.213 220.816 281.273 220.968 281.393 221.088C281.513 221.2 281.669 221.3 281.861 221.388C282.053 221.468 282.257 221.552 282.473 221.64C282.753 221.744 283.029 221.864 283.301 222C283.573 222.128 283.797 222.304 283.973 222.528C284.157 222.744 284.249 223.036 284.249 223.404C284.249 223.716 284.165 224.004 283.997 224.268C283.837 224.532 283.597 224.744 283.277 224.904C282.965 225.064 282.577 225.144 282.113 225.144ZM287.981 225.144C287.461 225.144 286.989 225.024 286.565 224.784C286.141 224.536 285.805 224.184 285.557 223.728C285.309 223.272 285.185 222.728 285.185 222.096C285.185 221.456 285.309 220.908 285.557 220.452C285.813 219.996 286.141 219.644 286.541 219.396C286.941 219.148 287.361 219.024 287.801 219.024C288.545 219.024 289.117 219.272 289.517 219.768C289.925 220.264 290.129 220.928 290.129 221.76C290.129 221.864 290.125 221.968 290.117 222.072C290.117 222.168 290.109 222.252 290.093 222.324H286.157C286.197 222.94 286.389 223.432 286.733 223.8C287.085 224.168 287.541 224.352 288.101 224.352C288.381 224.352 288.637 224.312 288.869 224.232C289.109 224.144 289.337 224.032 289.553 223.896L289.901 224.544C289.653 224.704 289.369 224.844 289.049 224.964C288.737 225.084 288.381 225.144 287.981 225.144ZM286.145 221.616H289.265C289.265 221.024 289.137 220.576 288.881 220.272C288.633 219.96 288.281 219.804 287.825 219.804C287.417 219.804 287.049 219.964 286.721 220.284C286.401 220.596 286.209 221.04 286.145 221.616ZM293.972 227.46V219.168H294.788L294.872 219.84H294.908C295.172 219.616 295.46 219.424 295.772 219.264C296.092 219.104 296.424 219.024 296.768 219.024C297.52 219.024 298.092 219.296 298.484 219.84C298.876 220.376 299.072 221.096 299.072 222C299.072 222.656 298.952 223.22 298.712 223.692C298.48 224.164 298.172 224.524 297.788 224.772C297.412 225.02 297 225.144 296.552 225.144C296.28 225.144 296.008 225.084 295.736 224.964C295.472 224.844 295.204 224.68 294.932 224.472L294.956 225.492V227.46H293.972ZM296.384 224.316C296.864 224.316 297.26 224.112 297.572 223.704C297.892 223.288 298.052 222.72 298.052 222C298.052 221.36 297.932 220.844 297.692 220.452C297.46 220.052 297.068 219.852 296.516 219.852C296.268 219.852 296.016 219.92 295.76 220.056C295.512 220.192 295.244 220.388 294.956 220.644V223.704C295.22 223.928 295.476 224.088 295.724 224.184C295.972 224.272 296.192 224.316 296.384 224.316ZM300.629 225V219.168H301.445L301.529 220.224H301.565C301.765 219.856 302.009 219.564 302.297 219.348C302.585 219.132 302.893 219.024 303.221 219.024C303.453 219.024 303.661 219.064 303.845 219.144L303.653 220.008C303.557 219.976 303.469 219.952 303.389 219.936C303.309 219.92 303.209 219.912 303.089 219.912C302.841 219.912 302.581 220.012 302.309 220.212C302.045 220.412 301.813 220.76 301.613 221.256V225H300.629ZM304.789 225V219.168H305.773V225H304.789ZM305.293 217.968C305.101 217.968 304.941 217.912 304.813 217.8C304.693 217.68 304.633 217.52 304.633 217.32C304.633 217.128 304.693 216.972 304.813 216.852C304.941 216.732 305.101 216.672 305.293 216.672C305.485 216.672 305.641 216.732 305.761 216.852C305.889 216.972 305.953 217.128 305.953 217.32C305.953 217.52 305.889 217.68 305.761 217.8C305.641 217.912 305.485 217.968 305.293 217.968ZM310.046 225.144C309.534 225.144 309.07 225.024 308.654 224.784C308.238 224.544 307.91 224.196 307.67 223.74C307.43 223.284 307.31 222.736 307.31 222.096C307.31 221.44 307.438 220.884 307.694 220.428C307.958 219.972 308.302 219.624 308.726 219.384C309.158 219.144 309.622 219.024 310.118 219.024C310.502 219.024 310.83 219.092 311.102 219.228C311.382 219.364 311.622 219.524 311.822 219.708L311.318 220.356C311.15 220.204 310.97 220.08 310.778 219.984C310.594 219.888 310.386 219.84 310.154 219.84C309.802 219.84 309.486 219.936 309.206 220.128C308.934 220.312 308.718 220.576 308.558 220.92C308.406 221.256 308.33 221.648 308.33 222.096C308.33 222.76 308.494 223.3 308.822 223.716C309.158 224.124 309.594 224.328 310.13 224.328C310.402 224.328 310.654 224.272 310.886 224.16C311.118 224.04 311.322 223.9 311.498 223.74L311.93 224.4C311.666 224.632 311.374 224.816 311.054 224.952C310.734 225.08 310.398 225.144 310.046 225.144ZM315.321 225.144C314.801 225.144 314.329 225.024 313.905 224.784C313.481 224.536 313.145 224.184 312.897 223.728C312.649 223.272 312.525 222.728 312.525 222.096C312.525 221.456 312.649 220.908 312.897 220.452C313.153 219.996 313.481 219.644 313.881 219.396C314.281 219.148 314.701 219.024 315.141 219.024C315.885 219.024 316.457 219.272 316.857 219.768C317.265 220.264 317.469 220.928 317.469 221.76C317.469 221.864 317.465 221.968 317.457 222.072C317.457 222.168 317.449 222.252 317.433 222.324H313.497C313.537 222.94 313.729 223.432 314.073 223.8C314.425 224.168 314.881 224.352 315.441 224.352C315.721 224.352 315.977 224.312 316.209 224.232C316.449 224.144 316.677 224.032 316.893 223.896L317.241 224.544C316.993 224.704 316.709 224.844 316.389 224.964C316.077 225.084 315.721 225.144 315.321 225.144ZM313.485 221.616H316.605C316.605 221.024 316.477 220.576 316.221 220.272C315.973 219.96 315.621 219.804 315.165 219.804C314.757 219.804 314.389 219.964 314.061 220.284C313.741 220.596 313.549 221.04 313.485 221.616Z" fill="black"/>
<path d="M100.625 150L98.1055 142.128L99.1735 142.128L100.433 146.376C100.577 146.84 100.701 147.276 100.805 147.684C100.917 148.084 101.049 148.516 101.201 148.98L101.249 148.98C101.393 148.516 101.521 148.084 101.633 147.684C101.745 147.276 101.869 146.84 102.005 146.376L103.265 142.128L104.285 142.128L101.789 150L100.625 150ZM106.34 150.144C105.852 150.144 105.444 150 105.116 149.712C104.796 149.416 104.636 149.008 104.636 148.488C104.636 147.848 104.92 147.36 105.488 147.024C106.064 146.68 106.972 146.44 108.212 146.304C108.212 146.056 108.176 145.82 108.104 145.596C108.04 145.372 107.92 145.192 107.744 145.056C107.576 144.912 107.332 144.84 107.012 144.84C106.676 144.84 106.36 144.904 106.064 145.032C105.768 145.16 105.504 145.304 105.272 145.464L104.888 144.78C105.16 144.604 105.492 144.436 105.884 144.276C106.284 144.108 106.716 144.024 107.18 144.024C107.892 144.024 108.408 144.244 108.728 144.684C109.048 145.116 109.208 145.696 109.208 146.424L109.208 150L108.392 150L108.308 149.304L108.272 149.304C108 149.528 107.7 149.724 107.372 149.892C107.052 150.06 106.708 150.144 106.34 150.144ZM106.628 149.352C106.908 149.352 107.172 149.284 107.42 149.148C107.668 149.012 107.932 148.82 108.212 148.572L108.212 146.952C107.244 147.072 106.564 147.252 106.172 147.492C105.788 147.732 105.596 148.04 105.596 148.416C105.596 148.744 105.696 148.984 105.896 149.136C106.096 149.28 106.34 149.352 106.628 149.352ZM112.087 150.144C111.719 150.144 111.451 150.032 111.283 149.808C111.123 149.576 111.043 149.248 111.043 148.824L111.043 141.456L112.027 141.456L112.027 148.896C112.027 149.048 112.055 149.16 112.111 149.232C112.167 149.296 112.231 149.328 112.303 149.328C112.335 149.328 112.363 149.328 112.387 149.328C112.419 149.32 112.463 149.312 112.519 149.304L112.651 150.048C112.587 150.08 112.511 150.104 112.423 150.12C112.335 150.136 112.223 150.144 112.087 150.144ZM115.805 150.144C115.189 150.144 114.737 149.952 114.449 149.568C114.161 149.176 114.017 148.608 114.017 147.864L114.017 144.168L115.013 144.168L115.013 147.732C115.013 148.276 115.097 148.672 115.265 148.92C115.441 149.168 115.721 149.292 116.105 149.292C116.409 149.292 116.677 149.216 116.909 149.064C117.149 148.904 117.405 148.652 117.677 148.308L117.677 144.168L118.661 144.168L118.661 150L117.845 150L117.761 149.088L117.725 149.088C117.453 149.408 117.165 149.664 116.861 149.856C116.557 150.048 116.205 150.144 115.805 150.144ZM122.993 150.144C122.473 150.144 122.001 150.024 121.577 149.784C121.153 149.536 120.817 149.184 120.569 148.728C120.321 148.272 120.197 147.728 120.197 147.096C120.197 146.456 120.321 145.908 120.569 145.452C120.825 144.996 121.153 144.644 121.553 144.396C121.953 144.148 122.373 144.024 122.813 144.024C123.557 144.024 124.129 144.272 124.529 144.768C124.937 145.264 125.141 145.928 125.141 146.76C125.141 146.864 125.137 146.968 125.129 147.072C125.129 147.168 125.121 147.252 125.105 147.324L121.169 147.324C121.209 147.94 121.401 148.432 121.745 148.8C122.097 149.168 122.553 149.352 123.113 149.352C123.393 149.352 123.649 149.312 123.881 149.232C124.121 149.144 124.349 149.032 124.565 148.896L124.913 149.544C124.665 149.704 124.381 149.844 124.061 149.964C123.749 150.084 123.393 150.144 122.993 150.144ZM121.157 146.616L124.277 146.616C124.277 146.024 124.149 145.576 123.893 145.272C123.645 144.96 123.293 144.804 122.837 144.804C122.429 144.804 122.061 144.964 121.733 145.284C121.413 145.596 121.221 146.04 121.157 146.616ZM130.328 150.144C129.84 150.144 129.432 150 129.104 149.712C128.784 149.416 128.624 149.008 128.624 148.488C128.624 147.848 128.908 147.36 129.476 147.024C130.052 146.68 130.96 146.44 132.2 146.304C132.2 146.056 132.164 145.82 132.092 145.596C132.028 145.372 131.908 145.192 131.732 145.056C131.564 144.912 131.32 144.84 131 144.84C130.664 144.84 130.348 144.904 130.052 145.032C129.756 145.16 129.492 145.304 129.26 145.464L128.876 144.78C129.148 144.604 129.48 144.436 129.872 144.276C130.272 144.108 130.704 144.024 131.168 144.024C131.88 144.024 132.396 144.244 132.716 144.684C133.036 145.116 133.196 145.696 133.196 146.424L133.196 150L132.38 150L132.296 149.304L132.26 149.304C131.988 149.528 131.688 149.724 131.36 149.892C131.04 150.06 130.696 150.144 130.328 150.144ZM130.616 149.352C130.896 149.352 131.16 149.284 131.408 149.148C131.656 149.012 131.92 148.82 132.2 148.572L132.2 146.952C131.232 147.072 130.552 147.252 130.16 147.492C129.776 147.732 129.584 148.04 129.584 148.416C129.584 148.744 129.684 148.984 129.884 149.136C130.084 149.28 130.328 149.352 130.616 149.352ZM136.703 150.144C136.079 150.144 135.643 149.964 135.395 149.604C135.155 149.244 135.035 148.776 135.035 148.2L135.035 144.972L134.171 144.972L134.171 144.228L135.083 144.168L135.203 142.536L136.031 142.536L136.031 144.168L137.603 144.168L137.603 144.972L136.031 144.972L136.031 148.212C136.031 148.572 136.095 148.852 136.223 149.052C136.359 149.244 136.595 149.34 136.931 149.34C137.035 149.34 137.147 149.324 137.267 149.292C137.387 149.252 137.495 149.216 137.591 149.184L137.783 149.928C137.623 149.984 137.447 150.032 137.255 150.072C137.071 150.12 136.887 150.144 136.703 150.144ZM143.688 150.144C143.168 150.144 142.696 150.024 142.272 149.784C141.848 149.536 141.512 149.184 141.264 148.728C141.016 148.272 140.892 147.728 140.892 147.096C140.892 146.456 141.016 145.908 141.264 145.452C141.52 144.996 141.848 144.644 142.248 144.396C142.648 144.148 143.068 144.024 143.508 144.024C144.252 144.024 144.824 144.272 145.224 144.768C145.632 145.264 145.836 145.928 145.836 146.76C145.836 146.864 145.832 146.968 145.824 147.072C145.824 147.168 145.816 147.252 145.8 147.324L141.864 147.324C141.904 147.94 142.096 148.432 142.44 148.8C142.792 149.168 143.248 149.352 143.808 149.352C144.088 149.352 144.344 149.312 144.576 149.232C144.816 149.144 145.044 149.032 145.26 148.896L145.608 149.544C145.36 149.704 145.076 149.844 144.756 149.964C144.444 150.084 144.088 150.144 143.688 150.144ZM141.852 146.616L144.972 146.616C144.972 146.024 144.844 145.576 144.588 145.272C144.34 144.96 143.988 144.804 143.532 144.804C143.124 144.804 142.756 144.964 142.428 145.284C142.108 145.596 141.916 146.04 141.852 146.616ZM146.379 150L148.287 146.952L146.523 144.168L147.591 144.168L148.371 145.452C148.459 145.604 148.551 145.764 148.647 145.932C148.743 146.1 148.843 146.264 148.947 146.424L148.995 146.424C149.083 146.264 149.171 146.1 149.259 145.932C149.347 145.764 149.435 145.604 149.523 145.452L150.231 144.168L151.263 144.168L149.499 147.06L151.395 150L150.327 150L149.475 148.644C149.371 148.468 149.267 148.292 149.163 148.116C149.059 147.94 148.951 147.768 148.839 147.6L148.791 147.6C148.687 147.768 148.587 147.94 148.491 148.116C148.395 148.284 148.299 148.46 148.203 148.644L147.411 150L146.379 150ZM152.55 152.46L152.55 144.168L153.366 144.168L153.45 144.84L153.486 144.84C153.75 144.616 154.038 144.424 154.35 144.264C154.67 144.104 155.002 144.024 155.346 144.024C156.098 144.024 156.67 144.296 157.062 144.84C157.454 145.376 157.65 146.096 157.65 147C157.65 147.656 157.53 148.22 157.29 148.692C157.058 149.164 156.75 149.524 156.366 149.772C155.99 150.02 155.578 150.144 155.13 150.144C154.858 150.144 154.586 150.084 154.314 149.964C154.05 149.844 153.782 149.68 153.51 149.472L153.534 150.492L153.534 152.46L152.55 152.46ZM154.962 149.316C155.442 149.316 155.838 149.112 156.15 148.704C156.47 148.288 156.63 147.72 156.63 147C156.63 146.36 156.51 145.844 156.27 145.452C156.038 145.052 155.646 144.852 155.094 144.852C154.846 144.852 154.594 144.92 154.338 145.056C154.09 145.192 153.822 145.388 153.534 145.644L153.534 148.704C153.798 148.928 154.054 149.088 154.302 149.184C154.55 149.272 154.77 149.316 154.962 149.316ZM159.207 150L159.207 144.168L160.191 144.168L160.191 150L159.207 150ZM159.711 142.968C159.519 142.968 159.359 142.912 159.231 142.8C159.111 142.68 159.051 142.52 159.051 142.32C159.051 142.128 159.111 141.972 159.231 141.852C159.359 141.732 159.519 141.672 159.711 141.672C159.903 141.672 160.059 141.732 160.179 141.852C160.307 141.972 160.371 142.128 160.371 142.32C160.371 142.52 160.307 142.68 160.179 142.8C160.059 142.912 159.903 142.968 159.711 142.968ZM162.16 150L162.16 144.168L162.976 144.168L163.06 145.224L163.096 145.224C163.296 144.856 163.54 144.564 163.828 144.348C164.116 144.132 164.424 144.024 164.752 144.024C164.984 144.024 165.192 144.064 165.376 144.144L165.184 145.008C165.088 144.976 165 144.952 164.92 144.936C164.84 144.92 164.74 144.912 164.62 144.912C164.372 144.912 164.112 145.012 163.84 145.212C163.576 145.412 163.344 145.76 163.144 146.256L163.144 150L162.16 150ZM167.371 150.144C166.883 150.144 166.475 150 166.147 149.712C165.827 149.416 165.667 149.008 165.667 148.488C165.667 147.848 165.951 147.36 166.519 147.024C167.095 146.68 168.003 146.44 169.243 146.304C169.243 146.056 169.207 145.82 169.135 145.596C169.071 145.372 168.951 145.192 168.775 145.056C168.607 144.912 168.363 144.84 168.043 144.84C167.707 144.84 167.391 144.904 167.095 145.032C166.799 145.16 166.535 145.304 166.303 145.464L165.919 144.78C166.191 144.604 166.523 144.436 166.915 144.276C167.315 144.108 167.747 144.024 168.211 144.024C168.923 144.024 169.439 144.244 169.759 144.684C170.079 145.116 170.239 145.696 170.239 146.424L170.239 150L169.423 150L169.339 149.304L169.303 149.304C169.031 149.528 168.731 149.724 168.403 149.892C168.083 150.06 167.739 150.144 167.371 150.144ZM167.659 149.352C167.939 149.352 168.203 149.284 168.451 149.148C168.699 149.012 168.963 148.82 169.243 148.572L169.243 146.952C168.275 147.072 167.595 147.252 167.203 147.492C166.819 147.732 166.627 148.04 166.627 148.416C166.627 148.744 166.727 148.984 166.927 149.136C167.127 149.28 167.371 149.352 167.659 149.352ZM173.746 150.144C173.122 150.144 172.686 149.964 172.438 149.604C172.198 149.244 172.078 148.776 172.078 148.2L172.078 144.972L171.214 144.972L171.214 144.228L172.126 144.168L172.246 142.536L173.074 142.536L173.074 144.168L174.646 144.168L174.646 144.972L173.074 144.972L173.074 148.212C173.074 148.572 173.138 148.852 173.266 149.052C173.402 149.244 173.638 149.34 173.974 149.34C174.078 149.34 174.19 149.324 174.31 149.292C174.43 149.252 174.538 149.216 174.634 149.184L174.826 149.928C174.666 149.984 174.49 150.032 174.298 150.072C174.114 150.12 173.93 150.144 173.746 150.144ZM175.964 150L175.964 144.168L176.948 144.168L176.948 150L175.964 150ZM176.468 142.968C176.276 142.968 176.116 142.912 175.988 142.8C175.868 142.68 175.808 142.52 175.808 142.32C175.808 142.128 175.868 141.972 175.988 141.852C176.116 141.732 176.276 141.672 176.468 141.672C176.66 141.672 176.816 141.732 176.936 141.852C177.064 141.972 177.128 142.128 177.128 142.32C177.128 142.52 177.064 142.68 176.936 142.8C176.816 142.912 176.66 142.968 176.468 142.968ZM181.186 150.144C180.714 150.144 180.27 150.024 179.854 149.784C179.446 149.544 179.114 149.196 178.858 148.74C178.61 148.284 178.486 147.736 178.486 147.096C178.486 146.44 178.61 145.884 178.858 145.428C179.114 144.972 179.446 144.624 179.854 144.384C180.27 144.144 180.714 144.024 181.186 144.024C181.666 144.024 182.11 144.144 182.518 144.384C182.926 144.624 183.254 144.972 183.502 145.428C183.758 145.884 183.886 146.44 183.886 147.096C183.886 147.736 183.758 148.284 183.502 148.74C183.254 149.196 182.926 149.544 182.518 149.784C182.11 150.024 181.666 150.144 181.186 150.144ZM181.186 149.328C181.69 149.328 182.094 149.124 182.398 148.716C182.71 148.3 182.866 147.76 182.866 147.096C182.866 146.424 182.71 145.88 182.398 145.464C182.094 145.048 181.69 144.84 181.186 144.84C180.69 144.84 180.286 145.048 179.974 145.464C179.662 145.88 179.506 146.424 179.506 147.096C179.506 147.76 179.662 148.3 179.974 148.716C180.286 149.124 180.69 149.328 181.186 149.328ZM185.422 150L185.422 144.168L186.238 144.168L186.322 145.008L186.358 145.008C186.638 144.728 186.934 144.496 187.246 144.312C187.558 144.12 187.914 144.024 188.314 144.024C188.93 144.024 189.378 144.22 189.658 144.612C189.946 144.996 190.09 145.56 190.09 146.304L190.09 150L189.106 150L189.106 146.436C189.106 145.892 189.018 145.496 188.842 145.248C188.666 145 188.386 144.876 188.002 144.876C187.706 144.876 187.438 144.952 187.198 145.104C186.966 145.256 186.702 145.48 186.406 145.776L186.406 150L185.422 150Z" fill="black"/>
<path d="M222.08 45L222.08 37.128L224.42 37.128C224.956 37.128 225.424 37.192 225.824 37.32C226.232 37.448 226.548 37.652 226.772 37.932C227.004 38.212 227.12 38.584 227.12 39.048C227.12 39.44 227.02 39.796 226.82 40.116C226.628 40.428 226.344 40.644 225.968 40.764L225.968 40.812C226.44 40.9 226.824 41.1 227.12 41.412C227.424 41.724 227.576 42.152 227.576 42.696C227.576 43.208 227.448 43.636 227.192 43.98C226.944 44.324 226.596 44.58 226.148 44.748C225.7 44.916 225.18 45 224.588 45L222.08 45ZM223.076 40.476L224.24 40.476C224.912 40.476 225.396 40.36 225.692 40.128C225.988 39.896 226.136 39.58 226.136 39.18C226.136 38.724 225.98 38.4 225.668 38.208C225.364 38.016 224.904 37.92 224.288 37.92L223.076 37.92L223.076 40.476ZM223.076 44.208L224.444 44.208C225.124 44.208 225.652 44.084 226.028 43.836C226.404 43.58 226.592 43.188 226.592 42.66C226.592 42.172 226.404 41.816 226.028 41.592C225.66 41.36 225.132 41.244 224.444 41.244L223.076 41.244L223.076 44.208ZM230.083 45.144C229.715 45.144 229.447 45.032 229.279 44.808C229.119 44.576 229.039 44.248 229.039 43.824L229.039 36.456L230.023 36.456L230.023 43.896C230.023 44.048 230.051 44.16 230.107 44.232C230.163 44.296 230.227 44.328 230.299 44.328C230.331 44.328 230.359 44.328 230.383 44.328C230.415 44.32 230.459 44.312 230.515 44.304L230.647 45.048C230.583 45.08 230.507 45.104 230.419 45.12C230.331 45.136 230.219 45.144 230.083 45.144ZM233.441 45.144C232.953 45.144 232.545 45 232.217 44.712C231.897 44.416 231.737 44.008 231.737 43.488C231.737 42.848 232.021 42.36 232.589 42.024C233.165 41.68 234.073 41.44 235.313 41.304C235.313 41.056 235.277 40.82 235.205 40.596C235.141 40.372 235.021 40.192 234.845 40.056C234.677 39.912 234.433 39.84 234.113 39.84C233.777 39.84 233.461 39.904 233.165 40.032C232.869 40.16 232.605 40.304 232.373 40.464L231.989 39.78C232.261 39.604 232.593 39.436 232.985 39.276C233.385 39.108 233.817 39.024 234.281 39.024C234.993 39.024 235.509 39.244 235.829 39.684C236.149 40.116 236.309 40.696 236.309 41.424L236.309 45L235.493 45L235.409 44.304L235.373 44.304C235.101 44.528 234.801 44.724 234.473 44.892C234.153 45.06 233.809 45.144 233.441 45.144ZM233.729 44.352C234.009 44.352 234.273 44.284 234.521 44.148C234.769 44.012 235.033 43.82 235.313 43.572L235.313 41.952C234.345 42.072 233.665 42.252 233.273 42.492C232.889 42.732 232.697 43.04 232.697 43.416C232.697 43.744 232.797 43.984 232.997 44.136C233.197 44.28 233.441 44.352 233.729 44.352ZM240.448 45.144C239.936 45.144 239.472 45.024 239.056 44.784C238.64 44.544 238.312 44.196 238.072 43.74C237.832 43.284 237.712 42.736 237.712 42.096C237.712 41.44 237.84 40.884 238.096 40.428C238.36 39.972 238.704 39.624 239.128 39.384C239.56 39.144 240.024 39.024 240.52 39.024C240.904 39.024 241.232 39.092 241.504 39.228C241.784 39.364 242.024 39.524 242.224 39.708L241.72 40.356C241.552 40.204 241.372 40.08 241.18 39.984C240.996 39.888 240.788 39.84 240.556 39.84C240.204 39.84 239.888 39.936 239.608 40.128C239.336 40.312 239.12 40.576 238.96 40.92C238.808 41.256 238.732 41.648 238.732 42.096C238.732 42.76 238.896 43.3 239.224 43.716C239.56 44.124 239.996 44.328 240.532 44.328C240.804 44.328 241.056 44.272 241.288 44.16C241.52 44.04 241.724 43.9 241.9 43.74L242.332 44.4C242.068 44.632 241.776 44.816 241.456 44.952C241.136 45.08 240.8 45.144 240.448 45.144ZM243.617 45L243.617 36.456L244.589 36.456L244.589 42.24L244.625 42.24L247.109 39.168L248.201 39.168L246.245 41.508L248.465 45L247.385 45L245.681 42.192L244.589 43.464L244.589 45L243.617 45ZM248.539 42.372L248.539 41.616L251.299 41.616L251.299 42.372L248.539 42.372ZM254.838 45.144C254.286 45.144 253.774 45.04 253.302 44.832C252.83 44.616 252.422 44.332 252.078 43.98L252.678 43.284C252.958 43.58 253.286 43.82 253.662 44.004C254.046 44.18 254.442 44.268 254.85 44.268C255.37 44.268 255.774 44.152 256.062 43.92C256.35 43.68 256.494 43.368 256.494 42.984C256.494 42.712 256.434 42.496 256.314 42.336C256.202 42.176 256.046 42.04 255.846 41.928C255.654 41.816 255.434 41.704 255.186 41.592L254.058 41.1C253.81 40.996 253.562 40.86 253.314 40.692C253.074 40.524 252.87 40.308 252.702 40.044C252.542 39.78 252.462 39.456 252.462 39.072C252.462 38.672 252.566 38.316 252.774 38.004C252.99 37.684 253.286 37.436 253.662 37.26C254.038 37.076 254.462 36.984 254.934 36.984C255.406 36.984 255.842 37.076 256.242 37.26C256.642 37.436 256.982 37.668 257.262 37.956L256.722 38.604C256.482 38.372 256.214 38.192 255.918 38.064C255.63 37.928 255.302 37.86 254.934 37.86C254.494 37.86 254.138 37.964 253.866 38.172C253.602 38.38 253.47 38.66 253.47 39.012C253.47 39.26 253.534 39.468 253.662 39.636C253.798 39.796 253.966 39.928 254.166 40.032C254.366 40.136 254.57 40.232 254.778 40.32L255.894 40.8C256.198 40.928 256.47 41.084 256.71 41.268C256.958 41.444 257.154 41.664 257.298 41.928C257.442 42.184 257.514 42.508 257.514 42.9C257.514 43.316 257.406 43.696 257.19 44.04C256.974 44.376 256.666 44.644 256.266 44.844C255.866 45.044 255.39 45.144 254.838 45.144ZM261.272 45.144C260.76 45.144 260.296 45.024 259.88 44.784C259.464 44.544 259.136 44.196 258.896 43.74C258.656 43.284 258.536 42.736 258.536 42.096C258.536 41.44 258.664 40.884 258.92 40.428C259.184 39.972 259.528 39.624 259.952 39.384C260.384 39.144 260.848 39.024 261.344 39.024C261.728 39.024 262.056 39.092 262.328 39.228C262.608 39.364 262.848 39.524 263.048 39.708L262.544 40.356C262.376 40.204 262.196 40.08 262.004 39.984C261.82 39.888 261.612 39.84 261.38 39.84C261.028 39.84 260.712 39.936 260.432 40.128C260.16 40.312 259.944 40.576 259.784 40.92C259.632 41.256 259.556 41.648 259.556 42.096C259.556 42.76 259.72 43.3 260.048 43.716C260.384 44.124 260.82 44.328 261.356 44.328C261.628 44.328 261.88 44.272 262.112 44.16C262.344 44.04 262.548 43.9 262.724 43.74L263.156 44.4C262.892 44.632 262.6 44.816 262.28 44.952C261.96 45.08 261.624 45.144 261.272 45.144ZM264.441 45L264.441 36.456L265.425 36.456L265.425 38.784L265.389 39.984C265.669 39.72 265.961 39.496 266.265 39.312C266.577 39.12 266.933 39.024 267.333 39.024C267.949 39.024 268.397 39.22 268.677 39.612C268.965 39.996 269.109 40.56 269.109 41.304L269.109 45L268.125 45L268.125 41.436C268.125 40.892 268.037 40.496 267.861 40.248C267.685 40 267.405 39.876 267.021 39.876C266.725 39.876 266.457 39.952 266.217 40.104C265.985 40.256 265.721 40.48 265.425 40.776L265.425 45L264.441 45ZM273.236 45.144C272.764 45.144 272.32 45.024 271.904 44.784C271.496 44.544 271.164 44.196 270.908 43.74C270.66 43.284 270.536 42.736 270.536 42.096C270.536 41.44 270.66 40.884 270.908 40.428C271.164 39.972 271.496 39.624 271.904 39.384C272.32 39.144 272.764 39.024 273.236 39.024C273.716 39.024 274.16 39.144 274.568 39.384C274.976 39.624 275.304 39.972 275.552 40.428C275.808 40.884 275.936 41.44 275.936 42.096C275.936 42.736 275.808 43.284 275.552 43.74C275.304 44.196 274.976 44.544 274.568 44.784C274.16 45.024 273.716 45.144 273.236 45.144ZM273.236 44.328C273.74 44.328 274.144 44.124 274.448 43.716C274.76 43.3 274.916 42.76 274.916 42.096C274.916 41.424 274.76 40.88 274.448 40.464C274.144 40.048 273.74 39.84 273.236 39.84C272.74 39.84 272.336 40.048 272.024 40.464C271.712 40.88 271.556 41.424 271.556 42.096C271.556 42.76 271.712 43.3 272.024 43.716C272.336 44.124 272.74 44.328 273.236 44.328ZM278.516 45.144C278.148 45.144 277.88 45.032 277.712 44.808C277.552 44.576 277.472 44.248 277.472 43.824L277.472 36.456L278.456 36.456L278.456 43.896C278.456 44.048 278.484 44.16 278.54 44.232C278.596 44.296 278.66 44.328 278.732 44.328C278.764 44.328 278.792 44.328 278.816 44.328C278.848 44.32 278.892 44.312 278.948 44.304L279.08 45.048C279.016 45.08 278.94 45.104 278.852 45.12C278.764 45.136 278.652 45.144 278.516 45.144ZM282.895 45.144C282.375 45.144 281.903 45.024 281.479 44.784C281.055 44.536 280.719 44.184 280.471 43.728C280.223 43.272 280.099 42.728 280.099 42.096C280.099 41.456 280.223 40.908 280.471 40.452C280.727 39.996 281.055 39.644 281.455 39.396C281.855 39.148 282.275 39.024 282.715 39.024C283.459 39.024 284.031 39.272 284.431 39.768C284.839 40.264 285.043 40.928 285.043 41.76C285.043 41.864 285.039 41.968 285.031 42.072C285.031 42.168 285.023 42.252 285.007 42.324L281.071 42.324C281.111 42.94 281.303 43.432 281.647 43.8C281.999 44.168 282.455 44.352 283.015 44.352C283.295 44.352 283.551 44.312 283.783 44.232C284.023 44.144 284.251 44.032 284.467 43.896L284.815 44.544C284.567 44.704 284.283 44.844 283.963 44.964C283.651 45.084 283.295 45.144 282.895 45.144ZM281.059 41.616L284.179 41.616C284.179 41.024 284.051 40.576 283.795 40.272C283.547 39.96 283.195 39.804 282.739 39.804C282.331 39.804 281.963 39.964 281.635 40.284C281.315 40.596 281.123 41.04 281.059 41.616ZM288.008 45.144C287.592 45.144 287.196 45.068 286.82 44.916C286.444 44.756 286.116 44.564 285.836 44.34L286.328 43.68C286.584 43.88 286.848 44.048 287.12 44.184C287.392 44.312 287.7 44.376 288.044 44.376C288.428 44.376 288.716 44.288 288.908 44.112C289.1 43.928 289.196 43.712 289.196 43.464C289.196 43.264 289.128 43.096 288.992 42.96C288.864 42.824 288.696 42.712 288.488 42.624C288.288 42.528 288.08 42.44 287.864 42.36C287.592 42.256 287.324 42.14 287.06 42.012C286.796 41.876 286.58 41.704 286.412 41.496C286.244 41.28 286.16 41.008 286.16 40.68C286.16 40.208 286.336 39.816 286.688 39.504C287.048 39.184 287.544 39.024 288.176 39.024C288.536 39.024 288.872 39.088 289.184 39.216C289.496 39.344 289.764 39.5 289.988 39.684L289.508 40.308C289.308 40.156 289.1 40.032 288.884 39.936C288.668 39.84 288.432 39.792 288.176 39.792C287.808 39.792 287.536 39.876 287.36 40.044C287.192 40.212 287.108 40.408 287.108 40.632C287.108 40.816 287.168 40.968 287.288 41.088C287.408 41.2 287.564 41.3 287.756 41.388C287.948 41.468 288.152 41.552 288.368 41.64C288.648 41.744 288.924 41.864 289.196 42C289.468 42.128 289.692 42.304 289.868 42.528C290.052 42.744 290.144 43.036 290.144 43.404C290.144 43.716 290.06 44.004 289.892 44.268C289.732 44.532 289.492 44.744 289.172 44.904C288.86 45.064 288.472 45.144 288.008 45.144ZM295.75 45.144C295.126 45.144 294.69 44.964 294.442 44.604C294.202 44.244 294.082 43.776 294.082 43.2L294.082 39.972L293.218 39.972L293.218 39.228L294.13 39.168L294.25 37.536L295.078 37.536L295.078 39.168L296.65 39.168L296.65 39.972L295.078 39.972L295.078 43.212C295.078 43.572 295.142 43.852 295.27 44.052C295.406 44.244 295.642 44.34 295.978 44.34C296.082 44.34 296.194 44.324 296.314 44.292C296.434 44.252 296.542 44.216 296.638 44.184L296.83 44.928C296.67 44.984 296.494 45.032 296.302 45.072C296.118 45.12 295.934 45.144 295.75 45.144ZM297.968 45L297.968 36.456L298.952 36.456L298.952 38.784L298.916 39.984C299.196 39.72 299.488 39.496 299.792 39.312C300.104 39.12 300.46 39.024 300.86 39.024C301.476 39.024 301.924 39.22 302.204 39.612C302.492 39.996 302.636 40.56 302.636 41.304L302.636 45L301.652 45L301.652 41.436C301.652 40.892 301.564 40.496 301.388 40.248C301.212 40 300.932 39.876 300.548 39.876C300.252 39.876 299.984 39.952 299.744 40.104C299.512 40.256 299.248 40.48 298.952 40.776L298.952 45L297.968 45ZM306.86 45.144C306.34 45.144 305.868 45.024 305.444 44.784C305.02 44.536 304.684 44.184 304.436 43.728C304.188 43.272 304.064 42.728 304.064 42.096C304.064 41.456 304.188 40.908 304.436 40.452C304.692 39.996 305.02 39.644 305.42 39.396C305.82 39.148 306.24 39.024 306.68 39.024C307.424 39.024 307.996 39.272 308.396 39.768C308.804 40.264 309.008 40.928 309.008 41.76C309.008 41.864 309.004 41.968 308.996 42.072C308.996 42.168 308.988 42.252 308.972 42.324L305.036 42.324C305.076 42.94 305.268 43.432 305.612 43.8C305.964 44.168 306.42 44.352 306.98 44.352C307.26 44.352 307.516 44.312 307.748 44.232C307.988 44.144 308.216 44.032 308.432 43.896L308.78 44.544C308.532 44.704 308.248 44.844 307.928 44.964C307.616 45.084 307.26 45.144 306.86 45.144ZM305.024 41.616L308.144 41.616C308.144 41.024 308.016 40.576 307.76 40.272C307.512 39.96 307.16 39.804 306.704 39.804C306.296 39.804 305.928 39.964 305.6 40.284C305.28 40.596 305.088 41.04 305.024 41.616ZM312.717 45.144C312.245 45.144 311.801 45.024 311.385 44.784C310.977 44.544 310.645 44.196 310.389 43.74C310.141 43.284 310.017 42.736 310.017 42.096C310.017 41.44 310.141 40.884 310.389 40.428C310.645 39.972 310.977 39.624 311.385 39.384C311.801 39.144 312.245 39.024 312.717 39.024C313.197 39.024 313.641 39.144 314.049 39.384C314.457 39.624 314.785 39.972 315.033 40.428C315.289 40.884 315.417 41.44 315.417 42.096C315.417 42.736 315.289 43.284 315.033 43.74C314.785 44.196 314.457 44.544 314.049 44.784C313.641 45.024 313.197 45.144 312.717 45.144ZM312.717 44.328C313.221 44.328 313.625 44.124 313.929 43.716C314.241 43.3 314.397 42.76 314.397 42.096C314.397 41.424 314.241 40.88 313.929 40.464C313.625 40.048 313.221 39.84 312.717 39.84C312.221 39.84 311.817 40.048 311.505 40.464C311.193 40.88 311.037 41.424 311.037 42.096C311.037 42.76 311.193 43.3 311.505 43.716C311.817 44.124 312.221 44.328 312.717 44.328ZM316.953 45L316.953 39.168L317.769 39.168L317.853 40.224L317.889 40.224C318.089 39.856 318.333 39.564 318.621 39.348C318.909 39.132 319.217 39.024 319.545 39.024C319.777 39.024 319.985 39.064 320.169 39.144L319.977 40.008C319.881 39.976 319.793 39.952 319.713 39.936C319.633 39.92 319.533 39.912 319.413 39.912C319.165 39.912 318.905 40.012 318.633 40.212C318.369 40.412 318.137 40.76 317.937 41.256L317.937 45L316.953 45ZM323.36 45.144C322.84 45.144 322.368 45.024 321.944 44.784C321.52 44.536 321.184 44.184 320.936 43.728C320.688 43.272 320.564 42.728 320.564 42.096C320.564 41.456 320.688 40.908 320.936 40.452C321.192 39.996 321.52 39.644 321.92 39.396C322.32 39.148 322.74 39.024 323.18 39.024C323.924 39.024 324.496 39.272 324.896 39.768C325.304 40.264 325.508 40.928 325.508 41.76C325.508 41.864 325.504 41.968 325.496 42.072C325.496 42.168 325.488 42.252 325.472 42.324L321.536 42.324C321.576 42.94 321.768 43.432 322.112 43.8C322.464 44.168 322.92 44.352 323.48 44.352C323.76 44.352 324.016 44.312 324.248 44.232C324.488 44.144 324.716 44.032 324.932 43.896L325.28 44.544C325.032 44.704 324.748 44.844 324.428 44.964C324.116 45.084 323.76 45.144 323.36 45.144ZM321.524 41.616L324.644 41.616C324.644 41.024 324.516 40.576 324.26 40.272C324.012 39.96 323.66 39.804 323.204 39.804C322.796 39.804 322.428 39.964 322.1 40.284C321.78 40.596 321.588 41.04 321.524 41.616ZM328.668 45.144C328.044 45.144 327.608 44.964 327.36 44.604C327.12 44.244 327 43.776 327 43.2L327 39.972L326.136 39.972L326.136 39.228L327.048 39.168L327.168 37.536L327.996 37.536L327.996 39.168L329.568 39.168L329.568 39.972L327.996 39.972L327.996 43.212C327.996 43.572 328.06 43.852 328.188 44.052C328.324 44.244 328.56 44.34 328.896 44.34C329 44.34 329.112 44.324 329.232 44.292C329.352 44.252 329.46 44.216 329.556 44.184L329.748 44.928C329.588 44.984 329.412 45.032 329.22 45.072C329.036 45.12 328.852 45.144 328.668 45.144ZM330.886 45L330.886 39.168L331.87 39.168L331.87 45L330.886 45ZM331.39 37.968C331.198 37.968 331.038 37.912 330.91 37.8C330.79 37.68 330.73 37.52 330.73 37.32C330.73 37.128 330.79 36.972 330.91 36.852C331.038 36.732 331.198 36.672 331.39 36.672C331.582 36.672 331.738 36.732 331.858 36.852C331.986 36.972 332.05 37.128 332.05 37.32C332.05 37.52 331.986 37.68 331.858 37.8C331.738 37.912 331.582 37.968 331.39 37.968ZM336.143 45.144C335.631 45.144 335.167 45.024 334.751 44.784C334.335 44.544 334.007 44.196 333.767 43.74C333.527 43.284 333.407 42.736 333.407 42.096C333.407 41.44 333.535 40.884 333.791 40.428C334.055 39.972 334.399 39.624 334.823 39.384C335.255 39.144 335.719 39.024 336.215 39.024C336.599 39.024 336.927 39.092 337.199 39.228C337.479 39.364 337.719 39.524 337.919 39.708L337.415 40.356C337.247 40.204 337.067 40.08 336.875 39.984C336.691 39.888 336.483 39.84 336.251 39.84C335.899 39.84 335.583 39.936 335.303 40.128C335.031 40.312 334.815 40.576 334.655 40.92C334.503 41.256 334.427 41.648 334.427 42.096C334.427 42.76 334.591 43.3 334.919 43.716C335.255 44.124 335.691 44.328 336.227 44.328C336.499 44.328 336.751 44.272 336.983 44.16C337.215 44.04 337.419 43.9 337.595 43.74L338.027 44.4C337.763 44.632 337.471 44.816 337.151 44.952C336.831 45.08 336.495 45.144 336.143 45.144ZM340.539 45.144C340.051 45.144 339.643 45 339.315 44.712C338.995 44.416 338.835 44.008 338.835 43.488C338.835 42.848 339.119 42.36 339.687 42.024C340.263 41.68 341.171 41.44 342.411 41.304C342.411 41.056 342.375 40.82 342.303 40.596C342.239 40.372 342.119 40.192 341.943 40.056C341.775 39.912 341.531 39.84 341.211 39.84C340.875 39.84 340.559 39.904 340.263 40.032C339.967 40.16 339.703 40.304 339.471 40.464L339.087 39.78C339.359 39.604 339.691 39.436 340.083 39.276C340.483 39.108 340.915 39.024 341.379 39.024C342.091 39.024 342.607 39.244 342.927 39.684C343.247 40.116 343.407 40.696 343.407 41.424L343.407 45L342.591 45L342.507 44.304L342.471 44.304C342.199 44.528 341.899 44.724 341.571 44.892C341.251 45.06 340.907 45.144 340.539 45.144ZM340.827 44.352C341.107 44.352 341.371 44.284 341.619 44.148C341.867 44.012 342.131 43.82 342.411 43.572L342.411 41.952C341.443 42.072 340.763 42.252 340.371 42.492C339.987 42.732 339.795 43.04 339.795 43.416C339.795 43.744 339.895 43.984 340.095 44.136C340.295 44.28 340.539 44.352 340.827 44.352ZM346.286 45.144C345.918 45.144 345.65 45.032 345.482 44.808C345.322 44.576 345.242 44.248 345.242 43.824L345.242 36.456L346.226 36.456L346.226 43.896C346.226 44.048 346.254 44.16 346.31 44.232C346.366 44.296 346.43 44.328 346.502 44.328C346.534 44.328 346.562 44.328 346.586 44.328C346.618 44.32 346.662 44.312 346.718 44.304L346.85 45.048C346.786 45.08 346.71 45.104 346.622 45.12C346.534 45.136 346.422 45.144 346.286 45.144ZM351.963 45L349.863 39.168L350.883 39.168L351.987 42.48C352.075 42.768 352.163 43.056 352.251 43.344C352.347 43.632 352.439 43.916 352.527 44.196L352.575 44.196C352.663 43.916 352.751 43.632 352.839 43.344C352.935 43.056 353.023 42.768 353.103 42.48L354.207 39.168L355.179 39.168L353.115 45L351.963 45ZM357.414 45.144C356.926 45.144 356.518 45 356.19 44.712C355.87 44.416 355.71 44.008 355.71 43.488C355.71 42.848 355.994 42.36 356.562 42.024C357.138 41.68 358.046 41.44 359.286 41.304C359.286 41.056 359.25 40.82 359.178 40.596C359.114 40.372 358.994 40.192 358.818 40.056C358.65 39.912 358.406 39.84 358.086 39.84C357.75 39.84 357.434 39.904 357.138 40.032C356.842 40.16 356.578 40.304 356.346 40.464L355.962 39.78C356.234 39.604 356.566 39.436 356.958 39.276C357.358 39.108 357.79 39.024 358.254 39.024C358.966 39.024 359.482 39.244 359.802 39.684C360.122 40.116 360.282 40.696 360.282 41.424L360.282 45L359.466 45L359.382 44.304L359.346 44.304C359.074 44.528 358.774 44.724 358.446 44.892C358.126 45.06 357.782 45.144 357.414 45.144ZM357.702 44.352C357.982 44.352 358.246 44.284 358.494 44.148C358.742 44.012 359.006 43.82 359.286 43.572L359.286 41.952C358.318 42.072 357.638 42.252 357.246 42.492C356.862 42.732 356.67 43.04 356.67 43.416C356.67 43.744 356.77 43.984 356.97 44.136C357.17 44.28 357.414 44.352 357.702 44.352ZM363.161 45.144C362.793 45.144 362.525 45.032 362.357 44.808C362.197 44.576 362.117 44.248 362.117 43.824L362.117 36.456L363.101 36.456L363.101 43.896C363.101 44.048 363.129 44.16 363.185 44.232C363.241 44.296 363.305 44.328 363.377 44.328C363.409 44.328 363.437 44.328 363.461 44.328C363.493 44.32 363.537 44.312 363.593 44.304L363.725 45.048C363.661 45.08 363.585 45.104 363.497 45.12C363.409 45.136 363.297 45.144 363.161 45.144ZM366.879 45.144C366.263 45.144 365.811 44.952 365.523 44.568C365.235 44.176 365.091 43.608 365.091 42.864L365.091 39.168L366.087 39.168L366.087 42.732C366.087 43.276 366.171 43.672 366.339 43.92C366.515 44.168 366.795 44.292 367.179 44.292C367.483 44.292 367.751 44.216 367.983 44.064C368.223 43.904 368.479 43.652 368.751 43.308L368.751 39.168L369.735 39.168L369.735 45L368.919 45L368.835 44.088L368.799 44.088C368.527 44.408 368.239 44.664 367.935 44.856C367.631 45.048 367.279 45.144 366.879 45.144ZM374.067 45.144C373.547 45.144 373.075 45.024 372.651 44.784C372.227 44.536 371.891 44.184 371.643 43.728C371.395 43.272 371.271 42.728 371.271 42.096C371.271 41.456 371.395 40.908 371.643 40.452C371.899 39.996 372.227 39.644 372.627 39.396C373.027 39.148 373.447 39.024 373.887 39.024C374.631 39.024 375.203 39.272 375.603 39.768C376.011 40.264 376.215 40.928 376.215 41.76C376.215 41.864 376.211 41.968 376.203 42.072C376.203 42.168 376.195 42.252 376.179 42.324L372.243 42.324C372.283 42.94 372.475 43.432 372.819 43.8C373.171 44.168 373.627 44.352 374.187 44.352C374.467 44.352 374.723 44.312 374.955 44.232C375.195 44.144 375.423 44.032 375.639 43.896L375.987 44.544C375.739 44.704 375.455 44.844 375.135 44.964C374.823 45.084 374.467 45.144 374.067 45.144ZM372.231 41.616L375.351 41.616C375.351 41.024 375.223 40.576 374.967 40.272C374.719 39.96 374.367 39.804 373.911 39.804C373.503 39.804 373.135 39.964 372.807 40.284C372.487 40.596 372.295 41.04 372.231 41.616ZM224.564 60.144C224.292 60.144 224.008 60.08 223.712 59.952C223.424 59.816 223.152 59.632 222.896 59.4L222.86 59.4L222.776 60L221.984 60L221.984 51.456L222.968 51.456L222.968 53.784L222.944 54.84C223.208 54.608 223.496 54.416 223.808 54.264C224.128 54.104 224.448 54.024 224.768 54.024C225.528 54.024 226.104 54.292 226.496 54.828C226.888 55.364 227.084 56.084 227.084 56.988C227.084 57.652 226.964 58.22 226.724 58.692C226.492 59.164 226.184 59.524 225.8 59.772C225.424 60.02 225.012 60.144 224.564 60.144ZM224.396 59.316C224.876 59.316 225.272 59.112 225.584 58.704C225.904 58.288 226.064 57.72 226.064 57C226.064 56.36 225.944 55.844 225.704 55.452C225.472 55.052 225.08 54.852 224.528 54.852C224.28 54.852 224.028 54.92 223.772 55.056C223.516 55.192 223.248 55.388 222.968 55.644L222.968 58.704C223.224 58.928 223.476 59.088 223.724 59.184C223.98 59.272 224.204 59.316 224.396 59.316ZM230.981 60.144C230.461 60.144 229.989 60.024 229.565 59.784C229.141 59.536 228.805 59.184 228.557 58.728C228.309 58.272 228.185 57.728 228.185 57.096C228.185 56.456 228.309 55.908 228.557 55.452C228.813 54.996 229.141 54.644 229.541 54.396C229.941 54.148 230.361 54.024 230.801 54.024C231.545 54.024 232.117 54.272 232.517 54.768C232.925 55.264 233.129 55.928 233.129 56.76C233.129 56.864 233.125 56.968 233.117 57.072C233.117 57.168 233.109 57.252 233.093 57.324L229.157 57.324C229.197 57.94 229.389 58.432 229.733 58.8C230.085 59.168 230.541 59.352 231.101 59.352C231.381 59.352 231.637 59.312 231.869 59.232C232.109 59.144 232.337 59.032 232.553 58.896L232.901 59.544C232.653 59.704 232.369 59.844 232.049 59.964C231.737 60.084 231.381 60.144 230.981 60.144ZM229.145 56.616L232.265 56.616C232.265 56.024 232.137 55.576 231.881 55.272C231.633 54.96 231.281 54.804 230.825 54.804C230.417 54.804 230.049 54.964 229.721 55.284C229.401 55.596 229.209 56.04 229.145 56.616ZM234.738 60L234.738 54.972L233.946 54.972L233.946 54.228L234.738 54.168L234.738 53.244C234.738 52.652 234.874 52.184 235.146 51.84C235.426 51.488 235.858 51.312 236.442 51.312C236.626 51.312 236.802 51.332 236.97 51.372C237.138 51.404 237.286 51.448 237.414 51.504L237.198 52.26C236.982 52.164 236.762 52.116 236.538 52.116C235.994 52.116 235.722 52.492 235.722 53.244L235.722 54.168L236.958 54.168L236.958 54.972L235.722 54.972L235.722 60L234.738 60ZM240.225 60.144C239.753 60.144 239.309 60.024 238.893 59.784C238.485 59.544 238.153 59.196 237.897 58.74C237.649 58.284 237.525 57.736 237.525 57.096C237.525 56.44 237.649 55.884 237.897 55.428C238.153 54.972 238.485 54.624 238.893 54.384C239.309 54.144 239.753 54.024 240.225 54.024C240.705 54.024 241.149 54.144 241.557 54.384C241.965 54.624 242.293 54.972 242.541 55.428C242.797 55.884 242.925 56.44 242.925 57.096C242.925 57.736 242.797 58.284 242.541 58.74C242.293 59.196 241.965 59.544 241.557 59.784C241.149 60.024 240.705 60.144 240.225 60.144ZM240.225 59.328C240.729 59.328 241.133 59.124 241.437 58.716C241.749 58.3 241.905 57.76 241.905 57.096C241.905 56.424 241.749 55.88 241.437 55.464C241.133 55.048 240.729 54.84 240.225 54.84C239.729 54.84 239.325 55.048 239.013 55.464C238.701 55.88 238.545 56.424 238.545 57.096C238.545 57.76 238.701 58.3 239.013 58.716C239.325 59.124 239.729 59.328 240.225 59.328ZM244.461 60L244.461 54.168L245.277 54.168L245.361 55.224L245.397 55.224C245.597 54.856 245.841 54.564 246.129 54.348C246.417 54.132 246.725 54.024 247.053 54.024C247.285 54.024 247.493 54.064 247.677 54.144L247.485 55.008C247.389 54.976 247.301 54.952 247.221 54.936C247.141 54.92 247.041 54.912 246.921 54.912C246.673 54.912 246.413 55.012 246.141 55.212C245.877 55.412 245.645 55.76 245.445 56.256L245.445 60L244.461 60ZM250.868 60.144C250.348 60.144 249.876 60.024 249.452 59.784C249.028 59.536 248.692 59.184 248.444 58.728C248.196 58.272 248.072 57.728 248.072 57.096C248.072 56.456 248.196 55.908 248.444 55.452C248.7 54.996 249.028 54.644 249.428 54.396C249.828 54.148 250.248 54.024 250.688 54.024C251.432 54.024 252.004 54.272 252.404 54.768C252.812 55.264 253.016 55.928 253.016 56.76C253.016 56.864 253.012 56.968 253.004 57.072C253.004 57.168 252.996 57.252 252.98 57.324L249.044 57.324C249.084 57.94 249.276 58.432 249.62 58.8C249.972 59.168 250.428 59.352 250.988 59.352C251.268 59.352 251.524 59.312 251.756 59.232C251.996 59.144 252.224 59.032 252.44 58.896L252.788 59.544C252.54 59.704 252.256 59.844 251.936 59.964C251.624 60.084 251.268 60.144 250.868 60.144ZM249.032 56.616L252.152 56.616C252.152 56.024 252.024 55.576 251.768 55.272C251.52 54.96 251.168 54.804 250.712 54.804C250.304 54.804 249.936 54.964 249.608 55.284C249.288 55.596 249.096 56.04 249.032 56.616ZM259.223 60.144C258.703 60.144 258.231 60.024 257.807 59.784C257.383 59.536 257.047 59.184 256.799 58.728C256.551 58.272 256.427 57.728 256.427 57.096C256.427 56.456 256.551 55.908 256.799 55.452C257.055 54.996 257.383 54.644 257.783 54.396C258.183 54.148 258.603 54.024 259.043 54.024C259.787 54.024 260.359 54.272 260.759 54.768C261.167 55.264 261.371 55.928 261.371 56.76C261.371 56.864 261.367 56.968 261.359 57.072C261.359 57.168 261.351 57.252 261.335 57.324L257.399 57.324C257.439 57.94 257.631 58.432 257.975 58.8C258.327 59.168 258.783 59.352 259.343 59.352C259.623 59.352 259.879 59.312 260.111 59.232C260.351 59.144 260.579 59.032 260.795 58.896L261.143 59.544C260.895 59.704 260.611 59.844 260.291 59.964C259.979 60.084 259.623 60.144 259.223 60.144ZM257.387 56.616L260.507 56.616C260.507 56.024 260.379 55.576 260.123 55.272C259.875 54.96 259.523 54.804 259.067 54.804C258.659 54.804 258.291 54.964 257.963 55.284C257.643 55.596 257.451 56.04 257.387 56.616ZM261.914 60L263.822 56.952L262.058 54.168L263.126 54.168L263.906 55.452C263.994 55.604 264.086 55.764 264.182 55.932C264.278 56.1 264.378 56.264 264.482 56.424L264.53 56.424C264.618 56.264 264.706 56.1 264.794 55.932C264.882 55.764 264.97 55.604 265.058 55.452L265.766 54.168L266.798 54.168L265.034 57.06L266.93 60L265.862 60L265.01 58.644C264.906 58.468 264.802 58.292 264.698 58.116C264.594 57.94 264.486 57.768 264.374 57.6L264.326 57.6C264.222 57.768 264.122 57.94 264.026 58.116C263.93 58.284 263.834 58.46 263.738 58.644L262.946 60L261.914 60ZM268.086 62.46L268.086 54.168L268.902 54.168L268.986 54.84L269.022 54.84C269.286 54.616 269.574 54.424 269.886 54.264C270.206 54.104 270.538 54.024 270.882 54.024C271.634 54.024 272.206 54.296 272.598 54.84C272.99 55.376 273.186 56.096 273.186 57C273.186 57.656 273.066 58.22 272.826 58.692C272.594 59.164 272.286 59.524 271.902 59.772C271.526 60.02 271.114 60.144 270.666 60.144C270.394 60.144 270.122 60.084 269.85 59.964C269.586 59.844 269.318 59.68 269.046 59.472L269.07 60.492L269.07 62.46L268.086 62.46ZM270.498 59.316C270.978 59.316 271.374 59.112 271.686 58.704C272.006 58.288 272.166 57.72 272.166 57C272.166 56.36 272.046 55.844 271.806 55.452C271.574 55.052 271.182 54.852 270.63 54.852C270.382 54.852 270.13 54.92 269.874 55.056C269.626 55.192 269.358 55.388 269.07 55.644L269.07 58.704C269.334 58.928 269.59 59.088 269.838 59.184C270.086 59.272 270.306 59.316 270.498 59.316ZM274.742 60L274.742 54.168L275.726 54.168L275.726 60L274.742 60ZM275.246 52.968C275.054 52.968 274.894 52.912 274.766 52.8C274.646 52.68 274.586 52.52 274.586 52.32C274.586 52.128 274.646 51.972 274.766 51.852C274.894 51.732 275.054 51.672 275.246 51.672C275.438 51.672 275.594 51.732 275.714 51.852C275.842 51.972 275.906 52.128 275.906 52.32C275.906 52.52 275.842 52.68 275.714 52.8C275.594 52.912 275.438 52.968 275.246 52.968ZM277.695 60L277.695 54.168L278.511 54.168L278.595 55.224L278.631 55.224C278.831 54.856 279.075 54.564 279.363 54.348C279.651 54.132 279.959 54.024 280.287 54.024C280.519 54.024 280.727 54.064 280.911 54.144L280.719 55.008C280.623 54.976 280.535 54.952 280.455 54.936C280.375 54.92 280.275 54.912 280.155 54.912C279.907 54.912 279.647 55.012 279.375 55.212C279.111 55.412 278.879 55.76 278.679 56.256L278.679 60L277.695 60ZM282.906 60.144C282.418 60.144 282.01 60 281.682 59.712C281.362 59.416 281.202 59.008 281.202 58.488C281.202 57.848 281.486 57.36 282.054 57.024C282.63 56.68 283.538 56.44 284.778 56.304C284.778 56.056 284.742 55.82 284.67 55.596C284.606 55.372 284.486 55.192 284.31 55.056C284.142 54.912 283.898 54.84 283.578 54.84C283.242 54.84 282.926 54.904 282.63 55.032C282.334 55.16 282.07 55.304 281.838 55.464L281.454 54.78C281.726 54.604 282.058 54.436 282.45 54.276C282.85 54.108 283.282 54.024 283.746 54.024C284.458 54.024 284.974 54.244 285.294 54.684C285.614 55.116 285.774 55.696 285.774 56.424L285.774 60L284.958 60L284.874 59.304L284.838 59.304C284.566 59.528 284.266 59.724 283.938 59.892C283.618 60.06 283.274 60.144 282.906 60.144ZM283.194 59.352C283.474 59.352 283.738 59.284 283.986 59.148C284.234 59.012 284.498 58.82 284.778 58.572L284.778 56.952C283.81 57.072 283.13 57.252 282.738 57.492C282.354 57.732 282.162 58.04 282.162 58.416C282.162 58.744 282.262 58.984 282.462 59.136C282.662 59.28 282.906 59.352 283.194 59.352ZM289.281 60.144C288.657 60.144 288.221 59.964 287.973 59.604C287.733 59.244 287.613 58.776 287.613 58.2L287.613 54.972L286.749 54.972L286.749 54.228L287.661 54.168L287.781 52.536L288.609 52.536L288.609 54.168L290.181 54.168L290.181 54.972L288.609 54.972L288.609 58.212C288.609 58.572 288.673 58.852 288.801 59.052C288.937 59.244 289.173 59.34 289.509 59.34C289.613 59.34 289.725 59.324 289.845 59.292C289.965 59.252 290.073 59.216 290.169 59.184L290.361 59.928C290.201 59.984 290.025 60.032 289.833 60.072C289.649 60.12 289.465 60.144 289.281 60.144ZM291.5 60L291.5 54.168L292.484 54.168L292.484 60L291.5 60ZM292.004 52.968C291.812 52.968 291.652 52.912 291.524 52.8C291.404 52.68 291.344 52.52 291.344 52.32C291.344 52.128 291.404 51.972 291.524 51.852C291.652 51.732 291.812 51.672 292.004 51.672C292.196 51.672 292.352 51.732 292.472 51.852C292.6 51.972 292.664 52.128 292.664 52.32C292.664 52.52 292.6 52.68 292.472 52.8C292.352 52.912 292.196 52.968 292.004 52.968ZM296.721 60.144C296.249 60.144 295.805 60.024 295.389 59.784C294.981 59.544 294.649 59.196 294.393 58.74C294.145 58.284 294.021 57.736 294.021 57.096C294.021 56.44 294.145 55.884 294.393 55.428C294.649 54.972 294.981 54.624 295.389 54.384C295.805 54.144 296.249 54.024 296.721 54.024C297.201 54.024 297.645 54.144 298.053 54.384C298.461 54.624 298.789 54.972 299.037 55.428C299.293 55.884 299.421 56.44 299.421 57.096C299.421 57.736 299.293 58.284 299.037 58.74C298.789 59.196 298.461 59.544 298.053 59.784C297.645 60.024 297.201 60.144 296.721 60.144ZM296.721 59.328C297.225 59.328 297.629 59.124 297.933 58.716C298.245 58.3 298.401 57.76 298.401 57.096C298.401 56.424 298.245 55.88 297.933 55.464C297.629 55.048 297.225 54.84 296.721 54.84C296.225 54.84 295.821 55.048 295.509 55.464C295.197 55.88 295.041 56.424 295.041 57.096C295.041 57.76 295.197 58.3 295.509 58.716C295.821 59.124 296.225 59.328 296.721 59.328ZM300.957 60L300.957 54.168L301.773 54.168L301.857 55.008L301.893 55.008C302.173 54.728 302.469 54.496 302.781 54.312C303.093 54.12 303.449 54.024 303.849 54.024C304.465 54.024 304.913 54.22 305.193 54.612C305.481 54.996 305.625 55.56 305.625 56.304L305.625 60L304.641 60L304.641 56.436C304.641 55.892 304.553 55.496 304.377 55.248C304.201 55 303.921 54.876 303.537 54.876C303.241 54.876 302.973 54.952 302.733 55.104C302.501 55.256 302.237 55.48 301.941 55.776L301.941 60L300.957 60Z" fill="black"/>
<path d="M444.393 191.144C443.865 191.144 443.353 191.044 442.857 190.844C442.369 190.644 441.937 190.36 441.561 189.992L442.377 189.044C442.657 189.308 442.977 189.524 443.337 189.692C443.697 189.852 444.057 189.932 444.417 189.932C444.865 189.932 445.205 189.84 445.437 189.656C445.669 189.472 445.785 189.228 445.785 188.924C445.785 188.596 445.669 188.36 445.437 188.216C445.213 188.072 444.925 187.924 444.573 187.772L443.493 187.304C443.237 187.192 442.985 187.048 442.737 186.872C442.497 186.696 442.297 186.472 442.137 186.2C441.985 185.928 441.909 185.6 441.909 185.216C441.909 184.8 442.021 184.428 442.245 184.1C442.477 183.764 442.789 183.5 443.181 183.308C443.581 183.108 444.037 183.008 444.549 183.008C445.005 183.008 445.445 183.1 445.869 183.284C446.293 183.46 446.657 183.7 446.961 184.004L446.253 184.892C446.005 184.684 445.741 184.52 445.461 184.4C445.189 184.28 444.885 184.22 444.549 184.22C444.181 184.22 443.881 184.304 443.649 184.472C443.425 184.632 443.313 184.856 443.313 185.144C443.313 185.344 443.369 185.512 443.481 185.648C443.601 185.776 443.757 185.888 443.949 185.984C444.141 186.072 444.345 186.16 444.561 186.248L445.629 186.692C446.093 186.892 446.473 187.156 446.769 187.484C447.065 187.804 447.213 188.248 447.213 188.816C447.213 189.24 447.101 189.628 446.877 189.98C446.653 190.332 446.329 190.616 445.905 190.832C445.489 191.04 444.985 191.144 444.393 191.144ZM450.28 191.144C449.6 191.144 449.116 190.948 448.828 190.556C448.548 190.156 448.408 189.64 448.408 189.008V186.2H447.568V185.168L448.48 185.108L448.648 183.5H449.8V185.108H451.3V186.2H449.8V189.008C449.8 189.696 450.076 190.04 450.628 190.04C450.732 190.04 450.84 190.028 450.952 190.004C451.064 189.972 451.16 189.94 451.24 189.908L451.48 190.928C451.32 190.984 451.136 191.032 450.928 191.072C450.728 191.12 450.512 191.144 450.28 191.144ZM454.765 191.144C454.277 191.144 453.821 191.024 453.397 190.784C452.973 190.536 452.629 190.184 452.365 189.728C452.101 189.264 451.969 188.708 451.969 188.06C451.969 187.404 452.101 186.848 452.365 186.392C452.629 185.928 452.973 185.576 453.397 185.336C453.821 185.088 454.277 184.964 454.765 184.964C455.261 184.964 455.721 185.088 456.145 185.336C456.569 185.576 456.913 185.928 457.177 186.392C457.441 186.848 457.573 187.404 457.573 188.06C457.573 188.708 457.441 189.264 457.177 189.728C456.913 190.184 456.569 190.536 456.145 190.784C455.721 191.024 455.261 191.144 454.765 191.144ZM454.765 190.016C455.197 190.016 455.537 189.836 455.785 189.476C456.033 189.116 456.157 188.644 456.157 188.06C456.157 187.468 456.033 186.992 455.785 186.632C455.537 186.272 455.197 186.092 454.765 186.092C454.333 186.092 453.993 186.272 453.745 186.632C453.505 186.992 453.385 187.468 453.385 188.06C453.385 188.644 453.505 189.116 453.745 189.476C453.993 189.836 454.333 190.016 454.765 190.016ZM461.399 191.144C460.863 191.144 460.379 191.024 459.947 190.784C459.523 190.536 459.183 190.184 458.927 189.728C458.679 189.264 458.555 188.708 458.555 188.06C458.555 187.404 458.691 186.848 458.963 186.392C459.235 185.928 459.595 185.576 460.043 185.336C460.499 185.088 460.987 184.964 461.507 184.964C461.883 184.964 462.211 185.028 462.491 185.156C462.771 185.284 463.019 185.44 463.235 185.624L462.563 186.524C462.411 186.388 462.255 186.284 462.095 186.212C461.935 186.132 461.763 186.092 461.579 186.092C461.107 186.092 460.719 186.272 460.415 186.632C460.119 186.992 459.971 187.468 459.971 188.06C459.971 188.644 460.115 189.116 460.403 189.476C460.699 189.836 461.079 190.016 461.543 190.016C461.775 190.016 461.991 189.968 462.191 189.872C462.399 189.768 462.587 189.648 462.755 189.512L463.319 190.424C463.047 190.664 462.743 190.844 462.407 190.964C462.071 191.084 461.735 191.144 461.399 191.144ZM464.481 191V182.528H465.837V187.82H465.873L468.057 185.108H469.569L467.553 187.508L469.773 191H468.273L466.761 188.444L465.837 189.5V191H464.481ZM473.153 193.328V185.108H474.293L474.389 185.732H474.437C474.685 185.524 474.961 185.344 475.265 185.192C475.577 185.04 475.893 184.964 476.213 184.964C476.949 184.964 477.517 185.236 477.917 185.78C478.325 186.324 478.529 187.052 478.529 187.964C478.529 188.636 478.409 189.212 478.169 189.692C477.929 190.164 477.617 190.524 477.233 190.772C476.857 191.02 476.449 191.144 476.009 191.144C475.753 191.144 475.497 191.088 475.241 190.976C474.985 190.856 474.737 190.696 474.497 190.496L474.533 191.48V193.328H473.153ZM475.721 190.004C476.113 190.004 476.441 189.832 476.705 189.488C476.969 189.144 477.101 188.64 477.101 187.976C477.101 187.384 477.001 186.924 476.801 186.596C476.601 186.268 476.277 186.104 475.829 186.104C475.413 186.104 474.981 186.324 474.533 186.764V189.512C474.749 189.688 474.957 189.816 475.157 189.896C475.357 189.968 475.545 190.004 475.721 190.004ZM479.927 191V185.108H481.067L481.163 186.152H481.211C481.419 185.768 481.671 185.476 481.967 185.276C482.263 185.068 482.567 184.964 482.879 184.964C483.159 184.964 483.383 185.004 483.551 185.084L483.311 186.284C483.207 186.252 483.111 186.228 483.023 186.212C482.935 186.196 482.827 186.188 482.699 186.188C482.467 186.188 482.223 186.28 481.967 186.464C481.711 186.64 481.491 186.952 481.307 187.4V191H479.927ZM484.403 191V185.108H485.783V191H484.403ZM485.099 184.076C484.851 184.076 484.651 184.004 484.499 183.86C484.347 183.716 484.271 183.524 484.271 183.284C484.271 183.052 484.347 182.864 484.499 182.72C484.651 182.576 484.851 182.504 485.099 182.504C485.347 182.504 485.547 182.576 485.699 182.72C485.851 182.864 485.927 183.052 485.927 183.284C485.927 183.524 485.851 183.716 485.699 183.86C485.547 184.004 485.347 184.076 485.099 184.076ZM490.004 191.144C489.468 191.144 488.984 191.024 488.552 190.784C488.128 190.536 487.788 190.184 487.532 189.728C487.284 189.264 487.16 188.708 487.16 188.06C487.16 187.404 487.296 186.848 487.568 186.392C487.84 185.928 488.2 185.576 488.648 185.336C489.104 185.088 489.592 184.964 490.112 184.964C490.488 184.964 490.816 185.028 491.096 185.156C491.376 185.284 491.624 185.44 491.84 185.624L491.168 186.524C491.016 186.388 490.86 186.284 490.7 186.212C490.54 186.132 490.368 186.092 490.184 186.092C489.712 186.092 489.324 186.272 489.02 186.632C488.724 186.992 488.576 187.468 488.576 188.06C488.576 188.644 488.72 189.116 489.008 189.476C489.304 189.836 489.684 190.016 490.148 190.016C490.38 190.016 490.596 189.968 490.796 189.872C491.004 189.768 491.192 189.648 491.36 189.512L491.924 190.424C491.652 190.664 491.348 190.844 491.012 190.964C490.676 191.084 490.34 191.144 490.004 191.144ZM495.314 191.144C494.77 191.144 494.278 191.024 493.838 190.784C493.398 190.536 493.05 190.184 492.794 189.728C492.538 189.264 492.41 188.708 492.41 188.06C492.41 187.42 492.538 186.868 492.794 186.404C493.058 185.94 493.398 185.584 493.814 185.336C494.23 185.088 494.666 184.964 495.122 184.964C495.658 184.964 496.106 185.084 496.466 185.324C496.826 185.556 497.098 185.884 497.282 186.308C497.466 186.724 497.558 187.208 497.558 187.76C497.558 188.048 497.538 188.272 497.498 188.432H493.754C493.818 188.952 494.006 189.356 494.318 189.644C494.63 189.932 495.022 190.076 495.494 190.076C495.75 190.076 495.986 190.04 496.202 189.968C496.426 189.888 496.646 189.78 496.862 189.644L497.33 190.508C497.05 190.692 496.738 190.844 496.394 190.964C496.05 191.084 495.69 191.144 495.314 191.144ZM493.742 187.496H496.358C496.358 187.04 496.258 186.684 496.058 186.428C495.858 186.164 495.558 186.032 495.158 186.032C494.814 186.032 494.506 186.16 494.234 186.416C493.97 186.664 493.806 187.024 493.742 187.496Z" fill="black"/>
<path d="M70.8929 184.192C69.8369 184.192 68.9942 183.733 68.3649 182.816C67.7462 181.898 67.4369 180.581 67.4369 178.864C67.4369 177.146 67.7462 175.845 68.3649 174.96C68.9942 174.074 69.8369 173.632 70.8929 173.632C71.9489 173.632 72.7862 174.074 73.4049 174.96C74.0342 175.845 74.3489 177.146 74.3489 178.864C74.3489 180.581 74.0342 181.898 73.4049 182.816C72.7862 183.733 71.9489 184.192 70.8929 184.192ZM70.8929 182.752C71.2235 182.752 71.5169 182.629 71.7729 182.384C72.0289 182.128 72.2262 181.717 72.3649 181.152C72.5142 180.586 72.5889 179.824 72.5889 178.864C72.5889 177.904 72.5142 177.146 72.3649 176.592C72.2262 176.037 72.0289 175.648 71.7729 175.424C71.5169 175.189 71.2235 175.072 70.8929 175.072C70.5729 175.072 70.2849 175.189 70.0289 175.424C69.7729 175.648 69.5702 176.037 69.4209 176.592C69.2715 177.146 69.1969 177.904 69.1969 178.864C69.1969 179.824 69.2715 180.586 69.4209 181.152C69.5702 181.717 69.7729 182.128 70.0289 182.384C70.2849 182.629 70.5729 182.752 70.8929 182.752Z" fill="black"/>
</g>
<defs>
<clipPath id="clip0_508_179">
<rect width="592" height="236" fill="white"/>
</clipPath>
</defs>
</svg>
