<svg width="592" height="239" viewBox="0 0 592 239" fill="none" xmlns="http://www.w3.org/2000/svg">
<path d="M180 189C180 189 199.5 189 257 189C314.5 189 486 51.9997 486 51.9997" stroke="black" stroke-width="3"/>
<path d="M167.024 16.9999L161.25 26.9999L172.797 26.9999L167.024 16.9999ZM168.024 195.5L168.024 25.9999L166.024 25.9999L166.024 195.5L168.024 195.5Z" fill="black"/>
<path d="M502 195.968L492.017 190.166L491.983 201.713L502 195.968ZM165.997 196L492.997 196.942L493.003 194.942L166.003 194L165.997 196Z" fill="black"/>
<path d="M455.5 74L438 65.9998" stroke="black" stroke-dasharray="4 4"/>
<path d="M391.5 119.895L167 119.895" stroke="black" stroke-dasharray="4 4"/>
<path d="M108.241 39.144C107.585 39.144 106.989 38.988 106.453 38.676C105.917 38.364 105.489 37.908 105.169 37.308C104.857 36.7 104.701 35.964 104.701 35.1C104.701 34.244 104.861 33.512 105.181 32.904C105.509 32.288 105.945 31.82 106.489 31.5C107.033 31.172 107.633 31.008 108.289 31.008C108.785 31.008 109.225 31.108 109.609 31.308C109.993 31.508 110.309 31.74 110.557 32.004L109.813 32.904C109.613 32.696 109.389 32.532 109.141 32.412C108.901 32.284 108.629 32.22 108.325 32.22C107.901 32.22 107.521 32.336 107.185 32.568C106.857 32.792 106.597 33.116 106.405 33.54C106.221 33.964 106.129 34.472 106.129 35.064C106.129 35.96 106.325 36.664 106.717 37.176C107.109 37.68 107.633 37.932 108.289 37.932C108.641 37.932 108.953 37.86 109.225 37.716C109.497 37.564 109.745 37.368 109.969 37.128L110.713 38.004C110.393 38.372 110.025 38.656 109.609 38.856C109.201 39.048 108.745 39.144 108.241 39.144ZM113.331 39.144C112.819 39.144 112.399 38.984 112.071 38.664C111.751 38.344 111.591 37.928 111.591 37.416C111.591 36.784 111.867 36.296 112.419 35.952C112.971 35.6 113.851 35.36 115.059 35.232C115.051 34.92 114.967 34.652 114.807 34.428C114.655 34.196 114.379 34.08 113.979 34.08C113.691 34.08 113.407 34.136 113.127 34.248C112.855 34.36 112.587 34.496 112.323 34.656L111.819 33.732C112.147 33.524 112.515 33.344 112.923 33.192C113.339 33.04 113.779 32.964 114.243 32.964C114.979 32.964 115.527 33.184 115.887 33.624C116.255 34.056 116.439 34.684 116.439 35.508V39H115.299L115.203 38.352H115.155C114.891 38.576 114.607 38.764 114.303 38.916C114.007 39.068 113.683 39.144 113.331 39.144ZM113.775 38.064C114.015 38.064 114.231 38.008 114.423 37.896C114.623 37.776 114.835 37.616 115.059 37.416V36.096C114.259 36.2 113.703 36.356 113.391 36.564C113.079 36.764 112.923 37.012 112.923 37.308C112.923 37.572 113.003 37.764 113.163 37.884C113.323 38.004 113.527 38.064 113.775 38.064ZM119.435 39.144C118.947 39.144 118.599 38.996 118.391 38.7C118.191 38.404 118.091 38 118.091 37.488V30.528H119.471V37.56C119.471 37.728 119.503 37.848 119.567 37.92C119.631 37.984 119.699 38.016 119.771 38.016C119.803 38.016 119.831 38.016 119.855 38.016C119.887 38.008 119.931 38 119.987 37.992L120.167 39.024C120.087 39.056 119.983 39.084 119.855 39.108C119.735 39.132 119.595 39.144 119.435 39.144ZM122.693 39.144C122.205 39.144 121.857 38.996 121.649 38.7C121.449 38.404 121.349 38 121.349 37.488V30.528H122.729V37.56C122.729 37.728 122.761 37.848 122.825 37.92C122.889 37.984 122.957 38.016 123.029 38.016C123.061 38.016 123.089 38.016 123.113 38.016C123.145 38.008 123.189 38 123.245 37.992L123.425 39.024C123.345 39.056 123.241 39.084 123.113 39.108C122.993 39.132 122.853 39.144 122.693 39.144ZM129.421 39.144C128.933 39.144 128.477 39.024 128.053 38.784C127.629 38.536 127.285 38.184 127.021 37.728C126.757 37.264 126.625 36.708 126.625 36.06C126.625 35.404 126.757 34.848 127.021 34.392C127.285 33.928 127.629 33.576 128.053 33.336C128.477 33.088 128.933 32.964 129.421 32.964C129.917 32.964 130.377 33.088 130.801 33.336C131.225 33.576 131.569 33.928 131.833 34.392C132.097 34.848 132.229 35.404 132.229 36.06C132.229 36.708 132.097 37.264 131.833 37.728C131.569 38.184 131.225 38.536 130.801 38.784C130.377 39.024 129.917 39.144 129.421 39.144ZM129.421 38.016C129.853 38.016 130.193 37.836 130.441 37.476C130.689 37.116 130.813 36.644 130.813 36.06C130.813 35.468 130.689 34.992 130.441 34.632C130.193 34.272 129.853 34.092 129.421 34.092C128.989 34.092 128.649 34.272 128.401 34.632C128.161 34.992 128.041 35.468 128.041 36.06C128.041 36.644 128.161 37.116 128.401 37.476C128.649 37.836 128.989 38.016 129.421 38.016ZM133.595 41.328V33.108H134.735L134.831 33.732H134.879C135.127 33.524 135.403 33.344 135.707 33.192C136.019 33.04 136.335 32.964 136.655 32.964C137.391 32.964 137.959 33.236 138.359 33.78C138.767 34.324 138.971 35.052 138.971 35.964C138.971 36.636 138.851 37.212 138.611 37.692C138.371 38.164 138.059 38.524 137.675 38.772C137.299 39.02 136.891 39.144 136.451 39.144C136.195 39.144 135.939 39.088 135.683 38.976C135.427 38.856 135.179 38.696 134.939 38.496L134.975 39.48V41.328H133.595ZM136.163 38.004C136.555 38.004 136.883 37.832 137.147 37.488C137.411 37.144 137.543 36.64 137.543 35.976C137.543 35.384 137.443 34.924 137.243 34.596C137.043 34.268 136.719 34.104 136.271 34.104C135.855 34.104 135.423 34.324 134.975 34.764V37.512C135.191 37.688 135.399 37.816 135.599 37.896C135.799 37.968 135.987 38.004 136.163 38.004ZM142.175 39.144C141.495 39.144 141.011 38.948 140.723 38.556C140.443 38.156 140.303 37.64 140.303 37.008V34.2H139.463V33.168L140.375 33.108L140.543 31.5H141.695V33.108H143.195V34.2H141.695V37.008C141.695 37.696 141.971 38.04 142.523 38.04C142.627 38.04 142.735 38.028 142.847 38.004C142.959 37.972 143.055 37.94 143.135 37.908L143.375 38.928C143.215 38.984 143.031 39.032 142.823 39.072C142.623 39.12 142.407 39.144 142.175 39.144ZM144.435 39V33.108H145.815V39H144.435ZM145.131 32.076C144.883 32.076 144.683 32.004 144.531 31.86C144.379 31.716 144.303 31.524 144.303 31.284C144.303 31.052 144.379 30.864 144.531 30.72C144.683 30.576 144.883 30.504 145.131 30.504C145.379 30.504 145.579 30.576 145.731 30.72C145.883 30.864 145.959 31.052 145.959 31.284C145.959 31.524 145.883 31.716 145.731 31.86C145.579 32.004 145.379 32.076 145.131 32.076ZM149.987 39.144C149.499 39.144 149.043 39.024 148.619 38.784C148.195 38.536 147.851 38.184 147.587 37.728C147.323 37.264 147.191 36.708 147.191 36.06C147.191 35.404 147.323 34.848 147.587 34.392C147.851 33.928 148.195 33.576 148.619 33.336C149.043 33.088 149.499 32.964 149.987 32.964C150.483 32.964 150.943 33.088 151.367 33.336C151.791 33.576 152.135 33.928 152.399 34.392C152.663 34.848 152.795 35.404 152.795 36.06C152.795 36.708 152.663 37.264 152.399 37.728C152.135 38.184 151.791 38.536 151.367 38.784C150.943 39.024 150.483 39.144 149.987 39.144ZM149.987 38.016C150.419 38.016 150.759 37.836 151.007 37.476C151.255 37.116 151.379 36.644 151.379 36.06C151.379 35.468 151.255 34.992 151.007 34.632C150.759 34.272 150.419 34.092 149.987 34.092C149.555 34.092 149.215 34.272 148.967 34.632C148.727 34.992 148.607 35.468 148.607 36.06C148.607 36.644 148.727 37.116 148.967 37.476C149.215 37.836 149.555 38.016 149.987 38.016ZM154.161 39V33.108H155.301L155.397 33.9H155.445C155.709 33.644 155.997 33.424 156.309 33.24C156.621 33.056 156.977 32.964 157.377 32.964C158.009 32.964 158.469 33.168 158.757 33.576C159.045 33.984 159.189 34.56 159.189 35.304V39H157.809V35.484C157.809 34.996 157.737 34.652 157.593 34.452C157.449 34.252 157.213 34.152 156.885 34.152C156.629 34.152 156.401 34.216 156.201 34.344C156.009 34.464 155.789 34.644 155.541 34.884V39H154.161ZM134.294 54L132.242 48.108H133.646L134.582 51.168C134.662 51.456 134.742 51.748 134.822 52.044C134.91 52.34 134.994 52.64 135.074 52.944H135.122C135.21 52.64 135.294 52.34 135.374 52.044C135.462 51.748 135.546 51.456 135.626 51.168L136.562 48.108H137.894L135.89 54H134.294ZM140.109 54.144C139.597 54.144 139.177 53.984 138.849 53.664C138.529 53.344 138.369 52.928 138.369 52.416C138.369 51.784 138.645 51.296 139.197 50.952C139.749 50.6 140.629 50.36 141.837 50.232C141.829 49.92 141.745 49.652 141.585 49.428C141.433 49.196 141.157 49.08 140.757 49.08C140.469 49.08 140.185 49.136 139.905 49.248C139.633 49.36 139.365 49.496 139.101 49.656L138.597 48.732C138.925 48.524 139.293 48.344 139.701 48.192C140.117 48.04 140.557 47.964 141.021 47.964C141.757 47.964 142.305 48.184 142.665 48.624C143.033 49.056 143.217 49.684 143.217 50.508V54H142.077L141.981 53.352H141.933C141.669 53.576 141.385 53.764 141.081 53.916C140.785 54.068 140.461 54.144 140.109 54.144ZM140.553 53.064C140.793 53.064 141.009 53.008 141.201 52.896C141.401 52.776 141.613 52.616 141.837 52.416V51.096C141.037 51.2 140.481 51.356 140.169 51.564C139.857 51.764 139.701 52.012 139.701 52.308C139.701 52.572 139.781 52.764 139.941 52.884C140.101 53.004 140.305 53.064 140.553 53.064ZM146.212 54.144C145.724 54.144 145.376 53.996 145.168 53.7C144.968 53.404 144.868 53 144.868 52.488V45.528H146.248V52.56C146.248 52.728 146.28 52.848 146.344 52.92C146.408 52.984 146.476 53.016 146.548 53.016C146.58 53.016 146.608 53.016 146.632 53.016C146.664 53.008 146.708 53 146.764 52.992L146.944 54.024C146.864 54.056 146.76 54.084 146.632 54.108C146.512 54.132 146.372 54.144 146.212 54.144ZM149.878 54.144C149.246 54.144 148.786 53.94 148.498 53.532C148.21 53.124 148.066 52.548 148.066 51.804V48.108H149.446V51.624C149.446 52.112 149.518 52.456 149.662 52.656C149.806 52.856 150.038 52.956 150.358 52.956C150.614 52.956 150.838 52.892 151.03 52.764C151.23 52.636 151.442 52.428 151.666 52.14V48.108H153.046V54H151.918L151.81 53.136H151.774C151.518 53.44 151.238 53.684 150.934 53.868C150.63 54.052 150.278 54.144 149.878 54.144ZM157.314 54.144C156.77 54.144 156.278 54.024 155.838 53.784C155.398 53.536 155.05 53.184 154.794 52.728C154.538 52.264 154.41 51.708 154.41 51.06C154.41 50.42 154.538 49.868 154.794 49.404C155.058 48.94 155.398 48.584 155.814 48.336C156.23 48.088 156.666 47.964 157.122 47.964C157.658 47.964 158.106 48.084 158.466 48.324C158.826 48.556 159.098 48.884 159.282 49.308C159.466 49.724 159.558 50.208 159.558 50.76C159.558 51.048 159.538 51.272 159.498 51.432H155.754C155.818 51.952 156.006 52.356 156.318 52.644C156.63 52.932 157.022 53.076 157.494 53.076C157.75 53.076 157.986 53.04 158.202 52.968C158.426 52.888 158.646 52.78 158.862 52.644L159.33 53.508C159.05 53.692 158.738 53.844 158.394 53.964C158.05 54.084 157.69 54.144 157.314 54.144ZM155.742 50.496H158.358C158.358 50.04 158.258 49.684 158.058 49.428C157.858 49.164 157.558 49.032 157.158 49.032C156.814 49.032 156.506 49.16 156.234 49.416C155.97 49.664 155.806 50.024 155.742 50.496Z" fill="black"/>
<path d="M274.02 53.9998L274.02 46.1278L276.36 46.1278C276.896 46.1278 277.364 46.1918 277.764 46.3198C278.172 46.4478 278.488 46.6518 278.712 46.9318C278.944 47.2118 279.06 47.5838 279.06 48.0478C279.06 48.4398 278.96 48.7958 278.76 49.1158C278.568 49.4278 278.284 49.6438 277.908 49.7638L277.908 49.8118C278.38 49.8998 278.764 50.0998 279.06 50.4118C279.364 50.7238 279.516 51.1518 279.516 51.6958C279.516 52.2078 279.388 52.6358 279.132 52.9798C278.884 53.3238 278.536 53.5798 278.088 53.7478C277.64 53.9158 277.12 53.9998 276.528 53.9998L274.02 53.9998ZM275.016 49.4758L276.18 49.4758C276.852 49.4758 277.336 49.3598 277.632 49.1278C277.928 48.8958 278.076 48.5798 278.076 48.1798C278.076 47.7238 277.92 47.3998 277.608 47.2078C277.304 47.0158 276.844 46.9198 276.228 46.9198L275.016 46.9198L275.016 49.4758ZM275.016 53.2078L276.384 53.2078C277.064 53.2078 277.592 53.0838 277.968 52.8358C278.344 52.5798 278.532 52.1878 278.532 51.6598C278.532 51.1718 278.344 50.8158 277.968 50.5918C277.6 50.3598 277.072 50.2438 276.384 50.2438L275.016 50.2438L275.016 53.2078ZM282.022 54.1438C281.654 54.1438 281.386 54.0318 281.218 53.8078C281.058 53.5758 280.978 53.2478 280.978 52.8238L280.978 45.4558L281.962 45.4558L281.962 52.8958C281.962 53.0478 281.99 53.1598 282.046 53.2318C282.102 53.2958 282.166 53.3278 282.238 53.3278C282.27 53.3278 282.298 53.3278 282.322 53.3278C282.354 53.3198 282.398 53.3118 282.454 53.3038L282.586 54.0478C282.522 54.0798 282.446 54.1038 282.358 54.1198C282.27 54.1358 282.158 54.1438 282.022 54.1438ZM285.381 54.1438C284.893 54.1438 284.485 53.9998 284.157 53.7118C283.837 53.4158 283.677 53.0078 283.677 52.4878C283.677 51.8478 283.961 51.3598 284.529 51.0238C285.105 50.6798 286.013 50.4398 287.253 50.3038C287.253 50.0558 287.217 49.8198 287.145 49.5958C287.081 49.3718 286.961 49.1918 286.785 49.0558C286.617 48.9118 286.373 48.8398 286.053 48.8398C285.717 48.8398 285.401 48.9038 285.105 49.0318C284.809 49.1598 284.545 49.3038 284.313 49.4638L283.929 48.7798C284.201 48.6038 284.533 48.4358 284.925 48.2758C285.325 48.1078 285.757 48.0238 286.221 48.0238C286.933 48.0238 287.449 48.2438 287.769 48.6838C288.089 49.1157 288.249 49.6957 288.249 50.4238L288.249 53.9998L287.433 53.9998L287.349 53.3038L287.313 53.3038C287.041 53.5278 286.741 53.7238 286.413 53.8918C286.093 54.0598 285.749 54.1438 285.381 54.1438ZM285.669 53.3518C285.949 53.3518 286.213 53.2838 286.461 53.1478C286.709 53.0118 286.973 52.8198 287.253 52.5718L287.253 50.9518C286.285 51.0718 285.605 51.2518 285.213 51.4918C284.829 51.7318 284.637 52.0398 284.637 52.4158C284.637 52.7438 284.737 52.9838 284.937 53.1358C285.137 53.2798 285.381 53.3518 285.669 53.3518ZM292.388 54.1437C291.876 54.1437 291.412 54.0237 290.996 53.7837C290.58 53.5437 290.252 53.1957 290.012 52.7397C289.772 52.2837 289.652 51.7357 289.652 51.0957C289.652 50.4397 289.78 49.8837 290.036 49.4277C290.3 48.9717 290.644 48.6237 291.068 48.3837C291.5 48.1437 291.964 48.0237 292.46 48.0237C292.844 48.0237 293.172 48.0917 293.444 48.2277C293.724 48.3637 293.964 48.5237 294.164 48.7077L293.66 49.3557C293.492 49.2037 293.312 49.0797 293.12 48.9837C292.936 48.8877 292.728 48.8397 292.496 48.8397C292.144 48.8397 291.828 48.9357 291.548 49.1277C291.276 49.3117 291.06 49.5757 290.9 49.9197C290.748 50.2557 290.672 50.6477 290.672 51.0957C290.672 51.7597 290.836 52.2997 291.164 52.7157C291.5 53.1237 291.936 53.3277 292.472 53.3277C292.744 53.3277 292.996 53.2717 293.228 53.1597C293.46 53.0397 293.664 52.8997 293.84 52.7397L294.272 53.3997C294.008 53.6317 293.716 53.8157 293.396 53.9517C293.076 54.0797 292.74 54.1437 292.388 54.1437ZM295.557 53.9997L295.557 45.4557L296.529 45.4557L296.529 51.2397L296.565 51.2397L299.049 48.1677L300.141 48.1677L298.185 50.5077L300.405 53.9997L299.325 53.9997L297.621 51.1917L296.529 52.4637L296.529 53.9997L295.557 53.9997ZM300.479 51.3717L300.479 50.6157L303.239 50.6157L303.239 51.3717L300.479 51.3717ZM306.778 54.1437C306.226 54.1437 305.714 54.0397 305.242 53.8317C304.77 53.6157 304.362 53.3317 304.018 52.9797L304.618 52.2837C304.898 52.5797 305.226 52.8197 305.602 53.0037C305.986 53.1797 306.382 53.2677 306.79 53.2677C307.31 53.2677 307.714 53.1517 308.002 52.9197C308.29 52.6797 308.434 52.3677 308.434 51.9837C308.434 51.7117 308.374 51.4957 308.254 51.3357C308.142 51.1757 307.986 51.0397 307.786 50.9277C307.594 50.8157 307.374 50.7037 307.126 50.5917L305.998 50.0997C305.75 49.9957 305.502 49.8597 305.254 49.6917C305.014 49.5237 304.81 49.3077 304.642 49.0437C304.482 48.7797 304.402 48.4557 304.402 48.0717C304.402 47.6717 304.506 47.3157 304.714 47.0037C304.93 46.6837 305.226 46.4357 305.602 46.2597C305.978 46.0757 306.402 45.9837 306.874 45.9837C307.346 45.9837 307.782 46.0757 308.182 46.2597C308.582 46.4357 308.922 46.6677 309.202 46.9557L308.662 47.6037C308.422 47.3717 308.154 47.1917 307.858 47.0637C307.57 46.9277 307.242 46.8597 306.874 46.8597C306.434 46.8597 306.078 46.9637 305.806 47.1717C305.542 47.3797 305.41 47.6597 305.41 48.0117C305.41 48.2597 305.474 48.4677 305.602 48.6357C305.738 48.7957 305.906 48.9277 306.106 49.0317C306.306 49.1357 306.51 49.2317 306.718 49.3197L307.834 49.7997C308.138 49.9277 308.41 50.0837 308.65 50.2677C308.898 50.4437 309.094 50.6637 309.238 50.9277C309.382 51.1837 309.454 51.5077 309.454 51.8997C309.454 52.3157 309.346 52.6957 309.13 53.0397C308.914 53.3757 308.606 53.6437 308.206 53.8437C307.806 54.0437 307.33 54.1437 306.778 54.1437ZM313.212 54.1437C312.7 54.1437 312.236 54.0237 311.82 53.7837C311.404 53.5437 311.076 53.1957 310.836 52.7397C310.596 52.2837 310.476 51.7357 310.476 51.0957C310.476 50.4397 310.604 49.8837 310.86 49.4277C311.124 48.9717 311.468 48.6237 311.892 48.3837C312.324 48.1437 312.788 48.0237 313.284 48.0237C313.668 48.0237 313.996 48.0917 314.268 48.2277C314.548 48.3637 314.788 48.5237 314.988 48.7077L314.484 49.3557C314.316 49.2037 314.136 49.0797 313.944 48.9837C313.76 48.8877 313.552 48.8397 313.32 48.8397C312.968 48.8397 312.652 48.9357 312.372 49.1277C312.1 49.3117 311.884 49.5757 311.724 49.9197C311.572 50.2557 311.496 50.6477 311.496 51.0957C311.496 51.7597 311.66 52.2997 311.988 52.7157C312.324 53.1237 312.76 53.3277 313.296 53.3277C313.568 53.3277 313.82 53.2717 314.052 53.1597C314.284 53.0397 314.488 52.8997 314.664 52.7397L315.096 53.3997C314.832 53.6317 314.54 53.8157 314.22 53.9517C313.9 54.0797 313.564 54.1437 313.212 54.1437ZM316.381 53.9997L316.381 45.4557L317.365 45.4557L317.365 47.7837L317.329 48.9837C317.609 48.7197 317.901 48.4957 318.205 48.3117C318.517 48.1197 318.873 48.0237 319.273 48.0237C319.889 48.0237 320.337 48.2197 320.617 48.6117C320.905 48.9957 321.049 49.5597 321.049 50.3037L321.049 53.9997L320.065 53.9997L320.065 50.4357C320.065 49.8917 319.977 49.4957 319.801 49.2477C319.625 48.9997 319.345 48.8757 318.961 48.8757C318.665 48.8757 318.397 48.9517 318.157 49.1037C317.925 49.2557 317.661 49.4797 317.365 49.7757L317.365 53.9997L316.381 53.9997ZM325.176 54.1437C324.704 54.1437 324.26 54.0237 323.844 53.7837C323.436 53.5437 323.104 53.1957 322.848 52.7397C322.6 52.2837 322.476 51.7357 322.476 51.0957C322.476 50.4397 322.6 49.8837 322.848 49.4277C323.104 48.9717 323.436 48.6237 323.844 48.3837C324.26 48.1437 324.704 48.0237 325.176 48.0237C325.656 48.0237 326.1 48.1437 326.508 48.3837C326.916 48.6237 327.244 48.9717 327.492 49.4277C327.748 49.8837 327.876 50.4397 327.876 51.0957C327.876 51.7357 327.748 52.2837 327.492 52.7397C327.244 53.1957 326.916 53.5437 326.508 53.7837C326.1 54.0237 325.656 54.1437 325.176 54.1437ZM325.176 53.3277C325.68 53.3277 326.084 53.1237 326.388 52.7157C326.7 52.2997 326.856 51.7597 326.856 51.0957C326.856 50.4237 326.7 49.8797 326.388 49.4637C326.084 49.0477 325.68 48.8397 325.176 48.8397C324.68 48.8397 324.276 49.0477 323.964 49.4637C323.652 49.8797 323.496 50.4237 323.496 51.0957C323.496 51.7597 323.652 52.2997 323.964 52.7157C324.276 53.1237 324.68 53.3277 325.176 53.3277ZM330.456 54.1437C330.088 54.1437 329.82 54.0317 329.652 53.8077C329.492 53.5757 329.412 53.2477 329.412 52.8237L329.412 45.4557L330.396 45.4557L330.396 52.8957C330.396 53.0477 330.424 53.1597 330.48 53.2317C330.536 53.2957 330.6 53.3277 330.672 53.3277C330.704 53.3277 330.732 53.3277 330.756 53.3277C330.788 53.3197 330.832 53.3117 330.888 53.3037L331.02 54.0477C330.956 54.0797 330.88 54.1037 330.792 54.1197C330.704 54.1357 330.592 54.1437 330.456 54.1437ZM334.835 54.1437C334.315 54.1437 333.843 54.0237 333.419 53.7837C332.995 53.5357 332.659 53.1837 332.411 52.7277C332.163 52.2717 332.039 51.7277 332.039 51.0957C332.039 50.4557 332.163 49.9077 332.411 49.4517C332.667 48.9957 332.995 48.6437 333.395 48.3957C333.795 48.1477 334.215 48.0237 334.655 48.0237C335.399 48.0237 335.971 48.2717 336.371 48.7677C336.779 49.2637 336.983 49.9277 336.983 50.7597C336.983 50.8637 336.979 50.9677 336.971 51.0717C336.971 51.1677 336.963 51.2517 336.947 51.3237L333.011 51.3237C333.051 51.9397 333.243 52.4317 333.587 52.7997C333.939 53.1677 334.395 53.3517 334.955 53.3517C335.235 53.3517 335.491 53.3117 335.723 53.2317C335.963 53.1437 336.191 53.0317 336.407 52.8957L336.755 53.5437C336.507 53.7037 336.223 53.8437 335.903 53.9637C335.591 54.0837 335.235 54.1437 334.835 54.1437ZM332.999 50.6157L336.119 50.6157C336.119 50.0237 335.991 49.5757 335.735 49.2717C335.487 48.9597 335.135 48.8037 334.679 48.8037C334.271 48.8037 333.903 48.9637 333.575 49.2837C333.255 49.5957 333.063 50.0397 332.999 50.6157ZM339.948 54.1437C339.532 54.1437 339.136 54.0677 338.76 53.9157C338.384 53.7557 338.056 53.5637 337.776 53.3397L338.268 52.6797C338.524 52.8797 338.788 53.0477 339.06 53.1837C339.332 53.3117 339.64 53.3757 339.984 53.3757C340.368 53.3757 340.656 53.2877 340.848 53.1117C341.04 52.9277 341.136 52.7117 341.136 52.4637C341.136 52.2637 341.068 52.0957 340.932 51.9597C340.804 51.8237 340.636 51.7117 340.428 51.6237C340.228 51.5277 340.02 51.4397 339.804 51.3597C339.532 51.2557 339.264 51.1397 339 51.0117C338.736 50.8757 338.52 50.7037 338.352 50.4957C338.184 50.2797 338.1 50.0077 338.1 49.6797C338.1 49.2077 338.276 48.8157 338.628 48.5037C338.988 48.1837 339.484 48.0237 340.116 48.0237C340.476 48.0237 340.812 48.0877 341.124 48.2157C341.436 48.3437 341.704 48.4997 341.928 48.6837L341.448 49.3077C341.248 49.1557 341.04 49.0317 340.824 48.9357C340.608 48.8397 340.372 48.7917 340.116 48.7917C339.748 48.7917 339.476 48.8757 339.3 49.0437C339.132 49.2117 339.048 49.4077 339.048 49.6317C339.048 49.8157 339.108 49.9677 339.228 50.0877C339.348 50.1997 339.504 50.2997 339.696 50.3877C339.888 50.4677 340.092 50.5517 340.308 50.6397C340.588 50.7437 340.864 50.8637 341.136 50.9997C341.408 51.1277 341.632 51.3037 341.808 51.5277C341.992 51.7437 342.084 52.0357 342.084 52.4037C342.084 52.7157 342 53.0037 341.832 53.2677C341.672 53.5317 341.432 53.7437 341.112 53.9037C340.8 54.0637 340.412 54.1437 339.948 54.1437ZM347.689 54.1437C347.065 54.1437 346.629 53.9637 346.381 53.6037C346.141 53.2437 346.021 52.7757 346.021 52.1997L346.021 48.9717L345.157 48.9717L345.157 48.2277L346.069 48.1677L346.189 46.5357L347.017 46.5357L347.017 48.1677L348.589 48.1677L348.589 48.9717L347.017 48.9717L347.017 52.2117C347.017 52.5717 347.081 52.8517 347.209 53.0517C347.345 53.2437 347.581 53.3397 347.917 53.3397C348.021 53.3397 348.133 53.3237 348.253 53.2917C348.373 53.2517 348.481 53.2157 348.577 53.1837L348.769 53.9277C348.609 53.9837 348.433 54.0317 348.241 54.0717C348.057 54.1197 347.873 54.1437 347.689 54.1437ZM349.908 53.9997L349.908 45.4557L350.892 45.4557L350.892 47.7837L350.856 48.9837C351.136 48.7197 351.428 48.4957 351.732 48.3117C352.044 48.1197 352.4 48.0237 352.8 48.0237C353.416 48.0237 353.864 48.2197 354.144 48.6117C354.432 48.9957 354.576 49.5597 354.576 50.3037L354.576 53.9997L353.592 53.9997L353.592 50.4357C353.592 49.8917 353.504 49.4957 353.328 49.2477C353.152 48.9997 352.872 48.8757 352.488 48.8757C352.192 48.8757 351.924 48.9517 351.684 49.1037C351.452 49.2557 351.188 49.4797 350.892 49.7757L350.892 53.9997L349.908 53.9997ZM358.799 54.1437C358.279 54.1437 357.807 54.0237 357.383 53.7837C356.959 53.5357 356.623 53.1837 356.375 52.7277C356.127 52.2717 356.003 51.7277 356.003 51.0957C356.003 50.4557 356.127 49.9077 356.375 49.4517C356.631 48.9957 356.959 48.6437 357.359 48.3957C357.759 48.1477 358.179 48.0237 358.619 48.0237C359.363 48.0237 359.935 48.2717 360.335 48.7677C360.743 49.2637 360.947 49.9277 360.947 50.7597C360.947 50.8637 360.943 50.9677 360.935 51.0717C360.935 51.1677 360.927 51.2517 360.911 51.3237L356.975 51.3237C357.015 51.9397 357.207 52.4317 357.551 52.7997C357.903 53.1677 358.359 53.3517 358.919 53.3517C359.199 53.3517 359.455 53.3117 359.687 53.2317C359.927 53.1437 360.155 53.0317 360.371 52.8957L360.719 53.5437C360.471 53.7037 360.187 53.8437 359.867 53.9637C359.555 54.0837 359.199 54.1437 358.799 54.1437ZM356.963 50.6157L360.083 50.6157C360.083 50.0237 359.955 49.5757 359.699 49.2717C359.451 48.9597 359.099 48.8037 358.643 48.8037C358.235 48.8037 357.867 48.9637 357.539 49.2837C357.219 49.5957 357.027 50.0397 356.963 50.6157ZM364.657 54.1437C364.185 54.1437 363.741 54.0237 363.325 53.7837C362.917 53.5437 362.585 53.1957 362.329 52.7397C362.081 52.2837 361.957 51.7357 361.957 51.0957C361.957 50.4397 362.081 49.8837 362.329 49.4277C362.585 48.9717 362.917 48.6237 363.325 48.3837C363.741 48.1437 364.185 48.0237 364.657 48.0237C365.137 48.0237 365.581 48.1437 365.989 48.3837C366.397 48.6237 366.725 48.9717 366.973 49.4277C367.229 49.8837 367.357 50.4397 367.357 51.0957C367.357 51.7357 367.229 52.2837 366.973 52.7397C366.725 53.1957 366.397 53.5437 365.989 53.7837C365.581 54.0237 365.137 54.1437 364.657 54.1437ZM364.657 53.3277C365.161 53.3277 365.565 53.1237 365.869 52.7157C366.181 52.2997 366.337 51.7597 366.337 51.0957C366.337 50.4237 366.181 49.8797 365.869 49.4637C365.565 49.0477 365.161 48.8397 364.657 48.8397C364.161 48.8397 363.757 49.0477 363.445 49.4637C363.133 49.8797 362.977 50.4237 362.977 51.0957C362.977 51.7597 363.133 52.2997 363.445 52.7157C363.757 53.1237 364.161 53.3277 364.657 53.3277ZM368.892 53.9997L368.892 48.1677L369.708 48.1677L369.792 49.2237L369.828 49.2237C370.028 48.8557 370.272 48.5637 370.56 48.3477C370.848 48.1317 371.156 48.0237 371.484 48.0237C371.716 48.0237 371.924 48.0637 372.108 48.1437L371.916 49.0077C371.82 48.9757 371.732 48.9517 371.652 48.9357C371.572 48.9197 371.472 48.9117 371.352 48.9117C371.104 48.9117 370.844 49.0117 370.572 49.2117C370.308 49.4117 370.076 49.7597 369.876 50.2557L369.876 53.9997L368.892 53.9997ZM375.299 54.1437C374.779 54.1437 374.307 54.0237 373.883 53.7837C373.459 53.5357 373.123 53.1837 372.875 52.7277C372.627 52.2717 372.503 51.7277 372.503 51.0957C372.503 50.4557 372.627 49.9077 372.875 49.4517C373.131 48.9957 373.459 48.6437 373.859 48.3957C374.259 48.1477 374.679 48.0237 375.119 48.0237C375.863 48.0237 376.435 48.2717 376.835 48.7677C377.243 49.2637 377.447 49.9277 377.447 50.7597C377.447 50.8637 377.443 50.9677 377.435 51.0717C377.435 51.1677 377.427 51.2517 377.411 51.3237L373.475 51.3237C373.515 51.9397 373.707 52.4317 374.051 52.7997C374.403 53.1677 374.859 53.3517 375.419 53.3517C375.699 53.3517 375.955 53.3117 376.187 53.2317C376.427 53.1437 376.655 53.0317 376.871 52.8957L377.219 53.5437C376.971 53.7037 376.687 53.8437 376.367 53.9637C376.055 54.0837 375.699 54.1437 375.299 54.1437ZM373.463 50.6157L376.583 50.6157C376.583 50.0237 376.455 49.5757 376.199 49.2717C375.951 48.9597 375.599 48.8037 375.143 48.8037C374.735 48.8037 374.367 48.9637 374.039 49.2837C373.719 49.5957 373.527 50.0397 373.463 50.6157ZM380.607 54.1437C379.983 54.1437 379.547 53.9637 379.299 53.6037C379.059 53.2437 378.939 52.7757 378.939 52.1997L378.939 48.9717L378.075 48.9717L378.075 48.2277L378.987 48.1677L379.107 46.5357L379.935 46.5357L379.935 48.1677L381.507 48.1677L381.507 48.9717L379.935 48.9717L379.935 52.2117C379.935 52.5717 379.999 52.8517 380.127 53.0517C380.263 53.2437 380.499 53.3397 380.835 53.3397C380.939 53.3397 381.051 53.3237 381.171 53.2917C381.291 53.2517 381.399 53.2157 381.495 53.1837L381.687 53.9277C381.527 53.9837 381.351 54.0317 381.159 54.0717C380.975 54.1197 380.791 54.1437 380.607 54.1437ZM382.826 53.9997L382.826 48.1677L383.81 48.1677L383.81 53.9997L382.826 53.9997ZM383.33 46.9677C383.138 46.9677 382.978 46.9117 382.85 46.7997C382.73 46.6797 382.67 46.5197 382.67 46.3197C382.67 46.1277 382.73 45.9717 382.85 45.8517C382.978 45.7317 383.138 45.6717 383.33 45.6717C383.522 45.6717 383.678 45.7317 383.798 45.8517C383.926 45.9717 383.99 46.1277 383.99 46.3197C383.99 46.5197 383.926 46.6797 383.798 46.7997C383.678 46.9117 383.522 46.9677 383.33 46.9677ZM388.083 54.1437C387.571 54.1437 387.107 54.0237 386.691 53.7837C386.275 53.5437 385.947 53.1957 385.707 52.7397C385.467 52.2837 385.347 51.7357 385.347 51.0957C385.347 50.4397 385.475 49.8837 385.731 49.4277C385.995 48.9717 386.339 48.6237 386.763 48.3837C387.195 48.1437 387.659 48.0237 388.155 48.0237C388.539 48.0237 388.867 48.0917 389.139 48.2277C389.419 48.3637 389.659 48.5237 389.859 48.7077L389.355 49.3557C389.187 49.2037 389.007 49.0797 388.815 48.9837C388.631 48.8877 388.423 48.8397 388.191 48.8397C387.839 48.8397 387.523 48.9357 387.243 49.1277C386.971 49.3117 386.755 49.5757 386.595 49.9197C386.443 50.2557 386.367 50.6477 386.367 51.0957C386.367 51.7597 386.531 52.2997 386.859 52.7157C387.195 53.1237 387.631 53.3277 388.167 53.3277C388.439 53.3277 388.691 53.2717 388.923 53.1597C389.155 53.0397 389.359 52.8997 389.535 52.7397L389.967 53.3997C389.703 53.6317 389.411 53.8157 389.091 53.9517C388.771 54.0797 388.435 54.1437 388.083 54.1437ZM392.479 54.1437C391.991 54.1437 391.583 53.9997 391.255 53.7117C390.935 53.4157 390.775 53.0077 390.775 52.4877C390.775 51.8477 391.059 51.3597 391.627 51.0237C392.203 50.6797 393.111 50.4397 394.351 50.3037C394.351 50.0557 394.315 49.8197 394.243 49.5957C394.179 49.3717 394.059 49.1917 393.883 49.0557C393.715 48.9117 393.471 48.8397 393.151 48.8397C392.815 48.8397 392.499 48.9037 392.203 49.0317C391.907 49.1597 391.643 49.3037 391.411 49.4637L391.027 48.7797C391.299 48.6037 391.631 48.4357 392.023 48.2757C392.423 48.1077 392.855 48.0237 393.319 48.0237C394.031 48.0237 394.547 48.2437 394.867 48.6837C395.187 49.1157 395.347 49.6957 395.347 50.4237L395.347 53.9997L394.531 53.9997L394.447 53.3037L394.411 53.3037C394.139 53.5277 393.839 53.7237 393.511 53.8917C393.191 54.0597 392.847 54.1437 392.479 54.1437ZM392.767 53.3517C393.047 53.3517 393.311 53.2837 393.559 53.1477C393.807 53.0117 394.071 52.8197 394.351 52.5717L394.351 50.9517C393.383 51.0717 392.703 51.2517 392.311 51.4917C391.927 51.7317 391.735 52.0397 391.735 52.4157C391.735 52.7437 391.835 52.9837 392.035 53.1357C392.235 53.2797 392.479 53.3517 392.767 53.3517ZM398.226 54.1437C397.858 54.1437 397.59 54.0317 397.422 53.8077C397.262 53.5757 397.182 53.2477 397.182 52.8237L397.182 45.4557L398.166 45.4557L398.166 52.8957C398.166 53.0477 398.194 53.1597 398.25 53.2317C398.306 53.2957 398.37 53.3277 398.442 53.3277C398.474 53.3277 398.502 53.3277 398.526 53.3277C398.558 53.3197 398.602 53.3117 398.658 53.3037L398.79 54.0477C398.726 54.0797 398.65 54.1037 398.562 54.1197C398.474 54.1357 398.362 54.1437 398.226 54.1437ZM403.902 53.9997L401.802 48.1677L402.822 48.1677L403.926 51.4797C404.014 51.7677 404.102 52.0557 404.19 52.3437C404.286 52.6317 404.378 52.9157 404.466 53.1957L404.514 53.1957C404.602 52.9157 404.69 52.6317 404.778 52.3437C404.874 52.0557 404.962 51.7677 405.042 51.4797L406.146 48.1677L407.118 48.1677L405.054 53.9997L403.902 53.9997ZM409.354 54.1437C408.866 54.1437 408.458 53.9997 408.13 53.7117C407.81 53.4157 407.65 53.0077 407.65 52.4877C407.65 51.8477 407.934 51.3597 408.502 51.0237C409.078 50.6797 409.986 50.4397 411.226 50.3037C411.226 50.0557 411.19 49.8197 411.118 49.5957C411.054 49.3717 410.934 49.1917 410.758 49.0557C410.59 48.9117 410.346 48.8397 410.026 48.8397C409.69 48.8397 409.374 48.9037 409.078 49.0317C408.782 49.1597 408.518 49.3037 408.286 49.4637L407.902 48.7797C408.174 48.6037 408.506 48.4357 408.898 48.2757C409.298 48.1077 409.73 48.0237 410.194 48.0237C410.906 48.0237 411.422 48.2437 411.742 48.6837C412.062 49.1157 412.222 49.6957 412.222 50.4237L412.222 53.9997L411.406 53.9997L411.322 53.3037L411.286 53.3037C411.014 53.5277 410.714 53.7237 410.386 53.8917C410.066 54.0597 409.722 54.1437 409.354 54.1437ZM409.642 53.3517C409.922 53.3517 410.186 53.2837 410.434 53.1477C410.682 53.0117 410.946 52.8197 411.226 52.5717L411.226 50.9517C410.258 51.0717 409.578 51.2517 409.186 51.4917C408.802 51.7317 408.61 52.0397 408.61 52.4157C408.61 52.7437 408.71 52.9837 408.91 53.1357C409.11 53.2797 409.354 53.3517 409.642 53.3517ZM415.101 54.1437C414.733 54.1437 414.465 54.0317 414.297 53.8077C414.137 53.5757 414.057 53.2477 414.057 52.8237L414.057 45.4557L415.041 45.4557L415.041 52.8957C415.041 53.0477 415.069 53.1597 415.125 53.2317C415.181 53.2957 415.245 53.3277 415.317 53.3277C415.349 53.3277 415.377 53.3277 415.401 53.3277C415.433 53.3197 415.477 53.3117 415.533 53.3037L415.665 54.0477C415.601 54.0797 415.525 54.1037 415.437 54.1197C415.349 54.1357 415.237 54.1437 415.101 54.1437ZM418.819 54.1437C418.203 54.1437 417.751 53.9517 417.463 53.5677C417.175 53.1757 417.031 52.6077 417.031 51.8637L417.031 48.1677L418.027 48.1677L418.027 51.7317C418.027 52.2757 418.111 52.6717 418.279 52.9197C418.455 53.1677 418.735 53.2917 419.119 53.2917C419.423 53.2917 419.691 53.2157 419.923 53.0637C420.163 52.9037 420.419 52.6517 420.691 52.3077L420.691 48.1677L421.675 48.1677L421.675 53.9997L420.859 53.9997L420.775 53.0877L420.739 53.0877C420.467 53.4077 420.179 53.6637 419.875 53.8557C419.571 54.0477 419.219 54.1437 418.819 54.1437ZM426.006 54.1437C425.486 54.1437 425.014 54.0237 424.59 53.7837C424.166 53.5357 423.83 53.1837 423.582 52.7277C423.334 52.2717 423.21 51.7277 423.21 51.0957C423.21 50.4557 423.334 49.9077 423.582 49.4517C423.838 48.9957 424.166 48.6437 424.566 48.3957C424.966 48.1477 425.386 48.0237 425.826 48.0237C426.57 48.0237 427.142 48.2717 427.542 48.7677C427.95 49.2637 428.154 49.9277 428.154 50.7597C428.154 50.8637 428.15 50.9677 428.142 51.0717C428.142 51.1677 428.134 51.2517 428.118 51.3237L424.182 51.3237C424.222 51.9397 424.414 52.4317 424.758 52.7997C425.11 53.1677 425.566 53.3517 426.126 53.3517C426.406 53.3517 426.662 53.3117 426.894 53.2317C427.134 53.1437 427.362 53.0317 427.578 52.8957L427.926 53.5437C427.678 53.7037 427.394 53.8437 427.074 53.9637C426.762 54.0837 426.406 54.1437 426.006 54.1437ZM424.17 50.6157L427.29 50.6157C427.29 50.0237 427.162 49.5757 426.906 49.2717C426.658 48.9597 426.306 48.8037 425.85 48.8037C425.442 48.8037 425.074 48.9637 424.746 49.2837C424.426 49.5957 424.234 50.0397 424.17 50.6157ZM346.64 69.1437C346.368 69.1437 346.084 69.0797 345.788 68.9517C345.5 68.8157 345.228 68.6317 344.972 68.3997L344.936 68.3997L344.852 68.9997L344.06 68.9997L344.06 60.4557L345.044 60.4557L345.044 62.7837L345.02 63.8397C345.284 63.6077 345.572 63.4157 345.884 63.2637C346.204 63.1037 346.524 63.0237 346.844 63.0237C347.604 63.0237 348.18 63.2917 348.572 63.8277C348.964 64.3637 349.16 65.0837 349.16 65.9877C349.16 66.6517 349.04 67.2197 348.8 67.6917C348.568 68.1637 348.26 68.5237 347.876 68.7717C347.5 69.0197 347.088 69.1437 346.64 69.1437ZM346.472 68.3157C346.952 68.3157 347.348 68.1117 347.66 67.7037C347.98 67.2877 348.14 66.7197 348.14 65.9997C348.14 65.3597 348.02 64.8437 347.78 64.4517C347.548 64.0517 347.156 63.8517 346.604 63.8517C346.356 63.8517 346.104 63.9197 345.848 64.0557C345.592 64.1917 345.324 64.3877 345.044 64.6437L345.044 67.7037C345.3 67.9277 345.552 68.0877 345.8 68.1837C346.056 68.2717 346.28 68.3157 346.472 68.3157ZM353.057 69.1437C352.537 69.1437 352.065 69.0237 351.641 68.7837C351.217 68.5357 350.881 68.1837 350.633 67.7277C350.385 67.2717 350.261 66.7277 350.261 66.0957C350.261 65.4557 350.385 64.9077 350.633 64.4517C350.889 63.9957 351.217 63.6437 351.617 63.3957C352.017 63.1477 352.437 63.0237 352.877 63.0237C353.621 63.0237 354.193 63.2717 354.593 63.7677C355.001 64.2637 355.205 64.9277 355.205 65.7597C355.205 65.8637 355.201 65.9677 355.193 66.0717C355.193 66.1677 355.185 66.2517 355.169 66.3237L351.233 66.3237C351.273 66.9397 351.465 67.4317 351.809 67.7997C352.161 68.1677 352.617 68.3517 353.177 68.3517C353.457 68.3517 353.713 68.3117 353.945 68.2317C354.185 68.1437 354.413 68.0317 354.629 67.8957L354.977 68.5437C354.729 68.7037 354.445 68.8437 354.125 68.9637C353.813 69.0837 353.457 69.1437 353.057 69.1437ZM351.221 65.6157L354.341 65.6157C354.341 65.0237 354.213 64.5757 353.957 64.2717C353.709 63.9597 353.357 63.8037 352.901 63.8037C352.493 63.8037 352.125 63.9637 351.797 64.2837C351.477 64.5957 351.285 65.0397 351.221 65.6157ZM356.814 68.9997L356.814 63.9717L356.022 63.9717L356.022 63.2277L356.814 63.1677L356.814 62.2437C356.814 61.6517 356.95 61.1837 357.222 60.8397C357.502 60.4877 357.934 60.3117 358.518 60.3117C358.702 60.3117 358.878 60.3317 359.046 60.3717C359.214 60.4037 359.362 60.4477 359.49 60.5037L359.274 61.2597C359.058 61.1637 358.838 61.1157 358.614 61.1157C358.07 61.1157 357.798 61.4917 357.798 62.2437L357.798 63.1677L359.034 63.1677L359.034 63.9717L357.798 63.9717L357.798 68.9997L356.814 68.9997ZM362.301 69.1437C361.829 69.1437 361.385 69.0237 360.969 68.7837C360.561 68.5437 360.229 68.1957 359.973 67.7397C359.725 67.2837 359.601 66.7357 359.601 66.0957C359.601 65.4397 359.725 64.8837 359.973 64.4277C360.229 63.9717 360.561 63.6237 360.969 63.3837C361.385 63.1437 361.829 63.0237 362.301 63.0237C362.781 63.0237 363.225 63.1437 363.633 63.3837C364.041 63.6237 364.369 63.9717 364.617 64.4277C364.873 64.8837 365.001 65.4397 365.001 66.0957C365.001 66.7357 364.873 67.2837 364.617 67.7397C364.369 68.1957 364.041 68.5437 363.633 68.7837C363.225 69.0237 362.781 69.1437 362.301 69.1437ZM362.301 68.3277C362.805 68.3277 363.209 68.1237 363.513 67.7157C363.825 67.2997 363.981 66.7597 363.981 66.0957C363.981 65.4237 363.825 64.8797 363.513 64.4637C363.209 64.0477 362.805 63.8397 362.301 63.8397C361.805 63.8397 361.401 64.0477 361.089 64.4637C360.777 64.8797 360.621 65.4237 360.621 66.0957C360.621 66.7597 360.777 67.2997 361.089 67.7157C361.401 68.1237 361.805 68.3277 362.301 68.3277ZM366.537 68.9997L366.537 63.1677L367.353 63.1677L367.437 64.2237L367.473 64.2237C367.673 63.8557 367.917 63.5637 368.205 63.3477C368.493 63.1317 368.801 63.0237 369.129 63.0237C369.361 63.0237 369.569 63.0637 369.753 63.1437L369.561 64.0077C369.465 63.9757 369.377 63.9517 369.297 63.9357C369.217 63.9197 369.117 63.9117 368.997 63.9117C368.749 63.9117 368.489 64.0117 368.217 64.2117C367.953 64.4117 367.721 64.7597 367.521 65.2557L367.521 68.9997L366.537 68.9997ZM372.944 69.1437C372.424 69.1437 371.952 69.0237 371.528 68.7837C371.104 68.5357 370.768 68.1837 370.52 67.7277C370.272 67.2717 370.148 66.7277 370.148 66.0957C370.148 65.4557 370.272 64.9077 370.52 64.4517C370.776 63.9957 371.104 63.6437 371.504 63.3957C371.904 63.1477 372.324 63.0237 372.764 63.0237C373.508 63.0237 374.08 63.2717 374.48 63.7677C374.888 64.2637 375.092 64.9277 375.092 65.7597C375.092 65.8637 375.088 65.9677 375.08 66.0717C375.08 66.1677 375.072 66.2517 375.056 66.3237L371.12 66.3237C371.16 66.9397 371.352 67.4317 371.696 67.7997C372.048 68.1677 372.504 68.3517 373.064 68.3517C373.344 68.3517 373.6 68.3117 373.832 68.2317C374.072 68.1437 374.3 68.0317 374.516 67.8957L374.864 68.5437C374.616 68.7037 374.332 68.8437 374.012 68.9637C373.7 69.0837 373.344 69.1437 372.944 69.1437ZM371.108 65.6157L374.228 65.6157C374.228 65.0237 374.1 64.5757 373.844 64.2717C373.596 63.9597 373.244 63.8037 372.788 63.8037C372.38 63.8037 372.012 63.9637 371.684 64.2837C371.364 64.5957 371.172 65.0397 371.108 65.6157ZM381.299 69.1437C380.779 69.1437 380.307 69.0237 379.883 68.7837C379.459 68.5357 379.123 68.1837 378.875 67.7277C378.627 67.2717 378.503 66.7277 378.503 66.0957C378.503 65.4557 378.627 64.9077 378.875 64.4517C379.131 63.9957 379.459 63.6437 379.859 63.3957C380.259 63.1477 380.679 63.0237 381.119 63.0237C381.863 63.0237 382.435 63.2717 382.835 63.7677C383.243 64.2637 383.447 64.9277 383.447 65.7597C383.447 65.8637 383.443 65.9677 383.435 66.0717C383.435 66.1677 383.427 66.2517 383.411 66.3237L379.475 66.3237C379.515 66.9397 379.707 67.4317 380.051 67.7997C380.403 68.1677 380.859 68.3517 381.419 68.3517C381.699 68.3517 381.955 68.3117 382.187 68.2317C382.427 68.1437 382.655 68.0317 382.871 67.8957L383.219 68.5437C382.971 68.7037 382.687 68.8437 382.367 68.9637C382.055 69.0837 381.699 69.1437 381.299 69.1437ZM379.463 65.6157L382.583 65.6157C382.583 65.0237 382.455 64.5757 382.199 64.2717C381.951 63.9597 381.599 63.8037 381.143 63.8037C380.735 63.8037 380.367 63.9637 380.039 64.2837C379.719 64.5957 379.527 65.0397 379.463 65.6157ZM383.991 68.9997L385.899 65.9517L384.135 63.1677L385.203 63.1677L385.983 64.4517C386.071 64.6037 386.163 64.7637 386.259 64.9317C386.355 65.0997 386.455 65.2637 386.559 65.4237L386.607 65.4237C386.695 65.2637 386.783 65.0997 386.871 64.9317C386.959 64.7637 387.047 64.6037 387.135 64.4517L387.843 63.1677L388.875 63.1677L387.111 66.0597L389.007 68.9997L387.939 68.9997L387.087 67.6437C386.983 67.4677 386.879 67.2917 386.775 67.1157C386.671 66.9397 386.563 66.7677 386.451 66.5997L386.403 66.5997C386.299 66.7677 386.199 66.9397 386.103 67.1157C386.007 67.2837 385.911 67.4597 385.815 67.6437L385.023 68.9997L383.991 68.9997ZM390.162 71.4597L390.162 63.1677L390.978 63.1677L391.062 63.8397L391.098 63.8397C391.362 63.6157 391.65 63.4237 391.962 63.2637C392.282 63.1037 392.614 63.0237 392.958 63.0237C393.71 63.0237 394.282 63.2957 394.674 63.8397C395.066 64.3757 395.262 65.0957 395.262 65.9997C395.262 66.6557 395.142 67.2197 394.902 67.6917C394.67 68.1637 394.362 68.5237 393.978 68.7717C393.602 69.0197 393.19 69.1437 392.742 69.1437C392.47 69.1437 392.198 69.0837 391.926 68.9637C391.662 68.8437 391.394 68.6797 391.122 68.4717L391.146 69.4917L391.146 71.4597L390.162 71.4597ZM392.574 68.3157C393.054 68.3157 393.45 68.1117 393.762 67.7037C394.082 67.2877 394.242 66.7197 394.242 65.9997C394.242 65.3597 394.122 64.8437 393.882 64.4517C393.65 64.0517 393.258 63.8517 392.706 63.8517C392.458 63.8517 392.206 63.9197 391.95 64.0557C391.702 64.1917 391.434 64.3877 391.146 64.6437L391.146 67.7037C391.41 67.9277 391.666 68.0877 391.914 68.1837C392.162 68.2717 392.382 68.3157 392.574 68.3157ZM396.818 68.9997L396.818 63.1677L397.802 63.1677L397.802 68.9997L396.818 68.9997ZM397.322 61.9677C397.13 61.9677 396.97 61.9117 396.842 61.7997C396.722 61.6797 396.662 61.5197 396.662 61.3197C396.662 61.1277 396.722 60.9717 396.842 60.8517C396.97 60.7317 397.13 60.6717 397.322 60.6717C397.514 60.6717 397.67 60.7317 397.79 60.8517C397.918 60.9717 397.982 61.1277 397.982 61.3197C397.982 61.5197 397.918 61.6797 397.79 61.7997C397.67 61.9117 397.514 61.9677 397.322 61.9677ZM399.771 68.9997L399.771 63.1677L400.587 63.1677L400.671 64.2237L400.707 64.2237C400.907 63.8557 401.151 63.5637 401.439 63.3477C401.727 63.1317 402.035 63.0237 402.363 63.0237C402.595 63.0237 402.803 63.0637 402.987 63.1437L402.795 64.0077C402.699 63.9757 402.611 63.9517 402.531 63.9357C402.451 63.9197 402.351 63.9117 402.231 63.9117C401.983 63.9117 401.723 64.0117 401.451 64.2117C401.187 64.4117 400.955 64.7597 400.755 65.2557L400.755 68.9997L399.771 68.9997ZM404.983 69.1437C404.495 69.1437 404.087 68.9997 403.759 68.7117C403.439 68.4157 403.279 68.0077 403.279 67.4877C403.279 66.8477 403.563 66.3597 404.131 66.0237C404.707 65.6797 405.615 65.4397 406.855 65.3037C406.855 65.0557 406.819 64.8197 406.747 64.5957C406.683 64.3717 406.563 64.1917 406.387 64.0557C406.219 63.9117 405.975 63.8397 405.655 63.8397C405.319 63.8397 405.003 63.9037 404.707 64.0317C404.411 64.1597 404.147 64.3037 403.915 64.4637L403.531 63.7797C403.803 63.6037 404.135 63.4357 404.527 63.2757C404.927 63.1077 405.359 63.0237 405.823 63.0237C406.535 63.0237 407.051 63.2437 407.371 63.6837C407.691 64.1157 407.851 64.6957 407.851 65.4237L407.851 68.9997L407.035 68.9997L406.951 68.3037L406.915 68.3037C406.643 68.5277 406.343 68.7237 406.015 68.8917C405.695 69.0597 405.351 69.1437 404.983 69.1437ZM405.271 68.3517C405.551 68.3517 405.815 68.2837 406.063 68.1477C406.311 68.0117 406.575 67.8197 406.855 67.5717L406.855 65.9517C405.887 66.0717 405.207 66.2517 404.815 66.4917C404.431 66.7317 404.239 67.0397 404.239 67.4157C404.239 67.7437 404.339 67.9837 404.539 68.1357C404.739 68.2797 404.983 68.3517 405.271 68.3517ZM411.357 69.1437C410.733 69.1437 410.297 68.9637 410.049 68.6037C409.809 68.2437 409.689 67.7757 409.689 67.1997L409.689 63.9717L408.825 63.9717L408.825 63.2277L409.737 63.1677L409.857 61.5357L410.685 61.5357L410.685 63.1677L412.257 63.1677L412.257 63.9717L410.685 63.9717L410.685 67.2117C410.685 67.5717 410.749 67.8517 410.877 68.0517C411.013 68.2437 411.249 68.3397 411.585 68.3397C411.689 68.3397 411.801 68.3237 411.921 68.2917C412.041 68.2517 412.149 68.2157 412.245 68.1837L412.437 68.9277C412.277 68.9837 412.101 69.0317 411.909 69.0717C411.725 69.1197 411.541 69.1437 411.357 69.1437ZM413.576 68.9997L413.576 63.1677L414.56 63.1677L414.56 68.9997L413.576 68.9997ZM414.08 61.9677C413.888 61.9677 413.728 61.9117 413.6 61.7997C413.48 61.6797 413.42 61.5197 413.42 61.3197C413.42 61.1277 413.48 60.9717 413.6 60.8517C413.728 60.7317 413.888 60.6717 414.08 60.6717C414.272 60.6717 414.428 60.7317 414.548 60.8517C414.676 60.9717 414.74 61.1277 414.74 61.3197C414.74 61.5197 414.676 61.6797 414.548 61.7997C414.428 61.9117 414.272 61.9677 414.08 61.9677ZM418.797 69.1437C418.325 69.1437 417.881 69.0237 417.465 68.7837C417.057 68.5437 416.725 68.1957 416.469 67.7397C416.221 67.2837 416.097 66.7357 416.097 66.0957C416.097 65.4397 416.221 64.8837 416.469 64.4277C416.725 63.9717 417.057 63.6237 417.465 63.3837C417.881 63.1437 418.325 63.0237 418.797 63.0237C419.277 63.0237 419.721 63.1437 420.129 63.3837C420.537 63.6237 420.865 63.9717 421.113 64.4277C421.369 64.8837 421.497 65.4397 421.497 66.0957C421.497 66.7357 421.369 67.2837 421.113 67.7397C420.865 68.1957 420.537 68.5437 420.129 68.7837C419.721 69.0237 419.277 69.1437 418.797 69.1437ZM418.797 68.3277C419.301 68.3277 419.705 68.1237 420.009 67.7157C420.321 67.2997 420.477 66.7597 420.477 66.0957C420.477 65.4237 420.321 64.8797 420.009 64.4637C419.705 64.0477 419.301 63.8397 418.797 63.8397C418.301 63.8397 417.897 64.0477 417.585 64.4637C417.273 64.8797 417.117 65.4237 417.117 66.0957C417.117 66.7597 417.273 67.2997 417.585 67.7157C417.897 68.1237 418.301 68.3277 418.797 68.3277ZM423.033 68.9997L423.033 63.1677L423.849 63.1677L423.933 64.0077L423.969 64.0077C424.249 63.7277 424.545 63.4957 424.857 63.3117C425.169 63.1197 425.525 63.0237 425.925 63.0237C426.541 63.0237 426.989 63.2197 427.269 63.6117C427.557 63.9957 427.701 64.5597 427.701 65.3037L427.701 68.9997L426.717 68.9997L426.717 65.4357C426.717 64.8917 426.629 64.4957 426.453 64.2477C426.277 63.9997 425.997 63.8757 425.613 63.8757C425.317 63.8757 425.049 63.9517 424.809 64.1037C424.577 64.2557 424.313 64.4797 424.017 64.7757L424.017 68.9997L423.033 68.9997Z" fill="black"/>
<path d="M214.705 117L214.705 109.128L215.905 109.128L217.417 113.328C217.513 113.6 217.605 113.876 217.693 114.156C217.789 114.428 217.885 114.7 217.981 114.972L218.029 114.972C218.125 114.7 218.213 114.428 218.293 114.156C218.381 113.876 218.473 113.6 218.569 113.328L220.057 109.128L221.269 109.128L221.269 117L220.333 117L220.333 112.668C220.333 112.316 220.349 111.928 220.381 111.504C220.413 111.072 220.441 110.684 220.465 110.34L220.417 110.34L219.793 112.128L218.305 116.208L217.645 116.208L216.157 112.128L215.533 110.34L215.485 110.34C215.509 110.684 215.533 111.072 215.557 111.504C215.589 111.928 215.605 112.316 215.605 112.668L215.605 117L214.705 117ZM224.672 117.144C224.184 117.144 223.776 117 223.448 116.712C223.128 116.416 222.968 116.008 222.968 115.488C222.968 114.848 223.252 114.36 223.82 114.024C224.396 113.68 225.304 113.44 226.544 113.304C226.544 113.056 226.508 112.82 226.436 112.596C226.372 112.372 226.252 112.192 226.076 112.056C225.908 111.912 225.664 111.84 225.344 111.84C225.008 111.84 224.692 111.904 224.396 112.032C224.1 112.16 223.836 112.304 223.604 112.464L223.22 111.78C223.492 111.604 223.824 111.436 224.216 111.276C224.616 111.108 225.048 111.024 225.512 111.024C226.224 111.024 226.74 111.244 227.06 111.684C227.38 112.116 227.54 112.696 227.54 113.424L227.54 117L226.724 117L226.64 116.304L226.604 116.304C226.332 116.528 226.032 116.724 225.704 116.892C225.384 117.06 225.04 117.144 224.672 117.144ZM224.96 116.352C225.24 116.352 225.504 116.284 225.752 116.148C226 116.012 226.264 115.82 226.544 115.572L226.544 113.952C225.576 114.072 224.896 114.252 224.504 114.492C224.12 114.732 223.928 115.04 223.928 115.416C223.928 115.744 224.028 115.984 224.228 116.136C224.428 116.28 224.672 116.352 224.96 116.352ZM229.375 117L229.375 111.168L230.191 111.168L230.275 112.224L230.311 112.224C230.511 111.856 230.755 111.564 231.043 111.348C231.331 111.132 231.639 111.024 231.967 111.024C232.199 111.024 232.407 111.064 232.591 111.144L232.399 112.008C232.303 111.976 232.215 111.952 232.135 111.936C232.055 111.92 231.955 111.912 231.835 111.912C231.587 111.912 231.327 112.012 231.055 112.212C230.791 112.412 230.559 112.76 230.359 113.256L230.359 117L229.375 117ZM233.535 117L233.535 108.456L234.507 108.456L234.507 114.24L234.543 114.24L237.027 111.168L238.119 111.168L236.163 113.508L238.383 117L237.303 117L235.599 114.192L234.507 115.464L234.507 117L233.535 117ZM241.629 117.144C241.109 117.144 240.637 117.024 240.213 116.784C239.789 116.536 239.453 116.184 239.205 115.728C238.957 115.272 238.833 114.728 238.833 114.096C238.833 113.456 238.957 112.908 239.205 112.452C239.461 111.996 239.789 111.644 240.189 111.396C240.589 111.148 241.009 111.024 241.449 111.024C242.193 111.024 242.765 111.272 243.165 111.768C243.573 112.264 243.777 112.928 243.777 113.76C243.777 113.864 243.773 113.968 243.765 114.072C243.765 114.168 243.757 114.252 243.741 114.324L239.805 114.324C239.845 114.94 240.037 115.432 240.381 115.8C240.733 116.168 241.189 116.352 241.749 116.352C242.029 116.352 242.285 116.312 242.517 116.232C242.757 116.144 242.985 116.032 243.201 115.896L243.549 116.544C243.301 116.704 243.017 116.844 242.697 116.964C242.385 117.084 242.029 117.144 241.629 117.144ZM239.793 113.616L242.913 113.616C242.913 113.024 242.785 112.576 242.529 112.272C242.281 111.96 241.929 111.804 241.473 111.804C241.065 111.804 240.697 111.964 240.369 112.284C240.049 112.596 239.857 113.04 239.793 113.616ZM246.937 117.144C246.313 117.144 245.877 116.964 245.629 116.604C245.389 116.244 245.269 115.776 245.269 115.2L245.269 111.972L244.405 111.972L244.405 111.228L245.317 111.168L245.437 109.536L246.265 109.536L246.265 111.168L247.837 111.168L247.837 111.972L246.265 111.972L246.265 115.212C246.265 115.572 246.329 115.852 246.457 116.052C246.593 116.244 246.829 116.34 247.165 116.34C247.269 116.34 247.381 116.324 247.501 116.292C247.621 116.252 247.729 116.216 247.825 116.184L248.017 116.928C247.857 116.984 247.681 117.032 247.489 117.072C247.305 117.12 247.121 117.144 246.937 117.144ZM252.818 117L250.718 111.168L251.738 111.168L252.842 114.48C252.93 114.768 253.018 115.056 253.106 115.344C253.202 115.632 253.294 115.916 253.382 116.196L253.43 116.196C253.518 115.916 253.606 115.632 253.694 115.344C253.79 115.056 253.878 114.768 253.958 114.48L255.062 111.168L256.034 111.168L253.97 117L252.818 117ZM258.269 117.144C257.781 117.144 257.373 117 257.045 116.712C256.725 116.416 256.565 116.008 256.565 115.488C256.565 114.848 256.849 114.36 257.417 114.024C257.993 113.68 258.901 113.44 260.141 113.304C260.141 113.056 260.105 112.82 260.033 112.596C259.969 112.372 259.849 112.192 259.673 112.056C259.505 111.912 259.261 111.84 258.941 111.84C258.605 111.84 258.289 111.904 257.993 112.032C257.697 112.16 257.433 112.304 257.201 112.464L256.817 111.78C257.089 111.604 257.421 111.436 257.813 111.276C258.213 111.108 258.645 111.024 259.109 111.024C259.821 111.024 260.337 111.244 260.657 111.684C260.977 112.116 261.137 112.696 261.137 113.424L261.137 117L260.321 117L260.237 116.304L260.201 116.304C259.929 116.528 259.629 116.724 259.301 116.892C258.981 117.06 258.637 117.144 258.269 117.144ZM258.557 116.352C258.837 116.352 259.101 116.284 259.349 116.148C259.597 116.012 259.861 115.82 260.141 115.572L260.141 113.952C259.173 114.072 258.493 114.252 258.101 114.492C257.717 114.732 257.525 115.04 257.525 115.416C257.525 115.744 257.625 115.984 257.825 116.136C258.025 116.28 258.269 116.352 258.557 116.352ZM264.016 117.144C263.648 117.144 263.38 117.032 263.212 116.808C263.052 116.576 262.972 116.248 262.972 115.824L262.972 108.456L263.956 108.456L263.956 115.896C263.956 116.048 263.984 116.16 264.04 116.232C264.096 116.296 264.16 116.328 264.232 116.328C264.264 116.328 264.292 116.328 264.316 116.328C264.348 116.32 264.392 116.312 264.448 116.304L264.58 117.048C264.516 117.08 264.44 117.104 264.352 117.12C264.264 117.136 264.152 117.144 264.016 117.144ZM267.735 117.144C267.119 117.144 266.667 116.952 266.379 116.568C266.091 116.176 265.947 115.608 265.947 114.864L265.947 111.168L266.943 111.168L266.943 114.732C266.943 115.276 267.027 115.672 267.195 115.92C267.371 116.168 267.651 116.292 268.035 116.292C268.339 116.292 268.607 116.216 268.839 116.064C269.079 115.904 269.335 115.652 269.607 115.308L269.607 111.168L270.591 111.168L270.591 117L269.775 117L269.691 116.088L269.655 116.088C269.383 116.408 269.095 116.664 268.791 116.856C268.487 117.048 268.135 117.144 267.735 117.144ZM274.922 117.144C274.402 117.144 273.93 117.024 273.506 116.784C273.082 116.536 272.746 116.184 272.498 115.728C272.25 115.272 272.126 114.728 272.126 114.096C272.126 113.456 272.25 112.908 272.498 112.452C272.754 111.996 273.082 111.644 273.482 111.396C273.882 111.148 274.302 111.024 274.742 111.024C275.486 111.024 276.058 111.272 276.458 111.768C276.866 112.264 277.07 112.928 277.07 113.76C277.07 113.864 277.066 113.968 277.058 114.072C277.058 114.168 277.05 114.252 277.034 114.324L273.098 114.324C273.138 114.94 273.33 115.432 273.674 115.8C274.026 116.168 274.482 116.352 275.042 116.352C275.322 116.352 275.578 116.312 275.81 116.232C276.05 116.144 276.278 116.032 276.494 115.896L276.842 116.544C276.594 116.704 276.31 116.844 275.99 116.964C275.678 117.084 275.322 117.144 274.922 117.144ZM273.086 113.616L276.206 113.616C276.206 113.024 276.078 112.576 275.822 112.272C275.574 111.96 275.222 111.804 274.766 111.804C274.358 111.804 273.99 111.964 273.662 112.284C273.342 112.596 273.15 113.04 273.086 113.616ZM283.182 117.144C282.71 117.144 282.266 117.024 281.85 116.784C281.442 116.544 281.11 116.196 280.854 115.74C280.606 115.284 280.482 114.736 280.482 114.096C280.482 113.44 280.606 112.884 280.854 112.428C281.11 111.972 281.442 111.624 281.85 111.384C282.266 111.144 282.71 111.024 283.182 111.024C283.662 111.024 284.106 111.144 284.514 111.384C284.922 111.624 285.25 111.972 285.498 112.428C285.754 112.884 285.882 113.44 285.882 114.096C285.882 114.736 285.754 115.284 285.498 115.74C285.25 116.196 284.922 116.544 284.514 116.784C284.106 117.024 283.662 117.144 283.182 117.144ZM283.182 116.328C283.686 116.328 284.09 116.124 284.394 115.716C284.706 115.3 284.862 114.76 284.862 114.096C284.862 113.424 284.706 112.88 284.394 112.464C284.09 112.048 283.686 111.84 283.182 111.84C282.686 111.84 282.282 112.048 281.97 112.464C281.658 112.88 281.502 113.424 281.502 114.096C281.502 114.76 281.658 115.3 281.97 115.716C282.282 116.124 282.686 116.328 283.182 116.328ZM287.586 117L287.586 111.972L286.794 111.972L286.794 111.228L287.586 111.168L287.586 110.244C287.586 109.652 287.722 109.184 287.994 108.84C288.274 108.488 288.706 108.312 289.29 108.312C289.474 108.312 289.65 108.332 289.818 108.372C289.986 108.404 290.134 108.448 290.262 108.504L290.046 109.26C289.83 109.164 289.61 109.116 289.386 109.116C288.842 109.116 288.57 109.492 288.57 110.244L288.57 111.168L289.806 111.168L289.806 111.972L288.57 111.972L288.57 117L287.586 117ZM295.592 117.144C295.12 117.144 294.676 117.024 294.26 116.784C293.852 116.544 293.52 116.196 293.264 115.74C293.016 115.284 292.892 114.736 292.892 114.096C292.892 113.44 293.016 112.884 293.264 112.428C293.52 111.972 293.852 111.624 294.26 111.384C294.676 111.144 295.12 111.024 295.592 111.024C296.072 111.024 296.516 111.144 296.924 111.384C297.332 111.624 297.66 111.972 297.908 112.428C298.164 112.884 298.292 113.44 298.292 114.096C298.292 114.736 298.164 115.284 297.908 115.74C297.66 116.196 297.332 116.544 296.924 116.784C296.516 117.024 296.072 117.144 295.592 117.144ZM295.592 116.328C296.096 116.328 296.5 116.124 296.804 115.716C297.116 115.3 297.272 114.76 297.272 114.096C297.272 113.424 297.116 112.88 296.804 112.464C296.5 112.048 296.096 111.84 295.592 111.84C295.096 111.84 294.692 112.048 294.38 112.464C294.068 112.88 293.912 113.424 293.912 114.096C293.912 114.76 294.068 115.3 294.38 115.716C294.692 116.124 295.096 116.328 295.592 116.328ZM299.828 119.46L299.828 111.168L300.644 111.168L300.728 111.84L300.764 111.84C301.028 111.616 301.316 111.424 301.628 111.264C301.948 111.104 302.28 111.024 302.624 111.024C303.376 111.024 303.948 111.296 304.34 111.84C304.732 112.376 304.928 113.096 304.928 114C304.928 114.656 304.808 115.22 304.568 115.692C304.336 116.164 304.028 116.524 303.644 116.772C303.268 117.02 302.856 117.144 302.408 117.144C302.136 117.144 301.864 117.084 301.592 116.964C301.328 116.844 301.06 116.68 300.788 116.472L300.812 117.492L300.812 119.46L299.828 119.46ZM302.24 116.316C302.72 116.316 303.116 116.112 303.428 115.704C303.748 115.288 303.908 114.72 303.908 114C303.908 113.36 303.788 112.844 303.548 112.452C303.316 112.052 302.924 111.852 302.372 111.852C302.124 111.852 301.872 111.92 301.616 112.056C301.368 112.192 301.1 112.388 300.812 112.644L300.812 115.704C301.076 115.928 301.332 116.088 301.58 116.184C301.828 116.272 302.048 116.316 302.24 116.316ZM308.121 117.144C307.497 117.144 307.061 116.964 306.813 116.604C306.573 116.244 306.453 115.776 306.453 115.2L306.453 111.972L305.589 111.972L305.589 111.228L306.501 111.168L306.621 109.536L307.449 109.536L307.449 111.168L309.021 111.168L309.021 111.972L307.449 111.972L307.449 115.212C307.449 115.572 307.513 115.852 307.641 116.052C307.777 116.244 308.013 116.34 308.349 116.34C308.453 116.34 308.565 116.324 308.685 116.292C308.805 116.252 308.913 116.216 309.009 116.184L309.201 116.928C309.041 116.984 308.865 117.032 308.673 117.072C308.489 117.12 308.305 117.144 308.121 117.144ZM310.339 117L310.339 111.168L311.323 111.168L311.323 117L310.339 117ZM310.843 109.968C310.651 109.968 310.491 109.912 310.363 109.8C310.243 109.68 310.183 109.52 310.183 109.32C310.183 109.128 310.243 108.972 310.363 108.852C310.491 108.732 310.651 108.672 310.843 108.672C311.035 108.672 311.191 108.732 311.311 108.852C311.439 108.972 311.503 109.128 311.503 109.32C311.503 109.52 311.439 109.68 311.311 109.8C311.191 109.912 311.035 109.968 310.843 109.968ZM315.561 117.144C315.089 117.144 314.645 117.024 314.229 116.784C313.821 116.544 313.489 116.196 313.233 115.74C312.985 115.284 312.861 114.736 312.861 114.096C312.861 113.44 312.985 112.884 313.233 112.428C313.489 111.972 313.821 111.624 314.229 111.384C314.645 111.144 315.089 111.024 315.561 111.024C316.041 111.024 316.485 111.144 316.893 111.384C317.301 111.624 317.629 111.972 317.877 112.428C318.133 112.884 318.261 113.44 318.261 114.096C318.261 114.736 318.133 115.284 317.877 115.74C317.629 116.196 317.301 116.544 316.893 116.784C316.485 117.024 316.041 117.144 315.561 117.144ZM315.561 116.328C316.065 116.328 316.469 116.124 316.773 115.716C317.085 115.3 317.241 114.76 317.241 114.096C317.241 113.424 317.085 112.88 316.773 112.464C316.469 112.048 316.065 111.84 315.561 111.84C315.065 111.84 314.661 112.048 314.349 112.464C314.037 112.88 313.881 113.424 313.881 114.096C313.881 114.76 314.037 115.3 314.349 115.716C314.661 116.124 315.065 116.328 315.561 116.328ZM319.797 117L319.797 111.168L320.613 111.168L320.697 112.008L320.733 112.008C321.013 111.728 321.309 111.496 321.621 111.312C321.933 111.12 322.289 111.024 322.689 111.024C323.305 111.024 323.753 111.22 324.033 111.612C324.321 111.996 324.465 112.56 324.465 113.304L324.465 117L323.481 117L323.481 113.436C323.481 112.892 323.393 112.496 323.217 112.248C323.041 112 322.761 111.876 322.377 111.876C322.081 111.876 321.813 111.952 321.573 112.104C321.341 112.256 321.077 112.48 320.781 112.776L320.781 117L319.797 117Z" fill="black"/>
<path d="M442.17 210L439.722 202.152H441.198L442.302 206.1C442.43 206.54 442.546 206.964 442.65 207.372C442.754 207.78 442.87 208.208 442.998 208.656H443.046C443.182 208.208 443.298 207.78 443.394 207.372C443.498 206.964 443.61 206.54 443.73 206.1L444.822 202.152H446.25L443.814 210H442.17ZM449.292 210.144C448.804 210.144 448.348 210.024 447.924 209.784C447.5 209.536 447.156 209.184 446.892 208.728C446.628 208.264 446.496 207.708 446.496 207.06C446.496 206.404 446.628 205.848 446.892 205.392C447.156 204.928 447.5 204.576 447.924 204.336C448.348 204.088 448.804 203.964 449.292 203.964C449.788 203.964 450.248 204.088 450.672 204.336C451.096 204.576 451.44 204.928 451.704 205.392C451.968 205.848 452.1 206.404 452.1 207.06C452.1 207.708 451.968 208.264 451.704 208.728C451.44 209.184 451.096 209.536 450.672 209.784C450.248 210.024 449.788 210.144 449.292 210.144ZM449.292 209.016C449.724 209.016 450.064 208.836 450.312 208.476C450.56 208.116 450.684 207.644 450.684 207.06C450.684 206.468 450.56 205.992 450.312 205.632C450.064 205.272 449.724 205.092 449.292 205.092C448.86 205.092 448.52 205.272 448.272 205.632C448.032 205.992 447.912 206.468 447.912 207.06C447.912 207.644 448.032 208.116 448.272 208.476C448.52 208.836 448.86 209.016 449.292 209.016ZM454.81 210.144C454.322 210.144 453.974 209.996 453.766 209.7C453.566 209.404 453.466 209 453.466 208.488V201.528H454.846V208.56C454.846 208.728 454.878 208.848 454.942 208.92C455.006 208.984 455.074 209.016 455.146 209.016C455.178 209.016 455.206 209.016 455.23 209.016C455.262 209.008 455.306 209 455.362 208.992L455.542 210.024C455.462 210.056 455.358 210.084 455.23 210.108C455.11 210.132 454.97 210.144 454.81 210.144ZM458.152 210.144C457.64 210.144 457.22 209.984 456.892 209.664C456.572 209.344 456.412 208.928 456.412 208.416C456.412 207.784 456.688 207.296 457.24 206.952C457.792 206.6 458.672 206.36 459.88 206.232C459.872 205.92 459.788 205.652 459.628 205.428C459.476 205.196 459.2 205.08 458.8 205.08C458.512 205.08 458.228 205.136 457.948 205.248C457.676 205.36 457.408 205.496 457.144 205.656L456.64 204.732C456.968 204.524 457.336 204.344 457.744 204.192C458.16 204.04 458.6 203.964 459.064 203.964C459.8 203.964 460.348 204.184 460.708 204.624C461.076 205.056 461.26 205.684 461.26 206.508V210H460.12L460.024 209.352H459.976C459.712 209.576 459.428 209.764 459.124 209.916C458.828 210.068 458.504 210.144 458.152 210.144ZM458.596 209.064C458.836 209.064 459.052 209.008 459.244 208.896C459.444 208.776 459.656 208.616 459.88 208.416V207.096C459.08 207.2 458.524 207.356 458.212 207.564C457.9 207.764 457.744 208.012 457.744 208.308C457.744 208.572 457.824 208.764 457.984 208.884C458.144 209.004 458.348 209.064 458.596 209.064ZM464.8 210.144C464.12 210.144 463.636 209.948 463.348 209.556C463.068 209.156 462.928 208.64 462.928 208.008V205.2H462.088V204.168L463 204.108L463.168 202.5H464.32V204.108H465.82V205.2H464.32V208.008C464.32 208.696 464.596 209.04 465.148 209.04C465.252 209.04 465.36 209.028 465.472 209.004C465.584 208.972 465.68 208.94 465.76 208.908L466 209.928C465.84 209.984 465.656 210.032 465.448 210.072C465.248 210.12 465.032 210.144 464.8 210.144ZM467.06 210V204.108H468.44V210H467.06ZM467.756 203.076C467.508 203.076 467.308 203.004 467.156 202.86C467.004 202.716 466.928 202.524 466.928 202.284C466.928 202.052 467.004 201.864 467.156 201.72C467.308 201.576 467.508 201.504 467.756 201.504C468.004 201.504 468.204 201.576 468.356 201.72C468.508 201.864 468.584 202.052 468.584 202.284C468.584 202.524 468.508 202.716 468.356 202.86C468.204 203.004 468.004 203.076 467.756 203.076ZM471.544 210.144C471.056 210.144 470.708 209.996 470.5 209.7C470.3 209.404 470.2 209 470.2 208.488V201.528H471.58V208.56C471.58 208.728 471.612 208.848 471.676 208.92C471.74 208.984 471.808 209.016 471.88 209.016C471.912 209.016 471.94 209.016 471.964 209.016C471.996 209.008 472.04 209 472.096 208.992L472.276 210.024C472.196 210.056 472.092 210.084 471.964 210.108C471.844 210.132 471.704 210.144 471.544 210.144ZM473.458 210V204.108H474.838V210H473.458ZM474.154 203.076C473.906 203.076 473.706 203.004 473.554 202.86C473.402 202.716 473.326 202.524 473.326 202.284C473.326 202.052 473.402 201.864 473.554 201.72C473.706 201.576 473.906 201.504 474.154 201.504C474.402 201.504 474.602 201.576 474.754 201.72C474.906 201.864 474.982 202.052 474.982 202.284C474.982 202.524 474.906 202.716 474.754 202.86C474.602 203.004 474.402 203.076 474.154 203.076ZM478.675 210.144C477.995 210.144 477.511 209.948 477.223 209.556C476.943 209.156 476.803 208.64 476.803 208.008V205.2H475.963V204.168L476.875 204.108L477.043 202.5H478.195V204.108H479.695V205.2H478.195V208.008C478.195 208.696 478.471 209.04 479.023 209.04C479.127 209.04 479.235 209.028 479.347 209.004C479.459 208.972 479.555 208.94 479.635 208.908L479.875 209.928C479.715 209.984 479.531 210.032 479.323 210.072C479.123 210.12 478.907 210.144 478.675 210.144ZM481.331 212.424C481.171 212.424 481.031 212.412 480.911 212.388C480.791 212.364 480.675 212.336 480.563 212.304L480.815 211.224C480.871 211.24 480.935 211.256 481.007 211.272C481.087 211.296 481.163 211.308 481.235 211.308C481.547 211.308 481.795 211.212 481.979 211.02C482.171 210.836 482.315 210.596 482.411 210.3L482.519 209.928L480.203 204.108H481.607L482.627 207C482.715 207.256 482.799 207.528 482.879 207.816C482.967 208.096 483.055 208.376 483.143 208.656H483.191C483.263 208.384 483.335 208.108 483.407 207.828C483.487 207.54 483.563 207.264 483.635 207L484.523 204.108H485.855L483.719 210.264C483.471 210.928 483.171 211.452 482.819 211.836C482.467 212.228 481.971 212.424 481.331 212.424Z" fill="black"/>
<path d="M183.096 212.192C182.04 212.192 181.197 211.733 180.568 210.816C179.949 209.899 179.64 208.581 179.64 206.864C179.64 205.147 179.949 203.845 180.568 202.96C181.197 202.075 182.04 201.632 183.096 201.632C184.152 201.632 184.989 202.075 185.608 202.96C186.237 203.845 186.552 205.147 186.552 206.864C186.552 208.581 186.237 209.899 185.608 210.816C184.989 211.733 184.152 212.192 183.096 212.192ZM183.096 210.752C183.427 210.752 183.72 210.629 183.976 210.384C184.232 210.128 184.429 209.717 184.568 209.152C184.717 208.587 184.792 207.824 184.792 206.864C184.792 205.904 184.717 205.147 184.568 204.592C184.429 204.037 184.232 203.648 183.976 203.424C183.72 203.189 183.427 203.072 183.096 203.072C182.776 203.072 182.488 203.189 182.232 203.424C181.976 203.648 181.773 204.037 181.624 204.592C181.475 205.147 181.4 205.904 181.4 206.864C181.4 207.824 181.475 208.587 181.624 209.152C181.773 209.717 181.976 210.128 182.232 210.384C182.488 210.629 182.776 210.752 183.096 210.752Z" fill="black"/>
</svg>
