<svg width="733" height="215" viewBox="0 0 733 215" fill="none" xmlns="http://www.w3.org/2000/svg">
<path d="M44.5989 184.573V179.24" stroke="black" stroke-width="0.666667" stroke-miterlimit="10" stroke-linejoin="round"/>
<path d="M41.5792 196.083C41.5792 195.141 41.6573 194.307 41.8187 193.573C41.9802 192.854 42.1729 192.292 42.4281 191.875C42.6677 191.458 42.9542 191.125 43.3083 190.87C43.6417 190.615 43.9646 190.453 44.2823 190.359C44.6052 190.276 44.9385 190.229 45.2927 190.229C47.7562 190.229 49.0062 192.214 49.0062 196.182C49.0062 198.052 48.6833 199.479 48.0427 200.453C47.4021 201.443 46.4906 201.927 45.2927 201.927C44.074 201.927 43.1469 201.427 42.5219 200.438C41.8812 199.443 41.5792 198.005 41.5792 196.083ZM47.5635 196.052C47.5635 193.01 46.7979 191.479 45.2927 191.479C43.7719 191.479 43.0219 193.031 43.0219 196.099C43.0219 199.219 43.7562 200.771 45.2615 200.771C46.0427 200.771 46.6208 200.391 47.0062 199.62C47.3708 198.854 47.5635 197.667 47.5635 196.052Z" fill="black"/>
<path d="M178.521 184.573V179.24" stroke="black" stroke-width="0.666667" stroke-miterlimit="10" stroke-linejoin="round"/>
<path d="M174.978 193.495H172.463V192.484C173.551 192.359 174.254 192.167 174.593 191.911C174.911 191.667 175.202 191.109 175.457 190.229H176.385V201.573H174.978V193.495Z" fill="black"/>
<path d="M180.416 196.083C180.416 195.141 180.494 194.307 180.656 193.573C180.817 192.854 181.01 192.292 181.265 191.875C181.505 191.458 181.791 191.125 182.145 190.87C182.478 190.615 182.801 190.453 183.119 190.359C183.442 190.276 183.775 190.229 184.13 190.229C186.593 190.229 187.843 192.214 187.843 196.182C187.843 198.052 187.52 199.479 186.88 200.453C186.239 201.443 185.327 201.927 184.13 201.927C182.911 201.927 181.984 201.427 181.359 200.438C180.718 199.443 180.416 198.005 180.416 196.083ZM186.4 196.052C186.4 193.01 185.635 191.479 184.13 191.479C182.609 191.479 181.859 193.031 181.859 196.099C181.859 199.219 182.593 200.771 184.098 200.771C184.88 200.771 185.458 200.391 185.843 199.62C186.208 198.854 186.4 197.667 186.4 196.052Z" fill="black"/>
<path d="M312.438 184.573V179.24" stroke="black" stroke-width="0.666667" stroke-miterlimit="10" stroke-linejoin="round"/>
<path d="M305.013 194.167C305.075 191.542 306.325 190.229 308.753 190.229C309.825 190.229 310.706 190.547 311.378 191.156C312.049 191.781 312.388 192.583 312.388 193.557C312.388 194.964 311.586 196.115 309.987 196.979L308.388 197.844C307.685 198.229 307.185 198.583 306.898 198.932C306.596 199.286 306.404 199.703 306.341 200.182H312.305V201.573H304.753C304.82 200.323 305.06 199.365 305.508 198.693C305.94 198.021 306.753 197.333 307.94 196.661L309.409 195.828C310.435 195.255 310.945 194.5 310.945 193.589C310.945 192.979 310.721 192.484 310.305 192.068C309.872 191.667 309.346 191.458 308.706 191.458C307.284 191.458 306.513 192.375 306.419 194.167H305.013Z" fill="black"/>
<path d="M313.794 196.083C313.794 195.141 313.872 194.307 314.034 193.573C314.195 192.854 314.388 192.292 314.643 191.875C314.883 191.458 315.169 191.125 315.524 190.87C315.857 190.615 316.18 190.453 316.497 190.359C316.82 190.276 317.154 190.229 317.508 190.229C319.971 190.229 321.221 192.214 321.221 196.182C321.221 198.052 320.899 199.479 320.258 200.453C319.617 201.443 318.706 201.927 317.508 201.927C316.289 201.927 315.362 201.427 314.737 200.438C314.096 199.443 313.794 198.005 313.794 196.083ZM319.779 196.052C319.779 193.01 319.013 191.479 317.508 191.479C315.987 191.479 315.237 193.031 315.237 196.099C315.237 199.219 315.971 200.771 317.477 200.771C318.258 200.771 318.836 200.391 319.221 199.62C319.586 198.854 319.779 197.667 319.779 196.052Z" fill="black"/>
<path d="M446.359 184.573V179.24" stroke="black" stroke-width="0.666667" stroke-miterlimit="10" stroke-linejoin="round"/>
<path d="M442.438 191.458C441.626 191.458 441.063 191.688 440.761 192.135C440.459 192.583 440.298 193.156 440.282 193.891H438.87C438.923 191.458 440.105 190.229 442.423 190.229C443.495 190.229 444.344 190.516 444.954 191.063C445.558 191.62 445.881 192.391 445.881 193.349C445.881 194.5 445.355 195.286 444.298 195.703C444.969 195.943 445.464 196.276 445.766 196.693C446.058 197.109 446.214 197.688 446.214 198.406C446.214 199.495 445.865 200.339 445.162 200.979C444.459 201.604 443.527 201.927 442.376 201.927C440.042 201.927 438.792 200.708 438.631 198.276H440.042C440.089 199.109 440.313 199.719 440.699 200.099C441.079 200.5 441.657 200.693 442.423 200.693C443.162 200.693 443.735 200.5 444.152 200.099C444.568 199.703 444.777 199.141 444.777 198.422C444.777 197.047 443.99 196.359 442.423 196.359L441.834 196.375H441.657V195.172C442.662 195.156 443.386 195.031 443.803 194.786C444.214 194.563 444.438 194.099 444.438 193.396C444.438 192.807 444.251 192.339 443.896 191.99C443.542 191.635 443.048 191.458 442.438 191.458Z" fill="black"/>
<path d="M447.704 196.083C447.704 195.141 447.782 194.307 447.944 193.573C448.105 192.854 448.298 192.292 448.553 191.875C448.792 191.458 449.079 191.125 449.433 190.87C449.766 190.615 450.089 190.453 450.407 190.359C450.73 190.276 451.063 190.229 451.417 190.229C453.881 190.229 455.131 192.214 455.131 196.182C455.131 198.052 454.808 199.479 454.167 200.453C453.527 201.443 452.615 201.927 451.417 201.927C450.199 201.927 449.272 201.427 448.647 200.438C448.006 199.443 447.704 198.005 447.704 196.083ZM453.688 196.052C453.688 193.01 452.923 191.479 451.417 191.479C449.897 191.479 449.147 193.031 449.147 196.099C449.147 199.219 449.881 200.771 451.386 200.771C452.167 200.771 452.746 200.391 453.131 199.62C453.496 198.854 453.688 197.667 453.688 196.052Z" fill="black"/>
<path d="M580.281 184.573V179.24" stroke="black" stroke-width="0.666667" stroke-miterlimit="10" stroke-linejoin="round"/>
<path d="M577.244 198.854H572.457V197.365L577.608 190.229H578.65V197.589H580.327V198.854H578.65V201.573H577.244V198.854ZM577.244 197.589V192.63L573.691 197.589H577.244Z" fill="black"/>
<path d="M581.593 196.083C581.593 195.141 581.671 194.307 581.832 193.573C581.994 192.854 582.186 192.292 582.442 191.875C582.681 191.458 582.968 191.125 583.322 190.87C583.655 190.615 583.978 190.453 584.296 190.359C584.619 190.276 584.952 190.229 585.306 190.229C587.77 190.229 589.02 192.214 589.02 196.182C589.02 198.052 588.697 199.479 588.056 200.453C587.416 201.443 586.504 201.927 585.306 201.927C584.087 201.927 583.16 201.427 582.535 200.438C581.895 199.443 581.593 198.005 581.593 196.083ZM587.577 196.052C587.577 193.01 586.811 191.479 585.306 191.479C583.785 191.479 583.035 193.031 583.035 196.099C583.035 199.219 583.77 200.771 585.275 200.771C586.056 200.771 586.634 200.391 587.02 199.62C587.384 198.854 587.577 197.667 587.577 196.052Z" fill="black"/>
<path d="M714.198 184.573V179.24" stroke="black" stroke-width="0.666667" stroke-miterlimit="10" stroke-linejoin="round"/>
<path d="M713.596 190.229V191.62H708.877L708.429 194.786C709.054 194.339 709.757 194.099 710.523 194.099C711.612 194.099 712.492 194.453 713.164 195.156C713.835 195.859 714.19 196.755 714.19 197.875C714.19 199.078 713.82 200.052 713.101 200.807C712.367 201.557 711.44 201.927 710.299 201.927C709.851 201.927 709.455 201.875 709.085 201.781C708.716 201.688 708.414 201.573 708.174 201.443C707.934 201.318 707.71 201.156 707.518 200.932C707.325 200.708 707.164 200.516 707.07 200.359C706.971 200.198 706.877 199.99 706.783 199.734C706.684 199.479 706.638 199.302 706.622 199.203C706.591 199.109 706.575 198.979 706.544 198.786H707.95C708.268 200.068 709.054 200.693 710.268 200.693C711.039 200.693 711.627 200.469 712.075 199.99C712.523 199.526 712.747 198.885 712.747 198.068C712.747 197.234 712.523 196.563 712.075 196.083C711.627 195.604 711.023 195.349 710.268 195.349C709.82 195.349 709.455 195.427 709.148 195.589C708.83 195.75 708.507 196.021 708.19 196.406H706.893L707.742 190.229H713.596Z" fill="black"/>
<path d="M715.565 196.083C715.565 195.141 715.643 194.307 715.804 193.573C715.966 192.854 716.159 192.292 716.414 191.875C716.653 191.458 716.94 191.125 717.294 190.87C717.627 190.615 717.95 190.453 718.268 190.359C718.591 190.276 718.924 190.229 719.278 190.229C721.742 190.229 722.992 192.214 722.992 196.182C722.992 198.052 722.669 199.479 722.028 200.453C721.388 201.443 720.476 201.927 719.278 201.927C718.06 201.927 717.133 201.427 716.508 200.438C715.867 199.443 715.565 198.005 715.565 196.083ZM721.549 196.052C721.549 193.01 720.784 191.479 719.278 191.479C717.758 191.479 717.008 193.031 717.008 196.099C717.008 199.219 717.742 200.771 719.247 200.771C720.028 200.771 720.606 200.391 720.992 199.62C721.356 198.854 721.549 197.667 721.549 196.052Z" fill="black"/>
<path d="M44.5989 127.245L49.9635 59.6406L51.3021 46.9687L52.6458 37.3854L53.3125 33.8385L53.9844 31.1302L54.6562 29.2448L55.3229 28.1614L55.9948 27.8177L56.6666 28.1666L57.3333 29.125L58.0052 30.6146L59.3437 34.8177L64.0364 52.3229L65.3802 55.4687L66.0469 56.4791L66.7187 57.0989L67.3906 57.3333L68.0573 57.2083L68.7291 56.75L69.401 56.0156L70.7396 53.9479L72.75 50.5L73.4219 49.5989L74.0937 48.9635L74.7604 48.6771L75.4323 48.8177L76.1041 49.4479L76.7708 50.625L77.4427 52.3958L78.1146 54.7864L79.4531 61.4948L80.7969 70.6666L82.1354 81.9896L84.1458 101.703L87.4948 134.802L88.8385 145.38L90.1771 153.125L90.8489 155.724L91.5208 157.391L92.1875 158.094L92.8594 157.797L93.5312 156.505L94.1979 154.24L94.8698 151.031L96.2083 142.042L97.5521 130.208L99.5625 109.177L102.245 80.9583L103.583 69.3906L104.922 60.8802L105.594 58.0156L106.266 56.1823L106.937 55.4166L107.604 55.75L108.276 57.1875L108.948 59.7083L109.615 63.276L110.958 73.2708L112.297 86.4583L114.307 110.01L116.99 142.115L118.328 155.682L119.672 166.135L120.339 169.927L121.01 172.656L121.682 174.271L122.349 174.729L123.021 174.026L123.693 172.167L124.365 169.182L125.031 165.125L126.375 154.089L127.714 139.818L129.724 114.505L133.078 71.1666L134.417 56.4635L135.755 44.4687L137.099 35.6406L137.766 32.4791L138.437 30.1562L139.109 28.6458L139.776 27.9114L140.448 27.8958L141.12 28.5364L141.792 29.7552L143.13 33.5573L145.141 41.25L147.151 49.026L148.49 53.1719L149.833 55.9791L150.505 56.8125L151.172 57.2552L151.844 57.3177L152.516 57.0364L153.182 56.4427L154.526 54.5573L157.203 50.0573L157.875 49.2656L158.547 48.7864L159.219 48.6875L159.885 49.0416L160.557 49.9166L161.229 51.3646L161.896 53.4219L162.568 56.1094L163.906 63.401L165.25 73.1094L167.26 91.3073L171.953 137.458L173.292 147.448L174.63 154.437L175.302 156.615L175.974 157.839L176.646 158.078L177.312 157.323L177.984 155.578L178.656 152.87L179.323 149.25L180.667 139.531L182.005 127.167L187.37 72.2396L188.708 62.8229L189.38 59.4323L190.047 57.0364L190.719 55.6927L191.391 55.4323L192.057 56.2812L192.729 58.2187L193.401 61.2291L194.068 65.2604L195.411 76.0677L196.75 89.8541L199.432 122.089L201.443 145.474L202.781 158.406L204.125 168.016L204.797 171.328L205.464 173.547L206.135 174.63L206.807 174.552L207.474 173.312L208.146 170.927L208.818 167.437L210.156 157.411L211.495 143.922L213.51 119.255L217.531 67.5625L218.87 53.4323L220.208 42.1354L221.552 34.0781L222.224 31.3073L222.891 29.3594L223.562 28.2135L224.234 27.8177L224.901 28.1146L225.573 29.0312L226.245 30.4844L227.583 34.6354L230.266 45.1771L231.604 50.0833L232.948 53.9531L233.615 55.375L234.286 56.4114L234.958 57.0625L235.625 57.3281L236.297 57.2291L236.969 56.7969L237.635 56.0781L238.979 54.0364L240.99 50.5781L241.661 49.6614L242.328 49L243 48.6875L243.672 48.7916L244.339 49.3802L245.01 50.5156L245.682 52.2396L246.349 54.5833L247.693 61.1927L249.031 70.276L250.375 81.526L252.385 101.177L255.734 134.359L257.078 145.021L258.417 152.891L259.089 155.557L259.755 157.302L260.427 158.073L261.099 157.854L261.766 156.641L262.437 154.448L263.109 151.307L264.448 142.443L265.792 130.703L267.802 109.734L270.479 81.4479L271.823 69.7812L273.161 61.1354L273.833 58.1979L274.505 56.2864L275.172 55.4375L275.844 55.6875L276.516 57.0416L277.182 59.4791L277.854 62.9687L279.193 72.8281L280.536 85.9062L282.547 109.38L285.229 141.552L286.568 155.219L287.906 165.807L288.578 169.677L289.25 172.49L289.917 174.187L290.589 174.74L291.26 174.12L291.932 172.349L292.599 169.448L293.271 165.474L294.609 154.573L295.953 140.406L297.964 115.177L301.312 71.7708L302.656 56.9791L303.995 44.8698L305.333 35.9166L306.005 32.6927L306.677 30.3073L307.344 28.7344L308.016 27.9427L308.687 27.875L309.354 28.4687L310.026 29.6406L310.698 31.3125L312.036 35.7656L316.057 51.0885L317.401 54.6562L318.068 55.901L318.74 56.7604L319.411 57.2344L320.083 57.3281L320.75 57.0677L321.422 56.5L322.76 54.6406L325.443 50.1302L326.115 49.3177L326.781 48.8073L327.453 48.6771L328.125 49L328.797 49.8333L329.464 51.2344L330.135 53.2448L330.807 55.8802L332.146 63.0781L333.484 72.6979L334.828 84.375L337.51 111.271L339.521 131.115L340.859 142.396L342.198 151.089L342.87 154.234L343.542 156.479L344.208 157.781L344.88 158.094L345.552 157.417L346.224 155.745L346.891 153.109L347.562 149.557L348.901 139.958L350.245 127.672L352.922 99.0312L354.937 78.5312L356.276 67.4844L357.615 59.6562L358.286 57.1823L358.958 55.7552L359.625 55.4166L360.297 56.1771L360.969 58.0364L361.635 60.9635L362.307 64.9166L363.651 75.5937L364.99 89.2864L367.672 121.458L369.682 144.927L371.021 157.969L372.365 167.719L373.031 171.109L373.703 173.417L374.375 174.589L375.042 174.599L375.714 173.448L376.385 171.146L377.052 167.74L378.396 157.865L379.734 144.49L381.745 119.922L385.766 68.151L387.109 53.9219L388.448 42.5104L389.792 34.3229L390.458 31.4896L391.13 29.4791L391.802 28.276L392.469 27.8229L393.141 28.0729L393.812 28.9427L394.479 30.3594L395.823 34.4531L397.833 42.2969L399.844 49.9114L401.182 53.8281L401.854 55.276L402.526 56.3489L403.193 57.026L403.865 57.3229L404.536 57.25L405.203 56.8385L405.875 56.1406L407.219 54.125L409.229 50.6562L410.568 49.0416L411.24 48.6979L411.906 48.7656L412.578 49.3177L413.25 50.4062L413.917 52.0833L414.589 54.3854L415.932 60.8906L417.271 69.8906L418.609 81.0625L420.62 100.656L423.974 133.906L425.312 144.661L426.656 152.651L427.323 155.385L427.995 157.203L428.667 158.047L429.333 157.906L430.005 156.766L430.677 154.646L431.344 151.578L432.687 142.839L434.026 131.193L436.036 110.292L438.719 81.9375L440.057 70.1771L441.401 61.401L442.068 58.3906L442.74 56.3906L443.411 55.4635L444.083 55.6302L444.75 56.901L445.422 59.2552L446.094 62.6666L447.432 72.3854L448.771 85.3594L450.781 108.755L453.464 140.984L454.807 154.745L456.146 165.469L456.818 169.417L457.484 172.312L458.156 174.099L458.828 174.734L459.495 174.208L460.167 172.526L460.839 169.708L461.51 165.812L462.849 155.052L464.187 140.995L466.198 115.854L469.552 72.375L470.891 57.4948L472.234 45.276L473.573 36.1927L474.245 32.9062L474.911 30.4583L475.583 28.8281L476.255 27.9791L476.922 27.8541L477.594 28.401L478.266 29.5364L478.937 31.1719L480.276 35.5729L484.297 50.9271L485.635 54.5469L486.307 55.8229L486.979 56.7135L487.651 57.2135L488.318 57.3333L488.99 57.0989L489.661 56.5521L491 54.7239L493.682 50.1979L494.349 49.3698L495.021 48.8333L495.693 48.6719L496.365 48.9583L497.031 49.75L497.703 51.1094L498.375 53.0677L499.042 55.6614L500.385 62.7552L501.724 72.2916L503.062 83.901L505.745 110.75L507.755 130.646L509.099 142.01L510.437 150.812L511.109 154.026L511.776 156.344L512.448 157.714L513.12 158.109L513.792 157.505L514.458 155.906L515.13 153.344L515.802 149.854L517.141 140.375L518.479 128.177L521.161 99.5885L523.172 79.0052L524.516 67.8489L525.854 59.8854L526.526 57.3385L527.193 55.8281L527.865 55.401L528.536 56.0781L529.203 57.8541L529.875 60.7031L530.547 64.5833L531.885 75.125L533.229 88.7239L535.906 120.833L537.917 144.38L539.26 157.526L540.599 167.422L541.271 170.891L541.943 173.281L542.609 174.536L543.281 174.635L543.953 173.573L544.62 171.359L545.292 168.036L546.63 158.307L547.974 145.052L549.984 120.589L554.005 68.7396L555.344 54.4114L556.687 42.8854L558.026 34.5729L558.698 31.6719L559.37 29.6041L560.036 28.3385L560.708 27.8333L561.38 28.0312L562.047 28.8541L562.719 30.2344L564.057 34.2708L566.068 42.0885L568.083 49.7396L569.422 53.7031L570.094 55.1823L570.76 56.2812L571.432 56.9896L572.104 57.3125L572.771 57.2656L573.443 56.8802L574.115 56.2031L575.453 54.2083L578.135 49.7864L578.807 49.0833L579.474 48.7083L580.146 48.7448L580.818 49.2552L581.484 50.3021L582.156 51.9375L582.828 54.1875L584.167 60.5989L585.51 69.5052L586.849 80.6041L588.859 100.135L592.208 133.453L593.552 144.302L594.891 152.406L595.562 155.208L596.234 157.094L596.901 158.021L597.573 157.953L598.245 156.891L598.911 154.844L599.583 151.844L600.922 143.229L602.266 131.677L604.276 110.849L606.958 82.4323L608.297 70.5729L609.635 61.6719L610.307 58.5833L610.979 56.5052L611.651 55.4948L612.318 55.5781L612.99 56.7656L613.661 59.0416L614.328 62.3698L615.672 71.9531L617.01 84.8177L619.021 108.13L622.375 147.656L623.714 160.135L625.052 169.156L625.724 172.13L626.396 174.005L627.062 174.729L627.734 174.292L628.406 172.693L629.078 169.964L629.745 166.146L631.089 155.531L632.427 141.578L634.437 116.526L637.792 72.9844L639.13 58.0156L640.469 45.6823L641.812 36.4791L642.479 33.1302L643.151 30.6146L643.823 28.9219L644.49 28.0156L645.161 27.8437L645.833 28.3385L646.505 29.4271L647.172 31.0312L648.516 35.3854L653.203 52.7604L654.547 55.7396L655.219 56.6562L655.885 57.1875L656.557 57.3333L657.229 57.1302L657.896 56.6041L659.24 54.8073L662.589 49.4219L663.26 48.8646L663.932 48.6719L664.599 48.9166L665.271 49.6719L665.943 50.9844L666.609 52.8958L667.281 55.4375L668.62 62.4427L669.964 71.8906L671.302 83.4271L673.984 110.224L676.667 136.161L678.005 146.443L679.344 153.812L680.016 156.198L680.687 157.646L681.354 158.115L682.026 157.583L682.698 156.062L683.37 153.573L684.036 150.151L685.38 140.792L686.719 128.682L689.401 100.141L691.411 79.4791L692.75 68.2239L694.094 60.125L694.76 57.4948L695.432 55.9062L696.104 55.3958L696.771 55.9896L697.443 57.6823L698.115 60.4531L698.781 64.25L700.125 74.6666L701.464 88.1614L704.146 120.208L706.156 143.828L707.495 157.083L708.839 167.115L709.51 170.667L710.177 173.135L710.849 174.484L711.521 174.672L712.187 173.698L712.859 171.568L713.531 168.328L714.198 164.031" stroke="#007EFF" stroke-width="1.33333" stroke-miterlimit="10" stroke-linecap="round" stroke-linejoin="round"/>
</svg>
