<?xml version="1.0" encoding="utf-8" standalone="no"?>
<!DOCTYPE svg PUBLIC "-//W3C//DTD SVG 1.1//EN"
  "http://www.w3.org/Graphics/SVG/1.1/DTD/svg11.dtd">
<!-- Created with matplotlib (https://matplotlib.org/) -->
<svg height="288pt" version="1.1" viewBox="0 0 1080 288" width="1080pt" xmlns="http://www.w3.org/2000/svg" xmlns:xlink="http://www.w3.org/1999/xlink">
 <defs>
  <style type="text/css">
*{stroke-linecap:butt;stroke-linejoin:round;}
  </style>
 </defs>
 <g id="figure_1">
  <g id="patch_1">
   <path d="M 0 288 
L 1080 288 
L 1080 0 
L 0 0 
z
" style="fill:none;"/>
  </g>
  <g id="axes_1">
   <g id="patch_2">
    <path d="M 67.425 255.2 
L 539.6625 255.2 
L 539.6625 10.8 
L 67.425 10.8 
z
" style="fill:none;"/>
   </g>
   <g id="matplotlib.axis_1">
    <g id="xtick_1">
     <g id="line2d_1">
      <defs>
       <path d="M 0 0 
L 0 3.5 
" id="m8096bc210d" style="stroke:#003559;stroke-width:0.8;"/>
      </defs>
      <g>
       <use style="fill:#003559;stroke:#003559;stroke-width:0.8;" x="88.890341" xlink:href="#m8096bc210d" y="255.2"/>
      </g>
     </g>
     <g id="text_1">
      <!-- 1900 -->
      <defs>
       <path d="M 12.40625 8.296875 
L 28.515625 8.296875 
L 28.515625 63.921875 
L 10.984375 60.40625 
L 10.984375 69.390625 
L 28.421875 72.90625 
L 38.28125 72.90625 
L 38.28125 8.296875 
L 54.390625 8.296875 
L 54.390625 0 
L 12.40625 0 
z
" id="DejaVuSans-49"/>
       <path d="M 10.984375 1.515625 
L 10.984375 10.5 
Q 14.703125 8.734375 18.5 7.8125 
Q 22.3125 6.890625 25.984375 6.890625 
Q 35.75 6.890625 40.890625 13.453125 
Q 46.046875 20.015625 46.78125 33.40625 
Q 43.953125 29.203125 39.59375 26.953125 
Q 35.25 24.703125 29.984375 24.703125 
Q 19.046875 24.703125 12.671875 31.3125 
Q 6.296875 37.9375 6.296875 49.421875 
Q 6.296875 60.640625 12.9375 67.421875 
Q 19.578125 74.21875 30.609375 74.21875 
Q 43.265625 74.21875 49.921875 64.515625 
Q 56.59375 54.828125 56.59375 36.375 
Q 56.59375 19.140625 48.40625 8.859375 
Q 40.234375 -1.421875 26.421875 -1.421875 
Q 22.703125 -1.421875 18.890625 -0.6875 
Q 15.09375 0.046875 10.984375 1.515625 
z
M 30.609375 32.421875 
Q 37.25 32.421875 41.125 36.953125 
Q 45.015625 41.5 45.015625 49.421875 
Q 45.015625 57.28125 41.125 61.84375 
Q 37.25 66.40625 30.609375 66.40625 
Q 23.96875 66.40625 20.09375 61.84375 
Q 16.21875 57.28125 16.21875 49.421875 
Q 16.21875 41.5 20.09375 36.953125 
Q 23.96875 32.421875 30.609375 32.421875 
z
" id="DejaVuSans-57"/>
       <path d="M 31.78125 66.40625 
Q 24.171875 66.40625 20.328125 58.90625 
Q 16.5 51.421875 16.5 36.375 
Q 16.5 21.390625 20.328125 13.890625 
Q 24.171875 6.390625 31.78125 6.390625 
Q 39.453125 6.390625 43.28125 13.890625 
Q 47.125 21.390625 47.125 36.375 
Q 47.125 51.421875 43.28125 58.90625 
Q 39.453125 66.40625 31.78125 66.40625 
z
M 31.78125 74.21875 
Q 44.046875 74.21875 50.515625 64.515625 
Q 56.984375 54.828125 56.984375 36.375 
Q 56.984375 17.96875 50.515625 8.265625 
Q 44.046875 -1.421875 31.78125 -1.421875 
Q 19.53125 -1.421875 13.0625 8.265625 
Q 6.59375 17.96875 6.59375 36.375 
Q 6.59375 54.828125 13.0625 64.515625 
Q 19.53125 74.21875 31.78125 74.21875 
z
" id="DejaVuSans-48"/>
      </defs>
      <g style="fill:#2f2235;" transform="translate(68.530341 274.3575)scale(0.16 -0.16)">
       <use xlink:href="#DejaVuSans-49"/>
       <use x="63.623047" xlink:href="#DejaVuSans-57"/>
       <use x="127.246094" xlink:href="#DejaVuSans-48"/>
       <use x="190.869141" xlink:href="#DejaVuSans-48"/>
      </g>
     </g>
    </g>
    <g id="xtick_2">
     <g id="line2d_2">
      <g>
       <use style="fill:#003559;stroke:#003559;stroke-width:0.8;" x="160.037234" xlink:href="#m8096bc210d" y="255.2"/>
      </g>
     </g>
     <g id="text_2">
      <!-- 1920 -->
      <defs>
       <path d="M 19.1875 8.296875 
L 53.609375 8.296875 
L 53.609375 0 
L 7.328125 0 
L 7.328125 8.296875 
Q 12.9375 14.109375 22.625 23.890625 
Q 32.328125 33.6875 34.8125 36.53125 
Q 39.546875 41.84375 41.421875 45.53125 
Q 43.3125 49.21875 43.3125 52.78125 
Q 43.3125 58.59375 39.234375 62.25 
Q 35.15625 65.921875 28.609375 65.921875 
Q 23.96875 65.921875 18.8125 64.3125 
Q 13.671875 62.703125 7.8125 59.421875 
L 7.8125 69.390625 
Q 13.765625 71.78125 18.9375 73 
Q 24.125 74.21875 28.421875 74.21875 
Q 39.75 74.21875 46.484375 68.546875 
Q 53.21875 62.890625 53.21875 53.421875 
Q 53.21875 48.921875 51.53125 44.890625 
Q 49.859375 40.875 45.40625 35.40625 
Q 44.1875 33.984375 37.640625 27.21875 
Q 31.109375 20.453125 19.1875 8.296875 
z
" id="DejaVuSans-50"/>
      </defs>
      <g style="fill:#2f2235;" transform="translate(139.677234 274.3575)scale(0.16 -0.16)">
       <use xlink:href="#DejaVuSans-49"/>
       <use x="63.623047" xlink:href="#DejaVuSans-57"/>
       <use x="127.246094" xlink:href="#DejaVuSans-50"/>
       <use x="190.869141" xlink:href="#DejaVuSans-48"/>
      </g>
     </g>
    </g>
    <g id="xtick_3">
     <g id="line2d_3">
      <g>
       <use style="fill:#003559;stroke:#003559;stroke-width:0.8;" x="231.193867" xlink:href="#m8096bc210d" y="255.2"/>
      </g>
     </g>
     <g id="text_3">
      <!-- 1940 -->
      <defs>
       <path d="M 37.796875 64.3125 
L 12.890625 25.390625 
L 37.796875 25.390625 
z
M 35.203125 72.90625 
L 47.609375 72.90625 
L 47.609375 25.390625 
L 58.015625 25.390625 
L 58.015625 17.1875 
L 47.609375 17.1875 
L 47.609375 0 
L 37.796875 0 
L 37.796875 17.1875 
L 4.890625 17.1875 
L 4.890625 26.703125 
z
" id="DejaVuSans-52"/>
      </defs>
      <g style="fill:#2f2235;" transform="translate(210.833867 274.3575)scale(0.16 -0.16)">
       <use xlink:href="#DejaVuSans-49"/>
       <use x="63.623047" xlink:href="#DejaVuSans-57"/>
       <use x="127.246094" xlink:href="#DejaVuSans-52"/>
       <use x="190.869141" xlink:href="#DejaVuSans-48"/>
      </g>
     </g>
    </g>
    <g id="xtick_4">
     <g id="line2d_4">
      <g>
       <use style="fill:#003559;stroke:#003559;stroke-width:0.8;" x="302.3505" xlink:href="#m8096bc210d" y="255.2"/>
      </g>
     </g>
     <g id="text_4">
      <!-- 1960 -->
      <defs>
       <path d="M 33.015625 40.375 
Q 26.375 40.375 22.484375 35.828125 
Q 18.609375 31.296875 18.609375 23.390625 
Q 18.609375 15.53125 22.484375 10.953125 
Q 26.375 6.390625 33.015625 6.390625 
Q 39.65625 6.390625 43.53125 10.953125 
Q 47.40625 15.53125 47.40625 23.390625 
Q 47.40625 31.296875 43.53125 35.828125 
Q 39.65625 40.375 33.015625 40.375 
z
M 52.59375 71.296875 
L 52.59375 62.3125 
Q 48.875 64.0625 45.09375 64.984375 
Q 41.3125 65.921875 37.59375 65.921875 
Q 27.828125 65.921875 22.671875 59.328125 
Q 17.53125 52.734375 16.796875 39.40625 
Q 19.671875 43.65625 24.015625 45.921875 
Q 28.375 48.1875 33.59375 48.1875 
Q 44.578125 48.1875 50.953125 41.515625 
Q 57.328125 34.859375 57.328125 23.390625 
Q 57.328125 12.15625 50.6875 5.359375 
Q 44.046875 -1.421875 33.015625 -1.421875 
Q 20.359375 -1.421875 13.671875 8.265625 
Q 6.984375 17.96875 6.984375 36.375 
Q 6.984375 53.65625 15.1875 63.9375 
Q 23.390625 74.21875 37.203125 74.21875 
Q 40.921875 74.21875 44.703125 73.484375 
Q 48.484375 72.75 52.59375 71.296875 
z
" id="DejaVuSans-54"/>
      </defs>
      <g style="fill:#2f2235;" transform="translate(281.9905 274.3575)scale(0.16 -0.16)">
       <use xlink:href="#DejaVuSans-49"/>
       <use x="63.623047" xlink:href="#DejaVuSans-57"/>
       <use x="127.246094" xlink:href="#DejaVuSans-54"/>
       <use x="190.869141" xlink:href="#DejaVuSans-48"/>
      </g>
     </g>
    </g>
    <g id="xtick_5">
     <g id="line2d_5">
      <g>
       <use style="fill:#003559;stroke:#003559;stroke-width:0.8;" x="373.507134" xlink:href="#m8096bc210d" y="255.2"/>
      </g>
     </g>
     <g id="text_5">
      <!-- 1980 -->
      <defs>
       <path d="M 31.78125 34.625 
Q 24.75 34.625 20.71875 30.859375 
Q 16.703125 27.09375 16.703125 20.515625 
Q 16.703125 13.921875 20.71875 10.15625 
Q 24.75 6.390625 31.78125 6.390625 
Q 38.8125 6.390625 42.859375 10.171875 
Q 46.921875 13.96875 46.921875 20.515625 
Q 46.921875 27.09375 42.890625 30.859375 
Q 38.875 34.625 31.78125 34.625 
z
M 21.921875 38.8125 
Q 15.578125 40.375 12.03125 44.71875 
Q 8.5 49.078125 8.5 55.328125 
Q 8.5 64.0625 14.71875 69.140625 
Q 20.953125 74.21875 31.78125 74.21875 
Q 42.671875 74.21875 48.875 69.140625 
Q 55.078125 64.0625 55.078125 55.328125 
Q 55.078125 49.078125 51.53125 44.71875 
Q 48 40.375 41.703125 38.8125 
Q 48.828125 37.15625 52.796875 32.3125 
Q 56.78125 27.484375 56.78125 20.515625 
Q 56.78125 9.90625 50.3125 4.234375 
Q 43.84375 -1.421875 31.78125 -1.421875 
Q 19.734375 -1.421875 13.25 4.234375 
Q 6.78125 9.90625 6.78125 20.515625 
Q 6.78125 27.484375 10.78125 32.3125 
Q 14.796875 37.15625 21.921875 38.8125 
z
M 18.3125 54.390625 
Q 18.3125 48.734375 21.84375 45.5625 
Q 25.390625 42.390625 31.78125 42.390625 
Q 38.140625 42.390625 41.71875 45.5625 
Q 45.3125 48.734375 45.3125 54.390625 
Q 45.3125 60.0625 41.71875 63.234375 
Q 38.140625 66.40625 31.78125 66.40625 
Q 25.390625 66.40625 21.84375 63.234375 
Q 18.3125 60.0625 18.3125 54.390625 
z
" id="DejaVuSans-56"/>
      </defs>
      <g style="fill:#2f2235;" transform="translate(353.147134 274.3575)scale(0.16 -0.16)">
       <use xlink:href="#DejaVuSans-49"/>
       <use x="63.623047" xlink:href="#DejaVuSans-57"/>
       <use x="127.246094" xlink:href="#DejaVuSans-56"/>
       <use x="190.869141" xlink:href="#DejaVuSans-48"/>
      </g>
     </g>
    </g>
    <g id="xtick_6">
     <g id="line2d_6">
      <g>
       <use style="fill:#003559;stroke:#003559;stroke-width:0.8;" x="444.663767" xlink:href="#m8096bc210d" y="255.2"/>
      </g>
     </g>
     <g id="text_6">
      <!-- 2000 -->
      <g style="fill:#2f2235;" transform="translate(424.303767 274.3575)scale(0.16 -0.16)">
       <use xlink:href="#DejaVuSans-50"/>
       <use x="63.623047" xlink:href="#DejaVuSans-48"/>
       <use x="127.246094" xlink:href="#DejaVuSans-48"/>
       <use x="190.869141" xlink:href="#DejaVuSans-48"/>
      </g>
     </g>
    </g>
    <g id="xtick_7">
     <g id="line2d_7">
      <g>
       <use style="fill:#003559;stroke:#003559;stroke-width:0.8;" x="515.820401" xlink:href="#m8096bc210d" y="255.2"/>
      </g>
     </g>
     <g id="text_7">
      <!-- 2020 -->
      <g style="fill:#2f2235;" transform="translate(495.460401 274.3575)scale(0.16 -0.16)">
       <use xlink:href="#DejaVuSans-50"/>
       <use x="63.623047" xlink:href="#DejaVuSans-48"/>
       <use x="127.246094" xlink:href="#DejaVuSans-50"/>
       <use x="190.869141" xlink:href="#DejaVuSans-48"/>
      </g>
     </g>
    </g>
   </g>
   <g id="matplotlib.axis_2">
    <g id="ytick_1">
     <g id="line2d_8">
      <path clip-path="url(#p47bff29e25)" d="M 67.425 250.697995 
L 539.6625 250.697995 
" style="fill:none;stroke:#f0f0f0;stroke-linecap:square;"/>
     </g>
     <g id="line2d_9">
      <defs>
       <path d="M 0 0 
L -3.5 0 
" id="mf6515d9219" style="stroke:#003559;stroke-width:0.8;"/>
      </defs>
      <g>
       <use style="fill:#003559;stroke:#003559;stroke-width:0.8;" x="67.425" xlink:href="#mf6515d9219" y="250.697995"/>
      </g>
     </g>
     <g id="text_8">
      <!-- $0 -->
      <defs>
       <path d="M 33.796875 -14.703125 
L 28.90625 -14.703125 
L 28.859375 0 
Q 23.734375 0.09375 18.609375 1.1875 
Q 13.484375 2.296875 8.296875 4.5 
L 8.296875 13.28125 
Q 13.28125 10.15625 18.375 8.5625 
Q 23.484375 6.984375 28.90625 6.9375 
L 28.90625 29.203125 
Q 18.109375 30.953125 13.203125 35.15625 
Q 8.296875 39.359375 8.296875 46.6875 
Q 8.296875 54.640625 13.625 59.21875 
Q 18.953125 63.8125 28.90625 64.5 
L 28.90625 75.984375 
L 33.796875 75.984375 
L 33.796875 64.65625 
Q 38.328125 64.453125 42.578125 63.6875 
Q 46.828125 62.9375 50.875 61.625 
L 50.875 53.078125 
Q 46.828125 55.125 42.546875 56.25 
Q 38.28125 57.375 33.796875 57.5625 
L 33.796875 36.71875 
Q 44.875 35.015625 50.09375 30.609375 
Q 55.328125 26.21875 55.328125 18.609375 
Q 55.328125 10.359375 49.78125 5.59375 
Q 44.234375 0.828125 33.796875 0.09375 
z
M 28.90625 37.59375 
L 28.90625 57.625 
Q 23.25 56.984375 20.265625 54.390625 
Q 17.28125 51.8125 17.28125 47.515625 
Q 17.28125 43.3125 20.03125 40.96875 
Q 22.796875 38.625 28.90625 37.59375 
z
M 33.796875 28.21875 
L 33.796875 7.078125 
Q 39.984375 7.90625 43.140625 10.59375 
Q 46.296875 13.28125 46.296875 17.671875 
Q 46.296875 21.96875 43.28125 24.5 
Q 40.28125 27.046875 33.796875 28.21875 
z
" id="DejaVuSans-36"/>
      </defs>
      <g style="fill:#2f2235;" transform="translate(40.065 256.776745)scale(0.16 -0.16)">
       <use xlink:href="#DejaVuSans-36"/>
       <use x="63.623047" xlink:href="#DejaVuSans-48"/>
      </g>
     </g>
    </g>
    <g id="ytick_2">
     <g id="line2d_10">
      <path clip-path="url(#p47bff29e25)" d="M 67.425 215.989858 
L 539.6625 215.989858 
" style="fill:none;stroke:#f0f0f0;stroke-linecap:square;"/>
     </g>
     <g id="line2d_11">
      <g>
       <use style="fill:#003559;stroke:#003559;stroke-width:0.8;" x="67.425" xlink:href="#mf6515d9219" y="215.989858"/>
      </g>
     </g>
     <g id="text_9">
      <!-- $5 -->
      <defs>
       <path d="M 10.796875 72.90625 
L 49.515625 72.90625 
L 49.515625 64.59375 
L 19.828125 64.59375 
L 19.828125 46.734375 
Q 21.96875 47.46875 24.109375 47.828125 
Q 26.265625 48.1875 28.421875 48.1875 
Q 40.625 48.1875 47.75 41.5 
Q 54.890625 34.8125 54.890625 23.390625 
Q 54.890625 11.625 47.5625 5.09375 
Q 40.234375 -1.421875 26.90625 -1.421875 
Q 22.3125 -1.421875 17.546875 -0.640625 
Q 12.796875 0.140625 7.71875 1.703125 
L 7.71875 11.625 
Q 12.109375 9.234375 16.796875 8.0625 
Q 21.484375 6.890625 26.703125 6.890625 
Q 35.15625 6.890625 40.078125 11.328125 
Q 45.015625 15.765625 45.015625 23.390625 
Q 45.015625 31 40.078125 35.4375 
Q 35.15625 39.890625 26.703125 39.890625 
Q 22.75 39.890625 18.8125 39.015625 
Q 14.890625 38.140625 10.796875 36.28125 
z
" id="DejaVuSans-53"/>
      </defs>
      <g style="fill:#2f2235;" transform="translate(40.065 222.068608)scale(0.16 -0.16)">
       <use xlink:href="#DejaVuSans-36"/>
       <use x="63.623047" xlink:href="#DejaVuSans-53"/>
      </g>
     </g>
    </g>
    <g id="ytick_3">
     <g id="line2d_12">
      <path clip-path="url(#p47bff29e25)" d="M 67.425 181.28172 
L 539.6625 181.28172 
" style="fill:none;stroke:#f0f0f0;stroke-linecap:square;"/>
     </g>
     <g id="line2d_13">
      <g>
       <use style="fill:#003559;stroke:#003559;stroke-width:0.8;" x="67.425" xlink:href="#mf6515d9219" y="181.28172"/>
      </g>
     </g>
     <g id="text_10">
      <!-- $10 -->
      <g style="fill:#2f2235;" transform="translate(29.885 187.36047)scale(0.16 -0.16)">
       <use xlink:href="#DejaVuSans-36"/>
       <use x="63.623047" xlink:href="#DejaVuSans-49"/>
       <use x="127.246094" xlink:href="#DejaVuSans-48"/>
      </g>
     </g>
    </g>
    <g id="ytick_4">
     <g id="line2d_14">
      <path clip-path="url(#p47bff29e25)" d="M 67.425 146.573582 
L 539.6625 146.573582 
" style="fill:none;stroke:#f0f0f0;stroke-linecap:square;"/>
     </g>
     <g id="line2d_15">
      <g>
       <use style="fill:#003559;stroke:#003559;stroke-width:0.8;" x="67.425" xlink:href="#mf6515d9219" y="146.573582"/>
      </g>
     </g>
     <g id="text_11">
      <!-- $15 -->
      <g style="fill:#2f2235;" transform="translate(29.885 152.652332)scale(0.16 -0.16)">
       <use xlink:href="#DejaVuSans-36"/>
       <use x="63.623047" xlink:href="#DejaVuSans-49"/>
       <use x="127.246094" xlink:href="#DejaVuSans-53"/>
      </g>
     </g>
    </g>
    <g id="ytick_5">
     <g id="line2d_16">
      <path clip-path="url(#p47bff29e25)" d="M 67.425 111.865445 
L 539.6625 111.865445 
" style="fill:none;stroke:#f0f0f0;stroke-linecap:square;"/>
     </g>
     <g id="line2d_17">
      <g>
       <use style="fill:#003559;stroke:#003559;stroke-width:0.8;" x="67.425" xlink:href="#mf6515d9219" y="111.865445"/>
      </g>
     </g>
     <g id="text_12">
      <!-- $20 -->
      <g style="fill:#2f2235;" transform="translate(29.885 117.944195)scale(0.16 -0.16)">
       <use xlink:href="#DejaVuSans-36"/>
       <use x="63.623047" xlink:href="#DejaVuSans-50"/>
       <use x="127.246094" xlink:href="#DejaVuSans-48"/>
      </g>
     </g>
    </g>
    <g id="ytick_6">
     <g id="line2d_18">
      <path clip-path="url(#p47bff29e25)" d="M 67.425 77.157307 
L 539.6625 77.157307 
" style="fill:none;stroke:#f0f0f0;stroke-linecap:square;"/>
     </g>
     <g id="line2d_19">
      <g>
       <use style="fill:#003559;stroke:#003559;stroke-width:0.8;" x="67.425" xlink:href="#mf6515d9219" y="77.157307"/>
      </g>
     </g>
     <g id="text_13">
      <!-- $25 -->
      <g style="fill:#2f2235;" transform="translate(29.885 83.236057)scale(0.16 -0.16)">
       <use xlink:href="#DejaVuSans-36"/>
       <use x="63.623047" xlink:href="#DejaVuSans-50"/>
       <use x="127.246094" xlink:href="#DejaVuSans-53"/>
      </g>
     </g>
    </g>
    <g id="ytick_7">
     <g id="line2d_20">
      <path clip-path="url(#p47bff29e25)" d="M 67.425 42.449169 
L 539.6625 42.449169 
" style="fill:none;stroke:#f0f0f0;stroke-linecap:square;"/>
     </g>
     <g id="line2d_21">
      <g>
       <use style="fill:#003559;stroke:#003559;stroke-width:0.8;" x="67.425" xlink:href="#mf6515d9219" y="42.449169"/>
      </g>
     </g>
     <g id="text_14">
      <!-- $30 -->
      <defs>
       <path d="M 40.578125 39.3125 
Q 47.65625 37.796875 51.625 33 
Q 55.609375 28.21875 55.609375 21.1875 
Q 55.609375 10.40625 48.1875 4.484375 
Q 40.765625 -1.421875 27.09375 -1.421875 
Q 22.515625 -1.421875 17.65625 -0.515625 
Q 12.796875 0.390625 7.625 2.203125 
L 7.625 11.71875 
Q 11.71875 9.328125 16.59375 8.109375 
Q 21.484375 6.890625 26.8125 6.890625 
Q 36.078125 6.890625 40.9375 10.546875 
Q 45.796875 14.203125 45.796875 21.1875 
Q 45.796875 27.640625 41.28125 31.265625 
Q 36.765625 34.90625 28.71875 34.90625 
L 20.21875 34.90625 
L 20.21875 43.015625 
L 29.109375 43.015625 
Q 36.375 43.015625 40.234375 45.921875 
Q 44.09375 48.828125 44.09375 54.296875 
Q 44.09375 59.90625 40.109375 62.90625 
Q 36.140625 65.921875 28.71875 65.921875 
Q 24.65625 65.921875 20.015625 65.03125 
Q 15.375 64.15625 9.8125 62.3125 
L 9.8125 71.09375 
Q 15.4375 72.65625 20.34375 73.4375 
Q 25.25 74.21875 29.59375 74.21875 
Q 40.828125 74.21875 47.359375 69.109375 
Q 53.90625 64.015625 53.90625 55.328125 
Q 53.90625 49.265625 50.4375 45.09375 
Q 46.96875 40.921875 40.578125 39.3125 
z
" id="DejaVuSans-51"/>
      </defs>
      <g style="fill:#2f2235;" transform="translate(29.885 48.527919)scale(0.16 -0.16)">
       <use xlink:href="#DejaVuSans-36"/>
       <use x="63.623047" xlink:href="#DejaVuSans-51"/>
       <use x="127.246094" xlink:href="#DejaVuSans-48"/>
      </g>
     </g>
    </g>
    <g id="text_15">
     <!-- Income from day job -->
     <defs>
      <path d="M 9.8125 72.90625 
L 19.671875 72.90625 
L 19.671875 0 
L 9.8125 0 
z
" id="DejaVuSans-73"/>
      <path d="M 54.890625 33.015625 
L 54.890625 0 
L 45.90625 0 
L 45.90625 32.71875 
Q 45.90625 40.484375 42.875 44.328125 
Q 39.84375 48.1875 33.796875 48.1875 
Q 26.515625 48.1875 22.3125 43.546875 
Q 18.109375 38.921875 18.109375 30.90625 
L 18.109375 0 
L 9.078125 0 
L 9.078125 54.6875 
L 18.109375 54.6875 
L 18.109375 46.1875 
Q 21.34375 51.125 25.703125 53.5625 
Q 30.078125 56 35.796875 56 
Q 45.21875 56 50.046875 50.171875 
Q 54.890625 44.34375 54.890625 33.015625 
z
" id="DejaVuSans-110"/>
      <path d="M 48.78125 52.59375 
L 48.78125 44.1875 
Q 44.96875 46.296875 41.140625 47.34375 
Q 37.3125 48.390625 33.40625 48.390625 
Q 24.65625 48.390625 19.8125 42.84375 
Q 14.984375 37.3125 14.984375 27.296875 
Q 14.984375 17.28125 19.8125 11.734375 
Q 24.65625 6.203125 33.40625 6.203125 
Q 37.3125 6.203125 41.140625 7.25 
Q 44.96875 8.296875 48.78125 10.40625 
L 48.78125 2.09375 
Q 45.015625 0.34375 40.984375 -0.53125 
Q 36.96875 -1.421875 32.421875 -1.421875 
Q 20.0625 -1.421875 12.78125 6.34375 
Q 5.515625 14.109375 5.515625 27.296875 
Q 5.515625 40.671875 12.859375 48.328125 
Q 20.21875 56 33.015625 56 
Q 37.15625 56 41.109375 55.140625 
Q 45.0625 54.296875 48.78125 52.59375 
z
" id="DejaVuSans-99"/>
      <path d="M 30.609375 48.390625 
Q 23.390625 48.390625 19.1875 42.75 
Q 14.984375 37.109375 14.984375 27.296875 
Q 14.984375 17.484375 19.15625 11.84375 
Q 23.34375 6.203125 30.609375 6.203125 
Q 37.796875 6.203125 41.984375 11.859375 
Q 46.1875 17.53125 46.1875 27.296875 
Q 46.1875 37.015625 41.984375 42.703125 
Q 37.796875 48.390625 30.609375 48.390625 
z
M 30.609375 56 
Q 42.328125 56 49.015625 48.375 
Q 55.71875 40.765625 55.71875 27.296875 
Q 55.71875 13.875 49.015625 6.21875 
Q 42.328125 -1.421875 30.609375 -1.421875 
Q 18.84375 -1.421875 12.171875 6.21875 
Q 5.515625 13.875 5.515625 27.296875 
Q 5.515625 40.765625 12.171875 48.375 
Q 18.84375 56 30.609375 56 
z
" id="DejaVuSans-111"/>
      <path d="M 52 44.1875 
Q 55.375 50.25 60.0625 53.125 
Q 64.75 56 71.09375 56 
Q 79.640625 56 84.28125 50.015625 
Q 88.921875 44.046875 88.921875 33.015625 
L 88.921875 0 
L 79.890625 0 
L 79.890625 32.71875 
Q 79.890625 40.578125 77.09375 44.375 
Q 74.3125 48.1875 68.609375 48.1875 
Q 61.625 48.1875 57.5625 43.546875 
Q 53.515625 38.921875 53.515625 30.90625 
L 53.515625 0 
L 44.484375 0 
L 44.484375 32.71875 
Q 44.484375 40.625 41.703125 44.40625 
Q 38.921875 48.1875 33.109375 48.1875 
Q 26.21875 48.1875 22.15625 43.53125 
Q 18.109375 38.875 18.109375 30.90625 
L 18.109375 0 
L 9.078125 0 
L 9.078125 54.6875 
L 18.109375 54.6875 
L 18.109375 46.1875 
Q 21.1875 51.21875 25.484375 53.609375 
Q 29.78125 56 35.6875 56 
Q 41.65625 56 45.828125 52.96875 
Q 50 49.953125 52 44.1875 
z
" id="DejaVuSans-109"/>
      <path d="M 56.203125 29.59375 
L 56.203125 25.203125 
L 14.890625 25.203125 
Q 15.484375 15.921875 20.484375 11.0625 
Q 25.484375 6.203125 34.421875 6.203125 
Q 39.59375 6.203125 44.453125 7.46875 
Q 49.3125 8.734375 54.109375 11.28125 
L 54.109375 2.78125 
Q 49.265625 0.734375 44.1875 -0.34375 
Q 39.109375 -1.421875 33.890625 -1.421875 
Q 20.796875 -1.421875 13.15625 6.1875 
Q 5.515625 13.8125 5.515625 26.8125 
Q 5.515625 40.234375 12.765625 48.109375 
Q 20.015625 56 32.328125 56 
Q 43.359375 56 49.78125 48.890625 
Q 56.203125 41.796875 56.203125 29.59375 
z
M 47.21875 32.234375 
Q 47.125 39.59375 43.09375 43.984375 
Q 39.0625 48.390625 32.421875 48.390625 
Q 24.90625 48.390625 20.390625 44.140625 
Q 15.875 39.890625 15.1875 32.171875 
z
" id="DejaVuSans-101"/>
      <path id="DejaVuSans-32"/>
      <path d="M 37.109375 75.984375 
L 37.109375 68.5 
L 28.515625 68.5 
Q 23.6875 68.5 21.796875 66.546875 
Q 19.921875 64.59375 19.921875 59.515625 
L 19.921875 54.6875 
L 34.71875 54.6875 
L 34.71875 47.703125 
L 19.921875 47.703125 
L 19.921875 0 
L 10.890625 0 
L 10.890625 47.703125 
L 2.296875 47.703125 
L 2.296875 54.6875 
L 10.890625 54.6875 
L 10.890625 58.5 
Q 10.890625 67.625 15.140625 71.796875 
Q 19.390625 75.984375 28.609375 75.984375 
z
" id="DejaVuSans-102"/>
      <path d="M 41.109375 46.296875 
Q 39.59375 47.171875 37.8125 47.578125 
Q 36.03125 48 33.890625 48 
Q 26.265625 48 22.1875 43.046875 
Q 18.109375 38.09375 18.109375 28.8125 
L 18.109375 0 
L 9.078125 0 
L 9.078125 54.6875 
L 18.109375 54.6875 
L 18.109375 46.1875 
Q 20.953125 51.171875 25.484375 53.578125 
Q 30.03125 56 36.53125 56 
Q 37.453125 56 38.578125 55.875 
Q 39.703125 55.765625 41.0625 55.515625 
z
" id="DejaVuSans-114"/>
      <path d="M 45.40625 46.390625 
L 45.40625 75.984375 
L 54.390625 75.984375 
L 54.390625 0 
L 45.40625 0 
L 45.40625 8.203125 
Q 42.578125 3.328125 38.25 0.953125 
Q 33.9375 -1.421875 27.875 -1.421875 
Q 17.96875 -1.421875 11.734375 6.484375 
Q 5.515625 14.40625 5.515625 27.296875 
Q 5.515625 40.1875 11.734375 48.09375 
Q 17.96875 56 27.875 56 
Q 33.9375 56 38.25 53.625 
Q 42.578125 51.265625 45.40625 46.390625 
z
M 14.796875 27.296875 
Q 14.796875 17.390625 18.875 11.75 
Q 22.953125 6.109375 30.078125 6.109375 
Q 37.203125 6.109375 41.296875 11.75 
Q 45.40625 17.390625 45.40625 27.296875 
Q 45.40625 37.203125 41.296875 42.84375 
Q 37.203125 48.484375 30.078125 48.484375 
Q 22.953125 48.484375 18.875 42.84375 
Q 14.796875 37.203125 14.796875 27.296875 
z
" id="DejaVuSans-100"/>
      <path d="M 34.28125 27.484375 
Q 23.390625 27.484375 19.1875 25 
Q 14.984375 22.515625 14.984375 16.5 
Q 14.984375 11.71875 18.140625 8.90625 
Q 21.296875 6.109375 26.703125 6.109375 
Q 34.1875 6.109375 38.703125 11.40625 
Q 43.21875 16.703125 43.21875 25.484375 
L 43.21875 27.484375 
z
M 52.203125 31.203125 
L 52.203125 0 
L 43.21875 0 
L 43.21875 8.296875 
Q 40.140625 3.328125 35.546875 0.953125 
Q 30.953125 -1.421875 24.3125 -1.421875 
Q 15.921875 -1.421875 10.953125 3.296875 
Q 6 8.015625 6 15.921875 
Q 6 25.140625 12.171875 29.828125 
Q 18.359375 34.515625 30.609375 34.515625 
L 43.21875 34.515625 
L 43.21875 35.40625 
Q 43.21875 41.609375 39.140625 45 
Q 35.0625 48.390625 27.6875 48.390625 
Q 23 48.390625 18.546875 47.265625 
Q 14.109375 46.140625 10.015625 43.890625 
L 10.015625 52.203125 
Q 14.9375 54.109375 19.578125 55.046875 
Q 24.21875 56 28.609375 56 
Q 40.484375 56 46.34375 49.84375 
Q 52.203125 43.703125 52.203125 31.203125 
z
" id="DejaVuSans-97"/>
      <path d="M 32.171875 -5.078125 
Q 28.375 -14.84375 24.75 -17.8125 
Q 21.140625 -20.796875 15.09375 -20.796875 
L 7.90625 -20.796875 
L 7.90625 -13.28125 
L 13.1875 -13.28125 
Q 16.890625 -13.28125 18.9375 -11.515625 
Q 21 -9.765625 23.484375 -3.21875 
L 25.09375 0.875 
L 2.984375 54.6875 
L 12.5 54.6875 
L 29.59375 11.921875 
L 46.6875 54.6875 
L 56.203125 54.6875 
z
" id="DejaVuSans-121"/>
      <path d="M 9.421875 54.6875 
L 18.40625 54.6875 
L 18.40625 -0.984375 
Q 18.40625 -11.421875 14.421875 -16.109375 
Q 10.453125 -20.796875 1.609375 -20.796875 
L -1.8125 -20.796875 
L -1.8125 -13.1875 
L 0.59375 -13.1875 
Q 5.71875 -13.1875 7.5625 -10.8125 
Q 9.421875 -8.453125 9.421875 -0.984375 
z
M 9.421875 75.984375 
L 18.40625 75.984375 
L 18.40625 64.59375 
L 9.421875 64.59375 
z
" id="DejaVuSans-106"/>
      <path d="M 48.6875 27.296875 
Q 48.6875 37.203125 44.609375 42.84375 
Q 40.53125 48.484375 33.40625 48.484375 
Q 26.265625 48.484375 22.1875 42.84375 
Q 18.109375 37.203125 18.109375 27.296875 
Q 18.109375 17.390625 22.1875 11.75 
Q 26.265625 6.109375 33.40625 6.109375 
Q 40.53125 6.109375 44.609375 11.75 
Q 48.6875 17.390625 48.6875 27.296875 
z
M 18.109375 46.390625 
Q 20.953125 51.265625 25.265625 53.625 
Q 29.59375 56 35.59375 56 
Q 45.5625 56 51.78125 48.09375 
Q 58.015625 40.1875 58.015625 27.296875 
Q 58.015625 14.40625 51.78125 6.484375 
Q 45.5625 -1.421875 35.59375 -1.421875 
Q 29.59375 -1.421875 25.265625 0.953125 
Q 20.953125 3.328125 18.109375 8.203125 
L 18.109375 0 
L 9.078125 0 
L 9.078125 75.984375 
L 18.109375 75.984375 
z
" id="DejaVuSans-98"/>
     </defs>
     <g style="fill:#2f2235;" transform="translate(22.5575 215.76875)rotate(-90)scale(0.16 -0.16)">
      <use xlink:href="#DejaVuSans-73"/>
      <use x="29.492188" xlink:href="#DejaVuSans-110"/>
      <use x="92.871094" xlink:href="#DejaVuSans-99"/>
      <use x="147.851562" xlink:href="#DejaVuSans-111"/>
      <use x="209.033203" xlink:href="#DejaVuSans-109"/>
      <use x="306.445312" xlink:href="#DejaVuSans-101"/>
      <use x="367.96875" xlink:href="#DejaVuSans-32"/>
      <use x="399.755859" xlink:href="#DejaVuSans-102"/>
      <use x="434.960938" xlink:href="#DejaVuSans-114"/>
      <use x="476.042969" xlink:href="#DejaVuSans-111"/>
      <use x="537.224609" xlink:href="#DejaVuSans-109"/>
      <use x="634.636719" xlink:href="#DejaVuSans-32"/>
      <use x="666.423828" xlink:href="#DejaVuSans-100"/>
      <use x="729.900391" xlink:href="#DejaVuSans-97"/>
      <use x="791.179688" xlink:href="#DejaVuSans-121"/>
      <use x="850.359375" xlink:href="#DejaVuSans-32"/>
      <use x="882.146484" xlink:href="#DejaVuSans-106"/>
      <use x="909.929688" xlink:href="#DejaVuSans-111"/>
      <use x="971.111328" xlink:href="#DejaVuSans-98"/>
     </g>
    </g>
   </g>
   <g id="line2d_22">
    <path clip-path="url(#p47bff29e25)" d="M 88.890341 243.756368 
L 89.465049 243.672738 
L 89.767014 243.672738 
L 90.361204 243.923642 
L 90.653428 243.840005 
L 90.955393 243.923642 
L 91.257358 243.840005 
L 92.143772 244.007272 
L 92.445737 243.923642 
L 93.32241 244.090909 
L 94.208824 244.007272 
L 95.699169 243.672738 
L 96.303099 243.756368 
L 96.877807 243.672738 
L 97.764221 243.505478 
L 98.066186 243.589101 
L 98.368151 243.505478 
L 98.660376 243.003641 
L 98.962341 243.254595 
L 99.858495 243.087293 
L 100.131238 243.338175 
L 100.433203 243.338175 
L 100.725428 243.505478 
L 103.111927 243.421827 
L 103.413892 243.254595 
L 104.884755 243.589101 
L 106.375099 243.254595 
L 107.553737 243.338175 
L 108.147927 243.421827 
L 109.638271 243.338175 
L 110.232461 243.254595 
L 111.703323 243.170944 
L 111.995548 243.421827 
L 112.891702 243.003641 
L 113.485892 242.83641 
L 113.787857 242.920061 
L 114.089822 242.752759 
L 114.66453 242.83641 
L 115.25872 242.585527 
L 116.447099 242.501876 
L 117.041288 243.003641 
L 117.927702 243.170944 
L 118.521892 243.087293 
L 119.720012 243.003641 
L 120.606426 242.752759 
L 120.908391 242.83641 
L 124.161822 241.916388 
L 124.765752 242.000039 
L 125.34046 241.749157 
L 125.93465 242.000039 
L 126.528839 242.083691 
L 126.830805 242.167342 
L 127.424994 242.585527 
L 128.019184 242.585527 
L 128.321149 242.83641 
L 128.593892 242.752759 
L 128.895857 243.003641 
L 129.782271 242.920061 
L 130.084236 242.669107 
L 130.678425 242.585527 
L 131.272615 242.752759 
L 132.159029 242.418225 
L 132.460994 242.167342 
L 136.61058 242.083691 
L 137.506735 241.907888 
L 139.269822 241.99579 
L 139.571787 242.083691 
L 141.062131 241.732086 
L 141.354356 241.819987 
L 141.656321 241.732086 
L 142.825218 241.99579 
L 143.721373 241.819987 
L 144.909752 241.732086 
L 145.805907 241.556284 
L 146.390356 241.468383 
L 148.474889 240.765175 
L 149.069079 240.501471 
L 149.371044 240.41357 
L 149.673009 240.149867 
L 149.945752 240.149867 
L 150.247717 239.622461 
L 150.841907 239.270856 
L 151.134131 239.446659 
L 153.228406 238.303945 
L 153.501149 238.391846 
L 154.397303 237.776538 
L 154.991493 237.161231 
L 156.179872 236.194319 
L 156.481837 236.194319 
L 156.783802 236.458022 
L 157.650735 235.842715 
L 157.9527 235.842715 
L 158.546889 235.139506 
L 158.848854 235.051605 
L 159.443044 234.436298 
L 160.037234 233.733089 
L 160.621682 233.381485 
L 160.923647 232.854078 
L 161.517837 232.326672 
L 161.810061 232.414573 
L 162.413992 233.117782 
L 163.008181 233.293584 
L 164.177079 234.6121 
L 164.479044 234.787902 
L 164.771268 235.139506 
L 165.073233 235.227407 
L 165.667423 235.139506 
L 165.969388 235.315308 
L 166.563578 235.403209 
L 166.855802 235.49111 
L 167.157767 235.842715 
L 167.459732 235.842715 
L 167.732475 236.018517 
L 170.118974 235.930616 
L 170.411199 235.842715 
L 171.015129 235.930616 
L 171.882061 235.842715 
L 173.372406 235.49111 
L 174.570525 235.579011 
L 175.447199 235.754814 
L 176.645318 235.666913 
L 177.531732 235.49111 
L 179.002595 235.49111 
L 179.596785 235.139506 
L 180.492939 235.139506 
L 180.794904 234.875803 
L 181.389094 234.963704 
L 182.557991 235.051605 
L 183.756111 235.315308 
L 184.642525 235.139506 
L 185.246456 235.403209 
L 185.821164 235.49111 
L 186.415353 235.227407 
L 186.707577 235.49111 
L 187.009543 235.579011 
L 187.603732 235.403209 
L 188.197922 235.49111 
L 188.499887 235.49111 
L 188.801852 235.666913 
L 190.57468 235.666913 
L 190.876645 235.49111 
L 191.763059 235.666913 
L 192.639732 235.754814 
L 192.941697 235.842715 
L 194.432042 235.49111 
L 195.318456 235.579011 
L 196.195129 235.842715 
L 196.497094 235.754814 
L 198.873852 236.545923 
L 199.750525 236.985429 
L 200.344715 237.249132 
L 200.64668 237.424934 
L 201.542835 237.512835 
L 202.429248 237.864439 
L 203.033179 238.303945 
L 206.296351 239.358757 
L 206.871059 239.622461 
L 207.767214 239.53456 
L 208.059438 239.182955 
L 208.663368 239.095054 
L 211.020645 239.007153 
L 211.614834 238.919252 
L 211.9168 238.919252 
L 212.218765 238.74345 
L 213.105179 238.919252 
L 213.709109 238.655549 
L 218.443144 238.567648 
L 219.339299 238.391846 
L 220.829643 238.303945 
L 221.99854 238.040241 
L 222.894695 237.864439 
L 223.488885 237.95234 
L 224.657782 238.303945 
L 224.959747 238.216044 
L 225.553937 238.303945 
L 227.638471 238.391846 
L 228.515144 238.567648 
L 229.703523 238.567648 
L 230.005488 238.303945 
L 230.599677 238.391846 
L 235.060969 238.303945 
L 235.927902 238.040241 
L 236.229867 237.776538 
L 236.522091 237.776538 
L 237.720211 237.161231 
L 238.616366 236.809626 
L 239.483298 236.370121 
L 240.077488 236.28222 
L 241.869797 235.842715 
L 242.171762 235.842715 
L 242.74647 235.403209 
L 243.34066 235.315308 
L 243.934849 235.49111 
L 244.529039 235.403209 
L 246.603832 235.315308 
L 247.499987 235.139506 
L 249.867004 235.051605 
L 251.055383 234.787902 
L 252.847693 234.787902 
L 253.422401 234.524199 
L 254.01659 234.260495 
L 254.308814 233.293584 
L 254.61078 232.941979 
L 254.912745 232.766177 
L 255.799159 231.799265 
L 256.403089 231.799265 
L 256.675832 231.447661 
L 257.571987 231.35976 
L 258.166176 230.920255 
L 258.468141 230.480749 
L 259.062331 230.392848 
L 259.65652 229.865442 
L 260.240969 230.129145 
L 260.542934 229.777541 
L 261.137124 229.513838 
L 261.429348 229.250134 
L 262.033279 229.162233 
L 263.221658 229.601739 
L 263.523623 229.777541 
L 266.182865 229.777541 
L 266.777054 230.041244 
L 267.653727 229.953343 
L 268.247917 229.777541 
L 268.842106 229.338036 
L 269.738261 228.986431 
L 270.907159 228.019519 
L 272.397503 227.931618 
L 273.293658 227.492113 
L 273.887847 227.404212 
L 274.189812 227.580014 
L 275.066485 227.492113 
L 276.264605 227.22841 
L 277.452984 227.316311 
L 277.75495 227.404212 
L 278.923847 227.140509 
L 279.820002 227.052608 
L 280.112226 226.964707 
L 280.706416 227.052608 
L 283.969588 227.140509 
L 284.563777 227.22841 
L 286.62883 227.140509 
L 287.223019 227.052608 
L 289.297812 226.964707 
L 289.892002 226.613102 
L 290.193967 226.701003 
L 291.382346 226.4373 
L 291.986276 226.349399 
L 293.749363 225.821993 
L 294.937742 225.734092 
L 295.239708 225.55829 
L 295.541673 225.55829 
L 296.116381 225.294586 
L 299.964001 225.206685 
L 301.454346 224.855081 
L 303.529139 224.76718 
L 304.123328 224.679279 
L 304.727259 224.679279 
L 305.019483 224.503477 
L 307.3865 224.503477 
L 307.678725 224.327675 
L 307.98069 224.415576 
L 308.57488 224.327675 
L 310.045742 224.239773 
L 310.639932 224.151872 
L 311.536086 224.063971 
L 312.130276 223.97607 
L 314.195328 223.888169 
L 315.091483 223.712367 
L 315.987638 223.624466 
L 316.581827 223.536565 
L 318.062431 223.448664 
L 318.354655 223.360763 
L 318.65662 223.448664 
L 319.552775 223.272862 
L 320.721672 223.184961 
L 321.910051 222.921257 
L 323.108171 222.833356 
L 326.955792 221.778543 
L 327.832465 221.690642 
L 331.991792 220.372126 
L 332.887947 219.932621 
L 334.378291 219.405215 
L 337.631722 217.559292 
L 338.235653 217.295589 
L 339.696775 216.416578 
L 339.99874 216.416578 
L 341.187119 215.71337 
L 341.791049 215.625469 
L 342.657982 215.273864 
L 342.959947 215.010161 
L 344.148326 214.746458 
L 344.450291 214.746458 
L 344.742515 214.570656 
L 345.044481 214.570656 
L 345.628929 214.306953 
L 347.421239 213.691645 
L 348.015428 213.427942 
L 348.609618 213.25214 
L 350.372705 211.757822 
L 350.67467 211.054613 
L 350.976635 210.966712 
L 351.570825 210.351404 
L 352.165014 209.736097 
L 352.739722 208.681284 
L 353.041687 208.505482 
L 353.635877 207.626471 
L 354.230067 206.747461 
L 354.824256 205.780549 
L 356.022376 204.549934 
L 356.889308 203.934626 
L 357.191273 203.583022 
L 357.483498 203.055616 
L 357.785463 202.967715 
L 358.973842 201.912902 
L 359.860256 201.561297 
L 360.162221 201.385495 
L 360.756411 200.770188 
L 361.94479 199.803276 
L 362.538979 199.539573 
L 362.840945 199.27587 
L 363.717618 197.957354 
L 365.207962 196.726739 
L 366.094376 196.111431 
L 366.971049 194.968717 
L 367.565238 194.001805 
L 368.159428 192.946993 
L 368.461393 192.683289 
L 369.357548 191.452674 
L 369.649772 191.188971 
L 370.253703 189.958356 
L 373.205169 183.277875 
L 374.685772 178.79492 
L 374.987737 178.003811 
L 375.279962 178.003811 
L 375.883892 176.861097 
L 377.646979 172.905549 
L 378.241169 171.762835 
L 379.439289 168.774198 
L 380.033478 168.334693 
L 380.929633 167.543583 
L 381.202376 167.631484 
L 381.504341 167.27988 
L 382.390755 164.994452 
L 383.286909 164.379145 
L 383.588875 164.554947 
L 383.881099 164.906551 
L 384.485029 164.642848 
L 384.757772 164.642848 
L 385.351962 163.500134 
L 386.248116 162.621124 
L 386.842306 161.917915 
L 387.436495 161.654212 
L 388.040426 160.6873 
L 388.322909 160.511498 
L 388.917099 159.808289 
L 389.511288 159.192982 
L 390.407443 158.138169 
L 391.001633 158.138169 
L 391.303598 157.962367 
L 392.472495 156.380148 
L 393.066685 155.940642 
L 393.670615 155.501137 
L 394.264805 154.885829 
L 394.858994 154.358423 
L 395.16096 154.622126 
L 395.433702 155.061631 
L 395.735668 155.237434 
L 396.027892 154.97373 
L 396.329857 154.446324 
L 396.622081 154.446324 
L 396.924047 154.270522 
L 397.226012 153.831017 
L 398.112426 153.567313 
L 398.414391 152.952006 
L 398.989099 152.160896 
L 399.583288 151.281885 
L 400.479443 150.139172 
L 400.781408 149.611765 
L 401.073633 149.348062 
L 401.969787 148.996458 
L 402.271753 148.732754 
L 404.63877 145.04091 
L 405.232959 144.777206 
L 406.109633 143.194987 
L 406.703822 141.876471 
L 407.901942 140.821658 
L 408.194166 140.294252 
L 408.788356 139.854746 
L 409.090321 138.712033 
L 409.966994 137.393516 
L 410.259219 137.129813 
L 410.853408 136.075 
L 411.457338 134.053276 
L 411.749563 133.350067 
L 412.051528 133.086364 
L 412.343752 133.086364 
L 412.645718 132.383155 
L 413.522391 131.855749 
L 414.11658 131.15254 
L 414.408805 130.976738 
L 414.71077 130.625134 
L 415.012735 130.097728 
L 415.304959 129.921926 
L 415.606925 129.570321 
L 416.201114 129.306618 
L 416.503079 128.867113 
L 416.785563 128.251805 
L 417.379752 127.900201 
L 417.973942 127.196992 
L 419.172062 125.878476 
L 419.464286 125.966377 
L 420.068217 124.911565 
L 420.642924 124.120455 
L 421.237114 123.768851 
L 421.529338 123.768851 
L 422.727458 122.538236 
L 423.019683 122.538236 
L 423.623613 121.747126 
L 423.896356 121.307621 
L 424.490545 121.043917 
L 425.688665 119.373797 
L 426.575079 119.110094 
L 427.753717 117.17627 
L 428.347907 116.648864 
L 428.640131 116.648864 
L 429.536286 115.594051 
L 430.130476 115.769853 
L 430.432441 114.978744 
L 430.734406 114.539238 
L 431.318855 113.308623 
L 431.611079 113.04492 
L 431.913044 112.957019 
L 432.507234 112.429613 
L 433.403388 111.286899 
L 433.695613 111.286899 
L 434.572286 110.056284 
L 434.874251 109.880482 
L 435.166475 109.968383 
L 436.06263 109.353075 
L 436.65682 108.649867 
L 437.251009 108.91357 
L 439.316062 107.24345 
L 439.919992 106.891845 
L 440.212216 106.540241 
L 440.806406 106.628142 
L 441.108371 106.276538 
L 441.410336 106.100736 
L 441.683079 105.66123 
L 441.985044 104.606417 
L 442.579234 104.606417 
L 443.767613 102.848396 
L 444.361802 102.760495 
L 444.663767 102.32099 
L 444.965733 101.441979 
L 445.248216 100.211364 
L 445.842406 99.947661 
L 446.144371 99.156551 
L 446.436595 98.804947 
L 446.73856 98.804947 
L 447.040526 98.013837 
L 447.33275 97.750134 
L 447.634715 97.662233 
L 447.92694 97.750134 
L 448.53087 96.167915 
L 448.803613 95.81631 
L 449.699767 94.234091 
L 449.991992 94.673597 
L 450.293957 94.673597 
L 450.595922 93.970388 
L 450.888146 94.497794 
L 451.190112 94.761498 
L 451.482336 95.376805 
L 451.784301 95.025201 
L 452.086266 94.409893 
L 452.660974 92.651872 
L 453.255164 92.563971 
L 453.547388 92.388169 
L 453.849353 91.860762 
L 454.443543 91.333356 
L 454.745508 91.333356 
L 455.037732 91.68496 
L 455.339698 90.981752 
L 455.914406 88.784225 
L 456.508595 89.399532 
L 457.102785 89.047928 
L 457.706715 87.905214 
L 457.998939 88.081016 
L 458.300905 88.520522 
L 458.593129 88.696324 
L 459.197059 87.026203 
L 459.479543 85.971391 
L 459.781508 85.443984 
L 460.073732 84.477072 
L 460.375698 83.949666 
L 460.667922 84.213369 
L 460.969887 84.125468 
L 461.271852 83.773864 
L 461.564077 82.894853 
L 461.866042 82.806952 
L 462.158266 83.42226 
L 462.460231 83.070655 
L 462.762197 82.103744 
L 463.336905 79.642514 
L 463.629129 79.818316 
L 463.931094 79.730415 
L 464.525284 78.060294 
L 464.827249 75.950669 
L 465.119473 75.599064 
L 465.421438 77.005481 
L 465.713663 77.70869 
L 466.015628 76.390174 
L 466.317593 76.03857 
L 466.590336 75.071658 
L 466.892301 73.57734 
L 467.184525 72.698329 
L 467.486491 72.346725 
L 468.08068 71.467714 
L 468.67487 73.313637 
L 468.976835 73.57734 
L 469.269059 73.313637 
L 469.571024 72.772166 
L 469.87299 71.820197 
L 470.447697 69.01879 
L 470.739922 67.9086 
L 471.041887 67.554358 
L 471.334111 67.600946 
L 471.636077 67.936728 
L 472.230266 67.041016 
L 472.532231 65.950164 
L 472.824456 66.074104 
L 473.126421 65.156417 
L 473.428386 64.617584 
L 474.012835 61.86628 
L 474.899249 57.347286 
L 475.201214 58.119058 
L 475.503179 58.385398 
L 475.795403 60.328012 
L 476.097369 63.974148 
L 476.389593 65.905334 
L 477.266266 63.724509 
L 477.860456 62.716284 
L 478.162421 61.101541 
L 478.454645 61.402163 
L 478.75661 60.9776 
L 479.652765 60.541611 
L 479.944989 60.876514 
L 480.246955 60.227804 
L 480.54892 60.180338 
L 480.821662 59.398018 
L 481.123628 59.065752 
L 481.415852 58.917199 
L 481.717817 59.104429 
L 482.010042 59.063994 
L 482.312007 58.799412 
L 482.613972 58.687778 
L 482.906196 58.448687 
L 483.208161 58.367818 
L 483.500386 58.03731 
L 484.104316 56.165017 
L 484.377059 54.268112 
L 484.971249 52.073222 
L 485.273214 52.285943 
L 485.565438 52.11014 
L 485.867403 51.562517 
L 486.169368 51.260137 
L 486.461593 51.671514 
L 486.763558 51.839405 
L 487.055782 52.329893 
L 487.659713 50.579783 
L 487.942196 49.059973 
L 488.244161 48.450819 
L 489.130575 49.313128 
L 489.734506 47.288767 
L 490.02673 47.367878 
L 490.328695 48.331273 
L 490.62092 48.87626 
L 490.922885 48.279412 
L 491.22485 46.621598 
L 491.497593 46.088038 
L 491.799558 46.300759 
L 492.685972 45.364612 
L 493.289902 44.878519 
L 493.884092 45.827851 
L 494.176316 45.845431 
L 494.780246 44.322985 
L 495.052989 42.993921 
L 495.949144 41.191949 
L 496.241368 41.273697 
L 496.543333 41.623543 
L 496.845299 41.4662 
L 497.137523 41.991848 
L 498.033678 45.267042 
L 498.335643 44.374846 
L 498.608386 43.146868 
L 498.910351 42.724943 
L 499.50454 40.93264 
L 499.796765 40.918576 
L 500.400695 41.541795 
L 500.692919 41.635849 
L 500.994885 42.077112 
L 501.287109 42.78999 
L 501.589074 42.446297 
L 501.891039 42.27489 
L 503.069678 38.840595 
L 503.361902 39.183409 
L 503.663867 38.989148 
L 503.965832 38.480201 
L 504.258057 38.215618 
L 504.560022 38.546126 
L 504.852246 38.476685 
L 505.154211 37.239916 
L 505.456177 36.568352 
L 505.728919 36.394308 
L 506.030885 35.758783 
L 506.625074 35.37993 
L 506.917299 35.528483 
L 507.219264 34.884168 
L 507.521229 33.741454 
L 507.813453 33.87858 
L 508.115418 33.873306 
L 508.407643 34.000762 
L 509.011573 31.832243 
L 509.284316 31.33736 
L 509.878505 29.549452 
L 510.180471 29.196969 
L 510.77466 29.058964 
L 511.36885 28.409375 
L 511.963039 29.861501 
L 512.265004 29.440455 
L 512.56697 28.505187 
L 513.141678 26.06857 
L 513.433902 25.590388 
L 513.735867 25.545558 
L 514.028091 25.169342 
L 514.330057 25.180769 
L 514.632022 25.004088 
L 514.924246 24.488108 
L 515.518436 24.8151 
L 516.122366 23.317266 
L 516.40485 23.812149 
L 516.706815 25.329322 
L 516.999039 25.324926 
L 517.593229 22.945445 
L 517.895194 22.227293 
L 518.197159 21.909091 
L 518.197159 21.909091 
" style="fill:none;stroke:#6083a9;stroke-linecap:square;stroke-width:2;"/>
   </g>
   <g id="patch_3">
    <path d="M 67.425 255.2 
L 67.425 10.8 
" style="fill:none;"/>
   </g>
   <g id="patch_4">
    <path d="M 539.6625 255.2 
L 539.6625 10.8 
" style="fill:none;"/>
   </g>
   <g id="patch_5">
    <path d="M 67.425 255.2 
L 539.6625 255.2 
" style="fill:none;"/>
   </g>
   <g id="patch_6">
    <path d="M 67.425 10.8 
L 539.6625 10.8 
" style="fill:none;"/>
   </g>
  </g>
  <g id="axes_2">
   <g id="patch_7">
    <path d="M 596.9625 255.2 
L 1069.2 255.2 
L 1069.2 10.8 
L 596.9625 10.8 
z
" style="fill:none;"/>
   </g>
   <g id="matplotlib.axis_3">
    <g id="xtick_8">
     <g id="line2d_23">
      <g>
       <use style="fill:#003559;stroke:#003559;stroke-width:0.8;" x="618.427841" xlink:href="#m8096bc210d" y="255.2"/>
      </g>
     </g>
     <g id="text_16">
      <!-- 1900 -->
      <g style="fill:#2f2235;" transform="translate(598.067841 274.3575)scale(0.16 -0.16)">
       <use xlink:href="#DejaVuSans-49"/>
       <use x="63.623047" xlink:href="#DejaVuSans-57"/>
       <use x="127.246094" xlink:href="#DejaVuSans-48"/>
       <use x="190.869141" xlink:href="#DejaVuSans-48"/>
      </g>
     </g>
    </g>
    <g id="xtick_9">
     <g id="line2d_24">
      <g>
       <use style="fill:#003559;stroke:#003559;stroke-width:0.8;" x="689.574734" xlink:href="#m8096bc210d" y="255.2"/>
      </g>
     </g>
     <g id="text_17">
      <!-- 1920 -->
      <g style="fill:#2f2235;" transform="translate(669.214734 274.3575)scale(0.16 -0.16)">
       <use xlink:href="#DejaVuSans-49"/>
       <use x="63.623047" xlink:href="#DejaVuSans-57"/>
       <use x="127.246094" xlink:href="#DejaVuSans-50"/>
       <use x="190.869141" xlink:href="#DejaVuSans-48"/>
      </g>
     </g>
    </g>
    <g id="xtick_10">
     <g id="line2d_25">
      <g>
       <use style="fill:#003559;stroke:#003559;stroke-width:0.8;" x="760.731367" xlink:href="#m8096bc210d" y="255.2"/>
      </g>
     </g>
     <g id="text_18">
      <!-- 1940 -->
      <g style="fill:#2f2235;" transform="translate(740.371367 274.3575)scale(0.16 -0.16)">
       <use xlink:href="#DejaVuSans-49"/>
       <use x="63.623047" xlink:href="#DejaVuSans-57"/>
       <use x="127.246094" xlink:href="#DejaVuSans-52"/>
       <use x="190.869141" xlink:href="#DejaVuSans-48"/>
      </g>
     </g>
    </g>
    <g id="xtick_11">
     <g id="line2d_26">
      <g>
       <use style="fill:#003559;stroke:#003559;stroke-width:0.8;" x="831.888" xlink:href="#m8096bc210d" y="255.2"/>
      </g>
     </g>
     <g id="text_19">
      <!-- 1960 -->
      <g style="fill:#2f2235;" transform="translate(811.528 274.3575)scale(0.16 -0.16)">
       <use xlink:href="#DejaVuSans-49"/>
       <use x="63.623047" xlink:href="#DejaVuSans-57"/>
       <use x="127.246094" xlink:href="#DejaVuSans-54"/>
       <use x="190.869141" xlink:href="#DejaVuSans-48"/>
      </g>
     </g>
    </g>
    <g id="xtick_12">
     <g id="line2d_27">
      <g>
       <use style="fill:#003559;stroke:#003559;stroke-width:0.8;" x="903.044634" xlink:href="#m8096bc210d" y="255.2"/>
      </g>
     </g>
     <g id="text_20">
      <!-- 1980 -->
      <g style="fill:#2f2235;" transform="translate(882.684634 274.3575)scale(0.16 -0.16)">
       <use xlink:href="#DejaVuSans-49"/>
       <use x="63.623047" xlink:href="#DejaVuSans-57"/>
       <use x="127.246094" xlink:href="#DejaVuSans-56"/>
       <use x="190.869141" xlink:href="#DejaVuSans-48"/>
      </g>
     </g>
    </g>
    <g id="xtick_13">
     <g id="line2d_28">
      <g>
       <use style="fill:#003559;stroke:#003559;stroke-width:0.8;" x="974.201267" xlink:href="#m8096bc210d" y="255.2"/>
      </g>
     </g>
     <g id="text_21">
      <!-- 2000 -->
      <g style="fill:#2f2235;" transform="translate(953.841267 274.3575)scale(0.16 -0.16)">
       <use xlink:href="#DejaVuSans-50"/>
       <use x="63.623047" xlink:href="#DejaVuSans-48"/>
       <use x="127.246094" xlink:href="#DejaVuSans-48"/>
       <use x="190.869141" xlink:href="#DejaVuSans-48"/>
      </g>
     </g>
    </g>
    <g id="xtick_14">
     <g id="line2d_29">
      <g>
       <use style="fill:#003559;stroke:#003559;stroke-width:0.8;" x="1045.357901" xlink:href="#m8096bc210d" y="255.2"/>
      </g>
     </g>
     <g id="text_22">
      <!-- 2020 -->
      <g style="fill:#2f2235;" transform="translate(1024.997901 274.3575)scale(0.16 -0.16)">
       <use xlink:href="#DejaVuSans-50"/>
       <use x="63.623047" xlink:href="#DejaVuSans-48"/>
       <use x="127.246094" xlink:href="#DejaVuSans-50"/>
       <use x="190.869141" xlink:href="#DejaVuSans-48"/>
      </g>
     </g>
    </g>
   </g>
   <g id="matplotlib.axis_4">
    <g id="ytick_8">
     <g id="line2d_30">
      <path clip-path="url(#pdd3ccfe290)" d="M 596.9625 244.903599 
L 1069.2 244.903599 
" style="fill:none;stroke:#f0f0f0;stroke-linecap:square;"/>
     </g>
     <g id="line2d_31">
      <g>
       <use style="fill:#003559;stroke:#003559;stroke-width:0.8;" x="596.9625" xlink:href="#mf6515d9219" y="244.903599"/>
      </g>
     </g>
     <g id="text_23">
      <!-- $0 -->
      <g style="fill:#2f2235;" transform="translate(569.6025 250.982349)scale(0.16 -0.16)">
       <use xlink:href="#DejaVuSans-36"/>
       <use x="63.623047" xlink:href="#DejaVuSans-48"/>
      </g>
     </g>
    </g>
    <g id="ytick_9">
     <g id="line2d_32">
      <path clip-path="url(#pdd3ccfe290)" d="M 596.9625 200.065561 
L 1069.2 200.065561 
" style="fill:none;stroke:#f0f0f0;stroke-linecap:square;"/>
     </g>
     <g id="line2d_33">
      <g>
       <use style="fill:#003559;stroke:#003559;stroke-width:0.8;" x="596.9625" xlink:href="#mf6515d9219" y="200.065561"/>
      </g>
     </g>
     <g id="text_24">
      <!-- $1 -->
      <g style="fill:#2f2235;" transform="translate(569.6025 206.144311)scale(0.16 -0.16)">
       <use xlink:href="#DejaVuSans-36"/>
       <use x="63.623047" xlink:href="#DejaVuSans-49"/>
      </g>
     </g>
    </g>
    <g id="ytick_10">
     <g id="line2d_34">
      <path clip-path="url(#pdd3ccfe290)" d="M 596.9625 155.227523 
L 1069.2 155.227523 
" style="fill:none;stroke:#f0f0f0;stroke-linecap:square;"/>
     </g>
     <g id="line2d_35">
      <g>
       <use style="fill:#003559;stroke:#003559;stroke-width:0.8;" x="596.9625" xlink:href="#mf6515d9219" y="155.227523"/>
      </g>
     </g>
     <g id="text_25">
      <!-- $2 -->
      <g style="fill:#2f2235;" transform="translate(569.6025 161.306273)scale(0.16 -0.16)">
       <use xlink:href="#DejaVuSans-36"/>
       <use x="63.623047" xlink:href="#DejaVuSans-50"/>
      </g>
     </g>
    </g>
    <g id="ytick_11">
     <g id="line2d_36">
      <path clip-path="url(#pdd3ccfe290)" d="M 596.9625 110.389485 
L 1069.2 110.389485 
" style="fill:none;stroke:#f0f0f0;stroke-linecap:square;"/>
     </g>
     <g id="line2d_37">
      <g>
       <use style="fill:#003559;stroke:#003559;stroke-width:0.8;" x="596.9625" xlink:href="#mf6515d9219" y="110.389485"/>
      </g>
     </g>
     <g id="text_26">
      <!-- $3 -->
      <g style="fill:#2f2235;" transform="translate(569.6025 116.468235)scale(0.16 -0.16)">
       <use xlink:href="#DejaVuSans-36"/>
       <use x="63.623047" xlink:href="#DejaVuSans-51"/>
      </g>
     </g>
    </g>
    <g id="ytick_12">
     <g id="line2d_38">
      <path clip-path="url(#pdd3ccfe290)" d="M 596.9625 65.551448 
L 1069.2 65.551448 
" style="fill:none;stroke:#f0f0f0;stroke-linecap:square;"/>
     </g>
     <g id="line2d_39">
      <g>
       <use style="fill:#003559;stroke:#003559;stroke-width:0.8;" x="596.9625" xlink:href="#mf6515d9219" y="65.551448"/>
      </g>
     </g>
     <g id="text_27">
      <!-- $4 -->
      <g style="fill:#2f2235;" transform="translate(569.6025 71.630198)scale(0.16 -0.16)">
       <use xlink:href="#DejaVuSans-36"/>
       <use x="63.623047" xlink:href="#DejaVuSans-52"/>
      </g>
     </g>
    </g>
    <g id="ytick_13">
     <g id="line2d_40">
      <path clip-path="url(#pdd3ccfe290)" d="M 596.9625 20.71341 
L 1069.2 20.71341 
" style="fill:none;stroke:#f0f0f0;stroke-linecap:square;"/>
     </g>
     <g id="line2d_41">
      <g>
       <use style="fill:#003559;stroke:#003559;stroke-width:0.8;" x="596.9625" xlink:href="#mf6515d9219" y="20.71341"/>
      </g>
     </g>
     <g id="text_28">
      <!-- $5 -->
      <g style="fill:#2f2235;" transform="translate(569.6025 26.79216)scale(0.16 -0.16)">
       <use xlink:href="#DejaVuSans-36"/>
       <use x="63.623047" xlink:href="#DejaVuSans-53"/>
      </g>
     </g>
    </g>
    <g id="text_29">
     <!-- Dividends per S&amp;P share -->
     <defs>
      <path d="M 19.671875 64.796875 
L 19.671875 8.109375 
L 31.59375 8.109375 
Q 46.6875 8.109375 53.6875 14.9375 
Q 60.6875 21.78125 60.6875 36.53125 
Q 60.6875 51.171875 53.6875 57.984375 
Q 46.6875 64.796875 31.59375 64.796875 
z
M 9.8125 72.90625 
L 30.078125 72.90625 
Q 51.265625 72.90625 61.171875 64.09375 
Q 71.09375 55.28125 71.09375 36.53125 
Q 71.09375 17.671875 61.125 8.828125 
Q 51.171875 0 30.078125 0 
L 9.8125 0 
z
" id="DejaVuSans-68"/>
      <path d="M 9.421875 54.6875 
L 18.40625 54.6875 
L 18.40625 0 
L 9.421875 0 
z
M 9.421875 75.984375 
L 18.40625 75.984375 
L 18.40625 64.59375 
L 9.421875 64.59375 
z
" id="DejaVuSans-105"/>
      <path d="M 2.984375 54.6875 
L 12.5 54.6875 
L 29.59375 8.796875 
L 46.6875 54.6875 
L 56.203125 54.6875 
L 35.6875 0 
L 23.484375 0 
z
" id="DejaVuSans-118"/>
      <path d="M 44.28125 53.078125 
L 44.28125 44.578125 
Q 40.484375 46.53125 36.375 47.5 
Q 32.28125 48.484375 27.875 48.484375 
Q 21.1875 48.484375 17.84375 46.4375 
Q 14.5 44.390625 14.5 40.28125 
Q 14.5 37.15625 16.890625 35.375 
Q 19.28125 33.59375 26.515625 31.984375 
L 29.59375 31.296875 
Q 39.15625 29.25 43.1875 25.515625 
Q 47.21875 21.78125 47.21875 15.09375 
Q 47.21875 7.46875 41.1875 3.015625 
Q 35.15625 -1.421875 24.609375 -1.421875 
Q 20.21875 -1.421875 15.453125 -0.5625 
Q 10.6875 0.296875 5.421875 2 
L 5.421875 11.28125 
Q 10.40625 8.6875 15.234375 7.390625 
Q 20.0625 6.109375 24.8125 6.109375 
Q 31.15625 6.109375 34.5625 8.28125 
Q 37.984375 10.453125 37.984375 14.40625 
Q 37.984375 18.0625 35.515625 20.015625 
Q 33.0625 21.96875 24.703125 23.78125 
L 21.578125 24.515625 
Q 13.234375 26.265625 9.515625 29.90625 
Q 5.8125 33.546875 5.8125 39.890625 
Q 5.8125 47.609375 11.28125 51.796875 
Q 16.75 56 26.8125 56 
Q 31.78125 56 36.171875 55.265625 
Q 40.578125 54.546875 44.28125 53.078125 
z
" id="DejaVuSans-115"/>
      <path d="M 18.109375 8.203125 
L 18.109375 -20.796875 
L 9.078125 -20.796875 
L 9.078125 54.6875 
L 18.109375 54.6875 
L 18.109375 46.390625 
Q 20.953125 51.265625 25.265625 53.625 
Q 29.59375 56 35.59375 56 
Q 45.5625 56 51.78125 48.09375 
Q 58.015625 40.1875 58.015625 27.296875 
Q 58.015625 14.40625 51.78125 6.484375 
Q 45.5625 -1.421875 35.59375 -1.421875 
Q 29.59375 -1.421875 25.265625 0.953125 
Q 20.953125 3.328125 18.109375 8.203125 
z
M 48.6875 27.296875 
Q 48.6875 37.203125 44.609375 42.84375 
Q 40.53125 48.484375 33.40625 48.484375 
Q 26.265625 48.484375 22.1875 42.84375 
Q 18.109375 37.203125 18.109375 27.296875 
Q 18.109375 17.390625 22.1875 11.75 
Q 26.265625 6.109375 33.40625 6.109375 
Q 40.53125 6.109375 44.609375 11.75 
Q 48.6875 17.390625 48.6875 27.296875 
z
" id="DejaVuSans-112"/>
      <path d="M 53.515625 70.515625 
L 53.515625 60.890625 
Q 47.90625 63.578125 42.921875 64.890625 
Q 37.9375 66.21875 33.296875 66.21875 
Q 25.25 66.21875 20.875 63.09375 
Q 16.5 59.96875 16.5 54.203125 
Q 16.5 49.359375 19.40625 46.890625 
Q 22.3125 44.4375 30.421875 42.921875 
L 36.375 41.703125 
Q 47.40625 39.59375 52.65625 34.296875 
Q 57.90625 29 57.90625 20.125 
Q 57.90625 9.515625 50.796875 4.046875 
Q 43.703125 -1.421875 29.984375 -1.421875 
Q 24.8125 -1.421875 18.96875 -0.25 
Q 13.140625 0.921875 6.890625 3.21875 
L 6.890625 13.375 
Q 12.890625 10.015625 18.65625 8.296875 
Q 24.421875 6.59375 29.984375 6.59375 
Q 38.421875 6.59375 43.015625 9.90625 
Q 47.609375 13.234375 47.609375 19.390625 
Q 47.609375 24.75 44.3125 27.78125 
Q 41.015625 30.8125 33.5 32.328125 
L 27.484375 33.5 
Q 16.453125 35.6875 11.515625 40.375 
Q 6.59375 45.0625 6.59375 53.421875 
Q 6.59375 63.09375 13.40625 68.65625 
Q 20.21875 74.21875 32.171875 74.21875 
Q 37.3125 74.21875 42.625 73.28125 
Q 47.953125 72.359375 53.515625 70.515625 
z
" id="DejaVuSans-83"/>
      <path d="M 24.3125 39.203125 
Q 19.875 35.25 17.796875 31.3125 
Q 15.71875 27.390625 15.71875 23.09375 
Q 15.71875 15.96875 20.890625 11.234375 
Q 26.078125 6.5 33.890625 6.5 
Q 38.53125 6.5 42.578125 8.03125 
Q 46.625 9.578125 50.203125 12.703125 
z
M 31.203125 44.671875 
L 56 19.28125 
Q 58.890625 23.640625 60.5 28.59375 
Q 62.109375 33.546875 62.40625 39.109375 
L 71.484375 39.109375 
Q 70.90625 32.671875 68.359375 26.359375 
Q 65.828125 20.0625 61.28125 13.921875 
L 74.90625 0 
L 62.59375 0 
L 55.609375 7.171875 
Q 50.53125 2.828125 44.96875 0.703125 
Q 39.40625 -1.421875 33.015625 -1.421875 
Q 21.234375 -1.421875 13.765625 5.296875 
Q 6.296875 12.015625 6.296875 22.515625 
Q 6.296875 28.765625 9.5625 34.25 
Q 12.84375 39.75 19.390625 44.578125 
Q 17.046875 47.65625 15.8125 50.703125 
Q 14.59375 53.765625 14.59375 56.6875 
Q 14.59375 64.59375 20.015625 69.40625 
Q 25.4375 74.21875 34.421875 74.21875 
Q 38.484375 74.21875 42.5 73.34375 
Q 46.53125 72.46875 50.6875 70.703125 
L 50.6875 61.8125 
Q 46.4375 64.109375 42.578125 65.296875 
Q 38.71875 66.5 35.40625 66.5 
Q 30.28125 66.5 27.078125 63.78125 
Q 23.875 61.078125 23.875 56.78125 
Q 23.875 54.296875 25.3125 51.78125 
Q 26.765625 49.265625 31.203125 44.671875 
z
" id="DejaVuSans-38"/>
      <path d="M 19.671875 64.796875 
L 19.671875 37.40625 
L 32.078125 37.40625 
Q 38.96875 37.40625 42.71875 40.96875 
Q 46.484375 44.53125 46.484375 51.125 
Q 46.484375 57.671875 42.71875 61.234375 
Q 38.96875 64.796875 32.078125 64.796875 
z
M 9.8125 72.90625 
L 32.078125 72.90625 
Q 44.34375 72.90625 50.609375 67.359375 
Q 56.890625 61.8125 56.890625 51.125 
Q 56.890625 40.328125 50.609375 34.8125 
Q 44.34375 29.296875 32.078125 29.296875 
L 19.671875 29.296875 
L 19.671875 0 
L 9.8125 0 
z
" id="DejaVuSans-80"/>
      <path d="M 54.890625 33.015625 
L 54.890625 0 
L 45.90625 0 
L 45.90625 32.71875 
Q 45.90625 40.484375 42.875 44.328125 
Q 39.84375 48.1875 33.796875 48.1875 
Q 26.515625 48.1875 22.3125 43.546875 
Q 18.109375 38.921875 18.109375 30.90625 
L 18.109375 0 
L 9.078125 0 
L 9.078125 75.984375 
L 18.109375 75.984375 
L 18.109375 46.1875 
Q 21.34375 51.125 25.703125 53.5625 
Q 30.078125 56 35.796875 56 
Q 45.21875 56 50.046875 50.171875 
Q 54.890625 44.34375 54.890625 33.015625 
z
" id="DejaVuSans-104"/>
     </defs>
     <g style="fill:#2f2235;" transform="translate(562.275 232.065)rotate(-90)scale(0.16 -0.16)">
      <use xlink:href="#DejaVuSans-68"/>
      <use x="77.001953" xlink:href="#DejaVuSans-105"/>
      <use x="104.785156" xlink:href="#DejaVuSans-118"/>
      <use x="163.964844" xlink:href="#DejaVuSans-105"/>
      <use x="191.748047" xlink:href="#DejaVuSans-100"/>
      <use x="255.224609" xlink:href="#DejaVuSans-101"/>
      <use x="316.748047" xlink:href="#DejaVuSans-110"/>
      <use x="380.126953" xlink:href="#DejaVuSans-100"/>
      <use x="443.603516" xlink:href="#DejaVuSans-115"/>
      <use x="495.703125" xlink:href="#DejaVuSans-32"/>
      <use x="527.490234" xlink:href="#DejaVuSans-112"/>
      <use x="590.966797" xlink:href="#DejaVuSans-101"/>
      <use x="652.490234" xlink:href="#DejaVuSans-114"/>
      <use x="693.603516" xlink:href="#DejaVuSans-32"/>
      <use x="725.390625" xlink:href="#DejaVuSans-83"/>
      <use x="788.867188" xlink:href="#DejaVuSans-38"/>
      <use x="866.845703" xlink:href="#DejaVuSans-80"/>
      <use x="927.148438" xlink:href="#DejaVuSans-32"/>
      <use x="958.935547" xlink:href="#DejaVuSans-115"/>
      <use x="1011.035156" xlink:href="#DejaVuSans-104"/>
      <use x="1074.414062" xlink:href="#DejaVuSans-97"/>
      <use x="1135.693359" xlink:href="#DejaVuSans-114"/>
      <use x="1176.775391" xlink:href="#DejaVuSans-101"/>
     </g>
    </g>
   </g>
   <g id="line2d_42">
    <path clip-path="url(#pdd3ccfe290)" d="M 618.427841 244.090909 
L 623.152135 243.751635 
L 633.233876 243.633187 
L 637.685427 243.707918 
L 641.533048 243.518103 
L 646.578788 243.259537 
L 651.322564 243.359302 
L 658.725581 243.147442 
L 669.995701 243.240855 
L 672.956908 243.318574 
L 675.645372 243.21582 
L 682.161975 242.325411 
L 687.188235 242.836191 
L 697.269975 243.138101 
L 703.504095 242.923252 
L 710.332404 242.67739 
L 713.293611 242.409483 
L 726.326818 241.263497 
L 729.015282 241.34159 
L 732.853162 242.138586 
L 735.833851 243.054029 
L 740.558145 243.243844 
L 746.802006 243.072712 
L 748.272868 242.773792 
L 749.169023 242.487325 
L 750.065178 242.175951 
L 750.941851 241.989126 
L 751.53604 241.764936 
L 752.432195 242.026491 
L 753.620574 241.939307 
L 755.091437 242.138586 
L 756.279816 242.624332 
L 756.874005 242.997982 
L 759.542988 242.811157 
L 760.731367 242.574513 
L 768.426609 242.325411 
L 772.28397 242.699062 
L 775.264659 242.59942 
L 781.187073 242.437506 
L 784.14828 242.337865 
L 786.515297 242.163497 
L 789.495986 241.740025 
L 791.863003 241.578111 
L 794.23002 241.092365 
L 795.418399 240.893098 
L 796.314554 240.60662 
L 797.785417 240.419795 
L 799.869951 239.348651 
L 801.340813 239.074654 
L 802.529192 239.361131 
L 803.123382 239.635129 
L 806.396295 239.585322 
L 807.29245 239.635129 
L 809.649726 239.560399 
L 811.422554 239.435861 
L 812.610933 239.435861 
L 813.205123 239.323766 
L 814.101277 239.124461 
L 817.354709 238.775733 
L 819.137277 238.177893 
L 820.033432 238.028433 
L 821.221811 238.414526 
L 822.984898 238.402083 
L 824.777208 238.24018 
L 827.738414 238.38964 
L 831.888 237.92878 
L 832.774414 237.64234 
L 835.453138 237.62986 
L 837.51819 237.604975 
L 838.414345 237.430592 
L 839.310499 237.306055 
L 843.138639 236.870117 
L 844.628983 236.658369 
L 845.223172 236.558754 
L 847.297965 236.073009 
L 850.561138 235.300785 
L 855.606878 234.105104 
L 856.795257 234.142469 
L 858.26612 234.067739 
L 862.727412 233.581994 
L 865.678878 233.183421 
L 868.94205 233.021519 
L 870.130429 233.046441 
L 871.601292 233.283074 
L 876.958739 233.395169 
L 878.147118 233.108691 
L 879.316015 232.934346 
L 880.80636 232.548216 
L 882.00448 232.124758 
L 884.663721 231.46463 
L 885.257911 231.365015 
L 886.728773 231.041172 
L 888.219118 231.115902 
L 889.115272 231.128344 
L 889.699721 231.028729 
L 891.190065 230.518061 
L 892.378445 229.596378 
L 893.547342 228.824192 
L 895.631876 227.454129 
L 898.300858 226.146353 
L 899.489237 225.797625 
L 901.252325 224.738924 
L 903.044634 223.605531 
L 905.421392 222.223024 
L 907.184479 221.438359 
L 911.63603 219.458012 
L 914.889462 219.009632 
L 915.785616 218.822807 
L 916.681771 218.523886 
L 918.454599 217.751663 
L 919.048788 217.502588 
L 919.944943 217.14138 
L 921.415806 216.281984 
L 924.69846 215.086303 
L 925.565392 214.737576 
L 926.159581 214.47602 
L 927.055736 214.08989 
L 928.526599 213.741162 
L 930.318908 212.545481 
L 932.393701 211.113168 
L 933.58208 209.842756 
L 934.478235 208.883708 
L 935.072425 208.23606 
L 935.949098 207.214612 
L 936.241322 206.816301 
L 936.543287 206.156061 
L 936.835512 205.956905 
L 937.137477 205.495821 
L 937.439442 204.81092 
L 937.731666 204.561695 
L 938.627821 203.278954 
L 939.504494 202.170333 
L 940.098684 201.335972 
L 942.183218 199.666876 
L 943.65408 199.505085 
L 944.550235 199.01934 
L 945.436649 199.31826 
L 946.323063 198.86988 
L 947.511442 198.782819 
L 948.407597 198.620655 
L 949.001786 198.608325 
L 951.066838 198.122579 
L 951.962993 198.047849 
L 952.859148 197.736598 
L 954.9242 196.702708 
L 955.226165 196.627978 
L 956.112579 195.693852 
L 956.989252 195.693852 
L 960.271906 192.604885 
L 960.554389 192.218904 
L 961.450544 191.583699 
L 962.346699 190.126462 
L 963.535078 189.030546 
L 964.703975 188.382636 
L 965.298165 188.046351 
L 967.967148 186.053674 
L 968.853562 185.057149 
L 969.457492 184.596438 
L 970.343906 184.372248 
L 971.220579 183.438122 
L 972.116734 183.438122 
L 973.012888 182.728186 
L 975.087681 182.354536 
L 975.681871 182.503996 
L 976.578026 183.811772 
L 977.46444 184.110692 
L 979.237267 186.277864 
L 980.425646 186.091039 
L 981.896509 186.128404 
L 982.792664 184.970088 
L 983.688819 185.866849 
L 984.575232 184.857993 
L 985.451906 184.297518 
L 986.34806 184.484343 
L 987.244215 182.915011 
L 988.432594 179.141143 
L 990.507387 174.009679 
L 990.809352 173.312198 
L 991.695766 172.265977 
L 993.468594 166.698588 
L 994.656973 163.74675 
L 995.553128 161.181018 
L 996.429801 158.964026 
L 998.514335 152.910891 
L 999.108524 151.179645 
L 1000.277422 147.966252 
L 1000.871611 146.110455 
L 1002.361956 141.290366 
L 1003.550335 138.649904 
L 1004.144524 137.628593 
L 1005.040679 137.105483 
L 1005.927093 138.824274 
L 1006.803766 143.046523 
L 1009.482489 161.168563 
L 1010.359162 163.07418 
L 1011.255317 162.551069 
L 1012.745661 160.446172 
L 1013.037886 159.972882 
L 1013.914559 157.35733 
L 1015.999093 149.261573 
L 1016.895248 145.001959 
L 1018.375851 139.085829 
L 1019.56423 132.272939 
L 1020.15842 128.137875 
L 1021.035093 124.924483 
L 1022.827402 116.36789 
L 1023.713816 114.163354 
L 1026.382799 101.085593 
L 1027.571178 95.829578 
L 1028.447851 91.258589 
L 1029.334265 87.982922 
L 1030.532385 83.872768 
L 1030.824609 82.776727 
L 1032.012988 80.22345 
L 1034.389746 74.145405 
L 1035.568385 70.558362 
L 1038.247108 60.743814 
L 1040.010195 52.697877 
L 1042.971402 36.787162 
L 1045.659866 23.950209 
L 1045.94235 22.280486 
L 1046.838504 21.909091 
L 1047.734659 25.010389 
L 1047.734659 25.010389 
" style="fill:none;stroke:#6083a9;stroke-linecap:square;stroke-width:2;"/>
   </g>
   <g id="patch_8">
    <path d="M 596.9625 255.2 
L 596.9625 10.8 
" style="fill:none;"/>
   </g>
   <g id="patch_9">
    <path d="M 1069.2 255.2 
L 1069.2 10.8 
" style="fill:none;"/>
   </g>
   <g id="patch_10">
    <path d="M 596.9625 255.2 
L 1069.2 255.2 
" style="fill:none;"/>
   </g>
   <g id="patch_11">
    <path d="M 596.9625 10.8 
L 1069.2 10.8 
" style="fill:none;"/>
   </g>
  </g>
 </g>
 <defs>
  <clipPath id="p47bff29e25">
   <rect height="244.4" width="472.2375" x="67.425" y="10.8"/>
  </clipPath>
  <clipPath id="pdd3ccfe290">
   <rect height="244.4" width="472.2375" x="596.9625" y="10.8"/>
  </clipPath>
 </defs>
</svg>
