<svg version="1.1" xmlns="http://www.w3.org/2000/svg" xmlns:xlink="http://www.w3.org/1999/xlink" width="800" height="400"><defs><clipPath id="HBiMiWloPuZR"><path fill="none" stroke="none" d="M 72.5 30.5 L 795.5 30.5 L 795.5 372.5 L 72.5 372.5 L 72.5 30.5"/></clipPath><clipPath id="hNgDmkWBzGln"><path fill="none" stroke="none" d="M 72.5 30.5 L 795.5 30.5 L 795.5 372.5 L 72.5 372.5 L 72.5 30.5"/></clipPath><clipPath id="TAfwaqPtFcxw"><path fill="none" stroke="none" d="M 72.5 30.5 L 795.5 30.5 L 795.5 372.5 L 72.5 372.5 L 72.5 30.5"/></clipPath><clipPath id="KRUoKMiMyrJo"><path fill="none" stroke="none" d="M 72.5 30.5 L 795.5 30.5 L 795.5 372.5 L 72.5 372.5 L 72.5 30.5"/></clipPath><clipPath id="wiUkopDamleU"><path fill="none" stroke="none" d="M 72.5 30.5 L 795.5 30.5 L 795.5 372.5 L 72.5 372.5 L 72.5 30.5"/></clipPath></defs><path fill="none" stroke="rgb(240,240,240)" paint-order="fill" d="M 72.5 370.5 L 795.5 370.5 M 72.5 315.5 L 795.5 315.5 M 72.5 260.5 L 795.5 260.5 M 72.5 205.5 L 795.5 205.5 M 72.5 151.5 L 795.5 151.5 M 72.5 96.5 L 795.5 96.5 M 72.5 41.5 L 795.5 41.5" stroke-opacity="1" stroke-linejoin="bevel" stroke-miterlimit="10" stroke-dasharray="" clip-path="url(#hNgDmkWBzGln)"/><path fill="none" stroke="none"/><path fill="none" stroke="rgb(96,131,169)" paint-order="fill" d="M 105.36363983154297 347.2959289550781 L 106.6055908203125 347.4874572753906 L 107.76741027832031 347.4053649902344 L 109.00936126708984 352.8229675292969 L 110.21125030517578 354.9297790527344 L 111.45320129394531 356.9545593261719 L 112.65509033203125 356.2978820800781 L 113.89704132080078 349.40277099609375 L 115.13899230957031 347.4053649902344 L 116.34088134765625 350.52459716796875 L 117.58283233642578 350.71612548828125 L 118.78472137451172 351.3454284667969 L 120.02667236328125 350.6066589355469 L 121.26862335205078 352.905029296875 L 122.39038848876953 352.9597473144531 L 123.63233947753906 351.1539001464844 L 124.834228515625 345.736328125 L 126.07617950439453 341.5773620605469 L 127.27806854248047 339.27899169921875 L 128.52001953125 340.8112487792969 L 129.76197814941406 341.0574951171875 L 130.9638671875 343.875732421875 L 132.205810546875 343.2464294433594 L 133.40769958496094 342.7265625 L 134.649658203125 341.16693115234375 L 135.8916015625 339.0327453613281 L 137.01336669921875 340.6197204589844 L 138.25531005859375 340.127197265625 L 139.4571990966797 343.1643371582031 L 140.69915771484375 342.8086242675781 L 141.9010467529297 344.0946350097656 L 143.1429901123047 345.10699462890625 L 144.38494873046875 345.7089538574219 L 145.5868377685547 345.5174255371094 L 146.8287811279297 344.8333740234375 L 148.03067016601562 344.6692199707031 L 149.2726287841797 344.6692199707031 L 150.5145721435547 345.4353332519531 L 151.63633728027344 346.99493408203125 L 152.8782958984375 345.27117919921875 L 154.08018493652344 343.3284912109375 L 155.32212829589844 342.3161315917969 L 156.52401733398438 340.865966796875 L 157.76597595214844 338.89593505859375 L 159.00791931152344 338.2392578125 L 160.20980834960938 337.39105224609375 L 161.45176696777344 334.3265686035156 L 162.65365600585938 334.3265686035156 L 163.89559936523438 332.3565368652344 L 165.13755798339844 330.1949768066406 L 166.29937744140625 329.3467712402344 L 167.5413360595703 329.2920227050781 L 168.74322509765625 331.4535827636719 L 169.98516845703125 329.8119201660156 L 171.1870574951172 327.43145751953125 L 172.42901611328125 326.583251953125 L 173.67095947265625 326.0907287597656 L 174.8728485107422 323.7923583984375 L 176.11480712890625 322.5063781738281 L 177.3166961669922 323.32720947265625 L 178.5586395263672 321.8770751953125 L 179.80059814453125 320.4542541503906 L 180.92236328125 320.50897216796875 L 182.164306640625 323.4640197753906 L 183.36619567871094 325.54351806640625 L 184.608154296875 327.2125549316406 L 185.81004333496094 324.6679382324219 L 187.05198669433594 324.2027893066406 L 188.2939453125 330.6874694824219 L 189.49583435058594 336.4060363769531 L 190.73777770996094 339.361083984375 L 191.93966674804688 339.85357666015625 L 193.18162536621094 339.0600891113281 L 194.42356872558594 339.7988586425781 L 195.5453338623047 341.7962646484375 L 196.7872772216797 342.9454345703125 L 197.98916625976562 342.6991882324219 L 199.2311248779297 342.06988525390625 L 200.43301391601562 336.5154724121094 L 201.67495727539062 336.3239440917969 L 202.9169158935547 337.856201171875 L 204.11880493164062 334.2718200683594 L 205.36074829101562 334.2444763183594 L 206.56263732910156 335.2842102050781 L 207.80459594726562 335.8040771484375 L 209.04653930664062 336.07769775390625 L 210.16830444335938 336.1050720214844 L 211.41026306152344 340.3734436035156 L 212.61215209960938 339.27899169921875 L 213.85409545898438 338.73175048828125 L 215.0559844970703 337.96563720703125 L 216.29794311523438 338.4307861328125 L 217.53988647460938 335.0653076171875 L 218.7417755126953 334.7096252441406 L 219.98373413085938 335.33892822265625 L 221.1856231689453 336.1597900390625 L 222.4275665283203 336.351318359375 L 223.66952514648438 336.5701904296875 L 224.8313446044922 336.7617492675781 L 226.07330322265625 336.43341064453125 L 227.2751922607422 341.0574951171875 L 228.5171356201172 343.5473937988281 L 229.71902465820312 342.67181396484375 L 230.9609832763672 342.09722900390625 L 232.2029266357422 340.9206848144531 L 233.40481567382812 340.6470642089844 L 234.6467742919922 339.9630432128906 L 235.84866333007812 341.1943054199219 L 237.09060668945312 341.13958740234375 L 238.3325653076172 342.9454345703125 L 239.45433044433594 342.7812805175781 L 240.69627380371094 343.6294860839844 L 241.89816284179688 344.2040710449219 L 243.14012145996094 343.3011474609375 L 244.34201049804688 341.9330749511719 L 245.58395385742188 342.06988525390625 L 246.82591247558594 341.98779296875 L 248.02780151367188 343.109619140625 L 249.26974487304688 344.3682556152344 L 250.4716339111328 346.03729248046875 L 251.71359252929688 345.5721435546875 L 252.95553588867188 346.3382568359375 L 254.07730102539062 347.624267578125 L 255.31924438476562 348.5545654296875 L 256.5211486816406 348.30828857421875 L 257.7630920410156 347.2138366699219 L 258.9649658203125 346.3656311035156 L 260.2069396972656 346.50244140625 L 261.4488830566406 346.2561950683594 L 262.6507568359375 344.5050354003906 L 263.8927307128906 344.0946350097656 L 265.0946044921875 343.95782470703125 L 266.3365478515625 342.3982238769531 L 267.5785217285156 340.75653076171875 L 268.7002868652344 339.7167663574219 L 269.9422302246094 338.70440673828125 L 271.14410400390625 337.47314453125 L 272.3860778808594 336.8985290527344 L 273.58795166015625 336.2145080566406 L 274.82989501953125 337.883544921875 L 276.0718688964844 337.19952392578125 L 277.27374267578125 337.50048828125 L 278.51568603515625 339.00537109375 L 279.71759033203125 338.594970703125 L 280.95953369140625 337.58258056640625 L 282.20147705078125 337.8014831542969 L 283.3633117675781 336.8985290527344 L 284.6052551269531 337.47314453125 L 285.8071594238281 336.8985290527344 L 287.0491027832031 335.33892822265625 L 288.2510070800781 334.4360046386719 L 289.4929504394531 334.95587158203125 L 290.7348937988281 335.53045654296875 L 291.9367980957031 334.6822509765625 L 293.1787414550781 334.9284973144531 L 294.380615234375 334.1623840332031 L 295.6225891113281 333.09527587890625 L 296.8645324707031 331.864013671875 L 297.9862976074219 331.8913879394531 L 299.2282409667969 330.9337158203125 L 300.4301452636719 329.4562072753906 L 301.6720886230469 328.7174377441406 L 302.87396240234375 329.5656433105469 L 304.1159362792969 329.4288330078125 L 305.3578796386719 326.66534423828125 L 306.55975341796875 324.8594665527344 L 307.8017272949219 323.3819580078125 L 309.00360107421875 322.5884704589844 L 310.24554443359375 320.70050048828125 L 311.4875183105469 320.563720703125 L 312.6092529296875 322.0412292480469 L 313.8512268066406 318.9493713378906 L 315.0531005859375 318.8399353027344 L 316.2950439453125 319.16827392578125 L 317.4969482421875 320.6184387207031 L 318.7388916015625 321.5760803222656 L 319.9808349609375 328.7174377441406 L 321.1827392578125 329.6477355957031 L 322.4246826171875 329.8119201660156 L 323.6265869140625 328.6080017089844 L 324.8685302734375 328.38909912109375 L 326.1104736328125 326.7747802734375 L 327.23223876953125 328.5259094238281 L 328.47418212890625 330.05816650390625 L 329.67608642578125 330.7695617675781 L 330.91802978515625 329.4014892578125 L 332.11993408203125 326.85687255859375 L 333.36187744140625 327.705078125 L 334.60382080078125 328.7995300292969 L 335.80572509765625 327.732421875 L 337.04766845703125 328.2249450683594 L 338.2495422363281 328.8816223144531 L 339.49151611328125 329.4288330078125 L 340.73345947265625 331.4262390136719 L 341.8952941894531 330.8789978027344 L 343.1372375488281 327.8692321777344 L 344.339111328125 325.8171081542969 L 345.5810852050781 323.98388671875 L 346.782958984375 325.078369140625 L 348.02490234375 326.3917236328125 L 349.2668762207031 326.88421630859375 L 350.46875 325.7076721191406 L 351.710693359375 328.17022705078125 L 352.91259765625 328.4438171386719 L 354.154541015625 327.9786682128906 L 355.396484375 329.593017578125 L 356.51824951171875 329.2099609375 L 357.7602233886719 329.2646789550781 L 358.96209716796875 329.5656433105469 L 360.20404052734375 331.78192138671875 L 361.40594482421875 329.620361328125 L 362.64788818359375 328.17022705078125 L 363.88983154296875 327.62298583984375 L 365.09173583984375 326.5285339355469 L 366.33367919921875 325.92657470703125 L 367.53558349609375 324.7500305175781 L 368.77752685546875 323.8197326660156 L 370.01947021484375 322.91680908203125 L 371.1412353515625 322.53375244140625 L 372.3831787109375 321.1930236816406 L 373.5850830078125 319.55133056640625 L 374.8270263671875 318.7304992675781 L 376.0289001464844 322.45166015625 L 377.2708740234375 319.5787048339844 L 378.5128173828125 317.8002014160156 L 379.7146911621094 315.6386413574219 L 380.9566650390625 315.7480773925781 L 382.1585388183594 315.96697998046875 L 383.4004821777344 311.9721984863281 L 384.6424560546875 309.8106384277344 L 385.76422119140625 310.822998046875 L 387.00616455078125 310.0295104980469 L 388.2080383300781 310.0021667480469 L 389.45001220703125 311.0419006347656 L 390.6518859863281 310.0021667480469 L 391.8938293457031 307.3754577636719 L 393.13580322265625 305.7611083984375 L 394.3376770019531 306.0894470214844 L 395.5796203613281 307.8679504394531 L 396.7815246582031 305.95263671875 L 398.0234680175781 303.8184509277344 L 399.2654113769531 305.0223693847656 L 400.42724609375 304.8581848144531 L 401.669189453125 305.0497131347656 L 402.87109375 305.07708740234375 L 404.113037109375 303.298583984375 L 405.31494140625 301.3832702636719 L 406.556884765625 301.1096496582031 L 407.798828125 302.2041320800781 L 409.000732421875 303.6269226074219 L 410.24267578125 301.52008056640625 L 411.4445495605469 298.7565612792969 L 412.6865234375 298.3735046386719 L 413.928466796875 299.24908447265625 L 415.05023193359375 298.89337158203125 L 416.29217529296875 302.3956604003906 L 417.49407958984375 302.0399475097656 L 418.73602294921875 304.4751281738281 L 419.9378967285156 303.5448303222656 L 421.17987060546875 303.2712097167969 L 422.42181396484375 306.3357238769531 L 423.6236877441406 304.42041015625 L 424.86566162109375 302.9702453613281 L 426.0675354003906 302.06732177734375 L 427.3094787597656 300.3435363769531 L 428.55145263671875 298.811279296875 L 429.6731872558594 297.306396484375 L 430.9151611328125 294.4060974121094 L 432.1170349121094 291.39630126953125 L 433.3589782714844 290.7669982910156 L 434.5608825683594 287.5657043457031 L 435.8028259277344 285.92401123046875 L 437.0447692871094 283.9539794921875 L 438.2466735839844 281.9565734863281 L 439.4886169433594 278.509033203125 L 440.6905212402344 274.3227233886719 L 441.9324645996094 272.59893798828125 L 443.1744079589844 269.3429260253906 L 444.2961730957031 270.13641357421875 L 445.5381164550781 266.6888427734375 L 446.7400207519531 267.12664794921875 L 447.9819641113281 261.1618347167969 L 449.1838684082031 253.19961547851562 L 450.4258117675781 253.9110107421875 L 451.6677551269531 248.68496704101562 L 452.8696594238281 254.78659057617188 L 454.1116027832031 247.0159149169922 L 455.3134765625 245.86672973632812 L 456.5554504394531 249.204833984375 L 457.7973937988281 248.43870544433594 L 458.959228515625 240.0660858154297 L 460.201171875 238.53382873535156 L 461.4030456542969 242.66542053222656 L 462.64501953125 243.40419006347656 L 463.8468933105469 236.53643798828125 L 465.0888366699219 237.32992553710938 L 466.330810546875 241.84457397460938 L 467.5326843261719 243.48626708984375 L 468.7746276855469 244.79962158203125 L 469.9765319824219 242.9390411376953 L 471.2184753417969 245.7025604248047 L 472.4604187011719 251.06541442871094 L 473.5821838378906 249.53317260742188 L 474.82415771484375 246.74229431152344 L 476.0260314941406 242.0087432861328 L 477.2679748535156 239.90191650390625 L 478.4698791503906 237.27520751953125 L 479.7118225097656 244.5807342529297 L 480.9537658691406 249.66998291015625 L 482.1556701660156 257.1670227050781 L 483.3976135253906 259.6022033691406 L 484.5995178222656 259.6569519042969 L 485.8414611816406 257.495361328125 L 487.0834045410156 257.1123046875 L 488.2051696777344 254.78659057617188 L 489.4471130371094 254.1572723388672 L 490.6490173339844 250.43609619140625 L 491.8909606933594 247.56314086914062 L 493.09283447265625 244.1976776123047 L 494.3348083496094 239.49148559570312 L 495.5767517089844 236.04393005371094 L 496.77862548828125 230.59898376464844 L 498.0205993652344 226.3579559326172 L 499.22247314453125 223.64915466308594 L 500.46441650390625 217.82115173339844 L 501.7063903808594 220.14688110351562 L 502.8281555175781 216.3436279296875 L 504.0700988769531 213.7716522216797 L 505.27197265625 211.41854858398438 L 506.5139465332031 212.78663635253906 L 507.7158203125 206.54820251464844 L 508.957763671875 207.47850036621094 L 510.1997375488281 213.908447265625 L 511.401611328125 214.04525756835938 L 512.6435546875 213.41595458984375 L 513.845458984375 208.40878295898438 L 515.08740234375 211.22702026367188 L 516.329345703125 217.3833770751953 L 517.4912109375 219.4628448486328 L 518.733154296875 217.52017211914062 L 519.9349975585938 218.91561889648438 L 521.177001953125 213.3338623046875 L 522.3788452148438 217.21920776367188 L 523.6207885742188 215.38597106933594 L 524.86279296875 220.03744506835938 L 526.0646362304688 222.9924774169922 L 527.3065795898438 218.23158264160156 L 528.5084838867188 214.59249877929688 L 529.7504272460938 206.60292053222656 L 530.9923706054688 199.89935302734375 L 532.1141357421875 194.56385803222656 L 533.3561401367188 189.88502502441406 L 534.5579833984375 188.0518035888672 L 535.7999267578125 190.45962524414062 L 537.0018310546875 190.95213317871094 L 538.2437744140625 184.5221710205078 L 539.4857177734375 185.9723358154297 L 540.6876220703125 183.94757080078125 L 541.9295654296875 175.5202178955078 L 543.1314697265625 173.71437072753906 L 544.3734130859375 181.0198974609375 L 545.6153564453125 177.87332153320312 L 546.7371215820312 177.68179321289062 L 547.9790649414062 183.81077575683594 L 549.1809692382812 197.65570068359375 L 550.4229125976562 217.79379272460938 L 551.6248168945312 214.12734985351562 L 552.8667602539062 209.8863067626953 L 554.1087036132812 211.30911254882812 L 555.3106079101562 216.31626892089844 L 556.5525512695312 205.72735595703125 L 557.7544555664062 198.6133575439453 L 558.9963989257812 191.9918670654297 L 560.2383422851562 189.63877868652344 L 561.360107421875 190.32281494140625 L 562.60205078125 181.86810302734375 L 563.803955078125 178.0922088623047 L 565.0458984375 178.17430114746094 L 566.247802734375 181.0198974609375 L 567.48974609375 175.79383850097656 L 568.731689453125 170.67723083496094 L 569.93359375 170.18472290039062 L 571.175537109375 171.30654907226562 L 572.37744140625 167.0655059814453 L 573.619384765625 160.82708740234375 L 574.861328125 158.25509643554688 L 576.0231323242188 154.39712524414062 L 577.2650756835938 151.2779083251953 L 578.4669799804688 149.14370727539062 L 579.7089233398438 150.45706176757812 L 580.9108276367188 142.30332946777344 L 582.1527709960938 145.6414337158203 L 583.3947143554688 141.78346252441406 L 584.5966186523438 137.84339904785156 L 585.8385620117188 136.22906494140625 L 587.0404663085938 140.278564453125 L 588.2824096679688 134.3684844970703 L 589.5243530273438 132.6446990966797 L 590.6461181640625 132.42581176757812 L 591.8880615234375 129.3065948486328 L 593.0899658203125 125.72223663330078 L 594.3319091796875 137.3235321044922 L 595.5338134765625 137.67922973632812 L 596.7757568359375 133.35610961914062 L 598.0177001953125 125.44862365722656 L 599.2196044921875 119.9489517211914 L 600.4615478515625 117.86947631835938 L 601.6634521484375 119.01866149902344 L 602.9053955078125 114.66817474365234 L 604.1473388671875 116.39195251464844 L 605.2691040039062 126.81669616699219 L 606.5110473632812 119.37435913085938 L 607.7129516601562 132.5626220703125 L 608.9548950195312 134.53265380859375 L 610.1567993164062 135.1345977783203 L 611.3987426757812 149.33523559570312 L 612.6406860351562 157.1059112548828 L 613.8425903320312 158.96649169921875 L 615.0845336914062 148.4049530029297 L 616.2864379882812 147.4746551513672 L 617.5283813476562 138.93785095214844 L 618.7703247070312 130.97564697265625 L 619.89208984375 125.33917236328125 L 621.134033203125 121.12549591064453 L 622.3359375 116.66556549072266 L 623.577880859375 119.83950805664062 L 624.77978515625 115.51638793945312 L 626.021728515625 111.46688079833984 L 627.263671875 107.85515594482422 L 628.465576171875 108.26557922363281 L 629.70751953125 116.47403717041016 L 630.9093627929688 109.25059509277344 L 632.1513671875 109.96199035644531 L 633.393310546875 121.70008850097656 L 634.5551147460938 126.24210357666016 L 635.7970581054688 108.23822021484375 L 636.9989624023438 102.21868133544922 L 638.2409057617188 95.02259826660156 L 639.4428100585938 95.56982421875 L 640.6847534179688 101.56200408935547 L 641.9266967773438 92.83367156982422 L 643.1286010742188 85.99329376220703 L 644.3705444335938 81.61544799804688 L 645.5724487304688 78.60567474365234 L 646.8143920898438 90.91836547851562 L 648.0563354492188 92.28644561767578 L 649.1781005859375 98.30598449707031 L 650.4200439453125 92.83367156982422 L 651.6219482421875 83.80436706542969 L 652.8638916015625 98.74376678466797 L 654.0657958984375 110.86492156982422 L 655.3077392578125 112.3150863647461 L 656.5496826171875 111.41215515136719 L 657.7515869140625 108.64864349365234 L 658.9935302734375 106.76069641113281 L 660.1954345703125 120.71507263183594 L 661.4373779296875 122.90399932861328 L 662.6793212890625 131.52288818359375 L 663.8010864257812 127.44601440429688 L 665.0430297851562 134.83363342285156 L 666.2449340820312 161.89418029785156 L 667.4868774414062 163.18017578125 L 668.688720703125 162.82447814941406 L 669.9307250976562 156.804931640625 L 671.1726684570312 144.05445861816406 L 672.37451171875 139.15675354003906 L 673.6165161132812 139.4029998779297 L 674.818359375 123.61540222167969 L 676.060302734375 114.20303344726562 L 677.3023071289062 104.29815673828125 L 678.424072265625 97.48513793945312 L 679.666015625 88.18221282958984 L 680.8678588867188 92.01282501220703 L 682.10986328125 97.15679931640625 L 683.3117065429688 99.12682342529297 L 684.5536499023438 103.94245910644531 L 685.795654296875 98.03236389160156 L 686.9974975585938 103.80564880371094 L 688.2394409179688 116.14569854736328 L 689.4413452148438 98.66168212890625 L 690.6832885742188 87.36136627197266 L 691.9252319335938 82.16267395019531 L 693.0870971679688 75.32229614257812 L 694.3290405273438 72.3125228881836 L 695.5309448242188 75.32229614257812 L 696.7728881835938 74.50144958496094 L 697.9747924804688 76.69036865234375 L 699.2167358398438 66.2929916381836 L 700.4586791992188 70.67082977294922 L 701.6605834960938 70.12360382080078 L 702.9025268554688 55.07476043701172 L 704.1043701171875 48.507991790771484 L 705.3463745117188 46.04545593261719 L 706.5883178710938 57.537296295166016 L 707.7100830078125 62.46237564086914 L 708.9520263671875 68.20829772949219 L 710.1539306640625 76.69036865234375 L 711.3958740234375 83.25714111328125 L 712.5977172851562 80.52098846435547 L 713.8397216796875 85.99329376220703 L 715.0816650390625 81.0682144165039 L 716.2835083007812 69.57637023925781 L 717.5255126953125 90.91836547851562 L 718.7273559570312 110.67339324951172 L 719.9692993164062 107.03430938720703 L 721.2113037109375 114.3124771118164 L 722.3330078125 103.39522552490234 L 723.5750122070312 117.02127075195312 L 724.77685546875 124.65513610839844 L 726.018798828125 124.32679748535156 L 727.220703125 153.00167846679688 L 728.462646484375 161.9762725830078 L 729.70458984375 183.61923217773438 L 730.906494140625 180.0075225830078 L 732.1484375 173.71437072753906 L 733.350341796875 186.49220275878906 L 734.59228515625 171.47071838378906 L 735.834228515625 150.84011840820312 L 736.9559936523438 140.7710723876953 L 738.1979370117188 138.1990966796875 L 739.3998413085938 123.47859191894531 L 740.6417846679688 117.18544006347656 L 741.8436889648438 116.9391860961914 L 743.0856323242188 135.4903106689453 L 744.3275756835938 138.33590698242188 L 745.5294799804688 127.66490173339844 L 746.7714233398438 123.56067657470703 L 747.9733276367188 127.3092041015625 L 749.2152709960938 104.98219299316406 L 750.4572143554688 94.74898529052734 L 751.6190795898438 93.38090515136719 L 752.8610229492188 91.19198608398438 L 754.0628662109375 93.10729217529297 L 755.3048706054688 91.4655990600586 L 756.5067138671875 84.8988265991211 L 757.7486572265625 87.36136627197266 L 758.9906616210938 81.34182739257812 L 760.1925048828125 91.19198608398438 L 761.4344482421875 93.10729217529297 L 762.6363525390625 83.53075408935547" stroke-opacity="1" stroke-linejoin="bevel" stroke-miterlimit="10" stroke-width="2" stroke-dasharray="" clip-path="url(#TAfwaqPtFcxw)"/><path fill="none" stroke="none"/><path fill="rgb(235,87,87)" stroke="rgb(235,87,87)" paint-order="fill" d="M 116.45320129394531 356.9545593261719 A 5 5 0 1 1 116.45319879394552 356.9495593270052" fill-opacity="0.75" clip-path="url(#KRUoKMiMyrJo)" stroke-opacity="0.75" stroke-linejoin="bevel" stroke-miterlimit="10" stroke-width="2" stroke-dasharray=""/><path fill="rgb(235,87,87)" stroke="rgb(235,87,87)" paint-order="fill" d="M 457.8696594238281 254.78659057617188 A 5 5 0 1 1 457.86965692382836 254.7815905770052" fill-opacity="0.75" clip-path="url(#KRUoKMiMyrJo)" stroke-opacity="0.75" stroke-linejoin="bevel" stroke-miterlimit="10" stroke-width="2" stroke-dasharray=""/><path fill="rgb(235,87,87)" stroke="rgb(235,87,87)" paint-order="fill" d="M 489.5995178222656 259.6569519042969 A 5 5 0 1 1 489.59951532226586 259.6519519051302" fill-opacity="0.75" clip-path="url(#KRUoKMiMyrJo)" stroke-opacity="0.75" stroke-linejoin="bevel" stroke-miterlimit="10" stroke-width="2" stroke-dasharray=""/><path fill="rgb(235,87,87)" stroke="rgb(235,87,87)" paint-order="fill" d="M 531.0646362304688 222.9924774169922 A 5 5 0 1 1 531.0646337304689 222.98747741782552" fill-opacity="0.75" clip-path="url(#KRUoKMiMyrJo)" stroke-opacity="0.75" stroke-linejoin="bevel" stroke-miterlimit="10" stroke-width="2" stroke-dasharray=""/><path fill="rgb(235,87,87)" stroke="rgb(235,87,87)" paint-order="fill" d="M 555.4229125976562 217.79379272460938 A 5 5 0 1 1 555.4229100976564 217.7887927254427" fill-opacity="0.75" clip-path="url(#KRUoKMiMyrJo)" stroke-opacity="0.75" stroke-linejoin="bevel" stroke-miterlimit="10" stroke-width="2" stroke-dasharray=""/><path fill="rgb(235,87,87)" stroke="rgb(235,87,87)" paint-order="fill" d="M 618.8425903320312 158.96649169921875 A 5 5 0 1 1 618.8425878320314 158.96149170005208" fill-opacity="0.75" clip-path="url(#KRUoKMiMyrJo)" stroke-opacity="0.75" stroke-linejoin="bevel" stroke-miterlimit="10" stroke-width="2" stroke-dasharray=""/><path fill="rgb(235,87,87)" stroke="rgb(235,87,87)" paint-order="fill" d="M 639.5551147460938 126.24210357666016 A 5 5 0 1 1 639.5551122460939 126.23710357749349" fill-opacity="0.75" clip-path="url(#KRUoKMiMyrJo)" stroke-opacity="0.75" stroke-linejoin="bevel" stroke-miterlimit="10" stroke-width="2" stroke-dasharray=""/><path fill="rgb(235,87,87)" stroke="rgb(235,87,87)" paint-order="fill" d="M 672.4868774414062 163.18017578125 A 5 5 0 1 1 672.4868749414064 163.17517578208333" fill-opacity="0.75" clip-path="url(#KRUoKMiMyrJo)" stroke-opacity="0.75" stroke-linejoin="bevel" stroke-miterlimit="10" stroke-width="2" stroke-dasharray=""/><path fill="rgb(235,87,87)" stroke="rgb(235,87,87)" paint-order="fill" d="M 738.350341796875 186.49220275878906 A 5 5 0 1 1 738.3503392968752 186.4872027596224" fill-opacity="0.75" clip-path="url(#KRUoKMiMyrJo)" stroke-opacity="0.75" stroke-linejoin="bevel" stroke-miterlimit="10" stroke-width="2" stroke-dasharray=""/><path fill="none" stroke="rgb(47,34,53)" paint-order="fill" d="M 76.5 376.5 L 76.5 372.5 M 222.5 376.5 L 222.5 372.5 M 368.5 376.5 L 368.5 372.5 M 515.5 376.5 L 515.5 372.5 M 661.5 376.5 L 661.5 372.5" stroke-opacity="1" stroke-linejoin="bevel" stroke-miterlimit="10" stroke-dasharray=""/><path fill="none" stroke="rgb(0,0,0)" paint-order="fill" d="" stroke-opacity="1" stroke-linejoin="bevel" stroke-miterlimit="10" stroke-dasharray=""/><text fill="rgb(47,34,53)" stroke="none" font-family="helvetica" font-size="16px" font-style="normal" font-weight="normal" text-decoration="normal" x="0" y="0" text-anchor="middle" dominant-baseline="hanging" transform="matrix(1, 0, 0, 1, 76.5, 381.5)" fill-opacity="1">1930</text><text fill="rgb(47,34,53)" stroke="none" font-family="helvetica" font-size="16px" font-style="normal" font-weight="normal" text-decoration="normal" x="0" y="0" text-anchor="middle" dominant-baseline="hanging" transform="matrix(1, 0, 0, 1, 222.5, 381.5)" fill-opacity="1">1940</text><text fill="rgb(47,34,53)" stroke="none" font-family="helvetica" font-size="16px" font-style="normal" font-weight="normal" text-decoration="normal" x="0" y="0" text-anchor="middle" dominant-baseline="hanging" transform="matrix(1, 0, 0, 1, 368.5, 381.5)" fill-opacity="1">1950</text><text fill="rgb(47,34,53)" stroke="none" font-family="helvetica" font-size="16px" font-style="normal" font-weight="normal" text-decoration="normal" x="0" y="0" text-anchor="middle" dominant-baseline="hanging" transform="matrix(1, 0, 0, 1, 515.5, 381.5)" fill-opacity="1">1960</text><text fill="rgb(47,34,53)" stroke="none" font-family="helvetica" font-size="16px" font-style="normal" font-weight="normal" text-decoration="normal" x="0" y="0" text-anchor="middle" dominant-baseline="hanging" transform="matrix(1, 0, 0, 1, 661.5, 381.5)" fill-opacity="1">1970</text><path fill="none" stroke="rgb(47,34,53)" paint-order="fill" d="M 68.5 370.5 L 72.5 370.5 M 68.5 315.5 L 72.5 315.5 M 68.5 260.5 L 72.5 260.5 M 68.5 205.5 L 72.5 205.5 M 68.5 151.5 L 72.5 151.5 M 68.5 96.5 L 72.5 96.5 M 68.5 41.5 L 72.5 41.5" stroke-opacity="1" stroke-linejoin="bevel" stroke-miterlimit="10" stroke-dasharray=""/><text fill="rgb(47,34,53)" stroke="none" font-family="helvetica" font-size="16px" font-style="normal" font-weight="normal" text-decoration="normal" x="0" y="0" text-anchor="end" dominant-baseline="central" transform="matrix(1, 0, 0, 1, 63.5, 370.5)" fill-opacity="1">$0</text><text fill="rgb(47,34,53)" stroke="none" font-family="helvetica" font-size="16px" font-style="normal" font-weight="normal" text-decoration="normal" x="0" y="0" text-anchor="end" dominant-baseline="central" transform="matrix(1, 0, 0, 1, 63.5, 315.5)" fill-opacity="1">$20</text><text fill="rgb(47,34,53)" stroke="none" font-family="helvetica" font-size="16px" font-style="normal" font-weight="normal" text-decoration="normal" x="0" y="0" text-anchor="end" dominant-baseline="central" transform="matrix(1, 0, 0, 1, 63.5, 260.5)" fill-opacity="1">$40</text><text fill="rgb(47,34,53)" stroke="none" font-family="helvetica" font-size="16px" font-style="normal" font-weight="normal" text-decoration="normal" x="0" y="0" text-anchor="end" dominant-baseline="central" transform="matrix(1, 0, 0, 1, 63.5, 205.5)" fill-opacity="1">$60</text><text fill="rgb(47,34,53)" stroke="none" font-family="helvetica" font-size="16px" font-style="normal" font-weight="normal" text-decoration="normal" x="0" y="0" text-anchor="end" dominant-baseline="central" transform="matrix(1, 0, 0, 1, 63.5, 151.5)" fill-opacity="1">$80</text><text fill="rgb(47,34,53)" stroke="none" font-family="helvetica" font-size="16px" font-style="normal" font-weight="normal" text-decoration="normal" x="0" y="0" text-anchor="end" dominant-baseline="central" transform="matrix(1, 0, 0, 1, 63.5, 96.5)" fill-opacity="1">$100</text><text fill="rgb(47,34,53)" stroke="none" font-family="helvetica" font-size="16px" font-style="normal" font-weight="normal" text-decoration="normal" x="0" y="0" text-anchor="end" dominant-baseline="central" transform="matrix(1, 0, 0, 1, 63.5, 41.5)" fill-opacity="1">$120</text><text fill="rgb(47,34,53)" stroke="none" font-family="helvetica" font-size="16px" font-style="italic" font-weight="normal" text-decoration="normal" x="0" y="0" text-anchor="middle" dominant-baseline="alphabetic" transform="matrix(6.123233995736766e-17, -1, 1, 6.123233995736766e-17, 18.5, 201.5)" fill-opacity="1">S&amp;P 500</text></svg>