<svg width="400" height="200" viewBox="0 0 400 200" fill="none" xmlns="http://www.w3.org/2000/svg">
<rect width="400" height="200" fill="#27374B"/>
<path d="M67 112.172L67.8725 102.442L68.7451 96.4839L69.6176 125.579L71.3627 65.558L72.2353 124.124L73.1078 109.957L73.9804 109.378L74.8529 99.0533L75.7255 67.5663L76.598 99.3315L77.4706 116.064L78.3431 97.2207L79.2157 122.301L80.0882 93.983L80.9607 108.264L81.8333 86.5882L82.7059 117.626L83.5784 45.4534L84.451 75.7099L85.3235 69.5871L86.1961 73.3926L87.0686 78.1441L87.9412 75.8758L88.8137 61.1601L89.6863 74.1604L90.5588 59.5563L91.4313 86.0515L92.3039 69.3122L93.1764 72.9407L94.049 111.468L94.9215 86.062L95.7941 117.251L96.6667 96.2058L97.5392 109.662L98.4118 95.9988L99.2843 129.772L100.157 109.371L101.029 76.8807L101.902 108.775L102.774 130.423L103.647 127.076L104.52 137.131L105.392 131.986L107.137 78.6032L108.01 112.021L108.882 100.575L109.755 108.523L110.627 104.629L111.5 103.726L112.373 97.8601L113.245 79.3139L114.118 100.207L114.99 54.1644L115.863 49.5507L116.735 65.1834L117.608 46.3755L118.48 74.8062L119.353 76.8221L120.225 72.0691L122.843 115.743L123.716 122.217L124.588 102.227L125.461 156.643L126.333 116.962L127.206 125.307L128.078 104.02L128.951 101.918L129.824 153.488L130.696 87.9704L131.569 87.3955L132.441 89.215L133.314 96.2902L134.186 73.3558L135.059 97.5481L135.931 60.8176L136.804 86.2308L137.676 60.9847L138.549 113.639L139.422 130.141L140.294 84.0873L141.167 77.2707L142.039 85.8791L142.912 107.125L144.657 57.6788L145.529 68.5573L146.402 66.6748L147.275 69.9284L148.147 88.3451L149.02 88.807L149.892 113.802L150.765 67.6073L151.637 116.887L152.51 108.57L153.382 141.232L154.255 112.687L155.127 160L156 108.154L156.873 119.792L157.745 75.0143L158.618 127.317L159.49 95.2077L160.363 83.3327L161.235 63.0448L162.108 89.2776L162.98 79.595L163.853 120.085L165.598 80.4501L166.471 72.2325L167.343 99.0566L168.216 58.8737L169.088 63.3118L169.961 92.8245L170.833 130.237L171.706 114.142L172.578 91.5406L173.451 53.959L174.324 65.4815L175.196 107.379L176.941 49.0324L177.814 91.1317L178.686 106.493L179.559 66.6367L180.431 111.139L181.304 128.487L182.176 119.659L183.922 136.06L184.794 103.871L185.667 99.4644L186.539 96.3123L187.412 103.931L188.284 72.9483L189.157 86.0405L190.902 56.9355L191.775 59.5538L192.647 43.2916L193.52 69.7453L194.392 111.402L195.265 106.582L196.137 66.3143L197.01 98.6912L197.882 87.2056L198.755 108.383L199.627 73.536L200.5 94.5529L201.373 58.2533L202.245 89.7855L203.118 58.3489L203.99 65.5906L204.863 91.8524L205.735 63.8086L206.608 105.198L207.48 111.552L208.353 92.886L209.225 124.932L210.098 131.508L210.971 132.142L211.843 145.964L212.716 109.097L213.588 112.82L214.461 118.073L215.333 110.072L216.206 90.4874L217.078 57.5754L217.951 64.5955L218.824 82.0587L219.696 55.1041L220.569 69.3552L221.441 71.9339L222.314 39L223.186 84.2504L224.059 91.0428L224.931 122.544L225.804 117.472L226.676 87.902L227.549 109.302L228.422 87.3913L229.294 114.013L230.167 104.916L231.039 76.4071L231.912 60.0874L232.784 74.2555L233.657 64.3309L234.529 58.2209L235.402 74.7055L236.275 115.513L237.147 108.35L238.02 102.495L238.892 126.983L239.765 115.921L240.637 153.313L241.51 138.766L242.382 110.539L243.255 152.264L245 94.2087" stroke="white" stroke-opacity="0.3" stroke-linecap="square"/>
<path d="M67 107.183L67.875 110.037L68.75 110.549L69.625 109.003L70.5 105.962L72.25 98.4641L73.125 95.5828L74 94.1161L74.875 94.382L75.75 96.3845L76.625 99.8109L79.25 111.987L80.125 114.012L81 113.887L81.875 111.289L82.75 106.228L83.625 99.0641L87.125 65.6038L88 60.831L88.875 59L89.75 60.3568L90.625 64.7691L91.5 71.7432L95 107.309L95.875 113.309L96.75 116.796L97.625 117.626L98.5 116.009L99.375 112.464L102 98.1364L102.875 94.7956L103.75 93.1139L104.625 93.2407L105.5 95.0033L107.25 101.36L108.125 104.48L109 106.518L109.875 106.832L110.75 105.025L111.625 101.009L112.5 95.0364L116 65.9861L116.875 61.9838L117.75 60.7913L118.625 62.6922L119.5 67.5991L120.375 75.0587L123.875 112.649L124.75 119.013L125.625 122.675L126.5 123.419L127.375 121.393L128.25 117.084L130 104.739L130.875 98.5087L131.75 93.348L132.625 89.8418L133.5 88.2794L134.375 88.6217L135.25 90.5176L137.875 98.8711L138.75 100.052L139.625 99.467L140.5 96.9168L141.375 92.5274L143.125 80.2696L144 73.9811L144.875 68.7967L145.75 65.5502L146.625 64.8682L147.5 67.0752L148.375 72.1384L149.25 79.6611L152.75 117.228L153.625 123.489L154.5 126.928L155.375 127.269L156.25 124.614L157.125 119.419L158.875 104.558L160.625 90.0407L161.5 84.994L162.375 82.0719L163.25 81.3572L164.125 82.6008L165 85.2711L166.75 91.9169L167.625 94.3389L168.5 95.3247L169.375 94.5489L170.25 91.9989L171.125 87.9818L173.75 73.8443L174.625 71.1819L175.5 70.741L176.375 72.8948L177.25 77.6788L178.125 84.7728L181.625 120.3L182.5 126.075L183.375 129L184.25 128.756L185.125 125.4L186 119.359L187.75 102.364L189.5 85.4061L190.375 79.2279L191.25 75.3746L192.125 74.0336L193 75.0433L193.875 77.9303L196.5 90.3286L197.375 93.1007L198.25 94.2547L199.125 93.6335L200 91.4015L201.75 84.1677L202.625 80.6536L203.5 78.2756L204.375 77.7041L205.25 79.3719L206.125 83.3997L207 89.5638L208.75 105.84L210.5 121.301L211.375 126.338L212.25 128.605L213.125 127.749L214 123.785L214.875 117.101L216.625 98.6577L218.375 80.1708L219.25 73.3437L220.125 69.0293L221 67.5002L221.875 68.6666L222.75 72.1018L224.5 82.8456L225.375 88.4134L226.25 93.0233L227.125 96.0886L228 97.3097L228.875 96.7101L229.75 94.626L232.375 86.0514L233.25 84.9282L234.125 85.6628L235 88.4765L235.875 93.2618L237.625 106.741L239.375 119.928L240.25 124.13L241.125 125.758L242 124.426L242.875 120.101L243.75 113.121L245.5 94.1396L247.25 75.1579L248.125 68.1784L249 63.8532L249.875 62.5208L250.75 64.1496L251.625 68.351L253.375 81.5382L255.125 95.0175L256 99.8028L256.875 102.616L257.75 103.351L258.625 102.228L259.5 99.7529L261.25 93.6532L262.125 91.5691L263 90.9696L263.875 92.1906L264.75 95.256L265.625 99.8658L268.25 116.178L269.125 119.613L270 120.779L270.875 119.25L271.75 114.936L272.625 108.109L274.375 89.6216L276.125 71.1782L277 64.4946L277.875 60.5307L278.75 59.6744L279.625 61.9417L280.5 66.978L281.375 74.1102L284 98.7155L284.875 104.88L285.75 108.907L286.625 110.575L287.5 110.004L288.375 107.626L291 96.8777L291.875 94.6457L292.75 94.0246L293.625 95.1786L294.5 97.9507L298 113.236L298.875 114.246L299.75 112.905L300.625 109.051L301.5 102.873L303.25 85.9148L305 68.9207L305.875 62.8792L306.75 59.5237L307.625 59.2793L308.5 62.2039L309.375 67.9795L311.125 85.2201L312.875 103.506L313.75 110.6L314.625 115.385L315.5 117.538L316.375 117.097L317.25 114.435L318.125 110.196L319.875 100.297L320.75 96.2804L321.625 93.7304L322.5 92.9546L323.375 93.9404L324.25 96.3624L326.875 105.679L327.75 106.922L328.625 106.207L329.5 103.285L330.375 98.2386L332.125 83.7217L333 75.8546" stroke="white" stroke-width="2" stroke-linecap="square"/>
<path d="M246 86.1031L246.879 79.7535L247.758 73.1541L248.636 68.4507L249.515 64.9836L250.394 69.5185L251.273 68.8059L252.152 75.8477L253.03 80.4313L253.909 87.7194L254.788 92.6306L255.667 99.2566L256.545 101.441L257.424 103.398L258.303 99.8824L259.182 101L260.061 98.5774L260.939 95.9407L261.818 92.8202L262.697 90.8393L263.576 94.0146L264.455 94.9545L265.333 98.4997L266.212 102.231L267.091 107.159L267.97 112.632L268.848 116.683L269.727 117L270.606 116.452L271.485 112.618L272.364 107.65L273.242 100.509L274.121 91.8703L275 83.3399L275.879 76.3698L276.758 70.4596L277.636 66.8201L278.515 63L279.394 64.8756L280.273 69.0224L281.152 75.1166L282.03 82.5511L282.909 89.4484L283.788 94.0153L284.667 102.723L285.545 106.36L286.424 109.049L287.303 107.616L288.182 108.322L289.061 104.191L289.939 101.432L290.818 98.263L291.697 96.7127L292.576 95.5113L293.455 95.2009L294.333 96.1941L295.212 98.4773L296.091 103.939L296.97 107.043L297.848 108.86L298.727 111.228L299.606 110.516L300.485 106.528L301.364 103.292L302.242 95.293L303.121 89.3742L304 80.0812L304.879 73.4243L305.758 68.1074L306.636 65.0305L307.515 64.9672L308.394 65.7554L309.273 71.4441L310.152 75.4488L311.03 83.6465L311.909 91.8616L312.788 101.734L313.667 105.009L314.545 111.419L315.424 113.154L316.303 116.304L317.182 114.138L318.061 110.126L318.939 105.217L319.818 102.279L320.697 97.5199L321.576 96.9139L322.455 92.819L323.333 94.3545L324.212 94.409L325.091 96.7418L325.97 100.382L326.849 103.276L327.727 104.31L328.606 106.326L329.485 102.408L330.364 100.31L331.242 92.531L332.121 89.3507L333 80.4025" stroke="#FF7F0E" stroke-width="2" stroke-linecap="square"/>
</svg>
