<svg width="400" height="200" viewBox="0 0 400 200" fill="none" xmlns="http://www.w3.org/2000/svg">
<g clip-path="url(#clip0_527_249)">
<rect width="400" height="200" fill="#E4EFEF"/>
<path d="M198.5 228C232.579 228 265.266 214.46 289.363 190.363C313.46 166.266 327 133.579 327 99.5C327 65.4214 313.46 32.734 289.363 8.63678C265.266 -15.4604 232.579 -29 198.5 -29C164.421 -29 131.734 -15.4604 107.637 8.63678C83.5396 32.734 70 65.4214 70 99.5C70 133.579 83.5396 166.266 107.637 190.363C131.734 214.46 164.421 228 198.5 228Z" stroke="#D4E6E6"/>
<path d="M70.4329 99.5L326.568 99.5" stroke="#D4E6E6" stroke-linecap="square"/>
<path d="M198.5 227.567V-28.5674" stroke="#D4E6E6" stroke-linecap="square"/>
<path d="M221.954 157.103C222.34 157.103 222.711 156.949 222.984 156.676C223.258 156.402 223.411 156.032 223.411 155.645C223.411 155.259 223.258 154.888 222.984 154.615C222.711 154.341 222.34 154.188 221.954 154.188C221.567 154.188 221.197 154.341 220.923 154.615C220.65 154.888 220.496 155.259 220.496 155.645C220.496 156.032 220.65 156.402 220.923 156.676C221.197 156.949 221.567 157.103 221.954 157.103Z" fill="#6686AD" stroke="#6686AD" stroke-width="1.33333"/>
<path d="M197.156 118.256C197.543 118.256 197.913 118.102 198.187 117.829C198.46 117.556 198.614 117.185 198.614 116.798C198.614 116.412 198.46 116.041 198.187 115.768C197.913 115.495 197.543 115.341 197.156 115.341C196.77 115.341 196.399 115.495 196.126 115.768C195.852 116.041 195.699 116.412 195.699 116.798C195.699 117.185 195.852 117.556 196.126 117.829C196.399 118.102 196.77 118.256 197.156 118.256Z" fill="#6686AD" stroke="#6686AD" stroke-width="1.33333"/>
<path d="M227.85 115.212C228.236 115.212 228.607 115.059 228.88 114.786C229.154 114.512 229.307 114.142 229.307 113.755C229.307 113.368 229.154 112.998 228.88 112.724C228.607 112.451 228.236 112.298 227.85 112.298C227.463 112.298 227.093 112.451 226.819 112.724C226.546 112.998 226.392 113.368 226.392 113.755C226.392 114.142 226.546 114.512 226.819 114.786C227.093 115.059 227.463 115.212 227.85 115.212Z" fill="#6686AD" stroke="#6686AD" stroke-width="1.33333"/>
<path d="M262.034 133.16C262.421 133.16 262.791 133.006 263.065 132.733C263.338 132.459 263.492 132.089 263.492 131.702C263.492 131.316 263.338 130.945 263.065 130.672C262.791 130.398 262.421 130.245 262.034 130.245C261.648 130.245 261.277 130.398 261.004 130.672C260.73 130.945 260.577 131.316 260.577 131.702C260.577 132.089 260.73 132.459 261.004 132.733C261.277 133.006 261.648 133.16 262.034 133.16Z" fill="#6686AD" stroke="#6686AD" stroke-width="1.33333"/>
<path d="M193.411 108.127C193.798 108.127 194.169 107.974 194.442 107.7C194.715 107.427 194.869 107.056 194.869 106.67C194.869 106.283 194.715 105.912 194.442 105.639C194.169 105.366 193.798 105.212 193.411 105.212C193.025 105.212 192.654 105.366 192.381 105.639C192.107 105.912 191.954 106.283 191.954 106.67C191.954 107.056 192.107 107.427 192.381 107.7C192.654 107.974 193.025 108.127 193.411 108.127Z" fill="#6686AD" stroke="#6686AD" stroke-width="1.33333"/>
<path d="M193.412 86.0492C193.798 86.0492 194.169 85.8956 194.442 85.6223C194.716 85.349 194.869 84.9783 194.869 84.5918C194.869 84.2052 194.716 83.8345 194.442 83.5612C194.169 83.2879 193.798 83.1343 193.412 83.1343C193.025 83.1343 192.655 83.2879 192.381 83.5612C192.108 83.8345 191.954 84.2052 191.954 84.5918C191.954 84.9783 192.108 85.349 192.381 85.6223C192.655 85.8956 193.025 86.0492 193.412 86.0492Z" fill="#6686AD" stroke="#6686AD" stroke-width="1.33333"/>
<path d="M264.228 28.1678C264.615 28.1678 264.986 28.0142 265.259 27.7409C265.532 27.4676 265.686 27.0969 265.686 26.7103C265.686 26.3238 265.532 25.9531 265.259 25.6798C264.986 25.4065 264.615 25.2529 264.228 25.2529C263.842 25.2529 263.471 25.4065 263.198 25.6798C262.925 25.9531 262.771 26.3238 262.771 26.7103C262.771 27.0969 262.925 27.4676 263.198 27.7409C263.471 28.0142 263.842 28.1678 264.228 28.1678Z" fill="#6686AD" stroke="#6686AD" stroke-width="1.33333"/>
<path d="M232.526 95.0108C232.913 95.0108 233.283 94.8572 233.557 94.5839C233.83 94.3106 233.983 93.9398 233.983 93.5533C233.983 93.1668 233.83 92.7961 233.557 92.5228C233.283 92.2495 232.913 92.0959 232.526 92.0959C232.14 92.0959 231.769 92.2495 231.495 92.5228C231.222 92.7961 231.069 93.1668 231.069 93.5533C231.069 93.9398 231.222 94.3106 231.495 94.5839C231.769 94.8572 232.14 95.0108 232.526 95.0108Z" fill="#6686AD" stroke="#6686AD" stroke-width="1.33333"/>
<path d="M184.221 91.7705C184.608 91.7705 184.979 91.6169 185.252 91.3436C185.525 91.0703 185.679 90.6996 185.679 90.313C185.679 89.9265 185.525 89.5558 185.252 89.2825C184.979 89.0092 184.608 88.8556 184.221 88.8556C183.835 88.8556 183.464 89.0092 183.191 89.2825C182.917 89.5558 182.764 89.9265 182.764 90.313C182.764 90.6996 182.917 91.0703 183.191 91.3436C183.464 91.6169 183.835 91.7705 184.221 91.7705Z" fill="#6686AD" stroke="#6686AD" stroke-width="1.33333"/>
<path d="M223.744 104.736C224.131 104.736 224.501 104.582 224.775 104.309C225.048 104.036 225.202 103.665 225.202 103.278C225.202 102.892 225.048 102.521 224.775 102.248C224.501 101.974 224.131 101.821 223.744 101.821C223.358 101.821 222.987 101.974 222.713 102.248C222.44 102.521 222.287 102.892 222.287 103.278C222.287 103.665 222.44 104.036 222.713 104.309C222.987 104.582 223.358 104.736 223.744 104.736Z" fill="#6686AD" stroke="#6686AD" stroke-width="1.33333"/>
<path d="M184.458 176.762C184.844 176.762 185.215 176.608 185.488 176.335C185.762 176.062 185.915 175.691 185.915 175.304C185.915 174.918 185.762 174.547 185.488 174.274C185.215 174 184.844 173.847 184.458 173.847C184.071 173.847 183.701 174 183.427 174.274C183.154 174.547 183 174.918 183 175.304C183 175.691 183.154 176.062 183.427 176.335C183.701 176.608 184.071 176.762 184.458 176.762Z" fill="#6686AD" stroke="#6686AD" stroke-width="1.33333"/>
<path d="M184.368 102.864C184.754 102.864 185.125 102.71 185.398 102.437C185.671 102.164 185.825 101.793 185.825 101.407C185.825 101.02 185.671 100.649 185.398 100.376C185.125 100.103 184.754 99.9491 184.368 99.9491C183.981 99.9491 183.61 100.103 183.337 100.376C183.064 100.649 182.91 101.02 182.91 101.407C182.91 101.793 183.064 102.164 183.337 102.437C183.61 102.71 183.981 102.864 184.368 102.864Z" fill="#6686AD" stroke="#6686AD" stroke-width="1.33333"/>
<path d="M212.005 99.4763C212.391 99.4763 212.762 99.3228 213.035 99.0495C213.309 98.7762 213.462 98.4054 213.462 98.0189C213.462 97.6324 213.309 97.2616 213.035 96.9883C212.762 96.715 212.391 96.5615 212.005 96.5615C211.618 96.5615 211.248 96.715 210.974 96.9883C210.701 97.2616 210.547 97.6324 210.547 98.0189C210.547 98.4054 210.701 98.7762 210.974 99.0495C211.248 99.3228 211.618 99.4763 212.005 99.4763Z" fill="#6686AD" stroke="#6686AD" stroke-width="1.33333"/>
<path d="M127.837 5.63217C128.223 5.63217 128.594 5.47861 128.867 5.2053C129.141 4.93199 129.294 4.56125 129.294 4.17473C129.294 3.78821 129.141 3.41747 128.867 3.14416C128.594 2.87085 128.223 2.71729 127.837 2.71729C127.45 2.71729 127.08 2.87085 126.806 3.14416C126.533 3.41747 126.379 3.78821 126.379 4.17473C126.379 4.56125 126.533 4.93199 126.806 5.2053C127.08 5.47861 127.45 5.63217 127.837 5.63217Z" fill="#6686AD" stroke="#6686AD" stroke-width="1.33333"/>
<path d="M135.193 109.341C135.579 109.341 135.95 109.187 136.223 108.914C136.497 108.641 136.65 108.27 136.65 107.883C136.65 107.497 136.497 107.126 136.223 106.853C135.95 106.579 135.579 106.426 135.193 106.426C134.806 106.426 134.436 106.579 134.162 106.853C133.889 107.126 133.735 107.497 133.735 107.883C133.735 108.27 133.889 108.641 134.162 108.914C134.436 109.187 134.806 109.341 135.193 109.341Z" fill="#6686AD" stroke="#6686AD" stroke-width="1.33333"/>
<path d="M180.597 90.0522C180.983 90.0522 181.354 89.8987 181.627 89.6253C181.9 89.352 182.054 88.9813 182.054 88.5948C182.054 88.2083 181.9 87.8375 181.627 87.5642C181.354 87.2909 180.983 87.1373 180.597 87.1373C180.21 87.1373 179.839 87.2909 179.566 87.5642C179.293 87.8375 179.139 88.2083 179.139 88.5948C179.139 88.9813 179.293 89.352 179.566 89.6253C179.839 89.8987 180.21 90.0522 180.597 90.0522Z" fill="#6686AD" stroke="#6686AD" stroke-width="1.33333"/>
<path d="M163.002 103.184C163.388 103.184 163.759 103.031 164.032 102.757C164.306 102.484 164.459 102.113 164.459 101.727C164.459 101.34 164.306 100.969 164.032 100.696C163.759 100.423 163.388 100.269 163.002 100.269C162.615 100.269 162.245 100.423 161.971 100.696C161.698 100.969 161.544 101.34 161.544 101.727C161.544 102.113 161.698 102.484 161.971 102.757C162.245 103.031 162.615 103.184 163.002 103.184Z" fill="#6686AD" stroke="#6686AD" stroke-width="1.33333"/>
<path d="M214.828 147.469C215.214 147.469 215.585 147.315 215.858 147.042C216.131 146.768 216.285 146.398 216.285 146.011C216.285 145.625 216.131 145.254 215.858 144.981C215.585 144.707 215.214 144.554 214.828 144.554C214.441 144.554 214.07 144.707 213.797 144.981C213.524 145.254 213.37 145.625 213.37 146.011C213.37 146.398 213.524 146.768 213.797 147.042C214.07 147.315 214.441 147.469 214.828 147.469Z" fill="#6686AD" stroke="#6686AD" stroke-width="1.33333"/>
<path d="M167.095 57.1982C167.481 57.1982 167.852 57.0446 168.125 56.7713C168.399 56.498 168.552 56.1273 168.552 55.7407C168.552 55.3542 168.399 54.9835 168.125 54.7102C167.852 54.4369 167.481 54.2833 167.095 54.2833C166.708 54.2833 166.337 54.4369 166.064 54.7102C165.791 54.9835 165.637 55.3542 165.637 55.7407C165.637 56.1273 165.791 56.498 166.064 56.7713C166.337 57.0446 166.708 57.1982 167.095 57.1982Z" fill="#6686AD" stroke="#6686AD" stroke-width="1.33333"/>
<path d="M147.401 72.4635C147.788 72.4635 148.159 72.3099 148.432 72.0366C148.705 71.7633 148.859 71.3925 148.859 71.006C148.859 70.6195 148.705 70.2488 148.432 69.9755C148.159 69.7021 147.788 69.5486 147.401 69.5486C147.015 69.5486 146.644 69.7021 146.371 69.9755C146.097 70.2488 145.944 70.6195 145.944 71.006C145.944 71.3925 146.097 71.7633 146.371 72.0366C146.644 72.3099 147.015 72.4635 147.401 72.4635Z" fill="#6686AD" stroke="#6686AD" stroke-width="1.33333"/>
<path d="M259.793 70.9365C260.18 70.9365 260.551 70.783 260.824 70.5096C261.097 70.2363 261.251 69.8656 261.251 69.4791C261.251 69.0926 261.097 68.7218 260.824 68.4485C260.551 68.1752 260.18 68.0216 259.793 68.0216C259.407 68.0216 259.036 68.1752 258.763 68.4485C258.49 68.7218 258.336 69.0926 258.336 69.4791C258.336 69.8656 258.49 70.2363 258.763 70.5096C259.036 70.783 259.407 70.9365 259.793 70.9365Z" fill="#6686AD" stroke="#6686AD" stroke-width="1.33333"/>
<path d="M193.738 137.343C194.125 137.343 194.496 137.189 194.769 136.916C195.042 136.642 195.196 136.272 195.196 135.885C195.196 135.499 195.042 135.128 194.769 134.855C194.496 134.581 194.125 134.428 193.738 134.428C193.352 134.428 192.981 134.581 192.708 134.855C192.435 135.128 192.281 135.499 192.281 135.885C192.281 136.272 192.435 136.642 192.708 136.916C192.981 137.189 193.352 137.343 193.738 137.343Z" fill="#6686AD" stroke="#6686AD" stroke-width="1.33333"/>
<path d="M205.193 47.0455C205.579 47.0455 205.95 46.892 206.223 46.6187C206.497 46.3453 206.65 45.9746 206.65 45.5881C206.65 45.2016 206.497 44.8308 206.223 44.5575C205.95 44.2842 205.579 44.1306 205.193 44.1306C204.806 44.1306 204.436 44.2842 204.162 44.5575C203.889 44.8308 203.735 45.2016 203.735 45.5881C203.735 45.9746 203.889 46.3453 204.162 46.6187C204.436 46.892 204.806 47.0455 205.193 47.0455Z" fill="#6686AD" stroke="#6686AD" stroke-width="1.33333"/>
<path d="M146.915 156.575C147.302 156.575 147.673 156.421 147.946 156.148C148.219 155.874 148.373 155.504 148.373 155.117C148.373 154.731 148.219 154.36 147.946 154.087C147.673 153.813 147.302 153.66 146.915 153.66C146.529 153.66 146.158 153.813 145.885 154.087C145.612 154.36 145.458 154.731 145.458 155.117C145.458 155.504 145.612 155.874 145.885 156.148C146.158 156.421 146.529 156.575 146.915 156.575Z" fill="#6686AD" stroke="#6686AD" stroke-width="1.33333"/>
<path d="M181.296 78.9101C181.683 78.9101 182.053 78.7566 182.327 78.4833C182.6 78.2099 182.754 77.8392 182.754 77.4527C182.754 77.0662 182.6 76.6954 182.327 76.4221C182.053 76.1488 181.683 75.9952 181.296 75.9952C180.91 75.9952 180.539 76.1488 180.265 76.4221C179.992 76.6954 179.839 77.0662 179.839 77.4527C179.839 77.8392 179.992 78.2099 180.265 78.4833C180.539 78.7566 180.91 78.9101 181.296 78.9101Z" fill="#6686AD" stroke="#6686AD" stroke-width="1.33333"/>
<path d="M206.888 16.2852C207.274 16.2852 207.645 16.1317 207.918 15.8583C208.191 15.585 208.345 15.2143 208.345 14.8278C208.345 14.4413 208.191 14.0705 207.918 13.7972C207.645 13.5239 207.274 13.3703 206.888 13.3703C206.501 13.3703 206.13 13.5239 205.857 13.7972C205.584 14.0705 205.43 14.4413 205.43 14.8278C205.43 15.2143 205.584 15.585 205.857 15.8583C206.13 16.1317 206.501 16.2852 206.888 16.2852Z" fill="#6686AD" stroke="#6686AD" stroke-width="1.33333"/>
<path d="M157.606 140.512C157.993 140.512 158.363 140.358 158.637 140.085C158.91 139.811 159.064 139.441 159.064 139.054C159.064 138.668 158.91 138.297 158.637 138.024C158.363 137.75 157.993 137.597 157.606 137.597C157.22 137.597 156.849 137.75 156.576 138.024C156.302 138.297 156.149 138.668 156.149 139.054C156.149 139.441 156.302 139.811 156.576 140.085C156.849 140.358 157.22 140.512 157.606 140.512Z" fill="#6686AD" stroke="#6686AD" stroke-width="1.33333"/>
<path d="M217.227 123.944C217.614 123.944 217.985 123.79 218.258 123.517C218.531 123.244 218.685 122.873 218.685 122.486C218.685 122.1 218.531 121.729 218.258 121.456C217.985 121.183 217.614 121.029 217.227 121.029C216.841 121.029 216.47 121.183 216.197 121.456C215.924 121.729 215.77 122.1 215.77 122.486C215.77 122.873 215.924 123.244 216.197 123.517C216.47 123.79 216.841 123.944 217.227 123.944Z" fill="#6686AD" stroke="#6686AD" stroke-width="1.33333"/>
<path d="M179.099 97.9369C179.486 97.9369 179.856 97.7833 180.13 97.51C180.403 97.2367 180.556 96.8659 180.556 96.4794C180.556 96.0929 180.403 95.7222 180.13 95.4488C179.856 95.1755 179.486 95.022 179.099 95.022C178.713 95.022 178.342 95.1755 178.068 95.4488C177.795 95.7222 177.642 96.0929 177.642 96.4794C177.642 96.8659 177.795 97.2367 178.068 97.51C178.342 97.7833 178.713 97.9369 179.099 97.9369Z" fill="#6686AD" stroke="#6686AD" stroke-width="1.33333"/>
<path d="M191.164 121.491C191.551 121.491 191.921 121.337 192.195 121.064C192.468 120.79 192.622 120.42 192.622 120.033C192.622 119.647 192.468 119.276 192.195 119.003C191.921 118.729 191.551 118.576 191.164 118.576C190.778 118.576 190.407 118.729 190.134 119.003C189.86 119.276 189.707 119.647 189.707 120.033C189.707 120.42 189.86 120.79 190.134 121.064C190.407 121.337 190.778 121.491 191.164 121.491Z" fill="#6686AD" stroke="#6686AD" stroke-width="1.33333"/>
<path d="M179.057 162.386C179.444 162.386 179.815 162.233 180.088 161.959C180.361 161.686 180.515 161.315 180.515 160.929C180.515 160.542 180.361 160.171 180.088 159.898C179.815 159.625 179.444 159.471 179.057 159.471C178.671 159.471 178.3 159.625 178.027 159.898C177.753 160.171 177.6 160.542 177.6 160.929C177.6 161.315 177.753 161.686 178.027 161.959C178.3 162.233 178.671 162.386 179.057 162.386Z" fill="#6686AD" stroke="#6686AD" stroke-width="1.33333"/>
<path d="M274.892 99.1509C275.279 99.1509 275.649 98.9974 275.923 98.7241C276.196 98.4508 276.349 98.08 276.349 97.6935C276.349 97.307 276.196 96.9362 275.923 96.6629C275.649 96.3896 275.279 96.2361 274.892 96.2361C274.505 96.2361 274.135 96.3896 273.861 96.6629C273.588 96.9362 273.435 97.307 273.435 97.6935C273.435 98.08 273.588 98.4508 273.861 98.7241C274.135 98.9974 274.505 99.1509 274.892 99.1509Z" fill="#6686AD" stroke="#6686AD" stroke-width="1.33333"/>
<path d="M202.028 143.314C202.415 143.314 202.786 143.161 203.059 142.887C203.332 142.614 203.486 142.243 203.486 141.857C203.486 141.47 203.332 141.1 203.059 140.826C202.786 140.553 202.415 140.399 202.028 140.399C201.642 140.399 201.271 140.553 200.998 140.826C200.725 141.1 200.571 141.47 200.571 141.857C200.571 142.243 200.725 142.614 200.998 142.887C201.271 143.161 201.642 143.314 202.028 143.314Z" fill="#6686AD" stroke="#6686AD" stroke-width="1.33333"/>
<path d="M161.249 83.3334C161.635 83.3334 162.006 83.1799 162.28 82.9066C162.553 82.6333 162.706 82.2625 162.706 81.876C162.706 81.4895 162.553 81.1187 162.28 80.8454C162.006 80.5721 161.635 80.4185 161.249 80.4185C160.862 80.4185 160.492 80.5721 160.218 80.8454C159.945 81.1187 159.792 81.4895 159.792 81.876C159.792 82.2625 159.945 82.6333 160.218 82.9066C160.492 83.1799 160.862 83.3334 161.249 83.3334Z" fill="#6686AD" stroke="#6686AD" stroke-width="1.33333"/>
<path d="M234.678 137.735C235.065 137.735 235.435 137.581 235.709 137.308C235.982 137.034 236.136 136.664 236.136 136.277C236.136 135.891 235.982 135.52 235.709 135.247C235.435 134.973 235.065 134.82 234.678 134.82C234.292 134.82 233.921 134.973 233.648 135.247C233.374 135.52 233.221 135.891 233.221 136.277C233.221 136.664 233.374 137.034 233.648 137.308C233.921 137.581 234.292 137.735 234.678 137.735Z" fill="#6686AD" stroke="#6686AD" stroke-width="1.33333"/>
<path d="M154.878 41.2993C155.265 41.2993 155.635 41.1458 155.909 40.8724C156.182 40.5991 156.336 40.2284 156.336 39.8419C156.336 39.4554 156.182 39.0846 155.909 38.8113C155.635 38.538 155.265 38.3844 154.878 38.3844C154.492 38.3844 154.121 38.538 153.848 38.8113C153.574 39.0846 153.421 39.4554 153.421 39.8419C153.421 40.2284 153.574 40.5991 153.848 40.8724C154.121 41.1458 154.492 41.2993 154.878 41.2993Z" fill="#6686AD" stroke="#6686AD" stroke-width="1.33333"/>
<path d="M210.712 132.417C211.099 132.417 211.469 132.263 211.743 131.99C212.016 131.717 212.17 131.346 212.17 130.959C212.17 130.573 212.016 130.202 211.743 129.929C211.469 129.655 211.099 129.502 210.712 129.502C210.326 129.502 209.955 129.655 209.682 129.929C209.408 130.202 209.255 130.573 209.255 130.959C209.255 131.346 209.408 131.717 209.682 131.99C209.955 132.263 210.326 132.417 210.712 132.417Z" fill="#6686AD" stroke="#6686AD" stroke-width="1.33333"/>
<path d="M126.025 114.406C126.411 114.406 126.782 114.252 127.055 113.979C127.329 113.706 127.482 113.335 127.482 112.948C127.482 112.562 127.329 112.191 127.055 111.918C126.782 111.645 126.411 111.491 126.025 111.491C125.638 111.491 125.268 111.645 124.994 111.918C124.721 112.191 124.567 112.562 124.567 112.948C124.567 113.335 124.721 113.706 124.994 113.979C125.268 114.252 125.638 114.406 126.025 114.406Z" fill="#6686AD" stroke="#6686AD" stroke-width="1.33333"/>
<path d="M150.686 70.0584C151.073 70.0584 151.443 69.9048 151.717 69.6315C151.99 69.3582 152.144 68.9875 152.144 68.601C152.144 68.2144 151.99 67.8437 151.717 67.5704C151.443 67.2971 151.073 67.1435 150.686 67.1435C150.3 67.1435 149.929 67.2971 149.656 67.5704C149.382 67.8437 149.229 68.2144 149.229 68.601C149.229 68.9875 149.382 69.3582 149.656 69.6315C149.929 69.9048 150.3 70.0584 150.686 70.0584Z" fill="#6686AD" stroke="#6686AD" stroke-width="1.33333"/>
<path d="M210.244 149.897C210.63 149.897 211.001 149.743 211.274 149.47C211.547 149.197 211.701 148.826 211.701 148.44C211.701 148.053 211.547 147.682 211.274 147.409C211.001 147.136 210.63 146.982 210.244 146.982C209.857 146.982 209.486 147.136 209.213 147.409C208.94 147.682 208.786 148.053 208.786 148.44C208.786 148.826 208.94 149.197 209.213 149.47C209.486 149.743 209.857 149.897 210.244 149.897Z" fill="#6686AD" stroke="#6686AD" stroke-width="1.33333"/>
<path d="M231.395 92.9456C231.781 92.9456 232.152 92.792 232.425 92.5187C232.699 92.2454 232.852 91.8747 232.852 91.4881C232.852 91.1016 232.699 90.7309 232.425 90.4576C232.152 90.1843 231.781 90.0307 231.395 90.0307C231.008 90.0307 230.637 90.1843 230.364 90.4576C230.091 90.7309 229.937 91.1016 229.937 91.4881C229.937 91.8747 230.091 92.2454 230.364 92.5187C230.637 92.792 231.008 92.9456 231.395 92.9456Z" fill="#6686AD" stroke="#6686AD" stroke-width="1.33333"/>
<path d="M209.248 50.781C209.634 50.781 210.005 50.6274 210.279 50.3541C210.552 50.0808 210.705 49.7101 210.705 49.3235C210.705 48.937 210.552 48.5663 210.279 48.293C210.005 48.0197 209.634 47.8661 209.248 47.8661C208.861 47.8661 208.491 48.0197 208.217 48.293C207.944 48.5663 207.791 48.937 207.791 49.3235C207.791 49.7101 207.944 50.0808 208.217 50.3541C208.491 50.6274 208.861 50.781 209.248 50.781Z" fill="#6686AD" stroke="#6686AD" stroke-width="1.33333"/>
<path d="M198.039 164.605C198.426 164.605 198.796 164.452 199.07 164.178C199.343 163.905 199.497 163.534 199.497 163.148C199.497 162.761 199.343 162.39 199.07 162.117C198.796 161.844 198.426 161.69 198.039 161.69C197.653 161.69 197.282 161.844 197.009 162.117C196.735 162.39 196.582 162.761 196.582 163.148C196.582 163.534 196.735 163.905 197.009 164.178C197.282 164.452 197.653 164.605 198.039 164.605Z" fill="#6686AD" stroke="#6686AD" stroke-width="1.33333"/>
<path d="M190.797 94.618C191.183 94.618 191.554 94.4645 191.827 94.1912C192.1 93.9179 192.254 93.5471 192.254 93.1606C192.254 92.7741 192.1 92.4033 191.827 92.13C191.554 91.8567 191.183 91.7032 190.797 91.7032C190.41 91.7032 190.039 91.8567 189.766 92.13C189.493 92.4033 189.339 92.7741 189.339 93.1606C189.339 93.5471 189.493 93.9179 189.766 94.1912C190.039 94.4645 190.41 94.618 190.797 94.618Z" fill="#6686AD" stroke="#6686AD" stroke-width="1.33333"/>
<path d="M144.815 91.6794C145.202 91.6794 145.572 91.5258 145.846 91.2525C146.119 90.9792 146.273 90.6084 146.273 90.2219C146.273 89.8354 146.119 89.4647 145.846 89.1913C145.572 88.918 145.202 88.7645 144.815 88.7645C144.429 88.7645 144.058 88.918 143.785 89.1913C143.511 89.4647 143.358 89.8354 143.358 90.2219C143.358 90.6084 143.511 90.9792 143.785 91.2525C144.058 91.5258 144.429 91.6794 144.815 91.6794Z" fill="#6686AD" stroke="#6686AD" stroke-width="1.33333"/>
<path d="M174.444 71.2962C174.83 71.2962 175.201 71.1426 175.474 70.8693C175.748 70.596 175.901 70.2252 175.901 69.8387C175.901 69.4522 175.748 69.0815 175.474 68.8082C175.201 68.5349 174.83 68.3813 174.444 68.3813C174.057 68.3813 173.687 68.5349 173.413 68.8082C173.14 69.0815 172.986 69.4522 172.986 69.8387C172.986 70.2252 173.14 70.596 173.413 70.8693C173.687 71.1426 174.057 71.2962 174.444 71.2962Z" fill="#6686AD" stroke="#6686AD" stroke-width="1.33333"/>
<path d="M184.567 150.135C184.953 150.135 185.324 149.981 185.597 149.708C185.87 149.435 186.024 149.064 186.024 148.677C186.024 148.291 185.87 147.92 185.597 147.647C185.324 147.373 184.953 147.22 184.567 147.22C184.18 147.22 183.809 147.373 183.536 147.647C183.263 147.92 183.109 148.291 183.109 148.677C183.109 149.064 183.263 149.435 183.536 149.708C183.809 149.981 184.18 150.135 184.567 150.135Z" fill="#6686AD" stroke="#6686AD" stroke-width="1.33333"/>
<path d="M243.839 153.396C244.226 153.396 244.596 153.242 244.87 152.969C245.143 152.696 245.296 152.325 245.296 151.938C245.296 151.552 245.143 151.181 244.87 150.908C244.596 150.635 244.226 150.481 243.839 150.481C243.453 150.481 243.082 150.635 242.808 150.908C242.535 151.181 242.382 151.552 242.382 151.938C242.382 152.325 242.535 152.696 242.808 152.969C243.082 153.242 243.453 153.396 243.839 153.396Z" fill="#6686AD" stroke="#6686AD" stroke-width="1.33333"/>
<path d="M215.975 81.4452C216.362 81.4452 216.732 81.2917 217.006 81.0183C217.279 80.745 217.432 80.3743 217.432 79.9878C217.432 79.6013 217.279 79.2305 217.006 78.9572C216.732 78.6839 216.362 78.5303 215.975 78.5303C215.589 78.5303 215.218 78.6839 214.944 78.9572C214.671 79.2305 214.518 79.6013 214.518 79.9878C214.518 80.3743 214.671 80.745 214.944 81.0183C215.218 81.2917 215.589 81.4452 215.975 81.4452Z" fill="#6686AD" stroke="#6686AD" stroke-width="1.33333"/>
<path d="M133.704 90.2304C134.091 90.2304 134.461 90.0768 134.735 89.8035C135.008 89.5302 135.161 89.1595 135.161 88.7729C135.161 88.3864 135.008 88.0157 134.735 87.7424C134.461 87.4691 134.091 87.3155 133.704 87.3155C133.318 87.3155 132.947 87.4691 132.673 87.7424C132.4 88.0157 132.247 88.3864 132.247 88.7729C132.247 89.1595 132.4 89.5302 132.673 89.8035C132.947 90.0768 133.318 90.2304 133.704 90.2304Z" fill="#6686AD" stroke="#6686AD" stroke-width="1.33333"/>
<path d="M215.212 92.0461C215.599 92.0461 215.969 91.8925 216.243 91.6192C216.516 91.3459 216.67 90.9751 216.67 90.5886C216.67 90.2021 216.516 89.8313 216.243 89.558C215.969 89.2847 215.599 89.1312 215.212 89.1312C214.826 89.1312 214.455 89.2847 214.182 89.558C213.908 89.8313 213.755 90.2021 213.755 90.5886C213.755 90.9751 213.908 91.3459 214.182 91.6192C214.455 91.8925 214.826 92.0461 215.212 92.0461Z" fill="#6686AD" stroke="#6686AD" stroke-width="1.33333"/>
<path d="M187.517 88.2987C187.904 88.2987 188.275 88.1452 188.548 87.8719C188.821 87.5986 188.975 87.2278 188.975 86.8413C188.975 86.4548 188.821 86.084 188.548 85.8107C188.275 85.5374 187.904 85.3839 187.517 85.3839C187.131 85.3839 186.76 85.5374 186.487 85.8107C186.213 86.084 186.06 86.4548 186.06 86.8413C186.06 87.2278 186.213 87.5986 186.487 87.8719C186.76 88.1452 187.131 88.2987 187.517 88.2987Z" fill="#6686AD" stroke="#6686AD" stroke-width="1.33333"/>
<path d="M176.12 128.385C176.506 128.385 176.877 128.232 177.15 127.958C177.424 127.685 177.577 127.314 177.577 126.928C177.577 126.541 177.424 126.171 177.15 125.897C176.877 125.624 176.506 125.47 176.12 125.47C175.733 125.47 175.363 125.624 175.089 125.897C174.816 126.171 174.662 126.541 174.662 126.928C174.662 127.314 174.816 127.685 175.089 127.958C175.363 128.232 175.733 128.385 176.12 128.385Z" fill="#6686AD" stroke="#6686AD" stroke-width="1.33333"/>
<path d="M226.443 92.7584C226.83 92.7584 227.201 92.6048 227.474 92.3315C227.747 92.0582 227.901 91.6874 227.901 91.3009C227.901 90.9144 227.747 90.5437 227.474 90.2704C227.201 89.997 226.83 89.8435 226.443 89.8435C226.057 89.8435 225.686 89.997 225.413 90.2704C225.139 90.5437 224.986 90.9144 224.986 91.3009C224.986 91.6874 225.139 92.0582 225.413 92.3315C225.686 92.6048 226.057 92.7584 226.443 92.7584Z" fill="#6686AD" stroke="#6686AD" stroke-width="1.33333"/>
<path d="M242.819 90.3832C243.206 90.3832 243.576 90.2296 243.85 89.9563C244.123 89.683 244.276 89.3123 244.276 88.9258C244.276 88.5392 244.123 88.1685 243.85 87.8952C243.576 87.6219 243.206 87.4683 242.819 87.4683C242.432 87.4683 242.062 87.6219 241.788 87.8952C241.515 88.1685 241.362 88.5392 241.362 88.9258C241.362 89.3123 241.515 89.683 241.788 89.9563C242.062 90.2296 242.432 90.3832 242.819 90.3832Z" fill="#6686AD" stroke="#6686AD" stroke-width="1.33333"/>
<path d="M238.924 129.726C239.311 129.726 239.682 129.572 239.955 129.299C240.228 129.026 240.382 128.655 240.382 128.268C240.382 127.882 240.228 127.511 239.955 127.238C239.682 126.965 239.311 126.811 238.924 126.811C238.538 126.811 238.167 126.965 237.894 127.238C237.621 127.511 237.467 127.882 237.467 128.268C237.467 128.655 237.621 129.026 237.894 129.299C238.167 129.572 238.538 129.726 238.924 129.726Z" fill="#6686AD" stroke="#6686AD" stroke-width="1.33333"/>
<path d="M169.782 28.9649C170.169 28.9649 170.539 28.8113 170.813 28.538C171.086 28.2647 171.24 27.894 171.24 27.5075C171.24 27.1209 171.086 26.7502 170.813 26.4769C170.539 26.2036 170.169 26.05 169.782 26.05C169.396 26.05 169.025 26.2036 168.752 26.4769C168.478 26.7502 168.325 27.1209 168.325 27.5075C168.325 27.894 168.478 28.2647 168.752 28.538C169.025 28.8113 169.396 28.9649 169.782 28.9649Z" fill="#6686AD" stroke="#6686AD" stroke-width="1.33333"/>
<path d="M190.48 83.324C190.866 83.324 191.237 83.1704 191.51 82.8971C191.784 82.6238 191.937 82.2531 191.937 81.8666C191.937 81.48 191.784 81.1093 191.51 80.836C191.237 80.5627 190.866 80.4091 190.48 80.4091C190.093 80.4091 189.723 80.5627 189.449 80.836C189.176 81.1093 189.022 81.48 189.022 81.8666C189.022 82.2531 189.176 82.6238 189.449 82.8971C189.723 83.1704 190.093 83.324 190.48 83.324Z" fill="#6686AD" stroke="#6686AD" stroke-width="1.33333"/>
<path d="M215.492 148.352C215.879 148.352 216.25 148.199 216.523 147.925C216.796 147.652 216.95 147.281 216.95 146.895C216.95 146.508 216.796 146.137 216.523 145.864C216.25 145.591 215.879 145.437 215.492 145.437C215.106 145.437 214.735 145.591 214.462 145.864C214.188 146.137 214.035 146.508 214.035 146.895C214.035 147.281 214.188 147.652 214.462 147.925C214.735 148.199 215.106 148.352 215.492 148.352Z" fill="#6686AD" stroke="#6686AD" stroke-width="1.33333"/>
<path d="M240.653 76.1883C241.04 76.1883 241.411 76.0347 241.684 75.7614C241.957 75.4881 242.111 75.1173 242.111 74.7308C242.111 74.3443 241.957 73.9736 241.684 73.7003C241.411 73.4269 241.04 73.2734 240.653 73.2734C240.267 73.2734 239.896 73.4269 239.623 73.7003C239.35 73.9736 239.196 74.3443 239.196 74.7308C239.196 75.1173 239.35 75.4881 239.623 75.7614C239.896 76.0347 240.267 76.1883 240.653 76.1883Z" fill="#6686AD" stroke="#6686AD" stroke-width="1.33333"/>
<path d="M183.843 139.892C184.229 139.892 184.6 139.739 184.873 139.466C185.147 139.192 185.3 138.822 185.3 138.435C185.3 138.048 185.147 137.678 184.873 137.404C184.6 137.131 184.229 136.978 183.843 136.978C183.456 136.978 183.085 137.131 182.812 137.404C182.539 137.678 182.385 138.048 182.385 138.435C182.385 138.822 182.539 139.192 182.812 139.466C183.085 139.739 183.456 139.892 183.843 139.892Z" fill="#6686AD" stroke="#6686AD" stroke-width="1.33333"/>
<path d="M195.305 71.0907C195.692 71.0907 196.062 70.9371 196.336 70.6638C196.609 70.3905 196.763 70.0197 196.763 69.6332C196.763 69.2467 196.609 68.876 196.336 68.6027C196.062 68.3293 195.692 68.1758 195.305 68.1758C194.919 68.1758 194.548 68.3293 194.275 68.6027C194.001 68.876 193.848 69.2467 193.848 69.6332C193.848 70.0197 194.001 70.3905 194.275 70.6638C194.548 70.9371 194.919 71.0907 195.305 71.0907Z" fill="#6686AD" stroke="#6686AD" stroke-width="1.33333"/>
<path d="M159.35 56.5822C159.737 56.5822 160.108 56.4286 160.381 56.1553C160.654 55.882 160.808 55.5113 160.808 55.1247C160.808 54.7382 160.654 54.3675 160.381 54.0942C160.108 53.8209 159.737 53.6673 159.35 53.6673C158.964 53.6673 158.593 53.8209 158.32 54.0942C158.046 54.3675 157.893 54.7382 157.893 55.1247C157.893 55.5113 158.046 55.882 158.32 56.1553C158.593 56.4286 158.964 56.5822 159.35 56.5822Z" fill="#6686AD" stroke="#6686AD" stroke-width="1.33333"/>
<path d="M155.84 133.878C156.227 133.878 156.598 133.725 156.871 133.452C157.144 133.178 157.298 132.807 157.298 132.421C157.298 132.034 157.144 131.664 156.871 131.39C156.598 131.117 156.227 130.964 155.84 130.964C155.454 130.964 155.083 131.117 154.81 131.39C154.536 131.664 154.383 132.034 154.383 132.421C154.383 132.807 154.536 133.178 154.81 133.452C155.083 133.725 155.454 133.878 155.84 133.878Z" fill="#6686AD" stroke="#6686AD" stroke-width="1.33333"/>
<path d="M234.287 64.2061C234.674 64.2061 235.044 64.0525 235.318 63.7792C235.591 63.5059 235.744 63.1351 235.744 62.7486C235.744 62.3621 235.591 61.9914 235.318 61.718C235.044 61.4447 234.674 61.2912 234.287 61.2912C233.901 61.2912 233.53 61.4447 233.256 61.718C232.983 61.9914 232.83 62.3621 232.83 62.7486C232.83 63.1351 232.983 63.5059 233.256 63.7792C233.53 64.0525 233.901 64.2061 234.287 64.2061Z" fill="#6686AD" stroke="#6686AD" stroke-width="1.33333"/>
<path d="M255.521 85.7083C255.907 85.7083 256.278 85.5547 256.551 85.2814C256.825 85.0081 256.978 84.6374 256.978 84.2508C256.978 83.8643 256.825 83.4936 256.551 83.2203C256.278 82.947 255.907 82.7934 255.521 82.7934C255.134 82.7934 254.763 82.947 254.49 83.2203C254.217 83.4936 254.063 83.8643 254.063 84.2508C254.063 84.6374 254.217 85.0081 254.49 85.2814C254.763 85.5547 255.134 85.7083 255.521 85.7083Z" fill="#6686AD" stroke="#6686AD" stroke-width="1.33333"/>
<path d="M199.743 69.7248C200.13 69.7248 200.5 69.5713 200.774 69.2979C201.047 69.0246 201.201 68.6539 201.201 68.2674C201.201 67.8809 201.047 67.5101 200.774 67.2368C200.5 66.9635 200.13 66.8099 199.743 66.8099C199.357 66.8099 198.986 66.9635 198.713 67.2368C198.439 67.5101 198.286 67.8809 198.286 68.2674C198.286 68.6539 198.439 69.0246 198.713 69.2979C198.986 69.5713 199.357 69.7248 199.743 69.7248Z" fill="#6686AD" stroke="#6686AD" stroke-width="1.33333"/>
<path d="M241.747 27.7535C242.133 27.7535 242.504 27.6 242.777 27.3267C243.05 27.0534 243.204 26.6826 243.204 26.2961C243.204 25.9096 243.05 25.5388 242.777 25.2655C242.504 24.9922 242.133 24.8387 241.747 24.8387C241.36 24.8387 240.989 24.9922 240.716 25.2655C240.443 25.5388 240.289 25.9096 240.289 26.2961C240.289 26.6826 240.443 27.0534 240.716 27.3267C240.989 27.6 241.36 27.7535 241.747 27.7535Z" fill="#6686AD" stroke="#6686AD" stroke-width="1.33333"/>
<path d="M216.678 111.412C217.065 111.412 217.436 111.258 217.709 110.985C217.982 110.711 218.136 110.341 218.136 109.954C218.136 109.568 217.982 109.197 217.709 108.924C217.436 108.65 217.065 108.497 216.678 108.497C216.292 108.497 215.921 108.65 215.648 108.924C215.375 109.197 215.221 109.568 215.221 109.954C215.221 110.341 215.375 110.711 215.648 110.985C215.921 111.258 216.292 111.412 216.678 111.412Z" fill="#6686AD" stroke="#6686AD" stroke-width="1.33333"/>
<path d="M177.362 131.264C177.749 131.264 178.119 131.11 178.393 130.837C178.666 130.564 178.82 130.193 178.82 129.807C178.82 129.42 178.666 129.049 178.393 128.776C178.119 128.503 177.749 128.349 177.362 128.349C176.976 128.349 176.605 128.503 176.332 128.776C176.058 129.049 175.905 129.42 175.905 129.807C175.905 130.193 176.058 130.564 176.332 130.837C176.605 131.11 176.976 131.264 177.362 131.264Z" fill="#6686AD" stroke="#6686AD" stroke-width="1.33333"/>
<path d="M216.669 136.566C217.056 136.566 217.427 136.413 217.7 136.14C217.973 135.866 218.127 135.496 218.127 135.109C218.127 134.722 217.973 134.352 217.7 134.078C217.427 133.805 217.056 133.652 216.669 133.652C216.283 133.652 215.912 133.805 215.639 134.078C215.365 134.352 215.212 134.722 215.212 135.109C215.212 135.496 215.365 135.866 215.639 136.14C215.912 136.413 216.283 136.566 216.669 136.566Z" fill="#6686AD" stroke="#6686AD" stroke-width="1.33333"/>
<path d="M262.62 133.688C263.007 133.688 263.377 133.535 263.651 133.261C263.924 132.988 264.077 132.617 264.077 132.231C264.077 131.844 263.924 131.473 263.651 131.2C263.377 130.927 263.007 130.773 262.62 130.773C262.234 130.773 261.863 130.927 261.589 131.2C261.316 131.473 261.163 131.844 261.163 132.231C261.163 132.617 261.316 132.988 261.589 133.261C261.863 133.535 262.234 133.688 262.62 133.688Z" fill="#6686AD" stroke="#6686AD" stroke-width="1.33333"/>
<path d="M201.157 104.84C201.543 104.84 201.914 104.686 202.187 104.413C202.461 104.139 202.614 103.769 202.614 103.382C202.614 102.996 202.461 102.625 202.187 102.352C201.914 102.078 201.543 101.925 201.157 101.925C200.77 101.925 200.399 102.078 200.126 102.352C199.853 102.625 199.699 102.996 199.699 103.382C199.699 103.769 199.853 104.139 200.126 104.413C200.399 104.686 200.77 104.84 201.157 104.84Z" fill="#6686AD" stroke="#6686AD" stroke-width="1.33333"/>
<path d="M263.659 88.5056C264.046 88.5056 264.416 88.352 264.69 88.0787C264.963 87.8054 265.117 87.4347 265.117 87.0481C265.117 86.6616 264.963 86.2909 264.69 86.0176C264.416 85.7443 264.046 85.5907 263.659 85.5907C263.273 85.5907 262.902 85.7443 262.629 86.0176C262.355 86.2909 262.202 86.6616 262.202 87.0481C262.202 87.4347 262.355 87.8054 262.629 88.0787C262.902 88.352 263.273 88.5056 263.659 88.5056Z" fill="#6686AD" stroke="#6686AD" stroke-width="1.33333"/>
<path d="M100.247 91.023C100.634 91.023 101.004 90.8694 101.278 90.5961C101.551 90.3228 101.705 89.9521 101.705 89.5655C101.705 89.179 101.551 88.8083 101.278 88.535C101.004 88.2617 100.634 88.1081 100.247 88.1081C99.8607 88.1081 99.49 88.2617 99.2167 88.535C98.9434 88.8083 98.7898 89.179 98.7898 89.5655C98.7898 89.9521 98.9434 90.3228 99.2167 90.5961C99.49 90.8694 99.8607 91.023 100.247 91.023Z" fill="#6686AD" stroke="#6686AD" stroke-width="1.33333"/>
<path d="M234.653 69.5247C235.04 69.5247 235.41 69.3712 235.684 69.0979C235.957 68.8246 236.11 68.4538 236.11 68.0673C236.11 67.6808 235.957 67.31 235.684 67.0367C235.41 66.7634 235.04 66.6099 234.653 66.6099C234.266 66.6099 233.896 66.7634 233.622 67.0367C233.349 67.31 233.196 67.6808 233.196 68.0673C233.196 68.4538 233.349 68.8246 233.622 69.0979C233.896 69.3712 234.266 69.5247 234.653 69.5247Z" fill="#6686AD" stroke="#6686AD" stroke-width="1.33333"/>
<path d="M205.955 101.321C206.342 101.321 206.713 101.167 206.986 100.894C207.259 100.621 207.413 100.25 207.413 99.8633C207.413 99.4767 207.259 99.106 206.986 98.8327C206.713 98.5594 206.342 98.4058 205.955 98.4058C205.569 98.4058 205.198 98.5594 204.925 98.8327C204.651 99.106 204.498 99.4767 204.498 99.8633C204.498 100.25 204.651 100.621 204.925 100.894C205.198 101.167 205.569 101.321 205.955 101.321Z" fill="#6686AD" stroke="#6686AD" stroke-width="1.33333"/>
<path d="M190.878 45.064C191.265 45.064 191.636 44.9105 191.909 44.6372C192.182 44.3638 192.336 43.9931 192.336 43.6066C192.336 43.2201 192.182 42.8493 191.909 42.576C191.636 42.3027 191.265 42.1491 190.878 42.1491C190.492 42.1491 190.121 42.3027 189.848 42.576C189.574 42.8493 189.421 43.2201 189.421 43.6066C189.421 43.9931 189.574 44.3638 189.848 44.6372C190.121 44.9105 190.492 45.064 190.878 45.064Z" fill="#6686AD" stroke="#6686AD" stroke-width="1.33333"/>
<path d="M206.139 112.164C206.526 112.164 206.897 112.01 207.17 111.737C207.443 111.464 207.597 111.093 207.597 110.707C207.597 110.32 207.443 109.949 207.17 109.676C206.897 109.403 206.526 109.249 206.139 109.249C205.753 109.249 205.382 109.403 205.109 109.676C204.835 109.949 204.682 110.32 204.682 110.707C204.682 111.093 204.835 111.464 205.109 111.737C205.382 112.01 205.753 112.164 206.139 112.164Z" fill="#6686AD" stroke="#6686AD" stroke-width="1.33333"/>
<path d="M193.977 77.3945C194.363 77.3945 194.734 77.2409 195.008 76.9676C195.281 76.6943 195.434 76.3236 195.434 75.9371C195.434 75.5505 195.281 75.1798 195.008 74.9065C194.734 74.6332 194.363 74.4796 193.977 74.4796C193.59 74.4796 193.22 74.6332 192.946 74.9065C192.673 75.1798 192.52 75.5505 192.52 75.9371C192.52 76.3236 192.673 76.6943 192.946 76.9676C193.22 77.2409 193.59 77.3945 193.977 77.3945Z" fill="#6686AD" stroke="#6686AD" stroke-width="1.33333"/>
<path d="M216.502 135.303C216.888 135.303 217.259 135.149 217.532 134.876C217.806 134.603 217.959 134.232 217.959 133.845C217.959 133.459 217.806 133.088 217.532 132.815C217.259 132.542 216.888 132.388 216.502 132.388C216.115 132.388 215.744 132.542 215.471 132.815C215.198 133.088 215.044 133.459 215.044 133.845C215.044 134.232 215.198 134.603 215.471 134.876C215.744 135.149 216.115 135.303 216.502 135.303Z" fill="#6686AD" stroke="#6686AD" stroke-width="1.33333"/>
<path d="M260.271 143.65C260.658 143.65 261.029 143.496 261.302 143.223C261.575 142.95 261.729 142.579 261.729 142.192C261.729 141.806 261.575 141.435 261.302 141.162C261.029 140.888 260.658 140.735 260.271 140.735C259.885 140.735 259.514 140.888 259.241 141.162C258.968 141.435 258.814 141.806 258.814 142.192C258.814 142.579 258.968 142.95 259.241 143.223C259.514 143.496 259.885 143.65 260.271 143.65Z" fill="#6686AD" stroke="#6686AD" stroke-width="1.33333"/>
<path d="M182.316 82.9867C182.702 82.9867 183.073 82.8331 183.346 82.5598C183.62 82.2865 183.773 81.9157 183.773 81.5292C183.773 81.1427 183.62 80.772 183.346 80.4987C183.073 80.2253 182.702 80.0718 182.316 80.0718C181.929 80.0718 181.559 80.2253 181.285 80.4987C181.012 80.772 180.858 81.1427 180.858 81.5292C180.858 81.9157 181.012 82.2865 181.285 82.5598C181.559 82.8331 181.929 82.9867 182.316 82.9867Z" fill="#6686AD" stroke="#6686AD" stroke-width="1.33333"/>
<path d="M170.982 110.555C171.368 110.555 171.739 110.402 172.012 110.128C172.286 109.855 172.439 109.484 172.439 109.098C172.439 108.711 172.286 108.341 172.012 108.067C171.739 107.794 171.368 107.64 170.982 107.64C170.595 107.64 170.225 107.794 169.951 108.067C169.678 108.341 169.524 108.711 169.524 109.098C169.524 109.484 169.678 109.855 169.951 110.128C170.225 110.402 170.595 110.555 170.982 110.555Z" fill="#6686AD" stroke="#6686AD" stroke-width="1.33333"/>
<path d="M182.961 73.9448C183.347 73.9448 183.718 73.7912 183.991 73.5179C184.265 73.2446 184.418 72.8739 184.418 72.4874C184.418 72.1008 184.265 71.7301 183.991 71.4568C183.718 71.1835 183.347 71.0299 182.961 71.0299C182.574 71.0299 182.204 71.1835 181.93 71.4568C181.657 71.7301 181.503 72.1008 181.503 72.4874C181.503 72.8739 181.657 73.2446 181.93 73.5179C182.204 73.7912 182.574 73.9448 182.961 73.9448Z" fill="#6686AD" stroke="#6686AD" stroke-width="1.33333"/>
<path d="M238.305 83.3473C238.691 83.3473 239.062 83.1937 239.335 82.9204C239.609 82.6471 239.762 82.2763 239.762 81.8898C239.762 81.5033 239.609 81.1326 239.335 80.8592C239.062 80.5859 238.691 80.4324 238.305 80.4324C237.918 80.4324 237.548 80.5859 237.274 80.8592C237.001 81.1326 236.847 81.5033 236.847 81.8898C236.847 82.2763 237.001 82.6471 237.274 82.9204C237.548 83.1937 237.918 83.3473 238.305 83.3473Z" fill="#6686AD" stroke="#6686AD" stroke-width="1.33333"/>
<path d="M215.394 104.673C215.78 104.673 216.151 104.519 216.425 104.246C216.698 103.973 216.851 103.602 216.851 103.215C216.851 102.829 216.698 102.458 216.425 102.185C216.151 101.911 215.78 101.758 215.394 101.758C215.007 101.758 214.637 101.911 214.363 102.185C214.09 102.458 213.937 102.829 213.937 103.215C213.937 103.602 214.09 103.973 214.363 104.246C214.637 104.519 215.007 104.673 215.394 104.673Z" fill="#6686AD" stroke="#6686AD" stroke-width="1.33333"/>
<path d="M181.867 134.898C182.253 134.898 182.624 134.745 182.897 134.471C183.171 134.198 183.324 133.827 183.324 133.441C183.324 133.054 183.171 132.683 182.897 132.41C182.624 132.137 182.253 131.983 181.867 131.983C181.48 131.983 181.109 132.137 180.836 132.41C180.563 132.683 180.409 133.054 180.409 133.441C180.409 133.827 180.563 134.198 180.836 134.471C181.109 134.745 181.48 134.898 181.867 134.898Z" fill="#6686AD" stroke="#6686AD" stroke-width="1.33333"/>
<path d="M222.6 160.987C222.987 160.987 223.357 160.834 223.631 160.561C223.904 160.287 224.057 159.916 224.057 159.53C224.057 159.143 223.904 158.773 223.631 158.499C223.357 158.226 222.987 158.073 222.6 158.073C222.214 158.073 221.843 158.226 221.569 158.499C221.296 158.773 221.143 159.143 221.143 159.53C221.143 159.916 221.296 160.287 221.569 160.561C221.843 160.834 222.214 160.987 222.6 160.987Z" fill="#6686AD" stroke="#6686AD" stroke-width="1.33333"/>
<path d="M206.347 119.266C206.733 119.266 207.104 119.113 207.377 118.839C207.651 118.566 207.804 118.195 207.804 117.809C207.804 117.422 207.651 117.051 207.377 116.778C207.104 116.505 206.733 116.351 206.347 116.351C205.96 116.351 205.59 116.505 205.316 116.778C205.043 117.051 204.889 117.422 204.889 117.809C204.889 118.195 205.043 118.566 205.316 118.839C205.59 119.113 205.96 119.266 206.347 119.266Z" fill="#6686AD" stroke="#6686AD" stroke-width="1.33333"/>
<path d="M240.384 68.3838C240.771 68.3838 241.141 68.2302 241.415 67.9569C241.688 67.6836 241.842 67.3129 241.842 66.9263C241.842 66.5398 241.688 66.1691 241.415 65.8958C241.141 65.6225 240.771 65.4689 240.384 65.4689C239.998 65.4689 239.627 65.6225 239.354 65.8958C239.08 66.1691 238.927 66.5398 238.927 66.9263C238.927 67.3129 239.08 67.6836 239.354 67.9569C239.627 68.2302 239.998 68.3838 240.384 68.3838Z" fill="#6686AD" stroke="#6686AD" stroke-width="1.33333"/>
<path d="M175.139 93.4675C175.525 93.4675 175.896 93.314 176.169 93.0407C176.442 92.7673 176.596 92.3966 176.596 92.0101C176.596 91.6236 176.442 91.2528 176.169 90.9795C175.896 90.7062 175.525 90.5526 175.139 90.5526C174.752 90.5526 174.381 90.7062 174.108 90.9795C173.835 91.2528 173.681 91.6236 173.681 92.0101C173.681 92.3966 173.835 92.7673 174.108 93.0407C174.381 93.314 174.752 93.4675 175.139 93.4675Z" fill="#6686AD" stroke="#6686AD" stroke-width="1.33333"/>
<path d="M189.76 150.478C190.146 150.478 190.517 150.324 190.79 150.051C191.064 149.778 191.217 149.407 191.217 149.021C191.217 148.634 191.064 148.263 190.79 147.99C190.517 147.717 190.146 147.563 189.76 147.563C189.373 147.563 189.002 147.717 188.729 147.99C188.456 148.263 188.302 148.634 188.302 149.021C188.302 149.407 188.456 149.778 188.729 150.051C189.002 150.324 189.373 150.478 189.76 150.478Z" fill="#6686AD" stroke="#6686AD" stroke-width="1.33333"/>
<path d="M187.243 95.0653C187.629 95.0653 188 94.9117 188.273 94.6384C188.546 94.3651 188.7 93.9944 188.7 93.6078C188.7 93.2213 188.546 92.8506 188.273 92.5773C188 92.304 187.629 92.1504 187.243 92.1504C186.856 92.1504 186.485 92.304 186.212 92.5773C185.939 92.8506 185.785 93.2213 185.785 93.6078C185.785 93.9944 185.939 94.3651 186.212 94.6384C186.485 94.9117 186.856 95.0653 187.243 95.0653Z" fill="#6686AD" stroke="#6686AD" stroke-width="1.33333"/>
<path d="M145.402 86.7808C145.788 86.7808 146.159 86.6272 146.432 86.3539C146.705 86.0806 146.859 85.7099 146.859 85.3233C146.859 84.9368 146.705 84.5661 146.432 84.2928C146.159 84.0195 145.788 83.8659 145.402 83.8659C145.015 83.8659 144.644 84.0195 144.371 84.2928C144.098 84.5661 143.944 84.9368 143.944 85.3233C143.944 85.7099 144.098 86.0806 144.371 86.3539C144.644 86.6272 145.015 86.7808 145.402 86.7808Z" fill="#6686AD" stroke="#6686AD" stroke-width="1.33333"/>
<path d="M214.12 136.346C214.506 136.346 214.877 136.192 215.15 135.919C215.424 135.645 215.577 135.275 215.577 134.888C215.577 134.502 215.424 134.131 215.15 133.858C214.877 133.584 214.506 133.431 214.12 133.431C213.733 133.431 213.363 133.584 213.089 133.858C212.816 134.131 212.662 134.502 212.662 134.888C212.662 135.275 212.816 135.645 213.089 135.919C213.363 136.192 213.733 136.346 214.12 136.346Z" fill="#6686AD" stroke="#6686AD" stroke-width="1.33333"/>
<path d="M212.75 95.8251C213.137 95.8251 213.508 95.6715 213.781 95.3982C214.054 95.1249 214.208 94.7541 214.208 94.3676C214.208 93.9811 214.054 93.6104 213.781 93.3371C213.508 93.0638 213.137 92.9102 212.75 92.9102C212.364 92.9102 211.993 93.0638 211.72 93.3371C211.447 93.6104 211.293 93.9811 211.293 94.3676C211.293 94.7541 211.447 95.1249 211.72 95.3982C211.993 95.6715 212.364 95.8251 212.75 95.8251Z" fill="#6686AD" stroke="#6686AD" stroke-width="1.33333"/>
<path d="M202.755 99.5553C203.142 99.5553 203.513 99.4017 203.786 99.1284C204.059 98.8551 204.213 98.4843 204.213 98.0978C204.213 97.7113 204.059 97.3406 203.786 97.0673C203.513 96.7939 203.142 96.6404 202.755 96.6404C202.369 96.6404 201.998 96.7939 201.725 97.0673C201.451 97.3406 201.298 97.7113 201.298 98.0978C201.298 98.4843 201.451 98.8551 201.725 99.1284C201.998 99.4017 202.369 99.5553 202.755 99.5553Z" fill="#6686AD" stroke="#6686AD" stroke-width="1.33333"/>
<path d="M193.394 146.465C193.781 146.465 194.152 146.311 194.425 146.038C194.698 145.764 194.852 145.394 194.852 145.007C194.852 144.621 194.698 144.25 194.425 143.977C194.152 143.703 193.781 143.55 193.394 143.55C193.008 143.55 192.637 143.703 192.364 143.977C192.091 144.25 191.937 144.621 191.937 145.007C191.937 145.394 192.091 145.764 192.364 146.038C192.637 146.311 193.008 146.465 193.394 146.465Z" fill="#6686AD" stroke="#6686AD" stroke-width="1.33333"/>
<path d="M197.156 120.442C198.122 120.442 199.049 120.058 199.732 119.375C200.416 118.692 200.8 117.765 200.8 116.798C200.8 115.832 200.416 114.905 199.732 114.222C199.049 113.539 198.122 113.155 197.156 113.155C196.19 113.155 195.263 113.539 194.58 114.222C193.896 114.905 193.512 115.832 193.512 116.798C193.512 117.765 193.896 118.692 194.58 119.375C195.263 120.058 196.19 120.442 197.156 120.442Z" fill="#FF00A6" stroke="#FF00A6" stroke-width="1.33333"/>
<path d="M222.6 163.174C223.566 163.174 224.493 162.79 225.177 162.106C225.86 161.423 226.244 160.496 226.244 159.53C226.244 158.564 225.86 157.637 225.177 156.954C224.493 156.27 223.566 155.886 222.6 155.886C221.634 155.886 220.707 156.27 220.024 156.954C219.34 157.637 218.957 158.564 218.957 159.53C218.957 160.496 219.34 161.423 220.024 162.106C220.707 162.79 221.634 163.174 222.6 163.174Z" fill="#FF00A6" stroke="#FF00A6" stroke-width="1.33333"/>
<path d="M163.002 105.37C163.968 105.37 164.895 104.986 165.578 104.303C166.261 103.62 166.645 102.693 166.645 101.727C166.645 100.76 166.261 99.8335 165.578 99.1502C164.895 98.467 163.968 98.083 163.002 98.083C162.035 98.083 161.109 98.467 160.425 99.1502C159.742 99.8335 159.358 100.76 159.358 101.727C159.358 102.693 159.742 103.62 160.425 104.303C161.109 104.986 162.035 105.37 163.002 105.37Z" fill="#FF00A6" stroke="#FF00A6" stroke-width="1.33333"/>
<path d="M202.028 145.501C202.995 145.501 203.922 145.117 204.605 144.433C205.288 143.75 205.672 142.823 205.672 141.857C205.672 140.891 205.288 139.964 204.605 139.28C203.922 138.597 202.995 138.213 202.028 138.213C201.062 138.213 200.135 138.597 199.452 139.28C198.769 139.964 198.385 140.891 198.385 141.857C198.385 142.823 198.769 143.75 199.452 144.433C200.135 145.117 201.062 145.501 202.028 145.501Z" fill="#FF00A6" stroke="#FF00A6" stroke-width="1.33333"/>
<path d="M184.221 93.9566C185.188 93.9566 186.114 93.5727 186.798 92.8894C187.481 92.2061 187.865 91.2793 187.865 90.313C187.865 89.3467 187.481 88.4198 186.798 87.7366C186.114 87.0533 185.188 86.6694 184.221 86.6694C183.255 86.6694 182.328 87.0533 181.645 87.7366C180.962 88.4198 180.578 89.3467 180.578 90.313C180.578 91.2793 180.962 92.2061 181.645 92.8894C182.328 93.5727 183.255 93.9566 184.221 93.9566Z" fill="#FF00A6" stroke="#FF00A6" stroke-width="1.33333"/>
<path d="M186.514 122.045H201.089ZM193.802 129.332V114.758Z" fill="black"/>
<path d="M186.514 122.045H201.089M193.802 129.332V114.758" stroke="#571440" stroke-width="1.33333" stroke-linecap="round"/>
</g>
<defs>
<clipPath id="clip0_527_249">
<rect width="400" height="200" fill="white"/>
</clipPath>
</defs>
</svg>
