<?xml version="1.0" encoding="utf-8" standalone="no"?>
<!DOCTYPE svg PUBLIC "-//W3C//DTD SVG 1.1//EN"
  "http://www.w3.org/Graphics/SVG/1.1/DTD/svg11.dtd">
<!-- Created with matplotlib (http://matplotlib.org/) -->
<svg height="292pt" version="1.1" viewBox="0 0 504 292" width="504pt" xmlns="http://www.w3.org/2000/svg" xmlns:xlink="http://www.w3.org/1999/xlink">
 <defs>
  <style type="text/css">
*{stroke-linecap:butt;stroke-linejoin:round;}
  </style>
 </defs>
 <g id="figure_1">
  <g id="patch_1">
   <path d="
M0 292.713
L505 292.713
L505 0
L0 0
z
" style="fill:#ffffff;"/>
  </g>
  <g id="axes_1">
   <g id="patch_2">
    <path d="
M26.5956 185.314
L305.596 185.314
L305.596 12.8822
L26.5956 12.8822
z
" style="fill:#ffffff;"/>
   </g>
   <g id="matplotlib.axis_1">
    <g id="xtick_1">
     <g id="line2d_1">
      <defs>
       <path d="
M0 0
L0 -4" id="m93b0483c22" style="stroke:#000000;stroke-width:0.5;"/>
      </defs>
      <g>
       <use style="stroke:#000000;stroke-width:0.5;" x="61.470625" xlink:href="#m93b0483c22" y="185.313670361"/>
      </g>
     </g>
     <g id="line2d_2">
      <defs>
       <path d="
M0 0
L0 4" id="m741efc42ff" style="stroke:#000000;stroke-width:0.5;"/>
      </defs>
      <g>
       <use style="stroke:#000000;stroke-width:0.5;" x="61.470625" xlink:href="#m741efc42ff" y="12.8821875"/>
      </g>
     </g>
     <g id="text_1">
      <!-- 746Data -->
      <defs>
       <path d="
M5.29688 36.9062
Q5.90625 53.9062 26.2969 53.9062
Q36 53.9062 41 50.25
Q46 46.5938 46 39.5938
L46 8.79688
Q46 4.70312 50.5 4.70312
Q51.4062 4.70312 52.2969 4.90625
L52.2969 -1.40625
Q48.7969 -2.29688 46.5938 -2.29688
Q42.5938 -2.29688 40.5469 -0.4375
Q38.5 1.40625 38 5.40625
Q29.5938 -2.29688 20.2031 -2.29688
Q12.2969 -2.29688 7.64062 1.89062
Q3 6.09375 3 13.2031
Q3 15.5 3.45312 17.3906
Q3.90625 19.2969 4.45312 20.75
Q5 22.2031 6.39062 23.4531
Q7.79688 24.7031 8.75 25.5
Q9.70312 26.2969 11.9531 27.0469
Q14.2031 27.7969 15.3906 28.1406
Q16.5938 28.5 19.5938 29
Q22.5938 29.5 24 29.7031
Q25.4062 29.9062 29 30.4062
Q33.9062 31 35.7969 32.2969
Q37.7031 33.5938 37.7031 36.2031
L37.7031 38.4062
Q37.7031 42.2031 34.6406 44.2031
Q31.5938 46.2031 26 46.2031
Q20.2031 46.2031 17.2031 43.9531
Q14.2031 41.7031 13.7031 36.9062
z

M22 5
Q28.9062 5 33.2969 8.64062
Q37.7031 12.2969 37.7031 16.5
L37.7031 25.9062
Q35.2031 24.7031 30.1406 23.8906
Q25.0938 23.0938 21.3906 22.5
Q17.7031 21.9062 14.7031 19.6562
Q11.7031 17.4062 11.7031 13.4062
Q11.7031 9.40625 14.3906 7.20312
Q17.0938 5 22 5" id="FreeSans-61"/>
       <path d="
M26 52.4062
L26 45.5938
L17.4062 45.5938
L17.4062 9.70312
Q17.4062 6.90625 18.3438 5.95312
Q19.2969 5 22 5
Q24.5 5 26 5.40625
L26 -1.59375
Q22.0938 -2.29688 19.2031 -2.29688
Q14.2969 -2.29688 11.6875 -0.140625
Q9.09375 2 9.09375 6
L9.09375 45.5938
L2 45.5938
L2 52.4062
L9.09375 52.4062
L9.09375 66.7969
L17.4062 66.7969
L17.4062 52.4062
z
" id="FreeSans-74"/>
       <path d="
M8 0
L8 72.9062
L36.0938 72.9062
Q50 72.9062 57.8906 63.2031
Q65.7969 53.5 65.7969 36.5
Q65.7969 19.5 57.8438 9.75
Q49.9062 0 36.0938 0
z

M17.2969 8.20312
L34.5 8.20312
Q45.2969 8.20312 50.8906 15.3906
Q56.5 22.5938 56.5 36.4062
Q56.5 50.2969 50.8906 57.5
Q45.2969 64.7031 34.5 64.7031
L17.2969 64.7031
z
" id="FreeSans-44"/>
       <path d="
M4.29688 32.2969
Q4.29688 41.7031 6 48.8438
Q7.70312 56 10.25 60.0938
Q12.7969 64.2031 16.3438 66.75
Q19.9062 69.2969 23.0469 70.0938
Q26.2031 70.9062 29.7031 70.9062
Q37.7969 70.9062 43.1406 66
Q48.5 61.0938 49.7969 52.4062
L41 52.4062
Q39.9062 57.5 36.7969 60.2969
Q33.7031 63.0938 29.0938 63.0938
Q21.5 63.0938 17.4531 56.1406
Q13.4062 49.2031 13.2969 36.2031
Q19.0938 44.0938 29.5938 44.0938
Q39.0938 44.0938 45.1875 37.7969
Q51.2969 31.5 51.2969 21.5938
Q51.2969 11.2031 44.75 4.45312
Q38.2031 -2.29688 28.0938 -2.29688
Q4.29688 -2.29688 4.29688 32.2969
M28.5 36.2969
Q22 36.2969 17.8906 32.1406
Q13.7969 28 13.7969 21.4062
Q13.7969 14.5938 17.8906 10.0469
Q22 5.5 28.2031 5.5
Q34.2969 5.5 38.2969 9.84375
Q42.2969 14.2031 42.2969 20.9062
Q42.2969 28 38.5938 32.1406
Q34.9062 36.2969 28.5 36.2969" id="FreeSans-36"/>
       <path d="
M52 70.9062
L52 63.5
Q40 47.5 33.0469 32.25
Q26.0938 17 23.2031 0
L13.7969 0
Q17.7969 17.5 24 30.7969
Q30.2031 44.0938 42.9062 62.2031
L4.59375 62.2031
L4.59375 70.9062
z
" id="FreeSans-37"/>
       <path d="
M32.7031 17
L2.79688 17
L2.79688 26.2969
L35 70.9062
L41.5 70.9062
L41.5 24.9062
L52 24.9062
L52 17
L41.5 17
L41.5 0
L32.7031 0
z

M32.7031 24.9062
L32.7031 55.9062
L10.5 24.9062
z
" id="FreeSans-34"/>
      </defs>
      <g transform="translate(28.5159134628 226.605156176)rotate(-45.0)scale(0.12 -0.12)">
       <use xlink:href="#FreeSans-37"/>
       <use x="55.5999908447" xlink:href="#FreeSans-34"/>
       <use x="111.199981689" xlink:href="#FreeSans-36"/>
       <use x="166.799972534" xlink:href="#FreeSans-44"/>
       <use x="236.599960327" xlink:href="#FreeSans-61"/>
       <use x="290.89994812" xlink:href="#FreeSans-74"/>
       <use x="318.899932861" xlink:href="#FreeSans-61"/>
      </g>
     </g>
    </g>
    <g id="xtick_2">
     <g id="line2d_3">
      <g>
       <use style="stroke:#000000;stroke-width:0.5;" x="154.470625" xlink:href="#m93b0483c22" y="185.313670361"/>
      </g>
     </g>
     <g id="line2d_4">
      <g>
       <use style="stroke:#000000;stroke-width:0.5;" x="154.470625" xlink:href="#m741efc42ff" y="12.8821875"/>
      </g>
     </g>
     <g id="text_2">
      <!-- Dress Recommendation -->
      <defs>
       <path d="
M47 34.7969
L38.5938 34.7969
Q37.7969 40.2969 34.5938 43.25
Q31.4062 46.2031 26.2031 46.2031
Q19.4062 46.2031 15.5469 40.6406
Q11.7031 35.0938 11.7031 25.2969
Q11.7031 16 15.5938 10.7031
Q19.5 5.40625 26.4062 5.40625
Q37.0938 5.40625 39.2031 18
L47.5938 18
Q46.7969 8.40625 41.1875 3.04688
Q35.5938 -2.29688 26.2031 -2.29688
Q15.5 -2.29688 9.25 5.14062
Q3 12.5938 3 25.2969
Q3 38.2969 9.34375 46.0938
Q15.7031 53.9062 26.2969 53.9062
Q35.4062 53.9062 40.8438 49
Q46.2969 44.0938 47 34.7969" id="FreeSans-63"/>
       <path d="
M50.2969 23.4062
L11.7031 23.4062
Q11.9062 15.2031 15.9531 10.2969
Q20 5.40625 27.0938 5.40625
Q37.2969 5.40625 40.7969 15.9062
L49.2031 15.9062
Q47.5938 7.29688 41.6875 2.5
Q35.7969 -2.29688 26.7969 -2.29688
Q15.7969 -2.29688 9.39062 5.14062
Q3 12.5938 3 25.5
Q3 38.4062 9.54688 46.1562
Q16.0938 53.9062 27 53.9062
Q50.2969 53.9062 50.2969 23.4062
M11.9062 30.2031
L41.4062 30.2031
Q41.4062 37 37.2969 41.5938
Q33.2031 46.2031 26.8906 46.2031
Q20.5938 46.2031 16.5 41.8438
Q12.4062 37.5 11.9062 30.2031" id="FreeSans-65"/>
       <path d="
M12.2031 15.5938
Q12.7969 10.9062 15.4375 8.15625
Q18.0938 5.40625 25 5.40625
Q30.5 5.40625 33.8438 7.65625
Q37.2031 9.90625 37.2031 13.5938
Q37.2031 16.5 35.2969 18.2031
Q33.4062 19.9062 29.0938 20.9062
L21.2969 22.7969
Q12 25 8.34375 28.3438
Q4.70312 31.7031 4.70312 37.9062
Q4.70312 45.2031 10.2031 49.5469
Q15.7031 53.9062 24.7969 53.9062
Q33.9062 53.9062 38.7969 49.7031
Q43.7031 45.5 43.7969 37.7969
L35 37.7969
Q34.7031 46.2031 24.5 46.2031
Q19.4062 46.2031 16.4062 44.0469
Q13.4062 41.9062 13.4062 38.2969
Q13.4062 35.5 15.7031 33.75
Q18 32 23.0938 30.7969
L31.0938 28.9062
Q38.9062 27 42.4062 23.5469
Q45.9062 20.0938 45.9062 14.2969
Q45.9062 6.70312 40.0469 2.20312
Q34.2031 -2.29688 24.2969 -2.29688
Q4 -2.29688 3.40625 15.5938
z
" id="FreeSans-73"/>
       <path d="
M15 52.4062
L15 0
L6.70312 0
L6.70312 52.4062
z

M15 72.9062
L15 62.4062
L6.59375 62.4062
L6.59375 72.9062
z
" id="FreeSans-69"/>
       <path d="
M52.2969 36
Q55.5 34.5938 57.6406 32.6875
Q59.7969 30.7969 60.75 28.3906
Q61.7031 26 62 23.8906
Q62.2969 21.7969 62.2969 18.9062
Q62.2969 18 62.25 16.2969
Q62.2031 14.5938 62.2031 13.7969
Q62.2031 9.70312 63.0938 6.89062
Q64 4.09375 66.5938 2.29688
L66.5938 0
L55.2969 0
Q53.2969 4.59375 53.2969 11.9062
L53.2969 18.4062
Q53.2969 25.0938 50.3906 28.25
Q47.5 31.4062 41.2969 31.4062
L17.2969 31.4062
L17.2969 0
L8 0
L8 72.9062
L41.5938 72.9062
Q52.2969 72.9062 58.0469 67.8438
Q63.7969 62.7969 63.7969 53.4062
Q63.7969 47.2031 61.0938 43.0938
Q58.4062 39 52.2969 36
M54.0938 52.0938
Q54.0938 59.2969 50.2969 62
Q46.5 64.7031 39.7969 64.7031
L17.2969 64.7031
L17.2969 39.5938
L39.7969 39.5938
Q47.2031 39.5938 50.6406 42.5938
Q54.0938 45.5938 54.0938 52.0938" id="FreeSans-52"/>
       <path d="
M6 52.4062
L13.7031 52.4062
L13.7031 43.5938
Q17.2031 49.0938 21.25 51.5
Q25.2969 53.9062 31.0938 53.9062
Q38.7031 53.9062 43.2031 50
Q47.7031 46.0938 47.7031 39.5938
L47.7031 0
L39.4062 0
L39.4062 36.2969
Q39.4062 41 36.5 43.7969
Q33.5938 46.5938 28.5938 46.5938
Q22.2031 46.5938 18.2969 41.75
Q14.4062 36.9062 14.4062 28.9062
L14.4062 0
L6 0
z
" id="FreeSans-6e"/>
       <path id="FreeSans-20"/>
       <path d="
M26.5938 53.9062
Q37.9062 53.9062 44.1562 46.4531
Q50.4062 39 50.4062 25.4062
Q50.4062 12.5 44.0469 5.09375
Q37.7031 -2.29688 26.7031 -2.29688
Q15.5 -2.29688 9.25 5.14062
Q3 12.5938 3 25.7969
Q3 39 9.29688 46.4531
Q15.5938 53.9062 26.5938 53.9062
M26.7031 46.2031
Q19.7031 46.2031 15.7031 40.75
Q11.7031 35.2969 11.7031 25.7969
Q11.7031 16.2969 15.7031 10.8438
Q19.7031 5.40625 26.7031 5.40625
Q33.5938 5.40625 37.6406 10.8438
Q41.7031 16.2969 41.7031 25.5
Q41.7031 35.2031 37.75 40.7031
Q33.7969 46.2031 26.7031 46.2031" id="FreeSans-6f"/>
       <path d="
M31.2031 45.0938
Q22.7969 44.9062 18.5938 41.2031
Q14.4062 37.5 14.4062 27.2031
L14.4062 0
L6 0
L6 52.4062
L13.7031 52.4062
L13.7031 42.9062
Q17.2969 48.7969 20.6406 51.3438
Q24 53.9062 28 53.9062
Q29.0938 53.9062 31.2031 53.5938
z
" id="FreeSans-72"/>
       <path d="
M49.9062 72.9062
L49.9062 0
L42.5 0
L42.5 6.90625
Q39.0938 2 35.1406 -0.140625
Q31.2031 -2.29688 25.7969 -2.29688
Q15.2031 -2.29688 9.09375 5.34375
Q3 13 3 26.2969
Q3 38.7969 9.14062 46.3438
Q15.2969 53.9062 25.5 53.9062
Q36.2969 53.9062 41.5938 45.7969
L41.5938 72.9062
z

M26.9062 46.0938
Q20.0938 46.0938 15.8906 40.5
Q11.7031 34.9062 11.7031 25.7969
Q11.7031 16.5938 15.8906 11.0469
Q20.0938 5.5 27 5.5
Q33.5938 5.5 37.5938 11
Q41.5938 16.5 41.5938 25.5938
Q41.5938 35 37.5938 40.5469
Q33.5938 46.0938 26.9062 46.0938" id="FreeSans-64"/>
       <path d="
M6 52.4062
L13.7031 52.4062
L13.7031 45
Q17.0938 49.7031 20.8438 51.7969
Q24.5938 53.9062 29.7969 53.9062
Q39.5 53.9062 43.9062 45.9062
Q47.5938 50.2969 51.1875 52.0938
Q54.7969 53.9062 60 53.9062
Q67.2969 53.9062 71.25 50.1562
Q75.2031 46.4062 75.2031 39.2969
L75.2031 0
L66.7969 0
L66.7969 36.0938
Q66.7969 41.0938 64.25 43.8438
Q61.7031 46.5938 57.0938 46.5938
Q52 46.5938 48.3906 42.5938
Q44.7969 38.5938 44.7969 32.9062
L44.7969 0
L36.4062 0
L36.4062 36.0938
Q36.4062 41.0938 33.8438 43.8438
Q31.2969 46.5938 26.7031 46.5938
Q21.5938 46.5938 18 42.5938
Q14.4062 38.5938 14.4062 32.9062
L14.4062 0
L6 0
z
" id="FreeSans-6d"/>
      </defs>
      <g transform="translate(64.4576995219 283.663370117)rotate(-45.0)scale(0.12 -0.12)">
       <use xlink:href="#FreeSans-44"/>
       <use x="69.799987793" xlink:href="#FreeSans-72"/>
       <use x="102.999984741" xlink:href="#FreeSans-65"/>
       <use x="156.299972534" xlink:href="#FreeSans-73"/>
       <use x="205.599960327" xlink:href="#FreeSans-73"/>
       <use x="254.89994812" xlink:href="#FreeSans-20"/>
       <use x="279.899932861" xlink:href="#FreeSans-52"/>
       <use x="350.799926758" xlink:href="#FreeSans-65"/>
       <use x="404.099914551" xlink:href="#FreeSans-63"/>
       <use x="454.699905396" xlink:href="#FreeSans-6f"/>
       <use x="508.099899292" xlink:href="#FreeSans-6d"/>
       <use x="589.299880981" xlink:href="#FreeSans-6d"/>
       <use x="670.499862671" xlink:href="#FreeSans-65"/>
       <use x="723.799850464" xlink:href="#FreeSans-6e"/>
       <use x="777.499847412" xlink:href="#FreeSans-64"/>
       <use x="833.399841309" xlink:href="#FreeSans-61"/>
       <use x="887.699829102" xlink:href="#FreeSans-74"/>
       <use x="915.699813843" xlink:href="#FreeSans-69"/>
       <use x="937.899810791" xlink:href="#FreeSans-6f"/>
       <use x="991.299804688" xlink:href="#FreeSans-6e"/>
      </g>
     </g>
    </g>
    <g id="xtick_3">
     <g id="line2d_5">
      <g>
       <use style="stroke:#000000;stroke-width:0.5;" x="247.470625" xlink:href="#m93b0483c22" y="185.313670361"/>
      </g>
     </g>
     <g id="line2d_6">
      <g>
       <use style="stroke:#000000;stroke-width:0.5;" x="247.470625" xlink:href="#m741efc42ff" y="12.8821875"/>
      </g>
     </g>
     <g id="text_3">
      <!-- impensData -->
      <defs>
       <path d="
M6 -21.7969
L6 52.4062
L13.7031 52.4062
L13.7031 44.5
Q19.5938 53.9062 30.4062 53.9062
Q40.7969 53.9062 46.8438 46.2031
Q52.9062 38.5 52.9062 25.2969
Q52.9062 12.7969 46.75 5.25
Q40.5938 -2.29688 30.5 -2.29688
Q20.7969 -2.29688 14.4062 5.5
L14.4062 -21.7969
z

M29 46.0938
Q22.4062 46.0938 18.4062 40.5469
Q14.4062 35 14.4062 25.7969
Q14.4062 16.5938 18.4062 11.0469
Q22.4062 5.5 29 5.5
Q35.7969 5.5 40 11.0469
Q44.2031 16.5938 44.2031 25.5
Q44.2031 34.9062 40.0469 40.5
Q35.9062 46.0938 29 46.0938" id="FreeSans-70"/>
      </defs>
      <g transform="translate(202.05713392 239.063935719)rotate(-45.0)scale(0.12 -0.12)">
       <use xlink:href="#FreeSans-69"/>
       <use x="22.1999969482" xlink:href="#FreeSans-6d"/>
       <use x="103.399978638" xlink:href="#FreeSans-70"/>
       <use x="159.299972534" xlink:href="#FreeSans-65"/>
       <use x="212.599960327" xlink:href="#FreeSans-6e"/>
       <use x="266.299957275" xlink:href="#FreeSans-73"/>
       <use x="315.599945068" xlink:href="#FreeSans-44"/>
       <use x="385.399932861" xlink:href="#FreeSans-61"/>
       <use x="439.699920654" xlink:href="#FreeSans-74"/>
       <use x="467.699905396" xlink:href="#FreeSans-61"/>
      </g>
     </g>
    </g>
   </g>
   <g id="matplotlib.axis_2">
    <g id="ytick_1">
     <g id="line2d_7">
      <defs>
       <path d="
M0 0
L4 0" id="m728421d6d4" style="stroke:#000000;stroke-width:0.5;"/>
      </defs>
      <g>
       <use style="stroke:#000000;stroke-width:0.5;" x="26.595625" xlink:href="#m728421d6d4" y="185.313670361"/>
      </g>
     </g>
     <g id="line2d_8">
      <defs>
       <path d="
M0 0
L-4 0" id="mcb0005524f" style="stroke:#000000;stroke-width:0.5;"/>
      </defs>
      <g>
       <use style="stroke:#000000;stroke-width:0.5;" x="305.595625" xlink:href="#mcb0005524f" y="185.313670361"/>
      </g>
     </g>
     <g id="text_4">
      <!-- 0.0 -->
      <defs>
       <path d="
M18.4062 10.4062
L18.4062 0
L8 0
L8 10.4062
z
" id="FreeSans-2e"/>
       <path d="
M4.29688 34.2969
Q4.29688 43.2031 5.79688 50
Q7.29688 56.7969 9.59375 60.6406
Q11.9062 64.5 15.0938 66.8906
Q18.2969 69.2969 21.25 70.0938
Q24.2031 70.9062 27.5 70.9062
Q50.7031 70.9062 50.7031 33.7031
Q50.7031 16.2031 44.75 6.95312
Q38.7969 -2.29688 27.5 -2.29688
Q16.0938 -2.29688 10.1875 7.04688
Q4.29688 16.4062 4.29688 34.2969
M41.7031 34.5
Q41.7031 63.0938 27.5 63.0938
Q13.2969 63.0938 13.2969 34.2031
Q13.2969 5 27.2969 5
Q34.7031 5 38.2031 12.2031
Q41.7031 19.4062 41.7031 34.5
z
" id="FreeSans-30"/>
      </defs>
      <g transform="translate(7.355625 188.380232861)scale(0.12 -0.12)">
       <use xlink:href="#FreeSans-30"/>
       <use x="55.5999908447" xlink:href="#FreeSans-2e"/>
       <use x="80.5999755859" xlink:href="#FreeSans-30"/>
      </g>
     </g>
    </g>
    <g id="ytick_2">
     <g id="line2d_9">
      <g>
       <use style="stroke:#000000;stroke-width:0.5;" x="26.595625" xlink:href="#m728421d6d4" y="150.827373789"/>
      </g>
     </g>
     <g id="line2d_10">
      <g>
       <use style="stroke:#000000;stroke-width:0.5;" x="305.595625" xlink:href="#mcb0005524f" y="150.827373789"/>
      </g>
     </g>
     <g id="text_5">
      <!-- 0.2 -->
      <defs>
       <path d="
M5 46.2969
Q5.70312 70.9062 28.4062 70.9062
Q38.5 70.9062 44.7969 65.0938
Q51.0938 59.2969 51.0938 50.0938
Q51.0938 36.9062 36.0938 28.7031
L26.0938 23.2969
Q19.5938 19.7969 16.7969 16.5
Q14 13.2031 13.2969 8.70312
L50.5938 8.70312
L50.5938 0
L3.40625 0
Q4 11.7031 8.09375 18.0469
Q12.2031 24.4062 23.2969 30.7031
L32.5 35.9062
Q42.0938 41.4062 42.0938 49.9062
Q42.0938 55.5938 38.0938 59.3906
Q34.0938 63.2031 28.0938 63.2031
Q14.7969 63.2031 13.7969 46.2969
z
" id="FreeSans-32"/>
      </defs>
      <g transform="translate(7.30875 153.893936289)scale(0.12 -0.12)">
       <use xlink:href="#FreeSans-30"/>
       <use x="55.5999908447" xlink:href="#FreeSans-2e"/>
       <use x="80.5999755859" xlink:href="#FreeSans-32"/>
      </g>
     </g>
    </g>
    <g id="ytick_3">
     <g id="line2d_11">
      <g>
       <use style="stroke:#000000;stroke-width:0.5;" x="26.595625" xlink:href="#m728421d6d4" y="116.341077217"/>
      </g>
     </g>
     <g id="line2d_12">
      <g>
       <use style="stroke:#000000;stroke-width:0.5;" x="305.595625" xlink:href="#mcb0005524f" y="116.341077217"/>
      </g>
     </g>
     <g id="text_6">
      <!-- 0.4 -->
      <g transform="translate(7.2 119.407639717)scale(0.12 -0.12)">
       <use xlink:href="#FreeSans-30"/>
       <use x="55.5999908447" xlink:href="#FreeSans-2e"/>
       <use x="80.5999755859" xlink:href="#FreeSans-34"/>
      </g>
     </g>
    </g>
    <g id="ytick_4">
     <g id="line2d_13">
      <g>
       <use style="stroke:#000000;stroke-width:0.5;" x="26.595625" xlink:href="#m728421d6d4" y="81.8547806445"/>
      </g>
     </g>
     <g id="line2d_14">
      <g>
       <use style="stroke:#000000;stroke-width:0.5;" x="305.595625" xlink:href="#mcb0005524f" y="81.8547806445"/>
      </g>
     </g>
     <g id="text_7">
      <!-- 0.6 -->
      <g transform="translate(7.284375 84.9213431445)scale(0.12 -0.12)">
       <use xlink:href="#FreeSans-30"/>
       <use x="55.5999908447" xlink:href="#FreeSans-2e"/>
       <use x="80.5999755859" xlink:href="#FreeSans-36"/>
      </g>
     </g>
    </g>
    <g id="ytick_5">
     <g id="line2d_15">
      <g>
       <use style="stroke:#000000;stroke-width:0.5;" x="26.595625" xlink:href="#m728421d6d4" y="47.3684840722"/>
      </g>
     </g>
     <g id="line2d_16">
      <g>
       <use style="stroke:#000000;stroke-width:0.5;" x="305.595625" xlink:href="#mcb0005524f" y="47.3684840722"/>
      </g>
     </g>
     <g id="text_8">
      <!-- 0.8 -->
      <defs>
       <path d="
M39.0938 37.2969
Q51.2969 31.5 51.2969 19.5938
Q51.2969 9.90625 44.6406 3.79688
Q38 -2.29688 27.5 -2.29688
Q17 -2.29688 10.3438 3.84375
Q3.70312 10 3.70312 19.7031
Q3.70312 31.5 15.7969 37.2969
Q10.4062 40.7031 8.29688 43.8906
Q6.20312 47.0938 6.20312 52
Q6.20312 60.2969 12.1406 65.5938
Q18.0938 70.9062 27.5 70.9062
Q36.9062 70.9062 42.8438 65.5938
Q48.7969 60.2969 48.7969 52
Q48.7969 47 46.6875 43.7969
Q44.5938 40.5938 39.0938 37.2969
M39.7969 57
Q33.0938 63.0938 27.5 63.0938
Q21.9062 63.0938 18.5469 60.0469
Q15.2031 57 15.2031 51.9062
Q15.2031 46.9062 18.5469 43.8438
Q21.9062 40.7969 27.5 40.7969
Q33 40.7969 36.3906 43.7969
Q39.7969 46.7969 39.7969 51.7969
Q39.7969 57 33.0938 63.0938
M42.2969 25.7031
Q34.0938 33.4062 27.5 33.4062
Q20.9062 33.4062 16.7969 29.5469
Q12.7031 25.7031 12.7031 19.5
Q12.7031 13.2969 16.75 9.39062
Q20.7969 5.5 27.2969 5.5
Q34 5.5 38.1406 9.34375
Q42.2969 13.2031 42.2969 19.5
Q42.2969 25.7031 34.0938 33.4062" id="FreeSans-38"/>
      </defs>
      <g transform="translate(7.284375 50.4350465722)scale(0.12 -0.12)">
       <use xlink:href="#FreeSans-30"/>
       <use x="55.5999908447" xlink:href="#FreeSans-2e"/>
       <use x="80.5999755859" xlink:href="#FreeSans-38"/>
      </g>
     </g>
    </g>
    <g id="ytick_6">
     <g id="line2d_17">
      <g>
       <use style="stroke:#000000;stroke-width:0.5;" x="26.595625" xlink:href="#m728421d6d4" y="12.8821875"/>
      </g>
     </g>
     <g id="line2d_18">
      <g>
       <use style="stroke:#000000;stroke-width:0.5;" x="305.595625" xlink:href="#mcb0005524f" y="12.8821875"/>
      </g>
     </g>
     <g id="text_9">
      <!-- 1.0 -->
      <defs>
       <path d="
M25.9062 50.5
L10.2031 50.5
L10.2031 56.7969
Q20.4062 58.0938 23.5 60.3906
Q26.5938 62.7031 28.9062 70.9062
L34.7031 70.9062
L34.7031 0
L25.9062 0
z
" id="FreeSans-31"/>
      </defs>
      <g transform="translate(8.064375 15.94875)scale(0.12 -0.12)">
       <use xlink:href="#FreeSans-31"/>
       <use x="55.5999908447" xlink:href="#FreeSans-2e"/>
       <use x="80.5999755859" xlink:href="#FreeSans-30"/>
      </g>
     </g>
    </g>
   </g>
   <g id="patch_3">
    <path clip-path="url(#pc400cdb12a)" d="
M26.5956 185.314
L49.8456 185.314
L49.8456 26.7507
L26.5956 26.7507
z
" style="fill:#a6cee3;stroke:#ffffff;"/>
   </g>
   <g id="patch_4">
    <path clip-path="url(#pc400cdb12a)" d="
M119.596 185.314
L142.846 185.314
L142.846 28.1609
L119.596 28.1609
z
" style="fill:#a6cee3;stroke:#ffffff;"/>
   </g>
   <g id="patch_5">
    <path clip-path="url(#pc400cdb12a)" d="
M212.596 185.314
L235.846 185.314
L235.846 87.3726
L212.596 87.3726
z
" style="fill:#a6cee3;stroke:#ffffff;"/>
   </g>
   <g id="patch_6">
    <path clip-path="url(#pc400cdb12a)" d="
M49.8456 185.314
L73.0956 185.314
L73.0956 37.8455
L49.8456 37.8455
z
" style="fill:#f17047;stroke:#ffffff;"/>
   </g>
   <g id="patch_7">
    <path clip-path="url(#pc400cdb12a)" d="
M142.846 185.314
L166.096 185.314
L166.096 39.8019
L142.846 39.8019
z
" style="fill:#f17047;stroke:#ffffff;"/>
   </g>
   <g id="patch_8">
    <path clip-path="url(#pc400cdb12a)" d="
M235.846 185.314
L259.096 185.314
L259.096 88.0623
L235.846 88.0623
z
" style="fill:#f17047;stroke:#ffffff;"/>
   </g>
   <g id="patch_9">
    <path clip-path="url(#pc400cdb12a)" d="
M73.0956 185.314
L96.3456 185.314
L96.3456 27.213
L73.0956 27.213
z
" style="fill:#b15928;stroke:#ffffff;"/>
   </g>
   <g id="patch_10">
    <path clip-path="url(#pc400cdb12a)" d="
M166.096 185.314
L189.346 185.314
L189.346 27.7971
L166.096 27.7971
z
" style="fill:#b15928;stroke:#ffffff;"/>
   </g>
   <g id="patch_11">
    <path clip-path="url(#pc400cdb12a)" d="
M259.096 185.314
L282.346 185.314
L282.346 85.9931
L259.096 85.9931
z
" style="fill:#b15928;stroke:#ffffff;"/>
   </g>
   <g id="patch_12">
    <path d="
M26.5956 12.8822
L305.596 12.8822" style="fill:none;stroke:#cccccc;"/>
   </g>
   <g id="patch_13">
    <path d="
M305.596 185.314
L305.596 12.8822" style="fill:none;stroke:#cccccc;"/>
   </g>
   <g id="patch_14">
    <path d="
M26.5956 185.314
L305.596 185.314" style="fill:none;stroke:#cccccc;"/>
   </g>
   <g id="patch_15">
    <path d="
M26.5956 185.314
L26.5956 12.8822" style="fill:none;stroke:#cccccc;"/>
   </g>
   <g id="legend_1">
    <g id="patch_16">
     <path d="
M326.746 89.7939
L497.8 89.7939
L497.8 20.0822
L326.746 20.0822
L326.746 89.7939
z
" style="fill:#ffffff;stroke:#cccccc;"/>
    </g>
    <g id="patch_17">
     <path d="
M333.946 37.7807
L362.746 37.7807
L362.746 27.7007
L333.946 27.7007
z
" style="fill:#a6cee3;stroke:#ffffff;"/>
    </g>
    <g id="text_10">
     <!-- Grid Search -->
     <defs>
      <path d="
M13.2969 36.2031
Q13.2969 32.4062 14 28.5469
Q14.7031 24.7031 16.5 20.5
Q18.2969 16.2969 21.1406 13.1406
Q24 10 28.7031 7.95312
Q33.4062 5.90625 39.4062 5.90625
Q49.4062 5.90625 55.8438 12.2031
Q62.2969 18.5 62.2969 28.2969
L62.2969 30.2969
L40.0938 30.2969
L40.0938 38.5
L70.5 38.5
L70.5 -0.40625
L64.5938 -0.40625
L62.2969 9.29688
Q51.9062 -2.29688 37.4062 -2.29688
Q22.5938 -2.29688 13.2969 8.29688
Q4 18.9062 4 35.7031
Q4 40.5 4.89062 45.3438
Q5.79688 50.2031 8.29688 55.5
Q10.7969 60.7969 14.5469 64.7969
Q18.2969 68.7969 24.6406 71.4375
Q31 74.0938 39 74.0938
Q51.5 74.0938 59.5469 68
Q67.5938 61.9062 69.5 50.7969
L60 50.7969
Q58.5 57.7969 52.8438 61.8438
Q47.2031 65.9062 38.9062 65.9062
Q27.2969 65.9062 20.2969 57.75
Q13.2969 49.5938 13.2969 36.2031" id="FreeSans-47"/>
      <path d="
M39.2969 36.2969
Q39.2969 41.7969 35.9375 44.1875
Q32.5938 46.5938 28.5 46.5938
Q22.0938 46.5938 18.1875 41.75
Q14.2969 36.9062 14.2969 28.9062
L14.2969 0
L6 0
L6 72.9062
L14.2969 72.9062
L14.2969 45.2031
Q18 50 21.75 51.9531
Q25.5 53.9062 31.0938 53.9062
Q38.7031 53.9062 43.1406 50.0469
Q47.5938 46.2031 47.5938 39.5938
L47.5938 0
L39.2969 0
z
" id="FreeSans-68"/>
      <path d="
M34.2031 5.90625
Q39.7969 5.90625 43.6875 7.20312
Q47.5938 8.5 49.4375 10.5938
Q51.2969 12.7031 52.0469 14.75
Q52.7969 16.7969 52.7969 19.0938
Q52.7969 27.4062 39.4062 30.9062
L21.2969 35.7031
Q7 39.4062 7 52.7031
Q7 62.5938 13.9531 68.3438
Q20.9062 74.0938 32.9062 74.0938
Q45.5 74.0938 52.5 68.1406
Q59.5 62.2031 59.5938 51.5
L50.7969 51.5
Q50.7031 58.5938 46 62.4375
Q41.2969 66.2969 32.5938 66.2969
Q25.2031 66.2969 20.75 62.8906
Q16.2969 59.5 16.2969 54
Q16.2969 49.7969 19 47.3906
Q21.7031 45 28.2969 43.2031
L46.5938 38.2969
Q54 36.2969 58.0469 31.5
Q62.0938 26.7031 62.0938 20
Q62.0938 17.0938 61.3438 14.25
Q60.5938 11.4062 58.5938 8.34375
Q56.5938 5.29688 53.5 3
Q50.4062 0.703125 45.25 -0.796875
Q40.0938 -2.29688 33.5938 -2.29688
Q29.5 -2.29688 25.75 -1.64062
Q22 -1 18.0938 0.75
Q14.2031 2.5 11.3906 5.25
Q8.59375 8 6.75 12.5938
Q4.90625 17.2031 4.79688 23.2031
L13.5938 23.2031
L13.5938 22.7031
Q13.5938 19.5938 14.5469 16.8906
Q15.5 14.2031 17.6406 11.5938
Q19.7969 9 24.0469 7.45312
Q28.2969 5.90625 34.2031 5.90625" id="FreeSans-53"/>
     </defs>
     <g transform="translate(374.265625 37.7806875)scale(0.144 -0.144)">
      <use xlink:href="#FreeSans-47"/>
      <use x="76.4999847412" xlink:href="#FreeSans-72"/>
      <use x="109.699981689" xlink:href="#FreeSans-69"/>
      <use x="131.899978638" xlink:href="#FreeSans-64"/>
      <use x="187.799972534" xlink:href="#FreeSans-20"/>
      <use x="212.799957275" xlink:href="#FreeSans-53"/>
      <use x="279.499954224" xlink:href="#FreeSans-65"/>
      <use x="332.799942017" xlink:href="#FreeSans-61"/>
      <use x="387.09992981" xlink:href="#FreeSans-72"/>
      <use x="420.299926758" xlink:href="#FreeSans-63"/>
      <use x="470.899917603" xlink:href="#FreeSans-68"/>
     </g>
    </g>
    <g id="patch_18">
     <path d="
M333.946 58.6179
L362.746 58.6179
L362.746 48.5379
L333.946 48.5379
z
" style="fill:#f17047;stroke:#ffffff;"/>
    </g>
    <g id="text_11">
     <!-- Maximise variance -->
     <defs>
      <path d="
M28.5 0
L19.4062 0
L1 52.4062
L10.4062 52.4062
L24.4062 9.90625
L39.2031 52.4062
L48.5938 52.4062
z
" id="FreeSans-76"/>
      <path d="
M47.2969 0
L37.5 0
L16.7969 61.0938
L16.7969 0
L8 0
L8 72.9062
L20.9062 72.9062
L42.5 9.40625
L63.7031 72.9062
L76.5938 72.9062
L76.5938 0
L67.7969 0
L67.7969 61.0938
z
" id="FreeSans-4d"/>
      <path d="
M28.5 27.0938
L46.5938 0
L36.9062 0
L23.7969 20.0938
L10.5 0
L1 0
L19.5 26.7031
L2 52.4062
L11.5 52.4062
L24.0938 33.4062
L36.7031 52.4062
L46.0938 52.4062
z
" id="FreeSans-78"/>
     </defs>
     <g transform="translate(374.265625 58.6179375)scale(0.144 -0.144)">
      <use xlink:href="#FreeSans-4d"/>
      <use x="84.5999908447" xlink:href="#FreeSans-61"/>
      <use x="138.899978638" xlink:href="#FreeSans-78"/>
      <use x="186.499969482" xlink:href="#FreeSans-69"/>
      <use x="208.699966431" xlink:href="#FreeSans-6d"/>
      <use x="289.89994812" xlink:href="#FreeSans-69"/>
      <use x="312.099945068" xlink:href="#FreeSans-73"/>
      <use x="361.399932861" xlink:href="#FreeSans-65"/>
      <use x="414.699920654" xlink:href="#FreeSans-20"/>
      <use x="439.699905396" xlink:href="#FreeSans-76"/>
      <use x="489.29989624" xlink:href="#FreeSans-61"/>
      <use x="543.599884033" xlink:href="#FreeSans-72"/>
      <use x="576.799880981" xlink:href="#FreeSans-69"/>
      <use x="598.99987793" xlink:href="#FreeSans-61"/>
      <use x="653.299865723" xlink:href="#FreeSans-6e"/>
      <use x="706.999862671" xlink:href="#FreeSans-63"/>
      <use x="757.599853516" xlink:href="#FreeSans-65"/>
     </g>
    </g>
    <g id="patch_19">
     <path d="
M333.946 79.4552
L362.746 79.4552
L362.746 69.3752
L333.946 69.3752
z
" style="fill:#b15928;stroke:#ffffff;"/>
    </g>
    <g id="text_12">
     <!-- Mean to half -->
     <defs>
      <path d="
M14.4062 72.9062
L14.4062 0
L6 0
L6 72.9062
z
" id="FreeSans-6c"/>
      <path d="
M26 52.4062
L26 45.5938
L17.2969 45.5938
L17.2969 0
L9 0
L9 45.5938
L2 45.5938
L2 52.4062
L9 52.4062
L9 61.2969
Q9 66.9062 12.25 70.0469
Q15.5 73.2031 21.2969 73.2031
Q23.5938 73.2031 26 72.7031
L26 65.7969
Q24.0938 65.9062 23.0938 65.9062
Q17.2969 65.9062 17.2969 60.5938
L17.2969 52.4062
z
" id="FreeSans-66"/>
     </defs>
     <g transform="translate(374.265625 79.4551875)scale(0.144 -0.144)">
      <use xlink:href="#FreeSans-4d"/>
      <use x="84.5999908447" xlink:href="#FreeSans-65"/>
      <use x="137.899978638" xlink:href="#FreeSans-61"/>
      <use x="192.199966431" xlink:href="#FreeSans-6e"/>
      <use x="245.899963379" xlink:href="#FreeSans-20"/>
      <use x="270.89994812" xlink:href="#FreeSans-74"/>
      <use x="298.899932861" xlink:href="#FreeSans-6f"/>
      <use x="352.299926758" xlink:href="#FreeSans-20"/>
      <use x="377.299911499" xlink:href="#FreeSans-68"/>
      <use x="430.899902344" xlink:href="#FreeSans-61"/>
      <use x="485.199890137" xlink:href="#FreeSans-6c"/>
      <use x="506.599884033" xlink:href="#FreeSans-66"/>
     </g>
    </g>
   </g>
  </g>
 </g>
 <defs>
  <clipPath id="pc400cdb12a">
   <rect height="172.431482861" width="279.0" x="26.595625" y="12.8821875"/>
  </clipPath>
 </defs>
</svg>
