<?xml version="1.0" encoding="utf-8" standalone="no"?>
<!DOCTYPE svg PUBLIC "-//W3C//DTD SVG 1.1//EN"
  "http://www.w3.org/Graphics/SVG/1.1/DTD/svg11.dtd">
<!-- Created with matplotlib (https://matplotlib.org/) -->
<svg height="353.285pt" version="1.1" viewBox="0 0 713.19 353.285" width="713.19pt" xmlns="http://www.w3.org/2000/svg" xmlns:xlink="http://www.w3.org/1999/xlink">
 <defs>
  <style type="text/css">
*{stroke-linecap:butt;stroke-linejoin:round;}
  </style>
 </defs>
 <g id="figure_1">
  <g id="patch_1">
   <path d="M 0 353.285 
L 713.19 353.285 
L 713.19 0 
L 0 0 
z
" style="fill:none;"/>
  </g>
  <g id="axes_1">
   <g id="patch_2">
    <path d="M 64.84 323.6 
L 705.99 323.6 
L 705.99 7.2 
L 64.84 7.2 
z
" style="fill:none;"/>
   </g>
   <g id="matplotlib.axis_1">
    <g id="xtick_1">
     <g id="line2d_1">
      <defs>
       <path d="M 0 0 
L 0 3.5 
" id="m4362dadfe7" style="stroke:#003559;stroke-width:0.8;"/>
      </defs>
      <g>
       <use style="fill:#003559;stroke:#003559;stroke-width:0.8;" x="93.983182" xlink:href="#m4362dadfe7" y="323.6"/>
      </g>
     </g>
     <g id="text_1">
      <!-- 2010 -->
      <defs>
       <path d="M 19.1875 8.296875 
L 53.609375 8.296875 
L 53.609375 0 
L 7.328125 0 
L 7.328125 8.296875 
Q 12.9375 14.109375 22.625 23.890625 
Q 32.328125 33.6875 34.8125 36.53125 
Q 39.546875 41.84375 41.421875 45.53125 
Q 43.3125 49.21875 43.3125 52.78125 
Q 43.3125 58.59375 39.234375 62.25 
Q 35.15625 65.921875 28.609375 65.921875 
Q 23.96875 65.921875 18.8125 64.3125 
Q 13.671875 62.703125 7.8125 59.421875 
L 7.8125 69.390625 
Q 13.765625 71.78125 18.9375 73 
Q 24.125 74.21875 28.421875 74.21875 
Q 39.75 74.21875 46.484375 68.546875 
Q 53.21875 62.890625 53.21875 53.421875 
Q 53.21875 48.921875 51.53125 44.890625 
Q 49.859375 40.875 45.40625 35.40625 
Q 44.1875 33.984375 37.640625 27.21875 
Q 31.109375 20.453125 19.1875 8.296875 
z
" id="DejaVuSans-50"/>
       <path d="M 31.78125 66.40625 
Q 24.171875 66.40625 20.328125 58.90625 
Q 16.5 51.421875 16.5 36.375 
Q 16.5 21.390625 20.328125 13.890625 
Q 24.171875 6.390625 31.78125 6.390625 
Q 39.453125 6.390625 43.28125 13.890625 
Q 47.125 21.390625 47.125 36.375 
Q 47.125 51.421875 43.28125 58.90625 
Q 39.453125 66.40625 31.78125 66.40625 
z
M 31.78125 74.21875 
Q 44.046875 74.21875 50.515625 64.515625 
Q 56.984375 54.828125 56.984375 36.375 
Q 56.984375 17.96875 50.515625 8.265625 
Q 44.046875 -1.421875 31.78125 -1.421875 
Q 19.53125 -1.421875 13.0625 8.265625 
Q 6.59375 17.96875 6.59375 36.375 
Q 6.59375 54.828125 13.0625 64.515625 
Q 19.53125 74.21875 31.78125 74.21875 
z
" id="DejaVuSans-48"/>
       <path d="M 12.40625 8.296875 
L 28.515625 8.296875 
L 28.515625 63.921875 
L 10.984375 60.40625 
L 10.984375 69.390625 
L 28.421875 72.90625 
L 38.28125 72.90625 
L 38.28125 8.296875 
L 54.390625 8.296875 
L 54.390625 0 
L 12.40625 0 
z
" id="DejaVuSans-49"/>
      </defs>
      <g style="fill:#2f2235;" transform="translate(73.623182 342.7575)scale(0.16 -0.16)">
       <use xlink:href="#DejaVuSans-50"/>
       <use x="63.623047" xlink:href="#DejaVuSans-48"/>
       <use x="127.246094" xlink:href="#DejaVuSans-49"/>
       <use x="190.869141" xlink:href="#DejaVuSans-48"/>
      </g>
     </g>
    </g>
    <g id="xtick_2">
     <g id="line2d_2">
      <g>
       <use style="fill:#003559;stroke:#003559;stroke-width:0.8;" x="190.416745" xlink:href="#m4362dadfe7" y="323.6"/>
      </g>
     </g>
     <g id="text_2">
      <!-- Jul -->
      <defs>
       <path d="M 9.8125 72.90625 
L 19.671875 72.90625 
L 19.671875 5.078125 
Q 19.671875 -8.109375 14.671875 -14.0625 
Q 9.671875 -20.015625 -1.421875 -20.015625 
L -5.171875 -20.015625 
L -5.171875 -11.71875 
L -2.09375 -11.71875 
Q 4.4375 -11.71875 7.125 -8.046875 
Q 9.8125 -4.390625 9.8125 5.078125 
z
" id="DejaVuSans-74"/>
       <path d="M 8.5 21.578125 
L 8.5 54.6875 
L 17.484375 54.6875 
L 17.484375 21.921875 
Q 17.484375 14.15625 20.5 10.265625 
Q 23.53125 6.390625 29.59375 6.390625 
Q 36.859375 6.390625 41.078125 11.03125 
Q 45.3125 15.671875 45.3125 23.6875 
L 45.3125 54.6875 
L 54.296875 54.6875 
L 54.296875 0 
L 45.3125 0 
L 45.3125 8.40625 
Q 42.046875 3.421875 37.71875 1 
Q 33.40625 -1.421875 27.6875 -1.421875 
Q 18.265625 -1.421875 13.375 4.4375 
Q 8.5 10.296875 8.5 21.578125 
z
M 31.109375 56 
z
" id="DejaVuSans-117"/>
       <path d="M 9.421875 75.984375 
L 18.40625 75.984375 
L 18.40625 0 
L 9.421875 0 
z
" id="DejaVuSans-108"/>
      </defs>
      <g style="fill:#2f2235;" transform="translate(180.764245 342.7575)scale(0.16 -0.16)">
       <use xlink:href="#DejaVuSans-74"/>
       <use x="29.492188" xlink:href="#DejaVuSans-117"/>
       <use x="92.871094" xlink:href="#DejaVuSans-108"/>
      </g>
     </g>
    </g>
    <g id="xtick_3">
     <g id="line2d_3">
      <g>
       <use style="fill:#003559;stroke:#003559;stroke-width:0.8;" x="288.448655" xlink:href="#m4362dadfe7" y="323.6"/>
      </g>
     </g>
     <g id="text_3">
      <!-- 2011 -->
      <g style="fill:#2f2235;" transform="translate(268.088655 342.7575)scale(0.16 -0.16)">
       <use xlink:href="#DejaVuSans-50"/>
       <use x="63.623047" xlink:href="#DejaVuSans-48"/>
       <use x="127.246094" xlink:href="#DejaVuSans-49"/>
       <use x="190.869141" xlink:href="#DejaVuSans-49"/>
      </g>
     </g>
    </g>
    <g id="xtick_4">
     <g id="line2d_4">
      <g>
       <use style="fill:#003559;stroke:#003559;stroke-width:0.8;" x="384.882218" xlink:href="#m4362dadfe7" y="323.6"/>
      </g>
     </g>
     <g id="text_4">
      <!-- Jul -->
      <g style="fill:#2f2235;" transform="translate(375.229718 342.7575)scale(0.16 -0.16)">
       <use xlink:href="#DejaVuSans-74"/>
       <use x="29.492188" xlink:href="#DejaVuSans-117"/>
       <use x="92.871094" xlink:href="#DejaVuSans-108"/>
      </g>
     </g>
    </g>
    <g id="xtick_5">
     <g id="line2d_5">
      <g>
       <use style="fill:#003559;stroke:#003559;stroke-width:0.8;" x="482.914127" xlink:href="#m4362dadfe7" y="323.6"/>
      </g>
     </g>
     <g id="text_5">
      <!-- 2012 -->
      <g style="fill:#2f2235;" transform="translate(462.554127 342.7575)scale(0.16 -0.16)">
       <use xlink:href="#DejaVuSans-50"/>
       <use x="63.623047" xlink:href="#DejaVuSans-48"/>
       <use x="127.246094" xlink:href="#DejaVuSans-49"/>
       <use x="190.869141" xlink:href="#DejaVuSans-50"/>
      </g>
     </g>
    </g>
    <g id="xtick_6">
     <g id="line2d_6">
      <g>
       <use style="fill:#003559;stroke:#003559;stroke-width:0.8;" x="579.880473" xlink:href="#m4362dadfe7" y="323.6"/>
      </g>
     </g>
     <g id="text_6">
      <!-- Jul -->
      <g style="fill:#2f2235;" transform="translate(570.227973 342.7575)scale(0.16 -0.16)">
       <use xlink:href="#DejaVuSans-74"/>
       <use x="29.492188" xlink:href="#DejaVuSans-117"/>
       <use x="92.871094" xlink:href="#DejaVuSans-108"/>
      </g>
     </g>
    </g>
    <g id="xtick_7">
     <g id="line2d_7">
      <g>
       <use style="fill:#003559;stroke:#003559;stroke-width:0.8;" x="677.912382" xlink:href="#m4362dadfe7" y="323.6"/>
      </g>
     </g>
     <g id="text_7">
      <!-- 2013 -->
      <defs>
       <path d="M 40.578125 39.3125 
Q 47.65625 37.796875 51.625 33 
Q 55.609375 28.21875 55.609375 21.1875 
Q 55.609375 10.40625 48.1875 4.484375 
Q 40.765625 -1.421875 27.09375 -1.421875 
Q 22.515625 -1.421875 17.65625 -0.515625 
Q 12.796875 0.390625 7.625 2.203125 
L 7.625 11.71875 
Q 11.71875 9.328125 16.59375 8.109375 
Q 21.484375 6.890625 26.8125 6.890625 
Q 36.078125 6.890625 40.9375 10.546875 
Q 45.796875 14.203125 45.796875 21.1875 
Q 45.796875 27.640625 41.28125 31.265625 
Q 36.765625 34.90625 28.71875 34.90625 
L 20.21875 34.90625 
L 20.21875 43.015625 
L 29.109375 43.015625 
Q 36.375 43.015625 40.234375 45.921875 
Q 44.09375 48.828125 44.09375 54.296875 
Q 44.09375 59.90625 40.109375 62.90625 
Q 36.140625 65.921875 28.71875 65.921875 
Q 24.65625 65.921875 20.015625 65.03125 
Q 15.375 64.15625 9.8125 62.3125 
L 9.8125 71.09375 
Q 15.4375 72.65625 20.34375 73.4375 
Q 25.25 74.21875 29.59375 74.21875 
Q 40.828125 74.21875 47.359375 69.109375 
Q 53.90625 64.015625 53.90625 55.328125 
Q 53.90625 49.265625 50.4375 45.09375 
Q 46.96875 40.921875 40.578125 39.3125 
z
" id="DejaVuSans-51"/>
      </defs>
      <g style="fill:#2f2235;" transform="translate(657.552382 342.7575)scale(0.16 -0.16)">
       <use xlink:href="#DejaVuSans-50"/>
       <use x="63.623047" xlink:href="#DejaVuSans-48"/>
       <use x="127.246094" xlink:href="#DejaVuSans-49"/>
       <use x="190.869141" xlink:href="#DejaVuSans-51"/>
      </g>
     </g>
    </g>
   </g>
   <g id="matplotlib.axis_2">
    <g id="ytick_1">
     <g id="line2d_8">
      <path clip-path="url(#p1672968792)" d="M 64.84 297.524039 
L 705.99 297.524039 
" style="fill:none;stroke:#f0f0f0;stroke-linecap:square;"/>
     </g>
     <g id="line2d_9">
      <defs>
       <path d="M 0 0 
L -3.5 0 
" id="mf13f1a2e62" style="stroke:#003559;stroke-width:0.8;"/>
      </defs>
      <g>
       <use style="fill:#003559;stroke:#003559;stroke-width:0.8;" x="64.84" xlink:href="#mf13f1a2e62" y="297.524039"/>
      </g>
     </g>
     <g id="text_8">
      <!-- -6% -->
      <defs>
       <path d="M 4.890625 31.390625 
L 31.203125 31.390625 
L 31.203125 23.390625 
L 4.890625 23.390625 
z
" id="DejaVuSans-45"/>
       <path d="M 33.015625 40.375 
Q 26.375 40.375 22.484375 35.828125 
Q 18.609375 31.296875 18.609375 23.390625 
Q 18.609375 15.53125 22.484375 10.953125 
Q 26.375 6.390625 33.015625 6.390625 
Q 39.65625 6.390625 43.53125 10.953125 
Q 47.40625 15.53125 47.40625 23.390625 
Q 47.40625 31.296875 43.53125 35.828125 
Q 39.65625 40.375 33.015625 40.375 
z
M 52.59375 71.296875 
L 52.59375 62.3125 
Q 48.875 64.0625 45.09375 64.984375 
Q 41.3125 65.921875 37.59375 65.921875 
Q 27.828125 65.921875 22.671875 59.328125 
Q 17.53125 52.734375 16.796875 39.40625 
Q 19.671875 43.65625 24.015625 45.921875 
Q 28.375 48.1875 33.59375 48.1875 
Q 44.578125 48.1875 50.953125 41.515625 
Q 57.328125 34.859375 57.328125 23.390625 
Q 57.328125 12.15625 50.6875 5.359375 
Q 44.046875 -1.421875 33.015625 -1.421875 
Q 20.359375 -1.421875 13.671875 8.265625 
Q 6.984375 17.96875 6.984375 36.375 
Q 6.984375 53.65625 15.1875 63.9375 
Q 23.390625 74.21875 37.203125 74.21875 
Q 40.921875 74.21875 44.703125 73.484375 
Q 48.484375 72.75 52.59375 71.296875 
z
" id="DejaVuSans-54"/>
       <path d="M 72.703125 32.078125 
Q 68.453125 32.078125 66.03125 28.46875 
Q 63.625 24.859375 63.625 18.40625 
Q 63.625 12.0625 66.03125 8.421875 
Q 68.453125 4.78125 72.703125 4.78125 
Q 76.859375 4.78125 79.265625 8.421875 
Q 81.6875 12.0625 81.6875 18.40625 
Q 81.6875 24.8125 79.265625 28.4375 
Q 76.859375 32.078125 72.703125 32.078125 
z
M 72.703125 38.28125 
Q 80.421875 38.28125 84.953125 32.90625 
Q 89.5 27.546875 89.5 18.40625 
Q 89.5 9.28125 84.9375 3.921875 
Q 80.375 -1.421875 72.703125 -1.421875 
Q 64.890625 -1.421875 60.34375 3.921875 
Q 55.8125 9.28125 55.8125 18.40625 
Q 55.8125 27.59375 60.375 32.9375 
Q 64.9375 38.28125 72.703125 38.28125 
z
M 22.3125 68.015625 
Q 18.109375 68.015625 15.6875 64.375 
Q 13.28125 60.75 13.28125 54.390625 
Q 13.28125 47.953125 15.671875 44.328125 
Q 18.0625 40.71875 22.3125 40.71875 
Q 26.5625 40.71875 28.96875 44.328125 
Q 31.390625 47.953125 31.390625 54.390625 
Q 31.390625 60.6875 28.953125 64.34375 
Q 26.515625 68.015625 22.3125 68.015625 
z
M 66.40625 74.21875 
L 74.21875 74.21875 
L 28.609375 -1.421875 
L 20.796875 -1.421875 
z
M 22.3125 74.21875 
Q 30.03125 74.21875 34.609375 68.875 
Q 39.203125 63.53125 39.203125 54.390625 
Q 39.203125 45.171875 34.640625 39.84375 
Q 30.078125 34.515625 22.3125 34.515625 
Q 14.546875 34.515625 10.03125 39.859375 
Q 5.515625 45.21875 5.515625 54.390625 
Q 5.515625 63.484375 10.046875 68.84375 
Q 14.59375 74.21875 22.3125 74.21875 
z
" id="DejaVuSans-37"/>
      </defs>
      <g style="fill:#2f2235;" transform="translate(26.685 303.602789)scale(0.16 -0.16)">
       <use xlink:href="#DejaVuSans-45"/>
       <use x="36.083984" xlink:href="#DejaVuSans-54"/>
       <use x="99.707031" xlink:href="#DejaVuSans-37"/>
      </g>
     </g>
    </g>
    <g id="ytick_2">
     <g id="line2d_10">
      <path clip-path="url(#p1672968792)" d="M 64.84 251.533669 
L 705.99 251.533669 
" style="fill:none;stroke:#f0f0f0;stroke-linecap:square;"/>
     </g>
     <g id="line2d_11">
      <g>
       <use style="fill:#003559;stroke:#003559;stroke-width:0.8;" x="64.84" xlink:href="#mf13f1a2e62" y="251.533669"/>
      </g>
     </g>
     <g id="text_9">
      <!-- -5% -->
      <defs>
       <path d="M 10.796875 72.90625 
L 49.515625 72.90625 
L 49.515625 64.59375 
L 19.828125 64.59375 
L 19.828125 46.734375 
Q 21.96875 47.46875 24.109375 47.828125 
Q 26.265625 48.1875 28.421875 48.1875 
Q 40.625 48.1875 47.75 41.5 
Q 54.890625 34.8125 54.890625 23.390625 
Q 54.890625 11.625 47.5625 5.09375 
Q 40.234375 -1.421875 26.90625 -1.421875 
Q 22.3125 -1.421875 17.546875 -0.640625 
Q 12.796875 0.140625 7.71875 1.703125 
L 7.71875 11.625 
Q 12.109375 9.234375 16.796875 8.0625 
Q 21.484375 6.890625 26.703125 6.890625 
Q 35.15625 6.890625 40.078125 11.328125 
Q 45.015625 15.765625 45.015625 23.390625 
Q 45.015625 31 40.078125 35.4375 
Q 35.15625 39.890625 26.703125 39.890625 
Q 22.75 39.890625 18.8125 39.015625 
Q 14.890625 38.140625 10.796875 36.28125 
z
" id="DejaVuSans-53"/>
      </defs>
      <g style="fill:#2f2235;" transform="translate(26.685 257.612419)scale(0.16 -0.16)">
       <use xlink:href="#DejaVuSans-45"/>
       <use x="36.083984" xlink:href="#DejaVuSans-53"/>
       <use x="99.707031" xlink:href="#DejaVuSans-37"/>
      </g>
     </g>
    </g>
    <g id="ytick_3">
     <g id="line2d_12">
      <path clip-path="url(#p1672968792)" d="M 64.84 205.543299 
L 705.99 205.543299 
" style="fill:none;stroke:#f0f0f0;stroke-linecap:square;"/>
     </g>
     <g id="line2d_13">
      <g>
       <use style="fill:#003559;stroke:#003559;stroke-width:0.8;" x="64.84" xlink:href="#mf13f1a2e62" y="205.543299"/>
      </g>
     </g>
     <g id="text_10">
      <!-- -4% -->
      <defs>
       <path d="M 37.796875 64.3125 
L 12.890625 25.390625 
L 37.796875 25.390625 
z
M 35.203125 72.90625 
L 47.609375 72.90625 
L 47.609375 25.390625 
L 58.015625 25.390625 
L 58.015625 17.1875 
L 47.609375 17.1875 
L 47.609375 0 
L 37.796875 0 
L 37.796875 17.1875 
L 4.890625 17.1875 
L 4.890625 26.703125 
z
" id="DejaVuSans-52"/>
      </defs>
      <g style="fill:#2f2235;" transform="translate(26.685 211.622049)scale(0.16 -0.16)">
       <use xlink:href="#DejaVuSans-45"/>
       <use x="36.083984" xlink:href="#DejaVuSans-52"/>
       <use x="99.707031" xlink:href="#DejaVuSans-37"/>
      </g>
     </g>
    </g>
    <g id="ytick_4">
     <g id="line2d_14">
      <path clip-path="url(#p1672968792)" d="M 64.84 159.552929 
L 705.99 159.552929 
" style="fill:none;stroke:#f0f0f0;stroke-linecap:square;"/>
     </g>
     <g id="line2d_15">
      <g>
       <use style="fill:#003559;stroke:#003559;stroke-width:0.8;" x="64.84" xlink:href="#mf13f1a2e62" y="159.552929"/>
      </g>
     </g>
     <g id="text_11">
      <!-- -3% -->
      <g style="fill:#2f2235;" transform="translate(26.685 165.631679)scale(0.16 -0.16)">
       <use xlink:href="#DejaVuSans-45"/>
       <use x="36.083984" xlink:href="#DejaVuSans-51"/>
       <use x="99.707031" xlink:href="#DejaVuSans-37"/>
      </g>
     </g>
    </g>
    <g id="ytick_5">
     <g id="line2d_16">
      <path clip-path="url(#p1672968792)" d="M 64.84 113.562558 
L 705.99 113.562558 
" style="fill:none;stroke:#f0f0f0;stroke-linecap:square;"/>
     </g>
     <g id="line2d_17">
      <g>
       <use style="fill:#003559;stroke:#003559;stroke-width:0.8;" x="64.84" xlink:href="#mf13f1a2e62" y="113.562558"/>
      </g>
     </g>
     <g id="text_12">
      <!-- -2% -->
      <g style="fill:#2f2235;" transform="translate(26.685 119.641308)scale(0.16 -0.16)">
       <use xlink:href="#DejaVuSans-45"/>
       <use x="36.083984" xlink:href="#DejaVuSans-50"/>
       <use x="99.707031" xlink:href="#DejaVuSans-37"/>
      </g>
     </g>
    </g>
    <g id="ytick_6">
     <g id="line2d_18">
      <path clip-path="url(#p1672968792)" d="M 64.84 67.572188 
L 705.99 67.572188 
" style="fill:none;stroke:#f0f0f0;stroke-linecap:square;"/>
     </g>
     <g id="line2d_19">
      <g>
       <use style="fill:#003559;stroke:#003559;stroke-width:0.8;" x="64.84" xlink:href="#mf13f1a2e62" y="67.572188"/>
      </g>
     </g>
     <g id="text_13">
      <!-- -1% -->
      <g style="fill:#2f2235;" transform="translate(26.685 73.650938)scale(0.16 -0.16)">
       <use xlink:href="#DejaVuSans-45"/>
       <use x="36.083984" xlink:href="#DejaVuSans-49"/>
       <use x="99.707031" xlink:href="#DejaVuSans-37"/>
      </g>
     </g>
    </g>
    <g id="ytick_7">
     <g id="line2d_20">
      <path clip-path="url(#p1672968792)" d="M 64.84 21.581818 
L 705.99 21.581818 
" style="fill:none;stroke:#f0f0f0;stroke-linecap:square;"/>
     </g>
     <g id="line2d_21">
      <g>
       <use style="fill:#003559;stroke:#003559;stroke-width:0.8;" x="64.84" xlink:href="#mf13f1a2e62" y="21.581818"/>
      </g>
     </g>
     <g id="text_14">
      <!-- 0% -->
      <g style="fill:#2f2235;" transform="translate(32.4575 27.660568)scale(0.16 -0.16)">
       <use xlink:href="#DejaVuSans-48"/>
       <use x="63.623047" xlink:href="#DejaVuSans-37"/>
      </g>
     </g>
    </g>
    <g id="text_15">
     <!-- Drawdown -->
     <defs>
      <path d="M 19.671875 64.796875 
L 19.671875 8.109375 
L 31.59375 8.109375 
Q 46.6875 8.109375 53.6875 14.9375 
Q 60.6875 21.78125 60.6875 36.53125 
Q 60.6875 51.171875 53.6875 57.984375 
Q 46.6875 64.796875 31.59375 64.796875 
z
M 9.8125 72.90625 
L 30.078125 72.90625 
Q 51.265625 72.90625 61.171875 64.09375 
Q 71.09375 55.28125 71.09375 36.53125 
Q 71.09375 17.671875 61.125 8.828125 
Q 51.171875 0 30.078125 0 
L 9.8125 0 
z
" id="DejaVuSans-68"/>
      <path d="M 41.109375 46.296875 
Q 39.59375 47.171875 37.8125 47.578125 
Q 36.03125 48 33.890625 48 
Q 26.265625 48 22.1875 43.046875 
Q 18.109375 38.09375 18.109375 28.8125 
L 18.109375 0 
L 9.078125 0 
L 9.078125 54.6875 
L 18.109375 54.6875 
L 18.109375 46.1875 
Q 20.953125 51.171875 25.484375 53.578125 
Q 30.03125 56 36.53125 56 
Q 37.453125 56 38.578125 55.875 
Q 39.703125 55.765625 41.0625 55.515625 
z
" id="DejaVuSans-114"/>
      <path d="M 34.28125 27.484375 
Q 23.390625 27.484375 19.1875 25 
Q 14.984375 22.515625 14.984375 16.5 
Q 14.984375 11.71875 18.140625 8.90625 
Q 21.296875 6.109375 26.703125 6.109375 
Q 34.1875 6.109375 38.703125 11.40625 
Q 43.21875 16.703125 43.21875 25.484375 
L 43.21875 27.484375 
z
M 52.203125 31.203125 
L 52.203125 0 
L 43.21875 0 
L 43.21875 8.296875 
Q 40.140625 3.328125 35.546875 0.953125 
Q 30.953125 -1.421875 24.3125 -1.421875 
Q 15.921875 -1.421875 10.953125 3.296875 
Q 6 8.015625 6 15.921875 
Q 6 25.140625 12.171875 29.828125 
Q 18.359375 34.515625 30.609375 34.515625 
L 43.21875 34.515625 
L 43.21875 35.40625 
Q 43.21875 41.609375 39.140625 45 
Q 35.0625 48.390625 27.6875 48.390625 
Q 23 48.390625 18.546875 47.265625 
Q 14.109375 46.140625 10.015625 43.890625 
L 10.015625 52.203125 
Q 14.9375 54.109375 19.578125 55.046875 
Q 24.21875 56 28.609375 56 
Q 40.484375 56 46.34375 49.84375 
Q 52.203125 43.703125 52.203125 31.203125 
z
" id="DejaVuSans-97"/>
      <path d="M 4.203125 54.6875 
L 13.1875 54.6875 
L 24.421875 12.015625 
L 35.59375 54.6875 
L 46.1875 54.6875 
L 57.421875 12.015625 
L 68.609375 54.6875 
L 77.59375 54.6875 
L 63.28125 0 
L 52.6875 0 
L 40.921875 44.828125 
L 29.109375 0 
L 18.5 0 
z
" id="DejaVuSans-119"/>
      <path d="M 45.40625 46.390625 
L 45.40625 75.984375 
L 54.390625 75.984375 
L 54.390625 0 
L 45.40625 0 
L 45.40625 8.203125 
Q 42.578125 3.328125 38.25 0.953125 
Q 33.9375 -1.421875 27.875 -1.421875 
Q 17.96875 -1.421875 11.734375 6.484375 
Q 5.515625 14.40625 5.515625 27.296875 
Q 5.515625 40.1875 11.734375 48.09375 
Q 17.96875 56 27.875 56 
Q 33.9375 56 38.25 53.625 
Q 42.578125 51.265625 45.40625 46.390625 
z
M 14.796875 27.296875 
Q 14.796875 17.390625 18.875 11.75 
Q 22.953125 6.109375 30.078125 6.109375 
Q 37.203125 6.109375 41.296875 11.75 
Q 45.40625 17.390625 45.40625 27.296875 
Q 45.40625 37.203125 41.296875 42.84375 
Q 37.203125 48.484375 30.078125 48.484375 
Q 22.953125 48.484375 18.875 42.84375 
Q 14.796875 37.203125 14.796875 27.296875 
z
" id="DejaVuSans-100"/>
      <path d="M 30.609375 48.390625 
Q 23.390625 48.390625 19.1875 42.75 
Q 14.984375 37.109375 14.984375 27.296875 
Q 14.984375 17.484375 19.15625 11.84375 
Q 23.34375 6.203125 30.609375 6.203125 
Q 37.796875 6.203125 41.984375 11.859375 
Q 46.1875 17.53125 46.1875 27.296875 
Q 46.1875 37.015625 41.984375 42.703125 
Q 37.796875 48.390625 30.609375 48.390625 
z
M 30.609375 56 
Q 42.328125 56 49.015625 48.375 
Q 55.71875 40.765625 55.71875 27.296875 
Q 55.71875 13.875 49.015625 6.21875 
Q 42.328125 -1.421875 30.609375 -1.421875 
Q 18.84375 -1.421875 12.171875 6.21875 
Q 5.515625 13.875 5.515625 27.296875 
Q 5.515625 40.765625 12.171875 48.375 
Q 18.84375 56 30.609375 56 
z
" id="DejaVuSans-111"/>
      <path d="M 54.890625 33.015625 
L 54.890625 0 
L 45.90625 0 
L 45.90625 32.71875 
Q 45.90625 40.484375 42.875 44.328125 
Q 39.84375 48.1875 33.796875 48.1875 
Q 26.515625 48.1875 22.3125 43.546875 
Q 18.109375 38.921875 18.109375 30.90625 
L 18.109375 0 
L 9.078125 0 
L 9.078125 54.6875 
L 18.109375 54.6875 
L 18.109375 46.1875 
Q 21.34375 51.125 25.703125 53.5625 
Q 30.078125 56 35.796875 56 
Q 45.21875 56 50.046875 50.171875 
Q 54.890625 44.34375 54.890625 33.015625 
z
" id="DejaVuSans-110"/>
     </defs>
     <g style="fill:#2f2235;" transform="translate(19.3575 207.88)rotate(-90)scale(0.16 -0.16)">
      <use xlink:href="#DejaVuSans-68"/>
      <use x="77.001953" xlink:href="#DejaVuSans-114"/>
      <use x="118.115234" xlink:href="#DejaVuSans-97"/>
      <use x="179.394531" xlink:href="#DejaVuSans-119"/>
      <use x="261.181641" xlink:href="#DejaVuSans-100"/>
      <use x="324.658203" xlink:href="#DejaVuSans-111"/>
      <use x="385.839844" xlink:href="#DejaVuSans-119"/>
      <use x="467.626953" xlink:href="#DejaVuSans-110"/>
     </g>
    </g>
   </g>
   <g id="line2d_22">
    <path clip-path="url(#p1672968792)" d="M 93.983182 21.581818 
L 95.048746 31.316919 
L 95.581528 40.793602 
L 96.11431 32.495868 
L 96.647092 53.243778 
L 97.179875 36.935463 
L 97.712657 43.542511 
L 98.245439 40.251298 
L 98.778221 42.164767 
L 99.311003 28.405586 
L 99.843785 46.954891 
L 100.376567 49.533743 
L 100.909349 52.674638 
L 101.442131 41.946706 
L 101.974914 51.647979 
L 102.507696 52.853594 
L 103.040478 60.50337 
L 103.57326 59.749064 
L 104.106042 54.063407 
L 104.638824 63.745656 
L 105.704388 44.337624 
L 106.237171 39.367897 
L 106.769953 30.742784 
L 107.302735 36.64752 
L 107.835517 37.402931 
L 108.368299 45.60942 
L 108.901081 47.690088 
L 109.433863 42.469188 
L 109.966645 48.431474 
L 110.499427 51.689252 
L 111.03221 57.598519 
L 111.564992 64.942358 
L 112.097774 70.689371 
L 112.630556 70.436135 
L 113.163338 80.235565 
L 113.69612 77.739182 
L 114.228902 62.290708 
L 114.761684 55.156584 
L 115.294467 56.53848 
L 116.360031 70.710896 
L 116.892813 54.94139 
L 117.425595 54.107689 
L 117.958377 59.55556 
L 118.491159 57.444621 
L 119.023941 37.907406 
L 119.556723 36.434962 
L 120.089506 30.404961 
L 120.622288 27.277524 
L 121.15507 30.141534 
L 121.687852 40.259176 
L 122.220634 43.08846 
L 122.753416 44.630183 
L 123.286198 38.890828 
L 124.351763 21.912953 
L 124.884545 21.581818 
L 125.417327 21.581818 
L 125.950109 28.148367 
L 126.482891 21.581818 
L 127.015673 21.581818 
L 127.548455 23.951239 
L 128.081237 21.581818 
L 128.614019 21.904473 
L 129.146802 21.581818 
L 130.212366 21.581818 
L 131.27793 46.930029 
L 131.810712 51.174163 
L 132.343494 49.341539 
L 132.876276 40.960906 
L 133.409059 37.699016 
L 133.941841 55.863035 
L 134.474623 58.288845 
L 135.007405 50.364372 
L 135.540187 47.891061 
L 136.072969 40.551793 
L 137.138533 43.68494 
L 137.671315 41.606513 
L 138.204098 37.480413 
L 138.73688 35.291571 
L 139.269662 33.828835 
L 139.802444 39.609742 
L 140.335226 35.779497 
L 140.868008 34.291126 
L 141.40079 23.55933 
L 141.933572 21.581818 
L 142.466354 21.581818 
L 142.999137 24.661258 
L 143.531919 30.160204 
L 144.064701 25.900373 
L 144.597483 24.817552 
L 145.130265 27.605922 
L 145.663047 26.833469 
L 146.195829 32.157737 
L 146.728611 25.380348 
L 147.261394 29.117522 
L 147.794176 21.581818 
L 148.85974 21.581818 
L 149.392522 31.280439 
L 149.925304 29.354059 
L 150.458086 22.182048 
L 150.990868 30.580702 
L 151.52365 32.652878 
L 152.056433 31.982046 
L 152.589215 44.211903 
L 153.121997 40.956682 
L 153.654779 32.835532 
L 154.187561 40.35053 
L 154.720343 36.768402 
L 155.253125 48.427794 
L 155.785907 48.411356 
L 156.31869 62.816363 
L 156.851472 52.224843 
L 157.384254 48.118828 
L 157.917036 47.97364 
L 158.449818 54.692396 
L 158.9826 42.690867 
L 159.515382 24.309617 
L 160.048164 41.017098 
L 160.580946 29.323935 
L 161.113729 21.581818 
L 161.646511 21.581818 
L 162.179293 32.240315 
L 162.712075 23.946009 
L 163.244857 25.237005 
L 163.777639 30.415333 
L 164.310421 41.336024 
L 164.843203 35.923031 
L 165.375986 28.282177 
L 165.908768 33.637187 
L 166.44155 28.489956 
L 166.974332 38.627983 
L 167.507114 30.908664 
L 168.039896 30.1095 
L 168.572678 31.450632 
L 169.10546 32.01283 
L 169.638242 23.667264 
L 170.171025 21.581818 
L 173.367717 21.581818 
L 173.900499 24.061836 
L 174.433282 46.073319 
L 174.966064 36.198543 
L 175.498846 21.581818 
L 176.031628 21.581818 
L 176.56441 22.130594 
L 177.629974 23.735444 
L 178.162756 23.203102 
L 178.695538 33.147547 
L 179.228321 37.520337 
L 179.761103 46.288113 
L 180.293885 43.641476 
L 180.826667 45.986243 
L 181.359449 41.08494 
L 181.892231 42.314179 
L 182.425013 32.911913 
L 182.957795 30.58111 
L 183.490578 21.581818 
L 184.02336 38.652227 
L 184.556142 44.209452 
L 185.088924 35.58768 
L 185.621706 21.581818 
L 186.154488 23.49632 
L 186.68727 22.722513 
L 187.220052 24.431285 
L 187.752834 21.581818 
L 188.285617 23.852038 
L 188.818399 21.581818 
L 189.351181 24.150918 
L 189.883963 35.477218 
L 190.416745 32.230563 
L 191.482309 21.581818 
L 192.015091 22.225259 
L 192.547874 27.5306 
L 193.080656 21.989 
L 193.613438 21.581818 
L 194.14622 21.581818 
L 194.679002 21.881855 
L 195.211784 21.581818 
L 197.342913 21.581818 
L 197.875695 36.178658 
L 198.408477 30.284787 
L 199.474041 21.581818 
L 200.006823 21.581818 
L 200.539605 24.896666 
L 201.072387 21.581818 
L 201.60517 26.381486 
L 202.137952 21.581818 
L 202.670734 33.460749 
L 203.736298 63.964284 
L 204.26908 71.711165 
L 204.801862 81.524271 
L 205.334644 63.399013 
L 205.867426 66.0058 
L 206.400209 77.867676 
L 206.932991 67.375047 
L 207.465773 72.347469 
L 207.998555 83.230211 
L 208.531337 74.914702 
L 209.064119 68.879322 
L 209.596901 72.470312 
L 210.129683 59.298573 
L 210.662466 57.751421 
L 211.195248 42.626038 
L 211.72803 37.652195 
L 212.260812 22.99313 
L 212.793594 21.6148 
L 213.326376 32.461562 
L 213.859158 21.581818 
L 214.39194 26.22943 
L 214.924722 27.684425 
L 215.457505 33.746229 
L 215.990287 35.240644 
L 217.055851 30.420282 
L 217.588633 23.98011 
L 218.121415 21.581818 
L 218.654197 22.317401 
L 219.719762 43.761387 
L 220.252544 49.484851 
L 220.785326 64.420599 
L 221.318108 56.53361 
L 221.85089 60.71176 
L 222.383672 63.178595 
L 222.916454 62.826746 
L 223.449236 75.188638 
L 223.982018 82.650627 
L 225.047583 70.169584 
L 225.580365 73.834323 
L 226.113147 57.001872 
L 226.645929 68.549956 
L 227.178711 71.322112 
L 227.711493 73.053998 
L 228.244275 98.089178 
L 228.777058 80.197852 
L 229.30984 76.503537 
L 229.842622 85.628995 
L 230.375404 66.657622 
L 230.908186 60.954649 
L 231.440968 56.668389 
L 231.97375 61.839393 
L 232.506532 60.501702 
L 233.039314 74.046957 
L 233.572097 66.449461 
L 234.104879 69.491146 
L 234.637661 67.902426 
L 235.170443 56.588489 
L 236.768789 47.955262 
L 237.301571 54.290948 
L 237.834353 46.286195 
L 238.367136 31.796061 
L 238.899918 24.460379 
L 239.4327 21.581818 
L 240.498264 36.875437 
L 241.031046 49.713428 
L 241.563828 38.078223 
L 242.09661 40.036679 
L 242.629393 26.841514 
L 243.162175 33.653338 
L 243.694957 37.295533 
L 244.227739 36.049619 
L 244.760521 27.229428 
L 245.293303 26.299328 
L 245.826085 23.987302 
L 246.358867 23.463096 
L 246.891649 21.581818 
L 247.424432 31.478733 
L 247.957214 30.364304 
L 248.489996 31.705446 
L 249.022778 31.855333 
L 249.55556 26.965274 
L 250.088342 32.84685 
L 250.621124 33.25071 
L 251.153906 35.607413 
L 251.686689 31.409421 
L 252.219471 23.834804 
L 252.752253 32.246295 
L 253.817817 21.581818 
L 254.350599 34.74117 
L 255.416163 49.67679 
L 255.948945 51.858085 
L 256.481728 36.65926 
L 257.01451 36.165605 
L 257.547292 42.163908 
L 258.080074 36.099317 
L 258.612856 41.227665 
L 259.145638 30.56771 
L 259.67842 27.393596 
L 260.211202 21.581818 
L 260.743985 27.292453 
L 261.276767 21.581818 
L 262.875113 21.680194 
L 263.940677 35.580449 
L 264.473459 36.456046 
L 265.006241 43.394421 
L 265.539024 40.435988 
L 266.071806 47.632411 
L 266.604588 41.581656 
L 267.13737 32.454583 
L 267.670152 38.560029 
L 268.202934 27.25903 
L 268.735716 29.072936 
L 269.268498 21.581818 
L 270.334063 21.581818 
L 270.866845 30.380021 
L 271.399627 30.988694 
L 271.932409 21.581818 
L 272.465191 26.894108 
L 274.59632 103.934085 
L 275.129102 107.286784 
L 275.661884 95.380423 
L 276.194666 99.016326 
L 276.727448 95.724414 
L 277.26023 96.353359 
L 277.793012 95.909601 
L 278.858577 98.274745 
L 279.391359 93.737412 
L 279.924141 104.017865 
L 280.989705 85.832677 
L 281.522487 87.234508 
L 282.055269 79.56505 
L 282.588051 85.566973 
L 283.120833 90.072364 
L 283.653616 88.289531 
L 284.186398 89.646763 
L 284.71918 93.346255 
L 285.784744 103.743617 
L 286.317526 94.893596 
L 286.850308 112.116969 
L 287.38309 108.573399 
L 287.915873 110.341614 
L 288.448655 103.411062 
L 288.981437 98.391841 
L 289.514219 123.192108 
L 290.047001 117.569067 
L 290.579783 114.283936 
L 291.112565 113.721942 
L 291.645347 117.581474 
L 292.178129 109.532075 
L 292.710912 112.893161 
L 293.243694 95.98729 
L 293.776476 90.513608 
L 294.309258 70.777559 
L 294.84204 77.557194 
L 295.374822 93.143825 
L 296.440386 78.204704 
L 296.973169 77.515591 
L 297.505951 91.129455 
L 298.038733 94.820101 
L 298.571515 88.859817 
L 299.104297 90.162092 
L 299.637079 90.846119 
L 300.169861 92.068848 
L 300.702643 100.160656 
L 301.235425 104.613553 
L 301.768208 117.132482 
L 302.30099 100.843794 
L 302.833772 104.774911 
L 303.366554 100.095564 
L 303.899336 108.968382 
L 304.432118 101.433732 
L 304.9649 117.998063 
L 305.497682 109.343051 
L 306.030465 109.296808 
L 306.563247 89.888215 
L 307.096029 101.360395 
L 307.628811 100.304031 
L 308.161593 96.617941 
L 308.694375 85.096284 
L 309.227157 88.564724 
L 309.759939 87.413967 
L 310.292721 106.471321 
L 310.825504 113.600746 
L 311.358286 109.164857 
L 311.891068 98.836627 
L 312.42385 101.018325 
L 313.489414 65.718954 
L 314.022196 65.902602 
L 314.554978 87.519375 
L 315.087761 103.268026 
L 315.620543 109.929905 
L 316.153325 99.498177 
L 316.686107 96.326471 
L 317.218889 114.910044 
L 317.751671 116.606648 
L 318.284453 101.708686 
L 318.817235 104.730134 
L 319.350017 111.137967 
L 319.8828 92.242185 
L 320.415582 91.391731 
L 320.948364 95.365349 
L 321.481146 91.829675 
L 322.013928 91.307434 
L 322.54671 94.82806 
L 323.612274 73.031557 
L 324.145057 65.015483 
L 324.677839 65.583968 
L 325.210621 54.76673 
L 325.743403 54.850828 
L 326.276185 50.219893 
L 327.874531 21.581818 
L 328.407313 21.581818 
L 328.940096 36.699468 
L 329.472878 46.964485 
L 330.00566 34.244238 
L 330.538442 36.911582 
L 331.071224 32.9968 
L 331.604006 40.437579 
L 332.136788 30.89821 
L 332.66957 34.059051 
L 333.202353 21.581818 
L 333.735135 26.104887 
L 334.267917 21.581818 
L 334.800699 21.581818 
L 335.333481 27.853973 
L 335.866263 21.581818 
L 336.931827 36.682927 
L 337.464609 29.695135 
L 338.530174 40.139959 
L 339.062956 42.919463 
L 339.595738 51.70568 
L 340.12852 41.786683 
L 340.661302 35.843287 
L 341.194084 36.107696 
L 341.726866 36.730263 
L 342.259648 32.232105 
L 342.792431 21.581818 
L 343.325213 21.581818 
L 343.857995 25.886186 
L 344.390777 21.581818 
L 344.923559 22.301825 
L 345.456341 23.759538 
L 345.989123 21.581818 
L 347.054688 29.094846 
L 347.58747 46.649272 
L 348.120252 59.107265 
L 348.653034 54.62224 
L 349.185816 60.59847 
L 349.718598 55.528576 
L 350.25138 65.33784 
L 350.784162 71.959548 
L 351.316944 65.454385 
L 351.849727 51.776269 
L 352.382509 45.992425 
L 353.448073 21.581818 
L 353.980855 21.581818 
L 354.513637 29.657239 
L 355.046419 30.252701 
L 355.579201 24.095286 
L 356.111984 27.536738 
L 356.644766 23.013111 
L 357.177548 37.161444 
L 357.71033 44.386208 
L 358.243112 39.175043 
L 358.775894 59.302181 
L 359.308676 69.038032 
L 359.841458 68.830709 
L 360.37424 84.114715 
L 360.907023 83.229061 
L 361.439805 90.117312 
L 362.505369 94.371284 
L 363.038151 92.291145 
L 363.570933 97.030452 
L 364.103715 95.852695 
L 364.636497 100.926439 
L 365.16928 95.533843 
L 365.702062 79.838113 
L 366.767626 75.771161 
L 367.300408 85.983568 
L 367.83319 79.327999 
L 368.898754 92.814048 
L 369.431536 87.399404 
L 369.964319 85.390898 
L 370.497101 74.981021 
L 371.029883 61.495295 
L 371.562665 66.047018 
L 372.095447 64.508756 
L 372.628229 48.098483 
L 373.161011 38.88913 
L 373.693793 31.984077 
L 374.226576 21.581818 
L 374.759358 26.770542 
L 375.29214 21.581818 
L 376.357704 21.581818 
L 376.890486 28.624707 
L 377.423268 30.564191 
L 377.95605 26.679093 
L 378.488832 28.962319 
L 379.021615 32.188629 
L 379.554397 25.540044 
L 380.087179 28.415799 
L 380.619961 44.464812 
L 381.152743 40.782468 
L 381.685525 44.299779 
L 382.218307 50.624598 
L 382.751089 64.56532 
L 383.283872 54.958283 
L 383.816654 74.925008 
L 384.349436 90.006169 
L 384.882218 92.138755 
L 385.947782 68.381662 
L 386.480564 78.528503 
L 387.013346 79.774299 
L 387.546128 93.124048 
L 388.078911 83.600913 
L 388.611693 96.63186 
L 389.144475 97.56111 
L 389.677257 87.850314 
L 390.210039 89.499524 
L 390.742821 75.809622 
L 391.275603 83.349597 
L 391.808385 79.631908 
L 392.341168 71.514663 
L 392.87395 72.417375 
L 393.406732 59.43856 
L 393.939514 54.068931 
L 394.472296 68.654093 
L 395.005078 32.246607 
L 395.53786 25.922574 
L 396.070642 24.564047 
L 396.603424 37.049871 
L 397.136207 35.929087 
L 397.668989 39.775181 
L 398.201771 33.500828 
L 398.734553 29.719544 
L 399.267335 21.581818 
L 400.865681 21.581818 
L 401.398464 22.575179 
L 401.931246 23.889365 
L 402.464028 21.581818 
L 402.99681 21.581818 
L 403.529592 26.99901 
L 404.062374 36.856394 
L 404.595156 37.103155 
L 405.127938 26.084996 
L 405.66072 25.965871 
L 406.193503 21.581818 
L 406.726285 28.338513 
L 407.259067 26.665695 
L 407.791849 49.413212 
L 408.324631 54.488848 
L 408.857413 56.94203 
L 409.390195 51.908925 
L 409.922977 35.907887 
L 410.45576 35.216175 
L 410.988542 21.581818 
L 412.054106 21.581818 
L 412.586888 25.497086 
L 413.11967 21.581818 
L 413.652452 31.078564 
L 414.185234 26.161773 
L 414.718016 34.538102 
L 415.250799 38.919207 
L 415.783581 51.939577 
L 416.316363 56.287633 
L 416.849145 52.712757 
L 417.381927 52.971093 
L 417.914709 64.913407 
L 418.447491 51.143942 
L 418.980273 47.692032 
L 419.513056 38.102069 
L 420.045838 30.534317 
L 420.57862 36.266181 
L 421.111402 53.728474 
L 421.644184 61.719904 
L 422.176966 50.179972 
L 422.709748 59.440165 
L 423.24253 51.62653 
L 423.775312 56.852669 
L 424.308095 52.89495 
L 424.840877 69.187351 
L 425.373659 58.195022 
L 425.906441 58.187499 
L 426.439223 49.734966 
L 426.972005 47.629116 
L 427.504787 39.959691 
L 428.037569 40.522553 
L 428.570352 33.342338 
L 429.103134 46.820487 
L 429.635916 56.335977 
L 430.168698 49.343796 
L 430.70148 49.331774 
L 431.234262 51.052964 
L 431.767044 52.324393 
L 432.299826 47.370367 
L 432.832608 52.427014 
L 433.365391 47.394687 
L 433.898173 55.400561 
L 434.430955 58.74923 
L 435.496519 39.229259 
L 436.029301 48.911213 
L 436.562083 40.872981 
L 437.094865 50.020466 
L 437.627647 42.949601 
L 438.16043 59.96314 
L 438.693212 69.783303 
L 439.225994 74.047246 
L 439.758776 75.192917 
L 440.291558 61.882932 
L 440.82434 53.27155 
L 441.357122 38.510239 
L 441.889904 27.081534 
L 442.955469 31.381955 
L 443.488251 21.581818 
L 444.021033 21.581818 
L 444.553815 22.653399 
L 445.086597 34.559458 
L 445.619379 35.164515 
L 446.152161 60.389129 
L 446.684943 64.179815 
L 447.217726 72.740426 
L 447.750508 66.072622 
L 448.28329 70.064037 
L 448.816072 72.690239 
L 449.348854 60.06884 
L 449.881636 69.26815 
L 450.414418 66.017101 
L 450.9472 82.912613 
L 451.479983 81.730792 
L 452.012765 77.638904 
L 452.545547 69.458232 
L 453.078329 77.269753 
L 454.143893 70.735911 
L 454.676675 70.542436 
L 455.209457 68.808771 
L 456.275022 60.225487 
L 457.340586 79.45829 
L 457.873368 56.330401 
L 458.40615 38.435785 
L 458.938932 50.818683 
L 459.471714 46.333781 
L 460.537279 32.969382 
L 461.070061 31.309675 
L 461.602843 39.445408 
L 462.135625 40.745795 
L 462.668407 44.873469 
L 463.201189 43.273182 
L 463.733971 45.359336 
L 464.266753 46.193703 
L 465.332318 24.851364 
L 465.8651 35.335321 
L 466.397882 39.181796 
L 466.930664 46.056763 
L 467.463446 34.490299 
L 467.996228 34.663424 
L 468.52901 21.581818 
L 469.061792 25.602183 
L 469.594575 24.991109 
L 470.127357 37.01514 
L 470.660139 24.703317 
L 471.192921 27.66418 
L 471.725703 40.934726 
L 472.258485 45.990406 
L 472.791267 66.708118 
L 473.324049 66.629099 
L 473.856831 65.235752 
L 474.389614 62.242216 
L 474.922396 48.215167 
L 475.455178 50.597234 
L 475.98796 42.846943 
L 476.520742 39.617491 
L 477.053524 41.017706 
L 477.586306 59.668671 
L 478.119088 50.656285 
L 478.651871 54.892465 
L 479.184653 54.35874 
L 479.717435 65.591444 
L 480.250217 62.644445 
L 480.782999 61.290508 
L 481.315781 60.653016 
L 481.848563 61.513025 
L 482.914127 42.377368 
L 483.44691 35.359748 
L 483.979692 21.581818 
L 484.512474 26.730276 
L 485.045256 29.845157 
L 485.578038 38.790835 
L 486.11082 34.424542 
L 486.643602 40.359025 
L 487.176384 64.706482 
L 487.709167 75.39324 
L 488.241949 74.368337 
L 488.774731 64.81866 
L 489.307513 78.635932 
L 489.840295 83.831497 
L 490.373077 84.728498 
L 490.905859 90.970286 
L 491.438641 85.791476 
L 491.971423 85.38793 
L 492.504206 82.106609 
L 493.036988 88.321845 
L 493.56977 74.026713 
L 494.102552 73.661911 
L 494.635334 61.530241 
L 495.168116 65.163876 
L 495.700898 59.41915 
L 496.23368 65.247366 
L 496.766463 73.541933 
L 497.299245 79.579152 
L 497.832027 79.627955 
L 498.364809 81.24673 
L 498.897591 66.905037 
L 499.963155 86.538186 
L 500.495937 70.753407 
L 501.028719 64.845163 
L 501.561502 81.618772 
L 502.094284 76.736966 
L 502.627066 74.21215 
L 503.159848 93.342983 
L 503.69263 96.322558 
L 504.225412 96.114095 
L 504.758194 89.129204 
L 505.290976 80.111641 
L 505.823759 78.874444 
L 506.356541 69.119286 
L 506.889323 70.082202 
L 507.954887 85.638049 
L 508.487669 80.349005 
L 509.020451 97.762538 
L 509.553233 91.264996 
L 510.086015 100.922302 
L 510.618798 103.803437 
L 511.15158 98.872203 
L 511.684362 87.491563 
L 512.217144 104.719149 
L 512.749926 111.634663 
L 513.282708 110.827061 
L 513.81549 115.83828 
L 514.348272 107.710608 
L 514.881055 126.176503 
L 515.946619 118.364412 
L 516.479401 117.557847 
L 517.012183 107.266282 
L 517.544965 117.999766 
L 518.077747 107.651758 
L 518.610529 113.630783 
L 519.143311 106.725684 
L 519.676094 109.286966 
L 520.741658 94.154128 
L 521.27444 107.04152 
L 521.807222 108.070598 
L 522.340004 108.539354 
L 522.872786 110.320562 
L 523.405568 116.771818 
L 523.938351 99.729883 
L 524.471133 97.473147 
L 525.003915 83.039706 
L 525.536697 87.837339 
L 526.069479 97.096031 
L 526.602261 95.533236 
L 527.135043 100.264153 
L 527.667825 78.289452 
L 528.200607 75.692002 
L 528.73339 64.846968 
L 529.266172 66.521147 
L 529.798954 69.122158 
L 530.331736 69.034935 
L 530.864518 65.428165 
L 531.3973 57.319197 
L 531.930082 58.064483 
L 532.462864 63.907823 
L 532.995647 73.270802 
L 533.528429 73.599905 
L 534.593993 63.482718 
L 535.126775 63.276047 
L 535.659557 68.377041 
L 536.192339 66.672149 
L 536.725121 61.095404 
L 537.257903 61.061887 
L 537.790686 59.667925 
L 538.323468 60.671436 
L 538.85625 51.952886 
L 539.389032 55.586867 
L 539.921814 53.52321 
L 540.454596 49.550557 
L 540.987378 42.547537 
L 541.52016 28.480242 
L 542.052942 21.904786 
L 542.585725 21.581818 
L 543.118507 34.732709 
L 543.651289 28.799516 
L 544.184071 21.581818 
L 544.716853 28.843862 
L 545.249635 37.834802 
L 545.782417 39.431084 
L 546.315199 29.703012 
L 546.847982 24.51304 
L 547.380764 28.526645 
L 547.913546 28.485289 
L 548.446328 21.581818 
L 551.110238 21.581818 
L 551.643021 24.419342 
L 552.175803 33.035192 
L 552.708585 31.085925 
L 553.241367 26.211344 
L 553.774149 38.660257 
L 554.306931 43.076013 
L 554.839713 46.085864 
L 555.372495 43.28501 
L 555.905278 45.298788 
L 556.43806 40.85533 
L 556.970842 39.58577 
L 557.503624 29.499979 
L 558.036406 44.840509 
L 558.569188 29.304664 
L 559.10197 21.581818 
L 560.700317 21.581818 
L 561.233099 27.991004 
L 561.765881 26.106573 
L 562.298663 21.581818 
L 564.429791 21.581818 
L 564.962574 28.271675 
L 565.495356 31.247928 
L 566.028138 35.095882 
L 566.56092 21.581818 
L 567.093702 21.581818 
L 567.626484 30.402158 
L 568.159266 26.371108 
L 568.692048 27.763262 
L 569.22483 55.442301 
L 569.757613 50.691362 
L 570.290395 64.512702 
L 570.823177 58.87263 
L 571.355959 67.273272 
L 571.888741 80.185024 
L 572.421523 75.32826 
L 572.954305 88.543243 
L 573.487087 92.225156 
L 574.01987 90.007416 
L 575.085434 76.967151 
L 575.618216 76.928876 
L 576.150998 84.125192 
L 576.68378 66.303045 
L 577.216562 71.453869 
L 577.749344 54.675801 
L 578.282126 58.438429 
L 579.347691 37.316386 
L 579.880473 46.529201 
L 580.413255 42.908556 
L 581.478819 28.822568 
L 582.011601 30.277656 
L 582.544383 27.133702 
L 583.077166 30.387695 
L 583.609948 40.773738 
L 584.14273 31.389586 
L 584.675512 36.154934 
L 585.208294 23.132752 
L 585.741076 21.581818 
L 586.273858 29.419989 
L 586.80664 30.528352 
L 587.339422 32.785683 
L 587.872205 40.405106 
L 588.404987 35.440862 
L 588.937769 39.458587 
L 589.470551 24.137495 
L 590.003333 21.581818 
L 590.536115 29.305403 
L 591.068897 29.108045 
L 591.601679 30.818539 
L 592.134462 44.808385 
L 593.200026 26.834826 
L 593.732808 21.581818 
L 594.26559 25.412767 
L 594.798372 21.581818 
L 595.331154 23.138682 
L 595.863936 21.581818 
L 596.929501 21.581818 
L 597.462283 34.262795 
L 597.995065 36.798206 
L 598.527847 30.550651 
L 599.060629 21.581818 
L 599.593411 31.638062 
L 600.126193 33.015263 
L 600.658975 30.502795 
L 601.72454 21.581818 
L 602.257322 29.933177 
L 602.790104 33.449506 
L 603.322886 23.830583 
L 603.855668 21.581818 
L 605.986797 21.581818 
L 606.519579 24.102741 
L 607.585143 47.600204 
L 608.117925 46.550113 
L 608.650707 48.005285 
L 609.183489 53.621461 
L 609.716271 50.346856 
L 610.249054 58.114292 
L 610.781836 56.728839 
L 611.314618 56.537424 
L 611.8474 63.835351 
L 612.380182 84.411167 
L 612.912964 70.829575 
L 613.445746 67.579839 
L 613.978528 91.470844 
L 614.51131 94.966762 
L 615.044093 91.035953 
L 615.576875 92.735884 
L 616.109657 87.113853 
L 616.642439 95.571329 
L 617.175221 93.619577 
L 617.708003 93.737193 
L 618.240785 95.027978 
L 618.773567 96.66204 
L 619.30635 94.488254 
L 619.839132 85.678462 
L 620.371914 90.119317 
L 620.904696 93.44241 
L 621.437478 91.621959 
L 621.97026 92.34349 
L 622.503042 88.484535 
L 623.035824 81.606714 
L 623.568606 69.517672 
L 624.101389 70.208993 
L 624.634171 90.565751 
L 625.166953 90.829684 
L 625.699735 87.256917 
L 626.232517 88.584846 
L 626.765299 89.606756 
L 627.298081 111.283257 
L 627.830863 106.336719 
L 628.363646 108.896671 
L 628.896428 122.166399 
L 629.961992 137.046342 
L 631.027556 125.818083 
L 631.560338 111.837064 
L 632.09312 105.629211 
L 633.158685 129.795993 
L 633.691467 119.276523 
L 634.224249 104.807594 
L 634.757031 106.589126 
L 635.289813 101.178645 
L 635.822595 114.415165 
L 636.355377 131.569639 
L 636.888159 141.746587 
L 637.420941 144.583455 
L 637.953724 148.888355 
L 638.486506 150.584223 
L 639.019288 154.611914 
L 639.55207 148.182701 
L 640.084852 135.05127 
L 640.617634 134.363268 
L 641.150416 115.785768 
L 642.215981 125.497703 
L 642.748763 121.647831 
L 643.281545 124.475935 
L 643.814327 113.527419 
L 644.347109 118.941469 
L 644.879891 106.668212 
L 645.412673 104.549651 
L 645.945455 81.012387 
L 646.478237 84.858539 
L 647.01102 86.329946 
L 647.543802 84.641876 
L 648.076584 104.060709 
L 649.142148 93.539227 
L 649.67493 92.18281 
L 650.740494 119.4027 
L 651.273277 113.75717 
L 651.806059 102.799441 
L 652.338841 88.026553 
L 653.404405 104.738764 
L 653.937187 106.829125 
L 654.469969 124.299631 
L 655.002751 129.231536 
L 655.535533 121.216361 
L 656.068316 106.142502 
L 656.601098 103.25641 
L 657.13388 88.068614 
L 657.666662 83.976935 
L 658.199444 81.87323 
L 658.732226 83.06191 
L 659.265008 80.997955 
L 659.79779 82.94418 
L 660.330573 83.855504 
L 660.863355 89.493782 
L 661.396137 86.779411 
L 661.928919 86.281219 
L 662.461701 99.33183 
L 662.994483 101.14222 
L 663.527265 108.510578 
L 664.060047 126.628563 
L 664.592829 121.915475 
L 665.125612 107.526989 
L 665.658394 85.771871 
L 666.191176 71.233943 
L 666.723958 78.788728 
L 667.789522 57.179139 
L 668.322304 74.952243 
L 668.855086 66.753846 
L 669.387869 60.672886 
L 669.920651 58.818799 
L 670.453433 55.816132 
L 670.986215 54.914122 
L 671.518997 39.642489 
L 672.051779 42.952663 
L 672.584561 44.412446 
L 673.117343 43.974209 
L 673.650125 41.08033 
L 674.182908 56.859191 
L 674.71569 43.820831 
L 675.248472 41.379632 
L 675.781254 35.796461 
L 676.314036 33.615836 
L 676.846818 34.954765 
L 676.846818 34.954765 
" style="fill:none;stroke:#6083a9;stroke-linecap:square;stroke-width:2;"/>
   </g>
   <g id="line2d_23">
    <path clip-path="url(#p1672968792)" d="M 93.983182 21.581818 
L 96.11431 21.581818 
L 96.647092 22.864888 
L 97.179875 21.581818 
L 98.245439 56.54119 
L 98.778221 51.131454 
L 99.311003 53.487667 
L 99.843785 77.247292 
L 100.376567 80.951092 
L 100.909349 90.078039 
L 101.442131 74.153798 
L 101.974914 82.074995 
L 102.507696 67.218873 
L 103.040478 60.385019 
L 103.57326 62.653795 
L 104.106042 61.810595 
L 104.638824 55.394275 
L 105.171606 86.449836 
L 105.704388 81.450077 
L 106.237171 86.061325 
L 106.769953 61.052163 
L 107.302735 69.95393 
L 107.835517 53.802842 
L 108.368299 87.703661 
L 108.901081 76.075127 
L 109.433863 71.758775 
L 109.966645 74.577112 
L 110.499427 75.673565 
L 111.03221 78.674149 
L 111.564992 72.358624 
L 112.097774 73.637896 
L 112.630556 97.471959 
L 113.163338 99.443839 
L 113.69612 68.583906 
L 114.228902 67.39119 
L 114.761684 62.865995 
L 115.294467 68.301955 
L 116.360031 62.386762 
L 116.892813 65.404887 
L 117.425595 53.054474 
L 117.958377 65.148263 
L 118.491159 66.374168 
L 119.023941 58.920506 
L 119.556723 62.020331 
L 120.089506 78.204082 
L 120.622288 70.044669 
L 121.15507 82.900057 
L 121.687852 88.438093 
L 122.220634 99.14747 
L 122.753416 100.10017 
L 123.81898 111.254321 
L 124.351763 101.494179 
L 124.884545 77.04885 
L 125.417327 81.370073 
L 125.950109 73.701262 
L 126.482891 77.997012 
L 127.015673 76.096805 
L 127.548455 60.169467 
L 128.081237 58.927387 
L 129.146802 78.947071 
L 129.679584 86.798531 
L 130.212366 86.428722 
L 130.745148 74.20675 
L 131.27793 92.187405 
L 132.343494 117.703311 
L 132.876276 140.788574 
L 133.409059 122.424641 
L 133.941841 122.369117 
L 134.474623 96.172132 
L 135.007405 114.95547 
L 135.540187 96.914675 
L 136.072969 105.887289 
L 136.605751 110.856337 
L 137.671315 135.956608 
L 138.204098 153.221467 
L 138.73688 149.779434 
L 139.269662 166.863064 
L 139.802444 169.552804 
L 140.335226 169.134961 
L 140.868008 159.691977 
L 141.40079 157.806545 
L 141.933572 152.962355 
L 142.466354 145.524984 
L 142.999137 145.21295 
L 143.531919 139.790891 
L 144.064701 152.416436 
L 144.597483 162.268518 
L 145.130265 136.347616 
L 145.663047 135.960727 
L 146.195829 144.974991 
L 146.728611 125.90374 
L 147.261394 127.472613 
L 147.794176 135.641124 
L 148.326958 154.592376 
L 148.85974 143.606151 
L 149.392522 157.652435 
L 149.925304 164.327329 
L 150.458086 155.17509 
L 150.990868 152.172614 
L 151.52365 152.788371 
L 152.056433 155.113805 
L 152.589215 139.219905 
L 153.121997 108.691262 
L 153.654779 115.571063 
L 154.187561 107.334972 
L 154.720343 80.671031 
L 155.253125 65.422932 
L 155.785907 74.255528 
L 156.31869 79.57733 
L 156.851472 87.171886 
L 157.384254 99.044307 
L 157.917036 106.95813 
L 158.449818 102.863762 
L 158.9826 110.271107 
L 159.515382 97.867294 
L 160.048164 95.645512 
L 160.580946 100.48677 
L 161.113729 87.921936 
L 162.179293 78.877097 
L 162.712075 64.154611 
L 163.244857 55.764904 
L 163.777639 56.701685 
L 164.310421 43.310495 
L 164.843203 38.506917 
L 165.375986 21.581818 
L 168.572678 21.581818 
L 169.10546 32.490921 
L 169.638242 39.696484 
L 170.171025 31.884495 
L 170.703807 52.817751 
L 171.236589 49.407713 
L 171.769371 58.840731 
L 172.302153 48.457537 
L 172.834935 58.136993 
L 173.367717 31.955697 
L 173.900499 21.581818 
L 174.433282 38.529718 
L 174.966064 21.581818 
L 175.498846 24.158558 
L 176.031628 33.631627 
L 176.56441 47.162866 
L 177.097192 38.817344 
L 177.629974 21.581818 
L 178.162756 29.003751 
L 179.228321 57.285965 
L 179.761103 36.245828 
L 180.293885 21.581818 
L 180.826667 25.831025 
L 181.359449 21.581818 
L 181.892231 21.581818 
L 182.425013 21.859653 
L 182.957795 21.581818 
L 184.02336 21.581818 
L 184.556142 25.059874 
L 185.088924 21.581818 
L 185.621706 24.913996 
L 186.154488 23.667426 
L 186.68727 21.581818 
L 187.220052 37.595608 
L 188.285617 44.889497 
L 188.818399 42.944406 
L 189.883963 73.345201 
L 190.416745 50.645821 
L 190.949527 34.235915 
L 191.482309 21.581818 
L 192.547874 21.581818 
L 193.080656 22.279753 
L 193.613438 21.581818 
L 194.14622 46.951861 
L 194.679002 61.463054 
L 195.211784 50.532977 
L 195.744566 49.530639 
L 196.277348 66.495911 
L 196.81013 56.945505 
L 197.342913 42.71513 
L 197.875695 32.986544 
L 198.408477 32.846212 
L 198.941259 43.795707 
L 199.474041 41.762388 
L 200.006823 35.341675 
L 200.539605 39.717345 
L 201.072387 30.873515 
L 202.137952 21.581818 
L 202.670734 49.066307 
L 203.203516 33.684137 
L 203.736298 21.581818 
L 204.26908 26.57602 
L 204.801862 46.37275 
L 205.334644 37.049213 
L 205.867426 42.895555 
L 206.400209 55.619601 
L 206.932991 38.388426 
L 207.465773 56.848668 
L 207.998555 46.471726 
L 208.531337 63.038019 
L 209.064119 42.491153 
L 209.596901 34.840475 
L 210.129683 37.824467 
L 210.662466 35.214156 
L 211.195248 26.649805 
L 211.72803 21.581818 
L 212.793594 21.581818 
L 213.326376 27.609618 
L 213.859158 21.581818 
L 214.39194 39.115618 
L 214.924722 24.758292 
L 215.457505 21.581818 
L 215.990287 21.581818 
L 216.523069 29.146587 
L 217.055851 26.02386 
L 217.588633 21.581818 
L 218.121415 21.581818 
L 218.654197 26.909906 
L 219.186979 22.116496 
L 219.719762 21.581818 
L 220.252544 21.581818 
L 220.785326 29.694097 
L 221.318108 24.460705 
L 221.85089 21.581818 
L 222.383672 21.581818 
L 222.916454 22.028832 
L 223.449236 21.581818 
L 223.982018 22.00203 
L 224.514801 21.581818 
L 225.047583 21.581818 
L 225.580365 25.531261 
L 226.113147 21.581818 
L 226.645929 32.66667 
L 227.178711 48.259974 
L 228.244275 67.781789 
L 228.777058 67.072506 
L 229.842622 23.250069 
L 230.375404 21.581818 
L 230.908186 55.491248 
L 231.440968 49.67273 
L 231.97375 67.090248 
L 232.506532 73.376965 
L 233.039314 88.508771 
L 233.572097 82.171308 
L 234.104879 90.151455 
L 234.637661 79.106907 
L 235.170443 72.052183 
L 235.703225 74.775543 
L 236.236007 73.124672 
L 236.768789 60.056362 
L 237.301571 64.59374 
L 237.834353 51.525529 
L 238.367136 51.235248 
L 238.899918 46.987221 
L 239.965482 21.581818 
L 241.563828 21.581818 
L 242.09661 42.345842 
L 242.629393 21.581818 
L 243.162175 39.31108 
L 243.694957 26.334032 
L 244.227739 33.55171 
L 244.760521 26.014085 
L 245.293303 27.062678 
L 245.826085 22.320986 
L 246.358867 32.809159 
L 246.891649 61.989485 
L 247.424432 55.874328 
L 248.489996 71.857307 
L 249.022778 81.202692 
L 249.55556 53.627041 
L 250.088342 61.04885 
L 250.621124 56.024576 
L 251.153906 71.360928 
L 251.686689 50.021408 
L 252.219471 57.093605 
L 252.752253 92.143514 
L 253.285035 54.750403 
L 253.817817 69.23775 
L 254.350599 50.812501 
L 255.416163 30.689186 
L 255.948945 33.319101 
L 256.481728 30.158104 
L 257.01451 21.581818 
L 257.547292 25.175104 
L 258.080074 21.581818 
L 259.145638 21.581818 
L 259.67842 26.88667 
L 260.211202 21.581818 
L 260.743985 21.581818 
L 261.276767 22.750151 
L 261.809549 32.893992 
L 262.342331 46.176888 
L 263.407895 21.581818 
L 263.940677 50.972671 
L 264.473459 58.85529 
L 265.006241 45.096355 
L 265.539024 21.581818 
L 267.13737 21.581818 
L 267.670152 28.299995 
L 268.202934 21.581818 
L 268.735716 38.092428 
L 269.268498 45.260185 
L 269.801281 40.2987 
L 270.334063 21.581818 
L 271.399627 21.581818 
L 271.932409 23.369792 
L 272.465191 41.050119 
L 272.997973 32.211238 
L 273.530755 36.459193 
L 274.063537 32.614855 
L 274.59632 44.298268 
L 275.129102 42.077635 
L 275.661884 62.633486 
L 276.194666 55.189393 
L 276.727448 36.55944 
L 277.26023 23.433757 
L 277.793012 21.581818 
L 279.391359 21.581818 
L 279.924141 33.160859 
L 280.456923 21.581818 
L 280.989705 21.581818 
L 281.522487 24.373433 
L 282.055269 36.263992 
L 282.588051 27.709553 
L 283.120833 21.581818 
L 284.186398 21.581818 
L 284.71918 23.618599 
L 285.251962 23.098047 
L 285.784744 21.581818 
L 286.317526 21.581818 
L 286.850308 41.721237 
L 287.38309 39.257258 
L 288.448655 72.989217 
L 288.981437 64.442684 
L 289.514219 75.392217 
L 290.047001 117.838238 
L 290.579783 108.5763 
L 291.112565 90.672944 
L 291.645347 62.415999 
L 292.178129 67.281426 
L 292.710912 46.983489 
L 293.243694 82.390541 
L 293.776476 96.044796 
L 294.84204 81.489024 
L 295.374822 62.956968 
L 295.907604 49.322505 
L 296.440386 49.885828 
L 296.973169 28.361227 
L 297.505951 21.581818 
L 298.038733 21.581818 
L 298.571515 32.119829 
L 299.104297 27.429279 
L 299.637079 32.790944 
L 300.169861 21.581818 
L 301.235425 26.966893 
L 301.768208 44.689154 
L 302.30099 39.902311 
L 302.833772 24.016627 
L 303.366554 21.581818 
L 303.899336 62.635658 
L 304.432118 84.22891 
L 304.9649 56.389534 
L 305.497682 58.404183 
L 306.030465 59.888473 
L 306.563247 43.390096 
L 307.096029 40.133785 
L 307.628811 48.27006 
L 308.161593 50.593094 
L 308.694375 24.02771 
L 309.227157 42.518389 
L 309.759939 24.09083 
L 310.825504 31.019356 
L 311.358286 21.581818 
L 311.891068 29.892928 
L 312.42385 21.581818 
L 312.956632 26.032218 
L 313.489414 45.213339 
L 314.022196 46.936346 
L 314.554978 30.341843 
L 315.087761 32.344108 
L 315.620543 24.224032 
L 316.153325 21.581818 
L 316.686107 21.581818 
L 317.218889 26.783394 
L 317.751671 24.409178 
L 318.284453 51.881647 
L 318.817235 57.471431 
L 319.350017 81.612084 
L 319.8828 77.388193 
L 320.415582 72.002371 
L 320.948364 82.312794 
L 321.481146 70.851746 
L 322.013928 64.896232 
L 322.54671 60.330506 
L 323.079492 64.720842 
L 323.612274 57.705404 
L 324.145057 42.720338 
L 324.677839 51.234543 
L 325.210621 61.876885 
L 325.743403 45.061912 
L 327.341749 135.460416 
L 328.407313 129.873298 
L 328.940096 122.638731 
L 329.472878 121.067086 
L 331.071224 61.499871 
L 331.604006 76.754324 
L 332.136788 71.246192 
L 332.66957 82.515573 
L 333.202353 88.781113 
L 333.735135 102.143722 
L 334.267917 101.449609 
L 334.800699 93.523656 
L 335.333481 91.904968 
L 335.866263 107.568098 
L 336.399045 127.681078 
L 337.464609 147.321611 
L 337.997392 136.253336 
L 338.530174 140.003894 
L 339.595738 143.560114 
L 340.12852 128.284282 
L 340.661302 105.688626 
L 341.194084 99.355737 
L 341.726866 102.174464 
L 342.259648 82.614191 
L 342.792431 76.096692 
L 343.325213 81.285678 
L 343.857995 66.97225 
L 344.390777 63.58812 
L 344.923559 82.639301 
L 345.456341 73.553366 
L 345.989123 68.911016 
L 347.054688 122.373543 
L 347.58747 119.987752 
L 348.653034 101.431667 
L 349.185816 119.334246 
L 349.718598 123.473404 
L 350.25138 113.933837 
L 350.784162 134.149822 
L 351.316944 132.45695 
L 351.849727 129.039362 
L 352.382509 116.046357 
L 352.915291 148.660346 
L 353.448073 146.171963 
L 353.980855 118.538473 
L 354.513637 126.381739 
L 355.046419 130.099545 
L 355.579201 116.702277 
L 356.111984 126.466536 
L 356.644766 110.321994 
L 357.177548 102.460191 
L 357.71033 123.247068 
L 358.243112 121.343512 
L 358.775894 140.490027 
L 359.308676 127.143172 
L 360.37424 173.013376 
L 360.907023 187.647927 
L 361.439805 197.789406 
L 361.972587 179.804847 
L 362.505369 179.508614 
L 363.038151 175.09196 
L 363.570933 160.216433 
L 365.16928 186.954191 
L 365.702062 175.97558 
L 366.234844 153.657657 
L 366.767626 149.647635 
L 367.83319 163.889678 
L 368.365972 178.220127 
L 368.898754 167.936349 
L 369.431536 181.594093 
L 369.964319 184.44581 
L 370.497101 199.464051 
L 371.029883 224.120432 
L 371.562665 257.087078 
L 372.095447 268.207124 
L 372.628229 264.830893 
L 373.161011 268.454766 
L 373.693793 270.845171 
L 375.29214 309.218182 
L 375.824922 305.962296 
L 376.357704 278.933372 
L 376.890486 280.182206 
L 377.423268 297.484757 
L 377.95605 280.454421 
L 378.488832 292.929008 
L 379.021615 285.164797 
L 379.554397 290.395465 
L 380.087179 288.816107 
L 380.619961 243.68102 
L 381.152743 252.96494 
L 381.685525 260.121611 
L 382.218307 254.68326 
L 382.751089 254.440343 
L 383.283872 259.228877 
L 383.816654 267.706299 
L 384.349436 259.466405 
L 384.882218 244.840804 
L 385.947782 271.154988 
L 386.480564 246.749284 
L 387.013346 264.918291 
L 387.546128 255.041828 
L 388.078911 248.760367 
L 388.611693 262.695356 
L 389.144475 252.236513 
L 390.210039 279.867884 
L 390.742821 297.435647 
L 391.275603 286.090191 
L 391.808385 291.406743 
L 392.341168 276.785983 
L 392.87395 286.815635 
L 393.406732 278.297687 
L 393.939514 259.435898 
L 394.472296 260.031466 
L 395.005078 274.224649 
L 395.53786 278.163497 
L 396.070642 261.263999 
L 396.603424 251.06851 
L 397.136207 255.597482 
L 397.668989 277.90989 
L 398.201771 268.060236 
L 399.267335 224.0695 
L 399.800117 217.827059 
L 400.332899 219.815396 
L 400.865681 229.659484 
L 401.398464 236.668887 
L 401.931246 257.833595 
L 402.464028 229.365836 
L 402.99681 229.187612 
L 403.529592 197.241289 
L 404.062374 197.692531 
L 404.595156 218.628339 
L 405.127938 193.509812 
L 405.66072 204.391653 
L 406.193503 209.656878 
L 407.259067 167.365798 
L 407.791849 193.894449 
L 408.324631 193.342686 
L 408.857413 207.27588 
L 409.390195 199.601543 
L 409.922977 175.029482 
L 410.45576 181.391076 
L 410.988542 160.965533 
L 411.521324 172.848071 
L 412.054106 143.322474 
L 412.586888 153.868666 
L 413.11967 159.534893 
L 413.652452 155.018708 
L 414.185234 173.239713 
L 414.718016 152.024354 
L 415.250799 165.825926 
L 415.783581 157.079679 
L 416.316363 173.799698 
L 416.849145 171.794946 
L 417.381927 171.394993 
L 417.914709 176.036616 
L 418.447491 168.973566 
L 418.980273 183.348005 
L 419.513056 162.550176 
L 420.045838 159.30104 
L 420.57862 196.119639 
L 421.111402 168.961336 
L 421.644184 162.374573 
L 422.176966 141.054468 
L 422.709748 142.88809 
L 423.24253 172.738284 
L 423.775312 177.798523 
L 424.308095 193.600437 
L 424.840877 193.573733 
L 425.373659 199.447099 
L 425.906441 196.13778 
L 426.439223 219.020066 
L 426.972005 217.775177 
L 427.504787 223.310723 
L 428.037569 214.419339 
L 428.570352 236.253944 
L 429.103134 241.312333 
L 429.635916 218.99242 
L 430.168698 234.053506 
L 430.70148 223.808066 
L 431.234262 205.723993 
L 431.767044 205.32131 
L 432.832608 177.315831 
L 433.365391 155.851362 
L 433.898173 160.235841 
L 434.430955 161.196687 
L 434.963737 149.897189 
L 435.496519 159.354789 
L 436.029301 158.169736 
L 436.562083 166.979648 
L 437.094865 197.556749 
L 437.627647 192.575387 
L 438.16043 169.422168 
L 438.693212 173.849838 
L 439.225994 172.185094 
L 439.758776 177.691523 
L 440.291558 187.027937 
L 440.82434 184.679052 
L 441.357122 169.861804 
L 441.889904 139.734587 
L 442.422687 128.080215 
L 442.955469 140.491356 
L 443.488251 159.126748 
L 444.021033 141.093525 
L 444.553815 136.293157 
L 445.086597 143.960951 
L 445.619379 157.601493 
L 446.152161 167.873965 
L 446.684943 150.856669 
L 447.217726 150.613508 
L 447.750508 168.850819 
L 448.28329 156.656463 
L 448.816072 151.961324 
L 449.348854 155.321384 
L 449.881636 146.638054 
L 450.414418 157.203684 
L 450.9472 143.754551 
L 451.479983 162.347431 
L 452.012765 173.889221 
L 452.545547 191.716915 
L 453.078329 196.713592 
L 453.611111 206.228853 
L 454.143893 210.495177 
L 454.676675 209.896357 
L 455.209457 202.026583 
L 455.742239 199.547418 
L 456.275022 195.66988 
L 456.807804 173.835185 
L 457.340586 176.850069 
L 457.873368 195.751766 
L 458.40615 182.585021 
L 458.938932 157.602938 
L 459.471714 154.553156 
L 460.004496 142.762376 
L 460.537279 151.025681 
L 461.070061 147.993037 
L 461.602843 138.902177 
L 462.135625 133.267736 
L 462.668407 139.988053 
L 463.201189 117.524999 
L 463.733971 114.643344 
L 464.266753 101.52161 
L 464.799535 95.471368 
L 465.8651 69.80585 
L 466.397882 72.204064 
L 466.930664 60.275774 
L 467.463446 30.164529 
L 467.996228 21.581818 
L 469.061792 21.581818 
L 469.594575 39.069356 
L 470.127357 21.581818 
L 470.660139 21.581818 
L 471.192921 45.677676 
L 471.725703 42.854428 
L 472.258485 28.890561 
L 472.791267 37.92067 
L 473.324049 21.581818 
L 473.856831 21.581818 
L 474.389614 38.616017 
L 474.922396 24.188435 
L 475.455178 22.086039 
L 475.98796 29.138171 
L 476.520742 32.941825 
L 477.053524 38.508996 
L 477.586306 54.671626 
L 478.119088 60.258016 
L 478.651871 50.227292 
L 479.184653 30.120743 
L 479.717435 21.581818 
L 480.250217 28.933851 
L 480.782999 29.991149 
L 481.315781 41.268644 
L 481.848563 26.56212 
L 482.914127 66.86206 
L 483.44691 74.995346 
L 483.979692 71.013835 
L 484.512474 74.844441 
L 485.578038 72.640591 
L 486.11082 68.905252 
L 486.643602 82.47805 
L 487.176384 86.546947 
L 487.709167 78.139342 
L 488.241949 73.768719 
L 488.774731 58.303066 
L 489.307513 67.962371 
L 489.840295 55.031626 
L 490.373077 34.388991 
L 490.905859 35.793714 
L 491.971423 27.921339 
L 492.504206 21.581818 
L 495.168116 21.581818 
L 495.700898 35.39655 
L 496.23368 28.878379 
L 496.766463 31.488272 
L 497.299245 39.674284 
L 497.832027 51.408981 
L 498.364809 51.818893 
L 498.897591 59.590023 
L 499.430373 31.12694 
L 499.963155 21.581818 
L 500.495937 24.705997 
L 501.028719 21.581818 
L 501.561502 21.581818 
L 502.094284 23.407814 
L 502.627066 21.581818 
L 503.159848 21.581818 
L 503.69263 22.426422 
L 504.225412 46.688407 
L 504.758194 59.387404 
L 505.290976 54.472417 
L 505.823759 59.921256 
L 506.356541 59.651173 
L 506.889323 69.869844 
L 507.422105 65.945971 
L 507.954887 71.65492 
L 508.487669 92.291923 
L 509.020451 96.383041 
L 509.553233 103.597379 
L 510.086015 124.075267 
L 510.618798 104.330894 
L 511.15158 104.812662 
L 511.684362 108.692276 
L 512.217144 97.987262 
L 512.749926 98.558499 
L 513.282708 87.599917 
L 513.81549 107.184755 
L 514.348272 120.673099 
L 514.881055 112.765964 
L 515.413837 92.042591 
L 515.946619 91.084734 
L 516.479401 87.593449 
L 517.012183 98.240856 
L 517.544965 98.097624 
L 518.077747 107.166775 
L 518.610529 108.788165 
L 519.143311 98.463653 
L 519.676094 125.030466 
L 520.208876 121.611317 
L 521.27444 140.085343 
L 521.807222 124.242186 
L 522.340004 119.710745 
L 522.872786 106.557434 
L 523.405568 129.89443 
L 524.471133 140.435589 
L 525.003915 147.813597 
L 525.536697 141.362994 
L 526.069479 128.779672 
L 527.667825 171.76325 
L 528.200607 155.906196 
L 528.73339 162.258256 
L 529.266172 163.072633 
L 529.798954 166.973666 
L 530.331736 179.307993 
L 531.3973 168.145205 
L 531.930082 155.030639 
L 532.462864 157.508061 
L 532.995647 160.943687 
L 533.528429 168.235639 
L 534.061211 147.817436 
L 534.593993 133.754142 
L 535.126775 133.752689 
L 535.659557 124.472054 
L 536.192339 131.827983 
L 536.725121 103.616364 
L 537.257903 111.08396 
L 538.323468 120.139978 
L 538.85625 96.624147 
L 539.389032 94.071316 
L 539.921814 78.795417 
L 540.454596 79.743802 
L 540.987378 95.716082 
L 541.52016 84.639482 
L 542.052942 92.613236 
L 542.585725 109.974008 
L 543.118507 115.056365 
L 543.651289 105.97112 
L 544.184071 81.527307 
L 544.716853 99.869568 
L 545.249635 129.144559 
L 545.782417 116.065609 
L 546.315199 111.463608 
L 546.847982 118.538198 
L 547.380764 112.340791 
L 547.913546 101.927531 
L 548.446328 75.458458 
L 548.97911 76.683589 
L 549.511892 58.685607 
L 550.577456 70.727188 
L 551.110238 64.3901 
L 552.175803 96.263754 
L 552.708585 82.640655 
L 553.241367 108.81456 
L 553.774149 106.732253 
L 554.839713 115.080586 
L 555.372495 132.541513 
L 555.905278 159.408166 
L 556.43806 167.711577 
L 556.970842 182.736463 
L 557.503624 187.86123 
L 558.036406 186.152013 
L 558.569188 195.48125 
L 559.10197 209.181903 
L 559.634752 204.807507 
L 560.167534 214.363431 
L 560.700317 226.511988 
L 561.233099 229.921729 
L 561.765881 225.62783 
L 562.298663 197.290138 
L 562.831445 175.340855 
L 563.897009 208.706234 
L 564.429791 207.313695 
L 564.962574 199.40295 
L 565.495356 200.61276 
L 566.028138 171.270647 
L 566.56092 155.018557 
L 567.093702 132.504557 
L 567.626484 137.585696 
L 568.692048 162.917557 
L 569.22483 163.897651 
L 569.757613 180.180595 
L 570.290395 188.084117 
L 570.823177 193.27386 
L 571.355959 180.194006 
L 571.888741 185.953891 
L 572.421523 204.134744 
L 572.954305 209.527008 
L 573.487087 206.495581 
L 574.01987 198.531471 
L 574.552652 210.221249 
L 575.085434 201.119932 
L 575.618216 182.195831 
L 576.150998 175.138608 
L 576.68378 171.413887 
L 577.216562 176.854624 
L 577.749344 184.457485 
L 578.282126 210.934074 
L 578.814909 202.355829 
L 579.347691 206.51274 
L 579.880473 203.955984 
L 580.413255 196.777564 
L 580.946037 206.676921 
L 581.478819 192.673838 
L 582.011601 190.633392 
L 582.544383 170.200238 
L 583.077166 167.404074 
L 583.609948 162.606387 
L 584.14273 165.720986 
L 584.675512 145.447987 
L 585.208294 173.144815 
L 585.741076 179.713807 
L 586.273858 183.238476 
L 586.80664 203.072602 
L 587.339422 213.067868 
L 587.872205 241.253666 
L 588.404987 238.220337 
L 588.937769 256.162767 
L 589.470551 250.789856 
L 590.003333 253.690835 
L 590.536115 264.069543 
L 591.068897 283.847703 
L 591.601679 292.204939 
L 592.134462 287.6456 
L 592.667244 288.749911 
L 593.200026 279.565436 
L 593.732808 289.304638 
L 594.26559 267.910285 
L 594.798372 270.488746 
L 595.331154 280.990425 
L 596.396718 245.131508 
L 596.929501 245.783581 
L 597.462283 251.608354 
L 597.995065 239.149232 
L 598.527847 250.369875 
L 599.060629 237.57792 
L 599.593411 255.285678 
L 600.126193 255.847498 
L 600.658975 255.163338 
L 601.191758 238.811311 
L 601.72454 262.324877 
L 602.257322 258.730201 
L 602.790104 259.779898 
L 603.322886 259.212098 
L 603.855668 270.250108 
L 604.38845 286.712796 
L 604.921232 292.207893 
L 605.454014 294.82014 
L 605.986797 275.150604 
L 606.519579 273.170703 
L 607.052361 272.69835 
L 607.585143 263.061104 
L 608.117925 283.603 
L 608.650707 273.674795 
L 609.716271 248.816051 
L 610.249054 252.65232 
L 610.781836 268.308294 
L 611.314618 280.639721 
L 611.8474 276.890669 
L 612.380182 269.368314 
L 613.978528 219.701734 
L 614.51131 218.719159 
L 615.044093 214.685966 
L 615.576875 217.261047 
L 616.109657 202.79124 
L 616.642439 194.378397 
L 617.175221 190.974359 
L 617.708003 207.12184 
L 618.240785 192.72738 
L 618.773567 212.472144 
L 619.839132 182.038598 
L 620.371914 202.632399 
L 620.904696 202.738049 
L 621.437478 218.654363 
L 621.97026 220.029442 
L 622.503042 212.165635 
L 623.035824 213.437187 
L 623.568606 230.934247 
L 624.634171 223.012107 
L 625.166953 222.837192 
L 625.699735 236.091831 
L 626.232517 240.160083 
L 626.765299 236.09913 
L 627.298081 237.605958 
L 627.830863 209.294563 
L 628.363646 205.369729 
L 628.896428 207.572075 
L 629.42921 200.646799 
L 629.961992 214.767803 
L 630.494774 208.671229 
L 631.027556 186.735634 
L 631.560338 197.952624 
L 632.09312 193.450419 
L 632.625902 182.724192 
L 633.158685 204.729789 
L 633.691467 182.481894 
L 634.224249 195.856287 
L 634.757031 199.766373 
L 635.289813 194.180643 
L 635.822595 196.731729 
L 636.355377 185.538014 
L 636.888159 182.991144 
L 637.420941 174.867031 
L 637.953724 173.327024 
L 638.486506 153.147507 
L 639.019288 179.61734 
L 639.55207 174.22702 
L 640.084852 177.696833 
L 641.150416 200.189544 
L 641.683198 207.237744 
L 642.215981 199.043371 
L 642.748763 210.393165 
L 643.281545 212.016442 
L 643.814327 207.840499 
L 644.347109 222.605195 
L 644.879891 207.394553 
L 645.412673 174.797386 
L 645.945455 183.246992 
L 646.478237 170.468156 
L 647.01102 174.061915 
L 647.543802 166.406803 
L 648.076584 168.293769 
L 648.609366 138.251864 
L 649.142148 142.068671 
L 649.67493 130.857648 
L 650.207712 122.131447 
L 650.740494 136.213516 
L 651.273277 164.731324 
L 651.806059 156.448983 
L 652.338841 144.596457 
L 653.404405 159.20903 
L 655.002751 120.188135 
L 655.535533 116.11216 
L 656.068316 126.217344 
L 656.601098 142.093551 
L 657.13388 168.328439 
L 657.666662 168.558026 
L 658.199444 142.384424 
L 658.732226 135.420039 
L 659.265008 135.948132 
L 659.79779 155.863474 
L 660.330573 164.267531 
L 660.863355 163.66015 
L 661.396137 166.08999 
L 661.928919 153.41018 
L 662.461701 154.993094 
L 662.994483 145.135684 
L 663.527265 146.12555 
L 664.060047 148.129327 
L 664.592829 130.691627 
L 665.125612 140.275165 
L 665.658394 143.535418 
L 666.191176 160.354623 
L 666.723958 158.518344 
L 667.25674 143.659627 
L 668.322304 123.539134 
L 668.855086 108.785985 
L 670.453433 82.902997 
L 670.986215 95.629866 
L 671.518997 87.938449 
L 672.051779 74.52562 
L 672.584561 86.137476 
L 673.117343 82.376353 
L 673.650125 67.082845 
L 674.182908 71.6316 
L 674.71569 89.108082 
L 675.248472 87.721071 
L 675.781254 65.498376 
L 676.314036 77.420751 
L 676.846818 78.30527 
L 676.846818 78.30527 
" style="fill:none;stroke:#86a776;stroke-linecap:square;stroke-width:2;"/>
   </g>
   <g id="patch_3">
    <path d="M 64.84 323.6 
L 64.84 7.2 
" style="fill:none;"/>
   </g>
   <g id="patch_4">
    <path d="M 705.99 323.6 
L 705.99 7.2 
" style="fill:none;"/>
   </g>
   <g id="patch_5">
    <path d="M 64.84 323.6 
L 705.99 323.6 
" style="fill:none;"/>
   </g>
   <g id="patch_6">
    <path d="M 64.84 7.2 
L 705.99 7.2 
" style="fill:none;"/>
   </g>
   <g id="legend_1">
    <g id="line2d_24">
     <path d="M 73.84 287.2875 
L 93.84 287.2875 
" style="fill:none;stroke:#6083a9;stroke-linecap:square;stroke-width:2;"/>
    </g>
    <g id="line2d_25"/>
    <g id="text_16">
     <!-- Investment A -->
     <defs>
      <path d="M 9.8125 72.90625 
L 19.671875 72.90625 
L 19.671875 0 
L 9.8125 0 
z
" id="DejaVuSans-73"/>
      <path d="M 2.984375 54.6875 
L 12.5 54.6875 
L 29.59375 8.796875 
L 46.6875 54.6875 
L 56.203125 54.6875 
L 35.6875 0 
L 23.484375 0 
z
" id="DejaVuSans-118"/>
      <path d="M 56.203125 29.59375 
L 56.203125 25.203125 
L 14.890625 25.203125 
Q 15.484375 15.921875 20.484375 11.0625 
Q 25.484375 6.203125 34.421875 6.203125 
Q 39.59375 6.203125 44.453125 7.46875 
Q 49.3125 8.734375 54.109375 11.28125 
L 54.109375 2.78125 
Q 49.265625 0.734375 44.1875 -0.34375 
Q 39.109375 -1.421875 33.890625 -1.421875 
Q 20.796875 -1.421875 13.15625 6.1875 
Q 5.515625 13.8125 5.515625 26.8125 
Q 5.515625 40.234375 12.765625 48.109375 
Q 20.015625 56 32.328125 56 
Q 43.359375 56 49.78125 48.890625 
Q 56.203125 41.796875 56.203125 29.59375 
z
M 47.21875 32.234375 
Q 47.125 39.59375 43.09375 43.984375 
Q 39.0625 48.390625 32.421875 48.390625 
Q 24.90625 48.390625 20.390625 44.140625 
Q 15.875 39.890625 15.1875 32.171875 
z
" id="DejaVuSans-101"/>
      <path d="M 44.28125 53.078125 
L 44.28125 44.578125 
Q 40.484375 46.53125 36.375 47.5 
Q 32.28125 48.484375 27.875 48.484375 
Q 21.1875 48.484375 17.84375 46.4375 
Q 14.5 44.390625 14.5 40.28125 
Q 14.5 37.15625 16.890625 35.375 
Q 19.28125 33.59375 26.515625 31.984375 
L 29.59375 31.296875 
Q 39.15625 29.25 43.1875 25.515625 
Q 47.21875 21.78125 47.21875 15.09375 
Q 47.21875 7.46875 41.1875 3.015625 
Q 35.15625 -1.421875 24.609375 -1.421875 
Q 20.21875 -1.421875 15.453125 -0.5625 
Q 10.6875 0.296875 5.421875 2 
L 5.421875 11.28125 
Q 10.40625 8.6875 15.234375 7.390625 
Q 20.0625 6.109375 24.8125 6.109375 
Q 31.15625 6.109375 34.5625 8.28125 
Q 37.984375 10.453125 37.984375 14.40625 
Q 37.984375 18.0625 35.515625 20.015625 
Q 33.0625 21.96875 24.703125 23.78125 
L 21.578125 24.515625 
Q 13.234375 26.265625 9.515625 29.90625 
Q 5.8125 33.546875 5.8125 39.890625 
Q 5.8125 47.609375 11.28125 51.796875 
Q 16.75 56 26.8125 56 
Q 31.78125 56 36.171875 55.265625 
Q 40.578125 54.546875 44.28125 53.078125 
z
" id="DejaVuSans-115"/>
      <path d="M 18.3125 70.21875 
L 18.3125 54.6875 
L 36.8125 54.6875 
L 36.8125 47.703125 
L 18.3125 47.703125 
L 18.3125 18.015625 
Q 18.3125 11.328125 20.140625 9.421875 
Q 21.96875 7.515625 27.59375 7.515625 
L 36.8125 7.515625 
L 36.8125 0 
L 27.59375 0 
Q 17.1875 0 13.234375 3.875 
Q 9.28125 7.765625 9.28125 18.015625 
L 9.28125 47.703125 
L 2.6875 47.703125 
L 2.6875 54.6875 
L 9.28125 54.6875 
L 9.28125 70.21875 
z
" id="DejaVuSans-116"/>
      <path d="M 52 44.1875 
Q 55.375 50.25 60.0625 53.125 
Q 64.75 56 71.09375 56 
Q 79.640625 56 84.28125 50.015625 
Q 88.921875 44.046875 88.921875 33.015625 
L 88.921875 0 
L 79.890625 0 
L 79.890625 32.71875 
Q 79.890625 40.578125 77.09375 44.375 
Q 74.3125 48.1875 68.609375 48.1875 
Q 61.625 48.1875 57.5625 43.546875 
Q 53.515625 38.921875 53.515625 30.90625 
L 53.515625 0 
L 44.484375 0 
L 44.484375 32.71875 
Q 44.484375 40.625 41.703125 44.40625 
Q 38.921875 48.1875 33.109375 48.1875 
Q 26.21875 48.1875 22.15625 43.53125 
Q 18.109375 38.875 18.109375 30.90625 
L 18.109375 0 
L 9.078125 0 
L 9.078125 54.6875 
L 18.109375 54.6875 
L 18.109375 46.1875 
Q 21.1875 51.21875 25.484375 53.609375 
Q 29.78125 56 35.6875 56 
Q 41.65625 56 45.828125 52.96875 
Q 50 49.953125 52 44.1875 
z
" id="DejaVuSans-109"/>
      <path id="DejaVuSans-32"/>
      <path d="M 34.1875 63.1875 
L 20.796875 26.90625 
L 47.609375 26.90625 
z
M 28.609375 72.90625 
L 39.796875 72.90625 
L 67.578125 0 
L 57.328125 0 
L 50.6875 18.703125 
L 17.828125 18.703125 
L 11.1875 0 
L 0.78125 0 
z
" id="DejaVuSans-65"/>
     </defs>
     <g style="fill:#2f2235;" transform="translate(101.84 290.7875)scale(0.16 -0.16)">
      <use xlink:href="#DejaVuSans-73"/>
      <use x="29.492188" xlink:href="#DejaVuSans-110"/>
      <use x="92.871094" xlink:href="#DejaVuSans-118"/>
      <use x="152.050781" xlink:href="#DejaVuSans-101"/>
      <use x="213.574219" xlink:href="#DejaVuSans-115"/>
      <use x="265.673828" xlink:href="#DejaVuSans-116"/>
      <use x="304.882812" xlink:href="#DejaVuSans-109"/>
      <use x="402.294922" xlink:href="#DejaVuSans-101"/>
      <use x="463.818359" xlink:href="#DejaVuSans-110"/>
      <use x="527.197266" xlink:href="#DejaVuSans-116"/>
      <use x="566.40625" xlink:href="#DejaVuSans-32"/>
      <use x="598.193359" xlink:href="#DejaVuSans-65"/>
     </g>
    </g>
    <g id="line2d_26">
     <path d="M 73.84 307.7725 
L 93.84 307.7725 
" style="fill:none;stroke:#86a776;stroke-linecap:square;stroke-width:2;"/>
    </g>
    <g id="line2d_27"/>
    <g id="text_17">
     <!-- Investment B -->
     <defs>
      <path d="M 19.671875 34.8125 
L 19.671875 8.109375 
L 35.5 8.109375 
Q 43.453125 8.109375 47.28125 11.40625 
Q 51.125 14.703125 51.125 21.484375 
Q 51.125 28.328125 47.28125 31.5625 
Q 43.453125 34.8125 35.5 34.8125 
z
M 19.671875 64.796875 
L 19.671875 42.828125 
L 34.28125 42.828125 
Q 41.5 42.828125 45.03125 45.53125 
Q 48.578125 48.25 48.578125 53.8125 
Q 48.578125 59.328125 45.03125 62.0625 
Q 41.5 64.796875 34.28125 64.796875 
z
M 9.8125 72.90625 
L 35.015625 72.90625 
Q 46.296875 72.90625 52.390625 68.21875 
Q 58.5 63.53125 58.5 54.890625 
Q 58.5 48.1875 55.375 44.234375 
Q 52.25 40.28125 46.1875 39.3125 
Q 53.46875 37.75 57.5 32.78125 
Q 61.53125 27.828125 61.53125 20.40625 
Q 61.53125 10.640625 54.890625 5.3125 
Q 48.25 0 35.984375 0 
L 9.8125 0 
z
" id="DejaVuSans-66"/>
     </defs>
     <g style="fill:#2f2235;" transform="translate(101.84 311.2725)scale(0.16 -0.16)">
      <use xlink:href="#DejaVuSans-73"/>
      <use x="29.492188" xlink:href="#DejaVuSans-110"/>
      <use x="92.871094" xlink:href="#DejaVuSans-118"/>
      <use x="152.050781" xlink:href="#DejaVuSans-101"/>
      <use x="213.574219" xlink:href="#DejaVuSans-115"/>
      <use x="265.673828" xlink:href="#DejaVuSans-116"/>
      <use x="304.882812" xlink:href="#DejaVuSans-109"/>
      <use x="402.294922" xlink:href="#DejaVuSans-101"/>
      <use x="463.818359" xlink:href="#DejaVuSans-110"/>
      <use x="527.197266" xlink:href="#DejaVuSans-116"/>
      <use x="566.40625" xlink:href="#DejaVuSans-32"/>
      <use x="598.193359" xlink:href="#DejaVuSans-66"/>
     </g>
    </g>
   </g>
   <g id="patch_7">
    <path clip-path="url(#p1672968792)" d="M 288.448655 323.6 
L 288.448655 7.2 
L 384.882218 7.2 
L 384.882218 323.6 
z
" style="opacity:0.05;"/>
   </g>
  </g>
 </g>
 <defs>
  <clipPath id="p1672968792">
   <rect height="316.4" width="641.15" x="64.84" y="7.2"/>
  </clipPath>
 </defs>
</svg>
