<?xml version="1.0" encoding="utf-8" standalone="no"?>
<!DOCTYPE svg PUBLIC "-//W3C//DTD SVG 1.1//EN"
  "http://www.w3.org/Graphics/SVG/1.1/DTD/svg11.dtd">
<svg xmlns:xlink="http://www.w3.org/1999/xlink" width="504pt" height="216pt" viewBox="0 0 504 216" xmlns="http://www.w3.org/2000/svg" version="1.1">
 <metadata>
  <rdf:RDF xmlns:dc="http://purl.org/dc/elements/1.1/" xmlns:cc="http://creativecommons.org/ns#" xmlns:rdf="http://www.w3.org/1999/02/22-rdf-syntax-ns#">
   <cc:Work>
    <dc:type rdf:resource="http://purl.org/dc/dcmitype/StillImage"/>
    <dc:date>2025-08-29T15:22:43.524823</dc:date>
    <dc:format>image/svg+xml</dc:format>
    <dc:creator>
     <cc:Agent>
      <dc:title>Matplotlib v3.10.5, https://matplotlib.org/</dc:title>
     </cc:Agent>
    </dc:creator>
   </cc:Work>
  </rdf:RDF>
 </metadata>
 <defs>
  <style type="text/css">*{stroke-linejoin: round; stroke-linecap: butt}</style>
 </defs>
 <g id="figure_1">
  <g id="patch_1">
   <path d="M 0 216 
L 504 216 
L 504 0 
L 0 0 
L 0 216 
z
" style="fill: none"/>
  </g>
  <g id="axes_1">
   <g id="patch_2">
    <path d="M 24.19 188.12 
L 493.2 188.12 
L 493.2 10.8 
L 24.19 10.8 
L 24.19 188.12 
z
" style="fill: none"/>
   </g>
   <g id="matplotlib.axis_1">
    <g id="xtick_1">
     <g id="line2d_1">
      <defs>
       <path id="m2dad06a556" d="M 0 0 
L 0 3.5 
" style="stroke: #000000; stroke-width: 0.8"/>
      </defs>
      <g>
       <use xlink:href="#m2dad06a556" x="91.191429" y="188.12" style="stroke: #000000; stroke-width: 0.8"/>
      </g>
     </g>
     <g id="text_1">
      <!-- 2008 -->
      <g transform="translate(78.466429 202.718437) scale(0.1 -0.1)">
       <defs>
        <path id="DejaVuSans-32" d="M 1228 531 
L 3431 531 
L 3431 0 
L 469 0 
L 469 531 
Q 828 903 1448 1529 
Q 2069 2156 2228 2338 
Q 2531 2678 2651 2914 
Q 2772 3150 2772 3378 
Q 2772 3750 2511 3984 
Q 2250 4219 1831 4219 
Q 1534 4219 1204 4116 
Q 875 4013 500 3803 
L 500 4441 
Q 881 4594 1212 4672 
Q 1544 4750 1819 4750 
Q 2544 4750 2975 4387 
Q 3406 4025 3406 3419 
Q 3406 3131 3298 2873 
Q 3191 2616 2906 2266 
Q 2828 2175 2409 1742 
Q 1991 1309 1228 531 
z
" transform="scale(0.015625)"/>
        <path id="DejaVuSans-30" d="M 2034 4250 
Q 1547 4250 1301 3770 
Q 1056 3291 1056 2328 
Q 1056 1369 1301 889 
Q 1547 409 2034 409 
Q 2525 409 2770 889 
Q 3016 1369 3016 2328 
Q 3016 3291 2770 3770 
Q 2525 4250 2034 4250 
z
M 2034 4750 
Q 2819 4750 3233 4129 
Q 3647 3509 3647 2328 
Q 3647 1150 3233 529 
Q 2819 -91 2034 -91 
Q 1250 -91 836 529 
Q 422 1150 422 2328 
Q 422 3509 836 4129 
Q 1250 4750 2034 4750 
z
" transform="scale(0.015625)"/>
        <path id="DejaVuSans-38" d="M 2034 2216 
Q 1584 2216 1326 1975 
Q 1069 1734 1069 1313 
Q 1069 891 1326 650 
Q 1584 409 2034 409 
Q 2484 409 2743 651 
Q 3003 894 3003 1313 
Q 3003 1734 2745 1975 
Q 2488 2216 2034 2216 
z
M 1403 2484 
Q 997 2584 770 2862 
Q 544 3141 544 3541 
Q 544 4100 942 4425 
Q 1341 4750 2034 4750 
Q 2731 4750 3128 4425 
Q 3525 4100 3525 3541 
Q 3525 3141 3298 2862 
Q 3072 2584 2669 2484 
Q 3125 2378 3379 2068 
Q 3634 1759 3634 1313 
Q 3634 634 3220 271 
Q 2806 -91 2034 -91 
Q 1263 -91 848 271 
Q 434 634 434 1313 
Q 434 1759 690 2068 
Q 947 2378 1403 2484 
z
M 1172 3481 
Q 1172 3119 1398 2916 
Q 1625 2713 2034 2713 
Q 2441 2713 2670 2916 
Q 2900 3119 2900 3481 
Q 2900 3844 2670 4047 
Q 2441 4250 2034 4250 
Q 1625 4250 1398 4047 
Q 1172 3844 1172 3481 
z
" transform="scale(0.015625)"/>
       </defs>
       <use xlink:href="#DejaVuSans-32"/>
       <use xlink:href="#DejaVuSans-30" transform="translate(63.623047 0)"/>
       <use xlink:href="#DejaVuSans-30" transform="translate(127.246094 0)"/>
       <use xlink:href="#DejaVuSans-38" transform="translate(190.869141 0)"/>
      </g>
     </g>
    </g>
    <g id="xtick_2">
     <g id="line2d_2">
      <g>
       <use xlink:href="#m2dad06a556" x="177.422125" y="188.12" style="stroke: #000000; stroke-width: 0.8"/>
      </g>
     </g>
     <g id="text_2">
      <!-- 2012 -->
      <g transform="translate(164.697125 202.718437) scale(0.1 -0.1)">
       <defs>
        <path id="DejaVuSans-31" d="M 794 531 
L 1825 531 
L 1825 4091 
L 703 3866 
L 703 4441 
L 1819 4666 
L 2450 4666 
L 2450 531 
L 3481 531 
L 3481 0 
L 794 0 
L 794 531 
z
" transform="scale(0.015625)"/>
       </defs>
       <use xlink:href="#DejaVuSans-32"/>
       <use xlink:href="#DejaVuSans-30" transform="translate(63.623047 0)"/>
       <use xlink:href="#DejaVuSans-31" transform="translate(127.246094 0)"/>
       <use xlink:href="#DejaVuSans-32" transform="translate(190.869141 0)"/>
      </g>
     </g>
    </g>
    <g id="xtick_3">
     <g id="line2d_3">
      <g>
       <use xlink:href="#m2dad06a556" x="263.652822" y="188.12" style="stroke: #000000; stroke-width: 0.8"/>
      </g>
     </g>
     <g id="text_3">
      <!-- 2016 -->
      <g transform="translate(250.927822 202.718437) scale(0.1 -0.1)">
       <defs>
        <path id="DejaVuSans-36" d="M 2113 2584 
Q 1688 2584 1439 2293 
Q 1191 2003 1191 1497 
Q 1191 994 1439 701 
Q 1688 409 2113 409 
Q 2538 409 2786 701 
Q 3034 994 3034 1497 
Q 3034 2003 2786 2293 
Q 2538 2584 2113 2584 
z
M 3366 4563 
L 3366 3988 
Q 3128 4100 2886 4159 
Q 2644 4219 2406 4219 
Q 1781 4219 1451 3797 
Q 1122 3375 1075 2522 
Q 1259 2794 1537 2939 
Q 1816 3084 2150 3084 
Q 2853 3084 3261 2657 
Q 3669 2231 3669 1497 
Q 3669 778 3244 343 
Q 2819 -91 2113 -91 
Q 1303 -91 875 529 
Q 447 1150 447 2328 
Q 447 3434 972 4092 
Q 1497 4750 2381 4750 
Q 2619 4750 2861 4703 
Q 3103 4656 3366 4563 
z
" transform="scale(0.015625)"/>
       </defs>
       <use xlink:href="#DejaVuSans-32"/>
       <use xlink:href="#DejaVuSans-30" transform="translate(63.623047 0)"/>
       <use xlink:href="#DejaVuSans-31" transform="translate(127.246094 0)"/>
       <use xlink:href="#DejaVuSans-36" transform="translate(190.869141 0)"/>
      </g>
     </g>
    </g>
    <g id="xtick_4">
     <g id="line2d_4">
      <g>
       <use xlink:href="#m2dad06a556" x="349.883519" y="188.12" style="stroke: #000000; stroke-width: 0.8"/>
      </g>
     </g>
     <g id="text_4">
      <!-- 2020 -->
      <g transform="translate(337.158519 202.718437) scale(0.1 -0.1)">
       <use xlink:href="#DejaVuSans-32"/>
       <use xlink:href="#DejaVuSans-30" transform="translate(63.623047 0)"/>
       <use xlink:href="#DejaVuSans-32" transform="translate(127.246094 0)"/>
       <use xlink:href="#DejaVuSans-30" transform="translate(190.869141 0)"/>
      </g>
     </g>
    </g>
    <g id="xtick_5">
     <g id="line2d_5">
      <g>
       <use xlink:href="#m2dad06a556" x="436.114216" y="188.12" style="stroke: #000000; stroke-width: 0.8"/>
      </g>
     </g>
     <g id="text_5">
      <!-- 2024 -->
      <g transform="translate(423.389216 202.718437) scale(0.1 -0.1)">
       <defs>
        <path id="DejaVuSans-34" d="M 2419 4116 
L 825 1625 
L 2419 1625 
L 2419 4116 
z
M 2253 4666 
L 3047 4666 
L 3047 1625 
L 3713 1625 
L 3713 1100 
L 3047 1100 
L 3047 0 
L 2419 0 
L 2419 1100 
L 313 1100 
L 313 1709 
L 2253 4666 
z
" transform="scale(0.015625)"/>
       </defs>
       <use xlink:href="#DejaVuSans-32"/>
       <use xlink:href="#DejaVuSans-30" transform="translate(63.623047 0)"/>
       <use xlink:href="#DejaVuSans-32" transform="translate(127.246094 0)"/>
       <use xlink:href="#DejaVuSans-34" transform="translate(190.869141 0)"/>
      </g>
     </g>
    </g>
   </g>
   <g id="matplotlib.axis_2">
    <g id="ytick_1">
     <g id="line2d_6">
      <path d="M 24.19 180.063859 
L 493.2 180.063859 
" clip-path="url(#pdf1d30b477)" style="fill: none; stroke-dasharray: 2.96,1.28; stroke-dashoffset: 0; stroke: #808080; stroke-opacity: 0.3; stroke-width: 0.8"/>
     </g>
     <g id="line2d_7">
      <defs>
       <path id="m685cc32232" d="M 0 0 
L -3.5 0 
" style="stroke: #000000; stroke-width: 0.8"/>
      </defs>
      <g>
       <use xlink:href="#m685cc32232" x="24.19" y="180.063859" style="stroke: #000000; stroke-width: 0.8"/>
      </g>
     </g>
     <g id="text_6">
      <!-- 1 -->
      <g transform="translate(10.8275 183.863078) scale(0.1 -0.1)">
       <use xlink:href="#DejaVuSans-31"/>
      </g>
     </g>
    </g>
    <g id="ytick_2">
     <g id="line2d_8">
      <path d="M 24.19 147.540137 
L 493.2 147.540137 
" clip-path="url(#pdf1d30b477)" style="fill: none; stroke-dasharray: 2.96,1.28; stroke-dashoffset: 0; stroke: #808080; stroke-opacity: 0.3; stroke-width: 0.8"/>
     </g>
     <g id="line2d_9">
      <g>
       <use xlink:href="#m685cc32232" x="24.19" y="147.540137" style="stroke: #000000; stroke-width: 0.8"/>
      </g>
     </g>
     <g id="text_7">
      <!-- 2 -->
      <g transform="translate(10.8275 151.339356) scale(0.1 -0.1)">
       <use xlink:href="#DejaVuSans-32"/>
      </g>
     </g>
    </g>
    <g id="ytick_3">
     <g id="line2d_10">
      <path d="M 24.19 115.016415 
L 493.2 115.016415 
" clip-path="url(#pdf1d30b477)" style="fill: none; stroke-dasharray: 2.96,1.28; stroke-dashoffset: 0; stroke: #808080; stroke-opacity: 0.3; stroke-width: 0.8"/>
     </g>
     <g id="line2d_11">
      <g>
       <use xlink:href="#m685cc32232" x="24.19" y="115.016415" style="stroke: #000000; stroke-width: 0.8"/>
      </g>
     </g>
     <g id="text_8">
      <!-- 3 -->
      <g transform="translate(10.8275 118.815634) scale(0.1 -0.1)">
       <defs>
        <path id="DejaVuSans-33" d="M 2597 2516 
Q 3050 2419 3304 2112 
Q 3559 1806 3559 1356 
Q 3559 666 3084 287 
Q 2609 -91 1734 -91 
Q 1441 -91 1130 -33 
Q 819 25 488 141 
L 488 750 
Q 750 597 1062 519 
Q 1375 441 1716 441 
Q 2309 441 2620 675 
Q 2931 909 2931 1356 
Q 2931 1769 2642 2001 
Q 2353 2234 1838 2234 
L 1294 2234 
L 1294 2753 
L 1863 2753 
Q 2328 2753 2575 2939 
Q 2822 3125 2822 3475 
Q 2822 3834 2567 4026 
Q 2313 4219 1838 4219 
Q 1578 4219 1281 4162 
Q 984 4106 628 3988 
L 628 4550 
Q 988 4650 1302 4700 
Q 1616 4750 1894 4750 
Q 2613 4750 3031 4423 
Q 3450 4097 3450 3541 
Q 3450 3153 3228 2886 
Q 3006 2619 2597 2516 
z
" transform="scale(0.015625)"/>
       </defs>
       <use xlink:href="#DejaVuSans-33"/>
      </g>
     </g>
    </g>
    <g id="ytick_4">
     <g id="line2d_12">
      <path d="M 24.19 82.492694 
L 493.2 82.492694 
" clip-path="url(#pdf1d30b477)" style="fill: none; stroke-dasharray: 2.96,1.28; stroke-dashoffset: 0; stroke: #808080; stroke-opacity: 0.3; stroke-width: 0.8"/>
     </g>
     <g id="line2d_13">
      <g>
       <use xlink:href="#m685cc32232" x="24.19" y="82.492694" style="stroke: #000000; stroke-width: 0.8"/>
      </g>
     </g>
     <g id="text_9">
      <!-- 4 -->
      <g transform="translate(10.8275 86.291912) scale(0.1 -0.1)">
       <use xlink:href="#DejaVuSans-34"/>
      </g>
     </g>
    </g>
    <g id="ytick_5">
     <g id="line2d_14">
      <path d="M 24.19 49.968972 
L 493.2 49.968972 
" clip-path="url(#pdf1d30b477)" style="fill: none; stroke-dasharray: 2.96,1.28; stroke-dashoffset: 0; stroke: #808080; stroke-opacity: 0.3; stroke-width: 0.8"/>
     </g>
     <g id="line2d_15">
      <g>
       <use xlink:href="#m685cc32232" x="24.19" y="49.968972" style="stroke: #000000; stroke-width: 0.8"/>
      </g>
     </g>
     <g id="text_10">
      <!-- 5 -->
      <g transform="translate(10.8275 53.768191) scale(0.1 -0.1)">
       <defs>
        <path id="DejaVuSans-35" d="M 691 4666 
L 3169 4666 
L 3169 4134 
L 1269 4134 
L 1269 2991 
Q 1406 3038 1543 3061 
Q 1681 3084 1819 3084 
Q 2600 3084 3056 2656 
Q 3513 2228 3513 1497 
Q 3513 744 3044 326 
Q 2575 -91 1722 -91 
Q 1428 -91 1123 -41 
Q 819 9 494 109 
L 494 744 
Q 775 591 1075 516 
Q 1375 441 1709 441 
Q 2250 441 2565 725 
Q 2881 1009 2881 1497 
Q 2881 1984 2565 2268 
Q 2250 2553 1709 2553 
Q 1456 2553 1204 2497 
Q 953 2441 691 2322 
L 691 4666 
z
" transform="scale(0.015625)"/>
       </defs>
       <use xlink:href="#DejaVuSans-35"/>
      </g>
     </g>
    </g>
    <g id="ytick_6">
     <g id="line2d_16">
      <path d="M 24.19 17.44525 
L 493.2 17.44525 
" clip-path="url(#pdf1d30b477)" style="fill: none; stroke-dasharray: 2.96,1.28; stroke-dashoffset: 0; stroke: #808080; stroke-opacity: 0.3; stroke-width: 0.8"/>
     </g>
     <g id="line2d_17">
      <g>
       <use xlink:href="#m685cc32232" x="24.19" y="17.44525" style="stroke: #000000; stroke-width: 0.8"/>
      </g>
     </g>
     <g id="text_11">
      <!-- 6 -->
      <g transform="translate(10.8275 21.244469) scale(0.1 -0.1)">
       <use xlink:href="#DejaVuSans-36"/>
      </g>
     </g>
    </g>
   </g>
   <g id="line2d_18">
    <path d="M 45.508636 180.06 
L 45.921788 179.587078 
L 46.157875 179.717025 
L 46.216897 179.915121 
L 46.33494 179.595641 
L 46.512005 179.625862 
L 46.748092 179.362398 
L 47.0432 179.333824 
L 47.161244 179.444344 
L 47.456352 179.617955 
L 47.574396 179.26451 
L 47.987548 179.324194 
L 48.577765 178.329346 
L 48.636786 178.426627 
L 48.695808 178.358742 
L 49.049938 178.301506 
L 49.10896 178.457816 
L 49.167981 178.229785 
L 49.227003 178.492531 
L 49.46309 178.383152 
L 49.581133 178.466533 
L 49.640155 178.314403 
L 49.935264 178.201086 
L 50.053307 178.383037 
L 50.230372 178.286055 
L 50.289394 178.678596 
L 50.348415 178.637383 
L 50.407437 178.44641 
L 50.466459 178.601888 
L 50.643524 178.689188 
L 50.879611 178.073218 
L 51.115697 178.115395 
L 51.174719 177.864248 
L 51.233741 177.978858 
L 51.292763 177.937733 
L 51.646893 177.972879 
L 51.705914 178.169871 
L 52.119066 178.295756 
L 52.296131 178.298634 
L 52.532218 177.619757 
L 52.709283 177.738544 
L 52.768305 177.979999 
L 52.827327 177.88232 
L 52.886348 177.929624 
L 52.94537 177.747326 
L 53.181457 177.963429 
L 53.240478 177.734914 
L 53.2995 177.801288 
L 53.594609 177.913604 
L 53.65363 177.796903 
L 53.712652 177.878263 
L 53.771674 178.264169 
L 53.948739 178.197346 
L 54.125804 178.508862 
L 54.361891 178.353151 
L 54.479934 177.76854 
L 54.538956 177.970274 
L 54.597977 177.739758 
L 54.775043 177.837455 
L 54.893086 178.004262 
L 55.011129 177.729624 
L 55.188194 177.997698 
L 55.424281 177.463454 
L 55.601346 177.46549 
L 55.71939 177.298733 
L 55.837433 177.925362 
L 56.014498 177.973492 
L 56.07352 177.850213 
L 56.132542 178.294706 
L 56.191563 178.248797 
L 56.250585 178.232576 
L 56.545693 178.455398 
L 56.663737 178.063413 
L 56.958845 178.324099 
L 57.076889 177.801341 
L 57.667106 178.29934 
L 57.785149 178.899485 
L 57.844171 178.523608 
L 57.903192 178.611756 
L 58.139279 178.806478 
L 58.198301 178.591984 
L 58.316344 178.869303 
L 58.611453 178.818474 
L 58.729496 178.004999 
L 58.906561 177.790507 
L 59.024605 177.953762 
L 59.142648 177.808174 
L 59.319713 177.756941 
L 59.437756 177.554704 
L 59.5558 177.817625 
L 59.791887 177.956292 
L 59.850908 177.513341 
L 59.90993 177.685154 
L 59.968952 177.947722 
L 60.795255 176.875277 
L 60.972321 176.941987 
L 61.208407 177.475826 
L 61.385472 177.461611 
L 61.503516 176.93969 
L 61.562538 177.03461 
L 61.798624 176.758594 
L 62.68395 176.322616 
L 62.801993 176.674376 
L 62.861015 176.609583 
L 63.03808 176.735036 
L 63.156123 176.380684 
L 63.215145 176.547988 
L 63.274167 176.469062 
L 63.451232 176.475944 
L 63.687319 176.118949 
L 64.041449 175.830947 
L 64.336557 175.989503 
L 64.454601 175.713083 
L 64.513622 175.917768 
L 64.690687 175.813544 
L 64.808731 176.008305 
L 64.926774 175.642482 
L 65.280904 175.482 
L 65.339926 175.548807 
L 65.576013 175.549402 
L 65.694056 175.082669 
L 65.753078 175.148574 
L 66.048186 174.896979 
L 66.16623 175.306296 
L 66.579382 174.887366 
L 66.756447 174.861993 
L 66.87449 174.6467 
L 66.992533 174.577875 
L 67.405685 173.916766 
L 67.58275 174.213596 
L 67.641772 174.123626 
L 67.995902 173.53371 
L 68.231989 174.021051 
L 68.468076 173.875948 
L 68.645141 174.131269 
L 69.058293 174.402643 
L 69.471445 174.128311 
L 69.825575 174.070516 
L 69.884597 174.493813 
L 70.238727 174.16025 
L 70.297748 173.95941 
L 70.946987 173.762208 
L 71.006009 173.56169 
L 71.124052 173.788599 
L 71.301117 173.838018 
L 71.478182 173.254963 
L 71.537204 173.289865 
L 71.714269 173.264599 
L 71.891334 172.806413 
L 72.127421 173.247689 
L 72.363508 172.673632 
L 72.599595 172.665144 
L 72.658616 172.525166 
L 72.717638 172.665327 
L 72.77666 172.682996 
L 72.953725 172.601061 
L 73.012746 173.395641 
L 73.071768 173.217454 
L 73.366877 174.151207 
L 73.543942 173.535468 
L 73.602963 173.667668 
L 73.780028 173.545589 
L 73.83905 173.83589 
L 73.898072 173.794128 
L 74.311224 173.186706 
L 74.370245 173.335288 
L 74.429267 173.429699 
L 74.606332 173.44584 
L 74.783397 173.722647 
L 75.196549 173.390483 
L 75.432636 173.515527 
L 75.491658 173.365235 
L 75.550679 173.512502 
L 75.609701 173.515948 
L 75.963831 172.870081 
L 76.022853 173.029351 
L 76.081875 172.81649 
L 76.376983 172.747943 
L 76.436005 172.957896 
L 76.495026 172.916515 
L 76.790135 172.935587 
L 76.908178 172.692959 
L 77.085243 172.623124 
L 77.262308 173.067163 
L 77.32133 172.904506 
L 77.616439 173.206917 
L 77.734482 173.487357 
L 77.970569 173.453612 
L 78.029591 173.508937 
L 78.088612 173.769093 
L 78.147634 173.711165 
L 78.737851 173.03641 
L 78.914916 174.205606 
L 78.973938 174.137916 
L 79.151003 174.188902 
L 79.210024 174.684646 
L 79.387089 173.95594 
L 79.564155 174.070975 
L 79.623176 173.835413 
L 79.74122 174.364811 
L 79.977306 174.481601 
L 80.036328 174.717259 
L 80.213393 174.230969 
L 80.390458 173.832832 
L 80.44948 173.933239 
L 80.567523 174.057874 
L 80.626545 173.985255 
L 80.862632 173.915198 
L 80.921654 174.003786 
L 81.039697 173.589544 
L 81.334805 173.467762 
L 81.452849 173.367606 
L 81.629914 173.476533 
L 81.866001 174.65722 
L 82.220131 174.105806 
L 82.279153 174.328141 
L 82.574261 173.849252 
L 82.692304 174.392523 
L 82.86937 174.393341 
L 82.987413 174.878905 
L 83.046435 174.703061 
L 83.105456 174.459772 
L 83.341543 174.246396 
L 83.518608 173.791069 
L 83.695673 173.905317 
L 83.754695 174.256045 
L 83.93176 173.563626 
L 84.521977 172.884811 
L 84.580999 172.565688 
L 84.64002 172.6435 
L 84.758064 172.640686 
L 84.935129 172.493508 
L 84.994151 172.081866 
L 85.053172 172.135788 
L 85.112194 172.422797 
L 85.171216 172.296057 
L 85.348281 172.180881 
L 85.407302 172.371582 
L 85.466324 172.289962 
L 85.584368 171.906687 
L 85.761433 171.532299 
L 85.820454 171.648658 
L 85.879476 171.804865 
L 85.997519 171.387986 
L 86.174584 171.680741 
L 86.292628 171.474062 
L 86.587736 171.556083 
L 86.646758 171.693615 
L 86.70578 171.586906 
L 86.764801 171.324263 
L 86.823823 171.627704 
L 87.000888 171.587435 
L 87.236975 170.892435 
L 87.41404 170.829168 
L 87.473062 170.934654 
L 87.532083 170.70011 
L 87.591105 171.0736 
L 87.650127 170.831073 
L 87.827192 171.001692 
L 87.886214 170.670889 
L 88.063279 171.080243 
L 88.240344 171.523817 
L 88.358387 171.023239 
L 88.476431 171.313148 
L 88.653496 171.494552 
L 88.889582 170.966537 
L 89.125669 171.104688 
L 89.184691 170.726605 
L 89.243713 170.796252 
L 89.479799 170.611845 
L 89.538821 170.726216 
L 89.597843 170.687475 
L 89.656864 170.45074 
L 89.715886 170.762516 
L 89.892951 170.5095 
L 90.129038 171.608966 
L 90.306103 171.823127 
L 90.424147 171.171993 
L 90.483168 171.234176 
L 90.54219 171.041348 
L 90.719255 170.843114 
L 90.89632 170.961416 
L 90.955342 170.675035 
L 91.132407 170.676552 
L 91.25045 170.284421 
L 91.309472 170.424862 
L 91.368494 170.990297 
L 91.545559 170.917897 
L 91.60458 171.082824 
L 91.781646 170.665494 
L 91.958711 170.440692 
L 92.194797 171.432404 
L 92.430884 171.144002 
L 92.489906 170.381969 
L 92.548928 170.482502 
L 92.785014 169.903538 
L 92.844036 170.075431 
L 92.903058 170.292572 
L 93.021101 169.709574 
L 93.198166 170.096631 
L 93.375231 170.731316 
L 93.611318 170.615773 
L 93.729361 170.684592 
L 93.788383 171.069584 
L 93.847405 170.982955 
L 94.083492 170.820645 
L 94.260557 170.393734 
L 94.437622 170.302259 
L 94.614687 169.833082 
L 94.673709 169.935319 
L 94.850774 169.836203 
L 95.027839 170.616647 
L 95.263926 170.710312 
L 95.440991 169.70091 
L 95.500012 169.766039 
L 95.677077 169.677799 
L 95.736099 169.335556 
L 95.795121 169.791629 
L 95.854143 169.71698 
L 96.090229 169.660101 
L 96.149251 169.260436 
L 96.208273 169.464667 
L 96.326316 169.895125 
L 96.562403 169.839043 
L 96.739468 169.207207 
L 96.916533 169.251263 
L 96.975555 169.414277 
L 97.034576 169.283059 
L 97.093598 169.312334 
L 97.15262 169.543537 
L 97.388707 169.786633 
L 97.447728 169.215954 
L 97.50675 169.27915 
L 97.565772 169.422963 
L 97.86088 169.543601 
L 97.919902 169.717038 
L 97.978924 169.670638 
L 98.155989 169.582728 
L 98.21501 169.83424 
L 98.274032 169.785112 
L 98.333054 169.695091 
L 98.392075 169.820391 
L 98.628162 169.655458 
L 98.687184 170.047979 
L 98.746206 169.823319 
L 98.805227 169.802162 
L 98.982292 169.584941 
L 99.041314 169.90016 
L 99.100336 169.84744 
L 99.218379 169.180587 
L 99.454466 169.046399 
L 99.631531 169.740608 
L 99.926639 169.951915 
L 99.985661 170.183133 
L 100.044683 169.995455 
L 100.339791 170.256232 
L 100.398813 169.97904 
L 100.457835 170.171872 
L 100.6349 170.386786 
L 100.811965 171.117208 
L 100.870987 170.883301 
L 101.048052 170.673102 
L 101.107073 170.865603 
L 101.166095 170.832866 
L 101.225117 170.748277 
L 101.461204 171.231704 
L 101.69729 170.876117 
L 101.992399 170.868135 
L 102.051421 171.055268 
L 102.287507 171.300473 
L 102.346529 170.555721 
L 102.405551 170.990639 
L 102.464572 170.671943 
L 102.523594 170.936643 
L 102.700659 170.986976 
L 102.759681 171.168787 
L 102.818703 171.015953 
L 103.172833 170.792107 
L 103.231854 170.870779 
L 103.349898 171.237819 
L 103.526963 171.288235 
L 103.704028 170.907451 
L 104.11718 171.209356 
L 104.176202 171.020854 
L 104.530332 171.460048 
L 104.766419 171.461354 
L 104.82544 171.591558 
L 104.884462 171.524293 
L 105.002505 171.206337 
L 105.17957 171.39698 
L 105.356635 170.740265 
L 105.415657 171.012854 
L 105.651744 171.119873 
L 105.710766 171.001314 
L 105.769787 171.352971 
L 105.828809 171.27117 
L 106.005874 170.78782 
L 106.123917 171.627017 
L 106.182939 171.549165 
L 106.419026 171.451147 
L 106.655113 170.290835 
L 106.950221 171.161193 
L 107.009243 170.995296 
L 107.068265 170.662783 
L 107.304351 171.133673 
L 107.363373 170.95177 
L 107.481416 172.031185 
L 107.658482 172.158368 
L 107.894568 174.678375 
L 108.071633 173.578442 
L 108.30772 175.462537 
L 108.484785 174.81826 
L 108.720872 176.489944 
L 108.897937 176.917879 
L 108.956959 175.751571 
L 109.015981 176.008255 
L 109.075002 175.941639 
L 109.134024 176.067488 
L 109.311089 176.153131 
L 109.370111 174.9137 
L 109.429132 175.577378 
L 109.488154 176.260471 
L 109.547176 175.946681 
L 109.724241 176.144934 
L 109.842284 177.030342 
L 109.901306 176.566889 
L 110.137393 176.905214 
L 110.196414 176.612211 
L 110.255436 176.973694 
L 110.786631 173.097479 
L 110.963697 174.352289 
L 111.140762 173.013593 
L 111.376848 172.064947 
L 111.43587 172.107749 
L 111.494892 171.294185 
L 111.553913 171.844703 
L 111.612935 171.365301 
L 111.79 171.120365 
L 111.908044 168.929442 
L 111.967065 169.174751 
L 112.026087 169.099099 
L 112.262174 169.618704 
L 112.321196 169.45575 
L 112.439239 168.990014 
L 112.616304 169.150044 
L 112.675326 168.685533 
L 112.734347 168.713152 
L 113.560651 171.463456 
L 113.678695 170.957715 
L 114.032825 172.072407 
L 114.091846 171.502005 
L 114.268911 171.565065 
L 114.386955 171.018427 
L 114.504998 171.865234 
L 114.682063 171.810965 
L 114.800107 172.270161 
L 114.91815 171.6855 
L 115.095215 171.732587 
L 115.154237 171.871593 
L 115.213259 171.257866 
L 115.27228 171.358606 
L 115.331302 172.215024 
L 115.62641 171.910271 
L 115.685432 172.589179 
L 115.744454 172.015815 
L 115.921519 172.512567 
L 115.980541 172.234226 
L 116.157606 173.661859 
L 116.393692 174.504538 
L 116.452714 174.449271 
L 116.511736 174.220575 
L 116.570758 174.320392 
L 116.747823 174.628158 
L 116.924888 172.926842 
L 116.983909 172.998733 
L 117.160975 173.638816 
L 117.219996 173.292795 
L 117.279018 171.914922 
L 117.33804 172.078594 
L 117.397061 172.78828 
L 117.574126 171.894883 
L 117.633148 172.337627 
L 117.69217 172.265415 
L 117.751191 171.842694 
L 117.810213 172.207411 
L 117.987278 172.72258 
L 118.105322 171.861261 
L 118.164343 171.884465 
L 118.459452 172.717953 
L 118.518474 172.456747 
L 118.577495 171.911102 
L 118.813582 171.515555 
L 118.872604 171.936646 
L 118.931625 171.572681 
L 119.226734 172.055607 
L 119.462821 171.301559 
L 119.639886 171.602681 
L 119.698907 172.0417 
L 119.757929 171.787674 
L 119.875973 172.235592 
L 120.171081 171.20947 
L 120.230103 171.937919 
L 120.289124 171.414336 
L 120.466189 171.500954 
L 120.525211 171.326802 
L 120.584233 171.51714 
L 120.643255 171.316333 
L 120.702276 171.41984 
L 120.938363 171.419008 
L 120.997385 171.139352 
L 121.115428 171.65335 
L 121.351515 171.524624 
L 121.410537 172.114797 
L 121.469558 171.618356 
L 121.52858 170.678249 
L 121.705645 170.777311 
L 121.764667 170.670474 
L 121.941732 171.264558 
L 122.23684 171.653125 
L 122.295862 171.554848 
L 122.354884 171.491769 
L 122.531949 171.932411 
L 122.590971 171.771309 
L 122.649992 171.867475 
L 122.709014 172.083558 
L 122.768036 171.783825 
L 122.945101 172.358772 
L 123.181187 171.332437 
L 123.358253 171.261307 
L 123.417274 171.472639 
L 123.476296 171.202137 
L 123.535318 171.829644 
L 123.771404 171.830693 
L 123.948469 172.27815 
L 124.597708 171.016912 
L 124.774773 170.667621 
L 124.833795 170.511662 
L 125.01086 170.510196 
L 125.128903 170.873211 
L 125.246947 169.831491 
L 125.424012 169.669766 
L 125.483034 169.348159 
L 125.542055 169.369575 
L 125.601077 169.450186 
L 125.660099 169.281389 
L 125.955207 169.486806 
L 126.014229 169.07982 
L 126.073251 169.27769 
L 126.250316 169.85338 
L 126.309337 169.717806 
L 126.486402 168.809313 
L 126.663467 168.822121 
L 126.899554 168.230254 
L 127.076619 168.478413 
L 127.135641 168.94297 
L 127.312706 168.196558 
L 127.607815 167.906011 
L 127.725858 167.150911 
L 127.902923 167.192692 
L 128.079988 166.36511 
L 128.13901 166.568871 
L 128.316075 166.701097 
L 128.375097 166.233804 
L 128.434118 166.617621 
L 128.49314 167.098504 
L 128.552162 167.063339 
L 128.84727 166.467253 
L 128.965314 167.076724 
L 129.319444 165.7153 
L 129.378465 166.031072 
L 129.614552 165.800576 
L 129.673574 165.584813 
L 129.791617 165.924504 
L 129.968682 165.443603 
L 130.086726 165.880482 
L 130.145748 165.646854 
L 130.381834 166.584523 
L 130.440856 166.539503 
L 130.499878 167.111048 
L 130.558899 166.468808 
L 130.617921 166.741345 
L 130.794986 166.516332 
L 130.972051 165.99073 
L 131.031073 165.981229 
L 131.326181 164.953278 
L 131.385203 165.347123 
L 131.62129 164.191143 
L 131.739333 164.108935 
L 131.857377 164.376312 
L 132.152485 163.526837 
L 132.270529 164.033551 
L 132.506615 163.399691 
L 132.565637 163.077165 
L 132.68368 163.988563 
L 132.860745 164.183018 
L 133.037811 164.767325 
L 133.096832 164.762851 
L 133.273897 164.445003 
L 133.450962 164.796677 
L 133.509984 164.597095 
L 133.746071 164.895062 
L 133.864114 164.580544 
L 134.100201 164.544744 
L 134.277266 164.899346 
L 134.74944 164.255951 
L 134.926505 164.152311 
L 134.985527 164.335284 
L 135.10357 163.848814 
L 135.162592 164.093201 
L 135.398678 163.72778 
L 135.575743 165.193975 
L 135.752809 165.116964 
L 135.988895 165.529689 
L 136.224982 164.719876 
L 136.343026 165.989626 
L 136.402047 165.754636 
L 136.697156 166.15549 
L 136.815199 165.709284 
L 137.169329 164.933167 
L 137.228351 164.85504 
L 137.464438 164.997631 
L 137.818568 164.213819 
L 138.054655 163.739674 
L 138.349763 163.825454 
L 138.467807 163.536643 
L 138.644872 163.534761 
L 138.762915 162.687576 
L 138.821937 162.724938 
L 138.880958 163.06634 
L 139.117045 162.868637 
L 139.235089 163.451264 
L 139.29411 163.290203 
L 139.589219 163.191493 
L 139.64824 162.965628 
L 139.884327 162.86095 
L 140.120414 162.08778 
L 140.297479 162.093081 
L 140.415523 161.734144 
L 140.474544 161.874646 
L 140.533566 162.427566 
L 140.710631 162.383583 
L 140.946718 161.344212 
L 141.123783 161.364964 
L 141.241826 161.612815 
L 141.300848 161.006698 
L 141.35987 161.167348 
L 141.536935 160.727256 
L 141.654978 161.039019 
L 141.714 160.839617 
L 141.773021 161.402276 
L 142.06813 160.09249 
L 142.127152 160.363929 
L 142.186173 160.554357 
L 142.42226 160.812671 
L 142.540304 161.871506 
L 142.599325 161.517892 
L 142.77639 161.672855 
L 142.953455 161.012482 
L 143.012477 161.145813 
L 143.248564 161.228231 
L 143.307586 160.971287 
L 143.425629 161.50911 
L 143.779759 161.10642 
L 143.838781 160.611084 
L 144.015846 160.680659 
L 144.192911 159.809704 
L 144.251933 159.718807 
L 144.606063 160.636729 
L 144.665085 160.137513 
L 144.84215 160.320127 
L 145.078236 161.568485 
L 145.314323 161.746118 
L 145.491388 160.83316 
L 145.668453 160.932725 
L 145.845518 160.322045 
L 145.90454 160.998728 
L 146.081605 161.069631 
L 146.25867 160.292989 
L 146.317692 160.390708 
L 146.494757 160.187223 
L 146.671822 160.685746 
L 146.730844 160.208328 
L 147.143996 159.565265 
L 147.380083 159.595124 
L 147.498126 159.954671 
L 147.852256 158.836011 
L 147.911278 158.981049 
L 147.9703 159.124912 
L 148.147365 159.23795 
L 148.265408 158.83947 
L 148.32443 158.87852 
L 148.383451 158.994099 
L 148.560516 158.981203 
L 148.796603 158.045075 
L 149.091712 157.902817 
L 149.150733 158.40191 
L 149.209755 158.321646 
L 149.38682 157.98922 
L 149.445842 157.509379 
L 149.504864 157.589567 
L 149.563885 157.665319 
L 149.622907 157.592907 
L 149.858994 156.833285 
L 149.918015 156.878032 
L 149.977037 157.162929 
L 150.036059 156.751762 
L 150.213124 156.687363 
L 150.272146 156.330816 
L 150.331167 156.463364 
L 150.390189 156.491942 
L 150.449211 156.292778 
L 150.626276 156.347761 
L 150.744319 155.361635 
L 150.803341 155.685994 
L 150.862363 155.450704 
L 151.098449 155.418421 
L 151.157471 154.919841 
L 151.216493 155.120373 
L 151.275514 155.424589 
L 151.45258 155.025786 
L 151.511601 155.844787 
L 151.570623 155.278015 
L 151.629645 155.660663 
L 151.688666 155.493918 
L 151.865731 155.250457 
L 151.983775 155.967864 
L 152.042796 155.789883 
L 152.101818 155.480275 
L 152.278883 155.520615 
L 152.455948 154.178067 
L 152.51497 154.201598 
L 152.692035 154.086857 
L 152.751057 155.253675 
L 152.810079 154.852855 
L 152.8691 154.970939 
L 152.928122 155.776886 
L 153.22323 156.836117 
L 153.341274 156.039811 
L 153.518339 155.833064 
L 153.577361 156.01406 
L 153.636382 155.821817 
L 153.754426 155.962911 
L 154.049534 155.506499 
L 154.167578 154.913609 
L 154.344643 154.596557 
L 154.462686 155.56518 
L 154.521708 155.47975 
L 154.757794 155.227908 
L 154.875838 156.03813 
L 154.93486 155.917061 
L 154.993881 155.518193 
L 155.170946 155.24543 
L 155.28899 154.860623 
L 155.348011 155.009995 
L 155.64312 154.637965 
L 155.820185 154.121133 
L 155.99725 153.851217 
L 156.174315 154.757049 
L 156.410402 154.658401 
L 156.882576 154.263975 
L 157.000619 154.962475 
L 157.059641 154.828934 
L 157.236706 154.715578 
L 157.354749 154.445007 
L 157.413771 154.470237 
L 157.472792 154.74682 
L 157.649858 154.569278 
L 157.826923 154.128124 
L 157.885944 154.362548 
L 158.712248 153.010657 
L 159.066378 153.437694 
L 159.1254 152.800222 
L 159.302465 152.299372 
L 159.420508 153.008569 
L 159.47953 152.871827 
L 159.538552 152.854619 
L 159.715617 153.134228 
L 159.83366 152.829215 
L 159.892682 153.26375 
L 159.951704 153.057679 
L 160.128769 153.212768 
L 160.246812 153.860198 
L 160.305834 153.58798 
L 160.364856 153.201231 
L 160.541921 152.823659 
L 160.600942 152.917529 
L 160.778007 152.81757 
L 161.014094 152.935719 
L 161.191159 152.191776 
L 161.368224 152.096077 
L 161.427246 151.893204 
L 161.486268 152.040878 
L 161.604311 152.348211 
L 161.840398 152.574499 
L 161.89942 152.468892 
L 162.017463 151.49636 
L 162.194528 151.675571 
L 162.371593 150.885513 
L 162.60768 150.740266 
L 162.843767 149.308542 
L 163.079854 149.631919 
L 163.197897 150.390336 
L 163.256919 150.352644 
L 163.493005 149.745438 
L 163.67007 150.31733 
L 163.847136 150.334763 
L 164.024201 149.970529 
L 164.083222 150.111326 
L 164.260287 150.350411 
L 164.732461 149.041117 
L 164.850504 150.070704 
L 164.909526 150.015372 
L 165.086591 150.485308 
L 165.145613 150.289834 
L 165.204635 150.328791 
L 165.263656 150.325822 
L 165.322678 150.887315 
L 165.499743 151.07264 
L 165.73583 150.59056 
L 165.912895 150.329619 
L 165.971917 150.000755 
L 166.030938 150.094579 
L 166.148982 151.067439 
L 166.326047 151.168025 
L 166.562134 150.355495 
L 166.79822 149.915187 
L 166.975285 149.019014 
L 167.15235 149.12475 
L 167.270394 148.829453 
L 167.329416 149.270629 
L 167.388437 148.931666 
L 167.565502 149.166656 
L 167.742567 148.433015 
L 167.801589 148.081805 
L 167.978654 148.343846 
L 168.037676 148.214355 
L 168.096698 149.005897 
L 168.155719 148.960394 
L 168.214741 148.620588 
L 168.391806 148.795597 
L 168.509849 148.680731 
L 168.627893 150.239202 
L 168.804958 151.060725 
L 168.923001 148.637989 
L 168.982023 148.985247 
L 169.336153 147.095792 
L 169.395175 147.336802 
L 169.454197 147.302995 
L 169.631262 146.690929 
L 169.808327 148.197696 
L 169.867348 147.068235 
L 170.044414 146.901236 
L 170.103435 145.925303 
L 170.162457 146.172935 
L 170.221479 146.085398 
L 170.2805 145.55583 
L 170.575609 145.629473 
L 170.634631 145.210312 
L 170.693652 145.946666 
L 170.870717 146.201796 
L 170.929739 146.112163 
L 171.106804 145.350345 
L 171.283869 145.711104 
L 171.342891 145.394428 
L 171.519956 147.913601 
L 171.697021 147.863416 
L 171.756043 147.507526 
L 171.815064 148.65183 
L 171.874086 148.037216 
L 172.110173 148.580941 
L 172.287238 147.629073 
L 172.34626 148.374767 
L 172.523325 147.026225 
L 172.582346 147.447957 
L 172.641368 147.256001 
L 172.70039 147.283718 
L 172.759412 146.872768 
L 172.936477 147.213693 
L 172.995498 146.663051 
L 173.113542 147.460253 
L 173.172563 146.756433 
L 173.467672 145.430415 
L 173.585715 144.433617 
L 173.76278 144.49363 
L 173.821802 144.779943 
L 173.939845 143.70393 
L 173.998867 143.998462 
L 174.234954 143.284029 
L 174.352997 144.565661 
L 174.412019 143.67542 
L 174.589084 143.871943 
L 174.648106 143.697625 
L 175.002236 145.928525 
L 175.061258 145.634676 
L 175.238323 146.670002 
L 175.651475 144.305851 
L 175.887561 144.459084 
L 175.946583 144.044718 
L 176.005605 144.850208 
L 176.064626 144.652488 
L 176.359735 146.342262 
L 176.418757 146.198571 
L 176.477778 145.466289 
L 176.654843 145.551794 
L 176.713865 144.891718 
L 176.772887 145.112875 
L 176.89093 144.794229 
L 177.127017 144.794036 
L 177.186039 145.28431 
L 177.24506 145.037354 
L 177.540169 144.359476 
L 177.599191 144.719842 
L 177.658212 144.455462 
L 177.894299 144.5788 
L 178.012342 143.588968 
L 178.071364 143.6022 
L 178.130386 143.591587 
L 178.425494 142.993479 
L 178.484516 143.149294 
L 178.779624 143.082356 
L 178.95669 141.709087 
L 179.133755 141.757457 
L 179.31082 140.994021 
L 179.369841 141.26737 
L 179.66495 141.173318 
L 179.782993 141.601152 
L 179.960058 141.230443 
L 180.01908 141.364333 
L 180.078102 141.480314 
L 180.196145 141.260717 
L 180.432232 141.316909 
L 180.609297 140.690994 
L 180.845384 140.486465 
L 180.904406 141.655223 
L 180.963427 141.4305 
L 181.022449 141.364384 
L 181.199514 141.488356 
L 181.258536 142.044346 
L 181.317557 141.842977 
L 181.376579 141.771156 
L 181.435601 141.476566 
L 181.612666 141.461208 
L 181.671688 141.296374 
L 181.730709 142.07995 
L 181.789731 141.820968 
L 181.848753 141.636898 
L 182.025818 141.618633 
L 182.202883 142.016277 
L 182.43897 140.823355 
L 182.497991 140.859403 
L 182.557013 141.17178 
L 182.616035 141.085828 
L 182.675056 141.077031 
L 182.852121 140.621357 
L 182.970165 141.776181 
L 183.029187 141.636774 
L 183.265273 141.593162 
L 183.324295 142.020383 
L 183.383317 141.819645 
L 183.442338 141.210151 
L 183.50136 141.440431 
L 183.678425 141.27083 
L 183.737447 140.835311 
L 183.796469 141.070112 
L 183.85549 141.175181 
L 183.914512 140.910499 
L 184.091577 141.18789 
L 184.327664 139.878798 
L 184.504729 139.943561 
L 184.563751 139.778397 
L 184.622772 139.815948 
L 184.740816 140.495835 
L 184.917881 140.397954 
L 185.035924 141.062301 
L 185.094946 141.031444 
L 185.153968 141.02748 
L 185.567119 142.27038 
L 185.744185 141.611215 
L 185.803206 142.038929 
L 185.862228 141.92089 
L 185.980271 141.827411 
L 186.334401 141.404325 
L 186.393423 141.185189 
L 186.570488 141.476011 
L 186.806575 140.781429 
L 186.98364 141.235848 
L 187.219727 139.965169 
L 187.396792 139.683014 
L 187.455814 139.77466 
L 187.514835 139.857191 
L 187.632879 140.95951 
L 187.868966 140.991577 
L 188.282117 138.862282 
L 188.459183 139.305108 
L 188.636248 139.092966 
L 188.695269 139.607722 
L 188.754291 139.468548 
L 188.813313 139.405866 
L 188.872334 138.765447 
L 189.167443 138.626231 
L 189.226465 138.773379 
L 189.285486 138.74229 
L 189.521573 139.002601 
L 189.698638 138.130704 
L 189.875703 137.908926 
L 190.052768 138.570079 
L 190.11179 138.231946 
L 190.288855 138.120401 
L 190.46592 138.68692 
L 190.524942 138.513694 
L 190.702007 138.711386 
L 190.82005 139.205509 
L 190.938094 138.835664 
L 191.115159 138.785501 
L 191.351246 137.846526 
L 191.587332 137.627224 
L 191.705376 137.91513 
L 191.764397 137.082864 
L 192.000484 136.945149 
L 192.059506 137.100832 
L 192.177549 136.343403 
L 192.472658 136.744468 
L 192.53168 135.901288 
L 192.590701 136.133891 
L 192.88581 136.225237 
L 192.944831 136.534721 
L 193.003853 136.46951 
L 193.180918 136.5433 
L 193.298962 136.979915 
L 193.357983 136.542616 
L 193.417005 136.707444 
L 193.59407 136.702192 
L 193.771135 136.347708 
L 193.830157 136.641458 
L 194.007222 136.681039 
L 194.066244 137.104895 
L 194.125265 137.05165 
L 194.184287 136.893121 
L 194.243309 137.128902 
L 194.420374 137.039983 
L 194.479395 136.819917 
L 194.538417 136.924459 
L 194.597439 136.936184 
L 194.656461 137.427574 
L 194.833526 137.567252 
L 194.951569 138.348306 
L 195.010591 138.303061 
L 195.069612 138.277892 
L 195.423743 137.788032 
L 195.482764 138.229602 
L 195.659829 138.171557 
L 195.718851 137.747796 
L 195.777873 137.981736 
L 195.895916 138.117576 
L 196.132003 138.233031 
L 196.250046 139.152232 
L 196.309068 138.974264 
L 196.486133 138.228821 
L 196.545155 138.299337 
L 196.604176 138.292114 
L 196.72222 137.686587 
L 196.899285 137.616434 
L 197.017328 137.985599 
L 197.07635 137.718319 
L 197.135372 137.846821 
L 197.371459 137.89776 
L 197.43048 137.972864 
L 197.548524 137.608552 
L 197.78461 137.441476 
L 197.902654 138.10067 
L 197.961675 138.06453 
L 198.197762 138.000997 
L 198.256784 138.150301 
L 198.374827 137.929779 
L 198.728958 137.892803 
L 198.787979 138.194107 
L 198.965044 137.80785 
L 199.083088 137.197391 
L 199.142109 137.722278 
L 199.201131 137.576731 
L 199.378196 137.690048 
L 199.614283 137.126733 
L 199.791348 137.064603 
L 199.968413 136.639684 
L 200.027435 136.40348 
L 200.263522 136.092738 
L 200.322543 136.152128 
L 200.440587 136.468947 
L 200.617652 136.531754 
L 200.676673 136.404773 
L 200.794717 136.793326 
L 200.853739 136.671349 
L 201.089825 136.670783 
L 201.26689 136.283397 
L 201.443956 136.503095 
L 201.502977 136.321184 
L 201.680042 136.952158 
L 201.916129 136.764878 
L 202.034172 137.608598 
L 202.093194 137.151771 
L 202.270259 137.422069 
L 202.388303 136.888884 
L 202.447324 137.091377 
L 202.506346 136.922734 
L 202.683411 136.778737 
L 202.742433 136.490665 
L 202.801454 136.599666 
L 202.919498 136.94453 
L 203.214606 136.687731 
L 203.33265 136.359138 
L 203.922867 136.198814 
L 204.04091 135.631898 
L 204.099932 135.696993 
L 204.336019 135.548393 
L 204.454062 136.039869 
L 204.572105 134.740421 
L 204.74917 134.624282 
L 204.926236 134.317124 
L 205.162322 136.883906 
L 205.280366 136.650785 
L 205.339387 136.663615 
L 205.398409 136.078147 
L 205.634496 135.621103 
L 205.811561 135.210632 
L 205.988626 134.851295 
L 206.165691 134.352368 
L 206.224713 134.571196 
L 206.4608 134.398597 
L 206.519821 134.094673 
L 206.637865 134.645449 
L 206.873951 134.700194 
L 206.932973 134.444807 
L 206.991995 134.510828 
L 207.051017 134.643456 
L 207.287103 134.117952 
L 207.464168 135.54692 
L 207.759277 136.400361 
L 207.818299 136.374922 
L 207.87732 137.307004 
L 208.054385 136.737709 
L 208.172429 137.631457 
L 208.23145 137.023822 
L 208.290472 137.35114 
L 208.467537 137.554565 
L 208.585581 138.565973 
L 208.644602 137.458693 
L 208.703624 137.522614 
L 208.939711 137.321976 
L 209.057754 140.906381 
L 209.116776 140.841417 
L 209.293841 141.22409 
L 209.706993 139.865728 
L 209.766015 139.766143 
L 209.825036 139.856158 
L 209.94308 140.685597 
L 210.120145 140.196499 
L 210.29721 138.468851 
L 210.356232 138.58643 
L 210.710362 138.15361 
L 210.769383 137.691663 
L 210.946448 137.186439 
L 211.00547 137.263354 
L 211.064492 138.151359 
L 211.123514 137.957318 
L 211.182535 137.783859 
L 211.890796 139.109672 
L 212.008839 138.585951 
L 212.185904 138.647132 
L 212.421991 140.40326 
L 212.599056 140.989402 
L 212.835143 139.5337 
L 213.012208 139.529788 
L 213.248295 140.060191 
L 213.484381 140.167597 
L 213.543403 140.033368 
L 213.602425 140.66825 
L 213.661446 140.129876 
L 213.956555 139.374748 
L 214.015577 139.973848 
L 214.074598 139.783347 
L 214.251663 139.737734 
L 214.310685 139.468553 
L 214.369707 137.861165 
L 214.428728 138.063118 
L 214.48775 138.735568 
L 214.723837 138.799942 
L 214.782859 138.68704 
L 214.84188 138.719917 
L 214.900902 138.752907 
L 215.077967 139.158042 
L 215.136989 139.114642 
L 215.196011 138.864929 
L 215.255032 139.397568 
L 215.314054 139.296928 
L 215.491119 139.273567 
L 215.609162 140.02021 
L 215.727206 139.109082 
L 215.904271 139.172701 
L 215.963293 139.322003 
L 216.140358 137.31292 
L 216.317423 137.467232 
L 216.376444 136.693975 
L 216.435466 136.751348 
L 216.494488 136.650761 
L 216.55351 136.205929 
L 216.789596 136.357718 
L 216.966661 137.25427 
L 217.143726 137.131781 
L 217.379813 138.625596 
L 217.556878 138.727378 
L 217.6159 138.907892 
L 217.792965 137.766177 
L 217.97003 137.982781 
L 218.029052 138.300319 
L 218.088074 139.234572 
L 218.147095 138.899894 
L 218.206117 138.659576 
L 218.619269 138.585817 
L 218.855356 139.271474 
L 218.914377 139.186243 
L 218.973399 139.464763 
L 219.032421 138.94915 
L 219.268508 138.403541 
L 219.386551 139.84058 
L 219.445573 139.591802 
L 219.681659 139.444303 
L 219.740681 138.954793 
L 219.799703 139.528836 
L 219.858724 138.840574 
L 220.626006 138.777364 
L 220.685028 138.551334 
L 220.862093 138.423056 
L 220.921115 138.217961 
L 220.980137 138.427226 
L 221.039158 138.252738 
L 221.09818 137.515167 
L 221.275245 137.77585 
L 221.511332 137.225921 
L 221.80644 137.134228 
L 221.865462 136.771592 
L 221.924484 137.308677 
L 222.101549 137.857357 
L 222.278614 137.335334 
L 222.337636 137.168294 
L 222.632744 137.677441 
L 222.986874 136.180957 
L 223.045896 136.27269 
L 223.163939 135.448032 
L 223.400026 135.247299 
L 223.459048 135.618779 
L 223.51807 135.448647 
L 224.22633 133.94946 
L 224.285352 133.88453 
L 224.58046 134.647577 
L 224.816547 133.918763 
L 224.993612 134.01838 
L 225.052634 133.847612 
L 225.111655 134.820215 
L 225.170677 134.727995 
L 225.229699 134.318105 
L 225.406764 134.649072 
L 225.465786 134.422403 
L 225.524807 134.743488 
L 225.583829 134.653763 
L 225.937959 134.292976 
L 225.996981 134.317038 
L 226.056002 134.164045 
L 226.233068 134.283386 
L 226.351111 133.785174 
L 226.469154 134.237579 
L 226.705241 133.694485 
L 226.764263 133.327527 
L 226.823285 133.783628 
L 227.059371 133.683229 
L 227.236436 133.260193 
L 227.295458 133.351292 
L 227.531545 133.24328 
L 227.885675 132.445091 
L 228.06274 132.646739 
L 228.121762 132.684579 
L 228.534914 132.03615 
L 228.771 132.334585 
L 228.889044 132.464649 
L 228.948066 132.101413 
L 229.361217 131.979565 
L 229.538282 132.145794 
L 229.597304 132.380307 
L 229.656326 132.332194 
L 229.774369 131.633186 
L 230.069478 132.081983 
L 230.187521 131.771507 
L 230.423608 131.951502 
L 230.600673 130.650941 
L 230.777738 130.769992 
L 230.83676 130.681874 
L 231.013825 130.354237 
L 231.249912 130.130228 
L 231.367955 130.506089 
L 231.663064 130.282556 
L 231.840129 129.738328 
L 232.076215 130.176179 
L 232.25328 129.456486 
L 232.430346 129.463917 
L 232.548389 129.253001 
L 232.607411 129.583848 
L 232.666432 129.461022 
L 232.843497 129.335872 
L 232.961541 129.896308 
L 233.020563 130.977963 
L 233.079584 130.815624 
L 233.256649 130.594817 
L 233.315671 130.996397 
L 233.374693 130.746366 
L 233.669801 130.068228 
L 233.728823 130.270056 
L 233.905888 129.25534 
L 234.260018 129.053653 
L 234.31904 129.10997 
L 234.555127 128.949913 
L 234.732192 128.4027 
L 234.968278 129.086355 
L 235.0273 128.864624 
L 235.086322 129.309838 
L 235.145344 128.901508 
L 235.322409 129.172047 
L 235.499474 130.068605 
L 235.558495 131.209356 
L 235.735561 131.239337 
L 235.794582 130.927479 
L 235.853604 131.153156 
L 235.971647 130.909559 
L 236.325777 131.523576 
L 236.384799 131.184842 
L 236.561864 131.092692 
L 236.620886 131.499806 
L 236.679908 131.313813 
L 236.738929 131.510319 
L 236.797951 131.460585 
L 236.975016 131.172679 
L 237.034038 131.359875 
L 237.093059 130.35041 
L 237.152081 130.832397 
L 237.388168 130.829628 
L 237.506211 130.280369 
L 237.565233 130.360473 
L 237.624255 130.274575 
L 237.860342 129.150955 
L 237.919363 129.383805 
L 237.978385 129.388765 
L 238.273493 129.021232 
L 238.450558 129.543408 
L 238.686645 129.391518 
L 238.804689 130.033742 
L 238.86371 129.218475 
L 239.040775 129.582972 
L 239.099797 129.399534 
L 239.158819 129.685892 
L 239.217841 129.461644 
L 239.276862 129.114289 
L 239.453927 129.122017 
L 239.512949 128.703986 
L 239.571971 129.274343 
L 239.630992 128.879735 
L 239.690014 128.406264 
L 239.867079 128.281671 
L 239.985123 127.701203 
L 240.103166 127.893139 
L 240.280231 127.699685 
L 240.339253 127.806779 
L 240.457296 127.312275 
L 240.516318 127.693378 
L 240.693383 127.258831 
L 240.752405 126.782202 
L 240.811426 127.0477 
L 240.870448 126.810489 
L 241.106535 127.96272 
L 241.165556 127.800196 
L 241.342622 126.375294 
L 241.519687 126.117438 
L 241.578708 126.629212 
L 241.63773 126.600788 
L 241.755773 126.069214 
L 241.99186 125.75376 
L 242.050882 126.576489 
L 242.168925 125.895266 
L 242.34599 125.577859 
L 242.582077 124.013292 
L 242.759142 123.668816 
L 242.818164 123.828277 
L 242.936207 122.925797 
L 242.995229 122.48278 
L 243.231316 122.10565 
L 243.290338 122.272221 
L 243.349359 121.385851 
L 243.408381 121.406281 
L 243.644468 121.438529 
L 243.821533 121.962048 
L 243.998598 121.97297 
L 244.116641 122.191909 
L 244.175663 121.853089 
L 244.234685 123.56041 
L 244.529793 123.969024 
L 244.588815 123.48488 
L 244.647837 123.671871 
L 244.883923 124.336806 
L 244.942945 123.935574 
L 245.001967 124.661949 
L 245.060988 124.338615 
L 245.356097 123.830324 
L 245.415119 124.327922 
L 245.47414 124.061518 
L 245.651205 124.251524 
L 245.769249 124.881332 
L 245.82827 124.837281 
L 245.887292 126.892972 
L 246.064357 126.422568 
L 246.182401 126.723756 
L 246.241422 126.071662 
L 246.300444 126.276611 
L 246.477509 125.547128 
L 246.536531 125.569032 
L 246.713596 123.209608 
L 246.949683 123.225264 
L 247.067726 124.460621 
L 247.126748 124.191779 
L 247.303813 123.955956 
L 247.362834 124.322425 
L 247.421856 123.777086 
L 247.480878 123.824002 
L 247.716965 123.296973 
L 247.89403 124.334913 
L 247.953051 123.920706 
L 248.130117 124.218143 
L 248.24816 123.928544 
L 248.307182 124.070644 
L 248.60229 124.171224 
L 248.661312 124.617546 
L 248.720333 124.25464 
L 248.779355 124.319681 
L 248.95642 124.042579 
L 249.015442 124.117899 
L 249.133485 125.938685 
L 249.192507 125.844473 
L 249.369572 125.76811 
L 249.487616 126.993218 
L 249.605659 125.721865 
L 249.782724 126.711178 
L 249.841746 126.506401 
L 249.900767 126.455006 
L 250.018811 124.964622 
L 250.195876 125.249597 
L 250.254898 125.787537 
L 250.313919 125.758017 
L 250.372941 125.568617 
L 250.431963 125.67016 
L 250.668049 126.118374 
L 250.727071 125.622418 
L 250.786093 125.71296 
L 250.845115 126.052364 
L 251.02218 125.98137 
L 251.435331 127.917741 
L 251.494353 128.140253 
L 251.612397 127.176922 
L 251.671418 127.413039 
L 251.848483 127.506078 
L 252.025548 126.221852 
L 252.08457 126.303257 
L 252.733809 128.53915 
L 252.851852 128.290364 
L 253.146961 127.575246 
L 253.205982 127.878641 
L 253.265004 128.176798 
L 253.324026 127.920488 
L 253.619134 127.602619 
L 253.678156 127.242596 
L 253.737178 127.479901 
L 254.091308 128.625193 
L 254.150329 128.538179 
L 254.327395 128.661366 
L 254.563481 127.928992 
L 254.740546 127.882693 
L 254.85859 128.433827 
L 254.917611 128.358567 
L 254.976633 128.054916 
L 255.153698 127.782543 
L 255.389785 127.13913 
L 255.56685 126.678465 
L 255.625872 126.824811 
L 255.684894 126.689917 
L 255.743915 126.826455 
L 256.039024 131.194732 
L 256.098045 130.784182 
L 256.216089 129.727538 
L 256.629241 131.266712 
L 256.865327 130.966987 
L 256.924349 131.60989 
L 256.983371 131.580367 
L 257.042393 131.118395 
L 257.219458 131.114247 
L 257.278479 131.287359 
L 257.455544 129.71697 
L 257.691631 130.342136 
L 257.750653 130.150091 
L 257.809675 129.633472 
L 257.868696 129.919078 
L 258.045761 130.582248 
L 258.104783 130.427559 
L 258.222826 130.120823 
L 258.281848 129.058498 
L 258.517935 128.549699 
L 258.872065 127.446543 
L 258.931087 127.544045 
L 259.108152 126.754774 
L 259.344239 126.666794 
L 259.40326 126.825846 
L 259.462282 126.315982 
L 259.521304 126.559126 
L 259.816412 126.464749 
L 259.934456 127.299782 
L 260.111521 126.930496 
L 260.347607 129.334136 
L 260.524673 129.870504 
L 260.583694 129.61637 
L 260.642716 129.802035 
L 260.760759 130.394144 
L 260.937824 129.912448 
L 260.996846 130.208576 
L 261.173911 129.143158 
L 261.409998 129.153595 
L 261.46902 129.139096 
L 261.587063 129.270297 
L 261.764128 129.222274 
L 261.82315 128.390648 
L 261.941193 130.25769 
L 262.000215 128.834161 
L 262.236302 129.171511 
L 262.354345 129.558913 
L 262.413367 129.486903 
L 262.590432 129.890991 
L 262.649454 129.676204 
L 262.708475 128.807996 
L 262.767497 129.428046 
L 262.826519 129.532618 
L 263.180649 128.660235 
L 263.475757 128.693333 
L 263.593801 129.33488 
L 263.829887 129.360902 
L 263.947931 128.651438 
L 264.065974 129.5893 
L 264.243039 129.926398 
L 264.302061 129.65777 
L 264.420104 130.389168 
L 264.479126 130.307894 
L 264.715213 130.273961 
L 264.774235 130.487151 
L 264.833256 130.420808 
L 264.892278 129.729612 
L 265.069343 129.736569 
L 265.128365 128.854522 
L 265.187386 129.303478 
L 265.246408 129.551448 
L 265.30543 128.47021 
L 265.541517 128.245434 
L 265.65956 127.529055 
L 265.718582 127.793626 
L 265.895647 127.64481 
L 265.954669 127.985114 
L 266.131734 126.765166 
L 266.36782 127.042787 
L 266.544885 125.65941 
L 266.839994 125.376574 
L 266.899016 124.583953 
L 266.958037 125.145142 
L 267.135102 124.995095 
L 267.312168 123.480065 
L 267.371189 123.627118 
L 267.548254 123.466088 
L 267.666298 123.804748 
L 267.784341 123.501871 
L 268.020428 123.679504 
L 268.197493 122.326131 
L 268.551623 123.190226 
L 268.78771 122.917607 
L 268.846732 121.633948 
L 268.905753 122.145476 
L 269.023797 121.694836 
L 269.200862 121.905787 
L 269.377927 121.515432 
L 269.436949 121.545464 
L 269.732057 121.209278 
L 269.791079 121.724027 
L 269.8501 121.222604 
L 270.027166 121.105314 
L 270.086187 120.817369 
L 270.263252 122.253516 
L 270.499339 122.132771 
L 270.676404 121.455335 
L 270.912491 121.161684 
L 271.089556 120.385759 
L 271.266621 120.44327 
L 271.325643 120.070661 
L 271.502708 120.613683 
L 271.679773 120.407156 
L 271.856838 122.140594 
L 271.91586 121.835107 
L 272.092925 121.861051 
L 272.329012 121.600452 
L 272.565098 121.512279 
L 272.683142 121.017777 
L 272.742163 120.092058 
L 272.919229 120.307708 
L 273.037272 119.463315 
L 273.096294 119.179244 
L 273.155315 119.332504 
L 273.33238 119.279617 
L 273.391402 119.387017 
L 273.509446 118.847822 
L 273.568467 118.926971 
L 273.745532 119.126192 
L 273.863576 119.462805 
L 273.922597 119.41494 
L 273.981619 119.005923 
L 274.158684 118.653139 
L 274.394771 115.659595 
L 274.689879 114.851133 
L 274.748901 115.227275 
L 274.807923 114.118676 
L 274.984988 114.288663 
L 275.04401 114.897427 
L 275.103031 114.259847 
L 275.221075 115.217895 
L 275.39814 115.068828 
L 275.457161 114.792856 
L 275.516183 115.106656 
L 275.634227 114.5379 
L 275.870313 114.816415 
L 276.047378 113.448897 
L 276.224444 113.653454 
L 276.342487 114.515153 
L 276.401509 114.369774 
L 276.46053 114.741637 
L 276.637595 114.682049 
L 276.755639 114.114847 
L 276.81466 114.637841 
L 276.873682 114.390594 
L 277.050747 114.493365 
L 277.109769 114.917568 
L 277.168791 114.613989 
L 277.227812 114.509361 
L 277.286834 115.015768 
L 277.522921 114.615114 
L 277.699986 115.634748 
L 277.877051 114.895659 
L 277.995094 115.352381 
L 278.054116 115.303905 
L 278.349225 114.157334 
L 278.408246 114.09582 
L 278.52629 117.064301 
L 278.703355 116.437309 
L 278.762376 117.775585 
L 278.821398 117.606278 
L 279.175528 117.243488 
L 279.293572 115.360945 
L 279.352593 115.462487 
L 279.58868 115.512298 
L 279.647702 115.358356 
L 279.765745 116.069501 
L 279.94281 116.632575 
L 280.119875 118.933533 
L 280.178897 119.027876 
L 280.355962 118.856693 
L 280.414984 119.549818 
L 280.474006 119.247998 
L 280.533027 119.042588 
L 280.592049 119.610639 
L 280.769114 119.442058 
L 280.887157 118.678047 
L 280.946179 118.80931 
L 281.241288 118.703433 
L 281.418353 120.084816 
L 281.595418 119.590032 
L 281.772483 120.45608 
L 281.831505 120.116513 
L 282.067591 119.833774 
L 282.244656 122.509302 
L 282.421722 122.38277 
L 282.539765 121.969847 
L 282.657808 122.69184 
L 282.834873 122.383017 
L 282.893895 122.039031 
L 282.952917 122.634782 
L 283.248025 122.196049 
L 283.307047 121.985614 
L 283.42509 123.504825 
L 283.484112 123.060575 
L 283.720199 122.719459 
L 283.779221 121.729587 
L 283.838242 121.841814 
L 283.897264 122.170186 
L 284.133351 121.775473 
L 284.251394 123.13183 
L 284.487481 122.275143 
L 284.664546 122.782349 
L 284.723568 122.583506 
L 284.959654 122.410509 
L 285.018676 122.5545 
L 285.077698 121.995265 
L 285.13672 122.005791 
L 285.372806 121.451255 
L 285.49085 120.153206 
L 285.549871 120.388622 
L 285.963023 120.209693 
L 286.19911 119.669135 
L 286.317153 120.476916 
L 286.376175 120.219425 
L 286.612262 119.834138 
L 286.789327 120.393812 
L 286.966392 120.69277 
L 287.025414 120.133575 
L 287.084435 120.524612 
L 287.202479 119.82084 
L 287.438566 119.444451 
L 287.615631 118.682947 
L 287.910739 118.655228 
L 288.028783 118.214422 
L 288.382913 117.456089 
L 288.441934 116.960988 
L 288.737043 117.087009 
L 288.855086 117.773936 
L 289.091173 118.634461 
L 289.209217 119.814881 
L 289.268238 119.634911 
L 289.445303 119.700377 
L 289.504325 119.850156 
L 289.563347 118.54969 
L 289.622368 118.671277 
L 289.68139 118.468803 
L 289.858455 118.336391 
L 289.917477 118.491262 
L 290.094542 118.171228 
L 290.330629 118.074448 
L 290.38965 117.753461 
L 290.448672 117.956942 
L 290.684759 117.471195 
L 290.802802 117.518232 
L 291.097911 117.23984 
L 291.215954 116.532416 
L 291.274976 116.623218 
L 291.511063 116.223439 
L 291.570084 115.865737 
L 291.629106 116.274029 
L 291.688128 116.050872 
L 292.160301 116.795508 
L 292.337366 116.987484 
L 292.396388 116.903545 
L 292.514431 117.901028 
L 292.573453 117.527523 
L 292.80954 118.101234 
L 292.927583 117.996918 
L 293.340735 117.349474 
L 293.399757 116.88511 
L 293.576822 116.631813 
L 293.635844 116.848585 
L 293.812909 116.191735 
L 294.048996 116.305382 
L 294.167039 115.787415 
L 294.226061 115.016471 
L 294.403126 115.259842 
L 294.521169 115.100599 
L 294.639212 115.465803 
L 294.816278 115.316557 
L 294.934321 114.840919 
L 294.993343 114.915125 
L 295.347473 114.887667 
L 295.642581 114.48179 
L 295.819646 115.660856 
L 296.173777 115.99333 
L 296.29182 116.945588 
L 296.527907 116.990345 
L 296.704972 115.865131 
L 296.882037 115.544982 
L 297.118124 114.578968 
L 297.295189 114.711988 
L 297.35421 115.012245 
L 297.531276 114.571124 
L 297.708341 114.524024 
L 297.767362 114.217621 
L 297.826384 114.417462 
L 297.885406 114.244015 
L 297.944427 114.490381 
L 298.121492 114.451664 
L 298.180514 114.640713 
L 298.239536 114.31155 
L 298.298558 114.586438 
L 298.357579 114.552833 
L 298.534644 114.183334 
L 298.593666 114.534599 
L 298.652688 114.140752 
L 298.711709 114.441553 
L 298.770731 114.744067 
L 299.06584 113.937076 
L 299.124861 114.237755 
L 299.183883 113.884529 
L 299.478991 113.379118 
L 299.538013 112.735243 
L 299.597035 112.791153 
L 299.833122 112.367889 
L 299.892143 112.485975 
L 299.951165 111.845507 
L 300.010187 111.944219 
L 300.187252 112.031738 
L 300.305295 112.585796 
L 300.364317 112.207833 
L 300.423339 112.22802 
L 300.83649 113.262662 
L 301.013556 112.822741 
L 301.131599 113.684551 
L 301.249642 113.412854 
L 301.485729 113.407255 
L 301.603773 113.116023 
L 301.662794 113.197694 
L 301.898881 112.712222 
L 302.075946 111.832886 
L 302.371055 112.331371 
L 302.430076 112.233013 
L 302.489098 112.557797 
L 302.666163 112.710119 
L 302.843228 113.738342 
L 302.90225 113.115615 
L 303.138337 113.020356 
L 303.315402 112.344341 
L 303.61051 111.500375 
L 303.669532 111.584531 
L 303.728554 112.093144 
L 303.96464 111.812878 
L 304.023662 112.023171 
L 304.141705 111.485851 
L 304.318771 111.781073 
L 304.436814 111.089992 
L 304.731922 111.165397 
L 304.790944 110.871426 
L 304.849966 111.243995 
L 304.908987 111.152481 
L 304.968009 110.768778 
L 305.145074 111.000214 
L 305.322139 111.657469 
L 305.381161 111.345266 
L 305.558226 111.376877 
L 305.971378 110.052044 
L 306.089421 111.45621 
L 306.148443 111.309355 
L 306.207465 111.016489 
L 306.443552 110.724408 
L 306.620617 109.913019 
L 307.210834 109.280871 
L 307.328877 110.129203 
L 307.44692 109.346613 
L 307.683007 109.297822 
L 307.742029 109.046689 
L 307.801051 109.644487 
L 307.860072 109.384802 
L 308.037137 108.846692 
L 308.214202 108.181138 
L 308.273224 107.896747 
L 308.627354 109.478839 
L 308.686376 110.939689 
L 309.040506 114.385158 
L 309.099528 113.905223 
L 309.335615 112.858862 
L 309.51268 111.802729 
L 309.748766 112.713856 
L 309.807788 113.715385 
L 309.86681 113.228781 
L 309.925832 112.403387 
L 310.102897 112.049311 
L 310.279962 113.213901 
L 310.338983 113.21196 
L 310.516049 112.936828 
L 310.693114 112.326188 
L 310.752135 112.085 
L 311.047244 111.539593 
L 311.106265 111.773652 
L 311.165287 111.808813 
L 311.401374 112.554275 
L 311.460396 112.132313 
L 311.578439 112.88648 
L 311.932569 111.675611 
L 312.227678 112.001554 
L 312.286699 111.653477 
L 312.345721 111.945264 
L 312.404743 111.946134 
L 312.581808 111.771124 
L 312.699851 111.203783 
L 312.758873 111.906624 
L 312.817895 111.57304 
L 312.99496 111.256812 
L 313.053981 110.7159 
L 313.113003 111.002506 
L 313.231047 112.532141 
L 313.467133 112.941017 
L 313.526155 113.352457 
L 313.644198 112.044159 
L 313.939307 112.779183 
L 314.234415 111.826717 
L 314.293437 111.951928 
L 314.352459 111.914307 
L 314.470502 111.098867 
L 314.647567 111.561875 
L 314.824632 113.28482 
L 315.060719 112.606038 
L 315.119741 112.695665 
L 315.296806 111.635765 
L 315.532893 111.103628 
L 315.591914 110.668683 
L 315.650936 110.983613 
L 315.887023 110.94111 
L 316.12311 110.425883 
L 316.359196 110.366074 
L 316.418218 110.771035 
L 316.47724 110.253819 
L 316.536261 110.84123 
L 316.890392 111.051922 
L 316.949413 110.772378 
L 317.244522 111.388274 
L 317.362565 111.058125 
L 317.53963 111.468052 
L 317.775717 109.955543 
L 318.011804 109.971169 
L 318.070826 110.424997 
L 318.129847 110.037283 
L 318.365934 110.415245 
L 318.483977 110.999381 
L 318.542999 110.768715 
L 318.779086 111.649956 
L 318.838108 111.538387 
L 318.897129 111.042694 
L 318.956151 111.306538 
L 319.015173 111.641446 
L 319.192238 111.890636 
L 319.251259 111.187706 
L 319.310281 111.525724 
L 319.369303 111.593713 
L 319.428325 111.032763 
L 319.723433 111.153409 
L 319.782455 110.990816 
L 319.841476 111.134635 
L 320.018541 111.774312 
L 320.077563 111.543987 
L 320.136585 111.874101 
L 320.431693 110.561273 
L 320.608758 110.905959 
L 320.66778 110.131071 
L 320.903867 110.126482 
L 320.962889 109.827244 
L 321.080932 110.137253 
L 321.317019 110.7348 
L 321.37604 110.689717 
L 321.435062 110.558758 
L 321.494084 111.158861 
L 321.671149 110.927216 
L 321.730171 111.042206 
L 321.848214 110.524039 
L 321.907236 110.94267 
L 322.084301 110.906983 
L 322.202344 111.480856 
L 322.261366 110.842556 
L 322.320388 111.05449 
L 322.674518 111.880648 
L 322.733539 111.546814 
L 322.910605 111.860333 
L 322.969626 111.465947 
L 323.146691 113.131628 
L 323.323756 113.217082 
L 323.382778 112.968358 
L 323.500822 114.291577 
L 323.736908 114.076397 
L 323.79593 113.144873 
L 323.854952 113.40809 
L 323.913973 113.733725 
L 323.972995 113.624549 
L 324.15006 114.099137 
L 324.327125 113.623342 
L 324.386147 114.111341 
L 324.563212 114.170751 
L 324.622234 113.957813 
L 324.681255 114.316221 
L 324.740277 113.635571 
L 324.799299 114.313917 
L 325.035386 113.78778 
L 325.094407 113.148574 
L 325.153429 113.23497 
L 325.389516 113.773918 
L 325.448537 113.834372 
L 325.566581 113.664658 
L 325.625603 113.004927 
L 325.802668 113.163376 
L 325.861689 113.657212 
L 325.920711 113.548999 
L 326.038754 113.681619 
L 326.274841 113.503241 
L 326.451906 112.471643 
L 326.806036 111.109621 
L 326.865058 111.376461 
L 327.101145 111.476662 
L 327.455275 112.71777 
L 327.514297 112.279939 
L 327.573318 112.421973 
L 327.63234 112.495224 
L 327.691362 113.196756 
L 327.868427 113.651406 
L 328.104514 112.009458 
L 328.281579 111.656038 
L 328.399622 111.754037 
L 328.458644 111.230313 
L 328.517666 111.310592 
L 328.753752 110.769895 
L 328.930817 110.48474 
L 329.107883 110.666926 
L 329.284948 110.113998 
L 329.343969 110.395723 
L 329.639078 110.294903 
L 330.05223 108.183184 
L 330.111251 107.536944 
L 330.170273 107.934466 
L 330.347338 108.015796 
L 330.40636 107.594232 
L 330.465382 107.955356 
L 330.583425 107.322402 
L 330.878533 107.644666 
L 330.996577 106.656308 
L 331.232664 106.003896 
L 331.291685 106.25565 
L 331.350707 107.006134 
L 331.409729 106.449017 
L 331.586794 106.724575 
L 331.645815 106.563222 
L 331.822881 108.403502 
L 332.058967 108.039322 
L 332.117989 108.157182 
L 332.177011 108.167568 
L 332.236032 107.709474 
L 332.413098 107.34928 
L 332.531141 106.37284 
L 332.590163 106.945197 
L 332.649184 106.559966 
L 332.885271 106.664405 
L 333.062336 105.47538 
L 333.475488 104.951984 
L 333.652553 105.301318 
L 333.711575 104.948108 
L 333.770596 105.256281 
L 333.88864 104.788891 
L 334.124727 104.871542 
L 334.183748 104.402281 
L 334.24277 104.999935 
L 334.301792 104.976003 
L 334.478857 105.0975 
L 334.5969 106.399881 
L 334.655922 106.002324 
L 334.892009 106.368259 
L 335.128095 104.914929 
L 335.305161 105.417476 
L 335.364182 104.956193 
L 335.423204 105.207566 
L 335.482226 105.504932 
L 335.541247 104.815252 
L 335.718312 104.857636 
L 335.836356 105.576826 
L 335.895378 105.390034 
L 335.954399 105.036881 
L 336.131464 105.069397 
L 336.190486 104.952442 
L 336.249508 104.502858 
L 336.308529 104.56958 
L 336.544616 105.429062 
L 336.780703 104.433722 
L 337.01679 104.736518 
L 337.075811 105.053215 
L 337.37092 103.029046 
L 337.429942 103.013958 
L 337.607007 101.252154 
L 337.784072 101.871034 
L 337.843093 101.831301 
L 338.315267 99.756383 
L 338.374289 98.503284 
L 338.43331 99.113227 
L 338.610376 98.546243 
L 338.728419 100.024096 
L 338.787441 99.413718 
L 338.846462 99.144808 
L 339.023527 99.557096 
L 339.141571 97.420327 
L 339.259614 98.319829 
L 339.436679 98.511272 
L 339.554723 97.834762 
L 339.613744 98.769133 
L 339.672766 98.469634 
L 339.849831 98.283619 
L 339.908853 98.75337 
L 340.026896 97.820107 
L 340.085918 98.84487 
L 340.262983 98.727852 
L 340.381026 98.100779 
L 340.440048 98.728534 
L 340.49907 98.284188 
L 340.676135 98.108622 
L 340.735157 97.824849 
L 340.794178 98.296044 
L 340.912222 97.213413 
L 341.089287 97.850694 
L 341.266352 94.729672 
L 341.325374 95.108816 
L 341.56146 94.309093 
L 341.620482 94.590605 
L 341.738525 93.428181 
L 341.91559 93.729678 
L 342.033634 93.551694 
L 342.151677 93.700591 
L 342.328742 93.302493 
L 342.505807 92.233801 
L 342.564829 92.290562 
L 342.800916 91.643404 
L 342.859938 90.841884 
L 342.918959 92.084043 
L 342.977981 92.005824 
L 343.155046 92.825147 
L 343.214068 93.955204 
L 343.273089 93.60069 
L 343.332111 93.453265 
L 343.391133 94.687466 
L 344.040371 92.1451 
L 344.099393 92.846299 
L 344.158415 92.449613 
L 344.217437 92.888138 
L 344.394502 93.063172 
L 344.512545 93.807003 
L 344.630588 92.050304 
L 345.04374 93.493909 
L 345.220805 93.199029 
L 345.279827 93.405332 
L 345.338849 93.249142 
L 345.456892 92.812327 
L 345.692979 92.641184 
L 345.811022 92.279084 
L 346.047109 93.101486 
L 346.106131 92.955748 
L 346.283196 91.468365 
L 346.460261 92.036327 
L 346.637326 94.240111 
L 346.696348 94.527855 
L 346.932435 94.563593 
L 347.1095 92.976305 
L 347.404608 92.254472 
L 347.522652 93.15506 
L 347.699717 92.865816 
L 347.81776 92.021949 
L 347.935803 92.155238 
L 348.112868 93.265417 
L 348.230912 92.421667 
L 348.585042 92.642983 
L 348.644064 92.448692 
L 348.703085 93.068239 
L 348.762107 92.623053 
L 348.939172 92.382714 
L 348.998194 92.690708 
L 349.057216 92.528964 
L 349.175259 91.640695 
L 349.352324 91.653665 
L 349.588411 90.467241 
L 349.765476 90.664126 
L 349.824498 90.554706 
L 350.178628 88.912755 
L 350.296671 89.45852 
L 350.355693 89.315722 
L 350.414715 88.787935 
L 350.59178 88.497111 
L 350.650801 88.559281 
L 350.768845 87.446447 
L 350.827866 87.461096 
L 351.181997 86.517055 
L 351.241018 86.557067 
L 351.477105 86.708723 
L 351.595148 86.261838 
L 351.65417 86.816051 
L 351.949279 86.670552 
L 352.067322 85.881399 
L 352.893626 82.059732 
L 353.070691 82.828488 
L 353.306778 89.182775 
L 353.660908 83.844661 
L 353.71993 82.410649 
L 353.956016 86.230358 
L 354.07406 96.189167 
L 354.133081 94.877402 
L 354.310146 98.48634 
L 354.369168 98.166639 
L 354.487212 103.3611 
L 354.841342 94.271027 
L 354.900363 90.99991 
L 354.959385 91.091037 
L 355.13645 90.043812 
L 355.254494 93.918097 
L 355.549602 88.635196 
L 355.608624 89.075625 
L 355.726667 85.113907 
L 355.962754 85.554217 
L 356.021776 83.999186 
L 356.080797 84.473978 
L 356.139819 84.194813 
L 356.434928 85.807073 
L 356.611993 83.617833 
L 356.789058 83.68842 
L 356.848079 83.437732 
L 356.907101 82.467717 
L 357.025144 84.872111 
L 357.20221 84.901321 
L 357.261231 84.628654 
L 357.320253 86.34895 
L 357.438296 84.402636 
L 357.733405 86.131451 
L 357.851448 84.786034 
L 358.087535 84.038296 
L 358.146557 83.24609 
L 358.205578 84.029935 
L 358.2646 83.223269 
L 358.500687 83.451943 
L 358.677752 82.083925 
L 358.854817 81.591783 
L 358.913839 81.700192 
L 359.031882 82.506441 
L 359.090904 82.409084 
L 359.386012 79.930986 
L 359.445034 82.253124 
L 359.504056 81.629124 
L 360.153294 80.176701 
L 360.212316 81.075788 
L 360.271338 80.497737 
L 360.330359 80.77912 
L 360.566446 79.621618 
L 360.68449 79.103337 
L 360.979598 78.322301 
L 361.097641 77.752769 
L 361.156663 77.776326 
L 361.333728 78.017011 
L 361.451772 76.976062 
L 361.510793 77.580447 
L 361.569815 76.92942 
L 361.74688 76.605093 
L 362.278075 70.694919 
L 362.337097 70.999661 
L 362.396119 70.402204 
L 362.573184 70.652645 
L 362.750249 67.528853 
L 362.809271 68.271677 
L 362.986336 68.514181 
L 363.045357 72.078331 
L 363.104379 71.992317 
L 363.163401 72.057002 
L 363.222422 72.390874 
L 363.458509 70.623985 
L 363.517531 72.564543 
L 363.576553 71.556997 
L 363.812639 71.084744 
L 363.871661 71.242511 
L 363.930683 70.942261 
L 363.989705 71.702671 
L 364.048726 70.79266 
L 364.225791 70.788717 
L 364.343835 68.780869 
L 364.461878 71.756597 
L 364.697965 72.775882 
L 364.756987 71.683434 
L 364.816008 72.428163 
L 364.87503 72.46541 
L 365.111117 70.848619 
L 365.170138 70.876835 
L 365.465247 74.318594 
L 365.524269 73.918338 
L 365.58329 76.023346 
L 365.642312 75.501716 
L 365.878399 73.470815 
L 365.93742 73.454195 
L 365.996442 73.86845 
L 366.055464 72.82058 
L 366.114486 72.926099 
L 366.291551 73.132688 
L 366.350572 73.866321 
L 366.409594 73.69196 
L 366.527637 71.819419 
L 366.704703 71.158488 
L 366.822746 72.241192 
L 366.881768 72.111617 
L 367.176876 73.608764 
L 367.235898 73.648095 
L 367.294919 74.353524 
L 367.353941 73.839353 
L 367.590028 74.390593 
L 367.767093 77.30902 
L 368.00318 74.83929 
L 368.121223 71.47942 
L 368.180245 72.19596 
L 368.35731 73.567321 
L 368.416332 73.378656 
L 368.534375 72.664711 
L 368.593397 71.309397 
L 368.829484 70.684314 
L 368.888505 71.668928 
L 368.947527 71.254976 
L 369.006549 71.092568 
L 369.301657 72.294954 
L 369.4197 72.22311 
L 369.596766 72.942888 
L 369.773831 71.607153 
L 369.832852 71.639961 
L 370.068939 70.723778 
L 370.127961 71.941628 
L 370.186983 71.74926 
L 370.246004 71.601239 
L 370.423069 72.189287 
L 370.600134 69.954831 
L 370.659156 70.868317 
L 370.836221 71.076336 
L 370.895243 70.969923 
L 370.954265 71.211012 
L 371.013286 70.519946 
L 371.249373 70.145124 
L 371.308395 70.388004 
L 371.426438 69.191081 
L 371.662525 69.898993 
L 371.721547 69.871784 
L 371.898612 71.866739 
L 372.075677 72.627545 
L 372.134698 72.402817 
L 372.19372 71.575462 
L 372.252742 71.980609 
L 372.311764 72.137521 
L 372.54785 71.519834 
L 372.606872 69.91978 
L 372.665894 70.36097 
L 372.724915 70.519159 
L 372.901981 69.590414 
L 372.961002 69.608346 
L 373.138067 72.253632 
L 373.315132 70.692231 
L 373.374154 70.763668 
L 373.492197 71.546291 
L 373.551219 71.410738 
L 373.846328 69.694677 
L 373.905349 70.10883 
L 374.200458 72.028401 
L 374.25948 72.129897 
L 374.377523 72.927311 
L 374.61361 72.757754 
L 374.672631 72.430041 
L 374.731653 75.156675 
L 374.790675 75.10318 
L 374.96774 74.602363 
L 375.026762 75.01681 
L 375.144805 77.777521 
L 375.203827 76.721654 
L 375.380892 77.227465 
L 375.557957 74.098144 
L 375.616979 74.282897 
L 375.794044 73.209928 
L 375.853065 73.508074 
L 375.912087 73.390774 
L 376.03013 74.956702 
L 376.207195 74.095903 
L 376.266217 74.34519 
L 376.325239 74.393802 
L 376.384261 74.268333 
L 376.443282 73.022417 
L 376.679369 74.445074 
L 376.738391 74.178728 
L 376.797412 72.166543 
L 377.033499 71.689394 
L 377.210564 70.661759 
L 377.269586 70.828301 
L 377.446651 70.837934 
L 377.682738 68.324063 
L 377.859803 68.643993 
L 377.918825 68.346795 
L 377.977846 67.339214 
L 378.036868 67.942317 
L 378.09589 67.550094 
L 378.272955 67.328296 
L 378.331976 67.755317 
L 378.390998 67.715733 
L 378.45002 67.42669 
L 378.509042 67.561957 
L 378.686107 67.073161 
L 378.80415 67.910162 
L 378.922193 65.935142 
L 379.099259 66.629523 
L 379.217302 70.018949 
L 379.276324 68.98338 
L 379.335345 67.36128 
L 379.51241 67.072374 
L 379.630454 67.671862 
L 379.748497 66.339767 
L 380.161649 64.510951 
L 380.397736 64.070997 
L 380.456758 63.359996 
L 380.515779 64.535299 
L 380.574801 63.197122 
L 380.751866 62.831819 
L 380.928931 61.245235 
L 380.987953 61.799697 
L 381.165018 62.118329 
L 381.401105 64.796873 
L 381.637191 63.778519 
L 381.696213 64.012639 
L 381.991322 63.331977 
L 382.050343 63.691666 
L 382.109365 63.501551 
L 382.522517 60.564234 
L 382.581539 60.895305 
L 382.64056 60.283673 
L 382.817625 59.920398 
L 382.876647 60.801151 
L 382.99469 59.359995 
L 383.053712 60.162489 
L 383.230777 60.590139 
L 383.289799 59.559362 
L 383.348821 59.829023 
L 383.466864 59.231398 
L 383.643929 59.31449 
L 383.820994 58.339334 
L 383.880016 58.663552 
L 384.057081 58.560315 
L 384.234146 58.081017 
L 384.293168 59.708737 
L 384.529255 61.151372 
L 384.70632 58.865961 
L 384.883385 58.544035 
L 385.001428 59.674235 
L 385.06045 59.260386 
L 385.296537 57.936317 
L 385.473602 58.926725 
L 385.532623 57.361718 
L 385.827732 56.226577 
L 385.945775 55.792297 
L 386.358927 58.818452 
L 386.654036 57.591296 
L 386.772079 59.631261 
L 386.949144 59.942909 
L 387.008166 59.776517 
L 387.067187 58.883623 
L 387.185231 60.412694 
L 387.362296 61.09234 
L 387.421318 63.13612 
L 387.480339 62.894049 
L 387.539361 63.349317 
L 387.598383 61.961212 
L 387.834469 62.777961 
L 387.893491 61.959222 
L 387.952513 62.113978 
L 388.011535 62.773125 
L 388.1886 63.132605 
L 388.365665 59.135733 
L 388.424686 59.695685 
L 388.601751 59.395879 
L 388.660773 59.470992 
L 388.837838 57.773175 
L 389.132947 56.791278 
L 389.191968 55.968629 
L 389.25099 56.533833 
L 389.428055 56.332728 
L 389.900229 53.509688 
L 389.95925 54.276188 
L 390.018272 54.026608 
L 390.077294 53.775736 
L 390.254359 53.95879 
L 390.313381 54.406352 
L 390.431424 53.615026 
L 390.490446 53.886001 
L 390.726533 55.83726 
L 390.785554 54.733587 
L 390.903598 56.260275 
L 391.080663 55.721765 
L 391.198706 57.828244 
L 391.316749 55.977397 
L 391.493815 55.482585 
L 391.552836 54.246113 
L 391.611858 54.491859 
L 391.67088 55.360837 
L 391.729901 54.753449 
L 391.906966 54.159936 
L 391.965988 55.414597 
L 392.02501 54.445758 
L 392.084032 54.190554 
L 392.143053 54.3535 
L 392.320118 55.512138 
L 392.438162 53.236718 
L 392.497183 53.246436 
L 392.73327 51.916232 
L 392.792292 52.190943 
L 392.851314 52.33641 
L 392.969357 51.191724 
L 393.382509 55.926579 
L 393.559574 55.929287 
L 393.677617 54.566748 
L 394.208813 58.734966 
L 394.385878 58.547511 
L 394.444899 59.025399 
L 394.562943 61.540603 
L 394.621964 59.625791 
L 394.917073 57.415709 
L 395.035116 59.604113 
L 395.271203 59.336299 
L 395.330225 57.889885 
L 395.389246 60.030155 
L 395.448268 59.364801 
L 395.684355 60.078514 
L 395.743377 59.154248 
L 395.802398 59.233367 
L 395.86142 59.257531 
L 396.097507 59.520346 
L 396.156528 60.949345 
L 396.21555 60.226169 
L 396.274572 58.905973 
L 396.628702 57.152734 
L 396.687724 55.81789 
L 396.864789 57.030483 
L 396.923811 56.413873 
L 396.982832 56.723753 
L 397.100876 58.142509 
L 397.277941 60.263141 
L 397.336962 60.099465 
L 397.514027 56.83528 
L 397.750114 57.992734 
L 397.868158 56.657172 
L 397.927179 56.677937 
L 398.104244 56.479794 
L 398.222288 54.388932 
L 398.28131 55.310174 
L 398.340331 54.599239 
L 398.517396 54.530232 
L 398.694461 56.761046 
L 398.753483 56.921703 
L 398.930548 58.302081 
L 398.98957 58.188047 
L 399.048592 57.233496 
L 399.107613 58.732901 
L 399.3437 58.909381 
L 399.402722 58.507827 
L 399.461743 56.945331 
L 399.520765 58.171965 
L 399.579787 60.453893 
L 399.756852 60.813136 
L 399.874895 62.912386 
L 399.933917 61.14698 
L 399.992939 64.438195 
L 400.170004 66.584874 
L 400.288047 63.734156 
L 400.406091 67.903571 
L 400.642177 70.999947 
L 400.701199 70.364367 
L 400.760221 70.996027 
L 400.819242 70.516653 
L 400.996308 70.37651 
L 401.055329 70.185145 
L 401.114351 71.261238 
L 401.173373 70.715902 
L 401.232394 70.060568 
L 401.409459 69.614172 
L 401.645546 66.242726 
L 401.940655 68.236972 
L 401.999676 66.67231 
L 402.058698 68.113266 
L 402.235763 69.047403 
L 402.294785 67.660603 
L 402.707937 77.260154 
L 402.766958 74.982528 
L 402.82598 75.730765 
L 402.885002 75.750587 
L 403.121089 75.532874 
L 403.298154 72.411375 
L 403.475219 72.914616 
L 403.53424 73.685694 
L 403.593262 73.354861 
L 403.652284 73.623629 
L 403.711305 72.5596 
L 403.947392 73.429776 
L 404.124457 75.114007 
L 404.301522 75.14245 
L 404.360544 75.469247 
L 404.419566 75.121549 
L 404.478588 76.401499 
L 404.537609 75.319176 
L 404.714674 76.045635 
L 404.950761 72.561091 
L 405.186848 73.277958 
L 405.363913 69.318146 
L 405.540978 68.466803 
L 405.6 70.083417 
L 405.659021 68.886739 
L 405.718043 68.108114 
L 405.777065 69.458974 
L 406.072173 67.413504 
L 406.131195 68.40221 
L 406.190217 66.560578 
L 406.367282 66.992293 
L 406.426303 66.967327 
L 406.780434 71.627942 
L 406.839455 71.922621 
L 406.898477 71.750318 
L 406.957499 70.28404 
L 407.01652 72.411896 
L 407.193586 73.104418 
L 407.429672 76.16105 
L 407.665759 77.07794 
L 407.842824 74.297369 
L 408.019889 73.717084 
L 408.196954 78.683877 
L 408.255976 78.901153 
L 408.433041 78.623686 
L 408.669128 83.181244 
L 408.905215 86.440639 
L 408.964236 83.478905 
L 409.023258 85.029932 
L 409.08228 85.530408 
L 409.318367 80.828791 
L 409.377388 81.990569 
L 409.672497 87.03883 
L 409.849562 86.289066 
L 409.908584 88.308821 
L 410.14467 86.038228 
L 410.262714 88.956076 
L 410.321735 87.982967 
L 410.4988 88.090628 
L 410.675866 84.996737 
L 410.734887 84.517651 
L 410.911952 85.336746 
L 410.970974 84.698474 
L 411.089017 87.124509 
L 411.148039 85.600396 
L 411.325104 85.841276 
L 411.561191 78.875081 
L 411.738256 79.719784 
L 411.856299 78.218102 
L 411.974343 79.278855 
L 412.151408 79.353355 
L 412.269451 77.179806 
L 412.387495 77.102442 
L 412.56456 78.523571 
L 412.623581 78.34988 
L 412.800647 73.931604 
L 413.036733 76.37732 
L 413.154777 74.781091 
L 413.213798 75.778276 
L 413.390864 75.402027 
L 413.449885 73.553939 
L 413.508907 73.917387 
L 413.62695 76.76136 
L 413.804015 78.056994 
L 413.863037 77.929134 
L 413.922059 77.218574 
L 413.98108 78.313962 
L 414.040102 78.244373 
L 414.276189 78.653592 
L 414.335211 79.897246 
L 414.394232 78.145565 
L 414.453254 78.575884 
L 414.689341 77.699957 
L 414.748363 75.97986 
L 414.807384 77.518909 
L 414.866406 74.648241 
L 415.043471 74.378952 
L 415.102493 74.474091 
L 415.279558 70.699234 
L 415.574666 71.487579 
L 415.633688 71.339018 
L 416.105862 69.204879 
L 416.282927 70.246126 
L 416.459992 66.974706 
L 416.519013 69.568314 
L 416.814122 70.266286 
L 416.932165 71.688292 
L 417.10923 70.946572 
L 417.227274 71.761301 
L 417.286295 73.049061 
L 417.345317 72.858662 
L 417.640426 75.190746 
L 417.699447 74.504622 
L 417.758469 76.098889 
L 417.994556 75.50372 
L 418.053577 76.083054 
L 418.112599 75.804777 
L 418.171621 73.603929 
L 418.348686 74.161163 
L 418.525751 76.315924 
L 418.879881 73.47648 
L 419.17499 71.999576 
L 419.293033 73.346424 
L 419.352055 72.935672 
L 419.411076 72.241164 
L 419.588142 73.391487 
L 419.647163 73.168599 
L 420.001293 69.279984 
L 420.178359 68.357367 
L 420.414445 69.057173 
L 420.59151 68.044641 
L 420.650532 69.619616 
L 420.827597 69.459057 
L 420.886619 69.223606 
L 420.945641 69.277678 
L 421.004662 69.331436 
L 421.063684 69.871307 
L 421.240749 69.479577 
L 421.299771 69.716936 
L 421.358792 70.748041 
L 421.476836 68.363662 
L 421.653901 69.806844 
L 421.771944 69.04439 
L 421.830966 69.115472 
L 421.889988 68.594922 
L 422.126074 69.304629 
L 422.185096 68.568894 
L 422.244118 68.982631 
L 422.30314 69.376724 
L 422.480205 69.52915 
L 422.539226 71.160124 
L 422.598248 70.49841 
L 422.65727 71.003515 
L 422.716291 70.951022 
L 422.893356 70.962802 
L 423.070422 73.064102 
L 423.129443 71.805017 
L 423.424552 70.82743 
L 423.542595 69.667588 
L 423.71966 69.768744 
L 423.778682 69.159963 
L 423.837704 69.768608 
L 423.896725 68.773669 
L 423.955747 69.016207 
L 424.132812 68.563796 
L 424.191834 68.735658 
L 424.309877 67.006983 
L 424.368899 67.365052 
L 424.664007 68.467982 
L 424.782051 69.810863 
L 425.077159 68.581094 
L 425.136181 68.785762 
L 425.195203 67.472638 
L 425.372268 67.291659 
L 425.490311 67.756752 
L 425.608354 68.93567 
L 425.78542 68.634768 
L 425.962485 65.316638 
L 426.021506 65.728939 
L 426.198571 65.723771 
L 426.316615 64.120684 
L 426.375637 65.121748 
L 426.434658 65.103058 
L 426.670745 64.881963 
L 426.729767 64.506176 
L 426.788788 66.73231 
L 426.84781 65.82862 
L 427.024875 65.36774 
L 427.20194 69.01967 
L 427.260962 68.780109 
L 427.438027 68.40123 
L 427.674114 69.716266 
L 427.851179 69.867513 
L 428.028244 72.843646 
L 428.087266 72.62803 
L 428.264331 72.889197 
L 428.323352 72.629744 
L 428.382374 70.605813 
L 428.441396 71.473385 
L 428.677483 70.458323 
L 428.795526 68.443094 
L 429.149656 70.257976 
L 429.208678 70.726067 
L 429.2677 70.52929 
L 429.503786 70.322211 
L 429.62183 71.034675 
L 429.680851 70.33175 
L 429.739873 70.75778 
L 429.916938 70.559336 
L 430.034982 71.221806 
L 430.094003 73.88999 
L 430.153025 73.791216 
L 430.33009 74.576724 
L 430.448133 76.983829 
L 430.507155 76.67309 
L 430.743242 78.589529 
L 430.802264 80.287422 
L 430.861285 79.361802 
L 430.920307 79.446963 
L 431.215416 76.819593 
L 431.274437 75.329421 
L 431.333459 76.787486 
L 431.392481 75.177288 
L 431.569546 74.942049 
L 431.628567 75.196927 
L 431.805632 77.710516 
L 431.982698 77.880474 
L 432.041719 76.861741 
L 432.100741 78.489323 
L 432.159763 78.011604 
L 432.218784 78.263935 
L 432.395849 77.9338 
L 432.513893 76.518493 
L 432.631936 72.769693 
L 432.809001 73.667368 
L 432.868023 73.554026 
L 432.927045 73.446308 
L 432.986066 74.602588 
L 433.045088 74.06492 
L 433.222153 74.128287 
L 433.399218 70.356755 
L 434.048457 68.365016 
L 434.284544 64.841631 
L 434.461609 66.022341 
L 434.52063 65.74519 
L 434.638674 65.126867 
L 434.697696 65.765047 
L 434.874761 66.017718 
L 434.933782 65.743049 
L 435.051826 60.459622 
L 435.110847 61.273708 
L 435.287913 61.070956 
L 435.346934 60.09964 
L 435.405956 61.207425 
L 435.464978 60.369615 
L 435.819108 58.309174 
L 435.878129 58.567474 
L 435.937151 59.386783 
L 436.173238 59.72511 
L 436.350303 61.943381 
L 436.527368 60.883479 
L 436.58639 61.316207 
L 436.645412 61.24018 
L 436.704433 61.253498 
L 436.763455 60.681894 
L 436.999542 62.013612 
L 437.058563 63.310528 
L 437.117585 62.92224 
L 437.176607 61.749548 
L 437.353672 61.467205 
L 437.412694 61.576851 
L 437.471715 62.441294 
L 437.530737 61.460291 
L 437.589759 61.687582 
L 437.825845 60.404648 
L 437.884867 61.227264 
L 437.943889 59.027596 
L 438.002911 60.006273 
L 438.179976 61.633528 
L 438.357041 60.357721 
L 438.416062 60.278825 
L 438.593127 60.383174 
L 438.652149 62.764762 
L 438.711171 62.005265 
L 438.770193 60.579359 
L 438.829214 61.090541 
L 439.124323 61.105724 
L 439.242366 59.197223 
L 439.478453 60.031034 
L 439.596496 58.648925 
L 439.655518 56.753886 
L 439.950626 55.014321 
L 440.06867 53.919233 
L 440.245735 54.037075 
L 440.4228 55.775741 
L 440.481822 56.321094 
L 440.658887 56.064202 
L 440.717908 55.775017 
L 440.835952 54.209152 
L 440.894974 54.71139 
L 441.072039 55.065799 
L 441.13106 55.033245 
L 441.249104 52.409583 
L 441.544212 53.4208 
L 441.603234 52.95351 
L 441.662256 53.746086 
L 441.721277 52.843412 
L 441.898342 52.216961 
L 441.957364 51.165553 
L 442.016386 54.151236 
L 442.075407 52.96588 
L 442.134429 54.378057 
L 442.724646 56.916839 
L 442.783668 56.140142 
L 442.84269 56.463622 
L 442.901711 56.871204 
L 442.960733 56.067724 
L 443.137798 55.332194 
L 443.19682 57.724123 
L 443.255841 57.225539 
L 443.55095 54.052778 
L 443.609972 53.623973 
L 443.668993 54.255252 
L 443.787037 52.480719 
L 443.964102 52.695364 
L 444.200189 49.472839 
L 444.377254 49.58539 
L 444.436275 49.305939 
L 444.554319 52.436977 
L 444.61334 51.917226 
L 444.849427 52.377448 
L 444.908449 53.884896 
L 444.967471 53.277538 
L 445.026492 52.139649 
L 445.262579 50.692658 
L 445.380622 49.108767 
L 445.439644 51.540232 
L 445.616709 51.238435 
L 446.088883 47.679554 
L 446.206926 47.792836 
L 446.265948 48.275052 
L 446.443013 47.896376 
L 446.561056 49.109351 
L 446.620078 48.16057 
L 446.6791 48.813915 
L 446.856165 49.578824 
L 447.092252 46.500453 
L 447.328338 46.684408 
L 447.505403 43.269087 
L 447.682469 43.184592 
L 447.74149 41.170655 
L 447.800512 41.962318 
L 447.918555 44.575437 
L 448.09562 43.692689 
L 448.154642 43.746761 
L 448.272685 46.755014 
L 448.331707 44.814649 
L 448.508772 44.406806 
L 448.567794 43.830455 
L 448.744859 41.675257 
L 449.039968 45.579348 
L 449.158011 42.8572 
L 449.335076 42.245386 
L 449.571163 39.098658 
L 449.866271 37.435333 
L 449.925293 38.59584 
L 449.984315 36.375669 
L 450.16138 36.479811 
L 450.220401 36.319868 
L 450.338445 37.16322 
L 450.397467 37.1192 
L 450.633553 37.475627 
L 450.751597 36.461203 
L 450.810618 37.541914 
L 450.987683 36.196535 
L 451.22377 32.232314 
L 451.400835 31.580345 
L 451.518879 33.476004 
L 451.636922 32.100702 
L 451.813987 31.533733 
L 451.873009 30.749679 
L 451.932031 31.624597 
L 451.991052 31.558071 
L 452.050074 31.655103 
L 452.286161 31.589785 
L 452.640291 34.892439 
L 452.699313 34.629943 
L 452.817356 35.12808 
L 452.876378 34.072812 
L 453.053443 33.475015 
L 453.28953 31.247178 
L 453.466595 33.001947 
L 453.525616 32.423318 
L 453.584638 33.224965 
L 453.64366 32.400301 
L 453.702681 32.981621 
L 453.879747 32.820175 
L 453.99779 32.075882 
L 454.115833 35.47483 
L 454.292898 34.345502 
L 454.35192 32.885197 
L 454.410942 35.233861 
L 454.528985 31.971525 
L 454.70605 33.376999 
L 454.883115 36.281969 
L 454.942137 37.092733 
L 455.296267 33.841733 
L 455.355289 32.825954 
L 455.650397 31.114192 
L 455.768441 30.208273 
L 456.004528 31.506544 
L 456.063549 30.701227 
L 456.122571 31.095887 
L 456.181593 30.97713 
L 456.358658 31.161213 
L 456.594745 33.849587 
L 456.77181 33.555529 
L 456.830831 34.04214 
L 456.948875 40.040826 
L 457.007896 38.131151 
L 457.184961 38.297486 
L 457.362027 36.858546 
L 457.421048 38.431586 
L 457.598113 38.932375 
L 457.775178 38.530918 
L 457.8342 37.889654 
L 458.011265 38.365824 
L 458.070287 39.570852 
L 458.129309 39.123576 
L 458.247352 40.677358 
L 458.424417 40.599448 
L 458.483439 40.076777 
L 458.660504 36.437414 
L 458.896591 34.210003 
L 458.955612 34.598963 
L 459.014634 34.536612 
L 459.073656 34.052136 
L 459.250721 34.143167 
L 459.309743 33.804675 
L 459.368764 34.761295 
L 459.427786 33.191069 
L 459.486808 33.775218 
L 459.663873 33.513234 
L 459.840938 30.624876 
L 459.899959 31.435026 
L 460.077025 30.478526 
L 460.136046 30.768746 
L 460.195068 31.902245 
L 460.25409 29.754263 
L 460.313111 30.381124 
L 460.667242 29.469662 
L 460.726263 30.220543 
L 460.903328 29.905106 
L 461.021372 29.249764 
L 461.080393 30.924593 
L 461.139415 29.5033 
L 461.31648 29.335018 
L 461.493545 32.209984 
L 461.552567 31.852068 
L 461.906697 34.003421 
L 461.965719 32.585441 
L 462.260827 30.128689 
L 462.319849 30.299715 
L 462.378871 31.432787 
L 462.555936 30.872009 
L 462.614957 30.995603 
L 462.673979 31.716863 
L 462.733001 31.401091 
L 462.792023 31.147642 
L 463.087131 28.218676 
L 463.38224 39.768052 
L 463.441261 41.966898 
L 463.500283 34.291882 
L 463.559305 36.626553 
L 463.618326 34.370717 
L 463.854413 32.691265 
L 463.913435 31.171878 
L 463.972456 31.36734 
L 464.208543 32.311194 
L 464.44463 29.038038 
L 464.680717 27.185113 
L 464.79876 28.913987 
L 464.857782 28.595115 
L 465.034847 27.825568 
L 465.093869 26.922739 
L 465.15289 27.115258 
L 465.211912 28.674009 
L 465.270934 28.019442 
L 465.507021 29.039723 
L 465.566042 30.73711 
L 465.684086 28.114405 
L 465.861151 27.756206 
L 465.920172 27.882479 
L 466.038216 30.678337 
L 466.333324 28.159023 
L 466.392346 28.778942 
L 466.451368 27.398112 
L 466.510389 27.600273 
L 466.687454 26.904085 
L 466.746476 27.259351 
L 466.805498 25.808465 
L 466.86452 26.173383 
L 466.923541 26.943145 
L 467.100606 26.595424 
L 467.277671 23.964806 
L 467.336693 24.925417 
L 467.513758 25.744529 
L 467.631802 25.404313 
L 467.749845 25.654341 
L 467.985932 23.885932 
L 468.162997 25.137535 
L 468.458105 22.606719 
L 468.517127 22.950978 
L 468.812235 24.806867 
L 468.930279 23.168767 
L 468.989301 23.752033 
L 469.166366 23.634688 
L 469.225387 25.101021 
L 469.284409 24.235471 
L 469.402452 23.870822 
L 469.579518 22.436488 
L 469.638539 20.867851 
L 469.697561 21.25769 
L 469.992669 22.988332 
L 470.051691 21.261595 
L 470.169734 23.483105 
L 470.464843 20.939905 
L 470.523865 21.373074 
L 470.582886 21.026387 
L 470.818973 22.233325 
L 470.877995 21.827745 
L 470.937017 20.636783 
L 470.996038 21.655984 
L 471.232125 22.519191 
L 471.350168 21.346177 
L 471.40919 22.100539 
L 471.468212 19.659698 
L 471.645277 20.3889 
L 471.822342 18.86 
L 471.881364 19.172487 
" clip-path="url(#pdf1d30b477)" style="fill: none; stroke: #3f1e71; stroke-width: 1.5; stroke-linecap: square"/>
   </g>
   <g id="patch_3">
    <path d="M 24.19 188.12 
L 24.19 10.8 
" style="fill: none"/>
   </g>
   <g id="patch_4">
    <path d="M 493.2 188.12 
L 493.2 10.8 
" style="fill: none"/>
   </g>
   <g id="patch_5">
    <path d="M 24.19 188.12 
L 493.2 188.12 
" style="fill: none"/>
   </g>
   <g id="patch_6">
    <path d="M 24.19 10.8 
L 493.2 10.8 
" style="fill: none"/>
   </g>
  </g>
 </g>
 <defs>
  <clipPath id="pdf1d30b477">
   <rect x="24.19" y="10.8" width="469.01" height="177.32"/>
  </clipPath>
 </defs>
</svg>
