<?xml version="1.0" encoding="utf-8" standalone="no"?>
<!DOCTYPE svg PUBLIC "-//W3C//DTD SVG 1.1//EN"
  "http://www.w3.org/Graphics/SVG/1.1/DTD/svg11.dtd">
<svg xmlns:xlink="http://www.w3.org/1999/xlink" width="460.8pt" height="345.6pt" viewBox="0 0 460.8 345.6" xmlns="http://www.w3.org/2000/svg" version="1.1">
 <metadata>
  <rdf:RDF xmlns:dc="http://purl.org/dc/elements/1.1/" xmlns:cc="http://creativecommons.org/ns#" xmlns:rdf="http://www.w3.org/1999/02/22-rdf-syntax-ns#">
   <cc:Work>
    <dc:type rdf:resource="http://purl.org/dc/dcmitype/StillImage"/>
    <dc:date>2025-08-28T07:22:29.909066</dc:date>
    <dc:format>image/svg+xml</dc:format>
    <dc:creator>
     <cc:Agent>
      <dc:title>Matplotlib v3.10.5, https://matplotlib.org/</dc:title>
     </cc:Agent>
    </dc:creator>
   </cc:Work>
  </rdf:RDF>
 </metadata>
 <defs>
  <style type="text/css">*{stroke-linejoin: round; stroke-linecap: butt}</style>
 </defs>
 <g id="figure_1">
  <g id="patch_1">
   <path d="M 0 345.6 
L 460.8 345.6 
L 460.8 0 
L 0 0 
L 0 345.6 
z
" style="fill: none"/>
  </g>
  <g id="axes_1">
   <g id="patch_2">
    <path d="M 57.6 276.48 
L 414.72 276.48 
L 414.72 41.472 
L 57.6 41.472 
L 57.6 276.48 
z
" style="fill: none"/>
   </g>
   <g id="matplotlib.axis_1">
    <g id="xtick_1">
     <g id="line2d_1">
      <defs>
       <path id="m32425948a3" d="M 0 0 
L 0 3.5 
" style="stroke: #000000; stroke-width: 0.8"/>
      </defs>
      <g>
       <use xlink:href="#m32425948a3" x="98.319147" y="276.48" style="stroke: #000000; stroke-width: 0.8"/>
      </g>
     </g>
     <g id="text_1">
      <!-- 2008 -->
      <g transform="translate(75.238957 302.78544) rotate(-30) scale(0.1 -0.1)">
       <defs>
        <path id="DejaVuSans-32" d="M 1228 531 
L 3431 531 
L 3431 0 
L 469 0 
L 469 531 
Q 828 903 1448 1529 
Q 2069 2156 2228 2338 
Q 2531 2678 2651 2914 
Q 2772 3150 2772 3378 
Q 2772 3750 2511 3984 
Q 2250 4219 1831 4219 
Q 1534 4219 1204 4116 
Q 875 4013 500 3803 
L 500 4441 
Q 881 4594 1212 4672 
Q 1544 4750 1819 4750 
Q 2544 4750 2975 4387 
Q 3406 4025 3406 3419 
Q 3406 3131 3298 2873 
Q 3191 2616 2906 2266 
Q 2828 2175 2409 1742 
Q 1991 1309 1228 531 
z
" transform="scale(0.015625)"/>
        <path id="DejaVuSans-30" d="M 2034 4250 
Q 1547 4250 1301 3770 
Q 1056 3291 1056 2328 
Q 1056 1369 1301 889 
Q 1547 409 2034 409 
Q 2525 409 2770 889 
Q 3016 1369 3016 2328 
Q 3016 3291 2770 3770 
Q 2525 4250 2034 4250 
z
M 2034 4750 
Q 2819 4750 3233 4129 
Q 3647 3509 3647 2328 
Q 3647 1150 3233 529 
Q 2819 -91 2034 -91 
Q 1250 -91 836 529 
Q 422 1150 422 2328 
Q 422 3509 836 4129 
Q 1250 4750 2034 4750 
z
" transform="scale(0.015625)"/>
        <path id="DejaVuSans-38" d="M 2034 2216 
Q 1584 2216 1326 1975 
Q 1069 1734 1069 1313 
Q 1069 891 1326 650 
Q 1584 409 2034 409 
Q 2484 409 2743 651 
Q 3003 894 3003 1313 
Q 3003 1734 2745 1975 
Q 2488 2216 2034 2216 
z
M 1403 2484 
Q 997 2584 770 2862 
Q 544 3141 544 3541 
Q 544 4100 942 4425 
Q 1341 4750 2034 4750 
Q 2731 4750 3128 4425 
Q 3525 4100 3525 3541 
Q 3525 3141 3298 2862 
Q 3072 2584 2669 2484 
Q 3125 2378 3379 2068 
Q 3634 1759 3634 1313 
Q 3634 634 3220 271 
Q 2806 -91 2034 -91 
Q 1263 -91 848 271 
Q 434 634 434 1313 
Q 434 1759 690 2068 
Q 947 2378 1403 2484 
z
M 1172 3481 
Q 1172 3119 1398 2916 
Q 1625 2713 2034 2713 
Q 2441 2713 2670 2916 
Q 2900 3119 2900 3481 
Q 2900 3844 2670 4047 
Q 2441 4250 2034 4250 
Q 1625 4250 1398 4047 
Q 1172 3844 1172 3481 
z
" transform="scale(0.015625)"/>
       </defs>
       <use xlink:href="#DejaVuSans-32"/>
       <use xlink:href="#DejaVuSans-30" transform="translate(63.623047 0)"/>
       <use xlink:href="#DejaVuSans-30" transform="translate(127.246094 0)"/>
       <use xlink:href="#DejaVuSans-38" transform="translate(190.869141 0)"/>
      </g>
     </g>
    </g>
    <g id="xtick_2">
     <g id="line2d_2">
      <g>
       <use xlink:href="#m32425948a3" x="166.331807" y="276.48" style="stroke: #000000; stroke-width: 0.8"/>
      </g>
     </g>
     <g id="text_2">
      <!-- 2012 -->
      <g transform="translate(143.251617 302.78544) rotate(-30) scale(0.1 -0.1)">
       <defs>
        <path id="DejaVuSans-31" d="M 794 531 
L 1825 531 
L 1825 4091 
L 703 3866 
L 703 4441 
L 1819 4666 
L 2450 4666 
L 2450 531 
L 3481 531 
L 3481 0 
L 794 0 
L 794 531 
z
" transform="scale(0.015625)"/>
       </defs>
       <use xlink:href="#DejaVuSans-32"/>
       <use xlink:href="#DejaVuSans-30" transform="translate(63.623047 0)"/>
       <use xlink:href="#DejaVuSans-31" transform="translate(127.246094 0)"/>
       <use xlink:href="#DejaVuSans-32" transform="translate(190.869141 0)"/>
      </g>
     </g>
    </g>
    <g id="xtick_3">
     <g id="line2d_3">
      <g>
       <use xlink:href="#m32425948a3" x="234.344467" y="276.48" style="stroke: #000000; stroke-width: 0.8"/>
      </g>
     </g>
     <g id="text_3">
      <!-- 2016 -->
      <g transform="translate(211.264277 302.78544) rotate(-30) scale(0.1 -0.1)">
       <defs>
        <path id="DejaVuSans-36" d="M 2113 2584 
Q 1688 2584 1439 2293 
Q 1191 2003 1191 1497 
Q 1191 994 1439 701 
Q 1688 409 2113 409 
Q 2538 409 2786 701 
Q 3034 994 3034 1497 
Q 3034 2003 2786 2293 
Q 2538 2584 2113 2584 
z
M 3366 4563 
L 3366 3988 
Q 3128 4100 2886 4159 
Q 2644 4219 2406 4219 
Q 1781 4219 1451 3797 
Q 1122 3375 1075 2522 
Q 1259 2794 1537 2939 
Q 1816 3084 2150 3084 
Q 2853 3084 3261 2657 
Q 3669 2231 3669 1497 
Q 3669 778 3244 343 
Q 2819 -91 2113 -91 
Q 1303 -91 875 529 
Q 447 1150 447 2328 
Q 447 3434 972 4092 
Q 1497 4750 2381 4750 
Q 2619 4750 2861 4703 
Q 3103 4656 3366 4563 
z
" transform="scale(0.015625)"/>
       </defs>
       <use xlink:href="#DejaVuSans-32"/>
       <use xlink:href="#DejaVuSans-30" transform="translate(63.623047 0)"/>
       <use xlink:href="#DejaVuSans-31" transform="translate(127.246094 0)"/>
       <use xlink:href="#DejaVuSans-36" transform="translate(190.869141 0)"/>
      </g>
     </g>
    </g>
    <g id="xtick_4">
     <g id="line2d_4">
      <g>
       <use xlink:href="#m32425948a3" x="302.357127" y="276.48" style="stroke: #000000; stroke-width: 0.8"/>
      </g>
     </g>
     <g id="text_4">
      <!-- 2020 -->
      <g transform="translate(279.276937 302.78544) rotate(-30) scale(0.1 -0.1)">
       <use xlink:href="#DejaVuSans-32"/>
       <use xlink:href="#DejaVuSans-30" transform="translate(63.623047 0)"/>
       <use xlink:href="#DejaVuSans-32" transform="translate(127.246094 0)"/>
       <use xlink:href="#DejaVuSans-30" transform="translate(190.869141 0)"/>
      </g>
     </g>
    </g>
    <g id="xtick_5">
     <g id="line2d_5">
      <g>
       <use xlink:href="#m32425948a3" x="370.369787" y="276.48" style="stroke: #000000; stroke-width: 0.8"/>
      </g>
     </g>
     <g id="text_5">
      <!-- 2024 -->
      <g transform="translate(347.289597 302.78544) rotate(-30) scale(0.1 -0.1)">
       <defs>
        <path id="DejaVuSans-34" d="M 2419 4116 
L 825 1625 
L 2419 1625 
L 2419 4116 
z
M 2253 4666 
L 3047 4666 
L 3047 1625 
L 3713 1625 
L 3713 1100 
L 3047 1100 
L 3047 0 
L 2419 0 
L 2419 1100 
L 313 1100 
L 313 1709 
L 2253 4666 
z
" transform="scale(0.015625)"/>
       </defs>
       <use xlink:href="#DejaVuSans-32"/>
       <use xlink:href="#DejaVuSans-30" transform="translate(63.623047 0)"/>
       <use xlink:href="#DejaVuSans-32" transform="translate(127.246094 0)"/>
       <use xlink:href="#DejaVuSans-34" transform="translate(190.869141 0)"/>
      </g>
     </g>
    </g>
    <g id="text_6">
     <!-- Date -->
     <g transform="translate(224.209219 316.18494) scale(0.1 -0.1)">
      <defs>
       <path id="DejaVuSans-44" d="M 1259 4147 
L 1259 519 
L 2022 519 
Q 2988 519 3436 956 
Q 3884 1394 3884 2338 
Q 3884 3275 3436 3711 
Q 2988 4147 2022 4147 
L 1259 4147 
z
M 628 4666 
L 1925 4666 
Q 3281 4666 3915 4102 
Q 4550 3538 4550 2338 
Q 4550 1131 3912 565 
Q 3275 0 1925 0 
L 628 0 
L 628 4666 
z
" transform="scale(0.015625)"/>
       <path id="DejaVuSans-61" d="M 2194 1759 
Q 1497 1759 1228 1600 
Q 959 1441 959 1056 
Q 959 750 1161 570 
Q 1363 391 1709 391 
Q 2188 391 2477 730 
Q 2766 1069 2766 1631 
L 2766 1759 
L 2194 1759 
z
M 3341 1997 
L 3341 0 
L 2766 0 
L 2766 531 
Q 2569 213 2275 61 
Q 1981 -91 1556 -91 
Q 1019 -91 701 211 
Q 384 513 384 1019 
Q 384 1609 779 1909 
Q 1175 2209 1959 2209 
L 2766 2209 
L 2766 2266 
Q 2766 2663 2505 2880 
Q 2244 3097 1772 3097 
Q 1472 3097 1187 3025 
Q 903 2953 641 2809 
L 641 3341 
Q 956 3463 1253 3523 
Q 1550 3584 1831 3584 
Q 2591 3584 2966 3190 
Q 3341 2797 3341 1997 
z
" transform="scale(0.015625)"/>
       <path id="DejaVuSans-74" d="M 1172 4494 
L 1172 3500 
L 2356 3500 
L 2356 3053 
L 1172 3053 
L 1172 1153 
Q 1172 725 1289 603 
Q 1406 481 1766 481 
L 2356 481 
L 2356 0 
L 1766 0 
Q 1100 0 847 248 
Q 594 497 594 1153 
L 594 3053 
L 172 3053 
L 172 3500 
L 594 3500 
L 594 4494 
L 1172 4494 
z
" transform="scale(0.015625)"/>
       <path id="DejaVuSans-65" d="M 3597 1894 
L 3597 1613 
L 953 1613 
Q 991 1019 1311 708 
Q 1631 397 2203 397 
Q 2534 397 2845 478 
Q 3156 559 3463 722 
L 3463 178 
Q 3153 47 2828 -22 
Q 2503 -91 2169 -91 
Q 1331 -91 842 396 
Q 353 884 353 1716 
Q 353 2575 817 3079 
Q 1281 3584 2069 3584 
Q 2775 3584 3186 3129 
Q 3597 2675 3597 1894 
z
M 3022 2063 
Q 3016 2534 2758 2815 
Q 2500 3097 2075 3097 
Q 1594 3097 1305 2825 
Q 1016 2553 972 2059 
L 3022 2063 
z
" transform="scale(0.015625)"/>
      </defs>
      <use xlink:href="#DejaVuSans-44"/>
      <use xlink:href="#DejaVuSans-61" transform="translate(77.001953 0)"/>
      <use xlink:href="#DejaVuSans-74" transform="translate(138.28125 0)"/>
      <use xlink:href="#DejaVuSans-65" transform="translate(177.490234 0)"/>
     </g>
    </g>
   </g>
   <g id="matplotlib.axis_2">
    <g id="ytick_1">
     <g id="line2d_6">
      <defs>
       <path id="m30ddded495" d="M 0 0 
L -3.5 0 
" style="stroke: #000000; stroke-width: 0.8"/>
      </defs>
      <g>
       <use xlink:href="#m30ddded495" x="57.6" y="263.166918" style="stroke: #000000; stroke-width: 0.8"/>
      </g>
     </g>
     <g id="text_7">
      <!-- 1.0 -->
      <g transform="translate(34.696875 266.966137) scale(0.1 -0.1)">
       <defs>
        <path id="DejaVuSans-2e" d="M 684 794 
L 1344 794 
L 1344 0 
L 684 0 
L 684 794 
z
" transform="scale(0.015625)"/>
       </defs>
       <use xlink:href="#DejaVuSans-31"/>
       <use xlink:href="#DejaVuSans-2e" transform="translate(63.623047 0)"/>
       <use xlink:href="#DejaVuSans-30" transform="translate(95.410156 0)"/>
      </g>
     </g>
    </g>
    <g id="ytick_2">
     <g id="line2d_7">
      <g>
       <use xlink:href="#m30ddded495" x="57.6" y="225.145237" style="stroke: #000000; stroke-width: 0.8"/>
      </g>
     </g>
     <g id="text_8">
      <!-- 1.5 -->
      <g transform="translate(34.696875 228.944456) scale(0.1 -0.1)">
       <defs>
        <path id="DejaVuSans-35" d="M 691 4666 
L 3169 4666 
L 3169 4134 
L 1269 4134 
L 1269 2991 
Q 1406 3038 1543 3061 
Q 1681 3084 1819 3084 
Q 2600 3084 3056 2656 
Q 3513 2228 3513 1497 
Q 3513 744 3044 326 
Q 2575 -91 1722 -91 
Q 1428 -91 1123 -41 
Q 819 9 494 109 
L 494 744 
Q 775 591 1075 516 
Q 1375 441 1709 441 
Q 2250 441 2565 725 
Q 2881 1009 2881 1497 
Q 2881 1984 2565 2268 
Q 2250 2553 1709 2553 
Q 1456 2553 1204 2497 
Q 953 2441 691 2322 
L 691 4666 
z
" transform="scale(0.015625)"/>
       </defs>
       <use xlink:href="#DejaVuSans-31"/>
       <use xlink:href="#DejaVuSans-2e" transform="translate(63.623047 0)"/>
       <use xlink:href="#DejaVuSans-35" transform="translate(95.410156 0)"/>
      </g>
     </g>
    </g>
    <g id="ytick_3">
     <g id="line2d_8">
      <g>
       <use xlink:href="#m30ddded495" x="57.6" y="187.123556" style="stroke: #000000; stroke-width: 0.8"/>
      </g>
     </g>
     <g id="text_9">
      <!-- 2.0 -->
      <g transform="translate(34.696875 190.922775) scale(0.1 -0.1)">
       <use xlink:href="#DejaVuSans-32"/>
       <use xlink:href="#DejaVuSans-2e" transform="translate(63.623047 0)"/>
       <use xlink:href="#DejaVuSans-30" transform="translate(95.410156 0)"/>
      </g>
     </g>
    </g>
    <g id="ytick_4">
     <g id="line2d_9">
      <g>
       <use xlink:href="#m30ddded495" x="57.6" y="149.101875" style="stroke: #000000; stroke-width: 0.8"/>
      </g>
     </g>
     <g id="text_10">
      <!-- 2.5 -->
      <g transform="translate(34.696875 152.901093) scale(0.1 -0.1)">
       <use xlink:href="#DejaVuSans-32"/>
       <use xlink:href="#DejaVuSans-2e" transform="translate(63.623047 0)"/>
       <use xlink:href="#DejaVuSans-35" transform="translate(95.410156 0)"/>
      </g>
     </g>
    </g>
    <g id="ytick_5">
     <g id="line2d_10">
      <g>
       <use xlink:href="#m30ddded495" x="57.6" y="111.080194" style="stroke: #000000; stroke-width: 0.8"/>
      </g>
     </g>
     <g id="text_11">
      <!-- 3.0 -->
      <g transform="translate(34.696875 114.879412) scale(0.1 -0.1)">
       <defs>
        <path id="DejaVuSans-33" d="M 2597 2516 
Q 3050 2419 3304 2112 
Q 3559 1806 3559 1356 
Q 3559 666 3084 287 
Q 2609 -91 1734 -91 
Q 1441 -91 1130 -33 
Q 819 25 488 141 
L 488 750 
Q 750 597 1062 519 
Q 1375 441 1716 441 
Q 2309 441 2620 675 
Q 2931 909 2931 1356 
Q 2931 1769 2642 2001 
Q 2353 2234 1838 2234 
L 1294 2234 
L 1294 2753 
L 1863 2753 
Q 2328 2753 2575 2939 
Q 2822 3125 2822 3475 
Q 2822 3834 2567 4026 
Q 2313 4219 1838 4219 
Q 1578 4219 1281 4162 
Q 984 4106 628 3988 
L 628 4550 
Q 988 4650 1302 4700 
Q 1616 4750 1894 4750 
Q 2613 4750 3031 4423 
Q 3450 4097 3450 3541 
Q 3450 3153 3228 2886 
Q 3006 2619 2597 2516 
z
" transform="scale(0.015625)"/>
       </defs>
       <use xlink:href="#DejaVuSans-33"/>
       <use xlink:href="#DejaVuSans-2e" transform="translate(63.623047 0)"/>
       <use xlink:href="#DejaVuSans-30" transform="translate(95.410156 0)"/>
      </g>
     </g>
    </g>
    <g id="ytick_6">
     <g id="line2d_11">
      <g>
       <use xlink:href="#m30ddded495" x="57.6" y="73.058512" style="stroke: #000000; stroke-width: 0.8"/>
      </g>
     </g>
     <g id="text_12">
      <!-- 3.5 -->
      <g transform="translate(34.696875 76.857731) scale(0.1 -0.1)">
       <use xlink:href="#DejaVuSans-33"/>
       <use xlink:href="#DejaVuSans-2e" transform="translate(63.623047 0)"/>
       <use xlink:href="#DejaVuSans-35" transform="translate(95.410156 0)"/>
      </g>
     </g>
    </g>
   </g>
   <g id="line2d_12">
    <path d="M 73.832727 263.166918 
L 75.182739 263.101121 
L 75.229291 263.355239 
L 75.275843 263.191996 
L 75.322395 263.150514 
L 75.508604 263.182985 
L 75.601708 262.737364 
L 75.64826 262.805887 
L 75.834469 262.725609 
L 75.974125 263.562703 
L 76.113782 263.945445 
L 76.206886 263.402892 
L 76.253438 263.876899 
L 76.29999 263.769245 
L 76.532751 263.612342 
L 76.858616 262.513937 
L 76.905168 262.624276 
L 77.091376 262.916617 
L 77.137928 263.227973 
L 77.231033 262.53762 
L 77.277585 262.836983 
L 77.417241 262.554462 
L 77.510345 263.108237 
L 77.743106 261.824447 
L 77.789658 262.105581 
L 77.83621 262.044356 
L 77.882762 261.879773 
L 77.929315 262.074716 
L 78.068971 262.175478 
L 78.115523 262.035797 
L 78.208627 261.064009 
L 78.255179 261.208037 
L 78.394836 261.227926 
L 78.441388 260.972339 
L 78.48794 260.985176 
L 78.581044 261.670425 
L 78.860357 260.818546 
L 78.906909 260.844235 
L 79.046566 260.893553 
L 79.13967 260.426226 
L 79.186222 260.668635 
L 79.558639 259.082476 
L 79.698295 259.633657 
L 79.744848 259.401541 
L 79.837952 258.350469 
L 79.884504 258.3868 
L 80.02416 258.24324 
L 80.117265 258.784213 
L 80.210369 259.291298 
L 80.350025 259.042508 
L 80.396577 259.122329 
L 80.536234 259.416489 
L 80.67589 259.718596 
L 80.722442 259.615381 
L 80.768994 259.513556 
L 80.862099 260.124197 
L 81.187964 259.749801 
L 81.467276 260.287566 
L 81.513829 261.007764 
L 81.793141 260.634199 
L 81.839693 260.137008 
L 82.119006 260.248426 
L 82.165558 259.828319 
L 82.305215 259.974949 
L 82.398319 259.18073 
L 82.444871 259.721393 
L 82.491423 259.624711 
L 82.63108 259.892216 
L 82.817288 258.452595 
L 82.956944 258.369704 
L 83.096601 257.444365 
L 83.282809 258.486905 
L 83.469018 257.228381 
L 83.655226 257.255897 
L 83.701779 256.872339 
L 83.748331 257.079842 
L 83.934539 256.80626 
L 83.981091 258.481862 
L 84.074196 258.333435 
L 84.260404 259.966504 
L 84.40006 258.586567 
L 84.446613 259.002938 
L 84.586269 258.962493 
L 84.632821 259.485159 
L 84.725925 259.303116 
L 84.772478 259.440308 
L 84.958686 258.880913 
L 85.005238 258.255568 
L 85.098342 258.479116 
L 85.237999 258.406935 
L 85.331103 258.686687 
L 85.377655 258.586065 
L 85.424207 258.571494 
L 85.610416 258.216099 
L 85.656968 257.913812 
L 85.70352 258.007266 
L 85.889729 258.355999 
L 85.936281 258.017455 
L 85.982833 258.313228 
L 86.029385 258.245377 
L 86.308698 257.209903 
L 86.35525 257.555814 
L 86.401802 257.12679 
L 86.634563 256.844859 
L 86.681115 257.268709 
L 86.727667 257.050363 
L 86.913875 257.433297 
L 86.960428 257.330272 
L 87.053532 256.952967 
L 87.23974 257.112669 
L 87.286292 257.190283 
L 87.332845 257.764209 
L 87.379397 257.288027 
L 87.612157 257.809911 
L 87.705262 258.213632 
L 87.844918 257.946289 
L 87.984574 258.785261 
L 88.031127 258.657685 
L 88.217335 258.404691 
L 88.356991 257.611037 
L 88.496648 257.274232 
L 88.869065 260.381443 
L 89.008721 258.653595 
L 89.148378 258.84627 
L 89.19493 258.585173 
L 89.334586 259.544789 
L 89.474243 259.756755 
L 89.520795 260.36848 
L 89.567347 259.789054 
L 89.613899 259.696897 
L 89.800107 258.513031 
L 89.939764 258.760674 
L 90.125972 258.366341 
L 90.172524 258.352202 
L 90.219077 258.513594 
L 90.312181 257.604861 
L 90.498389 257.927246 
L 90.591494 257.075706 
L 90.638046 257.166517 
L 90.777702 257.542612 
L 90.963911 259.488359 
L 91.243223 258.549088 
L 91.289776 259.110363 
L 91.429432 259.25121 
L 91.522536 258.646462 
L 91.61564 259.6959 
L 91.755297 259.575869 
L 91.894953 260.306447 
L 91.941505 259.789209 
L 92.081162 260.00389 
L 92.174266 259.539713 
L 92.220818 259.602289 
L 92.26737 258.729144 
L 92.407027 258.93638 
L 92.453579 259.542574 
L 92.500131 258.757632 
L 92.546683 258.600087 
L 92.593235 257.997056 
L 93.058756 256.379617 
L 93.151861 255.577107 
L 93.198413 255.721631 
L 93.244965 255.672486 
L 93.384621 255.150428 
L 93.431173 254.368039 
L 93.477726 254.420738 
L 93.524278 254.732395 
L 93.57083 254.514296 
L 93.710486 254.358787 
L 93.757038 254.83344 
L 93.80359 254.79424 
L 93.850143 253.750442 
L 93.896695 253.780366 
L 94.036351 253.319011 
L 94.082903 253.53345 
L 94.129455 253.799703 
L 94.22256 253.090834 
L 94.362216 253.832308 
L 94.548425 252.891503 
L 94.688081 252.764817 
L 94.734633 253.123856 
L 94.781185 252.772942 
L 94.827737 252.085226 
L 94.874289 252.687178 
L 95.013946 252.815872 
L 95.153602 251.759687 
L 95.200154 251.067509 
L 95.339811 250.647694 
L 95.386363 251.119872 
L 95.479467 251.069083 
L 95.526019 250.258495 
L 95.665676 250.780135 
L 95.712228 249.991172 
L 95.75878 250.68226 
L 95.805332 250.820296 
L 95.851884 250.801285 
L 95.991541 251.858676 
L 96.084645 250.977799 
L 96.131197 251.402034 
L 96.177749 251.448012 
L 96.317405 251.75553 
L 96.503614 250.474221 
L 96.64327 250.704218 
L 96.689822 251.054214 
L 96.736375 250.613435 
L 96.829479 250.961028 
L 96.969135 250.625314 
L 97.015687 251.197851 
L 97.062239 251.072546 
L 97.108792 250.220091 
L 97.155344 250.936976 
L 97.295 250.626425 
L 97.341552 251.079513 
L 97.388104 250.344005 
L 97.434657 251.26445 
L 97.620865 252.596695 
L 97.807074 250.84133 
L 98.039834 250.110543 
L 98.086386 250.274872 
L 98.132938 249.871629 
L 98.272595 249.896131 
L 98.365699 248.612333 
L 98.412251 248.860135 
L 98.458803 249.962581 
L 98.645012 250.314236 
L 98.784668 249.869797 
L 98.924325 249.266096 
L 99.110533 251.56787 
L 99.296742 251.350253 
L 99.436398 249.575122 
L 99.576054 248.59908 
L 99.622607 248.817903 
L 99.669159 249.194625 
L 99.762263 248.506011 
L 99.901919 249.012778 
L 99.995024 250.279723 
L 100.041576 250.221172 
L 100.088128 249.429798 
L 100.227784 249.190952 
L 100.367441 249.75597 
L 100.879514 247.603953 
L 101.01917 246.287909 
L 101.065723 246.679438 
L 101.205379 246.282221 
L 101.251931 247.524708 
L 101.345035 247.448715 
L 101.391587 247.697826 
L 101.531244 247.498399 
L 101.6709 245.285462 
L 101.857109 246.236881 
L 101.903661 245.195861 
L 101.950213 247.063054 
L 101.996765 246.89222 
L 102.182974 246.620559 
L 102.229526 245.618489 
L 102.32263 245.784651 
L 102.369182 246.46807 
L 102.555391 246.92429 
L 102.695047 245.072827 
L 102.834703 244.932363 
L 102.881256 245.306452 
L 102.927808 244.739506 
L 102.97436 244.849689 
L 103.020912 245.335522 
L 103.160568 245.494496 
L 103.20712 245.382467 
L 103.253673 244.041287 
L 103.346777 244.419281 
L 103.486433 244.547506 
L 103.532985 244.31522 
L 103.579538 244.509442 
L 103.62609 245.150044 
L 103.672642 244.834223 
L 103.812298 244.564418 
L 103.951955 245.504393 
L 104.138163 244.802615 
L 104.184715 244.474666 
L 104.231267 245.065881 
L 104.277819 244.529002 
L 104.464028 244.095764 
L 104.557132 244.584055 
L 104.650236 243.116463 
L 104.789893 242.962103 
L 104.836445 242.691825 
L 104.882997 242.752781 
L 104.976101 243.748249 
L 105.208862 244.23042 
L 105.255414 245.112946 
L 105.301966 244.640107 
L 105.441623 244.817558 
L 105.534727 245.495336 
L 105.627831 244.063469 
L 105.767488 244.760249 
L 105.907144 245.878717 
L 106.093352 245.146007 
L 106.139905 245.500755 
L 106.233009 245.409436 
L 106.419217 246.080257 
L 106.605426 245.090139 
L 106.745082 244.974639 
L 106.791634 244.783356 
L 106.838187 244.799238 
L 107.070947 245.944209 
L 107.210604 244.796921 
L 107.257156 245.086559 
L 107.396812 245.229642 
L 107.536468 246.277601 
L 107.583021 246.408573 
L 107.722677 245.846575 
L 107.908885 247.456056 
L 108.048542 247.492549 
L 108.141646 246.788148 
L 108.23475 246.923675 
L 108.467511 248.08095 
L 108.514063 248.067743 
L 108.746824 249.133603 
L 108.88648 249.083883 
L 109.026137 249.142994 
L 109.119241 248.807158 
L 109.165793 247.950667 
L 109.212345 248.185941 
L 109.352001 248.572622 
L 109.491658 247.290687 
L 109.53821 247.842534 
L 109.864075 249.220616 
L 110.003731 248.292393 
L 110.143388 250.089143 
L 110.18994 249.92388 
L 110.329596 250.313796 
L 110.469253 248.24966 
L 110.515805 247.407776 
L 110.655461 247.484644 
L 110.748565 248.583487 
L 110.795117 248.073165 
L 110.84167 247.669777 
L 110.981326 249.795388 
L 111.027878 249.050903 
L 111.07443 249.106764 
L 111.167534 251.950055 
L 111.353743 254.022495 
L 111.400295 254.673323 
L 111.493399 258.37314 
L 111.633056 256.147708 
L 111.819264 260.641783 
L 111.958921 259.106545 
L 112.284786 264.671015 
L 112.37789 262.153638 
L 112.424442 262.279294 
L 112.61065 262.785402 
L 112.657203 259.672425 
L 112.703755 261.523402 
L 112.750307 263.305085 
L 112.796859 262.796596 
L 112.936515 262.94422 
L 113.02962 265.412278 
L 113.122724 264.906487 
L 113.26238 265.287964 
L 113.308932 265.043007 
L 113.402037 265.797818 
L 113.588245 260.847425 
L 113.634797 260.439796 
L 113.681349 258.840257 
L 113.774454 258.956356 
L 113.91411 261.682567 
L 114.007214 260.006921 
L 114.053766 260.692335 
L 114.100319 260.704323 
L 114.426183 257.172619 
L 114.56584 256.954577 
L 114.658944 253.533165 
L 114.705496 254.599015 
L 114.752048 254.377701 
L 114.984809 255.695955 
L 115.077913 254.913427 
L 115.21757 254.893898 
L 115.310674 253.152145 
L 115.403778 253.36255 
L 115.543435 254.252641 
L 115.589987 253.723354 
L 115.729643 256.394826 
L 115.962404 258.299653 
L 116.008956 258.389185 
L 116.055508 257.728118 
L 116.334821 259.872631 
L 116.381373 258.554949 
L 116.521029 258.501464 
L 116.614134 257.970638 
L 116.707238 259.679611 
L 116.846894 259.502142 
L 116.939998 260.351822 
L 116.986551 259.922991 
L 117.033103 259.326015 
L 117.172759 259.466967 
L 117.219311 259.936254 
L 117.265863 259.333867 
L 117.312415 259.3768 
L 117.358968 261.154475 
L 117.591728 261.804582 
L 117.63828 262.562434 
L 117.684832 261.767654 
L 117.824489 262.731472 
L 117.871041 261.878009 
L 117.917593 262.240628 
L 118.196906 265.370843 
L 118.243458 264.704011 
L 118.336562 264.40917 
L 118.476219 264.838481 
L 118.615875 262.017142 
L 118.662427 262.306651 
L 118.802084 263.193322 
L 119.127948 258.936786 
L 119.221053 259.89728 
L 119.267605 259.04862 
L 119.314157 260.034574 
L 119.453813 261.469912 
L 119.59347 259.340308 
L 119.640022 259.540973 
L 119.82623 261.112139 
L 119.872783 260.64414 
L 119.919335 259.300722 
L 120.105543 258.902978 
L 120.152095 259.73878 
L 120.198647 258.981034 
L 120.291752 259.519761 
L 120.431408 260.596588 
L 120.617617 258.938719 
L 120.803825 260.560313 
L 120.896929 260.279229 
L 120.943482 260.114398 
L 121.176242 257.808771 
L 121.222794 258.928155 
L 121.269346 257.693718 
L 121.409003 257.861099 
L 121.455555 257.552035 
L 121.595211 258.260053 
L 121.827972 257.056085 
L 121.921076 257.940374 
L 122.107285 257.706976 
L 122.153837 258.592936 
L 122.200389 257.438392 
L 122.246941 255.550892 
L 122.43315 255.135012 
L 122.572806 256.354517 
L 122.712462 256.614213 
L 122.805567 256.685563 
L 122.852119 256.187658 
L 122.898671 256.292305 
L 123.177984 257.485149 
L 123.224536 257.243174 
L 123.364192 258.735992 
L 123.410744 258.047129 
L 123.457296 257.878029 
L 123.503849 256.535271 
L 123.550401 256.622953 
L 123.690057 256.337806 
L 123.829713 258.019891 
L 124.015922 258.347562 
L 124.202131 259.551204 
L 124.807308 255.808689 
L 124.85386 255.378905 
L 124.993517 255.331125 
L 125.086621 256.709425 
L 125.179725 254.027631 
L 125.319382 253.459969 
L 125.412486 252.743083 
L 125.459038 253.052602 
L 125.50559 252.868445 
L 125.645246 252.98987 
L 125.691799 253.533131 
L 125.738351 253.283048 
L 125.784903 252.471414 
L 125.831455 253.194851 
L 125.971111 254.518698 
L 126.017664 254.012669 
L 126.15732 252.1279 
L 126.296976 251.598328 
L 126.390081 251.654208 
L 126.436633 251.592581 
L 126.483185 250.98669 
L 126.622841 251.600474 
L 126.669393 252.641404 
L 126.715945 252.084287 
L 127.04181 250.806968 
L 127.134915 249.564336 
L 127.274571 249.476194 
L 127.367675 248.089965 
L 127.46078 248.482353 
L 127.600436 248.914559 
L 127.646988 247.828123 
L 127.69354 248.533336 
L 127.740092 249.632716 
L 127.786644 249.597026 
L 128.019405 248.391755 
L 128.112509 249.680666 
L 128.391822 246.77155 
L 128.578031 246.858734 
L 128.903896 245.436989 
L 128.950448 245.826858 
L 128.997 245.941232 
L 129.043552 245.59252 
L 129.22976 247.680026 
L 129.276313 247.556719 
L 129.322865 248.871156 
L 129.369417 247.402785 
L 129.415969 248.291158 
L 129.555625 247.768004 
L 129.695282 246.587749 
L 129.741834 246.856073 
L 129.974594 244.760677 
L 130.021147 245.720033 
L 130.067699 245.14176 
L 130.300459 243.217115 
L 130.393564 243.954486 
L 130.626324 242.498786 
L 130.719429 243.625367 
L 130.952189 241.781646 
L 130.998741 242.537588 
L 131.045293 243.49076 
L 131.18495 243.91144 
L 131.324606 245.53356 
L 131.371158 245.526048 
L 131.603919 244.613498 
L 131.650471 245.366832 
L 131.697023 244.982266 
L 131.883232 245.520962 
L 131.976336 244.534363 
L 132.255649 244.300515 
L 132.302201 244.75183 
L 132.674618 243.062267 
L 132.814274 242.957819 
L 132.860826 243.594031 
L 132.907379 243.287477 
L 132.953931 242.815598 
L 133.000483 243.425159 
L 133.186691 242.703119 
L 133.326348 246.069392 
L 133.466004 245.809453 
L 133.652213 247.034655 
L 133.838421 245.052667 
L 133.884973 245.816792 
L 133.931525 247.811937 
L 133.978078 247.696819 
L 134.117734 248.087386 
L 134.490151 245.614579 
L 134.536703 245.7574 
L 134.629807 245.022468 
L 134.769464 245.161053 
L 134.816016 245.526351 
L 134.862568 245.045104 
L 134.90912 244.945259 
L 134.955672 244.334067 
L 135.095329 244.166741 
L 135.281537 243.03169 
L 135.467746 243.285234 
L 135.514298 243.202398 
L 135.607402 242.850089 
L 135.747058 243.000281 
L 135.840163 241.224871 
L 135.886715 241.332762 
L 135.933267 242.141332 
L 136.119475 241.8324 
L 136.21258 243.002627 
L 136.259132 242.763241 
L 136.491892 242.17462 
L 136.538445 241.465926 
L 136.724653 241.070618 
L 136.910862 239.938976 
L 137.050518 240.026924 
L 137.143622 239.141041 
L 137.190174 239.30168 
L 137.236727 240.514183 
L 137.376383 240.616856 
L 137.562591 238.62817 
L 137.702248 238.749684 
L 137.7488 239.422073 
L 137.795352 239.362421 
L 137.841904 238.182908 
L 137.888456 238.327875 
L 138.028113 237.509419 
L 138.214321 240.258228 
L 138.447082 237.715796 
L 138.493634 238.358156 
L 138.679843 240.024218 
L 138.726395 240.246378 
L 138.819499 242.538842 
L 138.866051 241.792574 
L 139.005707 242.08711 
L 139.05226 241.95697 
L 139.098812 241.731827 
L 139.145364 240.416884 
L 139.191916 240.688891 
L 139.378124 241.166144 
L 139.424677 240.517024 
L 139.471229 240.960967 
L 139.517781 241.736633 
L 139.750541 240.966254 
L 139.843646 239.770522 
L 139.983302 239.674647 
L 140.169511 237.715685 
L 140.448823 239.453939 
L 140.495376 238.236221 
L 140.635032 238.843998 
L 140.82124 241.752127 
L 141.007449 241.884967 
L 141.147105 239.745596 
L 141.286762 240.178482 
L 141.426418 238.817785 
L 141.47297 240.129825 
L 141.612627 240.210606 
L 141.752283 238.527173 
L 141.798835 238.631746 
L 141.938492 238.385767 
L 141.985044 239.32468 
L 142.078148 239.086678 
L 142.264356 237.290409 
L 142.450565 236.708377 
L 142.590221 236.646287 
L 142.729878 238.11367 
L 142.77643 238.005909 
L 143.00919 236.379898 
L 143.055743 236.801478 
L 143.288503 237.635723 
L 143.42816 236.657399 
L 143.567816 236.895028 
L 143.940233 234.86951 
L 143.986785 234.849805 
L 144.033337 235.695479 
L 144.079889 235.317499 
L 144.266098 233.841921 
L 144.359202 234.285643 
L 144.405754 234.200197 
L 144.591963 233.118975 
L 144.638515 233.167281 
L 144.685067 233.57905 
L 144.731619 232.596908 
L 144.871276 232.593147 
L 145.057484 231.228845 
L 145.197141 231.459477 
L 145.290245 229.490759 
L 145.336797 230.270343 
L 145.383349 229.394846 
L 145.569558 229.387895 
L 145.61611 228.449995 
L 145.662662 228.797293 
L 145.709214 229.551954 
L 145.84887 228.90578 
L 145.895422 230.630361 
L 145.988527 230.141345 
L 146.174735 229.271645 
L 146.26784 230.407078 
L 146.314392 230.056798 
L 146.360944 229.640646 
L 146.5006 229.548237 
L 146.640257 226.527305 
L 146.686809 226.532477 
L 146.826465 226.262232 
L 147.012674 229.610976 
L 147.15233 230.514543 
L 147.245434 232.066671 
L 147.338538 230.606355 
L 147.478195 230.37052 
L 147.524747 230.611674 
L 147.571299 229.907398 
L 147.664403 230.215681 
L 147.897164 228.844624 
L 147.990268 227.411198 
L 148.129925 226.94111 
L 148.223029 228.544237 
L 148.269581 228.445822 
L 148.45579 227.914278 
L 148.548894 229.283978 
L 148.595446 229.139983 
L 148.828207 227.078987 
L 148.874759 226.915553 
L 148.921311 227.08101 
L 149.154071 226.40668 
L 149.293728 225.54682 
L 149.433384 224.975434 
L 149.573041 226.884225 
L 149.619593 226.987028 
L 149.805801 226.22205 
L 149.945458 225.762112 
L 150.131666 225.552443 
L 150.22477 226.93965 
L 150.271323 226.602646 
L 150.410979 226.575508 
L 150.504083 225.995084 
L 150.550635 226.252034 
L 150.597187 226.371531 
L 150.8765 224.973943 
L 150.923052 225.551412 
L 151.109261 224.821843 
L 151.248917 224.404475 
L 151.481678 223.892123 
L 151.574782 223.36637 
L 151.760991 223.479177 
L 152.040303 221.471252 
L 151.854095 223.600475 
L 152.086856 221.670815 
L 152.133408 222.031275 
L 152.17996 221.819992 
L 152.226512 221.491993 
L 152.366168 222.095393 
L 152.41272 221.956161 
L 152.459273 221.724796 
L 152.505825 222.676099 
L 152.552377 222.555846 
L 152.692033 222.777724 
L 152.785138 224.41925 
L 152.878242 222.73886 
L 153.111002 221.996519 
L 153.157555 222.068 
L 153.204107 221.842513 
L 153.343763 222.259297 
L 153.390315 222.179846 
L 153.529972 220.491247 
L 153.71618 219.840693 
L 153.762732 220.044756 
L 153.855836 220.007143 
L 154.042045 221.162132 
L 154.135149 220.112981 
L 154.181701 219.039395 
L 154.321358 219.509228 
L 154.461014 217.792409 
L 154.647223 217.58148 
L 154.833431 215.047029 
L 155.01964 215.93496 
L 155.159296 218.804209 
L 155.345505 217.104602 
L 155.485161 218.530801 
L 155.624817 218.748428 
L 155.764474 217.873734 
L 155.811026 218.046171 
L 155.950682 218.721717 
L 156.323099 215.878367 
L 156.416204 217.763677 
L 156.462756 217.633921 
L 156.602412 218.673885 
L 156.648964 218.240561 
L 156.742068 217.963068 
L 156.788621 219.166721 
L 156.928277 219.621621 
L 156.974829 219.095695 
L 157.021381 219.745107 
L 157.300694 218.42216 
L 157.347246 218.474187 
L 157.44035 220.662137 
L 157.580007 220.840983 
L 157.766215 219.021262 
L 157.998976 217.421481 
L 158.09208 216.218164 
L 158.231737 216.564901 
L 158.324841 215.657221 
L 158.371393 216.630682 
L 158.417945 215.929903 
L 158.557601 216.445993 
L 158.74381 214.271267 
L 158.883466 214.799522 
L 158.930019 214.574002 
L 158.976571 216.052674 
L 159.069675 215.598887 
L 159.255883 215.797825 
L 159.302436 216.174381 
L 159.39554 219.399259 
L 159.535196 221.641164 
L 159.674853 217.258236 
L 159.954165 213.96893 
L 160.000717 215.233839 
L 160.186926 213.797713 
L 160.233478 214.024581 
L 160.326582 215.823028 
L 160.373134 213.900148 
L 160.512791 213.402007 
L 160.559343 211.451647 
L 160.652447 211.96733 
L 160.698999 211.484024 
L 160.885208 211.586223 
L 160.978312 210.688988 
L 161.024864 212.27112 
L 161.164521 212.559656 
L 161.211073 212.411725 
L 161.350729 211.595406 
L 161.58349 213.710751 
L 161.676594 217.979721 
L 161.81625 217.576755 
L 161.862803 216.437224 
L 161.909355 218.819671 
L 162.002459 218.795107 
L 162.142115 219.594082 
L 162.23522 218.313621 
L 162.281772 217.007811 
L 162.328324 218.300639 
L 162.46798 215.577331 
L 162.561085 215.726536 
L 162.607637 215.784447 
L 162.654189 214.48538 
L 162.793845 215.3479 
L 162.840397 214.106055 
L 162.886949 215.621814 
L 162.933502 215.847358 
L 163.166262 212.118972 
L 163.212814 212.277384 
L 163.305919 210.221533 
L 163.445575 210.468365 
L 163.492127 211.240507 
L 163.538679 210.549479 
L 163.585231 209.172262 
L 163.631784 209.516589 
L 163.817992 207.836302 
L 163.911096 210.113232 
L 163.957648 208.495175 
L 164.097305 209.079706 
L 164.143857 208.544142 
L 164.190409 209.215371 
L 164.283513 211.187574 
L 164.609378 214.431252 
L 164.842139 209.74473 
L 164.935243 209.977346 
L 165.074899 210.144053 
L 165.168004 209.69117 
L 165.214556 211.327333 
L 165.261108 210.887482 
L 165.540421 214.567411 
L 165.586973 213.327539 
L 165.726629 213.46159 
L 165.866286 211.264285 
L 166.099046 210.804636 
L 166.145598 211.80652 
L 166.192151 211.390624 
L 166.238703 211.35159 
L 166.424911 209.523457 
L 166.471463 209.941179 
L 166.518015 209.949683 
L 166.564568 209.837732 
L 166.704224 209.986912 
L 166.797328 208.461881 
L 166.84388 208.916955 
L 166.890433 208.900988 
L 167.123193 207.826387 
L 167.169745 208.004941 
L 167.216297 208.257972 
L 167.355954 207.905443 
L 167.402506 207.974199 
L 167.542162 205.544029 
L 167.681819 205.874578 
L 167.821475 204.807938 
L 167.868027 204.982977 
L 168.100788 204.467066 
L 168.193892 205.268329 
L 168.333549 204.593054 
L 168.380101 204.732844 
L 168.426653 204.787312 
L 168.519757 204.152316 
L 168.705966 203.827778 
L 168.845622 202.178457 
L 169.03183 202.308891 
L 169.078383 204.011235 
L 169.171487 203.590733 
L 169.311143 203.72946 
L 169.357695 205.059528 
L 169.404247 204.629737 
L 169.68356 203.474073 
L 169.730112 204.822628 
L 169.776664 204.587559 
L 169.823217 203.863359 
L 169.962873 203.779562 
L 170.102529 205.011666 
L 170.288738 202.793971 
L 170.33529 202.911911 
L 170.428394 204.031978 
L 170.474946 203.995378 
L 170.614603 202.829393 
L 170.707707 205.073664 
L 170.754259 204.785527 
L 170.940468 204.933133 
L 170.98702 206.009774 
L 171.033572 205.460768 
L 171.080124 204.202227 
L 171.126676 204.706967 
L 171.266333 204.644239 
L 171.312885 203.870462 
L 171.359437 204.498223 
L 171.405989 204.720372 
L 171.452541 204.088664 
L 171.592198 204.641411 
L 171.685302 203.548919 
L 171.778406 202.34912 
L 171.918062 202.379678 
L 171.964615 202.059398 
L 172.011167 202.470729 
L 172.104271 204.490449 
L 172.243927 204.483363 
L 172.430136 205.924705 
L 172.756001 208.343634 
L 172.895657 207.015829 
L 172.988761 208.179952 
L 173.035314 208.107952 
L 173.268074 207.791098 
L 173.407731 208.795467 
L 173.547387 208.955233 
L 173.593939 208.714342 
L 173.640491 207.606301 
L 173.733595 207.6216 
L 173.873252 208.907945 
L 174.05946 206.706298 
L 174.245669 206.265523 
L 174.338773 209.126548 
L 174.385325 208.902257 
L 174.571534 208.727706 
L 174.897399 203.719112 
L 174.990503 204.109547 
L 175.037055 204.841314 
L 175.176711 204.197884 
L 175.223264 205.246224 
L 175.269816 204.747017 
L 175.316368 204.642227 
L 175.36292 203.422886 
L 175.642233 202.355017 
L 175.688785 202.392503 
L 175.874993 203.385803 
L 176.154306 201.287256 
L 176.293963 202.769141 
L 176.340515 201.691353 
L 176.480171 201.455733 
L 176.573275 202.097977 
L 176.619827 201.992819 
L 176.66638 201.82595 
L 176.806036 202.273712 
L 176.852588 202.816076 
L 176.89914 202.806243 
L 176.992244 202.003163 
L 177.131901 201.888556 
L 177.318109 200.446895 
L 177.457766 200.319744 
L 177.504318 200.081332 
L 177.55087 200.402236 
L 177.597422 200.555267 
L 177.643974 198.967761 
L 177.830183 198.805568 
L 177.876735 199.15545 
L 177.969839 197.733938 
L 178.2026 198.290114 
L 178.249152 196.857537 
L 178.295704 196.934589 
L 178.575017 198.688411 
L 178.621569 198.486639 
L 178.761225 198.79405 
L 178.85433 199.677343 
L 178.900882 198.699015 
L 178.947434 198.862559 
L 179.133642 198.7012 
L 179.180194 198.941406 
L 179.226747 198.281366 
L 179.273299 198.935781 
L 179.412955 199.043958 
L 179.459507 199.427134 
L 179.506059 199.396722 
L 179.552612 198.915029 
L 179.599164 199.500914 
L 179.73882 199.401648 
L 179.785372 199.0657 
L 179.878476 199.14895 
L 179.925029 200.224952 
L 180.064685 200.617489 
L 180.157789 202.29963 
L 180.204341 202.185913 
L 180.483654 201.55229 
L 180.530206 201.398818 
L 180.576758 202.451658 
L 180.716415 202.232878 
L 180.762967 201.12367 
L 180.809519 201.979734 
L 180.856071 202.143295 
L 180.902623 201.953474 
L 181.088832 202.331537 
L 181.181936 203.774362 
L 181.228488 203.331439 
L 181.554353 200.918881 
L 181.694009 200.923538 
L 181.787114 201.552554 
L 181.833666 201.005519 
L 181.880218 201.147994 
L 182.019874 200.994462 
L 182.112979 201.492381 
L 182.159531 201.214409 
L 182.206083 201.238715 
L 182.392291 201.036869 
L 182.485396 202.134988 
L 182.531948 201.927211 
L 182.718156 201.741073 
L 182.764708 201.84815 
L 182.857813 201.618035 
L 182.997469 201.742235 
L 183.137125 201.322371 
L 183.183678 201.92507 
L 183.416438 200.156528 
L 183.46299 201.072456 
L 183.509542 200.906118 
L 183.649199 200.938555 
L 183.788855 200.022296 
L 183.835407 200.058425 
L 184.068168 199.299205 
L 184.347481 197.963674 
L 184.626794 198.501848 
L 184.673346 198.140229 
L 184.719898 198.164183 
L 184.76645 198.466354 
L 184.813002 198.228407 
L 184.952658 198.336916 
L 185.045763 197.810096 
L 185.092315 198.279848 
L 185.138867 197.69283 
L 185.278523 198.036968 
L 185.325075 197.701018 
L 185.371628 198.066483 
L 185.41818 198.081511 
L 185.464732 198.737107 
L 185.65094 198.543873 
L 185.744045 200.662167 
L 185.790597 199.891081 
L 185.930253 200.46399 
L 186.023357 199.857586 
L 186.06991 200.387768 
L 186.116462 200.24368 
L 186.256118 200.227346 
L 186.30267 199.545547 
L 186.349222 199.963519 
L 186.442327 200.172745 
L 186.581983 199.995659 
L 186.768191 199.101991 
L 186.907848 199.136893 
L 187.047504 199.413451 
L 187.094056 199.018022 
L 187.233713 199.130834 
L 187.326817 197.874375 
L 187.373369 198.044804 
L 187.559578 197.857228 
L 187.652682 199.237393 
L 187.699234 198.496451 
L 187.745786 197.693382 
L 187.885443 197.377319 
L 187.931995 196.987382 
L 188.025099 197.104139 
L 188.211307 201.962221 
L 188.304412 201.868414 
L 188.723381 198.747683 
L 188.909589 197.547629 
L 188.956142 198.489681 
L 189.002694 197.415404 
L 189.049246 197.527166 
L 189.235454 197.270351 
L 189.282006 196.655203 
L 189.328559 197.255837 
L 189.514767 197.829897 
L 189.561319 197.884643 
L 189.607871 197.448584 
L 189.700976 197.534969 
L 189.887184 196.859105 
L 190.02684 199.173416 
L 190.213049 199.683906 
L 190.352705 202.115554 
L 190.492362 200.898071 
L 190.585466 202.070914 
L 190.632018 201.068368 
L 190.67857 201.32037 
L 190.864779 202.567542 
L 190.911331 203.374441 
L 191.004435 201.464139 
L 191.190644 200.987881 
L 191.469956 207.783118 
L 191.888926 204.803795 
L 191.98203 205.800991 
L 192.214791 203.791862 
L 192.307895 201.851382 
L 192.587208 200.870457 
L 192.773416 199.792066 
L 192.819968 199.834945 
L 192.86652 201.447266 
L 192.959625 201.135845 
L 193.145833 202.04685 
L 193.238937 201.959053 
L 193.285489 201.971891 
L 193.425146 202.47771 
L 193.51825 203.397908 
L 193.611354 202.2858 
L 193.751011 202.066638 
L 193.937219 204.045474 
L 194.076876 204.994009 
L 194.16998 205.007608 
L 194.263084 202.927879 
L 194.402741 202.767959 
L 194.495845 202.415582 
L 194.542397 202.628448 
L 194.588949 203.236708 
L 194.775158 202.780932 
L 194.868262 204.005799 
L 194.914814 202.995291 
L 195.05447 202.401954 
L 195.101022 203.054595 
L 195.194127 203.043646 
L 195.240679 202.755236 
L 195.426887 203.181578 
L 195.47344 200.162431 
L 195.519992 200.754681 
L 195.566544 201.857397 
L 195.7062 202.431778 
L 195.752752 202.314154 
L 195.845857 202.077203 
L 195.892409 202.251382 
L 196.078617 203.234884 
L 196.125169 202.460939 
L 196.171721 203.33315 
L 196.35793 202.877907 
L 196.451034 204.10968 
L 196.544138 202.472438 
L 196.683795 202.583688 
L 196.730347 203.052288 
L 196.870003 199.843183 
L 197.00966 200.29034 
L 197.056212 199.322358 
L 197.102764 199.829299 
L 197.149316 199.735 
L 197.195868 198.923535 
L 197.382077 199.047294 
L 197.521733 200.991737 
L 197.66139 201.037101 
L 197.847598 203.301664 
L 197.987254 203.196637 
L 198.033807 203.705402 
L 198.173463 201.688429 
L 198.359672 202.702837 
L 198.406224 204.04328 
L 198.452776 203.075223 
L 198.499328 202.642948 
L 198.685536 202.752832 
L 198.732089 202.648656 
L 198.825193 202.560292 
L 198.964849 203.517387 
L 199.011401 203.306214 
L 199.057953 203.093135 
L 199.104506 203.554821 
L 199.151058 202.683764 
L 199.290714 202.460656 
L 199.337266 201.978054 
L 199.43037 204.36398 
L 199.476923 204.059199 
L 199.616579 203.703429 
L 199.663131 203.836542 
L 199.802787 202.348174 
L 199.988996 202.331529 
L 200.128652 202.081192 
L 200.314861 202.501251 
L 200.407965 203.259696 
L 200.454517 203.03816 
L 200.594174 202.831773 
L 200.640726 202.521339 
L 200.687278 203.057016 
L 200.73383 202.931225 
L 200.780382 201.672125 
L 200.920039 202.187265 
L 201.106247 201.184356 
L 201.292456 200.895046 
L 201.38556 200.101879 
L 201.571768 201.81784 
L 201.711425 200.781956 
L 201.757977 200.780063 
L 201.990738 201.342977 
L 202.27005 198.682005 
L 202.316602 198.749595 
L 202.409707 197.311947 
L 202.595915 196.525454 
L 202.642467 196.923123 
L 202.689019 196.582841 
L 202.735572 196.553823 
L 203.061437 195.208454 
L 203.201093 194.177338 
L 203.247645 194.365985 
L 203.526958 195.741385 
L 203.57351 195.601243 
L 203.713166 194.840584 
L 203.852823 195.290943 
L 203.899375 194.812609 
L 203.945927 196.302305 
L 203.992479 196.235073 
L 204.039031 195.558962 
L 204.178688 196.053414 
L 204.22524 195.66103 
L 204.271792 196.100067 
L 204.318344 195.684649 
L 204.504552 195.263732 
L 204.597657 195.726082 
L 204.690761 195.125362 
L 204.830417 195.419625 
L 204.923522 194.176305 
L 204.970074 194.696087 
L 205.016626 194.916714 
L 205.249387 193.178206 
L 205.295939 193.732779 
L 205.575251 193.653472 
L 205.621804 193.005858 
L 205.668356 193.340228 
L 205.808012 193.410493 
L 205.994221 192.383996 
L 206.133877 192.390568 
L 206.180429 192.683273 
L 206.273533 192.618707 
L 206.320086 192.833224 
L 206.64595 191.522622 
L 206.925263 191.969959 
L 206.971815 191.398489 
L 207.204576 191.585857 
L 207.251128 191.482761 
L 207.530441 192.468654 
L 207.623545 191.291995 
L 207.809754 191.615395 
L 207.856306 191.77195 
L 207.94941 190.619057 
L 208.135619 190.805579 
L 208.275275 188.590938 
L 208.414931 188.900722 
L 208.60114 188.365297 
L 208.787348 188.336099 
L 208.880453 189.17385 
L 209.113213 189.216349 
L 209.206317 188.968285 
L 209.25287 189.144884 
L 209.392526 189.3489 
L 209.439078 189.89041 
L 209.48563 189.332595 
L 209.718391 188.608859 
L 209.764943 188.562275 
L 209.811495 188.320315 
L 209.858047 188.959367 
L 209.904599 188.606003 
L 210.044256 188.558451 
L 210.13736 189.725325 
L 210.230464 191.570214 
L 210.370121 190.998124 
L 210.416673 191.789549 
L 210.463225 191.355454 
L 210.695986 190.382728 
L 210.742538 191.042627 
L 210.882194 189.855194 
L 211.068403 189.956284 
L 211.161507 189.681828 
L 211.208059 189.820706 
L 211.394268 189.513909 
L 211.533924 188.340469 
L 211.720132 189.91254 
L 211.766685 189.258583 
L 211.813237 190.025249 
L 211.859789 189.544844 
L 212.045997 190.652529 
L 212.185654 193.69982 
L 212.32531 193.723741 
L 212.371862 192.970795 
L 212.418414 193.426489 
L 212.511519 193.379744 
L 212.697727 194.149882 
L 212.744279 194.029863 
L 212.790831 194.403601 
L 212.837384 193.793255 
L 212.97704 193.485449 
L 213.116696 194.702801 
L 213.163248 194.96834 
L 213.302905 194.28296 
L 213.349457 194.838656 
L 213.396009 193.535265 
L 213.442561 194.744842 
L 213.489113 194.706552 
L 213.721874 195.034115 
L 213.768426 194.874277 
L 214.001187 193.027854 
L 214.140843 193.303964 
L 214.2805 193.303569 
L 214.327052 192.881182 
L 214.373604 193.174604 
L 214.746021 194.814798 
L 214.792573 193.472294 
L 215.071886 194.802464 
L 215.118438 193.948424 
L 215.258094 194.034572 
L 215.304646 193.649855 
L 215.351198 194.544454 
L 215.397751 193.68153 
L 215.444303 192.766562 
L 215.583959 192.869486 
L 215.677063 192.349506 
L 215.770168 193.834873 
L 215.909824 193.259433 
L 215.956376 193.891322 
L 216.002928 193.564166 
L 216.04948 193.355393 
L 216.096033 194.053614 
L 216.235689 193.865435 
L 216.282241 193.024192 
L 216.328793 193.801535 
L 216.375345 193.673841 
L 216.561554 196.008263 
L 216.608106 195.874411 
L 216.747762 193.278319 
L 216.887419 193.510291 
L 216.980523 194.322589 
L 217.073627 193.595689 
L 217.213284 193.616196 
L 217.259836 193.47984 
L 217.306388 194.659104 
L 217.399492 194.023892 
L 217.539149 194.161372 
L 217.725357 192.509987 
L 217.865013 192.638917 
L 217.911566 193.029677 
L 218.051222 190.615766 
L 218.283983 190.667046 
L 218.330535 189.525164 
L 218.377087 189.750478 
L 218.516743 189.79735 
L 218.563295 189.648687 
L 218.6564 190.645372 
L 218.702952 189.934479 
L 218.842608 189.520589 
L 218.88916 189.013762 
L 218.982265 188.936455 
L 219.028817 191.173576 
L 219.168473 191.331296 
L 219.261577 192.206238 
L 219.354682 190.959716 
L 219.633994 192.692327 
L 219.680546 192.339405 
L 219.913307 191.432166 
L 219.959859 192.361984 
L 220.006411 191.784771 
L 220.285724 193.070592 
L 220.332276 196.280575 
L 220.471933 195.682538 
L 220.518485 196.43534 
L 220.565037 196.398204 
L 220.611589 195.677667 
L 220.658141 196.527821 
L 220.797798 195.600969 
L 220.84435 195.842068 
L 220.984006 191.946068 
L 221.123662 191.608184 
L 221.170215 191.824733 
L 221.309871 193.141793 
L 221.449527 192.754499 
L 221.496079 193.511433 
L 221.542632 192.303291 
L 221.589184 192.502375 
L 221.775392 191.306577 
L 221.821944 191.561923 
L 221.915049 193.173991 
L 221.961601 192.347131 
L 222.101257 192.779504 
L 222.194361 191.656599 
L 222.287466 191.824408 
L 222.473674 192.182547 
L 222.520226 192.818199 
L 222.566778 191.924412 
L 222.613331 191.99456 
L 222.752987 191.664743 
L 222.799539 191.740181 
L 222.892643 193.954741 
L 222.939195 193.808542 
L 223.078852 193.741619 
L 223.171956 195.255799 
L 223.218508 194.936743 
L 223.26506 193.675406 
L 223.404717 195.226526 
L 223.451269 194.622772 
L 223.497821 194.584986 
L 223.590925 192.352374 
L 223.730582 192.907137 
L 223.777134 194.168112 
L 223.823686 194.048581 
L 223.870238 193.392049 
L 223.91679 193.809053 
L 224.102999 194.874664 
L 224.149551 194.433003 
L 224.242655 194.557636 
L 224.382311 194.436571 
L 224.428864 194.727773 
L 224.56852 197.273604 
L 224.708176 197.562253 
L 224.754728 197.491803 
L 224.847833 196.062957 
L 224.894385 196.621471 
L 225.034041 196.909852 
L 225.173698 194.950463 
L 225.22025 195.315613 
L 225.685771 198.224126 
L 225.732323 198.120912 
L 225.825427 198.112259 
L 226.011636 198.428696 
L 226.058188 198.01229 
L 226.10474 198.552546 
L 226.151292 198.706665 
L 226.197844 198.326891 
L 226.337501 198.242017 
L 226.430605 198.261647 
L 226.477157 197.81154 
L 226.989231 201.180081 
L 227.082335 200.16598 
L 227.175439 200.225606 
L 227.361648 200.843472 
L 227.4082 201.321017 
L 227.454752 201.2878 
L 227.734065 199.576603 
L 227.780617 200.076749 
L 227.827169 199.845991 
L 227.966825 199.262323 
L 228.013377 199.512281 
L 228.106482 199.959122 
L 228.339242 206.879373 
L 228.385795 206.337257 
L 228.478899 203.052559 
L 228.618555 203.284627 
L 228.665107 204.905725 
L 228.758212 204.413692 
L 228.804764 205.245162 
L 228.990972 204.75557 
L 229.037524 206.002204 
L 229.084076 205.731988 
L 229.130629 205.164835 
L 229.316837 205.575143 
L 229.409941 203.455411 
L 229.456493 203.484314 
L 229.59615 203.635565 
L 229.642702 204.184949 
L 229.689254 204.131465 
L 229.735806 203.291627 
L 229.782358 203.575491 
L 229.922015 204.817794 
L 229.968567 204.454567 
L 230.061671 204.090956 
L 230.108223 202.507554 
L 230.24788 201.879893 
L 230.434088 199.839618 
L 230.573745 199.737959 
L 230.620297 200.053204 
L 230.759953 198.897925 
L 230.946162 199.112227 
L 230.992714 199.510378 
L 231.039266 198.727941 
L 231.085818 199.258191 
L 231.272026 199.361494 
L 231.318579 198.89055 
L 231.411683 199.969436 
L 231.551339 199.587901 
L 231.690996 201.384009 
L 231.737548 203.329503 
L 232.063413 205.872999 
L 232.203069 205.094079 
L 232.249621 205.808495 
L 232.296173 205.046107 
L 232.389278 204.294185 
L 232.528934 204.319615 
L 232.622038 203.899797 
L 232.715142 204.398762 
L 232.854799 204.47885 
L 232.901351 203.239743 
L 232.947903 204.947717 
L 232.994455 206.006961 
L 233.041007 204.153588 
L 233.506529 207.223447 
L 233.599633 205.882955 
L 233.646185 206.936879 
L 233.692737 206.985917 
L 233.925498 205.730149 
L 233.97205 205.334482 
L 234.158258 205.687678 
L 234.204811 205.305029 
L 234.297915 206.329317 
L 234.484123 206.517718 
L 234.530675 206.219351 
L 234.577228 206.358585 
L 234.809988 208.987156 
L 234.85654 208.670484 
L 234.996197 210.12894 
L 235.182405 210.290106 
L 235.228957 210.796729 
L 235.27551 210.293868 
L 235.322062 208.606536 
L 235.461718 209.218901 
L 235.647927 206.285959 
L 235.787583 206.549554 
L 235.834135 206.879114 
L 235.927239 205.401064 
L 235.973791 205.951927 
L 236.113448 205.987526 
L 236.16 206.947097 
L 236.206552 206.37902 
L 236.299656 204.865221 
L 236.485865 205.368676 
L 236.578969 203.052295 
L 236.625521 203.222533 
L 236.858282 202.58571 
L 236.904834 201.412268 
L 236.951386 202.199884 
L 237.091043 201.75062 
L 237.416907 198.436811 
L 237.46346 199.084734 
L 237.510012 198.757359 
L 237.556564 198.681113 
L 237.603116 198.327089 
L 237.789325 198.964236 
L 237.882429 196.435067 
L 237.928981 196.516502 
L 238.208294 198.126393 
L 238.394502 197.766894 
L 238.441054 196.146913 
L 238.534159 196.485471 
L 238.720367 197.357925 
L 239.139336 194.861678 
L 239.185888 195.647932 
L 239.23244 195.111583 
L 239.372097 194.96341 
L 239.418649 194.161663 
L 239.465201 194.788053 
L 239.558305 195.928577 
L 239.697962 195.945211 
L 239.88417 194.150808 
L 240.023827 194.225641 
L 240.070379 194.397691 
L 240.210035 193.238592 
L 240.349692 193.773493 
L 240.396244 192.7691 
L 240.489348 193.005376 
L 240.5359 193.092554 
L 240.675556 192.46319 
L 240.815213 194.944813 
L 240.861765 194.496992 
L 241.001421 194.706949 
L 241.18763 193.930472 
L 241.373838 194.009518 
L 241.466943 193.07517 
L 241.513495 191.732636 
L 241.653151 191.806416 
L 241.792808 189.849307 
L 241.83936 190.45419 
L 241.979016 190.468678 
L 242.025568 190.70537 
L 242.07212 190.381924 
L 242.118672 190.59448 
L 242.165225 190.128834 
L 242.304881 190.223559 
L 242.397985 190.938534 
L 242.444537 190.661596 
L 242.49109 190.670969 
L 242.630746 190.338297 
L 242.816954 185.542587 
L 243.003163 185.489243 
L 243.049715 185.151982 
L 243.096267 186.378776 
L 243.142819 184.689822 
L 243.329028 185.380321 
L 243.37558 184.854968 
L 243.468684 186.041243 
L 243.608341 185.987926 
L 243.654893 185.83111 
L 243.701445 186.34113 
L 243.747997 186.104013 
L 243.794549 185.81968 
L 243.980758 186.510162 
L 244.073862 186.207867 
L 244.120414 185.025564 
L 244.26007 185.735552 
L 244.306623 186.720407 
L 244.353175 186.447039 
L 244.399727 186.149376 
L 244.446279 186.52259 
L 244.585935 186.239188 
L 244.632487 185.731852 
L 244.67904 185.902249 
L 244.725592 186.116801 
L 244.772144 185.506016 
L 244.9118 185.31131 
L 244.958352 185.737882 
L 245.004904 185.190974 
L 245.051457 184.801292 
L 245.098009 185.511804 
L 245.237665 185.422443 
L 245.284217 185.164274 
L 245.423874 186.797576 
L 245.56353 185.919528 
L 245.703186 187.326721 
L 245.935947 185.466663 
L 245.982499 185.199282 
L 246.029051 185.846321 
L 246.075603 189.220721 
L 246.21526 188.270702 
L 246.308364 190.468553 
L 246.354916 190.264178 
L 246.587677 189.760727 
L 246.680781 186.768241 
L 246.727333 187.260151 
L 246.86699 187.08944 
L 246.913542 187.427288 
L 246.960094 186.691829 
L 247.006646 187.111768 
L 247.192854 188.006937 
L 247.332511 190.727486 
L 247.379063 191.024107 
L 247.518719 190.496844 
L 247.565272 191.537066 
L 247.611824 191.335741 
L 247.658376 190.902822 
L 247.704928 191.688716 
L 247.844584 191.516395 
L 247.937689 190.238215 
L 247.984241 190.68666 
L 248.030793 190.571767 
L 248.217001 190.627248 
L 248.356658 192.641685 
L 248.496314 192.54339 
L 248.63597 194.180605 
L 248.682523 193.887194 
L 248.822179 193.328085 
L 248.868731 193.39445 
L 249.008388 197.424314 
L 249.148044 197.274794 
L 249.194596 196.158882 
L 249.241148 196.325384 
L 249.334252 197.060205 
L 249.520461 195.514757 
L 249.660117 196.336428 
L 249.799774 195.800365 
L 249.846326 196.052941 
L 249.93943 196.860462 
L 249.985982 196.134774 
L 250.172191 195.656346 
L 250.218743 194.417994 
L 250.311847 194.756728 
L 250.498056 194.003726 
L 250.59116 196.204612 
L 250.637712 195.642405 
L 250.777368 194.953516 
L 250.823921 195.053633 
L 250.917025 195.680713 
L 250.963577 195.355399 
L 251.149785 194.839486 
L 251.196338 194.977841 
L 251.24289 194.178559 
L 251.289442 194.218561 
L 251.47565 193.77556 
L 251.568755 191.703803 
L 251.615307 192.106268 
L 251.801515 192.592652 
L 251.894619 191.796489 
L 251.941172 191.826893 
L 252.12738 191.067385 
L 252.220484 192.49062 
L 252.267037 191.901737 
L 252.453245 191.357453 
L 252.732558 192.841335 
L 252.918766 191.278695 
L 253.058423 191.04507 
L 253.104975 191.121488 
L 253.244631 189.637597 
L 253.43084 189.956417 
L 253.849809 188.250299 
L 253.896361 187.649681 
L 254.08257 187.875338 
L 254.129122 187.73312 
L 254.175674 189.043486 
L 254.222226 188.945606 
L 254.361882 189.496012 
L 254.687747 192.725823 
L 254.734299 193.013731 
L 254.873956 190.900871 
L 255.013612 190.782951 
L 255.060164 191.141608 
L 255.106716 190.869941 
L 255.153269 190.904138 
L 255.199821 190.747528 
L 255.339477 190.782793 
L 255.711894 189.223637 
L 255.758446 189.243463 
L 256.084311 187.483936 
L 256.130863 187.530881 
L 256.363624 186.748048 
L 256.50328 188.009431 
L 257.015354 189.251162 
L 257.108458 191.224691 
L 257.15501 190.515849 
L 257.294666 190.951414 
L 257.341219 191.478804 
L 257.387771 190.842068 
L 257.434323 190.855226 
L 258.0395 187.956714 
L 258.086053 188.345751 
L 258.132605 188.054262 
L 258.318813 188.366983 
L 258.365365 188.330365 
L 258.45847 186.959544 
L 258.598126 187.428915 
L 258.644678 187.047142 
L 258.69123 187.449427 
L 258.784335 187.919405 
L 258.923991 187.826727 
L 258.970543 187.410909 
L 259.063647 187.571185 
L 259.110199 187.449694 
L 259.249856 187.502395 
L 259.34296 188.074114 
L 259.389512 187.866693 
L 259.436064 187.487048 
L 259.575721 187.287871 
L 259.715377 188.428571 
L 259.761929 188.062187 
L 259.901586 188.071217 
L 259.99469 188.634022 
L 260.087794 190.143106 
L 260.227451 190.163407 
L 260.274003 189.911495 
L 260.413659 188.192897 
L 260.553315 187.848276 
L 260.739524 186.603447 
L 260.925732 186.906652 
L 261.065389 185.840973 
L 261.251597 185.489712 
L 261.344702 185.574366 
L 261.391254 185.827975 
L 261.53091 185.786999 
L 261.577462 186.072839 
L 261.624014 185.518488 
L 261.670567 186.189408 
L 261.856775 185.821454 
L 261.996431 186.337421 
L 262.042984 186.324935 
L 262.229192 185.968162 
L 262.368848 185.286216 
L 262.601609 184.81403 
L 262.648161 183.337237 
L 262.694713 183.38887 
L 262.927474 182.652036 
L 262.974026 181.800866 
L 263.020578 182.219222 
L 263.160235 182.312485 
L 263.253339 182.781699 
L 263.346443 182.19683 
L 263.625756 183.493854 
L 263.672308 183.430798 
L 263.811964 182.526573 
L 263.905069 183.824724 
L 263.998173 183.638955 
L 264.137829 183.968072 
L 264.184381 183.871423 
L 264.277486 183.236312 
L 264.324038 183.715349 
L 264.463694 183.373719 
L 264.649903 181.328987 
L 264.836111 181.63457 
L 264.975768 182.342229 
L 265.161976 182.740146 
L 265.25508 183.670163 
L 265.301633 182.621311 
L 265.487841 182.37273 
L 265.860258 179.751889 
L 265.90681 179.831783 
L 265.953362 180.584886 
L 266.093019 180.350051 
L 266.186123 180.88236 
L 266.232675 180.534864 
L 266.279227 179.903385 
L 266.418884 180.437909 
L 266.605092 179.099585 
L 266.744749 179.278988 
L 266.791301 178.888231 
L 266.837853 179.531775 
L 266.884405 179.514817 
L 266.930957 178.730624 
L 267.117166 179.864135 
L 267.21027 180.591376 
L 267.256822 179.982442 
L 267.44303 179.814866 
L 267.722343 178.159659 
L 267.815448 179.822066 
L 267.862 179.551951 
L 268.187865 177.07084 
L 268.420625 176.526067 
L 268.467177 176.012918 
L 268.560282 176.165868 
L 268.699938 175.910541 
L 268.793042 176.754164 
L 268.886146 175.464546 
L 269.072355 175.53317 
L 269.118907 175.1212 
L 269.165459 175.965801 
L 269.212011 175.666494 
L 269.351668 174.840569 
L 269.537876 172.95897 
L 269.724085 175.473821 
L 269.817189 175.13915 
L 270.003398 179.018067 
L 270.143054 183.375905 
L 270.189606 183.187499 
L 270.375815 181.628801 
L 270.515471 179.571011 
L 270.701679 180.765559 
L 270.748232 182.142669 
L 270.794784 181.16131 
L 270.841336 179.808842 
L 270.980992 179.209001 
L 271.120649 181.419907 
L 271.167201 181.451543 
L 271.493066 179.888846 
L 271.679274 179.679333 
L 271.725826 179.408525 
L 271.818931 179.520148 
L 272.005139 180.410416 
L 272.051691 179.306289 
L 272.098243 180.135881 
L 272.144795 180.300969 
L 272.424108 178.816842 
L 272.656869 179.611368 
L 272.703421 179.177186 
L 272.749973 179.430677 
L 272.796525 179.788496 
L 272.936182 179.075999 
L 273.029286 177.470507 
L 273.075838 178.295389 
L 273.12239 177.805015 
L 273.262047 177.546525 
L 273.355151 176.574564 
L 273.448255 178.761881 
L 273.587911 179.005524 
L 273.681016 179.936736 
L 273.77412 178.128689 
L 274.006881 179.167659 
L 274.053433 178.647317 
L 274.099985 177.635996 
L 274.332746 177.194367 
L 274.379298 176.044973 
L 274.42585 176.219889 
L 274.565506 176.630683 
L 274.705163 178.724326 
L 275.031027 176.645854 
L 275.07758 177.06849 
L 275.263788 176.641802 
L 275.31034 175.595144 
L 275.356892 176.233949 
L 275.543101 176.753338 
L 275.729309 175.754121 
L 275.868966 175.806479 
L 275.915518 175.689688 
L 276.008622 175.668109 
L 276.055174 177.078418 
L 276.194831 177.002316 
L 276.334487 177.445467 
L 276.381039 176.42312 
L 276.520696 177.344672 
L 276.567248 177.018827 
L 276.6138 176.98034 
L 276.706904 176.172247 
L 276.84656 177.047403 
L 277.032769 174.923747 
L 277.218978 174.856089 
L 277.26553 176.41268 
L 277.358634 175.846726 
L 277.824155 178.150471 
L 277.870707 177.902122 
L 277.917259 176.931542 
L 277.963812 177.291038 
L 278.010364 177.840788 
L 278.15002 178.040801 
L 278.196572 177.22413 
L 278.243124 177.965143 
L 278.289676 177.884831 
L 278.336229 177.075905 
L 278.522437 177.089332 
L 278.568989 177.467331 
L 278.662093 177.428396 
L 278.894854 179.019539 
L 279.127615 176.865852 
L 279.174167 176.922273 
L 279.267271 177.036133 
L 279.45348 175.599096 
L 279.500032 175.771184 
L 279.546584 175.068164 
L 279.593136 175.510535 
L 279.639688 175.52343 
L 279.965553 177.250017 
L 280.151762 176.819812 
L 280.244866 176.214826 
L 280.291418 176.832336 
L 280.431074 176.833054 
L 280.524179 177.210823 
L 280.570731 176.351385 
L 280.617283 176.541562 
L 280.850044 177.389172 
L 280.896596 177.301997 
L 280.943148 176.614785 
L 281.082804 176.565493 
L 281.129356 175.977391 
L 281.269013 178.439371 
L 281.408669 178.594347 
L 281.455221 178.090416 
L 281.548325 180.790451 
L 281.594878 180.569471 
L 281.734534 180.229672 
L 281.781086 178.883515 
L 281.827638 179.563138 
L 281.87419 180.352889 
L 281.920742 180.017329 
L 282.153503 181.262262 
L 282.200055 180.615155 
L 282.246607 181.034788 
L 282.386264 181.427694 
L 282.432816 181.280966 
L 282.572472 182.308361 
L 282.805233 180.936267 
L 282.851785 181.33379 
L 283.084546 183.307759 
L 283.224202 181.634205 
L 283.363858 181.807955 
L 283.410411 183.351026 
L 283.456963 183.050822 
L 283.550067 183.878918 
L 283.689723 183.587398 
L 283.736276 183.655068 
L 284.015588 180.720494 
L 284.06214 180.743574 
L 284.155245 180.188745 
L 284.201797 180.270502 
L 284.434557 181.235971 
L 284.48111 180.992229 
L 284.667318 182.957023 
L 284.71387 182.848568 
L 284.760422 182.95604 
L 284.993183 185.45052 
L 285.179392 183.054508 
L 285.644913 180.954192 
L 285.738017 179.440094 
L 285.831121 179.48959 
L 285.970778 179.92848 
L 286.110434 178.806477 
L 286.156986 178.948964 
L 286.389747 179.107344 
L 286.762164 175.235824 
L 286.808716 175.481858 
L 286.948372 175.633811 
L 286.994925 175.198777 
L 287.041477 175.647552 
L 287.134581 175.027338 
L 287.274237 175.507 
L 287.413894 174.531549 
L 287.460446 173.371519 
L 287.646654 172.50885 
L 287.693206 172.709167 
L 287.739759 173.657958 
L 287.786311 172.861394 
L 288.065623 174.561377 
L 288.112176 175.920244 
L 288.298384 175.251581 
L 288.344936 175.514615 
L 288.391488 175.498563 
L 288.670801 172.689793 
L 288.717353 173.485441 
L 288.763905 172.940809 
L 288.903562 172.808526 
L 288.950114 172.919703 
L 289.043218 171.172813 
L 289.08977 171.385011 
L 289.275979 170.533446 
L 289.322531 170.761833 
L 289.369083 170.852606 
L 289.415635 170.678077 
L 289.555292 170.739592 
L 289.7415 169.573446 
L 289.881157 169.480725 
L 289.927709 169.596926 
L 289.974261 168.777332 
L 290.020813 169.749119 
L 290.067365 169.565366 
L 290.207021 169.843668 
L 290.300126 171.659489 
L 290.346678 171.035218 
L 290.532886 171.145125 
L 290.625991 170.029643 
L 290.672543 170.304566 
L 290.719095 170.015449 
L 290.858751 170.611865 
L 290.905303 169.937003 
L 290.951855 170.250876 
L 290.998408 171.08426 
L 291.04496 170.122862 
L 291.184616 170.045173 
L 291.27772 171.344976 
L 291.324272 171.228511 
L 291.370825 170.679368 
L 291.510481 170.96977 
L 291.650137 169.341502 
L 291.69669 169.993097 
L 291.836346 170.643971 
L 291.882898 170.327542 
L 291.92945 170.587272 
L 291.976002 170.695519 
L 292.022554 170.188928 
L 292.208763 170.453676 
L 292.255315 170.939516 
L 292.301867 170.4997 
L 292.348419 170.361454 
L 292.58118 169.02151 
L 292.674284 166.981251 
L 292.907045 167.883572 
L 293.000149 166.706615 
L 293.139806 166.417781 
L 293.279462 162.575286 
L 293.326014 163.310654 
L 293.46567 162.484964 
L 293.558775 164.135873 
L 293.605327 163.311059 
L 293.651879 163.286634 
L 293.791535 163.740524 
L 293.88464 161.212729 
L 294.1174 162.603723 
L 294.210504 160.885684 
L 294.303609 161.646496 
L 294.443265 161.687706 
L 294.489817 162.628093 
L 294.536369 162.249763 
L 294.582922 161.872523 
L 294.629474 163.051866 
L 294.76913 162.940361 
L 294.862234 162.101113 
L 294.908786 163.018265 
L 294.955339 162.424572 
L 295.094995 162.017528 
L 295.141547 161.482611 
L 295.188099 162.221223 
L 295.281203 161.595437 
L 295.42086 162.695286 
L 295.560516 158.99924 
L 295.607068 159.183363 
L 295.746725 158.582005 
L 295.839829 158.645742 
L 295.932933 157.214804 
L 296.07259 157.329868 
L 296.165694 157.022142 
L 296.258798 157.814026 
L 296.398455 157.288238 
L 296.538111 155.071994 
L 296.584663 155.557436 
L 296.770872 155.123916 
L 296.817424 153.232114 
L 296.863976 154.858351 
L 296.910528 154.718394 
L 297.050184 155.331772 
L 297.236393 158.17841 
L 297.422601 154.890247 
L 297.469153 155.260869 
L 297.701914 153.597746 
L 297.748466 153.731333 
L 297.888123 154.959307 
L 298.027779 155.434135 
L 298.120883 156.848059 
L 298.213988 154.336769 
L 298.4933 155.743544 
L 298.679509 155.516705 
L 298.726061 155.856552 
L 298.772613 155.534471 
L 298.865717 154.886968 
L 299.005374 154.832496 
L 299.051926 154.67426 
L 299.14503 153.667025 
L 299.191582 153.924543 
L 299.331239 154.782321 
L 299.377791 154.669179 
L 299.517447 152.445371 
L 299.657104 153.049549 
L 299.843312 156.397187 
L 300.029521 156.643617 
L 300.169177 154.386111 
L 300.355385 154.293018 
L 300.401938 153.775075 
L 300.495042 154.687871 
L 300.634698 154.253691 
L 300.68125 153.112374 
L 300.727802 153.150361 
L 300.960563 155.383065 
L 301.10022 153.724858 
L 301.146772 153.621609 
L 301.379532 153.60132 
L 301.426084 154.188162 
L 301.472637 153.48022 
L 301.98471 150.980246 
L 302.124366 149.778147 
L 302.310575 150.188698 
L 302.589888 147.500208 
L 302.63644 148.141256 
L 302.729544 148.897297 
L 302.776096 148.222024 
L 302.962305 148.046619 
L 303.101961 146.681614 
L 303.28817 146.220554 
L 303.427826 146.918176 
L 303.567482 147.718089 
L 303.614034 147.539662 
L 303.660587 147.304966 
L 303.707139 147.401882 
L 303.753691 148.477331 
L 303.939899 149.052455 
L 304.079556 147.481141 
L 304.265764 146.579212 
L 304.405421 144.100753 
L 304.638181 143.009278 
L 304.731286 141.689224 
L 304.870942 143.5116 
L 305.05715 153.745434 
L 305.336463 146.891086 
L 305.383015 147.11332 
L 305.941641 181.899692 
L 306.034745 179.861866 
L 306.174402 177.33507 
L 306.314058 166.341678 
L 306.36061 167.176011 
L 306.500266 166.9083 
L 306.593371 172.081929 
L 306.686475 166.929983 
L 306.965788 159.121204 
L 307.151996 159.592832 
L 307.198548 158.730308 
L 307.338205 160.234048 
L 307.477861 162.168894 
L 307.524413 166.610047 
L 307.570965 164.478973 
L 307.66407 162.907954 
L 307.803726 164.314393 
L 307.850278 164.13334 
L 307.89683 162.28896 
L 307.943382 163.176576 
L 307.989935 163.892605 
L 308.129591 163.415883 
L 308.176143 161.789117 
L 308.222695 164.42945 
L 308.269247 162.139508 
L 308.315799 161.419882 
L 308.54856 164.366397 
L 308.641664 161.690541 
L 308.874425 158.249621 
L 308.967529 158.631512 
L 309.153738 158.654975 
L 309.479603 155.570256 
L 309.572707 156.2897 
L 309.85202 152.354717 
L 309.898572 156.416 
L 309.945124 155.450823 
L 310.457197 152.557568 
L 310.50375 154.479357 
L 310.596854 154.398511 
L 311.155479 149.260983 
L 311.202031 149.303567 
L 311.248584 148.95463 
L 311.38824 149.775156 
L 311.481344 148.020608 
L 311.527896 148.825858 
L 311.574448 148.12437 
L 311.714105 147.735854 
L 311.900313 144.035086 
L 312.086522 141.587042 
L 312.226178 140.085343 
L 312.365835 140.066304 
L 312.505491 135.90453 
L 312.552043 137.102639 
L 312.6917 137.178032 
L 312.738252 141.694577 
L 312.831356 141.155462 
L 312.877908 141.541232 
L 313.064117 139.077182 
L 313.110669 141.222238 
L 313.157221 140.190766 
L 313.203773 140.243278 
L 313.436534 139.084432 
L 313.483086 140.157161 
L 313.529638 138.879478 
L 313.669294 138.975223 
L 313.762399 137.360838 
L 313.855503 141.512305 
L 314.041711 143.934137 
L 314.088263 142.211183 
L 314.134816 143.534018 
L 314.321024 141.835731 
L 314.414128 140.505696 
L 314.46068 141.025656 
L 314.739993 147.1306 
L 314.786545 146.303016 
L 314.972754 143.631717 
L 315.019306 144.325737 
L 315.065858 144.259987 
L 315.11241 143.666557 
L 315.158962 144.35383 
L 315.298619 143.496117 
L 315.345171 144.155866 
L 315.391723 143.745727 
L 315.484827 141.04083 
L 315.624484 140.76253 
L 315.671036 141.543115 
L 315.717588 141.531907 
L 315.76414 141.203296 
L 315.950349 143.227449 
L 315.996901 142.96697 
L 316.043453 143.334746 
L 316.090005 144.048996 
L 316.136557 143.708049 
L 316.276213 144.793616 
L 316.322766 144.531058 
L 316.462422 149.404792 
L 316.64863 145.731255 
L 316.741735 141.316215 
L 316.788287 142.65126 
L 316.927943 143.363375 
L 317.114152 140.428979 
L 317.30036 139.162304 
L 317.346912 140.209351 
L 317.393465 139.76113 
L 317.440017 139.285862 
L 317.579673 139.815348 
L 317.672777 139.386665 
L 317.765882 139.333013 
L 317.905538 140.296705 
L 318.091746 138.610828 
L 318.277955 137.747786 
L 318.324507 139.049198 
L 318.371059 138.134748 
L 318.417611 138.027131 
L 318.557268 138.612115 
L 318.696924 135.060588 
L 318.883133 136.678101 
L 318.929685 136.929357 
L 318.976237 136.711327 
L 319.022789 135.749851 
L 319.208998 135.525836 
L 319.25555 135.717664 
L 319.348654 133.735895 
L 319.534862 134.838781 
L 319.581415 133.459295 
L 319.627967 134.900688 
L 319.674519 134.792698 
L 319.860727 136.44058 
L 319.953832 134.662173 
L 320.000384 134.733043 
L 320.046936 135.439551 
L 320.233144 134.588785 
L 320.279697 132.58568 
L 320.326249 133.196259 
L 320.372801 133.915428 
L 320.559009 132.220739 
L 320.698666 135.606663 
L 320.884874 133.011155 
L 320.931426 133.262499 
L 320.977978 133.348228 
L 321.257291 130.288055 
L 321.303843 130.810625 
L 321.350395 130.80376 
L 321.67626 133.252441 
L 321.909021 131.05833 
L 322.002125 135.362708 
L 322.141782 135.141693 
L 322.234886 137.12522 
L 322.281438 138.051076 
L 322.32799 135.895265 
L 322.467647 137.127641 
L 322.607303 132.647543 
L 322.653855 133.078077 
L 322.793511 131.82868 
L 322.840064 132.401214 
L 322.886616 132.232852 
L 322.933168 135.879516 
L 322.97972 135.321936 
L 323.119376 134.358116 
L 323.165929 135.651589 
L 323.259033 135.313509 
L 323.305585 133.021791 
L 323.491793 135.228895 
L 323.538346 134.829698 
L 323.584898 131.921905 
L 323.771106 131.806015 
L 323.910763 130.017613 
L 323.957315 130.349607 
L 324.096971 130.482111 
L 324.28318 126.126976 
L 324.422836 126.475228 
L 324.748701 124.266232 
L 324.795253 124.588771 
L 324.841805 124.418343 
L 324.888357 123.790276 
L 324.934909 124.101956 
L 325.074566 123.298976 
L 325.121118 123.441569 
L 325.16767 123.886671 
L 325.260774 121.109632 
L 325.446983 123.096562 
L 325.493535 126.134244 
L 325.540087 125.729417 
L 325.586639 123.489552 
L 325.726296 122.674628 
L 325.8194 124.319534 
L 325.865952 123.133354 
L 326.47113 117.452764 
L 326.517682 119.171416 
L 326.564234 117.146007 
L 326.70389 116.782758 
L 326.843547 114.460426 
L 326.890099 115.060912 
L 327.029755 115.588757 
L 327.215964 119.716874 
L 327.35562 117.973312 
L 327.448724 118.163355 
L 327.541829 117.662852 
L 327.681485 117.246736 
L 327.728037 117.536607 
L 328.100454 114.142672 
L 328.147006 114.365541 
L 328.193558 113.122454 
L 328.333215 112.622488 
L 328.379767 113.425373 
L 328.426319 112.428978 
L 328.472871 112.266062 
L 328.65908 115.090997 
L 328.845288 111.791469 
L 328.984945 111.63917 
L 329.124601 110.034936 
L 329.171153 110.566775 
L 329.31081 110.809105 
L 329.357362 110.492007 
L 329.636674 114.794871 
L 329.683227 114.784272 
L 329.822883 111.842737 
L 329.962539 111.513608 
L 330.055644 113.679516 
L 330.148748 113.410796 
L 330.334956 111.341919 
L 330.428061 112.02484 
L 330.474613 109.609472 
L 330.707373 108.43251 
L 330.800478 107.477077 
L 331.126343 111.407021 
L 331.359103 108.953247 
L 331.591864 112.759476 
L 331.638416 112.64152 
L 331.684968 111.037213 
L 331.73152 111.578123 
L 331.778072 112.333356 
L 331.917729 112.630296 
L 332.057385 115.66105 
L 332.103937 113.55568 
L 332.290146 113.581194 
L 332.38325 112.895261 
L 332.429802 113.648866 
L 332.569459 113.960768 
L 332.709115 108.409146 
L 332.755667 108.87737 
L 332.941876 108.67385 
L 333.081532 106.363331 
L 333.360845 104.17627 
L 333.407397 105.035291 
L 333.593605 103.992827 
L 333.640157 105.207732 
L 333.68671 104.68422 
L 333.733262 102.454886 
L 333.872918 102.131683 
L 333.91947 101.17853 
L 333.966022 102.633048 
L 334.012574 102.174828 
L 334.059127 101.957014 
L 334.198783 102.108077 
L 334.245335 102.675262 
L 334.291887 102.356068 
L 334.338439 102.02249 
L 334.524648 104.692553 
L 334.5712 104.385008 
L 334.617752 103.109829 
L 334.710856 107.338842 
L 334.850513 106.701537 
L 334.943617 110.677367 
L 335.036721 107.908437 
L 335.176378 106.572482 
L 335.269482 104.606858 
L 335.316034 106.2688 
L 335.362586 105.122916 
L 335.502243 104.532059 
L 335.548795 106.389117 
L 335.595347 104.974221 
L 335.641899 104.440419 
L 335.688451 104.988841 
L 335.828108 106.836921 
L 335.967764 102.385745 
L 336.153972 100.214368 
L 336.200525 100.641697 
L 336.247077 100.703897 
L 336.340181 99.605484 
L 336.666046 104.660853 
L 336.805702 104.837418 
L 336.898806 101.891312 
L 336.945359 102.869112 
L 337.178119 105.23071 
L 337.224671 104.838996 
L 337.317776 106.594921 
L 337.457432 106.540012 
L 337.503984 106.779406 
L 337.597088 109.553698 
L 337.783297 105.284964 
L 337.829849 104.9522 
L 337.876401 103.499455 
L 337.922953 105.261044 
L 337.969505 105.526413 
L 338.109162 105.294838 
L 338.155714 105.724221 
L 338.202266 103.445221 
L 338.248818 106.414686 
L 338.29537 104.679102 
L 338.435027 105.178164 
L 338.481579 106.055015 
L 338.528131 105.030988 
L 338.807444 104.350626 
L 338.853996 105.929855 
L 338.900548 104.397715 
L 339.226413 95.744499 
L 339.272965 92.467676 
L 339.412621 93.259885 
L 339.459174 91.175292 
L 339.59883 97.241136 
L 339.785038 101.611257 
L 339.924695 95.647303 
L 340.064351 95.69772 
L 340.110903 96.295063 
L 340.25056 93.708022 
L 340.390216 94.796226 
L 340.48332 91.372284 
L 340.529873 93.448654 
L 340.576425 92.481646 
L 340.716081 91.839992 
L 340.855737 95.791106 
L 340.90229 95.748974 
L 341.041946 98.07136 
L 341.088498 97.025701 
L 341.13505 95.029751 
L 341.181602 96.879669 
L 341.367811 96.761387 
L 341.414363 96.942586 
L 341.460915 94.63999 
L 341.507467 96.342422 
L 341.554019 99.989835 
L 341.693676 100.772517 
L 341.78678 103.197331 
L 341.833332 100.401508 
L 341.879884 105.265207 
L 342.019541 107.857782 
L 342.066093 107.146355 
L 342.112645 103.440457 
L 342.159197 107.988234 
L 342.391958 115.387917 
L 342.485062 114.407203 
L 342.67127 112.422347 
L 342.717823 112.462617 
L 342.764375 114.551507 
L 342.810927 113.372201 
L 343.183344 106.031029 
L 343.416104 108.872332 
L 343.462657 106.118537 
L 343.509209 107.835136 
L 343.648865 109.110393 
L 343.695417 106.958752 
L 343.741969 108.575186 
L 344.021282 121.281186 
L 344.067834 118.226445 
L 344.160939 120.292799 
L 344.347147 120.023383 
L 344.486803 116.68933 
L 344.62646 117.210022 
L 344.766116 119.336072 
L 344.812668 117.508214 
L 345.045429 123.059691 
L 345.138533 121.919767 
L 345.27819 121.971075 
L 345.417846 125.099508 
L 345.464398 123.280294 
L 345.604055 123.577947 
L 345.790263 119.418561 
L 345.929919 119.467816 
L 345.976472 119.893519 
L 346.116128 113.693018 
L 346.255784 113.375538 
L 346.302336 115.845301 
L 346.348889 114.468336 
L 346.395441 113.790842 
L 346.441993 115.74619 
L 346.767858 110.290531 
L 347.000618 113.050411 
L 347.047171 112.857639 
L 347.233379 117.112805 
L 347.279931 116.948149 
L 347.373035 114.717207 
L 347.419588 117.548986 
L 347.559244 117.915159 
L 347.6989 124.275165 
L 347.745452 124.18868 
L 347.931661 125.663811 
L 348.071317 121.646848 
L 348.210974 120.408155 
L 348.397182 128.593811 
L 348.536839 128.040422 
L 348.862704 139.146559 
L 348.909256 140.278239 
L 348.955808 135.357127 
L 349.00236 137.59463 
L 349.048912 138.691046 
L 349.235121 130.69861 
L 349.328225 133.289324 
L 349.514433 138.302676 
L 349.607538 138.663277 
L 349.65409 137.31955 
L 349.700642 140.813005 
L 349.88685 138.202083 
L 349.979955 142.040236 
L 350.026507 140.558681 
L 350.166163 140.68775 
L 350.30582 135.659561 
L 350.352372 135.312947 
L 350.492028 136.600481 
L 350.53858 135.364406 
L 350.631684 138.46705 
L 350.678237 135.186938 
L 350.817893 135.734699 
L 350.864445 134.276438 
L 350.910997 136.448901 
L 351.004101 127.025119 
L 351.143758 128.893996 
L 351.19031 126.696119 
L 351.236862 126.792592 
L 351.329966 129.278426 
L 351.469623 129.445787 
L 351.562727 126.911014 
L 351.655831 127.225752 
L 351.795488 129.357923 
L 351.84204 128.624691 
L 351.935144 122.534276 
L 351.981696 122.808845 
L 352.167905 127.997481 
L 352.214457 126.740621 
L 352.261009 126.39426 
L 352.307561 127.620291 
L 352.447217 126.507719 
L 352.49377 123.289143 
L 352.540322 123.294633 
L 352.633426 127.854737 
L 352.773082 129.54734 
L 352.819634 129.365483 
L 352.866187 127.614599 
L 352.912739 129.310748 
L 352.959291 128.529501 
L 353.145499 128.792357 
L 353.192052 130.7511 
L 353.238604 128.578442 
L 353.285156 128.695163 
L 353.471364 128.726277 
L 353.517916 127.665438 
L 353.564469 129.759509 
L 353.611021 125.863706 
L 353.750677 125.073101 
L 353.797229 125.195079 
L 353.936886 118.638695 
L 354.123094 118.898215 
L 354.169646 119.773697 
L 354.216198 119.222906 
L 354.448959 117.207168 
L 354.542063 116.443024 
L 354.588615 116.629634 
L 354.728272 118.568136 
L 354.821376 114.941183 
L 354.867928 115.08248 
L 354.91448 119.291352 
L 355.054137 119.795096 
L 355.100689 118.716928 
L 355.147241 118.883426 
L 355.193793 120.820074 
L 355.240345 120.314075 
L 355.380002 119.476407 
L 355.426554 119.733805 
L 355.798971 126.43084 
L 355.845523 125.241883 
L 355.892075 127.205226 
L 356.171388 126.228821 
L 356.21794 122.820721 
L 356.357596 123.574664 
L 356.497253 128.010702 
L 356.683461 125.459766 
L 356.776565 126.237154 
L 357.009326 124.351164 
L 357.10243 125.569619 
L 357.148982 125.253793 
L 357.195535 124.201086 
L 357.335191 124.523791 
L 357.428295 123.137273 
L 357.707608 116.674324 
L 357.800712 116.381364 
L 357.986921 117.303266 
L 358.126577 115.36425 
L 358.173129 117.251053 
L 358.312786 117.328935 
L 358.359338 116.952371 
L 358.498994 119.118167 
L 358.638651 118.285636 
L 358.731755 121.430961 
L 358.778307 119.957343 
L 358.824859 117.801532 
L 359.05762 121.115807 
L 359.104172 120.987308 
L 359.150724 119.421386 
L 359.336933 119.718565 
L 359.383485 118.981818 
L 359.476589 120.838076 
L 359.616245 120.484849 
L 359.662797 122.941431 
L 359.755902 122.42315 
L 359.94211 122.463045 
L 360.081767 125.31318 
L 360.128319 123.29586 
L 360.361079 123.325703 
L 360.454184 120.597102 
L 360.59384 120.780389 
L 360.733496 119.321757 
L 360.780048 119.833055 
L 360.919705 119.981684 
L 361.012809 119.052649 
L 361.059361 116.49532 
L 361.105913 116.502603 
L 361.292122 117.778441 
L 361.338674 117.719595 
L 361.431778 120.490269 
L 361.664539 119.303391 
L 361.711091 119.476309 
L 361.757643 117.480176 
L 361.8973 117.292142 
L 361.990404 117.491023 
L 362.036956 119.012701 
L 362.083508 118.731715 
L 362.223164 118.336417 
L 362.362821 112.966704 
L 362.409373 113.748696 
L 362.549029 114.127292 
L 362.642134 111.333863 
L 362.688686 112.47589 
L 362.967999 110.75741 
L 363.014551 113.55907 
L 363.061103 112.211457 
L 363.200759 111.367716 
L 363.340416 116.490625 
L 363.386968 116.080756 
L 363.526624 115.519325 
L 363.899041 119.547991 
L 363.992145 122.060712 
L 364.038697 121.415246 
L 364.178354 121.868451 
L 364.224906 121.619733 
L 364.271458 119.000297 
L 364.364562 119.065501 
L 364.504219 118.260726 
L 364.643875 115.495478 
L 364.690427 115.346615 
L 364.923188 117.312648 
L 364.96974 117.12208 
L 365.155949 116.470216 
L 365.249053 117.069793 
L 365.295605 115.673158 
L 365.342157 116.361402 
L 365.481813 116.119441 
L 365.574918 117.350439 
L 365.62147 120.916862 
L 365.668022 120.70192 
L 365.807678 121.854532 
L 365.993887 125.147954 
L 366.2732 130.329433 
L 366.319752 129.579989 
L 366.552512 124.35577 
L 366.599065 126.194599 
L 366.645617 123.032208 
L 366.785273 122.950946 
L 366.878377 124.102535 
L 367.111138 126.784946 
L 367.15769 126.027163 
L 367.204242 127.806076 
L 367.297347 127.279751 
L 367.437003 127.509342 
L 367.483555 127.179106 
L 367.623211 120.95221 
L 367.762868 122.113183 
L 367.902524 125.133329 
L 367.949076 124.081189 
L 368.088733 123.51876 
L 368.135285 119.419092 
L 368.228389 120.208977 
L 368.46115 117.537605 
L 368.600806 118.020993 
L 368.740462 117.37575 
L 368.926671 112.914777 
L 369.159432 115.382137 
L 369.205984 114.750238 
L 369.252536 115.178336 
L 369.438744 115.974014 
L 369.531849 108.091095 
L 369.578401 108.996669 
L 369.718057 108.421295 
L 369.764609 106.812807 
L 369.811161 108.612839 
L 369.857714 107.359907 
L 369.904266 107.180316 
L 370.137026 104.600115 
L 370.183578 105.491687 
L 370.230131 106.758659 
L 370.416339 107.584513 
L 370.555996 109.501258 
L 370.695652 108.83366 
L 370.742204 108.961554 
L 370.788756 109.152588 
L 370.88186 107.94704 
L 371.114621 111.549379 
L 371.161173 110.669236 
L 371.207725 109.204979 
L 371.393934 108.540625 
L 371.440486 109.313728 
L 371.53359 107.484658 
L 371.719799 105.915948 
L 371.766351 107.433119 
L 371.812903 105.154408 
L 371.859455 106.904322 
L 371.999112 108.780224 
L 372.18532 105.921001 
L 372.324976 105.980516 
L 372.371529 109.07714 
L 372.418081 108.554257 
L 372.464633 106.441927 
L 372.511185 106.89406 
L 372.697393 107.093084 
L 372.743946 106.95059 
L 372.83705 105.010408 
L 372.976706 105.478716 
L 373.023258 105.347856 
L 373.116363 103.794691 
L 373.162915 100.955428 
L 373.395675 98.940497 
L 373.48878 97.748917 
L 373.628436 97.640631 
L 373.72154 97.555399 
L 373.814645 99.429355 
L 374.000853 98.14784 
L 374.093957 96.628573 
L 374.140509 97.419509 
L 374.280166 97.489175 
L 374.326718 97.795163 
L 374.419822 93.995736 
L 374.606031 94.666839 
L 374.652583 94.480369 
L 374.792239 92.906524 
L 374.931896 92.221871 
L 374.978448 91.190279 
L 375.118104 95.108559 
L 375.304313 96.991433 
L 375.397417 98.630804 
L 375.443969 98.239578 
L 375.583625 98.640419 
L 375.630178 97.397168 
L 375.67673 98.027042 
L 375.723282 98.07527 
L 375.90949 96.523731 
L 376.002595 100.631378 
L 376.049147 99.435633 
L 376.235355 96.305703 
L 376.281907 95.814329 
L 376.328459 96.595168 
L 376.375012 94.260818 
L 376.421564 94.546629 
L 376.56122 94.485098 
L 376.607772 93.653359 
L 376.747429 89.863864 
L 376.933637 89.638962 
L 377.026741 94.209 
L 377.073294 93.295371 
L 377.259502 92.744824 
L 377.306054 95.213997 
L 377.352606 95.160237 
L 377.399158 94.053006 
L 377.585367 93.677744 
L 377.678471 90.710634 
L 377.725023 94.26884 
L 377.911232 92.395042 
L 378.050888 89.117617 
L 378.190545 89.048726 
L 378.237097 87.771835 
L 378.330201 87.825816 
L 378.376753 88.873444 
L 378.51641 87.976323 
L 378.609514 90.010381 
L 378.656066 88.412147 
L 378.702618 89.537523 
L 378.842274 89.888195 
L 379.028483 85.774657 
L 379.214691 86.961029 
L 379.354348 82.671733 
L 379.494004 82.954204 
L 379.540556 80.751162 
L 379.587108 81.427897 
L 379.680213 85.744074 
L 379.819869 84.466911 
L 379.866421 84.914712 
L 379.959526 88.418406 
L 380.006078 86.724609 
L 380.145734 86.732522 
L 380.192286 86.206852 
L 380.238838 82.770621 
L 380.331943 84.06455 
L 380.564703 88.435615 
L 380.657807 84.573917 
L 381.169881 79.055315 
L 381.216433 79.101994 
L 381.262985 80.313777 
L 381.309537 76.737542 
L 381.449194 76.106661 
L 381.495746 76.22937 
L 381.635402 77.848629 
L 381.821611 79.385438 
L 381.868163 79.156855 
L 381.914715 78.597882 
L 381.961267 80.582792 
L 382.194028 77.093885 
L 382.287132 73.363354 
L 382.426788 72.187905 
L 382.519893 74.485894 
L 382.612997 71.87623 
L 382.752653 71.156524 
L 382.799205 69.545698 
L 382.845757 71.089457 
L 382.89231 71.511617 
L 382.938862 71.252401 
L 383.078518 71.40418 
L 383.12507 70.539691 
L 383.171622 70.830328 
L 383.497487 73.940887 
L 383.544039 73.598205 
L 383.590592 72.261226 
L 383.730248 72.108581 
L 383.7768 71.775404 
L 383.823352 70.445639 
L 383.916456 70.481987 
L 384.056113 72.461658 
L 384.102665 71.157056 
L 384.195769 71.311367 
L 384.381978 72.660518 
L 384.475082 71.37423 
L 384.568186 75.761107 
L 384.754395 71.653495 
L 384.800947 74.863363 
L 384.847499 71.907385 
L 384.894051 71.166262 
L 385.219916 78.593043 
L 385.731989 70.863785 
L 385.871646 69.148861 
L 386.057854 70.440647 
L 386.104406 69.844772 
L 386.150959 70.372535 
L 386.197511 70.579827 
L 386.337167 70.275909 
L 386.383719 70.738826 
L 386.430271 69.819625 
L 386.523376 72.670657 
L 386.663032 72.654679 
L 386.709584 73.426378 
L 386.802688 81.186206 
L 386.849241 77.997629 
L 386.988897 78.746634 
L 387.128553 76.872976 
L 387.175105 78.569333 
L 387.314762 78.593341 
L 387.50097 76.646829 
L 387.640627 77.17222 
L 387.687179 78.382652 
L 387.733731 78.036826 
L 387.826835 78.171616 
L 388.013044 77.153331 
L 388.1527 72.186974 
L 388.338909 69.741143 
L 388.385461 70.394078 
L 388.432013 70.514157 
L 388.478565 69.787095 
L 388.618221 70.604196 
L 388.664774 69.967106 
L 388.711326 71.160421 
L 388.757878 69.216611 
L 388.80443 70.042187 
L 388.944086 69.426186 
L 389.037191 66.311307 
L 389.130295 67.242251 
L 389.269951 65.303511 
L 389.316503 65.446673 
L 389.363056 67.401666 
L 389.409608 64.491676 
L 389.45616 65.485173 
L 389.735473 63.456307 
L 389.782025 65.279522 
L 389.921681 64.919748 
L 389.968233 65.015652 
L 390.014785 65.035813 
L 390.061337 66.988146 
L 390.10789 65.617031 
L 390.247546 65.961231 
L 390.387202 69.701119 
L 390.433754 68.699608 
L 390.713067 71.515824 
L 390.899276 67.326844 
L 390.945828 67.615552 
L 391.038932 65.974777 
L 391.085484 67.56578 
L 391.225141 66.529819 
L 391.271693 66.617107 
L 391.318245 67.506736 
L 391.364797 66.974068 
L 391.411349 66.991551 
L 391.64411 62.113816 
L 391.87687 81.662757 
L 391.923423 85.350331 
L 391.969975 73.833803 
L 392.063079 73.964973 
L 392.249287 72.085338 
L 392.342392 69.206148 
L 392.5286 70.77568 
L 392.714809 66.407045 
L 392.854465 65.032231 
L 392.901017 65.332016 
L 392.994122 68.162032 
L 393.040674 67.549524 
L 393.18033 67.149365 
L 393.226882 65.28339 
L 393.273434 66.149366 
L 393.319986 67.141676 
L 393.366539 65.846063 
L 393.506195 66.138264 
L 393.552747 65.951666 
L 393.599299 68.398242 
L 393.645851 66.16046 
L 393.878612 64.853456 
L 393.971716 68.859625 
L 394.018268 67.464563 
L 394.204477 65.860299 
L 394.251029 66.801498 
L 394.297581 65.39716 
L 394.344133 65.885063 
L 394.576894 62.47331 
L 394.623446 62.563846 
L 394.669998 62.853186 
L 394.809655 62.284135 
L 394.995863 57.618982 
L 395.135519 58.724215 
L 395.228624 57.013397 
L 395.321728 57.149944 
L 395.461384 57.585528 
L 395.647593 59.951068 
L 395.880354 55.880779 
L 395.926906 56.456715 
L 396.159666 58.555947 
L 396.252771 56.882623 
L 396.299323 56.96539 
L 396.438979 57.318391 
L 396.485531 59.215423 
L 396.532083 57.995672 
L 396.764844 55.359597 
L 396.811396 53.562436 
L 396.857948 54.062298 
L 397.090709 55.927131 
L 397.137261 53.162267 
L 397.183813 55.17209 
L 397.230365 56.336169 
L 397.276917 56.018168 
L 397.416574 54.421592 
L 397.463126 54.544587 
L 397.509678 55.163799 
L 397.602782 55.11004 
L 397.742439 56.059165 
L 397.788991 55.880059 
L 397.835543 54.540535 
L 397.882095 55.594253 
L 398.068304 56.557068 
L 398.161408 54.846417 
L 398.20796 55.362658 
L 398.254512 52.154182 
L 398.487273 52.852617 
L 398.487273 52.852617 
" clip-path="url(#pbb346d6851)" style="fill: none; stroke: #1f77b4; stroke-width: 1.5; stroke-linecap: square"/>
   </g>
   <g id="patch_3">
    <path d="M 57.6 276.48 
L 57.6 41.472 
" style="fill: none; stroke: #000000; stroke-width: 0.8; stroke-linejoin: miter; stroke-linecap: square"/>
   </g>
   <g id="patch_4">
    <path d="M 414.72 276.48 
L 414.72 41.472 
" style="fill: none; stroke: #000000; stroke-width: 0.8; stroke-linejoin: miter; stroke-linecap: square"/>
   </g>
   <g id="patch_5">
    <path d="M 57.6 276.48 
L 414.72 276.48 
" style="fill: none; stroke: #000000; stroke-width: 0.8; stroke-linejoin: miter; stroke-linecap: square"/>
   </g>
   <g id="patch_6">
    <path d="M 57.6 41.472 
L 414.72 41.472 
" style="fill: none; stroke: #000000; stroke-width: 0.8; stroke-linejoin: miter; stroke-linecap: square"/>
   </g>
  </g>
 </g>
 <defs>
  <clipPath id="pbb346d6851">
   <rect x="57.6" y="41.472" width="357.12" height="235.008"/>
  </clipPath>
 </defs>
</svg>
