<svg version="1.1" xmlns="http://www.w3.org/2000/svg" xmlns:xlink="http://www.w3.org/1999/xlink" width="800" height="400"><defs><clipPath id="tEBRQwFrKZxw"><path fill="none" stroke="none" d="M 87.5 30.5 L 795.5 30.5 L 795.5 372.5 L 87.5 372.5 L 87.5 30.5"/></clipPath><clipPath id="qtXQlUypANuH"><path fill="none" stroke="none" d="M 87.5 30.5 L 795.5 30.5 L 795.5 372.5 L 87.5 372.5 L 87.5 30.5"/></clipPath><clipPath id="sSlLZEotGRRM"><path fill="none" stroke="none" d="M 87.5 30.5 L 795.5 30.5 L 795.5 372.5 L 87.5 372.5 L 87.5 30.5"/></clipPath><clipPath id="CApgglqqMKVD"><path fill="none" stroke="none" d="M 87.5 30.5 L 795.5 30.5 L 795.5 372.5 L 87.5 372.5 L 87.5 30.5"/></clipPath></defs><path fill="none" stroke="rgb(240,240,240)" paint-order="fill" d="M 87.5 357.5 L 795.5 357.5 M 87.5 311.5 L 795.5 311.5 M 87.5 265.5 L 795.5 265.5 M 87.5 219.5 L 795.5 219.5 M 87.5 173.5 L 795.5 173.5 M 87.5 127.5 L 795.5 127.5 M 87.5 82.5 L 795.5 82.5 M 87.5 36.5 L 795.5 36.5" stroke-opacity="1" stroke-linejoin="bevel" stroke-miterlimit="10" stroke-dasharray="" clip-path="url(#qtXQlUypANuH)"/><path fill="none" stroke="none"/><path fill="none" stroke="rgb(96,131,169)" paint-order="fill" d="M 119.68181610107422 356.83245849609375 L 120.13453674316406 356.8223571777344 L 120.54344940185547 356.8177795410156 L 120.99617004394531 356.8104248046875 L 121.43428039550781 356.83795166015625 L 121.88700103759766 356.8544921875 L 122.32511901855469 356.8544921875 L 122.77783966064453 356.8471374511719 L 123.23056030273438 356.8599853515625 L 123.6686782836914 356.8407287597656 L 124.12139129638672 356.7975769042969 L 124.55950927734375 356.76177978515625 L 125.0122299194336 356.743408203125 L 125.46495056152344 356.7268981933594 L 125.87385559082031 356.7030334472656 L 126.32657623291016 356.64520263671875 L 126.76469421386719 356.6828308105469 L 127.21741485595703 356.6121520996094 L 127.65553283691406 356.6644592285156 L 128.1082534790039 356.65435791015625 L 128.56097412109375 356.6580505371094 L 128.99908447265625 356.6662902832031 L 129.45181274414062 356.65069580078125 L 129.88992309570312 356.6626281738281 L 130.34263610839844 356.64703369140625 L 130.7953643798828 356.6405944824219 L 131.2042694091797 356.6396789550781 L 131.65699768066406 356.6139831542969 L 132.09510803222656 356.6158142089844 L 132.54782104492188 356.6203918457031 L 132.98594665527344 356.60296630859375 L 133.43865966796875 356.58184814453125 L 133.89138793945312 356.58001708984375 L 134.32949829101562 356.605712890625 L 134.7822265625 356.6360168457031 L 135.2203369140625 356.6534423828125 L 135.6730499267578 356.6158142089844 L 136.1257781982422 356.6203918457031 L 136.53468322753906 356.65069580078125 L 136.98741149902344 356.6809997558594 L 137.42552185058594 356.69476318359375 L 137.87823486328125 356.7333068847656 L 138.3163604736328 356.76361083984375 L 138.76907348632812 356.7838134765625 L 139.2218017578125 356.7984924316406 L 139.659912109375 356.8177795410156 L 140.1126251220703 356.81591796875 L 140.55075073242188 356.789306640625 L 141.0034637451172 356.7792053222656 L 141.45619201660156 356.7957458496094 L 141.87969970703125 356.7975769042969 L 142.33242797851562 356.78289794921875 L 142.77053833007812 356.7957458496094 L 143.22325134277344 356.7948303222656 L 143.661376953125 356.77001953125 L 144.1140899658203 356.7489318847656 L 144.5668182373047 356.720458984375 L 145.0049285888672 356.6809997558594 L 145.4576416015625 356.6424255371094 L 145.89576721191406 356.6351013183594 L 146.34848022460938 356.6185607910156 L 146.80120849609375 356.5845947265625 L 147.21011352539062 356.5616455078125 L 147.66282653808594 356.5717468261719 L 148.1009521484375 356.6121520996094 L 148.5536651611328 356.60296630859375 L 148.99179077148438 356.57818603515625 L 149.4445037841797 356.5478820800781 L 149.89723205566406 356.5451354980469 L 150.33534240722656 356.533203125 L 150.78805541992188 356.53778076171875 L 151.22618103027344 356.51666259765625 L 151.67889404296875 356.48638916015625 L 152.13162231445312 356.4927978515625 L 152.54052734375 356.51483154296875 L 152.9932403564453 356.5267639160156 L 153.43136596679688 356.5497131347656 L 153.8840789794922 356.5386962890625 L 154.32220458984375 356.56072998046875 L 154.77491760253906 356.4992370605469 L 155.22763061523438 356.4717102050781 L 155.66575622558594 356.4992370605469 L 156.11846923828125 356.4808654785156 L 156.5565948486328 356.4891357421875 L 157.00930786132812 356.51483154296875 L 157.4620361328125 356.5423889160156 L 157.87094116210938 356.62591552734375 L 158.3236541748047 356.62225341796875 L 158.76177978515625 356.64886474609375 L 159.21449279785156 356.6727294921875 L 159.65260314941406 356.64520263671875 L 160.10533142089844 356.7012023925781 L 160.55804443359375 356.7085266113281 L 160.9961700439453 356.78289794921875 L 161.44888305664062 356.8186950683594 L 161.8870086669922 356.789306640625 L 162.3397216796875 356.76361083984375 L 162.79244995117188 356.78656005859375 L 163.21595764160156 356.76177978515625 L 163.66867065429688 356.7278137207031 L 164.10679626464844 356.6920166015625 L 164.55950927734375 356.69110107421875 L 164.99761962890625 356.6653747558594 L 165.45034790039062 356.6341857910156 L 165.90306091308594 356.6424255371094 L 166.3411865234375 356.6332702636719 L 166.7938995361328 356.58184814453125 L 167.23202514648438 356.5635070800781 L 167.6847381591797 356.56072998046875 L 168.13746643066406 356.5845947265625 L 168.54637145996094 356.5735778808594 L 168.99908447265625 356.536865234375 L 169.4372100830078 356.5084228515625 L 169.88992309570312 356.4927978515625 L 170.32803344726562 356.4799499511719 L 170.78076171875 356.4579162597656 L 171.2334747314453 356.4570007324219 L 171.67160034179688 356.4533386230469 L 172.1243133544922 356.4579162597656 L 172.56243896484375 356.4468994140625 L 173.01515197753906 356.46710205078125 L 173.46786499023438 356.5001525878906 L 173.8767852783203 356.4781188964844 L 174.32949829101562 356.5001525878906 L 174.76760864257812 356.51483154296875 L 175.2203369140625 356.55706787109375 L 175.658447265625 356.59930419921875 L 176.11117553710938 356.58001708984375 L 176.5638885498047 356.5744934082031 L 177.00201416015625 356.536865234375 L 177.45472717285156 356.53778076171875 L 177.89283752441406 356.5616455078125 L 178.34556579589844 356.5414733886719 L 178.79827880859375 356.5267639160156 L 179.2071990966797 356.536865234375 L 179.659912109375 356.5405578613281 L 180.0980224609375 356.5221862792969 L 180.55075073242188 356.5047302246094 L 180.98886108398438 356.5084228515625 L 181.44158935546875 356.5506286621094 L 181.89430236816406 356.5965270996094 L 182.33242797851562 356.5919494628906 L 182.78514099121094 356.559814453125 L 183.22325134277344 356.55615234375 L 183.6759796142578 356.55523681640625 L 184.12869262695312 356.56256103515625 L 184.55221557617188 356.5386962890625 L 185.0049285888672 356.5120849609375 L 185.4430389404297 356.51300048828125 L 185.89576721191406 356.51300048828125 L 186.33387756347656 356.5120849609375 L 186.78660583496094 356.49188232421875 L 187.23931884765625 356.4873046875 L 187.6774444580078 356.4891357421875 L 188.13015747070312 356.4992370605469 L 188.56826782226562 356.5313720703125 L 189.02099609375 356.5386962890625 L 189.4737091064453 356.5690002441406 L 189.8826141357422 356.5845947265625 L 190.33534240722656 356.58551025390625 L 190.77345275878906 356.6075439453125 L 191.22618103027344 356.64703369140625 L 191.66429138183594 356.6369323730469 L 192.1170196533203 356.6167297363281 L 192.56973266601562 356.6094055175781 L 193.00784301757812 356.6341857910156 L 193.4605712890625 356.6534423828125 L 193.898681640625 356.65435791015625 L 194.35140991210938 356.62408447265625 L 194.8041229248047 356.6139831542969 L 195.21302795410156 356.628662109375 L 195.66575622558594 356.64703369140625 L 196.10386657714844 356.6424255371094 L 196.5565948486328 356.6461181640625 L 196.9947052001953 356.6874084472656 L 197.4474334716797 356.6874084472656 L 197.900146484375 356.6874084472656 L 198.3382568359375 356.6874084472656 L 198.79098510742188 356.6874084472656 L 199.22909545898438 356.71771240234375 L 199.68182373046875 356.7057800292969 L 200.13453674316406 356.7149658203125 L 200.54344177246094 356.697509765625 L 200.9961700439453 356.64520263671875 L 201.4342803955078 356.6626281738281 L 201.8870086669922 356.65435791015625 L 202.3251190185547 356.6571350097656 L 202.77783203125 356.62591552734375 L 203.23056030273438 356.5974426269531 L 203.66867065429688 356.55340576171875 L 204.12139892578125 356.5240173339844 L 204.55950927734375 356.5221862792969 L 205.01223754882812 356.53594970703125 L 205.46495056152344 356.5478820800781 L 205.88845825195312 356.5506286621094 L 206.3411865234375 356.559814453125 L 206.779296875 356.5414733886719 L 207.23202514648438 356.533203125 L 207.67013549804688 356.5451354980469 L 208.1228485107422 356.5386962890625 L 208.57557678222656 356.5038146972656 L 209.01368713378906 356.4762878417969 L 209.46641540527344 356.4551696777344 L 209.90452575683594 356.4927978515625 L 210.3572540283203 356.513916015625 L 210.80996704101562 356.5635070800781 L 211.2188720703125 356.53778076171875 L 211.67160034179688 356.5506286621094 L 212.10971069335938 356.5791015625 L 212.56243896484375 356.56256103515625 L 213.00054931640625 356.58551025390625 L 213.45326232910156 356.6094055175781 L 213.90599060058594 356.64703369140625 L 214.34410095214844 356.6874084472656 L 214.7968292236328 356.74615478515625 L 215.2349395751953 356.7681884765625 L 215.68765258789062 356.7305603027344 L 216.140380859375 356.7103576660156 L 216.54928588867188 356.72412109375 L 217.00201416015625 356.7305603027344 L 217.44012451171875 356.7094421386719 L 217.89283752441406 356.7085266113281 L 218.33096313476562 356.7030334472656 L 218.78367614746094 356.69659423828125 L 219.2364044189453 356.70025634765625 L 219.6745147705078 356.6708984375 L 220.1272430419922 356.65252685546875 L 220.5653533935547 356.667236328125 L 221.01806640625 356.67181396484375 L 221.47079467773438 356.6690673828125 L 221.87969970703125 356.64703369140625 L 222.33242797851562 356.62225341796875 L 222.77053833007812 356.5690002441406 L 223.22325134277344 356.5469665527344 L 223.661376953125 356.5194396972656 L 224.1140899658203 356.57818603515625 L 224.5668182373047 356.5653381347656 L 225.0049285888672 356.5231018066406 L 225.4576416015625 356.5487976074219 L 225.89576721191406 356.5735778808594 L 226.34848022460938 356.58184814453125 L 226.80120849609375 356.64886474609375 L 227.22471618652344 356.5965270996094 L 227.6774444580078 356.60296630859375 L 228.1155548095703 356.65252685546875 L 228.56826782226562 356.6653747558594 L 229.0063934326172 356.6662902832031 L 229.4591064453125 356.69476318359375 L 229.91183471679688 356.66998291015625 L 230.34994506835938 356.6690673828125 L 230.8026580810547 356.7057800292969 L 231.24078369140625 356.76727294921875 L 231.69349670410156 356.73974609375 L 232.14622497558594 356.74432373046875 L 232.5551300048828 356.7608642578125 L 233.00784301757812 356.7580871582031 L 233.4459686279297 356.73883056640625 L 233.898681640625 356.7911376953125 L 234.33680725097656 356.79296875 L 234.78952026367188 356.8003234863281 L 235.24224853515625 356.78564453125 L 235.68035888671875 356.7773742675781 L 236.13307189941406 356.74432373046875 L 236.57119750976562 356.72137451171875 L 237.02391052246094 356.7222900390625 L 237.4766387939453 356.7076110839844 L 237.8855438232422 356.6819152832031 L 238.3382568359375 356.6387634277344 L 238.77638244628906 356.6094055175781 L 239.22909545898438 356.6167297363281 L 239.66722106933594 356.6112365722656 L 240.11993408203125 356.58184814453125 L 240.57264709472656 356.56072998046875 L 241.01077270507812 356.5423889160156 L 241.46348571777344 356.5845947265625 L 241.901611328125 356.5864562988281 L 242.3543243408203 356.575439453125 L 242.8070526123047 356.5405578613281 L 243.21595764160156 356.5267639160156 L 243.66867065429688 356.55706787109375 L 244.10679626464844 356.5965270996094 L 244.55950927734375 356.6268310546875 L 244.99761962890625 356.65252685546875 L 245.45034790039062 356.64886474609375 L 245.90306091308594 356.644287109375 L 246.3411865234375 356.6553039550781 L 246.7938995361328 356.6332702636719 L 247.23202514648438 356.6075439453125 L 247.6847381591797 356.58184814453125 L 248.13746643066406 356.57818603515625 L 248.56097412109375 356.5937805175781 L 249.01368713378906 356.6121520996094 L 249.45181274414062 356.6148986816406 L 249.90452575683594 356.6002197265625 L 250.34263610839844 356.5635070800781 L 250.7953643798828 356.5350341796875 L 251.24807739257812 356.5433044433594 L 251.6862030029297 356.5543212890625 L 252.138916015625 356.50750732421875 L 252.57704162597656 356.4597473144531 L 253.02975463867188 356.42120361328125 L 253.48248291015625 356.4129333496094 L 253.89138793945312 356.43865966796875 L 254.34410095214844 356.4487609863281 L 254.7822265625 356.41845703125 L 255.2349395751953 356.4010009765625 L 255.6730499267578 356.37347412109375 L 256.1257781982422 356.3597106933594 L 256.5784912109375 356.3358459472656 L 257.0166015625 356.30096435546875 L 257.4693298339844 356.2669982910156 L 257.9074401855469 356.2486267089844 L 258.36016845703125 356.231201171875 L 258.8128967285156 356.2293395996094 L 259.2218017578125 356.30828857421875 L 259.6745300292969 356.3385925292969 L 260.1126403808594 356.33123779296875 L 260.5653381347656 356.28076171875 L 261.00347900390625 356.23394775390625 L 261.4561767578125 356.18804931640625 L 261.9089050292969 356.169677734375 L 262.3470153808594 356.1972351074219 L 262.79974365234375 356.1816101074219 L 263.23785400390625 356.1540832519531 L 263.6905822753906 356.162353515625 L 264.143310546875 356.13848876953125 L 264.5522155761719 356.11920166015625 L 265.00494384765625 356.0879821777344 L 265.44305419921875 356.0429992675781 L 265.895751953125 356.02557373046875 L 266.3338928222656 355.9952697753906 L 266.7865905761719 355.9209289550781 L 267.23931884765625 355.8373718261719 L 267.67742919921875 355.8612365722656 L 268.1301574707031 355.82635498046875 L 268.5682678222656 355.7896423339844 L 269.02099609375 355.7832336425781 L 269.4737243652344 355.802490234375 L 269.897216796875 355.7171325683594 L 270.3499450683594 355.611572265625 L 270.7880554199219 355.5564880371094 L 271.24078369140625 355.6464538574219 L 271.67889404296875 355.63360595703125 L 272.1316223144531 355.5766906738281 L 272.5843505859375 355.4490966796875 L 273.0224609375 355.40960693359375 L 273.47515869140625 355.27557373046875 L 273.9132995605469 355.267333984375 L 274.3659973144531 355.1103515625 L 274.8187255859375 355.0984191894531 L 275.2276306152344 355.05804443359375 L 275.68035888671875 355.0718078613281 L 276.11846923828125 355.03692626953125 L 276.5711975097656 354.991943359375 L 277.0093078613281 354.7780456542969 L 277.4620361328125 354.62933349609375 L 277.9147644042969 354.5191955566406 L 278.3528747558594 354.8230285644531 L 278.8055725097656 355.50323486328125 L 279.24371337890625 355.427978515625 L 279.6964111328125 355.3995056152344 L 280.1491394042969 355.274658203125 L 280.55804443359375 355.1947937011719 L 281.0107727050781 355.0552673339844 L 281.4488830566406 355.1947937011719 L 281.901611328125 355.4169616699219 L 282.3397216796875 355.45916748046875 L 282.7924499511719 355.4839782714844 L 283.2451477050781 355.4848937988281 L 283.68328857421875 355.7474365234375 L 284.135986328125 355.86676025390625 L 284.5741271972656 355.9686584472656 L 285.0268249511719 355.9255065917969 L 285.47955322265625 355.8135070800781 L 285.8884582519531 355.7832336425781 L 286.3411865234375 355.9365234375 L 286.779296875 356.07696533203125 L 287.2320251464844 356.11920166015625 L 287.6701354980469 356.07696533203125 L 288.12286376953125 356.116455078125 L 288.5755615234375 356.30645751953125 L 289.0137023925781 356.4515075683594 L 289.4664001464844 356.43865966796875 L 289.904541015625 356.6176452636719 L 290.35723876953125 356.6304931640625 L 290.8099670410156 356.6369323730469 L 291.2334899902344 356.6341857910156 L 291.6861877441406 356.81591796875 L 292.12432861328125 356.8866271972656 L 292.5770263671875 356.9545593261719 L 293.01513671875 356.9325256347656 L 293.4678649902344 356.7012023925781 L 293.92059326171875 356.6341857910156 L 294.35870361328125 356.73883056640625 L 294.8114318847656 356.7452392578125 L 295.2495422363281 356.766357421875 L 295.7022705078125 356.7415771484375 L 296.1549987792969 356.8186950683594 L 296.56390380859375 356.8205261230469 L 297.0166015625 356.75994873046875 L 297.4547424316406 356.57818603515625 L 297.9074401855469 356.43865966796875 L 298.3455505371094 356.3615417480469 L 298.79827880859375 356.4129333496094 L 299.2510070800781 356.42120361328125 L 299.6891174316406 356.5157470703125 L 300.141845703125 356.4946594238281 L 300.5799560546875 356.4772033691406 L 301.0326843261719 356.42486572265625 L 301.4853820800781 356.353271484375 L 301.8943176269531 356.4065246582031 L 302.3470153808594 356.3899841308594 L 302.7851257324219 356.49188232421875 L 303.23785400390625 356.4799499511719 L 303.67596435546875 356.5231018066406 L 304.1286926269531 356.55706787109375 L 304.5814208984375 356.5772705078125 L 305.01953125 356.5708312988281 L 305.4722595214844 356.5478820800781 L 305.9103698730469 356.5423889160156 L 306.36309814453125 356.5423889160156 L 306.8157958984375 356.5680847167969 L 307.2247314453125 356.6203918457031 L 307.67742919921875 356.56256103515625 L 308.11553955078125 356.4974060058594 L 308.5682678222656 356.46343994140625 L 309.0063781738281 356.414794921875 L 309.4591064453125 356.34869384765625 L 309.9118347167969 356.32666015625 L 310.3499450683594 356.2981872558594 L 310.80267333984375 356.19537353515625 L 311.24078369140625 356.19537353515625 L 311.6935119628906 356.1293029785156 L 312.1462097167969 356.0567626953125 L 312.5697326660156 356.0283203125 L 313.0224609375 356.0264892578125 L 313.4605712890625 356.0989990234375 L 313.9132995605469 356.0439147949219 L 314.3514099121094 355.96405029296875 L 314.80413818359375 355.93560791015625 L 315.2568359375 355.9190673828125 L 315.6949768066406 355.84197998046875 L 316.1476745605469 355.798828125 L 316.5857849121094 355.82635498046875 L 317.03851318359375 355.7777099609375 L 317.4912414550781 355.72998046875 L 317.900146484375 355.7318115234375 L 318.3528747558594 355.8309631347656 L 318.7909851074219 355.9007263183594 L 319.24371337890625 355.95672607421875 L 319.68182373046875 355.871337890625 L 320.1345520019531 355.8557434082031 L 320.5872497558594 356.07330322265625 L 321.0253601074219 356.2651672363281 L 321.47808837890625 356.3642883300781 L 321.91619873046875 356.3808288574219 L 322.3689270019531 356.35418701171875 L 322.8216552734375 356.37896728515625 L 323.2305603027344 356.44598388671875 L 323.68328857421875 356.48455810546875 L 324.12139892578125 356.4762878417969 L 324.5741271972656 356.4551696777344 L 325.0122375488281 356.2688293457031 L 325.4649658203125 356.26239013671875 L 325.91766357421875 356.3138122558594 L 326.35577392578125 356.19354248046875 L 326.8085021972656 356.192626953125 L 327.2466125488281 356.2275085449219 L 327.6993408203125 356.2449645996094 L 328.1520690917969 356.254150390625 L 328.56097412109375 356.25506591796875 L 329.0137023925781 356.39825439453125 L 329.4518127441406 356.3615417480469 L 329.904541015625 356.3431701660156 L 330.3426513671875 356.3174743652344 L 330.79534912109375 356.33306884765625 L 331.2480773925781 356.2201843261719 L 331.6861877441406 356.208251953125 L 332.138916015625 356.2293395996094 L 332.5770263671875 356.25689697265625 L 333.0297546386719 356.2633056640625 L 333.48248291015625 356.2706604003906 L 333.9059753417969 356.277099609375 L 334.35870361328125 356.2660827636719 L 334.79681396484375 356.42120361328125 L 335.2495422363281 356.5047302246094 L 335.6876525878906 356.4753723144531 L 336.140380859375 356.4560852050781 L 336.5931091308594 356.4166259765625 L 337.0312194824219 356.4074401855469 L 337.48394775390625 356.3844909667969 L 337.92205810546875 356.4258117675781 L 338.3747863769531 356.4239501953125 L 338.8274841308594 356.48455810546875 L 339.23638916015625 356.4790344238281 L 339.6891174316406 356.50750732421875 L 340.1272277832031 356.5267639160156 L 340.5799560546875 356.4964904785156 L 341.01806640625 356.4505920410156 L 341.4707946777344 356.4551696777344 L 341.92352294921875 356.4524230957031 L 342.36163330078125 356.49005126953125 L 342.8143615722656 356.53228759765625 L 343.2524719238281 356.5882873535156 L 343.7051696777344 356.5726623535156 L 344.15789794921875 356.598388671875 L 344.5668029785156 356.6415100097656 L 345.01953125 356.6727294921875 L 345.4576416015625 356.6644592285156 L 345.9103698730469 356.62774658203125 L 346.3484802246094 356.59930419921875 L 346.80120849609375 356.6038818359375 L 347.2539367675781 356.5956115722656 L 347.6920471191406 356.536865234375 L 348.144775390625 356.5231018066406 L 348.5828857421875 356.5185241699219 L 349.03558349609375 356.4661865234375 L 349.4883117675781 356.4111022949219 L 349.897216796875 356.376220703125 L 350.3499450683594 356.3422546386719 L 350.7880554199219 356.30096435546875 L 351.24078369140625 356.28167724609375 L 351.67889404296875 356.25872802734375 L 352.1316223144531 356.3147277832031 L 352.5843505859375 356.2917785644531 L 353.0224609375 356.3018798828125 L 353.47515869140625 356.35235595703125 L 353.9132995605469 356.3385925292969 L 354.3659973144531 356.30462646484375 L 354.8187255859375 356.3119812011719 L 355.24224853515625 356.28167724609375 L 355.6949768066406 356.30096435546875 L 356.1330871582031 356.28167724609375 L 356.5857849121094 356.2293395996094 L 357.02392578125 356.1990661621094 L 357.47662353515625 356.21649169921875 L 357.9293518066406 356.23577880859375 L 358.3674621582031 356.20733642578125 L 358.8201904296875 356.215576171875 L 359.25830078125 356.18988037109375 L 359.7110290527344 356.1540832519531 L 360.16375732421875 356.1127624511719 L 360.5726623535156 356.1136779785156 L 361.0253601074219 356.0815734863281 L 361.4635009765625 356.031982421875 L 361.91619873046875 356.0072021484375 L 362.3543395996094 356.0356750488281 L 362.8070373535156 356.03106689453125 L 363.259765625 355.9383544921875 L 363.6978759765625 355.8777770996094 L 364.1506042480469 355.8282165527344 L 364.5887145996094 355.80157470703125 L 365.04144287109375 355.7382507324219 L 365.4941711425781 355.733642578125 L 365.903076171875 355.7832336425781 L 366.35577392578125 355.67950439453125 L 366.7939147949219 355.6758117675781 L 367.2466125488281 355.68682861328125 L 367.68475341796875 355.7354736328125 L 368.137451171875 355.7676086425781 L 368.5901794433594 356.0072021484375 L 369.0282897949219 356.0384216308594 L 369.48101806640625 356.0439147949219 L 369.91912841796875 356.0035400390625 L 370.3718566894531 355.9961853027344 L 370.8245849609375 355.9420166015625 L 371.2334899902344 356.00079345703125 L 371.6861877441406 356.05218505859375 L 372.12432861328125 356.0760498046875 L 372.5770263671875 356.0301513671875 L 373.01513671875 355.9447937011719 L 373.4678649902344 355.9732360839844 L 373.92059326171875 356.00994873046875 L 374.35870361328125 355.9741516113281 L 374.8114318847656 355.9906921386719 L 375.2495422363281 356.0127258300781 L 375.7022705078125 356.03106689453125 L 376.1549987792969 356.09808349609375 L 376.5784912109375 356.0797119140625 L 377.0312194824219 355.978759765625 L 377.4693298339844 355.909912109375 L 377.92205810546875 355.848388671875 L 378.36016845703125 355.8851318359375 L 378.8128967285156 355.9291687011719 L 379.2655944824219 355.9457092285156 L 379.7037353515625 355.9062194824219 L 380.15643310546875 355.9888610839844 L 380.5945739746094 355.9980163574219 L 381.0472717285156 355.982421875 L 381.5 356.0365905761719 L 381.9089050292969 356.02374267578125 L 382.36163330078125 356.02557373046875 L 382.79974365234375 356.0356750488281 L 383.2524719238281 356.1100158691406 L 383.6905822753906 356.0375061035156 L 384.143310546875 355.9888610839844 L 384.59600830078125 355.9704895019531 L 385.0341491699219 355.93377685546875 L 385.4868469238281 355.91357421875 L 385.92498779296875 355.8741149902344 L 386.377685546875 355.8428955078125 L 386.8304138183594 355.8125915527344 L 387.23931884765625 355.79974365234375 L 387.6920471191406 355.7547607421875 L 388.1301574707031 355.6996765136719 L 388.5828857421875 355.6721496582031 L 389.02099609375 355.7969970703125 L 389.4737243652344 355.7005920410156 L 389.9264221191406 355.64093017578125 L 390.36456298828125 355.56842041015625 L 390.8172607421875 355.57208251953125 L 391.25537109375 355.5794372558594 L 391.7080993652344 355.4454040527344 L 392.16082763671875 355.3728942871094 L 392.5697326660156 355.4068603515625 L 393.0224609375 355.3802490234375 L 393.4605712890625 355.37933349609375 L 393.9132995605469 355.4142150878906 L 394.3514099121094 355.37933349609375 L 394.80413818359375 355.29119873046875 L 395.2568359375 355.2370300292969 L 395.6949768066406 355.248046875 L 396.1476745605469 355.3077087402344 L 396.5857849121094 355.24346923828125 L 397.03851318359375 355.1718444824219 L 397.4912414550781 355.2122497558594 L 397.9147644042969 355.20672607421875 L 398.3674621582031 355.2131652832031 L 398.8055725097656 355.2140808105469 L 399.25830078125 355.1544189453125 L 399.6964111328125 355.09014892578125 L 400.1491394042969 355.08099365234375 L 400.60186767578125 355.1177062988281 L 401.03997802734375 355.1654357910156 L 401.4927062988281 355.0947570800781 L 401.9308166503906 355.0020446777344 L 402.383544921875 354.98919677734375 L 402.83624267578125 355.0185546875 L 403.2451477050781 355.0066223144531 L 403.6978759765625 355.1241149902344 L 404.135986328125 355.1121826171875 L 404.5887145996094 355.1938781738281 L 405.0268249511719 355.1626892089844 L 405.47955322265625 355.15350341796875 L 405.9322814941406 355.2563171386719 L 406.3703918457031 355.1920471191406 L 406.8231201171875 355.1434020996094 L 407.26123046875 355.11309814453125 L 407.7139587402344 355.0552673339844 L 408.1666564941406 355.0038757324219 L 408.5755615234375 354.953369140625 L 409.0282897949219 354.8560791015625 L 409.4664001464844 354.7550964355469 L 409.91912841796875 354.7339782714844 L 410.35723876953125 354.6265869140625 L 410.8099670410156 354.5715026855469 L 411.2626953125 354.5054016113281 L 411.7008056640625 354.43841552734375 L 412.1535339355469 354.32275390625 L 412.5916442871094 354.1822814941406 L 413.04437255859375 354.12445068359375 L 413.4970703125 354.0152282714844 L 413.9059753417969 354.0418395996094 L 414.35870361328125 353.9261779785156 L 414.79681396484375 353.94085693359375 L 415.2495422363281 353.7407531738281 L 415.6876525878906 353.4736328125 L 416.140380859375 353.49749755859375 L 416.5931091308594 353.3221740722656 L 417.0312194824219 353.52685546875 L 417.48394775390625 353.26617431640625 L 417.92205810546875 353.22760009765625 L 418.3747863769531 353.339599609375 L 418.8274841308594 353.31390380859375 L 419.2510070800781 353.0329895019531 L 419.7037353515625 352.9815979003906 L 420.141845703125 353.1202087402344 L 420.5945739746094 353.1449890136719 L 421.0326843261719 352.9145812988281 L 421.4853820800781 352.9411926269531 L 421.9381103515625 353.0926818847656 L 422.376220703125 353.1477355957031 L 422.8289489746094 353.1918029785156 L 423.2670593261719 353.12939453125 L 423.71978759765625 353.22210693359375 L 424.1725158691406 353.4020080566406 L 424.5814208984375 353.3506164550781 L 425.0341491699219 353.2569885253906 L 425.4722595214844 353.0981750488281 L 425.92498779296875 353.0274963378906 L 426.36309814453125 352.9393615722656 L 426.8157958984375 353.1844787597656 L 427.2685241699219 353.3551940917969 L 427.7066345214844 353.6067199707031 L 428.15936279296875 353.68841552734375 L 428.59747314453125 353.6902770996094 L 429.0502014160156 353.61773681640625 L 429.5029296875 353.6048889160156 L 429.9118347167969 353.52685546875 L 430.36456298828125 353.5057678222656 L 430.80267333984375 353.38092041015625 L 431.25537109375 353.2845153808594 L 431.6935119628906 353.1716003417969 L 432.1462097167969 353.01373291015625 L 432.59893798828125 352.8980712890625 L 433.03704833984375 352.71539306640625 L 433.4897766113281 352.5730895996094 L 433.9278869628906 352.4822082519531 L 434.380615234375 352.28668212890625 L 434.8333435058594 352.3647155761719 L 435.24224853515625 352.23712158203125 L 435.6949768066406 352.1508483886719 L 436.1330871582031 352.0718994140625 L 436.5857849121094 352.1177978515625 L 437.02392578125 351.90850830078125 L 437.47662353515625 351.939697265625 L 437.9293518066406 352.1554260253906 L 438.3674621582031 352.1600036621094 L 438.8201904296875 352.138916015625 L 439.25830078125 351.9709167480469 L 439.7110290527344 352.0654602050781 L 440.16375732421875 352.2720031738281 L 440.5872497558594 352.3417663574219 L 441.03997802734375 352.276611328125 L 441.47808837890625 352.32342529296875 L 441.9308166503906 352.1361389160156 L 442.3689270019531 352.2665100097656 L 442.8216552734375 352.2049865722656 L 443.2743835449219 352.3610534667969 L 443.7124938964844 352.460205078125 L 444.1651916503906 352.30047607421875 L 444.60333251953125 352.1783752441406 L 445.0560302734375 351.91033935546875 L 445.5087585449219 351.6854248046875 L 445.91766357421875 351.5064392089844 L 446.3703918457031 351.3494567871094 L 446.8085021972656 351.2879638671875 L 447.26123046875 351.3687438964844 L 447.6993408203125 351.38525390625 L 448.1520690917969 351.1695251464844 L 448.60479736328125 351.2181701660156 L 449.04290771484375 351.1502685546875 L 449.49560546875 350.8675231933594 L 449.9337463378906 350.80694580078125 L 450.3864440917969 351.0520324707031 L 450.83917236328125 350.94647216796875 L 451.2480773925781 350.9400329589844 L 451.7008056640625 351.1456604003906 L 452.138916015625 351.61016845703125 L 452.5916442871094 352.2857666015625 L 453.0297546386719 352.16278076171875 L 453.48248291015625 352.0204772949219 L 453.9351806640625 352.0682067871094 L 454.3733215332031 352.2362060546875 L 454.8260192871094 351.8809509277344 L 455.26416015625 351.64227294921875 L 455.71685791015625 351.4201354980469 L 456.1695861816406 351.3411865234375 L 456.5784912109375 351.3641357421875 L 457.0312194824219 351.08050537109375 L 457.4693298339844 350.95379638671875 L 457.92205810546875 350.9565734863281 L 458.36016845703125 351.0520324707031 L 458.8128967285156 350.876708984375 L 459.2655944824219 350.7050476074219 L 459.7037353515625 350.6885070800781 L 460.15643310546875 350.7261657714844 L 460.5945739746094 350.5838623046875 L 461.0472717285156 350.37457275390625 L 461.5 350.2882995605469 L 461.92352294921875 350.1588439941406 L 462.376220703125 350.05419921875 L 462.8143615722656 349.98260498046875 L 463.2670593261719 350.02667236328125 L 463.7051696777344 349.75311279296875 L 464.15789794921875 349.8651123046875 L 464.6106262207031 349.7356872558594 L 465.0487365722656 349.6034851074219 L 465.50146484375 349.54931640625 L 465.9395751953125 349.6851806640625 L 466.3923034667969 349.4869079589844 L 466.8450012207031 349.4290771484375 L 467.2539367675781 349.4217224121094 L 467.7066345214844 349.31707763671875 L 468.144775390625 349.19683837890625 L 468.59747314453125 349.5860290527344 L 469.03558349609375 349.5979919433594 L 469.4883117675781 349.45294189453125 L 469.9410400390625 349.1876525878906 L 470.379150390625 349.0031433105469 L 470.8318786621094 348.9333801269531 L 471.2699890136719 348.971923828125 L 471.72271728515625 348.8259582519531 L 472.1754150390625 348.8837890625 L 472.5843505859375 349.2335510253906 L 473.03704833984375 348.9838562011719 L 473.47515869140625 349.42633056640625 L 473.9278869628906 349.4924011230469 L 474.3659973144531 349.5126037597656 L 474.8187255859375 349.9890441894531 L 475.2714538574219 350.2497253417969 L 475.7095642089844 350.3121643066406 L 476.16229248046875 349.95782470703125 L 476.60040283203125 349.9266052246094 L 477.0531311035156 349.64019775390625 L 477.5058288574219 349.3730773925781 L 477.9147644042969 349.1839904785156 L 478.3674621582031 349.0426025390625 L 478.8055725097656 348.8929748535156 L 479.25830078125 348.99945068359375 L 479.6964111328125 348.85443115234375 L 480.1491394042969 348.71856689453125 L 480.60186767578125 348.5973815917969 L 481.03997802734375 348.6111755371094 L 481.4927062988281 348.8865661621094 L 481.9308166503906 348.64422607421875 L 482.383544921875 348.6680908203125 L 482.83624267578125 349.0618896484375 L 483.259765625 349.2142639160156 L 483.7124938964844 348.6102600097656 L 484.1506042480469 348.4082946777344 L 484.60333251953125 348.1668701171875 L 485.04144287109375 348.18524169921875 L 485.4941711425781 348.3862609863281 L 485.9468688964844 348.09344482421875 L 486.385009765625 347.86395263671875 L 486.83770751953125 347.7170715332031 L 487.27581787109375 347.6160888671875 L 487.7285461425781 348.0291748046875 L 488.1812744140625 348.0750732421875 L 488.5901794433594 348.27703857421875 L 489.04290771484375 348.09344482421875 L 489.48101806640625 347.7904968261719 L 489.9337463378906 348.2917175292969 L 490.3718566894531 348.6983642578125 L 490.8245849609375 348.74700927734375 L 491.27728271484375 348.71673583984375 L 491.71539306640625 348.6240234375 L 492.1681213378906 348.5606689453125 L 492.6062316894531 349.0288391113281 L 493.0589599609375 349.1022644042969 L 493.5116882324219 349.3914489746094 L 493.92059326171875 349.2546691894531 L 494.3733215332031 349.50250244140625 L 494.8114318847656 350.4103698730469 L 495.26416015625 350.4535217285156 L 495.7022705078125 350.44158935546875 L 496.1549987792969 350.2396240234375 L 496.6076965332031 349.8118591308594 L 497.0458068847656 349.6475524902344 L 497.49853515625 349.65582275390625 L 497.9366455078125 349.1261291503906 L 498.3893737792969 348.81036376953125 L 498.84210205078125 348.4780578613281 L 499.2510070800781 348.2494812011719 L 499.7037353515625 347.9373779296875 L 500.141845703125 348.0658874511719 L 500.5945739746094 348.23846435546875 L 501.0326843261719 348.3045654296875 L 501.4853820800781 348.46612548828125 L 501.9381103515625 348.2678527832031 L 502.376220703125 348.4615478515625 L 502.8289489746094 348.87554931640625 L 503.2670593261719 348.2889709472656 L 503.71978759765625 347.90985107421875 L 504.1725158691406 347.73541259765625 L 504.59600830078125 347.5059509277344 L 505.0487365722656 347.40496826171875 L 505.4868469238281 347.5059509277344 L 505.9395751953125 347.4783935546875 L 506.377685546875 347.5518493652344 L 506.8304138183594 347.2030029296875 L 507.28314208984375 347.3498840332031 L 507.72125244140625 347.3315124511719 L 508.1739807128906 346.8266296386719 L 508.6120910644531 346.6063232421875 L 509.0648193359375 346.5237121582031 L 509.51751708984375 346.9092712402344 L 509.9264221191406 347.0744934082031 L 510.379150390625 347.26727294921875 L 510.8172607421875 347.5518493652344 L 511.2699890136719 347.77215576171875 L 511.7080993652344 347.68035888671875 L 512.1608276367188 347.86395263671875 L 512.613525390625 347.6986999511719 L 513.0516357421875 347.31317138671875 L 513.50439453125 348.0291748046875 L 513.9425048828125 348.69195556640625 L 514.3952026367188 348.5698547363281 L 514.8479614257812 348.81402587890625 L 515.2568359375 348.44775390625 L 515.7095947265625 348.9049072265625 L 516.147705078125 349.1610412597656 L 516.6004028320312 349.1500244140625 L 517.0385131835938 350.1120300292969 L 517.4912109375 350.4131164550781 L 517.9439697265625 351.1392517089844 L 518.382080078125 351.01806640625 L 518.8347778320312 350.80694580078125 L 519.2728881835938 351.2356262207031 L 519.7256469726562 350.7316589355469 L 520.1783447265625 350.0395202636719 L 520.5872802734375 349.70172119140625 L 521.0399780273438 349.61541748046875 L 521.4780883789062 349.1215515136719 L 521.9307861328125 348.9104309082031 L 522.3689575195312 348.90216064453125 L 522.8216552734375 349.5245361328125 L 523.2743530273438 349.6199951171875 L 523.7124633789062 349.2619934082031 L 524.1652221679688 349.1242980957031 L 524.6033325195312 349.25006103515625 L 525.0560302734375 348.5010070800781 L 525.5087890625 348.1576843261719 L 525.9322509765625 348.1117858886719 L 526.385009765625 348.0383605957031 L 526.8231201171875 348.10260009765625 L 527.2758178710938 348.04754638671875 L 527.7139282226562 347.82720947265625 L 528.1666870117188 347.90985107421875 L 528.619384765625 347.7078857421875 L 529.0574951171875 348.0383605957031 L 529.5101928710938 348.10260009765625 L 529.9483642578125 347.78131103515625 L 530.4010620117188 347.86395263671875 L 530.853759765625 348.1209716796875 L 531.2626953125 348.1576843261719 L 531.7153930664062 348.29998779296875 L 532.1535034179688 348.32659912109375 L 532.6062622070312 348.2779541015625 L 533.0443725585938 348.19439697265625 L 533.4970703125 348.4193115234375 L 533.9498291015625 348.558837890625 L 534.387939453125 348.78741455078125 L 534.8406372070312 348.73785400390625 L 535.2787475585938 348.7800598144531 L 535.7314453125 349.1077880859375 L 536.1842041015625 349.224365234375 L 536.5930786132812 349.2390441894531 L 537.0458374023438 348.8819580078125 L 537.4839477539062 348.4505310058594 L 537.9366455078125 348.4275817871094 L 538.374755859375 348.470703125 L 538.8275146484375 347.8547668457031 L 539.2802124023438 347.8547668457031 L 539.7183227539062 348.1576843261719 L 540.1710205078125 348.6983642578125 L 540.6091918945312 348.5698547363281 L 541.0618896484375 348.2393798828125 L 541.5145874023438 348.375244140625 L 541.9235229492188 348.2035827636719 L 542.376220703125 348.0199890136719 L 542.8143310546875 348.237548828125 L 543.26708984375 348.05670166015625 L 543.7052001953125 347.96490478515625 L 544.1578979492188 347.5334777832031 L 544.610595703125 347.4233093261719 L 545.0487670898438 347.7996826171875 L 545.50146484375 347.87310791015625 L 545.9395751953125 347.49676513671875 L 546.3922729492188 347.2121887207031 L 546.8450317382812 346.80828857421875 L 547.2685546875 347.78131103515625 L 547.7212524414062 347.9373779296875 L 548.1593627929688 347.5059509277344 L 548.612060546875 346.8725280761719 L 549.0501708984375 346.39520263671875 L 549.5029296875 346.0555419921875 L 549.9556274414062 345.7801513671875 L 550.3937377929688 345.4405212402344 L 550.8464965820312 344.9356384277344 L 551.2846069335938 345.1375732421875 L 551.7373046875 345.1834716796875 L 552.1900024414062 345.6057434082031 L 552.5989379882812 345.1651306152344 L 553.0516357421875 345.0549621582031 L 553.4898071289062 345.3028259277344 L 553.9425048828125 345.24774169921875 L 554.380615234375 345.54150390625 L 554.8333129882812 345.49560546875 L 555.2860717773438 346.53289794921875 L 555.7241821289062 346.39520263671875 L 556.1768798828125 346.1106262207031 L 556.614990234375 346.02801513671875 L 557.0677490234375 346.62469482421875 L 557.5204467773438 346.8817138671875 L 557.9293823242188 347.22137451171875 L 558.382080078125 346.71649169921875 L 558.8201904296875 346.7073059082031 L 559.2728881835938 347.3223571777344 L 559.7109985351562 347.3498840332031 L 560.1637573242188 347.3223571777344 L 560.616455078125 346.1565246582031 L 561.0545654296875 345.2110290527344 L 561.50732421875 344.71533203125 L 561.9454345703125 344.5959777832031 L 562.3981323242188 344.14617919921875 L 562.850830078125 343.91668701171875 L 563.259765625 343.44854736328125 L 563.7124633789062 342.9161071777344 L 564.1505737304688 342.32861328125 L 564.6033325195312 342.11749267578125 L 565.0414428710938 342.0624084472656 L 565.494140625 342.48468017578125 L 565.9468994140625 342.0440368652344 L 566.385009765625 341.9981384277344 L 566.8377075195312 342.2276306152344 L 567.2758178710938 342.30108642578125 L 567.7285766601562 342.11749267578125 L 568.1812744140625 342.95281982421875 L 568.6047973632812 342.94366455078125 L 569.0574951171875 342.92529296875 L 569.49560546875 343.01708984375 L 569.9483642578125 343.33837890625 L 570.386474609375 343.52197265625 L 570.8391723632812 342.30108642578125 L 571.2918701171875 342.14501953125 L 571.72998046875 342.26434326171875 L 572.1827392578125 342.1266784667969 L 572.620849609375 342.2919006347656 L 573.0735473632812 341.64013671875 L 573.5263061523438 340.78643798828125 L 573.9351806640625 340.92413330078125 L 574.387939453125 340.81396484375 L 574.8260498046875 340.41925048828125 L 575.2787475585938 340.05206298828125 L 575.7168579101562 339.7215881347656 L 576.1696166992188 340.1071472167969 L 576.622314453125 340.49267578125 L 577.0604248046875 340.2999267578125 L 577.5131225585938 339.2626037597656 L 577.9512329101562 338.3630065917969 L 578.4039916992188 338.2803955078125 L 578.856689453125 337.25225830078125 L 579.265625 336.0680847167969 L 579.7183227539062 335.54486083984375 L 580.1564331054688 335.49896240234375 L 580.6091918945312 334.874755859375 L 581.0473022460938 335.3428955078125 L 581.5 334.90228271484375 L 581.9526977539062 335.517333984375 L 582.3908081054688 335.5999450683594 L 582.8435668945312 334.8930969238281 L 583.2816772460938 334.5718078613281 L 583.734375 333.11224365234375 L 584.1871337890625 331.6067810058594 L 584.5960083007812 330.5419616699219 L 585.0487670898438 330.835693359375 L 585.4868774414062 330.85406494140625 L 585.9395751953125 329.7249755859375 L 586.377685546875 328.92633056640625 L 586.8303833007812 327.1546630859375 L 587.2831420898438 328.1368713378906 L 587.7212524414062 331.6710510253906 L 588.1739501953125 334.90228271484375 L 588.612060546875 335.26947021484375 L 589.0648193359375 334.39739990234375 L 589.5175170898438 333.6997375488281 L 589.9410400390625 333.0021057128906 L 590.3937377929688 333.2866516113281 L 590.8318481445312 333.8833312988281 L 591.2846069335938 332.5431213378906 L 591.7227172851562 332.69000244140625 L 592.1754150390625 333.1856994628906 L 592.628173828125 332.79095458984375 L 593.0662841796875 331.9280700683594 L 593.5189819335938 332.51556396484375 L 593.9570922851562 332.01068115234375 L 594.4098510742188 331.1936950683594 L 594.862548828125 330.4042663574219 L 595.2714233398438 330.5235900878906 L 595.7241821289062 329.642333984375 L 596.1622924804688 328.5775146484375 L 596.614990234375 327.6778869628906 L 597.0531005859375 326.9251708984375 L 597.505859375 325.5757751464844 L 597.9585571289062 325.5115051269531 L 598.3966674804688 325.5023193359375 L 598.8494262695312 326.16326904296875 L 599.2875366210938 325.3921813964844 L 599.740234375 326.18438720703125 L 600.1929321289062 327.05828857421875 L 600.6018676757812 326.322998046875 L 601.0545654296875 326.34869384765625 L 601.49267578125 325.2406921386719 L 601.9454345703125 324.30987548828125 L 602.383544921875 324.3429260253906 L 602.8362426757812 327.0307312011719 L 603.2890014648438 328.43890380859375 L 603.7271118164062 329.19989013671875 L 604.1798095703125 328.4499206542969 L 604.617919921875 327.2143249511719 L 605.0706176757812 327.5135803222656 L 605.5233764648438 324.13824462890625 L 605.9322509765625 323.21844482421875 L 606.385009765625 322.53912353515625 L 606.8231201171875 322.69427490234375 L 607.2758178710938 322.666748046875 L 607.7139282226562 322.4886474609375 L 608.1666870117188 321.6468811035156 L 608.619384765625 321.84881591796875 L 609.0574951171875 321.8782043457031 L 609.5101928710938 321.9663391113281 L 609.9483642578125 321.72857666015625 L 610.4010620117188 319.19775390625 L 610.853759765625 319.5208740234375 L 611.2772827148438 319.9981994628906 L 611.72998046875 319.9936218261719 L 612.1681518554688 319.3143310546875 L 612.620849609375 319.9146728515625 L 613.0589599609375 319.29229736328125 L 613.5116577148438 319.0279235839844 L 613.9644165039062 318.9774475097656 L 614.4025268554688 319.5263671875 L 614.855224609375 318.57720947265625 L 615.2933349609375 317.4021911621094 L 615.74609375 317.4398498535156 L 616.1987915039062 316.8459167480469 L 616.6077270507812 316.0693359375 L 617.0604248046875 316.71923828125 L 617.49853515625 316.5200500488281 L 617.9512329101562 316.2620849609375 L 618.389404296875 316.332763671875 L 618.8421020507812 315.70489501953125 L 619.2947998046875 315.2358093261719 L 619.73291015625 314.80804443359375 L 620.1856689453125 314.9007568359375 L 620.623779296875 314.6198425292969 L 621.0764770507812 313.9736022949219 L 621.5292358398438 314.10302734375 L 621.9381103515625 314.8163146972656 L 622.3908081054688 316.3382873535156 L 622.8289794921875 316.00140380859375 L 623.2816772460938 315.640625 L 623.7197875976562 315.95550537109375 L 624.1724853515625 314.7768249511719 L 624.625244140625 314.5271301269531 L 625.0633544921875 314.8163146972656 L 625.5160522460938 315.0733337402344 L 625.9541625976562 315.6075744628906 L 626.4069213867188 314.6841125488281 L 626.859619140625 313.15386962890625 L 627.2685546875 312.12298583984375 L 627.7212524414062 310.76806640625 L 628.1593627929688 309.3085021972656 L 628.612060546875 307.8819885253906 L 629.0501708984375 306.2278137207031 L 629.5029296875 306.0680847167969 L 629.9556274414062 304.26336669921875 L 630.3937377929688 303.8824157714844 L 630.8464965820312 302.7248840332031 L 631.2846069335938 300.9770812988281 L 631.7373046875 300.9908447265625 L 632.1900024414062 297.7669372558594 L 632.613525390625 297.9936828613281 L 633.0662841796875 297.9844970703125 L 633.50439453125 296.69384765625 L 633.9570922851562 296.0264892578125 L 634.3952026367188 298.2690734863281 L 634.8479614257812 296.56072998046875 L 635.3006591796875 295.4408264160156 L 635.73876953125 293.0008850097656 L 636.1914672851562 289.8605041503906 L 636.629638671875 289.1647033691406 L 637.0823364257812 287.0561218261719 L 637.5350341796875 284.10302734375 L 637.9439697265625 284.6749267578125 L 638.3966674804688 287.266357421875 L 638.8347778320312 280.9176940917969 L 639.2875366210938 276.95208740234375 L 639.7256469726562 272.4540710449219 L 640.1783447265625 272.2750549316406 L 640.6310424804688 271.3772888183594 L 641.0692138671875 270.07928466796875 L 641.5219116210938 271.202880859375 L 641.9600219726562 269.0502624511719 L 642.4127197265625 268.9593811035156 L 642.865478515625 263.4167175292969 L 643.2743530273438 258.5432434082031 L 643.7271118164062 255.29640197753906 L 644.1652221679688 255.6433868408203 L 644.617919921875 255.64613342285156 L 645.0560302734375 251.22247314453125 L 645.5087890625 258.74609375 L 645.9614868164062 263.7012939453125 L 646.3995971679688 262.6153259277344 L 646.852294921875 252.33779907226562 L 647.2904052734375 248.15003967285156 L 647.7431640625 242.75975036621094 L 648.1958618164062 242.96078491210938 L 648.6047973632812 239.74057006835938 L 649.0574951171875 234.86618041992188 L 649.49560546875 235.1131134033203 L 649.9483642578125 235.9870147705078 L 650.386474609375 230.62242126464844 L 650.8391723632812 235.53353881835938 L 651.2918701171875 236.3890838623047 L 651.72998046875 238.0561065673828 L 652.1827392578125 229.7035369873047 L 652.620849609375 226.24465942382812 L 653.0735473632812 226.52830505371094 L 653.5263061523438 229.89906311035156 L 653.9498291015625 225.0026397705078 L 654.4025268554688 223.2447509765625 L 654.8406372070312 227.18096923828125 L 655.2933349609375 223.18966674804688 L 655.7314453125 222.17623901367188 L 656.1842041015625 221.03245544433594 L 656.6369018554688 222.63063049316406 L 657.0750122070312 229.78248596191406 L 657.5277709960938 230.89321899414062 L 657.9658813476562 235.21775817871094 L 658.4185791015625 234.78631591796875 L 658.8712768554688 237.52919006347656 L 659.2802124023438 248.53558349609375 L 659.73291015625 248.1693115234375 L 660.1710205078125 240.77694702148438 L 660.623779296875 243.6832275390625 L 661.0618896484375 246.8281707763672 L 661.5145874023438 249.21029663085938 L 661.9673461914062 261.4981689453125 L 662.4054565429688 258.5652770996094 L 662.858154296875 253.69178771972656 L 663.2962646484375 252.29190063476562 L 663.7490234375 252.7251739501953 L 664.2017211914062 256.3548126220703 L 664.610595703125 251.47857666015625 L 665.0633544921875 255.32118225097656 L 665.50146484375 258.3210754394531 L 665.9541625976562 264.3089599609375 L 666.3922729492188 274.446044921875 L 666.8450317382812 273.6235656738281 L 667.2977294921875 277.73052978515625 L 667.73583984375 278.9403991699219 L 668.1885986328125 273.86407470703125 L 668.626708984375 274.85089111328125 L 669.0794067382812 275.157470703125 L 669.5321044921875 280.5560302734375 L 669.9410400390625 279.6747741699219 L 670.3937377929688 275.6908264160156 L 670.8318481445312 271.474609375 L 671.2846069335938 266.697509765625 L 671.7227172851562 266.28076171875 L 672.1754150390625 266.55706787109375 L 672.628173828125 263.8114318847656 L 673.0662841796875 262.0406799316406 L 673.5189819335938 261.01531982421875 L 673.9570922851562 258.1934814453125 L 674.4098510742188 253.43109130859375 L 674.862548828125 252.43601989746094 L 675.2860717773438 254.21502685546875 L 675.73876953125 253.35398864746094 L 676.1768798828125 256.16111755371094 L 676.629638671875 253.4090576171875 L 677.0677490234375 255.87930297851562 L 677.5204467773438 257.43157958984375 L 677.97314453125 254.79518127441406 L 678.4112548828125 254.8365020751953 L 678.864013671875 250.08786010742188 L 679.3021240234375 247.30918884277344 L 679.7548217773438 248.9431610107422 L 680.2075805664062 247.2706298828125 L 680.616455078125 247.704833984375 L 681.0692138671875 250.50186157226562 L 681.50732421875 249.23048400878906 L 681.9600219726562 247.03012084960938 L 682.3981323242188 245.1951141357422 L 682.850830078125 245.00877380371094 L 683.3035888671875 244.8572998046875 L 683.74169921875 247.97471618652344 L 684.1943969726562 243.8062286376953 L 684.6325073242188 241.5388641357422 L 685.0852661132812 240.00953674316406 L 685.5379638671875 240.20046997070312 L 685.9468994140625 238.6316680908203 L 686.3995971679688 237.85781860351562 L 686.8377075195312 238.97406005859375 L 687.2904052734375 242.35585021972656 L 687.7285766601562 241.70684814453125 L 688.1812744140625 239.23660278320312 L 688.6339721679688 236.42855834960938 L 689.0720825195312 232.2389678955078 L 689.5248413085938 229.92018127441406 L 689.9629516601562 227.3700714111328 L 690.4156494140625 226.65957641601562 L 690.868408203125 224.764892578125 L 691.2772827148438 228.23939514160156 L 691.72998046875 223.0354461669922 L 692.1681518554688 218.67510986328125 L 692.620849609375 218.3951416015625 L 693.0589599609375 217.796630859375 L 693.5116577148438 223.8634490966797 L 693.9644165039062 219.96209716796875 L 694.4025268554688 216.0570831298828 L 694.855224609375 223.0583953857422 L 695.2933349609375 221.60525512695312 L 695.74609375 230.82713317871094 L 696.1987915039062 233.02015686035156 L 696.622314453125 236.50198364257812 L 697.0750122070312 231.58811950683594 L 697.5131225585938 228.581787109375 L 697.9658813476562 234.27041625976562 L 698.4039916992188 241.97396850585938 L 698.856689453125 239.7580108642578 L 699.3094482421875 245.6807098388672 L 699.74755859375 268.46002197265625 L 700.2002563476562 276.33245849609375 L 700.6383666992188 276.83551025390625 L 701.091064453125 277.93524169921875 L 701.5438232421875 283.47515869140625 L 701.9526977539062 287.89056396484375 L 702.4054565429688 279.5352478027344 L 702.8435668945312 274.55438232421875 L 703.2962646484375 272.37786865234375 L 703.734375 271.4874572753906 L 704.1871337890625 264.7027893066406 L 704.6398315429688 261.5064392089844 L 705.0779418945312 259.385009765625 L 705.5306396484375 257.5114440917969 L 705.9688110351562 255.46347045898438 L 706.4215087890625 254.2517547607422 L 706.8742065429688 257.411376953125 L 707.2831420898438 251.6383056640625 L 707.73583984375 247.48268127441406 L 708.1739501953125 254.1158905029297 L 708.626708984375 257.9438171386719 L 709.0648193359375 258.2705993652344 L 709.5175170898438 257.5839538574219 L 709.97021484375 254.3894500732422 L 710.4083862304688 249.84552001953125 L 710.861083984375 247.33856201171875 L 711.2991943359375 243.4243621826172 L 711.7518920898438 239.65245056152344 L 712.2046508789062 236.1182861328125 L 712.613525390625 237.6448516845703 L 713.0662841796875 235.16452026367188 L 713.50439453125 234.54029846191406 L 713.9570922851562 239.2237548828125 L 714.3952026367188 235.7446746826172 L 714.8479614257812 248.5851593017578 L 715.3006591796875 249.63438415527344 L 715.73876953125 246.5738983154297 L 716.1914672851562 244.8114013671875 L 716.629638671875 243.26004028320312 L 717.0823364257812 238.0037841796875 L 717.5350341796875 233.23863220214844 L 717.9585571289062 229.8651123046875 L 718.4112548828125 230.123046875 L 718.8494262695312 234.26858520507812 L 719.3021240234375 235.90164184570312 L 719.740234375 232.56942749023438 L 720.1929321289062 228.56068420410156 L 720.6456909179688 224.89157104492188 L 721.0838012695312 225.4056396484375 L 721.5364990234375 229.38133239746094 L 721.974609375 226.83123779296875 L 722.4273681640625 221.49693298339844 L 722.8800659179688 218.56771850585938 L 723.2890014648438 215.03172302246094 L 723.74169921875 213.2077178955078 L 724.1798095703125 206.8609161376953 L 724.6325073242188 208.79505920410156 L 725.0706176757812 204.2135009765625 L 725.5233764648438 204.08407592773438 L 725.97607421875 202.5161895751953 L 726.4141845703125 199.499755859375 L 726.866943359375 193.66976928710938 L 727.3050537109375 191.44461059570312 L 727.7577514648438 190.10621643066406 L 728.21044921875 190.59457397460938 L 728.619384765625 186.327880859375 L 729.0720825195312 186.25994873046875 L 729.5101928710938 183.91822814941406 L 729.9629516601562 178.6564483642578 L 730.4010620117188 176.26882934570312 L 730.853759765625 177.33091735839844 L 731.3065185546875 174.42095947265625 L 731.74462890625 179.55789184570312 L 732.1973266601562 169.7081298828125 L 732.6354370117188 168.8177032470703 L 733.0881958007812 171.21267700195312 L 733.5408935546875 166.2538299560547 L 733.9498291015625 166.45669555664062 L 734.4025268554688 165.09169006347656 L 734.8406372070312 163.5238037109375 L 735.2933349609375 164.68502807617188 L 735.7314453125 165.15777587890625 L 736.1842041015625 170.1395721435547 L 736.6369018554688 178.9024658203125 L 737.0750122070312 171.52203369140625 L 737.5277709960938 166.39886474609375 L 737.9658813476562 168.83514404296875 L 738.4185791015625 181.271728515625 L 738.8712768554688 182.5734100341797 L 739.2947998046875 171.78457641601562 L 739.74755859375 166.86520385742188 L 740.1856689453125 167.78224182128906 L 740.6383666992188 166.09869384765625 L 741.0764770507812 160.13101196289062 L 741.5292358398438 158.10690307617188 L 741.98193359375 159.32411193847656 L 742.4200439453125 160.6707763671875 L 742.8727416992188 158.6540069580078 L 743.3108520507812 151.1597442626953 L 743.7636108398438 148.54446411132812 L 744.21630859375 143.5149383544922 L 744.625244140625 140.12672424316406 L 745.0779418945312 140.8161163330078 L 745.5160522460938 137.5077667236328 L 745.9688110351562 133.96075439453125 L 746.4069213867188 132.11473083496094 L 746.859619140625 131.9201202392578 L 747.3123168945312 128.55853271484375 L 747.7504272460938 122.66887664794922 L 748.2031860351562 119.3082046508789 L 748.6412963867188 112.81544494628906 L 749.093994140625 101.29866027832031 L 749.5467529296875 109.06831359863281 L 749.9556274414062 109.28770446777344 L 750.4083862304688 113.798583984375 L 750.8464965820312 109.40520477294922 L 751.2991943359375 104.55284118652344 L 751.7373046875 100.94615936279297 L 752.1900024414062 95.0546646118164 L 752.6427612304688 91.04499816894531 L 753.0808715820312 101.69705963134766 L 753.5335693359375 107.40955352783203 L 753.9716796875 121.72245025634766 L 754.4244384765625 118.04325103759766 L 754.8771362304688 104.50602722167969 L 755.2860717773438 99.99698638916016 L 755.73876953125 90.8338623046875 L 756.1768798828125 95.34014892578125 L 756.629638671875 92.08505249023438 L 757.0677490234375 82.35980224609375 L 757.5204467773438 91.41234588623047 L 757.97314453125 83.64105987548828 L 758.4112548828125 84.05194091796875 L 758.864013671875 72.37318420410156 L 759.3021240234375 65.77806091308594 L 759.7548217773438 56.46500778198242 L 760.2075805664062 56.54658126831055 L 760.6310424804688 113.91207885742188 L 761.0838012695312 103.85287475585938 L 761.5219116210938 89.3821029663086 L 761.974609375 72.39554595947266 L 762.4127197265625 62.9443473815918 L 762.865478515625 46.04545593261719 L 763.3181762695312 48.44990921020508" stroke-opacity="1" stroke-linejoin="bevel" stroke-miterlimit="10" stroke-width="2" stroke-dasharray="" clip-path="url(#sSlLZEotGRRM)"/><path fill="none" stroke="rgb(47,34,53)" paint-order="fill" d="M 119.5 376.5 L 119.5 372.5 M 226.5 376.5 L 226.5 372.5 M 333.5 376.5 L 333.5 372.5 M 439.5 376.5 L 439.5 372.5 M 546.5 376.5 L 546.5 372.5 M 653.5 376.5 L 653.5 372.5 M 759.5 376.5 L 759.5 372.5" stroke-opacity="1" stroke-linejoin="bevel" stroke-miterlimit="10" stroke-dasharray=""/><path fill="none" stroke="rgb(0,0,0)" paint-order="fill" d="" stroke-opacity="1" stroke-linejoin="bevel" stroke-miterlimit="10" stroke-dasharray=""/><text fill="rgb(47,34,53)" stroke="none" font-family="helvetica" font-size="16px" font-style="normal" font-weight="normal" text-decoration="normal" x="0" y="0" text-anchor="middle" dominant-baseline="hanging" transform="matrix(1, 0, 0, 1, 119.5, 381.5)" fill-opacity="1">1900</text><text fill="rgb(47,34,53)" stroke="none" font-family="helvetica" font-size="16px" font-style="normal" font-weight="normal" text-decoration="normal" x="0" y="0" text-anchor="middle" dominant-baseline="hanging" transform="matrix(1, 0, 0, 1, 226.5, 381.5)" fill-opacity="1">1920</text><text fill="rgb(47,34,53)" stroke="none" font-family="helvetica" font-size="16px" font-style="normal" font-weight="normal" text-decoration="normal" x="0" y="0" text-anchor="middle" dominant-baseline="hanging" transform="matrix(1, 0, 0, 1, 333.5, 381.5)" fill-opacity="1">1940</text><text fill="rgb(47,34,53)" stroke="none" font-family="helvetica" font-size="16px" font-style="normal" font-weight="normal" text-decoration="normal" x="0" y="0" text-anchor="middle" dominant-baseline="hanging" transform="matrix(1, 0, 0, 1, 439.5, 381.5)" fill-opacity="1">1960</text><text fill="rgb(47,34,53)" stroke="none" font-family="helvetica" font-size="16px" font-style="normal" font-weight="normal" text-decoration="normal" x="0" y="0" text-anchor="middle" dominant-baseline="hanging" transform="matrix(1, 0, 0, 1, 546.5, 381.5)" fill-opacity="1">1980</text><text fill="rgb(47,34,53)" stroke="none" font-family="helvetica" font-size="16px" font-style="normal" font-weight="normal" text-decoration="normal" x="0" y="0" text-anchor="middle" dominant-baseline="hanging" transform="matrix(1, 0, 0, 1, 653.5, 381.5)" fill-opacity="1">2000</text><text fill="rgb(47,34,53)" stroke="none" font-family="helvetica" font-size="16px" font-style="normal" font-weight="normal" text-decoration="normal" x="0" y="0" text-anchor="middle" dominant-baseline="hanging" transform="matrix(1, 0, 0, 1, 759.5, 381.5)" fill-opacity="1">2020</text><path fill="none" stroke="rgb(47,34,53)" paint-order="fill" d="M 83.5 357.5 L 87.5 357.5 M 83.5 311.5 L 87.5 311.5 M 83.5 265.5 L 87.5 265.5 M 83.5 219.5 L 87.5 219.5 M 83.5 173.5 L 87.5 173.5 M 83.5 127.5 L 87.5 127.5 M 83.5 82.5 L 87.5 82.5 M 83.5 36.5 L 87.5 36.5" stroke-opacity="1" stroke-linejoin="bevel" stroke-miterlimit="10" stroke-dasharray=""/><text fill="rgb(47,34,53)" stroke="none" font-family="helvetica" font-size="16px" font-style="normal" font-weight="normal" text-decoration="normal" x="0" y="0" text-anchor="end" dominant-baseline="central" transform="matrix(1, 0, 0, 1, 78.5, 357.5)" fill-opacity="1">$0</text><text fill="rgb(47,34,53)" stroke="none" font-family="helvetica" font-size="16px" font-style="normal" font-weight="normal" text-decoration="normal" x="0" y="0" text-anchor="end" dominant-baseline="central" transform="matrix(1, 0, 0, 1, 78.5, 311.5)" fill-opacity="1">$500</text><text fill="rgb(47,34,53)" stroke="none" font-family="helvetica" font-size="16px" font-style="normal" font-weight="normal" text-decoration="normal" x="0" y="0" text-anchor="end" dominant-baseline="central" transform="matrix(1, 0, 0, 1, 78.5, 265.5)" fill-opacity="1">$1,000</text><text fill="rgb(47,34,53)" stroke="none" font-family="helvetica" font-size="16px" font-style="normal" font-weight="normal" text-decoration="normal" x="0" y="0" text-anchor="end" dominant-baseline="central" transform="matrix(1, 0, 0, 1, 78.5, 219.5)" fill-opacity="1">$1,500</text><text fill="rgb(47,34,53)" stroke="none" font-family="helvetica" font-size="16px" font-style="normal" font-weight="normal" text-decoration="normal" x="0" y="0" text-anchor="end" dominant-baseline="central" transform="matrix(1, 0, 0, 1, 78.5, 173.5)" fill-opacity="1">$2,000</text><text fill="rgb(47,34,53)" stroke="none" font-family="helvetica" font-size="16px" font-style="normal" font-weight="normal" text-decoration="normal" x="0" y="0" text-anchor="end" dominant-baseline="central" transform="matrix(1, 0, 0, 1, 78.5, 127.5)" fill-opacity="1">$2,500</text><text fill="rgb(47,34,53)" stroke="none" font-family="helvetica" font-size="16px" font-style="normal" font-weight="normal" text-decoration="normal" x="0" y="0" text-anchor="end" dominant-baseline="central" transform="matrix(1, 0, 0, 1, 78.5, 82.5)" fill-opacity="1">$3,000</text><text fill="rgb(47,34,53)" stroke="none" font-family="helvetica" font-size="16px" font-style="normal" font-weight="normal" text-decoration="normal" x="0" y="0" text-anchor="end" dominant-baseline="central" transform="matrix(1, 0, 0, 1, 78.5, 36.5)" fill-opacity="1">$3,500</text><text fill="rgb(47,34,53)" stroke="none" font-family="helvetica" font-size="16px" font-style="italic" font-weight="normal" text-decoration="normal" x="0" y="0" text-anchor="middle" dominant-baseline="alphabetic" transform="matrix(6.123233995736766e-17, -1, 1, 6.123233995736766e-17, 19.5, 201.5)" fill-opacity="1">S&amp;P 500</text></svg>