<?xml version="1.0" encoding="utf-8" standalone="no"?>
<!DOCTYPE svg PUBLIC "-//W3C//DTD SVG 1.1//EN"
  "http://www.w3.org/Graphics/SVG/1.1/DTD/svg11.dtd">
<!-- Created with matplotlib (https://matplotlib.org/) -->
<svg height="353.4425pt" version="1.1" viewBox="0 0 1073.350898 353.4425" width="1073.350898pt" xmlns="http://www.w3.org/2000/svg" xmlns:xlink="http://www.w3.org/1999/xlink">
 <defs>
  <style type="text/css">
*{stroke-linecap:butt;stroke-linejoin:round;}
  </style>
 </defs>
 <g id="figure_1">
  <g id="patch_1">
   <path d="M 0 353.4425 
L 1073.350898 353.4425 
L 1073.350898 0 
L 0 0 
z
" style="fill:none;"/>
  </g>
  <g id="axes_1">
   <g id="patch_2">
    <path d="M 80.105 323.7575 
L 530.93386 323.7575 
L 530.93386 25.3575 
L 80.105 25.3575 
z
" style="fill:none;"/>
   </g>
   <g id="matplotlib.axis_1">
    <g id="xtick_1">
     <g id="line2d_1">
      <defs>
       <path d="M 0 0 
L 0 3.5 
" id="me1f92db490" style="stroke:#003559;stroke-width:0.8;"/>
      </defs>
      <g>
       <use style="fill:#003559;stroke:#003559;stroke-width:0.8;" x="100.597221" xlink:href="#me1f92db490" y="323.7575"/>
      </g>
     </g>
     <g id="text_1">
      <!-- 2010 -->
      <defs>
       <path d="M 19.1875 8.296875 
L 53.609375 8.296875 
L 53.609375 0 
L 7.328125 0 
L 7.328125 8.296875 
Q 12.9375 14.109375 22.625 23.890625 
Q 32.328125 33.6875 34.8125 36.53125 
Q 39.546875 41.84375 41.421875 45.53125 
Q 43.3125 49.21875 43.3125 52.78125 
Q 43.3125 58.59375 39.234375 62.25 
Q 35.15625 65.921875 28.609375 65.921875 
Q 23.96875 65.921875 18.8125 64.3125 
Q 13.671875 62.703125 7.8125 59.421875 
L 7.8125 69.390625 
Q 13.765625 71.78125 18.9375 73 
Q 24.125 74.21875 28.421875 74.21875 
Q 39.75 74.21875 46.484375 68.546875 
Q 53.21875 62.890625 53.21875 53.421875 
Q 53.21875 48.921875 51.53125 44.890625 
Q 49.859375 40.875 45.40625 35.40625 
Q 44.1875 33.984375 37.640625 27.21875 
Q 31.109375 20.453125 19.1875 8.296875 
z
" id="DejaVuSans-50"/>
       <path d="M 31.78125 66.40625 
Q 24.171875 66.40625 20.328125 58.90625 
Q 16.5 51.421875 16.5 36.375 
Q 16.5 21.390625 20.328125 13.890625 
Q 24.171875 6.390625 31.78125 6.390625 
Q 39.453125 6.390625 43.28125 13.890625 
Q 47.125 21.390625 47.125 36.375 
Q 47.125 51.421875 43.28125 58.90625 
Q 39.453125 66.40625 31.78125 66.40625 
z
M 31.78125 74.21875 
Q 44.046875 74.21875 50.515625 64.515625 
Q 56.984375 54.828125 56.984375 36.375 
Q 56.984375 17.96875 50.515625 8.265625 
Q 44.046875 -1.421875 31.78125 -1.421875 
Q 19.53125 -1.421875 13.0625 8.265625 
Q 6.59375 17.96875 6.59375 36.375 
Q 6.59375 54.828125 13.0625 64.515625 
Q 19.53125 74.21875 31.78125 74.21875 
z
" id="DejaVuSans-48"/>
       <path d="M 12.40625 8.296875 
L 28.515625 8.296875 
L 28.515625 63.921875 
L 10.984375 60.40625 
L 10.984375 69.390625 
L 28.421875 72.90625 
L 38.28125 72.90625 
L 38.28125 8.296875 
L 54.390625 8.296875 
L 54.390625 0 
L 12.40625 0 
z
" id="DejaVuSans-49"/>
      </defs>
      <g style="fill:#2f2235;" transform="translate(80.237221 342.915)scale(0.16 -0.16)">
       <use xlink:href="#DejaVuSans-50"/>
       <use x="63.623047" xlink:href="#DejaVuSans-48"/>
       <use x="127.246094" xlink:href="#DejaVuSans-49"/>
       <use x="190.869141" xlink:href="#DejaVuSans-48"/>
      </g>
     </g>
    </g>
    <g id="xtick_2">
     <g id="line2d_2">
      <g>
       <use style="fill:#003559;stroke:#003559;stroke-width:0.8;" x="168.405118" xlink:href="#me1f92db490" y="323.7575"/>
      </g>
     </g>
     <g id="text_2">
      <!-- Jul -->
      <defs>
       <path d="M 9.8125 72.90625 
L 19.671875 72.90625 
L 19.671875 5.078125 
Q 19.671875 -8.109375 14.671875 -14.0625 
Q 9.671875 -20.015625 -1.421875 -20.015625 
L -5.171875 -20.015625 
L -5.171875 -11.71875 
L -2.09375 -11.71875 
Q 4.4375 -11.71875 7.125 -8.046875 
Q 9.8125 -4.390625 9.8125 5.078125 
z
" id="DejaVuSans-74"/>
       <path d="M 8.5 21.578125 
L 8.5 54.6875 
L 17.484375 54.6875 
L 17.484375 21.921875 
Q 17.484375 14.15625 20.5 10.265625 
Q 23.53125 6.390625 29.59375 6.390625 
Q 36.859375 6.390625 41.078125 11.03125 
Q 45.3125 15.671875 45.3125 23.6875 
L 45.3125 54.6875 
L 54.296875 54.6875 
L 54.296875 0 
L 45.3125 0 
L 45.3125 8.40625 
Q 42.046875 3.421875 37.71875 1 
Q 33.40625 -1.421875 27.6875 -1.421875 
Q 18.265625 -1.421875 13.375 4.4375 
Q 8.5 10.296875 8.5 21.578125 
z
M 31.109375 56 
z
" id="DejaVuSans-117"/>
       <path d="M 9.421875 75.984375 
L 18.40625 75.984375 
L 18.40625 0 
L 9.421875 0 
z
" id="DejaVuSans-108"/>
      </defs>
      <g style="fill:#2f2235;" transform="translate(158.752618 342.915)scale(0.16 -0.16)">
       <use xlink:href="#DejaVuSans-74"/>
       <use x="29.492188" xlink:href="#DejaVuSans-117"/>
       <use x="92.871094" xlink:href="#DejaVuSans-108"/>
      </g>
     </g>
    </g>
    <g id="xtick_3">
     <g id="line2d_3">
      <g>
       <use style="fill:#003559;stroke:#003559;stroke-width:0.8;" x="237.336904" xlink:href="#me1f92db490" y="323.7575"/>
      </g>
     </g>
     <g id="text_3">
      <!-- 2011 -->
      <g style="fill:#2f2235;" transform="translate(216.976904 342.915)scale(0.16 -0.16)">
       <use xlink:href="#DejaVuSans-50"/>
       <use x="63.623047" xlink:href="#DejaVuSans-48"/>
       <use x="127.246094" xlink:href="#DejaVuSans-49"/>
       <use x="190.869141" xlink:href="#DejaVuSans-49"/>
      </g>
     </g>
    </g>
    <g id="xtick_4">
     <g id="line2d_4">
      <g>
       <use style="fill:#003559;stroke:#003559;stroke-width:0.8;" x="305.144801" xlink:href="#me1f92db490" y="323.7575"/>
      </g>
     </g>
     <g id="text_4">
      <!-- Jul -->
      <g style="fill:#2f2235;" transform="translate(295.492301 342.915)scale(0.16 -0.16)">
       <use xlink:href="#DejaVuSans-74"/>
       <use x="29.492188" xlink:href="#DejaVuSans-117"/>
       <use x="92.871094" xlink:href="#DejaVuSans-108"/>
      </g>
     </g>
    </g>
    <g id="xtick_5">
     <g id="line2d_5">
      <g>
       <use style="fill:#003559;stroke:#003559;stroke-width:0.8;" x="374.076586" xlink:href="#me1f92db490" y="323.7575"/>
      </g>
     </g>
     <g id="text_5">
      <!-- 2012 -->
      <g style="fill:#2f2235;" transform="translate(353.716586 342.915)scale(0.16 -0.16)">
       <use xlink:href="#DejaVuSans-50"/>
       <use x="63.623047" xlink:href="#DejaVuSans-48"/>
       <use x="127.246094" xlink:href="#DejaVuSans-49"/>
       <use x="190.869141" xlink:href="#DejaVuSans-50"/>
      </g>
     </g>
    </g>
    <g id="xtick_6">
     <g id="line2d_6">
      <g>
       <use style="fill:#003559;stroke:#003559;stroke-width:0.8;" x="442.259113" xlink:href="#me1f92db490" y="323.7575"/>
      </g>
     </g>
     <g id="text_6">
      <!-- Jul -->
      <g style="fill:#2f2235;" transform="translate(432.606613 342.915)scale(0.16 -0.16)">
       <use xlink:href="#DejaVuSans-74"/>
       <use x="29.492188" xlink:href="#DejaVuSans-117"/>
       <use x="92.871094" xlink:href="#DejaVuSans-108"/>
      </g>
     </g>
    </g>
    <g id="xtick_7">
     <g id="line2d_7">
      <g>
       <use style="fill:#003559;stroke:#003559;stroke-width:0.8;" x="511.190898" xlink:href="#me1f92db490" y="323.7575"/>
      </g>
     </g>
     <g id="text_7">
      <!-- 2013 -->
      <defs>
       <path d="M 40.578125 39.3125 
Q 47.65625 37.796875 51.625 33 
Q 55.609375 28.21875 55.609375 21.1875 
Q 55.609375 10.40625 48.1875 4.484375 
Q 40.765625 -1.421875 27.09375 -1.421875 
Q 22.515625 -1.421875 17.65625 -0.515625 
Q 12.796875 0.390625 7.625 2.203125 
L 7.625 11.71875 
Q 11.71875 9.328125 16.59375 8.109375 
Q 21.484375 6.890625 26.8125 6.890625 
Q 36.078125 6.890625 40.9375 10.546875 
Q 45.796875 14.203125 45.796875 21.1875 
Q 45.796875 27.640625 41.28125 31.265625 
Q 36.765625 34.90625 28.71875 34.90625 
L 20.21875 34.90625 
L 20.21875 43.015625 
L 29.109375 43.015625 
Q 36.375 43.015625 40.234375 45.921875 
Q 44.09375 48.828125 44.09375 54.296875 
Q 44.09375 59.90625 40.109375 62.90625 
Q 36.140625 65.921875 28.71875 65.921875 
Q 24.65625 65.921875 20.015625 65.03125 
Q 15.375 64.15625 9.8125 62.3125 
L 9.8125 71.09375 
Q 15.4375 72.65625 20.34375 73.4375 
Q 25.25 74.21875 29.59375 74.21875 
Q 40.828125 74.21875 47.359375 69.109375 
Q 53.90625 64.015625 53.90625 55.328125 
Q 53.90625 49.265625 50.4375 45.09375 
Q 46.96875 40.921875 40.578125 39.3125 
z
" id="DejaVuSans-51"/>
      </defs>
      <g style="fill:#2f2235;" transform="translate(490.830898 342.915)scale(0.16 -0.16)">
       <use xlink:href="#DejaVuSans-50"/>
       <use x="63.623047" xlink:href="#DejaVuSans-48"/>
       <use x="127.246094" xlink:href="#DejaVuSans-49"/>
       <use x="190.869141" xlink:href="#DejaVuSans-51"/>
      </g>
     </g>
    </g>
   </g>
   <g id="matplotlib.axis_2">
    <g id="ytick_1">
     <g id="line2d_8">
      <path clip-path="url(#pa58b9fc4db)" d="M 80.105 323.7575 
L 530.93386 323.7575 
" style="fill:none;stroke:#f0f0f0;stroke-linecap:square;"/>
     </g>
     <g id="line2d_9">
      <defs>
       <path d="M 0 0 
L -3.5 0 
" id="me2deb9d672" style="stroke:#003559;stroke-width:0.8;"/>
      </defs>
      <g>
       <use style="fill:#003559;stroke:#003559;stroke-width:0.8;" x="80.105" xlink:href="#me2deb9d672" y="323.7575"/>
      </g>
     </g>
     <g id="text_8">
      <!-- -1.0% -->
      <defs>
       <path d="M 4.890625 31.390625 
L 31.203125 31.390625 
L 31.203125 23.390625 
L 4.890625 23.390625 
z
" id="DejaVuSans-45"/>
       <path d="M 10.6875 12.40625 
L 21 12.40625 
L 21 0 
L 10.6875 0 
z
" id="DejaVuSans-46"/>
       <path d="M 72.703125 32.078125 
Q 68.453125 32.078125 66.03125 28.46875 
Q 63.625 24.859375 63.625 18.40625 
Q 63.625 12.0625 66.03125 8.421875 
Q 68.453125 4.78125 72.703125 4.78125 
Q 76.859375 4.78125 79.265625 8.421875 
Q 81.6875 12.0625 81.6875 18.40625 
Q 81.6875 24.8125 79.265625 28.4375 
Q 76.859375 32.078125 72.703125 32.078125 
z
M 72.703125 38.28125 
Q 80.421875 38.28125 84.953125 32.90625 
Q 89.5 27.546875 89.5 18.40625 
Q 89.5 9.28125 84.9375 3.921875 
Q 80.375 -1.421875 72.703125 -1.421875 
Q 64.890625 -1.421875 60.34375 3.921875 
Q 55.8125 9.28125 55.8125 18.40625 
Q 55.8125 27.59375 60.375 32.9375 
Q 64.9375 38.28125 72.703125 38.28125 
z
M 22.3125 68.015625 
Q 18.109375 68.015625 15.6875 64.375 
Q 13.28125 60.75 13.28125 54.390625 
Q 13.28125 47.953125 15.671875 44.328125 
Q 18.0625 40.71875 22.3125 40.71875 
Q 26.5625 40.71875 28.96875 44.328125 
Q 31.390625 47.953125 31.390625 54.390625 
Q 31.390625 60.6875 28.953125 64.34375 
Q 26.515625 68.015625 22.3125 68.015625 
z
M 66.40625 74.21875 
L 74.21875 74.21875 
L 28.609375 -1.421875 
L 20.796875 -1.421875 
z
M 22.3125 74.21875 
Q 30.03125 74.21875 34.609375 68.875 
Q 39.203125 63.53125 39.203125 54.390625 
Q 39.203125 45.171875 34.640625 39.84375 
Q 30.078125 34.515625 22.3125 34.515625 
Q 14.546875 34.515625 10.03125 39.859375 
Q 5.515625 45.21875 5.515625 54.390625 
Q 5.515625 63.484375 10.046875 68.84375 
Q 14.59375 74.21875 22.3125 74.21875 
z
" id="DejaVuSans-37"/>
      </defs>
      <g style="fill:#2f2235;" transform="translate(26.685 329.83625)scale(0.16 -0.16)">
       <use xlink:href="#DejaVuSans-45"/>
       <use x="36.083984" xlink:href="#DejaVuSans-49"/>
       <use x="99.707031" xlink:href="#DejaVuSans-46"/>
       <use x="131.494141" xlink:href="#DejaVuSans-48"/>
       <use x="195.117188" xlink:href="#DejaVuSans-37"/>
      </g>
     </g>
    </g>
    <g id="ytick_2">
     <g id="line2d_10">
      <path clip-path="url(#pa58b9fc4db)" d="M 80.105 286.4575 
L 530.93386 286.4575 
" style="fill:none;stroke:#f0f0f0;stroke-linecap:square;"/>
     </g>
     <g id="line2d_11">
      <g>
       <use style="fill:#003559;stroke:#003559;stroke-width:0.8;" x="80.105" xlink:href="#me2deb9d672" y="286.4575"/>
      </g>
     </g>
     <g id="text_9">
      <!-- -0.8% -->
      <defs>
       <path d="M 31.78125 34.625 
Q 24.75 34.625 20.71875 30.859375 
Q 16.703125 27.09375 16.703125 20.515625 
Q 16.703125 13.921875 20.71875 10.15625 
Q 24.75 6.390625 31.78125 6.390625 
Q 38.8125 6.390625 42.859375 10.171875 
Q 46.921875 13.96875 46.921875 20.515625 
Q 46.921875 27.09375 42.890625 30.859375 
Q 38.875 34.625 31.78125 34.625 
z
M 21.921875 38.8125 
Q 15.578125 40.375 12.03125 44.71875 
Q 8.5 49.078125 8.5 55.328125 
Q 8.5 64.0625 14.71875 69.140625 
Q 20.953125 74.21875 31.78125 74.21875 
Q 42.671875 74.21875 48.875 69.140625 
Q 55.078125 64.0625 55.078125 55.328125 
Q 55.078125 49.078125 51.53125 44.71875 
Q 48 40.375 41.703125 38.8125 
Q 48.828125 37.15625 52.796875 32.3125 
Q 56.78125 27.484375 56.78125 20.515625 
Q 56.78125 9.90625 50.3125 4.234375 
Q 43.84375 -1.421875 31.78125 -1.421875 
Q 19.734375 -1.421875 13.25 4.234375 
Q 6.78125 9.90625 6.78125 20.515625 
Q 6.78125 27.484375 10.78125 32.3125 
Q 14.796875 37.15625 21.921875 38.8125 
z
M 18.3125 54.390625 
Q 18.3125 48.734375 21.84375 45.5625 
Q 25.390625 42.390625 31.78125 42.390625 
Q 38.140625 42.390625 41.71875 45.5625 
Q 45.3125 48.734375 45.3125 54.390625 
Q 45.3125 60.0625 41.71875 63.234375 
Q 38.140625 66.40625 31.78125 66.40625 
Q 25.390625 66.40625 21.84375 63.234375 
Q 18.3125 60.0625 18.3125 54.390625 
z
" id="DejaVuSans-56"/>
      </defs>
      <g style="fill:#2f2235;" transform="translate(26.685 292.53625)scale(0.16 -0.16)">
       <use xlink:href="#DejaVuSans-45"/>
       <use x="36.083984" xlink:href="#DejaVuSans-48"/>
       <use x="99.707031" xlink:href="#DejaVuSans-46"/>
       <use x="131.494141" xlink:href="#DejaVuSans-56"/>
       <use x="195.117188" xlink:href="#DejaVuSans-37"/>
      </g>
     </g>
    </g>
    <g id="ytick_3">
     <g id="line2d_12">
      <path clip-path="url(#pa58b9fc4db)" d="M 80.105 249.1575 
L 530.93386 249.1575 
" style="fill:none;stroke:#f0f0f0;stroke-linecap:square;"/>
     </g>
     <g id="line2d_13">
      <g>
       <use style="fill:#003559;stroke:#003559;stroke-width:0.8;" x="80.105" xlink:href="#me2deb9d672" y="249.1575"/>
      </g>
     </g>
     <g id="text_10">
      <!-- -0.5% -->
      <defs>
       <path d="M 10.796875 72.90625 
L 49.515625 72.90625 
L 49.515625 64.59375 
L 19.828125 64.59375 
L 19.828125 46.734375 
Q 21.96875 47.46875 24.109375 47.828125 
Q 26.265625 48.1875 28.421875 48.1875 
Q 40.625 48.1875 47.75 41.5 
Q 54.890625 34.8125 54.890625 23.390625 
Q 54.890625 11.625 47.5625 5.09375 
Q 40.234375 -1.421875 26.90625 -1.421875 
Q 22.3125 -1.421875 17.546875 -0.640625 
Q 12.796875 0.140625 7.71875 1.703125 
L 7.71875 11.625 
Q 12.109375 9.234375 16.796875 8.0625 
Q 21.484375 6.890625 26.703125 6.890625 
Q 35.15625 6.890625 40.078125 11.328125 
Q 45.015625 15.765625 45.015625 23.390625 
Q 45.015625 31 40.078125 35.4375 
Q 35.15625 39.890625 26.703125 39.890625 
Q 22.75 39.890625 18.8125 39.015625 
Q 14.890625 38.140625 10.796875 36.28125 
z
" id="DejaVuSans-53"/>
      </defs>
      <g style="fill:#2f2235;" transform="translate(26.685 255.23625)scale(0.16 -0.16)">
       <use xlink:href="#DejaVuSans-45"/>
       <use x="36.083984" xlink:href="#DejaVuSans-48"/>
       <use x="99.707031" xlink:href="#DejaVuSans-46"/>
       <use x="131.494141" xlink:href="#DejaVuSans-53"/>
       <use x="195.117188" xlink:href="#DejaVuSans-37"/>
      </g>
     </g>
    </g>
    <g id="ytick_4">
     <g id="line2d_14">
      <path clip-path="url(#pa58b9fc4db)" d="M 80.105 211.8575 
L 530.93386 211.8575 
" style="fill:none;stroke:#f0f0f0;stroke-linecap:square;"/>
     </g>
     <g id="line2d_15">
      <g>
       <use style="fill:#003559;stroke:#003559;stroke-width:0.8;" x="80.105" xlink:href="#me2deb9d672" y="211.8575"/>
      </g>
     </g>
     <g id="text_11">
      <!-- -0.3% -->
      <g style="fill:#2f2235;" transform="translate(26.685 217.93625)scale(0.16 -0.16)">
       <use xlink:href="#DejaVuSans-45"/>
       <use x="36.083984" xlink:href="#DejaVuSans-48"/>
       <use x="99.707031" xlink:href="#DejaVuSans-46"/>
       <use x="131.494141" xlink:href="#DejaVuSans-51"/>
       <use x="195.117188" xlink:href="#DejaVuSans-37"/>
      </g>
     </g>
    </g>
    <g id="ytick_5">
     <g id="line2d_16">
      <path clip-path="url(#pa58b9fc4db)" d="M 80.105 174.5575 
L 530.93386 174.5575 
" style="fill:none;stroke:#f0f0f0;stroke-linecap:square;"/>
     </g>
     <g id="line2d_17">
      <g>
       <use style="fill:#003559;stroke:#003559;stroke-width:0.8;" x="80.105" xlink:href="#me2deb9d672" y="174.5575"/>
      </g>
     </g>
     <g id="text_12">
      <!-- 0.0% -->
      <g style="fill:#2f2235;" transform="translate(32.4575 180.63625)scale(0.16 -0.16)">
       <use xlink:href="#DejaVuSans-48"/>
       <use x="63.623047" xlink:href="#DejaVuSans-46"/>
       <use x="95.410156" xlink:href="#DejaVuSans-48"/>
       <use x="159.033203" xlink:href="#DejaVuSans-37"/>
      </g>
     </g>
    </g>
    <g id="ytick_6">
     <g id="line2d_18">
      <path clip-path="url(#pa58b9fc4db)" d="M 80.105 137.2575 
L 530.93386 137.2575 
" style="fill:none;stroke:#f0f0f0;stroke-linecap:square;"/>
     </g>
     <g id="line2d_19">
      <g>
       <use style="fill:#003559;stroke:#003559;stroke-width:0.8;" x="80.105" xlink:href="#me2deb9d672" y="137.2575"/>
      </g>
     </g>
     <g id="text_13">
      <!-- 0.3% -->
      <g style="fill:#2f2235;" transform="translate(32.4575 143.33625)scale(0.16 -0.16)">
       <use xlink:href="#DejaVuSans-48"/>
       <use x="63.623047" xlink:href="#DejaVuSans-46"/>
       <use x="95.410156" xlink:href="#DejaVuSans-51"/>
       <use x="159.033203" xlink:href="#DejaVuSans-37"/>
      </g>
     </g>
    </g>
    <g id="ytick_7">
     <g id="line2d_20">
      <path clip-path="url(#pa58b9fc4db)" d="M 80.105 99.9575 
L 530.93386 99.9575 
" style="fill:none;stroke:#f0f0f0;stroke-linecap:square;"/>
     </g>
     <g id="line2d_21">
      <g>
       <use style="fill:#003559;stroke:#003559;stroke-width:0.8;" x="80.105" xlink:href="#me2deb9d672" y="99.9575"/>
      </g>
     </g>
     <g id="text_14">
      <!-- 0.5% -->
      <g style="fill:#2f2235;" transform="translate(32.4575 106.03625)scale(0.16 -0.16)">
       <use xlink:href="#DejaVuSans-48"/>
       <use x="63.623047" xlink:href="#DejaVuSans-46"/>
       <use x="95.410156" xlink:href="#DejaVuSans-53"/>
       <use x="159.033203" xlink:href="#DejaVuSans-37"/>
      </g>
     </g>
    </g>
    <g id="ytick_8">
     <g id="line2d_22">
      <path clip-path="url(#pa58b9fc4db)" d="M 80.105 62.6575 
L 530.93386 62.6575 
" style="fill:none;stroke:#f0f0f0;stroke-linecap:square;"/>
     </g>
     <g id="line2d_23">
      <g>
       <use style="fill:#003559;stroke:#003559;stroke-width:0.8;" x="80.105" xlink:href="#me2deb9d672" y="62.6575"/>
      </g>
     </g>
     <g id="text_15">
      <!-- 0.8% -->
      <g style="fill:#2f2235;" transform="translate(32.4575 68.73625)scale(0.16 -0.16)">
       <use xlink:href="#DejaVuSans-48"/>
       <use x="63.623047" xlink:href="#DejaVuSans-46"/>
       <use x="95.410156" xlink:href="#DejaVuSans-56"/>
       <use x="159.033203" xlink:href="#DejaVuSans-37"/>
      </g>
     </g>
    </g>
    <g id="ytick_9">
     <g id="line2d_24">
      <path clip-path="url(#pa58b9fc4db)" d="M 80.105 25.3575 
L 530.93386 25.3575 
" style="fill:none;stroke:#f0f0f0;stroke-linecap:square;"/>
     </g>
     <g id="line2d_25">
      <g>
       <use style="fill:#003559;stroke:#003559;stroke-width:0.8;" x="80.105" xlink:href="#me2deb9d672" y="25.3575"/>
      </g>
     </g>
     <g id="text_16">
      <!-- 1.0% -->
      <g style="fill:#2f2235;" transform="translate(32.4575 31.43625)scale(0.16 -0.16)">
       <use xlink:href="#DejaVuSans-49"/>
       <use x="63.623047" xlink:href="#DejaVuSans-46"/>
       <use x="95.410156" xlink:href="#DejaVuSans-48"/>
       <use x="159.033203" xlink:href="#DejaVuSans-37"/>
      </g>
     </g>
    </g>
    <g id="text_17">
     <!-- Daily return -->
     <defs>
      <path d="M 19.671875 64.796875 
L 19.671875 8.109375 
L 31.59375 8.109375 
Q 46.6875 8.109375 53.6875 14.9375 
Q 60.6875 21.78125 60.6875 36.53125 
Q 60.6875 51.171875 53.6875 57.984375 
Q 46.6875 64.796875 31.59375 64.796875 
z
M 9.8125 72.90625 
L 30.078125 72.90625 
Q 51.265625 72.90625 61.171875 64.09375 
Q 71.09375 55.28125 71.09375 36.53125 
Q 71.09375 17.671875 61.125 8.828125 
Q 51.171875 0 30.078125 0 
L 9.8125 0 
z
" id="DejaVuSans-68"/>
      <path d="M 34.28125 27.484375 
Q 23.390625 27.484375 19.1875 25 
Q 14.984375 22.515625 14.984375 16.5 
Q 14.984375 11.71875 18.140625 8.90625 
Q 21.296875 6.109375 26.703125 6.109375 
Q 34.1875 6.109375 38.703125 11.40625 
Q 43.21875 16.703125 43.21875 25.484375 
L 43.21875 27.484375 
z
M 52.203125 31.203125 
L 52.203125 0 
L 43.21875 0 
L 43.21875 8.296875 
Q 40.140625 3.328125 35.546875 0.953125 
Q 30.953125 -1.421875 24.3125 -1.421875 
Q 15.921875 -1.421875 10.953125 3.296875 
Q 6 8.015625 6 15.921875 
Q 6 25.140625 12.171875 29.828125 
Q 18.359375 34.515625 30.609375 34.515625 
L 43.21875 34.515625 
L 43.21875 35.40625 
Q 43.21875 41.609375 39.140625 45 
Q 35.0625 48.390625 27.6875 48.390625 
Q 23 48.390625 18.546875 47.265625 
Q 14.109375 46.140625 10.015625 43.890625 
L 10.015625 52.203125 
Q 14.9375 54.109375 19.578125 55.046875 
Q 24.21875 56 28.609375 56 
Q 40.484375 56 46.34375 49.84375 
Q 52.203125 43.703125 52.203125 31.203125 
z
" id="DejaVuSans-97"/>
      <path d="M 9.421875 54.6875 
L 18.40625 54.6875 
L 18.40625 0 
L 9.421875 0 
z
M 9.421875 75.984375 
L 18.40625 75.984375 
L 18.40625 64.59375 
L 9.421875 64.59375 
z
" id="DejaVuSans-105"/>
      <path d="M 32.171875 -5.078125 
Q 28.375 -14.84375 24.75 -17.8125 
Q 21.140625 -20.796875 15.09375 -20.796875 
L 7.90625 -20.796875 
L 7.90625 -13.28125 
L 13.1875 -13.28125 
Q 16.890625 -13.28125 18.9375 -11.515625 
Q 21 -9.765625 23.484375 -3.21875 
L 25.09375 0.875 
L 2.984375 54.6875 
L 12.5 54.6875 
L 29.59375 11.921875 
L 46.6875 54.6875 
L 56.203125 54.6875 
z
" id="DejaVuSans-121"/>
      <path id="DejaVuSans-32"/>
      <path d="M 41.109375 46.296875 
Q 39.59375 47.171875 37.8125 47.578125 
Q 36.03125 48 33.890625 48 
Q 26.265625 48 22.1875 43.046875 
Q 18.109375 38.09375 18.109375 28.8125 
L 18.109375 0 
L 9.078125 0 
L 9.078125 54.6875 
L 18.109375 54.6875 
L 18.109375 46.1875 
Q 20.953125 51.171875 25.484375 53.578125 
Q 30.03125 56 36.53125 56 
Q 37.453125 56 38.578125 55.875 
Q 39.703125 55.765625 41.0625 55.515625 
z
" id="DejaVuSans-114"/>
      <path d="M 56.203125 29.59375 
L 56.203125 25.203125 
L 14.890625 25.203125 
Q 15.484375 15.921875 20.484375 11.0625 
Q 25.484375 6.203125 34.421875 6.203125 
Q 39.59375 6.203125 44.453125 7.46875 
Q 49.3125 8.734375 54.109375 11.28125 
L 54.109375 2.78125 
Q 49.265625 0.734375 44.1875 -0.34375 
Q 39.109375 -1.421875 33.890625 -1.421875 
Q 20.796875 -1.421875 13.15625 6.1875 
Q 5.515625 13.8125 5.515625 26.8125 
Q 5.515625 40.234375 12.765625 48.109375 
Q 20.015625 56 32.328125 56 
Q 43.359375 56 49.78125 48.890625 
Q 56.203125 41.796875 56.203125 29.59375 
z
M 47.21875 32.234375 
Q 47.125 39.59375 43.09375 43.984375 
Q 39.0625 48.390625 32.421875 48.390625 
Q 24.90625 48.390625 20.390625 44.140625 
Q 15.875 39.890625 15.1875 32.171875 
z
" id="DejaVuSans-101"/>
      <path d="M 18.3125 70.21875 
L 18.3125 54.6875 
L 36.8125 54.6875 
L 36.8125 47.703125 
L 18.3125 47.703125 
L 18.3125 18.015625 
Q 18.3125 11.328125 20.140625 9.421875 
Q 21.96875 7.515625 27.59375 7.515625 
L 36.8125 7.515625 
L 36.8125 0 
L 27.59375 0 
Q 17.1875 0 13.234375 3.875 
Q 9.28125 7.765625 9.28125 18.015625 
L 9.28125 47.703125 
L 2.6875 47.703125 
L 2.6875 54.6875 
L 9.28125 54.6875 
L 9.28125 70.21875 
z
" id="DejaVuSans-116"/>
      <path d="M 54.890625 33.015625 
L 54.890625 0 
L 45.90625 0 
L 45.90625 32.71875 
Q 45.90625 40.484375 42.875 44.328125 
Q 39.84375 48.1875 33.796875 48.1875 
Q 26.515625 48.1875 22.3125 43.546875 
Q 18.109375 38.921875 18.109375 30.90625 
L 18.109375 0 
L 9.078125 0 
L 9.078125 54.6875 
L 18.109375 54.6875 
L 18.109375 46.1875 
Q 21.34375 51.125 25.703125 53.5625 
Q 30.078125 56 35.796875 56 
Q 45.21875 56 50.046875 50.171875 
Q 54.890625 44.34375 54.890625 33.015625 
z
" id="DejaVuSans-110"/>
     </defs>
     <g style="fill:#2f2235;" transform="translate(19.3575 222.115)rotate(-90)scale(0.16 -0.16)">
      <use xlink:href="#DejaVuSans-68"/>
      <use x="77.001953" xlink:href="#DejaVuSans-97"/>
      <use x="138.28125" xlink:href="#DejaVuSans-105"/>
      <use x="166.064453" xlink:href="#DejaVuSans-108"/>
      <use x="193.847656" xlink:href="#DejaVuSans-121"/>
      <use x="253.027344" xlink:href="#DejaVuSans-32"/>
      <use x="284.814453" xlink:href="#DejaVuSans-114"/>
      <use x="325.896484" xlink:href="#DejaVuSans-101"/>
      <use x="387.419922" xlink:href="#DejaVuSans-116"/>
      <use x="426.628906" xlink:href="#DejaVuSans-117"/>
      <use x="490.007812" xlink:href="#DejaVuSans-114"/>
      <use x="531.105469" xlink:href="#DejaVuSans-110"/>
     </g>
    </g>
   </g>
   <g id="line2d_26">
    <path clip-path="url(#pa58b9fc4db)" d="M 100.597221 124.878719 
L 100.97185 191.603996 
L 101.346479 189.10983 
L 101.721109 205.366568 
L 102.095738 147.525421 
L 102.470367 242.027099 
L 102.844997 121.284001 
L 103.219626 196.063598 
L 103.594255 163.829058 
L 103.968884 180.790396 
L 104.343514 129.719884 
L 104.718143 234.823783 
L 105.092772 182.970114 
L 105.467401 184.809366 
L 105.842031 139.517504 
L 106.21666 206.16994 
L 106.591289 178.494442 
L 106.965918 199.54448 
L 107.340548 172.089526 
L 107.715177 155.957978 
L 108.089806 206.191661 
L 108.464436 139.190629 
L 108.839065 146.445717 
L 109.213694 158.354753 
L 109.588323 146.467643 
L 109.962953 193.751624 
L 110.337582 177.016229 
L 110.712211 201.272544 
L 111.46147 157.523377 
L 111.836099 193.988341 
L 112.210728 185.18831 
L 112.585357 193.854418 
L 112.959987 198.570121 
L 113.334616 193.379169 
L 113.709245 173.727096 
L 114.083875 206.689725 
L 114.833133 123.820687 
L 115.957021 199.836033 
L 116.33165 195.644388 
L 116.706279 122.846339 
L 117.080909 171.833081 
L 117.455538 192.357135 
L 117.830167 167.652266 
L 118.204796 110.677571 
L 118.579426 169.763641 
L 118.954055 154.931844 
L 119.328684 164.392102 
L 120.077943 207.441927 
L 120.452572 183.773571 
L 120.827201 179.582588 
L 121.201831 155.844348 
L 121.57646 148.313919 
L 121.951089 145.565098 
L 122.325718 164.827259 
L 122.700348 146.936572 
L 123.074977 195.860419 
L 123.449606 135.963599 
L 124.198865 182.244275 
L 124.573494 158.771803 
L 124.948123 175.604244 
L 125.322753 139.581363 
L 125.697382 127.997851 
L 126.072011 108.131614 
L 126.44664 215.020635 
L 126.82127 216.44154 
L 127.570528 168.573678 
L 127.945157 147.204304 
L 128.319787 163.930638 
L 128.694416 233.691669 
L 129.069045 182.486312 
L 129.443675 148.642421 
L 129.818304 166.483158 
L 130.192933 150.610771 
L 130.567562 179.983456 
L 130.942192 179.339805 
L 131.316821 167.782193 
L 131.69145 161.113243 
L 132.066079 167.431921 
L 132.440709 169.797966 
L 132.815338 193.361747 
L 133.189967 162.082681 
L 133.564596 169.714038 
L 133.939226 139.645385 
L 134.313855 137.573475 
L 134.688484 167.824117 
L 135.063114 184.547687 
L 135.437743 192.4089 
L 135.812372 160.712113 
L 136.561631 183.609778 
L 136.93626 172.048254 
L 137.310889 191.85001 
L 137.685518 152.519909 
L 138.060148 186.691501 
L 138.434777 136.809875 
L 138.809406 161.308994 
L 139.184035 155.636801 
L 139.558665 206.021354 
L 139.933294 168.294813 
L 140.307923 151.25098 
L 140.682553 201.80761 
L 141.057182 181.293145 
L 141.431811 172.375966 
L 141.80644 214.323005 
L 142.18107 163.944828 
L 142.555699 148.099751 
L 142.930328 198.99714 
L 143.304957 162.888892 
L 143.679587 212.507721 
L 144.054216 174.503858 
L 144.428845 221.563831 
L 144.803474 139.88608 
L 145.178104 161.147592 
L 145.552733 174.083754 
L 145.927362 196.480007 
L 146.301992 135.340307 
L 146.676621 114.650868 
L 147.05125 228.791363 
L 147.425879 136.46205 
L 147.800509 124.780086 
L 148.549767 209.135343 
L 148.924396 147.58696 
L 149.299026 178.747846 
L 149.673655 191.370176 
L 150.048284 210.054119 
L 150.422913 156.921146 
L 150.797543 149.691828 
L 151.172172 191.955341 
L 151.546801 157.815187 
L 151.921431 207.496331 
L 152.29606 149.421651 
L 152.670689 171.959616 
L 153.045318 178.916426 
L 153.419948 176.385281 
L 153.794577 147.421621 
L 154.169206 150.956901 
L 154.543835 157.549939 
L 154.918465 169.24018 
L 155.293094 171.027002 
L 155.667723 154.896717 
L 156.042353 166.411547 
L 156.416982 152.98185 
L 156.791611 182.603069 
L 157.16624 246.004743 
L 157.54087 142.350658 
L 157.915499 108.089712 
L 158.290128 160.178869 
L 158.664757 176.337817 
L 159.039387 177.420696 
L 159.414016 176.901761 
L 159.788645 172.829688 
L 160.163274 206.830223 
L 160.537904 188.779283 
L 160.912533 203.100465 
L 161.287162 165.925017 
L 161.661792 182.200956 
L 162.036421 158.572079 
L 162.41105 178.562327 
L 162.785679 143.916942 
L 163.160309 166.977333 
L 163.534938 107.978705 
L 163.909567 229.936594 
L 164.658826 146.448816 
L 165.033455 97.903945 
L 165.408084 180.768446 
L 165.782713 172.046102 
L 166.157343 180.102401 
L 166.531972 133.618504 
L 166.906601 181.922451 
L 167.281231 153.0559 
L 168.030489 211.322338 
L 168.405118 163.99292 
L 168.779748 158.33415 
L 169.154377 134.759324 
L 169.529006 176.644924 
L 169.903635 191.771268 
L 170.278265 156.556393 
L 170.652894 166.16559 
L 171.027523 164.974139 
L 171.402152 175.530867 
L 171.776782 138.724681 
L 172.151411 162.323522 
L 172.52604 116.514169 
L 172.90067 140.195253 
L 173.275299 153.683139 
L 173.649928 221.911945 
L 174.024557 155.375977 
L 174.399187 160.807963 
L 174.773816 149.150387 
L 175.148445 142.183032 
L 175.523074 185.31139 
L 175.897704 148.760857 
L 176.272333 190.128378 
L 176.646962 115.015623 
L 177.021591 213.094622 
L 177.396221 225.888131 
L 177.77085 222.606707 
L 178.145479 199.923363 
L 178.520109 206.743588 
L 178.894738 114.97979 
L 179.269367 183.091929 
L 179.643996 213.41463 
L 180.018626 140.095996 
L 180.393255 190.851059 
L 180.767884 210.256889 
L 181.142513 147.214151 
L 181.517143 154.748057 
L 181.891772 186.328292 
L 182.266401 131.348191 
L 182.64103 169.496793 
L 183.01566 125.099408 
L 183.390289 158.347396 
L 183.764918 126.834427 
L 184.514177 209.746357 
L 184.888806 100.260024 
L 185.263435 189.635086 
L 185.638065 179.282506 
L 186.012694 194.249076 
L 186.761952 166.107928 
L 187.136582 167.326572 
L 187.511211 153.624339 
L 187.88584 119.871183 
L 188.26047 176.943847 
L 188.635099 210.145507 
L 189.009728 208.629557 
L 189.384357 193.215299 
L 189.758987 223.307187 
L 190.133616 148.730294 
L 190.508245 188.215877 
L 190.882874 182.628976 
L 191.257504 173.405626 
L 191.632133 215.024338 
L 192.006762 199.050865 
L 192.381391 153.215792 
L 192.756021 154.891977 
L 193.13065 186.573435 
L 193.505279 119.322823 
L 193.879909 212.312076 
L 194.254538 183.643603 
L 194.629167 180.237442 
L 195.003796 256.694841 
L 195.378426 115.533325 
L 196.127684 204.519732 
L 196.502313 112.142169 
L 196.876943 155.87303 
L 197.251572 160.532124 
L 197.626201 191.462017 
L 198.00083 170.179498 
L 198.37546 218.875485 
L 198.750089 149.625606 
L 199.124718 184.522424 
L 199.499348 169.349186 
L 199.873977 137.479867 
L 200.248606 164.852301 
L 200.623235 165.517156 
L 200.997865 165.098445 
L 201.372494 195.230009 
L 201.747123 148.402804 
L 202.121752 127.295349 
L 202.496382 150.706424 
L 202.871011 146.943505 
L 203.24564 199.527265 
L 203.620269 199.243955 
L 203.994899 216.344925 
L 204.369528 136.578753 
L 204.744157 180.933912 
L 205.118787 131.577841 
L 205.493416 196.681429 
L 205.868045 186.404452 
L 206.242674 170.5017 
L 206.617304 145.853114 
L 206.991933 171.536399 
L 207.366562 167.049222 
L 207.741191 172.856002 
L 208.115821 168.061903 
L 208.49045 206.66465 
L 208.865079 170.93432 
L 209.239708 178.916702 
L 209.614338 175.044827 
L 209.988967 158.657862 
L 210.363596 193.66062 
L 210.738226 175.870904 
L 211.112855 182.222463 
L 211.487484 160.896893 
L 211.862113 149.931628 
L 212.236743 201.859074 
L 212.986001 111.70621 
L 213.36063 217.248507 
L 213.73526 198.121514 
L 214.109889 199.62562 
L 214.484518 181.67746 
L 214.859147 124.923368 
L 215.233777 172.950741 
L 215.608406 194.078841 
L 215.983035 154.794568 
L 216.357665 191.247352 
L 216.732294 139.826566 
L 217.106923 164.240016 
L 217.481552 131.908007 
L 217.856182 193.083697 
L 218.230811 82.908408 
L 218.60544 148.743579 
L 218.980069 153.816513 
L 219.729328 195.001002 
L 220.103957 199.243402 
L 220.478587 177.406748 
L 220.853216 197.139715 
L 221.227845 164.914141 
L 221.602474 197.999932 
L 221.977104 154.816077 
L 222.351733 144.818513 
L 222.726362 194.411465 
L 223.100991 137.759432 
L 223.475621 180.449372 
L 223.85025 138.875394 
L 224.224879 160.274301 
L 224.599508 139.858907 
L 224.974138 203.100255 
L 225.348767 176.535917 
L 225.723396 130.038535 
L 226.098026 191.791404 
L 226.472655 234.139269 
L 226.847284 231.316046 
L 227.221913 248.141373 
L 227.596543 236.435836 
L 228.345801 135.197906 
L 228.72043 186.545306 
L 229.09506 163.695128 
L 229.469689 176.63133 
L 229.844318 173.094084 
L 230.218947 178.368238 
L 230.593577 178.546726 
L 230.968206 159.588048 
L 231.342835 208.440507 
L 231.717465 143.206989 
L 232.092094 145.895849 
L 232.466723 179.169695 
L 232.841352 149.316245 
L 233.215982 194.277302 
L 233.590611 189.379919 
L 233.96524 168.686271 
L 234.714499 186.739527 
L 235.089128 193.415034 
L 235.463757 189.984827 
L 235.838386 145.324389 
L 236.213016 231.337955 
L 236.587645 162.830753 
L 236.962274 180.404463 
L 237.336904 151.63123 
L 237.711533 157.979388 
L 238.086162 256.380013 
L 238.460791 155.90333 
L 239.21005 172.696797 
L 239.584679 187.334411 
L 239.959308 147.887273 
L 240.333938 185.673979 
L 240.708567 118.60121 
L 241.083196 156.508 
L 241.457825 109.556395 
L 241.832455 196.789519 
L 242.207084 225.746006 
L 242.581713 152.019863 
L 242.956343 147.904495 
L 243.330972 172.294039 
L 243.705601 219.266775 
L 244.45486 154.908496 
L 244.829489 178.845006 
L 245.204118 176.810182 
L 245.578747 178.58488 
L 245.953377 201.217198 
L 246.328006 189.254511 
L 246.702635 215.917598 
L 247.077264 120.59326 
L 247.451894 187.534311 
L 247.826523 159.097297 
L 248.201152 203.842261 
L 248.575782 149.640462 
L 248.950411 229.244308 
L 249.32504 145.878029 
L 249.699669 174.404563 
L 250.074299 110.36873 
L 250.448928 212.336161 
L 250.823557 171.069991 
L 251.198186 162.390987 
L 251.572816 136.559473 
L 251.947445 185.967236 
L 252.322074 170.769087 
L 252.696704 237.280392 
L 253.445962 159.872964 
L 253.820591 140.400623 
L 254.195221 181.756195 
L 254.56985 111.987536 
L 254.944479 120.823348 
L 255.693738 245.368114 
L 256.068367 226.391765 
L 256.442996 196.560492 
L 256.817625 140.052486 
L 257.192255 164.090659 
L 257.566884 235.841539 
L 258.316143 125.206481 
L 258.690772 184.533356 
L 259.065401 195.728278 
L 259.44003 112.039201 
L 259.81466 171.755444 
L 260.189289 187.647232 
L 260.563918 162.900196 
L 260.938547 172.836989 
L 261.313177 186.15479 
L 261.687806 137.288848 
L 262.062435 140.056643 
L 262.437064 148.257876 
L 262.811694 176.419339 
L 263.186323 139.125677 
L 263.560952 174.832309 
L 264.310211 142.503968 
L 264.68484 149.213269 
L 265.059469 119.942905 
L 265.434099 159.882869 
L 265.808728 223.601534 
L 266.183357 207.96866 
L 266.557986 133.061997 
L 266.932616 183.234674 
L 267.307245 161.814856 
L 267.681874 198.756621 
L 268.056503 143.482883 
L 268.431133 184.832579 
L 268.805762 129.839235 
L 269.180391 189.231048 
L 269.555021 139.984084 
L 269.92965 153.225205 
L 270.304279 194.905359 
L 270.678908 140.555134 
L 271.053538 200.253958 
L 271.428167 197.891605 
L 271.802796 151.813319 
L 272.177425 192.00939 
L 272.552055 191.069462 
L 272.926684 183.611182 
L 273.301313 203.194233 
L 273.675942 142.166551 
L 274.050572 155.191106 
L 274.425201 175.417953 
L 274.79983 176.583604 
L 275.17446 159.916544 
L 275.549089 120.671585 
L 275.923718 147.359446 
L 276.298347 188.521545 
L 276.672977 150.150995 
L 277.047606 176.893316 
L 277.422235 179.28729 
L 277.796864 117.653679 
L 278.171494 185.850291 
L 278.546123 187.648062 
L 278.920752 231.600006 
L 279.295381 215.194686 
L 279.670011 159.887676 
L 280.04464 194.085624 
L 280.419269 157.969237 
L 280.793899 206.616937 
L 281.168528 196.24571 
L 281.543157 153.219995 
L 281.917786 129.756156 
L 282.292416 155.669796 
L 283.041674 122.484094 
L 283.416303 142.312924 
L 283.790933 200.755435 
L 284.540191 154.544146 
L 284.914821 185.728216 
L 285.28945 159.863115 
L 285.664079 220.471208 
L 286.038708 198.075443 
L 286.413338 157.567413 
L 286.787967 240.103846 
L 287.537225 173.877899 
L 287.911855 224.655916 
L 288.286484 171.644694 
L 288.661113 197.207682 
L 289.035742 182.050367 
L 289.410372 181.077233 
L 289.785001 167.700675 
L 290.15963 190.17264 
L 290.53426 170.672942 
L 290.908889 191.287703 
L 291.658147 122.80592 
L 292.032777 167.47459 
L 292.407406 168.280286 
L 292.782035 208.083182 
L 293.156664 152.659136 
L 293.531294 195.969914 
L 293.905923 197.485185 
L 294.280552 156.715191 
L 294.655181 167.946988 
L 295.029811 140.311069 
L 295.40444 130.293737 
L 295.779069 189.453282 
L 296.153699 169.518415 
L 296.528328 120.818395 
L 296.902957 144.507653 
L 297.277586 152.071801 
L 297.652216 134.371995 
L 298.026845 191.390537 
L 298.401474 154.353535 
L 298.776103 131.297063 
L 299.150733 124.981162 
L 299.525362 197.405739 
L 300.27462 161.928964 
L 300.64925 181.972865 
L 301.023879 185.040981 
L 301.398508 152.938585 
L 301.773138 183.894938 
L 302.147767 226.700505 
L 302.522396 162.551661 
L 302.897025 186.016049 
L 303.271655 195.178069 
L 303.646284 220.070811 
L 304.020913 143.096722 
L 304.395542 239.806225 
L 304.770172 224.057299 
L 305.51943 136.67715 
L 305.894059 134.26756 
L 306.268689 207.813866 
L 306.643318 178.649729 
L 307.017947 218.421203 
L 307.392577 143.174766 
L 307.767206 217.409814 
L 308.516464 142.524948 
L 308.891094 179.986019 
L 309.265723 129.4796 
L 309.640352 199.31023 
L 310.014981 162.332541 
L 310.389611 147.887244 
L 310.76424 177.518182 
L 311.138869 131.981567 
L 311.513498 156.992998 
L 311.888128 222.21068 
L 312.262757 55.22448 
L 312.637386 153.993658 
L 313.012016 170.146061 
L 313.386645 215.089759 
L 313.761274 170.909233 
L 314.135903 187.073878 
L 314.510533 154.121671 
L 314.885162 162.258543 
L 315.259791 118.055381 
L 315.63442 169.104403 
L 316.00905 158.026181 
L 316.383679 162.235072 
L 316.758308 177.78012 
L 317.132938 178.821846 
L 317.507567 140.495338 
L 317.882196 150.073175 
L 318.256825 192.131722 
L 318.631455 206.574118 
L 319.380713 138.691815 
L 319.755342 174.170661 
L 320.129972 121.235561 
L 320.504601 196.477282 
L 320.87923 169.122631 
L 321.253859 248.435692 
L 321.628489 191.123914 
L 322.003118 182.573365 
L 322.377747 158.102801 
L 322.752377 122.303035 
L 323.127006 172.306468 
L 323.501635 129.964284 
L 323.876264 153.604621 
L 324.250894 143.916435 
L 324.625523 187.259245 
L 325.000152 132.021043 
L 325.374781 205.366438 
L 325.749411 158.573651 
L 326.12404 201.758718 
L 326.498669 188.810648 
L 326.873298 216.957468 
L 327.622557 162.871856 
L 327.997186 175.401295 
L 328.371816 213.56649 
L 328.746445 129.462307 
L 329.121074 163.286512 
L 329.495703 143.268512 
L 329.870333 149.918013 
L 330.619591 231.389386 
L 330.99422 200.665448 
L 331.36885 136.790534 
L 331.743479 204.786999 
L 332.118108 148.998441 
L 332.492737 191.623408 
L 332.867367 161.618805 
L 333.241996 227.774953 
L 333.616625 138.523661 
L 333.991255 174.532898 
L 334.365884 146.916143 
L 334.740513 167.683713 
L 335.115142 149.534961 
L 335.489772 176.390836 
L 335.864401 151.167425 
L 336.23903 218.394833 
L 336.613659 205.597591 
L 336.988289 151.70104 
L 337.362918 174.518264 
L 337.737547 180.175209 
L 338.112176 178.708815 
L 338.486806 158.377707 
L 338.861435 191.054562 
L 339.236064 158.121606 
L 339.610694 200.676413 
L 339.985323 185.501585 
L 340.359952 143.958227 
L 340.734581 141.383012 
L 341.109211 206.088271 
L 341.48384 148.324324 
L 341.858469 204.358385 
L 342.233098 151.475771 
L 342.607728 230.009736 
L 343.356986 188.536917 
L 343.731615 178.317125 
L 344.106245 130.86853 
L 344.480874 146.373849 
L 344.855503 126.337222 
L 345.230133 137.344005 
L 345.604762 181.789833 
L 345.979391 181.296379 
L 346.35402 141.451071 
L 346.72865 172.144501 
L 347.103279 178.033876 
L 347.477908 213.191634 
L 347.852537 176.525954 
L 348.227167 256.632517 
L 348.601796 186.959732 
L 348.976425 202.58911 
L 349.351055 152.682766 
L 349.725684 187.632768 
L 350.100313 183.168083 
L 350.474942 133.151557 
L 350.849572 204.653366 
L 351.224201 163.900083 
L 351.59883 229.90395 
L 351.973459 170.671668 
L 352.348089 161.106855 
L 352.722718 147.690635 
L 353.097347 200.165891 
L 353.471976 163.810621 
L 353.846606 163.855463 
L 354.221235 173.923056 
L 354.595864 168.872699 
L 354.970494 159.51732 
L 355.345123 161.476433 
L 355.719752 203.070149 
L 356.094381 209.033692 
L 356.469011 98.570733 
L 356.84364 116.062583 
L 357.218269 214.87733 
L 357.592898 159.914687 
L 357.967528 154.626462 
L 358.342157 150.929281 
L 358.716786 169.159785 
L 359.091415 201.007043 
L 359.466045 178.792609 
L 359.840674 188.004359 
L 360.215303 169.339491 
L 360.589933 181.357384 
L 360.964562 177.278385 
L 361.339191 142.955579 
L 361.71382 136.629328 
L 362.08845 208.593303 
L 362.463079 187.073499 
L 362.837708 196.946655 
L 363.212337 136.833314 
L 363.586967 175.120723 
L 363.961596 130.111341 
L 364.336225 187.600197 
L 364.710854 172.573345 
L 365.085484 213.594286 
L 365.460113 134.481524 
L 365.834742 184.169529 
L 366.209372 217.666253 
L 366.584001 191.028229 
L 366.95863 242.127637 
L 367.333259 174.298609 
L 368.082518 164.752932 
L 368.457147 128.645636 
L 368.831776 182.330313 
L 369.206406 149.2547 
L 369.955664 179.117902 
L 370.330293 235.320957 
L 370.704923 145.07575 
L 371.079552 188.387767 
L 371.454181 172.813381 
L 371.828811 211.259734 
L 372.20344 164.904598 
L 372.578069 170.125545 
L 372.952698 172.471363 
L 373.327328 177.371411 
L 373.701957 142.040511 
L 374.076586 144.517154 
L 374.451215 151.687826 
L 374.825845 74.248194 
L 375.200474 191.259908 
L 375.575103 184.673987 
L 375.949732 203.630927 
L 376.324362 160.339356 
L 376.698991 193.863808 
L 377.07362 253.868299 
L 377.822879 171.193188 
L 378.197508 143.21713 
L 378.572137 219.808321 
L 378.946767 191.624458 
L 379.321396 177.507442 
L 379.696025 195.088743 
L 380.070654 157.499257 
L 380.445284 173.229799 
L 380.819913 163.76261 
L 381.194542 194.989598 
L 381.569172 127.49894 
L 381.943801 173.360375 
L 382.31843 134.749664 
L 382.693059 186.448875 
L 383.067689 155.742407 
L 383.442318 193.621997 
L 383.816947 201.724316 
L 384.191576 194.366998 
L 384.566206 174.717846 
L 384.940835 179.876191 
L 385.315464 127.419247 
L 385.690093 207.626519 
L 386.064723 205.88488 
L 386.439352 122.61557 
L 386.813981 155.18308 
L 387.188611 229.490485 
L 387.56324 158.510675 
L 387.937869 166.267177 
L 388.312498 237.339395 
L 388.687128 184.376927 
L 389.061757 173.87004 
L 389.436386 151.524133 
L 389.811015 144.867034 
L 390.185645 170.492101 
L 390.560274 142.511012 
L 390.934903 177.713979 
L 391.309532 198.93689 
L 391.684162 201.225171 
L 392.058791 157.156649 
L 392.43342 231.78095 
L 392.80805 153.123406 
L 393.182679 206.369325 
L 394.306567 137.005828 
L 394.681196 231.259104 
L 395.430454 171.885184 
L 395.805084 191.136401 
L 396.179713 147.638351 
L 396.554342 235.607079 
L 396.928971 162.553023 
L 397.303601 160.639726 
L 397.67823 171.884625 
L 398.052859 140.45844 
L 398.427489 210.03968 
L 398.802118 140.26806 
L 399.176747 194.324329 
L 399.551376 151.698757 
L 399.926006 183.023438 
L 400.300635 149.049185 
L 400.675264 150.059962 
L 401.049893 217.036543 
L 401.424523 177.959202 
L 401.799152 176.107365 
L 402.173781 180.447382 
L 402.54841 195.898161 
L 402.92304 118.102278 
L 403.297669 167.10974 
L 403.672298 126.947507 
L 404.046928 190.33258 
L 404.421557 205.0332 
L 404.796186 169.402911 
L 405.170815 190.156165 
L 405.545445 102.027229 
L 405.920074 166.025767 
L 406.294703 138.955626 
L 406.669332 180.04038 
L 407.043962 183.078854 
L 407.418591 174.271581 
L 408.167849 147.997513 
L 408.542479 176.99426 
L 408.917108 193.665795 
L 409.291737 205.214621 
L 409.666367 175.637297 
L 410.040996 156.251977 
L 410.415625 159.684044 
L 411.164884 191.257326 
L 411.539513 168.969709 
L 411.914142 156.286527 
L 412.288771 174.447823 
L 412.663401 169.996109 
L 413.03803 177.840233 
L 413.412659 146.030686 
L 413.787289 186.42508 
L 414.161918 167.812801 
L 414.536547 161.579452 
L 414.911176 151.699591 
L 415.285806 128.711983 
L 415.660435 153.193643 
L 416.035064 155.468661 
L 416.409693 217.221059 
L 417.158952 104.904651 
L 417.533581 198.116712 
L 417.90821 203.771657 
L 418.28284 179.754455 
L 418.657469 142.87514 
L 419.032098 157.69063 
L 419.406728 187.586571 
L 419.781357 174.423131 
L 420.155986 142.403941 
L 420.530615 153.278211 
L 420.905245 100.871496 
L 421.279874 143.339494 
L 421.654503 162.798739 
L 422.029132 155.005752 
L 422.403762 183.762873 
L 422.778391 202.525931 
L 423.15302 168.217984 
L 423.527649 158.710843 
L 423.902279 214.98443 
L 424.276908 188.936301 
L 424.651537 184.367781 
L 425.026167 165.422415 
L 425.400796 181.121492 
L 425.775425 160.067499 
L 426.150054 170.421515 
L 426.524684 141.709012 
L 426.899313 224.410427 
L 427.273942 123.900585 
L 427.648571 131.045792 
L 428.023201 171.847723 
L 428.39783 153.94354 
L 428.772459 155.24978 
L 429.147088 195.349907 
L 429.521718 168.435579 
L 429.896347 150.128467 
L 430.270976 164.104252 
L 430.645606 141.977773 
L 431.020235 170.5145 
L 431.394864 170.939575 
L 431.769493 196.260448 
L 432.144123 184.227 
L 432.518752 187.06716 
L 432.893381 122.457556 
L 433.64264 203.172071 
L 434.017269 161.455009 
L 434.391898 179.078575 
L 434.766527 264.473514 
L 435.141157 159.03039 
L 435.515786 219.681716 
L 435.890415 156.087806 
L 436.265045 202.03329 
L 436.639674 216.865586 
L 437.014303 158.59803 
L 437.388932 217.935926 
L 437.763562 186.678689 
L 438.138191 167.250563 
L 438.51282 155.080166 
L 438.887449 151.12183 
L 439.636708 198.187862 
L 440.011337 115.942532 
L 440.385966 191.431667 
L 440.760596 119.530089 
L 441.135225 186.85253 
L 441.509854 138.696419 
L 441.884484 141.421413 
L 442.259113 204.547926 
L 442.633742 162.747495 
L 443.008371 150.808286 
L 443.383001 152.431878 
L 443.75763 179.285478 
L 444.132259 164.338697 
L 444.881518 208.316096 
L 445.256147 143.986259 
L 445.630776 190.050078 
L 446.005406 132.1772 
L 446.380035 155.37205 
L 446.754664 199.985761 
L 447.129293 178.159342 
L 447.503923 181.89491 
L 447.878552 199.336472 
L 448.253181 158.386525 
L 448.62781 187.631028 
L 449.00244 124.65951 
L 449.377069 147.66019 
L 449.751698 199.614026 
L 450.126327 173.91616 
L 450.500957 180.115709 
L 450.875586 220.034099 
L 451.250215 145.560515 
L 451.624845 145.006889 
L 451.999474 145.732228 
L 452.374103 186.985702 
L 452.748732 141.450643 
L 453.123362 179.608212 
L 453.87262 119.263354 
L 454.621879 215.696584 
L 455.371137 154.222166 
L 455.745766 136.948133 
L 456.120396 207.181539 
L 456.495025 179.035146 
L 456.869654 166.386345 
L 457.244284 160.368834 
L 457.618913 146.182144 
L 457.993542 201.650624 
L 458.368171 185.985777 
L 458.742801 143.271465 
L 459.11743 161.641911 
L 459.492059 159.969506 
L 459.866688 139.769531 
L 460.241318 170.244231 
L 460.615947 157.593562 
L 461.365205 213.484283 
L 461.739835 211.99968 
L 462.114464 171.131459 
L 462.489093 179.304076 
L 462.863723 192.882543 
L 463.238352 163.859638 
L 463.612981 199.914888 
L 463.98761 170.02688 
L 464.36224 173.931738 
L 464.736869 198.414454 
L 465.111498 241.927648 
L 465.486127 129.886407 
L 465.860757 163.900729 
L 466.235386 252.846702 
L 466.610015 186.073814 
L 466.984644 161.598559 
L 467.359274 180.156903 
L 467.733903 156.032134 
L 468.108532 202.391489 
L 468.483162 168.122179 
L 468.857791 174.945138 
L 469.23242 178.811754 
L 469.607049 179.944687 
L 469.981679 167.388359 
L 470.356308 145.516777 
L 470.730937 189.167959 
L 471.105566 185.501227 
L 471.480196 168.557925 
L 471.854825 176.93446 
L 472.229454 161.842812 
L 472.604083 151.915389 
L 472.978713 134.820108 
L 473.353342 176.823878 
L 473.727971 241.303757 
L 474.102601 175.426781 
L 474.47723 162.789691 
L 474.851859 178.927922 
L 475.226488 177.921751 
L 475.601118 245.935238 
L 475.975747 158.190932 
L 476.350376 183.018309 
L 476.725005 218.43971 
L 477.099635 199.352419 
L 477.474264 199.15571 
L 477.848893 155.184112 
L 478.223523 156.589904 
L 478.598152 128.149033 
L 478.972781 154.015108 
L 479.34741 213.682402 
L 479.72204 215.399989 
L 480.096669 139.60834 
L 480.471298 126.599268 
L 480.845927 180.443588 
L 481.220557 156.674503 
L 481.595186 218.25514 
L 481.969815 231.35581 
L 482.719074 184.00766 
L 483.093703 188.907056 
L 483.468332 180.215788 
L 483.842962 188.001055 
L 484.217591 153.078838 
L 484.59222 130.751183 
L 484.966849 172.269052 
L 485.341479 112.774059 
L 485.716108 192.279821 
L 486.090737 189.01827 
L 486.465366 161.779182 
L 486.839996 183.936379 
L 487.214625 138.225945 
L 487.589254 192.479842 
L 487.963883 133.879996 
L 488.338513 167.555002 
L 488.713142 96.796073 
L 489.087771 187.198373 
L 489.462401 179.397571 
L 489.83703 169.002934 
L 490.211659 238.431059 
L 490.586288 155.377593 
L 490.960918 159.000736 
L 491.335547 170.087124 
L 491.710176 219.433955 
L 492.084805 219.498566 
L 492.459435 155.844488 
L 493.208693 125.77036 
L 493.583322 200.069159 
L 493.957952 204.108198 
L 494.332581 181.463838 
L 494.70721 232.304972 
L 495.456469 147.931782 
L 495.831098 124.572646 
L 496.205727 165.019186 
L 496.580357 124.395064 
L 496.954986 161.088736 
L 497.329615 167.638885 
L 497.704244 178.464989 
L 498.078874 167.770983 
L 498.453503 180.953996 
L 498.828132 177.553961 
L 499.202761 193.100037 
L 499.577391 165.619672 
L 499.95202 172.918044 
L 500.326649 217.499853 
L 500.701279 180.531687 
L 501.075908 198.882419 
L 501.450537 234.467486 
L 501.825166 158.910096 
L 502.574425 102.636436 
L 502.949054 126.726586 
L 503.323683 199.333903 
L 503.698313 138.279874 
L 504.072942 139.931398 
L 504.447571 232.666018 
L 504.8222 147.648335 
L 505.19683 154.634222 
L 505.571459 168.490986 
L 505.946088 164.736862 
L 506.320718 171.609292 
L 506.695347 124.652219 
L 507.069976 185.338563 
L 507.819235 173.128697 
L 508.193864 165.123368 
L 508.568493 225.964558 
L 508.943122 131.932046 
L 509.317752 166.599384 
L 509.692381 156.366506 
L 510.44164 178.912592 
L 510.44164 178.912592 
" style="fill:none;stroke:#6083a9;stroke-linecap:square;stroke-width:1.5;"/>
   </g>
   <g id="line2d_27">
    <path clip-path="url(#pa58b9fc4db)" d="M 80.105 142.702258 
L 530.93386 142.702258 
" style="fill:none;stroke:#eb5757;stroke-linecap:square;stroke-width:2;"/>
   </g>
   <g id="line2d_28">
    <path clip-path="url(#pa58b9fc4db)" d="M 80.105 201.763803 
L 530.93386 201.763803 
" style="fill:none;stroke:#eb5757;stroke-linecap:square;stroke-width:2;"/>
   </g>
   <g id="patch_3">
    <path d="M 80.105 323.7575 
L 80.105 25.3575 
" style="fill:none;"/>
   </g>
   <g id="patch_4">
    <path d="M 530.93386 323.7575 
L 530.93386 25.3575 
" style="fill:none;"/>
   </g>
   <g id="patch_5">
    <path d="M 80.105 323.7575 
L 530.93386 323.7575 
" style="fill:none;"/>
   </g>
   <g id="patch_6">
    <path d="M 80.105 25.3575 
L 530.93386 25.3575 
" style="fill:none;"/>
   </g>
   <g id="text_18">
    <!-- Investment A -->
    <defs>
     <path d="M 9.8125 72.90625 
L 19.671875 72.90625 
L 19.671875 0 
L 9.8125 0 
z
" id="DejaVuSans-73"/>
     <path d="M 2.984375 54.6875 
L 12.5 54.6875 
L 29.59375 8.796875 
L 46.6875 54.6875 
L 56.203125 54.6875 
L 35.6875 0 
L 23.484375 0 
z
" id="DejaVuSans-118"/>
     <path d="M 44.28125 53.078125 
L 44.28125 44.578125 
Q 40.484375 46.53125 36.375 47.5 
Q 32.28125 48.484375 27.875 48.484375 
Q 21.1875 48.484375 17.84375 46.4375 
Q 14.5 44.390625 14.5 40.28125 
Q 14.5 37.15625 16.890625 35.375 
Q 19.28125 33.59375 26.515625 31.984375 
L 29.59375 31.296875 
Q 39.15625 29.25 43.1875 25.515625 
Q 47.21875 21.78125 47.21875 15.09375 
Q 47.21875 7.46875 41.1875 3.015625 
Q 35.15625 -1.421875 24.609375 -1.421875 
Q 20.21875 -1.421875 15.453125 -0.5625 
Q 10.6875 0.296875 5.421875 2 
L 5.421875 11.28125 
Q 10.40625 8.6875 15.234375 7.390625 
Q 20.0625 6.109375 24.8125 6.109375 
Q 31.15625 6.109375 34.5625 8.28125 
Q 37.984375 10.453125 37.984375 14.40625 
Q 37.984375 18.0625 35.515625 20.015625 
Q 33.0625 21.96875 24.703125 23.78125 
L 21.578125 24.515625 
Q 13.234375 26.265625 9.515625 29.90625 
Q 5.8125 33.546875 5.8125 39.890625 
Q 5.8125 47.609375 11.28125 51.796875 
Q 16.75 56 26.8125 56 
Q 31.78125 56 36.171875 55.265625 
Q 40.578125 54.546875 44.28125 53.078125 
z
" id="DejaVuSans-115"/>
     <path d="M 52 44.1875 
Q 55.375 50.25 60.0625 53.125 
Q 64.75 56 71.09375 56 
Q 79.640625 56 84.28125 50.015625 
Q 88.921875 44.046875 88.921875 33.015625 
L 88.921875 0 
L 79.890625 0 
L 79.890625 32.71875 
Q 79.890625 40.578125 77.09375 44.375 
Q 74.3125 48.1875 68.609375 48.1875 
Q 61.625 48.1875 57.5625 43.546875 
Q 53.515625 38.921875 53.515625 30.90625 
L 53.515625 0 
L 44.484375 0 
L 44.484375 32.71875 
Q 44.484375 40.625 41.703125 44.40625 
Q 38.921875 48.1875 33.109375 48.1875 
Q 26.21875 48.1875 22.15625 43.53125 
Q 18.109375 38.875 18.109375 30.90625 
L 18.109375 0 
L 9.078125 0 
L 9.078125 54.6875 
L 18.109375 54.6875 
L 18.109375 46.1875 
Q 21.1875 51.21875 25.484375 53.609375 
Q 29.78125 56 35.6875 56 
Q 41.65625 56 45.828125 52.96875 
Q 50 49.953125 52 44.1875 
z
" id="DejaVuSans-109"/>
     <path d="M 34.1875 63.1875 
L 20.796875 26.90625 
L 47.609375 26.90625 
z
M 28.609375 72.90625 
L 39.796875 72.90625 
L 67.578125 0 
L 57.328125 0 
L 50.6875 18.703125 
L 17.828125 18.703125 
L 11.1875 0 
L 0.78125 0 
z
" id="DejaVuSans-65"/>
    </defs>
    <g style="fill:#2f2235;" transform="translate(252.19193 19.3575)scale(0.16 -0.16)">
     <use xlink:href="#DejaVuSans-73"/>
     <use x="29.492188" xlink:href="#DejaVuSans-110"/>
     <use x="92.871094" xlink:href="#DejaVuSans-118"/>
     <use x="152.050781" xlink:href="#DejaVuSans-101"/>
     <use x="213.574219" xlink:href="#DejaVuSans-115"/>
     <use x="265.673828" xlink:href="#DejaVuSans-116"/>
     <use x="304.882812" xlink:href="#DejaVuSans-109"/>
     <use x="402.294922" xlink:href="#DejaVuSans-101"/>
     <use x="463.818359" xlink:href="#DejaVuSans-110"/>
     <use x="527.197266" xlink:href="#DejaVuSans-116"/>
     <use x="566.40625" xlink:href="#DejaVuSans-32"/>
     <use x="598.193359" xlink:href="#DejaVuSans-65"/>
    </g>
   </g>
   <g id="legend_1">
    <g id="line2d_29">
     <path d="M 429.52636 43.015 
L 449.52636 43.015 
" style="fill:none;stroke:#eb5757;stroke-linecap:square;stroke-width:2;"/>
    </g>
    <g id="line2d_30"/>
    <g id="text_19">
     <!-- std. dev -->
     <defs>
      <path d="M 45.40625 46.390625 
L 45.40625 75.984375 
L 54.390625 75.984375 
L 54.390625 0 
L 45.40625 0 
L 45.40625 8.203125 
Q 42.578125 3.328125 38.25 0.953125 
Q 33.9375 -1.421875 27.875 -1.421875 
Q 17.96875 -1.421875 11.734375 6.484375 
Q 5.515625 14.40625 5.515625 27.296875 
Q 5.515625 40.1875 11.734375 48.09375 
Q 17.96875 56 27.875 56 
Q 33.9375 56 38.25 53.625 
Q 42.578125 51.265625 45.40625 46.390625 
z
M 14.796875 27.296875 
Q 14.796875 17.390625 18.875 11.75 
Q 22.953125 6.109375 30.078125 6.109375 
Q 37.203125 6.109375 41.296875 11.75 
Q 45.40625 17.390625 45.40625 27.296875 
Q 45.40625 37.203125 41.296875 42.84375 
Q 37.203125 48.484375 30.078125 48.484375 
Q 22.953125 48.484375 18.875 42.84375 
Q 14.796875 37.203125 14.796875 27.296875 
z
" id="DejaVuSans-100"/>
     </defs>
     <g style="fill:#2f2235;" transform="translate(457.52636 46.515)scale(0.16 -0.16)">
      <use xlink:href="#DejaVuSans-115"/>
      <use x="52.099609" xlink:href="#DejaVuSans-116"/>
      <use x="91.308594" xlink:href="#DejaVuSans-100"/>
      <use x="154.785156" xlink:href="#DejaVuSans-46"/>
      <use x="186.572266" xlink:href="#DejaVuSans-32"/>
      <use x="218.359375" xlink:href="#DejaVuSans-100"/>
      <use x="281.835938" xlink:href="#DejaVuSans-101"/>
      <use x="343.359375" xlink:href="#DejaVuSans-118"/>
     </g>
    </g>
   </g>
   <g id="patch_7">
    <path clip-path="url(#pa58b9fc4db)" d="M 80.105 142.702258 
L 80.105 201.763803 
L 530.93386 201.763803 
L 530.93386 142.702258 
z
" style="fill:#eb5757;opacity:0.5;"/>
   </g>
  </g>
  <g id="axes_2">
   <g id="patch_8">
    <path d="M 614.705 323.7575 
L 1065.53386 323.7575 
L 1065.53386 25.3575 
L 614.705 25.3575 
z
" style="fill:none;"/>
   </g>
   <g id="matplotlib.axis_3">
    <g id="xtick_8">
     <g id="line2d_31">
      <g>
       <use style="fill:#003559;stroke:#003559;stroke-width:0.8;" x="635.197221" xlink:href="#me1f92db490" y="323.7575"/>
      </g>
     </g>
     <g id="text_20">
      <!-- 2010 -->
      <g style="fill:#2f2235;" transform="translate(614.837221 342.915)scale(0.16 -0.16)">
       <use xlink:href="#DejaVuSans-50"/>
       <use x="63.623047" xlink:href="#DejaVuSans-48"/>
       <use x="127.246094" xlink:href="#DejaVuSans-49"/>
       <use x="190.869141" xlink:href="#DejaVuSans-48"/>
      </g>
     </g>
    </g>
    <g id="xtick_9">
     <g id="line2d_32">
      <g>
       <use style="fill:#003559;stroke:#003559;stroke-width:0.8;" x="703.005118" xlink:href="#me1f92db490" y="323.7575"/>
      </g>
     </g>
     <g id="text_21">
      <!-- Jul -->
      <g style="fill:#2f2235;" transform="translate(693.352618 342.915)scale(0.16 -0.16)">
       <use xlink:href="#DejaVuSans-74"/>
       <use x="29.492188" xlink:href="#DejaVuSans-117"/>
       <use x="92.871094" xlink:href="#DejaVuSans-108"/>
      </g>
     </g>
    </g>
    <g id="xtick_10">
     <g id="line2d_33">
      <g>
       <use style="fill:#003559;stroke:#003559;stroke-width:0.8;" x="771.936904" xlink:href="#me1f92db490" y="323.7575"/>
      </g>
     </g>
     <g id="text_22">
      <!-- 2011 -->
      <g style="fill:#2f2235;" transform="translate(751.576904 342.915)scale(0.16 -0.16)">
       <use xlink:href="#DejaVuSans-50"/>
       <use x="63.623047" xlink:href="#DejaVuSans-48"/>
       <use x="127.246094" xlink:href="#DejaVuSans-49"/>
       <use x="190.869141" xlink:href="#DejaVuSans-49"/>
      </g>
     </g>
    </g>
    <g id="xtick_11">
     <g id="line2d_34">
      <g>
       <use style="fill:#003559;stroke:#003559;stroke-width:0.8;" x="839.744801" xlink:href="#me1f92db490" y="323.7575"/>
      </g>
     </g>
     <g id="text_23">
      <!-- Jul -->
      <g style="fill:#2f2235;" transform="translate(830.092301 342.915)scale(0.16 -0.16)">
       <use xlink:href="#DejaVuSans-74"/>
       <use x="29.492188" xlink:href="#DejaVuSans-117"/>
       <use x="92.871094" xlink:href="#DejaVuSans-108"/>
      </g>
     </g>
    </g>
    <g id="xtick_12">
     <g id="line2d_35">
      <g>
       <use style="fill:#003559;stroke:#003559;stroke-width:0.8;" x="908.676586" xlink:href="#me1f92db490" y="323.7575"/>
      </g>
     </g>
     <g id="text_24">
      <!-- 2012 -->
      <g style="fill:#2f2235;" transform="translate(888.316586 342.915)scale(0.16 -0.16)">
       <use xlink:href="#DejaVuSans-50"/>
       <use x="63.623047" xlink:href="#DejaVuSans-48"/>
       <use x="127.246094" xlink:href="#DejaVuSans-49"/>
       <use x="190.869141" xlink:href="#DejaVuSans-50"/>
      </g>
     </g>
    </g>
    <g id="xtick_13">
     <g id="line2d_36">
      <g>
       <use style="fill:#003559;stroke:#003559;stroke-width:0.8;" x="976.859113" xlink:href="#me1f92db490" y="323.7575"/>
      </g>
     </g>
     <g id="text_25">
      <!-- Jul -->
      <g style="fill:#2f2235;" transform="translate(967.206613 342.915)scale(0.16 -0.16)">
       <use xlink:href="#DejaVuSans-74"/>
       <use x="29.492188" xlink:href="#DejaVuSans-117"/>
       <use x="92.871094" xlink:href="#DejaVuSans-108"/>
      </g>
     </g>
    </g>
    <g id="xtick_14">
     <g id="line2d_37">
      <g>
       <use style="fill:#003559;stroke:#003559;stroke-width:0.8;" x="1045.790898" xlink:href="#me1f92db490" y="323.7575"/>
      </g>
     </g>
     <g id="text_26">
      <!-- 2013 -->
      <g style="fill:#2f2235;" transform="translate(1025.430898 342.915)scale(0.16 -0.16)">
       <use xlink:href="#DejaVuSans-50"/>
       <use x="63.623047" xlink:href="#DejaVuSans-48"/>
       <use x="127.246094" xlink:href="#DejaVuSans-49"/>
       <use x="190.869141" xlink:href="#DejaVuSans-51"/>
      </g>
     </g>
    </g>
   </g>
   <g id="matplotlib.axis_4">
    <g id="ytick_10">
     <g id="line2d_38">
      <path clip-path="url(#p093a35ad47)" d="M 614.705 323.7575 
L 1065.53386 323.7575 
" style="fill:none;stroke:#f0f0f0;stroke-linecap:square;"/>
     </g>
     <g id="line2d_39">
      <g>
       <use style="fill:#003559;stroke:#003559;stroke-width:0.8;" x="614.705" xlink:href="#me2deb9d672" y="323.7575"/>
      </g>
     </g>
     <g id="text_27">
      <!-- -1.0% -->
      <g style="fill:#2f2235;" transform="translate(561.285 329.83625)scale(0.16 -0.16)">
       <use xlink:href="#DejaVuSans-45"/>
       <use x="36.083984" xlink:href="#DejaVuSans-49"/>
       <use x="99.707031" xlink:href="#DejaVuSans-46"/>
       <use x="131.494141" xlink:href="#DejaVuSans-48"/>
       <use x="195.117188" xlink:href="#DejaVuSans-37"/>
      </g>
     </g>
    </g>
    <g id="ytick_11">
     <g id="line2d_40">
      <path clip-path="url(#p093a35ad47)" d="M 614.705 286.4575 
L 1065.53386 286.4575 
" style="fill:none;stroke:#f0f0f0;stroke-linecap:square;"/>
     </g>
     <g id="line2d_41">
      <g>
       <use style="fill:#003559;stroke:#003559;stroke-width:0.8;" x="614.705" xlink:href="#me2deb9d672" y="286.4575"/>
      </g>
     </g>
     <g id="text_28">
      <!-- -0.8% -->
      <g style="fill:#2f2235;" transform="translate(561.285 292.53625)scale(0.16 -0.16)">
       <use xlink:href="#DejaVuSans-45"/>
       <use x="36.083984" xlink:href="#DejaVuSans-48"/>
       <use x="99.707031" xlink:href="#DejaVuSans-46"/>
       <use x="131.494141" xlink:href="#DejaVuSans-56"/>
       <use x="195.117188" xlink:href="#DejaVuSans-37"/>
      </g>
     </g>
    </g>
    <g id="ytick_12">
     <g id="line2d_42">
      <path clip-path="url(#p093a35ad47)" d="M 614.705 249.1575 
L 1065.53386 249.1575 
" style="fill:none;stroke:#f0f0f0;stroke-linecap:square;"/>
     </g>
     <g id="line2d_43">
      <g>
       <use style="fill:#003559;stroke:#003559;stroke-width:0.8;" x="614.705" xlink:href="#me2deb9d672" y="249.1575"/>
      </g>
     </g>
     <g id="text_29">
      <!-- -0.5% -->
      <g style="fill:#2f2235;" transform="translate(561.285 255.23625)scale(0.16 -0.16)">
       <use xlink:href="#DejaVuSans-45"/>
       <use x="36.083984" xlink:href="#DejaVuSans-48"/>
       <use x="99.707031" xlink:href="#DejaVuSans-46"/>
       <use x="131.494141" xlink:href="#DejaVuSans-53"/>
       <use x="195.117188" xlink:href="#DejaVuSans-37"/>
      </g>
     </g>
    </g>
    <g id="ytick_13">
     <g id="line2d_44">
      <path clip-path="url(#p093a35ad47)" d="M 614.705 211.8575 
L 1065.53386 211.8575 
" style="fill:none;stroke:#f0f0f0;stroke-linecap:square;"/>
     </g>
     <g id="line2d_45">
      <g>
       <use style="fill:#003559;stroke:#003559;stroke-width:0.8;" x="614.705" xlink:href="#me2deb9d672" y="211.8575"/>
      </g>
     </g>
     <g id="text_30">
      <!-- -0.3% -->
      <g style="fill:#2f2235;" transform="translate(561.285 217.93625)scale(0.16 -0.16)">
       <use xlink:href="#DejaVuSans-45"/>
       <use x="36.083984" xlink:href="#DejaVuSans-48"/>
       <use x="99.707031" xlink:href="#DejaVuSans-46"/>
       <use x="131.494141" xlink:href="#DejaVuSans-51"/>
       <use x="195.117188" xlink:href="#DejaVuSans-37"/>
      </g>
     </g>
    </g>
    <g id="ytick_14">
     <g id="line2d_46">
      <path clip-path="url(#p093a35ad47)" d="M 614.705 174.5575 
L 1065.53386 174.5575 
" style="fill:none;stroke:#f0f0f0;stroke-linecap:square;"/>
     </g>
     <g id="line2d_47">
      <g>
       <use style="fill:#003559;stroke:#003559;stroke-width:0.8;" x="614.705" xlink:href="#me2deb9d672" y="174.5575"/>
      </g>
     </g>
     <g id="text_31">
      <!-- 0.0% -->
      <g style="fill:#2f2235;" transform="translate(567.0575 180.63625)scale(0.16 -0.16)">
       <use xlink:href="#DejaVuSans-48"/>
       <use x="63.623047" xlink:href="#DejaVuSans-46"/>
       <use x="95.410156" xlink:href="#DejaVuSans-48"/>
       <use x="159.033203" xlink:href="#DejaVuSans-37"/>
      </g>
     </g>
    </g>
    <g id="ytick_15">
     <g id="line2d_48">
      <path clip-path="url(#p093a35ad47)" d="M 614.705 137.2575 
L 1065.53386 137.2575 
" style="fill:none;stroke:#f0f0f0;stroke-linecap:square;"/>
     </g>
     <g id="line2d_49">
      <g>
       <use style="fill:#003559;stroke:#003559;stroke-width:0.8;" x="614.705" xlink:href="#me2deb9d672" y="137.2575"/>
      </g>
     </g>
     <g id="text_32">
      <!-- 0.3% -->
      <g style="fill:#2f2235;" transform="translate(567.0575 143.33625)scale(0.16 -0.16)">
       <use xlink:href="#DejaVuSans-48"/>
       <use x="63.623047" xlink:href="#DejaVuSans-46"/>
       <use x="95.410156" xlink:href="#DejaVuSans-51"/>
       <use x="159.033203" xlink:href="#DejaVuSans-37"/>
      </g>
     </g>
    </g>
    <g id="ytick_16">
     <g id="line2d_50">
      <path clip-path="url(#p093a35ad47)" d="M 614.705 99.9575 
L 1065.53386 99.9575 
" style="fill:none;stroke:#f0f0f0;stroke-linecap:square;"/>
     </g>
     <g id="line2d_51">
      <g>
       <use style="fill:#003559;stroke:#003559;stroke-width:0.8;" x="614.705" xlink:href="#me2deb9d672" y="99.9575"/>
      </g>
     </g>
     <g id="text_33">
      <!-- 0.5% -->
      <g style="fill:#2f2235;" transform="translate(567.0575 106.03625)scale(0.16 -0.16)">
       <use xlink:href="#DejaVuSans-48"/>
       <use x="63.623047" xlink:href="#DejaVuSans-46"/>
       <use x="95.410156" xlink:href="#DejaVuSans-53"/>
       <use x="159.033203" xlink:href="#DejaVuSans-37"/>
      </g>
     </g>
    </g>
    <g id="ytick_17">
     <g id="line2d_52">
      <path clip-path="url(#p093a35ad47)" d="M 614.705 62.6575 
L 1065.53386 62.6575 
" style="fill:none;stroke:#f0f0f0;stroke-linecap:square;"/>
     </g>
     <g id="line2d_53">
      <g>
       <use style="fill:#003559;stroke:#003559;stroke-width:0.8;" x="614.705" xlink:href="#me2deb9d672" y="62.6575"/>
      </g>
     </g>
     <g id="text_34">
      <!-- 0.8% -->
      <g style="fill:#2f2235;" transform="translate(567.0575 68.73625)scale(0.16 -0.16)">
       <use xlink:href="#DejaVuSans-48"/>
       <use x="63.623047" xlink:href="#DejaVuSans-46"/>
       <use x="95.410156" xlink:href="#DejaVuSans-56"/>
       <use x="159.033203" xlink:href="#DejaVuSans-37"/>
      </g>
     </g>
    </g>
    <g id="ytick_18">
     <g id="line2d_54">
      <path clip-path="url(#p093a35ad47)" d="M 614.705 25.3575 
L 1065.53386 25.3575 
" style="fill:none;stroke:#f0f0f0;stroke-linecap:square;"/>
     </g>
     <g id="line2d_55">
      <g>
       <use style="fill:#003559;stroke:#003559;stroke-width:0.8;" x="614.705" xlink:href="#me2deb9d672" y="25.3575"/>
      </g>
     </g>
     <g id="text_35">
      <!-- 1.0% -->
      <g style="fill:#2f2235;" transform="translate(567.0575 31.43625)scale(0.16 -0.16)">
       <use xlink:href="#DejaVuSans-49"/>
       <use x="63.623047" xlink:href="#DejaVuSans-46"/>
       <use x="95.410156" xlink:href="#DejaVuSans-48"/>
       <use x="159.033203" xlink:href="#DejaVuSans-37"/>
      </g>
     </g>
    </g>
    <g id="text_36">
     <!-- Daily return -->
     <g style="fill:#2f2235;" transform="translate(553.9575 222.115)rotate(-90)scale(0.16 -0.16)">
      <use xlink:href="#DejaVuSans-68"/>
      <use x="77.001953" xlink:href="#DejaVuSans-97"/>
      <use x="138.28125" xlink:href="#DejaVuSans-105"/>
      <use x="166.064453" xlink:href="#DejaVuSans-108"/>
      <use x="193.847656" xlink:href="#DejaVuSans-121"/>
      <use x="253.027344" xlink:href="#DejaVuSans-32"/>
      <use x="284.814453" xlink:href="#DejaVuSans-114"/>
      <use x="325.896484" xlink:href="#DejaVuSans-101"/>
      <use x="387.419922" xlink:href="#DejaVuSans-116"/>
      <use x="426.628906" xlink:href="#DejaVuSans-117"/>
      <use x="490.007812" xlink:href="#DejaVuSans-114"/>
      <use x="531.105469" xlink:href="#DejaVuSans-110"/>
     </g>
    </g>
   </g>
   <g id="line2d_56">
    <path clip-path="url(#p093a35ad47)" d="M 635.197221 188.645637 
L 635.57185 168.442958 
L 635.946479 165.939164 
L 636.321109 121.03551 
L 636.695738 157.255482 
L 637.070367 178.719979 
L 637.444997 83.826372 
L 637.819626 230.012141 
L 638.194255 232.732789 
L 638.568884 156.873039 
L 638.943514 182.250855 
L 639.318143 252.175943 
L 639.692772 186.720426 
L 640.067401 204.553979 
L 640.442031 122.11571 
L 640.81666 200.552256 
L 641.191289 125.719515 
L 641.940548 181.980398 
L 642.315177 171.797376 
L 642.689806 153.558261 
L 643.064436 276.05283 
L 643.439065 158.105445 
L 643.813694 189.71442 
L 644.188323 92.270156 
L 644.562953 203.686225 
L 644.937582 121.603866 
L 645.312211 285.313053 
L 645.68684 136.282411 
L 646.436099 183.801485 
L 646.810728 178.156032 
L 647.185357 184.407719 
L 647.559987 153.811403 
L 647.934616 178.753992 
L 648.309245 252.764166 
L 648.683875 181.061921 
L 649.058504 72.718882 
L 649.433133 170.64819 
L 649.807762 159.729358 
L 650.182392 192.352346 
L 650.557021 164.954349 
L 650.93165 164.780183 
L 651.306279 184.436425 
L 651.680909 134.105357 
L 652.055538 214.061996 
L 652.804796 150.138821 
L 653.554055 227.52588 
L 653.928684 147.75712 
L 654.303314 216.706551 
L 654.677943 192.76654 
L 655.052572 209.812913 
L 655.427201 177.70123 
L 655.801831 191.964343 
L 656.17646 193.987669 
L 656.925718 93.850652 
L 657.300348 188.747363 
L 657.674977 149.350981 
L 658.049606 188.653334 
L 658.424236 168.316372 
L 658.798865 122.266876 
L 659.548123 209.248926 
L 659.922753 205.416542 
L 660.297382 200.350597 
L 660.672011 173.340524 
L 661.04664 134.340434 
L 661.42127 233.564773 
L 661.795899 219.17409 
L 662.170528 214.127491 
L 662.545157 251.048413 
L 662.919787 113.396727 
L 663.294416 174.373335 
L 663.669045 87.666144 
L 664.043675 236.498202 
L 664.418304 114.817426 
L 664.792933 204.150815 
L 665.167562 190.978894 
L 665.542192 217.011076 
L 665.916821 215.260933 
L 666.29145 231.995871 
L 666.666079 163.061963 
L 667.040709 231.568665 
L 667.415338 183.568078 
L 667.789967 173.156888 
L 668.164596 142.907532 
L 668.539226 168.251493 
L 669.288484 149.719965 
L 669.663114 173.517175 
L 670.037743 156.481574 
L 670.412372 216.597302 
L 670.787001 207.455083 
L 671.161631 87.812443 
L 671.53626 173.27025 
L 671.910889 204.547037 
L 672.285518 110.981602 
L 672.660148 179.765302 
L 673.034777 201.681965 
L 673.409406 237.601888 
L 673.784035 137.854971 
L 674.158665 221.367855 
L 674.533294 196.872125 
L 674.907923 143.915111 
L 675.282553 164.525588 
L 675.657182 176.613494 
L 676.031811 182.32312 
L 676.78107 72.917956 
L 677.155699 197.307561 
L 677.904957 86.411925 
L 678.279587 124.446433 
L 678.654216 203.48761 
L 679.028845 192.022291 
L 679.403474 199.510099 
L 679.778104 213.630754 
L 680.152733 200.671021 
L 680.527362 161.02348 
L 680.901992 199.020445 
L 681.276621 133.526321 
L 681.65125 167.228112 
L 682.025879 190.520372 
L 682.400509 133.083642 
L 682.775138 158.467848 
L 683.149767 160.889552 
L 683.524396 126.192905 
L 683.899026 147.085665 
L 684.273655 177.619322 
L 684.648284 130.780072 
L 685.022913 158.899962 
L 685.397543 42.166286 
L 685.772172 123.567729 
L 686.146801 121.12723 
L 686.521431 114.960163 
L 686.89606 169.171406 
L 687.270689 113.979828 
L 687.645318 171.699566 
L 688.019948 209.948348 
L 688.394577 197.989061 
L 688.769206 149.11396 
L 689.143835 242.620753 
L 689.518465 163.41915 
L 689.893094 205.345976 
L 690.267723 140.597661 
L 690.642353 206.143762 
L 691.016982 88.940733 
L 691.391611 138.377487 
L 691.76624 229.539154 
L 692.14087 94.022958 
L 692.515499 182.916849 
L 692.890128 205.306857 
L 693.264757 218.570284 
L 693.639387 147.331877 
L 694.014016 105.402628 
L 694.388645 198.635418 
L 694.763274 217.398536 
L 695.137904 223.758003 
L 695.512533 105.765925 
L 695.887162 97.963187 
L 696.261792 188.342595 
L 696.636421 148.677347 
L 697.01105 172.875075 
L 697.385679 175.458839 
L 697.760309 129.595374 
L 698.134938 153.007836 
L 698.509567 157.997056 
L 698.884196 185.84086 
L 699.258826 136.238755 
L 699.633455 185.367611 
L 700.008084 170.510496 
L 700.382713 162.921214 
L 700.757343 226.508754 
L 701.131972 186.132517 
L 701.506601 186.737138 
L 701.881231 168.215176 
L 702.25586 222.510004 
L 702.630489 225.855081 
L 703.005118 100.078863 
L 703.379748 120.982611 
L 703.754377 132.951625 
L 704.129006 91.066138 
L 704.503635 153.963944 
L 704.878265 176.821711 
L 705.252894 151.16284 
L 705.627523 256.861912 
L 706.002152 221.895228 
L 706.376782 138.788432 
L 706.751411 171.285158 
L 707.12604 229.932029 
L 707.50067 143.268916 
L 707.875299 128.034189 
L 708.249928 142.850737 
L 708.999187 210.166601 
L 709.373816 167.929077 
L 709.748445 153.635894 
L 710.123074 188.795461 
L 710.497704 145.753139 
L 710.872333 158.671053 
L 711.246962 157.834819 
L 711.621591 263.721508 
L 711.996221 124.355304 
L 712.37085 95.561253 
L 712.745479 190.759478 
L 713.120109 238.851025 
L 713.494738 144.14655 
L 713.869367 193.587956 
L 714.243996 216.0285 
L 714.618626 118.240047 
L 714.993255 234.665086 
L 715.367884 140.632922 
L 715.742513 228.593606 
L 716.117143 107.293912 
L 716.866401 184.266027 
L 717.61566 146.690795 
L 717.990289 135.598954 
L 718.364918 135.693082 
L 718.739548 148.27338 
L 719.114177 194.11263 
L 719.488806 143.020826 
L 719.863435 231.439906 
L 720.238065 127.801819 
L 720.612694 133.669285 
L 720.987323 110.345959 
L 721.361952 199.098802 
L 722.111211 134.328145 
L 722.48584 158.517708 
L 722.86047 191.842654 
L 723.235099 158.988888 
L 723.609728 169.699913 
L 723.984357 128.177318 
L 724.358987 200.87501 
L 724.733616 157.549552 
L 725.108245 159.633429 
L 725.482874 138.84702 
L 725.857504 176.007684 
L 726.232133 167.046424 
L 726.606762 175.920734 
L 726.981391 171.220239 
L 727.356021 172.370871 
L 727.73065 187.370113 
L 728.105279 46.195088 
L 728.479909 210.518505 
L 728.854538 225.266854 
L 729.229167 208.357274 
L 729.603796 204.526979 
L 729.978426 172.233126 
L 730.353055 108.696475 
L 730.727684 97.172969 
L 731.102313 162.122388 
L 731.476943 284.565028 
L 731.851572 155.541102 
L 732.226201 231.409925 
L 732.60083 195.156429 
L 732.97546 224.206619 
L 733.350089 153.69416 
L 733.724718 200.791976 
L 734.099348 138.18495 
L 734.473977 151.380971 
L 734.848606 183.49054 
L 735.223235 169.139144 
L 735.597865 131.681318 
L 735.972494 189.401651 
L 736.347123 131.761925 
L 736.721752 173.609611 
L 737.096382 160.686797 
L 737.84564 113.145631 
L 738.220269 149.433473 
L 738.594899 170.132301 
L 738.969528 140.487124 
L 739.344157 241.919263 
L 739.718787 99.385105 
L 740.093416 232.074016 
L 740.468045 132.294992 
L 740.842674 197.997004 
L 741.217304 150.040446 
L 741.591933 177.962585 
L 741.966562 159.156349 
L 742.715821 269.454736 
L 743.09045 154.54312 
L 743.465079 199.623601 
L 743.839708 201.777964 
L 744.214338 205.21049 
L 744.588967 83.922779 
L 744.963596 198.80396 
L 745.338226 158.116878 
L 745.712855 224.686464 
L 746.087484 104.571218 
L 746.836743 289.149754 
L 747.211372 51.35815 
L 747.586001 221.898159 
L 747.96063 114.157215 
L 748.33526 139.932699 
L 748.709889 143.553466 
L 749.084518 183.106288 
L 749.459147 164.27649 
L 749.833777 117.961651 
L 750.208406 186.214685 
L 750.957665 131.194757 
L 751.332294 169.012542 
L 751.706923 191.767274 
L 752.081552 107.767879 
L 752.456182 157.451045 
L 752.830811 178.347755 
L 753.20544 207.474079 
L 753.580069 217.755558 
L 753.954699 132.73925 
L 754.329328 130.255787 
L 754.703957 269.906054 
L 755.827845 64.233062 
L 756.202474 76.49519 
L 756.577104 130.587097 
L 756.951733 111.274666 
L 757.326362 196.352322 
L 757.700991 138.076861 
L 758.075621 228.120519 
L 758.45025 197.894612 
L 758.824879 158.378361 
L 759.199508 75.708163 
L 759.574138 139.266188 
L 760.323396 180.357967 
L 760.698026 231.937574 
L 761.072655 145.760879 
L 761.447284 188.37046 
L 761.821913 162.045386 
L 762.196543 212.551478 
L 762.571172 167.317655 
L 762.945801 241.542439 
L 763.32043 150.190184 
L 763.69506 113.674095 
L 764.069689 131.836588 
L 764.444318 78.130275 
L 764.818947 158.218011 
L 765.193577 150.124959 
L 765.568206 149.699676 
L 765.942835 212.121733 
L 766.317465 76.366297 
L 767.066723 183.613937 
L 767.441352 213.155775 
L 767.815982 146.716671 
L 768.190611 134.361198 
L 768.56524 166.5733 
L 768.939869 164.416331 
L 769.314499 181.165136 
L 769.689128 172.868 
L 770.063757 112.984101 
L 770.438386 110.05337 
L 770.813016 239.892944 
L 771.187645 166.528808 
L 771.562274 226.640603 
L 771.936904 232.530755 
L 772.311533 146.51778 
L 772.686162 210.41367 
L 773.060791 313.889306 
L 773.435421 143.867994 
L 774.184679 81.489362 
L 774.559308 190.483114 
L 774.933938 108.046895 
L 775.308567 290.061507 
L 776.057825 149.515958 
L 776.432455 151.639153 
L 776.807084 113.643121 
L 777.181713 129.923605 
L 777.556343 176.396101 
L 777.930972 104.295892 
L 778.305601 142.018064 
L 778.68023 95.888135 
L 779.05486 208.744465 
L 779.429489 159.305672 
L 779.804118 191.973729 
L 780.178747 136.672347 
L 780.553377 182.572182 
L 780.928006 184.017931 
L 781.302635 232.118703 
L 781.677264 158.94981 
L 782.051894 122.815722 
L 782.426523 127.618191 
L 782.801152 307.742618 
L 783.175782 245.240368 
L 783.550411 82.994937 
L 783.92504 181.143182 
L 784.299669 179.411636 
L 784.674299 120.584612 
L 785.423557 201.059761 
L 785.798186 182.137776 
L 786.172816 87.828114 
L 786.547445 234.576095 
L 786.922074 114.502203 
L 787.296704 186.727698 
L 787.671333 184.885224 
L 788.045962 89.361037 
L 788.420591 201.520049 
L 788.795221 135.367814 
L 789.544479 236.844347 
L 790.293738 120.423882 
L 790.668367 181.06556 
L 791.042996 148.152906 
L 791.417625 164.30538 
L 791.792255 170.648855 
L 792.166884 191.432229 
L 792.541513 166.846451 
L 792.916143 263.737338 
L 793.290772 192.811904 
L 793.665401 253.489543 
L 794.04003 160.673306 
L 794.41466 156.870423 
L 794.789289 208.376907 
L 795.163918 136.878498 
L 795.538547 155.027651 
L 795.913177 159.60474 
L 796.287806 188.921463 
L 796.662435 151.582812 
L 797.037064 125.55872 
L 797.411694 202.306464 
L 797.786323 209.306983 
L 798.160952 119.524905 
L 798.535582 276.517885 
L 798.910211 289.894931 
L 799.28484 253.972211 
L 799.659469 164.610298 
L 800.034099 165.924757 
L 800.408728 150.521461 
L 800.783357 169.344283 
L 801.157986 103.931906 
L 801.532616 102.21296 
L 801.907245 120.86771 
L 802.281874 224.478647 
L 802.656503 156.47128 
L 803.031133 211.516259 
L 803.405762 195.156823 
L 803.780391 218.550719 
L 804.155021 172.265538 
L 804.52965 148.390033 
L 804.904279 169.22277 
L 805.278908 226.160209 
L 805.653538 241.050362 
L 806.028167 206.855943 
L 806.402796 207.55212 
L 806.777425 137.64096 
L 807.152055 187.036038 
L 807.526684 181.189732 
L 807.901313 179.76944 
L 808.275942 123.650104 
L 808.650572 99.512514 
L 809.025201 153.629887 
L 809.39983 183.859196 
L 809.77446 109.969058 
L 810.523718 191.593323 
L 810.898347 127.511747 
L 811.272977 163.469414 
L 811.647606 236.932242 
L 812.022235 144.6847 
L 812.396864 159.324851 
L 812.771494 255.848297 
L 813.146123 269.025718 
L 813.520752 166.644194 
L 813.895381 142.158001 
L 814.270011 145.504984 
L 814.64464 233.662481 
L 815.393899 142.908462 
L 815.768528 241.485295 
L 816.143157 168.92776 
L 816.517786 163.196409 
L 816.892416 131.397709 
L 817.267045 282.581229 
L 818.016303 82.413893 
L 818.390933 200.550267 
L 818.765562 186.899899 
L 819.140191 130.044334 
L 819.514821 206.903289 
L 819.88945 120.959726 
L 820.264079 148.550762 
L 820.638708 243.200553 
L 821.013338 168.242465 
L 821.387967 238.049059 
L 821.762596 130.108986 
L 822.137225 247.972016 
L 822.511855 253.839123 
L 822.886484 223.650772 
L 823.261113 208.690559 
L 823.635742 113.888277 
L 824.010372 173.562234 
L 824.385001 159.719663 
L 824.75963 124.632514 
L 825.13426 203.978998 
L 825.508889 198.630886 
L 825.883518 210.677002 
L 826.258147 137.612695 
L 826.632777 99.639583 
L 827.007406 161.163713 
L 827.382035 200.643039 
L 827.756664 196.036386 
L 828.131294 222.532214 
L 828.505923 140.01896 
L 828.880552 220.321718 
L 829.255181 184.142403 
L 830.00444 257.764995 
L 830.379069 286.43343 
L 830.753699 212.579704 
L 831.128328 162.983833 
L 831.502957 186.970451 
L 831.877586 182.752239 
L 832.252216 220.69999 
L 832.626845 214.447093 
L 833.001474 220.535383 
L 833.376103 163.290208 
L 833.750733 81.091996 
L 834.125362 178.84906 
L 834.499991 234.034018 
L 834.87462 115.782406 
L 835.24925 217.440859 
L 835.623879 147.789866 
L 835.998508 192.558283 
L 836.373138 169.115742 
L 836.747767 19.099011 
L 837.122396 206.204302 
L 837.497025 199.004843 
L 837.871655 155.949488 
L 838.620913 190.92076 
L 838.995542 203.558148 
L 839.370172 146.314521 
L 839.744801 124.521651 
L 840.11943 215.36031 
L 840.494059 223.611772 
L 840.868689 90.838423 
L 841.243318 236.535017 
L 841.617947 140.726701 
L 841.992577 153.089685 
L 842.367206 222.113944 
L 842.741835 138.750093 
L 843.116464 222.12499 
L 843.491094 221.513334 
L 843.865723 234.941295 
L 844.240352 135.40251 
L 844.614981 192.857747 
L 844.989611 124.169178 
L 845.36424 209.006894 
L 845.738869 145.232729 
L 846.113498 109.749328 
L 846.488128 176.594991 
L 846.862757 223.120292 
L 847.237386 188.078502 
L 847.612016 116.493457 
L 847.986645 139.663187 
L 848.735903 250.823134 
L 849.110533 140.7176 
L 849.485162 99.745663 
L 849.859791 98.953956 
L 850.23442 153.373337 
L 850.983679 207.931815 
L 851.358308 198.374684 
L 851.732938 246.58785 
L 852.107567 77.202499 
L 852.482196 173.951953 
L 852.856825 66.019053 
L 853.231455 176.079531 
L 853.606084 245.180937 
L 853.980713 89.421373 
L 854.355342 211.230884 
L 854.729972 192.345798 
L 855.104601 98.95588 
L 855.47923 107.450338 
L 855.853859 263.438026 
L 856.228489 172.697815 
L 856.603118 221.512613 
L 857.352377 91.63198 
L 857.727006 195.907871 
L 858.101635 105.908374 
L 858.476264 214.311144 
L 858.850894 75.514198 
L 859.225523 209.701295 
L 859.600152 193.484034 
L 859.974781 159.453215 
L 860.349411 235.435634 
L 860.72404 103.384534 
L 861.098669 220.638983 
L 861.473298 145.264555 
L 861.847928 230.446487 
L 862.222557 167.831142 
L 862.597186 173.216178 
L 862.971816 190.12269 
L 863.346445 150.847576 
L 863.721074 222.734438 
L 864.095703 104.626315 
L 864.470333 163.683483 
L 864.844962 297.690062 
L 865.219591 82.97609 
L 865.59422 152.481565 
L 865.96885 103.207447 
L 866.718108 274.019689 
L 867.092737 191.531598 
L 867.467367 227.623918 
L 867.841996 174.467502 
L 868.216625 194.351881 
L 868.591255 163.389637 
L 868.965884 251.719932 
L 869.340513 170.337726 
L 869.715142 193.315909 
L 870.089772 144.38917 
L 870.464401 248.492489 
L 870.83903 191.771204 
L 871.213659 98.515072 
L 871.588289 225.609402 
L 871.962918 139.709744 
L 872.337547 113.191573 
L 872.712176 173.196645 
L 873.086806 128.49929 
L 873.461435 126.130189 
L 873.836064 102.48277 
L 874.210694 189.209196 
L 874.585323 177.771534 
L 874.959952 136.752488 
L 875.334581 206.120054 
L 875.709211 170.594277 
L 876.08384 204.013049 
L 876.458469 276.992907 
L 876.833098 157.754225 
L 877.207728 96.544258 
L 877.582357 189.398642 
L 877.956986 168.971875 
L 878.331615 193.026004 
L 878.706245 205.910546 
L 879.455503 124.720631 
L 879.830133 73.563879 
L 880.579391 215.77567 
L 880.95402 236.618246 
L 881.32865 114.25129 
L 882.077908 200.069361 
L 882.452537 220.019291 
L 882.827167 208.89868 
L 883.201796 117.536928 
L 883.951055 235.430063 
L 884.325684 133.688391 
L 885.074942 185.776103 
L 885.449572 145.543692 
L 885.824201 209.792161 
L 886.19883 129.600657 
L 886.573459 236.521801 
L 886.948089 213.183123 
L 887.322718 234.374312 
L 887.697347 191.39021 
L 888.071976 206.648535 
L 888.821235 172.531618 
L 889.195864 147.936683 
L 889.570494 166.186251 
L 889.945123 161.471786 
L 890.319752 100.935487 
L 890.694381 184.673144 
L 891.069011 238.020143 
L 891.44364 130.161177 
L 891.818269 90.571506 
L 892.192898 164.361985 
L 892.567528 135.167475 
L 892.942157 202.09043 
L 893.316786 164.434198 
L 893.691415 144.231773 
L 894.066045 155.799984 
L 894.440674 196.901894 
L 894.815303 99.758037 
L 895.189933 165.009779 
L 895.564562 131.109355 
L 895.939191 154.582359 
L 896.31382 133.639368 
L 896.68845 130.972609 
L 897.063079 182.420131 
L 897.812337 76.043028 
L 898.186967 83.270144 
L 898.561596 138.546533 
L 898.936225 97.223483 
L 899.310854 231.289824 
L 899.685484 106.840568 
L 900.060113 169.393572 
L 900.434742 252.728255 
L 900.809372 165.350201 
L 901.184001 129.046004 
L 901.55863 203.899225 
L 901.933259 86.039017 
L 902.307889 112.353596 
L 902.682518 229.819123 
L 903.057147 127.578146 
L 903.806406 197.438234 
L 904.181035 186.917459 
L 904.555664 192.663003 
L 904.930293 227.185318 
L 905.304923 192.811969 
L 905.679552 141.740271 
L 906.054181 108.919861 
L 906.428811 107.469803 
L 906.80344 198.408653 
L 907.178069 177.993033 
L 907.552698 211.210487 
L 907.927328 126.642115 
L 908.301957 246.516351 
L 908.676586 233.765285 
L 909.425845 161.489075 
L 909.800474 187.11961 
L 910.175103 171.265086 
L 910.549732 170.617377 
L 910.924362 162.303426 
L 911.298991 219.04759 
L 911.67362 187.93477 
L 912.04825 146.891098 
L 912.422879 160.20197 
L 912.797508 123.808622 
L 913.172137 206.146025 
L 913.546767 132.180766 
L 913.921396 107.098903 
L 914.296025 179.127368 
L 914.670654 160.841993 
L 915.045284 162.665548 
L 915.419913 148.768411 
L 915.794542 155.381678 
L 916.169172 106.970757 
L 916.543801 149.766812 
L 916.91843 134.04993 
L 917.293059 157.90589 
L 917.667689 219.374664 
L 918.042318 153.347817 
L 918.416947 183.037858 
L 918.791576 201.17154 
L 919.166206 212.777057 
L 919.540835 175.896 
L 919.915464 199.93512 
L 920.290093 81.449296 
L 920.664723 101.273516 
L 921.039352 184.692827 
L 921.413981 141.003152 
L 921.788611 120.959385 
L 922.16324 180.481317 
L 922.537869 90.018101 
L 923.287128 177.297527 
L 923.661757 253.281656 
L 924.036386 215.981182 
L 924.411015 158.480348 
L 924.785645 192.361721 
L 925.160274 173.673943 
L 925.534903 207.985181 
L 925.909532 161.692765 
L 926.284162 193.258626 
L 926.658791 242.244142 
L 927.03342 188.036979 
L 927.40805 198.348905 
L 927.782679 242.197223 
L 928.157308 109.043616 
L 928.531937 176.149068 
L 928.906567 187.375552 
L 929.281196 139.15825 
L 929.655825 176.44199 
L 930.030454 138.400964 
L 930.405084 239.019127 
L 930.779713 219.145743 
L 931.154342 148.34064 
L 931.528971 105.967701 
L 931.903601 171.401711 
L 932.27823 163.057429 
L 932.652859 209.602376 
L 933.027489 174.084956 
L 933.402118 204.477034 
L 933.776747 179.917285 
L 934.151376 140.415768 
L 934.526006 262.209701 
L 934.900635 163.209995 
L 935.275264 208.756308 
L 935.649893 201.686047 
L 936.024523 121.800413 
L 936.399152 159.521147 
L 936.773781 130.955764 
L 937.14841 251.691583 
L 937.52304 191.106331 
L 937.897669 193.051167 
L 938.272298 199.127899 
L 938.646928 153.04013 
L 939.021557 132.643581 
L 939.396186 222.284449 
L 939.770815 215.833803 
L 940.145445 228.782641 
L 940.520074 121.378152 
L 940.894703 195.784562 
L 941.269332 177.28283 
L 941.643962 187.614777 
L 942.018591 215.878295 
L 942.39322 156.037865 
L 942.767849 155.600744 
L 943.142479 130.611293 
L 943.517108 182.83483 
L 943.891737 186.04266 
L 944.266367 198.95298 
L 944.640996 106.13581 
L 945.015625 127.646328 
L 945.390254 174.552669 
L 945.764884 143.696968 
L 946.139513 198.967393 
L 946.514142 80.786736 
L 946.888771 199.223532 
L 947.263401 189.739904 
L 947.63803 189.352397 
L 948.012659 96.59775 
L 948.387289 166.138342 
L 948.761918 124.206452 
L 949.511176 227.037786 
L 949.885806 138.034534 
L 950.260435 200.785222 
L 950.635064 231.762094 
L 951.384323 144.472055 
L 951.758952 93.775627 
L 952.133581 234.848539 
L 952.50821 271.174862 
L 952.88284 131.111199 
L 953.257469 159.314732 
L 953.632098 197.966074 
L 954.006728 154.019147 
L 954.381357 140.095155 
L 954.755986 87.16083 
L 955.130615 178.579132 
L 955.505245 115.461171 
L 955.879874 192.965623 
L 956.254503 195.557799 
L 956.629132 153.776928 
L 957.003762 222.650972 
L 957.378391 231.020713 
L 957.75302 129.632504 
L 958.127649 260.612267 
L 958.502279 167.671559 
L 958.876908 187.28049 
L 959.251537 189.44141 
L 960.000796 263.87202 
L 960.375425 202.32729 
L 960.750054 224.900184 
L 961.124684 191.786782 
L 961.499313 168.804531 
L 961.873942 205.946215 
L 962.248571 220.751259 
L 962.623201 159.762775 
L 962.99783 206.844747 
L 963.372459 215.693671 
L 964.121718 159.96643 
L 964.496347 78.357447 
L 964.870976 100.522012 
L 965.245606 229.293958 
L 965.620235 232.018422 
L 965.994864 169.848277 
L 966.369493 147.813754 
L 966.744123 178.640168 
L 967.118752 75.511411 
L 967.493381 120.059364 
L 967.86801 99.336059 
L 968.24264 191.448915 
L 968.617269 212.889357 
L 968.991898 220.651131 
L 969.366527 177.837889 
L 969.741157 229.068769 
L 970.115786 201.113559 
L 970.490415 192.02628 
L 970.865045 130.478842 
L 971.239674 193.910937 
L 971.614303 235.725216 
L 971.988932 192.77393 
L 972.363562 164.304055 
L 972.738191 147.638334 
L 973.11282 213.998486 
L 973.487449 143.768516 
L 973.862079 110.670713 
L 974.236708 150.834263 
L 974.611337 162.056524 
L 974.985966 192.802511 
L 975.360596 200.084211 
L 975.735225 263.605368 
L 976.109854 145.533337 
L 976.484484 188.59494 
L 976.859113 165.915479 
L 977.233742 150.307964 
L 977.608371 207.944415 
L 977.983001 127.2243 
L 978.35763 167.682197 
L 978.732259 105.739519 
L 979.106888 165.183377 
L 979.481518 158.483385 
L 979.856147 184.981387 
L 980.230776 106.660736 
L 980.605406 266.897364 
L 980.980035 196.594585 
L 981.354664 186.399243 
L 981.729293 241.246659 
L 982.103923 208.315917 
L 982.478552 269.969239 
L 982.853181 164.223294 
L 983.22781 235.643012 
L 983.60244 156.190072 
L 984.726327 242.292336 
L 985.475586 158.841504 
L 985.850215 178.360043 
L 986.224845 142.923954 
L 986.599474 208.030689 
L 986.974103 100.860757 
L 987.348732 183.395822 
L 987.723362 210.575974 
L 988.097991 114.102299 
L 988.47262 111.980351 
L 988.847249 176.781005 
L 989.221879 194.422389 
L 989.596508 132.010086 
L 989.971137 212.766597 
L 990.345766 130.885853 
L 990.720396 234.835227 
L 991.095025 176.47771 
L 991.469654 172.21885 
L 991.844284 118.670495 
L 992.218913 254.620897 
L 992.593542 162.251639 
L 992.968171 178.148027 
L 993.342801 172.614852 
L 993.71743 212.317591 
L 994.092059 231.017839 
L 994.466688 193.475042 
L 994.841318 183.561898 
L 995.215947 106.715814 
L 995.590576 167.759584 
L 995.965205 172.936432 
L 996.339835 141.487047 
L 996.714464 244.89164 
L 997.089093 140.402952 
L 997.463723 131.772791 
L 997.838352 132.141267 
L 998.58761 228.034816 
L 998.96224 216.830427 
L 999.336869 161.668991 
L 999.711498 148.719432 
L 1000.086127 115.606659 
L 1000.460757 104.645639 
L 1001.210015 171.226374 
L 1001.584644 160.887209 
L 1001.959274 183.277608 
L 1002.333903 125.529115 
L 1003.083162 163.083148 
L 1003.457791 228.945707 
L 1003.83242 125.896463 
L 1004.207049 241.08846 
L 1004.581679 117.610456 
L 1004.956308 128.67301 
L 1005.330937 243.782227 
L 1005.705566 174.91429 
L 1006.080196 228.309834 
L 1006.454825 179.218187 
L 1006.829454 147.895619 
L 1007.204083 178.860948 
L 1007.578713 233.791759 
L 1007.953342 161.070398 
L 1008.327971 161.130357 
L 1008.702601 173.964057 
L 1009.07723 219.525447 
L 1009.826488 160.725751 
L 1010.201118 179.685057 
L 1010.575747 78.184061 
L 1010.950376 161.282911 
L 1011.325005 181.999664 
L 1011.699635 151.143942 
L 1012.074264 222.224179 
L 1012.823523 100.377317 
L 1013.198152 212.302631 
L 1013.572781 159.369171 
L 1013.94741 138.409044 
L 1014.32204 248.539315 
L 1014.696669 99.388358 
L 1015.071298 219.519146 
L 1015.820557 155.70614 
L 1016.195186 183.156332 
L 1016.569815 136.805581 
L 1016.944444 165.989605 
L 1017.319074 147.242959 
L 1017.693703 169.389216 
L 1018.068332 106.858234 
L 1018.442962 262.958718 
L 1018.817591 156.448168 
L 1019.566849 215.671327 
L 1019.941479 209.072691 
L 1020.316108 198.34685 
L 1020.690737 146.855371 
L 1021.065366 212.855825 
L 1021.439996 180.049124 
L 1021.814625 160.424887 
L 1022.189254 224.478261 
L 1022.563883 122.956301 
L 1022.938513 64.354689 
L 1023.313142 202.914041 
L 1023.687771 131.590571 
L 1024.062401 186.60628 
L 1024.43703 148.871499 
L 1024.811659 180.878151 
L 1025.186288 73.885332 
L 1025.560918 187.262119 
L 1025.935547 137.208702 
L 1026.310176 145.559318 
L 1026.684805 221.263082 
L 1027.059435 269.438686 
L 1027.434064 146.825083 
L 1027.808693 134.944381 
L 1028.183322 196.767961 
L 1028.557952 201.094877 
L 1028.932581 129.023313 
L 1029.30721 134.572203 
L 1029.68184 129.959988 
L 1030.056469 161.044672 
L 1030.431098 208.028281 
L 1030.805727 227.261515 
L 1031.180357 261.957818 
L 1031.929615 86.843033 
L 1032.304244 151.354466 
L 1032.678874 176.3142 
L 1033.053503 240.813627 
L 1033.802761 172.523967 
L 1034.177391 182.69157 
L 1034.55202 132.087742 
L 1034.926649 179.844266 
L 1035.301279 141.62313 
L 1035.675908 177.857436 
L 1036.050537 181.239005 
L 1036.425166 116.38621 
L 1036.799796 206.403537 
L 1037.174425 185.414473 
L 1037.549054 230.607953 
L 1037.923683 168.414973 
L 1038.298313 124.874162 
L 1038.672942 142.245477 
L 1039.047571 139.890658 
L 1039.4222 125.61085 
L 1039.79683 144.760261 
L 1040.171459 138.805334 
L 1040.546088 154.674337 
L 1040.920718 216.403418 
L 1041.295347 149.19701 
L 1041.669976 130.407152 
L 1042.044605 212.666903 
L 1042.793864 124.278314 
L 1043.168493 189.461833 
L 1043.543122 231.877757 
L 1044.292381 101.411661 
L 1044.66701 213.608464 
L 1045.04164 177.462286 
L 1045.04164 177.462286 
" style="fill:none;stroke:#86a776;stroke-linecap:square;stroke-width:1.5;"/>
   </g>
   <g id="line2d_57">
    <path clip-path="url(#p093a35ad47)" d="M 614.705 126.439591 
L 1065.53386 126.439591 
" style="fill:none;stroke:#eb5757;stroke-linecap:square;stroke-width:2;"/>
   </g>
   <g id="line2d_58">
    <path clip-path="url(#p093a35ad47)" d="M 614.705 216.96965 
L 1065.53386 216.96965 
" style="fill:none;stroke:#eb5757;stroke-linecap:square;stroke-width:2;"/>
   </g>
   <g id="patch_9">
    <path d="M 614.705 323.7575 
L 614.705 25.3575 
" style="fill:none;"/>
   </g>
   <g id="patch_10">
    <path d="M 1065.53386 323.7575 
L 1065.53386 25.3575 
" style="fill:none;"/>
   </g>
   <g id="patch_11">
    <path d="M 614.705 323.7575 
L 1065.53386 323.7575 
" style="fill:none;"/>
   </g>
   <g id="patch_12">
    <path d="M 614.705 25.3575 
L 1065.53386 25.3575 
" style="fill:none;"/>
   </g>
   <g id="text_37">
    <!-- Investment B -->
    <defs>
     <path d="M 19.671875 34.8125 
L 19.671875 8.109375 
L 35.5 8.109375 
Q 43.453125 8.109375 47.28125 11.40625 
Q 51.125 14.703125 51.125 21.484375 
Q 51.125 28.328125 47.28125 31.5625 
Q 43.453125 34.8125 35.5 34.8125 
z
M 19.671875 64.796875 
L 19.671875 42.828125 
L 34.28125 42.828125 
Q 41.5 42.828125 45.03125 45.53125 
Q 48.578125 48.25 48.578125 53.8125 
Q 48.578125 59.328125 45.03125 62.0625 
Q 41.5 64.796875 34.28125 64.796875 
z
M 9.8125 72.90625 
L 35.015625 72.90625 
Q 46.296875 72.90625 52.390625 68.21875 
Q 58.5 63.53125 58.5 54.890625 
Q 58.5 48.1875 55.375 44.234375 
Q 52.25 40.28125 46.1875 39.3125 
Q 53.46875 37.75 57.5 32.78125 
Q 61.53125 27.828125 61.53125 20.40625 
Q 61.53125 10.640625 54.890625 5.3125 
Q 48.25 0 35.984375 0 
L 9.8125 0 
z
" id="DejaVuSans-66"/>
    </defs>
    <g style="fill:#2f2235;" transform="translate(786.77568 19.3575)scale(0.16 -0.16)">
     <use xlink:href="#DejaVuSans-73"/>
     <use x="29.492188" xlink:href="#DejaVuSans-110"/>
     <use x="92.871094" xlink:href="#DejaVuSans-118"/>
     <use x="152.050781" xlink:href="#DejaVuSans-101"/>
     <use x="213.574219" xlink:href="#DejaVuSans-115"/>
     <use x="265.673828" xlink:href="#DejaVuSans-116"/>
     <use x="304.882812" xlink:href="#DejaVuSans-109"/>
     <use x="402.294922" xlink:href="#DejaVuSans-101"/>
     <use x="463.818359" xlink:href="#DejaVuSans-110"/>
     <use x="527.197266" xlink:href="#DejaVuSans-116"/>
     <use x="566.40625" xlink:href="#DejaVuSans-32"/>
     <use x="598.193359" xlink:href="#DejaVuSans-66"/>
    </g>
   </g>
   <g id="legend_2">
    <g id="line2d_59">
     <path d="M 964.12636 43.015 
L 984.12636 43.015 
" style="fill:none;stroke:#eb5757;stroke-linecap:square;stroke-width:2;"/>
    </g>
    <g id="line2d_60"/>
    <g id="text_38">
     <!-- std. dev -->
     <g style="fill:#2f2235;" transform="translate(992.12636 46.515)scale(0.16 -0.16)">
      <use xlink:href="#DejaVuSans-115"/>
      <use x="52.099609" xlink:href="#DejaVuSans-116"/>
      <use x="91.308594" xlink:href="#DejaVuSans-100"/>
      <use x="154.785156" xlink:href="#DejaVuSans-46"/>
      <use x="186.572266" xlink:href="#DejaVuSans-32"/>
      <use x="218.359375" xlink:href="#DejaVuSans-100"/>
      <use x="281.835938" xlink:href="#DejaVuSans-101"/>
      <use x="343.359375" xlink:href="#DejaVuSans-118"/>
     </g>
    </g>
   </g>
   <g id="patch_13">
    <path clip-path="url(#p093a35ad47)" d="M 614.705 126.439591 
L 614.705 216.96965 
L 1065.53386 216.96965 
L 1065.53386 126.439591 
z
" style="fill:#eb5757;opacity:0.5;"/>
   </g>
  </g>
 </g>
 <defs>
  <clipPath id="pa58b9fc4db">
   <rect height="298.4" width="450.82886" x="80.105" y="25.3575"/>
  </clipPath>
  <clipPath id="p093a35ad47">
   <rect height="298.4" width="450.82886" x="614.705" y="25.3575"/>
  </clipPath>
 </defs>
</svg>
