<?xml version="1.0" encoding="utf-8" standalone="no"?>
<!DOCTYPE svg PUBLIC "-//W3C//DTD SVG 1.1//EN"
  "http://www.w3.org/Graphics/SVG/1.1/DTD/svg11.dtd">
<svg xmlns:xlink="http://www.w3.org/1999/xlink" width="566.927629pt" height="279.906954pt" viewBox="0 0 566.927629 279.906954" xmlns="http://www.w3.org/2000/svg" version="1.1">
 <metadata>
  <rdf:RDF xmlns:dc="http://purl.org/dc/elements/1.1/" xmlns:cc="http://creativecommons.org/ns#" xmlns:rdf="http://www.w3.org/1999/02/22-rdf-syntax-ns#">
   <cc:Work>
    <dc:type rdf:resource="http://purl.org/dc/dcmitype/StillImage"/>
    <dc:date>2025-11-18T17:35:30.055432</dc:date>
    <dc:format>image/svg+xml</dc:format>
    <dc:creator>
     <cc:Agent>
      <dc:title>Matplotlib v3.10.7, https://matplotlib.org/</dc:title>
     </cc:Agent>
    </dc:creator>
   </cc:Work>
  </rdf:RDF>
 </metadata>
 <defs>
  <style type="text/css">*{stroke-linejoin: round; stroke-linecap: butt}</style>
 </defs>
 <g id="figure_1">
  <g id="patch_1">
   <path d="M 0 279.906954 
L 566.927629 279.906954 
L 566.927629 0 
L 0 0 
L 0 279.906954 
z
" style="fill: none"/>
  </g>
  <g id="axes_1">
   <g id="patch_2">
    <path d="M 33.2875 125.14392 
L 277.894499 125.14392 
L 277.894499 8.559012 
L 33.2875 8.559012 
L 33.2875 125.14392 
z
" style="fill: none"/>
   </g>
   <g id="matplotlib.axis_1">
    <g id="xtick_1">
     <g id="line2d_1">
      <defs>
       <path id="m327d0c4cea" d="M 0 0 
L 0 3.5 
" style="stroke: #000000; stroke-width: 0.8"/>
      </defs>
      <g>
       <use xlink:href="#m327d0c4cea" x="54.939316" y="125.14392" style="stroke: #000000; stroke-width: 0.8"/>
      </g>
     </g>
    </g>
    <g id="xtick_2">
     <g id="line2d_2">
      <g>
       <use xlink:href="#m327d0c4cea" x="90.050368" y="125.14392" style="stroke: #000000; stroke-width: 0.8"/>
      </g>
     </g>
    </g>
    <g id="xtick_3">
     <g id="line2d_3">
      <g>
       <use xlink:href="#m327d0c4cea" x="125.161421" y="125.14392" style="stroke: #000000; stroke-width: 0.8"/>
      </g>
     </g>
    </g>
    <g id="xtick_4">
     <g id="line2d_4">
      <g>
       <use xlink:href="#m327d0c4cea" x="160.272473" y="125.14392" style="stroke: #000000; stroke-width: 0.8"/>
      </g>
     </g>
    </g>
    <g id="xtick_5">
     <g id="line2d_5">
      <g>
       <use xlink:href="#m327d0c4cea" x="195.383525" y="125.14392" style="stroke: #000000; stroke-width: 0.8"/>
      </g>
     </g>
    </g>
    <g id="xtick_6">
     <g id="line2d_6">
      <g>
       <use xlink:href="#m327d0c4cea" x="230.494578" y="125.14392" style="stroke: #000000; stroke-width: 0.8"/>
      </g>
     </g>
    </g>
    <g id="xtick_7">
     <g id="line2d_7">
      <g>
       <use xlink:href="#m327d0c4cea" x="265.60563" y="125.14392" style="stroke: #000000; stroke-width: 0.8"/>
      </g>
     </g>
    </g>
    <g id="xtick_8">
     <g id="line2d_8">
      <defs>
       <path id="mfab5ffe05a" d="M 0 0 
L 0 2 
" style="stroke: #000000; stroke-width: 0.6"/>
      </defs>
      <g>
       <use xlink:href="#mfab5ffe05a" x="33.872684" y="125.14392" style="stroke: #000000; stroke-width: 0.6"/>
      </g>
     </g>
    </g>
    <g id="xtick_9">
     <g id="line2d_9">
      <g>
       <use xlink:href="#mfab5ffe05a" x="40.894895" y="125.14392" style="stroke: #000000; stroke-width: 0.6"/>
      </g>
     </g>
    </g>
    <g id="xtick_10">
     <g id="line2d_10">
      <g>
       <use xlink:href="#mfab5ffe05a" x="47.917105" y="125.14392" style="stroke: #000000; stroke-width: 0.6"/>
      </g>
     </g>
    </g>
    <g id="xtick_11">
     <g id="line2d_11">
      <g>
       <use xlink:href="#mfab5ffe05a" x="61.961526" y="125.14392" style="stroke: #000000; stroke-width: 0.6"/>
      </g>
     </g>
    </g>
    <g id="xtick_12">
     <g id="line2d_12">
      <g>
       <use xlink:href="#mfab5ffe05a" x="68.983737" y="125.14392" style="stroke: #000000; stroke-width: 0.6"/>
      </g>
     </g>
    </g>
    <g id="xtick_13">
     <g id="line2d_13">
      <g>
       <use xlink:href="#mfab5ffe05a" x="76.005947" y="125.14392" style="stroke: #000000; stroke-width: 0.6"/>
      </g>
     </g>
    </g>
    <g id="xtick_14">
     <g id="line2d_14">
      <g>
       <use xlink:href="#mfab5ffe05a" x="83.028158" y="125.14392" style="stroke: #000000; stroke-width: 0.6"/>
      </g>
     </g>
    </g>
    <g id="xtick_15">
     <g id="line2d_15">
      <g>
       <use xlink:href="#mfab5ffe05a" x="97.072579" y="125.14392" style="stroke: #000000; stroke-width: 0.6"/>
      </g>
     </g>
    </g>
    <g id="xtick_16">
     <g id="line2d_16">
      <g>
       <use xlink:href="#mfab5ffe05a" x="104.094789" y="125.14392" style="stroke: #000000; stroke-width: 0.6"/>
      </g>
     </g>
    </g>
    <g id="xtick_17">
     <g id="line2d_17">
      <g>
       <use xlink:href="#mfab5ffe05a" x="111.117" y="125.14392" style="stroke: #000000; stroke-width: 0.6"/>
      </g>
     </g>
    </g>
    <g id="xtick_18">
     <g id="line2d_18">
      <g>
       <use xlink:href="#mfab5ffe05a" x="118.13921" y="125.14392" style="stroke: #000000; stroke-width: 0.6"/>
      </g>
     </g>
    </g>
    <g id="xtick_19">
     <g id="line2d_19">
      <g>
       <use xlink:href="#mfab5ffe05a" x="132.183631" y="125.14392" style="stroke: #000000; stroke-width: 0.6"/>
      </g>
     </g>
    </g>
    <g id="xtick_20">
     <g id="line2d_20">
      <g>
       <use xlink:href="#mfab5ffe05a" x="139.205842" y="125.14392" style="stroke: #000000; stroke-width: 0.6"/>
      </g>
     </g>
    </g>
    <g id="xtick_21">
     <g id="line2d_21">
      <g>
       <use xlink:href="#mfab5ffe05a" x="146.228052" y="125.14392" style="stroke: #000000; stroke-width: 0.6"/>
      </g>
     </g>
    </g>
    <g id="xtick_22">
     <g id="line2d_22">
      <g>
       <use xlink:href="#mfab5ffe05a" x="153.250263" y="125.14392" style="stroke: #000000; stroke-width: 0.6"/>
      </g>
     </g>
    </g>
    <g id="xtick_23">
     <g id="line2d_23">
      <g>
       <use xlink:href="#mfab5ffe05a" x="167.294683" y="125.14392" style="stroke: #000000; stroke-width: 0.6"/>
      </g>
     </g>
    </g>
    <g id="xtick_24">
     <g id="line2d_24">
      <g>
       <use xlink:href="#mfab5ffe05a" x="174.316894" y="125.14392" style="stroke: #000000; stroke-width: 0.6"/>
      </g>
     </g>
    </g>
    <g id="xtick_25">
     <g id="line2d_25">
      <g>
       <use xlink:href="#mfab5ffe05a" x="181.339104" y="125.14392" style="stroke: #000000; stroke-width: 0.6"/>
      </g>
     </g>
    </g>
    <g id="xtick_26">
     <g id="line2d_26">
      <g>
       <use xlink:href="#mfab5ffe05a" x="188.361315" y="125.14392" style="stroke: #000000; stroke-width: 0.6"/>
      </g>
     </g>
    </g>
    <g id="xtick_27">
     <g id="line2d_27">
      <g>
       <use xlink:href="#mfab5ffe05a" x="202.405736" y="125.14392" style="stroke: #000000; stroke-width: 0.6"/>
      </g>
     </g>
    </g>
    <g id="xtick_28">
     <g id="line2d_28">
      <g>
       <use xlink:href="#mfab5ffe05a" x="209.427946" y="125.14392" style="stroke: #000000; stroke-width: 0.6"/>
      </g>
     </g>
    </g>
    <g id="xtick_29">
     <g id="line2d_29">
      <g>
       <use xlink:href="#mfab5ffe05a" x="216.450157" y="125.14392" style="stroke: #000000; stroke-width: 0.6"/>
      </g>
     </g>
    </g>
    <g id="xtick_30">
     <g id="line2d_30">
      <g>
       <use xlink:href="#mfab5ffe05a" x="223.472367" y="125.14392" style="stroke: #000000; stroke-width: 0.6"/>
      </g>
     </g>
    </g>
    <g id="xtick_31">
     <g id="line2d_31">
      <g>
       <use xlink:href="#mfab5ffe05a" x="237.516788" y="125.14392" style="stroke: #000000; stroke-width: 0.6"/>
      </g>
     </g>
    </g>
    <g id="xtick_32">
     <g id="line2d_32">
      <g>
       <use xlink:href="#mfab5ffe05a" x="244.538999" y="125.14392" style="stroke: #000000; stroke-width: 0.6"/>
      </g>
     </g>
    </g>
    <g id="xtick_33">
     <g id="line2d_33">
      <g>
       <use xlink:href="#mfab5ffe05a" x="251.561209" y="125.14392" style="stroke: #000000; stroke-width: 0.6"/>
      </g>
     </g>
    </g>
    <g id="xtick_34">
     <g id="line2d_34">
      <g>
       <use xlink:href="#mfab5ffe05a" x="258.58342" y="125.14392" style="stroke: #000000; stroke-width: 0.6"/>
      </g>
     </g>
    </g>
    <g id="xtick_35">
     <g id="line2d_35">
      <g>
       <use xlink:href="#mfab5ffe05a" x="272.627841" y="125.14392" style="stroke: #000000; stroke-width: 0.6"/>
      </g>
     </g>
    </g>
   </g>
   <g id="matplotlib.axis_2">
    <g id="ytick_1">
     <g id="line2d_36">
      <path d="M 33.2875 92.587489 
L 277.894499 92.587489 
" clip-path="url(#pa2c01d0ac0)" style="fill: none; stroke-dasharray: 2.96,1.28; stroke-dashoffset: 0; stroke: #000000; stroke-opacity: 0.1; stroke-width: 0.8"/>
     </g>
     <g id="line2d_37">
      <defs>
       <path id="mdc03f2bf70" d="M 0 0 
L -3.5 0 
" style="stroke: #000000; stroke-width: 0.8"/>
      </defs>
      <g>
       <use xlink:href="#mdc03f2bf70" x="33.2875" y="92.587489" style="stroke: #000000; stroke-width: 0.8"/>
      </g>
     </g>
     <g id="text_1">
      <!-- 200 -->
      <g transform="translate(7.2 96.386707) scale(0.1 -0.1)">
       <defs>
        <path id="DejaVuSans-32" d="M 1228 531 
L 3431 531 
L 3431 0 
L 469 0 
L 469 531 
Q 828 903 1448 1529 
Q 2069 2156 2228 2338 
Q 2531 2678 2651 2914 
Q 2772 3150 2772 3378 
Q 2772 3750 2511 3984 
Q 2250 4219 1831 4219 
Q 1534 4219 1204 4116 
Q 875 4013 500 3803 
L 500 4441 
Q 881 4594 1212 4672 
Q 1544 4750 1819 4750 
Q 2544 4750 2975 4387 
Q 3406 4025 3406 3419 
Q 3406 3131 3298 2873 
Q 3191 2616 2906 2266 
Q 2828 2175 2409 1742 
Q 1991 1309 1228 531 
z
" transform="scale(0.015625)"/>
        <path id="DejaVuSans-30" d="M 2034 4250 
Q 1547 4250 1301 3770 
Q 1056 3291 1056 2328 
Q 1056 1369 1301 889 
Q 1547 409 2034 409 
Q 2525 409 2770 889 
Q 3016 1369 3016 2328 
Q 3016 3291 2770 3770 
Q 2525 4250 2034 4250 
z
M 2034 4750 
Q 2819 4750 3233 4129 
Q 3647 3509 3647 2328 
Q 3647 1150 3233 529 
Q 2819 -91 2034 -91 
Q 1250 -91 836 529 
Q 422 1150 422 2328 
Q 422 3509 836 4129 
Q 1250 4750 2034 4750 
z
" transform="scale(0.015625)"/>
       </defs>
       <use xlink:href="#DejaVuSans-32"/>
       <use xlink:href="#DejaVuSans-30" transform="translate(63.623047 0)"/>
       <use xlink:href="#DejaVuSans-30" transform="translate(127.246094 0)"/>
      </g>
     </g>
    </g>
    <g id="ytick_2">
     <g id="line2d_38">
      <path d="M 33.2875 59.923852 
L 277.894499 59.923852 
" clip-path="url(#pa2c01d0ac0)" style="fill: none; stroke-dasharray: 2.96,1.28; stroke-dashoffset: 0; stroke: #000000; stroke-opacity: 0.1; stroke-width: 0.8"/>
     </g>
     <g id="line2d_39">
      <g>
       <use xlink:href="#mdc03f2bf70" x="33.2875" y="59.923852" style="stroke: #000000; stroke-width: 0.8"/>
      </g>
     </g>
     <g id="text_2">
      <!-- 400 -->
      <g transform="translate(7.2 63.723071) scale(0.1 -0.1)">
       <defs>
        <path id="DejaVuSans-34" d="M 2419 4116 
L 825 1625 
L 2419 1625 
L 2419 4116 
z
M 2253 4666 
L 3047 4666 
L 3047 1625 
L 3713 1625 
L 3713 1100 
L 3047 1100 
L 3047 0 
L 2419 0 
L 2419 1100 
L 313 1100 
L 313 1709 
L 2253 4666 
z
" transform="scale(0.015625)"/>
       </defs>
       <use xlink:href="#DejaVuSans-34"/>
       <use xlink:href="#DejaVuSans-30" transform="translate(63.623047 0)"/>
       <use xlink:href="#DejaVuSans-30" transform="translate(127.246094 0)"/>
      </g>
     </g>
    </g>
    <g id="ytick_3">
     <g id="line2d_40">
      <path d="M 33.2875 27.260216 
L 277.894499 27.260216 
" clip-path="url(#pa2c01d0ac0)" style="fill: none; stroke-dasharray: 2.96,1.28; stroke-dashoffset: 0; stroke: #000000; stroke-opacity: 0.1; stroke-width: 0.8"/>
     </g>
     <g id="line2d_41">
      <g>
       <use xlink:href="#mdc03f2bf70" x="33.2875" y="27.260216" style="stroke: #000000; stroke-width: 0.8"/>
      </g>
     </g>
     <g id="text_3">
      <!-- 600 -->
      <g transform="translate(7.2 31.059434) scale(0.1 -0.1)">
       <defs>
        <path id="DejaVuSans-36" d="M 2113 2584 
Q 1688 2584 1439 2293 
Q 1191 2003 1191 1497 
Q 1191 994 1439 701 
Q 1688 409 2113 409 
Q 2538 409 2786 701 
Q 3034 994 3034 1497 
Q 3034 2003 2786 2293 
Q 2538 2584 2113 2584 
z
M 3366 4563 
L 3366 3988 
Q 3128 4100 2886 4159 
Q 2644 4219 2406 4219 
Q 1781 4219 1451 3797 
Q 1122 3375 1075 2522 
Q 1259 2794 1537 2939 
Q 1816 3084 2150 3084 
Q 2853 3084 3261 2657 
Q 3669 2231 3669 1497 
Q 3669 778 3244 343 
Q 2819 -91 2113 -91 
Q 1303 -91 875 529 
Q 447 1150 447 2328 
Q 447 3434 972 4092 
Q 1497 4750 2381 4750 
Q 2619 4750 2861 4703 
Q 3103 4656 3366 4563 
z
" transform="scale(0.015625)"/>
       </defs>
       <use xlink:href="#DejaVuSans-36"/>
       <use xlink:href="#DejaVuSans-30" transform="translate(63.623047 0)"/>
       <use xlink:href="#DejaVuSans-30" transform="translate(127.246094 0)"/>
      </g>
     </g>
    </g>
   </g>
   <g id="line2d_42">
    <path d="M 33.2875 119.844606 
L 33.872684 119.62014 
L 34.457868 119.241281 
L 35.043053 119.107845 
L 35.628237 119.10588 
L 36.213421 118.868643 
L 36.798605 119.174317 
L 37.383789 118.901715 
L 37.968974 118.776957 
L 38.554158 118.900897 
L 39.139342 118.825747 
L 39.724526 119.107845 
L 40.30971 118.422329 
L 40.894895 118.558385 
L 41.480079 118.494205 
L 42.065263 118.641721 
L 42.650447 118.457366 
L 43.235632 118.450817 
L 43.820816 118.568863 
L 44.406 118.305757 
L 44.991184 118.472429 
L 48.502289 117.991897 
L 49.087474 117.856169 
L 49.672658 118.044125 
L 50.257842 117.8804 
L 51.42821 117.914128 
L 52.013395 117.6615 
L 52.598579 117.737305 
L 53.183763 117.59159 
L 53.768947 117.69048 
L 54.354131 117.614184 
L 54.939316 117.365977 
L 56.109684 117.952767 
L 57.280053 117.77709 
L 57.865237 117.977325 
L 59.035605 117.466177 
L 59.620789 117.675417 
L 60.205974 117.517586 
L 60.791158 117.823097 
L 61.961526 117.549185 
L 64.302263 116.518047 
L 66.643 115.682887 
L 67.228184 115.730531 
L 67.813368 115.33972 
L 68.398552 115.166826 
L 68.983737 114.837903 
L 70.739289 114.540743 
L 71.324473 114.295974 
L 71.909658 114.271252 
L 72.494842 114.77356 
L 73.080026 114.576435 
L 73.66521 113.997832 
L 74.250395 113.704109 
L 74.835579 112.856834 
L 75.420763 113.123378 
L 76.005947 112.37974 
L 76.591131 112.303444 
L 77.176316 112.855197 
L 78.931868 110.759192 
L 79.517052 109.626708 
L 80.102237 110.524575 
L 80.687421 109.741807 
L 81.272605 110.276532 
L 81.857789 109.608862 
L 83.028158 109.201515 
L 83.613342 108.070832 
L 84.198526 107.212751 
L 84.78371 107.049026 
L 85.368894 107.391702 
L 85.954079 106.687358 
L 86.539263 106.902983 
L 87.124447 109.578082 
L 87.709631 108.600154 
L 88.88 106.199622 
L 89.465184 105.125587 
L 90.050368 104.300251 
L 90.635552 104.976598 
L 91.805921 103.390924 
L 92.391105 103.936782 
L 92.976289 102.776465 
L 93.561473 103.49669 
L 94.146658 103.632745 
L 94.731842 104.249987 
L 95.317026 102.936587 
L 95.90221 102.508611 
L 96.487394 101.195866 
L 97.072579 102.420363 
L 97.657763 102.879448 
L 98.242947 100.715661 
L 98.828131 101.471251 
L 99.413315 101.992387 
L 99.9985 101.435723 
L 100.583684 101.824896 
L 101.168868 100.402947 
L 101.754052 101.731901 
L 102.339236 101.848309 
L 102.924421 103.722139 
L 103.509605 103.634874 
L 104.094789 102.88616 
L 104.679973 104.950238 
L 105.265158 106.253651 
L 105.850342 104.794372 
L 106.435526 104.690243 
L 107.02071 105.204994 
L 107.605894 105.420292 
L 108.776263 108.208361 
L 109.361447 107.899903 
L 109.946631 106.595508 
L 110.531815 106.454214 
L 111.702184 107.131216 
L 112.287368 106.465511 
L 112.872552 107.619279 
L 113.457736 107.779402 
L 114.628105 110.325649 
L 115.213289 110.252792 
L 115.798473 111.902973 
L 116.383657 110.749041 
L 116.968842 109.921413 
L 117.554026 110.846294 
L 118.13921 111.241198 
L 118.724394 111.479418 
L 119.309578 111.364319 
L 119.894763 110.238875 
L 120.479947 109.474772 
L 121.650315 109.037299 
L 122.2355 108.747506 
L 122.820684 108.944631 
L 123.405868 108.048402 
L 123.991052 107.925772 
L 124.576236 107.046242 
L 125.746605 106.505623 
L 126.916973 107.121883 
L 128.087342 106.57275 
L 128.672526 107.213242 
L 129.25771 107.171983 
L 130.428078 106.746954 
L 131.598447 105.408995 
L 132.183631 105.910811 
L 132.768815 105.553558 
L 133.939184 106.345742 
L 134.524368 105.735474 
L 135.109552 105.785938 
L 135.694736 105.04405 
L 136.279921 105.229797 
L 136.865105 105.157488 
L 137.450289 105.63461 
L 138.035473 104.768635 
L 138.620657 104.914397 
L 139.205842 104.419938 
L 139.791026 104.312512 
L 140.961394 103.781898 
L 141.546578 104.417885 
L 142.131763 104.464348 
L 142.716947 104.367167 
L 143.887315 103.445754 
L 144.472499 102.744888 
L 145.057684 102.298883 
L 145.642868 102.126577 
L 146.228052 101.776038 
L 146.813236 102.234109 
L 147.39842 102.061803 
L 148.568789 100.210044 
L 149.153973 100.688225 
L 149.739157 101.455981 
L 150.324341 101.147989 
L 150.909526 100.335781 
L 151.49471 99.995191 
L 152.079894 100.971662 
L 152.665078 101.372791 
L 153.250263 102.817494 
L 153.835447 103.398761 
L 154.420631 103.696169 
L 155.005815 102.669319 
L 155.590999 102.325554 
L 156.176184 104.347227 
L 156.761368 104.537864 
L 157.346552 104.219797 
L 157.931736 106.306243 
L 158.51692 109.43677 
L 159.102105 110.538278 
L 159.687289 110.513173 
L 160.857657 113.177098 
L 161.442841 112.26356 
L 162.028026 110.97406 
L 162.61321 110.138948 
L 163.198394 110.233335 
L 163.783578 109.113834 
L 164.953947 108.006419 
L 165.539131 108.337462 
L 166.124315 107.29715 
L 166.709499 107.05336 
L 167.294683 107.713669 
L 167.879868 107.161147 
L 168.465052 106.142108 
L 169.050236 105.846288 
L 169.63542 107.389928 
L 170.220605 108.393409 
L 170.805789 107.240843 
L 171.390973 108.050999 
L 171.976157 106.611334 
L 172.561341 105.898805 
L 173.146526 105.898805 
L 173.73171 104.717811 
L 174.316894 104.235545 
L 174.902078 103.508622 
L 175.487262 103.602157 
L 176.072447 102.972595 
L 176.657631 103.216663 
L 177.827999 104.132329 
L 178.413183 105.288393 
L 178.998368 106.77079 
L 179.583552 104.746083 
L 180.168736 104.837701 
L 180.75392 104.756368 
L 181.924289 102.869237 
L 182.509473 102.257795 
L 183.094657 102.403534 
L 183.679841 103.776701 
L 184.265026 103.019162 
L 184.85021 102.761224 
L 186.020578 101.738608 
L 186.605762 102.167174 
L 187.776131 101.994212 
L 188.361315 100.802679 
L 188.946499 100.489939 
L 189.531683 99.662439 
L 190.702052 98.55311 
L 191.287236 99.048961 
L 191.87242 97.703844 
L 192.457604 98.52634 
L 193.042789 97.818079 
L 193.627973 96.542049 
L 194.213157 95.688564 
L 194.798341 95.085042 
L 195.383525 96.154983 
L 195.96871 94.828392 
L 197.139078 94.492132 
L 197.724262 93.78593 
L 198.309446 93.283528 
L 198.894631 93.709405 
L 199.479815 92.472942 
L 200.064999 93.070157 
L 201.235368 91.413004 
L 201.820552 91.679257 
L 202.405736 92.679167 
L 202.99092 90.846843 
L 203.576104 91.536455 
L 204.746473 90.769083 
L 205.331657 91.625678 
L 205.916841 90.873226 
L 206.502025 92.968115 
L 207.08721 93.95751 
L 207.672394 91.291909 
L 208.257578 91.170448 
L 208.842762 91.952025 
L 209.427946 93.612041 
L 210.013131 93.639743 
L 210.598315 91.682626 
L 211.183499 91.556611 
L 211.768683 90.980135 
L 212.353867 91.039897 
L 212.939052 89.790995 
L 213.524236 89.747505 
L 214.10942 89.924265 
L 214.694604 90.538711 
L 215.279789 89.259776 
L 216.450157 88.092608 
L 217.035341 86.628337 
L 217.620525 86.752824 
L 218.20571 86.371443 
L 218.790894 85.815199 
L 219.376078 85.761792 
L 219.961262 84.947692 
L 220.546446 84.832239 
L 221.131631 84.217797 
L 221.716815 83.252431 
L 222.301999 81.970808 
L 222.887183 81.667491 
L 223.472367 79.214693 
L 224.642736 82.271984 
L 225.22792 82.051971 
L 225.813104 81.002157 
L 226.398288 80.942823 
L 227.568657 77.837157 
L 228.153841 77.767647 
L 228.739025 81.048415 
L 229.324209 80.232388 
L 229.909394 84.43562 
L 230.494578 81.169825 
L 231.079762 79.734345 
L 231.664946 79.118933 
L 232.250131 77.229943 
L 232.835315 80.297356 
L 233.420499 77.399076 
L 234.005683 76.676959 
L 234.590867 77.487379 
L 235.176052 76.783645 
L 235.761236 75.711471 
L 236.34642 73.919957 
L 236.931604 72.686088 
L 237.516788 72.708529 
L 238.101973 76.865097 
L 238.687157 83.154443 
L 239.272341 77.809443 
L 239.857525 75.549847 
L 240.442709 74.889571 
L 241.027894 71.92511 
L 241.613078 68.202481 
L 242.198262 70.557394 
L 242.783446 71.921005 
L 243.36863 66.122349 
L 243.953815 64.190192 
L 244.538999 64.81273 
L 245.124183 63.130889 
L 245.709367 60.522634 
L 246.294551 57.097509 
L 246.879736 56.650588 
L 247.46492 55.341248 
L 248.050104 53.634372 
L 248.635288 51.501682 
L 249.220473 55.165439 
L 249.805657 50.246358 
L 250.390841 50.849971 
L 250.976025 47.682346 
L 251.561209 51.773301 
L 252.146394 53.942191 
L 252.731578 51.489956 
L 253.316762 57.963961 
L 253.901946 57.812264 
L 254.48713 63.639495 
L 255.072315 57.965766 
L 255.657499 60.711053 
L 256.242683 66.917414 
L 256.827867 62.175929 
L 257.413051 58.669307 
L 257.998236 62.793258 
L 258.58342 58.865419 
L 259.168604 60.534919 
L 259.753788 58.390304 
L 260.338972 57.322142 
L 260.924157 57.008707 
L 261.509341 52.85537 
L 262.094525 50.485559 
L 262.679709 51.700722 
L 263.264894 55.435698 
L 263.850078 56.951436 
L 264.435262 50.712737 
L 265.020446 47.624356 
L 265.60563 46.388159 
L 266.190815 42.272422 
L 266.775999 39.824206 
L 267.361183 43.268752 
L 267.946367 39.122098 
L 268.531551 36.370177 
L 269.116736 35.293941 
L 269.70192 33.191918 
L 270.287104 31.54573 
L 270.872288 32.381832 
L 271.457472 26.843868 
L 272.042657 29.533561 
L 272.627841 26.962901 
L 273.213025 28.210801 
L 273.798209 33.892567 
L 274.383393 34.68466 
L 275.553762 24.344986 
L 276.72413 19.902732 
L 277.309314 16.451818 
L 277.894499 13.858326 
L 277.894499 13.858326 
" clip-path="url(#pa2c01d0ac0)" style="fill: none; stroke: #1f77b4; stroke-width: 1.5; stroke-linecap: square"/>
   </g>
   <g id="patch_3">
    <path d="M 33.2875 125.14392 
L 33.2875 8.559012 
" style="fill: none"/>
   </g>
   <g id="patch_4">
    <path d="M 277.894499 125.14392 
L 277.894499 8.559012 
" style="fill: none"/>
   </g>
   <g id="patch_5">
    <path d="M 33.2875 125.14392 
L 277.894499 125.14392 
" style="fill: none; stroke: #000000; stroke-width: 0.8; stroke-linejoin: miter; stroke-linecap: square"/>
   </g>
   <g id="patch_6">
    <path d="M 33.2875 8.559012 
L 277.894499 8.559012 
" style="fill: none"/>
   </g>
   <g id="legend_1">
    <g id="patch_7">
     <path d="M 40.2875 31.237137 
L 90.548438 31.237137 
Q 92.548438 31.237137 92.548438 29.237137 
L 92.548438 15.559012 
Q 92.548438 13.559012 90.548438 13.559012 
L 40.2875 13.559012 
Q 38.2875 13.559012 38.2875 15.559012 
L 38.2875 29.237137 
Q 38.2875 31.237137 40.2875 31.237137 
L 40.2875 31.237137 
z
" style="fill: none; opacity: 0"/>
    </g>
    <g id="line2d_43">
     <path d="M 42.2875 21.657449 
L 52.2875 21.657449 
L 62.2875 21.657449 
" style="fill: none; stroke: #1f77b4; stroke-width: 1.5; stroke-linecap: square"/>
    </g>
    <g id="text_4">
     <!-- SPY -->
     <g transform="translate(70.2875 25.157449) scale(0.1 -0.1)">
      <defs>
       <path id="DejaVuSans-53" d="M 3425 4513 
L 3425 3897 
Q 3066 4069 2747 4153 
Q 2428 4238 2131 4238 
Q 1616 4238 1336 4038 
Q 1056 3838 1056 3469 
Q 1056 3159 1242 3001 
Q 1428 2844 1947 2747 
L 2328 2669 
Q 3034 2534 3370 2195 
Q 3706 1856 3706 1288 
Q 3706 609 3251 259 
Q 2797 -91 1919 -91 
Q 1588 -91 1214 -16 
Q 841 59 441 206 
L 441 856 
Q 825 641 1194 531 
Q 1563 422 1919 422 
Q 2459 422 2753 634 
Q 3047 847 3047 1241 
Q 3047 1584 2836 1778 
Q 2625 1972 2144 2069 
L 1759 2144 
Q 1053 2284 737 2584 
Q 422 2884 422 3419 
Q 422 4038 858 4394 
Q 1294 4750 2059 4750 
Q 2388 4750 2728 4690 
Q 3069 4631 3425 4513 
z
" transform="scale(0.015625)"/>
       <path id="DejaVuSans-50" d="M 1259 4147 
L 1259 2394 
L 2053 2394 
Q 2494 2394 2734 2622 
Q 2975 2850 2975 3272 
Q 2975 3691 2734 3919 
Q 2494 4147 2053 4147 
L 1259 4147 
z
M 628 4666 
L 2053 4666 
Q 2838 4666 3239 4311 
Q 3641 3956 3641 3272 
Q 3641 2581 3239 2228 
Q 2838 1875 2053 1875 
L 1259 1875 
L 1259 0 
L 628 0 
L 628 4666 
z
" transform="scale(0.015625)"/>
       <path id="DejaVuSans-59" d="M -13 4666 
L 666 4666 
L 1959 2747 
L 3244 4666 
L 3922 4666 
L 2272 2222 
L 2272 0 
L 1638 0 
L 1638 2222 
L -13 4666 
z
" transform="scale(0.015625)"/>
      </defs>
      <use xlink:href="#DejaVuSans-53"/>
      <use xlink:href="#DejaVuSans-50" transform="translate(63.476562 0)"/>
      <use xlink:href="#DejaVuSans-59" transform="translate(121.529297 0)"/>
     </g>
    </g>
   </g>
  </g>
  <g id="axes_2">
   <g id="patch_8">
    <path d="M 314.684499 125.14392 
L 559.291497 125.14392 
L 559.291497 8.559012 
L 314.684499 8.559012 
L 314.684499 125.14392 
z
" style="fill: none"/>
   </g>
   <g id="matplotlib.axis_3">
    <g id="xtick_36">
     <g id="line2d_44">
      <g>
       <use xlink:href="#m327d0c4cea" x="336.336314" y="125.14392" style="stroke: #000000; stroke-width: 0.8"/>
      </g>
     </g>
    </g>
    <g id="xtick_37">
     <g id="line2d_45">
      <g>
       <use xlink:href="#m327d0c4cea" x="371.447367" y="125.14392" style="stroke: #000000; stroke-width: 0.8"/>
      </g>
     </g>
    </g>
    <g id="xtick_38">
     <g id="line2d_46">
      <g>
       <use xlink:href="#m327d0c4cea" x="406.558419" y="125.14392" style="stroke: #000000; stroke-width: 0.8"/>
      </g>
     </g>
    </g>
    <g id="xtick_39">
     <g id="line2d_47">
      <g>
       <use xlink:href="#m327d0c4cea" x="441.669472" y="125.14392" style="stroke: #000000; stroke-width: 0.8"/>
      </g>
     </g>
    </g>
    <g id="xtick_40">
     <g id="line2d_48">
      <g>
       <use xlink:href="#m327d0c4cea" x="476.780524" y="125.14392" style="stroke: #000000; stroke-width: 0.8"/>
      </g>
     </g>
    </g>
    <g id="xtick_41">
     <g id="line2d_49">
      <g>
       <use xlink:href="#m327d0c4cea" x="511.891577" y="125.14392" style="stroke: #000000; stroke-width: 0.8"/>
      </g>
     </g>
    </g>
    <g id="xtick_42">
     <g id="line2d_50">
      <g>
       <use xlink:href="#m327d0c4cea" x="547.002629" y="125.14392" style="stroke: #000000; stroke-width: 0.8"/>
      </g>
     </g>
    </g>
    <g id="xtick_43">
     <g id="line2d_51">
      <g>
       <use xlink:href="#mfab5ffe05a" x="315.269683" y="125.14392" style="stroke: #000000; stroke-width: 0.6"/>
      </g>
     </g>
    </g>
    <g id="xtick_44">
     <g id="line2d_52">
      <g>
       <use xlink:href="#mfab5ffe05a" x="322.291893" y="125.14392" style="stroke: #000000; stroke-width: 0.6"/>
      </g>
     </g>
    </g>
    <g id="xtick_45">
     <g id="line2d_53">
      <g>
       <use xlink:href="#mfab5ffe05a" x="329.314104" y="125.14392" style="stroke: #000000; stroke-width: 0.6"/>
      </g>
     </g>
    </g>
    <g id="xtick_46">
     <g id="line2d_54">
      <g>
       <use xlink:href="#mfab5ffe05a" x="343.358525" y="125.14392" style="stroke: #000000; stroke-width: 0.6"/>
      </g>
     </g>
    </g>
    <g id="xtick_47">
     <g id="line2d_55">
      <g>
       <use xlink:href="#mfab5ffe05a" x="350.380735" y="125.14392" style="stroke: #000000; stroke-width: 0.6"/>
      </g>
     </g>
    </g>
    <g id="xtick_48">
     <g id="line2d_56">
      <g>
       <use xlink:href="#mfab5ffe05a" x="357.402946" y="125.14392" style="stroke: #000000; stroke-width: 0.6"/>
      </g>
     </g>
    </g>
    <g id="xtick_49">
     <g id="line2d_57">
      <g>
       <use xlink:href="#mfab5ffe05a" x="364.425156" y="125.14392" style="stroke: #000000; stroke-width: 0.6"/>
      </g>
     </g>
    </g>
    <g id="xtick_50">
     <g id="line2d_58">
      <g>
       <use xlink:href="#mfab5ffe05a" x="378.469577" y="125.14392" style="stroke: #000000; stroke-width: 0.6"/>
      </g>
     </g>
    </g>
    <g id="xtick_51">
     <g id="line2d_59">
      <g>
       <use xlink:href="#mfab5ffe05a" x="385.491788" y="125.14392" style="stroke: #000000; stroke-width: 0.6"/>
      </g>
     </g>
    </g>
    <g id="xtick_52">
     <g id="line2d_60">
      <g>
       <use xlink:href="#mfab5ffe05a" x="392.513998" y="125.14392" style="stroke: #000000; stroke-width: 0.6"/>
      </g>
     </g>
    </g>
    <g id="xtick_53">
     <g id="line2d_61">
      <g>
       <use xlink:href="#mfab5ffe05a" x="399.536209" y="125.14392" style="stroke: #000000; stroke-width: 0.6"/>
      </g>
     </g>
    </g>
    <g id="xtick_54">
     <g id="line2d_62">
      <g>
       <use xlink:href="#mfab5ffe05a" x="413.58063" y="125.14392" style="stroke: #000000; stroke-width: 0.6"/>
      </g>
     </g>
    </g>
    <g id="xtick_55">
     <g id="line2d_63">
      <g>
       <use xlink:href="#mfab5ffe05a" x="420.60284" y="125.14392" style="stroke: #000000; stroke-width: 0.6"/>
      </g>
     </g>
    </g>
    <g id="xtick_56">
     <g id="line2d_64">
      <g>
       <use xlink:href="#mfab5ffe05a" x="427.625051" y="125.14392" style="stroke: #000000; stroke-width: 0.6"/>
      </g>
     </g>
    </g>
    <g id="xtick_57">
     <g id="line2d_65">
      <g>
       <use xlink:href="#mfab5ffe05a" x="434.647261" y="125.14392" style="stroke: #000000; stroke-width: 0.6"/>
      </g>
     </g>
    </g>
    <g id="xtick_58">
     <g id="line2d_66">
      <g>
       <use xlink:href="#mfab5ffe05a" x="448.691682" y="125.14392" style="stroke: #000000; stroke-width: 0.6"/>
      </g>
     </g>
    </g>
    <g id="xtick_59">
     <g id="line2d_67">
      <g>
       <use xlink:href="#mfab5ffe05a" x="455.713893" y="125.14392" style="stroke: #000000; stroke-width: 0.6"/>
      </g>
     </g>
    </g>
    <g id="xtick_60">
     <g id="line2d_68">
      <g>
       <use xlink:href="#mfab5ffe05a" x="462.736103" y="125.14392" style="stroke: #000000; stroke-width: 0.6"/>
      </g>
     </g>
    </g>
    <g id="xtick_61">
     <g id="line2d_69">
      <g>
       <use xlink:href="#mfab5ffe05a" x="469.758314" y="125.14392" style="stroke: #000000; stroke-width: 0.6"/>
      </g>
     </g>
    </g>
    <g id="xtick_62">
     <g id="line2d_70">
      <g>
       <use xlink:href="#mfab5ffe05a" x="483.802735" y="125.14392" style="stroke: #000000; stroke-width: 0.6"/>
      </g>
     </g>
    </g>
    <g id="xtick_63">
     <g id="line2d_71">
      <g>
       <use xlink:href="#mfab5ffe05a" x="490.824945" y="125.14392" style="stroke: #000000; stroke-width: 0.6"/>
      </g>
     </g>
    </g>
    <g id="xtick_64">
     <g id="line2d_72">
      <g>
       <use xlink:href="#mfab5ffe05a" x="497.847156" y="125.14392" style="stroke: #000000; stroke-width: 0.6"/>
      </g>
     </g>
    </g>
    <g id="xtick_65">
     <g id="line2d_73">
      <g>
       <use xlink:href="#mfab5ffe05a" x="504.869366" y="125.14392" style="stroke: #000000; stroke-width: 0.6"/>
      </g>
     </g>
    </g>
    <g id="xtick_66">
     <g id="line2d_74">
      <g>
       <use xlink:href="#mfab5ffe05a" x="518.913787" y="125.14392" style="stroke: #000000; stroke-width: 0.6"/>
      </g>
     </g>
    </g>
    <g id="xtick_67">
     <g id="line2d_75">
      <g>
       <use xlink:href="#mfab5ffe05a" x="525.935998" y="125.14392" style="stroke: #000000; stroke-width: 0.6"/>
      </g>
     </g>
    </g>
    <g id="xtick_68">
     <g id="line2d_76">
      <g>
       <use xlink:href="#mfab5ffe05a" x="532.958208" y="125.14392" style="stroke: #000000; stroke-width: 0.6"/>
      </g>
     </g>
    </g>
    <g id="xtick_69">
     <g id="line2d_77">
      <g>
       <use xlink:href="#mfab5ffe05a" x="539.980419" y="125.14392" style="stroke: #000000; stroke-width: 0.6"/>
      </g>
     </g>
    </g>
    <g id="xtick_70">
     <g id="line2d_78">
      <g>
       <use xlink:href="#mfab5ffe05a" x="554.02484" y="125.14392" style="stroke: #000000; stroke-width: 0.6"/>
      </g>
     </g>
    </g>
   </g>
   <g id="matplotlib.axis_4">
    <g id="ytick_4">
     <g id="line2d_79">
      <path d="M 314.684499 89.877555 
L 559.291497 89.877555 
" clip-path="url(#p60dfdda575)" style="fill: none; stroke-dasharray: 2.96,1.28; stroke-dashoffset: 0; stroke: #000000; stroke-opacity: 0.1; stroke-width: 0.8"/>
     </g>
     <g id="line2d_80">
      <g>
       <use xlink:href="#mdc03f2bf70" x="314.684499" y="89.877555" style="stroke: #000000; stroke-width: 0.8"/>
      </g>
     </g>
     <g id="text_5">
      <!-- 50 -->
      <g transform="translate(294.959499 93.676774) scale(0.1 -0.1)">
       <defs>
        <path id="DejaVuSans-35" d="M 691 4666 
L 3169 4666 
L 3169 4134 
L 1269 4134 
L 1269 2991 
Q 1406 3038 1543 3061 
Q 1681 3084 1819 3084 
Q 2600 3084 3056 2656 
Q 3513 2228 3513 1497 
Q 3513 744 3044 326 
Q 2575 -91 1722 -91 
Q 1428 -91 1123 -41 
Q 819 9 494 109 
L 494 744 
Q 775 591 1075 516 
Q 1375 441 1709 441 
Q 2250 441 2565 725 
Q 2881 1009 2881 1497 
Q 2881 1984 2565 2268 
Q 2250 2553 1709 2553 
Q 1456 2553 1204 2497 
Q 953 2441 691 2322 
L 691 4666 
z
" transform="scale(0.015625)"/>
       </defs>
       <use xlink:href="#DejaVuSans-35"/>
       <use xlink:href="#DejaVuSans-30" transform="translate(63.623047 0)"/>
      </g>
     </g>
    </g>
    <g id="ytick_5">
     <g id="line2d_81">
      <path d="M 314.684499 50.438387 
L 559.291497 50.438387 
" clip-path="url(#p60dfdda575)" style="fill: none; stroke-dasharray: 2.96,1.28; stroke-dashoffset: 0; stroke: #000000; stroke-opacity: 0.1; stroke-width: 0.8"/>
     </g>
     <g id="line2d_82">
      <g>
       <use xlink:href="#mdc03f2bf70" x="314.684499" y="50.438387" style="stroke: #000000; stroke-width: 0.8"/>
      </g>
     </g>
     <g id="text_6">
      <!-- 100 -->
      <g transform="translate(288.596999 54.237606) scale(0.1 -0.1)">
       <defs>
        <path id="DejaVuSans-31" d="M 794 531 
L 1825 531 
L 1825 4091 
L 703 3866 
L 703 4441 
L 1819 4666 
L 2450 4666 
L 2450 531 
L 3481 531 
L 3481 0 
L 794 0 
L 794 531 
z
" transform="scale(0.015625)"/>
       </defs>
       <use xlink:href="#DejaVuSans-31"/>
       <use xlink:href="#DejaVuSans-30" transform="translate(63.623047 0)"/>
       <use xlink:href="#DejaVuSans-30" transform="translate(127.246094 0)"/>
      </g>
     </g>
    </g>
    <g id="ytick_6">
     <g id="line2d_83">
      <path d="M 314.684499 10.999219 
L 559.291497 10.999219 
" clip-path="url(#p60dfdda575)" style="fill: none; stroke-dasharray: 2.96,1.28; stroke-dashoffset: 0; stroke: #000000; stroke-opacity: 0.1; stroke-width: 0.8"/>
     </g>
     <g id="line2d_84">
      <g>
       <use xlink:href="#mdc03f2bf70" x="314.684499" y="10.999219" style="stroke: #000000; stroke-width: 0.8"/>
      </g>
     </g>
     <g id="text_7">
      <!-- 150 -->
      <g transform="translate(288.596999 14.798438) scale(0.1 -0.1)">
       <use xlink:href="#DejaVuSans-31"/>
       <use xlink:href="#DejaVuSans-35" transform="translate(63.623047 0)"/>
       <use xlink:href="#DejaVuSans-30" transform="translate(127.246094 0)"/>
      </g>
     </g>
    </g>
   </g>
   <g id="line2d_85">
    <path d="M 314.684499 119.844606 
L 315.854867 119.64131 
L 318.195604 119.586248 
L 318.780788 119.450038 
L 319.951157 118.740081 
L 321.121525 118.723458 
L 321.706709 118.032966 
L 322.291893 118.38202 
L 322.877078 118.346852 
L 324.047446 118.486855 
L 324.63263 118.161983 
L 325.217814 118.024199 
L 325.802999 117.536648 
L 326.973367 117.279973 
L 327.558551 117.520532 
L 328.143735 117.39288 
L 329.314104 116.724741 
L 329.899288 116.205685 
L 331.654841 116.085965 
L 332.240025 115.538037 
L 332.825209 115.277666 
L 333.410393 114.367973 
L 333.995578 114.196346 
L 334.580762 114.177605 
L 335.165946 114.694728 
L 335.75113 114.662313 
L 336.336314 114.283582 
L 337.506683 115.6356 
L 338.677051 115.972448 
L 339.262235 116.133546 
L 339.84742 115.650855 
L 340.432604 115.730741 
L 341.017788 116.166273 
L 341.602972 116.241517 
L 342.188156 116.163988 
L 342.773341 115.952829 
L 343.943709 115.134886 
L 345.114077 114.716123 
L 345.699262 113.44 
L 346.284446 113.221607 
L 346.86963 113.563935 
L 349.795551 111.333082 
L 350.380735 111.369086 
L 350.96592 112.287565 
L 352.136288 112.983119 
L 352.721472 113.07657 
L 353.306656 112.74594 
L 353.891841 112.733553 
L 354.477025 112.983883 
L 355.062209 112.475084 
L 356.232577 111.071024 
L 356.817762 111.558637 
L 357.402946 111.72013 
L 357.98813 111.694305 
L 358.573314 112.187655 
L 359.158498 111.759461 
L 359.743683 111.546738 
L 360.328867 111.183559 
L 360.914051 109.9633 
L 361.499235 110.595754 
L 363.254788 108.947381 
L 364.425156 108.124039 
L 365.010341 108.299931 
L 366.180709 108.187039 
L 367.351077 107.112843 
L 367.936262 107.230467 
L 369.10663 105.005127 
L 369.691814 105.524929 
L 370.276998 105.238873 
L 370.862183 105.259472 
L 371.447367 105.060409 
L 372.032551 106.444664 
L 373.202919 106.476686 
L 373.788104 106.909352 
L 374.958472 107.341449 
L 375.543656 107.350088 
L 376.12884 107.18041 
L 377.299209 107.383375 
L 377.884393 107.763855 
L 378.469577 107.453015 
L 379.639946 105.685825 
L 380.810314 106.018175 
L 382.565867 104.369629 
L 383.151051 104.795229 
L 383.736235 104.345895 
L 384.906604 102.793716 
L 385.491788 102.879465 
L 386.076972 102.217064 
L 386.662156 102.427222 
L 387.24734 103.362059 
L 387.832525 103.287198 
L 388.417709 103.037136 
L 389.002893 101.948398 
L 389.588077 101.328515 
L 390.173261 101.186324 
L 390.758446 99.364622 
L 391.34363 100.982077 
L 391.928814 101.576573 
L 392.513998 101.240038 
L 393.099182 101.043526 
L 393.684367 102.308275 
L 394.269551 101.268349 
L 394.854735 101.220999 
L 395.439919 100.738193 
L 396.025104 99.832185 
L 397.195472 96.881627 
L 397.780656 98.079885 
L 398.36584 98.366057 
L 398.951025 96.965417 
L 399.536209 97.151702 
L 400.121393 96.155432 
L 400.706577 96.607982 
L 401.291761 96.26509 
L 401.876946 94.176354 
L 402.46213 94.811254 
L 403.047314 98.255174 
L 403.632498 97.849656 
L 404.217682 95.982293 
L 404.802867 96.992726 
L 405.388051 96.883002 
L 405.973235 96.447296 
L 407.728788 94.588465 
L 408.313972 96.753873 
L 408.899156 96.837904 
L 409.48434 96.495764 
L 410.069525 95.993095 
L 410.654709 94.60494 
L 411.239893 94.275371 
L 411.825077 93.656987 
L 412.410261 94.511308 
L 412.995446 93.585906 
L 413.58063 92.310815 
L 414.165814 92.855587 
L 414.750998 93.021358 
L 415.921367 90.435679 
L 416.506551 89.593985 
L 417.091735 90.936926 
L 417.676919 89.602644 
L 418.262103 91.037493 
L 418.847288 91.895292 
L 419.432472 91.636976 
L 420.017656 90.513483 
L 420.60284 91.032831 
L 421.188024 90.608674 
L 421.773209 92.3776 
L 422.358393 93.39432 
L 422.943577 93.462884 
L 423.528761 93.040406 
L 424.113945 92.25565 
L 424.69913 91.123019 
L 425.284314 90.391622 
L 425.869498 90.062062 
L 426.454682 89.155999 
L 427.039867 90.238606 
L 427.625051 90.627485 
L 428.210235 89.316325 
L 428.795419 89.996458 
L 429.380603 89.640602 
L 429.965788 90.558629 
L 430.550972 90.951426 
L 431.136156 89.678066 
L 431.72134 88.96945 
L 432.306524 88.877375 
L 432.891709 88.142945 
L 433.476893 85.939622 
L 434.062077 86.211914 
L 434.647261 85.308494 
L 435.232445 85.508865 
L 435.81763 84.57188 
L 436.987998 86.857311 
L 437.573182 85.730606 
L 438.158366 85.890722 
L 438.743551 84.701165 
L 439.328735 84.042668 
L 439.913919 84.885063 
L 441.084287 71.577051 
L 441.669472 79.124088 
L 442.254656 79.893 
L 442.83984 77.892661 
L 443.425024 81.467678 
L 444.010209 83.235662 
L 445.180577 82.622126 
L 446.350945 80.407007 
L 446.93613 81.68653 
L 447.521314 81.108814 
L 448.106498 84.167924 
L 448.691682 82.952438 
L 449.276866 83.111211 
L 449.862051 84.061816 
L 450.447235 82.558531 
L 451.617603 77.320501 
L 452.202787 77.812577 
L 452.787972 73.490914 
L 453.373156 74.897929 
L 453.95834 77.330051 
L 454.543524 78.208255 
L 455.713893 81.615281 
L 456.299077 80.828128 
L 456.884261 80.813916 
L 457.469445 79.679377 
L 458.05463 77.980375 
L 458.639814 79.172957 
L 459.224998 76.959317 
L 459.810182 71.897662 
L 460.395366 64.314823 
L 460.980551 66.803902 
L 461.565735 65.560471 
L 462.150919 63.364146 
L 462.736103 63.581722 
L 463.321287 65.288876 
L 463.906472 68.001084 
L 464.491656 65.036936 
L 465.07684 59.23546 
L 465.662024 60.411581 
L 466.247208 57.78126 
L 466.832393 58.724732 
L 467.417577 60.512685 
L 468.002761 60.845715 
L 468.587945 60.051993 
L 469.173129 61.775078 
L 469.758314 63.926512 
L 470.343498 63.116535 
L 470.928682 63.394198 
L 471.513866 60.305789 
L 472.09905 64.971587 
L 472.684235 67.076503 
L 473.269419 68.481865 
L 473.854603 69.297299 
L 474.439787 68.906104 
L 475.024972 68.041974 
L 475.610156 69.698389 
L 476.19534 70.813054 
L 476.780524 67.125704 
L 477.365708 66.799789 
L 477.950893 66.342054 
L 478.536077 65.022607 
L 479.121261 63.126229 
L 479.706445 63.29257 
L 480.291629 62.854069 
L 480.876814 59.714516 
L 481.461998 61.184745 
L 482.632366 57.185679 
L 483.21755 54.840435 
L 483.802735 47.530023 
L 484.387919 52.550386 
L 484.973103 51.711927 
L 485.558287 54.370024 
L 486.143471 56.148108 
L 486.728656 59.127533 
L 487.31384 55.936735 
L 487.899024 56.442688 
L 488.484208 55.009349 
L 489.069393 55.313128 
L 489.654577 55.955231 
L 490.239761 56.173246 
L 490.824945 52.096913 
L 491.410129 49.713939 
L 491.995314 49.788222 
L 492.580498 50.373975 
L 493.165682 49.73813 
L 493.750866 44.220022 
L 494.33605 42.430868 
L 494.921235 43.311399 
L 495.506419 44.608723 
L 496.091603 48.319474 
L 496.676787 54.972379 
L 497.261971 55.31629 
L 497.847156 54.713751 
L 498.43234 53.531593 
L 499.017524 54.02807 
L 499.602708 52.843628 
L 500.187892 51.39991 
L 500.773077 50.782911 
L 501.358261 51.299922 
L 501.943445 48.640554 
L 502.528629 50.514596 
L 503.113813 50.544978 
L 503.698998 49.959564 
L 504.284182 48.521135 
L 505.45455 53.528829 
L 506.039735 51.361559 
L 506.624919 52.989366 
L 507.210103 51.459451 
L 507.795287 50.956664 
L 508.380471 52.082595 
L 508.965656 51.069256 
L 510.136024 55.537885 
L 510.721208 54.219301 
L 511.306392 49.823469 
L 511.891577 49.522532 
L 512.476761 50.620816 
L 513.061945 46.23615 
L 513.647129 47.890361 
L 514.232313 42.32142 
L 514.817498 41.494849 
L 515.402682 41.269578 
L 515.987866 31.541148 
L 516.57305 34.161441 
L 517.158234 35.220718 
L 517.743419 35.603797 
L 518.328603 38.600277 
L 520.084155 18.507067 
L 520.66934 17.15635 
L 521.254524 19.132519 
L 521.839708 18.761599 
L 522.424892 13.858326 
L 523.010077 19.684982 
L 523.595261 18.837069 
L 524.180445 22.577048 
L 524.765629 20.801005 
L 525.350813 22.13319 
L 525.935998 26.02694 
L 527.106366 37.055719 
L 527.69155 34.75371 
L 528.276734 34.751659 
L 529.447103 26.902768 
L 530.032287 27.25115 
L 530.617471 30.218196 
L 531.78784 24.961204 
L 532.373024 27.062705 
L 532.958208 31.064822 
L 533.543392 32.669281 
L 534.128576 37.931143 
L 534.713761 46.543197 
L 535.298945 48.408338 
L 535.884129 49.439568 
L 536.469313 47.497736 
L 537.054498 51.223033 
L 537.639682 57.654131 
L 538.224866 61.92839 
L 538.81005 57.109413 
L 539.395234 59.001275 
L 539.980419 53.62662 
L 540.565603 57.298009 
L 541.150787 53.812772 
L 541.735971 53.557302 
L 542.321155 55.841672 
L 542.90634 55.682153 
L 543.491524 57.555616 
L 544.076708 59.810402 
L 544.661892 65.336943 
L 545.247076 68.832276 
L 546.417445 57.054988 
L 547.587813 60.268311 
L 548.172997 59.727748 
L 548.758182 64.220026 
L 549.343366 62.340702 
L 549.92855 61.123657 
L 550.513734 58.648288 
L 551.684103 55.713516 
L 552.269287 59.728484 
L 552.854471 58.345613 
L 553.439655 62.874291 
L 554.02484 62.547138 
L 554.610024 58.743209 
L 555.780392 60.541964 
L 556.365576 62.750053 
L 556.950761 60.976696 
L 557.535945 61.755533 
L 558.121129 61.74695 
L 558.706313 59.320537 
L 559.291497 58.353827 
L 559.291497 58.353827 
" clip-path="url(#p60dfdda575)" style="fill: none; stroke: #ff7f0e; stroke-width: 1.5; stroke-linecap: square"/>
   </g>
   <g id="patch_9">
    <path d="M 314.684499 125.14392 
L 314.684499 8.559012 
" style="fill: none"/>
   </g>
   <g id="patch_10">
    <path d="M 559.291497 125.14392 
L 559.291497 8.559012 
" style="fill: none"/>
   </g>
   <g id="patch_11">
    <path d="M 314.684499 125.14392 
L 559.291497 125.14392 
" style="fill: none; stroke: #000000; stroke-width: 0.8; stroke-linejoin: miter; stroke-linecap: square"/>
   </g>
   <g id="patch_12">
    <path d="M 314.684499 8.559012 
L 559.291497 8.559012 
" style="fill: none"/>
   </g>
   <g id="legend_2">
    <g id="patch_13">
     <path d="M 321.684499 31.237137 
L 370.096999 31.237137 
Q 372.096999 31.237137 372.096999 29.237137 
L 372.096999 15.559012 
Q 372.096999 13.559012 370.096999 13.559012 
L 321.684499 13.559012 
Q 319.684499 13.559012 319.684499 15.559012 
L 319.684499 29.237137 
Q 319.684499 31.237137 321.684499 31.237137 
L 321.684499 31.237137 
z
" style="fill: none; opacity: 0"/>
    </g>
    <g id="line2d_86">
     <path d="M 323.684499 21.657449 
L 333.684499 21.657449 
L 343.684499 21.657449 
" style="fill: none; stroke: #ff7f0e; stroke-width: 1.5; stroke-linecap: square"/>
    </g>
    <g id="text_8">
     <!-- TLT -->
     <g transform="translate(351.684499 25.157449) scale(0.1 -0.1)">
      <defs>
       <path id="DejaVuSans-54" d="M -19 4666 
L 3928 4666 
L 3928 4134 
L 2272 4134 
L 2272 0 
L 1638 0 
L 1638 4134 
L -19 4134 
L -19 4666 
z
" transform="scale(0.015625)"/>
       <path id="DejaVuSans-4c" d="M 628 4666 
L 1259 4666 
L 1259 531 
L 3531 531 
L 3531 0 
L 628 0 
L 628 4666 
z
" transform="scale(0.015625)"/>
      </defs>
      <use xlink:href="#DejaVuSans-54"/>
      <use xlink:href="#DejaVuSans-4c" transform="translate(61.083984 0)"/>
      <use xlink:href="#DejaVuSans-54" transform="translate(103.046875 0)"/>
     </g>
    </g>
   </g>
  </g>
  <g id="axes_3">
   <g id="patch_14">
    <path d="M 33.2875 256.028829 
L 277.894499 256.028829 
L 277.894499 139.44392 
L 33.2875 139.44392 
L 33.2875 256.028829 
z
" style="fill: none"/>
   </g>
   <g id="matplotlib.axis_5">
    <g id="xtick_71">
     <g id="line2d_87">
      <g>
       <use xlink:href="#m327d0c4cea" x="54.939316" y="256.028829" style="stroke: #000000; stroke-width: 0.8"/>
      </g>
     </g>
     <g id="text_9">
      <!-- 1994 -->
      <g transform="translate(42.214316 270.627267) scale(0.1 -0.1)">
       <defs>
        <path id="DejaVuSans-39" d="M 703 97 
L 703 672 
Q 941 559 1184 500 
Q 1428 441 1663 441 
Q 2288 441 2617 861 
Q 2947 1281 2994 2138 
Q 2813 1869 2534 1725 
Q 2256 1581 1919 1581 
Q 1219 1581 811 2004 
Q 403 2428 403 3163 
Q 403 3881 828 4315 
Q 1253 4750 1959 4750 
Q 2769 4750 3195 4129 
Q 3622 3509 3622 2328 
Q 3622 1225 3098 567 
Q 2575 -91 1691 -91 
Q 1453 -91 1209 -44 
Q 966 3 703 97 
z
M 1959 2075 
Q 2384 2075 2632 2365 
Q 2881 2656 2881 3163 
Q 2881 3666 2632 3958 
Q 2384 4250 1959 4250 
Q 1534 4250 1286 3958 
Q 1038 3666 1038 3163 
Q 1038 2656 1286 2365 
Q 1534 2075 1959 2075 
z
" transform="scale(0.015625)"/>
       </defs>
       <use xlink:href="#DejaVuSans-31"/>
       <use xlink:href="#DejaVuSans-39" transform="translate(63.623047 0)"/>
       <use xlink:href="#DejaVuSans-39" transform="translate(127.246094 0)"/>
       <use xlink:href="#DejaVuSans-34" transform="translate(190.869141 0)"/>
      </g>
     </g>
    </g>
    <g id="xtick_72">
     <g id="line2d_88">
      <g>
       <use xlink:href="#m327d0c4cea" x="90.050368" y="256.028829" style="stroke: #000000; stroke-width: 0.8"/>
      </g>
     </g>
     <g id="text_10">
      <!-- 1999 -->
      <g transform="translate(77.325368 270.627267) scale(0.1 -0.1)">
       <use xlink:href="#DejaVuSans-31"/>
       <use xlink:href="#DejaVuSans-39" transform="translate(63.623047 0)"/>
       <use xlink:href="#DejaVuSans-39" transform="translate(127.246094 0)"/>
       <use xlink:href="#DejaVuSans-39" transform="translate(190.869141 0)"/>
      </g>
     </g>
    </g>
    <g id="xtick_73">
     <g id="line2d_89">
      <g>
       <use xlink:href="#m327d0c4cea" x="125.161421" y="256.028829" style="stroke: #000000; stroke-width: 0.8"/>
      </g>
     </g>
     <g id="text_11">
      <!-- 2004 -->
      <g transform="translate(112.436421 270.627267) scale(0.1 -0.1)">
       <use xlink:href="#DejaVuSans-32"/>
       <use xlink:href="#DejaVuSans-30" transform="translate(63.623047 0)"/>
       <use xlink:href="#DejaVuSans-30" transform="translate(127.246094 0)"/>
       <use xlink:href="#DejaVuSans-34" transform="translate(190.869141 0)"/>
      </g>
     </g>
    </g>
    <g id="xtick_74">
     <g id="line2d_90">
      <g>
       <use xlink:href="#m327d0c4cea" x="160.272473" y="256.028829" style="stroke: #000000; stroke-width: 0.8"/>
      </g>
     </g>
     <g id="text_12">
      <!-- 2009 -->
      <g transform="translate(147.547473 270.627267) scale(0.1 -0.1)">
       <use xlink:href="#DejaVuSans-32"/>
       <use xlink:href="#DejaVuSans-30" transform="translate(63.623047 0)"/>
       <use xlink:href="#DejaVuSans-30" transform="translate(127.246094 0)"/>
       <use xlink:href="#DejaVuSans-39" transform="translate(190.869141 0)"/>
      </g>
     </g>
    </g>
    <g id="xtick_75">
     <g id="line2d_91">
      <g>
       <use xlink:href="#m327d0c4cea" x="195.383525" y="256.028829" style="stroke: #000000; stroke-width: 0.8"/>
      </g>
     </g>
     <g id="text_13">
      <!-- 2014 -->
      <g transform="translate(182.658525 270.627267) scale(0.1 -0.1)">
       <use xlink:href="#DejaVuSans-32"/>
       <use xlink:href="#DejaVuSans-30" transform="translate(63.623047 0)"/>
       <use xlink:href="#DejaVuSans-31" transform="translate(127.246094 0)"/>
       <use xlink:href="#DejaVuSans-34" transform="translate(190.869141 0)"/>
      </g>
     </g>
    </g>
    <g id="xtick_76">
     <g id="line2d_92">
      <g>
       <use xlink:href="#m327d0c4cea" x="230.494578" y="256.028829" style="stroke: #000000; stroke-width: 0.8"/>
      </g>
     </g>
     <g id="text_14">
      <!-- 2019 -->
      <g transform="translate(217.769578 270.627267) scale(0.1 -0.1)">
       <use xlink:href="#DejaVuSans-32"/>
       <use xlink:href="#DejaVuSans-30" transform="translate(63.623047 0)"/>
       <use xlink:href="#DejaVuSans-31" transform="translate(127.246094 0)"/>
       <use xlink:href="#DejaVuSans-39" transform="translate(190.869141 0)"/>
      </g>
     </g>
    </g>
    <g id="xtick_77">
     <g id="line2d_93">
      <g>
       <use xlink:href="#m327d0c4cea" x="265.60563" y="256.028829" style="stroke: #000000; stroke-width: 0.8"/>
      </g>
     </g>
     <g id="text_15">
      <!-- 2024 -->
      <g transform="translate(252.88063 270.627267) scale(0.1 -0.1)">
       <use xlink:href="#DejaVuSans-32"/>
       <use xlink:href="#DejaVuSans-30" transform="translate(63.623047 0)"/>
       <use xlink:href="#DejaVuSans-32" transform="translate(127.246094 0)"/>
       <use xlink:href="#DejaVuSans-34" transform="translate(190.869141 0)"/>
      </g>
     </g>
    </g>
    <g id="xtick_78">
     <g id="line2d_94">
      <g>
       <use xlink:href="#mfab5ffe05a" x="33.872684" y="256.028829" style="stroke: #000000; stroke-width: 0.6"/>
      </g>
     </g>
    </g>
    <g id="xtick_79">
     <g id="line2d_95">
      <g>
       <use xlink:href="#mfab5ffe05a" x="40.894895" y="256.028829" style="stroke: #000000; stroke-width: 0.6"/>
      </g>
     </g>
    </g>
    <g id="xtick_80">
     <g id="line2d_96">
      <g>
       <use xlink:href="#mfab5ffe05a" x="47.917105" y="256.028829" style="stroke: #000000; stroke-width: 0.6"/>
      </g>
     </g>
    </g>
    <g id="xtick_81">
     <g id="line2d_97">
      <g>
       <use xlink:href="#mfab5ffe05a" x="61.961526" y="256.028829" style="stroke: #000000; stroke-width: 0.6"/>
      </g>
     </g>
    </g>
    <g id="xtick_82">
     <g id="line2d_98">
      <g>
       <use xlink:href="#mfab5ffe05a" x="68.983737" y="256.028829" style="stroke: #000000; stroke-width: 0.6"/>
      </g>
     </g>
    </g>
    <g id="xtick_83">
     <g id="line2d_99">
      <g>
       <use xlink:href="#mfab5ffe05a" x="76.005947" y="256.028829" style="stroke: #000000; stroke-width: 0.6"/>
      </g>
     </g>
    </g>
    <g id="xtick_84">
     <g id="line2d_100">
      <g>
       <use xlink:href="#mfab5ffe05a" x="83.028158" y="256.028829" style="stroke: #000000; stroke-width: 0.6"/>
      </g>
     </g>
    </g>
    <g id="xtick_85">
     <g id="line2d_101">
      <g>
       <use xlink:href="#mfab5ffe05a" x="97.072579" y="256.028829" style="stroke: #000000; stroke-width: 0.6"/>
      </g>
     </g>
    </g>
    <g id="xtick_86">
     <g id="line2d_102">
      <g>
       <use xlink:href="#mfab5ffe05a" x="104.094789" y="256.028829" style="stroke: #000000; stroke-width: 0.6"/>
      </g>
     </g>
    </g>
    <g id="xtick_87">
     <g id="line2d_103">
      <g>
       <use xlink:href="#mfab5ffe05a" x="111.117" y="256.028829" style="stroke: #000000; stroke-width: 0.6"/>
      </g>
     </g>
    </g>
    <g id="xtick_88">
     <g id="line2d_104">
      <g>
       <use xlink:href="#mfab5ffe05a" x="118.13921" y="256.028829" style="stroke: #000000; stroke-width: 0.6"/>
      </g>
     </g>
    </g>
    <g id="xtick_89">
     <g id="line2d_105">
      <g>
       <use xlink:href="#mfab5ffe05a" x="132.183631" y="256.028829" style="stroke: #000000; stroke-width: 0.6"/>
      </g>
     </g>
    </g>
    <g id="xtick_90">
     <g id="line2d_106">
      <g>
       <use xlink:href="#mfab5ffe05a" x="139.205842" y="256.028829" style="stroke: #000000; stroke-width: 0.6"/>
      </g>
     </g>
    </g>
    <g id="xtick_91">
     <g id="line2d_107">
      <g>
       <use xlink:href="#mfab5ffe05a" x="146.228052" y="256.028829" style="stroke: #000000; stroke-width: 0.6"/>
      </g>
     </g>
    </g>
    <g id="xtick_92">
     <g id="line2d_108">
      <g>
       <use xlink:href="#mfab5ffe05a" x="153.250263" y="256.028829" style="stroke: #000000; stroke-width: 0.6"/>
      </g>
     </g>
    </g>
    <g id="xtick_93">
     <g id="line2d_109">
      <g>
       <use xlink:href="#mfab5ffe05a" x="167.294683" y="256.028829" style="stroke: #000000; stroke-width: 0.6"/>
      </g>
     </g>
    </g>
    <g id="xtick_94">
     <g id="line2d_110">
      <g>
       <use xlink:href="#mfab5ffe05a" x="174.316894" y="256.028829" style="stroke: #000000; stroke-width: 0.6"/>
      </g>
     </g>
    </g>
    <g id="xtick_95">
     <g id="line2d_111">
      <g>
       <use xlink:href="#mfab5ffe05a" x="181.339104" y="256.028829" style="stroke: #000000; stroke-width: 0.6"/>
      </g>
     </g>
    </g>
    <g id="xtick_96">
     <g id="line2d_112">
      <g>
       <use xlink:href="#mfab5ffe05a" x="188.361315" y="256.028829" style="stroke: #000000; stroke-width: 0.6"/>
      </g>
     </g>
    </g>
    <g id="xtick_97">
     <g id="line2d_113">
      <g>
       <use xlink:href="#mfab5ffe05a" x="202.405736" y="256.028829" style="stroke: #000000; stroke-width: 0.6"/>
      </g>
     </g>
    </g>
    <g id="xtick_98">
     <g id="line2d_114">
      <g>
       <use xlink:href="#mfab5ffe05a" x="209.427946" y="256.028829" style="stroke: #000000; stroke-width: 0.6"/>
      </g>
     </g>
    </g>
    <g id="xtick_99">
     <g id="line2d_115">
      <g>
       <use xlink:href="#mfab5ffe05a" x="216.450157" y="256.028829" style="stroke: #000000; stroke-width: 0.6"/>
      </g>
     </g>
    </g>
    <g id="xtick_100">
     <g id="line2d_116">
      <g>
       <use xlink:href="#mfab5ffe05a" x="223.472367" y="256.028829" style="stroke: #000000; stroke-width: 0.6"/>
      </g>
     </g>
    </g>
    <g id="xtick_101">
     <g id="line2d_117">
      <g>
       <use xlink:href="#mfab5ffe05a" x="237.516788" y="256.028829" style="stroke: #000000; stroke-width: 0.6"/>
      </g>
     </g>
    </g>
    <g id="xtick_102">
     <g id="line2d_118">
      <g>
       <use xlink:href="#mfab5ffe05a" x="244.538999" y="256.028829" style="stroke: #000000; stroke-width: 0.6"/>
      </g>
     </g>
    </g>
    <g id="xtick_103">
     <g id="line2d_119">
      <g>
       <use xlink:href="#mfab5ffe05a" x="251.561209" y="256.028829" style="stroke: #000000; stroke-width: 0.6"/>
      </g>
     </g>
    </g>
    <g id="xtick_104">
     <g id="line2d_120">
      <g>
       <use xlink:href="#mfab5ffe05a" x="258.58342" y="256.028829" style="stroke: #000000; stroke-width: 0.6"/>
      </g>
     </g>
    </g>
    <g id="xtick_105">
     <g id="line2d_121">
      <g>
       <use xlink:href="#mfab5ffe05a" x="272.627841" y="256.028829" style="stroke: #000000; stroke-width: 0.6"/>
      </g>
     </g>
    </g>
   </g>
   <g id="matplotlib.axis_6">
    <g id="ytick_7">
     <g id="line2d_122">
      <path d="M 33.2875 227.25311 
L 277.894499 227.25311 
" clip-path="url(#pd5cb2ae1f0)" style="fill: none; stroke-dasharray: 2.96,1.28; stroke-dashoffset: 0; stroke: #000000; stroke-opacity: 0.1; stroke-width: 0.8"/>
     </g>
     <g id="line2d_123">
      <g>
       <use xlink:href="#mdc03f2bf70" x="33.2875" y="227.25311" style="stroke: #000000; stroke-width: 0.8"/>
      </g>
     </g>
     <g id="text_16">
      <!-- 100 -->
      <g transform="translate(7.2 231.052329) scale(0.1 -0.1)">
       <use xlink:href="#DejaVuSans-31"/>
       <use xlink:href="#DejaVuSans-30" transform="translate(63.623047 0)"/>
       <use xlink:href="#DejaVuSans-30" transform="translate(127.246094 0)"/>
      </g>
     </g>
    </g>
    <g id="ytick_8">
     <g id="line2d_124">
      <path d="M 33.2875 196.479622 
L 277.894499 196.479622 
" clip-path="url(#pd5cb2ae1f0)" style="fill: none; stroke-dasharray: 2.96,1.28; stroke-dashoffset: 0; stroke: #000000; stroke-opacity: 0.1; stroke-width: 0.8"/>
     </g>
     <g id="line2d_125">
      <g>
       <use xlink:href="#mdc03f2bf70" x="33.2875" y="196.479622" style="stroke: #000000; stroke-width: 0.8"/>
      </g>
     </g>
     <g id="text_17">
      <!-- 200 -->
      <g transform="translate(7.2 200.278841) scale(0.1 -0.1)">
       <use xlink:href="#DejaVuSans-32"/>
       <use xlink:href="#DejaVuSans-30" transform="translate(63.623047 0)"/>
       <use xlink:href="#DejaVuSans-30" transform="translate(127.246094 0)"/>
      </g>
     </g>
    </g>
    <g id="ytick_9">
     <g id="line2d_126">
      <path d="M 33.2875 165.706134 
L 277.894499 165.706134 
" clip-path="url(#pd5cb2ae1f0)" style="fill: none; stroke-dasharray: 2.96,1.28; stroke-dashoffset: 0; stroke: #000000; stroke-opacity: 0.1; stroke-width: 0.8"/>
     </g>
     <g id="line2d_127">
      <g>
       <use xlink:href="#mdc03f2bf70" x="33.2875" y="165.706134" style="stroke: #000000; stroke-width: 0.8"/>
      </g>
     </g>
     <g id="text_18">
      <!-- 300 -->
      <g transform="translate(7.2 169.505353) scale(0.1 -0.1)">
       <defs>
        <path id="DejaVuSans-33" d="M 2597 2516 
Q 3050 2419 3304 2112 
Q 3559 1806 3559 1356 
Q 3559 666 3084 287 
Q 2609 -91 1734 -91 
Q 1441 -91 1130 -33 
Q 819 25 488 141 
L 488 750 
Q 750 597 1062 519 
Q 1375 441 1716 441 
Q 2309 441 2620 675 
Q 2931 909 2931 1356 
Q 2931 1769 2642 2001 
Q 2353 2234 1838 2234 
L 1294 2234 
L 1294 2753 
L 1863 2753 
Q 2328 2753 2575 2939 
Q 2822 3125 2822 3475 
Q 2822 3834 2567 4026 
Q 2313 4219 1838 4219 
Q 1578 4219 1281 4162 
Q 984 4106 628 3988 
L 628 4550 
Q 988 4650 1302 4700 
Q 1616 4750 1894 4750 
Q 2613 4750 3031 4423 
Q 3450 4097 3450 3541 
Q 3450 3153 3228 2886 
Q 3006 2619 2597 2516 
z
" transform="scale(0.015625)"/>
       </defs>
       <use xlink:href="#DejaVuSans-33"/>
       <use xlink:href="#DejaVuSans-30" transform="translate(63.623047 0)"/>
       <use xlink:href="#DejaVuSans-30" transform="translate(127.246094 0)"/>
      </g>
     </g>
    </g>
   </g>
   <g id="line2d_128">
    <path d="M 33.2875 246.790281 
L 33.872684 247.575859 
L 34.457868 247.561679 
L 35.043053 247.833937 
L 35.628237 247.88215 
L 36.798605 247.533319 
L 37.383789 247.510631 
L 37.968974 248.018279 
L 39.139342 247.831101 
L 39.724526 247.502123 
L 40.30971 247.95305 
L 40.894895 247.848117 
L 42.065263 248.228144 
L 42.650447 248.443682 
L 43.235632 248.429502 
L 43.820816 248.25934 
L 44.406 247.777217 
L 44.991184 248.233816 
L 45.576368 248.117539 
L 46.161553 248.381289 
L 47.331921 248.579811 
L 48.502289 248.693252 
L 49.087474 248.403978 
L 49.672658 247.89633 
L 50.257842 247.241209 
L 50.843026 247.272405 
L 51.42821 246.362042 
L 52.013395 247.371666 
L 52.598579 247.899166 
L 53.183763 247.544663 
L 53.768947 247.479435 
L 54.354131 246.871157 
L 54.939316 247.14762 
L 55.5245 247.178816 
L 56.109684 246.844166 
L 56.694868 247.312109 
L 57.280053 246.966115 
L 57.865237 247.042687 
L 59.035605 246.943427 
L 59.620789 246.750577 
L 60.205974 247.110752 
L 61.376342 247.124932 
L 61.961526 247.314945 
L 62.54671 247.297929 
L 63.131895 246.844166 
L 63.717079 247.008655 
L 67.228184 247.127768 
L 67.813368 247.005819 
L 68.398552 247.019999 
L 68.983737 246.441451 
L 69.568921 246.64848 
L 71.324473 246.84133 
L 71.909658 247.204341 
L 72.494842 246.878198 
L 73.080026 246.929246 
L 73.66521 247.235537 
L 74.835579 247.353522 
L 75.420763 247.556007 
L 76.005947 248.213964 
L 76.591131 247.672284 
L 77.7615 248.350093 
L 78.346684 248.171424 
L 78.931868 248.517418 
L 79.517052 248.707432 
L 80.102237 248.741464 
L 80.687421 248.472042 
L 81.272605 249.175375 
L 81.857789 249.561952 
L 82.442973 249.804972 
L 83.028158 249.388077 
L 83.613342 249.515698 
L 84.78371 249.294488 
L 85.368894 249.657499 
L 85.954079 249.572418 
L 87.124447 250.116934 
L 87.709631 249.546894 
L 88.294815 249.697203 
L 88.88 249.657499 
L 89.465184 249.824824 
L 90.635552 249.850348 
L 91.220737 250.031854 
L 91.805921 249.864529 
L 92.391105 250.31262 
L 93.561473 250.686975 
L 94.146658 250.729515 
L 94.731842 249.532714 
L 95.317026 249.512862 
L 95.90221 249.717055 
L 97.072579 249.909905 
L 97.657763 249.683023 
L 98.242947 250.046034 
L 98.828131 250.236047 
L 99.413315 250.233211 
L 99.9985 249.759596 
L 100.583684 249.994986 
L 101.168868 250.010043 
L 101.754052 250.145428 
L 102.339236 250.396036 
L 103.509605 250.191517 
L 104.094789 250.375871 
L 104.679973 250.341305 
L 105.265158 250.597674 
L 105.850342 250.42196 
L 106.435526 250.384514 
L 107.02071 250.231844 
L 107.605894 250.358588 
L 108.191079 250.122384 
L 108.776263 249.603886 
L 109.361447 249.975476 
L 109.946631 250.136787 
L 111.117 249.900582 
L 111.702184 249.480022 
L 112.872552 249.128596 
L 113.457736 248.62162 
L 114.628105 249.292787 
L 115.798473 248.696514 
L 116.383657 248.866466 
L 116.968842 248.83374 
L 117.554026 248.013825 
L 118.13921 247.417553 
L 119.309578 248.350849 
L 119.894763 248.258671 
L 120.479947 247.527013 
L 121.065131 248.059914 
L 121.650315 247.82947 
L 122.2355 247.204392 
L 122.820684 246.924979 
L 123.405868 246.950904 
L 123.991052 246.585534 
L 124.576236 246.052174 
L 125.161421 246.441047 
L 125.746605 246.60812 
L 126.331789 245.718031 
L 126.916973 246.878891 
L 127.502157 246.677252 
L 128.672526 246.763669 
L 129.25771 246.204843 
L 130.428078 245.683465 
L 131.013263 245.026701 
L 131.598447 245.382127 
L 132.183631 245.876461 
L 132.768815 245.453021 
L 133.353999 245.677703 
L 133.939184 245.496229 
L 134.524368 246.034891 
L 135.109552 245.470304 
L 135.694736 245.643137 
L 136.279921 245.530796 
L 136.865105 244.516844 
L 137.450289 244.629185 
L 138.035473 243.779424 
L 138.620657 243.131303 
L 139.205842 241.58445 
L 139.791026 241.849461 
L 140.37621 241.26759 
L 140.961394 239.251209 
L 141.546578 239.519099 
L 142.131763 240.354457 
L 142.716947 239.758184 
L 143.302131 239.997269 
L 143.887315 240.783659 
L 144.472499 240.625229 
L 145.057684 239.392355 
L 145.642868 239.729379 
L 146.813236 238.744232 
L 147.39842 238.928588 
L 147.983605 238.424492 
L 148.568789 238.986199 
L 149.153973 239.357789 
L 149.739157 238.816246 
L 150.324341 238.640533 
L 150.909526 236.629913 
L 151.49471 235.212685 
L 152.079894 235.494978 
L 152.665078 233.976931 
L 153.250263 231.447813 
L 153.835447 230.024825 
L 155.005815 233.17326 
L 155.590999 232.467527 
L 156.176184 231.346994 
L 156.761368 231.701301 
L 157.346552 234.138242 
L 157.931736 232.844877 
L 158.51692 237.378855 
L 159.102105 234.515593 
L 159.687289 232.574107 
L 160.272473 231.315309 
L 160.857657 230.906271 
L 161.442841 231.450695 
L 162.028026 232.369587 
L 162.61321 229.831828 
L 163.198394 231.32107 
L 163.783578 230.554844 
L 164.368762 230.612455 
L 164.953947 228.990709 
L 165.539131 228.077578 
L 166.124315 224.004487 
L 166.709499 226.478876 
L 167.294683 226.830301 
L 167.879868 225.813467 
L 168.465052 225.957494 
L 169.050236 224.033293 
L 170.220605 222.149416 
L 170.805789 223.987205 
L 171.976157 220.354835 
L 172.561341 218.934729 
L 173.146526 218.131056 
L 173.73171 217.09118 
L 174.316894 219.605893 
L 174.902078 217.431082 
L 175.487262 216.578442 
L 176.072447 213.205325 
L 176.657631 213.784314 
L 177.242815 214.752176 
L 177.827999 211.12269 
L 178.413183 205.355841 
L 178.998368 211.350254 
L 179.583552 208.36025 
L 180.168736 207.746693 
L 180.75392 212.92303 
L 181.339104 207.968494 
L 181.924289 208.772166 
L 182.509473 209.941667 
L 183.094657 210.111619 
L 183.679841 213.01521 
L 184.265026 211.837066 
L 184.85021 211.635428 
L 186.020578 207.009274 
L 186.605762 208.553246 
L 187.190947 208.743361 
L 187.776131 209.783237 
L 188.361315 210.192276 
L 188.946499 212.580248 
L 189.531683 212.087672 
L 190.116868 215.619223 
L 190.702052 217.912135 
L 191.287236 222.774492 
L 192.457604 217.811316 
L 193.042789 219.816175 
L 193.627973 219.899711 
L 194.213157 222.002509 
L 194.798341 223.405332 
L 195.383525 222.304966 
L 195.96871 219.963082 
L 196.553894 221.057689 
L 197.139078 220.706264 
L 197.724262 222.146536 
L 198.309446 219.951559 
L 198.894631 221.118179 
L 199.479815 220.988555 
L 200.064999 223.157606 
L 200.650183 224.292542 
L 201.235368 224.17444 
L 201.820552 223.92383 
L 202.405736 221.198836 
L 202.99092 223.097116 
L 203.576104 223.946876 
L 204.161289 223.967039 
L 204.746473 223.765401 
L 205.331657 224.281019 
L 205.916841 226.487515 
L 206.502025 225.430357 
L 207.08721 225.894124 
L 207.672394 225.145182 
L 208.257578 227.325753 
L 208.842762 227.484183 
L 209.427946 225.868198 
L 210.013131 222.483558 
L 210.598315 222.474919 
L 211.183499 220.890619 
L 211.768683 223.033741 
L 212.353867 220.049498 
L 212.939052 219.168052 
L 213.524236 220.380761 
L 214.10942 220.196405 
L 214.694604 221.400474 
L 215.279789 224.301181 
L 215.864973 224.900336 
L 216.450157 223.212337 
L 217.035341 221.944898 
L 217.620525 222.097565 
L 218.20571 221.556024 
L 218.790894 221.386071 
L 219.376078 222.287683 
L 219.961262 221.541622 
L 220.546446 220.112872 
L 221.131631 221.11242 
L 221.716815 221.530099 
L 222.301999 221.351506 
L 223.472367 219.456107 
L 224.057552 220.133035 
L 224.642736 219.922753 
L 225.22792 220.112872 
L 225.813104 220.576639 
L 226.398288 221.982343 
L 227.568657 223.45142 
L 228.153841 223.70491 
L 228.739025 223.105755 
L 229.324209 222.878195 
L 229.909394 221.204596 
L 230.494578 220.012053 
L 231.079762 220.210808 
L 231.664946 220.781157 
L 232.250131 221.074971 
L 232.835315 220.412446 
L 233.420499 217.419563 
L 234.005683 216.947153 
L 234.590867 214.268247 
L 235.176052 215.806458 
L 235.761236 214.490047 
L 236.34642 215.809338 
L 237.516788 212.430458 
L 238.101973 212.972002 
L 238.687157 212.416055 
L 239.272341 209.512468 
L 240.442709 206.378434 
L 241.027894 201.487268 
L 241.613078 201.349004 
L 242.198262 203.65632 
L 242.783446 203.947254 
L 243.36863 206.87677 
L 243.953815 203.49501 
L 244.538999 204.814297 
L 245.124183 208.247908 
L 245.709367 208.659824 
L 246.294551 207.118733 
L 246.879736 203.224238 
L 247.46492 207.017914 
L 248.050104 205.767061 
L 248.635288 205.807066 
L 249.220473 207.490376 
L 249.805657 206.74258 
L 250.390841 207.096475 
L 250.976025 205.416243 
L 251.561209 206.299442 
L 252.146394 203.13285 
L 252.731578 202.434292 
L 253.316762 203.585221 
L 253.901946 205.360851 
L 254.48713 206.18558 
L 256.827867 211.278592 
L 257.413051 207.308813 
L 257.998236 205.822453 
L 258.58342 202.815883 
L 259.168604 205.77937 
L 259.753788 201.643413 
L 260.338972 201.157192 
L 260.924157 201.920375 
L 261.509341 203.166701 
L 262.094525 201.911143 
L 262.679709 202.628165 
L 263.264894 205.265453 
L 263.850078 201.375684 
L 264.435262 199.94164 
L 265.020446 199.196921 
L 265.60563 200.03396 
L 266.190815 199.769308 
L 266.775999 194.719379 
L 267.361183 192.826809 
L 267.946367 191.771279 
L 268.531551 191.860522 
L 269.116736 188.309261 
L 269.70192 186.850598 
L 270.872288 180.012729 
L 271.457472 182.449989 
L 272.042657 183.514752 
L 272.627841 178.458668 
L 273.213025 177.009236 
L 273.798209 169.35587 
L 274.383393 164.545974 
L 274.968578 164.598289 
L 275.553762 164.219775 
L 276.138946 164.795239 
L 276.72413 160.145365 
L 277.309314 148.636081 
L 277.894499 144.743234 
L 277.894499 144.743234 
" clip-path="url(#pd5cb2ae1f0)" style="fill: none; stroke: #2ca02c; stroke-width: 1.5; stroke-linecap: square"/>
   </g>
   <g id="patch_15">
    <path d="M 33.2875 256.028829 
L 33.2875 139.44392 
" style="fill: none"/>
   </g>
   <g id="patch_16">
    <path d="M 277.894499 256.028829 
L 277.894499 139.44392 
" style="fill: none"/>
   </g>
   <g id="patch_17">
    <path d="M 33.2875 256.028829 
L 277.894499 256.028829 
" style="fill: none; stroke: #000000; stroke-width: 0.8; stroke-linejoin: miter; stroke-linecap: square"/>
   </g>
   <g id="patch_18">
    <path d="M 33.2875 139.44392 
L 277.894499 139.44392 
" style="fill: none"/>
   </g>
   <g id="legend_3">
    <g id="patch_19">
     <path d="M 217.874186 162.122045 
L 270.894499 162.122045 
Q 272.894499 162.122045 272.894499 160.122045 
L 272.894499 146.44392 
Q 272.894499 144.44392 270.894499 144.44392 
L 217.874186 144.44392 
Q 215.874186 144.44392 215.874186 146.44392 
L 215.874186 160.122045 
Q 215.874186 162.122045 217.874186 162.122045 
L 217.874186 162.122045 
z
" style="fill: none; opacity: 0"/>
    </g>
    <g id="line2d_129">
     <path d="M 219.874186 152.542358 
L 229.874186 152.542358 
L 239.874186 152.542358 
" style="fill: none; stroke: #2ca02c; stroke-width: 1.5; stroke-linecap: square"/>
    </g>
    <g id="text_19">
     <!-- GLD -->
     <g transform="translate(247.874186 156.042358) scale(0.1 -0.1)">
      <defs>
       <path id="DejaVuSans-47" d="M 3809 666 
L 3809 1919 
L 2778 1919 
L 2778 2438 
L 4434 2438 
L 4434 434 
Q 4069 175 3628 42 
Q 3188 -91 2688 -91 
Q 1594 -91 976 548 
Q 359 1188 359 2328 
Q 359 3472 976 4111 
Q 1594 4750 2688 4750 
Q 3144 4750 3555 4637 
Q 3966 4525 4313 4306 
L 4313 3634 
Q 3963 3931 3569 4081 
Q 3175 4231 2741 4231 
Q 1884 4231 1454 3753 
Q 1025 3275 1025 2328 
Q 1025 1384 1454 906 
Q 1884 428 2741 428 
Q 3075 428 3337 486 
Q 3600 544 3809 666 
z
" transform="scale(0.015625)"/>
       <path id="DejaVuSans-44" d="M 1259 4147 
L 1259 519 
L 2022 519 
Q 2988 519 3436 956 
Q 3884 1394 3884 2338 
Q 3884 3275 3436 3711 
Q 2988 4147 2022 4147 
L 1259 4147 
z
M 628 4666 
L 1925 4666 
Q 3281 4666 3915 4102 
Q 4550 3538 4550 2338 
Q 4550 1131 3912 565 
Q 3275 0 1925 0 
L 628 0 
L 628 4666 
z
" transform="scale(0.015625)"/>
      </defs>
      <use xlink:href="#DejaVuSans-47"/>
      <use xlink:href="#DejaVuSans-4c" transform="translate(77.490234 0)"/>
      <use xlink:href="#DejaVuSans-44" transform="translate(133.203125 0)"/>
     </g>
    </g>
   </g>
  </g>
  <g id="axes_4">
   <g id="patch_20">
    <path d="M 314.684499 256.028829 
L 559.291497 256.028829 
L 559.291497 139.44392 
L 314.684499 139.44392 
L 314.684499 256.028829 
z
" style="fill: none"/>
   </g>
   <g id="matplotlib.axis_7">
    <g id="xtick_106">
     <g id="line2d_130">
      <g>
       <use xlink:href="#m327d0c4cea" x="336.336314" y="256.028829" style="stroke: #000000; stroke-width: 0.8"/>
      </g>
     </g>
     <g id="text_20">
      <!-- 1994 -->
      <g transform="translate(323.611314 270.627267) scale(0.1 -0.1)">
       <use xlink:href="#DejaVuSans-31"/>
       <use xlink:href="#DejaVuSans-39" transform="translate(63.623047 0)"/>
       <use xlink:href="#DejaVuSans-39" transform="translate(127.246094 0)"/>
       <use xlink:href="#DejaVuSans-34" transform="translate(190.869141 0)"/>
      </g>
     </g>
    </g>
    <g id="xtick_107">
     <g id="line2d_131">
      <g>
       <use xlink:href="#m327d0c4cea" x="371.447367" y="256.028829" style="stroke: #000000; stroke-width: 0.8"/>
      </g>
     </g>
     <g id="text_21">
      <!-- 1999 -->
      <g transform="translate(358.722367 270.627267) scale(0.1 -0.1)">
       <use xlink:href="#DejaVuSans-31"/>
       <use xlink:href="#DejaVuSans-39" transform="translate(63.623047 0)"/>
       <use xlink:href="#DejaVuSans-39" transform="translate(127.246094 0)"/>
       <use xlink:href="#DejaVuSans-39" transform="translate(190.869141 0)"/>
      </g>
     </g>
    </g>
    <g id="xtick_108">
     <g id="line2d_132">
      <g>
       <use xlink:href="#m327d0c4cea" x="406.558419" y="256.028829" style="stroke: #000000; stroke-width: 0.8"/>
      </g>
     </g>
     <g id="text_22">
      <!-- 2004 -->
      <g transform="translate(393.833419 270.627267) scale(0.1 -0.1)">
       <use xlink:href="#DejaVuSans-32"/>
       <use xlink:href="#DejaVuSans-30" transform="translate(63.623047 0)"/>
       <use xlink:href="#DejaVuSans-30" transform="translate(127.246094 0)"/>
       <use xlink:href="#DejaVuSans-34" transform="translate(190.869141 0)"/>
      </g>
     </g>
    </g>
    <g id="xtick_109">
     <g id="line2d_133">
      <g>
       <use xlink:href="#m327d0c4cea" x="441.669472" y="256.028829" style="stroke: #000000; stroke-width: 0.8"/>
      </g>
     </g>
     <g id="text_23">
      <!-- 2009 -->
      <g transform="translate(428.944472 270.627267) scale(0.1 -0.1)">
       <use xlink:href="#DejaVuSans-32"/>
       <use xlink:href="#DejaVuSans-30" transform="translate(63.623047 0)"/>
       <use xlink:href="#DejaVuSans-30" transform="translate(127.246094 0)"/>
       <use xlink:href="#DejaVuSans-39" transform="translate(190.869141 0)"/>
      </g>
     </g>
    </g>
    <g id="xtick_110">
     <g id="line2d_134">
      <g>
       <use xlink:href="#m327d0c4cea" x="476.780524" y="256.028829" style="stroke: #000000; stroke-width: 0.8"/>
      </g>
     </g>
     <g id="text_24">
      <!-- 2014 -->
      <g transform="translate(464.055524 270.627267) scale(0.1 -0.1)">
       <use xlink:href="#DejaVuSans-32"/>
       <use xlink:href="#DejaVuSans-30" transform="translate(63.623047 0)"/>
       <use xlink:href="#DejaVuSans-31" transform="translate(127.246094 0)"/>
       <use xlink:href="#DejaVuSans-34" transform="translate(190.869141 0)"/>
      </g>
     </g>
    </g>
    <g id="xtick_111">
     <g id="line2d_135">
      <g>
       <use xlink:href="#m327d0c4cea" x="511.891577" y="256.028829" style="stroke: #000000; stroke-width: 0.8"/>
      </g>
     </g>
     <g id="text_25">
      <!-- 2019 -->
      <g transform="translate(499.166577 270.627267) scale(0.1 -0.1)">
       <use xlink:href="#DejaVuSans-32"/>
       <use xlink:href="#DejaVuSans-30" transform="translate(63.623047 0)"/>
       <use xlink:href="#DejaVuSans-31" transform="translate(127.246094 0)"/>
       <use xlink:href="#DejaVuSans-39" transform="translate(190.869141 0)"/>
      </g>
     </g>
    </g>
    <g id="xtick_112">
     <g id="line2d_136">
      <g>
       <use xlink:href="#m327d0c4cea" x="547.002629" y="256.028829" style="stroke: #000000; stroke-width: 0.8"/>
      </g>
     </g>
     <g id="text_26">
      <!-- 2024 -->
      <g transform="translate(534.277629 270.627267) scale(0.1 -0.1)">
       <use xlink:href="#DejaVuSans-32"/>
       <use xlink:href="#DejaVuSans-30" transform="translate(63.623047 0)"/>
       <use xlink:href="#DejaVuSans-32" transform="translate(127.246094 0)"/>
       <use xlink:href="#DejaVuSans-34" transform="translate(190.869141 0)"/>
      </g>
     </g>
    </g>
    <g id="xtick_113">
     <g id="line2d_137">
      <g>
       <use xlink:href="#mfab5ffe05a" x="315.269683" y="256.028829" style="stroke: #000000; stroke-width: 0.6"/>
      </g>
     </g>
    </g>
    <g id="xtick_114">
     <g id="line2d_138">
      <g>
       <use xlink:href="#mfab5ffe05a" x="322.291893" y="256.028829" style="stroke: #000000; stroke-width: 0.6"/>
      </g>
     </g>
    </g>
    <g id="xtick_115">
     <g id="line2d_139">
      <g>
       <use xlink:href="#mfab5ffe05a" x="329.314104" y="256.028829" style="stroke: #000000; stroke-width: 0.6"/>
      </g>
     </g>
    </g>
    <g id="xtick_116">
     <g id="line2d_140">
      <g>
       <use xlink:href="#mfab5ffe05a" x="343.358525" y="256.028829" style="stroke: #000000; stroke-width: 0.6"/>
      </g>
     </g>
    </g>
    <g id="xtick_117">
     <g id="line2d_141">
      <g>
       <use xlink:href="#mfab5ffe05a" x="350.380735" y="256.028829" style="stroke: #000000; stroke-width: 0.6"/>
      </g>
     </g>
    </g>
    <g id="xtick_118">
     <g id="line2d_142">
      <g>
       <use xlink:href="#mfab5ffe05a" x="357.402946" y="256.028829" style="stroke: #000000; stroke-width: 0.6"/>
      </g>
     </g>
    </g>
    <g id="xtick_119">
     <g id="line2d_143">
      <g>
       <use xlink:href="#mfab5ffe05a" x="364.425156" y="256.028829" style="stroke: #000000; stroke-width: 0.6"/>
      </g>
     </g>
    </g>
    <g id="xtick_120">
     <g id="line2d_144">
      <g>
       <use xlink:href="#mfab5ffe05a" x="378.469577" y="256.028829" style="stroke: #000000; stroke-width: 0.6"/>
      </g>
     </g>
    </g>
    <g id="xtick_121">
     <g id="line2d_145">
      <g>
       <use xlink:href="#mfab5ffe05a" x="385.491788" y="256.028829" style="stroke: #000000; stroke-width: 0.6"/>
      </g>
     </g>
    </g>
    <g id="xtick_122">
     <g id="line2d_146">
      <g>
       <use xlink:href="#mfab5ffe05a" x="392.513998" y="256.028829" style="stroke: #000000; stroke-width: 0.6"/>
      </g>
     </g>
    </g>
    <g id="xtick_123">
     <g id="line2d_147">
      <g>
       <use xlink:href="#mfab5ffe05a" x="399.536209" y="256.028829" style="stroke: #000000; stroke-width: 0.6"/>
      </g>
     </g>
    </g>
    <g id="xtick_124">
     <g id="line2d_148">
      <g>
       <use xlink:href="#mfab5ffe05a" x="413.58063" y="256.028829" style="stroke: #000000; stroke-width: 0.6"/>
      </g>
     </g>
    </g>
    <g id="xtick_125">
     <g id="line2d_149">
      <g>
       <use xlink:href="#mfab5ffe05a" x="420.60284" y="256.028829" style="stroke: #000000; stroke-width: 0.6"/>
      </g>
     </g>
    </g>
    <g id="xtick_126">
     <g id="line2d_150">
      <g>
       <use xlink:href="#mfab5ffe05a" x="427.625051" y="256.028829" style="stroke: #000000; stroke-width: 0.6"/>
      </g>
     </g>
    </g>
    <g id="xtick_127">
     <g id="line2d_151">
      <g>
       <use xlink:href="#mfab5ffe05a" x="434.647261" y="256.028829" style="stroke: #000000; stroke-width: 0.6"/>
      </g>
     </g>
    </g>
    <g id="xtick_128">
     <g id="line2d_152">
      <g>
       <use xlink:href="#mfab5ffe05a" x="448.691682" y="256.028829" style="stroke: #000000; stroke-width: 0.6"/>
      </g>
     </g>
    </g>
    <g id="xtick_129">
     <g id="line2d_153">
      <g>
       <use xlink:href="#mfab5ffe05a" x="455.713893" y="256.028829" style="stroke: #000000; stroke-width: 0.6"/>
      </g>
     </g>
    </g>
    <g id="xtick_130">
     <g id="line2d_154">
      <g>
       <use xlink:href="#mfab5ffe05a" x="462.736103" y="256.028829" style="stroke: #000000; stroke-width: 0.6"/>
      </g>
     </g>
    </g>
    <g id="xtick_131">
     <g id="line2d_155">
      <g>
       <use xlink:href="#mfab5ffe05a" x="469.758314" y="256.028829" style="stroke: #000000; stroke-width: 0.6"/>
      </g>
     </g>
    </g>
    <g id="xtick_132">
     <g id="line2d_156">
      <g>
       <use xlink:href="#mfab5ffe05a" x="483.802735" y="256.028829" style="stroke: #000000; stroke-width: 0.6"/>
      </g>
     </g>
    </g>
    <g id="xtick_133">
     <g id="line2d_157">
      <g>
       <use xlink:href="#mfab5ffe05a" x="490.824945" y="256.028829" style="stroke: #000000; stroke-width: 0.6"/>
      </g>
     </g>
    </g>
    <g id="xtick_134">
     <g id="line2d_158">
      <g>
       <use xlink:href="#mfab5ffe05a" x="497.847156" y="256.028829" style="stroke: #000000; stroke-width: 0.6"/>
      </g>
     </g>
    </g>
    <g id="xtick_135">
     <g id="line2d_159">
      <g>
       <use xlink:href="#mfab5ffe05a" x="504.869366" y="256.028829" style="stroke: #000000; stroke-width: 0.6"/>
      </g>
     </g>
    </g>
    <g id="xtick_136">
     <g id="line2d_160">
      <g>
       <use xlink:href="#mfab5ffe05a" x="518.913787" y="256.028829" style="stroke: #000000; stroke-width: 0.6"/>
      </g>
     </g>
    </g>
    <g id="xtick_137">
     <g id="line2d_161">
      <g>
       <use xlink:href="#mfab5ffe05a" x="525.935998" y="256.028829" style="stroke: #000000; stroke-width: 0.6"/>
      </g>
     </g>
    </g>
    <g id="xtick_138">
     <g id="line2d_162">
      <g>
       <use xlink:href="#mfab5ffe05a" x="532.958208" y="256.028829" style="stroke: #000000; stroke-width: 0.6"/>
      </g>
     </g>
    </g>
    <g id="xtick_139">
     <g id="line2d_163">
      <g>
       <use xlink:href="#mfab5ffe05a" x="539.980419" y="256.028829" style="stroke: #000000; stroke-width: 0.6"/>
      </g>
     </g>
    </g>
    <g id="xtick_140">
     <g id="line2d_164">
      <g>
       <use xlink:href="#mfab5ffe05a" x="554.02484" y="256.028829" style="stroke: #000000; stroke-width: 0.6"/>
      </g>
     </g>
    </g>
   </g>
   <g id="matplotlib.axis_8">
    <g id="ytick_10">
     <g id="line2d_165">
      <path d="M 314.684499 232.349838 
L 559.291497 232.349838 
" clip-path="url(#p9342d36b1d)" style="fill: none; stroke-dasharray: 2.96,1.28; stroke-dashoffset: 0; stroke: #000000; stroke-opacity: 0.1; stroke-width: 0.8"/>
     </g>
     <g id="line2d_166">
      <g>
       <use xlink:href="#mdc03f2bf70" x="314.684499" y="232.349838" style="stroke: #000000; stroke-width: 0.8"/>
      </g>
     </g>
     <g id="text_27">
      <!-- 20 -->
      <g transform="translate(294.959499 236.149057) scale(0.1 -0.1)">
       <use xlink:href="#DejaVuSans-32"/>
       <use xlink:href="#DejaVuSans-30" transform="translate(63.623047 0)"/>
      </g>
     </g>
    </g>
    <g id="ytick_11">
     <g id="line2d_167">
      <path d="M 314.684499 200.440679 
L 559.291497 200.440679 
" clip-path="url(#p9342d36b1d)" style="fill: none; stroke-dasharray: 2.96,1.28; stroke-dashoffset: 0; stroke: #000000; stroke-opacity: 0.1; stroke-width: 0.8"/>
     </g>
     <g id="line2d_168">
      <g>
       <use xlink:href="#mdc03f2bf70" x="314.684499" y="200.440679" style="stroke: #000000; stroke-width: 0.8"/>
      </g>
     </g>
     <g id="text_28">
      <!-- 40 -->
      <g transform="translate(294.959499 204.239897) scale(0.1 -0.1)">
       <use xlink:href="#DejaVuSans-34"/>
       <use xlink:href="#DejaVuSans-30" transform="translate(63.623047 0)"/>
      </g>
     </g>
    </g>
    <g id="ytick_12">
     <g id="line2d_169">
      <path d="M 314.684499 168.531519 
L 559.291497 168.531519 
" clip-path="url(#p9342d36b1d)" style="fill: none; stroke-dasharray: 2.96,1.28; stroke-dashoffset: 0; stroke: #000000; stroke-opacity: 0.1; stroke-width: 0.8"/>
     </g>
     <g id="line2d_170">
      <g>
       <use xlink:href="#mdc03f2bf70" x="314.684499" y="168.531519" style="stroke: #000000; stroke-width: 0.8"/>
      </g>
     </g>
     <g id="text_29">
      <!-- 60 -->
      <g transform="translate(294.959499 172.330738) scale(0.1 -0.1)">
       <use xlink:href="#DejaVuSans-36"/>
       <use xlink:href="#DejaVuSans-30" transform="translate(63.623047 0)"/>
      </g>
     </g>
    </g>
   </g>
   <g id="line2d_171">
    <path d="M 314.684499 236.468612 
L 315.269683 239.077484 
L 315.854867 238.727336 
L 316.440051 237.76628 
L 317.025236 237.166206 
L 317.61042 237.18008 
L 318.195604 237.821277 
L 318.780788 236.471435 
L 319.365972 236.043028 
L 319.951157 235.820335 
L 320.536341 235.004623 
L 321.121525 236.186199 
L 321.706709 238.173358 
L 322.291893 237.456255 
L 322.877078 237.750164 
L 323.462262 237.45391 
L 324.63263 235.908951 
L 325.217814 236.065232 
L 325.802999 236.458106 
L 326.388183 236.429049 
L 326.973367 236.10994 
L 327.558551 236.728864 
L 328.143735 237.080899 
L 328.72892 237.019711 
L 329.899288 236.369137 
L 330.484472 235.787874 
L 331.069657 236.093789 
L 332.240025 237.734458 
L 332.825209 237.963798 
L 333.410393 237.747329 
L 333.995578 237.679804 
L 334.580762 238.634794 
L 335.165946 239.919966 
L 335.75113 240.377825 
L 336.336314 238.433394 
L 336.921499 238.994909 
L 337.506683 239.295681 
L 338.091867 238.641896 
L 338.677051 238.260747 
L 339.262235 237.621209 
L 339.84742 237.162619 
L 340.432604 238.988887 
L 341.017788 239.226685 
L 341.602972 239.113894 
L 342.188156 239.937264 
L 342.773341 239.113846 
L 343.358525 239.73869 
L 343.943709 239.540637 
L 344.528893 239.204002 
L 345.114077 238.436787 
L 345.699262 238.654826 
L 346.284446 239.11164 
L 347.454814 237.907915 
L 348.039999 237.796624 
L 348.625183 237.530283 
L 349.210367 236.808706 
L 349.795551 234.001305 
L 350.380735 234.050211 
L 350.96592 232.839247 
L 352.136288 228.86502 
L 352.721472 229.14451 
L 353.306656 227.782158 
L 353.891841 229.508392 
L 355.062209 227.117151 
L 355.647393 227.20909 
L 356.232577 224.125876 
L 356.817762 223.738821 
L 357.402946 224.334469 
L 357.98813 227.086785 
L 358.573314 226.459779 
L 359.158498 225.585336 
L 359.743683 225.308727 
L 360.328867 227.415964 
L 360.914051 225.906528 
L 362.669604 222.832762 
L 363.254788 226.917174 
L 363.839972 229.440547 
L 364.425156 230.001719 
L 365.010341 232.262164 
L 365.595525 232.428348 
L 366.180709 233.296289 
L 366.765893 234.757046 
L 367.351077 235.803057 
L 367.936262 238.03993 
L 368.521446 239.587303 
L 369.10663 237.065693 
L 369.691814 238.341327 
L 370.276998 241.494846 
L 370.862183 241.88665 
L 371.447367 241.788994 
L 372.032551 242.824054 
L 372.617735 239.203124 
L 373.202919 238.167642 
L 373.788104 239.591421 
L 374.373288 238.004887 
L 374.958472 237.063054 
L 376.12884 233.60495 
L 376.714025 235.185818 
L 377.884393 232.731727 
L 379.054762 228.340019 
L 380.22513 229.080315 
L 380.810314 225.1412 
L 381.395498 222.353409 
L 381.980683 225.571667 
L 382.565867 219.610452 
L 383.151051 220.221703 
L 383.736235 220.122489 
L 384.321419 216.055147 
L 384.906604 217.048974 
L 385.491788 219.554636 
L 386.076972 220.178647 
L 386.662156 221.906293 
L 387.24734 219.631882 
L 387.832525 220.903066 
L 388.417709 224.039502 
L 389.002893 223.943258 
L 389.588077 223.557807 
L 390.173261 228.017064 
L 391.34363 231.692911 
L 391.928814 232.124606 
L 392.513998 233.127159 
L 393.099182 231.767333 
L 393.684367 227.386884 
L 394.269551 226.978681 
L 394.854735 228.600818 
L 395.439919 227.38223 
L 396.025104 227.169016 
L 396.610288 224.925837 
L 397.195472 223.129664 
L 397.780656 225.070362 
L 398.36584 225.155427 
L 399.536209 218.003712 
L 400.121393 212.396352 
L 400.706577 219.870341 
L 401.291761 222.594541 
L 401.876946 218.599885 
L 402.46213 218.499682 
L 403.047314 218.173801 
L 403.632498 216.290565 
L 404.217682 218.249568 
L 405.388051 216.038408 
L 405.973235 213.027045 
L 406.558419 212.826304 
L 407.143603 209.009795 
L 407.728788 207.899504 
L 408.313972 206.345118 
L 408.899156 203.665513 
L 409.48434 206.513397 
L 410.069525 202.036579 
L 410.654709 204.452677 
L 411.239893 196.908749 
L 411.825077 194.114861 
L 412.410261 197.50797 
L 412.995446 204.175443 
L 414.165814 196.11899 
L 414.750998 190.968104 
L 415.336182 197.601564 
L 415.921367 198.090053 
L 417.091735 190.408523 
L 417.676919 179.224997 
L 418.262103 179.209736 
L 418.847288 187.991158 
L 419.432472 190.925783 
L 420.017656 188.822192 
L 420.60284 185.552681 
L 421.188024 193.505475 
L 421.773209 189.87553 
L 422.358393 185.164499 
L 422.943577 185.773233 
L 423.528761 184.860884 
L 424.113945 183.289505 
L 424.69913 189.065061 
L 425.284314 197.138081 
L 425.869498 198.845221 
L 426.454682 195.574533 
L 427.039867 200.328997 
L 427.625051 201.956365 
L 428.210235 199.64295 
L 428.795419 198.047492 
L 429.380603 197.744357 
L 429.965788 198.526128 
L 430.550972 196.467985 
L 431.136156 193.229208 
L 431.72134 195.494761 
L 432.306524 189.001248 
L 432.891709 184.486099 
L 433.476893 184.853053 
L 434.062077 180.114541 
L 434.647261 180.497454 
L 435.232445 171.068297 
L 435.81763 171.945798 
L 436.987998 155.927398 
L 437.573182 144.743234 
L 438.158366 160.66591 
L 438.743551 168.419837 
L 439.328735 178.42336 
L 439.913919 203.886868 
L 440.499103 212.869298 
L 441.669472 223.335501 
L 442.254656 225.84037 
L 442.83984 224.085365 
L 443.425024 224.707593 
L 444.010209 216.203802 
L 444.595393 216.315487 
L 445.180577 215.964484 
L 445.765761 215.757076 
L 446.350945 216.905805 
L 446.93613 214.624299 
L 448.106498 213.491525 
L 448.691682 217.607807 
L 449.276866 214.847665 
L 449.862051 214.544527 
L 450.447235 212.980979 
L 451.032419 219.953129 
L 451.617603 219.921219 
L 452.202787 217.368489 
L 452.787972 219.937174 
L 453.373156 216.379303 
L 453.95834 214.991257 
L 454.543524 214.384981 
L 455.128708 209.853883 
L 456.884261 204.668645 
L 457.469445 202.131866 
L 458.639814 209.837925 
L 459.224998 208.114834 
L 459.810182 209.072106 
L 460.395366 216.092121 
L 460.980551 211.1462 
L 461.565735 210.348471 
L 462.150919 211.640794 
L 462.736103 210.380381 
L 463.321287 207.029922 
L 463.906472 208.768971 
L 464.491656 208.960424 
L 465.07684 216.028304 
L 465.662024 215.693256 
L 466.247208 212.837388 
L 466.832393 209.151878 
L 467.417577 210.332519 
L 468.002761 212.502343 
L 468.587945 211.672704 
L 469.173129 211.943929 
L 469.758314 209.550742 
L 470.343498 212.342794 
L 470.928682 211.768428 
L 471.513866 214.337116 
L 472.09905 215.102938 
L 472.684235 215.118893 
L 473.269419 212.342794 
L 473.854603 210.731384 
L 474.439787 212.598067 
L 475.024972 213.347934 
L 475.610156 213.587252 
L 476.19534 212.901208 
L 476.780524 214.033981 
L 477.365708 211.624836 
L 477.950893 211.656746 
L 478.536077 211.130248 
L 479.121261 211.401473 
L 479.706445 210.141066 
L 480.291629 213.204342 
L 480.876814 214.002071 
L 482.047182 219.857402 
L 482.632366 224.340638 
L 483.21755 229.829015 
L 483.802735 232.828474 
L 484.387919 230.961789 
L 484.973103 233.147567 
L 485.558287 229.749243 
L 486.143471 230.499107 
L 486.728656 230.578879 
L 487.31384 235.349298 
L 487.899024 235.269526 
L 488.484208 237.008576 
L 489.069393 237.024531 
L 490.239761 241.555632 
L 490.824945 242.752225 
L 491.410129 243.198953 
L 491.995314 242.257632 
L 492.580498 239.976127 
L 493.165682 239.657036 
L 493.750866 239.497489 
L 494.33605 241.986404 
L 494.921235 241.539677 
L 495.506419 240.614311 
L 496.091603 241.029129 
L 496.676787 240.454765 
L 497.261971 239.258171 
L 497.847156 239.641081 
L 498.43234 239.609172 
L 499.017524 240.614311 
L 499.602708 241.236539 
L 500.773077 241.890676 
L 501.358261 240.949357 
L 501.943445 241.188676 
L 502.528629 240.486675 
L 503.113813 239.561309 
L 503.698998 239.242216 
L 504.869366 237.311714 
L 505.45455 238.300896 
L 506.039735 237.694623 
L 506.624919 236.46612 
L 507.795287 235.684346 
L 508.380471 236.721393 
L 508.965656 236.43421 
L 509.55084 235.365253 
L 510.136024 237.152167 
L 510.721208 240.151628 
L 511.306392 241.890676 
L 511.891577 240.023992 
L 512.476761 239.178398 
L 513.061945 238.811443 
L 513.647129 238.109443 
L 514.232313 240.311173 
L 514.817498 239.290081 
L 515.402682 239.401763 
L 515.987866 240.614311 
L 516.57305 240.247355 
L 517.743419 239.960174 
L 518.328603 238.396626 
L 518.913787 241.140812 
L 519.498971 242.94368 
L 520.084155 249.421238 
L 520.66934 250.729515 
L 521.254524 248.591601 
L 521.839708 247.714099 
L 522.424892 247.107825 
L 523.010077 246.310096 
L 523.595261 247.107825 
L 524.180445 247.698144 
L 524.765629 245.671913 
L 525.935998 243.661636 
L 526.521182 241.539677 
L 527.106366 241.97045 
L 527.69155 240.167582 
L 528.276734 239.593218 
L 528.861919 238.588079 
L 529.447103 238.253034 
L 530.032287 238.875262 
L 531.202655 235.780072 
L 531.78784 238.795489 
L 532.373024 236.960711 
L 533.543392 231.057518 
L 534.128576 228.121875 
L 534.713761 226.478552 
L 535.298945 224.308729 
L 535.884129 227.403918 
L 536.469313 227.675146 
L 537.054498 228.760058 
L 537.639682 231.424473 
L 538.224866 229.39824 
L 538.81005 229.81306 
L 539.395234 230.387426 
L 539.980419 230.419336 
L 540.565603 231.855247 
L 541.735971 232.49343 
L 542.321155 234.471797 
L 542.90634 233.163522 
L 543.491524 229.797105 
L 544.076708 229.637559 
L 544.661892 228.345238 
L 545.832261 231.264926 
L 546.417445 232.254112 
L 547.002629 230.850107 
L 547.587813 230.562924 
L 548.172997 229.063196 
L 548.758182 228.728148 
L 549.343366 229.238694 
L 549.92855 228.919604 
L 550.513734 229.940696 
L 551.098918 230.690561 
L 551.684103 230.75438 
L 552.269287 230.275744 
L 552.854471 230.531017 
L 554.02484 228.329283 
L 554.610024 228.855784 
L 555.195208 227.930419 
L 555.780392 231.153245 
L 556.365576 230.483152 
L 557.535945 227.882557 
L 558.121129 227.930419 
L 559.291497 227.22842 
L 559.291497 227.22842 
" clip-path="url(#p9342d36b1d)" style="fill: none; stroke: #d62728; stroke-width: 1.5; stroke-linecap: square"/>
   </g>
   <g id="patch_21">
    <path d="M 314.684499 256.028829 
L 314.684499 139.44392 
" style="fill: none"/>
   </g>
   <g id="patch_22">
    <path d="M 559.291497 256.028829 
L 559.291497 139.44392 
" style="fill: none"/>
   </g>
   <g id="patch_23">
    <path d="M 314.684499 256.028829 
L 559.291497 256.028829 
" style="fill: none; stroke: #000000; stroke-width: 0.8; stroke-linejoin: miter; stroke-linecap: square"/>
   </g>
   <g id="patch_24">
    <path d="M 314.684499 139.44392 
L 559.291497 139.44392 
" style="fill: none"/>
   </g>
   <g id="legend_4">
    <g id="patch_25">
     <path d="M 498.446185 162.122045 
L 552.291497 162.122045 
Q 554.291497 162.122045 554.291497 160.122045 
L 554.291497 146.44392 
Q 554.291497 144.44392 552.291497 144.44392 
L 498.446185 144.44392 
Q 496.446185 144.44392 496.446185 146.44392 
L 496.446185 160.122045 
Q 496.446185 162.122045 498.446185 162.122045 
L 498.446185 162.122045 
z
" style="fill: none; opacity: 0"/>
    </g>
    <g id="line2d_172">
     <path d="M 500.446185 152.542358 
L 510.446185 152.542358 
L 520.446185 152.542358 
" style="fill: none; stroke: #d62728; stroke-width: 1.5; stroke-linecap: square"/>
    </g>
    <g id="text_30">
     <!-- GSG -->
     <g transform="translate(528.446185 156.042358) scale(0.1 -0.1)">
      <use xlink:href="#DejaVuSans-47"/>
      <use xlink:href="#DejaVuSans-53" transform="translate(77.490234 0)"/>
      <use xlink:href="#DejaVuSans-47" transform="translate(140.966797 0)"/>
     </g>
    </g>
   </g>
  </g>
 </g>
 <defs>
  <clipPath id="pa2c01d0ac0">
   <rect x="33.2875" y="8.559012" width="244.606999" height="116.584909"/>
  </clipPath>
  <clipPath id="p60dfdda575">
   <rect x="314.684499" y="8.559012" width="244.606999" height="116.584909"/>
  </clipPath>
  <clipPath id="pd5cb2ae1f0">
   <rect x="33.2875" y="139.44392" width="244.606999" height="116.584909"/>
  </clipPath>
  <clipPath id="p9342d36b1d">
   <rect x="314.684499" y="139.44392" width="244.606999" height="116.584909"/>
  </clipPath>
 </defs>
</svg>
