<?xml version="1.0" encoding="utf-8" standalone="no"?>
<!DOCTYPE svg PUBLIC "-//W3C//DTD SVG 1.1//EN"
  "http://www.w3.org/Graphics/SVG/1.1/DTD/svg11.dtd">
<svg xmlns:xlink="http://www.w3.org/1999/xlink" width="568.075943pt" height="280.398125pt" viewBox="0 0 568.075943 280.398125" xmlns="http://www.w3.org/2000/svg" version="1.1">
 <metadata>
  <rdf:RDF xmlns:dc="http://purl.org/dc/elements/1.1/" xmlns:cc="http://creativecommons.org/ns#" xmlns:rdf="http://www.w3.org/1999/02/22-rdf-syntax-ns#">
   <cc:Work>
    <dc:type rdf:resource="http://purl.org/dc/dcmitype/StillImage"/>
    <dc:date>2025-11-19T13:19:08.128459</dc:date>
    <dc:format>image/svg+xml</dc:format>
    <dc:creator>
     <cc:Agent>
      <dc:title>Matplotlib v3.10.7, https://matplotlib.org/</dc:title>
     </cc:Agent>
    </dc:creator>
   </cc:Work>
  </rdf:RDF>
 </metadata>
 <defs>
  <style type="text/css">*{stroke-linejoin: round; stroke-linecap: butt}</style>
 </defs>
 <g id="figure_1">
  <g id="patch_1">
   <path d="M 0 280.398125 
L 568.075943 280.398125 
L 568.075943 0 
L 0 0 
L 0 280.398125 
z
" style="fill: none"/>
  </g>
  <g id="axes_1">
   <g id="patch_2">
    <path d="M 52.329688 124.71 
L 276.858131 124.71 
L 276.858131 7.2 
L 52.329688 7.2 
L 52.329688 124.71 
z
" style="fill: none"/>
   </g>
   <g id="matplotlib.axis_1">
    <g id="xtick_1">
     <g id="line2d_1">
      <defs>
       <path id="m673361ecb6" d="M 0 0 
L 0 3.5 
" style="stroke: #000000; stroke-width: 0.8"/>
      </defs>
      <g>
       <use xlink:href="#m673361ecb6" x="71.713438" y="124.71" style="stroke: #000000; stroke-width: 0.8"/>
      </g>
     </g>
    </g>
    <g id="xtick_2">
     <g id="line2d_2">
      <g>
       <use xlink:href="#m673361ecb6" x="104.019689" y="124.71" style="stroke: #000000; stroke-width: 0.8"/>
      </g>
     </g>
    </g>
    <g id="xtick_3">
     <g id="line2d_3">
      <g>
       <use xlink:href="#m673361ecb6" x="136.32594" y="124.71" style="stroke: #000000; stroke-width: 0.8"/>
      </g>
     </g>
    </g>
    <g id="xtick_4">
     <g id="line2d_4">
      <g>
       <use xlink:href="#m673361ecb6" x="168.632191" y="124.71" style="stroke: #000000; stroke-width: 0.8"/>
      </g>
     </g>
    </g>
    <g id="xtick_5">
     <g id="line2d_5">
      <g>
       <use xlink:href="#m673361ecb6" x="200.938441" y="124.71" style="stroke: #000000; stroke-width: 0.8"/>
      </g>
     </g>
    </g>
    <g id="xtick_6">
     <g id="line2d_6">
      <g>
       <use xlink:href="#m673361ecb6" x="233.244692" y="124.71" style="stroke: #000000; stroke-width: 0.8"/>
      </g>
     </g>
    </g>
    <g id="xtick_7">
     <g id="line2d_7">
      <g>
       <use xlink:href="#m673361ecb6" x="265.550943" y="124.71" style="stroke: #000000; stroke-width: 0.8"/>
      </g>
     </g>
    </g>
    <g id="xtick_8">
     <g id="line2d_8">
      <defs>
       <path id="m8192c94556" d="M 0 0 
L 0 2 
" style="stroke: #000000; stroke-width: 0.6"/>
      </defs>
      <g>
       <use xlink:href="#m8192c94556" x="52.329688" y="124.71" style="stroke: #000000; stroke-width: 0.6"/>
      </g>
     </g>
    </g>
    <g id="xtick_9">
     <g id="line2d_9">
      <g>
       <use xlink:href="#m8192c94556" x="58.790938" y="124.71" style="stroke: #000000; stroke-width: 0.6"/>
      </g>
     </g>
    </g>
    <g id="xtick_10">
     <g id="line2d_10">
      <g>
       <use xlink:href="#m8192c94556" x="65.252188" y="124.71" style="stroke: #000000; stroke-width: 0.6"/>
      </g>
     </g>
    </g>
    <g id="xtick_11">
     <g id="line2d_11">
      <g>
       <use xlink:href="#m8192c94556" x="78.174688" y="124.71" style="stroke: #000000; stroke-width: 0.6"/>
      </g>
     </g>
    </g>
    <g id="xtick_12">
     <g id="line2d_12">
      <g>
       <use xlink:href="#m8192c94556" x="84.635938" y="124.71" style="stroke: #000000; stroke-width: 0.6"/>
      </g>
     </g>
    </g>
    <g id="xtick_13">
     <g id="line2d_13">
      <g>
       <use xlink:href="#m8192c94556" x="91.097189" y="124.71" style="stroke: #000000; stroke-width: 0.6"/>
      </g>
     </g>
    </g>
    <g id="xtick_14">
     <g id="line2d_14">
      <g>
       <use xlink:href="#m8192c94556" x="97.558439" y="124.71" style="stroke: #000000; stroke-width: 0.6"/>
      </g>
     </g>
    </g>
    <g id="xtick_15">
     <g id="line2d_15">
      <g>
       <use xlink:href="#m8192c94556" x="110.480939" y="124.71" style="stroke: #000000; stroke-width: 0.6"/>
      </g>
     </g>
    </g>
    <g id="xtick_16">
     <g id="line2d_16">
      <g>
       <use xlink:href="#m8192c94556" x="116.942189" y="124.71" style="stroke: #000000; stroke-width: 0.6"/>
      </g>
     </g>
    </g>
    <g id="xtick_17">
     <g id="line2d_17">
      <g>
       <use xlink:href="#m8192c94556" x="123.403439" y="124.71" style="stroke: #000000; stroke-width: 0.6"/>
      </g>
     </g>
    </g>
    <g id="xtick_18">
     <g id="line2d_18">
      <g>
       <use xlink:href="#m8192c94556" x="129.86469" y="124.71" style="stroke: #000000; stroke-width: 0.6"/>
      </g>
     </g>
    </g>
    <g id="xtick_19">
     <g id="line2d_19">
      <g>
       <use xlink:href="#m8192c94556" x="142.78719" y="124.71" style="stroke: #000000; stroke-width: 0.6"/>
      </g>
     </g>
    </g>
    <g id="xtick_20">
     <g id="line2d_20">
      <g>
       <use xlink:href="#m8192c94556" x="149.24844" y="124.71" style="stroke: #000000; stroke-width: 0.6"/>
      </g>
     </g>
    </g>
    <g id="xtick_21">
     <g id="line2d_21">
      <g>
       <use xlink:href="#m8192c94556" x="155.70969" y="124.71" style="stroke: #000000; stroke-width: 0.6"/>
      </g>
     </g>
    </g>
    <g id="xtick_22">
     <g id="line2d_22">
      <g>
       <use xlink:href="#m8192c94556" x="162.17094" y="124.71" style="stroke: #000000; stroke-width: 0.6"/>
      </g>
     </g>
    </g>
    <g id="xtick_23">
     <g id="line2d_23">
      <g>
       <use xlink:href="#m8192c94556" x="175.093441" y="124.71" style="stroke: #000000; stroke-width: 0.6"/>
      </g>
     </g>
    </g>
    <g id="xtick_24">
     <g id="line2d_24">
      <g>
       <use xlink:href="#m8192c94556" x="181.554691" y="124.71" style="stroke: #000000; stroke-width: 0.6"/>
      </g>
     </g>
    </g>
    <g id="xtick_25">
     <g id="line2d_25">
      <g>
       <use xlink:href="#m8192c94556" x="188.015941" y="124.71" style="stroke: #000000; stroke-width: 0.6"/>
      </g>
     </g>
    </g>
    <g id="xtick_26">
     <g id="line2d_26">
      <g>
       <use xlink:href="#m8192c94556" x="194.477191" y="124.71" style="stroke: #000000; stroke-width: 0.6"/>
      </g>
     </g>
    </g>
    <g id="xtick_27">
     <g id="line2d_27">
      <g>
       <use xlink:href="#m8192c94556" x="207.399692" y="124.71" style="stroke: #000000; stroke-width: 0.6"/>
      </g>
     </g>
    </g>
    <g id="xtick_28">
     <g id="line2d_28">
      <g>
       <use xlink:href="#m8192c94556" x="213.860942" y="124.71" style="stroke: #000000; stroke-width: 0.6"/>
      </g>
     </g>
    </g>
    <g id="xtick_29">
     <g id="line2d_29">
      <g>
       <use xlink:href="#m8192c94556" x="220.322192" y="124.71" style="stroke: #000000; stroke-width: 0.6"/>
      </g>
     </g>
    </g>
    <g id="xtick_30">
     <g id="line2d_30">
      <g>
       <use xlink:href="#m8192c94556" x="226.783442" y="124.71" style="stroke: #000000; stroke-width: 0.6"/>
      </g>
     </g>
    </g>
    <g id="xtick_31">
     <g id="line2d_31">
      <g>
       <use xlink:href="#m8192c94556" x="239.705942" y="124.71" style="stroke: #000000; stroke-width: 0.6"/>
      </g>
     </g>
    </g>
    <g id="xtick_32">
     <g id="line2d_32">
      <g>
       <use xlink:href="#m8192c94556" x="246.167193" y="124.71" style="stroke: #000000; stroke-width: 0.6"/>
      </g>
     </g>
    </g>
    <g id="xtick_33">
     <g id="line2d_33">
      <g>
       <use xlink:href="#m8192c94556" x="252.628443" y="124.71" style="stroke: #000000; stroke-width: 0.6"/>
      </g>
     </g>
    </g>
    <g id="xtick_34">
     <g id="line2d_34">
      <g>
       <use xlink:href="#m8192c94556" x="259.089693" y="124.71" style="stroke: #000000; stroke-width: 0.6"/>
      </g>
     </g>
    </g>
    <g id="xtick_35">
     <g id="line2d_35">
      <g>
       <use xlink:href="#m8192c94556" x="272.012193" y="124.71" style="stroke: #000000; stroke-width: 0.6"/>
      </g>
     </g>
    </g>
   </g>
   <g id="matplotlib.axis_2">
    <g id="ytick_1">
     <g id="line2d_36">
      <path d="M 52.329688 119.348287 
L 276.858131 119.348287 
" clip-path="url(#p36fdc15fe6)" style="fill: none; stroke-dasharray: 2.96,1.28; stroke-dashoffset: 0; stroke: #000000; stroke-opacity: 0.1; stroke-width: 0.8"/>
     </g>
     <g id="line2d_37">
      <defs>
       <path id="m8ed4e59c68" d="M 0 0 
L -3.5 0 
" style="stroke: #000000; stroke-width: 0.8"/>
      </defs>
      <g>
       <use xlink:href="#m8ed4e59c68" x="52.329688" y="119.348287" style="stroke: #000000; stroke-width: 0.8"/>
      </g>
     </g>
     <g id="text_1">
      <!-- 0% -->
      <g transform="translate(29.465625 123.147505) scale(0.1 -0.1)">
       <defs>
        <path id="DejaVuSans-30" d="M 2034 4250 
Q 1547 4250 1301 3770 
Q 1056 3291 1056 2328 
Q 1056 1369 1301 889 
Q 1547 409 2034 409 
Q 2525 409 2770 889 
Q 3016 1369 3016 2328 
Q 3016 3291 2770 3770 
Q 2525 4250 2034 4250 
z
M 2034 4750 
Q 2819 4750 3233 4129 
Q 3647 3509 3647 2328 
Q 3647 1150 3233 529 
Q 2819 -91 2034 -91 
Q 1250 -91 836 529 
Q 422 1150 422 2328 
Q 422 3509 836 4129 
Q 1250 4750 2034 4750 
z
" transform="scale(0.015625)"/>
        <path id="DejaVuSans-25" d="M 4653 2053 
Q 4381 2053 4226 1822 
Q 4072 1591 4072 1178 
Q 4072 772 4226 539 
Q 4381 306 4653 306 
Q 4919 306 5073 539 
Q 5228 772 5228 1178 
Q 5228 1588 5073 1820 
Q 4919 2053 4653 2053 
z
M 4653 2450 
Q 5147 2450 5437 2106 
Q 5728 1763 5728 1178 
Q 5728 594 5436 251 
Q 5144 -91 4653 -91 
Q 4153 -91 3862 251 
Q 3572 594 3572 1178 
Q 3572 1766 3864 2108 
Q 4156 2450 4653 2450 
z
M 1428 4353 
Q 1159 4353 1004 4120 
Q 850 3888 850 3481 
Q 850 3069 1003 2837 
Q 1156 2606 1428 2606 
Q 1700 2606 1854 2837 
Q 2009 3069 2009 3481 
Q 2009 3884 1853 4118 
Q 1697 4353 1428 4353 
z
M 4250 4750 
L 4750 4750 
L 1831 -91 
L 1331 -91 
L 4250 4750 
z
M 1428 4750 
Q 1922 4750 2215 4408 
Q 2509 4066 2509 3481 
Q 2509 2891 2217 2550 
Q 1925 2209 1428 2209 
Q 931 2209 642 2551 
Q 353 2894 353 3481 
Q 353 4063 643 4406 
Q 934 4750 1428 4750 
z
" transform="scale(0.015625)"/>
       </defs>
       <use xlink:href="#DejaVuSans-30"/>
       <use xlink:href="#DejaVuSans-25" transform="translate(63.623047 0)"/>
      </g>
     </g>
    </g>
    <g id="ytick_2">
     <g id="line2d_38">
      <path d="M 52.329688 75.689769 
L 276.858131 75.689769 
" clip-path="url(#p36fdc15fe6)" style="fill: none; stroke-dasharray: 2.96,1.28; stroke-dashoffset: 0; stroke: #000000; stroke-opacity: 0.1; stroke-width: 0.8"/>
     </g>
     <g id="line2d_39">
      <g>
       <use xlink:href="#m8ed4e59c68" x="52.329688" y="75.689769" style="stroke: #000000; stroke-width: 0.8"/>
      </g>
     </g>
     <g id="text_2">
      <!-- 2,000% -->
      <g transform="translate(7.2 79.488987) scale(0.1 -0.1)">
       <defs>
        <path id="DejaVuSans-32" d="M 1228 531 
L 3431 531 
L 3431 0 
L 469 0 
L 469 531 
Q 828 903 1448 1529 
Q 2069 2156 2228 2338 
Q 2531 2678 2651 2914 
Q 2772 3150 2772 3378 
Q 2772 3750 2511 3984 
Q 2250 4219 1831 4219 
Q 1534 4219 1204 4116 
Q 875 4013 500 3803 
L 500 4441 
Q 881 4594 1212 4672 
Q 1544 4750 1819 4750 
Q 2544 4750 2975 4387 
Q 3406 4025 3406 3419 
Q 3406 3131 3298 2873 
Q 3191 2616 2906 2266 
Q 2828 2175 2409 1742 
Q 1991 1309 1228 531 
z
" transform="scale(0.015625)"/>
        <path id="DejaVuSans-2c" d="M 750 794 
L 1409 794 
L 1409 256 
L 897 -744 
L 494 -744 
L 750 256 
L 750 794 
z
" transform="scale(0.015625)"/>
       </defs>
       <use xlink:href="#DejaVuSans-32"/>
       <use xlink:href="#DejaVuSans-2c" transform="translate(63.623047 0)"/>
       <use xlink:href="#DejaVuSans-30" transform="translate(95.410156 0)"/>
       <use xlink:href="#DejaVuSans-30" transform="translate(159.033203 0)"/>
       <use xlink:href="#DejaVuSans-30" transform="translate(222.65625 0)"/>
       <use xlink:href="#DejaVuSans-25" transform="translate(286.279297 0)"/>
      </g>
     </g>
    </g>
    <g id="ytick_3">
     <g id="line2d_40">
      <path d="M 52.329688 32.031251 
L 276.858131 32.031251 
" clip-path="url(#p36fdc15fe6)" style="fill: none; stroke-dasharray: 2.96,1.28; stroke-dashoffset: 0; stroke: #000000; stroke-opacity: 0.1; stroke-width: 0.8"/>
     </g>
     <g id="line2d_41">
      <g>
       <use xlink:href="#m8ed4e59c68" x="52.329688" y="32.031251" style="stroke: #000000; stroke-width: 0.8"/>
      </g>
     </g>
     <g id="text_3">
      <!-- 4,000% -->
      <g transform="translate(7.2 35.830469) scale(0.1 -0.1)">
       <defs>
        <path id="DejaVuSans-34" d="M 2419 4116 
L 825 1625 
L 2419 1625 
L 2419 4116 
z
M 2253 4666 
L 3047 4666 
L 3047 1625 
L 3713 1625 
L 3713 1100 
L 3047 1100 
L 3047 0 
L 2419 0 
L 2419 1100 
L 313 1100 
L 313 1709 
L 2253 4666 
z
" transform="scale(0.015625)"/>
       </defs>
       <use xlink:href="#DejaVuSans-34"/>
       <use xlink:href="#DejaVuSans-2c" transform="translate(63.623047 0)"/>
       <use xlink:href="#DejaVuSans-30" transform="translate(95.410156 0)"/>
       <use xlink:href="#DejaVuSans-30" transform="translate(159.033203 0)"/>
       <use xlink:href="#DejaVuSans-30" transform="translate(222.65625 0)"/>
       <use xlink:href="#DejaVuSans-25" transform="translate(286.279297 0)"/>
      </g>
     </g>
    </g>
   </g>
   <g id="line2d_42">
    <path d="M 58.790938 119.359954 
L 71.713438 119.224124 
L 78.713126 119.128063 
L 79.790001 119.06113 
L 81.943751 118.96936 
L 89.481876 118.751208 
L 92.712501 118.756185 
L 93.250939 118.635397 
L 97.020001 118.505613 
L 102.942814 118.16192 
L 104.019689 117.974804 
L 105.096564 117.974746 
L 105.635001 117.854115 
L 106.173439 117.888161 
L 106.711876 117.748119 
L 108.327189 117.795653 
L 110.480939 117.454191 
L 118.019064 117.411695 
L 118.557502 117.151917 
L 120.172814 117.16902 
L 121.249689 117.242217 
L 127.710939 117.307765 
L 128.787815 116.935894 
L 130.941565 117.019886 
L 131.480002 116.872146 
L 134.17219 116.778558 
L 134.710627 116.555146 
L 135.249065 116.524351 
L 135.787502 116.292151 
L 136.864377 116.24959 
L 138.47969 116.316334 
L 144.402502 116.095268 
L 145.479377 116.10031 
L 146.017815 115.908003 
L 147.633128 115.907651 
L 148.171565 115.698241 
L 148.710003 115.731564 
L 149.786878 115.622068 
L 151.40219 115.571391 
L 153.55594 115.541205 
L 155.171253 115.331128 
L 156.248128 115.285566 
L 157.325003 115.107812 
L 157.86344 114.926659 
L 159.478753 114.915514 
L 160.555628 114.698447 
L 163.247815 114.790939 
L 163.786253 114.521155 
L 164.863128 114.439382 
L 169.170628 114.438637 
L 169.709066 114.270723 
L 170.247503 113.673548 
L 170.785941 113.331919 
L 171.324378 113.355398 
L 171.862816 112.86467 
L 172.939691 112.430541 
L 173.478128 112.536414 
L 174.016566 112.032857 
L 174.555003 111.94336 
L 175.093441 112.025291 
L 175.631878 111.775861 
L 176.170316 111.346478 
L 176.708753 111.206652 
L 177.247191 111.211085 
L 177.785628 111.429755 
L 178.324066 111.006513 
L 178.862503 111.118278 
L 179.400941 110.302904 
L 179.939378 109.940463 
L 180.477816 109.940463 
L 181.016253 109.30007 
L 181.554691 109.069576 
L 182.093128 108.666981 
L 182.631566 108.707627 
L 183.170003 108.360435 
L 184.246878 108.40432 
L 184.785316 108.578332 
L 185.862191 108.593379 
L 186.400629 107.436279 
L 187.477504 107.46132 
L 188.554379 106.350234 
L 189.092816 106.155337 
L 190.169691 106.207047 
L 190.708129 105.760413 
L 191.246566 105.688493 
L 192.323441 105.106024 
L 192.861879 105.170376 
L 193.938754 105.098739 
L 194.477191 104.348981 
L 195.015629 104.297105 
L 195.554066 103.834025 
L 196.092504 103.8209 
L 196.630941 103.546252 
L 197.169379 103.731336 
L 197.707816 102.884611 
L 198.246254 103.060236 
L 198.784691 102.909864 
L 200.400004 101.801622 
L 200.938441 101.849825 
L 201.476879 101.051894 
L 203.092191 100.83945 
L 203.630629 100.529477 
L 207.399692 100.491518 
L 207.938129 99.45937 
L 208.476567 99.510954 
L 210.091879 99.271338 
L 211.168754 99.27074 
L 211.707192 99.389519 
L 212.245629 98.194276 
L 213.322504 98.204321 
L 214.399379 98.311128 
L 214.937817 97.369644 
L 215.476254 97.310355 
L 216.014692 97.130917 
L 216.553129 97.141478 
L 217.630004 97.007812 
L 218.706879 97.104716 
L 219.245317 96.393471 
L 219.783754 96.189141 
L 220.322192 95.784733 
L 220.860629 94.946393 
L 221.399067 94.966794 
L 223.01438 94.552094 
L 223.552817 94.071768 
L 224.091255 94.0066 
L 225.16813 93.315477 
L 225.706567 92.80284 
L 226.245005 92.649582 
L 226.783442 91.878133 
L 227.32188 91.878394 
L 227.860317 92.087686 
L 229.47563 91.825032 
L 230.552505 91.313452 
L 232.706255 91.287753 
L 233.244692 89.44152 
L 233.78313 88.643344 
L 234.321567 88.636846 
L 234.860005 87.536972 
L 235.398442 87.552456 
L 235.93688 85.885785 
L 236.475317 85.486499 
L 237.013755 85.49092 
L 237.552192 85.112777 
L 239.167505 82.784173 
L 240.782817 82.788487 
L 241.321255 80.046624 
L 241.859693 78.343356 
L 242.39813 77.827173 
L 242.936568 75.683069 
L 243.475005 72.856696 
L 244.013443 73.434058 
L 244.55188 73.619293 
L 245.090318 73.515165 
L 245.628755 72.073994 
L 246.167193 72.315128 
L 247.244068 69.770022 
L 247.782505 67.760294 
L 248.320943 67.456714 
L 248.85938 67.417969 
L 249.936255 65.456502 
L 250.474693 65.649093 
L 251.01313 64.33872 
L 251.551568 64.374582 
L 252.090005 62.120008 
L 252.628443 62.177622 
L 253.16688 62.896404 
L 253.705318 61.229234 
L 255.32063 61.162769 
L 255.859068 60.558229 
L 256.397505 60.716682 
L 256.935943 60.716702 
L 257.47438 56.121906 
L 258.012818 53.438734 
L 258.551255 53.899326 
L 259.089693 50.729189 
L 259.62813 51.057209 
L 260.166568 48.948937 
L 260.705006 48.182375 
L 261.243443 48.160498 
L 261.781881 46.003719 
L 262.320318 44.632563 
L 262.858756 45.060321 
L 263.397193 45.261038 
L 264.474068 45.204656 
L 265.012506 44.117424 
L 265.550943 43.351902 
L 266.089381 40.010567 
L 266.627818 37.866829 
L 267.166256 38.001019 
L 267.704693 35.175863 
L 268.243131 33.474096 
L 268.781568 32.618312 
L 269.858443 29.609762 
L 270.396881 29.814764 
L 270.935318 28.89369 
L 271.473756 29.146588 
L 272.012193 26.84934 
L 272.550631 27.584274 
L 273.627506 27.592366 
L 274.165943 22.287396 
L 274.704381 21.018829 
L 275.781256 17.512881 
L 276.858131 12.541364 
L 276.858131 12.541364 
" clip-path="url(#p36fdc15fe6)" style="fill: none; stroke: #1f77b4; stroke-width: 1.5; stroke-linecap: square"/>
   </g>
   <g id="patch_3">
    <path d="M 52.329688 124.71 
L 52.329688 7.2 
" style="fill: none"/>
   </g>
   <g id="patch_4">
    <path d="M 276.858131 124.71 
L 276.858131 7.2 
" style="fill: none"/>
   </g>
   <g id="patch_5">
    <path d="M 52.329688 124.71 
L 276.858131 124.71 
" style="fill: none; stroke: #000000; stroke-width: 0.8; stroke-linejoin: miter; stroke-linecap: square"/>
   </g>
   <g id="patch_6">
    <path d="M 52.329688 7.2 
L 276.858131 7.2 
" style="fill: none"/>
   </g>
   <g id="legend_1">
    <g id="patch_7">
     <path d="M 59.329688 29.878125 
L 109.590625 29.878125 
Q 111.590625 29.878125 111.590625 27.878125 
L 111.590625 14.2 
Q 111.590625 12.2 109.590625 12.2 
L 59.329688 12.2 
Q 57.329688 12.2 57.329688 14.2 
L 57.329688 27.878125 
Q 57.329688 29.878125 59.329688 29.878125 
L 59.329688 29.878125 
z
" style="fill: none; opacity: 0"/>
    </g>
    <g id="line2d_43">
     <path d="M 61.329688 20.298437 
L 71.329688 20.298437 
L 81.329688 20.298437 
" style="fill: none; stroke: #1f77b4; stroke-width: 1.5; stroke-linecap: square"/>
    </g>
    <g id="text_4">
     <!-- SPY -->
     <g transform="translate(89.329688 23.798437) scale(0.1 -0.1)">
      <defs>
       <path id="DejaVuSans-53" d="M 3425 4513 
L 3425 3897 
Q 3066 4069 2747 4153 
Q 2428 4238 2131 4238 
Q 1616 4238 1336 4038 
Q 1056 3838 1056 3469 
Q 1056 3159 1242 3001 
Q 1428 2844 1947 2747 
L 2328 2669 
Q 3034 2534 3370 2195 
Q 3706 1856 3706 1288 
Q 3706 609 3251 259 
Q 2797 -91 1919 -91 
Q 1588 -91 1214 -16 
Q 841 59 441 206 
L 441 856 
Q 825 641 1194 531 
Q 1563 422 1919 422 
Q 2459 422 2753 634 
Q 3047 847 3047 1241 
Q 3047 1584 2836 1778 
Q 2625 1972 2144 2069 
L 1759 2144 
Q 1053 2284 737 2584 
Q 422 2884 422 3419 
Q 422 4038 858 4394 
Q 1294 4750 2059 4750 
Q 2388 4750 2728 4690 
Q 3069 4631 3425 4513 
z
" transform="scale(0.015625)"/>
       <path id="DejaVuSans-50" d="M 1259 4147 
L 1259 2394 
L 2053 2394 
Q 2494 2394 2734 2622 
Q 2975 2850 2975 3272 
Q 2975 3691 2734 3919 
Q 2494 4147 2053 4147 
L 1259 4147 
z
M 628 4666 
L 2053 4666 
Q 2838 4666 3239 4311 
Q 3641 3956 3641 3272 
Q 3641 2581 3239 2228 
Q 2838 1875 2053 1875 
L 1259 1875 
L 1259 0 
L 628 0 
L 628 4666 
z
" transform="scale(0.015625)"/>
       <path id="DejaVuSans-59" d="M -13 4666 
L 666 4666 
L 1959 2747 
L 3244 4666 
L 3922 4666 
L 2272 2222 
L 2272 0 
L 1638 0 
L 1638 2222 
L -13 4666 
z
" transform="scale(0.015625)"/>
      </defs>
      <use xlink:href="#DejaVuSans-53"/>
      <use xlink:href="#DejaVuSans-50" transform="translate(63.476562 0)"/>
      <use xlink:href="#DejaVuSans-59" transform="translate(121.529297 0)"/>
     </g>
    </g>
   </g>
  </g>
  <g id="axes_2">
   <g id="patch_8">
    <path d="M 334.929688 124.71 
L 559.458131 124.71 
L 559.458131 7.2 
L 334.929688 7.2 
L 334.929688 124.71 
z
" style="fill: none"/>
   </g>
   <g id="matplotlib.axis_3">
    <g id="xtick_36">
     <g id="line2d_44">
      <g>
       <use xlink:href="#m673361ecb6" x="354.313438" y="124.71" style="stroke: #000000; stroke-width: 0.8"/>
      </g>
     </g>
    </g>
    <g id="xtick_37">
     <g id="line2d_45">
      <g>
       <use xlink:href="#m673361ecb6" x="386.619689" y="124.71" style="stroke: #000000; stroke-width: 0.8"/>
      </g>
     </g>
    </g>
    <g id="xtick_38">
     <g id="line2d_46">
      <g>
       <use xlink:href="#m673361ecb6" x="418.92594" y="124.71" style="stroke: #000000; stroke-width: 0.8"/>
      </g>
     </g>
    </g>
    <g id="xtick_39">
     <g id="line2d_47">
      <g>
       <use xlink:href="#m673361ecb6" x="451.232191" y="124.71" style="stroke: #000000; stroke-width: 0.8"/>
      </g>
     </g>
    </g>
    <g id="xtick_40">
     <g id="line2d_48">
      <g>
       <use xlink:href="#m673361ecb6" x="483.538441" y="124.71" style="stroke: #000000; stroke-width: 0.8"/>
      </g>
     </g>
    </g>
    <g id="xtick_41">
     <g id="line2d_49">
      <g>
       <use xlink:href="#m673361ecb6" x="515.844692" y="124.71" style="stroke: #000000; stroke-width: 0.8"/>
      </g>
     </g>
    </g>
    <g id="xtick_42">
     <g id="line2d_50">
      <g>
       <use xlink:href="#m673361ecb6" x="548.150943" y="124.71" style="stroke: #000000; stroke-width: 0.8"/>
      </g>
     </g>
    </g>
    <g id="xtick_43">
     <g id="line2d_51">
      <g>
       <use xlink:href="#m8192c94556" x="334.929688" y="124.71" style="stroke: #000000; stroke-width: 0.6"/>
      </g>
     </g>
    </g>
    <g id="xtick_44">
     <g id="line2d_52">
      <g>
       <use xlink:href="#m8192c94556" x="341.390938" y="124.71" style="stroke: #000000; stroke-width: 0.6"/>
      </g>
     </g>
    </g>
    <g id="xtick_45">
     <g id="line2d_53">
      <g>
       <use xlink:href="#m8192c94556" x="347.852188" y="124.71" style="stroke: #000000; stroke-width: 0.6"/>
      </g>
     </g>
    </g>
    <g id="xtick_46">
     <g id="line2d_54">
      <g>
       <use xlink:href="#m8192c94556" x="360.774688" y="124.71" style="stroke: #000000; stroke-width: 0.6"/>
      </g>
     </g>
    </g>
    <g id="xtick_47">
     <g id="line2d_55">
      <g>
       <use xlink:href="#m8192c94556" x="367.235938" y="124.71" style="stroke: #000000; stroke-width: 0.6"/>
      </g>
     </g>
    </g>
    <g id="xtick_48">
     <g id="line2d_56">
      <g>
       <use xlink:href="#m8192c94556" x="373.697189" y="124.71" style="stroke: #000000; stroke-width: 0.6"/>
      </g>
     </g>
    </g>
    <g id="xtick_49">
     <g id="line2d_57">
      <g>
       <use xlink:href="#m8192c94556" x="380.158439" y="124.71" style="stroke: #000000; stroke-width: 0.6"/>
      </g>
     </g>
    </g>
    <g id="xtick_50">
     <g id="line2d_58">
      <g>
       <use xlink:href="#m8192c94556" x="393.080939" y="124.71" style="stroke: #000000; stroke-width: 0.6"/>
      </g>
     </g>
    </g>
    <g id="xtick_51">
     <g id="line2d_59">
      <g>
       <use xlink:href="#m8192c94556" x="399.542189" y="124.71" style="stroke: #000000; stroke-width: 0.6"/>
      </g>
     </g>
    </g>
    <g id="xtick_52">
     <g id="line2d_60">
      <g>
       <use xlink:href="#m8192c94556" x="406.003439" y="124.71" style="stroke: #000000; stroke-width: 0.6"/>
      </g>
     </g>
    </g>
    <g id="xtick_53">
     <g id="line2d_61">
      <g>
       <use xlink:href="#m8192c94556" x="412.46469" y="124.71" style="stroke: #000000; stroke-width: 0.6"/>
      </g>
     </g>
    </g>
    <g id="xtick_54">
     <g id="line2d_62">
      <g>
       <use xlink:href="#m8192c94556" x="425.38719" y="124.71" style="stroke: #000000; stroke-width: 0.6"/>
      </g>
     </g>
    </g>
    <g id="xtick_55">
     <g id="line2d_63">
      <g>
       <use xlink:href="#m8192c94556" x="431.84844" y="124.71" style="stroke: #000000; stroke-width: 0.6"/>
      </g>
     </g>
    </g>
    <g id="xtick_56">
     <g id="line2d_64">
      <g>
       <use xlink:href="#m8192c94556" x="438.30969" y="124.71" style="stroke: #000000; stroke-width: 0.6"/>
      </g>
     </g>
    </g>
    <g id="xtick_57">
     <g id="line2d_65">
      <g>
       <use xlink:href="#m8192c94556" x="444.77094" y="124.71" style="stroke: #000000; stroke-width: 0.6"/>
      </g>
     </g>
    </g>
    <g id="xtick_58">
     <g id="line2d_66">
      <g>
       <use xlink:href="#m8192c94556" x="457.693441" y="124.71" style="stroke: #000000; stroke-width: 0.6"/>
      </g>
     </g>
    </g>
    <g id="xtick_59">
     <g id="line2d_67">
      <g>
       <use xlink:href="#m8192c94556" x="464.154691" y="124.71" style="stroke: #000000; stroke-width: 0.6"/>
      </g>
     </g>
    </g>
    <g id="xtick_60">
     <g id="line2d_68">
      <g>
       <use xlink:href="#m8192c94556" x="470.615941" y="124.71" style="stroke: #000000; stroke-width: 0.6"/>
      </g>
     </g>
    </g>
    <g id="xtick_61">
     <g id="line2d_69">
      <g>
       <use xlink:href="#m8192c94556" x="477.077191" y="124.71" style="stroke: #000000; stroke-width: 0.6"/>
      </g>
     </g>
    </g>
    <g id="xtick_62">
     <g id="line2d_70">
      <g>
       <use xlink:href="#m8192c94556" x="489.999692" y="124.71" style="stroke: #000000; stroke-width: 0.6"/>
      </g>
     </g>
    </g>
    <g id="xtick_63">
     <g id="line2d_71">
      <g>
       <use xlink:href="#m8192c94556" x="496.460942" y="124.71" style="stroke: #000000; stroke-width: 0.6"/>
      </g>
     </g>
    </g>
    <g id="xtick_64">
     <g id="line2d_72">
      <g>
       <use xlink:href="#m8192c94556" x="502.922192" y="124.71" style="stroke: #000000; stroke-width: 0.6"/>
      </g>
     </g>
    </g>
    <g id="xtick_65">
     <g id="line2d_73">
      <g>
       <use xlink:href="#m8192c94556" x="509.383442" y="124.71" style="stroke: #000000; stroke-width: 0.6"/>
      </g>
     </g>
    </g>
    <g id="xtick_66">
     <g id="line2d_74">
      <g>
       <use xlink:href="#m8192c94556" x="522.305942" y="124.71" style="stroke: #000000; stroke-width: 0.6"/>
      </g>
     </g>
    </g>
    <g id="xtick_67">
     <g id="line2d_75">
      <g>
       <use xlink:href="#m8192c94556" x="528.767193" y="124.71" style="stroke: #000000; stroke-width: 0.6"/>
      </g>
     </g>
    </g>
    <g id="xtick_68">
     <g id="line2d_76">
      <g>
       <use xlink:href="#m8192c94556" x="535.228443" y="124.71" style="stroke: #000000; stroke-width: 0.6"/>
      </g>
     </g>
    </g>
    <g id="xtick_69">
     <g id="line2d_77">
      <g>
       <use xlink:href="#m8192c94556" x="541.689693" y="124.71" style="stroke: #000000; stroke-width: 0.6"/>
      </g>
     </g>
    </g>
    <g id="xtick_70">
     <g id="line2d_78">
      <g>
       <use xlink:href="#m8192c94556" x="554.612193" y="124.71" style="stroke: #000000; stroke-width: 0.6"/>
      </g>
     </g>
    </g>
   </g>
   <g id="matplotlib.axis_4">
    <g id="ytick_4">
     <g id="line2d_79">
      <path d="M 334.929688 109.200154 
L 559.458131 109.200154 
" clip-path="url(#p21602b830a)" style="fill: none; stroke-dasharray: 2.96,1.28; stroke-dashoffset: 0; stroke: #000000; stroke-opacity: 0.1; stroke-width: 0.8"/>
     </g>
     <g id="line2d_80">
      <g>
       <use xlink:href="#m8ed4e59c68" x="334.929688" y="109.200154" style="stroke: #000000; stroke-width: 0.8"/>
      </g>
     </g>
     <g id="text_5">
      <!-- −40% -->
      <g transform="translate(297.323438 112.999373) scale(0.1 -0.1)">
       <defs>
        <path id="DejaVuSans-2212" d="M 678 2272 
L 4684 2272 
L 4684 1741 
L 678 1741 
L 678 2272 
z
" transform="scale(0.015625)"/>
       </defs>
       <use xlink:href="#DejaVuSans-2212"/>
       <use xlink:href="#DejaVuSans-34" transform="translate(83.789062 0)"/>
       <use xlink:href="#DejaVuSans-30" transform="translate(147.412109 0)"/>
       <use xlink:href="#DejaVuSans-25" transform="translate(211.035156 0)"/>
      </g>
     </g>
    </g>
    <g id="ytick_5">
     <g id="line2d_81">
      <path d="M 334.929688 70.325958 
L 559.458131 70.325958 
" clip-path="url(#p21602b830a)" style="fill: none; stroke-dasharray: 2.96,1.28; stroke-dashoffset: 0; stroke: #000000; stroke-opacity: 0.1; stroke-width: 0.8"/>
     </g>
     <g id="line2d_82">
      <g>
       <use xlink:href="#m8ed4e59c68" x="334.929688" y="70.325958" style="stroke: #000000; stroke-width: 0.8"/>
      </g>
     </g>
     <g id="text_6">
      <!-- −20% -->
      <g transform="translate(297.323438 74.125176) scale(0.1 -0.1)">
       <use xlink:href="#DejaVuSans-2212"/>
       <use xlink:href="#DejaVuSans-32" transform="translate(83.789062 0)"/>
       <use xlink:href="#DejaVuSans-30" transform="translate(147.412109 0)"/>
       <use xlink:href="#DejaVuSans-25" transform="translate(211.035156 0)"/>
      </g>
     </g>
    </g>
    <g id="ytick_6">
     <g id="line2d_83">
      <path d="M 334.929688 31.451761 
L 559.458131 31.451761 
" clip-path="url(#p21602b830a)" style="fill: none; stroke-dasharray: 2.96,1.28; stroke-dashoffset: 0; stroke: #000000; stroke-opacity: 0.1; stroke-width: 0.8"/>
     </g>
     <g id="line2d_84">
      <g>
       <use xlink:href="#m8ed4e59c68" x="334.929688" y="31.451761" style="stroke: #000000; stroke-width: 0.8"/>
      </g>
     </g>
     <g id="text_7">
      <!-- 0% -->
      <g transform="translate(312.065625 35.250979) scale(0.1 -0.1)">
       <use xlink:href="#DejaVuSans-30"/>
       <use xlink:href="#DejaVuSans-25" transform="translate(63.623047 0)"/>
      </g>
     </g>
    </g>
   </g>
   <g id="line2d_85">
    <path d="M 341.390938 33.064707 
L 341.929375 32.764551 
L 342.467813 33.492528 
L 343.00625 33.823404 
L 344.083125 30.37549 
L 344.621563 24.796374 
L 345.16 24.124751 
L 345.698438 22.458713 
L 346.236875 23.281275 
L 346.775313 22.54243 
L 347.31375 21.150332 
L 347.852188 20.201444 
L 348.390625 19.993287 
L 348.929063 19.416567 
L 350.005938 19.294299 
L 350.544375 18.821862 
L 351.082813 16.837532 
L 351.62125 16.837532 
L 352.159688 16.024426 
L 353.236563 16.009206 
L 353.775 15.670874 
L 355.390313 15.671767 
L 355.928751 18.03583 
L 356.467188 19.553905 
L 357.005626 19.92778 
L 357.544063 19.107975 
L 358.620938 19.208845 
L 359.159376 19.97274 
L 359.697813 19.936631 
L 360.236251 18.849036 
L 360.774688 18.250747 
L 361.313126 17.479022 
L 361.851563 15.358093 
L 362.390001 15.092557 
L 362.928438 15.092549 
L 363.466876 13.952905 
L 364.005313 18.016229 
L 364.543751 16.254087 
L 365.082188 15.256527 
L 365.620626 13.142431 
L 366.159063 12.541364 
L 366.697501 12.541364 
L 367.235938 12.836298 
L 367.774376 20.781294 
L 368.312813 22.458986 
L 368.851251 24.565561 
L 369.389688 25.400173 
L 369.928126 25.162041 
L 370.466563 25.16204 
L 371.005001 27.527852 
L 371.543438 27.526265 
L 372.081876 26.873521 
L 372.620313 26.87352 
L 373.158751 28.049376 
L 374.774064 28.36203 
L 375.312501 28.281689 
L 375.850939 26.503231 
L 376.389376 26.372344 
L 377.466251 26.442633 
L 378.004689 21.45406 
L 379.081564 21.431134 
L 379.620001 21.069666 
L 380.158439 17.197951 
L 380.696876 17.400482 
L 381.773751 16.649645 
L 382.312189 15.965984 
L 382.850626 14.200494 
L 384.465939 14.145326 
L 385.004376 16.321279 
L 385.542814 16.297996 
L 386.081251 16.394986 
L 386.619689 15.36856 
L 387.696564 15.369664 
L 388.235001 15.085713 
L 389.311876 18.204058 
L 389.850314 18.732611 
L 390.927189 18.768368 
L 391.465626 18.974756 
L 392.004064 19.936428 
L 392.542502 23.143604 
L 393.619377 22.58445 
L 394.157814 22.582586 
L 394.696252 23.047253 
L 395.234689 23.126561 
L 395.773127 19.505146 
L 396.311564 18.94322 
L 396.850002 18.942172 
L 397.388439 19.059699 
L 397.926877 17.959057 
L 398.465314 17.930647 
L 399.003752 14.859375 
L 399.542189 15.102548 
L 400.080627 14.973359 
L 400.619064 15.070562 
L 401.157502 21.085611 
L 401.695939 20.761366 
L 402.772814 19.882397 
L 403.311252 18.661554 
L 404.388127 18.661218 
L 404.926564 20.284641 
L 405.465002 22.686066 
L 406.541877 20.257985 
L 407.080314 25.093531 
L 407.618752 23.258718 
L 408.695627 22.932779 
L 409.234064 22.64874 
L 409.772502 21.149033 
L 410.310939 21.126306 
L 410.849377 24.863945 
L 411.387815 26.26609 
L 411.926252 25.796853 
L 412.46469 26.434987 
L 413.541565 26.433805 
L 414.61844 24.716821 
L 415.156877 27.084028 
L 415.695315 27.094695 
L 416.233752 24.680256 
L 416.77219 17.24421 
L 417.310627 22.651694 
L 417.849065 22.052963 
L 418.387502 19.552245 
L 418.92594 18.104293 
L 419.464377 17.484729 
L 420.002815 15.489778 
L 420.541252 23.654164 
L 421.07969 24.04249 
L 421.618127 23.38477 
L 422.156565 23.137224 
L 422.695002 16.896234 
L 423.23344 16.782243 
L 423.771877 13.916315 
L 424.310315 16.100855 
L 424.848752 15.979765 
L 425.38719 15.71736 
L 425.925627 18.523379 
L 426.464065 18.69197 
L 427.002502 17.27047 
L 427.54094 17.023323 
L 428.079377 13.275242 
L 428.617815 19.951236 
L 429.156252 19.932136 
L 429.69469 20.189875 
L 430.233128 20.197242 
L 430.771565 18.999922 
L 431.310003 14.049389 
L 431.84844 16.194542 
L 432.386878 15.982905 
L 432.925315 21.546469 
L 433.463753 23.354954 
L 434.00219 23.391795 
L 434.540628 22.482723 
L 435.079065 18.929654 
L 435.617503 18.44138 
L 436.15594 18.357687 
L 436.694378 17.44735 
L 437.232815 13.193778 
L 437.771253 13.633312 
L 438.30969 15.2018 
L 438.848128 13.786949 
L 439.386565 16.360132 
L 439.925003 15.375931 
L 440.46344 19.408339 
L 441.001878 19.812009 
L 441.540315 19.423779 
L 442.078753 17.377117 
L 442.61719 17.083139 
L 443.155628 13.827012 
L 443.694065 13.815524 
L 444.232503 14.501397 
L 445.309378 14.574222 
L 445.847815 13.580918 
L 446.92469 22.296022 
L 448.001565 22.296275 
L 448.540003 21.967491 
L 450.155316 21.967395 
L 450.693753 20.6885 
L 451.770628 20.713988 
L 452.309066 18.116463 
L 452.847503 30.078444 
L 453.385941 35.45433 
L 453.924378 34.798796 
L 454.462816 33.912829 
L 455.001253 31.267475 
L 455.539691 27.094994 
L 456.078128 30.2456 
L 456.616566 28.086457 
L 457.155003 36.793428 
L 457.693441 35.594943 
L 458.231878 36.137492 
L 458.770316 39.186714 
L 459.308753 33.68851 
L 459.847191 33.635539 
L 460.385628 29.433149 
L 460.924066 30.572131 
L 461.462503 26.704454 
L 462.000941 31.399389 
L 462.539378 38.736839 
L 463.077816 40.907463 
L 463.616253 47.100234 
L 464.154691 51.518602 
L 464.693128 48.832137 
L 465.231566 48.794036 
L 465.770003 44.938771 
L 466.308441 43.626497 
L 466.846878 43.819859 
L 467.385316 38.45081 
L 467.923754 38.066478 
L 468.462191 38.066416 
L 469.000629 43.935416 
L 470.077504 39.591953 
L 470.615941 40.173099 
L 471.692816 47.506446 
L 472.231254 43.040343 
L 472.769691 43.018515 
L 473.308129 45.553224 
L 473.846566 42.848395 
L 474.385004 44.971929 
L 474.923441 48.289463 
L 475.461879 48.474173 
L 476.000316 47.220025 
L 476.538754 49.359808 
L 477.077191 54.365612 
L 477.615629 53.864344 
L 478.154066 54.444244 
L 478.692504 54.133814 
L 479.230941 61.724502 
L 480.307816 68.070134 
L 480.846254 68.737165 
L 481.384691 68.422653 
L 481.923129 67.479327 
L 482.461566 70.868593 
L 483.000004 73.048355 
L 484.615316 71.111336 
L 485.153754 68.989905 
L 485.692191 68.233767 
L 486.230629 68.605332 
L 486.769067 68.589222 
L 487.307504 68.331338 
L 487.845942 68.342834 
L 488.384379 68.209141 
L 489.999692 68.18924 
L 490.538129 76.627348 
L 491.076567 76.437349 
L 492.153442 80.916096 
L 492.691879 81.246137 
L 493.768754 81.217985 
L 494.307192 80.722795 
L 494.845629 81.098718 
L 495.384067 81.297204 
L 495.922504 81.315843 
L 496.460942 80.668439 
L 496.999379 77.734275 
L 497.537817 77.824777 
L 498.076254 78.537315 
L 498.614692 78.023625 
L 499.153129 75.480049 
L 499.691567 75.064652 
L 500.230004 75.911425 
L 500.768442 77.219515 
L 501.306879 77.621706 
L 501.845317 87.241974 
L 502.383754 87.608275 
L 502.922192 86.607678 
L 503.460629 84.784852 
L 503.999067 85.004836 
L 505.075942 81.962643 
L 505.61438 81.48951 
L 506.152817 82.310088 
L 506.691255 78.257282 
L 507.229692 81.050844 
L 507.76813 81.080653 
L 508.306567 80.44021 
L 508.845005 78.434255 
L 509.383442 80.711638 
L 509.92188 80.71271 
L 510.460317 79.776327 
L 510.998755 81.566851 
L 511.537192 80.931903 
L 512.07563 80.542604 
L 512.614067 81.140153 
L 513.152505 80.750272 
L 513.690942 83.135605 
L 515.306255 83.134144 
L 515.844692 82.722022 
L 516.38313 84.226464 
L 516.921567 84.11117 
L 517.460005 86.415223 
L 517.998442 86.347235 
L 518.53688 85.339026 
L 519.075317 85.071541 
L 519.613755 84.957208 
L 520.152192 87.645533 
L 520.69063 89.010292 
L 521.229067 89.346319 
L 521.767505 93.191557 
L 522.305942 92.897168 
L 523.382817 92.886145 
L 523.921255 91.982939 
L 524.459693 94.015742 
L 524.99813 93.616549 
L 525.536568 88.729613 
L 526.075005 94.839128 
L 526.613443 94.548024 
L 527.15188 95.234486 
L 527.690318 95.191055 
L 528.228755 96.664066 
L 528.767193 98.9079 
L 529.30563 105.390463 
L 529.844068 109.342598 
L 530.382505 107.210081 
L 530.920943 107.207865 
L 531.45938 107.01109 
L 531.997818 103.84793 
L 533.074693 104.349424 
L 533.61313 103.349039 
L 534.151568 103.084568 
L 534.690005 105.374579 
L 535.228443 105.461261 
L 535.76688 106.26765 
L 536.305318 111.649399 
L 536.843755 111.649453 
L 537.382193 113.087854 
L 537.92063 113.090475 
L 538.459068 112.792455 
L 538.997505 113.120246 
L 539.535943 113.120278 
L 540.07438 119.368636 
L 540.612818 113.751547 
L 541.151255 114.072219 
L 541.689693 107.705594 
L 542.22813 108.761066 
L 542.766568 103.647038 
L 543.305006 103.373758 
L 543.843443 103.612421 
L 544.381881 103.484271 
L 544.920318 105.210535 
L 545.458756 106.507575 
L 545.997193 106.99793 
L 546.535631 107.013766 
L 547.074068 106.911504 
L 547.612506 103.360704 
L 548.150943 105.067995 
L 548.689381 107.295234 
L 549.227818 106.468182 
L 549.766256 106.774665 
L 550.304693 104.476471 
L 550.843131 103.116474 
L 551.381568 99.541542 
L 552.458443 95.230539 
L 552.996881 97.011062 
L 553.535318 96.57997 
L 554.073756 97.403689 
L 554.612193 96.818239 
L 555.150631 92.324973 
L 556.227506 92.327347 
L 556.765943 96.178775 
L 557.304381 95.264516 
L 557.842818 96.290638 
L 558.381256 96.275642 
L 558.919693 92.583898 
L 559.458131 90.943732 
L 559.458131 90.943732 
" clip-path="url(#p21602b830a)" style="fill: none; stroke: #ff7f0e; stroke-width: 1.5; stroke-linecap: square"/>
   </g>
   <g id="patch_9">
    <path d="M 334.929688 124.71 
L 334.929688 7.2 
" style="fill: none"/>
   </g>
   <g id="patch_10">
    <path d="M 559.458131 124.71 
L 559.458131 7.2 
" style="fill: none"/>
   </g>
   <g id="patch_11">
    <path d="M 334.929688 124.71 
L 559.458131 124.71 
" style="fill: none; stroke: #000000; stroke-width: 0.8; stroke-linejoin: miter; stroke-linecap: square"/>
   </g>
   <g id="patch_12">
    <path d="M 334.929688 7.2 
L 559.458131 7.2 
" style="fill: none"/>
   </g>
   <g id="legend_2">
    <g id="patch_13">
     <path d="M 504.045631 29.878125 
L 552.458131 29.878125 
Q 554.458131 29.878125 554.458131 27.878125 
L 554.458131 14.2 
Q 554.458131 12.2 552.458131 12.2 
L 504.045631 12.2 
Q 502.045631 12.2 502.045631 14.2 
L 502.045631 27.878125 
Q 502.045631 29.878125 504.045631 29.878125 
L 504.045631 29.878125 
z
" style="fill: none; opacity: 0"/>
    </g>
    <g id="line2d_86">
     <path d="M 506.045631 20.298437 
L 516.045631 20.298437 
L 526.045631 20.298437 
" style="fill: none; stroke: #ff7f0e; stroke-width: 1.5; stroke-linecap: square"/>
    </g>
    <g id="text_8">
     <!-- TLT -->
     <g transform="translate(534.045631 23.798437) scale(0.1 -0.1)">
      <defs>
       <path id="DejaVuSans-54" d="M -19 4666 
L 3928 4666 
L 3928 4134 
L 2272 4134 
L 2272 0 
L 1638 0 
L 1638 4134 
L -19 4134 
L -19 4666 
z
" transform="scale(0.015625)"/>
       <path id="DejaVuSans-4c" d="M 628 4666 
L 1259 4666 
L 1259 531 
L 3531 531 
L 3531 0 
L 628 0 
L 628 4666 
z
" transform="scale(0.015625)"/>
      </defs>
      <use xlink:href="#DejaVuSans-54"/>
      <use xlink:href="#DejaVuSans-4c" transform="translate(61.083984 0)"/>
      <use xlink:href="#DejaVuSans-54" transform="translate(103.046875 0)"/>
     </g>
    </g>
   </g>
  </g>
  <g id="axes_3">
   <g id="patch_14">
    <path d="M 52.329688 256.52 
L 276.858131 256.52 
L 276.858131 139.01 
L 52.329688 139.01 
L 52.329688 256.52 
z
" style="fill: none"/>
   </g>
   <g id="matplotlib.axis_5">
    <g id="xtick_71">
     <g id="line2d_87">
      <g>
       <use xlink:href="#m673361ecb6" x="71.713438" y="256.52" style="stroke: #000000; stroke-width: 0.8"/>
      </g>
     </g>
     <g id="text_9">
      <!-- 1994 -->
      <g transform="translate(58.988438 271.118437) scale(0.1 -0.1)">
       <defs>
        <path id="DejaVuSans-31" d="M 794 531 
L 1825 531 
L 1825 4091 
L 703 3866 
L 703 4441 
L 1819 4666 
L 2450 4666 
L 2450 531 
L 3481 531 
L 3481 0 
L 794 0 
L 794 531 
z
" transform="scale(0.015625)"/>
        <path id="DejaVuSans-39" d="M 703 97 
L 703 672 
Q 941 559 1184 500 
Q 1428 441 1663 441 
Q 2288 441 2617 861 
Q 2947 1281 2994 2138 
Q 2813 1869 2534 1725 
Q 2256 1581 1919 1581 
Q 1219 1581 811 2004 
Q 403 2428 403 3163 
Q 403 3881 828 4315 
Q 1253 4750 1959 4750 
Q 2769 4750 3195 4129 
Q 3622 3509 3622 2328 
Q 3622 1225 3098 567 
Q 2575 -91 1691 -91 
Q 1453 -91 1209 -44 
Q 966 3 703 97 
z
M 1959 2075 
Q 2384 2075 2632 2365 
Q 2881 2656 2881 3163 
Q 2881 3666 2632 3958 
Q 2384 4250 1959 4250 
Q 1534 4250 1286 3958 
Q 1038 3666 1038 3163 
Q 1038 2656 1286 2365 
Q 1534 2075 1959 2075 
z
" transform="scale(0.015625)"/>
       </defs>
       <use xlink:href="#DejaVuSans-31"/>
       <use xlink:href="#DejaVuSans-39" transform="translate(63.623047 0)"/>
       <use xlink:href="#DejaVuSans-39" transform="translate(127.246094 0)"/>
       <use xlink:href="#DejaVuSans-34" transform="translate(190.869141 0)"/>
      </g>
     </g>
    </g>
    <g id="xtick_72">
     <g id="line2d_88">
      <g>
       <use xlink:href="#m673361ecb6" x="104.019689" y="256.52" style="stroke: #000000; stroke-width: 0.8"/>
      </g>
     </g>
     <g id="text_10">
      <!-- 1999 -->
      <g transform="translate(91.294689 271.118437) scale(0.1 -0.1)">
       <use xlink:href="#DejaVuSans-31"/>
       <use xlink:href="#DejaVuSans-39" transform="translate(63.623047 0)"/>
       <use xlink:href="#DejaVuSans-39" transform="translate(127.246094 0)"/>
       <use xlink:href="#DejaVuSans-39" transform="translate(190.869141 0)"/>
      </g>
     </g>
    </g>
    <g id="xtick_73">
     <g id="line2d_89">
      <g>
       <use xlink:href="#m673361ecb6" x="136.32594" y="256.52" style="stroke: #000000; stroke-width: 0.8"/>
      </g>
     </g>
     <g id="text_11">
      <!-- 2004 -->
      <g transform="translate(123.60094 271.118437) scale(0.1 -0.1)">
       <use xlink:href="#DejaVuSans-32"/>
       <use xlink:href="#DejaVuSans-30" transform="translate(63.623047 0)"/>
       <use xlink:href="#DejaVuSans-30" transform="translate(127.246094 0)"/>
       <use xlink:href="#DejaVuSans-34" transform="translate(190.869141 0)"/>
      </g>
     </g>
    </g>
    <g id="xtick_74">
     <g id="line2d_90">
      <g>
       <use xlink:href="#m673361ecb6" x="168.632191" y="256.52" style="stroke: #000000; stroke-width: 0.8"/>
      </g>
     </g>
     <g id="text_12">
      <!-- 2009 -->
      <g transform="translate(155.907191 271.118437) scale(0.1 -0.1)">
       <use xlink:href="#DejaVuSans-32"/>
       <use xlink:href="#DejaVuSans-30" transform="translate(63.623047 0)"/>
       <use xlink:href="#DejaVuSans-30" transform="translate(127.246094 0)"/>
       <use xlink:href="#DejaVuSans-39" transform="translate(190.869141 0)"/>
      </g>
     </g>
    </g>
    <g id="xtick_75">
     <g id="line2d_91">
      <g>
       <use xlink:href="#m673361ecb6" x="200.938441" y="256.52" style="stroke: #000000; stroke-width: 0.8"/>
      </g>
     </g>
     <g id="text_13">
      <!-- 2014 -->
      <g transform="translate(188.213441 271.118437) scale(0.1 -0.1)">
       <use xlink:href="#DejaVuSans-32"/>
       <use xlink:href="#DejaVuSans-30" transform="translate(63.623047 0)"/>
       <use xlink:href="#DejaVuSans-31" transform="translate(127.246094 0)"/>
       <use xlink:href="#DejaVuSans-34" transform="translate(190.869141 0)"/>
      </g>
     </g>
    </g>
    <g id="xtick_76">
     <g id="line2d_92">
      <g>
       <use xlink:href="#m673361ecb6" x="233.244692" y="256.52" style="stroke: #000000; stroke-width: 0.8"/>
      </g>
     </g>
     <g id="text_14">
      <!-- 2019 -->
      <g transform="translate(220.519692 271.118437) scale(0.1 -0.1)">
       <use xlink:href="#DejaVuSans-32"/>
       <use xlink:href="#DejaVuSans-30" transform="translate(63.623047 0)"/>
       <use xlink:href="#DejaVuSans-31" transform="translate(127.246094 0)"/>
       <use xlink:href="#DejaVuSans-39" transform="translate(190.869141 0)"/>
      </g>
     </g>
    </g>
    <g id="xtick_77">
     <g id="line2d_93">
      <g>
       <use xlink:href="#m673361ecb6" x="265.550943" y="256.52" style="stroke: #000000; stroke-width: 0.8"/>
      </g>
     </g>
     <g id="text_15">
      <!-- 2024 -->
      <g transform="translate(252.825943 271.118437) scale(0.1 -0.1)">
       <use xlink:href="#DejaVuSans-32"/>
       <use xlink:href="#DejaVuSans-30" transform="translate(63.623047 0)"/>
       <use xlink:href="#DejaVuSans-32" transform="translate(127.246094 0)"/>
       <use xlink:href="#DejaVuSans-34" transform="translate(190.869141 0)"/>
      </g>
     </g>
    </g>
    <g id="xtick_78">
     <g id="line2d_94">
      <g>
       <use xlink:href="#m8192c94556" x="52.329688" y="256.52" style="stroke: #000000; stroke-width: 0.6"/>
      </g>
     </g>
    </g>
    <g id="xtick_79">
     <g id="line2d_95">
      <g>
       <use xlink:href="#m8192c94556" x="58.790938" y="256.52" style="stroke: #000000; stroke-width: 0.6"/>
      </g>
     </g>
    </g>
    <g id="xtick_80">
     <g id="line2d_96">
      <g>
       <use xlink:href="#m8192c94556" x="65.252188" y="256.52" style="stroke: #000000; stroke-width: 0.6"/>
      </g>
     </g>
    </g>
    <g id="xtick_81">
     <g id="line2d_97">
      <g>
       <use xlink:href="#m8192c94556" x="78.174688" y="256.52" style="stroke: #000000; stroke-width: 0.6"/>
      </g>
     </g>
    </g>
    <g id="xtick_82">
     <g id="line2d_98">
      <g>
       <use xlink:href="#m8192c94556" x="84.635938" y="256.52" style="stroke: #000000; stroke-width: 0.6"/>
      </g>
     </g>
    </g>
    <g id="xtick_83">
     <g id="line2d_99">
      <g>
       <use xlink:href="#m8192c94556" x="91.097189" y="256.52" style="stroke: #000000; stroke-width: 0.6"/>
      </g>
     </g>
    </g>
    <g id="xtick_84">
     <g id="line2d_100">
      <g>
       <use xlink:href="#m8192c94556" x="97.558439" y="256.52" style="stroke: #000000; stroke-width: 0.6"/>
      </g>
     </g>
    </g>
    <g id="xtick_85">
     <g id="line2d_101">
      <g>
       <use xlink:href="#m8192c94556" x="110.480939" y="256.52" style="stroke: #000000; stroke-width: 0.6"/>
      </g>
     </g>
    </g>
    <g id="xtick_86">
     <g id="line2d_102">
      <g>
       <use xlink:href="#m8192c94556" x="116.942189" y="256.52" style="stroke: #000000; stroke-width: 0.6"/>
      </g>
     </g>
    </g>
    <g id="xtick_87">
     <g id="line2d_103">
      <g>
       <use xlink:href="#m8192c94556" x="123.403439" y="256.52" style="stroke: #000000; stroke-width: 0.6"/>
      </g>
     </g>
    </g>
    <g id="xtick_88">
     <g id="line2d_104">
      <g>
       <use xlink:href="#m8192c94556" x="129.86469" y="256.52" style="stroke: #000000; stroke-width: 0.6"/>
      </g>
     </g>
    </g>
    <g id="xtick_89">
     <g id="line2d_105">
      <g>
       <use xlink:href="#m8192c94556" x="142.78719" y="256.52" style="stroke: #000000; stroke-width: 0.6"/>
      </g>
     </g>
    </g>
    <g id="xtick_90">
     <g id="line2d_106">
      <g>
       <use xlink:href="#m8192c94556" x="149.24844" y="256.52" style="stroke: #000000; stroke-width: 0.6"/>
      </g>
     </g>
    </g>
    <g id="xtick_91">
     <g id="line2d_107">
      <g>
       <use xlink:href="#m8192c94556" x="155.70969" y="256.52" style="stroke: #000000; stroke-width: 0.6"/>
      </g>
     </g>
    </g>
    <g id="xtick_92">
     <g id="line2d_108">
      <g>
       <use xlink:href="#m8192c94556" x="162.17094" y="256.52" style="stroke: #000000; stroke-width: 0.6"/>
      </g>
     </g>
    </g>
    <g id="xtick_93">
     <g id="line2d_109">
      <g>
       <use xlink:href="#m8192c94556" x="175.093441" y="256.52" style="stroke: #000000; stroke-width: 0.6"/>
      </g>
     </g>
    </g>
    <g id="xtick_94">
     <g id="line2d_110">
      <g>
       <use xlink:href="#m8192c94556" x="181.554691" y="256.52" style="stroke: #000000; stroke-width: 0.6"/>
      </g>
     </g>
    </g>
    <g id="xtick_95">
     <g id="line2d_111">
      <g>
       <use xlink:href="#m8192c94556" x="188.015941" y="256.52" style="stroke: #000000; stroke-width: 0.6"/>
      </g>
     </g>
    </g>
    <g id="xtick_96">
     <g id="line2d_112">
      <g>
       <use xlink:href="#m8192c94556" x="194.477191" y="256.52" style="stroke: #000000; stroke-width: 0.6"/>
      </g>
     </g>
    </g>
    <g id="xtick_97">
     <g id="line2d_113">
      <g>
       <use xlink:href="#m8192c94556" x="207.399692" y="256.52" style="stroke: #000000; stroke-width: 0.6"/>
      </g>
     </g>
    </g>
    <g id="xtick_98">
     <g id="line2d_114">
      <g>
       <use xlink:href="#m8192c94556" x="213.860942" y="256.52" style="stroke: #000000; stroke-width: 0.6"/>
      </g>
     </g>
    </g>
    <g id="xtick_99">
     <g id="line2d_115">
      <g>
       <use xlink:href="#m8192c94556" x="220.322192" y="256.52" style="stroke: #000000; stroke-width: 0.6"/>
      </g>
     </g>
    </g>
    <g id="xtick_100">
     <g id="line2d_116">
      <g>
       <use xlink:href="#m8192c94556" x="226.783442" y="256.52" style="stroke: #000000; stroke-width: 0.6"/>
      </g>
     </g>
    </g>
    <g id="xtick_101">
     <g id="line2d_117">
      <g>
       <use xlink:href="#m8192c94556" x="239.705942" y="256.52" style="stroke: #000000; stroke-width: 0.6"/>
      </g>
     </g>
    </g>
    <g id="xtick_102">
     <g id="line2d_118">
      <g>
       <use xlink:href="#m8192c94556" x="246.167193" y="256.52" style="stroke: #000000; stroke-width: 0.6"/>
      </g>
     </g>
    </g>
    <g id="xtick_103">
     <g id="line2d_119">
      <g>
       <use xlink:href="#m8192c94556" x="252.628443" y="256.52" style="stroke: #000000; stroke-width: 0.6"/>
      </g>
     </g>
    </g>
    <g id="xtick_104">
     <g id="line2d_120">
      <g>
       <use xlink:href="#m8192c94556" x="259.089693" y="256.52" style="stroke: #000000; stroke-width: 0.6"/>
      </g>
     </g>
    </g>
    <g id="xtick_105">
     <g id="line2d_121">
      <g>
       <use xlink:href="#m8192c94556" x="272.012193" y="256.52" style="stroke: #000000; stroke-width: 0.6"/>
      </g>
     </g>
    </g>
   </g>
   <g id="matplotlib.axis_6">
    <g id="ytick_7">
     <g id="line2d_122">
      <path d="M 52.329688 250.970729 
L 276.858131 250.970729 
" clip-path="url(#pb845244ce7)" style="fill: none; stroke-dasharray: 2.96,1.28; stroke-dashoffset: 0; stroke: #000000; stroke-opacity: 0.1; stroke-width: 0.8"/>
     </g>
     <g id="line2d_123">
      <g>
       <use xlink:href="#m8ed4e59c68" x="52.329688" y="250.970729" style="stroke: #000000; stroke-width: 0.8"/>
      </g>
     </g>
     <g id="text_16">
      <!-- 0% -->
      <g transform="translate(29.465625 254.769948) scale(0.1 -0.1)">
       <use xlink:href="#DejaVuSans-30"/>
       <use xlink:href="#DejaVuSans-25" transform="translate(63.623047 0)"/>
      </g>
     </g>
    </g>
    <g id="ytick_8">
     <g id="line2d_124">
      <path d="M 52.329688 209.085723 
L 276.858131 209.085723 
" clip-path="url(#pb845244ce7)" style="fill: none; stroke-dasharray: 2.96,1.28; stroke-dashoffset: 0; stroke: #000000; stroke-opacity: 0.1; stroke-width: 0.8"/>
     </g>
     <g id="line2d_125">
      <g>
       <use xlink:href="#m8ed4e59c68" x="52.329688" y="209.085723" style="stroke: #000000; stroke-width: 0.8"/>
      </g>
     </g>
     <g id="text_17">
      <!-- 500% -->
      <g transform="translate(16.740625 212.884942) scale(0.1 -0.1)">
       <defs>
        <path id="DejaVuSans-35" d="M 691 4666 
L 3169 4666 
L 3169 4134 
L 1269 4134 
L 1269 2991 
Q 1406 3038 1543 3061 
Q 1681 3084 1819 3084 
Q 2600 3084 3056 2656 
Q 3513 2228 3513 1497 
Q 3513 744 3044 326 
Q 2575 -91 1722 -91 
Q 1428 -91 1123 -41 
Q 819 9 494 109 
L 494 744 
Q 775 591 1075 516 
Q 1375 441 1709 441 
Q 2250 441 2565 725 
Q 2881 1009 2881 1497 
Q 2881 1984 2565 2268 
Q 2250 2553 1709 2553 
Q 1456 2553 1204 2497 
Q 953 2441 691 2322 
L 691 4666 
z
" transform="scale(0.015625)"/>
       </defs>
       <use xlink:href="#DejaVuSans-35"/>
       <use xlink:href="#DejaVuSans-30" transform="translate(63.623047 0)"/>
       <use xlink:href="#DejaVuSans-30" transform="translate(127.246094 0)"/>
       <use xlink:href="#DejaVuSans-25" transform="translate(190.869141 0)"/>
      </g>
     </g>
    </g>
    <g id="ytick_9">
     <g id="line2d_126">
      <path d="M 52.329688 167.200718 
L 276.858131 167.200718 
" clip-path="url(#pb845244ce7)" style="fill: none; stroke-dasharray: 2.96,1.28; stroke-dashoffset: 0; stroke: #000000; stroke-opacity: 0.1; stroke-width: 0.8"/>
     </g>
     <g id="line2d_127">
      <g>
       <use xlink:href="#m8ed4e59c68" x="52.329688" y="167.200718" style="stroke: #000000; stroke-width: 0.8"/>
      </g>
     </g>
     <g id="text_18">
      <!-- 1,000% -->
      <g transform="translate(7.2 170.999937) scale(0.1 -0.1)">
       <use xlink:href="#DejaVuSans-31"/>
       <use xlink:href="#DejaVuSans-2c" transform="translate(63.623047 0)"/>
       <use xlink:href="#DejaVuSans-30" transform="translate(95.410156 0)"/>
       <use xlink:href="#DejaVuSans-30" transform="translate(159.033203 0)"/>
       <use xlink:href="#DejaVuSans-30" transform="translate(222.65625 0)"/>
       <use xlink:href="#DejaVuSans-25" transform="translate(286.279297 0)"/>
      </g>
     </g>
    </g>
   </g>
   <g id="line2d_128">
    <path d="M 58.790938 250.947321 
L 60.944688 251.17508 
L 61.483125 251.068882 
L 62.021563 250.798696 
L 62.56 250.917456 
L 63.098438 250.841998 
L 65.252188 250.951447 
L 65.790625 250.952445 
L 66.329063 250.708124 
L 67.944375 250.584642 
L 68.482813 250.208327 
L 69.02125 250.208327 
L 69.559688 250.361662 
L 70.636563 250.343241 
L 71.175 249.965499 
L 72.790313 249.965494 
L 73.328751 250.232672 
L 73.867188 249.97127 
L 76.020938 249.973507 
L 76.559376 250.166986 
L 78.713126 250.182586 
L 79.251563 249.815151 
L 84.097501 249.805188 
L 84.635938 249.458728 
L 85.712813 249.613041 
L 86.789688 249.6609 
L 92.712501 249.805032 
L 93.250939 249.674104 
L 94.866251 249.685397 
L 95.404689 249.461138 
L 97.020001 249.490571 
L 97.558439 249.052644 
L 98.635314 248.987899 
L 99.173751 248.890772 
L 100.250626 248.921251 
L 102.942814 249.006323 
L 104.019689 249.13915 
L 105.096564 249.139257 
L 105.635001 248.948264 
L 106.711876 249.382126 
L 108.327189 249.463071 
L 108.865626 249.452296 
L 109.942502 249.665349 
L 112.634689 249.726902 
L 113.173127 249.284747 
L 115.865314 249.420193 
L 116.403752 249.382466 
L 117.480627 249.464973 
L 118.019064 249.48457 
L 118.557502 249.293053 
L 123.403439 249.003579 
L 123.941877 248.6014 
L 126.095627 248.248694 
L 129.326252 248.237641 
L 129.86469 247.871078 
L 132.01844 247.768719 
L 132.556877 248.151595 
L 133.095315 248.151455 
L 133.633752 247.512751 
L 134.17219 247.322397 
L 134.710627 247.346415 
L 135.249065 247.002709 
L 135.787502 246.476966 
L 136.32594 246.63465 
L 136.864377 246.658614 
L 137.402815 245.987367 
L 137.941252 246.771789 
L 138.47969 246.602475 
L 139.556565 246.62063 
L 140.095002 246.153864 
L 140.63344 246.13853 
L 141.710315 245.590405 
L 142.78719 245.617409 
L 143.325627 245.183296 
L 144.94094 245.214716 
L 145.479377 244.662959 
L 146.017815 244.850749 
L 147.633128 244.809833 
L 148.171565 244.032012 
L 148.710003 243.472698 
L 149.24844 242.224996 
L 149.786878 242.250144 
L 150.325315 241.893352 
L 150.863753 241.217874 
L 151.40219 241.242534 
L 151.940628 241.553978 
L 152.479065 241.069033 
L 154.094378 241.017418 
L 154.632815 239.86888 
L 155.171253 239.895895 
L 155.70969 239.513745 
L 156.248128 239.408825 
L 156.786565 239.544885 
L 157.325003 239.273509 
L 157.86344 239.749875 
L 158.940315 239.791522 
L 159.478753 239.692303 
L 160.555628 237.242566 
L 161.094065 237.242843 
L 161.632503 236.475305 
L 162.709378 236.379078 
L 163.247815 236.669443 
L 163.786253 237.779995 
L 164.32469 237.310618 
L 165.401565 237.310743 
L 165.940003 237.431046 
L 169.709066 237.483318 
L 170.247503 238.109581 
L 170.785941 236.548171 
L 171.324378 237.100296 
L 171.862816 236.586339 
L 172.401253 236.615832 
L 172.939691 235.442582 
L 173.478128 234.986994 
L 174.016566 231.971468 
L 174.555003 233.353076 
L 175.093441 233.42127 
L 175.631878 232.717449 
L 176.170316 232.810482 
L 176.708753 231.398369 
L 177.247191 231.394266 
L 177.785628 231.104656 
L 178.324066 231.991255 
L 178.862503 231.627276 
L 179.400941 230.391178 
L 179.939378 229.46943 
L 180.477816 229.04755 
L 181.016253 228.332523 
L 181.554691 229.861251 
L 182.093128 228.302327 
L 182.631566 227.823416 
L 183.170003 225.43489 
L 184.246878 225.561542 
L 184.785316 223.667969 
L 185.862191 223.574903 
L 186.400629 221.704286 
L 186.939066 221.393824 
L 187.477504 222.580439 
L 188.015941 218.760047 
L 189.092816 219.708974 
L 190.169691 219.784731 
L 190.708129 218.929159 
L 191.246566 218.859806 
L 192.323441 215.653894 
L 192.861879 215.938131 
L 193.400316 216.039894 
L 195.015629 217.304946 
L 195.554066 216.938561 
L 196.092504 217.064614 
L 196.630941 218.559623 
L 197.169379 221.299093 
L 197.707816 218.746599 
L 198.246254 217.929773 
L 198.784691 218.564052 
L 199.323129 218.601409 
L 199.861566 220.380804 
L 200.400004 221.522493 
L 200.938441 221.439682 
L 201.476879 219.229778 
L 202.015316 219.800887 
L 202.553754 219.554857 
L 203.092191 219.805881 
L 203.630629 217.536339 
L 207.399692 217.597596 
L 207.938129 219.474261 
L 209.015004 219.598379 
L 209.553442 219.457841 
L 211.707192 219.600159 
L 212.245629 219.013048 
L 212.784067 219.435849 
L 213.322504 219.444787 
L 213.860942 219.275068 
L 214.399379 216.51239 
L 214.937817 216.505572 
L 215.476254 215.257587 
L 216.014692 216.359368 
L 216.553129 215.449486 
L 217.091567 215.31559 
L 217.630004 216.077197 
L 218.168442 215.95462 
L 218.706879 216.039949 
L 219.245317 218.750601 
L 219.783754 219.162712 
L 220.322192 217.342096 
L 220.860629 216.078474 
L 221.399067 216.122063 
L 221.937504 215.702063 
L 222.475942 215.579817 
L 223.01438 216.027122 
L 223.552817 215.246144 
L 224.091255 213.815369 
L 224.629692 214.793656 
L 225.16813 215.062891 
L 225.706567 214.93387 
L 226.245005 214.054933 
L 226.783442 213.516811 
L 228.398755 213.594044 
L 228.937192 213.716943 
L 229.47563 214.429563 
L 230.552505 214.888472 
L 231.090942 215.075585 
L 232.706255 215.075407 
L 233.244692 213.981475 
L 233.78313 214.162647 
L 234.321567 214.172606 
L 234.860005 214.463607 
L 235.398442 214.457869 
L 235.93688 211.740461 
L 236.475317 211.329346 
L 237.013755 211.306325 
L 237.552192 212.508945 
L 238.09063 211.213198 
L 238.629067 212.093184 
L 239.167505 210.561847 
L 240.24438 210.503829 
L 240.782817 210.503829 
L 241.859693 207.406423 
L 242.39813 205.897091 
L 242.936568 201.6783 
L 243.475005 201.553762 
L 244.013443 202.229838 
L 245.090318 202.338844 
L 245.628755 198.876845 
L 246.167193 199.576469 
L 246.70563 203.012738 
L 247.244068 203.304389 
L 247.782505 202.020672 
L 248.320943 198.244865 
L 248.85938 198.403654 
L 249.397818 197.333111 
L 250.474693 197.500641 
L 251.01313 197.194891 
L 251.551568 197.228308 
L 252.090005 195.329567 
L 252.628443 195.349328 
L 253.16688 193.741973 
L 253.705318 193.051689 
L 254.243755 193.051695 
L 254.782193 194.26064 
L 255.32063 194.262499 
L 256.397505 194.567353 
L 256.935943 194.567359 
L 257.47438 195.64187 
L 258.012818 191.650136 
L 258.551255 191.433467 
L 259.089693 188.518141 
L 259.62813 189.218526 
L 260.166568 184.206964 
L 260.705006 183.778602 
L 261.243443 183.844155 
L 261.781881 184.654236 
L 262.320318 183.706155 
L 262.858756 184.036948 
L 263.397193 184.22226 
L 264.474068 184.192252 
L 265.012506 183.86098 
L 265.550943 184.527914 
L 266.089381 184.248291 
L 266.627818 178.446092 
L 267.166256 178.349887 
L 267.704693 177.473048 
L 268.243131 177.541067 
L 268.781568 174.017059 
L 269.320006 172.712017 
L 269.858443 168.650136 
L 270.396881 167.675497 
L 270.935318 168.15782 
L 271.473756 168.28614 
L 272.012193 162.565043 
L 272.550631 161.487187 
L 274.704381 161.417873 
L 275.242818 161.832181 
L 275.781256 157.399848 
L 276.319693 147.886819 
L 276.858131 144.351364 
L 276.858131 144.351364 
" clip-path="url(#pb845244ce7)" style="fill: none; stroke: #2ca02c; stroke-width: 1.5; stroke-linecap: square"/>
   </g>
   <g id="patch_15">
    <path d="M 52.329688 256.52 
L 52.329688 139.01 
" style="fill: none"/>
   </g>
   <g id="patch_16">
    <path d="M 276.858131 256.52 
L 276.858131 139.01 
" style="fill: none"/>
   </g>
   <g id="patch_17">
    <path d="M 52.329688 256.52 
L 276.858131 256.52 
" style="fill: none; stroke: #000000; stroke-width: 0.8; stroke-linejoin: miter; stroke-linecap: square"/>
   </g>
   <g id="patch_18">
    <path d="M 52.329688 139.01 
L 276.858131 139.01 
" style="fill: none"/>
   </g>
   <g id="legend_3">
    <g id="patch_19">
     <path d="M 216.837818 161.688125 
L 269.858131 161.688125 
Q 271.858131 161.688125 271.858131 159.688125 
L 271.858131 146.01 
Q 271.858131 144.01 269.858131 144.01 
L 216.837818 144.01 
Q 214.837818 144.01 214.837818 146.01 
L 214.837818 159.688125 
Q 214.837818 161.688125 216.837818 161.688125 
L 216.837818 161.688125 
z
" style="fill: none; opacity: 0"/>
    </g>
    <g id="line2d_129">
     <path d="M 218.837818 152.108437 
L 228.837818 152.108437 
L 238.837818 152.108437 
" style="fill: none; stroke: #2ca02c; stroke-width: 1.5; stroke-linecap: square"/>
    </g>
    <g id="text_19">
     <!-- GLD -->
     <g transform="translate(246.837818 155.608437) scale(0.1 -0.1)">
      <defs>
       <path id="DejaVuSans-47" d="M 3809 666 
L 3809 1919 
L 2778 1919 
L 2778 2438 
L 4434 2438 
L 4434 434 
Q 4069 175 3628 42 
Q 3188 -91 2688 -91 
Q 1594 -91 976 548 
Q 359 1188 359 2328 
Q 359 3472 976 4111 
Q 1594 4750 2688 4750 
Q 3144 4750 3555 4637 
Q 3966 4525 4313 4306 
L 4313 3634 
Q 3963 3931 3569 4081 
Q 3175 4231 2741 4231 
Q 1884 4231 1454 3753 
Q 1025 3275 1025 2328 
Q 1025 1384 1454 906 
Q 1884 428 2741 428 
Q 3075 428 3337 486 
Q 3600 544 3809 666 
z
" transform="scale(0.015625)"/>
       <path id="DejaVuSans-44" d="M 1259 4147 
L 1259 519 
L 2022 519 
Q 2988 519 3436 956 
Q 3884 1394 3884 2338 
Q 3884 3275 3436 3711 
Q 2988 4147 2022 4147 
L 1259 4147 
z
M 628 4666 
L 1925 4666 
Q 3281 4666 3915 4102 
Q 4550 3538 4550 2338 
Q 4550 1131 3912 565 
Q 3275 0 1925 0 
L 628 0 
L 628 4666 
z
" transform="scale(0.015625)"/>
      </defs>
      <use xlink:href="#DejaVuSans-47"/>
      <use xlink:href="#DejaVuSans-4c" transform="translate(77.490234 0)"/>
      <use xlink:href="#DejaVuSans-44" transform="translate(133.203125 0)"/>
     </g>
    </g>
   </g>
  </g>
  <g id="axes_4">
   <g id="patch_20">
    <path d="M 334.929688 256.52 
L 559.458131 256.52 
L 559.458131 139.01 
L 334.929688 139.01 
L 334.929688 256.52 
z
" style="fill: none"/>
   </g>
   <g id="matplotlib.axis_7">
    <g id="xtick_106">
     <g id="line2d_130">
      <g>
       <use xlink:href="#m673361ecb6" x="354.313438" y="256.52" style="stroke: #000000; stroke-width: 0.8"/>
      </g>
     </g>
     <g id="text_20">
      <!-- 1994 -->
      <g transform="translate(341.588438 271.118437) scale(0.1 -0.1)">
       <use xlink:href="#DejaVuSans-31"/>
       <use xlink:href="#DejaVuSans-39" transform="translate(63.623047 0)"/>
       <use xlink:href="#DejaVuSans-39" transform="translate(127.246094 0)"/>
       <use xlink:href="#DejaVuSans-34" transform="translate(190.869141 0)"/>
      </g>
     </g>
    </g>
    <g id="xtick_107">
     <g id="line2d_131">
      <g>
       <use xlink:href="#m673361ecb6" x="386.619689" y="256.52" style="stroke: #000000; stroke-width: 0.8"/>
      </g>
     </g>
     <g id="text_21">
      <!-- 1999 -->
      <g transform="translate(373.894689 271.118437) scale(0.1 -0.1)">
       <use xlink:href="#DejaVuSans-31"/>
       <use xlink:href="#DejaVuSans-39" transform="translate(63.623047 0)"/>
       <use xlink:href="#DejaVuSans-39" transform="translate(127.246094 0)"/>
       <use xlink:href="#DejaVuSans-39" transform="translate(190.869141 0)"/>
      </g>
     </g>
    </g>
    <g id="xtick_108">
     <g id="line2d_132">
      <g>
       <use xlink:href="#m673361ecb6" x="418.92594" y="256.52" style="stroke: #000000; stroke-width: 0.8"/>
      </g>
     </g>
     <g id="text_22">
      <!-- 2004 -->
      <g transform="translate(406.20094 271.118437) scale(0.1 -0.1)">
       <use xlink:href="#DejaVuSans-32"/>
       <use xlink:href="#DejaVuSans-30" transform="translate(63.623047 0)"/>
       <use xlink:href="#DejaVuSans-30" transform="translate(127.246094 0)"/>
       <use xlink:href="#DejaVuSans-34" transform="translate(190.869141 0)"/>
      </g>
     </g>
    </g>
    <g id="xtick_109">
     <g id="line2d_133">
      <g>
       <use xlink:href="#m673361ecb6" x="451.232191" y="256.52" style="stroke: #000000; stroke-width: 0.8"/>
      </g>
     </g>
     <g id="text_23">
      <!-- 2009 -->
      <g transform="translate(438.507191 271.118437) scale(0.1 -0.1)">
       <use xlink:href="#DejaVuSans-32"/>
       <use xlink:href="#DejaVuSans-30" transform="translate(63.623047 0)"/>
       <use xlink:href="#DejaVuSans-30" transform="translate(127.246094 0)"/>
       <use xlink:href="#DejaVuSans-39" transform="translate(190.869141 0)"/>
      </g>
     </g>
    </g>
    <g id="xtick_110">
     <g id="line2d_134">
      <g>
       <use xlink:href="#m673361ecb6" x="483.538441" y="256.52" style="stroke: #000000; stroke-width: 0.8"/>
      </g>
     </g>
     <g id="text_24">
      <!-- 2014 -->
      <g transform="translate(470.813441 271.118437) scale(0.1 -0.1)">
       <use xlink:href="#DejaVuSans-32"/>
       <use xlink:href="#DejaVuSans-30" transform="translate(63.623047 0)"/>
       <use xlink:href="#DejaVuSans-31" transform="translate(127.246094 0)"/>
       <use xlink:href="#DejaVuSans-34" transform="translate(190.869141 0)"/>
      </g>
     </g>
    </g>
    <g id="xtick_111">
     <g id="line2d_135">
      <g>
       <use xlink:href="#m673361ecb6" x="515.844692" y="256.52" style="stroke: #000000; stroke-width: 0.8"/>
      </g>
     </g>
     <g id="text_25">
      <!-- 2019 -->
      <g transform="translate(503.119692 271.118437) scale(0.1 -0.1)">
       <use xlink:href="#DejaVuSans-32"/>
       <use xlink:href="#DejaVuSans-30" transform="translate(63.623047 0)"/>
       <use xlink:href="#DejaVuSans-31" transform="translate(127.246094 0)"/>
       <use xlink:href="#DejaVuSans-39" transform="translate(190.869141 0)"/>
      </g>
     </g>
    </g>
    <g id="xtick_112">
     <g id="line2d_136">
      <g>
       <use xlink:href="#m673361ecb6" x="548.150943" y="256.52" style="stroke: #000000; stroke-width: 0.8"/>
      </g>
     </g>
     <g id="text_26">
      <!-- 2024 -->
      <g transform="translate(535.425943 271.118437) scale(0.1 -0.1)">
       <use xlink:href="#DejaVuSans-32"/>
       <use xlink:href="#DejaVuSans-30" transform="translate(63.623047 0)"/>
       <use xlink:href="#DejaVuSans-32" transform="translate(127.246094 0)"/>
       <use xlink:href="#DejaVuSans-34" transform="translate(190.869141 0)"/>
      </g>
     </g>
    </g>
    <g id="xtick_113">
     <g id="line2d_137">
      <g>
       <use xlink:href="#m8192c94556" x="334.929688" y="256.52" style="stroke: #000000; stroke-width: 0.6"/>
      </g>
     </g>
    </g>
    <g id="xtick_114">
     <g id="line2d_138">
      <g>
       <use xlink:href="#m8192c94556" x="341.390938" y="256.52" style="stroke: #000000; stroke-width: 0.6"/>
      </g>
     </g>
    </g>
    <g id="xtick_115">
     <g id="line2d_139">
      <g>
       <use xlink:href="#m8192c94556" x="347.852188" y="256.52" style="stroke: #000000; stroke-width: 0.6"/>
      </g>
     </g>
    </g>
    <g id="xtick_116">
     <g id="line2d_140">
      <g>
       <use xlink:href="#m8192c94556" x="360.774688" y="256.52" style="stroke: #000000; stroke-width: 0.6"/>
      </g>
     </g>
    </g>
    <g id="xtick_117">
     <g id="line2d_141">
      <g>
       <use xlink:href="#m8192c94556" x="367.235938" y="256.52" style="stroke: #000000; stroke-width: 0.6"/>
      </g>
     </g>
    </g>
    <g id="xtick_118">
     <g id="line2d_142">
      <g>
       <use xlink:href="#m8192c94556" x="373.697189" y="256.52" style="stroke: #000000; stroke-width: 0.6"/>
      </g>
     </g>
    </g>
    <g id="xtick_119">
     <g id="line2d_143">
      <g>
       <use xlink:href="#m8192c94556" x="380.158439" y="256.52" style="stroke: #000000; stroke-width: 0.6"/>
      </g>
     </g>
    </g>
    <g id="xtick_120">
     <g id="line2d_144">
      <g>
       <use xlink:href="#m8192c94556" x="393.080939" y="256.52" style="stroke: #000000; stroke-width: 0.6"/>
      </g>
     </g>
    </g>
    <g id="xtick_121">
     <g id="line2d_145">
      <g>
       <use xlink:href="#m8192c94556" x="399.542189" y="256.52" style="stroke: #000000; stroke-width: 0.6"/>
      </g>
     </g>
    </g>
    <g id="xtick_122">
     <g id="line2d_146">
      <g>
       <use xlink:href="#m8192c94556" x="406.003439" y="256.52" style="stroke: #000000; stroke-width: 0.6"/>
      </g>
     </g>
    </g>
    <g id="xtick_123">
     <g id="line2d_147">
      <g>
       <use xlink:href="#m8192c94556" x="412.46469" y="256.52" style="stroke: #000000; stroke-width: 0.6"/>
      </g>
     </g>
    </g>
    <g id="xtick_124">
     <g id="line2d_148">
      <g>
       <use xlink:href="#m8192c94556" x="425.38719" y="256.52" style="stroke: #000000; stroke-width: 0.6"/>
      </g>
     </g>
    </g>
    <g id="xtick_125">
     <g id="line2d_149">
      <g>
       <use xlink:href="#m8192c94556" x="431.84844" y="256.52" style="stroke: #000000; stroke-width: 0.6"/>
      </g>
     </g>
    </g>
    <g id="xtick_126">
     <g id="line2d_150">
      <g>
       <use xlink:href="#m8192c94556" x="438.30969" y="256.52" style="stroke: #000000; stroke-width: 0.6"/>
      </g>
     </g>
    </g>
    <g id="xtick_127">
     <g id="line2d_151">
      <g>
       <use xlink:href="#m8192c94556" x="444.77094" y="256.52" style="stroke: #000000; stroke-width: 0.6"/>
      </g>
     </g>
    </g>
    <g id="xtick_128">
     <g id="line2d_152">
      <g>
       <use xlink:href="#m8192c94556" x="457.693441" y="256.52" style="stroke: #000000; stroke-width: 0.6"/>
      </g>
     </g>
    </g>
    <g id="xtick_129">
     <g id="line2d_153">
      <g>
       <use xlink:href="#m8192c94556" x="464.154691" y="256.52" style="stroke: #000000; stroke-width: 0.6"/>
      </g>
     </g>
    </g>
    <g id="xtick_130">
     <g id="line2d_154">
      <g>
       <use xlink:href="#m8192c94556" x="470.615941" y="256.52" style="stroke: #000000; stroke-width: 0.6"/>
      </g>
     </g>
    </g>
    <g id="xtick_131">
     <g id="line2d_155">
      <g>
       <use xlink:href="#m8192c94556" x="477.077191" y="256.52" style="stroke: #000000; stroke-width: 0.6"/>
      </g>
     </g>
    </g>
    <g id="xtick_132">
     <g id="line2d_156">
      <g>
       <use xlink:href="#m8192c94556" x="489.999692" y="256.52" style="stroke: #000000; stroke-width: 0.6"/>
      </g>
     </g>
    </g>
    <g id="xtick_133">
     <g id="line2d_157">
      <g>
       <use xlink:href="#m8192c94556" x="496.460942" y="256.52" style="stroke: #000000; stroke-width: 0.6"/>
      </g>
     </g>
    </g>
    <g id="xtick_134">
     <g id="line2d_158">
      <g>
       <use xlink:href="#m8192c94556" x="502.922192" y="256.52" style="stroke: #000000; stroke-width: 0.6"/>
      </g>
     </g>
    </g>
    <g id="xtick_135">
     <g id="line2d_159">
      <g>
       <use xlink:href="#m8192c94556" x="509.383442" y="256.52" style="stroke: #000000; stroke-width: 0.6"/>
      </g>
     </g>
    </g>
    <g id="xtick_136">
     <g id="line2d_160">
      <g>
       <use xlink:href="#m8192c94556" x="522.305942" y="256.52" style="stroke: #000000; stroke-width: 0.6"/>
      </g>
     </g>
    </g>
    <g id="xtick_137">
     <g id="line2d_161">
      <g>
       <use xlink:href="#m8192c94556" x="528.767193" y="256.52" style="stroke: #000000; stroke-width: 0.6"/>
      </g>
     </g>
    </g>
    <g id="xtick_138">
     <g id="line2d_162">
      <g>
       <use xlink:href="#m8192c94556" x="535.228443" y="256.52" style="stroke: #000000; stroke-width: 0.6"/>
      </g>
     </g>
    </g>
    <g id="xtick_139">
     <g id="line2d_163">
      <g>
       <use xlink:href="#m8192c94556" x="541.689693" y="256.52" style="stroke: #000000; stroke-width: 0.6"/>
      </g>
     </g>
    </g>
    <g id="xtick_140">
     <g id="line2d_164">
      <g>
       <use xlink:href="#m8192c94556" x="554.612193" y="256.52" style="stroke: #000000; stroke-width: 0.6"/>
      </g>
     </g>
    </g>
   </g>
   <g id="matplotlib.axis_8">
    <g id="ytick_10">
     <g id="line2d_165">
      <path d="M 334.929688 251.186582 
L 559.458131 251.186582 
" clip-path="url(#p97dfc968f4)" style="fill: none; stroke-dasharray: 2.96,1.28; stroke-dashoffset: 0; stroke: #000000; stroke-opacity: 0.1; stroke-width: 0.8"/>
     </g>
     <g id="line2d_166">
      <g>
       <use xlink:href="#m8ed4e59c68" x="334.929688" y="251.186582" style="stroke: #000000; stroke-width: 0.8"/>
      </g>
     </g>
     <g id="text_27">
      <!-- 0% -->
      <g transform="translate(312.065625 254.985801) scale(0.1 -0.1)">
       <use xlink:href="#DejaVuSans-30"/>
       <use xlink:href="#DejaVuSans-25" transform="translate(63.623047 0)"/>
      </g>
     </g>
    </g>
    <g id="ytick_11">
     <g id="line2d_167">
      <path d="M 334.929688 211.969368 
L 559.458131 211.969368 
" clip-path="url(#p97dfc968f4)" style="fill: none; stroke-dasharray: 2.96,1.28; stroke-dashoffset: 0; stroke: #000000; stroke-opacity: 0.1; stroke-width: 0.8"/>
     </g>
     <g id="line2d_168">
      <g>
       <use xlink:href="#m8ed4e59c68" x="334.929688" y="211.969368" style="stroke: #000000; stroke-width: 0.8"/>
      </g>
     </g>
     <g id="text_28">
      <!-- 1,000% -->
      <g transform="translate(289.8 215.768587) scale(0.1 -0.1)">
       <use xlink:href="#DejaVuSans-31"/>
       <use xlink:href="#DejaVuSans-2c" transform="translate(63.623047 0)"/>
       <use xlink:href="#DejaVuSans-30" transform="translate(95.410156 0)"/>
       <use xlink:href="#DejaVuSans-30" transform="translate(159.033203 0)"/>
       <use xlink:href="#DejaVuSans-30" transform="translate(222.65625 0)"/>
       <use xlink:href="#DejaVuSans-25" transform="translate(286.279297 0)"/>
      </g>
     </g>
    </g>
    <g id="ytick_12">
     <g id="line2d_169">
      <path d="M 334.929688 172.752155 
L 559.458131 172.752155 
" clip-path="url(#p97dfc968f4)" style="fill: none; stroke-dasharray: 2.96,1.28; stroke-dashoffset: 0; stroke: #000000; stroke-opacity: 0.1; stroke-width: 0.8"/>
     </g>
     <g id="line2d_170">
      <g>
       <use xlink:href="#m8ed4e59c68" x="334.929688" y="172.752155" style="stroke: #000000; stroke-width: 0.8"/>
      </g>
     </g>
     <g id="text_29">
      <!-- 2,000% -->
      <g transform="translate(289.8 176.551374) scale(0.1 -0.1)">
       <use xlink:href="#DejaVuSans-32"/>
       <use xlink:href="#DejaVuSans-2c" transform="translate(63.623047 0)"/>
       <use xlink:href="#DejaVuSans-30" transform="translate(95.410156 0)"/>
       <use xlink:href="#DejaVuSans-30" transform="translate(159.033203 0)"/>
       <use xlink:href="#DejaVuSans-30" transform="translate(222.65625 0)"/>
       <use xlink:href="#DejaVuSans-25" transform="translate(286.279297 0)"/>
      </g>
     </g>
    </g>
   </g>
   <g id="line2d_171">
    <path d="M 341.390938 251.157662 
L 342.467813 251.161333 
L 344.083125 251.082837 
L 345.698438 251.084138 
L 348.390625 251.107787 
L 349.4675 251.031457 
L 354.851876 251.137502 
L 355.928751 251.066734 
L 357.544063 250.990512 
L 361.851563 250.890922 
L 367.235938 250.758191 
L 368.851251 250.380845 
L 370.466563 250.397261 
L 371.005001 250.278767 
L 377.466251 250.25266 
L 378.543126 250.154043 
L 380.158439 250.255861 
L 386.619689 250.615014 
L 387.696564 250.614666 
L 388.235001 250.448658 
L 388.773439 250.542941 
L 389.311876 250.335599 
L 390.927189 250.133695 
L 391.465626 250.253346 
L 393.080939 249.90248 
L 395.234689 249.85669 
L 395.773127 249.573654 
L 397.388439 249.632407 
L 399.003752 249.687841 
L 400.080627 249.792229 
L 400.619064 249.804615 
L 401.157502 249.570796 
L 402.772814 249.754321 
L 404.926564 249.782767 
L 406.003439 249.912617 
L 406.541877 249.742129 
L 407.080314 249.361695 
L 408.695627 249.42094 
L 411.926252 249.490974 
L 412.46469 249.211147 
L 413.541565 249.2119 
L 414.080002 249.358127 
L 415.695315 249.311822 
L 416.233752 249.091389 
L 416.77219 249.24447 
L 417.849065 249.001882 
L 418.387502 248.653509 
L 419.464377 248.581268 
L 420.541252 248.378662 
L 421.07969 248.146899 
L 421.618127 248.248139 
L 422.156565 248.205675 
L 422.695002 248.403794 
L 423.23344 248.355196 
L 423.771877 248.13756 
L 424.310315 248.282657 
L 425.38719 248.281325 
L 425.925627 247.895703 
L 426.464065 247.798175 
L 427.002502 247.915651 
L 427.54094 247.917642 
L 428.617815 247.187343 
L 430.233128 247.185401 
L 430.771565 247.442558 
L 431.84844 247.008793 
L 432.386878 247.083369 
L 433.463753 246.67616 
L 434.540628 246.645018 
L 435.079065 246.509724 
L 436.694378 246.688898 
L 437.232815 246.3166 
L 437.771253 246.363268 
L 438.30969 246.528623 
L 440.46344 246.378066 
L 441.540315 246.301494 
L 442.078753 246.457305 
L 443.155628 245.480623 
L 443.694065 245.480668 
L 444.232503 245.184576 
L 445.847815 245.118502 
L 446.92469 243.738071 
L 451.232191 243.847166 
L 451.770628 243.852748 
L 452.309066 243.691864 
L 452.847503 243.838345 
L 453.385941 242.037283 
L 454.462816 241.974241 
L 455.001253 241.939388 
L 455.539691 242.211505 
L 456.078128 241.834943 
L 457.155003 241.587932 
L 457.693441 241.846103 
L 458.231878 241.192586 
L 458.770316 241.12588 
L 459.308753 240.735884 
L 460.385628 240.742529 
L 460.924066 240.235658 
L 461.462503 240.427995 
L 462.000941 239.325536 
L 462.539378 238.939173 
L 463.077816 238.802515 
L 463.616253 237.461322 
L 465.231566 236.099098 
L 465.770003 235.345693 
L 466.308441 235.632903 
L 466.846878 235.685889 
L 467.385316 235.274953 
L 468.462191 235.282135 
L 469.000629 233.620275 
L 469.539066 233.404809 
L 470.077504 233.562807 
L 470.615941 233.074619 
L 471.154379 232.019847 
L 471.692816 232.349562 
L 472.769691 232.394086 
L 473.308129 232.263718 
L 473.846566 231.735696 
L 474.385004 230.261617 
L 474.923441 230.647161 
L 475.461879 230.858723 
L 476.000316 230.621593 
L 476.538754 230.682417 
L 477.077191 229.687323 
L 477.615629 229.993531 
L 478.154066 229.770129 
L 478.692504 229.818071 
L 479.230941 230.071771 
L 479.769379 230.076274 
L 480.307816 228.765893 
L 480.846254 228.507969 
L 481.923129 228.952964 
L 482.461566 229.050315 
L 483.000004 228.784874 
L 483.538441 228.824867 
L 484.076879 227.703797 
L 484.615316 227.712022 
L 485.153754 227.532563 
L 485.692191 227.555574 
L 486.230629 226.939159 
L 489.999692 227.042499 
L 490.538129 225.588912 
L 491.076567 225.81485 
L 491.615004 224.316441 
L 492.153442 224.716023 
L 493.768754 224.739158 
L 494.307192 225.056346 
L 494.845629 225.067497 
L 495.384067 225.501448 
L 496.460942 225.732474 
L 496.999379 226.132163 
L 497.537817 225.28397 
L 498.076254 223.262332 
L 498.614692 223.081126 
L 499.153129 223.029578 
L 499.691567 223.453315 
L 500.230004 223.101427 
L 500.768442 222.347305 
L 501.306879 222.382815 
L 501.845317 221.743343 
L 502.383754 220.785002 
L 502.922192 221.252398 
L 503.460629 221.216138 
L 503.999067 221.545181 
L 504.537504 222.114558 
L 505.61438 222.577181 
L 506.152817 221.39492 
L 506.691255 221.681679 
L 507.76813 220.140611 
L 508.306567 219.87163 
L 508.845005 218.845252 
L 509.383442 218.200361 
L 509.92188 218.200691 
L 510.460317 218.006175 
L 510.998755 216.998763 
L 512.07563 216.671194 
L 512.614067 217.070511 
L 513.152505 216.989038 
L 513.690942 216.148379 
L 515.306255 216.150723 
L 515.844692 213.670328 
L 516.38313 212.565976 
L 516.921567 212.55688 
L 517.460005 211.598359 
L 517.998442 211.624482 
L 518.53688 210.213912 
L 519.075317 210.362967 
L 519.613755 210.379014 
L 520.152192 209.884669 
L 520.69063 209.564741 
L 521.229067 209.456068 
L 521.767505 206.867606 
L 522.305942 207.015327 
L 523.382817 207.020021 
L 523.921255 209.383361 
L 524.459693 203.1548 
L 524.99813 200.536917 
L 525.536568 198.870255 
L 526.075005 196.560377 
L 526.613443 197.30811 
L 527.15188 197.615416 
L 527.690318 197.474814 
L 528.228755 194.384918 
L 528.767193 193.018927 
L 529.30563 187.319932 
L 529.844068 188.124068 
L 530.382505 184.148432 
L 530.920943 182.691894 
L 531.45938 182.581113 
L 531.997818 181.903046 
L 532.536255 182.987384 
L 533.074693 182.689659 
L 533.61313 181.268982 
L 534.151568 181.878145 
L 534.690005 176.989383 
L 535.228443 176.820643 
L 535.76688 173.981672 
L 536.305318 168.050841 
L 536.843755 168.050821 
L 537.382193 165.255326 
L 538.459068 165.339925 
L 538.997505 165.509485 
L 539.535943 165.509508 
L 540.07438 160.369961 
L 540.612818 161.201776 
L 541.689693 161.4386 
L 543.305006 163.59153 
L 543.843443 163.959956 
L 544.381881 162.026393 
L 544.920318 156.437614 
L 545.997193 156.090597 
L 547.074068 156.137756 
L 547.612506 157.157858 
L 548.150943 154.489639 
L 548.689381 153.78132 
L 549.227818 149.761753 
L 549.766256 149.721861 
L 550.304693 150.734456 
L 550.843131 150.147901 
L 551.381568 152.581968 
L 551.920006 154.219527 
L 552.458443 154.396244 
L 552.996881 154.036638 
L 553.535318 154.164499 
L 554.073756 153.86403 
L 554.612193 150.634581 
L 555.150631 151.570538 
L 556.227506 151.566606 
L 556.765943 149.683328 
L 557.304381 148.536442 
L 557.842818 146.002087 
L 558.381256 146.132914 
L 558.919693 145.373315 
L 559.458131 144.351364 
L 559.458131 144.351364 
" clip-path="url(#p97dfc968f4)" style="fill: none; stroke: #d62728; stroke-width: 1.5; stroke-linecap: square"/>
   </g>
   <g id="patch_21">
    <path d="M 334.929688 256.52 
L 334.929688 139.01 
" style="fill: none"/>
   </g>
   <g id="patch_22">
    <path d="M 559.458131 256.52 
L 559.458131 139.01 
" style="fill: none"/>
   </g>
   <g id="patch_23">
    <path d="M 334.929688 256.52 
L 559.458131 256.52 
" style="fill: none; stroke: #000000; stroke-width: 0.8; stroke-linejoin: miter; stroke-linecap: square"/>
   </g>
   <g id="patch_24">
    <path d="M 334.929688 139.01 
L 559.458131 139.01 
" style="fill: none"/>
   </g>
   <g id="legend_4">
    <g id="patch_25">
     <path d="M 341.929688 161.688125 
L 395.775 161.688125 
Q 397.775 161.688125 397.775 159.688125 
L 397.775 146.01 
Q 397.775 144.01 395.775 144.01 
L 341.929688 144.01 
Q 339.929688 144.01 339.929688 146.01 
L 339.929688 159.688125 
Q 339.929688 161.688125 341.929688 161.688125 
L 341.929688 161.688125 
z
" style="fill: none; opacity: 0"/>
    </g>
    <g id="line2d_172">
     <path d="M 343.929688 152.108437 
L 353.929688 152.108437 
L 363.929688 152.108437 
" style="fill: none; stroke: #d62728; stroke-width: 1.5; stroke-linecap: square"/>
    </g>
    <g id="text_30">
     <!-- GSG -->
     <g transform="translate(371.929688 155.608437) scale(0.1 -0.1)">
      <use xlink:href="#DejaVuSans-47"/>
      <use xlink:href="#DejaVuSans-53" transform="translate(77.490234 0)"/>
      <use xlink:href="#DejaVuSans-47" transform="translate(140.966797 0)"/>
     </g>
    </g>
   </g>
  </g>
 </g>
 <defs>
  <clipPath id="p36fdc15fe6">
   <rect x="52.329688" y="7.2" width="224.528443" height="117.51"/>
  </clipPath>
  <clipPath id="p21602b830a">
   <rect x="334.929688" y="7.2" width="224.528443" height="117.51"/>
  </clipPath>
  <clipPath id="pb845244ce7">
   <rect x="52.329688" y="139.01" width="224.528443" height="117.51"/>
  </clipPath>
  <clipPath id="p97dfc968f4">
   <rect x="334.929688" y="139.01" width="224.528443" height="117.51"/>
  </clipPath>
 </defs>
</svg>
