<?xml version="1.0" encoding="utf-8" standalone="no"?>
<!DOCTYPE svg PUBLIC "-//W3C//DTD SVG 1.1//EN"
  "http://www.w3.org/Graphics/SVG/1.1/DTD/svg11.dtd">
<svg xmlns:xlink="http://www.w3.org/1999/xlink" width="568.835pt" height="172.398125pt" viewBox="0 0 568.835 172.398125" xmlns="http://www.w3.org/2000/svg" version="1.1">
 <metadata>
  <rdf:RDF xmlns:dc="http://purl.org/dc/elements/1.1/" xmlns:cc="http://creativecommons.org/ns#" xmlns:rdf="http://www.w3.org/1999/02/22-rdf-syntax-ns#">
   <cc:Work>
    <dc:type rdf:resource="http://purl.org/dc/dcmitype/StillImage"/>
    <dc:date>2025-11-20T08:50:14.103673</dc:date>
    <dc:format>image/svg+xml</dc:format>
    <dc:creator>
     <cc:Agent>
      <dc:title>Matplotlib v3.10.7, https://matplotlib.org/</dc:title>
     </cc:Agent>
    </dc:creator>
   </cc:Work>
  </rdf:RDF>
 </metadata>
 <defs>
  <style type="text/css">*{stroke-linejoin: round; stroke-linecap: butt}</style>
 </defs>
 <g id="figure_1">
  <g id="patch_1">
   <path d="M 0 172.398125 
L 568.835 172.398125 
L 568.835 0 
L 0 0 
L 0 172.398125 
z
" style="fill: none"/>
  </g>
  <g id="axes_1">
   <g id="patch_2">
    <path d="M 26.925 148.52 
L 561.635 148.52 
L 561.635 7.2 
L 26.925 7.2 
L 26.925 148.52 
z
" style="fill: none"/>
   </g>
   <g id="matplotlib.axis_1">
    <g id="xtick_1">
     <g id="line2d_1">
      <defs>
       <path id="m633432a6fa" d="M 0 0 
L 0 3.5 
" style="stroke: #000000; stroke-width: 0.8"/>
      </defs>
      <g>
       <use xlink:href="#m633432a6fa" x="26.925" y="148.52" style="stroke: #000000; stroke-width: 0.8"/>
      </g>
     </g>
     <g id="text_1">
      <!-- 1959 -->
      <g transform="translate(14.2 163.118437) scale(0.1 -0.1)">
       <defs>
        <path id="DejaVuSans-31" d="M 794 531 
L 1825 531 
L 1825 4091 
L 703 3866 
L 703 4441 
L 1819 4666 
L 2450 4666 
L 2450 531 
L 3481 531 
L 3481 0 
L 794 0 
L 794 531 
z
" transform="scale(0.015625)"/>
        <path id="DejaVuSans-39" d="M 703 97 
L 703 672 
Q 941 559 1184 500 
Q 1428 441 1663 441 
Q 2288 441 2617 861 
Q 2947 1281 2994 2138 
Q 2813 1869 2534 1725 
Q 2256 1581 1919 1581 
Q 1219 1581 811 2004 
Q 403 2428 403 3163 
Q 403 3881 828 4315 
Q 1253 4750 1959 4750 
Q 2769 4750 3195 4129 
Q 3622 3509 3622 2328 
Q 3622 1225 3098 567 
Q 2575 -91 1691 -91 
Q 1453 -91 1209 -44 
Q 966 3 703 97 
z
M 1959 2075 
Q 2384 2075 2632 2365 
Q 2881 2656 2881 3163 
Q 2881 3666 2632 3958 
Q 2384 4250 1959 4250 
Q 1534 4250 1286 3958 
Q 1038 3666 1038 3163 
Q 1038 2656 1286 2365 
Q 1534 2075 1959 2075 
z
" transform="scale(0.015625)"/>
        <path id="DejaVuSans-35" d="M 691 4666 
L 3169 4666 
L 3169 4134 
L 1269 4134 
L 1269 2991 
Q 1406 3038 1543 3061 
Q 1681 3084 1819 3084 
Q 2600 3084 3056 2656 
Q 3513 2228 3513 1497 
Q 3513 744 3044 326 
Q 2575 -91 1722 -91 
Q 1428 -91 1123 -41 
Q 819 9 494 109 
L 494 744 
Q 775 591 1075 516 
Q 1375 441 1709 441 
Q 2250 441 2565 725 
Q 2881 1009 2881 1497 
Q 2881 1984 2565 2268 
Q 2250 2553 1709 2553 
Q 1456 2553 1204 2497 
Q 953 2441 691 2322 
L 691 4666 
z
" transform="scale(0.015625)"/>
       </defs>
       <use xlink:href="#DejaVuSans-31"/>
       <use xlink:href="#DejaVuSans-39" transform="translate(63.623047 0)"/>
       <use xlink:href="#DejaVuSans-35" transform="translate(127.246094 0)"/>
       <use xlink:href="#DejaVuSans-39" transform="translate(190.869141 0)"/>
      </g>
     </g>
    </g>
    <g id="xtick_2">
     <g id="line2d_2">
      <g>
       <use xlink:href="#m633432a6fa" x="107.1315" y="148.52" style="stroke: #000000; stroke-width: 0.8"/>
      </g>
     </g>
     <g id="text_2">
      <!-- 1969 -->
      <g transform="translate(94.4065 163.118437) scale(0.1 -0.1)">
       <defs>
        <path id="DejaVuSans-36" d="M 2113 2584 
Q 1688 2584 1439 2293 
Q 1191 2003 1191 1497 
Q 1191 994 1439 701 
Q 1688 409 2113 409 
Q 2538 409 2786 701 
Q 3034 994 3034 1497 
Q 3034 2003 2786 2293 
Q 2538 2584 2113 2584 
z
M 3366 4563 
L 3366 3988 
Q 3128 4100 2886 4159 
Q 2644 4219 2406 4219 
Q 1781 4219 1451 3797 
Q 1122 3375 1075 2522 
Q 1259 2794 1537 2939 
Q 1816 3084 2150 3084 
Q 2853 3084 3261 2657 
Q 3669 2231 3669 1497 
Q 3669 778 3244 343 
Q 2819 -91 2113 -91 
Q 1303 -91 875 529 
Q 447 1150 447 2328 
Q 447 3434 972 4092 
Q 1497 4750 2381 4750 
Q 2619 4750 2861 4703 
Q 3103 4656 3366 4563 
z
" transform="scale(0.015625)"/>
       </defs>
       <use xlink:href="#DejaVuSans-31"/>
       <use xlink:href="#DejaVuSans-39" transform="translate(63.623047 0)"/>
       <use xlink:href="#DejaVuSans-36" transform="translate(127.246094 0)"/>
       <use xlink:href="#DejaVuSans-39" transform="translate(190.869141 0)"/>
      </g>
     </g>
    </g>
    <g id="xtick_3">
     <g id="line2d_3">
      <g>
       <use xlink:href="#m633432a6fa" x="187.338" y="148.52" style="stroke: #000000; stroke-width: 0.8"/>
      </g>
     </g>
     <g id="text_3">
      <!-- 1979 -->
      <g transform="translate(174.613 163.118437) scale(0.1 -0.1)">
       <defs>
        <path id="DejaVuSans-37" d="M 525 4666 
L 3525 4666 
L 3525 4397 
L 1831 0 
L 1172 0 
L 2766 4134 
L 525 4134 
L 525 4666 
z
" transform="scale(0.015625)"/>
       </defs>
       <use xlink:href="#DejaVuSans-31"/>
       <use xlink:href="#DejaVuSans-39" transform="translate(63.623047 0)"/>
       <use xlink:href="#DejaVuSans-37" transform="translate(127.246094 0)"/>
       <use xlink:href="#DejaVuSans-39" transform="translate(190.869141 0)"/>
      </g>
     </g>
    </g>
    <g id="xtick_4">
     <g id="line2d_4">
      <g>
       <use xlink:href="#m633432a6fa" x="267.5445" y="148.52" style="stroke: #000000; stroke-width: 0.8"/>
      </g>
     </g>
     <g id="text_4">
      <!-- 1989 -->
      <g transform="translate(254.8195 163.118437) scale(0.1 -0.1)">
       <defs>
        <path id="DejaVuSans-38" d="M 2034 2216 
Q 1584 2216 1326 1975 
Q 1069 1734 1069 1313 
Q 1069 891 1326 650 
Q 1584 409 2034 409 
Q 2484 409 2743 651 
Q 3003 894 3003 1313 
Q 3003 1734 2745 1975 
Q 2488 2216 2034 2216 
z
M 1403 2484 
Q 997 2584 770 2862 
Q 544 3141 544 3541 
Q 544 4100 942 4425 
Q 1341 4750 2034 4750 
Q 2731 4750 3128 4425 
Q 3525 4100 3525 3541 
Q 3525 3141 3298 2862 
Q 3072 2584 2669 2484 
Q 3125 2378 3379 2068 
Q 3634 1759 3634 1313 
Q 3634 634 3220 271 
Q 2806 -91 2034 -91 
Q 1263 -91 848 271 
Q 434 634 434 1313 
Q 434 1759 690 2068 
Q 947 2378 1403 2484 
z
M 1172 3481 
Q 1172 3119 1398 2916 
Q 1625 2713 2034 2713 
Q 2441 2713 2670 2916 
Q 2900 3119 2900 3481 
Q 2900 3844 2670 4047 
Q 2441 4250 2034 4250 
Q 1625 4250 1398 4047 
Q 1172 3844 1172 3481 
z
" transform="scale(0.015625)"/>
       </defs>
       <use xlink:href="#DejaVuSans-31"/>
       <use xlink:href="#DejaVuSans-39" transform="translate(63.623047 0)"/>
       <use xlink:href="#DejaVuSans-38" transform="translate(127.246094 0)"/>
       <use xlink:href="#DejaVuSans-39" transform="translate(190.869141 0)"/>
      </g>
     </g>
    </g>
    <g id="xtick_5">
     <g id="line2d_5">
      <g>
       <use xlink:href="#m633432a6fa" x="347.751" y="148.52" style="stroke: #000000; stroke-width: 0.8"/>
      </g>
     </g>
     <g id="text_5">
      <!-- 1999 -->
      <g transform="translate(335.026 163.118437) scale(0.1 -0.1)">
       <use xlink:href="#DejaVuSans-31"/>
       <use xlink:href="#DejaVuSans-39" transform="translate(63.623047 0)"/>
       <use xlink:href="#DejaVuSans-39" transform="translate(127.246094 0)"/>
       <use xlink:href="#DejaVuSans-39" transform="translate(190.869141 0)"/>
      </g>
     </g>
    </g>
    <g id="xtick_6">
     <g id="line2d_6">
      <g>
       <use xlink:href="#m633432a6fa" x="427.9575" y="148.52" style="stroke: #000000; stroke-width: 0.8"/>
      </g>
     </g>
     <g id="text_6">
      <!-- 2009 -->
      <g transform="translate(415.2325 163.118437) scale(0.1 -0.1)">
       <defs>
        <path id="DejaVuSans-32" d="M 1228 531 
L 3431 531 
L 3431 0 
L 469 0 
L 469 531 
Q 828 903 1448 1529 
Q 2069 2156 2228 2338 
Q 2531 2678 2651 2914 
Q 2772 3150 2772 3378 
Q 2772 3750 2511 3984 
Q 2250 4219 1831 4219 
Q 1534 4219 1204 4116 
Q 875 4013 500 3803 
L 500 4441 
Q 881 4594 1212 4672 
Q 1544 4750 1819 4750 
Q 2544 4750 2975 4387 
Q 3406 4025 3406 3419 
Q 3406 3131 3298 2873 
Q 3191 2616 2906 2266 
Q 2828 2175 2409 1742 
Q 1991 1309 1228 531 
z
" transform="scale(0.015625)"/>
        <path id="DejaVuSans-30" d="M 2034 4250 
Q 1547 4250 1301 3770 
Q 1056 3291 1056 2328 
Q 1056 1369 1301 889 
Q 1547 409 2034 409 
Q 2525 409 2770 889 
Q 3016 1369 3016 2328 
Q 3016 3291 2770 3770 
Q 2525 4250 2034 4250 
z
M 2034 4750 
Q 2819 4750 3233 4129 
Q 3647 3509 3647 2328 
Q 3647 1150 3233 529 
Q 2819 -91 2034 -91 
Q 1250 -91 836 529 
Q 422 1150 422 2328 
Q 422 3509 836 4129 
Q 1250 4750 2034 4750 
z
" transform="scale(0.015625)"/>
       </defs>
       <use xlink:href="#DejaVuSans-32"/>
       <use xlink:href="#DejaVuSans-30" transform="translate(63.623047 0)"/>
       <use xlink:href="#DejaVuSans-30" transform="translate(127.246094 0)"/>
       <use xlink:href="#DejaVuSans-39" transform="translate(190.869141 0)"/>
      </g>
     </g>
    </g>
    <g id="xtick_7">
     <g id="line2d_7">
      <g>
       <use xlink:href="#m633432a6fa" x="508.164" y="148.52" style="stroke: #000000; stroke-width: 0.8"/>
      </g>
     </g>
     <g id="text_7">
      <!-- 2019 -->
      <g transform="translate(495.439 163.118437) scale(0.1 -0.1)">
       <use xlink:href="#DejaVuSans-32"/>
       <use xlink:href="#DejaVuSans-30" transform="translate(63.623047 0)"/>
       <use xlink:href="#DejaVuSans-31" transform="translate(127.246094 0)"/>
       <use xlink:href="#DejaVuSans-39" transform="translate(190.869141 0)"/>
      </g>
     </g>
    </g>
    <g id="xtick_8">
     <g id="line2d_8">
      <defs>
       <path id="m7c18f5c025" d="M 0 0 
L 0 2 
" style="stroke: #000000; stroke-width: 0.6"/>
      </defs>
      <g>
       <use xlink:href="#m7c18f5c025" x="67.02825" y="148.52" style="stroke: #000000; stroke-width: 0.6"/>
      </g>
     </g>
    </g>
    <g id="xtick_9">
     <g id="line2d_9">
      <g>
       <use xlink:href="#m7c18f5c025" x="147.23475" y="148.52" style="stroke: #000000; stroke-width: 0.6"/>
      </g>
     </g>
    </g>
    <g id="xtick_10">
     <g id="line2d_10">
      <g>
       <use xlink:href="#m7c18f5c025" x="227.44125" y="148.52" style="stroke: #000000; stroke-width: 0.6"/>
      </g>
     </g>
    </g>
    <g id="xtick_11">
     <g id="line2d_11">
      <g>
       <use xlink:href="#m7c18f5c025" x="307.64775" y="148.52" style="stroke: #000000; stroke-width: 0.6"/>
      </g>
     </g>
    </g>
    <g id="xtick_12">
     <g id="line2d_12">
      <g>
       <use xlink:href="#m7c18f5c025" x="387.85425" y="148.52" style="stroke: #000000; stroke-width: 0.6"/>
      </g>
     </g>
    </g>
    <g id="xtick_13">
     <g id="line2d_13">
      <g>
       <use xlink:href="#m7c18f5c025" x="468.06075" y="148.52" style="stroke: #000000; stroke-width: 0.6"/>
      </g>
     </g>
    </g>
    <g id="xtick_14">
     <g id="line2d_14">
      <g>
       <use xlink:href="#m7c18f5c025" x="548.26725" y="148.52" style="stroke: #000000; stroke-width: 0.6"/>
      </g>
     </g>
    </g>
   </g>
   <g id="matplotlib.axis_2">
    <g id="ytick_1">
     <g id="line2d_15">
      <path d="M 26.925 142.481705 
L 561.635 142.481705 
" clip-path="url(#pa05ff366bb)" style="fill: none; stroke-dasharray: 2.96,1.28; stroke-dashoffset: 0; stroke: #dddddd; stroke-width: 0.8"/>
     </g>
     <g id="line2d_16">
      <defs>
       <path id="m48b20e8849" d="M 0 0 
L -3.5 0 
" style="stroke: #bbbbbb; stroke-width: 0.8"/>
      </defs>
      <g>
       <use xlink:href="#m48b20e8849" x="26.925" y="142.481705" style="fill: #bbbbbb; stroke: #bbbbbb; stroke-width: 0.8"/>
      </g>
     </g>
     <g id="text_8">
      <!-- 0 -->
      <g style="fill: #bbbbbb" transform="translate(13.5625 146.280923) scale(0.1 -0.1)">
       <use xlink:href="#DejaVuSans-30"/>
      </g>
     </g>
    </g>
    <g id="ytick_2">
     <g id="line2d_17">
      <path d="M 26.925 103.947593 
L 561.635 103.947593 
" clip-path="url(#pa05ff366bb)" style="fill: none; stroke-dasharray: 2.96,1.28; stroke-dashoffset: 0; stroke: #dddddd; stroke-width: 0.8"/>
     </g>
     <g id="line2d_18">
      <g>
       <use xlink:href="#m48b20e8849" x="26.925" y="103.947593" style="fill: #bbbbbb; stroke: #bbbbbb; stroke-width: 0.8"/>
      </g>
     </g>
     <g id="text_9">
      <!-- 5 -->
      <g style="fill: #bbbbbb" transform="translate(13.5625 107.746812) scale(0.1 -0.1)">
       <use xlink:href="#DejaVuSans-35"/>
      </g>
     </g>
    </g>
    <g id="ytick_3">
     <g id="line2d_19">
      <path d="M 26.925 65.413482 
L 561.635 65.413482 
" clip-path="url(#pa05ff366bb)" style="fill: none; stroke-dasharray: 2.96,1.28; stroke-dashoffset: 0; stroke: #dddddd; stroke-width: 0.8"/>
     </g>
     <g id="line2d_20">
      <g>
       <use xlink:href="#m48b20e8849" x="26.925" y="65.413482" style="fill: #bbbbbb; stroke: #bbbbbb; stroke-width: 0.8"/>
      </g>
     </g>
     <g id="text_10">
      <!-- 10 -->
      <g style="fill: #bbbbbb" transform="translate(7.2 69.212701) scale(0.1 -0.1)">
       <use xlink:href="#DejaVuSans-31"/>
       <use xlink:href="#DejaVuSans-30" transform="translate(63.623047 0)"/>
      </g>
     </g>
    </g>
    <g id="ytick_4">
     <g id="line2d_21">
      <path d="M 26.925 26.879371 
L 561.635 26.879371 
" clip-path="url(#pa05ff366bb)" style="fill: none; stroke-dasharray: 2.96,1.28; stroke-dashoffset: 0; stroke: #dddddd; stroke-width: 0.8"/>
     </g>
     <g id="line2d_22">
      <g>
       <use xlink:href="#m48b20e8849" x="26.925" y="26.879371" style="fill: #bbbbbb; stroke: #bbbbbb; stroke-width: 0.8"/>
      </g>
     </g>
     <g id="text_11">
      <!-- 15 -->
      <g style="fill: #bbbbbb" transform="translate(7.2 30.678589) scale(0.1 -0.1)">
       <use xlink:href="#DejaVuSans-31"/>
       <use xlink:href="#DejaVuSans-35" transform="translate(63.623047 0)"/>
      </g>
     </g>
    </g>
   </g>
   <g id="line2d_23">
    <path d="M 26.925 111.500279 
L 27.593388 111.962689 
L 28.261775 111.731484 
L 28.930163 110.729597 
L 29.59855 109.265301 
L 30.266938 109.034096 
L 30.935325 108.571687 
L 31.603713 108.340482 
L 32.2721 106.413777 
L 32.940488 107.5698 
L 33.608875 107.5698 
L 34.277263 106.336708 
L 34.94565 106.105504 
L 36.282425 109.72771 
L 36.950813 109.496505 
L 37.6192 108.957028 
L 38.287588 110.498392 
L 38.955975 112.425098 
L 39.624363 113.19578 
L 40.29275 113.19578 
L 40.961138 112.502166 
L 41.629525 112.193893 
L 42.297913 112.887507 
L 42.9663 112.887507 
L 43.634688 113.349917 
L 44.303075 113.658189 
L 44.971463 113.349917 
L 45.63985 113.889394 
L 46.308238 112.579234 
L 46.976625 112.270961 
L 47.645013 111.346143 
L 48.981788 112.270961 
L 49.650175 112.116825 
L 50.318563 111.192006 
L 50.98695 111.03787 
L 51.655338 111.346143 
L 52.992113 112.887507 
L 54.328888 112.34803 
L 54.997275 111.577347 
L 55.665663 111.808552 
L 56.33405 111.808552 
L 57.002438 112.193893 
L 57.670825 112.270961 
L 58.339213 112.733371 
L 59.0076 112.964575 
L 59.675988 112.270961 
L 60.344375 112.193893 
L 61.012763 111.88562 
L 61.68115 112.193893 
L 62.349538 111.731484 
L 63.017925 111.500279 
L 63.686313 111.654416 
L 64.3547 111.03787 
L 65.023088 110.806665 
L 66.359863 110.652529 
L 67.02825 110.344256 
L 67.696638 110.498392 
L 68.365025 109.958915 
L 69.033413 109.881847 
L 70.370188 110.344256 
L 71.038575 110.190119 
L 73.043738 110.190119 
L 73.712125 110.498392 
L 74.380513 110.267188 
L 76.385675 110.035983 
L 77.054063 110.113051 
L 78.390838 110.035983 
L 79.059225 110.113051 
L 81.064388 108.957028 
L 81.732775 108.186346 
L 82.401163 106.876186 
L 83.06955 106.953254 
L 83.737938 105.257753 
L 84.406325 104.94948 
L 85.074713 105.874299 
L 86.411488 105.41189 
L 87.748263 102.252092 
L 88.41665 102.560365 
L 89.085038 103.870525 
L 89.753425 102.714502 
L 90.421813 105.180685 
L 91.0902 107.184459 
L 91.758588 106.799118 
L 92.426975 107.492732 
L 93.095363 107.107391 
L 93.76375 105.103617 
L 95.100525 102.714502 
L 95.768913 101.789683 
L 96.4373 101.635547 
L 97.105688 100.248319 
L 97.774075 98.167477 
L 98.442463 98.552818 
L 99.11085 99.862978 
L 99.779238 99.631773 
L 100.447625 98.244545 
L 101.116013 99.015227 
L 101.7844 97.242658 
L 102.452788 98.398681 
L 103.121175 100.094182 
L 103.789563 100.710728 
L 104.45795 100.402455 
L 105.794725 98.552818 
L 106.463113 96.009566 
L 107.1315 95.932498 
L 107.799888 94.776475 
L 108.468275 93.928724 
L 109.136662 94.930611 
L 109.80505 93.774588 
L 110.473438 91.847882 
L 111.141825 90.691859 
L 111.810213 90.923064 
L 112.4786 87.300857 
L 113.146988 87.763267 
L 113.815375 87.454994 
L 114.483763 83.524514 
L 115.15215 82.445559 
L 115.820538 86.684312 
L 116.488925 87.994471 
L 117.157313 85.528288 
L 117.8257 81.520741 
L 118.494088 82.060218 
L 119.162475 84.988811 
L 119.830863 84.449333 
L 120.49925 85.528288 
L 121.167638 85.990697 
L 122.504413 93.23511 
L 123.841188 95.393021 
L 124.509575 98.552818 
L 125.177963 97.550931 
L 125.84635 93.23511 
L 126.514738 92.233224 
L 127.183125 90.614791 
L 127.851512 91.770814 
L 128.5199 95.161816 
L 129.188288 96.780249 
L 129.856675 97.705067 
L 130.525062 96.780249 
L 131.19345 96.626112 
L 131.861838 95.624225 
L 132.530225 95.701294 
L 133.198612 94.776475 
L 133.867 95.238884 
L 134.535388 95.393021 
L 135.203775 95.393021 
L 135.872163 94.622338 
L 136.54055 92.002019 
L 137.208937 92.541496 
L 137.877325 94.082861 
L 138.545713 93.466315 
L 139.2141 92.695633 
L 139.882487 91.308405 
L 140.550875 90.768927 
L 141.219263 91.0772 
L 141.88765 89.689972 
L 142.556038 89.304631 
L 143.892812 85.45122 
L 145.229588 90.152382 
L 145.897975 90.614791 
L 146.566362 90.537723 
L 147.23475 88.611017 
L 147.903138 88.842222 
L 148.571525 86.915516 
L 149.239913 84.603469 
L 149.9083 84.063992 
L 150.576687 84.372265 
L 151.913463 80.518854 
L 152.58185 80.518854 
L 153.250237 81.597809 
L 154.587013 85.220015 
L 155.2554 84.680538 
L 155.923788 85.528288 
L 156.592175 82.907969 
L 157.260562 79.054557 
L 158.597338 81.906082 
L 159.265725 80.364717 
L 159.934112 77.744398 
L 160.6025 77.513193 
L 161.270888 79.748171 
L 161.939275 80.441785 
L 162.607663 80.827127 
L 163.27605 82.8309 
L 163.944437 82.445559 
L 164.612825 82.907969 
L 165.281213 84.218128 
L 165.9496 81.597809 
L 167.954763 82.599696 
L 169.291538 85.374152 
L 169.959925 86.29897 
L 170.628312 89.535836 
L 171.2967 86.915516 
L 171.965087 85.528288 
L 172.633475 84.988811 
L 173.301862 85.682425 
L 173.97025 84.988811 
L 174.638638 86.376039 
L 175.307025 85.990697 
L 175.975413 85.45122 
L 176.6438 85.913629 
L 177.312187 84.526401 
L 177.980575 84.063992 
L 178.648962 83.216241 
L 179.31735 81.135399 
L 179.985737 80.595922 
L 180.654125 80.518854 
L 181.322513 79.671103 
L 181.9909 78.129739 
L 182.659288 77.281988 
L 183.327675 75.89476 
L 183.996062 77.667329 
L 184.66445 77.590261 
L 185.332837 75.89476 
L 186.669612 73.043236 
L 187.338 72.349622 
L 188.006388 72.349622 
L 188.674775 72.195486 
L 190.01155 71.193599 
L 190.679937 73.813918 
L 191.348325 73.505645 
L 192.016712 72.8891 
L 192.6851 70.577053 
L 193.353487 63.101435 
L 194.021875 60.404048 
L 194.690262 62.407821 
L 195.35865 59.248024 
L 196.027038 46.84004 
L 196.695425 44.219721 
L 198.0322 64.026254 
L 198.700587 67.108983 
L 199.368975 63.486776 
L 200.037363 56.935978 
L 200.70575 53.77618 
L 201.374137 51.926543 
L 202.042525 44.759198 
L 202.710913 43.526107 
L 203.3793 45.606949 
L 204.047687 40.828719 
L 204.716075 41.368197 
L 205.384462 37.052376 
L 206.05285 33.815511 
L 206.721238 38.670809 
L 207.389625 32.428283 
L 208.058012 27.34178 
L 208.7264 24.413188 
L 209.394788 25.723347 
L 210.063175 39.287355 
L 210.731562 36.744103 
L 211.39995 30.039168 
L 212.068337 31.272259 
L 212.736725 35.665148 
L 213.405112 35.58808 
L 214.0735 37.514785 
L 214.741887 32.274146 
L 215.410275 34.971534 
L 216.078663 41.830606 
L 216.74705 47.379518 
L 217.415437 58.400274 
L 218.083825 61.17473 
L 218.752212 61.251798 
L 219.4206 61.868344 
L 220.088987 59.86457 
L 220.757375 61.483003 
L 221.425762 62.330753 
L 222.09415 62.48489 
L 224.099312 51.155861 
L 224.7677 52.697225 
L 225.436087 53.544976 
L 226.772862 51.309997 
L 227.44125 52.543089 
L 228.109637 51.232929 
L 228.778025 47.533654 
L 229.446413 45.144539 
L 230.1148 39.133218 
L 230.783187 37.977195 
L 231.451575 39.518559 
L 232.119962 44.450925 
L 232.78835 45.99229 
L 233.456737 48.766746 
L 234.125125 53.313771 
L 234.793512 53.853249 
L 235.4619 54.778067 
L 236.130288 53.77618 
L 236.798675 51.078793 
L 237.467062 54.392726 
L 238.13545 58.862683 
L 238.803837 64.18039 
L 239.472225 63.024367 
L 240.140612 62.870231 
L 240.809 62.561958 
L 241.477387 63.563845 
L 242.814163 71.116531 
L 243.48255 71.656008 
L 244.150937 75.432351 
L 244.819325 82.522627 
L 245.487712 86.221902 
L 246.1561 83.062105 
L 246.824487 82.368491 
L 247.492875 86.221902 
L 248.161262 87.223789 
L 248.82965 85.065879 
L 249.498037 85.220015 
L 250.166425 86.607243 
L 250.834812 87.686198 
L 251.5032 87.917403 
L 252.171587 86.607243 
L 252.839975 86.607243 
L 253.508362 80.67299 
L 254.17675 76.125965 
L 254.845137 77.744398 
L 255.513525 77.359057 
L 256.181912 74.969942 
L 256.8503 69.883439 
L 257.518687 69.112757 
L 258.187075 74.199259 
L 258.855462 73.197373 
L 259.52385 75.663556 
L 260.192237 79.208694 
L 260.860625 77.975602 
L 262.1974 72.42669 
L 262.865788 73.73685 
L 263.534175 72.657895 
L 264.202562 71.116531 
L 264.87095 73.274441 
L 265.539337 74.661669 
L 266.876112 72.272554 
L 267.5445 72.42669 
L 268.212887 71.810145 
L 268.881275 70.345848 
L 269.549662 71.733076 
L 270.21805 74.199259 
L 270.886437 78.669216 
L 271.554825 80.67299 
L 272.8916 79.36283 
L 273.559987 80.750058 
L 274.228375 81.829013 
L 274.896763 82.060218 
L 275.56515 79.208694 
L 276.233538 77.20492 
L 276.901925 76.280101 
L 277.570312 74.738737 
L 278.2387 74.969942 
L 278.907087 77.127852 
L 279.575475 77.20492 
L 280.243862 75.04701 
L 280.91225 73.968055 
L 281.580637 75.278215 
L 282.917412 80.210581 
L 283.5858 80.133513 
L 284.254187 81.98315 
L 284.922575 79.979376 
L 285.590962 80.518854 
L 286.25935 80.287649 
L 286.927737 78.669216 
L 287.596125 78.746285 
L 288.264513 81.597809 
L 288.9329 83.524514 
L 290.269675 85.297083 
L 290.938063 87.840335 
L 291.60645 88.302744 
L 292.274837 85.913629 
L 292.943225 84.372265 
L 293.611612 84.834674 
L 294.28 85.528288 
L 294.948387 86.530175 
L 295.616775 89.76704 
L 296.285162 91.693746 
L 296.95355 93.003906 
L 297.621937 91.693746 
L 298.290325 89.535836 
L 298.958712 90.306518 
L 299.6271 91.616678 
L 300.295487 94.236997 
L 300.963875 96.394908 
L 301.632262 96.471976 
L 302.30065 95.932498 
L 302.969038 96.549044 
L 304.305813 98.706954 
L 304.9742 101.173137 
L 305.642587 101.404342 
L 306.310975 98.398681 
L 306.979362 98.01334 
L 307.64775 98.167477 
L 308.316137 96.471976 
L 309.652912 88.765154 
L 310.3213 87.146721 
L 310.989687 87.763267 
L 311.658075 86.221902 
L 312.326462 86.684312 
L 312.99485 84.988811 
L 313.663237 82.8309 
L 314.331625 81.135399 
L 315.000012 82.291423 
L 315.6684 82.522627 
L 317.005175 86.992584 
L 317.673563 88.07154 
L 319.010337 94.930611 
L 319.678725 94.082861 
L 320.347112 92.464428 
L 321.0155 94.699407 
L 321.683887 95.932498 
L 322.352275 96.780249 
L 323.020662 98.47575 
L 323.68905 98.938159 
L 324.357437 97.705067 
L 325.025825 94.159929 
L 326.3626 90.537723 
L 327.030987 89.227563 
L 327.699375 89.535836 
L 328.367762 91.308405 
L 329.03615 89.844109 
L 330.372925 94.699407 
L 331.041313 93.928724 
L 331.7097 91.770814 
L 332.378087 93.003906 
L 333.046475 90.923064 
L 333.714862 89.381699 
L 334.38325 90.768927 
L 335.051637 92.464428 
L 335.720025 94.54527 
L 336.388412 93.928724 
L 337.0568 94.622338 
L 338.393575 97.16559 
L 339.061962 97.705067 
L 339.73035 99.785909 
L 340.398737 99.554705 
L 341.067125 98.938159 
L 341.735512 99.015227 
L 342.4039 98.938159 
L 343.072288 100.094182 
L 343.740675 100.402455 
L 344.409063 101.327274 
L 345.07745 105.41189 
L 345.745837 107.5698 
L 346.414225 105.257753 
L 347.082612 106.644981 
L 347.751 106.105504 
L 348.419387 103.947593 
L 349.087775 102.175024 
L 349.756162 102.560365 
L 351.092937 97.011453 
L 351.761325 97.859204 
L 352.429712 96.70318 
L 353.0981 96.857317 
L 353.766487 95.393021 
L 354.434875 96.009566 
L 355.103262 94.082861 
L 355.77165 91.154268 
L 356.440038 92.233224 
L 357.776813 96.317839 
L 358.4452 92.849769 
L 359.113587 95.470089 
L 359.781975 95.85543 
L 360.450362 97.550931 
L 361.11875 97.782136 
L 361.787137 98.244545 
L 362.455525 98.398681 
L 363.123912 102.097956 
L 363.7923 102.714502 
L 364.460687 103.176911 
L 365.129075 104.795344 
L 366.46585 100.941933 
L 367.134237 101.789683 
L 367.802625 102.097956 
L 369.1394 106.028435 
L 369.807787 107.261527 
L 370.476175 106.644981 
L 371.144563 103.253979 
L 371.81295 103.63932 
L 372.481337 104.641207 
L 373.149725 101.789683 
L 373.818112 102.329161 
L 374.4865 102.714502 
L 375.154887 104.487071 
L 375.823275 106.644981 
L 377.16005 112.656303 
L 377.828437 112.116825 
L 378.496825 111.269075 
L 379.165212 111.423211 
L 379.8336 111.269075 
L 380.501987 112.425098 
L 381.170375 113.118712 
L 381.838762 111.962689 
L 382.50715 114.968349 
L 383.175537 116.817987 
L 383.843925 111.808552 
L 384.512312 108.186346 
L 385.1807 109.573574 
L 386.517475 109.342369 
L 387.185862 109.573574 
L 387.85425 110.498392 
L 388.522637 111.03787 
L 389.191025 112.964575 
L 389.859412 108.957028 
L 390.5278 106.105504 
L 391.196187 106.028435 
L 392.532962 109.496505 
L 393.20135 110.652529 
L 393.869737 110.883733 
L 394.538125 110.190119 
L 395.206512 109.881847 
L 395.8749 109.958915 
L 396.543287 110.344256 
L 397.211675 107.801005 
L 397.880062 109.034096 
L 398.54845 110.575461 
L 399.216837 111.654416 
L 399.885225 110.267188 
L 400.553612 109.650642 
L 401.222 110.113051 
L 401.890387 108.109277 
L 402.558775 107.492732 
L 403.227162 108.032209 
L 403.89555 108.41755 
L 405.232325 106.105504 
L 405.900712 104.024662 
L 406.5691 103.099843 
L 407.237487 103.099843 
L 407.905875 103.253979 
L 408.574262 104.872412 
L 409.24265 106.105504 
L 409.911037 106.028435 
L 410.579425 107.030322 
L 411.247812 107.338595 
L 411.9162 105.797231 
L 412.584587 106.105504 
L 413.252975 107.338595 
L 413.921362 106.336708 
L 414.58975 105.874299 
L 415.258137 103.176911 
L 415.926525 103.947593 
L 416.594912 106.490845 
L 417.2633 107.646868 
L 417.931687 107.5698 
L 418.600075 110.498392 
L 419.268462 110.883733 
L 419.93685 113.658189 
L 420.605237 113.658189 
L 421.273625 115.430759 
L 422.6104 112.579234 
L 423.278787 110.883733 
L 423.947175 111.577347 
L 424.615562 112.502166 
L 425.28395 114.043531 
L 425.952337 113.118712 
L 426.620725 115.276622 
L 427.289112 123.831195 
L 427.9575 123.060513 
L 428.625887 120.363125 
L 429.294275 120.748466 
L 429.962662 119.900715 
L 430.63105 117.126259 
L 431.299437 113.812326 
L 431.967825 115.045417 
L 432.636212 114.814213 
L 433.3046 116.278509 
L 433.972987 116.355577 
L 434.641375 116.278509 
L 435.309762 114.814213 
L 435.97815 113.735258 
L 436.646537 114.043531 
L 437.314925 113.735258 
L 437.983312 112.810439 
L 438.6517 116.124373 
L 439.988475 119.28417 
L 440.656862 121.673285 
L 441.32525 122.058626 
L 441.993637 122.906376 
L 442.662025 121.210875 
L 443.330412 117.126259 
L 443.9988 116.355577 
L 444.667187 114.891281 
L 445.335575 116.201441 
L 446.003962 115.8161 
L 446.67235 118.051078 
L 447.340737 119.361238 
L 448.009125 119.361238 
L 448.677512 124.756014 
L 449.3459 127.222197 
L 450.014287 125.912037 
L 450.682675 126.990992 
L 451.351062 127.222197 
L 452.687837 127.299265 
L 453.356225 125.7579 
L 454.024612 126.682719 
L 454.693 128.609425 
L 455.361387 129.996653 
L 456.029775 130.690267 
L 456.698162 129.534243 
L 458.034937 128.994766 
L 458.703325 129.765448 
L 459.371712 129.22597 
L 460.0401 127.761674 
L 460.708487 127.222197 
L 461.376875 127.376333 
L 462.045262 128.917698 
L 462.71365 127.607538 
L 463.382037 124.756014 
L 464.050425 122.598103 
L 464.718812 121.365012 
L 465.3872 120.825534 
L 466.055587 122.28983 
L 466.723975 121.519148 
L 467.392362 120.13192 
L 468.06075 120.440193 
L 468.729137 121.596216 
L 469.397525 121.519148 
L 470.065912 121.596216 
L 470.7343 122.75224 
L 471.402687 122.443967 
L 472.071075 122.906376 
L 472.739462 123.831195 
L 473.40785 122.983444 
L 474.076237 124.756014 
L 474.744625 124.524809 
L 475.413012 125.449628 
L 476.0814 127.992879 
L 476.749787 127.222197 
L 477.418175 126.759787 
L 478.086562 127.53047 
L 478.75495 125.526696 
L 479.423337 124.293604 
L 480.091725 124.601877 
L 480.760112 125.7579 
L 481.4285 125.7579 
L 482.096887 126.528583 
L 482.765275 125.064286 
L 483.433662 125.218423 
L 484.10205 126.374446 
L 484.770437 128.763561 
L 485.438825 127.915811 
L 486.107212 128.532356 
L 486.7756 128.532356 
L 488.112375 130.921471 
L 489.44915 129.919584 
L 490.117537 128.917698 
L 491.454312 123.291717 
L 492.1227 123.754127 
L 492.791087 123.831195 
L 493.459475 123.368786 
L 494.127862 124.756014 
L 494.79625 124.756014 
L 495.464637 125.603764 
L 496.133025 124.601877 
L 496.801412 125.449628 
L 497.4698 125.526696 
L 498.138187 124.293604 
L 498.806575 124.370672 
L 499.474962 123.985331 
L 500.14335 122.598103 
L 500.811737 120.440193 
L 501.480125 120.594329 
L 502.148512 120.363125 
L 502.8169 119.515374 
L 503.485287 120.054852 
L 504.153675 120.208988 
L 504.822062 120.208988 
L 505.49045 119.361238 
L 506.158837 118.205215 
L 506.827225 118.436419 
L 507.495612 120.671398 
L 508.164 121.596216 
L 508.832387 121.827421 
L 509.500775 122.675172 
L 510.169162 122.983444 
L 510.83755 123.985331 
L 511.505937 126.528583 
L 512.174325 126.605651 
L 512.842712 129.919584 
L 513.5111 129.380107 
L 514.179487 129.303039 
L 514.847875 128.532356 
L 515.516262 128.147015 
L 516.18465 128.917698 
L 516.853038 130.921471 
L 517.521425 135.776769 
L 518.189813 137.395202 
L 518.8582 137.318134 
L 519.526588 136.855724 
L 520.194975 137.703475 
L 521.53175 137.241066 
L 522.200137 136.393315 
L 522.868525 135.776769 
L 523.536912 135.31436 
L 524.2053 134.158337 
L 524.873687 132.771109 
L 525.542075 130.073721 
L 526.210462 129.842516 
L 526.87885 129.996653 
L 527.547237 130.767335 
L 528.215625 132.308699 
L 528.884012 132.616972 
L 529.5524 131.923358 
L 530.220787 130.304926 
L 530.889175 130.459062 
L 531.557562 131.152676 
L 532.22595 128.917698 
L 533.562725 126.066173 
L 534.231112 121.287944 
L 534.8995 120.13192 
L 535.567887 118.282283 
L 536.236275 120.13192 
L 536.904662 120.13192 
L 537.57305 115.35369 
L 538.241437 111.808552 
L 538.909825 112.502166 
L 539.578212 114.583008 
L 540.2466 115.276622 
L 540.914987 113.581121 
L 541.583375 114.274735 
L 542.251762 115.8161 
L 542.92015 114.968349 
L 544.256925 112.425098 
L 544.925313 110.344256 
L 545.5937 108.725823 
L 546.262088 105.488958 
L 546.930475 107.801005 
L 547.598862 111.500279 
L 548.26725 111.192006 
L 548.935637 110.035983 
L 549.604025 110.035983 
L 550.272412 107.492732 
L 550.9408 107.955141 
L 551.609187 109.265301 
L 552.277575 109.72771 
L 552.945962 112.656303 
L 553.61435 113.812326 
L 554.282737 110.883733 
L 554.951125 108.87996 
L 555.619512 108.648755 
L 556.2879 106.799118 
L 557.624675 109.496505 
L 558.293062 109.496505 
L 558.96145 108.41755 
L 559.629837 108.725823 
L 560.298225 108.648755 
L 561.635 110.729597 
L 561.635 110.729597 
" clip-path="url(#pa05ff366bb)" style="fill: none; stroke: #1f77b4; stroke-width: 1.5; stroke-linecap: square"/>
   </g>
   <g id="line2d_24">
    <path d="M 26.925 111.577347 
L 27.593388 111.962689 
L 28.261775 111.731484 
L 28.930163 110.729597 
L 29.59855 108.957028 
L 30.266938 107.801005 
L 30.935325 107.184459 
L 31.603713 107.261527 
L 32.2721 104.718276 
L 32.940488 106.105504 
L 33.608875 105.874299 
L 34.277263 103.870525 
L 34.94565 104.564139 
L 35.614038 106.336708 
L 36.282425 109.265301 
L 36.950813 109.419437 
L 37.6192 107.878073 
L 38.955975 113.272848 
L 39.624363 114.583008 
L 40.29275 114.660076 
L 40.961138 113.504053 
L 41.629525 113.118712 
L 42.297913 114.197667 
L 43.634688 114.274735 
L 44.303075 114.737145 
L 44.971463 114.968349 
L 45.63985 115.739031 
L 46.308238 113.118712 
L 46.976625 112.887507 
L 47.645013 111.962689 
L 48.3134 112.425098 
L 48.981788 113.19578 
L 49.650175 113.041644 
L 50.318563 112.34803 
L 50.98695 112.116825 
L 51.655338 112.502166 
L 52.323725 114.120599 
L 52.992113 114.737145 
L 53.6605 114.274735 
L 54.328888 114.428872 
L 54.997275 113.19578 
L 55.665663 113.889394 
L 56.33405 113.966462 
L 57.002438 114.428872 
L 58.339213 115.045417 
L 59.0076 114.891281 
L 59.675988 114.274735 
L 60.344375 114.120599 
L 61.012763 113.658189 
L 61.68115 113.812326 
L 63.017925 112.502166 
L 63.686313 112.502166 
L 64.3547 111.962689 
L 65.023088 111.88562 
L 66.359863 111.346143 
L 67.02825 111.114938 
L 67.696638 111.423211 
L 68.365025 110.575461 
L 69.033413 110.498392 
L 69.7018 111.269075 
L 70.370188 111.500279 
L 71.706963 111.269075 
L 72.37535 111.03787 
L 73.043738 111.114938 
L 73.712125 111.346143 
L 74.380513 110.960802 
L 75.0489 110.883733 
L 75.717288 110.498392 
L 79.059225 110.498392 
L 80.396 109.72771 
L 81.064388 109.034096 
L 81.732775 108.109277 
L 82.401163 106.105504 
L 83.737938 104.10173 
L 84.406325 104.564139 
L 85.074713 105.257753 
L 85.7431 104.795344 
L 86.411488 104.178798 
L 87.079875 102.637434 
L 87.748263 100.094182 
L 88.41665 100.094182 
L 89.085038 101.866751 
L 89.753425 101.173137 
L 91.0902 106.25964 
L 91.758588 105.951367 
L 92.426975 107.492732 
L 93.095363 107.723936 
L 95.100525 102.175024 
L 96.4373 100.864864 
L 97.105688 99.554705 
L 97.774075 97.936272 
L 98.442463 98.167477 
L 99.11085 99.785909 
L 99.779238 99.400568 
L 100.447625 98.090408 
L 101.116013 98.629886 
L 101.7844 95.932498 
L 102.452788 97.396794 
L 103.121175 99.3235 
L 103.789563 100.094182 
L 104.45795 100.248319 
L 105.126338 99.708841 
L 105.794725 98.861091 
L 106.463113 95.315952 
L 107.1315 94.314066 
L 108.468275 93.080974 
L 109.136662 93.928724 
L 111.141825 88.456881 
L 111.810213 88.302744 
L 112.4786 84.14106 
L 113.146988 84.603469 
L 113.815375 84.449333 
L 114.483763 81.135399 
L 115.15215 79.516967 
L 115.820538 82.214355 
L 116.488925 86.915516 
L 117.157313 84.680538 
L 117.8257 81.058331 
L 118.494088 81.98315 
L 119.162475 83.986924 
L 119.830863 84.14106 
L 120.49925 86.29897 
L 121.167638 87.60913 
L 121.836025 92.618565 
L 122.504413 96.626112 
L 123.1728 97.088522 
L 123.841188 99.631773 
L 124.509575 103.947593 
L 125.84635 94.082861 
L 126.514738 92.156155 
L 127.183125 89.689972 
L 127.851512 92.002019 
L 128.5199 95.161816 
L 129.188288 96.780249 
L 129.856675 97.936272 
L 131.19345 99.400568 
L 131.861838 98.629886 
L 132.530225 97.242658 
L 133.198612 94.930611 
L 133.867 97.396794 
L 135.872163 96.086635 
L 136.54055 94.314066 
L 137.877325 95.315952 
L 138.545713 95.00768 
L 139.2141 93.620452 
L 139.882487 91.616678 
L 140.550875 90.075313 
L 141.219263 91.0772 
L 141.88765 90.075313 
L 142.556038 90.923064 
L 143.224425 85.990697 
L 143.892812 83.678651 
L 144.5612 88.148608 
L 145.229588 90.306518 
L 145.897975 89.150495 
L 146.566362 90.075313 
L 147.23475 88.91929 
L 147.903138 89.921177 
L 148.571525 86.144834 
L 149.239913 81.443672 
L 149.9083 79.439899 
L 150.576687 80.056444 
L 151.913463 75.971829 
L 152.58185 77.975602 
L 153.250237 81.058331 
L 153.918625 83.29331 
L 154.587013 86.144834 
L 155.2554 85.374152 
L 155.923788 87.686198 
L 156.592175 86.221902 
L 157.260562 80.904195 
L 157.92895 82.985037 
L 158.597338 84.603469 
L 159.934112 78.283875 
L 160.6025 77.975602 
L 161.270888 81.058331 
L 161.939275 82.368491 
L 162.607663 82.676764 
L 163.27605 84.988811 
L 163.944437 85.065879 
L 164.612825 84.757606 
L 165.281213 86.607243 
L 165.9496 83.986924 
L 166.617987 83.832787 
L 167.286375 84.757606 
L 168.62315 87.532062 
L 169.291538 90.460654 
L 169.959925 92.233224 
L 170.628312 95.470089 
L 171.2967 91.770814 
L 171.965087 89.844109 
L 172.633475 89.073426 
L 173.301862 90.152382 
L 173.97025 88.996358 
L 174.638638 90.383586 
L 175.307025 89.76704 
L 175.975413 88.302744 
L 176.6438 88.225676 
L 177.312187 86.067766 
L 177.980575 85.913629 
L 178.648962 84.834674 
L 179.31735 82.599696 
L 179.985737 82.137286 
L 180.654125 81.906082 
L 181.322513 80.981263 
L 182.659288 78.052671 
L 183.327675 76.665443 
L 183.996062 78.283875 
L 184.66445 77.513193 
L 185.332837 76.125965 
L 186.669612 72.503759 
L 187.338 71.57894 
L 188.006388 72.118417 
L 188.674775 71.57894 
L 189.343163 71.193599 
L 190.01155 71.270667 
L 190.679937 74.276328 
L 191.348325 73.890987 
L 192.016712 72.657895 
L 192.6851 69.960507 
L 193.353487 60.558184 
L 194.021875 58.246137 
L 194.690262 62.176617 
L 195.35865 59.710434 
L 196.027038 45.375744 
L 196.695425 38.670809 
L 198.0322 65.798823 
L 198.700587 71.501872 
L 199.368975 69.035688 
L 200.037363 58.939751 
L 200.70575 52.92843 
L 201.374137 51.078793 
L 202.042525 43.603175 
L 202.710913 40.36631 
L 203.3793 44.065584 
L 204.047687 39.133218 
L 204.716075 39.133218 
L 206.05285 29.730895 
L 206.721238 34.971534 
L 208.058012 22.56355 
L 208.7264 19.712026 
L 209.394788 23.719574 
L 210.063175 39.364423 
L 210.731562 37.668922 
L 211.39995 29.576758 
L 212.068337 30.424509 
L 212.736725 34.740329 
L 213.405112 34.586193 
L 214.0735 36.512899 
L 214.741887 31.272259 
L 215.410275 34.046715 
L 216.078663 42.293015 
L 216.74705 48.073132 
L 217.415437 59.248024 
L 218.083825 62.48489 
L 219.4206 65.182277 
L 220.088987 63.409708 
L 220.757375 64.796936 
L 221.425762 65.259346 
L 222.09415 65.182277 
L 223.430925 56.088227 
L 224.099312 52.851362 
L 224.7677 54.392726 
L 225.436087 55.54875 
L 226.772862 53.544976 
L 227.44125 54.855136 
L 228.109637 53.544976 
L 228.778025 49.845701 
L 229.446413 47.148313 
L 230.1148 40.982855 
L 230.783187 38.593741 
L 231.451575 40.212173 
L 232.119962 44.759198 
L 232.78835 45.915222 
L 233.456737 49.537428 
L 234.125125 55.163408 
L 234.793512 57.167182 
L 235.4619 58.246137 
L 236.130288 56.704773 
L 236.798675 53.699112 
L 237.467062 57.629592 
L 238.803837 68.496211 
L 240.140612 66.877778 
L 240.809 66.877778 
L 241.477387 67.802597 
L 242.145775 70.962394 
L 242.814163 75.201146 
L 243.48255 75.586487 
L 244.150937 78.206807 
L 244.819325 84.988811 
L 245.487712 88.148608 
L 246.1561 84.526401 
L 246.824487 83.601583 
L 247.492875 88.07154 
L 248.161262 90.075313 
L 248.82965 89.150495 
L 250.834812 91.0772 
L 251.5032 91.308405 
L 252.171587 90.152382 
L 252.839975 90.152382 
L 254.17675 78.823353 
L 254.845137 80.67299 
L 255.513525 80.750058 
L 256.181912 78.360943 
L 256.8503 73.582714 
L 257.518687 72.503759 
L 258.187075 78.129739 
L 258.855462 77.359057 
L 259.52385 79.439899 
L 260.192237 83.062105 
L 260.860625 82.137286 
L 262.1974 76.35717 
L 262.865788 77.050784 
L 263.534175 75.740624 
L 264.202562 73.582714 
L 264.87095 75.509419 
L 265.539337 76.896647 
L 266.876112 72.42669 
L 267.5445 71.964281 
L 268.212887 71.039462 
L 268.881275 69.189825 
L 269.549662 70.808258 
L 270.21805 73.813918 
L 270.886437 78.592148 
L 271.554825 82.137286 
L 272.223212 80.133513 
L 272.8916 79.516967 
L 273.559987 81.058331 
L 274.228375 82.291423 
L 274.896763 82.753832 
L 275.56515 79.902308 
L 276.233538 77.590261 
L 277.570312 74.892873 
L 278.2387 75.124078 
L 278.907087 77.513193 
L 279.575475 78.283875 
L 280.243862 77.436125 
L 280.91225 76.896647 
L 281.580637 78.283875 
L 282.917412 82.907969 
L 283.5858 83.139173 
L 284.254187 84.911742 
L 284.922575 82.599696 
L 285.590962 83.139173 
L 286.25935 83.139173 
L 286.927737 81.289536 
L 287.596125 81.520741 
L 288.264513 85.220015 
L 289.601288 89.535836 
L 290.269675 91.462541 
L 290.938063 94.776475 
L 291.60645 94.391134 
L 292.943225 88.91929 
L 293.611612 90.22945 
L 294.28 90.923064 
L 294.948387 92.541496 
L 295.616775 97.473863 
L 296.95355 101.019001 
L 297.621937 99.3235 
L 298.290325 95.932498 
L 298.958712 95.624225 
L 299.6271 97.550931 
L 300.295487 100.63366 
L 300.963875 102.483297 
L 301.632262 102.945706 
L 302.30065 102.406229 
L 302.969038 102.252092 
L 303.637425 103.253979 
L 304.305813 103.716389 
L 304.9742 106.028435 
L 305.642587 106.182572 
L 306.310975 103.485184 
L 306.979362 102.79157 
L 307.64775 103.253979 
L 308.316137 100.864864 
L 309.652912 92.233224 
L 310.3213 90.22945 
L 310.989687 90.845996 
L 311.658075 89.227563 
L 312.326462 89.458768 
L 312.99485 87.917403 
L 314.331625 82.985037 
L 315.000012 82.522627 
L 315.6684 82.676764 
L 316.336788 85.682425 
L 317.005175 88.148608 
L 317.673563 89.612904 
L 319.010337 96.780249 
L 319.678725 96.163703 
L 320.347112 94.391134 
L 321.0155 96.240771 
L 321.683887 97.319726 
L 323.68905 101.173137 
L 324.357437 101.019001 
L 325.025825 96.471976 
L 325.694212 93.928724 
L 327.030987 90.923064 
L 327.699375 91.308405 
L 328.367762 93.23511 
L 329.03615 91.616678 
L 330.372925 96.471976 
L 331.041313 95.701294 
L 331.7097 93.69752 
L 332.378087 94.699407 
L 333.046475 92.079087 
L 333.714862 90.383586 
L 335.051637 93.312179 
L 335.720025 95.315952 
L 336.388412 95.00768 
L 337.0568 95.393021 
L 337.725187 96.780249 
L 338.393575 97.782136 
L 339.061962 98.01334 
L 339.73035 100.710728 
L 340.398737 100.17125 
L 341.067125 99.246432 
L 341.735512 99.246432 
L 342.4039 99.092295 
L 343.072288 99.940046 
L 343.740675 100.402455 
L 344.409063 101.866751 
L 345.07745 106.876186 
L 345.745837 110.267188 
L 346.414225 107.492732 
L 347.082612 108.186346 
L 347.751 107.030322 
L 348.419387 104.641207 
L 349.087775 102.868638 
L 349.756162 103.331048 
L 351.092937 97.705067 
L 351.761325 98.706954 
L 352.429712 97.473863 
L 353.0981 97.782136 
L 353.766487 96.009566 
L 354.434875 96.471976 
L 355.103262 94.776475 
L 355.77165 91.770814 
L 356.440038 91.000132 
L 357.108425 92.38736 
L 357.776813 94.236997 
L 358.4452 90.923064 
L 359.113587 93.928724 
L 361.11875 96.780249 
L 361.787137 97.936272 
L 362.455525 98.552818 
L 363.123912 102.637434 
L 363.7923 105.026549 
L 364.460687 104.795344 
L 365.129075 106.722049 
L 365.797462 105.797231 
L 366.46585 104.487071 
L 367.134237 105.41189 
L 367.802625 105.797231 
L 368.471012 107.261527 
L 369.1394 110.729597 
L 369.807787 112.34803 
L 370.476175 111.88562 
L 371.144563 108.648755 
L 372.481337 109.342369 
L 373.149725 105.951367 
L 373.818112 106.644981 
L 374.4865 107.878073 
L 375.154887 110.190119 
L 375.823275 113.118712 
L 376.491662 117.126259 
L 377.16005 119.823647 
L 377.828437 119.746579 
L 378.496825 118.975897 
L 379.165212 119.130033 
L 379.8336 118.975897 
L 380.501987 120.13192 
L 381.170375 121.056739 
L 381.838762 119.900715 
L 382.50715 123.060513 
L 383.175537 124.987218 
L 384.512312 116.509714 
L 385.1807 117.97401 
L 385.849087 117.896942 
L 386.517475 117.126259 
L 387.185862 117.280396 
L 387.85425 118.436419 
L 388.522637 118.82176 
L 389.191025 120.979671 
L 389.859412 116.355577 
L 390.5278 112.810439 
L 391.196187 112.193893 
L 392.532962 115.739031 
L 393.20135 116.586782 
L 393.869737 116.66385 
L 394.538125 115.276622 
L 395.206512 114.737145 
L 395.8749 113.889394 
L 396.543287 113.426985 
L 397.211675 110.344256 
L 398.54845 112.810439 
L 399.216837 113.426985 
L 399.885225 111.808552 
L 400.553612 110.729597 
L 401.222 111.577347 
L 401.890387 109.111164 
L 402.558775 108.186346 
L 403.227162 108.648755 
L 403.89555 108.957028 
L 404.563937 107.261527 
L 405.232325 106.105504 
L 405.900712 104.718276 
L 406.5691 103.947593 
L 407.237487 103.408116 
L 407.905875 103.63932 
L 408.574262 105.334821 
L 409.24265 106.490845 
L 409.911037 106.336708 
L 410.579425 107.184459 
L 411.247812 107.5698 
L 411.9162 105.874299 
L 412.584587 106.182572 
L 413.252975 107.955141 
L 413.921362 107.107391 
L 414.58975 106.490845 
L 415.258137 103.716389 
L 415.926525 104.872412 
L 416.594912 108.340482 
L 417.2633 110.113051 
L 417.931687 110.113051 
L 418.600075 114.197667 
L 419.268462 115.584895 
L 419.93685 119.515374 
L 420.605237 121.056739 
L 421.273625 123.368786 
L 422.6104 118.205215 
L 423.278787 115.584895 
L 424.615562 118.282283 
L 425.28395 120.286057 
L 425.952337 121.44208 
L 426.620725 124.833082 
L 427.289112 130.767335 
L 427.9575 130.150789 
L 428.625887 128.069947 
L 429.294275 128.455288 
L 429.962662 128.147015 
L 430.63105 126.066173 
L 431.299437 121.596216 
L 431.967825 123.522922 
L 432.636212 122.675172 
L 433.3046 124.216536 
L 433.972987 124.524809 
L 434.641375 125.295491 
L 435.309762 124.447741 
L 435.97815 123.368786 
L 436.646537 124.293604 
L 437.314925 123.754127 
L 437.983312 122.598103 
L 438.6517 125.680832 
L 439.320087 127.06806 
L 439.988475 128.917698 
L 440.656862 131.152676 
L 441.32525 131.615085 
L 441.993637 133.387654 
L 442.662025 132.077495 
L 443.330412 127.607538 
L 443.9988 127.145128 
L 444.667187 125.064286 
L 445.335575 126.22031 
L 446.003962 125.7579 
L 446.67235 128.301152 
L 447.340737 130.304926 
L 448.009125 130.613198 
L 448.677512 134.620746 
L 449.3459 135.545565 
L 450.014287 134.312473 
L 450.682675 135.468496 
L 451.351062 135.622633 
L 452.01945 136.007974 
L 452.687837 136.085042 
L 453.356225 134.620746 
L 454.693 136.62452 
L 455.361387 137.009861 
L 456.029775 137.703475 
L 456.698162 137.009861 
L 457.36655 137.318134 
L 458.034937 137.009861 
L 458.703325 137.318134 
L 459.371712 137.086929 
L 460.0401 136.239179 
L 460.708487 135.930906 
L 461.376875 136.16211 
L 462.045262 137.009861 
L 462.71365 136.007974 
L 463.382037 133.233518 
L 464.050425 131.692154 
L 464.718812 130.767335 
L 465.3872 130.150789 
L 466.055587 131.923358 
L 466.723975 131.923358 
L 467.392362 130.304926 
L 468.06075 129.765448 
L 468.729137 130.767335 
L 469.397525 129.842516 
L 470.065912 129.380107 
L 470.7343 130.227857 
L 471.402687 129.534243 
L 472.071075 129.380107 
L 472.739462 129.919584 
L 473.40785 128.840629 
L 474.076237 130.53613 
L 474.744625 129.996653 
L 475.413012 129.842516 
L 476.0814 131.923358 
L 476.749787 131.152676 
L 477.418175 130.767335 
L 478.086562 132.077495 
L 478.75495 130.613198 
L 479.423337 129.534243 
L 480.091725 129.919584 
L 480.760112 130.613198 
L 481.4285 130.99854 
L 482.096887 131.769222 
L 482.765275 129.611312 
L 483.433662 129.380107 
L 484.10205 130.767335 
L 484.770437 133.079382 
L 485.438825 131.84629 
L 486.107212 132.771109 
L 486.7756 132.462836 
L 487.443987 133.464723 
L 488.112375 134.235405 
L 489.44915 133.387654 
L 490.117537 132.69404 
L 491.454312 127.376333 
L 492.1227 127.684606 
L 492.791087 127.838742 
L 493.459475 126.990992 
L 494.127862 128.455288 
L 494.79625 128.301152 
L 495.464637 128.840629 
L 496.133025 128.069947 
L 496.801412 128.763561 
L 497.4698 128.609425 
L 498.138187 127.222197 
L 498.806575 126.682719 
L 499.474962 125.680832 
L 500.811737 122.443967 
L 501.480125 122.212762 
L 502.148512 121.673285 
L 502.8169 120.748466 
L 503.485287 121.056739 
L 504.822062 121.133807 
L 506.158837 119.361238 
L 506.827225 119.746579 
L 507.495612 121.827421 
L 508.164 122.906376 
L 508.832387 123.291717 
L 509.500775 124.216536 
L 510.169162 124.524809 
L 510.83755 125.603764 
L 511.505937 128.37822 
L 512.174325 128.37822 
L 512.842712 130.99854 
L 513.5111 130.381994 
L 514.179487 130.690267 
L 514.847875 129.842516 
L 515.516262 129.534243 
L 516.18465 130.459062 
L 516.853038 132.308699 
L 517.521425 137.93468 
L 518.189813 139.476044 
L 518.8582 139.861385 
L 519.526588 139.861385 
L 520.194975 140.323795 
L 521.53175 140.400863 
L 522.200137 139.861385 
L 522.868525 139.476044 
L 523.536912 139.476044 
L 524.2053 139.013635 
L 524.873687 138.320021 
L 525.542075 136.16211 
L 526.210462 135.853838 
L 526.87885 136.16211 
L 527.547237 136.007974 
L 528.215625 136.62452 
L 528.884012 136.547452 
L 529.5524 135.853838 
L 530.220787 133.927132 
L 530.889175 133.233518 
L 531.557562 133.002313 
L 533.562725 126.22031 
L 534.231112 121.056739 
L 534.8995 120.363125 
L 535.567887 117.896942 
L 536.236275 119.669511 
L 536.904662 119.130033 
L 537.57305 113.966462 
L 538.241437 110.267188 
L 538.909825 111.192006 
L 539.578212 113.504053 
L 540.2466 114.428872 
L 540.914987 112.116825 
L 541.583375 113.041644 
L 542.251762 115.199554 
L 542.92015 114.814213 
L 543.588538 112.039757 
L 545.5937 107.878073 
L 546.262088 105.720163 
L 546.930475 107.878073 
L 547.598862 111.654416 
L 548.26725 111.808552 
L 548.935637 110.190119 
L 549.604025 110.113051 
L 550.272412 107.338595 
L 550.9408 107.801005 
L 552.277575 110.421324 
L 552.945962 113.889394 
L 553.61435 115.507827 
L 554.282737 112.34803 
L 554.951125 109.881847 
L 555.619512 109.72771 
L 556.2879 108.340482 
L 556.956287 109.496505 
L 557.624675 111.346143 
L 558.293062 112.34803 
L 558.96145 111.500279 
L 559.629837 111.962689 
L 560.298225 112.039757 
L 561.635 114.274735 
L 561.635 114.274735 
" clip-path="url(#pa05ff366bb)" style="fill: none; stroke: #ff7f0e; stroke-width: 1.5; stroke-linecap: square"/>
   </g>
   <g id="line2d_25">
    <path d="M 26.925 116.586782 
L 27.593388 115.199554 
L 28.261775 114.660076 
L 28.930163 113.812326 
L 29.59855 111.962689 
L 30.266938 111.114938 
L 30.935325 108.648755 
L 31.603713 108.41755 
L 32.2721 103.947593 
L 32.940488 105.488958 
L 33.608875 105.41189 
L 34.277263 102.868638 
L 34.94565 103.716389 
L 35.614038 106.567913 
L 36.282425 111.500279 
L 36.950813 111.346143 
L 37.6192 110.035983 
L 38.287588 116.586782 
L 38.955975 117.819873 
L 39.624363 119.746579 
L 40.29275 118.82176 
L 40.961138 119.052965 
L 41.629525 118.744692 
L 42.297913 120.440193 
L 42.9663 120.825534 
L 43.634688 119.900715 
L 44.303075 120.286057 
L 45.63985 120.363125 
L 46.308238 118.898829 
L 46.976625 119.977784 
L 47.645013 118.898829 
L 49.650175 118.82176 
L 50.98695 117.203328 
L 51.655338 117.203328 
L 52.323725 118.898829 
L 52.992113 119.438306 
L 53.6605 119.130033 
L 54.328888 119.130033 
L 54.997275 117.126259 
L 55.665663 117.819873 
L 56.33405 118.898829 
L 57.002438 119.515374 
L 59.0076 119.052965 
L 59.675988 119.28417 
L 60.344375 119.130033 
L 61.012763 118.513487 
L 61.68115 118.436419 
L 62.349538 117.819873 
L 63.017925 115.661963 
L 65.023088 114.428872 
L 65.691475 113.658189 
L 66.359863 113.118712 
L 67.696638 113.349917 
L 68.365025 112.34803 
L 69.033413 112.34803 
L 69.7018 112.887507 
L 70.370188 112.964575 
L 71.038575 113.812326 
L 71.706963 113.658189 
L 72.37535 112.887507 
L 73.043738 112.733371 
L 73.712125 112.34803 
L 74.380513 111.500279 
L 75.0489 112.116825 
L 75.717288 111.423211 
L 76.385675 111.192006 
L 79.059225 111.808552 
L 79.727613 111.114938 
L 80.396 110.113051 
L 81.064388 109.342369 
L 81.732775 108.802891 
L 82.401163 106.105504 
L 83.06955 104.872412 
L 83.737938 104.410003 
L 84.406325 104.178798 
L 85.074713 104.718276 
L 86.411488 104.178798 
L 87.079875 102.637434 
L 87.748263 99.785909 
L 88.41665 97.627999 
L 89.085038 99.477636 
L 89.753425 99.785909 
L 90.421813 102.406229 
L 91.0902 105.874299 
L 91.758588 106.182572 
L 92.426975 108.957028 
L 93.095363 110.806665 
L 93.76375 110.498392 
L 94.432138 107.955141 
L 95.100525 103.870525 
L 97.105688 101.096069 
L 97.774075 99.246432 
L 98.442463 98.47575 
L 99.11085 100.63366 
L 99.779238 100.787796 
L 100.447625 99.477636 
L 101.116013 98.47575 
L 101.7844 95.161816 
L 102.452788 96.394908 
L 103.121175 98.938159 
L 103.789563 100.63366 
L 104.45795 100.479523 
L 105.126338 99.554705 
L 105.794725 98.167477 
L 106.463113 94.776475 
L 107.1315 93.620452 
L 107.799888 93.080974 
L 109.136662 94.236997 
L 109.80505 93.003906 
L 111.141825 83.909855 
L 111.810213 84.372265 
L 112.4786 82.214355 
L 113.146988 83.601583 
L 114.483763 79.516967 
L 115.15215 80.056444 
L 115.820538 83.986924 
L 116.488925 88.765154 
L 117.157313 88.07154 
L 117.8257 82.753832 
L 118.494088 84.295197 
L 119.162475 87.763267 
L 119.830863 88.688085 
L 120.49925 90.614791 
L 121.167638 92.926838 
L 121.836025 100.017114 
L 123.1728 107.261527 
L 123.841188 112.502166 
L 124.509575 114.043531 
L 125.177963 109.342369 
L 125.84635 103.63932 
L 126.514738 99.015227 
L 127.183125 95.932498 
L 127.851512 97.782136 
L 128.5199 100.787796 
L 129.188288 104.641207 
L 129.856675 106.490845 
L 130.525062 107.030322 
L 131.19345 109.496505 
L 131.861838 109.573574 
L 132.530225 106.490845 
L 133.198612 104.255866 
L 133.867 106.722049 
L 134.535388 104.487071 
L 135.872163 104.10173 
L 136.54055 99.940046 
L 137.208937 99.940046 
L 137.877325 101.866751 
L 138.545713 99.940046 
L 139.2141 97.088522 
L 139.882487 94.776475 
L 140.550875 89.689972 
L 141.219263 89.689972 
L 141.88765 89.381699 
L 142.556038 86.144834 
L 143.224425 77.821466 
L 143.892812 74.507532 
L 144.5612 78.438012 
L 145.229588 85.45122 
L 145.897975 84.14106 
L 146.566362 86.453107 
L 147.23475 85.297083 
L 147.903138 89.458768 
L 149.239913 76.048897 
L 149.9083 74.815805 
L 150.576687 75.663556 
L 151.245075 74.661669 
L 151.913463 70.345848 
L 152.58185 74.122191 
L 153.250237 80.441785 
L 155.2554 89.844109 
L 155.923788 96.394908 
L 156.592175 95.393021 
L 157.260562 89.304631 
L 157.92895 93.23511 
L 158.597338 94.005793 
L 159.265725 87.686198 
L 159.934112 83.139173 
L 160.6025 82.753832 
L 161.270888 88.91929 
L 161.939275 92.464428 
L 162.607663 91.616678 
L 163.27605 97.705067 
L 163.944437 96.934385 
L 164.612825 94.622338 
L 165.281213 96.857317 
L 165.9496 93.158042 
L 166.617987 92.233224 
L 167.286375 94.699407 
L 167.954763 96.240771 
L 168.62315 97.473863 
L 169.291538 100.094182 
L 169.959925 101.712615 
L 170.628312 104.795344 
L 171.2967 101.712615 
L 171.965087 100.325387 
L 172.633475 100.094182 
L 173.301862 100.556592 
L 173.97025 97.473863 
L 174.638638 97.782136 
L 175.307025 96.70318 
L 175.975413 93.389247 
L 176.6438 92.156155 
L 177.312187 88.765154 
L 177.980575 88.91929 
L 178.648962 88.842222 
L 179.31735 86.376039 
L 179.985737 85.913629 
L 180.654125 86.144834 
L 181.322513 85.065879 
L 181.9909 82.214355 
L 183.327675 77.821466 
L 183.996062 78.438012 
L 184.66445 75.89476 
L 185.332837 72.041349 
L 186.001225 65.336414 
L 186.669612 63.101435 
L 187.338 62.253685 
L 188.006388 63.563845 
L 188.674775 63.486776 
L 189.343163 64.488663 
L 190.01155 64.488663 
L 190.679937 68.727416 
L 191.348325 68.187938 
L 192.016712 65.567618 
L 192.6851 58.939751 
L 193.353487 46.608836 
L 194.021875 46.994177 
L 194.690262 50.153974 
L 195.35865 49.537428 
L 196.695425 20.559776 
L 197.363812 39.980969 
L 198.0322 70.114644 
L 198.700587 79.594035 
L 199.368975 75.817692 
L 200.037363 63.563845 
L 200.70575 53.699112 
L 201.374137 46.223495 
L 202.042525 33.43017 
L 202.710913 27.804189 
L 203.3793 33.969647 
L 204.047687 30.193304 
L 204.716075 36.821171 
L 205.384462 32.12001 
L 206.05285 17.631184 
L 206.721238 27.958326 
L 208.058012 13.623636 
L 208.7264 15.165001 
L 209.394788 23.950778 
L 210.063175 46.84004 
L 210.731562 43.449039 
L 211.39995 32.12001 
L 212.068337 28.960213 
L 212.736725 34.971534 
L 213.405112 34.740329 
L 214.0735 39.672696 
L 214.741887 34.046715 
L 215.410275 40.443378 
L 216.078663 54.392726 
L 216.74705 58.862683 
L 217.415437 70.654121 
L 218.083825 71.887213 
L 219.4206 76.048897 
L 220.088987 73.73685 
L 220.757375 72.812031 
L 221.425762 73.274441 
L 222.09415 73.890987 
L 222.762538 68.033802 
L 223.430925 63.872118 
L 224.099312 61.328866 
L 225.436087 66.877778 
L 226.104475 65.875891 
L 226.772862 64.565732 
L 227.44125 66.184164 
L 228.109637 65.105209 
L 228.778025 60.866457 
L 229.446413 58.477342 
L 230.1148 52.620157 
L 230.783187 49.383292 
L 231.451575 49.768633 
L 232.78835 53.236703 
L 233.456737 58.477342 
L 234.125125 66.80071 
L 234.793512 70.577053 
L 235.4619 72.966168 
L 236.130288 70.885326 
L 236.798675 66.492437 
L 238.803837 82.368491 
L 239.472225 81.906082 
L 240.140612 80.441785 
L 240.809 80.287649 
L 241.477387 80.750058 
L 242.145775 81.751945 
L 242.814163 83.370378 
L 243.48255 82.907969 
L 244.150937 83.832787 
L 245.487712 92.849769 
L 246.1561 91.231337 
L 246.824487 90.614791 
L 247.492875 94.159929 
L 248.161262 96.780249 
L 248.82965 98.01334 
L 249.498037 98.398681 
L 250.834812 97.242658 
L 251.5032 97.936272 
L 252.171587 96.549044 
L 252.839975 96.009566 
L 254.17675 88.533949 
L 254.845137 90.075313 
L 255.513525 91.000132 
L 256.181912 88.302744 
L 256.8503 83.370378 
L 257.518687 83.986924 
L 258.187075 88.842222 
L 258.855462 87.223789 
L 259.52385 88.611017 
L 260.192237 91.308405 
L 260.860625 90.768927 
L 261.529013 88.456881 
L 262.1974 85.45122 
L 262.865788 84.757606 
L 263.534175 82.753832 
L 264.202562 79.516967 
L 264.87095 80.133513 
L 265.539337 79.979376 
L 266.207725 77.127852 
L 266.876112 73.197373 
L 267.5445 72.734963 
L 268.212887 71.193599 
L 268.881275 68.727416 
L 269.549662 70.345848 
L 270.21805 73.274441 
L 271.554825 81.674877 
L 272.223212 79.439899 
L 272.8916 79.131626 
L 274.228375 82.599696 
L 274.896763 82.985037 
L 276.901925 78.129739 
L 277.570312 77.744398 
L 278.2387 78.360943 
L 278.907087 80.056444 
L 280.243862 82.522627 
L 280.91225 82.676764 
L 282.249025 86.144834 
L 282.917412 88.148608 
L 284.254187 94.159929 
L 284.922575 93.158042 
L 285.590962 94.391134 
L 286.25935 95.238884 
L 286.927737 93.466315 
L 287.596125 93.851656 
L 288.264513 97.936272 
L 289.601288 101.404342 
L 290.938063 108.725823 
L 291.60645 110.498392 
L 292.274837 109.419437 
L 292.943225 106.799118 
L 293.611612 109.342369 
L 294.28 110.190119 
L 294.948387 110.344256 
L 295.616775 114.737145 
L 296.285162 115.739031 
L 296.95355 117.97401 
L 297.621937 117.049191 
L 298.290325 114.120599 
L 298.958712 113.889394 
L 299.6271 115.507827 
L 300.295487 116.355577 
L 300.963875 116.817987 
L 301.632262 117.511601 
L 302.30065 116.586782 
L 302.969038 115.199554 
L 303.637425 115.739031 
L 304.305813 115.970236 
L 304.9742 116.586782 
L 305.642587 116.355577 
L 306.310975 114.891281 
L 306.979362 114.660076 
L 307.64775 115.199554 
L 308.316137 112.656303 
L 309.652912 105.334821 
L 310.3213 101.558478 
L 310.989687 101.866751 
L 311.658075 100.248319 
L 312.326462 99.631773 
L 312.99485 98.090408 
L 313.663237 95.393021 
L 314.331625 92.079087 
L 315.000012 87.454994 
L 315.6684 88.148608 
L 316.336788 90.845996 
L 317.005175 92.926838 
L 317.673563 94.159929 
L 318.34195 96.240771 
L 319.010337 99.015227 
L 319.678725 99.400568 
L 320.347112 98.167477 
L 321.0155 99.169364 
L 321.683887 99.400568 
L 322.352275 100.63366 
L 323.020662 101.558478 
L 323.68905 103.253979 
L 324.357437 104.410003 
L 325.025825 101.327274 
L 325.694212 99.785909 
L 326.3626 99.015227 
L 327.030987 97.705067 
L 327.699375 97.396794 
L 328.367762 98.784022 
L 329.03615 97.550931 
L 329.704538 99.708841 
L 330.372925 100.710728 
L 331.041313 100.325387 
L 331.7097 99.246432 
L 332.378087 99.862978 
L 333.046475 97.782136 
L 333.714862 96.317839 
L 334.38325 97.242658 
L 335.720025 99.785909 
L 336.388412 99.631773 
L 337.0568 99.940046 
L 337.725187 100.402455 
L 338.393575 100.402455 
L 339.061962 99.862978 
L 339.73035 102.097956 
L 341.067125 100.941933 
L 341.735512 101.019001 
L 342.4039 100.556592 
L 343.072288 100.787796 
L 343.740675 101.173137 
L 344.409063 102.329161 
L 345.07745 106.182572 
L 345.745837 110.729597 
L 346.414225 107.5698 
L 347.751 107.723936 
L 348.419387 106.25964 
L 349.087775 105.643094 
L 349.756162 106.336708 
L 350.42455 105.103617 
L 351.092937 103.176911 
L 351.761325 103.716389 
L 352.429712 102.406229 
L 353.0981 102.020888 
L 353.766487 100.63366 
L 354.434875 99.708841 
L 355.77165 95.315952 
L 356.440038 94.54527 
L 357.108425 94.54527 
L 357.776813 95.084748 
L 358.4452 93.69752 
L 359.113587 94.930611 
L 359.781975 95.624225 
L 360.450362 94.853543 
L 361.11875 95.238884 
L 361.787137 96.163703 
L 362.455525 95.547157 
L 363.123912 99.3235 
L 363.7923 105.41189 
L 364.460687 106.413777 
L 365.797462 111.808552 
L 367.134237 114.891281 
L 367.802625 114.583008 
L 368.471012 115.739031 
L 369.1394 120.748466 
L 369.807787 124.524809 
L 370.476175 125.680832 
L 371.144563 125.372559 
L 371.81295 125.834969 
L 372.481337 125.295491 
L 373.149725 122.675172 
L 373.818112 123.368786 
L 375.154887 125.526696 
L 376.491662 128.917698 
L 377.16005 129.22597 
L 377.828437 129.765448 
L 378.496825 130.99854 
L 379.165212 131.306812 
L 379.8336 132.000426 
L 381.170375 132.925245 
L 381.838762 132.69404 
L 382.50715 133.387654 
L 383.175537 134.697814 
L 383.843925 133.850064 
L 384.512312 132.385768 
L 385.1807 132.925245 
L 385.849087 132.848177 
L 386.517475 132.154563 
L 387.185862 132.385768 
L 387.85425 132.925245 
L 388.522637 132.925245 
L 389.191025 133.310586 
L 389.859412 131.460949 
L 391.196187 126.143242 
L 391.864575 126.297378 
L 392.532962 126.913924 
L 393.869737 125.295491 
L 394.538125 123.214649 
L 396.543287 119.130033 
L 397.211675 117.049191 
L 399.216837 116.586782 
L 399.885225 114.428872 
L 400.553612 112.656303 
L 401.222 112.810439 
L 401.890387 110.267188 
L 402.558775 109.111164 
L 403.227162 108.957028 
L 403.89555 108.186346 
L 404.563937 106.413777 
L 405.232325 105.720163 
L 405.900712 104.718276 
L 406.5691 103.947593 
L 407.237487 102.714502 
L 407.905875 102.252092 
L 408.574262 103.331048 
L 409.24265 104.178798 
L 409.911037 103.870525 
L 410.579425 103.870525 
L 411.247812 104.410003 
L 411.9162 103.485184 
L 412.584587 103.562252 
L 413.252975 104.564139 
L 413.921362 104.487071 
L 414.58975 104.641207 
L 415.258137 104.255866 
L 415.926525 104.255866 
L 416.594912 108.032209 
L 417.2633 110.575461 
L 417.931687 110.883733 
L 418.600075 115.507827 
L 419.268462 117.357464 
L 419.93685 121.596216 
L 420.605237 126.682719 
L 421.273625 130.613198 
L 421.942012 129.071834 
L 423.278787 123.831195 
L 423.947175 124.91015 
L 424.615562 125.680832 
L 425.28395 127.761674 
L 425.952337 131.538017 
L 426.620725 134.235405 
L 427.289112 138.705362 
L 427.9575 139.090703 
L 428.625887 137.703475 
L 429.294275 137.549338 
L 429.962662 138.242953 
L 430.63105 138.628294 
L 431.299437 138.551225 
L 432.636212 138.936567 
L 433.3046 139.398976 
L 433.972987 139.630181 
L 434.641375 140.09259 
L 435.309762 139.630181 
L 435.97815 139.784317 
L 436.646537 139.784317 
L 437.983312 139.013635 
L 438.6517 139.630181 
L 439.320087 140.015522 
L 440.656862 140.477931 
L 441.32525 140.477931 
L 441.993637 140.709136 
L 442.662025 140.554999 
L 443.330412 140.246726 
L 443.9988 140.400863 
L 444.667187 140.246726 
L 445.335575 140.477931 
L 446.003962 140.554999 
L 446.67235 141.017409 
L 447.340737 141.094477 
L 448.009125 141.017409 
L 448.677512 141.633954 
L 449.3459 141.711023 
L 451.351062 141.556886 
L 452.01945 141.556886 
L 453.356225 141.017409 
L 454.024612 141.094477 
L 455.361387 141.017409 
L 458.703325 141.094477 
L 460.0401 141.325681 
L 460.708487 141.248613 
L 461.376875 141.325681 
L 462.045262 141.556886 
L 462.71365 141.556886 
L 463.382037 141.40275 
L 464.050425 141.556886 
L 464.718812 141.479818 
L 466.055587 141.556886 
L 470.065912 141.633954 
L 471.402687 141.711023 
L 472.739462 141.633954 
L 474.076237 141.711023 
L 474.744625 141.479818 
L 475.413012 140.863272 
L 476.0814 140.94034 
L 477.418175 140.554999 
L 478.086562 140.709136 
L 478.75495 140.632067 
L 479.423337 140.323795 
L 480.091725 140.169658 
L 480.760112 139.553112 
L 481.4285 139.630181 
L 482.096887 140.477931 
L 482.765275 138.78243 
L 483.433662 137.47227 
L 484.10205 138.320021 
L 484.770437 138.397089 
L 485.438825 137.395202 
L 486.107212 138.165884 
L 486.7756 137.93468 
L 488.112375 138.551225 
L 488.780762 138.088816 
L 489.44915 137.93468 
L 490.785925 136.778656 
L 491.454312 135.776769 
L 492.1227 136.085042 
L 492.791087 136.16211 
L 493.459475 134.697814 
L 494.127862 134.46661 
L 495.464637 133.233518 
L 496.801412 133.002313 
L 497.4698 132.616972 
L 498.138187 131.692154 
L 499.474962 129.380107 
L 500.14335 128.609425 
L 500.811737 127.376333 
L 502.8169 124.987218 
L 504.822062 123.59999 
L 506.158837 122.058626 
L 506.827225 121.673285 
L 507.495612 121.981558 
L 508.164 122.598103 
L 508.832387 122.829308 
L 510.169162 123.831195 
L 510.83755 124.447741 
L 511.505937 127.06806 
L 512.174325 127.376333 
L 512.842712 128.840629 
L 513.5111 128.609425 
L 514.179487 130.073721 
L 514.847875 130.381994 
L 516.18465 130.690267 
L 516.853038 131.615085 
L 517.521425 139.938453 
L 518.189813 141.094477 
L 518.8582 141.248613 
L 519.526588 141.094477 
L 520.863362 141.479818 
L 522.868525 141.556886 
L 523.536912 141.711023 
L 524.2053 141.711023 
L 524.873687 141.942227 
L 525.542075 141.865159 
L 526.87885 142.096364 
L 528.215625 141.865159 
L 528.884012 141.942227 
L 529.5524 141.865159 
L 530.220787 141.633954 
L 530.889175 141.094477 
L 531.557562 140.169658 
L 532.22595 138.242953 
L 532.894337 134.774882 
L 533.562725 132.154563 
L 534.231112 127.915811 
L 534.8995 126.605651 
L 535.567887 122.058626 
L 536.236275 119.207101 
L 536.904662 117.203328 
L 538.241437 108.340482 
L 538.909825 106.028435 
L 539.578212 106.413777 
L 540.2466 106.336708 
L 540.914987 104.487071 
L 541.583375 106.413777 
L 542.251762 106.413777 
L 542.92015 104.641207 
L 543.588538 102.097956 
L 544.256925 101.096069 
L 544.925313 101.096069 
L 545.5937 100.556592 
L 546.262088 100.710728 
L 546.930475 101.789683 
L 547.598862 104.255866 
L 548.26725 105.566026 
L 548.935637 104.564139 
L 549.604025 104.024662 
L 550.272412 102.868638 
L 550.9408 102.714502 
L 551.609187 103.099843 
L 552.277575 104.718276 
L 553.61435 111.423211 
L 554.282737 110.113051 
L 554.951125 109.111164 
L 555.619512 109.881847 
L 556.2879 110.267188 
L 556.956287 110.190119 
L 558.293062 112.039757 
L 558.96145 110.960802 
L 559.629837 111.192006 
L 560.298225 111.03787 
L 560.966612 112.502166 
L 561.635 114.274735 
L 561.635 114.274735 
" clip-path="url(#pa05ff366bb)" style="fill: none; stroke: #2ca02c; stroke-width: 1.5; stroke-linecap: square"/>
   </g>
   <g id="patch_3">
    <path d="M 26.925 148.52 
L 26.925 7.2 
" style="fill: none"/>
   </g>
   <g id="patch_4">
    <path d="M 561.635 148.52 
L 561.635 7.2 
" style="fill: none"/>
   </g>
   <g id="patch_5">
    <path d="M 26.925 148.52 
L 561.635 148.52 
" style="fill: none; stroke: #000000; stroke-width: 0.8; stroke-linejoin: miter; stroke-linecap: square"/>
   </g>
   <g id="patch_6">
    <path d="M 26.925 7.2 
L 561.635 7.2 
" style="fill: none"/>
   </g>
   <g id="legend_1">
    <g id="patch_7">
     <path d="M 495.813125 59.234375 
L 554.635 59.234375 
Q 556.635 59.234375 556.635 57.234375 
L 556.635 14.2 
Q 556.635 12.2 554.635 12.2 
L 495.813125 12.2 
Q 493.813125 12.2 493.813125 14.2 
L 493.813125 57.234375 
Q 493.813125 59.234375 495.813125 59.234375 
L 495.813125 59.234375 
z
" style="fill: none; opacity: 0"/>
    </g>
    <g id="line2d_26">
     <path d="M 497.813125 20.298438 
L 507.813125 20.298438 
L 517.813125 20.298438 
" style="fill: none; stroke: #1f77b4; stroke-width: 1.5; stroke-linecap: square"/>
    </g>
    <g id="text_12">
     <!-- GS10 -->
     <g transform="translate(525.813125 23.798438) scale(0.1 -0.1)">
      <defs>
       <path id="DejaVuSans-47" d="M 3809 666 
L 3809 1919 
L 2778 1919 
L 2778 2438 
L 4434 2438 
L 4434 434 
Q 4069 175 3628 42 
Q 3188 -91 2688 -91 
Q 1594 -91 976 548 
Q 359 1188 359 2328 
Q 359 3472 976 4111 
Q 1594 4750 2688 4750 
Q 3144 4750 3555 4637 
Q 3966 4525 4313 4306 
L 4313 3634 
Q 3963 3931 3569 4081 
Q 3175 4231 2741 4231 
Q 1884 4231 1454 3753 
Q 1025 3275 1025 2328 
Q 1025 1384 1454 906 
Q 1884 428 2741 428 
Q 3075 428 3337 486 
Q 3600 544 3809 666 
z
" transform="scale(0.015625)"/>
       <path id="DejaVuSans-53" d="M 3425 4513 
L 3425 3897 
Q 3066 4069 2747 4153 
Q 2428 4238 2131 4238 
Q 1616 4238 1336 4038 
Q 1056 3838 1056 3469 
Q 1056 3159 1242 3001 
Q 1428 2844 1947 2747 
L 2328 2669 
Q 3034 2534 3370 2195 
Q 3706 1856 3706 1288 
Q 3706 609 3251 259 
Q 2797 -91 1919 -91 
Q 1588 -91 1214 -16 
Q 841 59 441 206 
L 441 856 
Q 825 641 1194 531 
Q 1563 422 1919 422 
Q 2459 422 2753 634 
Q 3047 847 3047 1241 
Q 3047 1584 2836 1778 
Q 2625 1972 2144 2069 
L 1759 2144 
Q 1053 2284 737 2584 
Q 422 2884 422 3419 
Q 422 4038 858 4394 
Q 1294 4750 2059 4750 
Q 2388 4750 2728 4690 
Q 3069 4631 3425 4513 
z
" transform="scale(0.015625)"/>
      </defs>
      <use xlink:href="#DejaVuSans-47"/>
      <use xlink:href="#DejaVuSans-53" transform="translate(77.490234 0)"/>
      <use xlink:href="#DejaVuSans-31" transform="translate(140.966797 0)"/>
      <use xlink:href="#DejaVuSans-30" transform="translate(204.589844 0)"/>
     </g>
    </g>
    <g id="line2d_27">
     <path d="M 497.813125 34.976562 
L 507.813125 34.976562 
L 517.813125 34.976562 
" style="fill: none; stroke: #ff7f0e; stroke-width: 1.5; stroke-linecap: square"/>
    </g>
    <g id="text_13">
     <!-- GS5 -->
     <g transform="translate(525.813125 38.476562) scale(0.1 -0.1)">
      <use xlink:href="#DejaVuSans-47"/>
      <use xlink:href="#DejaVuSans-53" transform="translate(77.490234 0)"/>
      <use xlink:href="#DejaVuSans-35" transform="translate(140.966797 0)"/>
     </g>
    </g>
    <g id="line2d_28">
     <path d="M 497.813125 49.654688 
L 507.813125 49.654688 
L 517.813125 49.654688 
" style="fill: none; stroke: #2ca02c; stroke-width: 1.5; stroke-linecap: square"/>
    </g>
    <g id="text_14">
     <!-- GS1 -->
     <g transform="translate(525.813125 53.154688) scale(0.1 -0.1)">
      <use xlink:href="#DejaVuSans-47"/>
      <use xlink:href="#DejaVuSans-53" transform="translate(77.490234 0)"/>
      <use xlink:href="#DejaVuSans-31" transform="translate(140.966797 0)"/>
     </g>
    </g>
   </g>
  </g>
 </g>
 <defs>
  <clipPath id="pa05ff366bb">
   <rect x="26.925" y="7.2" width="534.71" height="141.32"/>
  </clipPath>
 </defs>
</svg>
