<?xml version="1.0" encoding="utf-8" standalone="no"?>
<!DOCTYPE svg PUBLIC "-//W3C//DTD SVG 1.1//EN"
  "http://www.w3.org/Graphics/SVG/1.1/DTD/svg11.dtd">
<svg xmlns:xlink="http://www.w3.org/1999/xlink" width="568.8975pt" height="172.441966pt" viewBox="0 0 568.8975 172.441966" xmlns="http://www.w3.org/2000/svg" version="1.1">
 <metadata>
  <rdf:RDF xmlns:dc="http://purl.org/dc/elements/1.1/" xmlns:cc="http://creativecommons.org/ns#" xmlns:rdf="http://www.w3.org/1999/02/22-rdf-syntax-ns#">
   <cc:Work>
    <dc:type rdf:resource="http://purl.org/dc/dcmitype/StillImage"/>
    <dc:date>2025-11-20T09:11:28.960870</dc:date>
    <dc:format>image/svg+xml</dc:format>
    <dc:creator>
     <cc:Agent>
      <dc:title>Matplotlib v3.10.7, https://matplotlib.org/</dc:title>
     </cc:Agent>
    </dc:creator>
   </cc:Work>
  </rdf:RDF>
 </metadata>
 <defs>
  <style type="text/css">*{stroke-linejoin: round; stroke-linecap: butt}</style>
 </defs>
 <g id="figure_1">
  <g id="patch_1">
   <path d="M 0 172.441966 
L 568.8975 172.441966 
L 568.8975 0 
L 0 0 
L 0 172.441966 
z
" style="fill: none"/>
  </g>
  <g id="axes_1">
   <g id="patch_2">
    <path d="M 33.2875 137.135464 
L 561.6975 137.135464 
L 561.6975 7.2 
L 33.2875 7.2 
L 33.2875 137.135464 
z
" style="fill: none"/>
   </g>
   <g id="matplotlib.axis_1">
    <g id="xtick_1">
     <g id="line2d_1">
      <defs>
       <path id="m911428a04f" d="M 0 0 
L 0 3.5 
" style="stroke: #000000; stroke-width: 0.8"/>
      </defs>
      <g>
       <use xlink:href="#m911428a04f" x="62.163393" y="137.135464" style="stroke: #000000; stroke-width: 0.8"/>
      </g>
     </g>
     <g id="text_1">
      <!-- 1960 -->
      <g transform="translate(39.083202 163.440904) rotate(-30) scale(0.1 -0.1)">
       <defs>
        <path id="DejaVuSans-31" d="M 794 531 
L 1825 531 
L 1825 4091 
L 703 3866 
L 703 4441 
L 1819 4666 
L 2450 4666 
L 2450 531 
L 3481 531 
L 3481 0 
L 794 0 
L 794 531 
z
" transform="scale(0.015625)"/>
        <path id="DejaVuSans-39" d="M 703 97 
L 703 672 
Q 941 559 1184 500 
Q 1428 441 1663 441 
Q 2288 441 2617 861 
Q 2947 1281 2994 2138 
Q 2813 1869 2534 1725 
Q 2256 1581 1919 1581 
Q 1219 1581 811 2004 
Q 403 2428 403 3163 
Q 403 3881 828 4315 
Q 1253 4750 1959 4750 
Q 2769 4750 3195 4129 
Q 3622 3509 3622 2328 
Q 3622 1225 3098 567 
Q 2575 -91 1691 -91 
Q 1453 -91 1209 -44 
Q 966 3 703 97 
z
M 1959 2075 
Q 2384 2075 2632 2365 
Q 2881 2656 2881 3163 
Q 2881 3666 2632 3958 
Q 2384 4250 1959 4250 
Q 1534 4250 1286 3958 
Q 1038 3666 1038 3163 
Q 1038 2656 1286 2365 
Q 1534 2075 1959 2075 
z
" transform="scale(0.015625)"/>
        <path id="DejaVuSans-36" d="M 2113 2584 
Q 1688 2584 1439 2293 
Q 1191 2003 1191 1497 
Q 1191 994 1439 701 
Q 1688 409 2113 409 
Q 2538 409 2786 701 
Q 3034 994 3034 1497 
Q 3034 2003 2786 2293 
Q 2538 2584 2113 2584 
z
M 3366 4563 
L 3366 3988 
Q 3128 4100 2886 4159 
Q 2644 4219 2406 4219 
Q 1781 4219 1451 3797 
Q 1122 3375 1075 2522 
Q 1259 2794 1537 2939 
Q 1816 3084 2150 3084 
Q 2853 3084 3261 2657 
Q 3669 2231 3669 1497 
Q 3669 778 3244 343 
Q 2819 -91 2113 -91 
Q 1303 -91 875 529 
Q 447 1150 447 2328 
Q 447 3434 972 4092 
Q 1497 4750 2381 4750 
Q 2619 4750 2861 4703 
Q 3103 4656 3366 4563 
z
" transform="scale(0.015625)"/>
        <path id="DejaVuSans-30" d="M 2034 4250 
Q 1547 4250 1301 3770 
Q 1056 3291 1056 2328 
Q 1056 1369 1301 889 
Q 1547 409 2034 409 
Q 2525 409 2770 889 
Q 3016 1369 3016 2328 
Q 3016 3291 2770 3770 
Q 2525 4250 2034 4250 
z
M 2034 4750 
Q 2819 4750 3233 4129 
Q 3647 3509 3647 2328 
Q 3647 1150 3233 529 
Q 2819 -91 2034 -91 
Q 1250 -91 836 529 
Q 422 1150 422 2328 
Q 422 3509 836 4129 
Q 1250 4750 2034 4750 
z
" transform="scale(0.015625)"/>
       </defs>
       <use xlink:href="#DejaVuSans-31"/>
       <use xlink:href="#DejaVuSans-39" transform="translate(63.623047 0)"/>
       <use xlink:href="#DejaVuSans-36" transform="translate(127.246094 0)"/>
       <use xlink:href="#DejaVuSans-30" transform="translate(190.869141 0)"/>
      </g>
     </g>
    </g>
    <g id="xtick_2">
     <g id="line2d_2">
      <g>
       <use xlink:href="#m911428a04f" x="134.586074" y="137.135464" style="stroke: #000000; stroke-width: 0.8"/>
      </g>
     </g>
     <g id="text_2">
      <!-- 1970 -->
      <g transform="translate(111.505884 163.440904) rotate(-30) scale(0.1 -0.1)">
       <defs>
        <path id="DejaVuSans-37" d="M 525 4666 
L 3525 4666 
L 3525 4397 
L 1831 0 
L 1172 0 
L 2766 4134 
L 525 4134 
L 525 4666 
z
" transform="scale(0.015625)"/>
       </defs>
       <use xlink:href="#DejaVuSans-31"/>
       <use xlink:href="#DejaVuSans-39" transform="translate(63.623047 0)"/>
       <use xlink:href="#DejaVuSans-37" transform="translate(127.246094 0)"/>
       <use xlink:href="#DejaVuSans-30" transform="translate(190.869141 0)"/>
      </g>
     </g>
    </g>
    <g id="xtick_3">
     <g id="line2d_3">
      <g>
       <use xlink:href="#m911428a04f" x="206.98893" y="137.135464" style="stroke: #000000; stroke-width: 0.8"/>
      </g>
     </g>
     <g id="text_3">
      <!-- 1980 -->
      <g transform="translate(183.90874 163.440904) rotate(-30) scale(0.1 -0.1)">
       <defs>
        <path id="DejaVuSans-38" d="M 2034 2216 
Q 1584 2216 1326 1975 
Q 1069 1734 1069 1313 
Q 1069 891 1326 650 
Q 1584 409 2034 409 
Q 2484 409 2743 651 
Q 3003 894 3003 1313 
Q 3003 1734 2745 1975 
Q 2488 2216 2034 2216 
z
M 1403 2484 
Q 997 2584 770 2862 
Q 544 3141 544 3541 
Q 544 4100 942 4425 
Q 1341 4750 2034 4750 
Q 2731 4750 3128 4425 
Q 3525 4100 3525 3541 
Q 3525 3141 3298 2862 
Q 3072 2584 2669 2484 
Q 3125 2378 3379 2068 
Q 3634 1759 3634 1313 
Q 3634 634 3220 271 
Q 2806 -91 2034 -91 
Q 1263 -91 848 271 
Q 434 634 434 1313 
Q 434 1759 690 2068 
Q 947 2378 1403 2484 
z
M 1172 3481 
Q 1172 3119 1398 2916 
Q 1625 2713 2034 2713 
Q 2441 2713 2670 2916 
Q 2900 3119 2900 3481 
Q 2900 3844 2670 4047 
Q 2441 4250 2034 4250 
Q 1625 4250 1398 4047 
Q 1172 3844 1172 3481 
z
" transform="scale(0.015625)"/>
       </defs>
       <use xlink:href="#DejaVuSans-31"/>
       <use xlink:href="#DejaVuSans-39" transform="translate(63.623047 0)"/>
       <use xlink:href="#DejaVuSans-38" transform="translate(127.246094 0)"/>
       <use xlink:href="#DejaVuSans-30" transform="translate(190.869141 0)"/>
      </g>
     </g>
    </g>
    <g id="xtick_4">
     <g id="line2d_4">
      <g>
       <use xlink:href="#m911428a04f" x="279.411612" y="137.135464" style="stroke: #000000; stroke-width: 0.8"/>
      </g>
     </g>
     <g id="text_4">
      <!-- 1990 -->
      <g transform="translate(256.331421 163.440904) rotate(-30) scale(0.1 -0.1)">
       <use xlink:href="#DejaVuSans-31"/>
       <use xlink:href="#DejaVuSans-39" transform="translate(63.623047 0)"/>
       <use xlink:href="#DejaVuSans-39" transform="translate(127.246094 0)"/>
       <use xlink:href="#DejaVuSans-30" transform="translate(190.869141 0)"/>
      </g>
     </g>
    </g>
    <g id="xtick_5">
     <g id="line2d_5">
      <g>
       <use xlink:href="#m911428a04f" x="351.814468" y="137.135464" style="stroke: #000000; stroke-width: 0.8"/>
      </g>
     </g>
     <g id="text_5">
      <!-- 2000 -->
      <g transform="translate(328.734277 163.440904) rotate(-30) scale(0.1 -0.1)">
       <defs>
        <path id="DejaVuSans-32" d="M 1228 531 
L 3431 531 
L 3431 0 
L 469 0 
L 469 531 
Q 828 903 1448 1529 
Q 2069 2156 2228 2338 
Q 2531 2678 2651 2914 
Q 2772 3150 2772 3378 
Q 2772 3750 2511 3984 
Q 2250 4219 1831 4219 
Q 1534 4219 1204 4116 
Q 875 4013 500 3803 
L 500 4441 
Q 881 4594 1212 4672 
Q 1544 4750 1819 4750 
Q 2544 4750 2975 4387 
Q 3406 4025 3406 3419 
Q 3406 3131 3298 2873 
Q 3191 2616 2906 2266 
Q 2828 2175 2409 1742 
Q 1991 1309 1228 531 
z
" transform="scale(0.015625)"/>
       </defs>
       <use xlink:href="#DejaVuSans-32"/>
       <use xlink:href="#DejaVuSans-30" transform="translate(63.623047 0)"/>
       <use xlink:href="#DejaVuSans-30" transform="translate(127.246094 0)"/>
       <use xlink:href="#DejaVuSans-30" transform="translate(190.869141 0)"/>
      </g>
     </g>
    </g>
    <g id="xtick_6">
     <g id="line2d_6">
      <g>
       <use xlink:href="#m911428a04f" x="424.237149" y="137.135464" style="stroke: #000000; stroke-width: 0.8"/>
      </g>
     </g>
     <g id="text_6">
      <!-- 2010 -->
      <g transform="translate(401.156959 163.440904) rotate(-30) scale(0.1 -0.1)">
       <use xlink:href="#DejaVuSans-32"/>
       <use xlink:href="#DejaVuSans-30" transform="translate(63.623047 0)"/>
       <use xlink:href="#DejaVuSans-31" transform="translate(127.246094 0)"/>
       <use xlink:href="#DejaVuSans-30" transform="translate(190.869141 0)"/>
      </g>
     </g>
    </g>
    <g id="xtick_7">
     <g id="line2d_7">
      <g>
       <use xlink:href="#m911428a04f" x="496.640005" y="137.135464" style="stroke: #000000; stroke-width: 0.8"/>
      </g>
     </g>
     <g id="text_7">
      <!-- 2020 -->
      <g transform="translate(473.559815 163.440904) rotate(-30) scale(0.1 -0.1)">
       <use xlink:href="#DejaVuSans-32"/>
       <use xlink:href="#DejaVuSans-30" transform="translate(63.623047 0)"/>
       <use xlink:href="#DejaVuSans-32" transform="translate(127.246094 0)"/>
       <use xlink:href="#DejaVuSans-30" transform="translate(190.869141 0)"/>
      </g>
     </g>
    </g>
   </g>
   <g id="matplotlib.axis_2">
    <g id="ytick_1">
     <g id="line2d_8">
      <path d="M 33.2875 112.177186 
L 561.6975 112.177186 
" clip-path="url(#pa5fc308a1f)" style="fill: none; stroke-dasharray: 2.96,1.28; stroke-dashoffset: 0; stroke: #dddddd; stroke-width: 0.8"/>
     </g>
     <g id="line2d_9">
      <defs>
       <path id="m413eedd8f2" d="M 0 0 
L -3.5 0 
" style="stroke: #bbbbbb; stroke-width: 0.8"/>
      </defs>
      <g>
       <use xlink:href="#m413eedd8f2" x="33.2875" y="112.177186" style="fill: #bbbbbb; stroke: #bbbbbb; stroke-width: 0.8"/>
      </g>
     </g>
     <g id="text_8">
      <!-- 60 -->
      <g style="fill: #bbbbbb" transform="translate(13.5625 115.976404) scale(0.1 -0.1)">
       <use xlink:href="#DejaVuSans-36"/>
       <use xlink:href="#DejaVuSans-30" transform="translate(63.623047 0)"/>
      </g>
     </g>
    </g>
    <g id="ytick_2">
     <g id="line2d_10">
      <path d="M 33.2875 74.072944 
L 561.6975 74.072944 
" clip-path="url(#pa5fc308a1f)" style="fill: none; stroke-dasharray: 2.96,1.28; stroke-dashoffset: 0; stroke: #dddddd; stroke-width: 0.8"/>
     </g>
     <g id="line2d_11">
      <g>
       <use xlink:href="#m413eedd8f2" x="33.2875" y="74.072944" style="fill: #bbbbbb; stroke: #bbbbbb; stroke-width: 0.8"/>
      </g>
     </g>
     <g id="text_9">
      <!-- 80 -->
      <g style="fill: #bbbbbb" transform="translate(13.5625 77.872163) scale(0.1 -0.1)">
       <use xlink:href="#DejaVuSans-38"/>
       <use xlink:href="#DejaVuSans-30" transform="translate(63.623047 0)"/>
      </g>
     </g>
    </g>
    <g id="ytick_3">
     <g id="line2d_12">
      <path d="M 33.2875 35.968702 
L 561.6975 35.968702 
" clip-path="url(#pa5fc308a1f)" style="fill: none; stroke-dasharray: 2.96,1.28; stroke-dashoffset: 0; stroke: #dddddd; stroke-width: 0.8"/>
     </g>
     <g id="line2d_13">
      <g>
       <use xlink:href="#m413eedd8f2" x="33.2875" y="35.968702" style="fill: #bbbbbb; stroke: #bbbbbb; stroke-width: 0.8"/>
      </g>
     </g>
     <g id="text_10">
      <!-- 100 -->
      <g style="fill: #bbbbbb" transform="translate(7.2 39.767921) scale(0.1 -0.1)">
       <use xlink:href="#DejaVuSans-31"/>
       <use xlink:href="#DejaVuSans-30" transform="translate(63.623047 0)"/>
       <use xlink:href="#DejaVuSans-30" transform="translate(127.246094 0)"/>
      </g>
     </g>
    </g>
   </g>
   <g id="line2d_14">
    <path d="M 57.306136 44.923199 
L 60.954035 47.781017 
L 62.777984 35.968702 
L 64.562282 48.733623 
L 66.386232 41.303296 
L 68.210181 54.830302 
L 70.03413 51.972484 
L 71.798603 50.257793 
L 73.622552 37.492872 
L 75.446501 49.305187 
L 77.270451 36.159224 
L 79.034923 44.732678 
L 80.858873 51.972484 
L 84.506771 39.017042 
L 86.271244 51.781963 
L 88.095193 42.827466 
L 89.919142 46.63789 
L 91.743092 36.921308 
L 93.52739 38.826521 
L 95.351339 34.825575 
L 97.175288 36.159224 
L 98.999238 32.158278 
L 100.76371 25.680557 
L 102.58766 29.490981 
L 104.411609 30.443587 
L 106.235558 35.968702 
L 109.82398 52.734569 
L 111.647929 58.259684 
L 113.471879 47.209454 
L 115.236351 43.780072 
L 117.060301 41.684339 
L 118.88425 49.495708 
L 120.708199 41.303296 
L 122.492497 50.448314 
L 124.316447 50.448314 
L 126.140396 51.781963 
L 127.964345 39.398084 
L 129.728818 52.163005 
L 131.552767 61.879587 
L 133.376716 74.644508 
L 135.200666 77.692847 
L 136.965138 82.83692 
L 138.789088 78.645453 
L 140.613037 88.552556 
L 142.436986 77.692847 
L 144.201459 73.691902 
L 146.025408 70.071999 
L 147.849357 70.26252 
L 149.673307 49.686229 
L 151.457605 57.68812 
L 153.281554 45.11372 
L 155.105503 53.687175 
L 156.929453 70.453041 
L 160.517875 89.314641 
L 162.341824 80.741186 
L 164.165773 108.747804 
L 165.930246 89.124119 
L 167.754195 103.794253 
L 169.578144 113.129792 
L 171.402094 116.749695 
L 173.166566 87.790471 
L 174.990516 82.265356 
L 176.814465 82.455877 
L 178.638414 65.308968 
L 180.422712 67.785744 
L 182.246662 55.592387 
L 184.070611 60.736459 
L 185.89456 60.545938 
L 187.659033 54.639781 
L 189.482982 56.926035 
L 191.306931 65.690011 
L 192.516289 67.023659 
L 193.130881 65.880532 
L 193.685996 76.359199 
L 194.300587 71.024605 
L 194.895353 68.547829 
L 195.509945 74.072944 
L 196.104711 69.500435 
L 196.719303 77.121283 
L 197.333894 73.310859 
L 197.92866 75.406593 
L 198.543252 83.599004 
L 199.138018 100.555392 
L 199.75261 89.124119 
L 200.367201 85.694738 
L 200.922316 96.173404 
L 201.536908 100.745913 
L 202.131674 96.744968 
L 202.746265 101.126956 
L 203.341031 111.415101 
L 203.955623 103.603731 
L 204.570215 99.412265 
L 205.164981 108.17624 
L 205.779572 105.889986 
L 206.374338 110.271974 
L 206.98893 98.840701 
L 207.603522 99.031222 
L 208.178462 118.845428 
L 208.793054 126.085234 
L 209.38782 127.990446 
L 210.002411 114.653961 
L 210.597178 107.795198 
L 211.211769 98.269137 
L 211.826361 86.07578 
L 212.421127 83.599004 
L 213.035718 80.360144 
L 213.630484 103.603731 
L 214.245076 90.457768 
L 214.859668 99.031222 
L 215.414783 99.793307 
L 216.029374 88.552556 
L 216.62414 81.122229 
L 217.238732 87.218907 
L 217.833498 85.313695 
L 218.44809 79.407538 
L 219.062681 87.218907 
L 219.657447 92.553501 
L 220.272039 107.414155 
L 220.866805 103.984774 
L 221.481397 91.219853 
L 222.651103 108.366762 
L 223.265695 101.698519 
L 223.860461 97.888095 
L 224.475052 101.317477 
L 225.069819 101.88904 
L 225.68441 101.88904 
L 226.893768 86.647344 
L 227.508359 89.124119 
L 228.103125 89.505162 
L 228.717717 92.36298 
L 229.332309 84.361089 
L 229.887424 72.548774 
L 230.502015 56.735514 
L 231.096781 48.733623 
L 231.711373 50.829357 
L 232.306139 49.686229 
L 232.920731 53.306132 
L 233.535322 55.211344 
L 234.130088 56.354472 
L 234.74468 52.92509 
L 235.339446 47.018932 
L 235.954038 35.778181 
L 236.568629 40.922254 
L 237.14357 34.06349 
L 237.758161 43.39903 
L 238.352927 39.588605 
L 238.967519 44.542157 
L 239.562285 42.446424 
L 240.176877 37.683393 
L 240.791468 34.254012 
L 241.386234 43.017987 
L 242.000826 44.161114 
L 242.595592 49.495708 
L 243.210184 43.589551 
L 243.824775 47.971539 
L 244.37989 47.971539 
L 244.994482 46.256848 
L 245.589248 51.591441 
L 246.203839 42.636945 
L 246.798606 47.399975 
L 247.413197 50.448314 
L 248.027789 51.019878 
L 248.622555 58.069163 
L 249.237146 53.306132 
L 249.831912 47.590496 
L 250.446504 44.351636 
L 251.061096 43.780072 
L 251.616211 45.304242 
L 252.230802 43.208508 
L 252.825568 45.875805 
L 253.44016 37.302351 
L 254.034926 40.35069 
L 255.264109 51.40092 
L 255.858875 44.351636 
L 256.473467 52.353526 
L 257.068233 56.735514 
L 257.682825 54.258738 
L 258.297416 54.639781 
L 258.852531 53.496654 
L 259.467123 49.686229 
L 260.061889 52.92509 
L 260.67648 52.163005 
L 261.271246 47.971539 
L 261.885838 46.63789 
L 262.50043 48.16206 
L 263.095196 56.354472 
L 263.709787 68.166787 
L 264.919145 53.496654 
L 265.533737 51.972484 
L 266.108677 46.256848 
L 266.723269 52.734569 
L 267.318035 45.875805 
L 267.932626 46.066326 
L 268.527393 48.543102 
L 269.141984 40.922254 
L 269.756576 41.112775 
L 270.351342 47.209454 
L 271.560699 51.40092 
L 272.175291 39.969648 
L 272.789883 44.732678 
L 273.344998 46.828411 
L 273.959589 52.163005 
L 274.554355 53.687175 
L 275.168947 53.877696 
L 275.763713 51.210399 
L 276.378305 55.782908 
L 276.992896 43.970593 
L 277.587662 47.590496 
L 278.202254 53.306132 
L 278.79702 54.068217 
L 279.411612 49.305187 
L 280.026203 55.973429 
L 280.581318 52.544048 
L 281.19591 47.590496 
L 281.790676 53.877696 
L 282.405267 58.259684 
L 283.000033 58.450205 
L 283.614625 80.931708 
L 284.229217 87.790471 
L 284.823983 104.746859 
L 285.438574 100.745913 
L 286.03334 101.698519 
L 286.647932 99.221744 
L 287.262524 92.36298 
L 287.817639 59.402811 
L 288.43223 70.643562 
L 289.026996 77.311805 
L 289.641588 70.071999 
L 290.236354 68.547829 
L 290.850946 70.26252 
L 291.465537 68.357308 
L 292.060303 77.311805 
L 292.674895 94.839756 
L 293.269661 96.554447 
L 293.884253 97.888095 
L 294.498844 95.411319 
L 295.073785 81.693792 
L 295.688376 79.407538 
L 296.283142 75.597114 
L 296.897734 73.310859 
L 297.4925 80.550665 
L 298.721683 82.455877 
L 299.316449 86.837865 
L 299.931041 63.97532 
L 300.525807 53.115611 
L 301.140399 56.354472 
L 301.75499 61.498544 
L 302.310105 62.832193 
L 302.924697 63.403756 
L 303.519463 73.50138 
L 304.134054 71.215126 
L 304.72882 79.78858 
L 305.343412 79.217017 
L 305.958004 78.073889 
L 306.55277 68.928871 
L 307.167361 71.78669 
L 308.376719 46.828411 
L 308.991311 48.924145 
L 309.546426 52.163005 
L 310.161017 50.067272 
L 310.755783 49.686229 
L 311.370375 52.734569 
L 311.965141 56.926035 
L 312.579733 51.781963 
L 313.194324 52.163005 
L 313.78909 49.876751 
L 314.403682 51.972484 
L 314.998448 45.304242 
L 315.61304 40.541211 
L 316.227631 45.304242 
L 316.782746 54.44926 
L 317.397338 50.257793 
L 317.992104 55.401866 
L 318.606695 49.876751 
L 319.816053 43.208508 
L 320.430645 57.116557 
L 321.025411 54.639781 
L 321.640002 58.450205 
L 322.234768 53.115611 
L 322.84936 56.354472 
L 323.463952 57.878641 
L 324.038892 47.971539 
L 324.653484 49.876751 
L 325.24825 56.16395 
L 325.862841 50.448314 
L 326.457607 46.066326 
L 327.072199 44.923199 
L 327.686791 46.066326 
L 328.281557 42.636945 
L 328.896148 37.492872 
L 329.490914 41.87486 
L 330.105506 40.922254 
L 330.720098 36.540266 
L 331.275213 35.968702 
L 331.889804 33.301406 
L 332.48457 29.872024 
L 333.099162 27.395248 
L 333.693928 22.441697 
L 334.30852 27.585769 
L 334.923111 24.53743 
L 335.517877 25.299515 
L 336.132469 22.251175 
L 336.727235 31.967757 
L 337.956418 16.154497 
L 338.511533 23.584824 
L 339.126125 19.393357 
L 339.720891 23.584824 
L 340.335482 25.299515 
L 340.930248 26.0616 
L 341.54484 27.585769 
L 342.754198 40.922254 
L 343.368789 30.82463 
L 343.963555 35.016096 
L 344.578147 28.538375 
L 345.192739 20.536485 
L 345.747854 25.108994 
L 346.362445 27.204727 
L 346.957211 23.01326 
L 347.571803 22.060654 
L 348.781161 27.395248 
L 349.395752 22.251175 
L 349.990518 29.872024 
L 350.60511 22.251175 
L 351.199876 25.680557 
L 351.814468 13.106157 
L 352.429059 14.439806 
L 353.004 22.441697 
L 353.618591 18.440751 
L 354.213357 15.582933 
L 354.827949 23.775345 
L 355.422715 20.155442 
L 356.037307 22.060654 
L 356.651898 23.01326 
L 357.246664 24.918472 
L 357.861256 21.489091 
L 358.456022 39.017042 
L 359.685205 53.877696 
L 360.24032 52.163005 
L 360.854912 58.069163 
L 361.449678 51.210399 
L 362.064269 50.067272 
L 362.659035 50.448314 
L 363.273627 52.163005 
L 363.888219 70.643562 
L 364.482985 68.928871 
L 365.097576 66.642617 
L 366.306934 49.305187 
L 366.921526 53.687175 
L 367.476641 44.161114 
L 368.091232 49.305187 
L 368.685998 41.87486 
L 369.895356 58.640726 
L 370.509948 59.593332 
L 371.124539 62.45115 
L 371.719305 72.929817 
L 372.333897 66.071053 
L 372.928663 61.308023 
L 373.543255 69.500435 
L 374.712961 78.645453 
L 375.327553 62.641672 
L 375.922319 51.019878 
L 376.53691 55.592387 
L 377.131676 53.306132 
L 378.36086 59.402811 
L 378.955626 55.782908 
L 379.570217 47.971539 
L 380.164983 50.067272 
L 380.779575 28.728897 
L 381.394167 46.63789 
L 381.969107 43.970593 
L 382.583699 47.018932 
L 383.178465 54.639781 
L 383.793056 44.351636 
L 384.387822 42.255902 
L 385.002414 43.780072 
L 385.617006 47.018932 
L 386.211772 51.781963 
L 386.826363 49.686229 
L 387.421129 41.493817 
L 389.205428 50.067272 
L 389.820019 59.402811 
L 390.414785 60.926981 
L 391.029377 43.589551 
L 391.624143 42.636945 
L 392.238735 56.735514 
L 392.853326 79.979101 
L 393.448092 85.123174 
L 394.062684 71.024605 
L 394.65745 52.163005 
L 395.272042 52.734569 
L 395.886633 61.308023 
L 396.441748 57.116557 
L 397.05634 59.974375 
L 397.651106 75.787635 
L 398.265697 64.737405 
L 398.860463 65.118447 
L 399.475055 70.26252 
L 400.089647 63.784799 
L 400.684413 48.16206 
L 401.299004 51.019878 
L 401.89377 51.781963 
L 402.508362 41.87486 
L 403.122954 52.544048 
L 403.678069 58.069163 
L 404.29266 60.545938 
L 404.887426 58.259684 
L 405.502018 63.97532 
L 406.096784 54.258738 
L 406.711376 67.595223 
L 407.325967 67.595223 
L 407.920733 72.358253 
L 408.535325 81.503271 
L 409.130091 82.646398 
L 409.744682 77.121283 
L 410.359274 91.600895 
L 410.934215 94.077671 
L 411.548806 107.223634 
L 412.758164 119.035949 
L 413.35293 109.890931 
L 413.967522 106.461549 
L 414.582113 92.553501 
L 415.176879 116.749695 
L 415.791471 121.131682 
L 416.386237 111.986664 
L 417.000829 109.890931 
L 417.61542 119.22647 
L 418.170535 117.321258 
L 418.785127 102.460604 
L 419.379893 95.601841 
L 419.994484 91.600895 
L 420.58925 100.745913 
L 421.203842 101.317477 
L 421.818434 86.456823 
L 423.027791 98.078616 
L 423.622557 88.362035 
L 424.237149 84.742132 
L 424.851741 86.266301 
L 425.406856 86.266301 
L 426.021447 88.933598 
L 426.616213 86.266301 
L 427.230805 81.693792 
L 427.825571 97.316531 
L 428.440163 95.220798 
L 429.054754 96.554447 
L 429.64952 97.507053 
L 430.264112 90.076726 
L 430.858878 84.55161 
L 431.473469 85.123174 
L 432.088061 78.835974 
L 432.643176 97.888095 
L 433.257768 93.506107 
L 433.852534 84.932653 
L 434.467125 90.267247 
L 435.676483 120.179076 
L 436.291075 113.129792 
L 436.885841 110.653016 
L 437.500432 105.127901 
L 438.095198 93.315586 
L 438.70979 83.599004 
L 439.324382 83.027441 
L 439.899322 81.31275 
L 440.513914 80.931708 
L 441.10868 75.406593 
L 441.723271 87.028386 
L 442.318037 88.743077 
L 442.932629 84.932653 
L 444.141987 69.119393 
L 444.756578 68.928871 
L 445.351344 87.59995 
L 445.965936 85.885259 
L 446.580528 78.645453 
L 447.135643 76.740241 
L 447.750234 80.931708 
L 448.345 65.49949 
L 448.959592 66.261575 
L 449.554358 64.356362 
L 450.16895 70.071999 
L 451.378307 87.028386 
L 451.992899 83.408483 
L 452.587665 69.309914 
L 453.202257 71.78669 
L 453.816848 71.024605 
L 454.371963 74.072944 
L 454.986555 66.261575 
L 455.581321 70.453041 
L 456.195912 69.309914 
L 456.790678 70.643562 
L 457.40527 69.309914 
L 459.229219 57.307078 
L 460.438577 39.588605 
L 461.608284 49.305187 
L 462.222875 43.780072 
L 462.817641 53.687175 
L 463.432233 43.39903 
L 464.026999 49.114666 
L 464.641591 51.40092 
L 465.256182 60.355417 
L 465.850948 55.020823 
L 467.060306 50.067272 
L 467.674897 51.210399 
L 468.289489 51.781963 
L 468.86443 53.115611 
L 469.479021 56.926035 
L 470.073787 46.066326 
L 470.688379 48.352581 
L 471.283145 55.020823 
L 471.897737 55.401866 
L 472.512328 52.734569 
L 473.107094 60.355417 
L 473.721686 47.781017 
L 474.316452 39.398084 
L 474.931044 38.826521 
L 475.545635 43.017987 
L 476.10075 41.87486 
L 477.310108 41.493817 
L 477.924699 45.494763 
L 478.519465 48.543102 
L 479.134057 42.065381 
L 479.748649 45.304242 
L 480.343415 34.635054 
L 480.958006 38.826521 
L 481.552772 43.780072 
L 482.167364 44.161114 
L 482.781956 36.540266 
L 483.337071 33.301406 
L 483.951662 38.254957 
L 484.546428 39.779127 
L 485.16102 39.398084 
L 485.755786 39.969648 
L 486.370378 43.208508 
L 486.984969 35.778181 
L 487.579735 38.635999 
L 488.194327 40.731733 
L 488.789093 39.207563 
L 489.403684 52.734569 
L 490.018276 47.781017 
L 490.573391 39.017042 
L 491.187983 41.303296 
L 491.782749 35.968702 
L 492.39734 39.398084 
L 492.992106 39.017042 
L 493.606698 55.401866 
L 494.22129 48.924145 
L 494.816056 44.542157 
L 495.430647 42.065381 
L 496.025413 37.302351 
L 496.640005 36.349745 
L 497.254597 34.06349 
L 497.829537 56.735514 
L 498.444129 89.695683 
L 499.038895 88.743077 
L 499.653486 77.692847 
L 500.248252 88.362035 
L 500.862844 85.313695 
L 501.477436 73.310859 
L 502.072202 70.643562 
L 502.686793 79.979101 
L 503.281559 72.739296 
L 503.896151 75.978156 
L 504.510743 80.169623 
L 505.065858 64.737405 
L 505.680449 58.259684 
L 506.275215 68.547829 
L 506.889807 63.594278 
L 507.484573 71.78669 
L 508.099165 92.553501 
L 508.713756 87.790471 
L 509.308522 89.886204 
L 509.923114 98.078616 
L 510.51788 91.981938 
L 511.132471 98.459659 
L 512.302178 113.320313 
L 512.91677 102.270083 
L 513.511536 115.225525 
L 514.126127 131.229306 
L 514.720893 128.371488 
L 515.335485 115.606567 
L 515.950077 114.844483 
L 516.544843 112.367707 
L 517.159434 118.464386 
L 517.7542 112.558228 
L 518.368792 102.841646 
L 518.983384 99.031222 
L 519.538499 108.366762 
L 520.15309 105.127901 
L 520.747856 114.082398 
L 521.362448 104.175295 
L 521.957214 90.267247 
L 522.571806 94.268192 
L 523.186397 97.316531 
L 523.781163 104.93738 
L 524.395755 109.70041 
L 525.605112 75.978156 
L 526.219704 79.979101 
L 526.794645 75.216071 
L 527.409236 79.407538 
L 528.004002 94.839756 
L 528.618594 96.554447 
L 529.21336 99.983828 
L 529.827952 97.12601 
L 530.442543 92.934544 
L 531.037309 92.172459 
L 531.651901 89.695683 
L 532.246667 85.504217 
L 532.861258 89.886204 
L 533.47585 103.222689 
L 534.030965 117.892822 
L 534.645557 127.03784 
L 535.240323 127.03784 
L 535.854914 110.843537 
L 536.44968 108.938325 
L 537.678864 121.512725 
L 537.678864 121.512725 
" clip-path="url(#pa5fc308a1f)" style="fill: none; stroke: #1f77b4; stroke-width: 1.5; stroke-linecap: square"/>
   </g>
   <g id="patch_3">
    <path d="M 33.2875 137.135464 
L 33.2875 7.2 
" style="fill: none"/>
   </g>
   <g id="patch_4">
    <path d="M 561.6975 137.135464 
L 561.6975 7.2 
" style="fill: none"/>
   </g>
   <g id="patch_5">
    <path d="M 33.2875 137.135464 
L 561.6975 137.135464 
" style="fill: none; stroke: #000000; stroke-width: 0.8; stroke-linejoin: miter; stroke-linecap: square"/>
   </g>
   <g id="patch_6">
    <path d="M 33.2875 7.2 
L 561.6975 7.2 
" style="fill: none"/>
   </g>
   <g id="legend_1">
    <g id="patch_7">
     <path d="M 467.592812 29.878125 
L 554.6975 29.878125 
Q 556.6975 29.878125 556.6975 27.878125 
L 556.6975 14.2 
Q 556.6975 12.2 554.6975 12.2 
L 467.592812 12.2 
Q 465.592812 12.2 465.592812 14.2 
L 465.592812 27.878125 
Q 465.592812 29.878125 467.592812 29.878125 
L 467.592812 29.878125 
z
" style="fill: none; opacity: 0"/>
    </g>
    <g id="line2d_15">
     <path d="M 469.592812 20.298437 
L 479.592812 20.298437 
L 489.592812 20.298437 
" style="fill: none; stroke: #1f77b4; stroke-width: 1.5; stroke-linecap: square"/>
    </g>
    <g id="text_11">
     <!-- UMCSENTx -->
     <g transform="translate(497.592812 23.798437) scale(0.1 -0.1)">
      <defs>
       <path id="DejaVuSans-55" d="M 556 4666 
L 1191 4666 
L 1191 1831 
Q 1191 1081 1462 751 
Q 1734 422 2344 422 
Q 2950 422 3222 751 
Q 3494 1081 3494 1831 
L 3494 4666 
L 4128 4666 
L 4128 1753 
Q 4128 841 3676 375 
Q 3225 -91 2344 -91 
Q 1459 -91 1007 375 
Q 556 841 556 1753 
L 556 4666 
z
" transform="scale(0.015625)"/>
       <path id="DejaVuSans-4d" d="M 628 4666 
L 1569 4666 
L 2759 1491 
L 3956 4666 
L 4897 4666 
L 4897 0 
L 4281 0 
L 4281 4097 
L 3078 897 
L 2444 897 
L 1241 4097 
L 1241 0 
L 628 0 
L 628 4666 
z
" transform="scale(0.015625)"/>
       <path id="DejaVuSans-43" d="M 4122 4306 
L 4122 3641 
Q 3803 3938 3442 4084 
Q 3081 4231 2675 4231 
Q 1875 4231 1450 3742 
Q 1025 3253 1025 2328 
Q 1025 1406 1450 917 
Q 1875 428 2675 428 
Q 3081 428 3442 575 
Q 3803 722 4122 1019 
L 4122 359 
Q 3791 134 3420 21 
Q 3050 -91 2638 -91 
Q 1578 -91 968 557 
Q 359 1206 359 2328 
Q 359 3453 968 4101 
Q 1578 4750 2638 4750 
Q 3056 4750 3426 4639 
Q 3797 4528 4122 4306 
z
" transform="scale(0.015625)"/>
       <path id="DejaVuSans-53" d="M 3425 4513 
L 3425 3897 
Q 3066 4069 2747 4153 
Q 2428 4238 2131 4238 
Q 1616 4238 1336 4038 
Q 1056 3838 1056 3469 
Q 1056 3159 1242 3001 
Q 1428 2844 1947 2747 
L 2328 2669 
Q 3034 2534 3370 2195 
Q 3706 1856 3706 1288 
Q 3706 609 3251 259 
Q 2797 -91 1919 -91 
Q 1588 -91 1214 -16 
Q 841 59 441 206 
L 441 856 
Q 825 641 1194 531 
Q 1563 422 1919 422 
Q 2459 422 2753 634 
Q 3047 847 3047 1241 
Q 3047 1584 2836 1778 
Q 2625 1972 2144 2069 
L 1759 2144 
Q 1053 2284 737 2584 
Q 422 2884 422 3419 
Q 422 4038 858 4394 
Q 1294 4750 2059 4750 
Q 2388 4750 2728 4690 
Q 3069 4631 3425 4513 
z
" transform="scale(0.015625)"/>
       <path id="DejaVuSans-45" d="M 628 4666 
L 3578 4666 
L 3578 4134 
L 1259 4134 
L 1259 2753 
L 3481 2753 
L 3481 2222 
L 1259 2222 
L 1259 531 
L 3634 531 
L 3634 0 
L 628 0 
L 628 4666 
z
" transform="scale(0.015625)"/>
       <path id="DejaVuSans-4e" d="M 628 4666 
L 1478 4666 
L 3547 763 
L 3547 4666 
L 4159 4666 
L 4159 0 
L 3309 0 
L 1241 3903 
L 1241 0 
L 628 0 
L 628 4666 
z
" transform="scale(0.015625)"/>
       <path id="DejaVuSans-54" d="M -19 4666 
L 3928 4666 
L 3928 4134 
L 2272 4134 
L 2272 0 
L 1638 0 
L 1638 4134 
L -19 4134 
L -19 4666 
z
" transform="scale(0.015625)"/>
       <path id="DejaVuSans-78" d="M 3513 3500 
L 2247 1797 
L 3578 0 
L 2900 0 
L 1881 1375 
L 863 0 
L 184 0 
L 1544 1831 
L 300 3500 
L 978 3500 
L 1906 2253 
L 2834 3500 
L 3513 3500 
z
" transform="scale(0.015625)"/>
      </defs>
      <use xlink:href="#DejaVuSans-55"/>
      <use xlink:href="#DejaVuSans-4d" transform="translate(73.193359 0)"/>
      <use xlink:href="#DejaVuSans-43" transform="translate(159.472656 0)"/>
      <use xlink:href="#DejaVuSans-53" transform="translate(229.296875 0)"/>
      <use xlink:href="#DejaVuSans-45" transform="translate(292.773438 0)"/>
      <use xlink:href="#DejaVuSans-4e" transform="translate(355.957031 0)"/>
      <use xlink:href="#DejaVuSans-54" transform="translate(430.761719 0)"/>
      <use xlink:href="#DejaVuSans-78" transform="translate(491.845703 0)"/>
     </g>
    </g>
   </g>
  </g>
 </g>
 <defs>
  <clipPath id="pa5fc308a1f">
   <rect x="33.2875" y="7.2" width="528.41" height="129.935464"/>
  </clipPath>
 </defs>
</svg>
