<?xml version="1.0" encoding="utf-8" standalone="no"?>
<!DOCTYPE svg PUBLIC "-//W3C//DTD SVG 1.1//EN"
  "http://www.w3.org/Graphics/SVG/1.1/DTD/svg11.dtd">
<svg xmlns:xlink="http://www.w3.org/1999/xlink" width="568.886562pt" height="172.398125pt" viewBox="0 0 568.886562 172.398125" xmlns="http://www.w3.org/2000/svg" version="1.1">
 <metadata>
  <rdf:RDF xmlns:dc="http://purl.org/dc/elements/1.1/" xmlns:cc="http://creativecommons.org/ns#" xmlns:rdf="http://www.w3.org/1999/02/22-rdf-syntax-ns#">
   <cc:Work>
    <dc:type rdf:resource="http://purl.org/dc/dcmitype/StillImage"/>
    <dc:date>2025-11-20T09:06:41.061959</dc:date>
    <dc:format>image/svg+xml</dc:format>
    <dc:creator>
     <cc:Agent>
      <dc:title>Matplotlib v3.10.7, https://matplotlib.org/</dc:title>
     </cc:Agent>
    </dc:creator>
   </cc:Work>
  </rdf:RDF>
 </metadata>
 <defs>
  <style type="text/css">*{stroke-linejoin: round; stroke-linecap: butt}</style>
 </defs>
 <g id="figure_1">
  <g id="patch_1">
   <path d="M 0 172.398125 
L 568.886562 172.398125 
L 568.886562 0 
L 0 0 
L 0 172.398125 
z
" style="fill: none"/>
  </g>
  <g id="axes_1">
   <g id="patch_2">
    <path d="M 36.426563 148.52 
L 561.686562 148.52 
L 561.686562 7.2 
L 36.426563 7.2 
L 36.426563 148.52 
z
" style="fill: none"/>
   </g>
   <g id="matplotlib.axis_1">
    <g id="xtick_1">
     <g id="line2d_1">
      <defs>
       <path id="m05b876cfd5" d="M 0 0 
L 0 3.5 
" style="stroke: #000000; stroke-width: 0.8"/>
      </defs>
      <g>
       <use xlink:href="#m05b876cfd5" x="36.426563" y="148.52" style="stroke: #000000; stroke-width: 0.8"/>
      </g>
     </g>
     <g id="text_1">
      <!-- 1959 -->
      <g transform="translate(23.701563 163.118437) scale(0.1 -0.1)">
       <defs>
        <path id="DejaVuSans-31" d="M 794 531 
L 1825 531 
L 1825 4091 
L 703 3866 
L 703 4441 
L 1819 4666 
L 2450 4666 
L 2450 531 
L 3481 531 
L 3481 0 
L 794 0 
L 794 531 
z
" transform="scale(0.015625)"/>
        <path id="DejaVuSans-39" d="M 703 97 
L 703 672 
Q 941 559 1184 500 
Q 1428 441 1663 441 
Q 2288 441 2617 861 
Q 2947 1281 2994 2138 
Q 2813 1869 2534 1725 
Q 2256 1581 1919 1581 
Q 1219 1581 811 2004 
Q 403 2428 403 3163 
Q 403 3881 828 4315 
Q 1253 4750 1959 4750 
Q 2769 4750 3195 4129 
Q 3622 3509 3622 2328 
Q 3622 1225 3098 567 
Q 2575 -91 1691 -91 
Q 1453 -91 1209 -44 
Q 966 3 703 97 
z
M 1959 2075 
Q 2384 2075 2632 2365 
Q 2881 2656 2881 3163 
Q 2881 3666 2632 3958 
Q 2384 4250 1959 4250 
Q 1534 4250 1286 3958 
Q 1038 3666 1038 3163 
Q 1038 2656 1286 2365 
Q 1534 2075 1959 2075 
z
" transform="scale(0.015625)"/>
        <path id="DejaVuSans-35" d="M 691 4666 
L 3169 4666 
L 3169 4134 
L 1269 4134 
L 1269 2991 
Q 1406 3038 1543 3061 
Q 1681 3084 1819 3084 
Q 2600 3084 3056 2656 
Q 3513 2228 3513 1497 
Q 3513 744 3044 326 
Q 2575 -91 1722 -91 
Q 1428 -91 1123 -41 
Q 819 9 494 109 
L 494 744 
Q 775 591 1075 516 
Q 1375 441 1709 441 
Q 2250 441 2565 725 
Q 2881 1009 2881 1497 
Q 2881 1984 2565 2268 
Q 2250 2553 1709 2553 
Q 1456 2553 1204 2497 
Q 953 2441 691 2322 
L 691 4666 
z
" transform="scale(0.015625)"/>
       </defs>
       <use xlink:href="#DejaVuSans-31"/>
       <use xlink:href="#DejaVuSans-39" transform="translate(63.623047 0)"/>
       <use xlink:href="#DejaVuSans-35" transform="translate(127.246094 0)"/>
       <use xlink:href="#DejaVuSans-39" transform="translate(190.869141 0)"/>
      </g>
     </g>
    </g>
    <g id="xtick_2">
     <g id="line2d_2">
      <g>
       <use xlink:href="#m05b876cfd5" x="115.215562" y="148.52" style="stroke: #000000; stroke-width: 0.8"/>
      </g>
     </g>
     <g id="text_2">
      <!-- 1969 -->
      <g transform="translate(102.490562 163.118437) scale(0.1 -0.1)">
       <defs>
        <path id="DejaVuSans-36" d="M 2113 2584 
Q 1688 2584 1439 2293 
Q 1191 2003 1191 1497 
Q 1191 994 1439 701 
Q 1688 409 2113 409 
Q 2538 409 2786 701 
Q 3034 994 3034 1497 
Q 3034 2003 2786 2293 
Q 2538 2584 2113 2584 
z
M 3366 4563 
L 3366 3988 
Q 3128 4100 2886 4159 
Q 2644 4219 2406 4219 
Q 1781 4219 1451 3797 
Q 1122 3375 1075 2522 
Q 1259 2794 1537 2939 
Q 1816 3084 2150 3084 
Q 2853 3084 3261 2657 
Q 3669 2231 3669 1497 
Q 3669 778 3244 343 
Q 2819 -91 2113 -91 
Q 1303 -91 875 529 
Q 447 1150 447 2328 
Q 447 3434 972 4092 
Q 1497 4750 2381 4750 
Q 2619 4750 2861 4703 
Q 3103 4656 3366 4563 
z
" transform="scale(0.015625)"/>
       </defs>
       <use xlink:href="#DejaVuSans-31"/>
       <use xlink:href="#DejaVuSans-39" transform="translate(63.623047 0)"/>
       <use xlink:href="#DejaVuSans-36" transform="translate(127.246094 0)"/>
       <use xlink:href="#DejaVuSans-39" transform="translate(190.869141 0)"/>
      </g>
     </g>
    </g>
    <g id="xtick_3">
     <g id="line2d_3">
      <g>
       <use xlink:href="#m05b876cfd5" x="194.004562" y="148.52" style="stroke: #000000; stroke-width: 0.8"/>
      </g>
     </g>
     <g id="text_3">
      <!-- 1979 -->
      <g transform="translate(181.279562 163.118437) scale(0.1 -0.1)">
       <defs>
        <path id="DejaVuSans-37" d="M 525 4666 
L 3525 4666 
L 3525 4397 
L 1831 0 
L 1172 0 
L 2766 4134 
L 525 4134 
L 525 4666 
z
" transform="scale(0.015625)"/>
       </defs>
       <use xlink:href="#DejaVuSans-31"/>
       <use xlink:href="#DejaVuSans-39" transform="translate(63.623047 0)"/>
       <use xlink:href="#DejaVuSans-37" transform="translate(127.246094 0)"/>
       <use xlink:href="#DejaVuSans-39" transform="translate(190.869141 0)"/>
      </g>
     </g>
    </g>
    <g id="xtick_4">
     <g id="line2d_4">
      <g>
       <use xlink:href="#m05b876cfd5" x="272.793563" y="148.52" style="stroke: #000000; stroke-width: 0.8"/>
      </g>
     </g>
     <g id="text_4">
      <!-- 1989 -->
      <g transform="translate(260.068562 163.118437) scale(0.1 -0.1)">
       <defs>
        <path id="DejaVuSans-38" d="M 2034 2216 
Q 1584 2216 1326 1975 
Q 1069 1734 1069 1313 
Q 1069 891 1326 650 
Q 1584 409 2034 409 
Q 2484 409 2743 651 
Q 3003 894 3003 1313 
Q 3003 1734 2745 1975 
Q 2488 2216 2034 2216 
z
M 1403 2484 
Q 997 2584 770 2862 
Q 544 3141 544 3541 
Q 544 4100 942 4425 
Q 1341 4750 2034 4750 
Q 2731 4750 3128 4425 
Q 3525 4100 3525 3541 
Q 3525 3141 3298 2862 
Q 3072 2584 2669 2484 
Q 3125 2378 3379 2068 
Q 3634 1759 3634 1313 
Q 3634 634 3220 271 
Q 2806 -91 2034 -91 
Q 1263 -91 848 271 
Q 434 634 434 1313 
Q 434 1759 690 2068 
Q 947 2378 1403 2484 
z
M 1172 3481 
Q 1172 3119 1398 2916 
Q 1625 2713 2034 2713 
Q 2441 2713 2670 2916 
Q 2900 3119 2900 3481 
Q 2900 3844 2670 4047 
Q 2441 4250 2034 4250 
Q 1625 4250 1398 4047 
Q 1172 3844 1172 3481 
z
" transform="scale(0.015625)"/>
       </defs>
       <use xlink:href="#DejaVuSans-31"/>
       <use xlink:href="#DejaVuSans-39" transform="translate(63.623047 0)"/>
       <use xlink:href="#DejaVuSans-38" transform="translate(127.246094 0)"/>
       <use xlink:href="#DejaVuSans-39" transform="translate(190.869141 0)"/>
      </g>
     </g>
    </g>
    <g id="xtick_5">
     <g id="line2d_5">
      <g>
       <use xlink:href="#m05b876cfd5" x="351.582562" y="148.52" style="stroke: #000000; stroke-width: 0.8"/>
      </g>
     </g>
     <g id="text_5">
      <!-- 1999 -->
      <g transform="translate(338.857562 163.118437) scale(0.1 -0.1)">
       <use xlink:href="#DejaVuSans-31"/>
       <use xlink:href="#DejaVuSans-39" transform="translate(63.623047 0)"/>
       <use xlink:href="#DejaVuSans-39" transform="translate(127.246094 0)"/>
       <use xlink:href="#DejaVuSans-39" transform="translate(190.869141 0)"/>
      </g>
     </g>
    </g>
    <g id="xtick_6">
     <g id="line2d_6">
      <g>
       <use xlink:href="#m05b876cfd5" x="430.371562" y="148.52" style="stroke: #000000; stroke-width: 0.8"/>
      </g>
     </g>
     <g id="text_6">
      <!-- 2009 -->
      <g transform="translate(417.646562 163.118437) scale(0.1 -0.1)">
       <defs>
        <path id="DejaVuSans-32" d="M 1228 531 
L 3431 531 
L 3431 0 
L 469 0 
L 469 531 
Q 828 903 1448 1529 
Q 2069 2156 2228 2338 
Q 2531 2678 2651 2914 
Q 2772 3150 2772 3378 
Q 2772 3750 2511 3984 
Q 2250 4219 1831 4219 
Q 1534 4219 1204 4116 
Q 875 4013 500 3803 
L 500 4441 
Q 881 4594 1212 4672 
Q 1544 4750 1819 4750 
Q 2544 4750 2975 4387 
Q 3406 4025 3406 3419 
Q 3406 3131 3298 2873 
Q 3191 2616 2906 2266 
Q 2828 2175 2409 1742 
Q 1991 1309 1228 531 
z
" transform="scale(0.015625)"/>
        <path id="DejaVuSans-30" d="M 2034 4250 
Q 1547 4250 1301 3770 
Q 1056 3291 1056 2328 
Q 1056 1369 1301 889 
Q 1547 409 2034 409 
Q 2525 409 2770 889 
Q 3016 1369 3016 2328 
Q 3016 3291 2770 3770 
Q 2525 4250 2034 4250 
z
M 2034 4750 
Q 2819 4750 3233 4129 
Q 3647 3509 3647 2328 
Q 3647 1150 3233 529 
Q 2819 -91 2034 -91 
Q 1250 -91 836 529 
Q 422 1150 422 2328 
Q 422 3509 836 4129 
Q 1250 4750 2034 4750 
z
" transform="scale(0.015625)"/>
       </defs>
       <use xlink:href="#DejaVuSans-32"/>
       <use xlink:href="#DejaVuSans-30" transform="translate(63.623047 0)"/>
       <use xlink:href="#DejaVuSans-30" transform="translate(127.246094 0)"/>
       <use xlink:href="#DejaVuSans-39" transform="translate(190.869141 0)"/>
      </g>
     </g>
    </g>
    <g id="xtick_7">
     <g id="line2d_7">
      <g>
       <use xlink:href="#m05b876cfd5" x="509.160562" y="148.52" style="stroke: #000000; stroke-width: 0.8"/>
      </g>
     </g>
     <g id="text_7">
      <!-- 2019 -->
      <g transform="translate(496.435562 163.118437) scale(0.1 -0.1)">
       <use xlink:href="#DejaVuSans-32"/>
       <use xlink:href="#DejaVuSans-30" transform="translate(63.623047 0)"/>
       <use xlink:href="#DejaVuSans-31" transform="translate(127.246094 0)"/>
       <use xlink:href="#DejaVuSans-39" transform="translate(190.869141 0)"/>
      </g>
     </g>
    </g>
    <g id="xtick_8">
     <g id="line2d_8">
      <defs>
       <path id="m5d67a3434e" d="M 0 0 
L 0 2 
" style="stroke: #000000; stroke-width: 0.6"/>
      </defs>
      <g>
       <use xlink:href="#m5d67a3434e" x="75.821062" y="148.52" style="stroke: #000000; stroke-width: 0.6"/>
      </g>
     </g>
    </g>
    <g id="xtick_9">
     <g id="line2d_9">
      <g>
       <use xlink:href="#m5d67a3434e" x="154.610062" y="148.52" style="stroke: #000000; stroke-width: 0.6"/>
      </g>
     </g>
    </g>
    <g id="xtick_10">
     <g id="line2d_10">
      <g>
       <use xlink:href="#m5d67a3434e" x="233.399062" y="148.52" style="stroke: #000000; stroke-width: 0.6"/>
      </g>
     </g>
    </g>
    <g id="xtick_11">
     <g id="line2d_11">
      <g>
       <use xlink:href="#m5d67a3434e" x="312.188063" y="148.52" style="stroke: #000000; stroke-width: 0.6"/>
      </g>
     </g>
    </g>
    <g id="xtick_12">
     <g id="line2d_12">
      <g>
       <use xlink:href="#m5d67a3434e" x="390.977062" y="148.52" style="stroke: #000000; stroke-width: 0.6"/>
      </g>
     </g>
    </g>
    <g id="xtick_13">
     <g id="line2d_13">
      <g>
       <use xlink:href="#m5d67a3434e" x="469.766062" y="148.52" style="stroke: #000000; stroke-width: 0.6"/>
      </g>
     </g>
    </g>
    <g id="xtick_14">
     <g id="line2d_14">
      <g>
       <use xlink:href="#m5d67a3434e" x="548.555062" y="148.52" style="stroke: #000000; stroke-width: 0.6"/>
      </g>
     </g>
    </g>
   </g>
   <g id="matplotlib.axis_2">
    <g id="ytick_1">
     <g id="line2d_15">
      <path d="M 36.426563 135.334641 
L 561.686562 135.334641 
" clip-path="url(#pab31bed21b)" style="fill: none; stroke-dasharray: 2.96,1.28; stroke-dashoffset: 0; stroke: #dddddd; stroke-width: 0.8"/>
     </g>
     <g id="line2d_16">
      <defs>
       <path id="m03b3f5bd12" d="M 0 0 
L -3.5 0 
" style="stroke: #bbbbbb; stroke-width: 0.8"/>
      </defs>
      <g>
       <use xlink:href="#m03b3f5bd12" x="36.426563" y="135.334641" style="fill: #bbbbbb; stroke: #bbbbbb; stroke-width: 0.8"/>
      </g>
     </g>
     <g id="text_8">
      <!-- 4% -->
      <g style="fill: #bbbbbb" transform="translate(13.5625 139.13386) scale(0.1 -0.1)">
       <defs>
        <path id="DejaVuSans-34" d="M 2419 4116 
L 825 1625 
L 2419 1625 
L 2419 4116 
z
M 2253 4666 
L 3047 4666 
L 3047 1625 
L 3713 1625 
L 3713 1100 
L 3047 1100 
L 3047 0 
L 2419 0 
L 2419 1100 
L 313 1100 
L 313 1709 
L 2253 4666 
z
" transform="scale(0.015625)"/>
        <path id="DejaVuSans-25" d="M 4653 2053 
Q 4381 2053 4226 1822 
Q 4072 1591 4072 1178 
Q 4072 772 4226 539 
Q 4381 306 4653 306 
Q 4919 306 5073 539 
Q 5228 772 5228 1178 
Q 5228 1588 5073 1820 
Q 4919 2053 4653 2053 
z
M 4653 2450 
Q 5147 2450 5437 2106 
Q 5728 1763 5728 1178 
Q 5728 594 5436 251 
Q 5144 -91 4653 -91 
Q 4153 -91 3862 251 
Q 3572 594 3572 1178 
Q 3572 1766 3864 2108 
Q 4156 2450 4653 2450 
z
M 1428 4353 
Q 1159 4353 1004 4120 
Q 850 3888 850 3481 
Q 850 3069 1003 2837 
Q 1156 2606 1428 2606 
Q 1700 2606 1854 2837 
Q 2009 3069 2009 3481 
Q 2009 3884 1853 4118 
Q 1697 4353 1428 4353 
z
M 4250 4750 
L 4750 4750 
L 1831 -91 
L 1331 -91 
L 4250 4750 
z
M 1428 4750 
Q 1922 4750 2215 4408 
Q 2509 4066 2509 3481 
Q 2509 2891 2217 2550 
Q 1925 2209 1428 2209 
Q 931 2209 642 2551 
Q 353 2894 353 3481 
Q 353 4063 643 4406 
Q 934 4750 1428 4750 
z
" transform="scale(0.015625)"/>
       </defs>
       <use xlink:href="#DejaVuSans-34"/>
       <use xlink:href="#DejaVuSans-25" transform="translate(63.623047 0)"/>
      </g>
     </g>
    </g>
    <g id="ytick_2">
     <g id="line2d_17">
      <path d="M 36.426563 112.795566 
L 561.686562 112.795566 
" clip-path="url(#pab31bed21b)" style="fill: none; stroke-dasharray: 2.96,1.28; stroke-dashoffset: 0; stroke: #dddddd; stroke-width: 0.8"/>
     </g>
     <g id="line2d_18">
      <g>
       <use xlink:href="#m03b3f5bd12" x="36.426563" y="112.795566" style="fill: #bbbbbb; stroke: #bbbbbb; stroke-width: 0.8"/>
      </g>
     </g>
     <g id="text_9">
      <!-- 6% -->
      <g style="fill: #bbbbbb" transform="translate(13.5625 116.594785) scale(0.1 -0.1)">
       <use xlink:href="#DejaVuSans-36"/>
       <use xlink:href="#DejaVuSans-25" transform="translate(63.623047 0)"/>
      </g>
     </g>
    </g>
    <g id="ytick_3">
     <g id="line2d_19">
      <path d="M 36.426563 90.256491 
L 561.686562 90.256491 
" clip-path="url(#pab31bed21b)" style="fill: none; stroke-dasharray: 2.96,1.28; stroke-dashoffset: 0; stroke: #dddddd; stroke-width: 0.8"/>
     </g>
     <g id="line2d_20">
      <g>
       <use xlink:href="#m03b3f5bd12" x="36.426563" y="90.256491" style="fill: #bbbbbb; stroke: #bbbbbb; stroke-width: 0.8"/>
      </g>
     </g>
     <g id="text_10">
      <!-- 8% -->
      <g style="fill: #bbbbbb" transform="translate(13.5625 94.05571) scale(0.1 -0.1)">
       <use xlink:href="#DejaVuSans-38"/>
       <use xlink:href="#DejaVuSans-25" transform="translate(63.623047 0)"/>
      </g>
     </g>
    </g>
    <g id="ytick_4">
     <g id="line2d_21">
      <path d="M 36.426563 67.717416 
L 561.686562 67.717416 
" clip-path="url(#pab31bed21b)" style="fill: none; stroke-dasharray: 2.96,1.28; stroke-dashoffset: 0; stroke: #dddddd; stroke-width: 0.8"/>
     </g>
     <g id="line2d_22">
      <g>
       <use xlink:href="#m03b3f5bd12" x="36.426563" y="67.717416" style="fill: #bbbbbb; stroke: #bbbbbb; stroke-width: 0.8"/>
      </g>
     </g>
     <g id="text_11">
      <!-- 10% -->
      <g style="fill: #bbbbbb" transform="translate(7.2 71.516635) scale(0.1 -0.1)">
       <use xlink:href="#DejaVuSans-31"/>
       <use xlink:href="#DejaVuSans-30" transform="translate(63.623047 0)"/>
       <use xlink:href="#DejaVuSans-25" transform="translate(127.246094 0)"/>
      </g>
     </g>
    </g>
    <g id="ytick_5">
     <g id="line2d_23">
      <path d="M 36.426563 45.178341 
L 561.686562 45.178341 
" clip-path="url(#pab31bed21b)" style="fill: none; stroke-dasharray: 2.96,1.28; stroke-dashoffset: 0; stroke: #dddddd; stroke-width: 0.8"/>
     </g>
     <g id="line2d_24">
      <g>
       <use xlink:href="#m03b3f5bd12" x="36.426563" y="45.178341" style="fill: #bbbbbb; stroke: #bbbbbb; stroke-width: 0.8"/>
      </g>
     </g>
     <g id="text_12">
      <!-- 12% -->
      <g style="fill: #bbbbbb" transform="translate(7.2 48.97756) scale(0.1 -0.1)">
       <use xlink:href="#DejaVuSans-31"/>
       <use xlink:href="#DejaVuSans-32" transform="translate(63.623047 0)"/>
       <use xlink:href="#DejaVuSans-25" transform="translate(127.246094 0)"/>
      </g>
     </g>
    </g>
    <g id="ytick_6">
     <g id="line2d_25">
      <path d="M 36.426563 22.639266 
L 561.686562 22.639266 
" clip-path="url(#pab31bed21b)" style="fill: none; stroke-dasharray: 2.96,1.28; stroke-dashoffset: 0; stroke: #dddddd; stroke-width: 0.8"/>
     </g>
     <g id="line2d_26">
      <g>
       <use xlink:href="#m03b3f5bd12" x="36.426563" y="22.639266" style="fill: #bbbbbb; stroke: #bbbbbb; stroke-width: 0.8"/>
      </g>
     </g>
     <g id="text_13">
      <!-- 14% -->
      <g style="fill: #bbbbbb" transform="translate(7.2 26.438485) scale(0.1 -0.1)">
       <use xlink:href="#DejaVuSans-31"/>
       <use xlink:href="#DejaVuSans-34" transform="translate(63.623047 0)"/>
       <use xlink:href="#DejaVuSans-25" transform="translate(127.246094 0)"/>
      </g>
     </g>
    </g>
   </g>
   <g id="line2d_27">
    <path d="M 36.426563 112.795566 
L 37.083138 113.92252 
L 37.739713 117.303381 
L 38.396287 121.811196 
L 39.709438 124.065104 
L 41.022588 121.811196 
L 41.679163 118.430335 
L 42.335738 116.176427 
L 42.992312 115.049474 
L 43.648888 120.684242 
L 44.305463 121.811196 
L 44.962038 126.319011 
L 45.618612 119.557289 
L 46.275188 121.811196 
L 46.931763 122.93815 
L 47.588338 119.557289 
L 48.901488 117.303381 
L 49.558063 118.430335 
L 50.214637 111.668612 
L 50.871212 111.668612 
L 51.527788 106.033844 
L 52.184363 106.033844 
L 52.840937 102.652982 
L 53.497512 102.652982 
L 54.810663 100.399075 
L 55.467237 102.652982 
L 56.123812 101.526029 
L 56.780388 106.033844 
L 57.436963 104.90689 
L 58.093537 107.160797 
L 58.750113 111.668612 
L 59.406688 112.795566 
L 60.063263 115.049474 
L 60.719837 118.430335 
L 61.376413 117.303381 
L 62.032987 117.303381 
L 62.689563 118.430335 
L 63.346137 118.430335 
L 64.002713 119.557289 
L 64.659288 116.176427 
L 65.315863 117.303381 
L 65.972437 119.557289 
L 66.629013 116.176427 
L 67.285587 118.430335 
L 68.598737 113.92252 
L 69.255313 116.176427 
L 69.911888 116.176427 
L 70.568462 113.92252 
L 71.225037 117.303381 
L 71.881612 117.303381 
L 72.538187 119.557289 
L 73.194762 118.430335 
L 73.851337 118.430335 
L 74.507913 116.176427 
L 75.164488 118.430335 
L 75.821062 117.303381 
L 76.477638 119.557289 
L 77.134212 119.557289 
L 77.790787 120.684242 
L 78.447362 122.93815 
L 79.103938 121.811196 
L 79.760513 125.192057 
L 81.073662 122.93815 
L 81.730237 122.93815 
L 82.386812 126.319011 
L 83.043387 124.065104 
L 83.699962 125.192057 
L 84.356538 122.93815 
L 85.013113 127.445965 
L 85.669687 126.319011 
L 86.326262 128.572919 
L 86.982837 128.572919 
L 87.639412 130.826826 
L 88.295987 130.826826 
L 90.922287 135.334641 
L 91.578862 135.334641 
L 92.235437 137.588549 
L 93.548587 137.588549 
L 94.205163 136.461595 
L 94.861738 137.588549 
L 96.174887 137.588549 
L 96.831462 138.715502 
L 97.488037 138.715502 
L 98.144612 139.842456 
L 98.801187 137.588549 
L 99.457763 136.461595 
L 100.114337 137.588549 
L 102.084062 137.588549 
L 102.740637 136.461595 
L 103.397212 137.588549 
L 104.710363 137.588549 
L 105.366937 135.334641 
L 107.336662 138.715502 
L 107.993237 137.588549 
L 108.649812 138.715502 
L 109.306387 140.96941 
L 109.962962 140.96941 
L 110.619537 138.715502 
L 111.276112 138.715502 
L 111.932687 140.96941 
L 112.589262 142.096364 
L 117.841862 142.096364 
L 118.498437 140.96941 
L 119.811587 140.96941 
L 120.468162 138.715502 
L 121.124737 138.715502 
L 121.781312 140.96941 
L 122.437887 140.96941 
L 123.094462 136.461595 
L 123.751037 133.080734 
L 125.720762 126.319011 
L 127.690487 122.93815 
L 128.347062 119.557289 
L 129.003637 118.430335 
L 129.660213 113.92252 
L 130.316788 111.668612 
L 130.973362 113.92252 
L 131.629937 113.92252 
L 132.286512 112.795566 
L 132.943087 113.92252 
L 134.256237 113.92252 
L 135.569388 111.668612 
L 136.225962 112.795566 
L 136.882537 115.049474 
L 137.539112 112.795566 
L 138.195687 112.795566 
L 138.852262 115.049474 
L 139.508837 116.176427 
L 140.165413 115.049474 
L 140.821987 116.176427 
L 142.135137 116.176427 
L 142.791712 117.303381 
L 143.448287 117.303381 
L 144.104862 118.430335 
L 144.761437 117.303381 
L 145.418012 120.684242 
L 146.074587 121.811196 
L 146.731162 125.192057 
L 147.387737 124.065104 
L 148.044312 125.192057 
L 148.700887 124.065104 
L 149.357462 125.192057 
L 150.014037 125.192057 
L 150.670612 126.319011 
L 151.983762 126.319011 
L 152.640337 128.572919 
L 153.296912 126.319011 
L 153.953487 125.192057 
L 154.610062 122.93815 
L 155.266638 121.811196 
L 155.923212 122.93815 
L 157.236362 122.93815 
L 157.892937 119.557289 
L 158.549512 118.430335 
L 159.206087 118.430335 
L 159.862662 113.92252 
L 160.519237 112.795566 
L 161.832387 99.272121 
L 162.488962 89.129537 
L 163.145537 89.129537 
L 163.802112 83.494769 
L 165.115262 78.986954 
L 167.084987 85.748676 
L 168.398137 85.748676 
L 169.711287 88.002584 
L 170.367863 91.383445 
L 171.024437 93.637352 
L 171.681012 94.764306 
L 172.337587 93.637352 
L 172.994162 97.018214 
L 174.307312 92.510399 
L 174.963887 92.510399 
L 175.620462 94.764306 
L 176.933612 92.510399 
L 177.590187 92.510399 
L 178.246762 95.89126 
L 178.903337 94.764306 
L 180.873062 101.526029 
L 181.529637 99.272121 
L 182.186212 102.652982 
L 182.842787 101.526029 
L 183.499362 103.779936 
L 184.812512 103.779936 
L 185.469088 108.287751 
L 186.125662 108.287751 
L 186.782237 109.414705 
L 187.438812 109.414705 
L 188.095387 111.668612 
L 189.408537 113.92252 
L 190.065112 110.541659 
L 190.721687 113.92252 
L 191.378262 112.795566 
L 192.034837 115.049474 
L 193.347987 112.795566 
L 194.004562 113.92252 
L 194.661137 113.92252 
L 195.317712 115.049474 
L 195.974288 115.049474 
L 196.630862 117.303381 
L 197.287437 116.176427 
L 197.944012 116.176427 
L 198.600587 112.795566 
L 199.257162 113.92252 
L 199.913737 112.795566 
L 200.570312 113.92252 
L 201.226887 112.795566 
L 201.883462 109.414705 
L 203.196612 109.414705 
L 204.509762 95.89126 
L 205.166337 94.764306 
L 205.822912 92.510399 
L 206.479487 93.637352 
L 207.136062 95.89126 
L 208.449212 95.89126 
L 209.105787 99.272121 
L 209.762362 95.89126 
L 210.418937 97.018214 
L 211.075512 97.018214 
L 211.732087 99.272121 
L 212.388662 95.89126 
L 213.045237 95.89126 
L 213.701812 99.272121 
L 215.014962 94.764306 
L 215.671537 91.383445 
L 216.328112 86.87563 
L 216.984687 84.621722 
L 217.641262 83.494769 
L 218.297837 80.113907 
L 218.954412 78.986954 
L 219.610987 75.606093 
L 220.267562 74.479139 
L 221.580712 69.971324 
L 222.237287 69.971324 
L 223.550437 63.209601 
L 224.207012 58.701786 
L 224.863587 58.701786 
L 225.520162 63.209601 
L 226.176737 63.209601 
L 228.146462 66.590463 
L 228.803037 66.590463 
L 229.459612 74.479139 
L 230.116187 73.352185 
L 230.772762 76.733046 
L 231.429337 81.240861 
L 232.085912 84.621722 
L 232.742487 86.87563 
L 233.399062 90.256491 
L 234.055637 92.510399 
L 234.712212 92.510399 
L 235.368787 93.637352 
L 236.025362 97.018214 
L 236.681937 99.272121 
L 237.338512 95.89126 
L 237.995087 95.89126 
L 238.651662 98.145167 
L 239.308237 97.018214 
L 239.964812 99.272121 
L 240.621387 98.145167 
L 241.277962 98.145167 
L 241.934537 99.272121 
L 242.591112 99.272121 
L 243.247687 98.145167 
L 243.904262 99.272121 
L 244.560837 97.018214 
L 245.217412 97.018214 
L 245.873987 100.399075 
L 247.187137 100.399075 
L 247.843712 101.526029 
L 248.500287 101.526029 
L 249.156862 104.90689 
L 249.813437 99.272121 
L 250.470012 99.272121 
L 251.126587 100.399075 
L 251.783162 99.272121 
L 252.439737 99.272121 
L 253.096312 101.526029 
L 253.752887 102.652982 
L 254.409462 101.526029 
L 255.066037 101.526029 
L 255.722612 102.652982 
L 256.379187 106.033844 
L 258.348912 106.033844 
L 259.005487 109.414705 
L 259.662062 109.414705 
L 262.288362 113.92252 
L 262.944937 112.795566 
L 263.601513 115.049474 
L 264.258087 116.176427 
L 266.227812 116.176427 
L 266.884388 119.557289 
L 267.540962 117.303381 
L 268.197537 119.557289 
L 268.854112 119.557289 
L 269.510687 117.303381 
L 270.167262 119.557289 
L 270.823837 119.557289 
L 271.480412 120.684242 
L 272.136987 120.684242 
L 272.793563 119.557289 
L 274.106712 124.065104 
L 274.763287 121.811196 
L 275.419862 121.811196 
L 276.076437 120.684242 
L 276.733012 121.811196 
L 277.389587 121.811196 
L 278.046162 120.684242 
L 278.702738 120.684242 
L 279.359312 119.557289 
L 280.672462 119.557289 
L 281.985613 121.811196 
L 282.642187 119.557289 
L 283.298762 119.557289 
L 283.955337 121.811196 
L 284.611912 118.430335 
L 285.925062 113.92252 
L 286.581637 113.92252 
L 287.238212 110.541659 
L 288.551362 108.287751 
L 289.864512 103.779936 
L 290.521087 104.90689 
L 291.177662 102.652982 
L 291.834237 102.652982 
L 292.490812 103.779936 
L 293.147387 102.652982 
L 293.803962 102.652982 
L 294.460537 101.526029 
L 295.117112 101.526029 
L 295.773687 98.145167 
L 296.430262 98.145167 
L 297.086838 97.018214 
L 298.399987 97.018214 
L 299.713137 92.510399 
L 301.026287 94.764306 
L 301.682862 94.764306 
L 302.339437 98.145167 
L 302.996013 97.018214 
L 303.652587 97.018214 
L 304.309162 98.145167 
L 304.965737 100.399075 
L 305.622312 101.526029 
L 306.278887 100.399075 
L 306.935462 100.399075 
L 309.561762 104.90689 
L 310.218337 103.779936 
L 310.874912 106.033844 
L 311.531487 107.160797 
L 312.188063 106.033844 
L 312.844637 106.033844 
L 314.157787 108.287751 
L 314.814362 111.668612 
L 316.127512 111.668612 
L 318.097238 115.049474 
L 318.753812 117.303381 
L 319.410387 118.430335 
L 320.066962 117.303381 
L 320.723537 119.557289 
L 321.380112 119.557289 
L 322.036687 115.049474 
L 322.693262 117.303381 
L 323.349837 117.303381 
L 324.006412 116.176427 
L 324.662987 116.176427 
L 325.976137 118.430335 
L 326.632712 117.303381 
L 327.945862 117.303381 
L 328.602437 118.430335 
L 329.259012 118.430335 
L 329.915587 117.303381 
L 330.572162 117.303381 
L 331.228737 120.684242 
L 331.885312 118.430335 
L 332.541887 122.93815 
L 333.198463 121.811196 
L 333.855037 121.811196 
L 334.511612 119.557289 
L 335.168187 119.557289 
L 336.481337 121.811196 
L 337.137912 121.811196 
L 337.794487 122.93815 
L 338.451062 125.192057 
L 339.107637 124.065104 
L 340.420787 126.319011 
L 341.077362 125.192057 
L 341.733937 127.445965 
L 342.390512 128.572919 
L 343.047087 127.445965 
L 343.703662 128.572919 
L 344.360237 128.572919 
L 345.016812 127.445965 
L 345.673387 131.95378 
L 346.986537 129.699872 
L 348.299687 129.699872 
L 348.956262 128.572919 
L 350.269412 130.826826 
L 350.925987 130.826826 
L 351.582562 131.95378 
L 352.239137 130.826826 
L 352.895712 133.080734 
L 353.552287 131.95378 
L 354.208862 133.080734 
L 354.865437 131.95378 
L 355.522012 131.95378 
L 356.178587 133.080734 
L 356.835162 133.080734 
L 357.491737 134.207687 
L 358.148312 134.207687 
L 358.804887 135.334641 
L 359.461462 135.334641 
L 360.118037 134.207687 
L 360.774612 135.334641 
L 361.431187 137.588549 
L 362.087762 135.334641 
L 363.400912 135.334641 
L 364.057487 134.207687 
L 364.714062 136.461595 
L 366.683787 136.461595 
L 367.340362 133.080734 
L 367.996937 133.080734 
L 369.310087 130.826826 
L 369.966662 131.95378 
L 370.623237 129.699872 
L 371.279812 128.572919 
L 371.936387 125.192057 
L 372.592962 124.065104 
L 373.249537 120.684242 
L 374.562687 116.176427 
L 376.532412 116.176427 
L 377.188987 113.92252 
L 377.845562 115.049474 
L 379.158712 115.049474 
L 379.815287 116.176427 
L 381.128437 116.176427 
L 381.785012 113.92252 
L 382.441587 112.795566 
L 383.098162 115.049474 
L 383.754737 113.92252 
L 384.411313 113.92252 
L 385.724462 111.668612 
L 386.381037 109.414705 
L 387.694187 111.668612 
L 388.350762 111.668612 
L 389.007337 112.795566 
L 389.663912 115.049474 
L 390.320487 116.176427 
L 390.977062 116.176427 
L 391.633637 117.303381 
L 392.290212 115.049474 
L 392.946787 117.303381 
L 394.259937 117.303381 
L 395.573087 119.557289 
L 396.229662 119.557289 
L 396.886237 118.430335 
L 397.542812 119.557289 
L 398.199387 119.557289 
L 398.855962 120.684242 
L 399.512538 119.557289 
L 400.169112 121.811196 
L 400.825687 121.811196 
L 402.138837 124.065104 
L 402.795412 124.065104 
L 403.451987 125.192057 
L 404.108562 124.065104 
L 405.421712 124.065104 
L 406.078287 125.192057 
L 406.734862 127.445965 
L 407.391437 126.319011 
L 408.048012 127.445965 
L 408.704588 127.445965 
L 409.361162 128.572919 
L 410.017737 128.572919 
L 410.674312 127.445965 
L 411.330887 127.445965 
L 411.987462 129.699872 
L 412.644037 130.826826 
L 413.300612 129.699872 
L 413.957187 130.826826 
L 414.613763 128.572919 
L 415.926912 130.826826 
L 416.583487 129.699872 
L 417.240062 130.826826 
L 417.896637 128.572919 
L 418.553212 127.445965 
L 419.209787 128.572919 
L 419.866362 127.445965 
L 421.179512 127.445965 
L 421.836087 124.065104 
L 422.492662 124.065104 
L 423.149237 125.192057 
L 423.805813 122.93815 
L 424.462387 124.065104 
L 425.118962 119.557289 
L 426.432112 115.049474 
L 427.088687 111.668612 
L 427.745262 111.668612 
L 428.401837 107.160797 
L 429.058412 103.779936 
L 431.028137 86.87563 
L 431.684712 82.367815 
L 432.341287 78.986954 
L 432.997862 74.479139 
L 433.654437 73.352185 
L 434.311012 73.352185 
L 434.967587 72.225231 
L 436.280737 67.717416 
L 436.937312 68.84437 
L 437.593887 68.84437 
L 438.250462 69.971324 
L 438.907038 69.971324 
L 439.563612 68.84437 
L 440.220187 68.84437 
L 440.876762 72.225231 
L 441.533337 74.479139 
L 442.189912 74.479139 
L 442.846487 73.352185 
L 443.503062 73.352185 
L 444.159637 74.479139 
L 444.816212 69.971324 
L 445.472787 75.606093 
L 446.129362 77.86 
L 446.785937 78.986954 
L 447.442512 78.986954 
L 448.099087 77.86 
L 448.755662 78.986954 
L 449.412237 77.86 
L 450.068812 78.986954 
L 451.381962 78.986954 
L 452.695112 83.494769 
L 453.351687 84.621722 
L 454.008263 86.87563 
L 454.664837 86.87563 
L 455.321412 88.002584 
L 457.947712 88.002584 
L 458.604287 89.129537 
L 459.260862 92.510399 
L 459.917437 92.510399 
L 460.574012 93.637352 
L 461.230587 91.383445 
L 461.887162 90.256491 
L 462.543737 93.637352 
L 463.200312 95.89126 
L 463.856887 94.764306 
L 464.513462 95.89126 
L 465.170037 95.89126 
L 465.826612 98.145167 
L 466.483187 99.272121 
L 467.796337 99.272121 
L 468.452912 102.652982 
L 469.109488 104.90689 
L 469.766062 106.033844 
L 470.422637 104.90689 
L 471.079212 104.90689 
L 471.735787 110.541659 
L 472.392362 109.414705 
L 473.048937 111.668612 
L 473.705512 110.541659 
L 474.362087 111.668612 
L 475.675237 116.176427 
L 476.331812 115.049474 
L 476.988387 117.303381 
L 477.644962 116.176427 
L 478.301537 118.430335 
L 478.958112 119.557289 
L 479.614687 119.557289 
L 480.271262 117.303381 
L 480.927837 120.684242 
L 482.897562 124.065104 
L 483.554137 124.065104 
L 484.210712 122.93815 
L 484.867287 124.065104 
L 485.523862 126.319011 
L 487.493587 122.93815 
L 488.150162 126.319011 
L 488.806737 125.192057 
L 489.463312 126.319011 
L 490.776462 124.065104 
L 491.433037 125.192057 
L 492.089612 127.445965 
L 493.402762 127.445965 
L 494.059337 128.572919 
L 494.715912 130.826826 
L 496.029062 130.826826 
L 496.685637 131.95378 
L 497.342212 131.95378 
L 497.998787 130.826826 
L 499.311937 133.080734 
L 499.968512 133.080734 
L 501.281662 135.334641 
L 501.938237 134.207687 
L 502.594812 135.334641 
L 503.251387 135.334641 
L 503.907962 137.588549 
L 504.564537 135.334641 
L 505.221112 137.588549 
L 505.877687 137.588549 
L 506.534262 138.715502 
L 507.190837 137.588549 
L 507.847412 137.588549 
L 509.160562 135.334641 
L 509.817137 137.588549 
L 510.473712 137.588549 
L 511.786862 139.842456 
L 512.443437 139.842456 
L 513.100012 138.715502 
L 514.413162 140.96941 
L 515.069737 139.842456 
L 517.039462 139.842456 
L 517.696037 140.96941 
L 518.352612 130.826826 
L 519.009187 13.623636 
L 519.665762 31.654896 
L 520.322337 56.447879 
L 520.978912 65.463509 
L 521.635487 85.748676 
L 522.292062 92.510399 
L 522.948637 102.652982 
L 523.605212 104.90689 
L 524.261787 104.90689 
L 524.918362 108.287751 
L 525.574937 110.541659 
L 526.231512 111.668612 
L 526.888087 111.668612 
L 527.544662 115.049474 
L 528.201237 113.92252 
L 528.857812 119.557289 
L 529.514387 122.93815 
L 530.170962 127.445965 
L 530.827537 129.699872 
L 532.140687 136.461595 
L 532.797262 135.334641 
L 533.453837 137.588549 
L 534.110412 138.715502 
L 534.766987 138.715502 
L 535.423562 139.842456 
L 536.080137 139.842456 
L 536.736712 140.96941 
L 537.393287 139.842456 
L 538.049862 140.96941 
L 538.706437 139.842456 
L 539.363012 139.842456 
L 540.019587 140.96941 
L 540.676162 140.96941 
L 541.332737 139.842456 
L 542.645887 142.096364 
L 543.302462 139.842456 
L 543.959037 139.842456 
L 544.615612 140.96941 
L 545.272187 138.715502 
L 546.585337 136.461595 
L 547.241912 138.715502 
L 547.898487 137.588549 
L 548.555062 138.715502 
L 549.211637 136.461595 
L 550.524787 136.461595 
L 552.494512 133.080734 
L 553.151087 133.080734 
L 553.807662 134.207687 
L 554.464237 134.207687 
L 555.120812 133.080734 
L 556.433962 135.334641 
L 557.747112 133.080734 
L 559.060262 133.080734 
L 559.716837 134.207687 
L 561.029987 131.95378 
L 561.029987 131.95378 
" clip-path="url(#pab31bed21b)" style="fill: none; stroke: #1f77b4; stroke-width: 1.5; stroke-linecap: square"/>
   </g>
   <g id="patch_3">
    <path d="M 36.426563 148.52 
L 36.426563 7.2 
" style="fill: none"/>
   </g>
   <g id="patch_4">
    <path d="M 561.686562 148.52 
L 561.686562 7.2 
" style="fill: none"/>
   </g>
   <g id="patch_5">
    <path d="M 36.426563 148.52 
L 561.686562 148.52 
" style="fill: none; stroke: #000000; stroke-width: 0.8; stroke-linejoin: miter; stroke-linecap: square"/>
   </g>
   <g id="patch_6">
    <path d="M 36.426563 7.2 
L 561.686562 7.2 
" style="fill: none"/>
   </g>
   <g id="legend_1">
    <g id="patch_7">
     <path d="M 43.426563 29.878125 
L 115.267188 29.878125 
Q 117.267188 29.878125 117.267188 27.878125 
L 117.267188 14.2 
Q 117.267188 12.2 115.267188 12.2 
L 43.426563 12.2 
Q 41.426563 12.2 41.426563 14.2 
L 41.426563 27.878125 
Q 41.426563 29.878125 43.426563 29.878125 
L 43.426563 29.878125 
z
" style="fill: none; opacity: 0"/>
    </g>
    <g id="line2d_28">
     <path d="M 45.426563 20.298437 
L 55.426563 20.298437 
L 65.426563 20.298437 
" style="fill: none; stroke: #1f77b4; stroke-width: 1.5; stroke-linecap: square"/>
    </g>
    <g id="text_14">
     <!-- UNRATE -->
     <g transform="translate(73.426563 23.798437) scale(0.1 -0.1)">
      <defs>
       <path id="DejaVuSans-55" d="M 556 4666 
L 1191 4666 
L 1191 1831 
Q 1191 1081 1462 751 
Q 1734 422 2344 422 
Q 2950 422 3222 751 
Q 3494 1081 3494 1831 
L 3494 4666 
L 4128 4666 
L 4128 1753 
Q 4128 841 3676 375 
Q 3225 -91 2344 -91 
Q 1459 -91 1007 375 
Q 556 841 556 1753 
L 556 4666 
z
" transform="scale(0.015625)"/>
       <path id="DejaVuSans-4e" d="M 628 4666 
L 1478 4666 
L 3547 763 
L 3547 4666 
L 4159 4666 
L 4159 0 
L 3309 0 
L 1241 3903 
L 1241 0 
L 628 0 
L 628 4666 
z
" transform="scale(0.015625)"/>
       <path id="DejaVuSans-52" d="M 2841 2188 
Q 3044 2119 3236 1894 
Q 3428 1669 3622 1275 
L 4263 0 
L 3584 0 
L 2988 1197 
Q 2756 1666 2539 1819 
Q 2322 1972 1947 1972 
L 1259 1972 
L 1259 0 
L 628 0 
L 628 4666 
L 2053 4666 
Q 2853 4666 3247 4331 
Q 3641 3997 3641 3322 
Q 3641 2881 3436 2590 
Q 3231 2300 2841 2188 
z
M 1259 4147 
L 1259 2491 
L 2053 2491 
Q 2509 2491 2742 2702 
Q 2975 2913 2975 3322 
Q 2975 3731 2742 3939 
Q 2509 4147 2053 4147 
L 1259 4147 
z
" transform="scale(0.015625)"/>
       <path id="DejaVuSans-41" d="M 2188 4044 
L 1331 1722 
L 3047 1722 
L 2188 4044 
z
M 1831 4666 
L 2547 4666 
L 4325 0 
L 3669 0 
L 3244 1197 
L 1141 1197 
L 716 0 
L 50 0 
L 1831 4666 
z
" transform="scale(0.015625)"/>
       <path id="DejaVuSans-54" d="M -19 4666 
L 3928 4666 
L 3928 4134 
L 2272 4134 
L 2272 0 
L 1638 0 
L 1638 4134 
L -19 4134 
L -19 4666 
z
" transform="scale(0.015625)"/>
       <path id="DejaVuSans-45" d="M 628 4666 
L 3578 4666 
L 3578 4134 
L 1259 4134 
L 1259 2753 
L 3481 2753 
L 3481 2222 
L 1259 2222 
L 1259 531 
L 3634 531 
L 3634 0 
L 628 0 
L 628 4666 
z
" transform="scale(0.015625)"/>
      </defs>
      <use xlink:href="#DejaVuSans-55"/>
      <use xlink:href="#DejaVuSans-4e" transform="translate(73.193359 0)"/>
      <use xlink:href="#DejaVuSans-52" transform="translate(147.998047 0)"/>
      <use xlink:href="#DejaVuSans-41" transform="translate(213.480469 0)"/>
      <use xlink:href="#DejaVuSans-54" transform="translate(274.138672 0)"/>
      <use xlink:href="#DejaVuSans-45" transform="translate(335.222656 0)"/>
     </g>
    </g>
   </g>
  </g>
 </g>
 <defs>
  <clipPath id="pab31bed21b">
   <rect x="36.426563" y="7.2" width="525.26" height="141.32"/>
  </clipPath>
 </defs>
</svg>
