<?xml version="1.0" encoding="utf-8" standalone="no"?>
<!DOCTYPE svg PUBLIC "-//W3C//DTD SVG 1.1//EN"
  "http://www.w3.org/Graphics/SVG/1.1/DTD/svg11.dtd">
<svg xmlns:xlink="http://www.w3.org/1999/xlink" width="568.835pt" height="172.398125pt" viewBox="0 0 568.835 172.398125" xmlns="http://www.w3.org/2000/svg" version="1.1">
 <metadata>
  <rdf:RDF xmlns:dc="http://purl.org/dc/elements/1.1/" xmlns:cc="http://creativecommons.org/ns#" xmlns:rdf="http://www.w3.org/1999/02/22-rdf-syntax-ns#">
   <cc:Work>
    <dc:type rdf:resource="http://purl.org/dc/dcmitype/StillImage"/>
    <dc:date>2025-11-20T08:55:34.382314</dc:date>
    <dc:format>image/svg+xml</dc:format>
    <dc:creator>
     <cc:Agent>
      <dc:title>Matplotlib v3.10.7, https://matplotlib.org/</dc:title>
     </cc:Agent>
    </dc:creator>
   </cc:Work>
  </rdf:RDF>
 </metadata>
 <defs>
  <style type="text/css">*{stroke-linejoin: round; stroke-linecap: butt}</style>
 </defs>
 <g id="figure_1">
  <g id="patch_1">
   <path d="M 0 172.398125 
L 568.835 172.398125 
L 568.835 0 
L 0 0 
L 0 172.398125 
z
" style="fill: none"/>
  </g>
  <g id="axes_1">
   <g id="patch_2">
    <path d="M 26.925 148.52 
L 561.635 148.52 
L 561.635 7.2 
L 26.925 7.2 
L 26.925 148.52 
z
" style="fill: none"/>
   </g>
   <g id="matplotlib.axis_1">
    <g id="xtick_1">
     <g id="line2d_1">
      <defs>
       <path id="mbe4384bd97" d="M 0 0 
L 0 3.5 
" style="stroke: #000000; stroke-width: 0.8"/>
      </defs>
      <g>
       <use xlink:href="#mbe4384bd97" x="26.925" y="148.52" style="stroke: #000000; stroke-width: 0.8"/>
      </g>
     </g>
     <g id="text_1">
      <!-- 1959 -->
      <g transform="translate(14.2 163.118437) scale(0.1 -0.1)">
       <defs>
        <path id="DejaVuSans-31" d="M 794 531 
L 1825 531 
L 1825 4091 
L 703 3866 
L 703 4441 
L 1819 4666 
L 2450 4666 
L 2450 531 
L 3481 531 
L 3481 0 
L 794 0 
L 794 531 
z
" transform="scale(0.015625)"/>
        <path id="DejaVuSans-39" d="M 703 97 
L 703 672 
Q 941 559 1184 500 
Q 1428 441 1663 441 
Q 2288 441 2617 861 
Q 2947 1281 2994 2138 
Q 2813 1869 2534 1725 
Q 2256 1581 1919 1581 
Q 1219 1581 811 2004 
Q 403 2428 403 3163 
Q 403 3881 828 4315 
Q 1253 4750 1959 4750 
Q 2769 4750 3195 4129 
Q 3622 3509 3622 2328 
Q 3622 1225 3098 567 
Q 2575 -91 1691 -91 
Q 1453 -91 1209 -44 
Q 966 3 703 97 
z
M 1959 2075 
Q 2384 2075 2632 2365 
Q 2881 2656 2881 3163 
Q 2881 3666 2632 3958 
Q 2384 4250 1959 4250 
Q 1534 4250 1286 3958 
Q 1038 3666 1038 3163 
Q 1038 2656 1286 2365 
Q 1534 2075 1959 2075 
z
" transform="scale(0.015625)"/>
        <path id="DejaVuSans-35" d="M 691 4666 
L 3169 4666 
L 3169 4134 
L 1269 4134 
L 1269 2991 
Q 1406 3038 1543 3061 
Q 1681 3084 1819 3084 
Q 2600 3084 3056 2656 
Q 3513 2228 3513 1497 
Q 3513 744 3044 326 
Q 2575 -91 1722 -91 
Q 1428 -91 1123 -41 
Q 819 9 494 109 
L 494 744 
Q 775 591 1075 516 
Q 1375 441 1709 441 
Q 2250 441 2565 725 
Q 2881 1009 2881 1497 
Q 2881 1984 2565 2268 
Q 2250 2553 1709 2553 
Q 1456 2553 1204 2497 
Q 953 2441 691 2322 
L 691 4666 
z
" transform="scale(0.015625)"/>
       </defs>
       <use xlink:href="#DejaVuSans-31"/>
       <use xlink:href="#DejaVuSans-39" transform="translate(63.623047 0)"/>
       <use xlink:href="#DejaVuSans-35" transform="translate(127.246094 0)"/>
       <use xlink:href="#DejaVuSans-39" transform="translate(190.869141 0)"/>
      </g>
     </g>
    </g>
    <g id="xtick_2">
     <g id="line2d_2">
      <g>
       <use xlink:href="#mbe4384bd97" x="107.1315" y="148.52" style="stroke: #000000; stroke-width: 0.8"/>
      </g>
     </g>
     <g id="text_2">
      <!-- 1969 -->
      <g transform="translate(94.4065 163.118437) scale(0.1 -0.1)">
       <defs>
        <path id="DejaVuSans-36" d="M 2113 2584 
Q 1688 2584 1439 2293 
Q 1191 2003 1191 1497 
Q 1191 994 1439 701 
Q 1688 409 2113 409 
Q 2538 409 2786 701 
Q 3034 994 3034 1497 
Q 3034 2003 2786 2293 
Q 2538 2584 2113 2584 
z
M 3366 4563 
L 3366 3988 
Q 3128 4100 2886 4159 
Q 2644 4219 2406 4219 
Q 1781 4219 1451 3797 
Q 1122 3375 1075 2522 
Q 1259 2794 1537 2939 
Q 1816 3084 2150 3084 
Q 2853 3084 3261 2657 
Q 3669 2231 3669 1497 
Q 3669 778 3244 343 
Q 2819 -91 2113 -91 
Q 1303 -91 875 529 
Q 447 1150 447 2328 
Q 447 3434 972 4092 
Q 1497 4750 2381 4750 
Q 2619 4750 2861 4703 
Q 3103 4656 3366 4563 
z
" transform="scale(0.015625)"/>
       </defs>
       <use xlink:href="#DejaVuSans-31"/>
       <use xlink:href="#DejaVuSans-39" transform="translate(63.623047 0)"/>
       <use xlink:href="#DejaVuSans-36" transform="translate(127.246094 0)"/>
       <use xlink:href="#DejaVuSans-39" transform="translate(190.869141 0)"/>
      </g>
     </g>
    </g>
    <g id="xtick_3">
     <g id="line2d_3">
      <g>
       <use xlink:href="#mbe4384bd97" x="187.338" y="148.52" style="stroke: #000000; stroke-width: 0.8"/>
      </g>
     </g>
     <g id="text_3">
      <!-- 1979 -->
      <g transform="translate(174.613 163.118437) scale(0.1 -0.1)">
       <defs>
        <path id="DejaVuSans-37" d="M 525 4666 
L 3525 4666 
L 3525 4397 
L 1831 0 
L 1172 0 
L 2766 4134 
L 525 4134 
L 525 4666 
z
" transform="scale(0.015625)"/>
       </defs>
       <use xlink:href="#DejaVuSans-31"/>
       <use xlink:href="#DejaVuSans-39" transform="translate(63.623047 0)"/>
       <use xlink:href="#DejaVuSans-37" transform="translate(127.246094 0)"/>
       <use xlink:href="#DejaVuSans-39" transform="translate(190.869141 0)"/>
      </g>
     </g>
    </g>
    <g id="xtick_4">
     <g id="line2d_4">
      <g>
       <use xlink:href="#mbe4384bd97" x="267.5445" y="148.52" style="stroke: #000000; stroke-width: 0.8"/>
      </g>
     </g>
     <g id="text_4">
      <!-- 1989 -->
      <g transform="translate(254.8195 163.118437) scale(0.1 -0.1)">
       <defs>
        <path id="DejaVuSans-38" d="M 2034 2216 
Q 1584 2216 1326 1975 
Q 1069 1734 1069 1313 
Q 1069 891 1326 650 
Q 1584 409 2034 409 
Q 2484 409 2743 651 
Q 3003 894 3003 1313 
Q 3003 1734 2745 1975 
Q 2488 2216 2034 2216 
z
M 1403 2484 
Q 997 2584 770 2862 
Q 544 3141 544 3541 
Q 544 4100 942 4425 
Q 1341 4750 2034 4750 
Q 2731 4750 3128 4425 
Q 3525 4100 3525 3541 
Q 3525 3141 3298 2862 
Q 3072 2584 2669 2484 
Q 3125 2378 3379 2068 
Q 3634 1759 3634 1313 
Q 3634 634 3220 271 
Q 2806 -91 2034 -91 
Q 1263 -91 848 271 
Q 434 634 434 1313 
Q 434 1759 690 2068 
Q 947 2378 1403 2484 
z
M 1172 3481 
Q 1172 3119 1398 2916 
Q 1625 2713 2034 2713 
Q 2441 2713 2670 2916 
Q 2900 3119 2900 3481 
Q 2900 3844 2670 4047 
Q 2441 4250 2034 4250 
Q 1625 4250 1398 4047 
Q 1172 3844 1172 3481 
z
" transform="scale(0.015625)"/>
       </defs>
       <use xlink:href="#DejaVuSans-31"/>
       <use xlink:href="#DejaVuSans-39" transform="translate(63.623047 0)"/>
       <use xlink:href="#DejaVuSans-38" transform="translate(127.246094 0)"/>
       <use xlink:href="#DejaVuSans-39" transform="translate(190.869141 0)"/>
      </g>
     </g>
    </g>
    <g id="xtick_5">
     <g id="line2d_5">
      <g>
       <use xlink:href="#mbe4384bd97" x="347.751" y="148.52" style="stroke: #000000; stroke-width: 0.8"/>
      </g>
     </g>
     <g id="text_5">
      <!-- 1999 -->
      <g transform="translate(335.026 163.118437) scale(0.1 -0.1)">
       <use xlink:href="#DejaVuSans-31"/>
       <use xlink:href="#DejaVuSans-39" transform="translate(63.623047 0)"/>
       <use xlink:href="#DejaVuSans-39" transform="translate(127.246094 0)"/>
       <use xlink:href="#DejaVuSans-39" transform="translate(190.869141 0)"/>
      </g>
     </g>
    </g>
    <g id="xtick_6">
     <g id="line2d_6">
      <g>
       <use xlink:href="#mbe4384bd97" x="427.9575" y="148.52" style="stroke: #000000; stroke-width: 0.8"/>
      </g>
     </g>
     <g id="text_6">
      <!-- 2009 -->
      <g transform="translate(415.2325 163.118437) scale(0.1 -0.1)">
       <defs>
        <path id="DejaVuSans-32" d="M 1228 531 
L 3431 531 
L 3431 0 
L 469 0 
L 469 531 
Q 828 903 1448 1529 
Q 2069 2156 2228 2338 
Q 2531 2678 2651 2914 
Q 2772 3150 2772 3378 
Q 2772 3750 2511 3984 
Q 2250 4219 1831 4219 
Q 1534 4219 1204 4116 
Q 875 4013 500 3803 
L 500 4441 
Q 881 4594 1212 4672 
Q 1544 4750 1819 4750 
Q 2544 4750 2975 4387 
Q 3406 4025 3406 3419 
Q 3406 3131 3298 2873 
Q 3191 2616 2906 2266 
Q 2828 2175 2409 1742 
Q 1991 1309 1228 531 
z
" transform="scale(0.015625)"/>
        <path id="DejaVuSans-30" d="M 2034 4250 
Q 1547 4250 1301 3770 
Q 1056 3291 1056 2328 
Q 1056 1369 1301 889 
Q 1547 409 2034 409 
Q 2525 409 2770 889 
Q 3016 1369 3016 2328 
Q 3016 3291 2770 3770 
Q 2525 4250 2034 4250 
z
M 2034 4750 
Q 2819 4750 3233 4129 
Q 3647 3509 3647 2328 
Q 3647 1150 3233 529 
Q 2819 -91 2034 -91 
Q 1250 -91 836 529 
Q 422 1150 422 2328 
Q 422 3509 836 4129 
Q 1250 4750 2034 4750 
z
" transform="scale(0.015625)"/>
       </defs>
       <use xlink:href="#DejaVuSans-32"/>
       <use xlink:href="#DejaVuSans-30" transform="translate(63.623047 0)"/>
       <use xlink:href="#DejaVuSans-30" transform="translate(127.246094 0)"/>
       <use xlink:href="#DejaVuSans-39" transform="translate(190.869141 0)"/>
      </g>
     </g>
    </g>
    <g id="xtick_7">
     <g id="line2d_7">
      <g>
       <use xlink:href="#mbe4384bd97" x="508.164" y="148.52" style="stroke: #000000; stroke-width: 0.8"/>
      </g>
     </g>
     <g id="text_7">
      <!-- 2019 -->
      <g transform="translate(495.439 163.118437) scale(0.1 -0.1)">
       <use xlink:href="#DejaVuSans-32"/>
       <use xlink:href="#DejaVuSans-30" transform="translate(63.623047 0)"/>
       <use xlink:href="#DejaVuSans-31" transform="translate(127.246094 0)"/>
       <use xlink:href="#DejaVuSans-39" transform="translate(190.869141 0)"/>
      </g>
     </g>
    </g>
    <g id="xtick_8">
     <g id="line2d_8">
      <defs>
       <path id="m52349c3aa1" d="M 0 0 
L 0 2 
" style="stroke: #000000; stroke-width: 0.6"/>
      </defs>
      <g>
       <use xlink:href="#m52349c3aa1" x="67.02825" y="148.52" style="stroke: #000000; stroke-width: 0.6"/>
      </g>
     </g>
    </g>
    <g id="xtick_9">
     <g id="line2d_9">
      <g>
       <use xlink:href="#m52349c3aa1" x="147.23475" y="148.52" style="stroke: #000000; stroke-width: 0.6"/>
      </g>
     </g>
    </g>
    <g id="xtick_10">
     <g id="line2d_10">
      <g>
       <use xlink:href="#m52349c3aa1" x="227.44125" y="148.52" style="stroke: #000000; stroke-width: 0.6"/>
      </g>
     </g>
    </g>
    <g id="xtick_11">
     <g id="line2d_11">
      <g>
       <use xlink:href="#m52349c3aa1" x="307.64775" y="148.52" style="stroke: #000000; stroke-width: 0.6"/>
      </g>
     </g>
    </g>
    <g id="xtick_12">
     <g id="line2d_12">
      <g>
       <use xlink:href="#m52349c3aa1" x="387.85425" y="148.52" style="stroke: #000000; stroke-width: 0.6"/>
      </g>
     </g>
    </g>
    <g id="xtick_13">
     <g id="line2d_13">
      <g>
       <use xlink:href="#m52349c3aa1" x="468.06075" y="148.52" style="stroke: #000000; stroke-width: 0.6"/>
      </g>
     </g>
    </g>
    <g id="xtick_14">
     <g id="line2d_14">
      <g>
       <use xlink:href="#m52349c3aa1" x="548.26725" y="148.52" style="stroke: #000000; stroke-width: 0.6"/>
      </g>
     </g>
    </g>
   </g>
   <g id="matplotlib.axis_2">
    <g id="ytick_1">
     <g id="line2d_15">
      <path d="M 26.925 140.857769 
L 561.635 140.857769 
" clip-path="url(#p4d689ed4d3)" style="fill: none; stroke-dasharray: 2.96,1.28; stroke-dashoffset: 0; stroke: #dddddd; stroke-width: 0.8"/>
     </g>
     <g id="line2d_16">
      <defs>
       <path id="m33dd4f7113" d="M 0 0 
L -3.5 0 
" style="stroke: #bbbbbb; stroke-width: 0.8"/>
      </defs>
      <g>
       <use xlink:href="#m33dd4f7113" x="26.925" y="140.857769" style="fill: #bbbbbb; stroke: #bbbbbb; stroke-width: 0.8"/>
      </g>
     </g>
     <g id="text_8">
      <!-- 10 -->
      <g style="fill: #bbbbbb" transform="translate(7.2 144.656988) scale(0.1 -0.1)">
       <use xlink:href="#DejaVuSans-31"/>
       <use xlink:href="#DejaVuSans-30" transform="translate(63.623047 0)"/>
      </g>
     </g>
    </g>
    <g id="ytick_2">
     <g id="line2d_17">
      <path d="M 26.925 116.835374 
L 561.635 116.835374 
" clip-path="url(#p4d689ed4d3)" style="fill: none; stroke-dasharray: 2.96,1.28; stroke-dashoffset: 0; stroke: #dddddd; stroke-width: 0.8"/>
     </g>
     <g id="line2d_18">
      <g>
       <use xlink:href="#m33dd4f7113" x="26.925" y="116.835374" style="fill: #bbbbbb; stroke: #bbbbbb; stroke-width: 0.8"/>
      </g>
     </g>
     <g id="text_9">
      <!-- 20 -->
      <g style="fill: #bbbbbb" transform="translate(7.2 120.634593) scale(0.1 -0.1)">
       <use xlink:href="#DejaVuSans-32"/>
       <use xlink:href="#DejaVuSans-30" transform="translate(63.623047 0)"/>
      </g>
     </g>
    </g>
    <g id="ytick_3">
     <g id="line2d_19">
      <path d="M 26.925 92.81298 
L 561.635 92.81298 
" clip-path="url(#p4d689ed4d3)" style="fill: none; stroke-dasharray: 2.96,1.28; stroke-dashoffset: 0; stroke: #dddddd; stroke-width: 0.8"/>
     </g>
     <g id="line2d_20">
      <g>
       <use xlink:href="#m33dd4f7113" x="26.925" y="92.81298" style="fill: #bbbbbb; stroke: #bbbbbb; stroke-width: 0.8"/>
      </g>
     </g>
     <g id="text_10">
      <!-- 30 -->
      <g style="fill: #bbbbbb" transform="translate(7.2 96.612198) scale(0.1 -0.1)">
       <defs>
        <path id="DejaVuSans-33" d="M 2597 2516 
Q 3050 2419 3304 2112 
Q 3559 1806 3559 1356 
Q 3559 666 3084 287 
Q 2609 -91 1734 -91 
Q 1441 -91 1130 -33 
Q 819 25 488 141 
L 488 750 
Q 750 597 1062 519 
Q 1375 441 1716 441 
Q 2309 441 2620 675 
Q 2931 909 2931 1356 
Q 2931 1769 2642 2001 
Q 2353 2234 1838 2234 
L 1294 2234 
L 1294 2753 
L 1863 2753 
Q 2328 2753 2575 2939 
Q 2822 3125 2822 3475 
Q 2822 3834 2567 4026 
Q 2313 4219 1838 4219 
Q 1578 4219 1281 4162 
Q 984 4106 628 3988 
L 628 4550 
Q 988 4650 1302 4700 
Q 1616 4750 1894 4750 
Q 2613 4750 3031 4423 
Q 3450 4097 3450 3541 
Q 3450 3153 3228 2886 
Q 3006 2619 2597 2516 
z
" transform="scale(0.015625)"/>
       </defs>
       <use xlink:href="#DejaVuSans-33"/>
       <use xlink:href="#DejaVuSans-30" transform="translate(63.623047 0)"/>
      </g>
     </g>
    </g>
    <g id="ytick_4">
     <g id="line2d_21">
      <path d="M 26.925 68.790585 
L 561.635 68.790585 
" clip-path="url(#p4d689ed4d3)" style="fill: none; stroke-dasharray: 2.96,1.28; stroke-dashoffset: 0; stroke: #dddddd; stroke-width: 0.8"/>
     </g>
     <g id="line2d_22">
      <g>
       <use xlink:href="#m33dd4f7113" x="26.925" y="68.790585" style="fill: #bbbbbb; stroke: #bbbbbb; stroke-width: 0.8"/>
      </g>
     </g>
     <g id="text_11">
      <!-- 40 -->
      <g style="fill: #bbbbbb" transform="translate(7.2 72.589804) scale(0.1 -0.1)">
       <defs>
        <path id="DejaVuSans-34" d="M 2419 4116 
L 825 1625 
L 2419 1625 
L 2419 4116 
z
M 2253 4666 
L 3047 4666 
L 3047 1625 
L 3713 1625 
L 3713 1100 
L 3047 1100 
L 3047 0 
L 2419 0 
L 2419 1100 
L 313 1100 
L 313 1709 
L 2253 4666 
z
" transform="scale(0.015625)"/>
       </defs>
       <use xlink:href="#DejaVuSans-34"/>
       <use xlink:href="#DejaVuSans-30" transform="translate(63.623047 0)"/>
      </g>
     </g>
    </g>
    <g id="ytick_5">
     <g id="line2d_23">
      <path d="M 26.925 44.768191 
L 561.635 44.768191 
" clip-path="url(#p4d689ed4d3)" style="fill: none; stroke-dasharray: 2.96,1.28; stroke-dashoffset: 0; stroke: #dddddd; stroke-width: 0.8"/>
     </g>
     <g id="line2d_24">
      <g>
       <use xlink:href="#m33dd4f7113" x="26.925" y="44.768191" style="fill: #bbbbbb; stroke: #bbbbbb; stroke-width: 0.8"/>
      </g>
     </g>
     <g id="text_12">
      <!-- 50 -->
      <g style="fill: #bbbbbb" transform="translate(7.2 48.567409) scale(0.1 -0.1)">
       <use xlink:href="#DejaVuSans-35"/>
       <use xlink:href="#DejaVuSans-30" transform="translate(63.623047 0)"/>
      </g>
     </g>
    </g>
    <g id="ytick_6">
     <g id="line2d_25">
      <path d="M 26.925 20.745796 
L 561.635 20.745796 
" clip-path="url(#p4d689ed4d3)" style="fill: none; stroke-dasharray: 2.96,1.28; stroke-dashoffset: 0; stroke: #dddddd; stroke-width: 0.8"/>
     </g>
     <g id="line2d_26">
      <g>
       <use xlink:href="#m33dd4f7113" x="26.925" y="20.745796" style="fill: #bbbbbb; stroke: #bbbbbb; stroke-width: 0.8"/>
      </g>
     </g>
     <g id="text_13">
      <!-- 60 -->
      <g style="fill: #bbbbbb" transform="translate(7.2 24.545015) scale(0.1 -0.1)">
       <use xlink:href="#DejaVuSans-36"/>
       <use xlink:href="#DejaVuSans-30" transform="translate(63.623047 0)"/>
      </g>
     </g>
    </g>
   </g>
   <g id="line2d_27">
    <path d="M 54.997275 117.864734 
L 55.665663 126.938713 
L 56.33405 120.883628 
L 57.002438 102.500971 
L 57.670825 124.604697 
L 58.339213 129.620573 
L 59.0076 129.24126 
L 60.344375 135.17383 
L 61.012763 136.865007 
L 61.68115 135.471468 
L 62.349538 135.95648 
L 63.017925 130.536307 
L 63.686313 137.293086 
L 64.3547 133.578743 
L 65.023088 131.680494 
L 65.691475 96.016126 
L 66.359863 136.229614 
L 67.696638 142.096364 
L 68.365025 140.445785 
L 69.033413 136.003564 
L 69.7018 136.419632 
L 70.370188 132.636345 
L 71.038575 137.917908 
L 71.706963 131.993986 
L 72.37535 139.616532 
L 73.043738 138.233563 
L 74.380513 133.956135 
L 75.0489 140.643009 
L 75.717288 132.115539 
L 76.385675 139.929063 
L 77.054063 140.4405 
L 77.72245 133.391128 
L 78.390838 115.01736 
L 79.059225 130.229541 
L 79.727613 141.563787 
L 80.396 135.997078 
L 81.064388 138.717854 
L 81.732775 138.932134 
L 82.401163 134.820701 
L 83.06955 138.819949 
L 83.737938 133.81152 
L 84.406325 124.384892 
L 85.074713 133.589793 
L 85.7431 113.788374 
L 86.411488 130.719358 
L 87.079875 122.130631 
L 87.748263 106.315968 
L 88.41665 115.443277 
L 89.085038 107.413791 
L 89.753425 125.148564 
L 91.0902 131.181789 
L 91.758588 131.275476 
L 92.426975 131.942097 
L 93.095363 125.434671 
L 93.76375 126.642517 
L 94.432138 122.807822 
L 95.100525 139.471677 
L 95.768913 135.496931 
L 96.4373 134.04742 
L 97.105688 133.036077 
L 97.774075 122.89118 
L 98.442463 136.006446 
L 99.11085 132.980105 
L 100.447625 117.923589 
L 101.116013 117.940164 
L 101.7844 133.274139 
L 102.452788 128.063442 
L 103.121175 123.748539 
L 103.789563 133.157871 
L 104.45795 136.250514 
L 105.126338 134.581438 
L 105.794725 138.624887 
L 106.463113 134.961472 
L 107.1315 129.063734 
L 107.799888 129.325818 
L 108.468275 130.055379 
L 109.136662 129.649881 
L 109.80505 131.400633 
L 110.473438 128.684901 
L 111.141825 110.518686 
L 111.810213 125.02605 
L 112.4786 124.300574 
L 113.146988 128.424979 
L 113.815375 131.006425 
L 114.483763 121.40035 
L 115.15215 125.781554 
L 115.820538 122.413615 
L 116.488925 122.951716 
L 117.157313 120.699617 
L 117.8257 74.429602 
L 118.494088 107.764518 
L 119.162475 113.538781 
L 119.830863 113.52701 
L 120.49925 122.673056 
L 121.167638 122.704045 
L 121.836025 125.103642 
L 122.504413 132.798256 
L 123.1728 130.494027 
L 123.841188 130.4431 
L 124.509575 132.449691 
L 125.177963 135.915642 
L 125.84635 130.900246 
L 126.514738 124.323155 
L 127.183125 131.648544 
L 127.851512 108.706676 
L 128.5199 129.719545 
L 129.188288 129.043796 
L 129.856675 113.09773 
L 130.525062 125.057519 
L 131.19345 131.081855 
L 131.861838 135.662205 
L 132.530225 130.000127 
L 133.198612 132.453534 
L 133.867 126.55964 
L 134.535388 134.031325 
L 135.203775 128.198928 
L 135.872163 130.38977 
L 136.54055 130.544234 
L 137.208937 125.006111 
L 137.877325 132.208266 
L 138.545713 128.953952 
L 139.2141 130.307133 
L 139.882487 118.669965 
L 140.550875 116.62734 
L 141.219263 116.438524 
L 141.88765 103.180565 
L 142.556038 109.923651 
L 143.224425 113.201507 
L 143.892812 123.561164 
L 144.5612 123.262566 
L 145.229588 119.12639 
L 145.897975 95.812416 
L 146.566362 82.850893 
L 147.23475 98.960551 
L 147.903138 110.906647 
L 148.571525 114.506884 
L 149.239913 114.993337 
L 150.576687 107.783736 
L 151.245075 93.372221 
L 151.913463 94.801794 
L 152.58185 76.567115 
L 153.250237 72.710559 
L 153.918625 99.41001 
L 154.587013 97.061821 
L 155.2554 100.505911 
L 155.923788 109.659645 
L 156.592175 107.077958 
L 157.92895 114.302693 
L 158.597338 119.339469 
L 159.265725 122.885414 
L 159.934112 108.230312 
L 160.6025 109.245259 
L 161.270888 113.272373 
L 161.939275 124.284959 
L 162.607663 119.148491 
L 163.27605 117.94641 
L 163.944437 118.715607 
L 164.612825 121.038573 
L 165.281213 122.493369 
L 165.9496 122.97694 
L 166.617987 124.824262 
L 167.286375 131.109001 
L 167.954763 126.670623 
L 168.62315 125.217268 
L 169.291538 119.220798 
L 169.959925 120.56341 
L 170.628312 131.188034 
L 171.2967 129.627299 
L 171.965087 133.380318 
L 172.633475 128.122296 
L 173.301862 121.616311 
L 173.97025 128.49056 
L 174.638638 131.113085 
L 175.307025 127.977682 
L 175.975413 130.064747 
L 176.6438 131.040537 
L 177.312187 127.756916 
L 177.980575 117.705706 
L 178.648962 127.854447 
L 179.31735 126.448416 
L 179.985737 127.397301 
L 180.654125 128.979416 
L 181.322513 116.270608 
L 181.9909 122.627894 
L 182.659288 123.058376 
L 183.327675 125.902147 
L 183.996062 123.401175 
L 184.66445 122.177715 
L 185.332837 114.385811 
L 186.001225 101.168689 
L 187.338 123.750221 
L 188.006388 125.15457 
L 188.674775 127.186144 
L 189.343163 127.31106 
L 190.01155 124.743547 
L 190.679937 130.230742 
L 191.348325 126.659813 
L 192.016712 132.451372 
L 192.6851 117.65718 
L 193.353487 109.669494 
L 194.021875 116.323938 
L 194.690262 129.977786 
L 195.35865 114.216213 
L 196.027038 111.329682 
L 196.695425 94.606252 
L 198.0322 116.833212 
L 198.700587 117.836868 
L 199.368975 120.603527 
L 200.037363 113.815759 
L 200.70575 105.570793 
L 201.374137 110.891273 
L 202.042525 109.250784 
L 202.710913 105.316396 
L 203.3793 116.111339 
L 204.047687 114.626515 
L 204.716075 112.370092 
L 205.384462 125.128145 
L 206.05285 123.447779 
L 206.721238 122.667051 
L 207.389625 122.490006 
L 208.7264 106.215794 
L 210.063175 116.903598 
L 210.731562 125.786359 
L 211.39995 105.884766 
L 212.068337 113.097009 
L 212.736725 116.151937 
L 214.0735 124.249166 
L 214.741887 117.542113 
L 215.410275 123.893154 
L 216.078663 86.947912 
L 216.74705 110.221048 
L 217.415437 86.035782 
L 218.083825 87.057454 
L 218.752212 108.256257 
L 219.4206 102.002747 
L 220.088987 110.911932 
L 220.757375 118.024963 
L 221.425762 120.060141 
L 222.09415 121.45392 
L 222.762538 119.395441 
L 223.430925 109.263275 
L 224.099312 120.603047 
L 224.7677 122.309598 
L 225.436087 121.416925 
L 226.104475 125.193726 
L 226.772862 130.597324 
L 227.44125 125.893258 
L 228.109637 111.943694 
L 228.778025 119.418262 
L 229.446413 121.310266 
L 230.1148 126.387159 
L 230.783187 115.320762 
L 231.451575 124.509088 
L 232.119962 107.817367 
L 232.78835 122.450129 
L 233.456737 120.677756 
L 234.125125 122.701163 
L 234.793512 120.444739 
L 235.4619 118.580121 
L 236.130288 124.750994 
L 236.798675 125.763538 
L 237.467062 131.173141 
L 238.13545 127.33196 
L 238.803837 126.727556 
L 239.472225 127.592362 
L 240.140612 129.176639 
L 240.809 124.606859 
L 241.477387 126.084237 
L 242.145775 126.171678 
L 242.814163 120.816606 
L 243.48255 121.348462 
L 244.150937 115.335896 
L 244.819325 108.273793 
L 245.487712 109.591661 
L 246.1561 119.495134 
L 246.824487 120.203314 
L 247.492875 117.702583 
L 248.161262 120.106984 
L 248.82965 110.336836 
L 249.498037 110.772362 
L 250.166425 120.122839 
L 251.5032 114.993818 
L 252.171587 108.556537 
L 252.839975 112.42198 
L 253.508362 100.304604 
L 254.17675 103.835656 
L 255.513525 122.118139 
L 256.181912 114.795873 
L 256.8503 109.883774 
L 257.518687 66.874319 
L 258.187075 46.121852 
L 258.855462 64.553035 
L 259.52385 72.78671 
L 260.860625 94.35786 
L 262.1974 103.102732 
L 262.865788 104.17341 
L 263.534175 108.081614 
L 264.202562 107.929552 
L 264.87095 117.97836 
L 265.539337 115.677735 
L 266.207725 112.850059 
L 266.876112 122.230324 
L 267.5445 122.221195 
L 268.212887 120.888913 
L 268.881275 122.900068 
L 269.549662 124.312345 
L 270.21805 122.997119 
L 270.886437 124.685412 
L 272.223212 118.46073 
L 272.8916 124.65106 
L 273.559987 112.148845 
L 274.228375 114.595767 
L 274.896763 121.075327 
L 275.56515 108.429938 
L 276.233538 108.843604 
L 276.901925 119.642872 
L 277.570312 115.73635 
L 278.2387 121.275193 
L 278.907087 122.642068 
L 279.575475 119.399044 
L 280.243862 98.157482 
L 280.91225 95.650265 
L 281.580637 92.499728 
L 282.249025 104.568098 
L 282.917412 110.626786 
L 283.5858 100.183531 
L 284.254187 111.760403 
L 284.922575 119.139122 
L 285.590962 119.412497 
L 286.25935 123.608729 
L 286.927737 122.660805 
L 287.596125 122.433793 
L 288.264513 126.606003 
L 288.9329 123.972428 
L 289.601288 124.411317 
L 290.269675 122.404967 
L 290.938063 121.595412 
L 292.274837 123.92078 
L 292.943225 125.909353 
L 293.611612 125.99151 
L 294.28 129.499981 
L 294.948387 129.439685 
L 295.616775 132.921731 
L 296.285162 130.234345 
L 296.95355 130.627832 
L 297.621937 122.892381 
L 298.290325 129.821881 
L 298.958712 134.17642 
L 299.6271 134.650382 
L 300.295487 132.150372 
L 300.963875 131.986299 
L 301.632262 132.554188 
L 302.30065 132.365852 
L 302.969038 133.645766 
L 303.637425 136.054491 
L 304.305813 136.168117 
L 304.9742 134.560538 
L 305.642587 137.549645 
L 306.310975 132.762222 
L 306.979362 138.781033 
L 307.64775 139.403934 
L 308.316137 133.926828 
L 308.984525 130.670352 
L 309.652912 128.042542 
L 310.3213 132.714177 
L 310.989687 133.781012 
L 312.326462 137.511449 
L 312.99485 134.582399 
L 313.663237 128.727661 
L 314.331625 125.844973 
L 315.6684 136.745375 
L 316.336788 137.981568 
L 317.005175 136.122234 
L 317.673563 134.811813 
L 318.34195 134.951623 
L 319.010337 133.22105 
L 319.678725 131.06504 
L 320.347112 132.81339 
L 321.0155 135.483959 
L 321.683887 130.677799 
L 322.352275 133.718554 
L 323.020662 135.361445 
L 323.68905 128.680817 
L 324.357437 125.081782 
L 325.025825 119.940269 
L 325.694212 124.641451 
L 326.3626 124.37192 
L 327.030987 122.548861 
L 327.699375 118.586847 
L 328.367762 126.096007 
L 329.03615 123.93159 
L 329.704538 122.536129 
L 330.372925 123.649327 
L 331.041313 116.975905 
L 331.7097 114.357945 
L 333.046475 111.301816 
L 333.714862 113.213518 
L 334.38325 112.204818 
L 335.051637 110.245311 
L 335.720025 109.033621 
L 336.388412 104.454713 
L 337.0568 103.40013 
L 337.725187 103.322297 
L 338.393575 89.101039 
L 339.061962 101.285438 
L 339.73035 106.199459 
L 340.398737 115.907389 
L 341.067125 115.530718 
L 341.735512 110.73825 
L 342.4039 113.355731 
L 343.072288 111.494956 
L 343.740675 116.23049 
L 344.409063 89.237246 
L 345.07745 70.599231 
L 345.745837 74.906687 
L 346.414225 104.732892 
L 347.082612 103.678789 
L 347.751 96.135757 
L 348.419387 93.854831 
L 349.087775 101.683729 
L 349.756162 105.559743 
L 350.42455 99.115255 
L 351.092937 106.9295 
L 351.761325 113.264205 
L 352.429712 105.478307 
L 353.0981 102.303267 
L 353.766487 103.935348 
L 354.434875 111.479581 
L 355.103262 109.09704 
L 355.77165 105.201329 
L 356.440038 103.728756 
L 357.108425 105.381977 
L 357.776813 93.213914 
L 358.4452 94.184658 
L 359.113587 106.463225 
L 359.781975 110.445417 
L 360.450362 115.67197 
L 361.11875 111.222542 
L 361.787137 97.103379 
L 363.123912 92.561946 
L 363.7923 98.025839 
L 364.460687 102.039021 
L 365.129075 86.992113 
L 365.797462 87.419952 
L 366.46585 102.193725 
L 367.134237 108.907023 
L 367.802625 105.162893 
L 368.471012 106.600873 
L 369.1394 62.43498 
L 369.807787 82.130461 
L 370.476175 97.006809 
L 371.144563 105.930408 
L 371.81295 108.150798 
L 372.481337 105.62076 
L 373.149725 114.399504 
L 374.4865 110.517485 
L 375.154887 96.178517 
L 375.823275 72.400671 
L 376.491662 75.390258 
L 377.16005 64.812477 
L 377.828437 65.433936 
L 378.496825 87.99649 
L 379.165212 88.41472 
L 379.8336 91.207083 
L 380.501987 77.101133 
L 381.170375 80.334066 
L 381.838762 99.677859 
L 382.50715 110.713267 
L 383.175537 111.192514 
L 383.843925 113.936352 
L 384.512312 114.843918 
L 385.1807 115.196326 
L 387.185862 125.542532 
L 387.85425 126.843104 
L 388.522637 126.625221 
L 389.191025 122.281251 
L 389.859412 126.953367 
L 390.5278 121.457283 
L 391.196187 128.73799 
L 391.864575 127.240675 
L 392.532962 125.020525 
L 393.20135 131.536119 
L 393.869737 128.402878 
L 395.206512 133.617419 
L 395.8749 132.421104 
L 396.543287 137.10403 
L 397.880062 131.111643 
L 398.54845 133.22105 
L 399.216837 137.874668 
L 399.885225 139.683074 
L 400.553612 136.088843 
L 401.222 136.151782 
L 401.890387 129.849987 
L 402.558775 136.999532 
L 403.227162 138.63858 
L 403.89555 136.746336 
L 404.563937 136.372067 
L 405.232325 137.997182 
L 405.900712 138.062523 
L 407.237487 126.705456 
L 407.905875 129.994842 
L 408.574262 134.707075 
L 409.24265 137.50184 
L 409.911037 138.942704 
L 410.579425 139.694605 
L 411.247812 139.659051 
L 411.9162 139.351565 
L 412.584587 138.646508 
L 413.252975 129.035628 
L 413.921362 135.462339 
L 414.58975 133.735129 
L 415.258137 129.130276 
L 415.926525 123.447298 
L 416.594912 104.535908 
L 417.931687 119.575128 
L 418.600075 100.843426 
L 419.268462 109.39684 
L 419.93685 97.338559 
L 420.605237 99.643748 
L 421.273625 95.193599 
L 421.942012 110.765396 
L 422.6104 119.73752 
L 423.278787 109.168867 
L 423.947175 103.305481 
L 424.615562 114.488627 
L 425.28395 91.07544 
L 425.952337 13.623636 
L 426.620725 14.204738 
L 427.289112 42.079604 
L 427.9575 55.568179 
L 428.625887 53.572638 
L 429.294275 56.269152 
L 429.962662 74.237903 
L 430.63105 88.27611 
L 431.967825 101.905216 
L 432.636212 103.944957 
L 433.3046 105.060317 
L 433.972987 105.731503 
L 434.641375 107.755149 
L 435.309762 114.494632 
L 435.97815 114.516733 
L 436.646537 111.505526 
L 437.314925 122.455894 
L 437.983312 123.164795 
L 438.6517 86.336782 
L 439.320087 93.386154 
L 439.988475 103.419828 
L 440.656862 105.683218 
L 441.32525 111.539397 
L 441.993637 116.046479 
L 442.662025 117.132051 
L 443.330412 123.043001 
L 443.9988 123.004566 
L 444.667187 123.353611 
L 445.335575 115.491802 
L 446.003962 125.953795 
L 446.67235 124.136501 
L 447.340737 118.153003 
L 448.009125 118.823468 
L 448.677512 78.352459 
L 449.3459 75.626158 
L 450.014287 86.169587 
L 450.682675 88.246082 
L 451.351062 105.743995 
L 452.01945 115.936456 
L 452.687837 120.78922 
L 453.356225 126.718908 
L 454.024612 121.937731 
L 454.693 114.057665 
L 455.361387 114.274347 
L 456.029775 123.131644 
L 456.698162 128.120134 
L 457.36655 127.792229 
L 458.034937 125.145441 
L 458.703325 124.81105 
L 459.371712 122.761459 
L 460.0401 132.753093 
L 460.708487 131.481828 
L 461.376875 133.584028 
L 462.045262 131.019637 
L 462.71365 132.772552 
L 463.382037 123.694248 
L 464.050425 131.737427 
L 464.718812 130.910095 
L 465.3872 128.91984 
L 466.055587 128.506174 
L 466.723975 134.007543 
L 467.392362 131.186833 
L 468.06075 130.245396 
L 468.729137 127.843877 
L 469.397525 128.828795 
L 470.065912 130.446703 
L 470.7343 135.496691 
L 471.402687 137.375483 
L 472.071075 135.831804 
L 472.739462 132.869362 
L 473.40785 132.541696 
L 474.076237 121.141869 
L 474.744625 132.646674 
L 476.0814 119.148731 
L 476.749787 126.762629 
L 478.086562 132.371137 
L 478.75495 133.18886 
L 479.423337 129.877613 
L 480.091725 129.755339 
L 480.760112 116.844022 
L 481.4285 106.622253 
L 482.096887 125.260749 
L 482.765275 126.019136 
L 483.433662 120.71379 
L 484.10205 108.256016 
L 484.770437 110.823049 
L 485.438825 127.262295 
L 486.107212 130.729927 
L 486.7756 129.470914 
L 487.443987 120.318141 
L 488.112375 133.481933 
L 488.780762 135.349194 
L 489.44915 130.927872 
L 490.785925 128.860985 
L 491.454312 135.095998 
L 492.1227 136.963018 
L 492.791087 137.365153 
L 493.459475 136.594515 
L 494.127862 133.272458 
L 494.79625 139.154341 
L 495.464637 139.79742 
L 496.133025 140.285796 
L 496.801412 136.242587 
L 497.4698 139.667459 
L 498.138187 140.669193 
L 498.806575 139.638152 
L 499.474962 140.295645 
L 500.14335 138.486759 
L 500.811737 110.608289 
L 501.480125 119.481441 
L 502.148512 120.989327 
L 502.8169 130.950213 
L 503.485287 132.21307 
L 504.153675 132.966653 
L 504.822062 134.695785 
L 505.49045 134.023398 
L 506.158837 117.482297 
L 506.827225 118.425897 
L 507.495612 104.453992 
L 508.164 118.22507 
L 508.832387 128.612113 
L 509.500775 130.012378 
L 510.169162 134.205728 
L 510.83755 125.234324 
L 511.505937 126.750378 
L 512.174325 132.908759 
L 512.842712 118.241405 
L 513.5111 127.087171 
L 514.179487 128.675052 
L 514.847875 135.103925 
L 515.516262 132.184724 
L 516.18465 131.124615 
L 516.853038 117.746544 
L 517.521425 25.354973 
L 518.189813 67.020375 
L 518.8582 92.166297 
L 519.526588 89.913477 
L 520.194975 100.977471 
L 520.863362 109.919087 
L 521.53175 98.608623 
L 522.200137 94.167362 
L 522.868525 106.290024 
L 523.536912 111.111799 
L 524.2053 103.387157 
L 524.873687 110.68396 
L 525.542075 113.308887 
L 526.210462 123.637556 
L 526.87885 118.916675 
L 527.547237 124.225624 
L 528.215625 122.659844 
L 528.884012 123.893634 
L 529.5524 117.362426 
L 530.220787 122.159217 
L 530.889175 118.856619 
L 531.557562 113.716066 
L 532.22595 109.834528 
L 532.894337 102.078658 
L 533.562725 100.17152 
L 534.231112 106.06133 
L 534.8995 94.800112 
L 535.567887 97.030111 
L 536.236275 105.956112 
L 536.904662 111.308302 
L 537.57305 99.799893 
L 538.241437 93.001556 
L 538.909825 109.540494 
L 539.578212 112.58293 
L 540.2466 116.290306 
L 540.914987 116.321055 
L 541.583375 111.923756 
L 542.251762 122.857789 
L 542.92015 123.089845 
L 543.588538 131.170258 
L 544.256925 131.649264 
L 544.925313 126.96754 
L 545.5937 128.744717 
L 546.262088 119.12663 
L 546.930475 131.594013 
L 547.598862 134.381331 
L 548.935637 131.535158 
L 549.604025 131.811416 
L 550.272412 125.477911 
L 550.9408 133.985202 
L 551.609187 134.413521 
L 552.277575 130.267737 
L 552.945962 117.616102 
L 553.61435 122.457335 
L 554.282737 116.960771 
L 554.951125 126.487092 
L 555.619512 127.165725 
L 556.2879 124.493233 
L 556.956287 123.872735 
L 557.624675 112.852702 
L 558.293062 86.779515 
L 558.96145 115.965764 
L 560.298225 125.310956 
L 560.966612 127.034082 
L 561.635 127.327155 
L 561.635 127.327155 
" clip-path="url(#p4d689ed4d3)" style="fill: none; stroke: #1f77b4; stroke-width: 1.5; stroke-linecap: square"/>
   </g>
   <g id="patch_3">
    <path d="M 26.925 148.52 
L 26.925 7.2 
" style="fill: none"/>
   </g>
   <g id="patch_4">
    <path d="M 561.635 148.52 
L 561.635 7.2 
" style="fill: none"/>
   </g>
   <g id="patch_5">
    <path d="M 26.925 148.52 
L 561.635 148.52 
" style="fill: none; stroke: #000000; stroke-width: 0.8; stroke-linejoin: miter; stroke-linecap: square"/>
   </g>
   <g id="patch_6">
    <path d="M 26.925 7.2 
L 561.635 7.2 
" style="fill: none"/>
   </g>
   <g id="legend_1">
    <g id="patch_7">
     <path d="M 33.925 29.878125 
L 106.6625 29.878125 
Q 108.6625 29.878125 108.6625 27.878125 
L 108.6625 14.2 
Q 108.6625 12.2 106.6625 12.2 
L 33.925 12.2 
Q 31.925 12.2 31.925 14.2 
L 31.925 27.878125 
Q 31.925 29.878125 33.925 29.878125 
L 33.925 29.878125 
z
" style="fill: none; opacity: 0"/>
    </g>
    <g id="line2d_28">
     <path d="M 35.925 20.298437 
L 45.925 20.298437 
L 55.925 20.298437 
" style="fill: none; stroke: #1f77b4; stroke-width: 1.5; stroke-linecap: square"/>
    </g>
    <g id="text_14">
     <!-- VIXCLSx -->
     <g transform="translate(63.925 23.798437) scale(0.1 -0.1)">
      <defs>
       <path id="DejaVuSans-56" d="M 1831 0 
L 50 4666 
L 709 4666 
L 2188 738 
L 3669 4666 
L 4325 4666 
L 2547 0 
L 1831 0 
z
" transform="scale(0.015625)"/>
       <path id="DejaVuSans-49" d="M 628 4666 
L 1259 4666 
L 1259 0 
L 628 0 
L 628 4666 
z
" transform="scale(0.015625)"/>
       <path id="DejaVuSans-58" d="M 403 4666 
L 1081 4666 
L 2241 2931 
L 3406 4666 
L 4084 4666 
L 2584 2425 
L 4184 0 
L 3506 0 
L 2194 1984 
L 872 0 
L 191 0 
L 1856 2491 
L 403 4666 
z
" transform="scale(0.015625)"/>
       <path id="DejaVuSans-43" d="M 4122 4306 
L 4122 3641 
Q 3803 3938 3442 4084 
Q 3081 4231 2675 4231 
Q 1875 4231 1450 3742 
Q 1025 3253 1025 2328 
Q 1025 1406 1450 917 
Q 1875 428 2675 428 
Q 3081 428 3442 575 
Q 3803 722 4122 1019 
L 4122 359 
Q 3791 134 3420 21 
Q 3050 -91 2638 -91 
Q 1578 -91 968 557 
Q 359 1206 359 2328 
Q 359 3453 968 4101 
Q 1578 4750 2638 4750 
Q 3056 4750 3426 4639 
Q 3797 4528 4122 4306 
z
" transform="scale(0.015625)"/>
       <path id="DejaVuSans-4c" d="M 628 4666 
L 1259 4666 
L 1259 531 
L 3531 531 
L 3531 0 
L 628 0 
L 628 4666 
z
" transform="scale(0.015625)"/>
       <path id="DejaVuSans-53" d="M 3425 4513 
L 3425 3897 
Q 3066 4069 2747 4153 
Q 2428 4238 2131 4238 
Q 1616 4238 1336 4038 
Q 1056 3838 1056 3469 
Q 1056 3159 1242 3001 
Q 1428 2844 1947 2747 
L 2328 2669 
Q 3034 2534 3370 2195 
Q 3706 1856 3706 1288 
Q 3706 609 3251 259 
Q 2797 -91 1919 -91 
Q 1588 -91 1214 -16 
Q 841 59 441 206 
L 441 856 
Q 825 641 1194 531 
Q 1563 422 1919 422 
Q 2459 422 2753 634 
Q 3047 847 3047 1241 
Q 3047 1584 2836 1778 
Q 2625 1972 2144 2069 
L 1759 2144 
Q 1053 2284 737 2584 
Q 422 2884 422 3419 
Q 422 4038 858 4394 
Q 1294 4750 2059 4750 
Q 2388 4750 2728 4690 
Q 3069 4631 3425 4513 
z
" transform="scale(0.015625)"/>
       <path id="DejaVuSans-78" d="M 3513 3500 
L 2247 1797 
L 3578 0 
L 2900 0 
L 1881 1375 
L 863 0 
L 184 0 
L 1544 1831 
L 300 3500 
L 978 3500 
L 1906 2253 
L 2834 3500 
L 3513 3500 
z
" transform="scale(0.015625)"/>
      </defs>
      <use xlink:href="#DejaVuSans-56"/>
      <use xlink:href="#DejaVuSans-49" transform="translate(68.408203 0)"/>
      <use xlink:href="#DejaVuSans-58" transform="translate(97.900391 0)"/>
      <use xlink:href="#DejaVuSans-43" transform="translate(159.15625 0)"/>
      <use xlink:href="#DejaVuSans-4c" transform="translate(228.980469 0)"/>
      <use xlink:href="#DejaVuSans-53" transform="translate(284.693359 0)"/>
      <use xlink:href="#DejaVuSans-78" transform="translate(348.169922 0)"/>
     </g>
    </g>
   </g>
  </g>
 </g>
 <defs>
  <clipPath id="p4d689ed4d3">
   <rect x="26.925" y="7.2" width="534.71" height="141.32"/>
  </clipPath>
 </defs>
</svg>
