<svg version="1.1" xmlns="http://www.w3.org/2000/svg" xmlns:xlink="http://www.w3.org/1999/xlink" width="800" height="400"><defs><clipPath id="sNPlotVnRrnT"><path fill="none" stroke="none" d="M 72.5 30.5 L 795.5 30.5 L 795.5 372.5 L 72.5 372.5 L 72.5 30.5"/></clipPath><clipPath id="LpFTtCOnuZfJ"><path fill="none" stroke="none" d="M 72.5 30.5 L 795.5 30.5 L 795.5 372.5 L 72.5 372.5 L 72.5 30.5"/></clipPath><clipPath id="oaetwNntJURc"><path fill="none" stroke="none" d="M 72.5 30.5 L 795.5 30.5 L 795.5 372.5 L 72.5 372.5 L 72.5 30.5"/></clipPath><clipPath id="VNUyWLanFiaN"><path fill="none" stroke="none" d="M 72.5 30.5 L 795.5 30.5 L 795.5 372.5 L 72.5 372.5 L 72.5 30.5"/></clipPath><clipPath id="trMDSbopdsgu"><path fill="none" stroke="none" d="M 72.5 30.5 L 795.5 30.5 L 795.5 372.5 L 72.5 372.5 L 72.5 30.5"/></clipPath></defs><path fill="none" stroke="rgb(240,240,240)" paint-order="fill" d="M 72.5 350.5 L 795.5 350.5 M 72.5 309.5 L 795.5 309.5 M 72.5 268.5 L 795.5 268.5 M 72.5 226.5 L 795.5 226.5 M 72.5 185.5 L 795.5 185.5 M 72.5 144.5 L 795.5 144.5 M 72.5 103.5 L 795.5 103.5 M 72.5 61.5 L 795.5 61.5" stroke-opacity="1" stroke-linejoin="bevel" stroke-miterlimit="10" stroke-dasharray="" clip-path="url(#LpFTtCOnuZfJ)"/><path fill="none" stroke="none"/><path fill="none" stroke="rgb(96,131,169)" paint-order="fill" d="M 105.36363983154297 356.9545593261719 L 106.96133422851562 356.2742614746094 L 108.4044189453125 355.98565673828125 L 110.00211334228516 354.9755554199219 L 111.54827880859375 353.7386779785156 L 113.1459732055664 353.1202392578125 L 114.692138671875 355.923828125 L 116.28983306884766 353.75927734375 L 117.88753509521484 352.4193420410156 L 119.4336929321289 350.790771484375 L 121.0313949584961 350.87322998046875 L 122.57755279541016 351.03814697265625 L 124.17525482177734 348.0284423828125 L 125.77294921875 346.3998718261719 L 127.21603393554688 347.1626281738281 L 128.81373596191406 346.5647888183594 L 130.35989379882812 346.544189453125 L 131.9575958251953 347.3275451660156 L 133.50375366210938 346.544189453125 L 135.10145568847656 344.565185546875 L 136.69915771484375 343.34893798828125 L 138.2453155517578 343.5962829589844 L 139.843017578125 344.9362487792969 L 141.38917541503906 343.49322509765625 L 142.9868621826172 341.8852844238281 L 144.58456420898438 342.7923278808594 L 146.07919311523438 342.66864013671875 L 147.67689514160156 342.8129577636719 L 149.22305297851562 342.83355712890625 L 150.8207550048828 341.4936218261719 L 152.36691284179688 340.05059814453125 L 153.96461486816406 339.8444519042969 L 155.5623016357422 340.6690368652344 L 157.10845947265625 341.7409973144531 L 158.70616149902344 340.1536560058594 L 160.2523193359375 338.07159423828125 L 161.8500213623047 337.7829895019531 L 163.44772338867188 338.4426574707031 L 164.89080810546875 338.1746520996094 L 166.48851013183594 340.8133239746094 L 168.03466796875 340.54534912109375 L 169.6323699951172 342.3800354003906 L 171.17852783203125 341.67913818359375 L 172.77622985839844 341.4729919433594 L 174.37391662597656 343.7818298339844 L 175.9200897216797 342.33880615234375 L 177.5177764892578 341.2462463378906 L 179.06394958496094 340.5659484863281 L 180.66163635253906 339.2672424316406 L 182.25933837890625 338.1128234863281 L 183.70242309570312 336.97900390625 L 185.3001251220703 334.79388427734375 L 186.84628295898438 332.5262756347656 L 188.44398498535156 332.0521240234375 L 189.99014282226562 329.6402282714844 L 191.5878448486328 328.4033508300781 L 193.18553161621094 326.9190979003906 L 194.73170471191406 325.41424560546875 L 196.3293914794922 322.8168029785156 L 197.8755645751953 319.66278076171875 L 199.47325134277344 318.3640441894531 L 201.07095336914062 315.9109191894531 L 202.5140380859375 316.50872802734375 L 204.1117401123047 313.91131591796875 L 205.65789794921875 314.24114990234375 L 207.25559997558594 309.7471618652344 L 208.8017578125 303.7483215332031 L 210.3994598388672 304.2843017578125 L 211.99716186523438 300.346923828125 L 213.54331970214844 304.9439697265625 L 215.14102172851562 299.08941650390625 L 216.6871795654297 298.2236022949219 L 218.28488159179688 300.73858642578125 L 219.882568359375 300.161376953125 L 221.377197265625 293.8533020019531 L 222.9748992919922 292.69891357421875 L 224.52105712890625 295.81170654296875 L 226.11875915527344 296.3682861328125 L 227.6649169921875 291.19403076171875 L 229.2626190185547 291.7918701171875 L 230.8603057861328 295.1932678222656 L 232.40646362304688 296.4301452636719 L 234.00416564941406 297.4196472167969 L 235.55032348632812 296.0178527832031 L 237.1480255126953 298.09991455078125 L 238.7457275390625 302.140380859375 L 240.18881225585938 300.9859619140625 L 241.78651428222656 298.8832702636719 L 243.33267211914062 295.31695556640625 L 244.9303741455078 293.7296447753906 L 246.47653198242188 291.7506408691406 L 248.07423400878906 297.2547302246094 L 249.6719207763672 301.0890197753906 L 251.2180938720703 306.7374267578125 L 252.81578063964844 308.5721130371094 L 254.36195373535156 308.61334228515625 L 255.9596405029297 306.98480224609375 L 257.5573425292969 306.6961975097656 L 259.00042724609375 304.9439697265625 L 260.5981140136719 304.4698181152344 L 262.144287109375 301.6662292480469 L 263.7419738769531 299.501708984375 L 265.28814697265625 296.96612548828125 L 266.8858337402344 293.42041015625 L 268.4835510253906 290.8229675292969 L 270.0296936035156 286.7206726074219 L 271.6274108886719 283.5254211425781 L 273.1735534667969 281.48455810546875 L 274.7712707519531 277.0936584472656 L 276.36895751953125 278.8459167480469 L 277.8120422363281 275.98046875 L 279.40972900390625 274.0426940917969 L 280.9559020996094 272.2698669433594 L 282.5535888671875 273.3005676269531 L 284.0997619628906 268.6004638671875 L 285.69744873046875 269.3013610839844 L 287.295166015625 274.1457824707031 L 288.84130859375 274.24884033203125 L 290.43902587890625 273.77471923828125 L 291.98516845703125 270.00225830078125 L 293.5828857421875 272.12554931640625 L 295.1805725097656 276.7638244628906 L 296.6752014160156 278.3305358886719 L 298.27288818359375 276.8669128417969 L 299.8190612792969 277.9182434082031 L 301.416748046875 273.7128601074219 L 302.9629211425781 276.64013671875 L 304.56060791015625 275.25897216796875 L 306.1583251953125 278.7634582519531 L 307.7044677734375 280.98980712890625 L 309.30218505859375 277.40289306640625 L 310.84832763671875 274.6611328125 L 312.446044921875 268.6416931152344 L 314.0437316894531 263.59112548828125 L 315.48681640625 259.5712585449219 L 317.0845031738281 256.0461730957031 L 318.63067626953125 254.66500854492188 L 320.2283630371094 256.4790802001953 L 321.7745361328125 256.85015869140625 L 323.3722229003906 252.00572204589844 L 324.9699401855469 253.09829711914062 L 326.5160827636719 251.57281494140625 L 328.1138000488281 245.22352600097656 L 329.6599426269531 243.8629608154297 L 331.2576599121094 249.36705017089844 L 332.8553466796875 246.9963836669922 L 334.2984313964844 246.85208129882812 L 335.8961181640625 251.46974182128906 L 337.4422912597656 261.9007263183594 L 339.03997802734375 277.07305908203125 L 340.5861511230469 274.3106994628906 L 342.183837890625 271.1154479980469 L 343.78155517578125 272.1874084472656 L 345.32769775390625 275.9598693847656 L 346.9254150390625 267.9820251464844 L 348.4715576171875 262.6222229003906 L 350.06927490234375 257.6335144042969 L 351.6669616699219 255.8606414794922 L 353.11004638671875 256.3760070800781 L 354.7077331542969 250.006103515625 L 356.25390625 247.1613006591797 L 357.8515930175781 247.22314453125 L 359.39776611328125 249.36705017089844 L 360.9954528808594 245.42967224121094 L 362.5931701660156 241.57473754882812 L 364.1393127441406 241.20367431640625 L 365.7370300292969 242.0488739013672 L 367.2831726074219 238.85362243652344 L 368.8808898925781 234.1534881591797 L 370.47857666015625 232.21572875976562 L 371.97320556640625 229.30906677246094 L 373.5708923339844 226.95899963378906 L 375.1170654296875 225.35107421875 L 376.7147521972656 226.34056091308594 L 378.26092529296875 220.19741821289062 L 379.8586120605469 222.71240234375 L 381.4563293457031 219.8057403564453 L 383.0024719238281 216.83724975585938 L 384.6001892089844 215.62098693847656 L 386.1463317871094 218.6719512939453 L 387.7440490722656 214.2191925048828 L 389.34173583984375 212.92047119140625 L 390.7848205566406 212.75555419921875 L 392.38250732421875 210.40550231933594 L 393.9286804199219 207.70498657226562 L 395.5263671875 216.44557189941406 L 397.0725402832031 216.71356201171875 L 398.67022705078125 213.45645141601562 L 400.2679443359375 207.49884033203125 L 401.8140869140625 203.35531616210938 L 403.41180419921875 201.78860473632812 L 404.95794677734375 202.6544189453125 L 406.5556640625 199.37669372558594 L 408.1533508300781 200.6754150390625 L 409.596435546875 208.52957153320312 L 411.1941223144531 202.9224090576172 L 412.74029541015625 212.85862731933594 L 414.3379821777344 214.34288024902344 L 415.8841552734375 214.79640197753906 L 417.4818420410156 225.49537658691406 L 419.0795593261719 231.34991455078125 L 420.6257019042969 232.751708984375 L 422.2234191894531 224.7944793701172 L 423.7695617675781 224.0935821533203 L 425.3672790527344 217.66183471679688 L 426.9649658203125 211.66299438476562 L 428.4080505371094 207.4163818359375 L 430.0057678222656 204.2417449951172 L 431.5519104003906 200.88156127929688 L 433.14959716796875 203.27285766601562 L 434.6957702636719 200.0157470703125 L 436.29345703125 196.9647979736328 L 437.89117431640625 194.24366760253906 L 439.43731689453125 194.55288696289062 L 441.0350341796875 200.7372589111328 L 442.5811767578125 195.29501342773438 L 444.17889404296875 195.83099365234375 L 445.7765808105469 204.67465209960938 L 447.2712097167969 208.09666442871094 L 448.868896484375 194.5322723388672 L 450.4150695800781 189.9970703125 L 452.01275634765625 184.57542419433594 L 453.5589294433594 184.9877166748047 L 455.1566162109375 189.5023193359375 L 456.75433349609375 182.92626953125 L 458.30047607421875 177.77261352539062 L 459.898193359375 174.4742889404297 L 461.4443359375 172.20668029785156 L 463.04205322265625 181.48324584960938 L 464.6397399902344 182.51397705078125 L 466.08282470703125 187.04917907714844 L 467.6805114746094 182.92626953125 L 469.2266845703125 176.1234588623047 L 470.8243713378906 187.37901306152344 L 472.37054443359375 196.5112762451172 L 473.9682312011719 197.60385131835938 L 475.5659484863281 196.92356872558594 L 477.1120910644531 194.84149169921875 L 478.7098083496094 193.41908264160156 L 480.2559509277344 203.93252563476562 L 481.8536682128906 205.58168029785156 L 483.45135498046875 212.07528686523438 L 484.8944396972656 209.0037078857422 L 486.49212646484375 214.56964111328125 L 488.0382995605469 234.95745849609375 L 489.635986328125 235.9263458251953 L 491.1821594238281 235.65835571289062 L 492.77984619140625 231.12315368652344 L 494.3775634765625 221.51675415039062 L 495.9237060546875 217.82675170898438 L 497.52142333984375 218.0122833251953 L 499.06756591796875 206.11766052246094 L 500.665283203125 199.0262451171875 L 502.2629699707031 191.5637664794922 L 503.7060546875 186.4307403564453 L 505.30377197265625 179.42178344726562 L 506.84991455078125 182.30783081054688 L 508.4476318359375 186.18336486816406 L 509.9937744140625 187.66761779785156 L 511.5914611816406 191.2957763671875 L 513.1891479492188 186.84303283691406 L 514.7353515625 191.1927032470703 L 516.3330078125 200.48988342285156 L 517.8792114257812 187.31716918945312 L 519.4768676757812 178.8033447265625 L 521.0745849609375 174.88658142089844 L 522.5692138671875 169.73292541503906 L 524.1669311523438 167.46533203125 L 525.7130737304688 169.73292541503906 L 527.310791015625 169.114501953125 L 528.85693359375 170.76365661621094 L 530.4546508789062 162.93011474609375 L 532.0523071289062 166.22845458984375 L 533.5985107421875 165.816162109375 L 535.1961669921875 154.4781494140625 L 536.7423706054688 149.5306396484375 L 538.3400268554688 147.6753387451172 L 539.937744140625 156.3334503173828 L 541.380859375 160.04408264160156 L 542.978515625 164.37313842773438 L 544.5247192382812 170.76365661621094 L 546.1223754882812 175.71116638183594 L 547.6685180664062 173.6497039794922 L 549.2662353515625 177.77261352539062 L 550.8639526367188 174.06199645996094 L 552.4100952148438 165.40386962890625 L 554.0078125 181.48324584960938 L 555.553955078125 196.36697387695312 L 557.1516723632812 193.62522888183594 L 558.7493896484375 199.10870361328125 L 560.1924438476562 190.88348388671875 L 561.7901611328125 201.14955139160156 L 563.3363037109375 206.90101623535156 L 564.9340209960938 206.6536407470703 L 566.4801635742188 228.25772094726562 L 568.077880859375 235.01930236816406 L 569.675537109375 251.325439453125 L 571.2217407226562 248.60430908203125 L 572.8193969726562 243.8629608154297 L 574.3656005859375 253.48997497558594 L 575.9632568359375 242.1725616455078 L 577.5609741210938 226.62916564941406 L 579.0040893554688 219.0430145263672 L 580.6017456054688 217.10523986816406 L 582.14794921875 206.01458740234375 L 583.74560546875 201.2732391357422 L 585.2918090820312 201.08770751953125 L 586.8894653320312 215.06439208984375 L 588.4871826171875 217.20831298828125 L 590.0333251953125 209.1686248779297 L 591.6310424804688 206.07643127441406 L 593.1771850585938 208.900634765625 L 594.77490234375 192.07913208007812 L 596.3726196289062 184.36927795410156 L 597.8672485351562 183.33856201171875 L 599.4649047851562 181.68939208984375 L 601.0110473632812 183.13241577148438 L 602.6087646484375 181.89553833007812 L 604.1549072265625 176.94802856445312 L 605.7526245117188 178.8033447265625 L 607.350341796875 174.2681427001953 L 608.896484375 181.68939208984375 L 610.4942016601562 183.13241577148438 L 612.0403442382812 175.9173126220703 L 613.6380615234375 177.77261352539062 L 615.2357788085938 183.54470825195312 L 616.6788330078125 184.36927795410156 L 618.2765502929688 187.56454467773438 L 619.8226928710938 188.16236877441406 L 621.42041015625 187.06979370117188 L 622.966552734375 185.19386291503906 L 624.5642700195312 190.24444580078125 L 626.1619262695312 193.3778533935547 L 627.7081298828125 198.51087951660156 L 629.3057861328125 197.397705078125 L 630.8519897460938 198.34596252441406 L 632.4496459960938 205.7053680419922 L 634.04736328125 208.32342529296875 L 635.490478515625 208.65325927734375 L 637.088134765625 200.63418579101562 L 638.6343383789062 190.94532775878906 L 640.2319946289062 190.4299774169922 L 641.7781982421875 191.3988494873047 L 643.3758544921875 177.56646728515625 L 644.9735717773438 177.56646728515625 L 646.5197143554688 184.36927795410156 L 648.117431640625 196.5112762451172 L 649.66357421875 193.62522888183594 L 651.2612915039062 186.2039794921875 L 652.8590087890625 189.25494384765625 L 654.3020629882812 185.40000915527344 L 655.8997802734375 181.277099609375 L 657.4459228515625 186.16275024414062 L 659.0436401367188 182.1016845703125 L 660.5897827148438 180.04022216796875 L 662.1875 170.3513641357422 L 663.78515625 167.87762451171875 L 665.3313598632812 176.32960510253906 L 666.9290161132812 177.978759765625 L 668.4752197265625 169.52679443359375 L 670.0728759765625 163.13626098632812 L 671.6705932617188 154.06585693359375 L 673.1652221679688 175.9173126220703 L 674.762939453125 179.42178344726562 L 676.30908203125 169.73292541503906 L 677.9067993164062 155.5088653564453 L 679.4529418945312 144.78929138183594 L 681.0506591796875 137.16189575195312 L 682.6483154296875 130.97752380371094 L 684.1945190429688 123.35012817382812 L 685.7921752929688 112.0121078491211 L 687.33837890625 116.54731750488281 L 688.93603515625 117.57804870605469 L 690.5337524414062 127.06075286865234 L 691.9768676757812 117.16575622558594 L 693.5745239257812 114.69200134277344 L 695.1207275390625 120.25794219970703 L 696.7183837890625 119.02106475830078 L 698.2645874023438 125.61772918701172 L 699.8622436523438 124.58700561523438 L 701.4599609375 147.88148498535156 L 703.006103515625 144.78929138183594 L 704.6038208007812 138.39877319335938 L 706.1499633789062 136.54345703125 L 707.7476806640625 149.94293212890625 L 709.3453979492188 155.7150115966797 L 710.7884521484375 163.3424072265625 L 712.3861694335938 152.00439453125 L 713.9323120117188 151.79824829101562 L 715.530029296875 165.61001586914062 L 717.076171875 166.22845458984375 L 718.6738891601562 165.61001586914062 L 720.2715454101562 139.42950439453125 L 721.8177490234375 118.19647979736328 L 723.4154052734375 107.06461334228516 L 724.9616088867188 104.38471221923828 L 726.5592651367188 94.2835693359375 L 728.156982421875 89.12992858886719 L 729.60009765625 78.61649322509766 L 731.19775390625 66.6600341796875 L 732.7439575195312 53.46670150756836 L 734.3416137695312 48.72534942626953 L 735.8878173828125 47.48847579956055 L 737.4854736328125 56.9711799621582 L 739.0831909179688 47.0761833190918 L 740.6293334960938 46.04545593261719 L 742.22705078125 51.199100494384766 L 743.773193359375 52.8482666015625 L 745.3709106445312 48.72534942626953 L 746.9686279296875 67.484619140625 L 748.4632568359375 67.27847290039062 L 750.0609130859375 66.86618041992188 L 751.6071166992188 68.9276351928711 L 753.2047729492188 76.14273834228516 L 754.7509765625 80.26565551757812 L 756.3486328125 52.8482666015625 L 757.9463500976562 49.343788146972656 L 759.4924926757812 52.023681640625 L 761.0902099609375 48.931495666503906 L 762.6363525390625 52.642120361328125" stroke-opacity="1" stroke-linejoin="bevel" stroke-miterlimit="10" stroke-width="2" stroke-dasharray="" clip-path="url(#oaetwNntJURc)"/><path fill="none" stroke="none"/><path fill="rgb(235,87,87)" stroke="rgb(235,87,87)" paint-order="fill" d="M 218.54331970214844 304.9439697265625 A 5 5 0 1 1 218.54331720214864 304.93896972739583" fill-opacity="0.75" clip-path="url(#VNUyWLanFiaN)" stroke-opacity="0.75" stroke-linejoin="bevel" stroke-miterlimit="10" stroke-width="2" stroke-dasharray=""/><path fill="rgb(235,87,87)" stroke="rgb(235,87,87)" paint-order="fill" d="M 259.36195373535156 308.61334228515625 A 5 5 0 1 1 259.3619512353518 308.6083422859896" fill-opacity="0.75" clip-path="url(#VNUyWLanFiaN)" stroke-opacity="0.75" stroke-linejoin="bevel" stroke-miterlimit="10" stroke-width="2" stroke-dasharray=""/><path fill="rgb(235,87,87)" stroke="rgb(235,87,87)" paint-order="fill" d="M 312.7044677734375 280.98980712890625 A 5 5 0 1 1 312.70446527343773 280.9848071297396" fill-opacity="0.75" clip-path="url(#VNUyWLanFiaN)" stroke-opacity="0.75" stroke-linejoin="bevel" stroke-miterlimit="10" stroke-width="2" stroke-dasharray=""/><path fill="rgb(235,87,87)" stroke="rgb(235,87,87)" paint-order="fill" d="M 344.03997802734375 277.07305908203125 A 5 5 0 1 1 344.039975527344 277.0680590828646" fill-opacity="0.75" clip-path="url(#VNUyWLanFiaN)" stroke-opacity="0.75" stroke-linejoin="bevel" stroke-miterlimit="10" stroke-width="2" stroke-dasharray=""/><path fill="rgb(235,87,87)" stroke="rgb(235,87,87)" paint-order="fill" d="M 425.6257019042969 232.751708984375 A 5 5 0 1 1 425.6256994042971 232.74670898520833" fill-opacity="0.75" clip-path="url(#VNUyWLanFiaN)" stroke-opacity="0.75" stroke-linejoin="bevel" stroke-miterlimit="10" stroke-width="2" stroke-dasharray=""/><path fill="rgb(235,87,87)" stroke="rgb(235,87,87)" paint-order="fill" d="M 452.2712097167969 208.09666442871094 A 5 5 0 1 1 452.2712072167971 208.09166442954427" fill-opacity="0.75" clip-path="url(#VNUyWLanFiaN)" stroke-opacity="0.75" stroke-linejoin="bevel" stroke-miterlimit="10" stroke-width="2" stroke-dasharray=""/><path fill="rgb(235,87,87)" stroke="rgb(235,87,87)" paint-order="fill" d="M 494.635986328125 235.9263458251953 A 5 5 0 1 1 494.63598382812523 235.92134582602864" fill-opacity="0.75" clip-path="url(#VNUyWLanFiaN)" stroke-opacity="0.75" stroke-linejoin="bevel" stroke-miterlimit="10" stroke-width="2" stroke-dasharray=""/><path fill="rgb(235,87,87)" stroke="rgb(235,87,87)" paint-order="fill" d="M 579.3656005859375 253.48997497558594 A 5 5 0 1 1 579.3655980859377 253.48497497641927" fill-opacity="0.75" clip-path="url(#VNUyWLanFiaN)" stroke-opacity="0.75" stroke-linejoin="bevel" stroke-miterlimit="10" stroke-width="2" stroke-dasharray=""/><path fill="rgb(235,87,87)" stroke="rgb(235,87,87)" paint-order="fill" d="M 722.076171875 166.22845458984375 A 5 5 0 1 1 722.0761693750002 166.22345459067708" fill-opacity="0.75" clip-path="url(#VNUyWLanFiaN)" stroke-opacity="0.75" stroke-linejoin="bevel" stroke-miterlimit="10" stroke-width="2" stroke-dasharray=""/><path fill="rgb(235,87,87)" stroke="rgb(235,87,87)" paint-order="fill" d="M 759.7509765625 80.26565551757812 A 5 5 0 1 1 759.7509740625002 80.26065551841145" fill-opacity="0.75" clip-path="url(#VNUyWLanFiaN)" stroke-opacity="0.75" stroke-linejoin="bevel" stroke-miterlimit="10" stroke-width="2" stroke-dasharray=""/><path fill="none" stroke="rgb(47,34,53)" paint-order="fill" d="M 105.5 376.5 L 105.5 372.5 M 199.5 376.5 L 199.5 372.5 M 293.5 376.5 L 293.5 372.5 M 387.5 376.5 L 387.5 372.5 M 481.5 376.5 L 481.5 372.5 M 575.5 376.5 L 575.5 372.5 M 670.5 376.5 L 670.5 372.5 M 764.5 376.5 L 764.5 372.5" stroke-opacity="1" stroke-linejoin="bevel" stroke-miterlimit="10" stroke-dasharray=""/><path fill="none" stroke="rgb(0,0,0)" paint-order="fill" d="" stroke-opacity="1" stroke-linejoin="bevel" stroke-miterlimit="10" stroke-dasharray=""/><text fill="rgb(47,34,53)" stroke="none" font-family="helvetica" font-size="16px" font-style="normal" font-weight="normal" text-decoration="normal" x="0" y="0" text-anchor="middle" dominant-baseline="hanging" transform="matrix(1, 0, 0, 1, 105.5, 381.5)" fill-opacity="1">1950</text><text fill="rgb(47,34,53)" stroke="none" font-family="helvetica" font-size="16px" font-style="normal" font-weight="normal" text-decoration="normal" x="0" y="0" text-anchor="middle" dominant-baseline="hanging" transform="matrix(1, 0, 0, 1, 199.5, 381.5)" fill-opacity="1">1955</text><text fill="rgb(47,34,53)" stroke="none" font-family="helvetica" font-size="16px" font-style="normal" font-weight="normal" text-decoration="normal" x="0" y="0" text-anchor="middle" dominant-baseline="hanging" transform="matrix(1, 0, 0, 1, 293.5, 381.5)" fill-opacity="1">1960</text><text fill="rgb(47,34,53)" stroke="none" font-family="helvetica" font-size="16px" font-style="normal" font-weight="normal" text-decoration="normal" x="0" y="0" text-anchor="middle" dominant-baseline="hanging" transform="matrix(1, 0, 0, 1, 387.5, 381.5)" fill-opacity="1">1965</text><text fill="rgb(47,34,53)" stroke="none" font-family="helvetica" font-size="16px" font-style="normal" font-weight="normal" text-decoration="normal" x="0" y="0" text-anchor="middle" dominant-baseline="hanging" transform="matrix(1, 0, 0, 1, 481.5, 381.5)" fill-opacity="1">1970</text><text fill="rgb(47,34,53)" stroke="none" font-family="helvetica" font-size="16px" font-style="normal" font-weight="normal" text-decoration="normal" x="0" y="0" text-anchor="middle" dominant-baseline="hanging" transform="matrix(1, 0, 0, 1, 575.5, 381.5)" fill-opacity="1">1975</text><text fill="rgb(47,34,53)" stroke="none" font-family="helvetica" font-size="16px" font-style="normal" font-weight="normal" text-decoration="normal" x="0" y="0" text-anchor="middle" dominant-baseline="hanging" transform="matrix(1, 0, 0, 1, 670.5, 381.5)" fill-opacity="1">1980</text><text fill="rgb(47,34,53)" stroke="none" font-family="helvetica" font-size="16px" font-style="normal" font-weight="normal" text-decoration="normal" x="0" y="0" text-anchor="middle" dominant-baseline="hanging" transform="matrix(1, 0, 0, 1, 764.5, 381.5)" fill-opacity="1">1985</text><path fill="none" stroke="rgb(47,34,53)" paint-order="fill" d="M 68.5 350.5 L 72.5 350.5 M 68.5 309.5 L 72.5 309.5 M 68.5 268.5 L 72.5 268.5 M 68.5 226.5 L 72.5 226.5 M 68.5 185.5 L 72.5 185.5 M 68.5 144.5 L 72.5 144.5 M 68.5 103.5 L 72.5 103.5 M 68.5 61.5 L 72.5 61.5" stroke-opacity="1" stroke-linejoin="bevel" stroke-miterlimit="10" stroke-dasharray=""/><text fill="rgb(47,34,53)" stroke="none" font-family="helvetica" font-size="16px" font-style="normal" font-weight="normal" text-decoration="normal" x="0" y="0" text-anchor="end" dominant-baseline="central" transform="matrix(1, 0, 0, 1, 63.5, 350.5)" fill-opacity="1">$20</text><text fill="rgb(47,34,53)" stroke="none" font-family="helvetica" font-size="16px" font-style="normal" font-weight="normal" text-decoration="normal" x="0" y="0" text-anchor="end" dominant-baseline="central" transform="matrix(1, 0, 0, 1, 63.5, 309.5)" fill-opacity="1">$40</text><text fill="rgb(47,34,53)" stroke="none" font-family="helvetica" font-size="16px" font-style="normal" font-weight="normal" text-decoration="normal" x="0" y="0" text-anchor="end" dominant-baseline="central" transform="matrix(1, 0, 0, 1, 63.5, 268.5)" fill-opacity="1">$60</text><text fill="rgb(47,34,53)" stroke="none" font-family="helvetica" font-size="16px" font-style="normal" font-weight="normal" text-decoration="normal" x="0" y="0" text-anchor="end" dominant-baseline="central" transform="matrix(1, 0, 0, 1, 63.5, 226.5)" fill-opacity="1">$80</text><text fill="rgb(47,34,53)" stroke="none" font-family="helvetica" font-size="16px" font-style="normal" font-weight="normal" text-decoration="normal" x="0" y="0" text-anchor="end" dominant-baseline="central" transform="matrix(1, 0, 0, 1, 63.5, 185.5)" fill-opacity="1">$100</text><text fill="rgb(47,34,53)" stroke="none" font-family="helvetica" font-size="16px" font-style="normal" font-weight="normal" text-decoration="normal" x="0" y="0" text-anchor="end" dominant-baseline="central" transform="matrix(1, 0, 0, 1, 63.5, 144.5)" fill-opacity="1">$120</text><text fill="rgb(47,34,53)" stroke="none" font-family="helvetica" font-size="16px" font-style="normal" font-weight="normal" text-decoration="normal" x="0" y="0" text-anchor="end" dominant-baseline="central" transform="matrix(1, 0, 0, 1, 63.5, 103.5)" fill-opacity="1">$140</text><text fill="rgb(47,34,53)" stroke="none" font-family="helvetica" font-size="16px" font-style="normal" font-weight="normal" text-decoration="normal" x="0" y="0" text-anchor="end" dominant-baseline="central" transform="matrix(1, 0, 0, 1, 63.5, 61.5)" fill-opacity="1">$160</text><text fill="rgb(47,34,53)" stroke="none" font-family="helvetica" font-size="16px" font-style="italic" font-weight="normal" text-decoration="normal" x="0" y="0" text-anchor="middle" dominant-baseline="alphabetic" transform="matrix(6.123233995736766e-17, -1, 1, 6.123233995736766e-17, 18.5, 201.5)" fill-opacity="1">S&amp;P 500</text></svg>