<svg version="1.1" xmlns="http://www.w3.org/2000/svg" xmlns:xlink="http://www.w3.org/1999/xlink" width="800" height="333"><defs><clipPath id="iwiiuUTnmToX"><path fill="none" stroke="none" d="M 78.5 36.5 L 795.5 36.5 L 795.5 305.5 L 78.5 305.5 L 78.5 36.5"/></clipPath><clipPath id="wZMOuLvQiHTC"><path fill="none" stroke="none" d="M 78.5 36.5 L 795.5 36.5 L 795.5 305.5 L 78.5 305.5 L 78.5 36.5"/></clipPath><clipPath id="kvSkaDXqfoKI"><path fill="none" stroke="none" d="M 78.5 36.5 L 795.5 36.5 L 795.5 305.5 L 78.5 305.5 L 78.5 36.5"/></clipPath><clipPath id="icPCKOSdhQNe"><path fill="none" stroke="none" d="M 78.5 36.5 L 795.5 36.5 L 795.5 305.5 L 78.5 305.5 L 78.5 36.5"/></clipPath></defs><path fill="none" stroke="rgb(240,240,240)" paint-order="fill" d="M 78.5 291.5 L 795.5 291.5 M 78.5 246.5 L 795.5 246.5 M 78.5 200.5 L 795.5 200.5 M 78.5 155.5 L 795.5 155.5 M 78.5 109.5 L 795.5 109.5 M 78.5 63.5 L 795.5 63.5" stroke-opacity="1" stroke-linejoin="bevel" stroke-miterlimit="10" stroke-dasharray="" clip-path="url(#wZMOuLvQiHTC)"/><path fill="none" stroke="none"/><path fill="none" stroke="rgb(134,167,118)" paint-order="fill" d="M 111.09091186523438 293.2727355957031 L 111.82206726074219 292.0807189941406 L 112.48247528076172 290.76007080078125 L 113.21363067626953 290.6185607910156 L 113.92121124267578 289.56341552734375 L 114.6523666381836 288.0959167480469 L 115.35994720458984 287.3213806152344 L 116.09111022949219 287.92626953125 L 116.822265625 287.6565856933594 L 117.52984619140625 285.1514587402344 L 118.26100158691406 283.68206787109375 L 118.96858215332031 282.4967041015625 L 119.69973754882812 281.833251953125 L 120.43090057373047 280.3779602050781 L 121.09130096435547 280.19451904296875 L 121.82246398925781 281.1724548339844 L 122.53003692626953 278.8074951171875 L 123.26119995117188 278.61895751953125 L 123.9687728881836 278.7159423828125 L 124.69993591308594 279.65069580078125 L 125.43109893798828 280.24456787109375 L 126.138671875 286.1298828125 L 126.86983489990234 286.8589172363281 L 127.57740783691406 286.79833984375 L 128.3085708618164 285.4217224121094 L 129.03973388671875 284.989013671875 L 129.70013427734375 283.2562561035156 L 130.43128967285156 284.6701965332031 L 131.1388702392578 285.9327392578125 L 131.87002563476562 286.3984680175781 L 132.57760620117188 284.71771240234375 L 133.3087615966797 281.9421691894531 L 134.03993225097656 282.4725036621094 L 134.74749755859375 283.2660217285156 L 135.47866821289062 281.8867492675781 L 136.1862335205078 282.0904846191406 L 136.9174041748047 282.4730224609375 L 137.6485595703125 282.7287292480469 L 138.3089599609375 284.6014404296875 L 139.04013061523438 283.6600341796875 L 139.74769592285156 280.08355712890625 L 140.47886657714844 277.70001220703125 L 141.18643188476562 275.6496276855469 L 141.9176025390625 276.4855651855469 L 142.6487579345703 277.5899353027344 L 143.35633850097656 277.8776550292969 L 144.08749389648438 276.43072509765625 L 144.79507446289062 278.9895324707031 L 145.52622985839844 279.182373046875 L 146.25738525390625 278.5402526855469 L 146.94137573242188 280.2619323730469 L 147.67254638671875 279.685791015625 L 148.38011169433594 279.6019287109375 L 149.1112823486328 279.8088684082031 L 149.81884765625 282.35968017578125 L 150.55001831054688 279.5016784667969 L 151.2811737060547 277.5910949707031 L 151.98875427246094 276.747802734375 L 152.71990966796875 275.2563171386719 L 153.427490234375 274.31207275390625 L 154.1586456298828 272.7285461425781 L 154.88980102539062 271.4302978515625 L 155.5502166748047 270.1588134765625 L 156.2813720703125 269.4382629394531 L 156.98895263671875 267.7149963378906 L 157.72010803222656 265.7430419921875 L 158.4276885986328 264.67462158203125 L 159.15884399414062 268.3011474609375 L 159.88999938964844 264.929931640625 L 160.5975799560547 262.80841064453125 L 161.3287353515625 260.3637390136719 L 162.03631591796875 260.15167236328125 L 162.76747131347656 260.02313232421875 L 163.49864196777344 255.85581970214844 L 164.15904235839844 253.5596923828125 L 164.89019775390625 254.13980102539062 L 165.5977783203125 253.08114624023438 L 166.3289337158203 252.72801208496094 L 167.03651428222656 253.349365234375 L 167.76766967773438 252.0426483154297 L 168.49884033203125 249.12725830078125 L 169.20640563964844 247.16793823242188 L 169.9375762939453 246.94004821777344 L 170.6451416015625 248.02481079101562 L 171.37631225585938 245.73715209960938 L 172.1074676513672 243.3162384033203 L 172.7678680419922 243.8790283203125 L 173.49903869628906 243.26473999023438 L 174.20660400390625 242.96365356445312 L 174.93777465820312 242.5183868408203 L 175.6453399658203 240.4225616455078 L 176.3765106201172 238.2176513671875 L 177.107666015625 237.53648376464844 L 177.81524658203125 238.08567810058594 L 178.54640197753906 239.03916931152344 L 179.2539825439453 236.7523651123047 L 179.98513793945312 234.34181213378906 L 180.71629333496094 234.05523681640625 L 181.40028381347656 234.90109252929688 L 182.13145446777344 234.6193389892578 L 182.83901977539062 237.83975219726562 L 183.5701904296875 237.44757080078125 L 184.2777557373047 239.74615478515625 L 185.00892639160156 238.73597717285156 L 185.74008178710938 238.3530731201172 L 186.44766235351562 241.32843017578125 L 187.17881774902344 239.2327423095703 L 187.8863983154297 237.6187286376953 L 188.6175537109375 236.55722045898438 L 189.3487091064453 234.7117156982422 L 190.00912475585938 233.10519409179688 L 190.7402801513672 231.5478057861328 L 191.44786071777344 228.74856567382812 L 192.17901611328125 225.94961547851562 L 192.8865966796875 225.24435424804688 L 193.6177520751953 222.3912353515625 L 194.34890747070312 220.87808227539062 L 195.05648803710938 219.13156127929688 L 195.7876434326172 217.39674377441406 L 196.49522399902344 214.61656188964844 L 197.22637939453125 211.4130401611328 L 197.95755004882812 210.05274963378906 L 198.61795043945312 207.70091247558594 L 199.34910583496094 208.1005859375 L 200.0566864013672 205.6686553955078 L 200.787841796875 205.84771728515625 L 201.49542236328125 201.9337921142578 L 202.22657775878906 197.15419006347656 L 202.95774841308594 197.52781677246094 L 203.66531372070312 194.5304412841797 L 204.396484375 197.93067932128906 L 205.1040496826172 198.0538330078125 L 205.83522033691406 198.1857452392578 L 206.56637573242188 198.3377227783203 L 207.22677612304688 198.42578125 L 207.95794677734375 198.3660888671875 L 208.66551208496094 198.43055725097656 L 209.3966827392578 198.62716674804688 L 210.104248046875 198.71810913085938 L 210.83541870117188 198.53005981445312 L 211.5665740966797 198.65538024902344 L 212.27415466308594 198.9913330078125 L 213.00531005859375 199.1985626220703 L 213.712890625 199.36460876464844 L 214.4440460205078 199.32763671875 L 215.17520141601562 199.59442138671875 L 215.85919189453125 200.09130859375 L 216.59036254882812 200.01722717285156 L 217.2979278564453 199.80775451660156 L 218.0290985107422 199.42767333984375 L 218.73666381835938 199.2728729248047 L 219.46783447265625 199.06553649902344 L 220.19898986816406 199.76885986328125 L 220.9065704345703 200.32058715820312 L 221.63772583007812 201.25173950195312 L 222.34530639648438 201.58465576171875 L 223.0764617919922 201.59884643554688 L 223.8076171875 201.66909790039062 L 224.46803283691406 201.75637817382812 L 225.19918823242188 201.82521057128906 L 225.90676879882812 201.90736389160156 L 226.63792419433594 201.92852783203125 L 227.3455047607422 201.9919891357422 L 228.07666015625 202.01571655273438 L 228.8078155517578 201.96022033691406 L 229.51539611816406 201.92811584472656 L 230.24655151367188 201.83424377441406 L 230.95413208007812 201.7971954345703 L 231.68528747558594 201.81045532226562 L 232.4164581298828 201.6545867919922 L 233.0768585205078 201.83135986328125 L 233.80801391601562 201.73594665527344 L 234.51559448242188 201.70907592773438 L 235.2467498779297 201.68136596679688 L 235.95433044433594 201.84315490722656 L 236.68548583984375 201.63803100585938 L 237.41665649414062 201.820556640625 L 238.1242218017578 202.33668518066406 L 238.8553924560547 202.46629333496094 L 239.56295776367188 202.5406036376953 L 240.29412841796875 202.34274291992188 L 241.02528381347656 202.6747283935547 L 241.68568420410156 203.29212951660156 L 242.41685485839844 203.57623291015625 L 243.12442016601562 203.44857788085938 L 243.8555908203125 203.6369171142578 L 244.5631561279297 203.1661376953125 L 245.29432678222656 203.58209228515625 L 246.02548217773438 203.40969848632812 L 246.73306274414062 203.87295532226562 L 247.46421813964844 204.13938903808594 L 248.1717987060547 204.09539794921875 L 248.9029541015625 204.03115844726562 L 249.6341094970703 203.9298553466797 L 250.31809997558594 203.8248748779297 L 251.0492706298828 203.71734619140625 L 251.7568359375 203.6099853515625 L 252.48800659179688 203.5165252685547 L 253.19557189941406 203.4843292236328 L 253.92674255371094 203.42323303222656 L 254.65789794921875 203.18923950195312 L 255.365478515625 203.1060791015625 L 256.0966339111328 202.9001922607422 L 256.80419921875 202.48388671875 L 257.5353698730469 202.2776641845703 L 258.26654052734375 202.37371826171875 L 258.92694091796875 202.15501403808594 L 259.6580810546875 202.0100860595703 L 260.36566162109375 202.12289428710938 L 261.0968322753906 202.67315673828125 L 261.8044128417969 203.7683868408203 L 262.5355529785156 203.6711883544922 L 263.2667236328125 203.5746307373047 L 263.97430419921875 203.54148864746094 L 264.7054748535156 203.60365295410156 L 265.41302490234375 203.5394287109375 L 266.1441955566406 203.54562377929688 L 266.8753662109375 203.46827697753906 L 267.5357666015625 203.4191436767578 L 268.2669372558594 203.447509765625 L 268.9744873046875 203.2510986328125 L 269.7056579589844 203.1190185546875 L 270.4132385253906 203.07464599609375 L 271.1444091796875 203.09445190429688 L 271.87554931640625 202.8285369873047 L 272.5831298828125 202.5561065673828 L 273.3143005371094 202.37432861328125 L 274.0218811035156 202.2062530517578 L 274.7530212402344 201.83717346191406 L 275.48419189453125 201.3820037841797 L 276.14459228515625 201.05987548828125 L 276.8757629394531 200.62794494628906 L 277.5833435058594 200.1650848388672 L 278.3144836425781 199.6427764892578 L 279.0220642089844 199.2296142578125 L 279.75323486328125 198.30624389648438 L 280.484375 197.9845428466797 L 281.19195556640625 197.26995849609375 L 281.9231262207031 196.4600067138672 L 282.6307067871094 195.77178955078125 L 283.3618469238281 195.3939208984375 L 284.093017578125 194.446533203125 L 284.7770080566406 193.83523559570312 L 285.5081787109375 193.17648315429688 L 286.21575927734375 192.3141632080078 L 286.9468994140625 191.4942626953125 L 287.65447998046875 191.6303253173828 L 288.3856506347656 191.02777099609375 L 289.1167907714844 190.1559295654297 L 289.8243713378906 188.96014404296875 L 290.5555419921875 187.91302490234375 L 291.26312255859375 187.16909790039062 L 291.9942626953125 186.81443786621094 L 292.7254333496094 185.969482421875 L 293.3858337402344 185.56658935546875 L 294.11700439453125 185.88169860839844 L 294.8245849609375 184.7487030029297 L 295.55572509765625 185.2786865234375 L 296.2633056640625 185.00079345703125 L 296.9944763183594 184.57772827148438 L 297.72564697265625 185.57554626464844 L 298.4331970214844 187.24716186523438 L 299.16436767578125 188.21307373046875 L 299.8719482421875 188.9267578125 L 300.6031188964844 189.56886291503906 L 301.3342590332031 190.150146484375 L 301.9946594238281 190.67677307128906 L 302.725830078125 191.14039611816406 L 303.43341064453125 191.5155792236328 L 304.1645812988281 191.8201904296875 L 304.87213134765625 192.24156188964844 L 305.6033020019531 192.52731323242188 L 306.33447265625 192.75181579589844 L 307.04205322265625 192.94004821777344 L 307.773193359375 193.17811584472656 L 308.48077392578125 193.6753692626953 L 309.2119445800781 193.77822875976562 L 309.9430847167969 194.0686492919922 L 310.603515625 194.6444854736328 L 311.33465576171875 194.98719787597656 L 312.042236328125 195.23599243164062 L 312.7734069824219 195.53480529785156 L 313.4809875488281 195.87152099609375 L 314.2121276855469 196.29122924804688 L 314.94329833984375 196.73951721191406 L 315.65087890625 197.0463409423828 L 316.38201904296875 197.38304138183594 L 317.089599609375 197.6894073486328 L 317.8207702636719 197.9524383544922 L 318.55194091796875 198.39453125 L 319.2359313964844 198.6570587158203 L 319.9670715332031 199.03897094726562 L 320.6746520996094 199.2042694091797 L 321.40582275390625 199.2849884033203 L 322.1134033203125 199.91342163085938 L 322.84454345703125 200.45469665527344 L 323.5757141113281 200.63238525390625 L 324.2832946777344 200.7383575439453 L 325.0144348144531 200.78794860839844 L 325.7220153808594 200.7862548828125 L 326.45318603515625 201.36280822753906 L 327.1843566894531 201.40011596679688 L 327.8447570800781 201.75489807128906 L 328.5758972167969 201.47756958007812 L 329.2834777832031 201.84652709960938 L 330.0146484375 203.5892791748047 L 330.72222900390625 203.55560302734375 L 331.453369140625 203.43582153320312 L 332.1845397949219 203.26890563964844 L 332.8921203613281 203.00509643554688 L 333.623291015625 202.73013305664062 L 334.3308410644531 202.44996643066406 L 335.06201171875 201.93304443359375 L 335.7931823730469 201.46031188964844 L 336.4535827636719 200.95530700683594 L 337.18475341796875 200.55963134765625 L 337.8923034667969 200.1345977783203 L 338.62347412109375 199.68356323242188 L 339.3310546875 199.20297241210938 L 340.0622253417969 198.60325622558594 L 340.7933654785156 198.0292205810547 L 341.5009460449219 197.117919921875 L 342.23211669921875 196.5537872314453 L 342.939697265625 196.20750427246094 L 343.67083740234375 194.7412109375 L 344.4020080566406 193.51109313964844 L 345.0624084472656 192.4563751220703 L 345.7935791015625 191.30560302734375 L 346.50115966796875 190.2398681640625 L 347.2322998046875 189.33432006835938 L 347.93988037109375 188.2290496826172 L 348.6710510253906 187.22068786621094 L 349.4021911621094 185.59555053710938 L 350.1097717285156 184.5303497314453 L 350.8409423828125 183.21974182128906 L 351.54852294921875 181.18170166015625 L 352.2796630859375 179.49050903320312 L 353.0108337402344 177.94566345214844 L 353.69482421875 177.0797119140625 L 354.4259948730469 175.8312225341797 L 355.1335754394531 174.563232421875 L 355.8647155761719 173.42474365234375 L 356.5722961425781 172.2139892578125 L 357.303466796875 170.30870056152344 L 358.03460693359375 168.94244384765625 L 358.7421875 166.65802001953125 L 359.4733581542969 163.81439208984375 L 360.1809387207031 163.5107421875 L 360.9120788574219 163.33966064453125 L 361.64324951171875 160.7711944580078 L 362.30364990234375 159.33438110351562 L 363.0348205566406 155.7935791015625 L 363.7424011230469 155.0588836669922 L 364.4735412597656 153.6398162841797 L 365.1811218261719 151.08155822753906 L 365.91229248046875 153.01458740234375 L 366.6434631347656 151.99215698242188 L 367.35101318359375 153.99917602539062 L 368.0821838378906 150.31655883789062 L 368.7897644042969 146.1220703125 L 369.52093505859375 146.68785095214844 L 370.2520751953125 144.0961456298828 L 370.9124755859375 141.25973510742188 L 371.6436462402344 138.33607482910156 L 372.3512268066406 135.3200225830078 L 373.0823974609375 132.0367431640625 L 373.7899475097656 128.89004516601562 L 374.5211181640625 125.82759857177734 L 375.2522888183594 123.2984619140625 L 375.9598693847656 120.18089294433594 L 376.6910095214844 116.53324890136719 L 377.3985900878906 113.15142059326172 L 378.1297607421875 110.18901824951172 L 378.86090087890625 105.72430419921875 L 379.52130126953125 101.7470474243164 L 380.2524719238281 98.10296630859375 L 380.9600524902344 94.41847229003906 L 381.69122314453125 91.03512573242188 L 382.3987731933594 87.3874740600586 L 383.12994384765625 83.20628356933594 L 383.8611145019531 79.57867431640625 L 384.5686950683594 75.42053985595703 L 385.2998352050781 72.72482299804688 L 386.0074157714844 69.26205444335938 L 386.73858642578125 64.99861907958984 L 387.4697570800781 61.884830474853516 L 388.1537170410156 59.306617736816406 L 388.8848876953125 55.89871597290039 L 389.59246826171875 53.53182601928711 L 390.3236389160156 51.07236099243164 L 391.0312194824219 48.727272033691406 L 391.7623596191406 51.87806701660156 L 392.4935302734375 55.084197998046875 L 393.20111083984375 57.68455123901367 L 393.9322509765625 61.098445892333984 L 394.63983154296875 63.06916427612305 L 395.3710021972656 65.58157348632812 L 396.1021728515625 69.58824920654297 L 396.7625732421875 72.68678283691406 L 397.49371337890625 75.12953186035156 L 398.2012939453125 74.99158477783203 L 398.9324645996094 74.00589752197266 L 399.6400451660156 75.15689849853516 L 400.3711853027344 76.59540557861328 L 401.10235595703125 74.37185668945312 L 401.8099365234375 75.66766357421875 L 402.5411071777344 78.86446380615234 L 403.2486572265625 83.65020751953125 L 403.9798278808594 84.13088989257812 L 404.71099853515625 83.23605346679688 L 405.37139892578125 85.24851989746094 L 406.1025390625 85.3364486694336 L 406.81011962890625 85.33932495117188 L 407.5412902832031 88.12240600585938 L 408.2488708496094 88.24950408935547 L 408.9800109863281 89.0620346069336 L 409.711181640625 87.79340362548828 L 410.41876220703125 88.68474578857422 L 411.1499328613281 92.63639831542969 L 411.85748291015625 94.5855941772461 L 412.5886535644531 93.50576782226562 L 413.31982421875 93.14691925048828 L 413.980224609375 92.20967864990234 L 414.7113952636719 100.18671417236328 L 415.4189453125 102.7750244140625 L 416.1501159667969 101.04795837402344 L 416.8576965332031 98.14368438720703 L 417.5888671875 96.41919708251953 L 418.32000732421875 95.54486083984375 L 419.027587890625 95.0724868774414 L 419.7587585449219 94.25703430175781 L 420.4663391113281 92.53085327148438 L 421.1974792480469 94.55131530761719 L 421.92864990234375 95.67251586914062 L 422.6126403808594 98.84117126464844 L 423.34381103515625 97.07984161376953 L 424.0513610839844 97.2198257446289 L 424.78253173828125 99.4395980834961 L 425.4901123046875 99.87680053710938 L 426.2212829589844 102.31022644042969 L 426.9524230957031 102.68421936035156 L 427.6600036621094 110.12541198730469 L 428.39117431640625 109.68331909179688 L 429.0987548828125 108.21516418457031 L 429.82989501953125 108.17276763916016 L 430.5610656738281 112.90398406982422 L 431.2214660644531 115.27550506591797 L 431.95263671875 118.38432312011719 L 432.66021728515625 114.80740356445312 L 433.391357421875 115.25466918945312 L 434.09893798828125 120.81934356689453 L 434.8301086425781 121.5030517578125 L 435.5612487792969 122.38282775878906 L 436.2688293457031 123.22002410888672 L 437 124.17582702636719 L 437.70758056640625 125.31380462646484 L 438.4387512207031 126.56881713867188 L 439.1698913574219 127.57726287841797 L 439.8302917480469 128.69505310058594 L 440.56146240234375 129.7405242919922 L 441.26904296875 130.78909301757812 L 442.00018310546875 131.75051879882812 L 442.707763671875 132.91378784179688 L 443.4389343261719 133.91392517089844 L 444.17010498046875 135.29974365234375 L 444.8776550292969 135.97840881347656 L 445.60882568359375 136.8663330078125 L 446.31640625 138.02386474609375 L 447.0475769042969 139.05755615234375 L 447.7787170410156 139.811767578125 L 448.4391174316406 141.82888793945312 L 449.1702880859375 142.7703094482422 L 449.87786865234375 143.86239624023438 L 450.6090393066406 145.06253051757812 L 451.31658935546875 146.6119842529297 L 452.0477600097656 147.9175567626953 L 452.7789306640625 149.00303649902344 L 453.48651123046875 149.9606475830078 L 454.2176513671875 150.92225646972656 L 454.92523193359375 151.84957885742188 L 455.6564025878906 152.87474060058594 L 456.3875427246094 153.61947631835938 L 457.071533203125 154.27313232421875 L 457.8027038574219 155.30154418945312 L 458.5102844238281 156.20184326171875 L 459.241455078125 157.1371307373047 L 459.9490051269531 158.20643615722656 L 460.68017578125 159.219970703125 L 461.4113464355469 160.61935424804688 L 462.1189270019531 161.9805908203125 L 462.8500671386719 162.90989685058594 L 463.5576477050781 163.17369079589844 L 464.288818359375 163.62646484375 L 465.0199890136719 164.65252685546875 L 465.6803894042969 165.08804321289062 L 466.4115295410156 165.45120239257812 L 467.1191101074219 166.32151794433594 L 467.85028076171875 167.53855895996094 L 468.557861328125 168.3302001953125 L 469.28900146484375 169.78587341308594 L 470.0201721191406 170.61268615722656 L 470.7277526855469 172.2224884033203 L 471.4588928222656 173.5032501220703 L 472.1664733886719 174.22752380371094 L 472.89764404296875 175.3809356689453 L 473.6288146972656 175.6605224609375 L 474.2892150878906 176.06358337402344 L 475.0203552246094 176.9427032470703 L 475.7279357910156 178.79202270507812 L 476.4591064453125 180.4485626220703 L 477.16668701171875 181.24484252929688 L 477.8978271484375 182.2191162109375 L 478.6289978027344 182.6621856689453 L 479.3365783691406 184.7175750732422 L 480.0677490234375 188.53196716308594 L 480.7752990722656 192.73704528808594 L 481.5064697265625 194.39404296875 L 482.2376403808594 195.6362762451172 L 482.8980407714844 196.76419067382812 L 483.62921142578125 197.83653259277344 L 484.3367614746094 198.93003845214844 L 485.06793212890625 200.01478576660156 L 485.7755126953125 200.8310089111328 L 486.5066833496094 201.80813598632812 L 487.2378234863281 202.90794372558594 L 487.9454040527344 203.81349182128906 L 488.67657470703125 204.62071228027344 L 489.3841552734375 205.81146240234375 L 490.11529541015625 206.71046447753906 L 490.8464660644531 207.47572326660156 L 491.53045654296875 208.2503662109375 L 492.2616271972656 209.23336791992188 L 492.96917724609375 209.94728088378906 L 493.7003479003906 210.5838623046875 L 494.4079284667969 211.21571350097656 L 495.13909912109375 211.86131286621094 L 495.8702392578125 212.35501098632812 L 496.57781982421875 213.23497009277344 L 497.3089904785156 214.09767150878906 L 498.0165710449219 215.1792449951172 L 498.7477111816406 215.76803588867188 L 499.4788818359375 216.85032653808594 L 500.1392822265625 217.94639587402344 L 500.8704528808594 218.74252319335938 L 501.5780334472656 219.50865173339844 L 502.3091735839844 220.19705200195312 L 503.0167541503906 220.8641357421875 L 503.7479248046875 221.5967559814453 L 504.47906494140625 222.54676818847656 L 505.1866455078125 223.3628692626953 L 505.9178161621094 224.08486938476562 L 506.6253967285156 224.68008422851562 L 507.3565368652344 225.23423767089844 L 508.08770751953125 225.7876739501953 L 508.74810791015625 226.1449432373047 L 509.4792785644531 226.65101623535156 L 510.1868591308594 227.11029052734375 L 510.9179992675781 227.62991333007812 L 511.6255798339844 228.14263916015625 L 512.3567504882812 228.6919708251953 L 513.087890625 229.18807983398438 L 513.7954711914062 229.98422241210938 L 514.5266723632812 230.79759216308594 L 515.2341918945312 231.64222717285156 L 515.9653930664062 232.4033203125 L 516.696533203125 232.7783966064453 L 517.35693359375 233.58026123046875 L 518.088134765625 234.4749298095703 L 518.795654296875 235.32733154296875 L 519.52685546875 236.0673370361328 L 520.2344360351562 237.02452087402344 L 520.965576171875 237.65492248535156 L 521.6967163085938 238.39447021484375 L 522.404296875 239.2296600341797 L 523.135498046875 240.17298889160156 L 523.8430786132812 240.76930236816406 L 524.57421875 241.34632873535156 L 525.3053588867188 242.24302673339844 L 525.9893798828125 243.04348754882812 L 526.7205200195312 243.77560424804688 L 527.4281005859375 244.7769775390625 L 528.1592407226562 245.50521850585938 L 528.8668212890625 246.1737518310547 L 529.5980224609375 246.96678161621094 L 530.3291625976562 247.6085968017578 L 531.0367431640625 248.3083038330078 L 531.7678833007812 248.98143005371094 L 532.4754638671875 249.86141967773438 L 533.2066040039062 250.63983154296875 L 533.9378051757812 251.2967529296875 L 534.5982055664062 252.2138671875 L 535.329345703125 253.28756713867188 L 536.0369262695312 254.6277618408203 L 536.76806640625 255.52456665039062 L 537.4756469726562 256.49366760253906 L 538.2068481445312 257.38720703125 L 538.93798828125 258.2017517089844 L 539.6455688476562 259.0222473144531 L 540.376708984375 259.8217468261719 L 541.0842895507812 260.6060485839844 L 541.8154296875 261.3684997558594 L 542.546630859375 262.01373291015625 L 543.20703125 262.5915222167969 L 543.9381713867188 263.1918029785156 L 544.645751953125 263.734375 L 545.3768920898438 264.2340087890625 L 546.08447265625 264.7190856933594 L 546.815673828125 265.26983642578125 L 547.5468139648438 265.8754577636719 L 548.25439453125 266.314208984375 L 548.9855346679688 266.8297424316406 L 549.693115234375 267.2814636230469 L 550.42431640625 267.6925354003906 L 551.1554565429688 268.18927001953125 L 551.8158569335938 268.38397216796875 L 552.5469970703125 268.8849182128906 L 553.2545776367188 269.3515930175781 L 553.9857788085938 269.7033386230469 L 554.6932983398438 270.124267578125 L 555.4244995117188 270.8003845214844 L 556.1556396484375 271.05230712890625 L 556.8632202148438 271.3442687988281 L 557.5943603515625 271.5161437988281 L 558.3019409179688 271.6626892089844 L 559.0331420898438 272.009765625 L 559.7642822265625 272.203369140625 L 560.4482421875 272.3441162109375 L 561.179443359375 272.78277587890625 L 561.8870239257812 273.41064453125 L 562.6181640625 273.2359924316406 L 563.3257446289062 273.2884521484375 L 564.056884765625 273.3037109375 L 564.7880859375 273.6379699707031 L 565.4956665039062 273.9313659667969 L 566.226806640625 274.2122802734375 L 566.9343872070312 274.6451416015625 L 567.66552734375 274.7989501953125 L 568.3966674804688 275.1023864746094 L 569.05712890625 275.01861572265625 L 569.7882690429688 275.0096740722656 L 570.495849609375 275.1622314453125 L 571.2269897460938 275.537109375 L 571.9345703125 275.92144775390625 L 572.6657104492188 276.0168762207031 L 573.3969116210938 276.8772277832031 L 574.1044921875 277.65338134765625 L 574.8356323242188 278.04217529296875 L 575.543212890625 278.3935852050781 L 576.2743530273438 278.7374572753906 L 577.0055541992188 279.0511474609375 L 577.6659545898438 279.36737060546875 L 578.3970947265625 279.6468811035156 L 579.1046752929688 279.882080078125 L 579.8358154296875 280.1218566894531 L 580.5433959960938 280.36041259765625 L 581.2745361328125 280.5152893066406 L 582.0057373046875 280.7524108886719 L 582.7133178710938 280.93365478515625 L 583.4444580078125 281.1103515625 L 584.1520385742188 281.24237060546875 L 584.8831787109375 281.3426513671875 L 585.6143798828125 281.43499755859375 L 586.2747802734375 281.51641845703125 L 587.0059204101562 281.57318115234375 L 587.7135009765625 281.62017822265625 L 588.4446411132812 281.6968994140625 L 589.1522216796875 281.6960144042969 L 589.8834228515625 281.6761779785156 L 590.6145629882812 281.6558532714844 L 591.3221435546875 281.6348571777344 L 592.0532836914062 281.6946716308594 L 592.7608642578125 281.6861877441406 L 593.4920043945312 281.7154541015625 L 594.2232055664062 281.69293212890625 L 594.9071655273438 281.7152404785156 L 595.6383666992188 281.87017822265625 L 596.3458862304688 281.8017272949219 L 597.0770874023438 281.59271240234375 L 597.78466796875 281.6085205078125 L 598.5158081054688 281.6106872558594 L 599.2469482421875 281.6007995605469 L 599.9545288085938 281.9363098144531 L 600.6857299804688 281.7712707519531 L 601.393310546875 281.5435485839844 L 602.1244506835938 281.430908203125 L 602.8555908203125 281.3908386230469 L 603.5159912109375 281.49505615234375 L 604.2471923828125 281.2566223144531 L 604.9547729492188 281.3540344238281 L 605.6859130859375 281.4088134765625 L 606.3934936523438 281.62152099609375 L 607.1246337890625 282.14544677734375 L 607.8557739257812 282.00885009765625 L 608.5633544921875 282.2579650878906 L 609.2945556640625 282.328369140625 L 610.0021362304688 281.8968505859375 L 610.7332763671875 281.9535217285156 L 611.4644165039062 282.1283264160156 L 612.1248168945312 282.76251220703125 L 612.8560180664062 282.90814208984375 L 613.5635986328125 283.04010009765625 L 614.2947387695312 283.1449890136719 L 615.0023193359375 283.2264709472656 L 615.7334594726562 283.3190002441406 L 616.4646606445312 283.3977966308594 L 617.1721801757812 283.43023681640625 L 617.9033813476562 283.4515686035156 L 618.6109619140625 283.4660949707031 L 619.3421020507812 283.443359375 L 620.0732421875 283.37164306640625 L 620.733642578125 283.3620910644531 L 621.46484375 283.3879699707031 L 622.1724243164062 283.3575439453125 L 622.903564453125 283.3961486816406 L 623.6111450195312 283.31378173828125 L 624.34228515625 283.3378601074219 L 625.073486328125 283.34423828125 L 625.7810668945312 283.24786376953125 L 626.51220703125 283.2269592285156 L 627.2197875976562 283.0596008300781 L 627.950927734375 282.9380187988281 L 628.6820678710938 282.9539794921875 L 629.3660888671875 282.88116455078125 L 630.0972290039062 282.880859375 L 630.8048095703125 282.9588623046875 L 631.5360107421875 282.8907775878906 L 632.2435302734375 282.7690734863281 L 632.9747314453125 282.670166015625 L 633.7058715820312 282.6277160644531 L 634.4134521484375 282.5981140136719 L 635.1445922851562 282.71697998046875 L 635.8521728515625 282.5405578613281 L 636.5833740234375 282.4390869140625 L 637.3145141601562 282.346923828125 L 637.9749145507812 282.3122863769531 L 638.7060546875 282.1835021972656 L 639.4136352539062 282.078857421875 L 640.1448364257812 282.0578918457031 L 640.8523559570312 282.1597595214844 L 641.5835571289062 282.0521545410156 L 642.314697265625 281.83087158203125 L 643.0222778320312 281.59417724609375 L 643.75341796875 281.283447265625 L 644.4609985351562 281.0544128417969 L 645.1921997070312 280.8093566894531 L 645.92333984375 280.6689453125 L 646.583740234375 280.4592590332031 L 647.3148803710938 280.52789306640625 L 648.0224609375 280.1427307128906 L 648.753662109375 279.8414001464844 L 649.4612426757812 279.8035888671875 L 650.1923828125 279.9168395996094 L 650.9235229492188 280.381591796875 L 651.631103515625 280.2931823730469 L 652.3623046875 280.2263488769531 L 653.06982421875 280.74639892578125 L 653.801025390625 280.7554016113281 L 654.5321655273438 281.4402770996094 L 655.1925659179688 281.6717834472656 L 655.9237060546875 282.01251220703125 L 656.6312866210938 281.6849060058594 L 657.3624877929688 281.5067138671875 L 658.070068359375 281.99334716796875 L 658.8012084960938 282.7132873535156 L 659.5323486328125 282.5448303222656 L 660.2399291992188 283.143310546875 L 660.9711303710938 286.0242919921875 L 661.6786499023438 287.3609313964844 L 662.4098510742188 287.4523620605469 L 663.1409912109375 287.64996337890625 L 663.8250122070312 288.7899475097656 L 664.55615234375 289.8052673339844 L 665.2637329101562 289.8159484863281 L 665.994873046875 289.8045349121094 L 666.7024536132812 289.7973937988281 L 667.43359375 289.7836608886719 L 668.164794921875 289.7060241699219 L 668.8723754882812 289.65826416015625 L 669.603515625 289.6143798828125 L 670.3110961914062 289.5679626464844 L 671.042236328125 289.520263671875 L 671.7734375 289.47637939453125 L 672.433837890625 289.5152282714844 L 673.1649780273438 289.36376953125 L 673.87255859375 289.24359130859375 L 674.6036987304688 289.36273193359375 L 675.311279296875 289.4447021484375 L 676.04248046875 289.4294738769531 L 676.7736206054688 289.3750305175781 L 677.481201171875 289.2258605957031 L 678.2123413085938 289.02691650390625 L 678.919921875 288.8922119140625 L 679.6510620117188 288.7127685546875 L 680.3822631835938 288.5340576171875 L 681.0426635742188 288.3647766113281 L 681.7738037109375 288.3653259277344 L 682.4813842773438 288.2240905761719 L 683.2125244140625 288.1588439941406 L 683.9201049804688 288.2855529785156 L 684.6513061523438 288.1089782714844 L 685.3824462890625 288.63165283203125 L 686.0900268554688 288.6673889160156 L 686.8211669921875 288.4976806640625 L 687.5287475585938 288.43798828125 L 688.2598876953125 288.3861389160156 L 688.9910888671875 288.14031982421875 L 689.6514892578125 287.9184875488281 L 690.3826293945312 287.7591552734375 L 691.0902099609375 287.7593994140625 L 691.8213500976562 287.9437561035156 L 692.5289306640625 288.0132751464844 L 693.2601318359375 287.81256103515625 L 693.9912719726562 287.5758056640625 L 694.6988525390625 287.35699462890625 L 695.4299926757812 287.3491516113281 L 696.1375732421875 287.5371398925781 L 696.8687744140625 287.35821533203125 L 697.5999145507812 287.0320739746094 L 698.2838745117188 286.8547058105469 L 699.0150756835938 286.6535949707031 L 699.72265625 286.4924011230469 L 700.4537963867188 286.1000671386719 L 701.161376953125 286.11041259765625 L 701.8925170898438 285.7938232421875 L 702.6237182617188 285.7050476074219 L 703.3312377929688 285.5321350097656 L 704.0624389648438 285.2774658203125 L 704.77001953125 284.8832092285156 L 705.5011596679688 284.66302490234375 L 706.2322998046875 284.49560546875 L 706.8927001953125 284.415283203125 L 707.6239013671875 284.10699462890625 L 708.3314819335938 283.9952392578125 L 709.0626220703125 283.7597351074219 L 709.7702026367188 283.3997497558594 L 710.5013427734375 283.1933288574219 L 711.2325439453125 283.1503601074219 L 711.9401245117188 282.911865234375 L 712.6712646484375 283.0653991699219 L 713.3788452148438 282.4654846191406 L 714.1099853515625 282.3309326171875 L 714.8411254882812 282.3586730957031 L 715.5015869140625 282.031494140625 L 716.2327270507812 281.95269775390625 L 716.9403076171875 281.8044738769531 L 717.6714477539062 281.6952209472656 L 718.3790283203125 281.725341796875 L 719.1101684570312 281.7528076171875 L 719.8413696289062 282.013671875 L 720.5489501953125 282.49560546875 L 721.2800903320312 281.9935607910156 L 721.9876708984375 281.6416015625 L 722.7188110351562 281.7026672363281 L 723.4500122070312 282.39996337890625 L 724.1104125976562 282.3741149902344 L 724.841552734375 282.2696533203125 L 725.5491333007812 282.1452941894531 L 726.2802734375 282.0303649902344 L 726.9878540039062 281.91143798828125 L 727.718994140625 281.77294921875 L 728.4501953125 281.6533508300781 L 729.1577758789062 281.540771484375 L 729.888916015625 281.435791015625 L 730.5964965820312 281.3207702636719 L 731.32763671875 281.127685546875 L 732.058837890625 280.95855712890625 L 732.7427978515625 280.7540588378906 L 733.4739379882812 280.5527038574219 L 734.1815185546875 280.38763427734375 L 734.9127197265625 280.1756896972656 L 735.6203002929688 279.954833984375 L 736.3514404296875 279.7530212402344 L 737.0825805664062 279.5567626953125 L 737.7901611328125 279.31646728515625 L 738.5213623046875 279.0335388183594 L 739.2288818359375 278.765869140625 L 739.9600830078125 278.4393615722656 L 740.6912231445312 278.03387451171875 L 741.3516235351562 277.9248352050781 L 742.0828247070312 277.7007751464844 L 742.7903442382812 277.5542907714844 L 743.5215454101562 277.25341796875 L 744.2291259765625 276.9473571777344 L 744.9602661132812 276.6556091308594 L 745.69140625 276.3207092285156 L 746.3989868164062 276.0091247558594 L 747.1301879882812 275.9630432128906 L 747.8377685546875 275.8550720214844 L 748.5689086914062 276.0011901855469 L 749.300048828125 275.7938537597656 L 749.96044921875 275.5813293457031 L 750.691650390625 275.3454284667969 L 751.3992309570312 275.1162109375 L 752.13037109375 274.93011474609375 L 752.8379516601562 274.7110290527344 L 753.569091796875 274.5276794433594 L 754.3002319335938 274.4530334472656 L 755.0078125 274.35845947265625 L 755.739013671875 274.2926330566406 L 756.4465942382812 274.11505126953125 L 757.177734375 274.0159606933594 L 757.9088745117188 274.29339599609375 L 758.5692749023438 274.57281494140625 L 759.3004760742188 275.40606689453125 L 760.008056640625 275.6523132324219 L 760.7391967773438 275.8489990234375 L 761.44677734375 276.0181884765625 L 762.1779174804688 276.1940612792969 L 762.9091186523438 276.3937072753906" stroke-opacity="1" stroke-linejoin="bevel" stroke-miterlimit="10" stroke-width="2" stroke-dasharray="" clip-path="url(#kvSkaDXqfoKI)"/><path fill="none" stroke="rgb(47,34,53)" paint-order="fill" d="M 111.5 309.5 L 111.5 305.5 M 283.5 309.5 L 283.5 305.5 M 455.5 309.5 L 455.5 305.5 M 627.5 309.5 L 627.5 305.5" stroke-opacity="1" stroke-linejoin="bevel" stroke-miterlimit="10" stroke-dasharray=""/><path fill="none" stroke="rgb(0,0,0)" paint-order="fill" d="" stroke-opacity="1" stroke-linejoin="bevel" stroke-miterlimit="10" stroke-dasharray=""/><text fill="rgb(47,34,53)" stroke="none" font-family="helvetica" font-size="16px" font-style="normal" font-weight="normal" text-decoration="normal" x="0" y="0" text-anchor="middle" dominant-baseline="hanging" transform="matrix(1, 0, 0, 1, 111.5, 314.5)" fill-opacity="1">1900</text><text fill="rgb(47,34,53)" stroke="none" font-family="helvetica" font-size="16px" font-style="normal" font-weight="normal" text-decoration="normal" x="0" y="0" text-anchor="middle" dominant-baseline="hanging" transform="matrix(1, 0, 0, 1, 283.5, 314.5)" fill-opacity="1">1920</text><text fill="rgb(47,34,53)" stroke="none" font-family="helvetica" font-size="16px" font-style="normal" font-weight="normal" text-decoration="normal" x="0" y="0" text-anchor="middle" dominant-baseline="hanging" transform="matrix(1, 0, 0, 1, 455.5, 314.5)" fill-opacity="1">1940</text><text fill="rgb(47,34,53)" stroke="none" font-family="helvetica" font-size="16px" font-style="normal" font-weight="normal" text-decoration="normal" x="0" y="0" text-anchor="middle" dominant-baseline="hanging" transform="matrix(1, 0, 0, 1, 627.5, 314.5)" fill-opacity="1">1960</text><path fill="none" stroke="rgb(47,34,53)" paint-order="fill" d="M 74.5 291.5 L 78.5 291.5 M 74.5 246.5 L 78.5 246.5 M 74.5 200.5 L 78.5 200.5 M 74.5 155.5 L 78.5 155.5 M 74.5 109.5 L 78.5 109.5 M 74.5 63.5 L 78.5 63.5" stroke-opacity="1" stroke-linejoin="bevel" stroke-miterlimit="10" stroke-dasharray=""/><text fill="rgb(47,34,53)" stroke="none" font-family="helvetica" font-size="16px" font-style="normal" font-weight="normal" text-decoration="normal" x="0" y="0" text-anchor="end" dominant-baseline="central" transform="matrix(1, 0, 0, 1, 69.5, 291.5)" fill-opacity="1">0%</text><text fill="rgb(47,34,53)" stroke="none" font-family="helvetica" font-size="16px" font-style="normal" font-weight="normal" text-decoration="normal" x="0" y="0" text-anchor="end" dominant-baseline="central" transform="matrix(1, 0, 0, 1, 69.5, 246.5)" fill-opacity="1">50%</text><text fill="rgb(47,34,53)" stroke="none" font-family="helvetica" font-size="16px" font-style="normal" font-weight="normal" text-decoration="normal" x="0" y="0" text-anchor="end" dominant-baseline="central" transform="matrix(1, 0, 0, 1, 69.5, 200.5)" fill-opacity="1">100%</text><text fill="rgb(47,34,53)" stroke="none" font-family="helvetica" font-size="16px" font-style="normal" font-weight="normal" text-decoration="normal" x="0" y="0" text-anchor="end" dominant-baseline="central" transform="matrix(1, 0, 0, 1, 69.5, 155.5)" fill-opacity="1">150%</text><text fill="rgb(47,34,53)" stroke="none" font-family="helvetica" font-size="16px" font-style="normal" font-weight="normal" text-decoration="normal" x="0" y="0" text-anchor="end" dominant-baseline="central" transform="matrix(1, 0, 0, 1, 69.5, 109.5)" fill-opacity="1">200%</text><text fill="rgb(47,34,53)" stroke="none" font-family="helvetica" font-size="16px" font-style="normal" font-weight="normal" text-decoration="normal" x="0" y="0" text-anchor="end" dominant-baseline="central" transform="matrix(1, 0, 0, 1, 69.5, 63.5)" fill-opacity="1">250%</text><text fill="rgb(47,34,53)" stroke="none" font-family="helvetica" font-size="16px" font-style="italic" font-weight="normal" text-decoration="normal" x="0" y="0" text-anchor="middle" dominant-baseline="alphabetic" transform="matrix(6.123233995736766e-17, -1, 1, 6.123233995736766e-17, 19.5, 171.5)" fill-opacity="1">Gain</text><path fill="none" stroke="none"/><text fill="rgb(68,68,68)" stroke="none" font-family="helvetica" font-size="18px" font-style="normal" font-weight="bold" text-decoration="normal" x="0" y="0" text-anchor="middle" dominant-baseline="text-after-edge" transform="matrix(1, 0, 0, 1, 377, 31.5)" fill-opacity="1">Buys Monthly gain over Buys The Dip for each 45 year period</text></svg>