<svg version="1.1" xmlns="http://www.w3.org/2000/svg" xmlns:xlink="http://www.w3.org/1999/xlink" width="800" height="333"><defs><clipPath id="puZWMXWEBNAI"><path fill="none" stroke="none" d="M 78.5 36.5 L 795.5 36.5 L 795.5 305.5 L 78.5 305.5 L 78.5 36.5"/></clipPath><clipPath id="TTdAOdTPnEgS"><path fill="none" stroke="none" d="M 78.5 36.5 L 795.5 36.5 L 795.5 305.5 L 78.5 305.5 L 78.5 36.5"/></clipPath><clipPath id="kFwkPqLbVolV"><path fill="none" stroke="none" d="M 78.5 36.5 L 795.5 36.5 L 795.5 305.5 L 78.5 305.5 L 78.5 36.5"/></clipPath><clipPath id="DmHUmeMtfbdb"><path fill="none" stroke="none" d="M 78.5 36.5 L 795.5 36.5 L 795.5 305.5 L 78.5 305.5 L 78.5 36.5"/></clipPath><clipPath id="gdnulDUuBmMx"><path fill="none" stroke="none" d="M 78.5 36.5 L 795.5 36.5 L 795.5 305.5 L 78.5 305.5 L 78.5 36.5"/></clipPath><clipPath id="OrPqPHPMeXeO"><path fill="none" stroke="none" d="M 78.5 36.5 L 795.5 36.5 L 795.5 305.5 L 78.5 305.5 L 78.5 36.5"/></clipPath></defs><path fill="none" stroke="rgb(240,240,240)" paint-order="fill" d="M 78.5 275.5 L 795.5 275.5 M 78.5 232.5 L 795.5 232.5 M 78.5 190.5 L 795.5 190.5 M 78.5 147.5 L 795.5 147.5 M 78.5 105.5 L 795.5 105.5 M 78.5 62.5 L 795.5 62.5" stroke-opacity="1" stroke-linejoin="bevel" stroke-miterlimit="10" stroke-dasharray="" clip-path="url(#TTdAOdTPnEgS)"/><path fill="none" stroke="none"/><path fill="none" stroke="rgb(134,167,118)" paint-order="fill" d="M 111.09091186523438 276.69744873046875 L 111.82206726074219 275.58624267578125 L 112.48247528076172 274.3551025390625 L 113.21363067626953 274.22320556640625 L 113.92121124267578 273.23956298828125 L 114.6523666381836 271.87152099609375 L 115.35994720458984 271.1495056152344 L 116.09111022949219 271.71337890625 L 116.822265625 271.46197509765625 L 117.52984619140625 269.12664794921875 L 118.26100158691406 267.7568359375 L 118.96858215332031 266.6518249511719 L 119.69973754882812 266.0333557128906 L 120.43090057373047 264.67669677734375 L 121.09130096435547 264.5057067871094 L 121.82246398925781 265.4173278808594 L 122.53003692626953 263.2126770019531 L 123.26119995117188 263.03692626953125 L 123.9687728881836 263.1273193359375 L 124.69993591308594 263.99871826171875 L 125.43109893798828 264.5523376464844 L 126.138671875 270.0387268066406 L 126.86983489990234 270.7183532714844 L 127.57740783691406 270.66192626953125 L 128.3085708618164 269.37860107421875 L 129.03973388671875 268.9751892089844 L 129.70013427734375 267.3598937988281 L 130.43128967285156 268.6780090332031 L 131.1388702392578 269.8549499511719 L 131.87002563476562 270.28912353515625 L 132.57760620117188 268.7222900390625 L 133.3087615966797 266.1348876953125 L 134.03993225097656 266.6292724609375 L 134.74749755859375 267.3689880371094 L 135.47866821289062 266.0832214355469 L 136.1862335205078 266.2731628417969 L 136.9174041748047 266.6297607421875 L 137.6485595703125 266.8681335449219 L 138.3089599609375 268.6139221191406 L 139.04013061523438 267.736328125 L 139.74769592285156 264.4022521972656 L 140.47886657714844 262.1802673339844 L 141.18643188476562 260.2688293457031 L 141.9176025390625 261.0481262207031 L 142.6487579345703 262.07763671875 L 143.35633850097656 262.3458557128906 L 144.08749389648438 260.99700927734375 L 144.79507446289062 263.38238525390625 L 145.52622985839844 263.5621643066406 L 146.25738525390625 262.9635314941406 L 146.94137573242188 264.5685119628906 L 147.67254638671875 264.03143310546875 L 148.38011169433594 263.9532470703125 L 149.1112823486328 264.14617919921875 L 149.81884765625 266.5240783691406 L 150.55001831054688 263.85980224609375 L 151.2811737060547 262.0787048339844 L 151.98875427246094 261.2926025390625 L 152.71990966796875 259.9021911621094 L 153.427490234375 259.0219421386719 L 154.1586456298828 257.5457763671875 L 154.88980102539062 256.33551025390625 L 155.5502166748047 255.1501922607422 L 156.2813720703125 254.47848510742188 L 156.98895263671875 252.87203979492188 L 157.72010803222656 251.0337371826172 L 158.4276885986328 250.03773498535156 L 159.15884399414062 253.41844177246094 L 159.88999938964844 250.27574157714844 L 160.5975799560547 248.29800415039062 L 161.3287353515625 246.01904296875 L 162.03631591796875 245.82135009765625 L 162.76747131347656 245.70152282714844 L 163.49864196777344 241.81666564941406 L 164.15904235839844 239.67617797851562 L 164.89019775390625 240.21694946289062 L 165.5977783203125 239.2300567626953 L 166.3289337158203 238.90084838867188 L 167.03651428222656 239.48008728027344 L 167.76766967773438 238.26194763183594 L 168.49884033203125 235.54415893554688 L 169.20640563964844 233.71763610839844 L 169.9375762939453 233.5052032470703 L 170.6451416015625 234.5164337158203 L 171.37631225585938 232.3838348388672 L 172.1074676513672 230.12701416015625 L 172.7678680419922 230.6516571044922 L 173.49903869628906 230.07901000976562 L 174.20660400390625 229.79832458496094 L 174.93777465820312 229.38323974609375 L 175.6453399658203 227.42947387695312 L 176.3765106201172 225.37400817871094 L 177.107666015625 224.739013671875 L 177.81524658203125 225.2509765625 L 178.54640197753906 226.13983154296875 L 179.2539825439453 224.00804138183594 L 179.98513793945312 221.7608642578125 L 180.71629333496094 221.49371337890625 L 181.40028381347656 222.28225708007812 L 182.13145446777344 222.01959228515625 L 182.83901977539062 225.021728515625 L 183.5701904296875 224.6561279296875 L 184.2777557373047 226.7989044189453 L 185.00892639160156 225.85719299316406 L 185.74008178710938 225.50025939941406 L 186.44766235351562 228.27394104003906 L 187.17881774902344 226.32029724121094 L 187.8863983154297 224.815673828125 L 188.6175537109375 223.8261260986328 L 189.3487091064453 222.10569763183594 L 190.00912475585938 220.6080780029297 L 190.7402801513672 219.15625 L 191.44786071777344 216.54673767089844 L 192.17901611328125 213.9375 L 192.8865966796875 213.28004455566406 L 193.6177520751953 210.62030029296875 L 194.34890747070312 209.209716796875 L 195.05648803710938 207.58157348632812 L 195.7876434326172 205.96434020996094 L 196.49522399902344 203.37258911132812 L 197.22637939453125 200.38619995117188 L 197.95755004882812 199.1181182861328 L 198.61795043945312 196.9257049560547 L 199.34910583496094 197.2982635498047 L 200.0566864013672 195.03118896484375 L 200.787841796875 195.19810485839844 L 201.49542236328125 191.54946899414062 L 202.22657775878906 187.09381103515625 L 202.95774841308594 187.44212341308594 L 203.66531372070312 184.64791870117188 L 204.396484375 187.8176727294922 L 205.1040496826172 187.9324951171875 L 205.83522033691406 188.05545043945312 L 206.56637573242188 188.19712829589844 L 207.22677612304688 188.2792205810547 L 207.95794677734375 188.2235870361328 L 208.66551208496094 188.28367614746094 L 209.3966827392578 188.4669647216797 L 210.104248046875 188.55174255371094 L 210.83541870117188 188.37643432617188 L 211.5665740966797 188.49327087402344 L 212.27415466308594 188.8064422607422 L 213.00531005859375 188.99961853027344 L 213.712890625 189.1544189453125 L 214.4440460205078 189.11996459960938 L 215.17520141601562 189.36865234375 L 215.85919189453125 189.8318634033203 L 216.59036254882812 189.76280212402344 L 217.2979278564453 189.56753540039062 L 218.0290985107422 189.2132110595703 L 218.73666381835938 189.06890869140625 L 219.46783447265625 188.87562561035156 L 220.19898986816406 189.53128051757812 L 220.9065704345703 190.0456085205078 L 221.63772583007812 190.91363525390625 L 222.34530639648438 191.2239990234375 L 223.0764617919922 191.2372283935547 L 223.8076171875 191.30270385742188 L 224.46803283691406 191.3840789794922 L 225.19918823242188 191.4482421875 L 225.90676879882812 191.5248260498047 L 226.63792419433594 191.5445556640625 L 227.3455047607422 191.60372924804688 L 228.07666015625 191.62583923339844 L 228.8078155517578 191.5740966796875 L 229.51539611816406 191.54417419433594 L 230.24655151367188 191.4566650390625 L 230.95413208007812 191.422119140625 L 231.68528747558594 191.4344940185547 L 232.4164581298828 191.2891845703125 L 233.0768585205078 191.4539794921875 L 233.80801391601562 191.36502075195312 L 234.51559448242188 191.33998107910156 L 235.2467498779297 191.31414794921875 L 235.95433044433594 191.46498107910156 L 236.68548583984375 191.2737579345703 L 237.41665649414062 191.4438934326172 L 238.1242218017578 191.925048828125 L 238.8553924560547 192.04586791992188 L 239.56295776367188 192.1151580810547 L 240.29412841796875 191.93069458007812 L 241.02528381347656 192.24017333984375 L 241.68568420410156 192.81573486328125 L 242.41685485839844 193.08058166503906 L 243.12442016601562 192.96157836914062 L 243.8555908203125 193.1371612548828 L 244.5631561279297 192.6982879638672 L 245.29432678222656 193.08604431152344 L 246.02548217773438 192.9253387451172 L 246.73306274414062 193.35719299316406 L 247.46421813964844 193.60557556152344 L 248.1717987060547 193.56454467773438 L 248.9029541015625 193.50466918945312 L 249.6341094970703 193.41024780273438 L 250.31809997558594 193.3123779296875 L 251.0492706298828 193.21212768554688 L 251.7568359375 193.11204528808594 L 252.48800659179688 193.02491760253906 L 253.19557189941406 192.99490356445312 L 253.92674255371094 192.93795776367188 L 254.65789794921875 192.71981811523438 L 255.365478515625 192.6422882080078 L 256.0966339111328 192.4503631591797 L 256.80419921875 192.06227111816406 L 257.5353698730469 191.87002563476562 L 258.26654052734375 191.95957946777344 L 258.92694091796875 191.7556915283203 L 259.6580810546875 191.62059020996094 L 260.36566162109375 191.7257537841797 L 261.0968322753906 192.2387237548828 L 261.8044128417969 193.2597198486328 L 262.5355529785156 193.16909790039062 L 263.2667236328125 193.07908630371094 L 263.97430419921875 193.04820251464844 L 264.7054748535156 193.1061553955078 L 265.41302490234375 193.04627990722656 L 266.1441955566406 193.0520477294922 L 266.8753662109375 192.9799346923828 L 267.5357666015625 192.93414306640625 L 268.2669372558594 192.96058654785156 L 268.9744873046875 192.77749633789062 L 269.7056579589844 192.65435791015625 L 270.4132385253906 192.6129913330078 L 271.1444091796875 192.6314697265625 L 271.87554931640625 192.38356018066406 L 272.5831298828125 192.1295928955078 L 273.3143005371094 191.96014404296875 L 274.0218811035156 191.803466796875 L 274.7530212402344 191.4593963623047 L 275.48419189453125 191.0350799560547 L 276.14459228515625 190.7347869873047 L 276.8757629394531 190.33213806152344 L 277.5833435058594 189.900634765625 L 278.3144836425781 189.41372680664062 L 279.0220642089844 189.02857971191406 L 279.75323486328125 188.1678009033203 L 280.484375 187.86790466308594 L 281.19195556640625 187.2017364501953 L 281.9231262207031 186.44668579101562 L 282.6307067871094 185.8051300048828 L 283.3618469238281 185.452880859375 L 284.093017578125 184.56968688964844 L 284.7770080566406 183.9998321533203 L 285.5081787109375 183.38572692871094 L 286.21575927734375 182.5818634033203 L 286.9468994140625 181.81752014160156 L 287.65447998046875 181.94436645507812 L 288.3856506347656 181.3826446533203 L 289.1167907714844 180.56991577148438 L 289.8243713378906 179.45516967773438 L 290.5555419921875 178.47903442382812 L 291.26312255859375 177.7855224609375 L 291.9942626953125 177.45489501953125 L 292.7254333496094 176.66720581054688 L 293.3858337402344 176.2916259765625 L 294.11700439453125 176.58538818359375 L 294.8245849609375 175.5291748046875 L 295.55572509765625 176.0232391357422 L 296.2633056640625 175.76417541503906 L 296.9944763183594 175.3697967529297 L 297.72564697265625 176.29998779296875 L 298.4331970214844 177.85830688476562 L 299.16436767578125 178.7587432861328 L 299.8719482421875 179.42404174804688 L 300.6031188964844 180.0226287841797 L 301.3342590332031 180.56451416015625 L 301.9946594238281 181.05545043945312 L 302.725830078125 181.48764038085938 L 303.43341064453125 181.83738708496094 L 304.1645812988281 182.12136840820312 L 304.87213134765625 182.51417541503906 L 305.6033020019531 182.7805633544922 L 306.33447265625 182.98983764648438 L 307.04205322265625 183.16531372070312 L 307.773193359375 183.38723754882812 L 308.48077392578125 183.85079956054688 L 309.2119445800781 183.94668579101562 L 309.9430847167969 184.21742248535156 L 310.603515625 184.7542266845703 L 311.33465576171875 185.07369995117188 L 312.042236328125 185.30563354492188 L 312.7734069824219 185.58419799804688 L 313.4809875488281 185.89808654785156 L 314.2121276855469 186.2893524169922 L 314.94329833984375 186.70726013183594 L 315.65087890625 186.9932861328125 L 316.38201904296875 187.30715942382812 L 317.089599609375 187.59275817871094 L 317.8207702636719 187.8379669189453 L 318.55194091796875 188.25009155273438 L 319.2359313964844 188.4948272705078 L 319.9670715332031 188.85086059570312 L 320.6746520996094 189.0049591064453 L 321.40582275390625 189.0802001953125 L 322.1134033203125 189.66603088378906 L 322.84454345703125 190.17062377929688 L 323.5757141113281 190.33627319335938 L 324.2832946777344 190.43505859375 L 325.0144348144531 190.48129272460938 L 325.7220153808594 190.47970581054688 L 326.45318603515625 191.01718139648438 L 327.1843566894531 191.0519561767578 L 327.8447570800781 191.3826904296875 L 328.5758972167969 191.12416076660156 L 329.2834777832031 191.46812438964844 L 330.0146484375 193.09274291992188 L 330.72222900390625 193.0613555908203 L 331.453369140625 192.94969177246094 L 332.1845397949219 192.79408264160156 L 332.8921203613281 192.54815673828125 L 333.623291015625 192.29183959960938 L 334.3308410644531 192.03065490722656 L 335.06201171875 191.54876708984375 L 335.7931823730469 191.1080780029297 L 336.4535827636719 190.63731384277344 L 337.18475341796875 190.26844787597656 L 337.8923034667969 189.87222290039062 L 338.62347412109375 189.45176696777344 L 339.3310546875 189.0037384033203 L 340.0622253417969 188.44467163085938 L 340.7933654785156 187.9095458984375 L 341.5009460449219 187.0600128173828 L 342.23211669921875 186.53411865234375 L 342.939697265625 186.2113037109375 L 343.67083740234375 184.84439086914062 L 344.4020080566406 183.69766235351562 L 345.0624084472656 182.7144317626953 L 345.7935791015625 181.6416473388672 L 346.50115966796875 180.6481475830078 L 347.2322998046875 179.80398559570312 L 347.93988037109375 178.7736358642578 L 348.6710510253906 177.8336181640625 L 349.4021911621094 176.31863403320312 L 350.1097717285156 175.32562255859375 L 350.8409423828125 174.10385131835938 L 351.54852294921875 172.20394897460938 L 352.2796630859375 170.62738037109375 L 353.0108337402344 169.187255859375 L 353.69482421875 168.37998962402344 L 354.4259948730469 167.21612548828125 L 355.1335754394531 166.03407287597656 L 355.8647155761719 164.97276306152344 L 356.5722961425781 163.8440704345703 L 357.303466796875 162.0679168701172 L 358.03460693359375 160.7942657470703 L 358.7421875 158.6646728515625 L 359.4733581542969 156.0137939453125 L 360.1809387207031 155.73072814941406 L 360.9120788574219 155.5712432861328 L 361.64324951171875 153.17686462402344 L 362.30364990234375 151.8374481201172 L 363.0348205566406 148.53663635253906 L 363.7424011230469 147.85174560546875 L 364.4735412597656 146.52883911132812 L 365.1811218261719 144.1439971923828 L 365.91229248046875 145.9459991455078 L 366.6434631347656 144.9928741455078 L 367.35101318359375 146.86386108398438 L 368.0821838378906 143.43084716796875 L 368.7897644042969 139.52066040039062 L 369.52093505859375 140.048095703125 L 370.2520751953125 137.63204956054688 L 370.9124755859375 134.98789978027344 L 371.6436462402344 132.26239013671875 L 372.3512268066406 129.45077514648438 L 373.0823974609375 126.3900375366211 L 373.7899475097656 123.45662689208984 L 374.5211181640625 120.60174560546875 L 375.2522888183594 118.24403381347656 L 375.9598693847656 115.3377685546875 L 376.6910095214844 111.93736267089844 L 377.3985900878906 108.78475952148438 L 378.1297607421875 106.02314758300781 L 378.86090087890625 101.86104583740234 L 379.52130126953125 98.15337371826172 L 380.2524719238281 94.75627899169922 L 380.9600524902344 91.32152557373047 L 381.69122314453125 88.1675033569336 L 382.3987731933594 84.76708984375 L 383.12994384765625 80.86930084228516 L 383.8611145019531 77.4875717163086 L 384.5686950683594 73.61127471923828 L 385.2998352050781 71.0982666015625 L 386.0074157714844 67.87020874023438 L 386.73858642578125 63.895751953125 L 387.4697570800781 60.993011474609375 L 388.1537170410156 58.58955001831055 L 388.8848876953125 55.412635803222656 L 389.59246826171875 53.206172943115234 L 390.3236389160156 50.91341018676758 L 391.0312194824219 48.727272033691406 L 391.7623596191406 51.66450500488281 L 392.4935302734375 54.653324127197266 L 393.20111083984375 57.07742691040039 L 393.9322509765625 60.25992965698242 L 394.63983154296875 62.09707260131836 L 395.3710021972656 64.43918991088867 L 396.1021728515625 68.1742935180664 L 396.7625732421875 71.06280517578125 L 397.49371337890625 73.3399887084961 L 398.2012939453125 73.21138763427734 L 398.9324645996094 72.29251098632812 L 399.6400451660156 73.3655014038086 L 400.3711853027344 74.70650482177734 L 401.10235595703125 72.63367462158203 L 401.8099365234375 73.84164428710938 L 402.5411071777344 76.82176971435547 L 403.2486572265625 81.28313446044922 L 403.9798278808594 81.73123931884766 L 404.71099853515625 80.89704895019531 L 405.37139892578125 82.77311706542969 L 406.1025390625 82.8550796508789 L 406.81011962890625 82.8577651977539 L 407.5412902832031 85.45220947265625 L 408.2488708496094 85.57068634033203 L 408.9800109863281 86.3281478881836 L 409.711181640625 85.14550018310547 L 410.41876220703125 85.97643280029297 L 411.1499328613281 89.66024780273438 L 411.85748291015625 91.47732543945312 L 412.5886535644531 90.4706802368164 L 413.31982421875 90.13616180419922 L 413.980224609375 89.26244354248047 L 414.7113952636719 96.69879913330078 L 415.4189453125 99.1116714477539 L 416.1501159667969 97.50166320800781 L 416.8576965332031 94.79424285888672 L 417.5888671875 93.1866455078125 L 418.32000732421875 92.37156677246094 L 419.027587890625 91.93121337890625 L 419.7587585449219 91.17102813720703 L 420.4663391113281 89.56185150146484 L 421.1974792480469 91.44536590576172 L 421.92864990234375 92.49057006835938 L 422.6126403808594 95.4444580078125 L 423.34381103515625 93.80250549316406 L 424.0513610839844 93.93299865722656 L 424.78253173828125 96.0023193359375 L 425.4901123046875 96.4098892211914 L 426.2212829589844 98.67837524414062 L 426.9524230957031 99.02702331542969 L 427.6600036621094 105.96385192871094 L 428.39117431640625 105.55171966552734 L 429.0987548828125 104.18307495117188 L 429.82989501953125 104.1435546875 L 430.5610656738281 108.55409240722656 L 431.2214660644531 110.7648696899414 L 431.95263671875 113.66297149658203 L 432.66021728515625 110.32849884033203 L 433.391357421875 110.74544525146484 L 434.09893798828125 115.93294525146484 L 434.8301086425781 116.5703125 L 435.5612487792969 117.39046478271484 L 436.2688293457031 118.17091369628906 L 437 119.06192779541016 L 437.70758056640625 120.12277221679688 L 438.4387512207031 121.292724609375 L 439.1698913574219 122.2328109741211 L 439.8302917480469 123.27484130859375 L 440.56146240234375 124.24945068359375 L 441.26904296875 125.22694396972656 L 442.00018310546875 126.12320709228516 L 442.707763671875 127.20762634277344 L 443.4389343261719 128.13998413085938 L 444.17010498046875 129.43186950683594 L 444.8776550292969 130.0645294189453 L 445.60882568359375 130.89227294921875 L 446.31640625 131.9713592529297 L 447.0475769042969 132.9349822998047 L 447.7787170410156 133.63807678222656 L 448.4391174316406 135.51846313476562 L 449.1702880859375 136.3960723876953 L 449.87786865234375 137.4141387939453 L 450.6090393066406 138.53292846679688 L 451.31658935546875 139.9773712158203 L 452.0477600097656 141.19444274902344 L 452.7789306640625 142.20635986328125 L 453.48651123046875 143.0990447998047 L 454.2176513671875 143.99549865722656 L 454.92523193359375 144.85995483398438 L 455.6564025878906 145.81564331054688 L 456.3875427246094 146.5098876953125 L 457.071533203125 147.11923217773438 L 457.8027038574219 148.07794189453125 L 458.5102844238281 148.917236328125 L 459.241455078125 149.78912353515625 L 459.9490051269531 150.78594970703125 L 460.68017578125 151.7307891845703 L 461.4113464355469 153.03530883789062 L 462.1189270019531 154.30429077148438 L 462.8500671386719 155.1706085205078 L 463.5576477050781 155.41651916503906 L 464.288818359375 155.83860778808594 L 465.0199890136719 156.7951202392578 L 465.6803894042969 157.20111083984375 L 466.4115295410156 157.5396728515625 L 467.1191101074219 158.35098266601562 L 467.85028076171875 159.48553466796875 L 468.557861328125 160.22352600097656 L 469.28900146484375 161.5805206298828 L 470.0201721191406 162.35130310058594 L 470.7277526855469 163.85198974609375 L 471.4588928222656 165.0459442138672 L 472.1664733886719 165.72113037109375 L 472.89764404296875 166.79637145996094 L 473.6288146972656 167.05699157714844 L 474.2892150878906 167.4327392578125 L 475.0203552246094 168.2522735595703 L 475.7279357910156 169.9762420654297 L 476.4591064453125 171.52049255371094 L 477.16668701171875 172.26280212402344 L 477.8978271484375 173.17105102539062 L 478.6289978027344 173.58409118652344 L 479.3365783691406 175.5001678466797 L 480.0677490234375 179.05601501464844 L 480.7752990722656 182.97607421875 L 481.5064697265625 184.520751953125 L 482.2376403808594 185.6787872314453 L 482.8980407714844 186.73025512695312 L 483.62921142578125 187.72991943359375 L 484.3367614746094 188.74929809570312 L 485.06793212890625 189.76052856445312 L 485.7755126953125 190.52142333984375 L 486.5066833496094 191.4323272705078 L 487.2378234863281 192.4575958251953 L 487.9454040527344 193.3017578125 L 488.67657470703125 194.05426025390625 L 489.3841552734375 195.164306640625 L 490.11529541015625 196.00238037109375 L 490.8464660644531 196.71575927734375 L 491.53045654296875 197.43789672851562 L 492.2616271972656 198.35427856445312 L 492.96917724609375 199.01980590820312 L 493.7003479003906 199.6132354736328 L 494.4079284667969 200.20225524902344 L 495.13909912109375 200.80409240722656 L 495.8702392578125 201.26434326171875 L 496.57781982421875 202.08465576171875 L 497.3089904785156 202.88888549804688 L 498.0165710449219 203.89715576171875 L 498.7477111816406 204.44601440429688 L 499.4788818359375 205.4549560546875 L 500.1392822265625 206.4767303466797 L 500.8704528808594 207.21890258789062 L 501.5780334472656 207.93309020996094 L 502.3091735839844 208.57484436035156 L 503.0167541503906 209.19671630859375 L 503.7479248046875 209.87966918945312 L 504.47906494140625 210.76528930664062 L 505.1866455078125 211.52609252929688 L 505.9178161621094 212.1991424560547 L 506.6253967285156 212.7540283203125 L 507.3565368652344 213.27061462402344 L 508.08770751953125 213.78652954101562 L 508.74810791015625 214.1195831298828 L 509.4792785644531 214.5913543701172 L 510.1868591308594 215.01950073242188 L 510.9179992675781 215.50390625 L 511.6255798339844 215.9818878173828 L 512.3567504882812 216.4939727783203 L 513.087890625 216.9564666748047 L 513.7954711914062 217.69863891601562 L 514.5266723632812 218.45687866210938 L 515.2341918945312 219.2442626953125 L 515.9653930664062 219.95376586914062 L 516.696533203125 220.3034210205078 L 517.35693359375 221.0509490966797 L 518.088134765625 221.8849639892578 L 518.795654296875 222.67959594726562 L 519.52685546875 223.36944580078125 L 520.2344360351562 224.26174926757812 L 520.965576171875 224.84942626953125 L 521.6967163085938 225.53883361816406 L 522.404296875 226.31741333007812 L 523.135498046875 227.19680786132812 L 523.8430786132812 227.75270080566406 L 524.57421875 228.29063415527344 L 525.3053588867188 229.1265411376953 L 525.9893798828125 229.87274169921875 L 526.7205200195312 230.55523681640625 L 527.4281005859375 231.48873901367188 L 528.1592407226562 232.16763305664062 L 528.8668212890625 232.7908477783203 L 529.5980224609375 233.53012084960938 L 530.3291625976562 234.12843322753906 L 531.0367431640625 234.7807159423828 L 531.7678833007812 235.40821838378906 L 532.4754638671875 236.2285614013672 L 533.2066040039062 236.95420837402344 L 533.9378051757812 237.5666046142578 L 534.5982055664062 238.4215545654297 L 535.329345703125 239.4224853515625 L 536.0369262695312 240.67184448242188 L 536.76806640625 241.5078582763672 L 537.4756469726562 242.41128540039062 L 538.2068481445312 243.24424743652344 L 538.93798828125 244.0035858154297 L 539.6455688476562 244.76846313476562 L 540.376708984375 245.51377868652344 L 541.0842895507812 246.2449188232422 L 541.8154296875 246.9556884765625 L 542.546630859375 247.55718994140625 L 543.20703125 248.09580993652344 L 543.9381713867188 248.65541076660156 L 544.645751953125 249.16122436523438 L 545.3768920898438 249.62696838378906 L 546.08447265625 250.07916259765625 L 546.815673828125 250.59259033203125 L 547.5468139648438 251.15716552734375 L 548.25439453125 251.56617736816406 L 548.9855346679688 252.04676818847656 L 549.693115234375 252.46786499023438 L 550.42431640625 252.85108947753906 L 551.1554565429688 253.3141632080078 L 551.8158569335938 253.4956512451172 L 552.5469970703125 253.96266174316406 L 553.2545776367188 254.397705078125 L 553.9857788085938 254.72560119628906 L 554.6932983398438 255.1179962158203 L 555.4244995117188 255.748291015625 L 556.1556396484375 255.98312377929688 L 556.8632202148438 256.25531005859375 L 557.5943603515625 256.41554260253906 L 558.3019409179688 256.5521545410156 L 559.0331420898438 256.8757019042969 L 559.7642822265625 257.0561828613281 L 560.4482421875 257.1873779296875 L 561.179443359375 257.5963134765625 L 561.8870239257812 258.181640625 L 562.6181640625 258.018798828125 L 563.3257446289062 258.06768798828125 L 564.056884765625 258.0819396972656 L 564.7880859375 258.3935546875 L 565.4956665039062 258.66705322265625 L 566.226806640625 258.9289245605469 L 566.9343872070312 259.33245849609375 L 567.66552734375 259.475830078125 L 568.3966674804688 259.7586975097656 L 569.05712890625 259.68060302734375 L 569.7882690429688 259.6722717285156 L 570.495849609375 259.8144836425781 L 571.2269897460938 260.1639404296875 L 571.9345703125 260.5222473144531 L 572.6657104492188 260.6112060546875 L 573.3969116210938 261.4132385253906 L 574.1044921875 262.13677978515625 L 574.8356323242188 262.4992370605469 L 575.543212890625 262.82684326171875 L 576.2743530273438 263.14739990234375 L 577.0055541992188 263.4398193359375 L 577.6659545898438 263.7345886230469 L 578.3970947265625 263.99517822265625 L 579.1046752929688 264.21441650390625 L 579.8358154296875 264.4379577636719 L 580.5433959960938 264.66033935546875 L 581.2745361328125 264.8047180175781 L 582.0057373046875 265.0257873535156 L 582.7133178710938 265.1947326660156 L 583.4444580078125 265.3594665527344 L 584.1520385742188 265.4825134277344 L 584.8831787109375 265.57598876953125 L 585.6143798828125 265.6620788574219 L 586.2747802734375 265.73797607421875 L 587.0059204101562 265.7908935546875 L 587.7135009765625 265.8346862792969 L 588.4446411132812 265.9062194824219 L 589.1522216796875 265.9053955078125 L 589.8834228515625 265.8869323730469 L 590.6145629882812 265.8679504394531 L 591.3221435546875 265.848388671875 L 592.0532836914062 265.9041442871094 L 592.7608642578125 265.8962707519531 L 593.4920043945312 265.92352294921875 L 594.2232055664062 265.90252685546875 L 594.9071655273438 265.92333984375 L 595.6383666992188 266.0677795410156 L 596.3458862304688 266.00396728515625 L 597.0770874023438 265.8091125488281 L 597.78466796875 265.8238525390625 L 598.5158081054688 265.82586669921875 L 599.2469482421875 265.816650390625 L 599.9545288085938 266.1294250488281 L 600.6857299804688 265.9755554199219 L 601.393310546875 265.7633056640625 L 602.1244506835938 265.65826416015625 L 602.8555908203125 265.6209411621094 L 603.5159912109375 265.71807861328125 L 604.2471923828125 265.49578857421875 L 604.9547729492188 265.58660888671875 L 605.6859130859375 265.6376647949219 L 606.3934936523438 265.8359680175781 L 607.1246337890625 266.3243713378906 L 607.8557739257812 266.1970520019531 L 608.5633544921875 266.42926025390625 L 609.2945556640625 266.4949035644531 L 610.0021362304688 266.0926208496094 L 610.7332763671875 266.1454772949219 L 611.4644165039062 266.30841064453125 L 612.1248168945312 266.8996276855469 L 612.8560180664062 267.0353698730469 L 613.5635986328125 267.15838623046875 L 614.2947387695312 267.25616455078125 L 615.0023193359375 267.3321228027344 L 615.7334594726562 267.41839599609375 L 616.4646606445312 267.4918518066406 L 617.1721801757812 267.5220642089844 L 617.9033813476562 267.5419616699219 L 618.6109619140625 267.5555114746094 L 619.3421020507812 267.5343322753906 L 620.0732421875 267.46746826171875 L 620.733642578125 267.45855712890625 L 621.46484375 267.482666015625 L 622.1724243164062 267.454345703125 L 622.903564453125 267.4903259277344 L 623.6111450195312 267.41351318359375 L 624.34228515625 267.43597412109375 L 625.073486328125 267.4419250488281 L 625.7810668945312 267.3520812988281 L 626.51220703125 267.33258056640625 L 627.2197875976562 267.17657470703125 L 627.950927734375 267.063232421875 L 628.6820678710938 267.078125 L 629.3660888671875 267.0102233886719 L 630.0972290039062 267.00994873046875 L 630.8048095703125 267.0826416015625 L 631.5360107421875 267.0191955566406 L 632.2435302734375 266.9057312011719 L 632.9747314453125 266.81353759765625 L 633.7058715820312 266.7739562988281 L 634.4134521484375 266.7463684082031 L 635.1445922851562 266.8571472167969 L 635.8521728515625 266.6927185058594 L 636.5833740234375 266.5981140136719 L 637.3145141601562 266.51220703125 L 637.9749145507812 266.47991943359375 L 638.7060546875 266.35986328125 L 639.4136352539062 266.2622985839844 L 640.1448364257812 266.2427673339844 L 640.8523559570312 266.33770751953125 L 641.5835571289062 266.2373962402344 L 642.314697265625 266.0311279296875 L 643.0222778320312 265.81048583984375 L 643.75341796875 265.5207824707031 L 644.4609985351562 265.30731201171875 L 645.1921997070312 265.078857421875 L 645.92333984375 264.9479675292969 L 646.583740234375 264.75250244140625 L 647.3148803710938 264.81646728515625 L 648.0224609375 264.4573974609375 L 648.753662109375 264.176513671875 L 649.4612426757812 264.1412658691406 L 650.1923828125 264.246826171875 L 650.9235229492188 264.6800842285156 L 651.631103515625 264.59765625 L 652.3623046875 264.5353698730469 L 653.06982421875 265.0201416015625 L 653.801025390625 265.028564453125 L 654.5321655273438 265.6670227050781 L 655.1925659179688 265.8828125 L 655.9237060546875 266.200439453125 L 656.6312866210938 265.89508056640625 L 657.3624877929688 265.72894287109375 L 658.070068359375 266.1825866699219 L 658.8012084960938 266.8537292480469 L 659.5323486328125 266.6966857910156 L 660.2399291992188 267.2546081542969 L 660.9711303710938 269.9403076171875 L 661.6786499023438 271.1863708496094 L 662.4098510742188 271.2715759277344 L 663.1409912109375 271.455810546875 L 663.8250122070312 272.5185241699219 L 664.55615234375 273.46502685546875 L 665.2637329101562 273.4749755859375 L 665.994873046875 273.46435546875 L 666.7024536132812 273.4576721191406 L 667.43359375 273.44488525390625 L 668.164794921875 273.3725280761719 L 668.8723754882812 273.3279724121094 L 669.603515625 273.2870788574219 L 670.3110961914062 273.2438049316406 L 671.042236328125 273.1993103027344 L 671.7734375 273.1584167480469 L 672.433837890625 273.19464111328125 L 673.1649780273438 273.0534362792969 L 673.87255859375 272.94140625 L 674.6036987304688 273.052490234375 L 675.311279296875 273.12890625 L 676.04248046875 273.1147155761719 L 676.7736206054688 273.0639343261719 L 677.481201171875 272.9248962402344 L 678.2123413085938 272.7394104003906 L 678.919921875 272.6138610839844 L 679.6510620117188 272.4465637207031 L 680.3822631835938 272.27996826171875 L 681.0426635742188 272.1221923828125 L 681.7738037109375 272.1226806640625 L 682.4813842773438 271.99102783203125 L 683.2125244140625 271.9302062988281 L 683.9201049804688 272.0483093261719 L 684.6513061523438 271.8836975097656 L 685.3824462890625 272.3709411621094 L 686.0900268554688 272.4042663574219 L 686.8211669921875 272.2460632324219 L 687.5287475585938 272.1904296875 L 688.2598876953125 272.1420593261719 L 688.9910888671875 271.9129333496094 L 689.6514892578125 271.70611572265625 L 690.3826293945312 271.5576171875 L 691.0902099609375 271.5578308105469 L 691.8213500976562 271.72967529296875 L 692.5289306640625 271.79449462890625 L 693.2601318359375 271.6073913574219 L 693.9912719726562 271.38665771484375 L 694.6988525390625 271.1827087402344 L 695.4299926757812 271.1753845214844 L 696.1375732421875 271.3506164550781 L 696.8687744140625 271.183837890625 L 697.5999145507812 270.8797912597656 L 698.2838745117188 270.7144470214844 L 699.0150756835938 270.5269775390625 L 699.72265625 270.376708984375 L 700.4537963867188 270.0109558105469 L 701.161376953125 270.0205993652344 L 701.8925170898438 269.7254638671875 L 702.6237182617188 269.6427307128906 L 703.3312377929688 269.48150634765625 L 704.0624389648438 269.2441101074219 L 704.77001953125 268.8765869140625 L 705.5011596679688 268.6712951660156 L 706.2322998046875 268.5152587890625 L 706.8927001953125 268.44036865234375 L 707.6239013671875 268.1529846191406 L 708.3314819335938 268.0487976074219 L 709.0626220703125 267.8292541503906 L 709.7702026367188 267.4936828613281 L 710.5013427734375 267.3012390136719 L 711.2325439453125 267.2611999511719 L 711.9401245117188 267.0388488769531 L 712.6712646484375 267.1819763183594 L 713.3788452148438 266.62274169921875 L 714.1099853515625 266.4972839355469 L 714.8411254882812 266.5231628417969 L 715.5015869140625 266.2181396484375 L 716.2327270507812 266.1446838378906 L 716.9403076171875 266.0065002441406 L 717.6714477539062 265.9046630859375 L 718.3790283203125 265.9327392578125 L 719.1101684570312 265.9583435058594 L 719.8413696289062 266.2015380859375 L 720.5489501953125 266.65081787109375 L 721.2800903320312 266.18280029296875 L 721.9876708984375 265.85467529296875 L 722.7188110351562 265.91162109375 L 723.4500122070312 266.5616455078125 L 724.1104125976562 266.53753662109375 L 724.841552734375 266.4401550292969 L 725.5491333007812 266.3242492675781 L 726.2802734375 266.21710205078125 L 726.9878540039062 266.1062316894531 L 727.718994140625 265.9771423339844 L 728.4501953125 265.8656311035156 L 729.1577758789062 265.76068115234375 L 729.888916015625 265.662841796875 L 730.5964965820312 265.55560302734375 L 731.32763671875 265.3756103515625 L 732.058837890625 265.21795654296875 L 732.7427978515625 265.0273132324219 L 733.4739379882812 264.8395690917969 L 734.1815185546875 264.6856994628906 L 734.9127197265625 264.4881286621094 L 735.6203002929688 264.2822570800781 L 736.3514404296875 264.0941162109375 L 737.0825805664062 263.9111633300781 L 737.7901611328125 263.6871643066406 L 738.5213623046875 263.42340087890625 L 739.2288818359375 263.17388916015625 L 739.9600830078125 262.8695068359375 L 740.6912231445312 262.4914855957031 L 741.3516235351562 262.3898620605469 L 742.0828247070312 262.18096923828125 L 742.7903442382812 262.0444030761719 L 743.5215454101562 261.7639465332031 L 744.2291259765625 261.4786071777344 L 744.9602661132812 261.2066345214844 L 745.69140625 260.8944396972656 L 746.3989868164062 260.6039733886719 L 747.1301879882812 260.56103515625 L 747.8377685546875 260.4603576660156 L 748.5689086914062 260.5965576171875 L 749.300048828125 260.4032897949219 L 749.96044921875 260.2051696777344 L 750.691650390625 259.98529052734375 L 751.3992309570312 259.7715759277344 L 752.13037109375 259.59808349609375 L 752.8379516601562 259.39385986328125 L 753.569091796875 259.22296142578125 L 754.3002319335938 259.15338134765625 L 755.0078125 259.065185546875 L 755.739013671875 259.0038146972656 L 756.4465942382812 258.8382873535156 L 757.177734375 258.74591064453125 L 757.9088745117188 259.0045471191406 L 758.5692749023438 259.2650451660156 L 759.3004760742188 260.04180908203125 L 760.008056640625 260.2713623046875 L 760.7391967773438 260.4547119140625 L 761.44677734375 260.6124267578125 L 762.1779174804688 260.7763671875 L 762.9091186523438 260.9624938964844" stroke-opacity="1" stroke-linejoin="bevel" stroke-miterlimit="10" stroke-width="2" stroke-dasharray="" clip-path="url(#kFwkPqLbVolV)"/><path fill="none" stroke="none"/><path fill="none" stroke="rgb(96,131,169)" paint-order="fill" d="M 111.09091186523438 293.2727355957031 L 111.82206726074219 292.9171142578125 L 112.48247528076172 292.5234375 L 113.21363067626953 292.5244140625 L 113.92121124267578 292.2237548828125 L 114.6523666381836 291.7893981933594 L 115.35994720458984 291.5825500488281 L 116.09111022949219 291.8246765136719 L 116.822265625 291.783935546875 L 117.52984619140625 291.0228271484375 L 118.26100158691406 290.58746337890625 L 118.96858215332031 290.24755859375 L 119.69973754882812 290.0728759765625 L 120.43090057373047 289.6577453613281 L 121.09130096435547 289.6338806152344 L 121.82246398925781 289.9682922363281 L 122.53003692626953 289.2809143066406 L 123.26119995117188 289.2575988769531 L 123.9687728881836 289.3201904296875 L 124.69993591308594 289.63818359375 L 125.43109893798828 289.8560485839844 L 126.138671875 291.7840576171875 L 126.86983489990234 292.0714111328125 L 127.57740783691406 292.0951232910156 L 128.3085708618164 291.6783752441406 L 129.03973388671875 291.5792541503906 L 129.70013427734375 291.0518493652344 L 130.43128967285156 291.56634521484375 L 131.1388702392578 292.0443115234375 L 131.87002563476562 292.2599792480469 L 132.57760620117188 291.7449951171875 L 133.3087615966797 290.8741149902344 L 134.03993225097656 291.1077880859375 L 134.74749755859375 291.43511962890625 L 135.47866821289062 291.0371398925781 L 136.1862335205078 291.1701354980469 L 136.9174041748047 291.3668212890625 L 137.6485595703125 291.52593994140625 L 138.3089599609375 292.2480773925781 L 139.04013061523438 291.9988708496094 L 139.74769592285156 290.8533630371094 L 140.47886657714844 290.130126953125 L 141.18643188476562 289.52545166015625 L 141.9176025390625 289.86029052734375 L 142.6487579345703 290.2893371582031 L 143.35633850097656 290.4530334472656 L 144.08749389648438 290.04144287109375 L 144.79507446289062 290.9432678222656 L 145.52622985839844 291.0617980957031 L 146.25738525390625 290.899658203125 L 146.94137573242188 291.5475769042969 L 147.67254638671875 291.4110412597656 L 148.38011169433594 291.4470520019531 L 149.1112823486328 291.5849304199219 L 149.81884765625 292.55084228515625 L 150.55001831054688 291.6244201660156 L 151.2811737060547 291.0421142578125 L 151.98875427246094 290.83056640625 L 152.71990966796875 290.4077453613281 L 153.427490234375 290.17633056640625 L 154.1586456298828 289.73876953125 L 154.88980102539062 289.4004821777344 L 155.5502166748047 289.07623291015625 L 156.2813720703125 288.93292236328125 L 156.98895263671875 288.4716796875 L 157.72010803222656 287.9364013671875 L 158.4276885986328 287.67901611328125 L 159.15884399414062 288.9007263183594 L 159.88999938964844 287.9278259277344 L 160.5975799560547 287.3612365722656 L 161.3287353515625 286.7083740234375 L 162.03631591796875 286.7335510253906 L 162.76747131347656 286.7890930175781 L 163.49864196777344 285.6535949707031 L 164.15904235839844 285.08123779296875 L 164.89019775390625 285.33441162109375 L 165.5977783203125 285.1213073730469 L 166.3289337158203 285.1102294921875 L 167.03651428222656 285.3796691894531 L 167.76766967773438 285.0998229980469 L 168.49884033203125 284.3829040527344 L 169.20640563964844 283.9400939941406 L 169.9375762939453 283.9718017578125 L 170.6451416015625 284.3663330078125 L 171.37631225585938 283.8352966308594 L 172.1074676513672 283.2744445800781 L 172.7678680419922 283.5190124511719 L 173.49903869628906 283.445556640625 L 174.20660400390625 283.45892333984375 L 174.93777465820312 283.4353332519531 L 175.6453399658203 282.9716491699219 L 176.3765106201172 282.4866943359375 L 177.107666015625 282.40093994140625 L 177.81524658203125 282.6387634277344 L 178.54640197753906 282.98211669921875 L 179.2539825439453 282.4697570800781 L 179.98513793945312 281.826171875 L 180.71629333496094 281.7339782714844 L 181.40028381347656 281.93389892578125 L 182.13145446777344 281.84552001953125 L 182.83901977539062 282.6795349121094 L 183.5701904296875 282.5708923339844 L 184.2777557373047 283.1846923828125 L 185.00892639160156 282.9136047363281 L 185.74008178710938 282.8131408691406 L 186.44766235351562 283.6282958984375 L 187.17881774902344 283.0628967285156 L 187.8863983154297 282.6337890625 L 188.6175537109375 282.3553466796875 L 189.3487091064453 281.86895751953125 L 190.00912475585938 281.44647216796875 L 190.7402801513672 281.0390930175781 L 191.44786071777344 280.3113708496094 L 192.17901611328125 279.5909729003906 L 192.8865966796875 279.40399169921875 L 193.6177520751953 278.6783447265625 L 194.34890747070312 278.29058837890625 L 195.05648803710938 277.84600830078125 L 195.7876434326172 277.40545654296875 L 196.49522399902344 276.71435546875 L 197.22637939453125 275.9294738769531 L 197.95755004882812 275.58367919921875 L 198.61795043945312 275.0063171386719 L 199.34910583496094 275.0687255859375 L 200.0566864013672 274.4729919433594 L 200.787841796875 274.4815979003906 L 201.49542236328125 273.55108642578125 L 202.22657775878906 272.4403381347656 L 202.95774841308594 272.47955322265625 L 203.66531372070312 271.7771911621094 L 204.396484375 272.48968505859375 L 205.1040496826172 272.4351501464844 L 205.83522033691406 272.38311767578125 L 206.56637573242188 272.33282470703125 L 207.22677612304688 272.27685546875 L 207.95794677734375 272.2037658691406 L 208.66551208496094 272.1477355957031 L 209.3966827392578 272.1065979003906 L 210.104248046875 272.0528869628906 L 210.83541870117188 271.9664611816406 L 211.5665740966797 271.9166259765625 L 212.27415466308594 271.8935241699219 L 213.00531005859375 271.8556823730469 L 213.712890625 271.81243896484375 L 214.4440460205078 271.74609375 L 215.17520141601562 271.7154235839844 L 215.85919189453125 271.712890625 L 216.59036254882812 271.6397399902344 L 217.2979278564453 271.5469055175781 L 218.0290985107422 271.4332275390625 L 218.73666381835938 271.34771728515625 L 219.46783447265625 271.2557678222656 L 220.19898986816406 271.2757568359375 L 220.9065704345703 271.2778015136719 L 221.63772583007812 271.33026123046875 L 222.34530639648438 271.30865478515625 L 223.0764617919922 271.2488098144531 L 223.8076171875 271.18817138671875 L 224.46803283691406 271.13177490234375 L 225.19918823242188 271.0744934082031 L 225.90676879882812 271.01934814453125 L 226.63792419433594 270.9589538574219 L 227.3455047607422 270.9060363769531 L 228.07666015625 270.8471374511719 L 228.8078155517578 270.77703857421875 L 229.51539611816406 270.7090759277344 L 230.24655151367188 270.63482666015625 L 230.95413208007812 270.5687255859375 L 231.68528747558594 270.5101013183594 L 232.4164581298828 270.4275817871094 L 233.0768585205078 270.3891906738281 L 233.80801391601562 270.3160095214844 L 234.51559448242188 270.2539367675781 L 235.2467498779297 270.1910400390625 L 235.95433044433594 270.1540832519531 L 236.68548583984375 270.0703430175781 L 237.41665649414062 270.0378112792969 L 238.1242218017578 270.05120849609375 L 238.8553924560547 270.0134582519531 L 239.56295776367188 269.9679870605469 L 240.29412841796875 269.8881530761719 L 241.02528381347656 269.88079833984375 L 241.68568420410156 269.9154052734375 L 242.41685485839844 269.9041442871094 L 243.12442016601562 269.8316955566406 L 243.8555908203125 269.80450439453125 L 244.5631561279297 269.6844482421875 L 245.29432678222656 269.68963623046875 L 246.02548217773438 269.6104736328125 L 246.73306274414062 269.6203918457031 L 247.46421813964844 269.6006164550781 L 248.1717987060547 269.5274963378906 L 248.9029541015625 269.45208740234375 L 249.6341094970703 269.3724060058594 L 250.31809997558594 269.293212890625 L 251.0492706298828 269.2134704589844 L 251.7568359375 269.1339416503906 L 252.48800659179688 269.0546569824219 L 253.19557189941406 268.9824523925781 L 253.92674255371094 268.90771484375 L 254.65789794921875 268.8096008300781 L 255.365478515625 268.7280578613281 L 256.0966339111328 268.6277770996094 L 256.80419921875 268.4973449707031 L 257.5353698730469 268.3964538574219 L 258.26654052734375 268.3369140625 L 258.92694091796875 268.2376708984375 L 259.6580810546875 268.1468200683594 L 260.36566162109375 268.08843994140625 L 261.0968322753906 268.0915832519531 L 261.8044128417969 268.1695861816406 L 262.5355529785156 268.08447265625 L 263.2667236328125 268.0013122558594 L 263.97430419921875 267.9295654296875 L 264.7054748535156 267.8750915527344 L 265.41302490234375 267.813720703125 L 266.1441955566406 267.76519775390625 L 266.8753662109375 267.69921875 L 267.5357666015625 267.63421630859375 L 268.2669372558594 267.58282470703125 L 268.9744873046875 267.5030822753906 L 269.7056579589844 267.4278869628906 L 270.4132385253906 267.3641052246094 L 271.1444091796875 267.3072814941406 L 271.87554931640625 267.21124267578125 L 272.5831298828125 267.1143493652344 L 273.3143005371094 267.0242919921875 L 274.0218811035156 266.93280029296875 L 274.7530212402344 266.8166809082031 L 275.48419189453125 266.6904296875 L 276.14459228515625 266.5835876464844 L 276.8757629394531 266.4584655761719 L 277.5833435058594 266.32489013671875 L 278.3144836425781 266.1758728027344 L 279.0220642089844 266.0397033691406 L 279.75323486328125 265.8294982910156 L 280.484375 265.7074890136719 L 281.19195556640625 265.5311584472656 L 281.9231262207031 265.3358154296875 L 282.6307067871094 265.15936279296875 L 283.3618469238281 265.02789306640625 L 284.093017578125 264.81982421875 L 284.7770080566406 264.6690979003906 L 285.5081787109375 264.50347900390625 L 286.21575927734375 264.3102722167969 L 286.9468994140625 264.1323547363281 L 287.65447998046875 264.0886535644531 L 288.3856506347656 263.9471435546875 L 289.1167907714844 263.7781677246094 L 289.8243713378906 263.56219482421875 L 290.5555419921875 263.3685607910156 L 291.26312255859375 263.2264404296875 L 291.9942626953125 263.15557861328125 L 292.7254333496094 263.01373291015625 L 293.3858337402344 262.93701171875 L 294.11700439453125 262.9664306640625 L 294.8245849609375 262.7983703613281 L 295.55572509765625 262.8595886230469 L 296.2633056640625 262.8247985839844 L 296.9944763183594 262.7731628417969 L 297.72564697265625 262.92730712890625 L 298.4331970214844 263.2090759277344 L 299.16436767578125 263.390625 L 299.8719482421875 263.5176696777344 L 300.6031188964844 263.6308288574219 L 301.3342590332031 263.737060546875 L 301.9946594238281 263.8338623046875 L 302.725830078125 263.91748046875 L 303.43341064453125 263.9820861816406 L 304.1645812988281 264.0331726074219 L 304.87213134765625 264.1004333496094 L 305.6033020019531 264.1510925292969 L 306.33447265625 264.1895751953125 L 307.04205322265625 264.2206726074219 L 307.773193359375 264.2556457519531 L 308.48077392578125 264.3305358886719 L 309.2119445800781 264.3576354980469 L 309.9430847167969 264.4068908691406 L 310.603515625 264.4876403808594 L 311.33465576171875 264.5382385253906 L 312.042236328125 264.5790100097656 L 312.7734069824219 264.6335754394531 L 313.4809875488281 264.6994934082031 L 314.2121276855469 264.7822570800781 L 314.94329833984375 264.8687438964844 L 315.65087890625 264.9374694824219 L 316.38201904296875 265.0132751464844 L 317.089599609375 265.08148193359375 L 317.8207702636719 265.1399841308594 L 318.55194091796875 265.2179870605469 L 319.2359313964844 265.273193359375 L 319.9670715332031 265.34771728515625 L 320.6746520996094 265.3981018066406 L 321.40582275390625 265.4385681152344 L 322.1134033203125 265.5500183105469 L 322.84454345703125 265.6456604003906 L 323.5757141113281 265.6894226074219 L 324.2832946777344 265.72589111328125 L 325.0144348144531 265.7574462890625 L 325.7220153808594 265.7759094238281 L 326.45318603515625 265.8690490722656 L 327.1843566894531 265.88482666015625 L 327.8447570800781 265.9455261230469 L 328.5758972167969 265.9219055175781 L 329.2834777832031 265.99200439453125 L 330.0146484375 266.2594909667969 L 330.72222900390625 266.272705078125 L 331.453369140625 266.26324462890625 L 332.1845397949219 266.2469177246094 L 332.8921203613281 266.2156677246094 L 333.623291015625 266.18060302734375 L 334.3308410644531 266.14300537109375 L 335.06201171875 266.07122802734375 L 335.7931823730469 266.0053405761719 L 336.4535827636719 265.93572998046875 L 337.18475341796875 265.8898010253906 L 337.8923034667969 265.84368896484375 L 338.62347412109375 265.3942565917969 L 339.3310546875 264.93450927734375 L 340.0622253417969 264.4539489746094 L 340.7933654785156 263.97259521484375 L 341.5009460449219 263.4315490722656 L 342.23211669921875 262.9398193359375 L 342.939697265625 262.4761657714844 L 343.67083740234375 261.8270263671875 L 344.4020080566406 261.2148742675781 L 345.0624084472656 260.62664794921875 L 345.7935791015625 260.0186462402344 L 346.50115966796875 259.4178466796875 L 347.2322998046875 258.8345031738281 L 347.93988037109375 258.206787109375 L 348.6710510253906 257.59747314453125 L 349.4021911621094 256.8754577636719 L 350.1097717285156 256.2404022216797 L 350.8409423828125 255.55563354492188 L 351.54852294921875 254.73635864257812 L 352.2796630859375 253.9713897705078 L 353.0108337402344 253.22674560546875 L 353.69482421875 252.60821533203125 L 354.4259948730469 251.9140625 L 355.1335754394531 251.21055603027344 L 355.8647155761719 250.5249786376953 L 356.5722961425781 249.82818603515625 L 357.303466796875 248.99307250976562 L 358.03460693359375 248.2584991455078 L 358.7421875 247.3309326171875 L 359.4733581542969 246.28819274902344 L 360.1809387207031 245.74984741210938 L 360.9120788574219 245.24986267089844 L 361.64324951171875 244.25523376464844 L 362.30364990234375 243.4945526123047 L 363.0348205566406 242.29115295410156 L 363.7424011230469 241.6832733154297 L 364.4735412597656 240.93194580078125 L 365.1811218261719 239.9315185546875 L 365.91229248046875 239.9290771484375 L 366.6434631347656 239.28872680664062 L 367.35101318359375 239.37567138671875 L 368.0821838378906 238.14376831054688 L 368.7897644042969 236.7890167236328 L 369.52093505859375 236.5818634033203 L 370.2520751953125 235.56964111328125 L 370.9124755859375 234.5031280517578 L 371.6436462402344 233.41847229003906 L 372.3512268066406 232.31021118164062 L 373.0823974609375 231.14614868164062 L 373.7899475097656 230.01611328125 L 374.5211181640625 228.9127960205078 L 375.2522888183594 227.9378204345703 L 375.9598693847656 226.8354949951172 L 376.6910095214844 225.6200714111328 L 377.3985900878906 224.470947265625 L 378.1297607421875 223.43218994140625 L 378.86090087890625 222.0548553466797 L 379.52130126953125 220.79689025878906 L 380.2524719238281 219.6245880126953 L 380.9600524902344 218.4526824951172 L 381.69122314453125 217.36508178710938 L 382.3987731933594 216.22970581054688 L 383.12994384765625 214.97779846191406 L 383.8611145019531 213.86883544921875 L 384.5686950683594 212.6443328857422 L 385.2998352050781 211.78465270996094 L 386.0074157714844 210.76242065429688 L 386.73858642578125 209.5551300048828 L 387.4697570800781 208.64686584472656 L 388.1537170410156 207.8931884765625 L 388.8848876953125 206.96006774902344 L 389.59246826171875 206.2905731201172 L 390.3236389160156 205.61436462402344 L 391.0312194824219 204.9774627685547 L 391.7623596191406 205.72633361816406 L 392.4935302734375 206.52745056152344 L 393.20111083984375 207.1915740966797 L 393.9322509765625 208.06369018554688 L 394.63983154296875 208.57566833496094 L 395.3710021972656 209.22926330566406 L 396.1021728515625 210.2830810546875 L 396.7625732421875 211.10777282714844 L 397.49371337890625 211.76910400390625 L 398.2012939453125 211.75926208496094 L 398.9324645996094 211.53700256347656 L 399.6400451660156 211.87831115722656 L 400.3711853027344 212.29812622070312 L 401.10235595703125 211.75143432617188 L 401.8099365234375 212.12242126464844 L 402.5411071777344 212.99456787109375 L 403.2486572265625 214.3085479736328 L 403.9798278808594 214.48252868652344 L 404.71099853515625 214.28782653808594 L 405.37139892578125 214.8760528564453 L 406.1025390625 214.94625854492188 L 406.81011962890625 214.99290466308594 L 407.5412902832031 215.78817749023438 L 408.2488708496094 215.86651611328125 L 408.9800109863281 216.12770080566406 L 409.711181640625 215.8170166015625 L 410.41876220703125 216.0872802734375 L 411.1499328613281 217.20169067382812 L 411.85748291015625 217.7792205810547 L 412.5886535644531 217.51937866210938 L 413.31982421875 217.45347595214844 L 413.980224609375 217.2213134765625 L 414.7113952636719 219.46998596191406 L 415.4189453125 220.24462890625 L 416.1501159667969 219.80075073242188 L 416.8576965332031 219.0238494873047 L 417.5888671875 218.5773468017578 L 418.32000732421875 218.36862182617188 L 419.027587890625 218.27008056640625 L 419.7587585449219 218.07456970214844 L 420.4663391113281 217.6269989013672 L 421.1974792480469 218.21844482421875 L 421.92864990234375 218.56753540039062 L 422.6126403808594 219.50311279296875 L 423.34381103515625 219.05166625976562 L 424.0513610839844 219.134765625 L 424.78253173828125 219.8069305419922 L 425.4901123046875 219.978515625 L 426.2212829589844 220.72914123535156 L 426.9524230957031 220.89356994628906 L 427.6600036621094 223.13577270507812 L 428.39117431640625 223.08409118652344 L 429.0987548828125 222.72862243652344 L 429.82989501953125 222.79168701171875 L 430.5610656738281 224.28363037109375 L 431.2214660644531 225.0930938720703 L 431.95263671875 226.14117431640625 L 432.66021728515625 225.14854431152344 L 433.391357421875 225.37449645996094 L 434.09893798828125 227.17843627929688 L 434.8301086425781 227.4990234375 L 435.5612487792969 227.7425537109375 L 436.2688293457031 227.97105407714844 L 437 228.22560119628906 L 437.70758056640625 228.5238494873047 L 438.4387512207031 228.85182189941406 L 439.1698913574219 229.120849609375 L 439.8302917480469 229.41758728027344 L 440.56146240234375 229.69752502441406 L 441.26904296875 229.9783172607422 L 442.00018310546875 230.2373809814453 L 442.707763671875 230.54632568359375 L 443.4389343261719 230.81448364257812 L 444.17010498046875 231.18190002441406 L 444.8776550292969 231.3739776611328 L 445.60882568359375 231.61856079101562 L 446.31640625 231.93344116210938 L 447.0475769042969 232.21923828125 L 447.7787170410156 232.4347686767578 L 448.4391174316406 232.97958374023438 L 449.1702880859375 233.2509002685547 L 449.87786865234375 233.5633087158203 L 450.6090393066406 233.90602111816406 L 451.31658935546875 234.34437561035156 L 452.0477600097656 234.72250366210938 L 452.7789306640625 235.0131072998047 L 453.48651123046875 235.2706756591797 L 454.2176513671875 235.53114318847656 L 454.92523193359375 235.78456115722656 L 455.6564025878906 236.0647430419922 L 456.3875427246094 236.275146484375 L 457.071533203125 236.46145629882812 L 457.8027038574219 236.74278259277344 L 458.5102844238281 236.9932861328125 L 459.241455078125 237.2563018798828 L 459.9490051269531 237.55560302734375 L 460.68017578125 237.8406982421875 L 461.4113464355469 238.22618103027344 L 462.1189270019531 238.60475158691406 L 462.8500671386719 238.8738250732422 L 463.5576477050781 238.96896362304688 L 464.288818359375 239.11183166503906 L 465.0199890136719 239.4036102294922 L 465.6803894042969 239.54232788085938 L 466.4115295410156 239.6599578857422 L 467.1191101074219 239.90992736816406 L 467.85028076171875 240.2523193359375 L 468.557861328125 240.4826202392578 L 469.28900146484375 240.888427734375 L 470.0201721191406 241.1294403076172 L 470.7277526855469 241.58070373535156 L 471.4588928222656 241.94815063476562 L 472.1664733886719 242.1682891845703 L 472.89764404296875 242.50633239746094 L 473.6288146972656 242.60751342773438 L 474.2892150878906 242.74160766601562 L 475.0203552246094 243.0054473876953 L 475.7279357910156 243.5353546142578 L 476.4591064453125 244.01580810546875 L 477.16668701171875 244.2601318359375 L 477.8978271484375 244.5517120361328 L 478.6289978027344 244.69700622558594 L 479.3365783691406 245.28717041015625 L 480.0677490234375 246.3761749267578 L 480.7752990722656 247.60093688964844 L 481.5064697265625 248.10755920410156 L 482.2376403808594 248.4730224609375 L 482.8980407714844 248.80563354492188 L 483.62921142578125 249.12245178222656 L 484.3367614746094 249.4440460205078 L 485.06793212890625 249.76268005371094 L 485.7755126953125 250.01063537597656 L 486.5066833496094 250.2998809814453 L 487.2378234863281 250.62619018554688 L 487.9454040527344 250.90138244628906 L 488.67657470703125 251.1515350341797 L 489.3841552734375 251.50741577148438 L 490.11529541015625 251.7862548828125 L 490.8464660644531 252.0277099609375 L 491.53045654296875 252.27220153808594 L 492.2616271972656 252.57138061523438 L 492.96917724609375 252.80032348632812 L 493.7003479003906 253.0072784423828 L 494.4079284667969 253.2100067138672 L 495.13909912109375 253.41493225097656 L 495.8702392578125 253.5796661376953 L 496.57781982421875 253.84996032714844 L 497.3089904785156 254.11512756347656 L 498.0165710449219 254.44163513183594 L 498.7477111816406 254.6338653564453 L 499.4788818359375 254.9600067138672 L 500.1392822265625 255.29043579101562 L 500.8704528808594 255.53041076660156 L 501.5780334472656 255.76173400878906 L 502.3091735839844 255.9712677001953 L 503.0167541503906 256.1746826171875 L 503.7479248046875 256.3967742919922 L 504.47906494140625 256.674560546875 L 505.1866455078125 256.916015625 L 505.9178161621094 257.1325988769531 L 506.6253967285156 257.3117980957031 L 507.3565368652344 257.4798278808594 L 508.08770751953125 257.64556884765625 L 508.74810791015625 257.7616882324219 L 509.4792785644531 257.91705322265625 L 510.1868591308594 258.0564880371094 L 510.9179992675781 258.2115478515625 L 511.6255798339844 258.3660888671875 L 512.3567504882812 258.5332336425781 L 513.087890625 258.6888427734375 L 513.7954711914062 258.9355163574219 L 514.5266723632812 259.1902160644531 L 515.2341918945312 259.4550476074219 L 515.9653930664062 259.6963806152344 L 516.696533203125 259.83563232421875 L 517.35693359375 260.0838623046875 L 518.088134765625 260.3620300292969 L 518.795654296875 260.6334533691406 L 519.52685546875 260.8769836425781 L 520.2344360351562 261.1770935058594 L 520.965576171875 261.38421630859375 L 521.6967163085938 261.62359619140625 L 522.404296875 261.8927917480469 L 523.135498046875 262.1910095214844 L 523.8430786132812 262.394287109375 L 524.57421875 262.5936584472656 L 525.3053588867188 262.8848876953125 L 525.9893798828125 263.1539001464844 L 526.7205200195312 263.4024963378906 L 527.4281005859375 263.7234802246094 L 528.1592407226562 263.9632263183594 L 528.8668212890625 264.1833190917969 L 529.5980224609375 264.4423828125 L 530.3291625976562 264.6597595214844 L 531.0367431640625 264.8953552246094 L 531.7678833007812 265.1214599609375 L 532.4754638671875 265.4141845703125 L 533.2066040039062 265.677734375 L 533.9378051757812 265.90423583984375 L 534.5982055664062 266.2134704589844 L 535.329345703125 266.5720520019531 L 536.0369262695312 267.0166015625 L 536.76806640625 267.3157958984375 L 537.4756469726562 267.6432189941406 L 538.2068481445312 267.9444274902344 L 538.93798828125 268.2206115722656 L 539.6455688476562 268.4987487792969 L 540.376708984375 268.76959228515625 L 541.0842895507812 269.0362854003906 L 541.8154296875 269.2955322265625 L 542.546630859375 269.5187072753906 L 543.20703125 269.72076416015625 L 543.9381713867188 269.9300231933594 L 544.645751953125 270.120361328125 L 545.3768920898438 270.2958679199219 L 546.08447265625 270.46649169921875 L 546.815673828125 270.66400146484375 L 547.5468139648438 270.8757019042969 L 548.25439453125 271.0335693359375 L 548.9855346679688 271.21405029296875 L 549.693115234375 271.37548828125 L 550.42431640625 271.5254211425781 L 551.1554565429688 271.6993103027344 L 551.8158569335938 271.7750244140625 L 552.5469970703125 271.9510498046875 L 553.2545776367188 272.1164245605469 L 553.9857788085938 272.2456359863281 L 554.6932983398438 272.3994140625 L 555.4244995117188 272.63671875 L 556.1556396484375 272.7338562011719 L 556.8632202148438 272.8433532714844 L 557.5943603515625 272.9143371582031 L 558.3019409179688 272.979248046875 L 559.0331420898438 273.10888671875 L 559.7642822265625 273.1865234375 L 560.4482421875 273.2481384277344 L 561.179443359375 273.4088134765625 L 561.8870239257812 273.63397216796875 L 562.6181640625 273.5924072265625 L 563.3257446289062 273.6252746582031 L 564.056884765625 273.64447021484375 L 564.7880859375 273.7701416015625 L 565.4956665039062 273.8839111328125 L 566.226806640625 273.9954833984375 L 566.9343872070312 274.156982421875 L 567.66552734375 274.22308349609375 L 568.3966674804688 274.3398132324219 L 569.05712890625 274.32696533203125 L 569.7882690429688 274.3395080566406 L 570.495849609375 274.4098815917969 L 571.2269897460938 274.5556945800781 L 571.9345703125 274.7080383300781 L 572.6657104492188 274.76214599609375 L 573.3969116210938 275.077392578125 L 574.1044921875 275.3696594238281 L 574.8356323242188 275.5250244140625 L 575.543212890625 275.667724609375 L 576.2743530273438 275.8077392578125 L 577.0055541992188 275.93701171875 L 577.6659545898438 276.0659484863281 L 578.3970947265625 276.1824951171875 L 579.1046752929688 276.2825622558594 L 579.8358154296875 276.3816833496094 L 580.5433959960938 276.4804992675781 L 581.2745361328125 276.5505676269531 L 582.0057373046875 276.64581298828125 L 582.7133178710938 276.7222900390625 L 583.4444580078125 276.7963562011719 L 584.1520385742188 276.8537292480469 L 584.8831787109375 276.89862060546875 L 585.6143798828125 276.9404602050781 L 586.2747802734375 276.977294921875 L 587.0059204101562 277.00738525390625 L 587.7135009765625 277.0328674316406 L 588.4446411132812 277.0687255859375 L 589.1522216796875 277.076904296875 L 589.8834228515625 277.07574462890625 L 590.6145629882812 277.0752868652344 L 591.3221435546875 277.072998046875 L 592.0532836914062 277.1004638671875 L 592.7608642578125 277.0859375 L 593.4920043945312 277.0840759277344 L 594.2232055664062 277.0667724609375 L 594.9071655273438 277.06475830078125 L 595.6383666992188 277.10528564453125 L 596.3458862304688 277.07037353515625 L 597.0770874023438 276.9892578125 L 597.78466796875 276.98577880859375 L 598.5158081054688 276.9761657714844 L 599.2469482421875 276.9634094238281 L 599.9545288085938 277.0736389160156 L 600.6857299804688 277.0098876953125 L 601.393310546875 276.9249572753906 L 602.1244506835938 276.88055419921875 L 602.8555908203125 276.8633728027344 L 603.5159912109375 276.9001159667969 L 604.2471923828125 276.8146667480469 L 604.9547729492188 276.8493347167969 L 605.6859130859375 276.868408203125 L 606.3934936523438 276.9454040527344 L 607.1246337890625 277.1376037597656 L 607.8557739257812 277.0910339355469 L 608.5633544921875 277.18939208984375 L 609.2945556640625 277.225341796875 L 610.0021362304688 277.0758972167969 L 610.7332763671875 277.1092834472656 L 611.4644165039062 277.17889404296875 L 612.1248168945312 277.42266845703125 L 612.8560180664062 277.47772216796875 L 613.5635986328125 277.5283203125 L 614.2947387695312 277.5683288574219 L 615.0023193359375 277.5993957519531 L 615.7334594726562 277.6340637207031 L 616.4646606445312 277.6628112792969 L 617.1721801757812 277.6739501953125 L 617.9033813476562 277.68011474609375 L 618.6109619140625 277.6833190917969 L 619.3421020507812 277.672607421875 L 620.0732421875 277.64300537109375 L 620.733642578125 277.637451171875 L 621.46484375 277.6446533203125 L 622.1724243164062 277.6310729980469 L 622.903564453125 277.6429138183594 L 623.6111450195312 277.6109619140625 L 624.34228515625 277.61749267578125 L 625.073486328125 277.61822509765625 L 625.7810668945312 277.5830078125 L 626.51220703125 277.5760498046875 L 627.2197875976562 277.5158386230469 L 627.950927734375 277.471923828125 L 628.6820678710938 277.4793701171875 L 629.3660888671875 277.4563293457031 L 630.0972290039062 277.4607849121094 L 630.8048095703125 277.49395751953125 L 631.5360107421875 277.47491455078125 L 632.2435302734375 277.4356994628906 L 632.9747314453125 277.4062805175781 L 633.7058715820312 277.3974914550781 L 634.4134521484375 277.39508056640625 L 635.1445922851562 277.4479675292969 L 635.8521728515625 277.38507080078125 L 636.5833740234375 277.34893798828125 L 637.3145141601562 277.3148193359375 L 637.9749145507812 277.300537109375 L 638.7060546875 277.25189208984375 L 639.4136352539062 277.21148681640625 L 640.1448364257812 277.20135498046875 L 640.8523559570312 277.23638916015625 L 641.5835571289062 277.19696044921875 L 642.314697265625 277.11614990234375 L 643.0222778320312 277.03070068359375 L 643.75341796875 276.9190979003906 L 644.4609985351562 276.83575439453125 L 645.1921997070312 276.7470397949219 L 645.92333984375 276.69720458984375 L 646.583740234375 276.6229553222656 L 647.3148803710938 276.6473693847656 L 648.0224609375 276.5137634277344 L 648.753662109375 276.41314697265625 L 649.4612426757812 276.4105224609375 L 650.1923828125 276.4548034667969 L 650.9235229492188 276.62158203125 L 651.631103515625 276.5955810546875 L 652.3623046875 276.57891845703125 L 653.06982421875 276.7649841308594 L 653.801025390625 276.771240234375 L 654.5321655273438 277.013916015625 L 655.1925659179688 277.0979919433594 L 655.9237060546875 277.22161865234375 L 656.6312866210938 277.1078186035156 L 657.3624877929688 277.0462951660156 L 658.070068359375 277.2193603515625 L 658.8012084960938 277.4778747558594 L 659.5323486328125 277.42083740234375 L 660.2399291992188 277.6368103027344 L 660.9711303710938 278.6903991699219 L 661.6786499023438 279.1981506347656 L 662.4098510742188 279.24249267578125 L 663.1409912109375 279.32666015625 L 663.8250122070312 279.7712707519531 L 664.55615234375 280.1757507324219 L 665.2637329101562 280.17376708984375 L 665.994873046875 280.1653137207031 L 666.7024536132812 280.1589050292969 L 667.43359375 280.1490478515625 L 668.164794921875 280.1202392578125 L 668.8723754882812 280.10040283203125 L 669.603515625 280.08135986328125 L 670.3110961914062 280.06146240234375 L 671.042236328125 280.0421447753906 L 671.7734375 280.0233154296875 L 672.433837890625 280.0325622558594 L 673.1649780273438 279.9771423339844 L 673.87255859375 279.9321594238281 L 674.6036987304688 279.9700012207031 L 675.311279296875 279.9974060058594 L 676.04248046875 279.99114990234375 L 676.7736206054688 279.9707336425781 L 677.481201171875 279.915771484375 L 678.2123413085938 279.8425598144531 L 678.919921875 279.7924499511719 L 679.6510620117188 279.7267150878906 L 680.3822631835938 279.6610412597656 L 681.0426635742188 279.5993347167969 L 681.7738037109375 279.6007385253906 L 682.4813842773438 279.55023193359375 L 683.2125244140625 279.5295104980469 L 683.9201049804688 279.5794982910156 L 684.6513061523438 279.51953125 L 685.3824462890625 279.7184143066406 L 686.0900268554688 279.7410583496094 L 686.8211669921875 279.6889953613281 L 687.5287475585938 279.6747131347656 L 688.2598876953125 279.66357421875 L 688.9910888671875 279.58026123046875 L 689.6514892578125 279.50506591796875 L 690.3826293945312 279.452392578125 L 691.0902099609375 279.4578552246094 L 691.8213500976562 279.5305480957031 L 692.5289306640625 279.5623474121094 L 693.2601318359375 279.4952087402344 L 693.9912719726562 279.4149475097656 L 694.6988525390625 279.3413391113281 L 695.4299926757812 279.34478759765625 L 696.1375732421875 279.4210205078125 L 696.8687744140625 279.3638610839844 L 697.5999145507812 279.2542724609375 L 698.2838745117188 279.2005310058594 L 699.0150756835938 279.1395568847656 L 699.72265625 279.07379150390625 L 700.4537963867188 278.9254455566406 L 701.161376953125 278.9194030761719 L 701.8925170898438 278.7981872558594 L 702.6237182617188 278.7586364746094 L 703.3312377929688 278.688720703125 L 704.0624389648438 278.5896301269531 L 704.77001953125 278.44171142578125 L 705.5011596679688 278.35455322265625 L 706.2322998046875 278.287841796875 L 706.8927001953125 278.25189208984375 L 707.6239013671875 278.1384582519531 L 708.3314819335938 278.0924377441406 L 709.0626220703125 278.0030212402344 L 709.7702026367188 277.87371826171875 L 710.5013427734375 277.7994079589844 L 711.2325439453125 277.78155517578125 L 711.9401245117188 277.6976013183594 L 712.6712646484375 277.7467346191406 L 713.3788452148438 277.541015625 L 714.1099853515625 277.49560546875 L 714.8411254882812 277.5058898925781 L 715.5015869140625 277.3995361328125 L 716.2327270507812 277.3759765625 L 716.9403076171875 277.3316345214844 L 717.6714477539062 277.3083190917969 L 718.3790283203125 277.3324890136719 L 719.1101684570312 277.3177185058594 L 719.8413696289062 277.3794250488281 L 720.5489501953125 277.5126647949219 L 721.2800903320312 277.3162841796875 L 721.9876708984375 277.1703186035156 L 722.7188110351562 277.15777587890625 L 723.4500122070312 277.3567199707031 L 724.1104125976562 277.3133850097656 L 724.841552734375 277.23480224609375 L 725.5491333007812 277.1486511230469 L 726.2802734375 277.0657653808594 L 726.9878540039062 276.98333740234375 L 727.718994140625 276.89697265625 L 728.4501953125 276.8167724609375 L 729.1577758789062 276.736328125 L 729.888916015625 276.65972900390625 L 730.5964965820312 276.5854797363281 L 731.32763671875 276.4861755371094 L 732.058837890625 276.3889465332031 L 732.7427978515625 276.28143310546875 L 733.4739379882812 276.1725769042969 L 734.1815185546875 276.0715026855469 L 734.9127197265625 275.9599914550781 L 735.6203002929688 275.8460388183594 L 736.3514404296875 275.73712158203125 L 737.0825805664062 275.62646484375 L 737.7901611328125 275.5063781738281 L 738.5213623046875 275.37554931640625 L 739.2288818359375 275.244140625 L 739.9600830078125 275.09661865234375 L 740.6912231445312 274.9291076660156 L 741.3516235351562 274.83624267578125 L 742.0828247070312 274.71636962890625 L 742.7903442382812 274.61688232421875 L 743.5215454101562 274.4820861816406 L 744.2291259765625 274.3478698730469 L 744.9602661132812 274.2162170410156 L 745.69140625 274.074951171875 L 746.3989868164062 273.9376525878906 L 747.1301879882812 273.861328125 L 747.8377685546875 273.77740478515625 L 748.5689086914062 273.7646179199219 L 749.300048828125 273.6603698730469 L 749.96044921875 273.55816650390625 L 750.691650390625 273.44488525390625 L 751.3992309570312 273.3400573730469 L 752.13037109375 273.2486267089844 L 752.8379516601562 273.1496887207031 L 753.569091796875 273.0779113769531 L 754.3002319335938 273.03753662109375 L 755.0078125 273.0137939453125 L 755.739013671875 272.9933776855469 L 756.4465942382812 272.9425354003906 L 757.177734375 272.9233093261719 L 757.9088745117188 273.02301025390625 L 758.5692749023438 273.10552978515625 L 759.3004760742188 273.3056640625 L 760.008056640625 273.37176513671875 L 760.7391967773438 273.4172058105469 L 761.44677734375 273.45294189453125 L 762.1779174804688 273.49029541015625 L 762.9091186523438 273.5464172363281" stroke-opacity="1" stroke-linejoin="bevel" stroke-miterlimit="10" stroke-width="2" stroke-dasharray="" clip-path="url(#DmHUmeMtfbdb)"/><path fill="none" stroke="rgb(47,34,53)" paint-order="fill" d="M 111.5 309.5 L 111.5 305.5 M 283.5 309.5 L 283.5 305.5 M 455.5 309.5 L 455.5 305.5 M 627.5 309.5 L 627.5 305.5" stroke-opacity="1" stroke-linejoin="bevel" stroke-miterlimit="10" stroke-dasharray=""/><path fill="none" stroke="rgb(0,0,0)" paint-order="fill" d="" stroke-opacity="1" stroke-linejoin="bevel" stroke-miterlimit="10" stroke-dasharray=""/><text fill="rgb(47,34,53)" stroke="none" font-family="helvetica" font-size="16px" font-style="normal" font-weight="normal" text-decoration="normal" x="0" y="0" text-anchor="middle" dominant-baseline="hanging" transform="matrix(1, 0, 0, 1, 111.5, 314.5)" fill-opacity="1">1900</text><text fill="rgb(47,34,53)" stroke="none" font-family="helvetica" font-size="16px" font-style="normal" font-weight="normal" text-decoration="normal" x="0" y="0" text-anchor="middle" dominant-baseline="hanging" transform="matrix(1, 0, 0, 1, 283.5, 314.5)" fill-opacity="1">1920</text><text fill="rgb(47,34,53)" stroke="none" font-family="helvetica" font-size="16px" font-style="normal" font-weight="normal" text-decoration="normal" x="0" y="0" text-anchor="middle" dominant-baseline="hanging" transform="matrix(1, 0, 0, 1, 455.5, 314.5)" fill-opacity="1">1940</text><text fill="rgb(47,34,53)" stroke="none" font-family="helvetica" font-size="16px" font-style="normal" font-weight="normal" text-decoration="normal" x="0" y="0" text-anchor="middle" dominant-baseline="hanging" transform="matrix(1, 0, 0, 1, 627.5, 314.5)" fill-opacity="1">1960</text><path fill="none" stroke="rgb(47,34,53)" paint-order="fill" d="M 74.5 275.5 L 78.5 275.5 M 74.5 232.5 L 78.5 232.5 M 74.5 190.5 L 78.5 190.5 M 74.5 147.5 L 78.5 147.5 M 74.5 105.5 L 78.5 105.5 M 74.5 62.5 L 78.5 62.5" stroke-opacity="1" stroke-linejoin="bevel" stroke-miterlimit="10" stroke-dasharray=""/><text fill="rgb(47,34,53)" stroke="none" font-family="helvetica" font-size="16px" font-style="normal" font-weight="normal" text-decoration="normal" x="0" y="0" text-anchor="end" dominant-baseline="central" transform="matrix(1, 0, 0, 1, 69.5, 275.5)" fill-opacity="1">0%</text><text fill="rgb(47,34,53)" stroke="none" font-family="helvetica" font-size="16px" font-style="normal" font-weight="normal" text-decoration="normal" x="0" y="0" text-anchor="end" dominant-baseline="central" transform="matrix(1, 0, 0, 1, 69.5, 232.5)" fill-opacity="1">50%</text><text fill="rgb(47,34,53)" stroke="none" font-family="helvetica" font-size="16px" font-style="normal" font-weight="normal" text-decoration="normal" x="0" y="0" text-anchor="end" dominant-baseline="central" transform="matrix(1, 0, 0, 1, 69.5, 190.5)" fill-opacity="1">100%</text><text fill="rgb(47,34,53)" stroke="none" font-family="helvetica" font-size="16px" font-style="normal" font-weight="normal" text-decoration="normal" x="0" y="0" text-anchor="end" dominant-baseline="central" transform="matrix(1, 0, 0, 1, 69.5, 147.5)" fill-opacity="1">150%</text><text fill="rgb(47,34,53)" stroke="none" font-family="helvetica" font-size="16px" font-style="normal" font-weight="normal" text-decoration="normal" x="0" y="0" text-anchor="end" dominant-baseline="central" transform="matrix(1, 0, 0, 1, 69.5, 105.5)" fill-opacity="1">200%</text><text fill="rgb(47,34,53)" stroke="none" font-family="helvetica" font-size="16px" font-style="normal" font-weight="normal" text-decoration="normal" x="0" y="0" text-anchor="end" dominant-baseline="central" transform="matrix(1, 0, 0, 1, 69.5, 62.5)" fill-opacity="1">250%</text><text fill="rgb(47,34,53)" stroke="none" font-family="helvetica" font-size="16px" font-style="italic" font-weight="normal" text-decoration="normal" x="0" y="0" text-anchor="middle" dominant-baseline="alphabetic" transform="matrix(6.123233995736766e-17, -1, 1, 6.123233995736766e-17, 19.5, 171.5)" fill-opacity="1">Gain</text><path fill="rgb(0,0,0)" stroke="none" paint-order="stroke" d="M 88.5 46.5 L 240.5 46.5 L 240.5 89.5 L 88.5 89.5 L 88.5 46.5" fill-opacity="0" clip-path="url(#gdnulDUuBmMx)"/><text fill="rgb(47,34,53)" stroke="none" font-family="helvetica" font-size="16px" font-style="normal" font-weight="normal" text-decoration="normal" x="113" y="56" text-anchor="start" dominant-baseline="central" transform="matrix(1, 0, 0, 1, 0.5, 0.5)" fill-opacity="1">With dividends</text><path fill="none" stroke="rgb(134,167,118)" paint-order="fill" d="M 88.5 56.5 L 108.5 56.5" stroke-opacity="1" stroke-linejoin="bevel" stroke-miterlimit="10" stroke-width="2" stroke-dasharray="" clip-path="url(#gdnulDUuBmMx)"/><text fill="rgb(47,34,53)" stroke="none" font-family="helvetica" font-size="16px" font-style="normal" font-weight="normal" text-decoration="normal" x="113" y="79" text-anchor="start" dominant-baseline="central" transform="matrix(1, 0, 0, 1, 0.5, 0.5)" fill-opacity="1">Without dividends</text><path fill="none" stroke="rgb(96,131,169)" paint-order="fill" d="M 88.5 79.5 L 108.5 79.5" stroke-opacity="1" stroke-linejoin="bevel" stroke-miterlimit="10" stroke-width="2" stroke-dasharray="" clip-path="url(#gdnulDUuBmMx)"/><path fill="none" stroke="none"/><text fill="rgb(68,68,68)" stroke="none" font-family="helvetica" font-size="18px" font-style="normal" font-weight="bold" text-decoration="normal" x="0" y="0" text-anchor="middle" dominant-baseline="text-after-edge" transform="matrix(1, 0, 0, 1, 377, 31.5)" fill-opacity="1">With and without dividends</text></svg>