<?xml version="1.0" encoding="utf-8" standalone="no"?>
<!DOCTYPE svg PUBLIC "-//W3C//DTD SVG 1.1//EN"
  "http://www.w3.org/Graphics/SVG/1.1/DTD/svg11.dtd">
<svg xmlns:xlink="http://www.w3.org/1999/xlink" width="482.542187pt" height="170.222125pt" viewBox="0 0 482.542187 170.222125" xmlns="http://www.w3.org/2000/svg" version="1.1">
 <metadata>
  <rdf:RDF xmlns:dc="http://purl.org/dc/elements/1.1/" xmlns:cc="http://creativecommons.org/ns#" xmlns:rdf="http://www.w3.org/1999/02/22-rdf-syntax-ns#">
   <cc:Work>
    <dc:type rdf:resource="http://purl.org/dc/dcmitype/StillImage"/>
    <dc:date>2024-01-06T11:55:32.251921</dc:date>
    <dc:format>image/svg+xml</dc:format>
    <dc:creator>
     <cc:Agent>
      <dc:title>Matplotlib v3.8.2, https://matplotlib.org/</dc:title>
     </cc:Agent>
    </dc:creator>
   </cc:Work>
  </rdf:RDF>
 </metadata>
 <defs>
  <style type="text/css">*{stroke-linejoin: round; stroke-linecap: butt}</style>
 </defs>
 <g id="figure_1">
  <g id="axes_1">
   <g id="matplotlib.axis_1">
    <g id="xtick_1">
     <g id="line2d_1">
      <path d="M 49.233097 146.344 
L 49.233097 35.464 
" clip-path="url(#pf9076fbe67)" style="fill: none; stroke: #000000; stroke-opacity: 0.15; stroke-width: 0.8; stroke-linecap: square"/>
     </g>
     <g id="line2d_2">
      <defs>
       <path id="med3c77a39c" d="M 0 0 
L 0 3.5 
" style="stroke: #000000; stroke-width: 0.8"/>
      </defs>
      <g>
       <use xlink:href="#med3c77a39c" x="49.233097" y="146.344" style="stroke: #000000; stroke-width: 0.8"/>
      </g>
     </g>
     <g id="text_1">
      <!-- 0.0 -->
      <g transform="translate(41.281534 160.942438) scale(0.1 -0.1)">
       <defs>
        <path id="DejaVuSans-30" d="M 2034 4250 
Q 1547 4250 1301 3770 
Q 1056 3291 1056 2328 
Q 1056 1369 1301 889 
Q 1547 409 2034 409 
Q 2525 409 2770 889 
Q 3016 1369 3016 2328 
Q 3016 3291 2770 3770 
Q 2525 4250 2034 4250 
z
M 2034 4750 
Q 2819 4750 3233 4129 
Q 3647 3509 3647 2328 
Q 3647 1150 3233 529 
Q 2819 -91 2034 -91 
Q 1250 -91 836 529 
Q 422 1150 422 2328 
Q 422 3509 836 4129 
Q 1250 4750 2034 4750 
z
" transform="scale(0.015625)"/>
        <path id="DejaVuSans-2e" d="M 684 794 
L 1344 794 
L 1344 0 
L 684 0 
L 684 794 
z
" transform="scale(0.015625)"/>
       </defs>
       <use xlink:href="#DejaVuSans-30"/>
       <use xlink:href="#DejaVuSans-2e" x="63.623047"/>
       <use xlink:href="#DejaVuSans-30" x="95.410156"/>
      </g>
     </g>
    </g>
    <g id="xtick_2">
     <g id="line2d_3">
      <path d="M 116.846877 146.344 
L 116.846877 35.464 
" clip-path="url(#pf9076fbe67)" style="fill: none; stroke: #000000; stroke-opacity: 0.15; stroke-width: 0.8; stroke-linecap: square"/>
     </g>
     <g id="line2d_4">
      <g>
       <use xlink:href="#med3c77a39c" x="116.846877" y="146.344" style="stroke: #000000; stroke-width: 0.8"/>
      </g>
     </g>
     <g id="text_2">
      <!-- 0.2 -->
      <g transform="translate(108.895315 160.942438) scale(0.1 -0.1)">
       <defs>
        <path id="DejaVuSans-32" d="M 1228 531 
L 3431 531 
L 3431 0 
L 469 0 
L 469 531 
Q 828 903 1448 1529 
Q 2069 2156 2228 2338 
Q 2531 2678 2651 2914 
Q 2772 3150 2772 3378 
Q 2772 3750 2511 3984 
Q 2250 4219 1831 4219 
Q 1534 4219 1204 4116 
Q 875 4013 500 3803 
L 500 4441 
Q 881 4594 1212 4672 
Q 1544 4750 1819 4750 
Q 2544 4750 2975 4387 
Q 3406 4025 3406 3419 
Q 3406 3131 3298 2873 
Q 3191 2616 2906 2266 
Q 2828 2175 2409 1742 
Q 1991 1309 1228 531 
z
" transform="scale(0.015625)"/>
       </defs>
       <use xlink:href="#DejaVuSans-30"/>
       <use xlink:href="#DejaVuSans-2e" x="63.623047"/>
       <use xlink:href="#DejaVuSans-32" x="95.410156"/>
      </g>
     </g>
    </g>
    <g id="xtick_3">
     <g id="line2d_5">
      <path d="M 184.460658 146.344 
L 184.460658 35.464 
" clip-path="url(#pf9076fbe67)" style="fill: none; stroke: #000000; stroke-opacity: 0.15; stroke-width: 0.8; stroke-linecap: square"/>
     </g>
     <g id="line2d_6">
      <g>
       <use xlink:href="#med3c77a39c" x="184.460658" y="146.344" style="stroke: #000000; stroke-width: 0.8"/>
      </g>
     </g>
     <g id="text_3">
      <!-- 0.4 -->
      <g transform="translate(176.509095 160.942438) scale(0.1 -0.1)">
       <defs>
        <path id="DejaVuSans-34" d="M 2419 4116 
L 825 1625 
L 2419 1625 
L 2419 4116 
z
M 2253 4666 
L 3047 4666 
L 3047 1625 
L 3713 1625 
L 3713 1100 
L 3047 1100 
L 3047 0 
L 2419 0 
L 2419 1100 
L 313 1100 
L 313 1709 
L 2253 4666 
z
" transform="scale(0.015625)"/>
       </defs>
       <use xlink:href="#DejaVuSans-30"/>
       <use xlink:href="#DejaVuSans-2e" x="63.623047"/>
       <use xlink:href="#DejaVuSans-34" x="95.410156"/>
      </g>
     </g>
    </g>
    <g id="xtick_4">
     <g id="line2d_7">
      <path d="M 252.074438 146.344 
L 252.074438 35.464 
" clip-path="url(#pf9076fbe67)" style="fill: none; stroke: #000000; stroke-opacity: 0.15; stroke-width: 0.8; stroke-linecap: square"/>
     </g>
     <g id="line2d_8">
      <g>
       <use xlink:href="#med3c77a39c" x="252.074438" y="146.344" style="stroke: #000000; stroke-width: 0.8"/>
      </g>
     </g>
     <g id="text_4">
      <!-- 0.6 -->
      <g transform="translate(244.122876 160.942438) scale(0.1 -0.1)">
       <defs>
        <path id="DejaVuSans-36" d="M 2113 2584 
Q 1688 2584 1439 2293 
Q 1191 2003 1191 1497 
Q 1191 994 1439 701 
Q 1688 409 2113 409 
Q 2538 409 2786 701 
Q 3034 994 3034 1497 
Q 3034 2003 2786 2293 
Q 2538 2584 2113 2584 
z
M 3366 4563 
L 3366 3988 
Q 3128 4100 2886 4159 
Q 2644 4219 2406 4219 
Q 1781 4219 1451 3797 
Q 1122 3375 1075 2522 
Q 1259 2794 1537 2939 
Q 1816 3084 2150 3084 
Q 2853 3084 3261 2657 
Q 3669 2231 3669 1497 
Q 3669 778 3244 343 
Q 2819 -91 2113 -91 
Q 1303 -91 875 529 
Q 447 1150 447 2328 
Q 447 3434 972 4092 
Q 1497 4750 2381 4750 
Q 2619 4750 2861 4703 
Q 3103 4656 3366 4563 
z
" transform="scale(0.015625)"/>
       </defs>
       <use xlink:href="#DejaVuSans-30"/>
       <use xlink:href="#DejaVuSans-2e" x="63.623047"/>
       <use xlink:href="#DejaVuSans-36" x="95.410156"/>
      </g>
     </g>
    </g>
    <g id="xtick_5">
     <g id="line2d_9">
      <path d="M 319.688219 146.344 
L 319.688219 35.464 
" clip-path="url(#pf9076fbe67)" style="fill: none; stroke: #000000; stroke-opacity: 0.15; stroke-width: 0.8; stroke-linecap: square"/>
     </g>
     <g id="line2d_10">
      <g>
       <use xlink:href="#med3c77a39c" x="319.688219" y="146.344" style="stroke: #000000; stroke-width: 0.8"/>
      </g>
     </g>
     <g id="text_5">
      <!-- 0.8 -->
      <g transform="translate(311.736656 160.942438) scale(0.1 -0.1)">
       <defs>
        <path id="DejaVuSans-38" d="M 2034 2216 
Q 1584 2216 1326 1975 
Q 1069 1734 1069 1313 
Q 1069 891 1326 650 
Q 1584 409 2034 409 
Q 2484 409 2743 651 
Q 3003 894 3003 1313 
Q 3003 1734 2745 1975 
Q 2488 2216 2034 2216 
z
M 1403 2484 
Q 997 2584 770 2862 
Q 544 3141 544 3541 
Q 544 4100 942 4425 
Q 1341 4750 2034 4750 
Q 2731 4750 3128 4425 
Q 3525 4100 3525 3541 
Q 3525 3141 3298 2862 
Q 3072 2584 2669 2484 
Q 3125 2378 3379 2068 
Q 3634 1759 3634 1313 
Q 3634 634 3220 271 
Q 2806 -91 2034 -91 
Q 1263 -91 848 271 
Q 434 634 434 1313 
Q 434 1759 690 2068 
Q 947 2378 1403 2484 
z
M 1172 3481 
Q 1172 3119 1398 2916 
Q 1625 2713 2034 2713 
Q 2441 2713 2670 2916 
Q 2900 3119 2900 3481 
Q 2900 3844 2670 4047 
Q 2441 4250 2034 4250 
Q 1625 4250 1398 4047 
Q 1172 3844 1172 3481 
z
" transform="scale(0.015625)"/>
       </defs>
       <use xlink:href="#DejaVuSans-30"/>
       <use xlink:href="#DejaVuSans-2e" x="63.623047"/>
       <use xlink:href="#DejaVuSans-38" x="95.410156"/>
      </g>
     </g>
    </g>
    <g id="xtick_6">
     <g id="line2d_11">
      <path d="M 387.301999 146.344 
L 387.301999 35.464 
" clip-path="url(#pf9076fbe67)" style="fill: none; stroke: #000000; stroke-opacity: 0.15; stroke-width: 0.8; stroke-linecap: square"/>
     </g>
     <g id="line2d_12">
      <g>
       <use xlink:href="#med3c77a39c" x="387.301999" y="146.344" style="stroke: #000000; stroke-width: 0.8"/>
      </g>
     </g>
     <g id="text_6">
      <!-- 1.0 -->
      <g transform="translate(379.350437 160.942438) scale(0.1 -0.1)">
       <defs>
        <path id="DejaVuSans-31" d="M 794 531 
L 1825 531 
L 1825 4091 
L 703 3866 
L 703 4441 
L 1819 4666 
L 2450 4666 
L 2450 531 
L 3481 531 
L 3481 0 
L 794 0 
L 794 531 
z
" transform="scale(0.015625)"/>
       </defs>
       <use xlink:href="#DejaVuSans-31"/>
       <use xlink:href="#DejaVuSans-2e" x="63.623047"/>
       <use xlink:href="#DejaVuSans-30" x="95.410156"/>
      </g>
     </g>
    </g>
    <g id="xtick_7">
     <g id="line2d_13">
      <path d="M 454.91578 146.344 
L 454.91578 35.464 
" clip-path="url(#pf9076fbe67)" style="fill: none; stroke: #000000; stroke-opacity: 0.15; stroke-width: 0.8; stroke-linecap: square"/>
     </g>
     <g id="line2d_14">
      <g>
       <use xlink:href="#med3c77a39c" x="454.91578" y="146.344" style="stroke: #000000; stroke-width: 0.8"/>
      </g>
     </g>
     <g id="text_7">
      <!-- 1.2 -->
      <g transform="translate(446.964217 160.942438) scale(0.1 -0.1)">
       <use xlink:href="#DejaVuSans-31"/>
       <use xlink:href="#DejaVuSans-2e" x="63.623047"/>
       <use xlink:href="#DejaVuSans-32" x="95.410156"/>
      </g>
     </g>
    </g>
   </g>
   <g id="matplotlib.axis_2">
    <g id="ytick_1">
     <g id="line2d_15">
      <path d="M 28.942188 144.649624 
L 475.342187 144.649624 
" clip-path="url(#pf9076fbe67)" style="fill: none; stroke: #000000; stroke-opacity: 0.15; stroke-width: 0.8; stroke-linecap: square"/>
     </g>
     <g id="line2d_16">
      <defs>
       <path id="me189f98af6" d="M 0 0 
L -3.5 0 
" style="stroke: #000000; stroke-width: 0.8"/>
      </defs>
      <g>
       <use xlink:href="#me189f98af6" x="28.942188" y="144.649624" style="stroke: #000000; stroke-width: 0.8"/>
      </g>
     </g>
     <g id="text_8">
      <!-- −4 -->
      <g transform="translate(7.2 148.448843) scale(0.1 -0.1)">
       <defs>
        <path id="DejaVuSans-2212" d="M 678 2272 
L 4684 2272 
L 4684 1741 
L 678 1741 
L 678 2272 
z
" transform="scale(0.015625)"/>
       </defs>
       <use xlink:href="#DejaVuSans-2212"/>
       <use xlink:href="#DejaVuSans-34" x="83.789062"/>
      </g>
     </g>
    </g>
    <g id="ytick_2">
     <g id="line2d_17">
      <path d="M 28.942188 117.425097 
L 475.342187 117.425097 
" clip-path="url(#pf9076fbe67)" style="fill: none; stroke: #000000; stroke-opacity: 0.15; stroke-width: 0.8; stroke-linecap: square"/>
     </g>
     <g id="line2d_18">
      <g>
       <use xlink:href="#me189f98af6" x="28.942188" y="117.425097" style="stroke: #000000; stroke-width: 0.8"/>
      </g>
     </g>
     <g id="text_9">
      <!-- −2 -->
      <g transform="translate(7.2 121.224316) scale(0.1 -0.1)">
       <use xlink:href="#DejaVuSans-2212"/>
       <use xlink:href="#DejaVuSans-32" x="83.789062"/>
      </g>
     </g>
    </g>
    <g id="ytick_3">
     <g id="line2d_19">
      <path d="M 28.942188 90.20057 
L 475.342187 90.20057 
" clip-path="url(#pf9076fbe67)" style="fill: none; stroke: #000000; stroke-opacity: 0.15; stroke-width: 0.8; stroke-linecap: square"/>
     </g>
     <g id="line2d_20">
      <g>
       <use xlink:href="#me189f98af6" x="28.942188" y="90.20057" style="stroke: #000000; stroke-width: 0.8"/>
      </g>
     </g>
     <g id="text_10">
      <!-- 0 -->
      <g transform="translate(15.579688 93.999789) scale(0.1 -0.1)">
       <use xlink:href="#DejaVuSans-30"/>
      </g>
     </g>
    </g>
    <g id="ytick_4">
     <g id="line2d_21">
      <path d="M 28.942188 62.976043 
L 475.342187 62.976043 
" clip-path="url(#pf9076fbe67)" style="fill: none; stroke: #000000; stroke-opacity: 0.15; stroke-width: 0.8; stroke-linecap: square"/>
     </g>
     <g id="line2d_22">
      <g>
       <use xlink:href="#me189f98af6" x="28.942188" y="62.976043" style="stroke: #000000; stroke-width: 0.8"/>
      </g>
     </g>
     <g id="text_11">
      <!-- 2 -->
      <g transform="translate(15.579688 66.775262) scale(0.1 -0.1)">
       <use xlink:href="#DejaVuSans-32"/>
      </g>
     </g>
    </g>
    <g id="ytick_5">
     <g id="line2d_23">
      <path d="M 28.942188 35.751516 
L 475.342187 35.751516 
" clip-path="url(#pf9076fbe67)" style="fill: none; stroke: #000000; stroke-opacity: 0.15; stroke-width: 0.8; stroke-linecap: square"/>
     </g>
     <g id="line2d_24">
      <g>
       <use xlink:href="#me189f98af6" x="28.942188" y="35.751516" style="stroke: #000000; stroke-width: 0.8"/>
      </g>
     </g>
     <g id="text_12">
      <!-- 4 -->
      <g transform="translate(15.579688 39.550735) scale(0.1 -0.1)">
       <use xlink:href="#DejaVuSans-34"/>
      </g>
     </g>
    </g>
   </g>
   <g id="line2d_25">
    <path d="M 49.233097 68.089553 
L 49.910589 90.783512 
L 50.588082 82.71939 
L 51.265575 84.740893 
L 51.943068 55.012248 
L 52.620561 97.091786 
L 53.298053 43.270719 
L 53.975546 80.630516 
L 54.653039 70.632443 
L 55.330532 83.855521 
L 56.008025 66.088738 
L 56.685517 118.922219 
L 57.36301 98.966398 
L 58.040503 101.980118 
L 58.717996 81.886853 
L 59.395488 111.423942 
L 60.072981 96.886177 
L 60.750474 104.075944 
L 61.427967 89.250023 
L 62.10546 80.280415 
L 62.782952 102.732389 
L 63.460445 73.111922 
L 64.137938 78.790694 
L 64.815431 87.786204 
L 65.492924 86.666978 
L 66.170416 112.667741 
L 66.847909 108.906273 
L 67.525402 122.626433 
L 68.202895 114.436563 
L 68.880388 102.388773 
L 69.55788 115.68863 
L 70.235373 106.397719 
L 70.912866 103.603777 
L 71.590359 98.213751 
L 72.267851 88.308166 
L 72.945344 72.626268 
L 73.622837 82.497283 
L 74.977823 40.969022 
L 75.655315 55.214123 
L 77.010301 86.802655 
L 77.687794 91.32835 
L 78.365287 64.708757 
L 79.042779 93.04559 
L 79.720272 107.172338 
L 80.397765 99.015621 
L 81.075258 74.314273 
L 81.752751 100.826091 
L 82.430243 92.222262 
L 83.107736 93.821809 
L 83.785229 99.726664 
L 84.462722 107.869084 
L 85.140215 95.347084 
L 85.817707 92.955172 
L 86.4952 83.018306 
L 87.172693 81.725621 
L 87.850186 83.511834 
L 88.527678 95.703935 
L 89.205171 90.679865 
L 89.882664 115.229015 
L 90.560157 88.685976 
L 91.915142 105.783472 
L 92.592635 90.300775 
L 93.270128 91.812251 
L 93.947621 68.439661 
L 94.625114 56.198949 
L 95.302606 40.958446 
L 95.980099 85.049103 
L 96.657592 83.103841 
L 97.335085 70.1242 
L 98.012578 63.339267 
L 98.69007 58.054958 
L 99.367563 71.847388 
L 100.045056 110.833502 
L 100.722549 94.839115 
L 101.400041 86.169495 
L 102.077534 99.790865 
L 102.755027 96.24786 
L 103.43252 111.311578 
L 104.110013 110.677218 
L 105.464998 97.028702 
L 106.142491 96.046813 
L 106.819984 93.339944 
L 107.497477 100.984366 
L 108.174969 84.744776 
L 108.852462 87.626393 
L 109.529955 74.671754 
L 110.207448 75.598546 
L 110.884941 91.928024 
L 111.562433 102.163477 
L 112.239926 107.81343 
L 112.917419 94.315277 
L 114.272405 101.94981 
L 114.949897 92.775148 
L 115.62739 96.586993 
L 116.304883 72.646813 
L 116.982376 82.154615 
L 117.659868 53.994415 
L 118.337361 61.154599 
L 119.014854 56.515154 
L 119.692347 79.763203 
L 120.36984 65.210844 
L 121.047332 62.275162 
L 121.724825 91.880428 
L 122.402318 90.08241 
L 123.079811 93.786454 
L 123.757304 120.082183 
L 124.434796 102.915115 
L 125.112289 99.600289 
L 125.789782 124.524189 
L 126.467275 107.525397 
L 127.144768 127.651028 
L 127.82226 106.307637 
L 128.499753 122.914954 
L 129.177246 80.652453 
L 129.854739 85.88059 
L 130.532232 88.38922 
L 131.209724 96.63484 
L 131.887217 68.292497 
L 132.56471 59.766977 
L 133.242203 113.735779 
L 133.919695 73.971858 
L 134.597188 70.843976 
L 135.952174 111.054669 
L 136.629667 81.770231 
L 137.307159 93.27515 
L 137.984652 95.04448 
L 138.662145 98.752291 
L 139.339638 69.493688 
L 140.017131 61.675194 
L 140.694623 77.624068 
L 141.372116 60.484656 
L 142.049609 83.722627 
L 142.727102 60.061037 
L 143.404595 75.261084 
L 144.082087 85.004504 
L 144.75958 91.415805 
L 145.437073 85.973625 
L 147.469551 112.631638 
L 148.147044 114.915922 
L 148.824537 106.635971 
L 149.50203 108.795441 
L 150.179522 97.875849 
L 150.857015 105.55098 
L 151.534508 128.340512 
L 152.212001 75.366732 
L 152.889494 55.121538 
L 153.566986 75.779306 
L 154.244479 81.753727 
L 154.921972 82.49108 
L 155.599465 83.829449 
L 156.276958 84.383069 
L 156.95445 102.538819 
L 157.631943 96.571893 
L 158.309436 104.467134 
L 158.986929 87.606668 
L 159.664422 93.731559 
L 160.341914 80.370555 
L 161.019407 85.976286 
L 161.6969 66.26507 
L 162.374393 73.131005 
L 163.051885 43.477629 
L 163.729378 97.861752 
L 165.084364 63.1131 
L 165.761857 45.606038 
L 166.439349 89.608899 
L 167.116842 92.79191 
L 167.794335 103.832762 
L 168.471828 89.38648 
L 169.149321 116.811695 
L 169.826813 107.05377 
L 170.504306 121.712927 
L 171.181799 133.266973 
L 171.859292 107.987568 
L 172.536785 99.89926 
L 173.214277 82.479932 
L 173.89177 94.53947 
L 174.569263 94.798217 
L 175.246756 73.197467 
L 175.924249 73.669265 
L 176.601741 71.117453 
L 177.279234 75.836918 
L 177.956727 60.611431 
L 178.63422 74.137054 
L 179.311712 56.592938 
L 179.989205 70.69329 
L 180.666698 79.494391 
L 181.344191 112.166366 
L 182.021684 82.019846 
L 182.699176 83.364153 
L 183.376669 75.819374 
L 184.054162 69.771545 
L 184.731655 86.519827 
L 185.409148 67.496244 
L 186.08664 85.172209 
L 186.764133 51.303566 
L 187.441626 98.250665 
L 188.119119 108.063481 
L 188.796612 112.011161 
L 189.474104 108.041502 
L 190.151597 117.763857 
L 190.82909 81.972818 
L 191.506583 117.824313 
L 192.184075 134.530205 
L 192.861568 101.646206 
L 193.539061 122.91673 
L 194.216554 127.600031 
L 194.894047 92.818011 
L 195.571539 89.028289 
L 196.249032 95.791593 
L 196.926525 63.472451 
L 197.604018 74.789576 
L 198.281511 50.187519 
L 198.959003 63.087369 
L 199.636496 48.597589 
L 200.991482 91.594765 
L 201.668975 45.888191 
L 202.346467 91.109458 
L 203.02396 90.388437 
L 203.701453 100.225758 
L 205.056439 89.280657 
L 205.733931 88.753289 
L 206.411424 80.479671 
L 207.088917 62.648423 
L 207.76641 86.446255 
L 208.443902 100.14117 
L 209.121395 99.263117 
L 209.798888 93.59686 
L 210.476381 110.287262 
L 211.153874 80.616676 
L 211.831366 103.917115 
L 212.508859 106.967754 
L 213.186352 107.94724 
L 213.863845 130.987192 
L 214.541338 126.006902 
L 215.21883 105.233665 
L 215.896323 103.796891 
L 216.573816 113.830558 
L 217.251309 76.913191 
L 217.928802 111.899082 
L 218.606294 90.972014 
L 219.283787 81.984723 
L 219.96128 110.623364 
L 220.638773 41.810379 
L 221.993758 80.337929 
L 222.671251 40.504 
L 223.348744 64.507462 
L 224.026237 71.819772 
L 224.703729 91.528462 
L 225.381222 87.108009 
L 226.058715 113.671435 
L 226.736208 85.044601 
L 227.413701 102.329002 
L 228.091193 95.220835 
L 228.768686 79.231993 
L 229.446179 89.481321 
L 230.801165 85.136704 
L 231.478657 97.798689 
L 232.15615 76.659442 
L 232.833643 68.70078 
L 233.511136 82.390274 
L 234.188629 84.675292 
L 234.866121 113.113285 
L 235.543614 117.222405 
L 236.221107 128.364238 
L 236.8986 93.810926 
L 237.576092 113.930293 
L 238.253585 89.148232 
L 238.931078 114.497787 
L 239.608571 103.724372 
L 240.286064 89.23134 
L 240.963556 70.34446 
L 241.641049 74.834032 
L 242.318542 66.763597 
L 242.996035 65.243351 
L 243.673528 61.173733 
L 244.35102 79.345475 
L 245.028513 65.919624 
L 245.706006 74.341424 
L 246.383499 78.644486 
L 247.060992 77.7803 
L 247.738484 100.125602 
L 248.415977 97.454961 
L 249.09347 104.32912 
L 249.770963 96.806834 
L 250.448456 92.200676 
L 251.125948 114.693815 
L 252.480934 68.292388 
L 253.158427 113.568654 
L 253.835919 102.616513 
L 254.513412 102.16902 
L 255.190905 94.187045 
L 255.868398 69.84494 
L 256.545891 94.402094 
L 257.223383 107.337838 
L 257.900876 92.770301 
L 258.578369 112.159572 
L 259.255862 90.267269 
L 259.933355 101.307825 
L 260.610847 84.550468 
L 261.28834 108.545613 
L 261.965833 52.749792 
L 262.643326 76.140641 
L 263.320819 71.407159 
L 263.998311 74.349187 
L 264.675804 78.022498 
L 265.353297 76.268868 
L 266.03079 64.892396 
L 266.708283 74.942726 
L 267.385775 63.6525 
L 268.063268 84.135571 
L 268.740761 71.194685 
L 269.418254 73.999816 
L 270.095746 103.78481 
L 270.773239 84.14371 
L 271.450732 108.255692 
L 272.128225 91.985653 
L 272.805718 102.388717 
L 273.48321 91.825701 
L 274.160703 117.935151 
L 274.838196 102.163524 
L 275.515689 77.045722 
L 276.193182 101.702519 
L 276.870674 118.438459 
L 277.548167 115.850788 
L 278.22566 123.624129 
L 278.903153 119.646629 
L 280.258138 78.377428 
L 280.935631 104.21203 
L 281.613124 95.363442 
L 282.290617 101.507986 
L 282.968109 98.497494 
L 283.645602 97.799426 
L 284.323095 93.264643 
L 285.000588 78.926794 
L 285.678081 95.079338 
L 286.355573 59.484104 
L 287.033066 55.917396 
L 287.710559 68.002786 
L 288.388052 53.462669 
L 289.065545 75.441962 
L 289.743037 77.00046 
L 290.42053 73.326 
L 292.453009 107.089812 
L 293.130501 112.094935 
L 293.807994 96.640747 
L 294.485487 138.70862 
L 295.16298 108.032015 
L 295.840473 114.483178 
L 296.517965 98.026861 
L 297.195458 96.402072 
L 297.872951 136.269317 
L 298.550444 85.619023 
L 299.227936 85.174619 
L 299.905429 86.581222 
L 300.582922 92.050935 
L 301.260415 74.320716 
L 301.937908 93.023417 
L 302.6154 64.627632 
L 303.292893 84.274171 
L 303.970386 64.756777 
L 304.647879 105.462837 
L 305.325372 118.220127 
L 306.002864 82.617108 
L 306.680357 77.347255 
L 307.35785 84.002323 
L 308.035343 100.426964 
L 309.390328 62.201077 
L 310.067821 70.611075 
L 310.745314 69.15573 
L 311.422807 71.671083 
L 312.1003 85.908684 
L 312.777792 86.265805 
L 313.455285 105.589376 
L 314.132778 69.87663 
L 314.810271 107.973637 
L 315.487763 101.543973 
L 316.165256 126.794798 
L 316.842749 104.726838 
L 317.520242 141.304 
L 318.197735 101.222451 
L 318.875227 110.219841 
L 319.55272 75.602845 
L 320.230213 116.037417 
L 320.907706 91.214051 
L 321.585199 82.033684 
L 322.262691 66.349409 
L 322.940184 86.629579 
L 323.617677 79.14417 
L 324.29517 110.446099 
L 325.650155 79.805202 
L 326.327648 73.452296 
L 327.005141 94.189622 
L 327.682634 63.12483 
L 328.360126 66.55589 
L 329.037619 89.371624 
L 329.715112 118.294458 
L 330.392605 105.85172 
L 331.070098 88.379126 
L 331.74759 59.32538 
L 332.425083 68.233186 
L 333.102576 100.623404 
L 334.457562 55.516664 
L 335.135054 88.062976 
L 335.812547 99.938939 
L 336.49004 69.126289 
L 337.167533 103.530221 
L 337.845026 116.941952 
L 338.522518 110.116839 
L 339.877504 122.796555 
L 340.554997 97.911687 
L 341.23249 94.504839 
L 341.909982 92.068015 
L 342.587475 97.957969 
L 343.264968 74.005681 
L 343.942461 84.127092 
L 345.297446 61.626414 
L 345.974939 63.650591 
L 346.652432 51.078577 
L 347.329925 71.529503 
L 348.007417 103.733583 
L 348.68491 100.00744 
L 349.362403 68.877046 
L 350.039896 93.907079 
L 350.717389 85.027818 
L 351.394881 101.39964 
L 352.072374 74.460053 
L 352.749867 90.707831 
L 353.42736 62.64518 
L 354.104853 87.022256 
L 354.782345 62.719088 
L 355.459838 68.317584 
L 356.137331 88.620116 
L 356.814824 66.939927 
L 357.492317 98.937228 
L 358.169809 103.849885 
L 358.847302 89.419181 
L 359.524795 114.193445 
L 360.202288 119.277115 
L 360.87978 119.767383 
L 361.557273 130.45302 
L 362.234766 101.951932 
L 362.912259 104.829717 
L 363.589752 108.890987 
L 364.267244 102.705615 
L 364.944737 87.564915 
L 365.62223 62.121132 
L 366.299723 67.548265 
L 366.977216 81.04883 
L 367.654708 60.210594 
L 368.332201 71.227884 
L 369.009694 73.221462 
L 369.687187 47.760781 
L 370.36468 82.743176 
L 371.042172 87.994265 
L 371.719665 112.347422 
L 372.397158 108.42663 
L 373.074651 85.566133 
L 373.752143 102.110116 
L 374.429636 85.171343 
L 375.107129 105.75241 
L 375.784622 98.719659 
L 376.462115 76.679667 
L 377.139607 64.063155 
L 377.8171 75.016222 
L 378.494593 67.343682 
L 379.172086 62.620185 
L 379.849579 75.364132 
L 380.527071 106.911851 
L 381.204564 101.374095 
L 381.882057 96.847463 
L 382.55955 115.779378 
L 383.237043 107.227575 
L 383.914535 136.134397 
L 384.592028 124.888238 
L 385.269521 103.066528 
L 385.947014 135.323174 
L 387.301999 90.441756 
L 387.301999 90.441756 
" clip-path="url(#pf9076fbe67)" style="fill: none; stroke: #000000; stroke-opacity: 0.2; stroke-width: 1.5; stroke-linecap: square"/>
   </g>
   <g id="line2d_26">
    <path d="M 49.233097 90.20057 
L 50.588082 75.529777 
L 51.265575 70.135362 
L 51.943068 66.792405 
L 52.620561 65.762635 
L 53.298053 67.021556 
L 53.975546 70.268767 
L 55.330532 80.461025 
L 56.685517 90.879041 
L 57.36301 94.57757 
L 58.040503 96.752269 
L 58.717996 97.320022 
L 59.395488 96.451933 
L 60.072981 94.539038 
L 61.427967 89.824648 
L 62.10546 88.213849 
L 62.782952 87.750471 
L 63.460445 88.694203 
L 64.137938 91.063384 
L 64.815431 94.62629 
L 66.847909 107.233459 
L 67.525402 109.888493 
L 68.202895 110.79 
L 68.880388 109.608111 
L 69.55788 106.273562 
L 70.235373 100.997005 
L 71.590359 86.708589 
L 72.945344 72.453874 
L 73.622837 67.288161 
L 74.30033 64.224469 
L 74.977823 63.562687 
L 75.655315 65.315024 
L 76.332808 69.207573 
L 77.010301 74.720016 
L 79.042779 93.737198 
L 79.720272 98.501386 
L 80.397765 101.614413 
L 81.075258 102.903499 
L 81.752751 102.461726 
L 82.430243 100.623794 
L 84.462722 92.316825 
L 85.140215 90.591739 
L 85.817707 90.111649 
L 86.4952 91.003575 
L 87.172693 93.146085 
L 89.882664 104.959951 
L 90.560157 105.740347 
L 91.23765 104.703908 
L 91.915142 101.725754 
L 92.592635 96.950613 
L 93.947621 83.843699 
L 95.302606 70.709075 
L 95.980099 66.039627 
L 96.657592 63.446183 
L 97.335085 63.257278 
L 98.012578 65.517734 
L 98.69007 69.9816 
L 100.045056 83.306766 
L 101.400041 97.440104 
L 102.077534 102.922975 
L 102.755027 106.620557 
L 103.43252 108.285189 
L 104.110013 107.944446 
L 104.787505 105.886637 
L 105.464998 102.610433 
L 106.819984 94.959921 
L 107.497477 91.855134 
L 108.174969 89.884274 
L 108.852462 89.284657 
L 109.529955 90.046587 
L 110.207448 91.918532 
L 112.239926 99.118863 
L 112.917419 100.079994 
L 113.594912 99.527602 
L 114.272405 97.269183 
L 114.949897 93.3686 
L 116.304883 82.148609 
L 117.659868 70.662737 
L 118.337361 66.647033 
L 119.014854 64.595101 
L 119.692347 64.858975 
L 120.36984 67.516522 
L 121.047332 72.355811 
L 122.402318 86.458573 
L 123.757304 101.390948 
L 124.434796 107.205148 
L 125.112289 111.11845 
L 125.789782 112.824231 
L 126.467275 112.297121 
L 127.144768 109.787881 
L 127.82226 105.780904 
L 129.854739 91.446652 
L 130.532232 88.054127 
L 131.209724 86.083136 
L 131.887217 85.631199 
L 132.56471 86.543684 
L 133.242203 88.444441 
L 134.597188 92.999987 
L 135.274681 94.465335 
L 135.952174 94.729916 
L 136.629667 93.522315 
L 137.307159 90.812415 
L 137.984652 86.823754 
L 140.017131 72.46709 
L 140.694623 69.136404 
L 141.372116 67.570879 
L 142.049609 68.145551 
L 142.727102 70.97618 
L 143.404595 75.89497 
L 144.75958 90.030813 
L 146.114566 104.948035 
L 146.792058 110.713501 
L 147.469551 114.506063 
L 148.147044 115.975244 
L 148.824537 115.053526 
L 149.50203 111.960218 
L 150.179522 107.166919 
L 152.212001 89.507486 
L 152.889494 84.891281 
L 153.566986 81.787275 
L 154.244479 80.390387 
L 154.921972 80.633758 
L 155.599465 82.208852 
L 157.631943 89.533067 
L 158.309436 90.895342 
L 158.986929 90.993387 
L 159.664422 89.693601 
L 160.341914 87.111502 
L 163.051885 73.298011 
L 163.729378 72.047987 
L 164.406871 72.689404 
L 165.084364 75.384377 
L 165.761857 80.022274 
L 167.116842 93.386344 
L 168.471828 107.510625 
L 169.149321 112.900784 
L 169.826813 116.31106 
L 170.504306 117.359703 
L 171.181799 115.944568 
L 171.859292 112.255662 
L 172.536785 106.748744 
L 175.246756 80.85792 
L 175.924249 76.946241 
L 176.601741 74.937939 
L 177.279234 74.841688 
L 177.956727 76.406265 
L 178.63422 79.166686 
L 179.989205 85.817286 
L 180.666698 88.46555 
L 181.344191 90.013247 
L 182.021684 90.218775 
L 182.699176 89.085145 
L 183.376669 86.858262 
L 185.409148 78.712825 
L 186.08664 77.517959 
L 186.764133 77.913881 
L 187.441626 80.119788 
L 188.119119 84.096525 
L 188.796612 89.541108 
L 190.82909 108.599479 
L 191.506583 113.379915 
L 192.184075 116.253349 
L 192.861568 116.815481 
L 193.539061 114.932812 
L 194.216554 110.763657 
L 194.894047 104.740161 
L 197.604018 76.546941 
L 198.281511 72.197863 
L 198.959003 69.930811 
L 199.636496 69.816461 
L 200.313989 71.650486 
L 200.991482 74.991283 
L 203.02396 87.681803 
L 203.701453 90.691749 
L 204.378946 92.361781 
L 205.056439 92.583938 
L 205.733931 91.500655 
L 206.411424 89.477653 
L 207.76641 84.806459 
L 208.443902 83.355606 
L 209.121395 83.169091 
L 209.798888 84.534434 
L 210.476381 87.497668 
L 211.153874 91.847199 
L 213.186352 107.921493 
L 213.863845 111.976027 
L 214.541338 114.282437 
L 215.21883 114.418016 
L 215.896323 112.216608 
L 216.573816 107.797985 
L 217.251309 101.558669 
L 219.96128 72.603155 
L 220.638773 68.184532 
L 221.316266 65.983124 
L 221.993758 66.118703 
L 222.671251 68.425113 
L 223.348744 72.479648 
L 226.058715 92.903472 
L 226.736208 95.866706 
L 227.413701 97.232049 
L 228.091193 97.045534 
L 228.768686 95.594681 
L 230.801165 88.900485 
L 231.478657 87.817202 
L 232.15615 88.039359 
L 232.833643 89.709391 
L 233.511136 92.719337 
L 234.866121 101.171498 
L 235.543614 105.409857 
L 236.221107 108.750654 
L 236.8986 110.584679 
L 237.576092 110.470329 
L 238.253585 108.203277 
L 238.931078 103.854199 
L 239.608571 97.768884 
L 242.318542 69.637483 
L 242.996035 65.468328 
L 243.673528 63.585659 
L 244.35102 64.147791 
L 245.028513 67.021225 
L 245.706006 71.801661 
L 248.415977 96.304615 
L 249.09347 100.281352 
L 249.770963 102.487259 
L 250.448456 102.883181 
L 251.125948 101.688315 
L 251.803441 99.338172 
L 253.158427 93.542878 
L 253.835919 91.315995 
L 254.513412 90.182365 
L 255.190905 90.387893 
L 255.868398 91.93559 
L 256.545891 94.583854 
L 258.578369 103.994875 
L 259.255862 105.559452 
L 259.933355 105.463201 
L 260.610847 103.454899 
L 261.28834 99.543221 
L 261.965833 94.006618 
L 264.675804 68.145478 
L 265.353297 64.456572 
L 266.03079 63.041437 
L 266.708283 64.09008 
L 267.385775 67.500356 
L 268.063268 72.890515 
L 270.773239 100.378867 
L 271.450732 105.016763 
L 272.128225 107.711736 
L 272.805718 108.353153 
L 273.48321 107.103129 
L 274.160703 104.363455 
L 276.193182 93.289638 
L 276.870674 90.707539 
L 277.548167 89.407753 
L 278.22566 89.505798 
L 278.903153 90.868073 
L 280.258138 95.781089 
L 280.935631 98.192288 
L 281.613124 99.767382 
L 282.290617 100.010753 
L 282.968109 98.613865 
L 283.645602 95.509859 
L 284.323095 90.893654 
L 287.033066 68.440922 
L 287.710559 65.347614 
L 288.388052 64.425896 
L 289.065545 65.895077 
L 289.743037 69.687639 
L 290.42053 75.453105 
L 293.130501 104.50617 
L 293.807994 109.42496 
L 294.485487 112.255589 
L 295.16298 112.830261 
L 295.840473 111.264736 
L 296.517965 107.93405 
L 297.872951 98.392725 
L 298.550444 93.577386 
L 299.227936 89.588725 
L 299.905429 86.878825 
L 300.582922 85.671224 
L 301.260415 85.935805 
L 301.937908 87.401153 
L 303.970386 93.857456 
L 304.647879 94.769941 
L 305.325372 94.318005 
L 306.002864 92.347013 
L 306.680357 88.954488 
L 308.035343 79.480505 
L 308.712836 74.620236 
L 309.390328 70.613259 
L 310.067821 68.104019 
L 310.745314 67.576909 
L 311.422807 69.28269 
L 312.1003 73.195992 
L 312.777792 79.010192 
L 315.487763 108.045329 
L 316.165256 112.884618 
L 316.842749 115.542166 
L 317.520242 115.806039 
L 318.197735 113.754107 
L 318.875227 109.738403 
L 320.230213 98.252531 
L 321.585199 87.03254 
L 322.262691 83.131957 
L 322.940184 80.873538 
L 323.617677 80.321146 
L 324.29517 81.282277 
L 324.972663 83.346141 
L 326.327648 88.482608 
L 327.005141 90.354553 
L 327.682634 91.116483 
L 328.360126 90.516867 
L 329.037619 88.546006 
L 329.715112 85.441219 
L 331.74759 74.514503 
L 332.425083 72.456694 
L 333.102576 72.115951 
L 333.780069 73.780583 
L 334.457562 77.478165 
L 335.135054 82.961036 
L 337.845026 110.41954 
L 338.522518 114.883407 
L 339.200011 117.143862 
L 339.877504 116.954957 
L 340.554997 114.361513 
L 341.23249 109.692065 
L 342.587475 96.557441 
L 343.942461 83.450527 
L 344.619953 78.675386 
L 345.297446 75.697232 
L 345.974939 74.660793 
L 346.652432 75.441189 
L 347.329925 77.6725 
L 349.362403 87.255055 
L 350.039896 89.397565 
L 350.717389 90.289491 
L 351.394881 89.809401 
L 352.072374 88.084315 
L 353.42736 82.493333 
L 354.104853 79.777346 
L 354.782345 77.939414 
L 355.459838 77.497641 
L 356.137331 78.786727 
L 356.814824 81.899754 
L 357.492317 86.663942 
L 358.847302 99.243306 
L 360.202288 111.193567 
L 360.87978 115.086116 
L 361.557273 116.838453 
L 362.234766 116.176671 
L 362.912259 113.11298 
L 363.589752 107.947266 
L 364.944737 93.692551 
L 366.299723 79.404135 
L 366.977216 74.127578 
L 367.654708 70.793029 
L 368.332201 69.61114 
L 369.009694 70.512647 
L 369.687187 73.167681 
L 371.042172 81.471473 
L 371.719665 85.77485 
L 372.397158 89.337756 
L 373.074651 91.706937 
L 373.752143 92.65067 
L 374.429636 92.187291 
L 375.107129 90.576492 
L 377.139607 83.949207 
L 377.8171 83.081118 
L 378.494593 83.648871 
L 379.172086 85.82357 
L 379.849579 89.522099 
L 381.204564 99.940115 
L 382.55955 110.132373 
L 383.237043 113.379584 
L 383.914535 114.638505 
L 384.592028 113.608735 
L 385.269521 110.265778 
L 385.947014 104.871363 
L 387.301999 90.20057 
L 388.656985 75.529777 
L 389.334478 70.135362 
L 390.01197 66.792405 
L 390.689463 65.762635 
L 391.366956 67.021556 
L 392.044449 70.268767 
L 393.399434 80.461025 
L 394.75442 90.879041 
L 395.431913 94.57757 
L 396.109406 96.752269 
L 396.786898 97.320022 
L 397.464391 96.451933 
L 398.141884 94.539038 
L 399.49687 89.824648 
L 400.174362 88.213849 
L 400.851855 87.750471 
L 401.529348 88.694203 
L 402.206841 91.063384 
L 402.884334 94.62629 
L 404.916812 107.233459 
L 405.594305 109.888493 
L 406.271797 110.79 
L 406.94929 109.608111 
L 407.626783 106.273562 
L 408.304276 100.997005 
L 409.659261 86.708589 
L 411.014247 72.453874 
L 411.69174 67.288161 
L 412.369233 64.224469 
L 413.046725 63.562687 
L 413.724218 65.315024 
L 414.401711 69.207573 
L 415.079204 74.720016 
L 417.111682 93.737198 
L 417.789175 98.501386 
L 418.466668 101.614413 
L 419.14416 102.903499 
L 419.821653 102.461726 
L 420.499146 100.623794 
L 422.531624 92.316825 
L 423.209117 90.591739 
L 423.88661 90.111649 
L 424.564103 91.003575 
L 425.241596 93.146085 
L 427.951567 104.959951 
L 428.62906 105.740347 
L 429.306552 104.703908 
L 429.984045 101.725754 
L 430.661538 96.950613 
L 432.016524 83.843699 
L 433.371509 70.709075 
L 434.049002 66.039627 
L 434.726495 63.446183 
L 435.403987 63.257278 
L 436.08148 65.517734 
L 436.758973 69.9816 
L 438.113959 83.306766 
L 439.468944 97.440104 
L 440.146437 102.922975 
L 440.82393 106.620557 
L 441.501423 108.285189 
L 442.178915 107.944446 
L 442.856408 105.886637 
L 443.533901 102.610433 
L 444.888887 94.959921 
L 445.566379 91.855134 
L 446.243872 89.884274 
L 446.921365 89.284657 
L 447.598858 90.046587 
L 448.27635 91.918532 
L 450.308829 99.118863 
L 450.986322 100.079994 
L 451.663814 99.527602 
L 452.341307 97.269183 
L 453.0188 93.3686 
L 454.373786 82.148609 
L 455.051278 76.068183 
L 455.051278 76.068183 
" clip-path="url(#pf9076fbe67)" style="fill: none; stroke: #1f77b4; stroke-width: 1.5; stroke-linecap: square"/>
   </g>
   <g id="line2d_27">
    <path d="M 387.979492 83.954845 
L 388.656985 79.106863 
L 389.334478 74.068208 
L 390.01197 70.47713 
L 390.689463 67.829986 
L 391.366956 71.292407 
L 392.044449 70.748286 
L 392.721942 76.124734 
L 393.399434 79.624385 
L 394.076927 85.188867 
L 394.75442 88.938588 
L 395.431913 93.997608 
L 396.109406 95.665712 
L 396.786898 97.159529 
L 397.464391 94.475353 
L 398.141884 95.329006 
L 398.819377 93.478973 
L 399.49687 91.465898 
L 400.174362 89.083358 
L 400.851855 87.570917 
L 401.529348 89.995263 
L 402.206841 90.712903 
L 402.884334 93.41972 
L 403.561826 96.268296 
L 404.239319 100.030745 
L 404.916812 104.209741 
L 405.594305 107.302619 
L 406.271797 107.544767 
L 406.94929 107.12675 
L 407.626783 104.199191 
L 408.304276 100.40598 
L 408.981769 94.953552 
L 409.659261 88.358088 
L 410.336754 81.845105 
L 411.014247 76.523353 
L 411.69174 72.010892 
L 412.369233 69.232106 
L 413.046725 66.31547 
L 413.724218 67.747503 
L 414.401711 70.913587 
L 415.079204 75.566568 
L 415.756697 81.242863 
L 416.434189 86.508942 
L 417.111682 89.995811 
L 417.789175 96.643884 
L 418.466668 99.421282 
L 419.14416 101.474138 
L 419.821653 100.380035 
L 420.499146 100.91938 
L 421.176639 97.765303 
L 421.854132 95.65818 
L 422.531624 93.238926 
L 423.209117 92.055311 
L 423.88661 91.138014 
L 424.564103 90.901019 
L 425.241596 91.659379 
L 425.919088 93.402575 
L 426.596581 97.572668 
L 427.274074 99.94236 
L 427.951567 101.329452 
L 428.62906 103.138085 
L 429.306552 102.594482 
L 429.984045 99.549078 
L 430.661538 97.078796 
L 431.339031 90.971354 
L 432.016524 86.452348 
L 432.694016 79.357028 
L 433.371509 74.274493 
L 434.049002 70.21496 
L 434.726495 67.865789 
L 435.403987 67.817467 
L 436.08148 68.4192 
L 436.758973 72.762607 
L 437.436466 75.820231 
L 438.113959 82.079174 
L 438.791451 88.35143 
L 439.468944 95.888853 
L 440.146437 98.389269 
L 440.82393 103.283825 
L 441.501423 104.608013 
L 442.178915 107.013526 
L 442.856408 105.359287 
L 443.533901 102.296573 
L 444.211394 98.548016 
L 444.888887 96.305223 
L 445.566379 92.671596 
L 446.243872 92.208934 
L 446.921365 89.082414 
L 447.598858 90.254766 
L 448.27635 90.296414 
L 448.953843 92.077545 
L 449.631336 94.85691 
L 450.308829 97.06632 
L 450.986322 97.855713 
L 451.663814 99.394792 
L 452.341307 96.403858 
L 453.0188 94.801876 
L 453.696293 88.862536 
L 454.373786 86.434396 
L 455.051278 79.602413 
" clip-path="url(#pf9076fbe67)" style="fill: none; stroke: #ff7f0e; stroke-width: 1.5; stroke-linecap: square"/>
   </g>
   <g id="patch_1">
    <path d="M 28.942188 146.344 
L 28.942188 35.464 
" style="fill: none"/>
   </g>
   <g id="patch_2">
    <path d="M 475.342187 146.344 
L 475.342187 35.464 
" style="fill: none"/>
   </g>
   <g id="patch_3">
    <path d="M 28.942188 146.344 
L 475.342188 146.344 
" style="fill: none"/>
   </g>
   <g id="patch_4">
    <path d="M 28.942188 35.464 
L 475.342188 35.464 
" style="fill: none"/>
   </g>
   <g id="legend_1">
    <g id="line2d_28">
     <path d="M 85.332031 15.298438 
L 95.332031 15.298438 
L 105.332031 15.298438 
" style="fill: none; stroke: #000000; stroke-opacity: 0.2; stroke-width: 1.5; stroke-linecap: square"/>
    </g>
    <g id="text_13">
     <!-- Noisy sample signal -->
     <g transform="translate(113.332031 18.798438) scale(0.1 -0.1)">
      <defs>
       <path id="DejaVuSans-4e" d="M 628 4666 
L 1478 4666 
L 3547 763 
L 3547 4666 
L 4159 4666 
L 4159 0 
L 3309 0 
L 1241 3903 
L 1241 0 
L 628 0 
L 628 4666 
z
" transform="scale(0.015625)"/>
       <path id="DejaVuSans-6f" d="M 1959 3097 
Q 1497 3097 1228 2736 
Q 959 2375 959 1747 
Q 959 1119 1226 758 
Q 1494 397 1959 397 
Q 2419 397 2687 759 
Q 2956 1122 2956 1747 
Q 2956 2369 2687 2733 
Q 2419 3097 1959 3097 
z
M 1959 3584 
Q 2709 3584 3137 3096 
Q 3566 2609 3566 1747 
Q 3566 888 3137 398 
Q 2709 -91 1959 -91 
Q 1206 -91 779 398 
Q 353 888 353 1747 
Q 353 2609 779 3096 
Q 1206 3584 1959 3584 
z
" transform="scale(0.015625)"/>
       <path id="DejaVuSans-69" d="M 603 3500 
L 1178 3500 
L 1178 0 
L 603 0 
L 603 3500 
z
M 603 4863 
L 1178 4863 
L 1178 4134 
L 603 4134 
L 603 4863 
z
" transform="scale(0.015625)"/>
       <path id="DejaVuSans-73" d="M 2834 3397 
L 2834 2853 
Q 2591 2978 2328 3040 
Q 2066 3103 1784 3103 
Q 1356 3103 1142 2972 
Q 928 2841 928 2578 
Q 928 2378 1081 2264 
Q 1234 2150 1697 2047 
L 1894 2003 
Q 2506 1872 2764 1633 
Q 3022 1394 3022 966 
Q 3022 478 2636 193 
Q 2250 -91 1575 -91 
Q 1294 -91 989 -36 
Q 684 19 347 128 
L 347 722 
Q 666 556 975 473 
Q 1284 391 1588 391 
Q 1994 391 2212 530 
Q 2431 669 2431 922 
Q 2431 1156 2273 1281 
Q 2116 1406 1581 1522 
L 1381 1569 
Q 847 1681 609 1914 
Q 372 2147 372 2553 
Q 372 3047 722 3315 
Q 1072 3584 1716 3584 
Q 2034 3584 2315 3537 
Q 2597 3491 2834 3397 
z
" transform="scale(0.015625)"/>
       <path id="DejaVuSans-79" d="M 2059 -325 
Q 1816 -950 1584 -1140 
Q 1353 -1331 966 -1331 
L 506 -1331 
L 506 -850 
L 844 -850 
Q 1081 -850 1212 -737 
Q 1344 -625 1503 -206 
L 1606 56 
L 191 3500 
L 800 3500 
L 1894 763 
L 2988 3500 
L 3597 3500 
L 2059 -325 
z
" transform="scale(0.015625)"/>
       <path id="DejaVuSans-20" transform="scale(0.015625)"/>
       <path id="DejaVuSans-61" d="M 2194 1759 
Q 1497 1759 1228 1600 
Q 959 1441 959 1056 
Q 959 750 1161 570 
Q 1363 391 1709 391 
Q 2188 391 2477 730 
Q 2766 1069 2766 1631 
L 2766 1759 
L 2194 1759 
z
M 3341 1997 
L 3341 0 
L 2766 0 
L 2766 531 
Q 2569 213 2275 61 
Q 1981 -91 1556 -91 
Q 1019 -91 701 211 
Q 384 513 384 1019 
Q 384 1609 779 1909 
Q 1175 2209 1959 2209 
L 2766 2209 
L 2766 2266 
Q 2766 2663 2505 2880 
Q 2244 3097 1772 3097 
Q 1472 3097 1187 3025 
Q 903 2953 641 2809 
L 641 3341 
Q 956 3463 1253 3523 
Q 1550 3584 1831 3584 
Q 2591 3584 2966 3190 
Q 3341 2797 3341 1997 
z
" transform="scale(0.015625)"/>
       <path id="DejaVuSans-6d" d="M 3328 2828 
Q 3544 3216 3844 3400 
Q 4144 3584 4550 3584 
Q 5097 3584 5394 3201 
Q 5691 2819 5691 2113 
L 5691 0 
L 5113 0 
L 5113 2094 
Q 5113 2597 4934 2840 
Q 4756 3084 4391 3084 
Q 3944 3084 3684 2787 
Q 3425 2491 3425 1978 
L 3425 0 
L 2847 0 
L 2847 2094 
Q 2847 2600 2669 2842 
Q 2491 3084 2119 3084 
Q 1678 3084 1418 2786 
Q 1159 2488 1159 1978 
L 1159 0 
L 581 0 
L 581 3500 
L 1159 3500 
L 1159 2956 
Q 1356 3278 1631 3431 
Q 1906 3584 2284 3584 
Q 2666 3584 2933 3390 
Q 3200 3197 3328 2828 
z
" transform="scale(0.015625)"/>
       <path id="DejaVuSans-70" d="M 1159 525 
L 1159 -1331 
L 581 -1331 
L 581 3500 
L 1159 3500 
L 1159 2969 
Q 1341 3281 1617 3432 
Q 1894 3584 2278 3584 
Q 2916 3584 3314 3078 
Q 3713 2572 3713 1747 
Q 3713 922 3314 415 
Q 2916 -91 2278 -91 
Q 1894 -91 1617 61 
Q 1341 213 1159 525 
z
M 3116 1747 
Q 3116 2381 2855 2742 
Q 2594 3103 2138 3103 
Q 1681 3103 1420 2742 
Q 1159 2381 1159 1747 
Q 1159 1113 1420 752 
Q 1681 391 2138 391 
Q 2594 391 2855 752 
Q 3116 1113 3116 1747 
z
" transform="scale(0.015625)"/>
       <path id="DejaVuSans-6c" d="M 603 4863 
L 1178 4863 
L 1178 0 
L 603 0 
L 603 4863 
z
" transform="scale(0.015625)"/>
       <path id="DejaVuSans-65" d="M 3597 1894 
L 3597 1613 
L 953 1613 
Q 991 1019 1311 708 
Q 1631 397 2203 397 
Q 2534 397 2845 478 
Q 3156 559 3463 722 
L 3463 178 
Q 3153 47 2828 -22 
Q 2503 -91 2169 -91 
Q 1331 -91 842 396 
Q 353 884 353 1716 
Q 353 2575 817 3079 
Q 1281 3584 2069 3584 
Q 2775 3584 3186 3129 
Q 3597 2675 3597 1894 
z
M 3022 2063 
Q 3016 2534 2758 2815 
Q 2500 3097 2075 3097 
Q 1594 3097 1305 2825 
Q 1016 2553 972 2059 
L 3022 2063 
z
" transform="scale(0.015625)"/>
       <path id="DejaVuSans-67" d="M 2906 1791 
Q 2906 2416 2648 2759 
Q 2391 3103 1925 3103 
Q 1463 3103 1205 2759 
Q 947 2416 947 1791 
Q 947 1169 1205 825 
Q 1463 481 1925 481 
Q 2391 481 2648 825 
Q 2906 1169 2906 1791 
z
M 3481 434 
Q 3481 -459 3084 -895 
Q 2688 -1331 1869 -1331 
Q 1566 -1331 1297 -1286 
Q 1028 -1241 775 -1147 
L 775 -588 
Q 1028 -725 1275 -790 
Q 1522 -856 1778 -856 
Q 2344 -856 2625 -561 
Q 2906 -266 2906 331 
L 2906 616 
Q 2728 306 2450 153 
Q 2172 0 1784 0 
Q 1141 0 747 490 
Q 353 981 353 1791 
Q 353 2603 747 3093 
Q 1141 3584 1784 3584 
Q 2172 3584 2450 3431 
Q 2728 3278 2906 2969 
L 2906 3500 
L 3481 3500 
L 3481 434 
z
" transform="scale(0.015625)"/>
       <path id="DejaVuSans-6e" d="M 3513 2113 
L 3513 0 
L 2938 0 
L 2938 2094 
Q 2938 2591 2744 2837 
Q 2550 3084 2163 3084 
Q 1697 3084 1428 2787 
Q 1159 2491 1159 1978 
L 1159 0 
L 581 0 
L 581 3500 
L 1159 3500 
L 1159 2956 
Q 1366 3272 1645 3428 
Q 1925 3584 2291 3584 
Q 2894 3584 3203 3211 
Q 3513 2838 3513 2113 
z
" transform="scale(0.015625)"/>
      </defs>
      <use xlink:href="#DejaVuSans-4e"/>
      <use xlink:href="#DejaVuSans-6f" x="74.804688"/>
      <use xlink:href="#DejaVuSans-69" x="135.986328"/>
      <use xlink:href="#DejaVuSans-73" x="163.769531"/>
      <use xlink:href="#DejaVuSans-79" x="215.869141"/>
      <use xlink:href="#DejaVuSans-20" x="275.048828"/>
      <use xlink:href="#DejaVuSans-73" x="306.835938"/>
      <use xlink:href="#DejaVuSans-61" x="358.935547"/>
      <use xlink:href="#DejaVuSans-6d" x="420.214844"/>
      <use xlink:href="#DejaVuSans-70" x="517.626953"/>
      <use xlink:href="#DejaVuSans-6c" x="581.103516"/>
      <use xlink:href="#DejaVuSans-65" x="608.886719"/>
      <use xlink:href="#DejaVuSans-20" x="670.410156"/>
      <use xlink:href="#DejaVuSans-73" x="702.197266"/>
      <use xlink:href="#DejaVuSans-69" x="754.296875"/>
      <use xlink:href="#DejaVuSans-67" x="782.080078"/>
      <use xlink:href="#DejaVuSans-6e" x="845.556641"/>
      <use xlink:href="#DejaVuSans-61" x="908.935547"/>
      <use xlink:href="#DejaVuSans-6c" x="970.214844"/>
     </g>
    </g>
    <g id="line2d_29">
     <path d="M 233.132031 15.298438 
L 243.132031 15.298438 
L 253.132031 15.298438 
" style="fill: none; stroke: #1f77b4; stroke-width: 1.5; stroke-linecap: square"/>
    </g>
    <g id="text_14">
     <!-- clean signal -->
     <g transform="translate(261.132031 18.798438) scale(0.1 -0.1)">
      <defs>
       <path id="DejaVuSans-63" d="M 3122 3366 
L 3122 2828 
Q 2878 2963 2633 3030 
Q 2388 3097 2138 3097 
Q 1578 3097 1268 2742 
Q 959 2388 959 1747 
Q 959 1106 1268 751 
Q 1578 397 2138 397 
Q 2388 397 2633 464 
Q 2878 531 3122 666 
L 3122 134 
Q 2881 22 2623 -34 
Q 2366 -91 2075 -91 
Q 1284 -91 818 406 
Q 353 903 353 1747 
Q 353 2603 823 3093 
Q 1294 3584 2113 3584 
Q 2378 3584 2631 3529 
Q 2884 3475 3122 3366 
z
" transform="scale(0.015625)"/>
      </defs>
      <use xlink:href="#DejaVuSans-63"/>
      <use xlink:href="#DejaVuSans-6c" x="54.980469"/>
      <use xlink:href="#DejaVuSans-65" x="82.763672"/>
      <use xlink:href="#DejaVuSans-61" x="144.287109"/>
      <use xlink:href="#DejaVuSans-6e" x="205.566406"/>
      <use xlink:href="#DejaVuSans-20" x="268.945312"/>
      <use xlink:href="#DejaVuSans-73" x="300.732422"/>
      <use xlink:href="#DejaVuSans-69" x="352.832031"/>
      <use xlink:href="#DejaVuSans-67" x="380.615234"/>
      <use xlink:href="#DejaVuSans-6e" x="444.091797"/>
      <use xlink:href="#DejaVuSans-61" x="507.470703"/>
      <use xlink:href="#DejaVuSans-6c" x="568.75"/>
     </g>
    </g>
    <g id="line2d_30">
     <path d="M 340.785156 15.298438 
L 350.785156 15.298438 
L 360.785156 15.298438 
" style="fill: none; stroke: #ff7f0e; stroke-width: 1.5; stroke-linecap: square"/>
    </g>
    <g id="text_15">
     <!-- prediction -->
     <g transform="translate(368.785156 18.798438) scale(0.1 -0.1)">
      <defs>
       <path id="DejaVuSans-72" d="M 2631 2963 
Q 2534 3019 2420 3045 
Q 2306 3072 2169 3072 
Q 1681 3072 1420 2755 
Q 1159 2438 1159 1844 
L 1159 0 
L 581 0 
L 581 3500 
L 1159 3500 
L 1159 2956 
Q 1341 3275 1631 3429 
Q 1922 3584 2338 3584 
Q 2397 3584 2469 3576 
Q 2541 3569 2628 3553 
L 2631 2963 
z
" transform="scale(0.015625)"/>
       <path id="DejaVuSans-64" d="M 2906 2969 
L 2906 4863 
L 3481 4863 
L 3481 0 
L 2906 0 
L 2906 525 
Q 2725 213 2448 61 
Q 2172 -91 1784 -91 
Q 1150 -91 751 415 
Q 353 922 353 1747 
Q 353 2572 751 3078 
Q 1150 3584 1784 3584 
Q 2172 3584 2448 3432 
Q 2725 3281 2906 2969 
z
M 947 1747 
Q 947 1113 1208 752 
Q 1469 391 1925 391 
Q 2381 391 2643 752 
Q 2906 1113 2906 1747 
Q 2906 2381 2643 2742 
Q 2381 3103 1925 3103 
Q 1469 3103 1208 2742 
Q 947 2381 947 1747 
z
" transform="scale(0.015625)"/>
       <path id="DejaVuSans-74" d="M 1172 4494 
L 1172 3500 
L 2356 3500 
L 2356 3053 
L 1172 3053 
L 1172 1153 
Q 1172 725 1289 603 
Q 1406 481 1766 481 
L 2356 481 
L 2356 0 
L 1766 0 
Q 1100 0 847 248 
Q 594 497 594 1153 
L 594 3053 
L 172 3053 
L 172 3500 
L 594 3500 
L 594 4494 
L 1172 4494 
z
" transform="scale(0.015625)"/>
      </defs>
      <use xlink:href="#DejaVuSans-70"/>
      <use xlink:href="#DejaVuSans-72" x="63.476562"/>
      <use xlink:href="#DejaVuSans-65" x="102.339844"/>
      <use xlink:href="#DejaVuSans-64" x="163.863281"/>
      <use xlink:href="#DejaVuSans-69" x="227.339844"/>
      <use xlink:href="#DejaVuSans-63" x="255.123047"/>
      <use xlink:href="#DejaVuSans-74" x="310.103516"/>
      <use xlink:href="#DejaVuSans-69" x="349.3125"/>
      <use xlink:href="#DejaVuSans-6f" x="377.095703"/>
      <use xlink:href="#DejaVuSans-6e" x="438.277344"/>
     </g>
    </g>
   </g>
  </g>
 </g>
 <defs>
  <clipPath id="pf9076fbe67">
   <rect x="28.942188" y="35.464" width="446.4" height="110.88"/>
  </clipPath>
 </defs>
</svg>
