<?xml version="1.0" encoding="utf-8" standalone="no"?>
<!DOCTYPE svg PUBLIC "-//W3C//DTD SVG 1.1//EN"
  "http://www.w3.org/Graphics/SVG/1.1/DTD/svg11.dtd">
<svg xmlns:xlink="http://www.w3.org/1999/xlink" width="595.303125pt" height="236.792813pt" viewBox="0 0 595.303125 236.792813" xmlns="http://www.w3.org/2000/svg" version="1.1">
 <metadata>
  <rdf:RDF xmlns:dc="http://purl.org/dc/elements/1.1/" xmlns:cc="http://creativecommons.org/ns#" xmlns:rdf="http://www.w3.org/1999/02/22-rdf-syntax-ns#">
   <cc:Work>
    <dc:type rdf:resource="http://purl.org/dc/dcmitype/StillImage"/>
    <dc:date>2025-07-21T14:11:35.241551</dc:date>
    <dc:format>image/svg+xml</dc:format>
    <dc:creator>
     <cc:Agent>
      <dc:title>Matplotlib v3.10.3, https://matplotlib.org/</dc:title>
     </cc:Agent>
    </dc:creator>
   </cc:Work>
  </rdf:RDF>
 </metadata>
 <defs>
  <style type="text/css">*{stroke-linejoin: round; stroke-linecap: butt}</style>
 </defs>
 <g id="figure_1">
  <g id="patch_1">
   <path d="M -0 236.792813 
L 595.303125 236.792813 
L 595.303125 0 
L -0 0 
L -0 236.792813 
z
" style="fill: none"/>
  </g>
  <g id="axes_1">
   <g id="patch_2">
    <path d="M 30.103125 199.236563 
L 283.739489 199.236563 
L 283.739489 32.916562 
L 30.103125 32.916562 
L 30.103125 199.236563 
z
" style="fill: none"/>
   </g>
   <g id="matplotlib.axis_1">
    <g id="xtick_1">
     <g id="line2d_1">
      <defs>
       <path id="m94facc6b39" d="M 0 0 
L 0 3.5 
" style="stroke: #000000; stroke-width: 0.8"/>
      </defs>
      <g>
       <use xlink:href="#m94facc6b39" x="41.632051" y="199.236563" style="stroke: #000000; stroke-width: 0.8"/>
      </g>
     </g>
     <g id="text_1">
      <!-- 5 -->
      <g transform="translate(38.450801 213.835) scale(0.1 -0.1)">
       <defs>
        <path id="DejaVuSans-35" d="M 691 4666 
L 3169 4666 
L 3169 4134 
L 1269 4134 
L 1269 2991 
Q 1406 3038 1543 3061 
Q 1681 3084 1819 3084 
Q 2600 3084 3056 2656 
Q 3513 2228 3513 1497 
Q 3513 744 3044 326 
Q 2575 -91 1722 -91 
Q 1428 -91 1123 -41 
Q 819 9 494 109 
L 494 744 
Q 775 591 1075 516 
Q 1375 441 1709 441 
Q 2250 441 2565 725 
Q 2881 1009 2881 1497 
Q 2881 1984 2565 2268 
Q 2250 2553 1709 2553 
Q 1456 2553 1204 2497 
Q 953 2441 691 2322 
L 691 4666 
z
" transform="scale(0.015625)"/>
       </defs>
       <use xlink:href="#DejaVuSans-35"/>
      </g>
     </g>
    </g>
    <g id="xtick_2">
     <g id="line2d_2">
      <g>
       <use xlink:href="#m94facc6b39" x="111.043099" y="199.236563" style="stroke: #000000; stroke-width: 0.8"/>
      </g>
     </g>
     <g id="text_2">
      <!-- 10 -->
      <g transform="translate(104.680599 213.835) scale(0.1 -0.1)">
       <defs>
        <path id="DejaVuSans-31" d="M 794 531 
L 1825 531 
L 1825 4091 
L 703 3866 
L 703 4441 
L 1819 4666 
L 2450 4666 
L 2450 531 
L 3481 531 
L 3481 0 
L 794 0 
L 794 531 
z
" transform="scale(0.015625)"/>
        <path id="DejaVuSans-30" d="M 2034 4250 
Q 1547 4250 1301 3770 
Q 1056 3291 1056 2328 
Q 1056 1369 1301 889 
Q 1547 409 2034 409 
Q 2525 409 2770 889 
Q 3016 1369 3016 2328 
Q 3016 3291 2770 3770 
Q 2525 4250 2034 4250 
z
M 2034 4750 
Q 2819 4750 3233 4129 
Q 3647 3509 3647 2328 
Q 3647 1150 3233 529 
Q 2819 -91 2034 -91 
Q 1250 -91 836 529 
Q 422 1150 422 2328 
Q 422 3509 836 4129 
Q 1250 4750 2034 4750 
z
" transform="scale(0.015625)"/>
       </defs>
       <use xlink:href="#DejaVuSans-31"/>
       <use xlink:href="#DejaVuSans-30" transform="translate(63.623047 0)"/>
      </g>
     </g>
    </g>
    <g id="xtick_3">
     <g id="line2d_3">
      <g>
       <use xlink:href="#m94facc6b39" x="180.454148" y="199.236563" style="stroke: #000000; stroke-width: 0.8"/>
      </g>
     </g>
     <g id="text_3">
      <!-- 20 -->
      <g transform="translate(174.091648 213.835) scale(0.1 -0.1)">
       <defs>
        <path id="DejaVuSans-32" d="M 1228 531 
L 3431 531 
L 3431 0 
L 469 0 
L 469 531 
Q 828 903 1448 1529 
Q 2069 2156 2228 2338 
Q 2531 2678 2651 2914 
Q 2772 3150 2772 3378 
Q 2772 3750 2511 3984 
Q 2250 4219 1831 4219 
Q 1534 4219 1204 4116 
Q 875 4013 500 3803 
L 500 4441 
Q 881 4594 1212 4672 
Q 1544 4750 1819 4750 
Q 2544 4750 2975 4387 
Q 3406 4025 3406 3419 
Q 3406 3131 3298 2873 
Q 3191 2616 2906 2266 
Q 2828 2175 2409 1742 
Q 1991 1309 1228 531 
z
" transform="scale(0.015625)"/>
       </defs>
       <use xlink:href="#DejaVuSans-32"/>
       <use xlink:href="#DejaVuSans-30" transform="translate(63.623047 0)"/>
      </g>
     </g>
    </g>
    <g id="xtick_4">
     <g id="line2d_4">
      <g>
       <use xlink:href="#m94facc6b39" x="221.057008" y="199.236563" style="stroke: #000000; stroke-width: 0.8"/>
      </g>
     </g>
     <g id="text_4">
      <!-- 30 -->
      <g transform="translate(214.694508 213.835) scale(0.1 -0.1)">
       <defs>
        <path id="DejaVuSans-33" d="M 2597 2516 
Q 3050 2419 3304 2112 
Q 3559 1806 3559 1356 
Q 3559 666 3084 287 
Q 2609 -91 1734 -91 
Q 1441 -91 1130 -33 
Q 819 25 488 141 
L 488 750 
Q 750 597 1062 519 
Q 1375 441 1716 441 
Q 2309 441 2620 675 
Q 2931 909 2931 1356 
Q 2931 1769 2642 2001 
Q 2353 2234 1838 2234 
L 1294 2234 
L 1294 2753 
L 1863 2753 
Q 2328 2753 2575 2939 
Q 2822 3125 2822 3475 
Q 2822 3834 2567 4026 
Q 2313 4219 1838 4219 
Q 1578 4219 1281 4162 
Q 984 4106 628 3988 
L 628 4550 
Q 988 4650 1302 4700 
Q 1616 4750 1894 4750 
Q 2613 4750 3031 4423 
Q 3450 4097 3450 3541 
Q 3450 3153 3228 2886 
Q 3006 2619 2597 2516 
z
" transform="scale(0.015625)"/>
       </defs>
       <use xlink:href="#DejaVuSans-33"/>
       <use xlink:href="#DejaVuSans-30" transform="translate(63.623047 0)"/>
      </g>
     </g>
    </g>
    <g id="xtick_5">
     <g id="line2d_5">
      <g>
       <use xlink:href="#m94facc6b39" x="249.865196" y="199.236563" style="stroke: #000000; stroke-width: 0.8"/>
      </g>
     </g>
     <g id="text_5">
      <!-- 40 -->
      <g transform="translate(243.502696 213.835) scale(0.1 -0.1)">
       <defs>
        <path id="DejaVuSans-34" d="M 2419 4116 
L 825 1625 
L 2419 1625 
L 2419 4116 
z
M 2253 4666 
L 3047 4666 
L 3047 1625 
L 3713 1625 
L 3713 1100 
L 3047 1100 
L 3047 0 
L 2419 0 
L 2419 1100 
L 313 1100 
L 313 1709 
L 2253 4666 
z
" transform="scale(0.015625)"/>
       </defs>
       <use xlink:href="#DejaVuSans-34"/>
       <use xlink:href="#DejaVuSans-30" transform="translate(63.623047 0)"/>
      </g>
     </g>
    </g>
    <g id="xtick_6">
     <g id="line2d_6">
      <g>
       <use xlink:href="#m94facc6b39" x="272.210563" y="199.236563" style="stroke: #000000; stroke-width: 0.8"/>
      </g>
     </g>
     <g id="text_6">
      <!-- 50 -->
      <g transform="translate(265.848063 213.835) scale(0.1 -0.1)">
       <use xlink:href="#DejaVuSans-35"/>
       <use xlink:href="#DejaVuSans-30" transform="translate(63.623047 0)"/>
      </g>
     </g>
    </g>
    <g id="xtick_7">
     <g id="line2d_7">
      <defs>
       <path id="m55c3d80c84" d="M 0 0 
L 0 2 
" style="stroke: #000000; stroke-width: 0.6"/>
      </defs>
      <g>
       <use xlink:href="#m55c3d80c84" x="59.889545" y="199.236563" style="stroke: #000000; stroke-width: 0.6"/>
      </g>
     </g>
    </g>
    <g id="xtick_8">
     <g id="line2d_8">
      <g>
       <use xlink:href="#m55c3d80c84" x="75.326036" y="199.236563" style="stroke: #000000; stroke-width: 0.6"/>
      </g>
     </g>
    </g>
    <g id="xtick_9">
     <g id="line2d_9">
      <g>
       <use xlink:href="#m55c3d80c84" x="88.697733" y="199.236563" style="stroke: #000000; stroke-width: 0.6"/>
      </g>
     </g>
    </g>
    <g id="xtick_10">
     <g id="line2d_10">
      <g>
       <use xlink:href="#m55c3d80c84" x="100.492405" y="199.236563" style="stroke: #000000; stroke-width: 0.6"/>
      </g>
     </g>
    </g>
    <g id="text_7">
     <!-- Variance half-life (days) -->
     <g transform="translate(97.913494 227.513125) scale(0.1 -0.1)">
      <defs>
       <path id="DejaVuSans-56" d="M 1831 0 
L 50 4666 
L 709 4666 
L 2188 738 
L 3669 4666 
L 4325 4666 
L 2547 0 
L 1831 0 
z
" transform="scale(0.015625)"/>
       <path id="DejaVuSans-61" d="M 2194 1759 
Q 1497 1759 1228 1600 
Q 959 1441 959 1056 
Q 959 750 1161 570 
Q 1363 391 1709 391 
Q 2188 391 2477 730 
Q 2766 1069 2766 1631 
L 2766 1759 
L 2194 1759 
z
M 3341 1997 
L 3341 0 
L 2766 0 
L 2766 531 
Q 2569 213 2275 61 
Q 1981 -91 1556 -91 
Q 1019 -91 701 211 
Q 384 513 384 1019 
Q 384 1609 779 1909 
Q 1175 2209 1959 2209 
L 2766 2209 
L 2766 2266 
Q 2766 2663 2505 2880 
Q 2244 3097 1772 3097 
Q 1472 3097 1187 3025 
Q 903 2953 641 2809 
L 641 3341 
Q 956 3463 1253 3523 
Q 1550 3584 1831 3584 
Q 2591 3584 2966 3190 
Q 3341 2797 3341 1997 
z
" transform="scale(0.015625)"/>
       <path id="DejaVuSans-72" d="M 2631 2963 
Q 2534 3019 2420 3045 
Q 2306 3072 2169 3072 
Q 1681 3072 1420 2755 
Q 1159 2438 1159 1844 
L 1159 0 
L 581 0 
L 581 3500 
L 1159 3500 
L 1159 2956 
Q 1341 3275 1631 3429 
Q 1922 3584 2338 3584 
Q 2397 3584 2469 3576 
Q 2541 3569 2628 3553 
L 2631 2963 
z
" transform="scale(0.015625)"/>
       <path id="DejaVuSans-69" d="M 603 3500 
L 1178 3500 
L 1178 0 
L 603 0 
L 603 3500 
z
M 603 4863 
L 1178 4863 
L 1178 4134 
L 603 4134 
L 603 4863 
z
" transform="scale(0.015625)"/>
       <path id="DejaVuSans-6e" d="M 3513 2113 
L 3513 0 
L 2938 0 
L 2938 2094 
Q 2938 2591 2744 2837 
Q 2550 3084 2163 3084 
Q 1697 3084 1428 2787 
Q 1159 2491 1159 1978 
L 1159 0 
L 581 0 
L 581 3500 
L 1159 3500 
L 1159 2956 
Q 1366 3272 1645 3428 
Q 1925 3584 2291 3584 
Q 2894 3584 3203 3211 
Q 3513 2838 3513 2113 
z
" transform="scale(0.015625)"/>
       <path id="DejaVuSans-63" d="M 3122 3366 
L 3122 2828 
Q 2878 2963 2633 3030 
Q 2388 3097 2138 3097 
Q 1578 3097 1268 2742 
Q 959 2388 959 1747 
Q 959 1106 1268 751 
Q 1578 397 2138 397 
Q 2388 397 2633 464 
Q 2878 531 3122 666 
L 3122 134 
Q 2881 22 2623 -34 
Q 2366 -91 2075 -91 
Q 1284 -91 818 406 
Q 353 903 353 1747 
Q 353 2603 823 3093 
Q 1294 3584 2113 3584 
Q 2378 3584 2631 3529 
Q 2884 3475 3122 3366 
z
" transform="scale(0.015625)"/>
       <path id="DejaVuSans-65" d="M 3597 1894 
L 3597 1613 
L 953 1613 
Q 991 1019 1311 708 
Q 1631 397 2203 397 
Q 2534 397 2845 478 
Q 3156 559 3463 722 
L 3463 178 
Q 3153 47 2828 -22 
Q 2503 -91 2169 -91 
Q 1331 -91 842 396 
Q 353 884 353 1716 
Q 353 2575 817 3079 
Q 1281 3584 2069 3584 
Q 2775 3584 3186 3129 
Q 3597 2675 3597 1894 
z
M 3022 2063 
Q 3016 2534 2758 2815 
Q 2500 3097 2075 3097 
Q 1594 3097 1305 2825 
Q 1016 2553 972 2059 
L 3022 2063 
z
" transform="scale(0.015625)"/>
       <path id="DejaVuSans-20" transform="scale(0.015625)"/>
       <path id="DejaVuSans-68" d="M 3513 2113 
L 3513 0 
L 2938 0 
L 2938 2094 
Q 2938 2591 2744 2837 
Q 2550 3084 2163 3084 
Q 1697 3084 1428 2787 
Q 1159 2491 1159 1978 
L 1159 0 
L 581 0 
L 581 4863 
L 1159 4863 
L 1159 2956 
Q 1366 3272 1645 3428 
Q 1925 3584 2291 3584 
Q 2894 3584 3203 3211 
Q 3513 2838 3513 2113 
z
" transform="scale(0.015625)"/>
       <path id="DejaVuSans-6c" d="M 603 4863 
L 1178 4863 
L 1178 0 
L 603 0 
L 603 4863 
z
" transform="scale(0.015625)"/>
       <path id="DejaVuSans-66" d="M 2375 4863 
L 2375 4384 
L 1825 4384 
Q 1516 4384 1395 4259 
Q 1275 4134 1275 3809 
L 1275 3500 
L 2222 3500 
L 2222 3053 
L 1275 3053 
L 1275 0 
L 697 0 
L 697 3053 
L 147 3053 
L 147 3500 
L 697 3500 
L 697 3744 
Q 697 4328 969 4595 
Q 1241 4863 1831 4863 
L 2375 4863 
z
" transform="scale(0.015625)"/>
       <path id="DejaVuSans-2d" d="M 313 2009 
L 1997 2009 
L 1997 1497 
L 313 1497 
L 313 2009 
z
" transform="scale(0.015625)"/>
       <path id="DejaVuSans-28" d="M 1984 4856 
Q 1566 4138 1362 3434 
Q 1159 2731 1159 2009 
Q 1159 1288 1364 580 
Q 1569 -128 1984 -844 
L 1484 -844 
Q 1016 -109 783 600 
Q 550 1309 550 2009 
Q 550 2706 781 3412 
Q 1013 4119 1484 4856 
L 1984 4856 
z
" transform="scale(0.015625)"/>
       <path id="DejaVuSans-64" d="M 2906 2969 
L 2906 4863 
L 3481 4863 
L 3481 0 
L 2906 0 
L 2906 525 
Q 2725 213 2448 61 
Q 2172 -91 1784 -91 
Q 1150 -91 751 415 
Q 353 922 353 1747 
Q 353 2572 751 3078 
Q 1150 3584 1784 3584 
Q 2172 3584 2448 3432 
Q 2725 3281 2906 2969 
z
M 947 1747 
Q 947 1113 1208 752 
Q 1469 391 1925 391 
Q 2381 391 2643 752 
Q 2906 1113 2906 1747 
Q 2906 2381 2643 2742 
Q 2381 3103 1925 3103 
Q 1469 3103 1208 2742 
Q 947 2381 947 1747 
z
" transform="scale(0.015625)"/>
       <path id="DejaVuSans-79" d="M 2059 -325 
Q 1816 -950 1584 -1140 
Q 1353 -1331 966 -1331 
L 506 -1331 
L 506 -850 
L 844 -850 
Q 1081 -850 1212 -737 
Q 1344 -625 1503 -206 
L 1606 56 
L 191 3500 
L 800 3500 
L 1894 763 
L 2988 3500 
L 3597 3500 
L 2059 -325 
z
" transform="scale(0.015625)"/>
       <path id="DejaVuSans-73" d="M 2834 3397 
L 2834 2853 
Q 2591 2978 2328 3040 
Q 2066 3103 1784 3103 
Q 1356 3103 1142 2972 
Q 928 2841 928 2578 
Q 928 2378 1081 2264 
Q 1234 2150 1697 2047 
L 1894 2003 
Q 2506 1872 2764 1633 
Q 3022 1394 3022 966 
Q 3022 478 2636 193 
Q 2250 -91 1575 -91 
Q 1294 -91 989 -36 
Q 684 19 347 128 
L 347 722 
Q 666 556 975 473 
Q 1284 391 1588 391 
Q 1994 391 2212 530 
Q 2431 669 2431 922 
Q 2431 1156 2273 1281 
Q 2116 1406 1581 1522 
L 1381 1569 
Q 847 1681 609 1914 
Q 372 2147 372 2553 
Q 372 3047 722 3315 
Q 1072 3584 1716 3584 
Q 2034 3584 2315 3537 
Q 2597 3491 2834 3397 
z
" transform="scale(0.015625)"/>
       <path id="DejaVuSans-29" d="M 513 4856 
L 1013 4856 
Q 1481 4119 1714 3412 
Q 1947 2706 1947 2009 
Q 1947 1309 1714 600 
Q 1481 -109 1013 -844 
L 513 -844 
Q 928 -128 1133 580 
Q 1338 1288 1338 2009 
Q 1338 2731 1133 3434 
Q 928 4138 513 4856 
z
" transform="scale(0.015625)"/>
      </defs>
      <use xlink:href="#DejaVuSans-56"/>
      <use xlink:href="#DejaVuSans-61" transform="translate(60.658203 0)"/>
      <use xlink:href="#DejaVuSans-72" transform="translate(121.9375 0)"/>
      <use xlink:href="#DejaVuSans-69" transform="translate(163.050781 0)"/>
      <use xlink:href="#DejaVuSans-61" transform="translate(190.833984 0)"/>
      <use xlink:href="#DejaVuSans-6e" transform="translate(252.113281 0)"/>
      <use xlink:href="#DejaVuSans-63" transform="translate(315.492188 0)"/>
      <use xlink:href="#DejaVuSans-65" transform="translate(370.472656 0)"/>
      <use xlink:href="#DejaVuSans-20" transform="translate(431.996094 0)"/>
      <use xlink:href="#DejaVuSans-68" transform="translate(463.783203 0)"/>
      <use xlink:href="#DejaVuSans-61" transform="translate(527.162109 0)"/>
      <use xlink:href="#DejaVuSans-6c" transform="translate(588.441406 0)"/>
      <use xlink:href="#DejaVuSans-66" transform="translate(616.224609 0)"/>
      <use xlink:href="#DejaVuSans-2d" transform="translate(645.929688 0)"/>
      <use xlink:href="#DejaVuSans-6c" transform="translate(682.013672 0)"/>
      <use xlink:href="#DejaVuSans-69" transform="translate(709.796875 0)"/>
      <use xlink:href="#DejaVuSans-66" transform="translate(737.580078 0)"/>
      <use xlink:href="#DejaVuSans-65" transform="translate(772.785156 0)"/>
      <use xlink:href="#DejaVuSans-20" transform="translate(834.308594 0)"/>
      <use xlink:href="#DejaVuSans-28" transform="translate(866.095703 0)"/>
      <use xlink:href="#DejaVuSans-64" transform="translate(905.109375 0)"/>
      <use xlink:href="#DejaVuSans-61" transform="translate(968.585938 0)"/>
      <use xlink:href="#DejaVuSans-79" transform="translate(1029.865234 0)"/>
      <use xlink:href="#DejaVuSans-73" transform="translate(1089.044922 0)"/>
      <use xlink:href="#DejaVuSans-29" transform="translate(1141.144531 0)"/>
     </g>
    </g>
   </g>
   <g id="matplotlib.axis_2">
    <g id="ytick_1">
     <g id="line2d_11">
      <defs>
       <path id="m486167c36c" d="M 0 0 
L -3.5 0 
" style="stroke: #000000; stroke-width: 0.8"/>
      </defs>
      <g>
       <use xlink:href="#m486167c36c" x="30.103125" y="182.263117" style="stroke: #000000; stroke-width: 0.8"/>
      </g>
     </g>
     <g id="text_8">
      <!-- 5.0 -->
      <g transform="translate(7.2 186.062336) scale(0.1 -0.1)">
       <defs>
        <path id="DejaVuSans-2e" d="M 684 794 
L 1344 794 
L 1344 0 
L 684 0 
L 684 794 
z
" transform="scale(0.015625)"/>
       </defs>
       <use xlink:href="#DejaVuSans-35"/>
       <use xlink:href="#DejaVuSans-2e" transform="translate(63.623047 0)"/>
       <use xlink:href="#DejaVuSans-30" transform="translate(95.410156 0)"/>
      </g>
     </g>
    </g>
    <g id="ytick_2">
     <g id="line2d_12">
      <g>
       <use xlink:href="#m486167c36c" x="30.103125" y="160.944823" style="stroke: #000000; stroke-width: 0.8"/>
      </g>
     </g>
     <g id="text_9">
      <!-- 5.1 -->
      <g transform="translate(7.2 164.744042) scale(0.1 -0.1)">
       <use xlink:href="#DejaVuSans-35"/>
       <use xlink:href="#DejaVuSans-2e" transform="translate(63.623047 0)"/>
       <use xlink:href="#DejaVuSans-31" transform="translate(95.410156 0)"/>
      </g>
     </g>
    </g>
    <g id="ytick_3">
     <g id="line2d_13">
      <g>
       <use xlink:href="#m486167c36c" x="30.103125" y="139.626529" style="stroke: #000000; stroke-width: 0.8"/>
      </g>
     </g>
     <g id="text_10">
      <!-- 5.2 -->
      <g transform="translate(7.2 143.425748) scale(0.1 -0.1)">
       <use xlink:href="#DejaVuSans-35"/>
       <use xlink:href="#DejaVuSans-2e" transform="translate(63.623047 0)"/>
       <use xlink:href="#DejaVuSans-32" transform="translate(95.410156 0)"/>
      </g>
     </g>
    </g>
    <g id="ytick_4">
     <g id="line2d_14">
      <g>
       <use xlink:href="#m486167c36c" x="30.103125" y="118.308235" style="stroke: #000000; stroke-width: 0.8"/>
      </g>
     </g>
     <g id="text_11">
      <!-- 5.3 -->
      <g transform="translate(7.2 122.107454) scale(0.1 -0.1)">
       <use xlink:href="#DejaVuSans-35"/>
       <use xlink:href="#DejaVuSans-2e" transform="translate(63.623047 0)"/>
       <use xlink:href="#DejaVuSans-33" transform="translate(95.410156 0)"/>
      </g>
     </g>
    </g>
    <g id="ytick_5">
     <g id="line2d_15">
      <g>
       <use xlink:href="#m486167c36c" x="30.103125" y="96.989941" style="stroke: #000000; stroke-width: 0.8"/>
      </g>
     </g>
     <g id="text_12">
      <!-- 5.4 -->
      <g transform="translate(7.2 100.78916) scale(0.1 -0.1)">
       <use xlink:href="#DejaVuSans-35"/>
       <use xlink:href="#DejaVuSans-2e" transform="translate(63.623047 0)"/>
       <use xlink:href="#DejaVuSans-34" transform="translate(95.410156 0)"/>
      </g>
     </g>
    </g>
    <g id="ytick_6">
     <g id="line2d_16">
      <g>
       <use xlink:href="#m486167c36c" x="30.103125" y="75.671647" style="stroke: #000000; stroke-width: 0.8"/>
      </g>
     </g>
     <g id="text_13">
      <!-- 5.5 -->
      <g transform="translate(7.2 79.470866) scale(0.1 -0.1)">
       <use xlink:href="#DejaVuSans-35"/>
       <use xlink:href="#DejaVuSans-2e" transform="translate(63.623047 0)"/>
       <use xlink:href="#DejaVuSans-35" transform="translate(95.410156 0)"/>
      </g>
     </g>
    </g>
    <g id="ytick_7">
     <g id="line2d_17">
      <g>
       <use xlink:href="#m486167c36c" x="30.103125" y="54.353353" style="stroke: #000000; stroke-width: 0.8"/>
      </g>
     </g>
     <g id="text_14">
      <!-- 5.6 -->
      <g transform="translate(7.2 58.152572) scale(0.1 -0.1)">
       <defs>
        <path id="DejaVuSans-36" d="M 2113 2584 
Q 1688 2584 1439 2293 
Q 1191 2003 1191 1497 
Q 1191 994 1439 701 
Q 1688 409 2113 409 
Q 2538 409 2786 701 
Q 3034 994 3034 1497 
Q 3034 2003 2786 2293 
Q 2538 2584 2113 2584 
z
M 3366 4563 
L 3366 3988 
Q 3128 4100 2886 4159 
Q 2644 4219 2406 4219 
Q 1781 4219 1451 3797 
Q 1122 3375 1075 2522 
Q 1259 2794 1537 2939 
Q 1816 3084 2150 3084 
Q 2853 3084 3261 2657 
Q 3669 2231 3669 1497 
Q 3669 778 3244 343 
Q 2819 -91 2113 -91 
Q 1303 -91 875 529 
Q 447 1150 447 2328 
Q 447 3434 972 4092 
Q 1497 4750 2381 4750 
Q 2619 4750 2861 4703 
Q 3103 4656 3366 4563 
z
" transform="scale(0.015625)"/>
       </defs>
       <use xlink:href="#DejaVuSans-35"/>
       <use xlink:href="#DejaVuSans-2e" transform="translate(63.623047 0)"/>
       <use xlink:href="#DejaVuSans-36" transform="translate(95.410156 0)"/>
      </g>
     </g>
    </g>
    <g id="ytick_8">
     <g id="line2d_18">
      <g>
       <use xlink:href="#m486167c36c" x="30.103125" y="33.035059" style="stroke: #000000; stroke-width: 0.8"/>
      </g>
     </g>
     <g id="text_15">
      <!-- 5.7 -->
      <g transform="translate(7.2 36.834278) scale(0.1 -0.1)">
       <defs>
        <path id="DejaVuSans-37" d="M 525 4666 
L 3525 4666 
L 3525 4397 
L 1831 0 
L 1172 0 
L 2766 4134 
L 525 4134 
L 525 4666 
z
" transform="scale(0.015625)"/>
       </defs>
       <use xlink:href="#DejaVuSans-35"/>
       <use xlink:href="#DejaVuSans-2e" transform="translate(63.623047 0)"/>
       <use xlink:href="#DejaVuSans-37" transform="translate(95.410156 0)"/>
      </g>
     </g>
    </g>
    <g id="text_16">
     <!-- 1e−5 -->
     <g transform="translate(30.103125 29.916562) scale(0.1 -0.1)">
      <defs>
       <path id="DejaVuSans-2212" d="M 678 2272 
L 4684 2272 
L 4684 1741 
L 678 1741 
L 678 2272 
z
" transform="scale(0.015625)"/>
      </defs>
      <use xlink:href="#DejaVuSans-31"/>
      <use xlink:href="#DejaVuSans-65" transform="translate(63.623047 0)"/>
      <use xlink:href="#DejaVuSans-2212" transform="translate(125.146484 0)"/>
      <use xlink:href="#DejaVuSans-35" transform="translate(208.935547 0)"/>
     </g>
    </g>
   </g>
   <g id="line2d_19">
    <path d="M 41.632051 40.476562 
L 53.767762 61.70956 
L 65.903473 82.780119 
L 78.039184 101.724387 
L 90.174895 119.551227 
L 102.310607 136.148523 
L 114.446318 153.717175 
L 126.582029 163.342831 
L 138.71774 172.031736 
L 150.853451 179.900051 
L 162.989162 187.552067 
L 175.124874 189.801903 
L 187.260585 188.821545 
L 199.396296 185.57631 
L 211.532007 178.317789 
L 223.667718 174.651946 
L 235.803429 175.17778 
L 247.939141 172.677635 
L 260.074852 172.606465 
L 272.210563 173.643904 
" clip-path="url(#p30e3de8258)" style="fill: none; stroke-dasharray: 7.4,3.2; stroke-dashoffset: 0; stroke: #000000; stroke-opacity: 0.25; stroke-width: 2"/>
   </g>
   <g id="line2d_20">
    <path d="M 41.632051 111.434126 
L 53.767762 122.436254 
L 65.903473 131.561897 
L 78.039184 136.566778 
L 90.174895 140.464657 
L 102.310607 145.590318 
L 114.446318 150.143912 
L 126.582029 154.078518 
L 138.71774 155.272654 
L 150.853451 156.456522 
L 162.989162 156.464411 
L 175.124874 155.434997 
L 187.260585 152.023613 
L 199.396296 147.401455 
L 211.532007 143.233205 
L 223.667718 137.117494 
L 235.803429 130.483748 
L 247.939141 124.624092 
L 260.074852 116.660079 
L 272.210563 107.717888 
" clip-path="url(#p30e3de8258)" style="fill: none; stroke: #1f77b4; stroke-width: 1.5; stroke-linecap: square"/>
   </g>
   <g id="line2d_21">
    <path d="M 41.632051 124.958448 
L 53.767762 135.504381 
L 65.903473 147.022885 
L 78.039184 157.57606 
L 90.174895 165.914087 
L 102.310607 172.059133 
L 114.446318 178.218509 
L 126.582029 182.586151 
L 138.71774 186.513337 
L 150.853451 188.862241 
L 162.989162 190.323363 
L 175.124874 190.282899 
L 187.260585 188.298472 
L 199.396296 182.85767 
L 211.532007 175.775478 
L 223.667718 171.926784 
L 235.803429 167.020242 
L 247.939141 158.946507 
L 260.074852 150.984311 
L 272.210563 143.274368 
" clip-path="url(#p30e3de8258)" style="fill: none; stroke: #ff7f0e; stroke-width: 1.5; stroke-linecap: square"/>
   </g>
   <g id="line2d_22">
    <path d="M 41.632051 121.031514 
L 53.767762 134.591709 
L 65.903473 146.431954 
L 78.039184 158.369072 
L 90.174895 166.090075 
L 102.310607 172.072103 
L 114.446318 177.507542 
L 126.582029 183.210478 
L 138.71774 188.145267 
L 150.853451 189.911354 
L 162.989162 190.674015 
L 175.124874 191.346003 
L 187.260585 191.676563 
L 199.396296 190.177175 
L 211.532007 189.371463 
L 223.667718 186.527928 
L 235.803429 183.881453 
L 247.939141 182.192002 
L 260.074852 178.25129 
L 272.210563 175.000477 
" clip-path="url(#p30e3de8258)" style="fill: none; stroke: #2ca02c; stroke-width: 1.5; stroke-linecap: square"/>
   </g>
   <g id="patch_3">
    <path d="M 30.103125 199.236563 
L 30.103125 32.916563 
" style="fill: none; stroke: #000000; stroke-width: 0.8; stroke-linejoin: miter; stroke-linecap: square"/>
   </g>
   <g id="patch_4">
    <path d="M 283.739489 199.236563 
L 283.739489 32.916563 
" style="fill: none; stroke: #000000; stroke-width: 0.8; stroke-linejoin: miter; stroke-linecap: square"/>
   </g>
   <g id="patch_5">
    <path d="M 30.103125 199.236563 
L 283.739489 199.236563 
" style="fill: none; stroke: #000000; stroke-width: 0.8; stroke-linejoin: miter; stroke-linecap: square"/>
   </g>
   <g id="patch_6">
    <path d="M 30.103125 32.916562 
L 283.739489 32.916562 
" style="fill: none; stroke: #000000; stroke-width: 0.8; stroke-linejoin: miter; stroke-linecap: square"/>
   </g>
   <g id="text_17">
    <!-- Variance of the minimum-variance portfolio -->
    <g transform="translate(26.345369 16.318125) scale(0.12 -0.12)">
     <defs>
      <path id="DejaVuSans-6f" d="M 1959 3097 
Q 1497 3097 1228 2736 
Q 959 2375 959 1747 
Q 959 1119 1226 758 
Q 1494 397 1959 397 
Q 2419 397 2687 759 
Q 2956 1122 2956 1747 
Q 2956 2369 2687 2733 
Q 2419 3097 1959 3097 
z
M 1959 3584 
Q 2709 3584 3137 3096 
Q 3566 2609 3566 1747 
Q 3566 888 3137 398 
Q 2709 -91 1959 -91 
Q 1206 -91 779 398 
Q 353 888 353 1747 
Q 353 2609 779 3096 
Q 1206 3584 1959 3584 
z
" transform="scale(0.015625)"/>
      <path id="DejaVuSans-74" d="M 1172 4494 
L 1172 3500 
L 2356 3500 
L 2356 3053 
L 1172 3053 
L 1172 1153 
Q 1172 725 1289 603 
Q 1406 481 1766 481 
L 2356 481 
L 2356 0 
L 1766 0 
Q 1100 0 847 248 
Q 594 497 594 1153 
L 594 3053 
L 172 3053 
L 172 3500 
L 594 3500 
L 594 4494 
L 1172 4494 
z
" transform="scale(0.015625)"/>
      <path id="DejaVuSans-6d" d="M 3328 2828 
Q 3544 3216 3844 3400 
Q 4144 3584 4550 3584 
Q 5097 3584 5394 3201 
Q 5691 2819 5691 2113 
L 5691 0 
L 5113 0 
L 5113 2094 
Q 5113 2597 4934 2840 
Q 4756 3084 4391 3084 
Q 3944 3084 3684 2787 
Q 3425 2491 3425 1978 
L 3425 0 
L 2847 0 
L 2847 2094 
Q 2847 2600 2669 2842 
Q 2491 3084 2119 3084 
Q 1678 3084 1418 2786 
Q 1159 2488 1159 1978 
L 1159 0 
L 581 0 
L 581 3500 
L 1159 3500 
L 1159 2956 
Q 1356 3278 1631 3431 
Q 1906 3584 2284 3584 
Q 2666 3584 2933 3390 
Q 3200 3197 3328 2828 
z
" transform="scale(0.015625)"/>
      <path id="DejaVuSans-75" d="M 544 1381 
L 544 3500 
L 1119 3500 
L 1119 1403 
Q 1119 906 1312 657 
Q 1506 409 1894 409 
Q 2359 409 2629 706 
Q 2900 1003 2900 1516 
L 2900 3500 
L 3475 3500 
L 3475 0 
L 2900 0 
L 2900 538 
Q 2691 219 2414 64 
Q 2138 -91 1772 -91 
Q 1169 -91 856 284 
Q 544 659 544 1381 
z
M 1991 3584 
L 1991 3584 
z
" transform="scale(0.015625)"/>
      <path id="DejaVuSans-76" d="M 191 3500 
L 800 3500 
L 1894 563 
L 2988 3500 
L 3597 3500 
L 2284 0 
L 1503 0 
L 191 3500 
z
" transform="scale(0.015625)"/>
      <path id="DejaVuSans-70" d="M 1159 525 
L 1159 -1331 
L 581 -1331 
L 581 3500 
L 1159 3500 
L 1159 2969 
Q 1341 3281 1617 3432 
Q 1894 3584 2278 3584 
Q 2916 3584 3314 3078 
Q 3713 2572 3713 1747 
Q 3713 922 3314 415 
Q 2916 -91 2278 -91 
Q 1894 -91 1617 61 
Q 1341 213 1159 525 
z
M 3116 1747 
Q 3116 2381 2855 2742 
Q 2594 3103 2138 3103 
Q 1681 3103 1420 2742 
Q 1159 2381 1159 1747 
Q 1159 1113 1420 752 
Q 1681 391 2138 391 
Q 2594 391 2855 752 
Q 3116 1113 3116 1747 
z
" transform="scale(0.015625)"/>
     </defs>
     <use xlink:href="#DejaVuSans-56"/>
     <use xlink:href="#DejaVuSans-61" transform="translate(60.658203 0)"/>
     <use xlink:href="#DejaVuSans-72" transform="translate(121.9375 0)"/>
     <use xlink:href="#DejaVuSans-69" transform="translate(163.050781 0)"/>
     <use xlink:href="#DejaVuSans-61" transform="translate(190.833984 0)"/>
     <use xlink:href="#DejaVuSans-6e" transform="translate(252.113281 0)"/>
     <use xlink:href="#DejaVuSans-63" transform="translate(315.492188 0)"/>
     <use xlink:href="#DejaVuSans-65" transform="translate(370.472656 0)"/>
     <use xlink:href="#DejaVuSans-20" transform="translate(431.996094 0)"/>
     <use xlink:href="#DejaVuSans-6f" transform="translate(463.783203 0)"/>
     <use xlink:href="#DejaVuSans-66" transform="translate(524.964844 0)"/>
     <use xlink:href="#DejaVuSans-20" transform="translate(560.169922 0)"/>
     <use xlink:href="#DejaVuSans-74" transform="translate(591.957031 0)"/>
     <use xlink:href="#DejaVuSans-68" transform="translate(631.166016 0)"/>
     <use xlink:href="#DejaVuSans-65" transform="translate(694.544922 0)"/>
     <use xlink:href="#DejaVuSans-20" transform="translate(756.068359 0)"/>
     <use xlink:href="#DejaVuSans-6d" transform="translate(787.855469 0)"/>
     <use xlink:href="#DejaVuSans-69" transform="translate(885.267578 0)"/>
     <use xlink:href="#DejaVuSans-6e" transform="translate(913.050781 0)"/>
     <use xlink:href="#DejaVuSans-69" transform="translate(976.429688 0)"/>
     <use xlink:href="#DejaVuSans-6d" transform="translate(1004.212891 0)"/>
     <use xlink:href="#DejaVuSans-75" transform="translate(1101.625 0)"/>
     <use xlink:href="#DejaVuSans-6d" transform="translate(1165.003906 0)"/>
     <use xlink:href="#DejaVuSans-2d" transform="translate(1262.416016 0)"/>
     <use xlink:href="#DejaVuSans-76" transform="translate(1295.875 0)"/>
     <use xlink:href="#DejaVuSans-61" transform="translate(1355.054688 0)"/>
     <use xlink:href="#DejaVuSans-72" transform="translate(1416.333984 0)"/>
     <use xlink:href="#DejaVuSans-69" transform="translate(1457.447266 0)"/>
     <use xlink:href="#DejaVuSans-61" transform="translate(1485.230469 0)"/>
     <use xlink:href="#DejaVuSans-6e" transform="translate(1546.509766 0)"/>
     <use xlink:href="#DejaVuSans-63" transform="translate(1609.888672 0)"/>
     <use xlink:href="#DejaVuSans-65" transform="translate(1664.869141 0)"/>
     <use xlink:href="#DejaVuSans-20" transform="translate(1726.392578 0)"/>
     <use xlink:href="#DejaVuSans-70" transform="translate(1758.179688 0)"/>
     <use xlink:href="#DejaVuSans-6f" transform="translate(1821.65625 0)"/>
     <use xlink:href="#DejaVuSans-72" transform="translate(1882.837891 0)"/>
     <use xlink:href="#DejaVuSans-74" transform="translate(1923.951172 0)"/>
     <use xlink:href="#DejaVuSans-66" transform="translate(1963.160156 0)"/>
     <use xlink:href="#DejaVuSans-6f" transform="translate(1998.365234 0)"/>
     <use xlink:href="#DejaVuSans-6c" transform="translate(2059.546875 0)"/>
     <use xlink:href="#DejaVuSans-69" transform="translate(2087.330078 0)"/>
     <use xlink:href="#DejaVuSans-6f" transform="translate(2115.113281 0)"/>
    </g>
   </g>
   <g id="legend_1">
    <g id="patch_7">
     <path d="M 232.014489 99.907188 
L 276.739489 99.907188 
Q 278.739489 99.907188 278.739489 97.907188 
L 278.739489 39.916562 
Q 278.739489 37.916562 276.739489 37.916562 
L 232.014489 37.916562 
Q 230.014489 37.916562 230.014489 39.916562 
L 230.014489 97.907188 
Q 230.014489 99.907188 232.014489 99.907188 
z
" style="fill: #ffffff; opacity: 0.8; stroke: #cccccc; stroke-linejoin: miter"/>
    </g>
    <g id="text_18">
     <!-- corr_hl -->
     <g transform="translate(237.487145 49.515) scale(0.1 -0.1)">
      <defs>
       <path id="DejaVuSans-5f" d="M 3263 -1063 
L 3263 -1509 
L -63 -1509 
L -63 -1063 
L 3263 -1063 
z
" transform="scale(0.015625)"/>
      </defs>
      <use xlink:href="#DejaVuSans-63"/>
      <use xlink:href="#DejaVuSans-6f" transform="translate(54.980469 0)"/>
      <use xlink:href="#DejaVuSans-72" transform="translate(116.162109 0)"/>
      <use xlink:href="#DejaVuSans-72" transform="translate(155.525391 0)"/>
      <use xlink:href="#DejaVuSans-5f" transform="translate(196.638672 0)"/>
      <use xlink:href="#DejaVuSans-68" transform="translate(246.638672 0)"/>
      <use xlink:href="#DejaVuSans-6c" transform="translate(310.017578 0)"/>
     </g>
    </g>
    <g id="line2d_23">
     <path d="M 234.014489 60.97125 
L 244.014489 60.97125 
L 254.014489 60.97125 
" style="fill: none; stroke: #1f77b4; stroke-width: 1.5; stroke-linecap: square"/>
    </g>
    <g id="text_19">
     <!-- 10 -->
     <g transform="translate(262.014489 64.47125) scale(0.1 -0.1)">
      <use xlink:href="#DejaVuSans-31"/>
      <use xlink:href="#DejaVuSans-30" transform="translate(63.623047 0)"/>
     </g>
    </g>
    <g id="line2d_24">
     <path d="M 234.014489 75.649375 
L 244.014489 75.649375 
L 254.014489 75.649375 
" style="fill: none; stroke: #ff7f0e; stroke-width: 1.5; stroke-linecap: square"/>
    </g>
    <g id="text_20">
     <!-- 20 -->
     <g transform="translate(262.014489 79.149375) scale(0.1 -0.1)">
      <use xlink:href="#DejaVuSans-32"/>
      <use xlink:href="#DejaVuSans-30" transform="translate(63.623047 0)"/>
     </g>
    </g>
    <g id="line2d_25">
     <path d="M 234.014489 90.3275 
L 244.014489 90.3275 
L 254.014489 90.3275 
" style="fill: none; stroke: #2ca02c; stroke-width: 1.5; stroke-linecap: square"/>
    </g>
    <g id="text_21">
     <!-- 60 -->
     <g transform="translate(262.014489 93.8275) scale(0.1 -0.1)">
      <use xlink:href="#DejaVuSans-36"/>
      <use xlink:href="#DejaVuSans-30" transform="translate(63.623047 0)"/>
     </g>
    </g>
   </g>
  </g>
  <g id="axes_2">
   <g id="patch_8">
    <path d="M 334.466761 199.236563 
L 588.103125 199.236563 
L 588.103125 32.916562 
L 334.466761 32.916562 
L 334.466761 199.236563 
z
" style="fill: none"/>
   </g>
   <g id="matplotlib.axis_3">
    <g id="xtick_11">
     <g id="line2d_26">
      <g>
       <use xlink:href="#m94facc6b39" x="345.995687" y="199.236563" style="stroke: #000000; stroke-width: 0.8"/>
      </g>
     </g>
     <g id="text_22">
      <!-- 5 -->
      <g transform="translate(342.814437 213.835) scale(0.1 -0.1)">
       <use xlink:href="#DejaVuSans-35"/>
      </g>
     </g>
    </g>
    <g id="xtick_12">
     <g id="line2d_27">
      <g>
       <use xlink:href="#m94facc6b39" x="415.406736" y="199.236563" style="stroke: #000000; stroke-width: 0.8"/>
      </g>
     </g>
     <g id="text_23">
      <!-- 10 -->
      <g transform="translate(409.044236 213.835) scale(0.1 -0.1)">
       <use xlink:href="#DejaVuSans-31"/>
       <use xlink:href="#DejaVuSans-30" transform="translate(63.623047 0)"/>
      </g>
     </g>
    </g>
    <g id="xtick_13">
     <g id="line2d_28">
      <g>
       <use xlink:href="#m94facc6b39" x="484.817784" y="199.236563" style="stroke: #000000; stroke-width: 0.8"/>
      </g>
     </g>
     <g id="text_24">
      <!-- 20 -->
      <g transform="translate(478.455284 213.835) scale(0.1 -0.1)">
       <use xlink:href="#DejaVuSans-32"/>
       <use xlink:href="#DejaVuSans-30" transform="translate(63.623047 0)"/>
      </g>
     </g>
    </g>
    <g id="xtick_14">
     <g id="line2d_29">
      <g>
       <use xlink:href="#m94facc6b39" x="525.420645" y="199.236563" style="stroke: #000000; stroke-width: 0.8"/>
      </g>
     </g>
     <g id="text_25">
      <!-- 30 -->
      <g transform="translate(519.058145 213.835) scale(0.1 -0.1)">
       <use xlink:href="#DejaVuSans-33"/>
       <use xlink:href="#DejaVuSans-30" transform="translate(63.623047 0)"/>
      </g>
     </g>
    </g>
    <g id="xtick_15">
     <g id="line2d_30">
      <g>
       <use xlink:href="#m94facc6b39" x="554.228833" y="199.236563" style="stroke: #000000; stroke-width: 0.8"/>
      </g>
     </g>
     <g id="text_26">
      <!-- 40 -->
      <g transform="translate(547.866333 213.835) scale(0.1 -0.1)">
       <use xlink:href="#DejaVuSans-34"/>
       <use xlink:href="#DejaVuSans-30" transform="translate(63.623047 0)"/>
      </g>
     </g>
    </g>
    <g id="xtick_16">
     <g id="line2d_31">
      <g>
       <use xlink:href="#m94facc6b39" x="576.574199" y="199.236563" style="stroke: #000000; stroke-width: 0.8"/>
      </g>
     </g>
     <g id="text_27">
      <!-- 50 -->
      <g transform="translate(570.211699 213.835) scale(0.1 -0.1)">
       <use xlink:href="#DejaVuSans-35"/>
       <use xlink:href="#DejaVuSans-30" transform="translate(63.623047 0)"/>
      </g>
     </g>
    </g>
    <g id="xtick_17">
     <g id="line2d_32">
      <g>
       <use xlink:href="#m55c3d80c84" x="364.253181" y="199.236563" style="stroke: #000000; stroke-width: 0.6"/>
      </g>
     </g>
    </g>
    <g id="xtick_18">
     <g id="line2d_33">
      <g>
       <use xlink:href="#m55c3d80c84" x="379.689672" y="199.236563" style="stroke: #000000; stroke-width: 0.6"/>
      </g>
     </g>
    </g>
    <g id="xtick_19">
     <g id="line2d_34">
      <g>
       <use xlink:href="#m55c3d80c84" x="393.061369" y="199.236563" style="stroke: #000000; stroke-width: 0.6"/>
      </g>
     </g>
    </g>
    <g id="xtick_20">
     <g id="line2d_35">
      <g>
       <use xlink:href="#m55c3d80c84" x="404.856041" y="199.236563" style="stroke: #000000; stroke-width: 0.6"/>
      </g>
     </g>
    </g>
    <g id="text_28">
     <!-- Variance half-life (days) -->
     <g transform="translate(402.277131 227.513125) scale(0.1 -0.1)">
      <use xlink:href="#DejaVuSans-56"/>
      <use xlink:href="#DejaVuSans-61" transform="translate(60.658203 0)"/>
      <use xlink:href="#DejaVuSans-72" transform="translate(121.9375 0)"/>
      <use xlink:href="#DejaVuSans-69" transform="translate(163.050781 0)"/>
      <use xlink:href="#DejaVuSans-61" transform="translate(190.833984 0)"/>
      <use xlink:href="#DejaVuSans-6e" transform="translate(252.113281 0)"/>
      <use xlink:href="#DejaVuSans-63" transform="translate(315.492188 0)"/>
      <use xlink:href="#DejaVuSans-65" transform="translate(370.472656 0)"/>
      <use xlink:href="#DejaVuSans-20" transform="translate(431.996094 0)"/>
      <use xlink:href="#DejaVuSans-68" transform="translate(463.783203 0)"/>
      <use xlink:href="#DejaVuSans-61" transform="translate(527.162109 0)"/>
      <use xlink:href="#DejaVuSans-6c" transform="translate(588.441406 0)"/>
      <use xlink:href="#DejaVuSans-66" transform="translate(616.224609 0)"/>
      <use xlink:href="#DejaVuSans-2d" transform="translate(645.929688 0)"/>
      <use xlink:href="#DejaVuSans-6c" transform="translate(682.013672 0)"/>
      <use xlink:href="#DejaVuSans-69" transform="translate(709.796875 0)"/>
      <use xlink:href="#DejaVuSans-66" transform="translate(737.580078 0)"/>
      <use xlink:href="#DejaVuSans-65" transform="translate(772.785156 0)"/>
      <use xlink:href="#DejaVuSans-20" transform="translate(834.308594 0)"/>
      <use xlink:href="#DejaVuSans-28" transform="translate(866.095703 0)"/>
      <use xlink:href="#DejaVuSans-64" transform="translate(905.109375 0)"/>
      <use xlink:href="#DejaVuSans-61" transform="translate(968.585938 0)"/>
      <use xlink:href="#DejaVuSans-79" transform="translate(1029.865234 0)"/>
      <use xlink:href="#DejaVuSans-73" transform="translate(1089.044922 0)"/>
      <use xlink:href="#DejaVuSans-29" transform="translate(1141.144531 0)"/>
     </g>
    </g>
   </g>
   <g id="matplotlib.axis_4">
    <g id="ytick_9">
     <g id="line2d_36">
      <g>
       <use xlink:href="#m486167c36c" x="334.466761" y="190.960141" style="stroke: #000000; stroke-width: 0.8"/>
      </g>
     </g>
     <g id="text_29">
      <!-- −33.0 -->
      <g transform="translate(296.821449 194.75936) scale(0.1 -0.1)">
       <use xlink:href="#DejaVuSans-2212"/>
       <use xlink:href="#DejaVuSans-33" transform="translate(83.789062 0)"/>
       <use xlink:href="#DejaVuSans-33" transform="translate(147.412109 0)"/>
       <use xlink:href="#DejaVuSans-2e" transform="translate(211.035156 0)"/>
       <use xlink:href="#DejaVuSans-30" transform="translate(242.822266 0)"/>
      </g>
     </g>
    </g>
    <g id="ytick_10">
     <g id="line2d_37">
      <g>
       <use xlink:href="#m486167c36c" x="334.466761" y="155.633657" style="stroke: #000000; stroke-width: 0.8"/>
      </g>
     </g>
     <g id="text_30">
      <!-- −32.8 -->
      <g transform="translate(296.821449 159.432876) scale(0.1 -0.1)">
       <defs>
        <path id="DejaVuSans-38" d="M 2034 2216 
Q 1584 2216 1326 1975 
Q 1069 1734 1069 1313 
Q 1069 891 1326 650 
Q 1584 409 2034 409 
Q 2484 409 2743 651 
Q 3003 894 3003 1313 
Q 3003 1734 2745 1975 
Q 2488 2216 2034 2216 
z
M 1403 2484 
Q 997 2584 770 2862 
Q 544 3141 544 3541 
Q 544 4100 942 4425 
Q 1341 4750 2034 4750 
Q 2731 4750 3128 4425 
Q 3525 4100 3525 3541 
Q 3525 3141 3298 2862 
Q 3072 2584 2669 2484 
Q 3125 2378 3379 2068 
Q 3634 1759 3634 1313 
Q 3634 634 3220 271 
Q 2806 -91 2034 -91 
Q 1263 -91 848 271 
Q 434 634 434 1313 
Q 434 1759 690 2068 
Q 947 2378 1403 2484 
z
M 1172 3481 
Q 1172 3119 1398 2916 
Q 1625 2713 2034 2713 
Q 2441 2713 2670 2916 
Q 2900 3119 2900 3481 
Q 2900 3844 2670 4047 
Q 2441 4250 2034 4250 
Q 1625 4250 1398 4047 
Q 1172 3844 1172 3481 
z
" transform="scale(0.015625)"/>
       </defs>
       <use xlink:href="#DejaVuSans-2212"/>
       <use xlink:href="#DejaVuSans-33" transform="translate(83.789062 0)"/>
       <use xlink:href="#DejaVuSans-32" transform="translate(147.412109 0)"/>
       <use xlink:href="#DejaVuSans-2e" transform="translate(211.035156 0)"/>
       <use xlink:href="#DejaVuSans-38" transform="translate(242.822266 0)"/>
      </g>
     </g>
    </g>
    <g id="ytick_11">
     <g id="line2d_38">
      <g>
       <use xlink:href="#m486167c36c" x="334.466761" y="120.307173" style="stroke: #000000; stroke-width: 0.8"/>
      </g>
     </g>
     <g id="text_31">
      <!-- −32.6 -->
      <g transform="translate(296.821449 124.106391) scale(0.1 -0.1)">
       <use xlink:href="#DejaVuSans-2212"/>
       <use xlink:href="#DejaVuSans-33" transform="translate(83.789062 0)"/>
       <use xlink:href="#DejaVuSans-32" transform="translate(147.412109 0)"/>
       <use xlink:href="#DejaVuSans-2e" transform="translate(211.035156 0)"/>
       <use xlink:href="#DejaVuSans-36" transform="translate(242.822266 0)"/>
      </g>
     </g>
    </g>
    <g id="ytick_12">
     <g id="line2d_39">
      <g>
       <use xlink:href="#m486167c36c" x="334.466761" y="84.980688" style="stroke: #000000; stroke-width: 0.8"/>
      </g>
     </g>
     <g id="text_32">
      <!-- −32.4 -->
      <g transform="translate(296.821449 88.779907) scale(0.1 -0.1)">
       <use xlink:href="#DejaVuSans-2212"/>
       <use xlink:href="#DejaVuSans-33" transform="translate(83.789062 0)"/>
       <use xlink:href="#DejaVuSans-32" transform="translate(147.412109 0)"/>
       <use xlink:href="#DejaVuSans-2e" transform="translate(211.035156 0)"/>
       <use xlink:href="#DejaVuSans-34" transform="translate(242.822266 0)"/>
      </g>
     </g>
    </g>
    <g id="ytick_13">
     <g id="line2d_40">
      <g>
       <use xlink:href="#m486167c36c" x="334.466761" y="49.654204" style="stroke: #000000; stroke-width: 0.8"/>
      </g>
     </g>
     <g id="text_33">
      <!-- −32.2 -->
      <g transform="translate(296.821449 53.453422) scale(0.1 -0.1)">
       <use xlink:href="#DejaVuSans-2212"/>
       <use xlink:href="#DejaVuSans-33" transform="translate(83.789062 0)"/>
       <use xlink:href="#DejaVuSans-32" transform="translate(147.412109 0)"/>
       <use xlink:href="#DejaVuSans-2e" transform="translate(211.035156 0)"/>
       <use xlink:href="#DejaVuSans-32" transform="translate(242.822266 0)"/>
      </g>
     </g>
    </g>
   </g>
   <g id="line2d_41">
    <path d="M 345.995687 40.476562 
L 358.131398 72.085693 
L 370.267109 97.522947 
L 382.402821 117.936776 
L 394.538532 134.230454 
L 406.674243 147.123569 
L 418.809954 157.192699 
L 430.945665 164.899449 
L 443.081376 170.612751 
L 455.217088 174.628283 
L 467.352799 177.183908 
L 479.48851 178.470002 
L 491.624221 178.636502 
L 503.759932 177.799838 
L 515.895643 176.051239 
L 528.031355 173.465929 
L 540.167066 170.111797 
L 552.302777 166.056007 
L 564.438488 161.368403 
L 576.574199 156.121982 
" clip-path="url(#p48fbde987f)" style="fill: none; stroke-dasharray: 7.4,3.2; stroke-dashoffset: 0; stroke: #000000; stroke-opacity: 0.25; stroke-width: 2"/>
   </g>
   <g id="line2d_42">
    <path d="M 345.995687 129.281661 
L 358.131398 137.238115 
L 370.267109 143.476128 
L 382.402821 148.201085 
L 394.538532 151.578452 
L 406.674243 153.746141 
L 418.809954 154.824034 
L 430.945665 154.917784 
L 443.081376 154.119221 
L 455.217088 152.50691 
L 467.352799 150.147822 
L 479.48851 147.099148 
L 491.624221 143.409874 
L 503.759932 139.122566 
L 515.895643 134.275584 
L 528.031355 128.905364 
L 540.167066 123.048417 
L 552.302777 116.742829 
L 564.438488 110.028984 
L 576.574199 102.949299 
" clip-path="url(#p48fbde987f)" style="fill: none; stroke: #1f77b4; stroke-width: 1.5; stroke-linecap: square"/>
   </g>
   <g id="line2d_43">
    <path d="M 345.995687 153.923725 
L 358.131398 162.206841 
L 370.267109 168.928799 
L 382.402821 174.270923 
L 394.538532 178.37062 
L 406.674243 181.336786 
L 418.809954 183.262535 
L 430.945665 184.230876 
L 443.081376 184.315384 
L 455.217088 183.580102 
L 467.352799 182.080249 
L 479.48851 179.863129 
L 491.624221 176.969058 
L 503.759932 173.432913 
L 515.895643 169.286529 
L 528.031355 164.561452 
L 540.167066 159.291425 
L 552.302777 153.514226 
L 564.438488 147.272493 
L 576.574199 140.613221 
" clip-path="url(#p48fbde987f)" style="fill: none; stroke: #ff7f0e; stroke-width: 1.5; stroke-linecap: square"/>
   </g>
   <g id="line2d_44">
    <path d="M 345.995687 159.238934 
L 358.131398 167.359493 
L 370.267109 174.055838 
L 382.402821 179.503128 
L 394.538532 183.829595 
L 406.674243 187.132915 
L 418.809954 189.494773 
L 430.945665 190.987818 
L 443.081376 191.676563 
L 455.217088 191.616776 
L 467.352799 190.85537 
L 479.48851 189.43047 
L 491.624221 187.371699 
L 503.759932 184.701474 
L 515.895643 181.437611 
L 528.031355 177.596756 
L 540.167066 173.198017 
L 552.302777 168.266372 
L 564.438488 162.835231 
L 576.574199 156.94734 
" clip-path="url(#p48fbde987f)" style="fill: none; stroke: #2ca02c; stroke-width: 1.5; stroke-linecap: square"/>
   </g>
   <g id="patch_9">
    <path d="M 334.466761 199.236563 
L 334.466761 32.916563 
" style="fill: none; stroke: #000000; stroke-width: 0.8; stroke-linejoin: miter; stroke-linecap: square"/>
   </g>
   <g id="patch_10">
    <path d="M 588.103125 199.236563 
L 588.103125 32.916563 
" style="fill: none; stroke: #000000; stroke-width: 0.8; stroke-linejoin: miter; stroke-linecap: square"/>
   </g>
   <g id="patch_11">
    <path d="M 334.466761 199.236563 
L 588.103125 199.236563 
" style="fill: none; stroke: #000000; stroke-width: 0.8; stroke-linejoin: miter; stroke-linecap: square"/>
   </g>
   <g id="patch_12">
    <path d="M 334.466761 32.916562 
L 588.103125 32.916562 
" style="fill: none; stroke: #000000; stroke-width: 0.8; stroke-linejoin: miter; stroke-linecap: square"/>
   </g>
   <g id="text_34">
    <!-- Log-likelihood of the returns -->
    <g transform="translate(377.013068 26.916562) scale(0.12 -0.12)">
     <defs>
      <path id="DejaVuSans-4c" d="M 628 4666 
L 1259 4666 
L 1259 531 
L 3531 531 
L 3531 0 
L 628 0 
L 628 4666 
z
" transform="scale(0.015625)"/>
      <path id="DejaVuSans-67" d="M 2906 1791 
Q 2906 2416 2648 2759 
Q 2391 3103 1925 3103 
Q 1463 3103 1205 2759 
Q 947 2416 947 1791 
Q 947 1169 1205 825 
Q 1463 481 1925 481 
Q 2391 481 2648 825 
Q 2906 1169 2906 1791 
z
M 3481 434 
Q 3481 -459 3084 -895 
Q 2688 -1331 1869 -1331 
Q 1566 -1331 1297 -1286 
Q 1028 -1241 775 -1147 
L 775 -588 
Q 1028 -725 1275 -790 
Q 1522 -856 1778 -856 
Q 2344 -856 2625 -561 
Q 2906 -266 2906 331 
L 2906 616 
Q 2728 306 2450 153 
Q 2172 0 1784 0 
Q 1141 0 747 490 
Q 353 981 353 1791 
Q 353 2603 747 3093 
Q 1141 3584 1784 3584 
Q 2172 3584 2450 3431 
Q 2728 3278 2906 2969 
L 2906 3500 
L 3481 3500 
L 3481 434 
z
" transform="scale(0.015625)"/>
      <path id="DejaVuSans-6b" d="M 581 4863 
L 1159 4863 
L 1159 1991 
L 2875 3500 
L 3609 3500 
L 1753 1863 
L 3688 0 
L 2938 0 
L 1159 1709 
L 1159 0 
L 581 0 
L 581 4863 
z
" transform="scale(0.015625)"/>
     </defs>
     <use xlink:href="#DejaVuSans-4c"/>
     <use xlink:href="#DejaVuSans-6f" transform="translate(53.962891 0)"/>
     <use xlink:href="#DejaVuSans-67" transform="translate(115.144531 0)"/>
     <use xlink:href="#DejaVuSans-2d" transform="translate(178.621094 0)"/>
     <use xlink:href="#DejaVuSans-6c" transform="translate(214.705078 0)"/>
     <use xlink:href="#DejaVuSans-69" transform="translate(242.488281 0)"/>
     <use xlink:href="#DejaVuSans-6b" transform="translate(270.271484 0)"/>
     <use xlink:href="#DejaVuSans-65" transform="translate(324.556641 0)"/>
     <use xlink:href="#DejaVuSans-6c" transform="translate(386.080078 0)"/>
     <use xlink:href="#DejaVuSans-69" transform="translate(413.863281 0)"/>
     <use xlink:href="#DejaVuSans-68" transform="translate(441.646484 0)"/>
     <use xlink:href="#DejaVuSans-6f" transform="translate(505.025391 0)"/>
     <use xlink:href="#DejaVuSans-6f" transform="translate(566.207031 0)"/>
     <use xlink:href="#DejaVuSans-64" transform="translate(627.388672 0)"/>
     <use xlink:href="#DejaVuSans-20" transform="translate(690.865234 0)"/>
     <use xlink:href="#DejaVuSans-6f" transform="translate(722.652344 0)"/>
     <use xlink:href="#DejaVuSans-66" transform="translate(783.833984 0)"/>
     <use xlink:href="#DejaVuSans-20" transform="translate(819.039062 0)"/>
     <use xlink:href="#DejaVuSans-74" transform="translate(850.826172 0)"/>
     <use xlink:href="#DejaVuSans-68" transform="translate(890.035156 0)"/>
     <use xlink:href="#DejaVuSans-65" transform="translate(953.414062 0)"/>
     <use xlink:href="#DejaVuSans-20" transform="translate(1014.9375 0)"/>
     <use xlink:href="#DejaVuSans-72" transform="translate(1046.724609 0)"/>
     <use xlink:href="#DejaVuSans-65" transform="translate(1085.587891 0)"/>
     <use xlink:href="#DejaVuSans-74" transform="translate(1147.111328 0)"/>
     <use xlink:href="#DejaVuSans-75" transform="translate(1186.320312 0)"/>
     <use xlink:href="#DejaVuSans-72" transform="translate(1249.699219 0)"/>
     <use xlink:href="#DejaVuSans-6e" transform="translate(1289.0625 0)"/>
     <use xlink:href="#DejaVuSans-73" transform="translate(1352.441406 0)"/>
    </g>
   </g>
   <g id="legend_2">
    <g id="patch_13">
     <path d="M 536.378125 99.907188 
L 581.103125 99.907188 
Q 583.103125 99.907188 583.103125 97.907188 
L 583.103125 39.916562 
Q 583.103125 37.916562 581.103125 37.916562 
L 536.378125 37.916562 
Q 534.378125 37.916562 534.378125 39.916562 
L 534.378125 97.907188 
Q 534.378125 99.907188 536.378125 99.907188 
z
" style="fill: #ffffff; opacity: 0.8; stroke: #cccccc; stroke-linejoin: miter"/>
    </g>
    <g id="text_35">
     <!-- corr_hl -->
     <g transform="translate(541.850781 49.515) scale(0.1 -0.1)">
      <use xlink:href="#DejaVuSans-63"/>
      <use xlink:href="#DejaVuSans-6f" transform="translate(54.980469 0)"/>
      <use xlink:href="#DejaVuSans-72" transform="translate(116.162109 0)"/>
      <use xlink:href="#DejaVuSans-72" transform="translate(155.525391 0)"/>
      <use xlink:href="#DejaVuSans-5f" transform="translate(196.638672 0)"/>
      <use xlink:href="#DejaVuSans-68" transform="translate(246.638672 0)"/>
      <use xlink:href="#DejaVuSans-6c" transform="translate(310.017578 0)"/>
     </g>
    </g>
    <g id="line2d_45">
     <path d="M 538.378125 60.97125 
L 548.378125 60.97125 
L 558.378125 60.97125 
" style="fill: none; stroke: #1f77b4; stroke-width: 1.5; stroke-linecap: square"/>
    </g>
    <g id="text_36">
     <!-- 10 -->
     <g transform="translate(566.378125 64.47125) scale(0.1 -0.1)">
      <use xlink:href="#DejaVuSans-31"/>
      <use xlink:href="#DejaVuSans-30" transform="translate(63.623047 0)"/>
     </g>
    </g>
    <g id="line2d_46">
     <path d="M 538.378125 75.649375 
L 548.378125 75.649375 
L 558.378125 75.649375 
" style="fill: none; stroke: #ff7f0e; stroke-width: 1.5; stroke-linecap: square"/>
    </g>
    <g id="text_37">
     <!-- 20 -->
     <g transform="translate(566.378125 79.149375) scale(0.1 -0.1)">
      <use xlink:href="#DejaVuSans-32"/>
      <use xlink:href="#DejaVuSans-30" transform="translate(63.623047 0)"/>
     </g>
    </g>
    <g id="line2d_47">
     <path d="M 538.378125 90.3275 
L 548.378125 90.3275 
L 558.378125 90.3275 
" style="fill: none; stroke: #2ca02c; stroke-width: 1.5; stroke-linecap: square"/>
    </g>
    <g id="text_38">
     <!-- 60 -->
     <g transform="translate(566.378125 93.8275) scale(0.1 -0.1)">
      <use xlink:href="#DejaVuSans-36"/>
      <use xlink:href="#DejaVuSans-30" transform="translate(63.623047 0)"/>
     </g>
    </g>
   </g>
  </g>
 </g>
 <defs>
  <clipPath id="p30e3de8258">
   <rect x="30.103125" y="32.916562" width="253.636364" height="166.32"/>
  </clipPath>
  <clipPath id="p48fbde987f">
   <rect x="334.466761" y="32.916562" width="253.636364" height="166.32"/>
  </clipPath>
 </defs>
</svg>
