<?xml version="1.0" encoding="UTF-8" standalone="no"?>
<svg
   xmlns:dc="http://purl.org/dc/elements/1.1/"
   xmlns:cc="http://creativecommons.org/ns#"
   xmlns:rdf="http://www.w3.org/1999/02/22-rdf-syntax-ns#"
   xmlns:svg="http://www.w3.org/2000/svg"
   xmlns="http://www.w3.org/2000/svg"
   viewBox="0 0 315.0593 387.88489"
   height="387.88489"
   width="315.0593"
   xml:space="preserve"
   id="svg2"
   version="1.1"><metadata
     id="metadata8"><rdf:RDF><cc:Work
         rdf:about=""><dc:format>image/svg+xml</dc:format><dc:type
           rdf:resource="http://purl.org/dc/dcmitype/StillImage" /></cc:Work></rdf:RDF></metadata><defs
     id="defs6" /><g
     transform="matrix(1.3333333,0,0,-1.3333333,0,387.88489)"
     id="g10"><g
       id="g12"><text
         id="text40"
         style="font-variant:normal;font-weight:normal;font-size:25.60000038px;font-family:'Myriad Pro';-inkscape-font-specification:MyriadPro-Regular;writing-mode:lr-tb;fill:#000000;fill-opacity:1;fill-rule:nonzero;stroke:none"
         transform="matrix(1,0,0,-1,49.824993,154.33506)"><tspan
           id="tspan14"
           y="0"
           x="0">1</tspan><tspan
           id="tspan16"
           y="34.223972"
           x="0">2</tspan><tspan
           id="tspan18"
           y="98.146378"
           x="123.7865 136.9193 90.685699 103.8185">1413</tspan><tspan
           id="tspan20"
           y="66.185188"
           x="90.693863 103.82666">12</tspan><tspan
           id="tspan22"
           y="98.146378"
           x="57.318424 70.451225">11</tspan><tspan
           id="tspan24"
           y="66.185188"
           x="57.318424 70.451225">10</tspan><tspan
           id="tspan26"
           y="34.223949"
           x="66">9</tspan><tspan
           id="tspan28"
           y="98.146355"
           x="32.400002">8</tspan><tspan
           id="tspan30"
           y="66.185165"
           x="32.400002">7</tspan><tspan
           id="tspan32"
           y="34.223923"
           x="32.400002">6</tspan><tspan
           id="tspan34"
           y="-5.1200001e-05"
           x="32.400002">5</tspan><tspan
           id="tspan36"
           y="98.146332"
           x="0">4</tspan><tspan
           id="tspan38"
           y="66.185143"
           x="0">3</tspan></text>
<text
         id="text44"
         style="font-variant:normal;font-weight:normal;font-size:14.39999962px;font-family:'Myriad Pro';-inkscape-font-specification:MyriadPro-Regular;writing-mode:lr-tb;fill:#000000;fill-opacity:1;fill-rule:nonzero;stroke:none"
         transform="matrix(1,0,0,-1,52.701556,262.31768)"><tspan
           id="tspan42"
           y="0"
           x="0 32.400002 63.892799 97.272003 130.3632 163.5984">012345</tspan></text>
<g
         transform="matrix(1,0,0,-1,0,290.91367)"
         id="g46"><path
           id="path48"
           style="fill:none;stroke:#000000;stroke-width:0.93225801;stroke-linecap:butt;stroke-linejoin:miter;stroke-miterlimit:4;stroke-dasharray:none;stroke-opacity:1"
           d="m 56.422,31.625 v 9.309" /></g><path
         id="path50"
         style="fill:#000000;fill-opacity:1;fill-rule:evenodd;stroke:none"
         d="m 58.676,254.859 -2.246,-6.113 -2.246,6.113 c 1.324,-0.977 3.14,-0.973 4.492,0 z" /><g
         transform="matrix(1,0,0,-1,0,290.91367)"
         id="g52"><path
           id="path54"
           style="fill:none;stroke:#000000;stroke-width:0.93225801;stroke-linecap:butt;stroke-linejoin:miter;stroke-miterlimit:4;stroke-dasharray:none;stroke-opacity:1"
           d="m 88.828,31.664 v 9.309" /></g><path
         id="path56"
         style="fill:#000000;fill-opacity:1;fill-rule:evenodd;stroke:none"
         d="m 91.082,254.82 -2.246,-6.113 -2.246,6.113 c 1.324,-0.977 3.14,-0.973 4.492,0 z" /><g
         transform="matrix(1,0,0,-1,0,290.91367)"
         id="g58"><path
           id="path60"
           style="fill:none;stroke:#000000;stroke-width:0.93225801;stroke-linecap:butt;stroke-linejoin:miter;stroke-miterlimit:4;stroke-dasharray:none;stroke-opacity:1"
           d="m 120.328,31.664 v 9.309" /></g><path
         id="path62"
         style="fill:#000000;fill-opacity:1;fill-rule:evenodd;stroke:none"
         d="m 122.582,254.82 -2.246,-6.113 -2.246,6.113 c 1.324,-0.977 3.14,-0.973 4.492,0 z" /><g
         transform="matrix(1,0,0,-1,0,290.91367)"
         id="g64"><path
           id="path66"
           style="fill:none;stroke:#000000;stroke-width:0.93225801;stroke-linecap:butt;stroke-linejoin:miter;stroke-miterlimit:4;stroke-dasharray:none;stroke-opacity:1"
           d="m 153.676,31.613 v 9.309" /></g><path
         id="path68"
         style="fill:#000000;fill-opacity:1;fill-rule:evenodd;stroke:none"
         d="m 155.934,254.871 -2.246,-6.114 -2.25,6.114 c 1.328,-0.977 3.144,-0.973 4.496,0 z" /><g
         transform="matrix(1,0,0,-1,0,290.91367)"
         id="g70"><path
           id="path72"
           style="fill:none;stroke:#000000;stroke-width:0.93225801;stroke-linecap:butt;stroke-linejoin:miter;stroke-miterlimit:4;stroke-dasharray:none;stroke-opacity:1"
           d="M 186.777,31.516 V 40.82" /></g><path
         id="path74"
         style="fill:#000000;fill-opacity:1;fill-rule:evenodd;stroke:none"
         d="m 189.031,254.968 -2.246,-6.109 -2.246,6.109 c 1.328,-0.976 3.141,-0.968 4.492,0 z" /><g
         transform="matrix(1,0,0,-1,0,290.91367)"
         id="g76"><path
           id="path78"
           style="fill:none;stroke:#000000;stroke-width:0.93225801;stroke-linecap:butt;stroke-linejoin:miter;stroke-miterlimit:4;stroke-dasharray:none;stroke-opacity:1"
           d="m 220.027,31.613 v 9.309" /></g><path
         id="path80"
         style="fill:#000000;fill-opacity:1;fill-rule:evenodd;stroke:none"
         d="m 222.281,254.871 -2.246,-6.114 -2.246,6.114 c 1.328,-0.977 3.141,-0.973 4.492,0 z" /><g
         transform="matrix(1,0,0,-1,0,290.91367)"
         id="g82"><path
           id="path84"
           style="fill:none;stroke:#000000;stroke-width:0.93225801;stroke-linecap:butt;stroke-linejoin:miter;stroke-miterlimit:4;stroke-dasharray:none;stroke-opacity:1"
           d="m 25.875,224.613 h 9.309" /></g><path
         id="path86"
         style="fill:#000000;fill-opacity:1;fill-rule:evenodd;stroke:none"
         d="m 30.305,68.558 6.113,-2.25 -6.113,-2.246 c 0.976,1.328 0.972,3.141 0,4.496 z" /><g
         transform="matrix(1,0,0,-1,0,290.91367)"
         id="g88"><path
           id="path90"
           style="fill:none;stroke:#000000;stroke-width:0.93225801;stroke-linecap:butt;stroke-linejoin:miter;stroke-miterlimit:4;stroke-dasharray:none;stroke-opacity:1"
           d="m 25.879,193.707 h 9.309" /></g><path
         id="path92"
         style="fill:#000000;fill-opacity:1;fill-rule:evenodd;stroke:none"
         d="m 30.309,99.464 6.113,-2.246 -6.113,-2.25 c 0.976,1.328 0.972,3.145 0,4.496 z" /><g
         transform="matrix(1,0,0,-1,0,290.91367)"
         id="g94"><path
           id="path96"
           style="fill:none;stroke:#000000;stroke-width:0.93225801;stroke-linecap:butt;stroke-linejoin:miter;stroke-miterlimit:4;stroke-dasharray:none;stroke-opacity:1"
           d="m 25.879,160.605 h 9.309" /></g><path
         id="path98"
         style="fill:#000000;fill-opacity:1;fill-rule:evenodd;stroke:none"
         d="m 30.309,132.566 6.113,-2.25 -6.113,-2.246 c 0.976,1.328 0.972,3.141 0,4.496 z" /><g
         transform="matrix(1,0,0,-1,0,290.91367)"
         id="g100"><path
           id="path102"
           style="fill:none;stroke:#000000;stroke-width:0.93225801;stroke-linecap:butt;stroke-linejoin:miter;stroke-miterlimit:4;stroke-dasharray:none;stroke-opacity:1"
           d="m 25.98,127.254 h 9.305" /></g><path
         id="path104"
         style="fill:#000000;fill-opacity:1;fill-rule:evenodd;stroke:none"
         d="m 30.41,165.914 6.11,-2.246 -6.11,-2.25 c 0.977,1.328 0.969,3.144 0,4.496 z" /><g
         transform="matrix(1,0,0,-1,0,290.91367)"
         id="g106"><path
           id="path108"
           style="fill:none;stroke:#000000;stroke-width:0.93225801;stroke-linecap:butt;stroke-linejoin:miter;stroke-miterlimit:4;stroke-dasharray:none;stroke-opacity:1"
           d="m 25.93,94.504 h 9.304" /></g><path
         id="path110"
         style="fill:#000000;fill-opacity:1;fill-rule:evenodd;stroke:none"
         d="m 30.359,198.664 6.11,-2.246 -6.11,-2.25 c 0.977,1.328 0.969,3.144 0,4.496 z" /><g
         transform="matrix(1,0,0,-1,0,290.91367)"
         id="g112"><path
           id="path114"
           style="fill:none;stroke:#000000;stroke-width:0.93225801;stroke-linecap:butt;stroke-linejoin:miter;stroke-miterlimit:4;stroke-dasharray:none;stroke-opacity:1"
           d="M 25.922,61.648 H 35.23" /></g><path
         id="path116"
         style="fill:#000000;fill-opacity:1;fill-rule:evenodd;stroke:none"
         d="m 30.352,231.523 6.113,-2.246 -6.113,-2.25 c 0.976,1.328 0.972,3.144 0,4.496 z" /><text
         id="text130"
         style="font-variant:normal;font-weight:normal;font-size:14.39999962px;font-family:'Myriad Pro';-inkscape-font-specification:MyriadPro-Regular;writing-mode:lr-tb;fill:#000000;fill-opacity:1;fill-rule:nonzero;stroke:none"
         transform="matrix(1,0,0,-1,14.303118,224.59175)"><tspan
           id="tspan118"
           y="0"
           x="0">0</tspan><tspan
           id="tspan120"
           y="32.8284"
           x="0">1</tspan><tspan
           id="tspan122"
           y="65.685989"
           x="0">2</tspan><tspan
           id="tspan124"
           y="98.935158"
           x="0">3</tspan><tspan
           id="tspan126"
           y="132.07626"
           x="0">4</tspan><tspan
           id="tspan128"
           y="162.82549"
           x="0">5</tspan></text>
<g
         transform="matrix(1,0,0,-1,0,290.91367)"
         id="g132"><path
           id="path134"
           style="fill:none;stroke:#000000;stroke-width:0.93225801;stroke-linecap:butt;stroke-linejoin:miter;stroke-miterlimit:4;stroke-dasharray:none;stroke-opacity:1"
           d="M 219.465,256.055 212.398,250" /></g><path
         id="path136"
         style="fill:#000000;fill-opacity:1;fill-rule:evenodd;stroke:none"
         d="m 214.633,36.027 -3.176,5.684 6.102,-2.27 c -1.606,-0.371 -2.782,-1.754 -2.926,-3.414 z" /><g
         transform="matrix(1,0,0,-1,0,290.91367)"
         id="g138"><path
           id="path140"
           style="fill:none;stroke:#000000;stroke-width:0.93225801;stroke-linecap:butt;stroke-linejoin:miter;stroke-miterlimit:4;stroke-dasharray:none;stroke-opacity:1"
           d="m 186.309,256.105 -7.063,-6.058" /></g><path
         id="path142"
         style="fill:#000000;fill-opacity:1;fill-rule:evenodd;stroke:none"
         d="m 181.48,35.98 -3.179,5.684 6.101,-2.274 c -1.601,-0.371 -2.781,-1.754 -2.922,-3.41 z" /><g
         transform="matrix(1,0,0,-1,0,290.91367)"
         id="g144"><path
           id="path146"
           style="fill:none;stroke:#000000;stroke-width:0.93225801;stroke-linecap:butt;stroke-linejoin:miter;stroke-miterlimit:4;stroke-dasharray:none;stroke-opacity:1"
           d="m 153.219,256.035 -7.067,-6.058" /></g><path
         id="path148"
         style="fill:#000000;fill-opacity:1;fill-rule:evenodd;stroke:none"
         d="m 148.387,36.05 -3.176,5.684 6.101,-2.273 c -1.605,-0.372 -2.781,-1.754 -2.925,-3.411 z" /><g
         transform="matrix(1,0,0,-1,0,290.91367)"
         id="g150"><path
           id="path152"
           style="fill:none;stroke:#000000;stroke-width:0.93225801;stroke-linecap:butt;stroke-linejoin:miter;stroke-miterlimit:4;stroke-dasharray:none;stroke-opacity:1"
           d="m 119.844,256.035 -7.067,-6.058" /></g><path
         id="path154"
         style="fill:#000000;fill-opacity:1;fill-rule:evenodd;stroke:none"
         d="m 115.012,36.05 -3.18,5.684 6.106,-2.273 c -1.606,-0.372 -2.786,-1.754 -2.926,-3.411 z" /><g
         transform="matrix(1,0,0,-1,0,290.91367)"
         id="g156"><path
           id="path158"
           style="fill:none;stroke:#000000;stroke-width:0.93225801;stroke-linecap:butt;stroke-linejoin:miter;stroke-miterlimit:4;stroke-dasharray:none;stroke-opacity:1"
           d="m 88.301,256.133 -7.067,-6.055" /></g><path
         id="path160"
         style="fill:#000000;fill-opacity:1;fill-rule:evenodd;stroke:none"
         d="m 83.469,35.949 -3.176,5.683 6.102,-2.269 c -1.606,-0.375 -2.782,-1.754 -2.926,-3.414 z" /><text
         id="text172"
         style="font-variant:normal;font-weight:normal;font-size:14.39999962px;font-family:'Myriad Pro';-inkscape-font-specification:MyriadPro-Regular;writing-mode:lr-tb;fill:#000000;fill-opacity:1;fill-rule:nonzero;stroke:none"
         transform="matrix(1,0,0,-1,216.30158,19.816603)"><tspan
           id="tspan162"
           y="0"
           x="0">0</tspan><tspan
           id="tspan164"
           y="-0.14135747"
           x="-33.238525">1</tspan><tspan
           id="tspan166"
           y="0.008594064"
           x="-66.331154">2</tspan><tspan
           id="tspan168"
           y="-0.070654035"
           x="-99.706596">3</tspan><tspan
           id="tspan170"
           y="-0.18403301"
           x="-131.20003">4</tspan></text>
<text
         id="text178"
         style="font-variant:normal;font-weight:normal;font-size:16px;font-family:'Myriad Pro';-inkscape-font-specification:MyriadPro-Regular;writing-mode:lr-tb;fill:#000000;fill-opacity:1;fill-rule:nonzero;stroke:none"
         transform="matrix(1,0,0,-1,102.65053,3.343996)"><tspan
           id="tspan174"
           y="0"
           x="0 9.0240002 12.768 20.48 29.424 38.208 47.088001 54.799999 58.576">diagonals</tspan><tspan
           id="tspan176"
           y="-276.20966"
           x="5.6863518 12.742352 21.526352 25.302353 34.118351 47.462353 56.342354">columns</tspan></text>
<text
         id="text182"
         style="font-variant:normal;font-weight:normal;font-size:16px;font-family:'Myriad Pro';-inkscape-font-specification:MyriadPro-Regular;writing-mode:lr-tb;fill:#000000;fill-opacity:1;fill-rule:nonzero;stroke:none"
         transform="matrix(0,1,1,0,7.903997,131.49346)"><tspan
           id="tspan180"
           y="0"
           x="0 5.0560002 13.712 25.408001">rows</tspan></text>
<g
         transform="matrix(1,0,0,-1,0,290.91367)"
         id="g184"><path
           id="path186"
           style="fill:none;stroke:#000000;stroke-width:0.75282502;stroke-linecap:butt;stroke-linejoin:miter;stroke-miterlimit:4;stroke-dasharray:none;stroke-opacity:1"
           d="M 39.477,46.121 H 235.918" /></g><g
         transform="matrix(1,0,0,-1,0,290.91367)"
         id="g188"><path
           id="path190"
           style="fill:none;stroke:#000000;stroke-width:0.75241798;stroke-linecap:butt;stroke-linejoin:miter;stroke-miterlimit:4;stroke-dasharray:none;stroke-opacity:1"
           d="M 39.48,77.965 H 235.711" /></g><g
         transform="matrix(1,0,0,-1,0,290.91367)"
         id="g192"><path
           id="path194"
           style="fill:none;stroke:#000000;stroke-width:0.75271702;stroke-linecap:butt;stroke-linejoin:miter;stroke-miterlimit:4;stroke-dasharray:none;stroke-opacity:1"
           d="M 39.523,110.793 H 235.91" /></g><g
         transform="matrix(1,0,0,-1,0,290.91367)"
         id="g196"><path
           id="path198"
           style="fill:none;stroke:#000000;stroke-width:0.75199997;stroke-linecap:butt;stroke-linejoin:miter;stroke-miterlimit:4;stroke-dasharray:none;stroke-opacity:1"
           d="M 39.617,142.633 H 235.625" /></g><g
         transform="matrix(1,0,0,-1,0,290.91367)"
         id="g200"><path
           id="path202"
           style="fill:none;stroke:#000000;stroke-width:0.75223899;stroke-linecap:butt;stroke-linejoin:miter;stroke-miterlimit:4;stroke-dasharray:none;stroke-opacity:1"
           d="M 39.625,176.422 H 235.762" /></g><g
         transform="matrix(1,0,0,-1,0,290.91367)"
         id="g204"><path
           id="path206"
           style="fill:none;stroke:#000000;stroke-width:0.751809;stroke-linecap:butt;stroke-linejoin:miter;stroke-miterlimit:4;stroke-dasharray:none;stroke-opacity:1"
           d="m 39.641,208.266 h 195.91" /></g><g
         transform="matrix(1,0,0,-1,0,290.91367)"
         id="g208"><path
           id="path210"
           style="fill:none;stroke:#000000;stroke-width:0.752096;stroke-linecap:butt;stroke-linejoin:miter;stroke-miterlimit:4;stroke-dasharray:none;stroke-opacity:1"
           d="M 39.84,241.094 H 235.902" /></g><g
         transform="matrix(1,0,0,-1,0,290.91367)"
         id="g212"><path
           id="path214"
           style="fill:none;stroke:#000000;stroke-width:0.79758197;stroke-linecap:butt;stroke-linejoin:miter;stroke-miterlimit:4;stroke-dasharray:none;stroke-opacity:1"
           d="M 235.535,45.844 V 241.461" /></g><g
         transform="matrix(1,0,0,-1,0,290.91367)"
         id="g216"><path
           id="path218"
           style="fill:none;stroke:#000000;stroke-width:0.79755402;stroke-linecap:butt;stroke-linejoin:miter;stroke-miterlimit:4;stroke-dasharray:none;stroke-opacity:1"
           d="M 203.277,45.832 V 241.438" /></g><g
         transform="matrix(1,0,0,-1,0,290.91367)"
         id="g220"><path
           id="path222"
           style="fill:none;stroke:#000000;stroke-width:0.79758197;stroke-linecap:butt;stroke-linejoin:miter;stroke-miterlimit:4;stroke-dasharray:none;stroke-opacity:1"
           d="M 170.516,45.828 V 241.449" /></g><g
         transform="matrix(1,0,0,-1,0,290.91367)"
         id="g224"><path
           id="path226"
           style="fill:none;stroke:#000000;stroke-width:0.79755402;stroke-linecap:butt;stroke-linejoin:miter;stroke-miterlimit:4;stroke-dasharray:none;stroke-opacity:1"
           d="M 138.254,45.816 V 241.422" /></g><g
         transform="matrix(1,0,0,-1,0,290.91367)"
         id="g228"><path
           id="path230"
           style="fill:none;stroke:#000000;stroke-width:0.79740399;stroke-linecap:butt;stroke-linejoin:miter;stroke-miterlimit:4;stroke-dasharray:none;stroke-opacity:1"
           d="M 104.898,45.914 V 241.441" /></g><g
         transform="matrix(1,0,0,-1,0,290.91367)"
         id="g232"><path
           id="path234"
           style="fill:none;stroke:#000000;stroke-width:0.79727501;stroke-linecap:butt;stroke-linejoin:miter;stroke-miterlimit:4;stroke-dasharray:none;stroke-opacity:1"
           d="M 72.641,45.898 V 241.367" /></g><g
         transform="matrix(1,0,0,-1,0,290.91367)"
         id="g236"><path
           id="path238"
           style="fill:none;stroke:#000000;stroke-width:0.79749298;stroke-linecap:butt;stroke-linejoin:miter;stroke-miterlimit:4;stroke-dasharray:none;stroke-opacity:1"
           d="M 39.879,45.898 V 241.473" /></g><text
         id="text242"
         style="font-variant:normal;font-weight:normal;font-size:25.60000038px;font-family:'Myriad Pro';-inkscape-font-specification:MyriadPro-Regular;writing-mode:lr-tb;fill:#000000;fill-opacity:1;fill-rule:nonzero;stroke:none"
         transform="matrix(1,0,0,-1,49.824993,187.42769)"><tspan
           id="tspan240"
           y="0"
           x="0">0</tspan></text>
</g></g></svg>