<svg width="686" height="176" viewBox="0 0 686 176" fill="none" xmlns="http://www.w3.org/2000/svg">
<g clip-path="url(#clip0_5_2)">
<path d="M40.5208 127.679H298.238V33.3585H40.5208V127.679Z" fill="white"/>
<path d="M40.5208 127.679V122.345Z" fill="black"/>
<path d="M40.5208 127.679V122.345" stroke="black" stroke-width="0.666667" stroke-miterlimit="10" stroke-linejoin="round"/>
<path d="M40.5208 33.3585V38.6918Z" fill="black"/>
<path d="M40.5208 33.3585V38.6918" stroke="black" stroke-width="0.666667" stroke-miterlimit="10" stroke-linejoin="round"/>
<path d="M30.483 135.019V146.656H29.0739V136.497H29.0057L26.1648 138.383V136.951L29.0739 135.019H30.483ZM37.625 146.815C36.7689 146.815 36.0398 146.582 35.4375 146.116C34.8352 145.646 34.375 144.966 34.0568 144.076C33.7386 143.182 33.5795 142.103 33.5795 140.837C33.5795 139.58 33.7386 138.506 34.0568 137.616C34.3788 136.722 34.8409 136.04 35.4432 135.57C36.0492 135.097 36.7765 134.86 37.625 134.86C38.4735 134.86 39.1989 135.097 39.8011 135.57C40.4072 136.04 40.8693 136.722 41.1875 137.616C41.5095 138.506 41.6705 139.58 41.6705 140.837C41.6705 142.103 41.5114 143.182 41.1932 144.076C40.875 144.966 40.4148 145.646 39.8125 146.116C39.2102 146.582 38.4811 146.815 37.625 146.815ZM37.625 145.565C38.4735 145.565 39.1326 145.156 39.6023 144.337C40.072 143.519 40.3068 142.353 40.3068 140.837C40.3068 139.83 40.1989 138.972 39.983 138.264C39.7708 137.555 39.464 137.015 39.0625 136.644C38.6648 136.273 38.1856 136.087 37.625 136.087C36.7841 136.087 36.1269 136.502 35.6534 137.332C35.1799 138.158 34.9432 139.326 34.9432 140.837C34.9432 141.845 35.0492 142.701 35.2614 143.406C35.4735 144.11 35.7784 144.646 36.1761 145.014C36.5777 145.381 37.0606 145.565 37.625 145.565Z" fill="black"/>
<path d="M47.3386 134.104V134.979H43.7749V134.104H47.3386ZM51.5833 138.725C51.0371 138.725 50.5545 138.629 50.1356 138.435C49.7193 138.239 49.3945 137.97 49.1612 137.628C48.9278 137.283 48.8125 136.89 48.8151 136.45C48.8125 136.106 48.8801 135.787 49.018 135.496C49.1559 135.201 49.3441 134.956 49.5828 134.76C49.824 134.561 50.0932 134.435 50.3901 134.382V134.334C50.0004 134.234 49.6901 134.015 49.4595 133.678C49.2288 133.339 49.1148 132.953 49.1174 132.521C49.1148 132.107 49.2195 131.737 49.4316 131.411C49.6437 131.085 49.9354 130.828 50.3066 130.64C50.6805 130.451 51.1061 130.357 51.5833 130.357C52.0553 130.357 52.4769 130.451 52.8481 130.64C53.2193 130.828 53.511 131.085 53.7231 131.411C53.9379 131.737 54.0466 132.107 54.0492 132.521C54.0466 132.953 53.9286 133.339 53.6953 133.678C53.4646 134.015 53.1583 134.234 52.7765 134.334V134.382C53.0708 134.435 53.336 134.561 53.572 134.76C53.8079 134.956 53.9962 135.201 54.1367 135.496C54.2773 135.787 54.3489 136.106 54.3515 136.45C54.3489 136.89 54.2295 137.283 53.9936 137.628C53.7602 137.97 53.4354 138.239 53.0191 138.435C52.6055 138.629 52.1269 138.725 51.5833 138.725ZM51.5833 137.85C51.9519 137.85 52.2701 137.791 52.5379 137.671C52.8057 137.552 53.0125 137.384 53.1583 137.166C53.3042 136.949 53.3784 136.694 53.3811 136.403C53.3784 136.095 53.2989 135.823 53.1424 135.587C52.986 135.351 52.7725 135.166 52.5021 135.03C52.2343 134.895 51.928 134.828 51.5833 134.828C51.236 134.828 50.9258 134.895 50.6526 135.03C50.3822 135.166 50.1687 135.351 50.0123 135.587C49.8585 135.823 49.7829 136.095 49.7856 136.403C49.7829 136.694 49.8532 136.949 49.9964 137.166C50.1422 137.384 50.3504 137.552 50.6208 137.671C50.8913 137.791 51.2121 137.85 51.5833 137.85ZM51.5833 133.984C51.875 133.984 52.1335 133.926 52.3589 133.809C52.5869 133.693 52.7659 133.53 52.8958 133.32C53.0258 133.111 53.092 132.865 53.0947 132.584C53.092 132.309 53.0271 132.069 52.8998 131.865C52.7725 131.658 52.5962 131.499 52.3708 131.387C52.1454 131.273 51.8829 131.216 51.5833 131.216C51.2784 131.216 51.0119 131.273 50.7839 131.387C50.5559 131.499 50.3795 131.658 50.2549 131.865C50.1303 132.069 50.0693 132.309 50.072 132.584C50.0693 132.865 50.1316 133.111 50.2589 133.32C50.3888 133.53 50.5678 133.693 50.7958 133.809C51.0239 133.926 51.2864 133.984 51.5833 133.984Z" fill="black"/>
<path d="M72.7355 127.679V122.345Z" fill="black"/>
<path d="M72.7355 127.679V122.345" stroke="black" stroke-width="0.666667" stroke-miterlimit="10" stroke-linejoin="round"/>
<path d="M72.7355 33.3585V38.6918Z" fill="black"/>
<path d="M72.7355 33.3585V38.6918" stroke="black" stroke-width="0.666667" stroke-miterlimit="10" stroke-linejoin="round"/>
<path d="M62.6976 135.019V146.656H61.2885V136.497H61.2203L58.3794 138.383V136.951L61.2885 135.019H62.6976ZM69.8397 146.815C68.9836 146.815 68.2544 146.582 67.6522 146.116C67.0499 145.646 66.5897 144.966 66.2715 144.076C65.9533 143.182 65.7942 142.103 65.7942 140.837C65.7942 139.58 65.9533 138.506 66.2715 137.616C66.5934 136.722 67.0556 136.04 67.6578 135.57C68.2639 135.097 68.9912 134.86 69.8397 134.86C70.6881 134.86 71.4135 135.097 72.0158 135.57C72.6219 136.04 73.084 136.722 73.4022 137.616C73.7241 138.506 73.8851 139.58 73.8851 140.837C73.8851 142.103 73.726 143.182 73.4078 144.076C73.0897 144.966 72.6294 145.646 72.0272 146.116C71.4249 146.582 70.6957 146.815 69.8397 146.815ZM69.8397 145.565C70.6881 145.565 71.3472 145.156 71.8169 144.337C72.2866 143.519 72.5215 142.353 72.5215 140.837C72.5215 139.83 72.4135 138.972 72.1976 138.264C71.9855 137.555 71.6787 137.015 71.2772 136.644C70.8794 136.273 70.4003 136.087 69.8397 136.087C68.9988 136.087 68.3416 136.502 67.8681 137.332C67.3946 138.158 67.1578 139.326 67.1578 140.837C67.1578 141.845 67.2639 142.701 67.476 143.406C67.6881 144.11 67.9931 144.646 68.3908 145.014C68.7923 145.381 69.2753 145.565 69.8397 145.565Z" fill="black"/>
<path d="M79.5532 134.104V134.979H75.9896V134.104H79.5532ZM83.8934 138.725C83.5594 138.72 83.2253 138.656 82.8912 138.534C82.5571 138.412 82.2522 138.207 81.9764 137.918C81.7006 137.626 81.4792 137.233 81.3122 136.737C81.1451 136.238 81.0616 135.612 81.0616 134.859C81.0616 134.138 81.1292 133.499 81.2645 132.942C81.3997 132.383 81.5959 131.912 81.8531 131.53C82.1103 131.146 82.4205 130.854 82.7838 130.655C83.1497 130.457 83.562 130.357 84.0207 130.357C84.4768 130.357 84.8825 130.449 85.2378 130.632C85.5957 130.812 85.8874 131.064 86.1128 131.387C86.3381 131.711 86.484 132.083 86.5503 132.505H85.5798C85.4897 132.139 85.3147 131.835 85.0548 131.594C84.795 131.353 84.4503 131.232 84.0207 131.232C83.3897 131.232 82.8925 131.507 82.5292 132.055C82.1686 132.604 81.987 133.375 81.9844 134.366H82.048C82.1965 134.141 82.3728 133.949 82.577 133.79C82.7838 133.628 83.0118 133.503 83.2611 133.416C83.5103 133.328 83.7741 133.284 84.0525 133.284C84.5192 133.284 84.9461 133.401 85.3332 133.634C85.7203 133.865 86.0306 134.185 86.2639 134.593C86.4972 134.999 86.6139 135.464 86.6139 135.989C86.6139 136.493 86.5012 136.954 86.2758 137.373C86.0504 137.789 85.7336 138.121 85.3253 138.367C84.9196 138.611 84.4423 138.731 83.8934 138.725ZM83.8934 137.85C84.2275 137.85 84.5272 137.767 84.7923 137.6C85.0601 137.433 85.2709 137.209 85.4247 136.928C85.5811 136.647 85.6594 136.334 85.6594 135.989C85.6594 135.652 85.5838 135.346 85.4326 135.07C85.2842 134.792 85.0787 134.57 84.8162 134.406C84.5563 134.242 84.2594 134.159 83.9253 134.159C83.6734 134.159 83.4387 134.21 83.2213 134.311C83.0039 134.409 82.8129 134.544 82.6486 134.716C82.4868 134.889 82.3595 135.086 82.2667 135.309C82.1739 135.529 82.1275 135.761 82.1275 136.005C82.1275 136.328 82.2031 136.631 82.3542 136.912C82.508 137.193 82.7175 137.419 82.9826 137.592C83.2504 137.764 83.554 137.85 83.8934 137.85Z" fill="black"/>
<path d="M104.95 127.679V122.345Z" fill="black"/>
<path d="M104.95 127.679V122.345" stroke="black" stroke-width="0.666667" stroke-miterlimit="10" stroke-linejoin="round"/>
<path d="M104.95 33.3585V38.6918Z" fill="black"/>
<path d="M104.95 33.3585V38.6918" stroke="black" stroke-width="0.666667" stroke-miterlimit="10" stroke-linejoin="round"/>
<path d="M94.9123 135.019V146.656H93.5032V136.497H93.435L90.5941 138.383V136.951L93.5032 135.019H94.9123ZM102.054 146.815C101.198 146.815 100.469 146.582 99.8668 146.116C99.2645 145.646 98.8043 144.966 98.4861 144.076C98.168 143.182 98.0089 142.103 98.0089 140.837C98.0089 139.58 98.168 138.506 98.4861 137.616C98.8081 136.722 99.2702 136.04 99.8725 135.57C100.479 135.097 101.206 134.86 102.054 134.86C102.903 134.86 103.628 135.097 104.23 135.57C104.837 136.04 105.299 136.722 105.617 137.616C105.939 138.506 106.1 139.58 106.1 140.837C106.1 142.103 105.941 143.182 105.623 144.076C105.304 144.966 104.844 145.646 104.242 146.116C103.64 146.582 102.91 146.815 102.054 146.815ZM102.054 145.565C102.903 145.565 103.562 145.156 104.032 144.337C104.501 143.519 104.736 142.353 104.736 140.837C104.736 139.83 104.628 138.972 104.412 138.264C104.2 137.555 103.893 137.015 103.492 136.644C103.094 136.273 102.615 136.087 102.054 136.087C101.213 136.087 100.556 136.502 100.083 137.332C99.6092 138.158 99.3725 139.326 99.3725 140.837C99.3725 141.845 99.4786 142.701 99.6907 143.406C99.9028 144.11 100.208 144.646 100.605 145.014C101.007 145.381 101.49 145.565 102.054 145.565Z" fill="black"/>
<path d="M111.768 134.104V134.979H108.204V134.104H111.768ZM113.213 136.943V136.132L116.792 130.468H117.381V131.725H116.983L114.279 136.005V136.068H119.099V136.943H113.213ZM117.047 138.614V136.697V136.319V130.468H117.985V138.614H117.047Z" fill="black"/>
<path d="M137.165 127.679V122.345Z" fill="black"/>
<path d="M137.165 127.679V122.345" stroke="black" stroke-width="0.666667" stroke-miterlimit="10" stroke-linejoin="round"/>
<path d="M137.165 33.3585V38.6918Z" fill="black"/>
<path d="M137.165 33.3585V38.6918" stroke="black" stroke-width="0.666667" stroke-miterlimit="10" stroke-linejoin="round"/>
<path d="M127.127 135.019V146.656H125.718V136.497H125.65L122.809 138.383V136.951L125.718 135.019H127.127ZM134.269 146.815C133.413 146.815 132.684 146.582 132.081 146.116C131.479 145.646 131.019 144.966 130.701 144.076C130.383 143.182 130.224 142.103 130.224 140.837C130.224 139.58 130.383 138.506 130.701 137.616C131.023 136.722 131.485 136.04 132.087 135.57C132.693 135.097 133.42 134.86 134.269 134.86C135.117 134.86 135.843 135.097 136.445 135.57C137.051 136.04 137.513 136.722 137.831 137.616C138.153 138.506 138.314 139.58 138.314 140.837C138.314 142.103 138.155 143.182 137.837 144.076C137.519 144.966 137.059 145.646 136.456 146.116C135.854 146.582 135.125 146.815 134.269 146.815ZM134.269 145.565C135.117 145.565 135.777 145.156 136.246 144.337C136.716 143.519 136.951 142.353 136.951 140.837C136.951 139.83 136.843 138.972 136.627 138.264C136.415 137.555 136.108 137.015 135.706 136.644C135.309 136.273 134.83 136.087 134.269 136.087C133.428 136.087 132.771 136.502 132.297 137.332C131.824 138.158 131.587 139.326 131.587 140.837C131.587 141.845 131.693 142.701 131.905 143.406C132.117 144.11 132.422 144.646 132.82 145.014C133.222 145.381 133.705 145.565 134.269 145.565Z" fill="black"/>
<path d="M143.983 134.104V134.979H140.419V134.104H143.983ZM145.235 138.614V137.898L147.924 134.955C148.24 134.61 148.499 134.311 148.704 134.056C148.908 133.799 149.059 133.558 149.157 133.332C149.258 133.104 149.308 132.865 149.308 132.616C149.308 132.33 149.239 132.082 149.101 131.872C148.966 131.663 148.78 131.501 148.544 131.387C148.309 131.273 148.043 131.216 147.749 131.216C147.436 131.216 147.163 131.281 146.93 131.411C146.699 131.538 146.52 131.717 146.393 131.948C146.268 132.179 146.206 132.449 146.206 132.759H145.267C145.267 132.282 145.377 131.863 145.597 131.503C145.817 131.142 146.117 130.861 146.496 130.659C146.878 130.458 147.306 130.357 147.781 130.357C148.258 130.357 148.681 130.458 149.05 130.659C149.418 130.861 149.707 131.133 149.917 131.475C150.126 131.817 150.231 132.197 150.231 132.616C150.231 132.916 150.177 133.209 150.068 133.495C149.962 133.779 149.776 134.096 149.511 134.446C149.248 134.793 148.884 135.217 148.417 135.718L146.588 137.675V137.739H150.374V138.614H145.235Z" fill="black"/>
<path d="M169.38 127.679V122.345Z" fill="black"/>
<path d="M169.38 127.679V122.345" stroke="black" stroke-width="0.666667" stroke-miterlimit="10" stroke-linejoin="round"/>
<path d="M169.38 33.3585V38.6918Z" fill="black"/>
<path d="M169.38 33.3585V38.6918" stroke="black" stroke-width="0.666667" stroke-miterlimit="10" stroke-linejoin="round"/>
<path d="M161.342 135.019V146.656H159.933V136.497H159.864L157.023 138.383V136.951L159.933 135.019H161.342ZM168.484 146.815C167.628 146.815 166.898 146.582 166.296 146.116C165.694 145.646 165.234 144.966 164.915 144.076C164.597 143.182 164.438 142.103 164.438 140.837C164.438 139.58 164.597 138.506 164.915 137.616C165.237 136.722 165.7 136.04 166.302 135.57C166.908 135.097 167.635 134.86 168.484 134.86C169.332 134.86 170.058 135.097 170.66 135.57C171.266 136.04 171.728 136.722 172.046 137.616C172.368 138.506 172.529 139.58 172.529 140.837C172.529 142.103 172.37 143.182 172.052 144.076C171.734 144.966 171.273 145.646 170.671 146.116C170.069 146.582 169.34 146.815 168.484 146.815ZM168.484 145.565C169.332 145.565 169.991 145.156 170.461 144.337C170.931 143.519 171.165 142.353 171.165 140.837C171.165 139.83 171.058 138.972 170.842 138.264C170.629 137.555 170.323 137.015 169.921 136.644C169.523 136.273 169.044 136.087 168.484 136.087C167.643 136.087 166.986 136.502 166.512 137.332C166.039 138.158 165.802 139.326 165.802 140.837C165.802 141.845 165.908 142.701 166.12 143.406C166.332 144.11 166.637 144.646 167.035 145.014C167.436 145.381 167.919 145.565 168.484 145.565Z" fill="black"/>
<path d="M177.338 138.725C176.739 138.725 176.228 138.562 175.807 138.236C175.385 137.907 175.063 137.431 174.84 136.808C174.618 136.183 174.506 135.427 174.506 134.541C174.506 133.661 174.618 132.909 174.84 132.286C175.066 131.66 175.389 131.183 175.811 130.854C176.235 130.523 176.744 130.357 177.338 130.357C177.932 130.357 178.44 130.523 178.861 130.854C179.286 131.183 179.609 131.66 179.832 132.286C180.057 132.909 180.17 133.661 180.17 134.541C180.17 135.427 180.059 136.183 179.836 136.808C179.613 137.431 179.291 137.907 178.869 138.236C178.448 138.562 177.937 138.725 177.338 138.725ZM177.338 137.85C177.932 137.85 178.393 137.564 178.722 136.991C179.051 136.418 179.215 135.602 179.215 134.541C179.215 133.836 179.14 133.235 178.989 132.74C178.84 132.244 178.625 131.866 178.344 131.606C178.066 131.346 177.731 131.216 177.338 131.216C176.749 131.216 176.289 131.507 175.958 132.087C175.627 132.665 175.461 133.483 175.461 134.541C175.461 135.247 175.535 135.846 175.684 136.339C175.832 136.832 176.046 137.207 176.324 137.465C176.605 137.722 176.943 137.85 177.338 137.85Z" fill="black"/>
<path d="M201.594 127.679V122.345Z" fill="black"/>
<path d="M201.594 127.679V122.345" stroke="black" stroke-width="0.666667" stroke-miterlimit="10" stroke-linejoin="round"/>
<path d="M201.594 33.3585V38.6918Z" fill="black"/>
<path d="M201.594 33.3585V38.6918" stroke="black" stroke-width="0.666667" stroke-miterlimit="10" stroke-linejoin="round"/>
<path d="M193.556 135.019V146.656H192.147V136.497H192.079L189.238 138.383V136.951L192.147 135.019H193.556ZM200.698 146.815C199.842 146.815 199.113 146.582 198.511 146.116C197.909 145.646 197.448 144.966 197.13 144.076C196.812 143.182 196.653 142.103 196.653 140.837C196.653 139.58 196.812 138.506 197.13 137.616C197.452 136.722 197.914 136.04 198.516 135.57C199.123 135.097 199.85 134.86 200.698 134.86C201.547 134.86 202.272 135.097 202.874 135.57C203.48 136.04 203.943 136.722 204.261 137.616C204.583 138.506 204.744 139.58 204.744 140.837C204.744 142.103 204.585 143.182 204.266 144.076C203.948 144.966 203.488 145.646 202.886 146.116C202.284 146.582 201.554 146.815 200.698 146.815ZM200.698 145.565C201.547 145.565 202.206 145.156 202.676 144.337C203.145 143.519 203.38 142.353 203.38 140.837C203.38 139.83 203.272 138.972 203.056 138.264C202.844 137.555 202.537 137.015 202.136 136.644C201.738 136.273 201.259 136.087 200.698 136.087C199.857 136.087 199.2 136.502 198.727 137.332C198.253 138.158 198.016 139.326 198.016 140.837C198.016 141.845 198.123 142.701 198.335 143.406C198.547 144.11 198.852 144.646 199.249 145.014C199.651 145.381 200.134 145.565 200.698 145.565Z" fill="black"/>
<path d="M206.896 138.614V137.898L209.585 134.955C209.9 134.61 210.16 134.311 210.364 134.056C210.568 133.799 210.719 133.558 210.818 133.332C210.918 133.104 210.969 132.865 210.969 132.616C210.969 132.33 210.9 132.082 210.762 131.872C210.627 131.663 210.441 131.501 210.205 131.387C209.969 131.273 209.704 131.216 209.41 131.216C209.097 131.216 208.824 131.281 208.59 131.411C208.36 131.538 208.181 131.717 208.053 131.948C207.929 132.179 207.866 132.449 207.866 132.759H206.928C206.928 132.282 207.038 131.863 207.258 131.503C207.478 131.142 207.778 130.861 208.157 130.659C208.539 130.458 208.967 130.357 209.441 130.357C209.919 130.357 210.342 130.458 210.71 130.659C211.079 130.861 211.368 131.133 211.577 131.475C211.787 131.817 211.891 132.197 211.891 132.616C211.891 132.916 211.837 133.209 211.728 133.495C211.622 133.779 211.437 134.096 211.172 134.446C210.909 134.793 210.544 135.217 210.078 135.718L208.248 137.675V137.739H212.035V138.614H206.896Z" fill="black"/>
<path d="M233.809 127.679V122.345Z" fill="black"/>
<path d="M233.809 127.679V122.345" stroke="black" stroke-width="0.666667" stroke-miterlimit="10" stroke-linejoin="round"/>
<path d="M233.809 33.3585V38.6918Z" fill="black"/>
<path d="M233.809 33.3585V38.6918" stroke="black" stroke-width="0.666667" stroke-miterlimit="10" stroke-linejoin="round"/>
<path d="M225.771 135.019V146.656H224.362V136.497H224.294L221.453 138.383V136.951L224.362 135.019H225.771ZM232.913 146.815C232.057 146.815 231.328 146.582 230.725 146.116C230.123 145.646 229.663 144.966 229.345 144.076C229.027 143.182 228.868 142.103 228.868 140.837C228.868 139.58 229.027 138.506 229.345 137.616C229.667 136.722 230.129 136.04 230.731 135.57C231.337 135.097 232.064 134.86 232.913 134.86C233.761 134.86 234.487 135.097 235.089 135.57C235.695 136.04 236.157 136.722 236.475 137.616C236.797 138.506 236.958 139.58 236.958 140.837C236.958 142.103 236.799 143.182 236.481 144.076C236.163 144.966 235.703 145.646 235.1 146.116C234.498 146.582 233.769 146.815 232.913 146.815ZM232.913 145.565C233.761 145.565 234.421 145.156 234.89 144.337C235.36 143.519 235.595 142.353 235.595 140.837C235.595 139.83 235.487 138.972 235.271 138.264C235.059 137.555 234.752 137.015 234.35 136.644C233.953 136.273 233.474 136.087 232.913 136.087C232.072 136.087 231.415 136.502 230.941 137.332C230.468 138.158 230.231 139.326 230.231 140.837C230.231 141.845 230.337 142.701 230.549 143.406C230.761 144.11 231.066 144.646 231.464 145.014C231.866 145.381 232.349 145.565 232.913 145.565Z" fill="black"/>
<path d="M238.92 136.943V136.132L242.499 130.468H243.088V131.725H242.69L239.986 136.005V136.068H244.806V136.943H238.92ZM242.754 138.614V136.697V136.319V130.468H243.692V138.614H242.754Z" fill="black"/>
<path d="M266.023 127.679V122.345Z" fill="black"/>
<path d="M266.023 127.679V122.345" stroke="black" stroke-width="0.666667" stroke-miterlimit="10" stroke-linejoin="round"/>
<path d="M266.023 33.3585V38.6918Z" fill="black"/>
<path d="M266.023 33.3585V38.6918" stroke="black" stroke-width="0.666667" stroke-miterlimit="10" stroke-linejoin="round"/>
<path d="M257.986 135.019V146.656H256.577V136.497H256.508L253.667 138.383V136.951L256.577 135.019H257.986ZM265.128 146.815C264.272 146.815 263.542 146.582 262.94 146.116C262.338 145.646 261.878 144.966 261.559 144.076C261.241 143.182 261.082 142.103 261.082 140.837C261.082 139.58 261.241 138.506 261.559 137.616C261.881 136.722 262.344 136.04 262.946 135.57C263.552 135.097 264.279 134.86 265.128 134.86C265.976 134.86 266.702 135.097 267.304 135.57C267.91 136.04 268.372 136.722 268.69 137.616C269.012 138.506 269.173 139.58 269.173 140.837C269.173 142.103 269.014 143.182 268.696 144.076C268.378 144.966 267.917 145.646 267.315 146.116C266.713 146.582 265.984 146.815 265.128 146.815ZM265.128 145.565C265.976 145.565 266.635 145.156 267.105 144.337C267.575 143.519 267.809 142.353 267.809 140.837C267.809 139.83 267.702 138.972 267.486 138.264C267.273 137.555 266.967 137.015 266.565 136.644C266.167 136.273 265.688 136.087 265.128 136.087C264.287 136.087 263.63 136.502 263.156 137.332C262.683 138.158 262.446 139.326 262.446 140.837C262.446 141.845 262.552 142.701 262.764 143.406C262.976 144.11 263.281 144.646 263.679 145.014C264.08 145.381 264.563 145.565 265.128 145.565Z" fill="black"/>
<path d="M274.03 138.725C273.696 138.72 273.362 138.656 273.028 138.534C272.694 138.412 272.389 138.207 272.113 137.918C271.837 137.626 271.616 137.233 271.449 136.737C271.282 136.238 271.198 135.612 271.198 134.859C271.198 134.138 271.266 133.499 271.401 132.942C271.536 132.383 271.732 131.912 271.99 131.53C272.247 131.146 272.557 130.854 272.92 130.655C273.286 130.457 273.698 130.357 274.157 130.357C274.613 130.357 275.019 130.449 275.374 130.632C275.732 130.812 276.024 131.064 276.249 131.387C276.475 131.711 276.62 132.083 276.687 132.505H275.716C275.626 132.139 275.451 131.835 275.191 131.594C274.931 131.353 274.587 131.232 274.157 131.232C273.526 131.232 273.029 131.507 272.666 132.055C272.305 132.604 272.123 133.375 272.121 134.366H272.184C272.333 134.141 272.509 133.949 272.713 133.79C272.92 133.628 273.148 133.503 273.397 133.416C273.647 133.328 273.911 133.284 274.189 133.284C274.656 133.284 275.083 133.401 275.47 133.634C275.857 133.865 276.167 134.185 276.4 134.593C276.634 134.999 276.75 135.464 276.75 135.989C276.75 136.493 276.638 136.954 276.412 137.373C276.187 137.789 275.87 138.121 275.462 138.367C275.056 138.611 274.579 138.731 274.03 138.725ZM274.03 137.85C274.364 137.85 274.664 137.767 274.929 137.6C275.197 137.433 275.407 137.209 275.561 136.928C275.718 136.647 275.796 136.334 275.796 135.989C275.796 135.652 275.72 135.346 275.569 135.07C275.421 134.792 275.215 134.57 274.953 134.406C274.693 134.242 274.396 134.159 274.062 134.159C273.81 134.159 273.575 134.21 273.358 134.311C273.14 134.409 272.949 134.544 272.785 134.716C272.623 134.889 272.496 135.086 272.403 135.309C272.31 135.529 272.264 135.761 272.264 136.005C272.264 136.328 272.34 136.631 272.491 136.912C272.644 137.193 272.854 137.419 273.119 137.592C273.387 137.764 273.69 137.85 274.03 137.85Z" fill="black"/>
<path d="M298.238 127.679V122.345Z" fill="black"/>
<path d="M298.238 127.679V122.345" stroke="black" stroke-width="0.666667" stroke-miterlimit="10" stroke-linejoin="round"/>
<path d="M298.238 33.3585V38.6918Z" fill="black"/>
<path d="M298.238 33.3585V38.6918" stroke="black" stroke-width="0.666667" stroke-miterlimit="10" stroke-linejoin="round"/>
<path d="M290.2 135.019V146.656H288.791V136.497H288.723L285.882 138.383V136.951L288.791 135.019H290.2ZM297.342 146.815C296.486 146.815 295.757 146.582 295.155 146.116C294.553 145.646 294.092 144.966 293.774 144.076C293.456 143.182 293.297 142.103 293.297 140.837C293.297 139.58 293.456 138.506 293.774 137.616C294.096 136.722 294.558 136.04 295.161 135.57C295.767 135.097 296.494 134.86 297.342 134.86C298.191 134.86 298.916 135.097 299.518 135.57C300.125 136.04 300.587 136.722 300.905 137.616C301.227 138.506 301.388 139.58 301.388 140.837C301.388 142.103 301.229 143.182 300.911 144.076C300.592 144.966 300.132 145.646 299.53 146.116C298.928 146.582 298.198 146.815 297.342 146.815ZM297.342 145.565C298.191 145.565 298.85 145.156 299.32 144.337C299.789 143.519 300.024 142.353 300.024 140.837C300.024 139.83 299.916 138.972 299.7 138.264C299.488 137.555 299.181 137.015 298.78 136.644C298.382 136.273 297.903 136.087 297.342 136.087C296.501 136.087 295.844 136.502 295.371 137.332C294.897 138.158 294.661 139.326 294.661 140.837C294.661 141.845 294.767 142.701 294.979 143.406C295.191 144.11 295.496 144.646 295.893 145.014C296.295 145.381 296.778 145.565 297.342 145.565Z" fill="black"/>
<path d="M306.149 138.725C305.603 138.725 305.12 138.629 304.701 138.435C304.285 138.239 303.96 137.97 303.727 137.628C303.494 137.283 303.378 136.89 303.381 136.45C303.378 136.106 303.446 135.787 303.584 135.496C303.722 135.201 303.91 134.956 304.149 134.76C304.39 134.561 304.659 134.435 304.956 134.382V134.334C304.566 134.234 304.256 134.015 304.025 133.678C303.795 133.339 303.681 132.953 303.683 132.521C303.681 132.107 303.785 131.737 303.997 131.411C304.21 131.085 304.501 130.828 304.872 130.64C305.246 130.451 305.672 130.357 306.149 130.357C306.621 130.357 307.043 130.451 307.414 130.64C307.785 130.828 308.077 131.085 308.289 131.411C308.504 131.737 308.612 132.107 308.615 132.521C308.612 132.953 308.494 133.339 308.261 133.678C308.03 134.015 307.724 134.234 307.342 134.334V134.382C307.637 134.435 307.902 134.561 308.138 134.76C308.374 134.956 308.562 135.201 308.703 135.496C308.843 135.787 308.915 136.106 308.917 136.45C308.915 136.89 308.795 137.283 308.559 137.628C308.326 137.97 308.001 138.239 307.585 138.435C307.171 138.629 306.693 138.725 306.149 138.725ZM306.149 137.85C306.518 137.85 306.836 137.791 307.104 137.671C307.371 137.552 307.578 137.384 307.724 137.166C307.87 136.949 307.944 136.694 307.947 136.403C307.944 136.095 307.865 135.823 307.708 135.587C307.552 135.351 307.338 135.166 307.068 135.03C306.8 134.895 306.494 134.828 306.149 134.828C305.802 134.828 305.492 134.895 305.218 135.03C304.948 135.166 304.735 135.351 304.578 135.587C304.424 135.823 304.349 136.095 304.351 136.403C304.349 136.694 304.419 136.949 304.562 137.166C304.708 137.384 304.916 137.552 305.187 137.671C305.457 137.791 305.778 137.85 306.149 137.85ZM306.149 133.984C306.441 133.984 306.699 133.926 306.925 133.809C307.153 133.693 307.332 133.53 307.462 133.32C307.592 133.111 307.658 132.865 307.66 132.584C307.658 132.309 307.593 132.069 307.466 131.865C307.338 131.658 307.162 131.499 306.937 131.387C306.711 131.273 306.449 131.216 306.149 131.216C305.844 131.216 305.578 131.273 305.35 131.387C305.122 131.499 304.945 131.658 304.821 131.865C304.696 132.069 304.635 132.309 304.638 132.584C304.635 132.865 304.697 133.111 304.825 133.32C304.955 133.53 305.134 133.693 305.362 133.809C305.59 133.926 305.852 133.984 306.149 133.984Z" fill="black"/>
<path d="M40.5208 127.679V125.012Z" fill="black"/>
<path d="M40.5208 127.679V125.012" stroke="black" stroke-width="0.666667" stroke-miterlimit="10" stroke-linejoin="round"/>
<path d="M40.5208 33.3585V36.0252Z" fill="black"/>
<path d="M40.5208 33.3585V36.0252" stroke="black" stroke-width="0.666667" stroke-miterlimit="10" stroke-linejoin="round"/>
<path d="M72.7355 127.679V125.012Z" fill="black"/>
<path d="M72.7355 127.679V125.012" stroke="black" stroke-width="0.666667" stroke-miterlimit="10" stroke-linejoin="round"/>
<path d="M72.7355 33.3585V36.0252Z" fill="black"/>
<path d="M72.7355 33.3585V36.0252" stroke="black" stroke-width="0.666667" stroke-miterlimit="10" stroke-linejoin="round"/>
<path d="M104.95 127.679V125.012Z" fill="black"/>
<path d="M104.95 127.679V125.012" stroke="black" stroke-width="0.666667" stroke-miterlimit="10" stroke-linejoin="round"/>
<path d="M104.95 33.3585V36.0252Z" fill="black"/>
<path d="M104.95 33.3585V36.0252" stroke="black" stroke-width="0.666667" stroke-miterlimit="10" stroke-linejoin="round"/>
<path d="M137.165 127.679V125.012Z" fill="black"/>
<path d="M137.165 127.679V125.012" stroke="black" stroke-width="0.666667" stroke-miterlimit="10" stroke-linejoin="round"/>
<path d="M137.165 33.3585V36.0252Z" fill="black"/>
<path d="M137.165 33.3585V36.0252" stroke="black" stroke-width="0.666667" stroke-miterlimit="10" stroke-linejoin="round"/>
<path d="M169.38 127.679V125.012Z" fill="black"/>
<path d="M169.38 127.679V125.012" stroke="black" stroke-width="0.666667" stroke-miterlimit="10" stroke-linejoin="round"/>
<path d="M169.38 33.3585V36.0252Z" fill="black"/>
<path d="M169.38 33.3585V36.0252" stroke="black" stroke-width="0.666667" stroke-miterlimit="10" stroke-linejoin="round"/>
<path d="M201.594 127.679V125.012Z" fill="black"/>
<path d="M201.594 127.679V125.012" stroke="black" stroke-width="0.666667" stroke-miterlimit="10" stroke-linejoin="round"/>
<path d="M201.594 33.3585V36.0252Z" fill="black"/>
<path d="M201.594 33.3585V36.0252" stroke="black" stroke-width="0.666667" stroke-miterlimit="10" stroke-linejoin="round"/>
<path d="M233.809 127.679V125.012Z" fill="black"/>
<path d="M233.809 127.679V125.012" stroke="black" stroke-width="0.666667" stroke-miterlimit="10" stroke-linejoin="round"/>
<path d="M233.809 33.3585V36.0252Z" fill="black"/>
<path d="M233.809 33.3585V36.0252" stroke="black" stroke-width="0.666667" stroke-miterlimit="10" stroke-linejoin="round"/>
<path d="M266.023 127.679V125.012Z" fill="black"/>
<path d="M266.023 127.679V125.012" stroke="black" stroke-width="0.666667" stroke-miterlimit="10" stroke-linejoin="round"/>
<path d="M266.023 33.3585V36.0252Z" fill="black"/>
<path d="M266.023 33.3585V36.0252" stroke="black" stroke-width="0.666667" stroke-miterlimit="10" stroke-linejoin="round"/>
<path d="M298.238 127.679V125.012Z" fill="black"/>
<path d="M298.238 127.679V125.012" stroke="black" stroke-width="0.666667" stroke-miterlimit="10" stroke-linejoin="round"/>
<path d="M298.238 33.3585V36.0252Z" fill="black"/>
<path d="M298.238 33.3585V36.0252" stroke="black" stroke-width="0.666667" stroke-miterlimit="10" stroke-linejoin="round"/>
<path d="M168.207 162.531H169.57C170.525 162.531 171.302 162.733 171.902 163.138C172.507 163.542 172.95 164.056 173.232 164.679C173.518 165.301 173.661 165.94 173.661 166.594C173.661 167.385 173.477 168.099 173.109 168.735C172.741 169.367 172.234 169.869 171.589 170.242C170.943 170.61 170.207 170.794 169.38 170.794C168.875 170.794 168.375 170.701 167.88 170.515C167.389 170.324 166.952 169.963 166.57 169.431L166.461 169.485V166.813C166.461 167.258 166.57 167.669 166.789 168.047C167.011 168.424 167.325 168.726 167.73 168.954C168.139 169.181 168.625 169.294 169.189 169.294C169.78 169.294 170.289 169.169 170.716 168.919C171.143 168.669 171.473 168.34 171.705 167.931C171.936 167.522 172.052 167.076 172.052 166.594C172.052 166.14 171.948 165.71 171.739 165.306C171.534 164.897 171.243 164.565 170.866 164.31C170.493 164.051 170.052 163.922 169.543 163.922H168.207V162.531ZM168.998 156.449C169.648 156.449 170.223 156.554 170.723 156.763C171.227 156.972 171.652 157.254 171.998 157.608C172.348 157.958 172.611 158.351 172.789 158.788C172.97 159.224 173.061 159.672 173.061 160.131C173.061 160.704 172.916 161.274 172.625 161.842C172.334 162.406 171.889 162.876 171.289 163.254C170.689 163.626 169.925 163.813 168.998 163.813H168.207V162.422H168.97C169.498 162.422 169.948 162.313 170.32 162.094C170.698 161.876 170.984 161.592 171.18 161.242C171.38 160.892 171.48 160.522 171.48 160.131C171.48 159.504 171.239 158.983 170.757 158.569C170.28 158.156 169.693 157.949 168.998 157.949C168.534 157.949 168.109 158.044 167.723 158.235C167.341 158.426 167.034 158.692 166.802 159.033C166.575 159.374 166.461 159.767 166.461 160.213V174.531H164.852V160.213C164.852 159.494 165.03 158.851 165.384 158.283C165.743 157.715 166.234 157.267 166.857 156.94C167.484 156.613 168.198 156.449 168.998 156.449Z" fill="#272727"/>
<path d="M40.5208 127.679H45.8541Z" fill="black"/>
<path d="M40.5208 127.679H45.8541" stroke="black" stroke-width="0.666667" stroke-miterlimit="10" stroke-linejoin="round"/>
<path d="M298.238 127.679H292.905Z" fill="black"/>
<path d="M298.238 127.679H292.905" stroke="black" stroke-width="0.666667" stroke-miterlimit="10" stroke-linejoin="round"/>
<path d="M40.5208 106.242H45.8541Z" fill="black"/>
<path d="M40.5208 106.242H45.8541" stroke="black" stroke-width="0.666667" stroke-miterlimit="10" stroke-linejoin="round"/>
<path d="M298.238 106.242H292.905Z" fill="black"/>
<path d="M298.238 106.242H292.905" stroke="black" stroke-width="0.666667" stroke-miterlimit="10" stroke-linejoin="round"/>
<path d="M40.5208 84.8058H45.8541Z" fill="black"/>
<path d="M40.5208 84.8058H45.8541" stroke="black" stroke-width="0.666667" stroke-miterlimit="10" stroke-linejoin="round"/>
<path d="M298.238 84.8058H292.905Z" fill="black"/>
<path d="M298.238 84.8058H292.905" stroke="black" stroke-width="0.666667" stroke-miterlimit="10" stroke-linejoin="round"/>
<path d="M40.5208 63.3694H45.8541Z" fill="black"/>
<path d="M40.5208 63.3694H45.8541" stroke="black" stroke-width="0.666667" stroke-miterlimit="10" stroke-linejoin="round"/>
<path d="M298.238 63.3694H292.905Z" fill="black"/>
<path d="M298.238 63.3694H292.905" stroke="black" stroke-width="0.666667" stroke-miterlimit="10" stroke-linejoin="round"/>
<path d="M40.5208 41.9331H45.8541Z" fill="black"/>
<path d="M40.5208 41.9331H45.8541" stroke="black" stroke-width="0.666667" stroke-miterlimit="10" stroke-linejoin="round"/>
<path d="M298.238 41.9331H292.905Z" fill="black"/>
<path d="M298.238 41.9331H292.905" stroke="black" stroke-width="0.666667" stroke-miterlimit="10" stroke-linejoin="round"/>
<path d="M15.1818 106.517C15.1818 107.305 14.9943 107.996 14.6193 108.591C14.2443 109.181 13.7197 109.644 13.0455 109.977C12.3712 110.306 11.5833 110.471 10.6818 110.471C9.77273 110.471 8.97917 110.306 8.30114 109.977C7.62311 109.644 7.09659 109.181 6.72159 108.591C6.34659 107.996 6.15909 107.305 6.15909 106.517C6.15909 105.729 6.34659 105.039 6.72159 104.448C7.09659 103.854 7.62311 103.392 8.30114 103.062C8.97917 102.729 9.77273 102.562 10.6818 102.562C11.5833 102.562 12.3712 102.729 13.0455 103.062C13.7197 103.392 14.2443 103.854 14.6193 104.448C14.9943 105.039 15.1818 105.729 15.1818 106.517ZM13.9773 106.517C13.9773 105.918 13.8239 105.426 13.517 105.039C13.2102 104.653 12.8068 104.367 12.3068 104.181C11.8068 103.996 11.2652 103.903 10.6818 103.903C10.0985 103.903 9.55492 103.996 9.05114 104.181C8.54735 104.367 8.14015 104.653 7.82955 105.039C7.51894 105.426 7.36364 105.918 7.36364 106.517C7.36364 107.115 7.51894 107.608 7.82955 107.994C8.14015 108.38 8.54735 108.666 9.05114 108.852C9.55492 109.037 10.0985 109.13 10.6818 109.13C11.2652 109.13 11.8068 109.037 12.3068 108.852C12.8068 108.666 13.2102 108.38 13.517 107.994C13.8239 107.608 13.9773 107.115 13.9773 106.517ZM15 100.333H3.36364V98.9925H7.65909V98.8789C7.50758 98.7804 7.31439 98.644 7.07955 98.4698C6.84091 98.2917 6.62879 98.0379 6.44318 97.7084C6.25379 97.3751 6.15909 96.9243 6.15909 96.3561C6.15909 95.6213 6.3428 94.9736 6.71023 94.4129C7.07765 93.8523 7.59849 93.4148 8.27273 93.1004C8.94697 92.7861 9.74242 92.6289 10.6591 92.6289C11.5833 92.6289 12.3845 92.7861 13.0625 93.1004C13.7367 93.4148 14.2595 93.8504 14.6307 94.4073C14.9981 94.9641 15.1818 95.6061 15.1818 96.3334C15.1818 96.894 15.089 97.3429 14.9034 97.68C14.714 98.0171 14.5 98.2766 14.2614 98.4584C14.0189 98.6402 13.8182 98.7804 13.6591 98.8789V99.0379H15V100.333ZM10.6364 99.0152C11.2955 99.0152 11.8769 98.9186 12.3807 98.7254C12.8807 98.5323 13.2727 98.2501 13.5568 97.8789C13.8371 97.5076 13.9773 97.0531 13.9773 96.5152C13.9773 95.9546 13.8295 95.4868 13.5341 95.1118C13.2348 94.733 12.8333 94.4489 12.3295 94.2595C11.822 94.0664 11.2576 93.9698 10.6364 93.9698C10.0227 93.9698 9.4697 94.0645 8.97727 94.2539C8.48106 94.4395 8.08902 94.7217 7.80114 95.1004C7.50947 95.4754 7.36364 95.947 7.36364 96.5152C7.36364 97.0607 7.50189 97.519 7.77841 97.8902C8.05114 98.2614 8.43371 98.5417 8.92614 98.7311C9.41477 98.9205 9.98485 99.0152 10.6364 99.0152ZM6.27273 90.5777V89.2368H15.6364C16.1742 89.2368 16.6402 89.3296 17.0341 89.5152C17.428 89.697 17.733 89.9736 17.9489 90.3448C18.1648 90.7122 18.2727 91.1762 18.2727 91.7368C18.2727 91.7823 18.2727 91.8277 18.2727 91.8732C18.2727 91.9186 18.2727 91.9641 18.2727 92.0095H17.0227C17.0227 91.9641 17.0227 91.9224 17.0227 91.8845C17.0227 91.8467 17.0227 91.805 17.0227 91.7595C17.0227 91.3504 16.9015 91.0512 16.6591 90.8618C16.4205 90.6724 16.0795 90.5777 15.6364 90.5777H6.27273ZM4.81818 89.9186C4.81818 90.18 4.72917 90.4054 4.55114 90.5948C4.37311 90.7804 4.15909 90.8732 3.90909 90.8732C3.65909 90.8732 3.44508 90.7804 3.26705 90.5948C3.08902 90.4054 3 90.18 3 89.9186C3 89.6573 3.08902 89.4338 3.26705 89.2482C3.44508 89.0588 3.65909 88.9641 3.90909 88.9641C4.15909 88.9641 4.37311 89.0588 4.55114 89.2482C4.72917 89.4338 4.81818 89.6573 4.81818 89.9186ZM15.1818 83.1218C15.1818 83.9627 14.9962 84.688 14.625 85.2979C14.25 85.904 13.7273 86.3718 13.0568 86.7013C12.3826 87.0271 11.5985 87.1899 10.7045 87.1899C9.81061 87.1899 9.02273 87.0271 8.34091 86.7013C7.6553 86.3718 7.12121 85.9134 6.73864 85.3263C6.35227 84.7354 6.15909 84.046 6.15909 83.2581C6.15909 82.8036 6.23485 82.3547 6.38636 81.9115C6.53788 81.4683 6.78409 81.0649 7.125 80.7013C7.46212 80.3377 7.90909 80.0479 8.46591 79.832C9.02273 79.6161 9.70833 79.5081 10.5227 79.5081H11.0909V86.2354H9.93182V80.8718C9.43939 80.8718 9 80.9702 8.61364 81.1672C8.22727 81.3604 7.92235 81.6369 7.69886 81.9968C7.47538 82.3528 7.36364 82.7733 7.36364 83.2581C7.36364 83.7922 7.49621 84.2543 7.76136 84.6445C8.02273 85.0308 8.36364 85.3282 8.78409 85.5365C9.20455 85.7449 9.6553 85.849 10.1364 85.849H10.9091C11.5682 85.849 12.1269 85.7354 12.5852 85.5081C13.0398 85.2771 13.3864 84.957 13.625 84.5479C13.8598 84.1388 13.9773 83.6634 13.9773 83.1218C13.9773 82.7695 13.928 82.4513 13.8295 82.1672C13.7273 81.8793 13.5758 81.6312 13.375 81.4229C13.1705 81.2146 12.9167 81.0536 12.6136 80.9399L12.9773 79.6445C13.4167 79.7808 13.803 80.01 14.1364 80.332C14.4659 80.654 14.7235 81.0517 14.9091 81.5252C15.0909 81.9987 15.1818 82.5308 15.1818 83.1218ZM15.1818 73.9229C15.1818 74.7411 14.9886 75.4456 14.6023 76.0365C14.2159 76.6274 13.6837 77.082 13.0057 77.4002C12.3277 77.7183 11.553 77.8774 10.6818 77.8774C9.79545 77.8774 9.01326 77.7146 8.33523 77.3888C7.65341 77.0593 7.12121 76.6009 6.73864 76.0138C6.35227 75.4229 6.15909 74.7335 6.15909 73.9456C6.15909 73.332 6.27273 72.779 6.5 72.2865C6.72727 71.7941 7.04545 71.3907 7.45455 71.0763C7.86364 70.7619 8.34091 70.5668 8.88636 70.4911V71.832C8.48864 71.9343 8.13636 72.1615 7.82955 72.5138C7.51894 72.8623 7.36364 73.332 7.36364 73.9229C7.36364 74.4456 7.5 74.904 7.77273 75.2979C8.04167 75.688 8.42235 75.993 8.91477 76.2127C9.40341 76.4286 9.97727 76.5365 10.6364 76.5365C11.3106 76.5365 11.8977 76.4305 12.3977 76.2183C12.8977 76.0024 13.286 75.6994 13.5625 75.3093C13.839 74.9153 13.9773 74.4532 13.9773 73.9229C13.9773 73.5744 13.9167 73.2581 13.7955 72.974C13.6742 72.6899 13.5 72.4494 13.2727 72.2524C13.0455 72.0555 12.7727 71.9153 12.4545 71.832V70.4911C12.9697 70.5668 13.4337 70.7543 13.8466 71.0536C14.2557 71.349 14.5814 71.7411 14.8239 72.2297C15.0625 72.7146 15.1818 73.279 15.1818 73.9229ZM6.27273 64.7354H7.40909V69.2581H6.27273V64.7354ZM4.18182 67.9399V66.599H12.5C12.8788 66.599 13.1629 66.5441 13.3523 66.4343C13.5379 66.3206 13.6629 66.1767 13.7273 66.0024C13.7879 65.8244 13.8182 65.6369 13.8182 65.4399C13.8182 65.2922 13.8106 65.171 13.7955 65.0763C13.7765 64.9816 13.7614 64.9058 13.75 64.849L14.9545 64.5763C14.9886 64.6672 15.0227 64.7941 15.0568 64.957C15.0947 65.1199 15.1136 65.3263 15.1136 65.5763C15.1136 65.9551 15.0322 66.3263 14.8693 66.6899C14.7064 67.0498 14.4583 67.349 14.125 67.5877C13.7917 67.8225 13.3712 67.9399 12.8636 67.9399H4.18182ZM15 62.7183H6.27273V61.3774H15V62.7183ZM4.81818 62.0365C4.81818 62.2979 4.72917 62.5233 4.55114 62.7127C4.37311 62.8983 4.15909 62.9911 3.90909 62.9911C3.65909 62.9911 3.44508 62.8983 3.26705 62.7127C3.08902 62.5233 3 62.2979 3 62.0365C3 61.7752 3.08902 61.5517 3.26705 61.3661C3.44508 61.1767 3.65909 61.082 3.90909 61.082C4.15909 61.082 4.37311 61.1767 4.55114 61.3661C4.72917 61.5517 4.81818 61.7752 4.81818 62.0365ZM6.27273 51.7851L15 55.0124V56.376L6.27273 59.6033V58.1487L13.2273 55.7397V55.6487L6.27273 53.2397V51.7851ZM15.1818 46.6686C15.1818 47.5095 14.9962 48.2349 14.625 48.8448C14.25 49.4508 13.7273 49.9186 13.0568 50.2482C12.3826 50.5739 11.5985 50.7368 10.7045 50.7368C9.81061 50.7368 9.02273 50.5739 8.34091 50.2482C7.6553 49.9186 7.12121 49.4603 6.73864 48.8732C6.35227 48.2823 6.15909 47.5929 6.15909 46.805C6.15909 46.3505 6.23485 45.9016 6.38636 45.4584C6.53788 45.0152 6.78409 44.6118 7.125 44.2482C7.46212 43.8845 7.90909 43.5948 8.46591 43.3789C9.02273 43.163 9.70833 43.055 10.5227 43.055H11.0909V49.7823H9.93182V44.4186C9.43939 44.4186 9 44.5171 8.61364 44.7141C8.22727 44.9073 7.92235 45.1838 7.69886 45.5436C7.47538 45.8997 7.36364 46.3202 7.36364 46.805C7.36364 47.3391 7.49621 47.8012 7.76136 48.1914C8.02273 48.5777 8.36364 48.8751 8.78409 49.0834C9.20455 49.2917 9.6553 49.3959 10.1364 49.3959H10.9091C11.5682 49.3959 12.1269 49.2823 12.5852 49.055C13.0398 48.8239 13.3864 48.5039 13.625 48.0948C13.8598 47.6857 13.9773 47.2103 13.9773 46.6686C13.9773 46.3164 13.928 45.9982 13.8295 45.7141C13.7273 45.4262 13.5758 45.1781 13.375 44.9698C13.1705 44.7614 12.9167 44.6005 12.6136 44.4868L12.9773 43.1914C13.4167 43.3277 13.803 43.5569 14.1364 43.8789C14.4659 44.2008 14.7235 44.5986 14.9091 45.072C15.0909 45.5455 15.1818 46.0777 15.1818 46.6686Z" fill="#272727"/>
<path d="M23.7519 102.228H24.8883V106.932H23.7519V102.228ZM32.4792 105.523H22.5474C22.0474 105.523 21.6307 105.406 21.2974 105.171C20.964 104.936 20.714 104.631 20.5474 104.256C20.3807 103.881 20.2974 103.485 20.2974 103.069C20.2974 102.739 20.3239 102.47 20.3769 102.262C20.4299 102.054 20.4792 101.898 20.5246 101.796L21.6837 102.182C21.661 102.251 21.6326 102.345 21.5985 102.466C21.5644 102.584 21.5474 102.739 21.5474 102.932C21.5474 103.376 21.6591 103.696 21.8826 103.893C22.1061 104.086 22.4337 104.182 22.8656 104.182H32.4792V105.523ZM28.911 94.8485H23.7519V93.5076H32.4792V94.8485H31.0019V94.9394C31.4451 95.144 31.822 95.4622 32.1326 95.894C32.4394 96.3258 32.5928 96.8713 32.5928 97.5304C32.5928 98.0758 32.4735 98.5607 32.2349 98.9849C31.9924 99.4091 31.6288 99.7425 31.144 99.9849C30.6553 100.227 30.0398 100.349 29.2974 100.349H23.7519V99.0076H29.2065C29.8428 99.0076 30.3504 98.8296 30.7292 98.4735C31.108 98.1137 31.2974 97.6554 31.2974 97.0985C31.2974 96.7652 31.2121 96.4262 31.0417 96.0815C30.8712 95.733 30.6099 95.4413 30.2576 95.2065C29.9053 94.9679 29.4565 94.8485 28.911 94.8485ZM27.2292 89.7108H32.4792V91.0517H23.7519V89.7562H25.1156V89.6426C24.6724 89.438 24.3163 89.1274 24.0474 88.7108C23.7746 88.2941 23.6383 87.7562 23.6383 87.0971C23.6383 86.5062 23.7595 85.9892 24.0019 85.546C24.2406 85.1028 24.6042 84.7581 25.0928 84.5119C25.5777 84.2657 26.1913 84.1426 26.9337 84.1426H32.4792V85.4835H27.0246C26.339 85.4835 25.8049 85.6615 25.4224 86.0176C25.036 86.3736 24.8428 86.8623 24.8428 87.4835C24.8428 87.9115 24.9356 88.2941 25.1212 88.6312C25.3068 88.9645 25.5777 89.2278 25.9337 89.421C26.2898 89.6142 26.7216 89.7108 27.2292 89.7108ZM32.661 78.1468C32.661 78.965 32.4678 79.6696 32.0815 80.2605C31.6951 80.8514 31.1629 81.3059 30.4849 81.6241C29.8068 81.9423 29.0322 82.1014 28.161 82.1014C27.2746 82.1014 26.4924 81.9385 25.8144 81.6127C25.1326 81.2832 24.6004 80.8249 24.2178 80.2377C23.8315 79.6468 23.6383 78.9574 23.6383 78.1696C23.6383 77.5559 23.7519 77.0029 23.9792 76.5105C24.2065 76.018 24.5246 75.6146 24.9337 75.3002C25.3428 74.9858 25.8201 74.7908 26.3656 74.715V76.0559C25.9678 76.1582 25.6156 76.3855 25.3087 76.7377C24.9981 77.0862 24.8428 77.5559 24.8428 78.1468C24.8428 78.6696 24.9792 79.1279 25.2519 79.5218C25.5209 79.912 25.9015 80.2169 26.394 80.4366C26.8826 80.6525 27.4565 80.7605 28.1156 80.7605C28.7898 80.7605 29.3769 80.6544 29.8769 80.4423C30.3769 80.2264 30.7652 79.9233 31.0417 79.5332C31.3182 79.1393 31.4565 78.6771 31.4565 78.1468C31.4565 77.7983 31.3959 77.4821 31.2746 77.198C31.1534 76.9139 30.9792 76.6733 30.7519 76.4764C30.5246 76.2794 30.2519 76.1393 29.9337 76.0559V74.715C30.4489 74.7908 30.9129 74.9783 31.3258 75.2775C31.7349 75.573 32.0606 75.965 32.3031 76.4536C32.5417 76.9385 32.661 77.5029 32.661 78.1468ZM23.7519 68.9593H24.8883V73.4821H23.7519V68.9593ZM21.661 72.1639V70.823H29.9792C30.358 70.823 30.6421 70.768 30.8315 70.6582C31.0171 70.5446 31.1421 70.4006 31.2065 70.2264C31.2671 70.0483 31.2974 69.8608 31.2974 69.6639C31.2974 69.5162 31.2898 69.3949 31.2746 69.3002C31.2557 69.2055 31.2406 69.1298 31.2292 69.073L32.4337 68.8002C32.4678 68.8912 32.5019 69.018 32.536 69.1809C32.5739 69.3438 32.5928 69.5502 32.5928 69.8002C32.5928 70.179 32.5114 70.5502 32.3485 70.9139C32.1856 71.2737 31.9375 71.573 31.6042 71.8116C31.2709 72.0465 30.8504 72.1639 30.3428 72.1639H21.661ZM32.4792 66.9423H23.7519V65.6014H32.4792V66.9423ZM22.2974 66.2605C22.2974 66.5218 22.2084 66.7472 22.0303 66.9366C21.8523 67.1222 21.6383 67.215 21.3883 67.215C21.1383 67.215 20.9243 67.1222 20.7462 66.9366C20.5682 66.7472 20.4792 66.5218 20.4792 66.2605C20.4792 65.9991 20.5682 65.7756 20.7462 65.59C20.9243 65.4006 21.1383 65.3059 21.3883 65.3059C21.6383 65.3059 21.8523 65.4006 22.0303 65.59C22.2084 65.7756 22.2974 65.9991 22.2974 66.2605ZM32.661 59.6C32.661 60.3878 32.4735 61.0791 32.0985 61.6738C31.7235 62.2647 31.1989 62.7269 30.5246 63.0602C29.8504 63.3897 29.0625 63.5545 28.161 63.5545C27.2519 63.5545 26.4584 63.3897 25.7803 63.0602C25.1023 62.7269 24.5758 62.2647 24.2008 61.6738C23.8258 61.0791 23.6383 60.3878 23.6383 59.6C23.6383 58.8121 23.8258 58.1227 24.2008 57.5318C24.5758 56.9371 25.1023 56.475 25.7803 56.1454C26.4584 55.8121 27.2519 55.6454 28.161 55.6454C29.0625 55.6454 29.8504 55.8121 30.5246 56.1454C31.1989 56.475 31.7235 56.9371 32.0985 57.5318C32.4735 58.1227 32.661 58.8121 32.661 59.6ZM31.4565 59.6C31.4565 59.0015 31.3031 58.509 30.9962 58.1227C30.6894 57.7363 30.286 57.4503 29.786 57.2647C29.286 57.0791 28.7443 56.9863 28.161 56.9863C27.5777 56.9863 27.0341 57.0791 26.5303 57.2647C26.0265 57.4503 25.6193 57.7363 25.3087 58.1227C24.9981 58.509 24.8428 59.0015 24.8428 59.6C24.8428 60.1984 24.9981 60.6909 25.3087 61.0772C25.6193 61.4636 26.0265 61.7496 26.5303 61.9352C27.0341 62.1208 27.5777 62.2136 28.161 62.2136C28.7443 62.2136 29.286 62.1208 29.786 61.9352C30.286 61.7496 30.6894 61.4636 30.9962 61.0772C31.3031 60.6909 31.4565 60.1984 31.4565 59.6ZM27.2292 52.2576H32.4792V53.5985H23.7519V52.3031H25.1156V52.1894C24.6724 51.9849 24.3163 51.6743 24.0474 51.2576C23.7746 50.841 23.6383 50.3031 23.6383 49.644C23.6383 49.0531 23.7595 48.536 24.0019 48.0929C24.2406 47.6497 24.6042 47.305 25.0928 47.0588C25.5777 46.8126 26.1913 46.6894 26.9337 46.6894H32.4792V48.0304H27.0246C26.339 48.0304 25.8049 48.2084 25.4224 48.5644C25.036 48.9205 24.8428 49.4091 24.8428 50.0304C24.8428 50.4584 24.9356 50.841 25.1212 51.1781C25.3068 51.5114 25.5777 51.7747 25.9337 51.9679C26.2898 52.161 26.7216 52.2576 27.2292 52.2576Z" fill="#272727"/>
<path d="M40.5208 41.9331L93.6184 42.0809L101.389 42.3808L106.569 42.8682L110.454 43.5534L113.044 44.2655L115.634 45.2817L118.225 46.7223L120.815 48.7455L122.11 50.0358L123.405 51.5486L124.7 53.3129L125.995 55.3578L127.29 57.7105L128.585 60.3934L131.175 66.7955L133.765 74.5031L141.536 99.4815L142.831 102.624L144.126 105.189L145.421 107.147L146.716 108.507L148.011 109.311L149.306 109.615L150.601 109.481L151.896 108.967L153.191 108.121L154.486 106.985L155.781 105.592L158.371 102.159L160.962 98.1037L166.142 89.7345L168.732 86.2591L171.322 83.5406L173.912 81.4964L176.502 79.9274L180.388 78.0633L194.633 71.8197L198.518 69.6733L201.109 67.9128L203.699 65.7902L206.289 63.2527L208.879 60.3128L216.649 51.0138L219.239 48.7258L221.829 47.0435L224.42 45.7906L228.305 44.3173L232.19 43.1617L236.075 42.4023L239.96 42.0531L246.436 41.9361L298.238 41.9335" stroke="#007EFF" stroke-width="1.33333" stroke-miterlimit="10" stroke-linecap="round" stroke-linejoin="round"/>
<path d="M40.5208 33.3585H298.238" stroke="#CCCCCC" stroke-width="1.33333" stroke-miterlimit="10" stroke-linejoin="round"/>
<path d="M298.238 127.679V33.3585" stroke="#CCCCCC" stroke-width="1.33333" stroke-miterlimit="10" stroke-linejoin="round"/>
<path d="M40.5208 127.679H298.238" stroke="#CCCCCC" stroke-width="1.33333" stroke-miterlimit="10" stroke-linejoin="round"/>
<path d="M40.5208 127.679V33.3585" stroke="#CCCCCC" stroke-width="1.33333" stroke-miterlimit="10" stroke-linejoin="round"/>
<path d="M42.7216 18H40.9981L45.9829 4.42424H47.6799L52.6648 18H50.9413L46.8844 6.57197H46.7784L42.7216 18ZM43.3579 12.697H50.3049V14.1553H43.3579V12.697Z" fill="black"/>
<path d="M415.881 127.679H673.598V33.3585H415.881V127.679Z" fill="white"/>
<path d="M415.881 127.679V122.345Z" fill="black"/>
<path d="M415.881 127.679V122.345" stroke="black" stroke-width="0.666667" stroke-miterlimit="10" stroke-linejoin="round"/>
<path d="M415.881 33.3585V38.6918Z" fill="black"/>
<path d="M415.881 33.3585V38.6918" stroke="black" stroke-width="0.666667" stroke-miterlimit="10" stroke-linejoin="round"/>
<path d="M405.843 135.019V146.656H404.434V136.497H404.366L401.525 138.383V136.951L404.434 135.019H405.843ZM412.985 146.815C412.129 146.815 411.4 146.582 410.797 146.116C410.195 145.646 409.735 144.966 409.417 144.076C409.099 143.182 408.94 142.103 408.94 140.837C408.94 139.58 409.099 138.506 409.417 137.616C409.739 136.722 410.201 136.04 410.803 135.57C411.409 135.097 412.136 134.86 412.985 134.86C413.833 134.86 414.559 135.097 415.161 135.57C415.767 136.04 416.229 136.722 416.547 137.616C416.869 138.506 417.03 139.58 417.03 140.837C417.03 142.103 416.871 143.182 416.553 144.076C416.235 144.966 415.775 145.646 415.172 146.116C414.57 146.582 413.841 146.815 412.985 146.815ZM412.985 145.565C413.833 145.565 414.493 145.156 414.962 144.337C415.432 143.519 415.667 142.353 415.667 140.837C415.667 139.83 415.559 138.972 415.343 138.264C415.131 137.555 414.824 137.015 414.422 136.644C414.025 136.273 413.546 136.087 412.985 136.087C412.144 136.087 411.487 136.502 411.013 137.332C410.54 138.158 410.303 139.326 410.303 140.837C410.303 141.845 410.409 142.701 410.621 143.406C410.833 144.11 411.138 144.646 411.536 145.014C411.938 145.381 412.421 145.565 412.985 145.565Z" fill="black"/>
<path d="M422.699 134.104V134.979H419.135V134.104H422.699ZM426.943 138.725C426.397 138.725 425.915 138.629 425.496 138.435C425.079 138.239 424.754 137.97 424.521 137.628C424.288 137.283 424.172 136.89 424.175 136.45C424.172 136.106 424.24 135.787 424.378 135.496C424.516 135.201 424.704 134.956 424.943 134.76C425.184 134.561 425.453 134.435 425.75 134.382V134.334C425.36 134.234 425.05 134.015 424.819 133.678C424.589 133.339 424.475 132.953 424.477 132.521C424.475 132.107 424.579 131.737 424.792 131.411C425.004 131.085 425.295 130.828 425.667 130.64C426.04 130.451 426.466 130.357 426.943 130.357C427.415 130.357 427.837 130.451 428.208 130.64C428.579 130.828 428.871 131.085 429.083 131.411C429.298 131.737 429.407 132.107 429.409 132.521C429.407 132.953 429.289 133.339 429.055 133.678C428.825 134.015 428.518 134.234 428.136 134.334V134.382C428.431 134.435 428.696 134.561 428.932 134.76C429.168 134.956 429.356 135.201 429.497 135.496C429.637 135.787 429.709 136.106 429.711 136.45C429.709 136.89 429.59 137.283 429.354 137.628C429.12 137.97 428.795 138.239 428.379 138.435C427.965 138.629 427.487 138.725 426.943 138.725ZM426.943 137.85C427.312 137.85 427.63 137.791 427.898 137.671C428.166 137.552 428.372 137.384 428.518 137.166C428.664 136.949 428.738 136.694 428.741 136.403C428.738 136.095 428.659 135.823 428.502 135.587C428.346 135.351 428.133 135.166 427.862 135.03C427.594 134.895 427.288 134.828 426.943 134.828C426.596 134.828 426.286 134.895 426.013 135.03C425.742 135.166 425.529 135.351 425.372 135.587C425.219 135.823 425.143 136.095 425.146 136.403C425.143 136.694 425.213 136.949 425.356 137.166C425.502 137.384 425.71 137.552 425.981 137.671C426.251 137.791 426.572 137.85 426.943 137.85ZM426.943 133.984C427.235 133.984 427.494 133.926 427.719 133.809C427.947 133.693 428.126 133.53 428.256 133.32C428.386 133.111 428.452 132.865 428.455 132.584C428.452 132.309 428.387 132.069 428.26 131.865C428.133 131.658 427.956 131.499 427.731 131.387C427.505 131.273 427.243 131.216 426.943 131.216C426.638 131.216 426.372 131.273 426.144 131.387C425.916 131.499 425.74 131.658 425.615 131.865C425.49 132.069 425.429 132.309 425.432 132.584C425.429 132.865 425.492 133.111 425.619 133.32C425.749 133.53 425.928 133.693 426.156 133.809C426.384 133.926 426.646 133.984 426.943 133.984Z" fill="black"/>
<path d="M448.095 127.679V122.345Z" fill="black"/>
<path d="M448.095 127.679V122.345" stroke="black" stroke-width="0.666667" stroke-miterlimit="10" stroke-linejoin="round"/>
<path d="M448.095 33.3585V38.6918Z" fill="black"/>
<path d="M448.095 33.3585V38.6918" stroke="black" stroke-width="0.666667" stroke-miterlimit="10" stroke-linejoin="round"/>
<path d="M438.058 135.019V146.656H436.649V136.497H436.58L433.739 138.383V136.951L436.649 135.019H438.058ZM445.2 146.815C444.344 146.815 443.614 146.582 443.012 146.116C442.41 145.646 441.95 144.966 441.631 144.076C441.313 143.182 441.154 142.103 441.154 140.837C441.154 139.58 441.313 138.506 441.631 137.616C441.953 136.722 442.416 136.04 443.018 135.57C443.624 135.097 444.351 134.86 445.2 134.86C446.048 134.86 446.774 135.097 447.376 135.57C447.982 136.04 448.444 136.722 448.762 137.616C449.084 138.506 449.245 139.58 449.245 140.837C449.245 142.103 449.086 143.182 448.768 144.076C448.45 144.966 447.989 145.646 447.387 146.116C446.785 146.582 446.056 146.815 445.2 146.815ZM445.2 145.565C446.048 145.565 446.707 145.156 447.177 144.337C447.647 143.519 447.881 142.353 447.881 140.837C447.881 139.83 447.774 138.972 447.558 138.264C447.345 137.555 447.039 137.015 446.637 136.644C446.239 136.273 445.76 136.087 445.2 136.087C444.359 136.087 443.702 136.502 443.228 137.332C442.755 138.158 442.518 139.326 442.518 140.837C442.518 141.845 442.624 142.701 442.836 143.406C443.048 144.11 443.353 144.646 443.751 145.014C444.152 145.381 444.635 145.565 445.2 145.565Z" fill="black"/>
<path d="M454.913 134.104V134.979H451.35V134.104H454.913ZM459.253 138.725C458.919 138.72 458.585 138.656 458.251 138.534C457.917 138.412 457.612 138.207 457.336 137.918C457.061 137.626 456.839 137.233 456.672 136.737C456.505 136.238 456.422 135.612 456.422 134.859C456.422 134.138 456.489 133.499 456.624 132.942C456.76 132.383 456.956 131.912 457.213 131.53C457.47 131.146 457.781 130.854 458.144 130.655C458.51 130.457 458.922 130.357 459.381 130.357C459.837 130.357 460.242 130.449 460.598 130.632C460.956 130.812 461.247 131.064 461.473 131.387C461.698 131.711 461.844 132.083 461.91 132.505H460.94C460.85 132.139 460.675 131.835 460.415 131.594C460.155 131.353 459.81 131.232 459.381 131.232C458.75 131.232 458.252 131.507 457.889 132.055C457.529 132.604 457.347 133.375 457.344 134.366H457.408C457.556 134.141 457.733 133.949 457.937 133.79C458.144 133.628 458.372 133.503 458.621 133.416C458.87 133.328 459.134 133.284 459.413 133.284C459.879 133.284 460.306 133.401 460.693 133.634C461.08 133.865 461.391 134.185 461.624 134.593C461.857 134.999 461.974 135.464 461.974 135.989C461.974 136.493 461.861 136.954 461.636 137.373C461.41 137.789 461.094 138.121 460.685 138.367C460.28 138.611 459.802 138.731 459.253 138.725ZM459.253 137.85C459.588 137.85 459.887 137.767 460.152 137.6C460.42 137.433 460.631 137.209 460.785 136.928C460.941 136.647 461.019 136.334 461.019 135.989C461.019 135.652 460.944 135.346 460.793 135.07C460.644 134.792 460.439 134.57 460.176 134.406C459.916 134.242 459.619 134.159 459.285 134.159C459.033 134.159 458.799 134.21 458.581 134.311C458.364 134.409 458.173 134.544 458.009 134.716C457.847 134.889 457.72 135.086 457.627 135.309C457.534 135.529 457.488 135.761 457.488 136.005C457.488 136.328 457.563 136.631 457.714 136.912C457.868 137.193 458.077 137.419 458.343 137.592C458.61 137.764 458.914 137.85 459.253 137.85Z" fill="black"/>
<path d="M480.31 127.679V122.345Z" fill="black"/>
<path d="M480.31 127.679V122.345" stroke="black" stroke-width="0.666667" stroke-miterlimit="10" stroke-linejoin="round"/>
<path d="M480.31 33.3585V38.6918Z" fill="black"/>
<path d="M480.31 33.3585V38.6918" stroke="black" stroke-width="0.666667" stroke-miterlimit="10" stroke-linejoin="round"/>
<path d="M470.272 135.019V146.656H468.863V136.497H468.795L465.954 138.383V136.951L468.863 135.019H470.272ZM477.414 146.815C476.558 146.815 475.829 146.582 475.227 146.116C474.625 145.646 474.164 144.966 473.846 144.076C473.528 143.182 473.369 142.103 473.369 140.837C473.369 139.58 473.528 138.506 473.846 137.616C474.168 136.722 474.63 136.04 475.232 135.57C475.839 135.097 476.566 134.86 477.414 134.86C478.263 134.86 478.988 135.097 479.59 135.57C480.197 136.04 480.659 136.722 480.977 137.616C481.299 138.506 481.46 139.58 481.46 140.837C481.46 142.103 481.301 143.182 480.982 144.076C480.664 144.966 480.204 145.646 479.602 146.116C479 146.582 478.27 146.815 477.414 146.815ZM477.414 145.565C478.263 145.565 478.922 145.156 479.392 144.337C479.861 143.519 480.096 142.353 480.096 140.837C480.096 139.83 479.988 138.972 479.772 138.264C479.56 137.555 479.253 137.015 478.852 136.644C478.454 136.273 477.975 136.087 477.414 136.087C476.573 136.087 475.916 136.502 475.443 137.332C474.969 138.158 474.732 139.326 474.732 140.837C474.732 141.845 474.839 142.701 475.051 143.406C475.263 144.11 475.568 144.646 475.965 145.014C476.367 145.381 476.85 145.565 477.414 145.565Z" fill="black"/>
<path d="M487.128 134.104V134.979H483.564V134.104H487.128ZM488.573 136.943V136.132L492.152 130.468H492.741V131.725H492.343L489.639 136.005V136.068H494.459V136.943H488.573ZM492.407 138.614V136.697V136.319V130.468H493.345V138.614H492.407Z" fill="black"/>
<path d="M512.525 127.679V122.345Z" fill="black"/>
<path d="M512.525 127.679V122.345" stroke="black" stroke-width="0.666667" stroke-miterlimit="10" stroke-linejoin="round"/>
<path d="M512.525 33.3585V38.6918Z" fill="black"/>
<path d="M512.525 33.3585V38.6918" stroke="black" stroke-width="0.666667" stroke-miterlimit="10" stroke-linejoin="round"/>
<path d="M502.487 135.019V146.656H501.078V136.497H501.01L498.169 138.383V136.951L501.078 135.019H502.487ZM509.629 146.815C508.773 146.815 508.044 146.582 507.441 146.116C506.839 145.646 506.379 144.966 506.061 144.076C505.743 143.182 505.584 142.103 505.584 140.837C505.584 139.58 505.743 138.506 506.061 137.616C506.383 136.722 506.845 136.04 507.447 135.57C508.053 135.097 508.78 134.86 509.629 134.86C510.477 134.86 511.203 135.097 511.805 135.57C512.411 136.04 512.873 136.722 513.191 137.616C513.513 138.506 513.674 139.58 513.674 140.837C513.674 142.103 513.515 143.182 513.197 144.076C512.879 144.966 512.419 145.646 511.816 146.116C511.214 146.582 510.485 146.815 509.629 146.815ZM509.629 145.565C510.477 145.565 511.137 145.156 511.606 144.337C512.076 143.519 512.311 142.353 512.311 140.837C512.311 139.83 512.203 138.972 511.987 138.264C511.775 137.555 511.468 137.015 511.066 136.644C510.669 136.273 510.19 136.087 509.629 136.087C508.788 136.087 508.131 136.502 507.657 137.332C507.184 138.158 506.947 139.326 506.947 140.837C506.947 141.845 507.053 142.701 507.265 143.406C507.477 144.11 507.782 144.646 508.18 145.014C508.582 145.381 509.065 145.565 509.629 145.565Z" fill="black"/>
<path d="M519.343 134.104V134.979H515.779V134.104H519.343ZM520.595 138.614V137.898L523.284 134.955C523.6 134.61 523.859 134.311 524.064 134.056C524.268 133.799 524.419 133.558 524.517 133.332C524.618 133.104 524.668 132.865 524.668 132.616C524.668 132.33 524.599 132.082 524.461 131.872C524.326 131.663 524.14 131.501 523.904 131.387C523.668 131.273 523.403 131.216 523.109 131.216C522.796 131.216 522.523 131.281 522.29 131.411C522.059 131.538 521.88 131.717 521.753 131.948C521.628 132.179 521.566 132.449 521.566 132.759H520.627C520.627 132.282 520.737 131.863 520.957 131.503C521.177 131.142 521.477 130.861 521.856 130.659C522.238 130.458 522.666 130.357 523.141 130.357C523.618 130.357 524.041 130.458 524.41 130.659C524.778 130.861 525.067 131.133 525.277 131.475C525.486 131.817 525.591 132.197 525.591 132.616C525.591 132.916 525.536 133.209 525.428 133.495C525.322 133.779 525.136 134.096 524.871 134.446C524.608 134.793 524.244 135.217 523.777 135.718L521.948 137.675V137.739H525.734V138.614H520.595Z" fill="black"/>
<path d="M544.739 127.679V122.345Z" fill="black"/>
<path d="M544.739 127.679V122.345" stroke="black" stroke-width="0.666667" stroke-miterlimit="10" stroke-linejoin="round"/>
<path d="M544.739 33.3585V38.6918Z" fill="black"/>
<path d="M544.739 33.3585V38.6918" stroke="black" stroke-width="0.666667" stroke-miterlimit="10" stroke-linejoin="round"/>
<path d="M536.702 135.019V146.656H535.292V136.497H535.224L532.383 138.383V136.951L535.292 135.019H536.702ZM543.844 146.815C542.988 146.815 542.258 146.582 541.656 146.116C541.054 145.646 540.594 144.966 540.275 144.076C539.957 143.182 539.798 142.103 539.798 140.837C539.798 139.58 539.957 138.506 540.275 137.616C540.597 136.722 541.06 136.04 541.662 135.57C542.268 135.097 542.995 134.86 543.844 134.86C544.692 134.86 545.417 135.097 546.02 135.57C546.626 136.04 547.088 136.722 547.406 137.616C547.728 138.506 547.889 139.58 547.889 140.837C547.889 142.103 547.73 143.182 547.412 144.076C547.094 144.966 546.633 145.646 546.031 146.116C545.429 146.582 544.7 146.815 543.844 146.815ZM543.844 145.565C544.692 145.565 545.351 145.156 545.821 144.337C546.291 143.519 546.525 142.353 546.525 140.837C546.525 139.83 546.417 138.972 546.202 138.264C545.989 137.555 545.683 137.015 545.281 136.644C544.883 136.273 544.404 136.087 543.844 136.087C543.003 136.087 542.346 136.502 541.872 137.332C541.399 138.158 541.162 139.326 541.162 140.837C541.162 141.845 541.268 142.701 541.48 143.406C541.692 144.11 541.997 144.646 542.395 145.014C542.796 145.381 543.279 145.565 543.844 145.565Z" fill="black"/>
<path d="M552.698 138.725C552.099 138.725 551.588 138.562 551.167 138.236C550.745 137.907 550.423 137.431 550.2 136.808C549.978 136.183 549.866 135.427 549.866 134.541C549.866 133.661 549.978 132.909 550.2 132.286C550.426 131.66 550.749 131.183 551.171 130.854C551.595 130.523 552.104 130.357 552.698 130.357C553.292 130.357 553.8 130.523 554.221 130.854C554.646 131.183 554.969 131.66 555.192 132.286C555.417 132.909 555.53 133.661 555.53 134.541C555.53 135.427 555.419 136.183 555.196 136.808C554.973 137.431 554.651 137.907 554.229 138.236C553.808 138.562 553.297 138.725 552.698 138.725ZM552.698 137.85C553.292 137.85 553.753 137.564 554.082 136.991C554.411 136.418 554.575 135.602 554.575 134.541C554.575 133.836 554.5 133.235 554.349 132.74C554.2 132.244 553.985 131.866 553.704 131.606C553.426 131.346 553.091 131.216 552.698 131.216C552.109 131.216 551.649 131.507 551.318 132.087C550.987 132.665 550.821 133.483 550.821 134.541C550.821 135.247 550.895 135.846 551.044 136.339C551.192 136.832 551.406 137.207 551.684 137.465C551.965 137.722 552.303 137.85 552.698 137.85Z" fill="black"/>
<path d="M576.954 127.679V122.345Z" fill="black"/>
<path d="M576.954 127.679V122.345" stroke="black" stroke-width="0.666667" stroke-miterlimit="10" stroke-linejoin="round"/>
<path d="M576.954 33.3585V38.6918Z" fill="black"/>
<path d="M576.954 33.3585V38.6918" stroke="black" stroke-width="0.666667" stroke-miterlimit="10" stroke-linejoin="round"/>
<path d="M568.916 135.019V146.656H567.507V136.497H567.439L564.598 138.383V136.951L567.507 135.019H568.916ZM576.058 146.815C575.202 146.815 574.473 146.582 573.871 146.116C573.269 145.646 572.808 144.966 572.49 144.076C572.172 143.182 572.013 142.103 572.013 140.837C572.013 139.58 572.172 138.506 572.49 137.616C572.812 136.722 573.274 136.04 573.876 135.57C574.483 135.097 575.21 134.86 576.058 134.86C576.907 134.86 577.632 135.097 578.234 135.57C578.84 136.04 579.303 136.722 579.621 137.616C579.943 138.506 580.104 139.58 580.104 140.837C580.104 142.103 579.945 143.182 579.626 144.076C579.308 144.966 578.848 145.646 578.246 146.116C577.644 146.582 576.914 146.815 576.058 146.815ZM576.058 145.565C576.907 145.565 577.566 145.156 578.036 144.337C578.505 143.519 578.74 142.353 578.74 140.837C578.74 139.83 578.632 138.972 578.416 138.264C578.204 137.555 577.897 137.015 577.496 136.644C577.098 136.273 576.619 136.087 576.058 136.087C575.217 136.087 574.56 136.502 574.087 137.332C573.613 138.158 573.376 139.326 573.376 140.837C573.376 141.845 573.483 142.701 573.695 143.406C573.907 144.11 574.212 144.646 574.609 145.014C575.011 145.381 575.494 145.565 576.058 145.565Z" fill="black"/>
<path d="M582.256 138.614V137.898L584.945 134.955C585.26 134.61 585.52 134.311 585.724 134.056C585.928 133.799 586.079 133.558 586.178 133.332C586.278 133.104 586.329 132.865 586.329 132.616C586.329 132.33 586.26 132.082 586.122 131.872C585.987 131.663 585.801 131.501 585.565 131.387C585.329 131.273 585.064 131.216 584.77 131.216C584.457 131.216 584.184 131.281 583.95 131.411C583.72 131.538 583.541 131.717 583.413 131.948C583.289 132.179 583.226 132.449 583.226 132.759H582.288C582.288 132.282 582.398 131.863 582.618 131.503C582.838 131.142 583.138 130.861 583.517 130.659C583.899 130.458 584.327 130.357 584.801 130.357C585.279 130.357 585.702 130.458 586.07 130.659C586.439 130.861 586.728 131.133 586.937 131.475C587.147 131.817 587.251 132.197 587.251 132.616C587.251 132.916 587.197 133.209 587.088 133.495C586.982 133.779 586.797 134.096 586.532 134.446C586.269 134.793 585.904 135.217 585.438 135.718L583.608 137.675V137.739H587.395V138.614H582.256Z" fill="black"/>
<path d="M609.169 127.679V122.345Z" fill="black"/>
<path d="M609.169 127.679V122.345" stroke="black" stroke-width="0.666667" stroke-miterlimit="10" stroke-linejoin="round"/>
<path d="M609.169 33.3585V38.6918Z" fill="black"/>
<path d="M609.169 33.3585V38.6918" stroke="black" stroke-width="0.666667" stroke-miterlimit="10" stroke-linejoin="round"/>
<path d="M601.131 135.019V146.656H599.722V136.497H599.654L596.813 138.383V136.951L599.722 135.019H601.131ZM608.273 146.815C607.417 146.815 606.688 146.582 606.086 146.116C605.483 145.646 605.023 144.966 604.705 144.076C604.387 143.182 604.228 142.103 604.228 140.837C604.228 139.58 604.387 138.506 604.705 137.616C605.027 136.722 605.489 136.04 606.091 135.57C606.697 135.097 607.425 134.86 608.273 134.86C609.121 134.86 609.847 135.097 610.449 135.57C611.055 136.04 611.517 136.722 611.836 137.616C612.157 138.506 612.318 139.58 612.318 140.837C612.318 142.103 612.159 143.182 611.841 144.076C611.523 144.966 611.063 145.646 610.461 146.116C609.858 146.582 609.129 146.815 608.273 146.815ZM608.273 145.565C609.121 145.565 609.781 145.156 610.25 144.337C610.72 143.519 610.955 142.353 610.955 140.837C610.955 139.83 610.847 138.972 610.631 138.264C610.419 137.555 610.112 137.015 609.711 136.644C609.313 136.273 608.834 136.087 608.273 136.087C607.432 136.087 606.775 136.502 606.301 137.332C605.828 138.158 605.591 139.326 605.591 140.837C605.591 141.845 605.697 142.701 605.909 143.406C606.121 144.11 606.426 144.646 606.824 145.014C607.226 145.381 607.709 145.565 608.273 145.565Z" fill="black"/>
<path d="M614.28 136.943V136.132L617.859 130.468H618.448V131.725H618.05L615.346 136.005V136.068H620.166V136.943H614.28ZM618.114 138.614V136.697V136.319V130.468H619.053V138.614H618.114Z" fill="black"/>
<path d="M641.383 127.679V122.345Z" fill="black"/>
<path d="M641.383 127.679V122.345" stroke="black" stroke-width="0.666667" stroke-miterlimit="10" stroke-linejoin="round"/>
<path d="M641.383 33.3585V38.6918Z" fill="black"/>
<path d="M641.383 33.3585V38.6918" stroke="black" stroke-width="0.666667" stroke-miterlimit="10" stroke-linejoin="round"/>
<path d="M633.346 135.019V146.656H631.936V136.497H631.868L629.027 138.383V136.951L631.936 135.019H633.346ZM640.488 146.815C639.632 146.815 638.902 146.582 638.3 146.116C637.698 145.646 637.238 144.966 636.919 144.076C636.601 143.182 636.442 142.103 636.442 140.837C636.442 139.58 636.601 138.506 636.919 137.616C637.241 136.722 637.704 136.04 638.306 135.57C638.912 135.097 639.639 134.86 640.488 134.86C641.336 134.86 642.061 135.097 642.664 135.57C643.27 136.04 643.732 136.722 644.05 137.616C644.372 138.506 644.533 139.58 644.533 140.837C644.533 142.103 644.374 143.182 644.056 144.076C643.738 144.966 643.277 145.646 642.675 146.116C642.073 146.582 641.344 146.815 640.488 146.815ZM640.488 145.565C641.336 145.565 641.995 145.156 642.465 144.337C642.935 143.519 643.169 142.353 643.169 140.837C643.169 139.83 643.061 138.972 642.846 138.264C642.633 137.555 642.327 137.015 641.925 136.644C641.527 136.273 641.048 136.087 640.488 136.087C639.647 136.087 638.99 136.502 638.516 137.332C638.043 138.158 637.806 139.326 637.806 140.837C637.806 141.845 637.912 142.701 638.124 143.406C638.336 144.11 638.641 144.646 639.039 145.014C639.44 145.381 639.923 145.565 640.488 145.565Z" fill="black"/>
<path d="M649.39 138.725C649.056 138.72 648.722 138.656 648.388 138.534C648.053 138.412 647.749 138.207 647.473 137.918C647.197 137.626 646.976 137.233 646.809 136.737C646.642 136.238 646.558 135.612 646.558 134.859C646.558 134.138 646.626 133.499 646.761 132.942C646.896 132.383 647.092 131.912 647.349 131.53C647.607 131.146 647.917 130.854 648.28 130.655C648.646 130.457 649.058 130.357 649.517 130.357C649.973 130.357 650.379 130.449 650.734 130.632C651.092 130.812 651.384 131.064 651.609 131.387C651.835 131.711 651.98 132.083 652.047 132.505H651.076C650.986 132.139 650.811 131.835 650.551 131.594C650.291 131.353 649.947 131.232 649.517 131.232C648.886 131.232 648.389 131.507 648.026 132.055C647.665 132.604 647.483 133.375 647.481 134.366H647.544C647.693 134.141 647.869 133.949 648.073 133.79C648.28 133.628 648.508 133.503 648.757 133.416C649.007 133.328 649.271 133.284 649.549 133.284C650.016 133.284 650.442 133.401 650.83 133.634C651.217 133.865 651.527 134.185 651.76 134.593C651.994 134.999 652.11 135.464 652.11 135.989C652.11 136.493 651.998 136.954 651.772 137.373C651.547 137.789 651.23 138.121 650.822 138.367C650.416 138.611 649.939 138.731 649.39 138.725ZM649.39 137.85C649.724 137.85 650.024 137.767 650.289 137.6C650.556 137.433 650.767 137.209 650.921 136.928C651.078 136.647 651.156 136.334 651.156 135.989C651.156 135.652 651.08 135.346 650.929 135.07C650.781 134.792 650.575 134.57 650.313 134.406C650.053 134.242 649.756 134.159 649.422 134.159C649.17 134.159 648.935 134.21 648.718 134.311C648.5 134.409 648.309 134.544 648.145 134.716C647.983 134.889 647.856 135.086 647.763 135.309C647.67 135.529 647.624 135.761 647.624 136.005C647.624 136.328 647.699 136.631 647.851 136.912C648.004 137.193 648.214 137.419 648.479 137.592C648.747 137.764 649.05 137.85 649.39 137.85Z" fill="black"/>
<path d="M673.598 127.679V122.345Z" fill="black"/>
<path d="M673.598 127.679V122.345" stroke="black" stroke-width="0.666667" stroke-miterlimit="10" stroke-linejoin="round"/>
<path d="M673.598 33.3585V38.6918Z" fill="black"/>
<path d="M673.598 33.3585V38.6918" stroke="black" stroke-width="0.666667" stroke-miterlimit="10" stroke-linejoin="round"/>
<path d="M665.56 135.019V146.656H664.151V136.497H664.083L661.242 138.383V136.951L664.151 135.019H665.56ZM672.702 146.815C671.846 146.815 671.117 146.582 670.515 146.116C669.913 145.646 669.452 144.966 669.134 144.076C668.816 143.182 668.657 142.103 668.657 140.837C668.657 139.58 668.816 138.506 669.134 137.616C669.456 136.722 669.918 136.04 670.521 135.57C671.127 135.097 671.854 134.86 672.702 134.86C673.551 134.86 674.276 135.097 674.878 135.57C675.485 136.04 675.947 136.722 676.265 137.616C676.587 138.506 676.748 139.58 676.748 140.837C676.748 142.103 676.589 143.182 676.271 144.076C675.952 144.966 675.492 145.646 674.89 146.116C674.288 146.582 673.558 146.815 672.702 146.815ZM672.702 145.565C673.551 145.565 674.21 145.156 674.68 144.337C675.149 143.519 675.384 142.353 675.384 140.837C675.384 139.83 675.276 138.972 675.06 138.264C674.848 137.555 674.541 137.015 674.14 136.644C673.742 136.273 673.263 136.087 672.702 136.087C671.861 136.087 671.204 136.502 670.731 137.332C670.257 138.158 670.021 139.326 670.021 140.837C670.021 141.845 670.127 142.701 670.339 143.406C670.551 144.11 670.856 144.646 671.253 145.014C671.655 145.381 672.138 145.565 672.702 145.565Z" fill="black"/>
<path d="M681.509 138.725C680.963 138.725 680.48 138.629 680.061 138.435C679.645 138.239 679.32 137.97 679.087 137.628C678.854 137.283 678.738 136.89 678.741 136.45C678.738 136.106 678.806 135.787 678.944 135.496C679.082 135.201 679.27 134.956 679.509 134.76C679.75 134.561 680.019 134.435 680.316 134.382V134.334C679.926 134.234 679.616 134.015 679.385 133.678C679.155 133.339 679.041 132.953 679.043 132.521C679.041 132.107 679.145 131.737 679.357 131.411C679.57 131.085 679.861 130.828 680.232 130.64C680.606 130.451 681.032 130.357 681.509 130.357C681.981 130.357 682.403 130.451 682.774 130.64C683.145 130.828 683.437 131.085 683.649 131.411C683.864 131.737 683.972 132.107 683.975 132.521C683.972 132.953 683.854 133.339 683.621 133.678C683.39 134.015 683.084 134.234 682.702 134.334V134.382C682.997 134.435 683.262 134.561 683.498 134.76C683.734 134.956 683.922 135.201 684.063 135.496C684.203 135.787 684.275 136.106 684.277 136.45C684.275 136.89 684.155 137.283 683.919 137.628C683.686 137.97 683.361 138.239 682.945 138.435C682.531 138.629 682.053 138.725 681.509 138.725ZM681.509 137.85C681.878 137.85 682.196 137.791 682.464 137.671C682.731 137.552 682.938 137.384 683.084 137.166C683.23 136.949 683.304 136.694 683.307 136.403C683.304 136.095 683.225 135.823 683.068 135.587C682.912 135.351 682.698 135.166 682.428 135.03C682.16 134.895 681.854 134.828 681.509 134.828C681.162 134.828 680.852 134.895 680.578 135.03C680.308 135.166 680.095 135.351 679.938 135.587C679.784 135.823 679.709 136.095 679.711 136.403C679.709 136.694 679.779 136.949 679.922 137.166C680.068 137.384 680.276 137.552 680.547 137.671C680.817 137.791 681.138 137.85 681.509 137.85ZM681.509 133.984C681.801 133.984 682.059 133.926 682.285 133.809C682.513 133.693 682.692 133.53 682.822 133.32C682.952 133.111 683.018 132.865 683.02 132.584C683.018 132.309 682.953 132.069 682.826 131.865C682.698 131.658 682.522 131.499 682.297 131.387C682.071 131.273 681.809 131.216 681.509 131.216C681.204 131.216 680.938 131.273 680.71 131.387C680.482 131.499 680.305 131.658 680.181 131.865C680.056 132.069 679.995 132.309 679.998 132.584C679.995 132.865 680.057 133.111 680.185 133.32C680.315 133.53 680.494 133.693 680.722 133.809C680.95 133.926 681.212 133.984 681.509 133.984Z" fill="black"/>
<path d="M415.881 127.679V125.012Z" fill="black"/>
<path d="M415.881 127.679V125.012" stroke="black" stroke-width="0.666667" stroke-miterlimit="10" stroke-linejoin="round"/>
<path d="M415.881 33.3585V36.0252Z" fill="black"/>
<path d="M415.881 33.3585V36.0252" stroke="black" stroke-width="0.666667" stroke-miterlimit="10" stroke-linejoin="round"/>
<path d="M448.095 127.679V125.012Z" fill="black"/>
<path d="M448.095 127.679V125.012" stroke="black" stroke-width="0.666667" stroke-miterlimit="10" stroke-linejoin="round"/>
<path d="M448.095 33.3585V36.0252Z" fill="black"/>
<path d="M448.095 33.3585V36.0252" stroke="black" stroke-width="0.666667" stroke-miterlimit="10" stroke-linejoin="round"/>
<path d="M480.31 127.679V125.012Z" fill="black"/>
<path d="M480.31 127.679V125.012" stroke="black" stroke-width="0.666667" stroke-miterlimit="10" stroke-linejoin="round"/>
<path d="M480.31 33.3585V36.0252Z" fill="black"/>
<path d="M480.31 33.3585V36.0252" stroke="black" stroke-width="0.666667" stroke-miterlimit="10" stroke-linejoin="round"/>
<path d="M512.525 127.679V125.012Z" fill="black"/>
<path d="M512.525 127.679V125.012" stroke="black" stroke-width="0.666667" stroke-miterlimit="10" stroke-linejoin="round"/>
<path d="M512.525 33.3585V36.0252Z" fill="black"/>
<path d="M512.525 33.3585V36.0252" stroke="black" stroke-width="0.666667" stroke-miterlimit="10" stroke-linejoin="round"/>
<path d="M544.739 127.679V125.012Z" fill="black"/>
<path d="M544.739 127.679V125.012" stroke="black" stroke-width="0.666667" stroke-miterlimit="10" stroke-linejoin="round"/>
<path d="M544.739 33.3585V36.0252Z" fill="black"/>
<path d="M544.739 33.3585V36.0252" stroke="black" stroke-width="0.666667" stroke-miterlimit="10" stroke-linejoin="round"/>
<path d="M576.954 127.679V125.012Z" fill="black"/>
<path d="M576.954 127.679V125.012" stroke="black" stroke-width="0.666667" stroke-miterlimit="10" stroke-linejoin="round"/>
<path d="M576.954 33.3585V36.0252Z" fill="black"/>
<path d="M576.954 33.3585V36.0252" stroke="black" stroke-width="0.666667" stroke-miterlimit="10" stroke-linejoin="round"/>
<path d="M609.169 127.679V125.012Z" fill="black"/>
<path d="M609.169 127.679V125.012" stroke="black" stroke-width="0.666667" stroke-miterlimit="10" stroke-linejoin="round"/>
<path d="M609.169 33.3585V36.0252Z" fill="black"/>
<path d="M609.169 33.3585V36.0252" stroke="black" stroke-width="0.666667" stroke-miterlimit="10" stroke-linejoin="round"/>
<path d="M641.383 127.679V125.012Z" fill="black"/>
<path d="M641.383 127.679V125.012" stroke="black" stroke-width="0.666667" stroke-miterlimit="10" stroke-linejoin="round"/>
<path d="M641.383 33.3585V36.0252Z" fill="black"/>
<path d="M641.383 33.3585V36.0252" stroke="black" stroke-width="0.666667" stroke-miterlimit="10" stroke-linejoin="round"/>
<path d="M673.598 127.679V125.012Z" fill="black"/>
<path d="M673.598 127.679V125.012" stroke="black" stroke-width="0.666667" stroke-miterlimit="10" stroke-linejoin="round"/>
<path d="M673.598 33.3585V36.0252Z" fill="black"/>
<path d="M673.598 33.3585V36.0252" stroke="black" stroke-width="0.666667" stroke-miterlimit="10" stroke-linejoin="round"/>
<path d="M543.567 162.531H544.93C545.885 162.531 546.662 162.733 547.262 163.138C547.867 163.542 548.31 164.056 548.592 164.679C548.878 165.301 549.021 165.94 549.021 166.594C549.021 167.385 548.837 168.099 548.469 168.735C548.101 169.367 547.594 169.869 546.949 170.242C546.303 170.61 545.567 170.794 544.739 170.794C544.235 170.794 543.735 170.701 543.239 170.515C542.749 170.324 542.312 169.963 541.93 169.431L541.821 169.485V166.813C541.821 167.258 541.93 167.669 542.149 168.047C542.371 168.424 542.685 168.726 543.089 168.954C543.499 169.181 543.985 169.294 544.549 169.294C545.139 169.294 545.649 169.169 546.076 168.919C546.503 168.669 546.833 168.34 547.064 167.931C547.296 167.522 547.412 167.076 547.412 166.594C547.412 166.14 547.308 165.71 547.099 165.306C546.894 164.897 546.603 164.565 546.226 164.31C545.853 164.051 545.412 163.922 544.903 163.922H543.567V162.531ZM544.358 156.449C545.008 156.449 545.583 156.554 546.083 156.763C546.587 156.972 547.012 157.254 547.358 157.608C547.708 157.958 547.971 158.351 548.149 158.788C548.33 159.224 548.421 159.672 548.421 160.131C548.421 160.704 548.276 161.274 547.985 161.842C547.694 162.406 547.249 162.876 546.649 163.254C546.049 163.626 545.285 163.813 544.358 163.813H543.567V162.422H544.33C544.858 162.422 545.308 162.313 545.68 162.094C546.058 161.876 546.344 161.592 546.539 161.242C546.739 160.892 546.839 160.522 546.839 160.131C546.839 159.504 546.599 158.983 546.117 158.569C545.639 158.156 545.053 157.949 544.358 157.949C543.894 157.949 543.469 158.044 543.083 158.235C542.701 158.426 542.394 158.692 542.162 159.033C541.935 159.374 541.821 159.767 541.821 160.213V174.531H540.212V160.213C540.212 159.494 540.389 158.851 540.744 158.283C541.103 157.715 541.594 157.267 542.217 156.94C542.844 156.613 543.558 156.449 544.358 156.449Z" fill="#272727"/>
<path d="M415.881 127.679H421.214Z" fill="black"/>
<path d="M415.881 127.679H421.214" stroke="black" stroke-width="0.666667" stroke-miterlimit="10" stroke-linejoin="round"/>
<path d="M673.598 127.679H668.265Z" fill="black"/>
<path d="M673.598 127.679H668.265" stroke="black" stroke-width="0.666667" stroke-miterlimit="10" stroke-linejoin="round"/>
<path d="M415.881 96.2385H421.214Z" fill="black"/>
<path d="M415.881 96.2385H421.214" stroke="black" stroke-width="0.666667" stroke-miterlimit="10" stroke-linejoin="round"/>
<path d="M673.598 96.2385H668.265Z" fill="black"/>
<path d="M673.598 96.2385H668.265" stroke="black" stroke-width="0.666667" stroke-miterlimit="10" stroke-linejoin="round"/>
<path d="M415.881 64.7985H421.214Z" fill="black"/>
<path d="M415.881 64.7985H421.214" stroke="black" stroke-width="0.666667" stroke-miterlimit="10" stroke-linejoin="round"/>
<path d="M673.598 64.7985H668.265Z" fill="black"/>
<path d="M673.598 64.7985H668.265" stroke="black" stroke-width="0.666667" stroke-miterlimit="10" stroke-linejoin="round"/>
<path d="M415.881 33.3585H421.214Z" fill="black"/>
<path d="M415.881 33.3585H421.214" stroke="black" stroke-width="0.666667" stroke-miterlimit="10" stroke-linejoin="round"/>
<path d="M673.598 33.3585H668.265Z" fill="black"/>
<path d="M673.598 33.3585H668.265" stroke="black" stroke-width="0.666667" stroke-miterlimit="10" stroke-linejoin="round"/>
<path d="M390.646 106.517C390.646 107.305 390.458 107.996 390.083 108.591C389.708 109.181 389.184 109.644 388.51 109.977C387.835 110.306 387.048 110.471 386.146 110.471C385.237 110.471 384.443 110.306 383.765 109.977C383.087 109.644 382.561 109.181 382.186 108.591C381.811 107.996 381.623 107.305 381.623 106.517C381.623 105.729 381.811 105.039 382.186 104.448C382.561 103.854 383.087 103.392 383.765 103.062C384.443 102.729 385.237 102.562 386.146 102.562C387.048 102.562 387.835 102.729 388.51 103.062C389.184 103.392 389.708 103.854 390.083 104.448C390.458 105.039 390.646 105.729 390.646 106.517ZM389.441 106.517C389.441 105.918 389.288 105.426 388.981 105.039C388.674 104.653 388.271 104.367 387.771 104.181C387.271 103.996 386.729 103.903 386.146 103.903C385.563 103.903 385.019 103.996 384.515 104.181C384.012 104.367 383.604 104.653 383.294 105.039C382.983 105.426 382.828 105.918 382.828 106.517C382.828 107.115 382.983 107.608 383.294 107.994C383.604 108.38 384.012 108.666 384.515 108.852C385.019 109.037 385.563 109.13 386.146 109.13C386.729 109.13 387.271 109.037 387.771 108.852C388.271 108.666 388.674 108.38 388.981 107.994C389.288 107.608 389.441 107.115 389.441 106.517ZM390.464 100.333H378.828V98.9925H383.123V98.8789C382.972 98.7804 382.779 98.644 382.544 98.4698C382.305 98.2917 382.093 98.0379 381.907 97.7084C381.718 97.3751 381.623 96.9243 381.623 96.3561C381.623 95.6213 381.807 94.9736 382.174 94.4129C382.542 93.8523 383.063 93.4148 383.737 93.1004C384.411 92.7861 385.207 92.6289 386.123 92.6289C387.048 92.6289 387.849 92.7861 388.527 93.1004C389.201 93.4148 389.724 93.8504 390.095 94.4073C390.462 94.9641 390.646 95.6061 390.646 96.3334C390.646 96.894 390.553 97.3429 390.368 97.68C390.178 98.0171 389.964 98.2766 389.726 98.4584C389.483 98.6402 389.282 98.7804 389.123 98.8789V99.0379H390.464V100.333ZM386.101 99.0152C386.76 99.0152 387.341 98.9186 387.845 98.7254C388.345 98.5323 388.737 98.2501 389.021 97.8789C389.301 97.5076 389.441 97.0531 389.441 96.5152C389.441 95.9546 389.294 95.4868 388.998 95.1118C388.699 94.733 388.298 94.4489 387.794 94.2595C387.286 94.0664 386.722 93.9698 386.101 93.9698C385.487 93.9698 384.934 94.0645 384.441 94.2539C383.945 94.4395 383.553 94.7217 383.265 95.1004C382.974 95.4754 382.828 95.947 382.828 96.5152C382.828 97.0607 382.966 97.519 383.243 97.8902C383.515 98.2614 383.898 98.5417 384.39 98.7311C384.879 98.9205 385.449 99.0152 386.101 99.0152ZM381.737 90.5777V89.2368H391.101C391.638 89.2368 392.104 89.3296 392.498 89.5152C392.892 89.697 393.197 89.9736 393.413 90.3448C393.629 90.7122 393.737 91.1762 393.737 91.7368C393.737 91.7823 393.737 91.8277 393.737 91.8732C393.737 91.9186 393.737 91.9641 393.737 92.0095H392.487C392.487 91.9641 392.487 91.9224 392.487 91.8845C392.487 91.8467 392.487 91.805 392.487 91.7595C392.487 91.3504 392.366 91.0512 392.123 90.8618C391.885 90.6724 391.544 90.5777 391.101 90.5777H381.737ZM380.282 89.9186C380.282 90.18 380.193 90.4054 380.015 90.5948C379.837 90.7804 379.623 90.8732 379.373 90.8732C379.123 90.8732 378.909 90.7804 378.731 90.5948C378.553 90.4054 378.464 90.18 378.464 89.9186C378.464 89.6573 378.553 89.4338 378.731 89.2482C378.909 89.0588 379.123 88.9641 379.373 88.9641C379.623 88.9641 379.837 89.0588 380.015 89.2482C380.193 89.4338 380.282 89.6573 380.282 89.9186ZM390.646 83.1218C390.646 83.9627 390.46 84.688 390.089 85.2979C389.714 85.904 389.191 86.3718 388.521 86.7013C387.847 87.0271 387.063 87.1899 386.169 87.1899C385.275 87.1899 384.487 87.0271 383.805 86.7013C383.119 86.3718 382.585 85.9134 382.203 85.3263C381.816 84.7354 381.623 84.046 381.623 83.2581C381.623 82.8036 381.699 82.3547 381.851 81.9115C382.002 81.4683 382.248 81.0649 382.589 80.7013C382.926 80.3377 383.373 80.0479 383.93 79.832C384.487 79.6161 385.173 79.5081 385.987 79.5081H386.555V86.2354H385.396V80.8718C384.904 80.8718 384.464 80.9702 384.078 81.1672C383.691 81.3604 383.387 81.6369 383.163 81.9968C382.94 82.3528 382.828 82.7733 382.828 83.2581C382.828 83.7922 382.96 84.2543 383.226 84.6445C383.487 85.0308 383.828 85.3282 384.248 85.5365C384.669 85.7449 385.119 85.849 385.601 85.849H386.373C387.032 85.849 387.591 85.7354 388.049 85.5081C388.504 85.2771 388.851 84.957 389.089 84.5479C389.324 84.1388 389.441 83.6634 389.441 83.1218C389.441 82.7695 389.392 82.4513 389.294 82.1672C389.191 81.8793 389.04 81.6312 388.839 81.4229C388.635 81.2146 388.381 81.0536 388.078 80.9399L388.441 79.6445C388.881 79.7808 389.267 80.01 389.601 80.332C389.93 80.654 390.188 81.0517 390.373 81.5252C390.555 81.9987 390.646 82.5308 390.646 83.1218ZM390.646 73.9229C390.646 74.7411 390.453 75.4456 390.066 76.0365C389.68 76.6274 389.148 77.082 388.47 77.4002C387.792 77.7183 387.017 77.8774 386.146 77.8774C385.26 77.8774 384.477 77.7146 383.799 77.3888C383.118 77.0593 382.585 76.6009 382.203 76.0138C381.816 75.4229 381.623 74.7335 381.623 73.9456C381.623 73.332 381.737 72.779 381.964 72.2865C382.191 71.7941 382.51 71.3907 382.919 71.0763C383.328 70.7619 383.805 70.5668 384.351 70.4911V71.832C383.953 71.9343 383.601 72.1615 383.294 72.5138C382.983 72.8623 382.828 73.332 382.828 73.9229C382.828 74.4456 382.964 74.904 383.237 75.2979C383.506 75.688 383.887 75.993 384.379 76.2127C384.868 76.4286 385.441 76.5365 386.101 76.5365C386.775 76.5365 387.362 76.4305 387.862 76.2183C388.362 76.0024 388.75 75.6994 389.027 75.3093C389.303 74.9153 389.441 74.4532 389.441 73.9229C389.441 73.5744 389.381 73.2581 389.26 72.974C389.138 72.6899 388.964 72.4494 388.737 72.2524C388.51 72.0555 388.237 71.9153 387.919 71.832V70.4911C388.434 70.5668 388.898 70.7543 389.311 71.0536C389.72 71.349 390.046 71.7411 390.288 72.2297C390.527 72.7146 390.646 73.279 390.646 73.9229ZM381.737 64.7354H382.873V69.2581H381.737V64.7354ZM379.646 67.9399V66.599H387.964C388.343 66.599 388.627 66.5441 388.816 66.4343C389.002 66.3206 389.127 66.1767 389.191 66.0024C389.252 65.8244 389.282 65.6369 389.282 65.4399C389.282 65.2922 389.275 65.171 389.26 65.0763C389.241 64.9816 389.226 64.9058 389.214 64.849L390.419 64.5763C390.453 64.6672 390.487 64.7941 390.521 64.957C390.559 65.1199 390.578 65.3263 390.578 65.5763C390.578 65.9551 390.496 66.3263 390.333 66.6899C390.171 67.0498 389.923 67.349 389.589 67.5877C389.256 67.8225 388.835 67.9399 388.328 67.9399H379.646ZM390.464 62.7183H381.737V61.3774H390.464V62.7183ZM380.282 62.0365C380.282 62.2979 380.193 62.5233 380.015 62.7127C379.837 62.8983 379.623 62.9911 379.373 62.9911C379.123 62.9911 378.909 62.8983 378.731 62.7127C378.553 62.5233 378.464 62.2979 378.464 62.0365C378.464 61.7752 378.553 61.5517 378.731 61.3661C378.909 61.1767 379.123 61.082 379.373 61.082C379.623 61.082 379.837 61.1767 380.015 61.3661C380.193 61.5517 380.282 61.7752 380.282 62.0365ZM381.737 51.7851L390.464 55.0124V56.376L381.737 59.6033V58.1487L388.691 55.7397V55.6487L381.737 53.2397V51.7851ZM390.646 46.6686C390.646 47.5095 390.46 48.2349 390.089 48.8448C389.714 49.4508 389.191 49.9186 388.521 50.2482C387.847 50.5739 387.063 50.7368 386.169 50.7368C385.275 50.7368 384.487 50.5739 383.805 50.2482C383.119 49.9186 382.585 49.4603 382.203 48.8732C381.816 48.2823 381.623 47.5929 381.623 46.805C381.623 46.3505 381.699 45.9016 381.851 45.4584C382.002 45.0152 382.248 44.6118 382.589 44.2482C382.926 43.8845 383.373 43.5948 383.93 43.3789C384.487 43.163 385.173 43.055 385.987 43.055H386.555V49.7823H385.396V44.4186C384.904 44.4186 384.464 44.5171 384.078 44.7141C383.691 44.9073 383.387 45.1838 383.163 45.5436C382.94 45.8997 382.828 46.3202 382.828 46.805C382.828 47.3391 382.96 47.8012 383.226 48.1914C383.487 48.5777 383.828 48.8751 384.248 49.0834C384.669 49.2917 385.119 49.3959 385.601 49.3959H386.373C387.032 49.3959 387.591 49.2823 388.049 49.055C388.504 48.8239 388.851 48.5039 389.089 48.0948C389.324 47.6857 389.441 47.2103 389.441 46.6686C389.441 46.3164 389.392 45.9982 389.294 45.7141C389.191 45.4262 389.04 45.1781 388.839 44.9698C388.635 44.7614 388.381 44.6005 388.078 44.4868L388.441 43.1914C388.881 43.3277 389.267 43.5569 389.601 43.8789C389.93 44.2008 390.188 44.5986 390.373 45.072C390.555 45.5455 390.646 46.0777 390.646 46.6686Z" fill="#272727"/>
<path d="M399.216 102.228H400.352V106.932H399.216V102.228ZM407.943 105.523H398.011C397.511 105.523 397.095 105.406 396.761 105.171C396.428 104.936 396.178 104.631 396.011 104.256C395.845 103.881 395.761 103.485 395.761 103.069C395.761 102.739 395.788 102.47 395.841 102.262C395.894 102.054 395.943 101.898 395.989 101.796L397.148 102.182C397.125 102.251 397.097 102.345 397.063 102.466C397.029 102.584 397.011 102.739 397.011 102.932C397.011 103.376 397.123 103.696 397.347 103.893C397.57 104.086 397.898 104.182 398.33 104.182H407.943V105.523ZM404.375 94.8485H399.216V93.5076H407.943V94.8485H406.466V94.9394C406.909 95.144 407.286 95.4622 407.597 95.894C407.904 96.3258 408.057 96.8713 408.057 97.5304C408.057 98.0758 407.938 98.5607 407.699 98.9849C407.457 99.4091 407.093 99.7425 406.608 99.9849C406.119 100.227 405.504 100.349 404.761 100.349H399.216V99.0076H404.671C405.307 99.0076 405.815 98.8296 406.193 98.4735C406.572 98.1137 406.761 97.6554 406.761 97.0985C406.761 96.7652 406.676 96.4262 406.506 96.0815C406.335 95.733 406.074 95.4413 405.722 95.2065C405.369 94.9679 404.921 94.8485 404.375 94.8485ZM402.693 89.7108H407.943V91.0517H399.216V89.7562H400.58V89.6426C400.136 89.438 399.78 89.1274 399.511 88.7108C399.239 88.2941 399.102 87.7562 399.102 87.0971C399.102 86.5062 399.224 85.9892 399.466 85.546C399.705 85.1028 400.068 84.7581 400.557 84.5119C401.042 84.2657 401.655 84.1426 402.398 84.1426H407.943V85.4835H402.489C401.803 85.4835 401.269 85.6615 400.886 86.0176C400.5 86.3736 400.307 86.8623 400.307 87.4835C400.307 87.9115 400.4 88.2941 400.585 88.6312C400.771 88.9645 401.042 89.2278 401.398 89.421C401.754 89.6142 402.186 89.7108 402.693 89.7108ZM408.125 78.1468C408.125 78.965 407.932 79.6696 407.546 80.2605C407.159 80.8514 406.627 81.3059 405.949 81.6241C405.271 81.9423 404.496 82.1014 403.625 82.1014C402.739 82.1014 401.957 81.9385 401.279 81.6127C400.597 81.2832 400.065 80.8249 399.682 80.2377C399.296 79.6468 399.102 78.9574 399.102 78.1696C399.102 77.5559 399.216 77.0029 399.443 76.5105C399.671 76.018 399.989 75.6146 400.398 75.3002C400.807 74.9858 401.284 74.7908 401.83 74.715V76.0559C401.432 76.1582 401.08 76.3855 400.773 76.7377C400.462 77.0862 400.307 77.5559 400.307 78.1468C400.307 78.6696 400.443 79.1279 400.716 79.5218C400.985 79.912 401.366 80.2169 401.858 80.4366C402.347 80.6525 402.921 80.7605 403.58 80.7605C404.254 80.7605 404.841 80.6544 405.341 80.4423C405.841 80.2264 406.229 79.9233 406.506 79.5332C406.782 79.1393 406.921 78.6771 406.921 78.1468C406.921 77.7983 406.86 77.4821 406.739 77.198C406.618 76.9139 406.443 76.6733 406.216 76.4764C405.989 76.2794 405.716 76.1393 405.398 76.0559V74.715C405.913 74.7908 406.377 74.9783 406.79 75.2775C407.199 75.573 407.525 75.965 407.767 76.4536C408.006 76.9385 408.125 77.5029 408.125 78.1468ZM399.216 68.9593H400.352V73.4821H399.216V68.9593ZM397.125 72.1639V70.823H405.443C405.822 70.823 406.106 70.768 406.296 70.6582C406.481 70.5446 406.606 70.4006 406.671 70.2264C406.731 70.0483 406.761 69.8608 406.761 69.6639C406.761 69.5162 406.754 69.3949 406.739 69.3002C406.72 69.2055 406.705 69.1298 406.693 69.073L407.898 68.8002C407.932 68.8912 407.966 69.018 408 69.1809C408.038 69.3438 408.057 69.5502 408.057 69.8002C408.057 70.179 407.975 70.5502 407.813 70.9139C407.65 71.2737 407.402 71.573 407.068 71.8116C406.735 72.0465 406.315 72.1639 405.807 72.1639H397.125ZM407.943 66.9423H399.216V65.6014H407.943V66.9423ZM397.761 66.2605C397.761 66.5218 397.672 66.7472 397.494 66.9366C397.316 67.1222 397.102 67.215 396.852 67.215C396.602 67.215 396.388 67.1222 396.21 66.9366C396.032 66.7472 395.943 66.5218 395.943 66.2605C395.943 65.9991 396.032 65.7756 396.21 65.59C396.388 65.4006 396.602 65.3059 396.852 65.3059C397.102 65.3059 397.316 65.4006 397.494 65.59C397.672 65.7756 397.761 65.9991 397.761 66.2605ZM408.125 59.6C408.125 60.3878 407.938 61.0791 407.563 61.6738C407.188 62.2647 406.663 62.7269 405.989 63.0602C405.315 63.3897 404.527 63.5545 403.625 63.5545C402.716 63.5545 401.922 63.3897 401.244 63.0602C400.566 62.7269 400.04 62.2647 399.665 61.6738C399.29 61.0791 399.102 60.3878 399.102 59.6C399.102 58.8121 399.29 58.1227 399.665 57.5318C400.04 56.9371 400.566 56.475 401.244 56.1454C401.922 55.8121 402.716 55.6454 403.625 55.6454C404.527 55.6454 405.315 55.8121 405.989 56.1454C406.663 56.475 407.188 56.9371 407.563 57.5318C407.938 58.1227 408.125 58.8121 408.125 59.6ZM406.921 59.6C406.921 59.0015 406.767 58.509 406.46 58.1227C406.154 57.7363 405.75 57.4503 405.25 57.2647C404.75 57.0791 404.208 56.9863 403.625 56.9863C403.042 56.9863 402.498 57.0791 401.994 57.2647C401.491 57.4503 401.083 57.7363 400.773 58.1227C400.462 58.509 400.307 59.0015 400.307 59.6C400.307 60.1984 400.462 60.6909 400.773 61.0772C401.083 61.4636 401.491 61.7496 401.994 61.9352C402.498 62.1208 403.042 62.2136 403.625 62.2136C404.208 62.2136 404.75 62.1208 405.25 61.9352C405.75 61.7496 406.154 61.4636 406.46 61.0772C406.767 60.6909 406.921 60.1984 406.921 59.6ZM402.693 52.2576H407.943V53.5985H399.216V52.3031H400.58V52.1894C400.136 51.9849 399.78 51.6743 399.511 51.2576C399.239 50.841 399.102 50.3031 399.102 49.644C399.102 49.0531 399.224 48.536 399.466 48.0929C399.705 47.6497 400.068 47.305 400.557 47.0588C401.042 46.8126 401.655 46.6894 402.398 46.6894H407.943V48.0304H402.489C401.803 48.0304 401.269 48.2084 400.886 48.5644C400.5 48.9205 400.307 49.4091 400.307 50.0304C400.307 50.4584 400.4 50.841 400.585 51.1781C400.771 51.5114 401.042 51.7747 401.398 51.9679C401.754 52.161 402.186 52.2576 402.693 52.2576Z" fill="#272727"/>
<path d="M415.881 96.2385L474.159 96.0953L481.929 95.8036L487.109 95.3262L490.994 94.6481L493.585 93.9349L496.175 92.9023L498.765 91.4084L500.06 90.4286L501.355 89.2524L502.65 87.8426L503.945 86.1562L505.24 84.1447L506.535 81.7557L507.83 78.9348L509.125 75.6315L510.42 71.8076L513.01 62.6015L516.896 46.8416L518.191 42.4914L519.486 39.6879L520.781 39.3011L522.076 42.1726L523.371 48.8652L524.666 59.3498L528.551 100.419L529.846 110.02L531.141 114.667L532.436 114.469L533.731 110.898L536.322 101.659L537.617 98.6433L538.912 97.0172L540.207 96.3501L541.502 96.1692L560.928 96.2385H673.598" stroke="#007EFF" stroke-width="1.33333" stroke-miterlimit="10" stroke-linecap="round" stroke-linejoin="round"/>
<path d="M415.881 33.3585H673.598" stroke="#CCCCCC" stroke-width="1.33333" stroke-miterlimit="10" stroke-linejoin="round"/>
<path d="M673.598 127.679V33.3585" stroke="#CCCCCC" stroke-width="1.33333" stroke-miterlimit="10" stroke-linejoin="round"/>
<path d="M415.881 127.679H673.598" stroke="#CCCCCC" stroke-width="1.33333" stroke-miterlimit="10" stroke-linejoin="round"/>
<path d="M415.881 127.679V33.3585" stroke="#CCCCCC" stroke-width="1.33333" stroke-miterlimit="10" stroke-linejoin="round"/>
<path d="M417.525 18V4.42427H422.271C423.217 4.42427 423.997 4.58778 424.611 4.9148C425.225 5.2374 425.683 5.67269 425.983 6.22067C426.284 6.76423 426.434 7.36745 426.434 8.03033C426.434 8.61367 426.33 9.09536 426.122 9.47541C425.919 9.85546 425.649 10.156 425.314 10.3769C424.982 10.5979 424.622 10.7614 424.233 10.8675V11C424.649 11.0265 425.066 11.1724 425.486 11.4375C425.906 11.7027 426.257 12.0827 426.54 12.5777C426.823 13.0726 426.964 13.6781 426.964 14.394C426.964 15.0745 426.809 15.6866 426.5 16.2301C426.191 16.7737 425.702 17.2046 425.035 17.5228C424.368 17.8409 423.5 18 422.43 18H417.525ZM419.169 16.5417H422.43C423.504 16.5417 424.266 16.334 424.717 15.9186C425.172 15.4988 425.4 14.9906 425.4 14.394C425.4 13.9344 425.283 13.5101 425.048 13.1212C424.814 12.7279 424.481 12.4142 424.047 12.18C423.614 11.9413 423.102 11.822 422.51 11.822H419.169V16.5417ZM419.169 10.3902H422.218C422.713 10.3902 423.159 10.293 423.557 10.0985C423.959 9.90407 424.277 9.63008 424.512 9.27655C424.75 8.92301 424.869 8.50761 424.869 8.03033C424.869 7.43374 424.662 6.92775 424.246 6.51234C423.831 6.09252 423.172 5.88261 422.271 5.88261H419.169V10.3902Z" fill="black"/>
</g>
<defs>
<clipPath id="clip0_5_2">
<rect width="685.057" height="175.604" fill="white"/>
</clipPath>
</defs>
</svg>
