<?xml version="1.0" encoding="UTF-8" standalone="no"?>
<svg
   xmlns:dc="http://purl.org/dc/elements/1.1/"
   xmlns:cc="http://creativecommons.org/ns#"
   xmlns:rdf="http://www.w3.org/1999/02/22-rdf-syntax-ns#"
   xmlns:svg="http://www.w3.org/2000/svg"
   xmlns="http://www.w3.org/2000/svg"
   viewBox="0 0 847.16083 294.7485"
   height="294.7485"
   width="847.16083"
   xml:space="preserve"
   id="svg2"
   version="1.1"><metadata
     id="metadata8"><rdf:RDF><cc:Work
         rdf:about=""><dc:format>image/svg+xml</dc:format><dc:type
           rdf:resource="http://purl.org/dc/dcmitype/StillImage" /></cc:Work></rdf:RDF></metadata><defs
     id="defs6"><clipPath
       id="clipPath138"
       clipPathUnits="userSpaceOnUse"><path
         id="path136"
         d="M 44.840625,40.809375 H 298.21312 V 191.28937 H 44.840625 Z" /></clipPath><clipPath
       id="clipPath280"
       clipPathUnits="userSpaceOnUse"><path
         id="path278"
         d="M 362.36063,40.809375 H 615.73312 V 191.28937 H 362.36063 Z" /></clipPath><clipPath
       id="clipPath290"
       clipPathUnits="userSpaceOnUse"><path
         id="path288"
         d="M 362.36063,40.809375 H 615.73312 V 191.28937 H 362.36063 Z" /></clipPath><clipPath
       id="clipPath300"
       clipPathUnits="userSpaceOnUse"><path
         id="path298"
         d="M 362.36063,40.809375 H 615.73312 V 191.28937 H 362.36063 Z" /></clipPath></defs><g
     transform="matrix(1.3333333,0,0,-1.3333333,0,294.7485)"
     id="g10"><path
       id="path12"
       style="fill:#ffffff;fill-opacity:1;fill-rule:nonzero;stroke:none"
       d="M 0,0 H 635.37062 V 221.06137 H 0 Z" /><path
       id="path14"
       style="fill:#ffffff;fill-opacity:1;fill-rule:nonzero;stroke:none"
       d="M 44.840625,40.809375 H 298.21312 V 191.28937 H 44.840625 Z" /><path
       id="path16"
       style="fill:#000000;fill-opacity:1;fill-rule:nonzero;stroke:#000000;stroke-width:0.5;stroke-linecap:butt;stroke-linejoin:round;stroke-miterlimit:10;stroke-dasharray:none;stroke-opacity:1"
       d="m 44.840625,40.809375 v 4" /><path
       id="path18"
       style="fill:#000000;fill-opacity:1;fill-rule:nonzero;stroke:#000000;stroke-width:0.5;stroke-linecap:butt;stroke-linejoin:round;stroke-miterlimit:10;stroke-dasharray:none;stroke-opacity:1"
       d="m 44.840625,191.28937 v -4" /><text
       id="text22"
       style="font-variant:normal;font-weight:normal;font-size:12px;font-family:FreeSans;-inkscape-font-specification:FreeSans;writing-mode:lr-tb;fill:#000000;fill-opacity:1;fill-rule:nonzero;stroke:none"
       transform="matrix(1,0,0,-1,42.059375,28.059375)"><tspan
         id="tspan20"
         y="0"
         x="0">0</tspan></text>
<path
       id="path24"
       style="fill:#000000;fill-opacity:1;fill-rule:nonzero;stroke:#000000;stroke-width:0.5;stroke-linecap:butt;stroke-linejoin:round;stroke-miterlimit:10;stroke-dasharray:none;stroke-opacity:1"
       d="m 95.515125,40.809375 v 4" /><path
       id="path26"
       style="fill:#000000;fill-opacity:1;fill-rule:nonzero;stroke:#000000;stroke-width:0.5;stroke-linecap:butt;stroke-linejoin:round;stroke-miterlimit:10;stroke-dasharray:none;stroke-opacity:1"
       d="m 95.515125,191.28937 v -4" /><text
       id="text30"
       style="font-variant:normal;font-weight:normal;font-size:12px;font-family:FreeSans;-inkscape-font-specification:FreeSans;writing-mode:lr-tb;fill:#000000;fill-opacity:1;fill-rule:nonzero;stroke:none"
       transform="matrix(1,0,0,-1,86.007312,28.059375)"><tspan
         id="tspan28"
         y="0"
         x="0 6.6719999 13.344">200</tspan></text>
<path
       id="path32"
       style="fill:#000000;fill-opacity:1;fill-rule:nonzero;stroke:#000000;stroke-width:0.5;stroke-linecap:butt;stroke-linejoin:round;stroke-miterlimit:10;stroke-dasharray:none;stroke-opacity:1"
       d="m 146.18962,40.809375 v 4" /><path
       id="path34"
       style="fill:#000000;fill-opacity:1;fill-rule:nonzero;stroke:#000000;stroke-width:0.5;stroke-linecap:butt;stroke-linejoin:round;stroke-miterlimit:10;stroke-dasharray:none;stroke-opacity:1"
       d="m 146.18962,191.28937 v -4" /><text
       id="text38"
       style="font-variant:normal;font-weight:normal;font-size:12px;font-family:FreeSans;-inkscape-font-specification:FreeSans;writing-mode:lr-tb;fill:#000000;fill-opacity:1;fill-rule:nonzero;stroke:none"
       transform="matrix(1,0,0,-1,136.65056,28.059375)"><tspan
         id="tspan36"
         y="0"
         x="0 6.6719999 13.344">400</tspan></text>
<path
       id="path40"
       style="fill:#000000;fill-opacity:1;fill-rule:nonzero;stroke:#000000;stroke-width:0.5;stroke-linecap:butt;stroke-linejoin:round;stroke-miterlimit:10;stroke-dasharray:none;stroke-opacity:1"
       d="m 196.86412,40.809375 v 4" /><path
       id="path42"
       style="fill:#000000;fill-opacity:1;fill-rule:nonzero;stroke:#000000;stroke-width:0.5;stroke-linecap:butt;stroke-linejoin:round;stroke-miterlimit:10;stroke-dasharray:none;stroke-opacity:1"
       d="m 196.86412,191.28937 v -4" /><text
       id="text46"
       style="font-variant:normal;font-weight:normal;font-size:12px;font-family:FreeSans;-inkscape-font-specification:FreeSans;writing-mode:lr-tb;fill:#000000;fill-opacity:1;fill-rule:nonzero;stroke:none"
       transform="matrix(1,0,0,-1,187.411,28.059375)"><tspan
         id="tspan44"
         y="0"
         x="0 6.6719999 13.344">600</tspan></text>
<path
       id="path48"
       style="fill:#000000;fill-opacity:1;fill-rule:nonzero;stroke:#000000;stroke-width:0.5;stroke-linecap:butt;stroke-linejoin:round;stroke-miterlimit:10;stroke-dasharray:none;stroke-opacity:1"
       d="m 247.53862,40.809375 v 4" /><path
       id="path50"
       style="fill:#000000;fill-opacity:1;fill-rule:nonzero;stroke:#000000;stroke-width:0.5;stroke-linecap:butt;stroke-linejoin:round;stroke-miterlimit:10;stroke-dasharray:none;stroke-opacity:1"
       d="m 247.53862,191.28937 v -4" /><text
       id="text54"
       style="font-variant:normal;font-weight:normal;font-size:12px;font-family:FreeSans;-inkscape-font-specification:FreeSans;writing-mode:lr-tb;fill:#000000;fill-opacity:1;fill-rule:nonzero;stroke:none"
       transform="matrix(1,0,0,-1,238.04644,28.059375)"><tspan
         id="tspan52"
         y="0"
         x="0 6.6719999 13.344">800</tspan></text>
<path
       id="path56"
       style="fill:#000000;fill-opacity:1;fill-rule:nonzero;stroke:#000000;stroke-width:0.5;stroke-linecap:butt;stroke-linejoin:round;stroke-miterlimit:10;stroke-dasharray:none;stroke-opacity:1"
       d="m 298.21312,40.809375 v 4" /><path
       id="path58"
       style="fill:#000000;fill-opacity:1;fill-rule:nonzero;stroke:#000000;stroke-width:0.5;stroke-linecap:butt;stroke-linejoin:round;stroke-miterlimit:10;stroke-dasharray:none;stroke-opacity:1"
       d="m 298.21312,191.28937 v -4" /><text
       id="text62"
       style="font-variant:normal;font-weight:normal;font-size:12px;font-family:FreeSans;-inkscape-font-specification:FreeSans;writing-mode:lr-tb;fill:#000000;fill-opacity:1;fill-rule:nonzero;stroke:none"
       transform="matrix(1,0,0,-1,285.77562,28.059375)"><tspan
         id="tspan60"
         y="0"
         x="0 6.6719999 13.344 20.016001">1000</tspan></text>
<text
       id="text66"
       style="font-variant:normal;font-weight:normal;font-size:14.39999962px;font-family:FreeSans;-inkscape-font-specification:FreeSans;writing-mode:lr-tb;fill:#272727;fill-opacity:1;fill-rule:nonzero;stroke:none"
       transform="matrix(1,0,0,-1,144.99562,10.246875)"><tspan
         id="tspan64"
         y="0"
         x="0 10.0512 13.248 21.0672 28.9872 36.6768 44.409599 52.228802">Diagonal</tspan></text>
<path
       id="path68"
       style="fill:#000000;fill-opacity:1;fill-rule:nonzero;stroke:#000000;stroke-width:0.5;stroke-linecap:butt;stroke-linejoin:round;stroke-miterlimit:10;stroke-dasharray:none;stroke-opacity:1"
       d="m 44.840625,40.809375 h 4" /><path
       id="path70"
       style="fill:#000000;fill-opacity:1;fill-rule:nonzero;stroke:#000000;stroke-width:0.5;stroke-linecap:butt;stroke-linejoin:round;stroke-miterlimit:10;stroke-dasharray:none;stroke-opacity:1"
       d="m 298.21312,40.809375 h -4" /><text
       id="text74"
       style="font-variant:normal;font-weight:normal;font-size:12px;font-family:FreeSans;-inkscape-font-specification:FreeSans;writing-mode:lr-tb;fill:#000000;fill-opacity:1;fill-rule:nonzero;stroke:none"
       transform="matrix(1,0,0,-1,25.60625,37.739063)"><tspan
         id="tspan72"
         y="0"
         x="0 6.6719999 9.6719999">0.0</tspan></text>
<path
       id="path76"
       style="fill:#000000;fill-opacity:1;fill-rule:nonzero;stroke:#000000;stroke-width:0.5;stroke-linecap:butt;stroke-linejoin:round;stroke-miterlimit:10;stroke-dasharray:none;stroke-opacity:1"
       d="m 44.840625,62.306518 h 4" /><path
       id="path78"
       style="fill:#000000;fill-opacity:1;fill-rule:nonzero;stroke:#000000;stroke-width:0.5;stroke-linecap:butt;stroke-linejoin:round;stroke-miterlimit:10;stroke-dasharray:none;stroke-opacity:1"
       d="m 298.21312,62.306518 h -4" /><text
       id="text82"
       style="font-variant:normal;font-weight:normal;font-size:12px;font-family:FreeSans;-inkscape-font-specification:FreeSans;writing-mode:lr-tb;fill:#000000;fill-opacity:1;fill-rule:nonzero;stroke:none"
       transform="matrix(1,0,0,-1,27.5125,59.236205)"><tspan
         id="tspan80"
         y="0"
         x="0 6.6719999 9.6719999">0.1</tspan></text>
<path
       id="path84"
       style="fill:#000000;fill-opacity:1;fill-rule:nonzero;stroke:#000000;stroke-width:0.5;stroke-linecap:butt;stroke-linejoin:round;stroke-miterlimit:10;stroke-dasharray:none;stroke-opacity:1"
       d="m 44.840625,83.803661 h 4" /><path
       id="path86"
       style="fill:#000000;fill-opacity:1;fill-rule:nonzero;stroke:#000000;stroke-width:0.5;stroke-linecap:butt;stroke-linejoin:round;stroke-miterlimit:10;stroke-dasharray:none;stroke-opacity:1"
       d="m 298.21312,83.803661 h -4" /><text
       id="text90"
       style="font-variant:normal;font-weight:normal;font-size:12px;font-family:FreeSans;-inkscape-font-specification:FreeSans;writing-mode:lr-tb;fill:#000000;fill-opacity:1;fill-rule:nonzero;stroke:none"
       transform="matrix(1,0,0,-1,25.54375,80.733348)"><tspan
         id="tspan88"
         y="0"
         x="0 6.6719999 9.6719999">0.2</tspan></text>
<path
       id="path92"
       style="fill:#000000;fill-opacity:1;fill-rule:nonzero;stroke:#000000;stroke-width:0.5;stroke-linecap:butt;stroke-linejoin:round;stroke-miterlimit:10;stroke-dasharray:none;stroke-opacity:1"
       d="m 44.840625,105.3008 h 4" /><path
       id="path94"
       style="fill:#000000;fill-opacity:1;fill-rule:nonzero;stroke:#000000;stroke-width:0.5;stroke-linecap:butt;stroke-linejoin:round;stroke-miterlimit:10;stroke-dasharray:none;stroke-opacity:1"
       d="m 298.21312,105.3008 h -4" /><text
       id="text98"
       style="font-variant:normal;font-weight:normal;font-size:12px;font-family:FreeSans;-inkscape-font-specification:FreeSans;writing-mode:lr-tb;fill:#000000;fill-opacity:1;fill-rule:nonzero;stroke:none"
       transform="matrix(1,0,0,-1,25.60625,102.23049)"><tspan
         id="tspan96"
         y="0"
         x="0 6.6719999 9.6719999">0.3</tspan></text>
<path
       id="path100"
       style="fill:#000000;fill-opacity:1;fill-rule:nonzero;stroke:#000000;stroke-width:0.5;stroke-linecap:butt;stroke-linejoin:round;stroke-miterlimit:10;stroke-dasharray:none;stroke-opacity:1"
       d="m 44.840625,126.79795 h 4" /><path
       id="path102"
       style="fill:#000000;fill-opacity:1;fill-rule:nonzero;stroke:#000000;stroke-width:0.5;stroke-linecap:butt;stroke-linejoin:round;stroke-miterlimit:10;stroke-dasharray:none;stroke-opacity:1"
       d="m 298.21312,126.79795 h -4" /><text
       id="text106"
       style="font-variant:normal;font-weight:normal;font-size:12px;font-family:FreeSans;-inkscape-font-specification:FreeSans;writing-mode:lr-tb;fill:#000000;fill-opacity:1;fill-rule:nonzero;stroke:none"
       transform="matrix(1,0,0,-1,25.45,123.72763)"><tspan
         id="tspan104"
         y="0"
         x="0 6.6719999 9.6719999">0.4</tspan></text>
<path
       id="path108"
       style="fill:#000000;fill-opacity:1;fill-rule:nonzero;stroke:#000000;stroke-width:0.5;stroke-linecap:butt;stroke-linejoin:round;stroke-miterlimit:10;stroke-dasharray:none;stroke-opacity:1"
       d="m 44.840625,148.29509 h 4" /><path
       id="path110"
       style="fill:#000000;fill-opacity:1;fill-rule:nonzero;stroke:#000000;stroke-width:0.5;stroke-linecap:butt;stroke-linejoin:round;stroke-miterlimit:10;stroke-dasharray:none;stroke-opacity:1"
       d="m 298.21312,148.29509 h -4" /><text
       id="text114"
       style="font-variant:normal;font-weight:normal;font-size:12px;font-family:FreeSans;-inkscape-font-specification:FreeSans;writing-mode:lr-tb;fill:#000000;fill-opacity:1;fill-rule:nonzero;stroke:none"
       transform="matrix(1,0,0,-1,25.528125,145.22478)"><tspan
         id="tspan112"
         y="0"
         x="0 6.6719999 9.6719999">0.5</tspan></text>
<path
       id="path116"
       style="fill:#000000;fill-opacity:1;fill-rule:nonzero;stroke:#000000;stroke-width:0.5;stroke-linecap:butt;stroke-linejoin:round;stroke-miterlimit:10;stroke-dasharray:none;stroke-opacity:1"
       d="m 44.840625,169.79223 h 4" /><path
       id="path118"
       style="fill:#000000;fill-opacity:1;fill-rule:nonzero;stroke:#000000;stroke-width:0.5;stroke-linecap:butt;stroke-linejoin:round;stroke-miterlimit:10;stroke-dasharray:none;stroke-opacity:1"
       d="m 298.21312,169.79223 h -4" /><text
       id="text122"
       style="font-variant:normal;font-weight:normal;font-size:12px;font-family:FreeSans;-inkscape-font-specification:FreeSans;writing-mode:lr-tb;fill:#000000;fill-opacity:1;fill-rule:nonzero;stroke:none"
       transform="matrix(1,0,0,-1,25.528125,166.72192)"><tspan
         id="tspan120"
         y="0"
         x="0 6.6719999 9.6719999">0.6</tspan></text>
<text
       id="text126"
       style="font-variant:normal;font-weight:normal;font-size:12px;font-family:FreeSans;-inkscape-font-specification:FreeSans;writing-mode:lr-tb;fill:#000000;fill-opacity:1;fill-rule:nonzero;stroke:none"
       transform="matrix(1,0,0,-1,25.45,188.21906)"><tspan
         id="tspan124"
         y="0"
         x="0 6.6719999 9.6719999">0.7</tspan></text>
<text
       id="text130"
       style="font-variant:normal;font-weight:normal;font-size:14.39999962px;font-family:FreeSans;-inkscape-font-specification:FreeSans;writing-mode:lr-tb;fill:#272727;fill-opacity:1;fill-rule:nonzero;stroke:none"
       transform="matrix(0,1,1,0,17.403125,69.400937)"><tspan
         id="tspan128"
         y="0"
         x="0 10.0512 13.248 21.0672 28.9872 36.6768 44.409599 52.228802 55.310398 58.9104 71.092796 78.767998 86.587196">Diagonal Mean</tspan></text>
<g
       id="g132"><g
         clip-path="url(#clipPath138)"
         id="g134"><path
           id="path140"
           style="fill:none;stroke:#007eff;stroke-width:1;stroke-linecap:round;stroke-linejoin:round;stroke-miterlimit:10;stroke-dasharray:none;stroke-opacity:1"
           d="m 44.840625,142.27732 0.253372,21.68875 0.253373,8.38327 0.253373,-10.1984 0.253372,-0.66206 0.253372,-0.1576 0.253373,3.74164 0.253372,-9.61366 0.253373,7.71618 0.253373,-2.2209 0.253372,2.80478 0.253373,-6.28612 0.253372,6.37594 0.253372,-0.76385 0.253373,0.48223 0.253373,0.88866 0.253372,-9.28549 0.253372,10.28552 0.253373,-2.33208 0.253372,-9.27832 0.253373,6.44945 0.253372,-2.49549 0.253373,-3.62876 0.253373,-0.63743 0.253372,3.23352 0.253372,-1.37373 0.253373,2.46746 0.506745,-0.48355 0.253372,0.0348 0.253373,-5.10089 0.506745,3.2777 0.253372,-3.38888 0.253373,1.23516 0.253373,-1.18451 0.253372,0.49027 0.253372,-3.59234 0.253373,2.52883 0.253373,0.082 0.253372,-7.23716 0.253373,9.06978 0.253372,-5.57507 0.253373,0.91087 0.253372,0.39706 0.506745,-5.37163 0.253373,3.11433 0.253372,-1.87173 0.253372,0.9666 0.253373,2.61809 0.253373,-9.57363 0.253372,11.90028 0.253373,-5.37053 0.253372,1.13285 0.253373,1.68298 0.253372,-3.10293 0.253372,1.17869 0.253373,-5.2317 0.253372,2.34432 0.253373,-0.77981 0.253373,-2.19019 0.253372,2.23151 0.253372,-1.28032 0.253373,-0.455 0.253372,-2.33028 0.253373,4.13384 0.253372,-3.3956 0.253373,0.51346 0.253372,0.16452 0.253373,1.90918 0.253372,5.65703 0.253373,-10.01239 0.253372,4.40884 0.506745,-4.56694 0.253373,1.69036 0.253372,-0.60815 0.253373,-3.73187 0.506745,4.45676 0.253372,-1.993 0.253373,4.07657 0.253372,-4.2438 0.253373,1.68483 0.253372,-2.55721 0.253373,4.37624 0.253372,-1.72956 0.253373,-3.41383 0.253372,3.86845 0.253373,-4.62157 0.253373,3.78445 0.253372,-2.6155 0.253373,0.0297 0.253372,-3.55015 0.253373,3.20057 0.253372,-1.1619 0.253373,-0.18868 0.253372,0.8974 0.253373,-0.2871 0.253372,-2.98481 0.253373,1.05633 0.253372,3.12199 0.253373,-8.75369 0.253372,4.59072 0.253373,-1.19258 0.253372,1.25947 0.253372,-4.79083 0.253373,5.51892 0.253373,-3.51002 0.253372,2.25849 0.253373,-0.13023 0.253372,-3.59877 0.253372,2.60773 0.253373,-4.76497 0.253372,3.4057 0.253373,-5.09071 0.253373,5.62285 0.253372,-5.49919 0.253373,-1.65745 0.253372,6.69888 0.253373,-5.63683 0.253372,-0.17308 0.253372,1.30251 0.253373,0.69601 0.253372,-2.55806 0.253373,2.96635 0.253372,-4.40691 0.253373,3.68931 0.253372,-3.24198 0.253373,-0.71041 0.253372,1.99788 0.253373,-4.2649 0.253373,4.66781 0.253372,-6.45555 0.506745,3.58274 0.253372,-1.99054 0.506745,3.0652 0.253373,-3.74617 0.253372,-1.85624 0.253373,7.33965 0.253372,-7.50671 0.253373,1.89972 0.253372,-0.17239 0.253373,-0.75248 0.253372,-3.42229 0.253373,3.57292 0.506745,-5.85213 0.253372,4.44969 0.253373,-1.9892 0.253372,-0.11624 0.253373,0.81131 0.253372,2.45833 0.253373,-5.49814 0.253372,2.06879 0.253373,-2.78025 0.253372,2.36396 0.253373,-0.46789 0.506745,-3.15514 0.253372,3.81314 0.253373,-2.83274 0.506745,1.6382 0.253372,-3.7767 0.253373,1.83437 0.253372,-2.27611 0.253373,4.14458 0.506745,-5.54836 0.253372,5.21343 0.253373,-4.22174 0.253372,-0.61661 0.253373,-0.29773 0.506745,2.22362 0.253372,-4.19876 0.253373,-0.6441 0.253373,6.28273 0.253372,-2.18022 0.253372,-7.89838 0.253373,11.1378 0.253373,-6.72405 0.253372,-0.92919 0.253372,1.57673 0.253373,-1.98665 0.253372,3.24707 0.253373,-4.3186 0.253372,1.75092 0.253373,-0.005 0.253373,0.43651 0.253372,-3.12742 0.253373,2.76787 0.253372,-0.32632 0.253372,-1.21041 0.253373,0.056 0.253372,-1.37469 0.253373,2.40115 0.253372,-5.648266 0.506745,5.303026 0.253373,-5.054789 0.253372,2.738309 0.253373,-2.395637 0.253372,0.512173 0.253373,-0.03419 0.253372,-0.337096 0.253373,3.88181 0.253372,-4.471051 0.253373,2.761191 0.253372,-3.225693 0.253373,0.99239 0.253372,-1.37495 0.253373,1.146591 0.253372,-1.969153 0.253373,-0.02757 0.25337,0.298146 0.50675,1.593422 0.25337,-6.821523 0.25337,7.598316 0.25338,-3.26614 0.25337,-0.572421 0.50674,1.772927 0.25338,-2.84496 0.25337,1.415081 0.25337,-2.010247 0.25337,4.045986 0.25337,-5.852665 0.25338,2.354436 0.25337,-1.04986 0.25337,2.549223 0.25337,-4.891145 0.50675,5.384638 0.25337,-3.689362 0.25338,0.611841 0.25337,-0.369025 0.25337,2.88575 0.25337,-6.826264 0.50675,6.006912 0.25337,-4.046874 0.25337,2.991525 0.25337,-1.734844 0.25338,0.78353 0.25337,-2.684583 0.25337,0.89144 0.25338,-0.01296 0.25337,3.398621 0.25337,-3.12641 0.25337,0.519242 0.25338,1.235685 0.25337,-3.455538 0.25337,1.486524 0.25337,-2.581318 0.25338,4.455523 0.50674,-4.948573 0.25337,4.535388 0.25338,-2.369153 0.50674,2.718804 0.25337,-3.811605 0.25338,1.750142 0.25337,-0.931119 0.25337,-0.369656 0.50675,-1.183127 0.25337,-1.025954 0.25337,2.323751 0.25337,-2.238778 0.25337,1.022335 0.25338,1.601915 0.25337,-3.393945 0.25337,1.14145 0.25338,0.201907 0.25337,-0.833358 0.25337,2.243712 0.25337,-0.09597 0.25338,-1.34178 0.25337,-0.132578 0.25337,-1.508383 0.25337,3.259467 0.25338,-3.202777 0.25337,-0.662773 0.25337,1.052233 0.25337,-0.01036 0.25337,-1.633921 0.25338,2.359427 0.25337,-1.088663 0.25337,0.907522 0.25337,0.233977 0.25338,-3.322172 0.25337,4.508374 0.25337,-4.842452 0.25337,3.202105 0.25338,-2.451084 0.25337,1.771923 0.25337,-0.841826 0.25338,0.312365 0.25337,-0.07972 0.25337,-0.758815 0.25337,0.08316 0.25337,-0.824307 0.50675,1.563288 0.25337,-1.171336 0.25337,0.68541 0.25338,0.02631 0.25337,0.494571 0.25337,-2.327747 0.25338,1.944327 0.25337,0.775886 0.25337,-1.954289 0.25337,1.918387 0.25338,-3.441604 0.25337,4.893264 0.25337,-4.75025 0.25337,3.413663 0.25338,-4.078403 0.25337,3.749486 0.50674,-1.753853 0.25338,0.829209 0.25337,-0.435442 0.25337,0.189818 0.25337,-0.419018 0.25337,-1.191656 0.25338,1.386447 0.25337,-0.669653 0.25337,0.163855 0.25337,0.747689 0.25338,-0.379123 0.25337,1.41746 0.25337,-1.909973 0.25337,1.820289 0.25338,-3.385269 0.25337,2.239199 0.25337,-1.152171 0.50675,1.609571 0.25337,-1.285164 0.25337,-0.256049 0.25337,1.317512 0.25338,-0.309359 0.50674,-1.707377 0.25337,2.004917 0.25338,-1.633076 0.25337,2.242932 0.25337,-0.877431 0.76012,-0.407564 0.25337,2.397228 0.25337,-3.264225 0.25338,1.781653 0.25337,-2.830838 0.25337,0.989941 0.25337,2.024915 0.25338,-2.721216 0.25337,1.709744 0.25337,-0.243303 0.25337,0.206796 0.25338,-1.734215 0.25337,2.775028 0.25337,-2.109626 0.25337,0.889961 0.25338,-2.611138 0.25337,3.654162 0.50674,-3.308543 0.25338,2.192088 0.25337,-1.631635 0.25337,1.028181 0.25337,-2.690206 0.25338,2.503256 0.25337,-2.218406 0.25337,0.369996 0.50675,1.474275 0.25337,-2.535229 0.25337,2.523485 0.25337,-1.536597 0.25338,-0.294653 0.25337,0.642551 0.25337,-1.076701 0.25337,1.313014 0.25338,-0.817675 0.25337,0.819489 0.25337,-0.981922 0.25337,-2.696762 0.25338,2.563586 0.25337,-0.838801 0.25337,0.969269 0.25337,-0.551712 0.25338,0.117322 0.50674,-0.160343 0.25337,-0.794992 0.25338,-0.288511 0.25337,0.861854 0.25337,-0.763972 0.25337,1.036166 0.25338,-0.820694 0.25337,0.326913 0.25337,-1.813339 0.25337,1.158896 0.25338,0.212164 0.25337,-0.94451 0.25337,-0.293281 0.25337,0.369367 0.25338,-0.175057 0.25337,-1.058887 0.25337,0.05044 0.25337,2.62042 0.25338,-2.524137 0.50674,0.724987 0.25337,-0.129019 0.25338,-0.959318 0.50674,1.325089 0.50675,-2.46385 0.25337,1.694801 0.25337,-2.239094 0.25337,1.889242 0.50675,-1.857198 0.25337,1.687283 0.25337,-0.931671 0.25338,-0.346665 0.25337,1.814174 0.25337,-3.426095 0.50675,1.929348 0.50674,-0.56094 0.25338,-0.90328 0.25337,0.477285 0.25337,-0.213323 0.25337,0.552074 0.25337,-0.226728 0.25338,-0.605491 0.25337,-1.258572 0.25337,2.404581 0.25337,-2.193182 0.25338,0.300895 0.25337,-0.807434 0.25337,0.347518 0.25337,0.859656 0.25338,-1.182868 0.25337,-0.151114 0.25337,0.675908 0.25337,0.0075 0.25338,-1.718467 0.25337,1.872108 0.25337,-0.900908 0.25337,-0.324201 0.25338,0.217013 0.25337,0.915437 0.25337,-1.909901 0.50675,1.71336 0.25337,-2.837591 0.50675,1.07311 0.25337,-0.833122 0.25337,-0.400416 0.25337,1.30738 0.25337,-1.904067 0.25338,1.131774 0.25337,0.402162 0.25337,-1.380621 0.25337,0.68548 0.25338,0.176429 0.25337,-0.961856 0.25337,0.0239 0.25337,0.957016 0.25338,-1.600817 0.25337,0.122094 0.25337,0.347347 0.25338,-0.602364 0.25337,0.06487 0.25337,-0.550518 0.25337,0.734465 0.25337,-0.950722 0.50675,-0.415391 0.25337,0.479431 0.25337,-0.07858 0.25338,-0.684789 0.25337,0.0076 0.25337,0.889363 0.25337,-0.468164 0.25338,-1.093437 0.25337,1.580185 0.25337,-2.181958 0.25337,1.792571 0.25338,-2.185628 0.25337,1.086807 0.50674,-1.196467 0.25338,1.84282 0.25337,-2.259363 0.25337,0.551301 0.25338,-0.950621 0.25337,1.210928 0.25337,-1.410277 0.25337,0.7055 0.25337,-0.311977 0.25338,0.554353 0.25337,-0.952626 0.25337,0.900995 0.25337,-0.538099 0.25338,-1.164071 0.50674,1.228253 0.25337,-1.250272 0.25338,0.391771 0.25337,-0.582058 0.25337,-0.182099 0.50675,-0.869741 0.25337,0.540979 0.25337,-0.646148 0.25337,0.581143 0.25338,-0.90685 0.25337,1.559849 0.25337,-1.355314 0.25337,0.543541 0.25338,-1.03669 0.25337,0.577081 0.25337,0.214343 0.25337,-1.557936 0.25338,1.090144 0.25337,-1.701891 0.25337,0.766746 0.25337,0.393336 0.25338,-0.319066 0.25337,-0.971944 0.25337,0.766278 0.25337,-1.253834 0.25338,1.612006 0.25337,-0.888215 0.50674,-0.855068 0.25338,1.193672 0.50674,-1.319806 0.25337,0.479377 0.25338,-0.110649 0.50674,-0.861454 0.25337,0.518045 0.25338,-1.172116 0.50674,0.168033 0.25337,0.105995 0.25338,-0.713264 0.25337,0.903113 0.50674,-1.283669 0.25338,0.60621 0.25337,-0.832743 0.25337,0.813492 0.25337,-0.917739 0.25338,0.404304 0.25337,-0.340534 0.25337,-1.130658 0.25337,1.51754 0.25338,-1.677315 0.25337,0.507222 0.25337,-0.224896 0.25337,-0.473917 0.25338,0.968361 0.25337,-1.038842 0.25337,0.98562 0.25337,-1.341714 0.25338,0.720591 0.25337,-0.296561 0.25337,0.423711 0.25337,-1.094486 0.25338,0.361806 0.25337,-0.262225 0.50675,-0.251204 0.25337,-0.54343 0.25337,0.377961 0.25337,-0.606686 0.25337,0.291972 0.25338,-0.552404 0.25337,0.771279 0.25337,-1.087443 0.25337,0.843607 0.25338,-0.669445 0.25337,0.383289 0.50674,-0.938856 0.25338,0.243501 0.25337,-0.111237 0.25337,-0.576405 0.25337,0.0029 0.25338,0.266425 0.25337,-0.557137 0.50674,0.384826 0.25338,-0.410573 0.25337,-0.119771 0.25337,-0.35017 0.25337,0.184458 0.25338,-0.07267 0.25337,-0.217478 0.50674,0.09565 0.25338,-0.09224 0.25337,-0.243215 0.25337,-0.724356 0.25337,0.450126 0.25338,-0.159758 0.25337,-0.336334 0.25337,0.01196 0.25337,-0.521056 0.25338,0.744866 0.25337,-0.3328 0.25337,0.325834 0.25337,-1.263483 0.50675,0.875311 0.25337,-0.662253 0.25337,0.188758 0.25338,-0.497859 0.25337,0.596644 0.25337,-0.482641 0.50675,0.0999 0.25337,-0.884487 0.25337,0.724155 0.25337,-0.760869 0.25338,0.892366 0.25337,-1.211552 0.25337,0.556591 0.25337,0.192139 0.25338,-0.472175 0.25337,-0.02477 0.25337,-0.377863 0.25337,0.645265 0.25338,-0.704774 0.25337,0.161411 0.25337,-0.238885 0.25337,0.514159 0.25338,-0.504403 0.25337,0.286011 0.25337,-0.538103 0.25337,0.254495 0.25338,-0.51875 0.25337,0.313642 0.25337,-0.344944 0.25337,0.02702 0.50675,0.30688 0.50674,-0.698911 0.25338,-0.08185 0.25337,0.138847 0.50674,-0.418955 0.25338,0.545591 0.25337,-0.724579 0.25337,0.413161 0.25338,-0.07621 0.50674,-0.482877 0.25337,0.409586 0.25337,-0.638897 0.25338,0.223372 0.25337,-0.203397 0.25337,0.323841 0.25337,-0.355609 0.25338,0.245725 0.25337,-0.341993 0.25337,-0.06614 0.25337,0.167385 0.25338,-0.260587 1.01349,-0.314526 0.25337,0.321876 0.25337,-0.594925 0.25337,0.305259 0.25338,-0.518102 0.25337,0.375047 0.25337,-0.19761 0.25337,0.187639 0.25338,-0.220245 0.25337,-0.0014 0.25337,-0.135673 0.50675,0.07293 0.25337,-0.36764 0.50674,0.02204 0.25338,-0.0076 0.25337,-0.235163 0.25337,-0.0021 0.25337,0.322681 0.25338,-0.293315 0.25337,0.105368 0.25337,-0.221494 0.25337,0.0702 0.25338,-0.226456 0.25337,0.156117 0.50674,-0.292743 0.25338,0.210362 0.25337,-0.466915 0.25337,0.483077 0.50675,-0.427538 0.76011,0.109999 0.25338,-0.234541 0.25337,0.165827 0.25337,-0.100938 0.25337,0.121259 0.25338,-0.249008 0.25337,0.193072 0.25337,-0.391447 0.25337,0.292421 0.50675,-0.258131 0.25337,0.241917 0.25337,-0.406756 0.25338,0.347256 0.25337,-0.306578 0.25337,0.114583 0.76012,-0.187879 0.50674,-0.02968 0.25338,-0.130002 0.25337,0.206463 0.25337,-0.173152 0.25337,0.188382 0.25338,-0.24867 0.50674,0.06495 0.50675,-0.209677 0.25337,0.182858 0.25337,-0.16776 0.25337,0.10793 0.25338,-0.237451 0.76011,0.136682 0.50675,-0.277215 0.76012,-0.04176 1.7736,-0.353375 0.25338,0.131755 0.25337,-0.304498 0.25337,0.183437 0.25337,-0.209759 0.25338,0.07338 0.76011,-0.166002 0.76012,0.01714 0.50675,-0.221852 0.76011,0.03367 0.25338,-0.142571 0.50674,0.08711 0.76012,-0.157818 0.25337,0.09634 0.25337,-0.151549 0.25338,0.04554 0.25337,-0.170083 0.25337,0.154217 0.25338,-0.15891 0.25337,0.176891 0.25337,-0.199703 0.50674,0.02429 0.25338,-0.16965 0.25337,0.290686 0.25337,-0.326106 0.25337,0.229417 0.25338,-0.209806 0.25337,0.139992 0.50674,-0.0901 3.54722,-0.256106 0.25337,0.04146 0.25337,-0.118668 0.25338,0.198891 0.25337,-0.20712 0.25337,0.131979 0.25337,-0.168619 0.25338,0.104701 0.50674,-0.112236 0.25337,0.06233 0.25338,-0.08889 0.50674,0.01329 1.26686,-0.03818 0.25338,-0.06144 0.25337,0.06325 0.50674,-0.03245 0.76012,-0.05062 1.52024,-0.0095 2.78709,-0.08746 1.26687,-0.02582 0.76011,-0.04274 1.52024,-0.006 0.76012,-0.05687 1.52023,0.002 0.76012,-0.06452 2.53372,-0.107044 2.7871,-0.08449 1.52024,-0.0439 1.52023,-0.03476 2.53373,-0.03265 1.52023,-0.02269 2.28035,-0.02099 5.82757,-0.02234 v 0" /></g></g><g
       id="g142"><path
         id="path144"
         style="fill:none;stroke:#cccccc;stroke-width:1;stroke-linecap:butt;stroke-linejoin:round;stroke-miterlimit:10;stroke-dasharray:none;stroke-opacity:1"
         d="M 44.840625,191.28937 H 298.21312" /><path
         id="path146"
         style="fill:none;stroke:#cccccc;stroke-width:1;stroke-linecap:butt;stroke-linejoin:round;stroke-miterlimit:10;stroke-dasharray:none;stroke-opacity:1"
         d="M 298.21312,40.809375 V 191.28937" /><path
         id="path148"
         style="fill:none;stroke:#cccccc;stroke-width:1;stroke-linecap:butt;stroke-linejoin:round;stroke-miterlimit:10;stroke-dasharray:none;stroke-opacity:1"
         d="M 44.840625,40.809375 H 298.21312" /><path
         id="path150"
         style="fill:none;stroke:#cccccc;stroke-width:1;stroke-linecap:butt;stroke-linejoin:round;stroke-miterlimit:10;stroke-dasharray:none;stroke-opacity:1"
         d="M 44.840625,40.809375 V 191.28937" /><text
         id="text154"
         style="font-variant:normal;font-weight:normal;font-size:14px;font-family:FreeSans;-inkscape-font-specification:FreeSans;writing-mode:lr-tb;fill:#000000;fill-opacity:1;fill-rule:nonzero;stroke:none"
         transform="matrix(1,0,0,-1,44.840625,203.65825)"><tspan
           id="tspan152"
           y="0"
           x="0">A</tspan></text>
<path
         id="path156"
         style="fill:#ffffff;fill-opacity:1;fill-rule:nonzero;stroke:none"
         d="M 362.36063,40.809375 H 615.73312 V 191.28937 H 362.36063 Z" /><path
         id="path158"
         style="fill:#000000;fill-opacity:1;fill-rule:nonzero;stroke:#000000;stroke-width:0.5;stroke-linecap:butt;stroke-linejoin:round;stroke-miterlimit:10;stroke-dasharray:none;stroke-opacity:1"
         d="m 362.36063,40.809375 v 4" /><path
         id="path160"
         style="fill:#000000;fill-opacity:1;fill-rule:nonzero;stroke:#000000;stroke-width:0.5;stroke-linecap:butt;stroke-linejoin:round;stroke-miterlimit:10;stroke-dasharray:none;stroke-opacity:1"
         d="m 362.36063,191.28937 v -4" /><text
         id="text164"
         style="font-variant:normal;font-weight:normal;font-size:12px;font-family:FreeSans;-inkscape-font-specification:FreeSans;writing-mode:lr-tb;fill:#000000;fill-opacity:1;fill-rule:nonzero;stroke:none"
         transform="matrix(1,0,0,-1,359.57937,28.059375)"><tspan
           id="tspan162"
           y="0"
           x="0">0</tspan></text>
<path
         id="path166"
         style="fill:#000000;fill-opacity:1;fill-rule:nonzero;stroke:#000000;stroke-width:0.5;stroke-linecap:butt;stroke-linejoin:round;stroke-miterlimit:10;stroke-dasharray:none;stroke-opacity:1"
         d="m 413.03512,40.809375 v 4" /><path
         id="path168"
         style="fill:#000000;fill-opacity:1;fill-rule:nonzero;stroke:#000000;stroke-width:0.5;stroke-linecap:butt;stroke-linejoin:round;stroke-miterlimit:10;stroke-dasharray:none;stroke-opacity:1"
         d="m 413.03512,191.28937 v -4" /><text
         id="text172"
         style="font-variant:normal;font-weight:normal;font-size:12px;font-family:FreeSans;-inkscape-font-specification:FreeSans;writing-mode:lr-tb;fill:#000000;fill-opacity:1;fill-rule:nonzero;stroke:none"
         transform="matrix(1,0,0,-1,403.52731,28.059375)"><tspan
           id="tspan170"
           y="0"
           x="0 6.6719999 13.344">200</tspan></text>
<path
         id="path174"
         style="fill:#000000;fill-opacity:1;fill-rule:nonzero;stroke:#000000;stroke-width:0.5;stroke-linecap:butt;stroke-linejoin:round;stroke-miterlimit:10;stroke-dasharray:none;stroke-opacity:1"
         d="m 463.70963,40.809375 v 4" /><path
         id="path176"
         style="fill:#000000;fill-opacity:1;fill-rule:nonzero;stroke:#000000;stroke-width:0.5;stroke-linecap:butt;stroke-linejoin:round;stroke-miterlimit:10;stroke-dasharray:none;stroke-opacity:1"
         d="m 463.70963,191.28937 v -4" /><text
         id="text180"
         style="font-variant:normal;font-weight:normal;font-size:12px;font-family:FreeSans;-inkscape-font-specification:FreeSans;writing-mode:lr-tb;fill:#000000;fill-opacity:1;fill-rule:nonzero;stroke:none"
         transform="matrix(1,0,0,-1,454.17056,28.059375)"><tspan
           id="tspan178"
           y="0"
           x="0 6.6719999 13.344">400</tspan></text>
<path
         id="path182"
         style="fill:#000000;fill-opacity:1;fill-rule:nonzero;stroke:#000000;stroke-width:0.5;stroke-linecap:butt;stroke-linejoin:round;stroke-miterlimit:10;stroke-dasharray:none;stroke-opacity:1"
         d="m 514.38412,40.809375 v 4" /><path
         id="path184"
         style="fill:#000000;fill-opacity:1;fill-rule:nonzero;stroke:#000000;stroke-width:0.5;stroke-linecap:butt;stroke-linejoin:round;stroke-miterlimit:10;stroke-dasharray:none;stroke-opacity:1"
         d="m 514.38412,191.28937 v -4" /><text
         id="text188"
         style="font-variant:normal;font-weight:normal;font-size:12px;font-family:FreeSans;-inkscape-font-specification:FreeSans;writing-mode:lr-tb;fill:#000000;fill-opacity:1;fill-rule:nonzero;stroke:none"
         transform="matrix(1,0,0,-1,504.931,28.059375)"><tspan
           id="tspan186"
           y="0"
           x="0 6.6719999 13.344">600</tspan></text>
<path
         id="path190"
         style="fill:#000000;fill-opacity:1;fill-rule:nonzero;stroke:#000000;stroke-width:0.5;stroke-linecap:butt;stroke-linejoin:round;stroke-miterlimit:10;stroke-dasharray:none;stroke-opacity:1"
         d="m 565.05862,40.809375 v 4" /><path
         id="path192"
         style="fill:#000000;fill-opacity:1;fill-rule:nonzero;stroke:#000000;stroke-width:0.5;stroke-linecap:butt;stroke-linejoin:round;stroke-miterlimit:10;stroke-dasharray:none;stroke-opacity:1"
         d="m 565.05862,191.28937 v -4" /><text
         id="text196"
         style="font-variant:normal;font-weight:normal;font-size:12px;font-family:FreeSans;-inkscape-font-specification:FreeSans;writing-mode:lr-tb;fill:#000000;fill-opacity:1;fill-rule:nonzero;stroke:none"
         transform="matrix(1,0,0,-1,555.56644,28.059375)"><tspan
           id="tspan194"
           y="0"
           x="0 6.6719999 13.344">800</tspan></text>
<path
         id="path198"
         style="fill:#000000;fill-opacity:1;fill-rule:nonzero;stroke:#000000;stroke-width:0.5;stroke-linecap:butt;stroke-linejoin:round;stroke-miterlimit:10;stroke-dasharray:none;stroke-opacity:1"
         d="m 615.73312,40.809375 v 4" /><path
         id="path200"
         style="fill:#000000;fill-opacity:1;fill-rule:nonzero;stroke:#000000;stroke-width:0.5;stroke-linecap:butt;stroke-linejoin:round;stroke-miterlimit:10;stroke-dasharray:none;stroke-opacity:1"
         d="m 615.73312,191.28937 v -4" /><text
         id="text204"
         style="font-variant:normal;font-weight:normal;font-size:12px;font-family:FreeSans;-inkscape-font-specification:FreeSans;writing-mode:lr-tb;fill:#000000;fill-opacity:1;fill-rule:nonzero;stroke:none"
         transform="matrix(1,0,0,-1,603.29562,28.059375)"><tspan
           id="tspan202"
           y="0"
           x="0 6.6719999 13.344 20.016001">1000</tspan></text>
<text
         id="text208"
         style="font-variant:normal;font-weight:normal;font-size:14.39999962px;font-family:FreeSans;-inkscape-font-specification:FreeSans;writing-mode:lr-tb;fill:#272727;fill-opacity:1;fill-rule:nonzero;stroke:none"
         transform="matrix(1,0,0,-1,462.51562,10.246875)"><tspan
           id="tspan206"
           y="0"
           x="0 10.0512 13.248 21.0672 28.9872 36.6768 44.409599 52.228802">Diagonal</tspan></text>
<path
         id="path210"
         style="fill:#000000;fill-opacity:1;fill-rule:nonzero;stroke:#000000;stroke-width:0.5;stroke-linecap:butt;stroke-linejoin:round;stroke-miterlimit:10;stroke-dasharray:none;stroke-opacity:1"
         d="m 362.36063,40.809375 h 4" /><path
         id="path212"
         style="fill:#000000;fill-opacity:1;fill-rule:nonzero;stroke:#000000;stroke-width:0.5;stroke-linecap:butt;stroke-linejoin:round;stroke-miterlimit:10;stroke-dasharray:none;stroke-opacity:1"
         d="m 615.73312,40.809375 h -4" /><text
         id="text216"
         style="font-variant:normal;font-weight:normal;font-size:12px;font-family:FreeSans;-inkscape-font-specification:FreeSans;writing-mode:lr-tb;fill:#000000;fill-opacity:1;fill-rule:nonzero;stroke:none"
         transform="matrix(1,0,0,-1,343.12625,37.739063)"><tspan
           id="tspan214"
           y="0"
           x="0 6.6719999 9.6719999">0.0</tspan></text>
<path
         id="path218"
         style="fill:#000000;fill-opacity:1;fill-rule:nonzero;stroke:#000000;stroke-width:0.5;stroke-linecap:butt;stroke-linejoin:round;stroke-miterlimit:10;stroke-dasharray:none;stroke-opacity:1"
         d="m 362.36063,62.306518 h 4" /><path
         id="path220"
         style="fill:#000000;fill-opacity:1;fill-rule:nonzero;stroke:#000000;stroke-width:0.5;stroke-linecap:butt;stroke-linejoin:round;stroke-miterlimit:10;stroke-dasharray:none;stroke-opacity:1"
         d="m 615.73312,62.306518 h -4" /><text
         id="text224"
         style="font-variant:normal;font-weight:normal;font-size:12px;font-family:FreeSans;-inkscape-font-specification:FreeSans;writing-mode:lr-tb;fill:#000000;fill-opacity:1;fill-rule:nonzero;stroke:none"
         transform="matrix(1,0,0,-1,345.0325,59.236205)"><tspan
           id="tspan222"
           y="0"
           x="0 6.6719999 9.6719999">0.1</tspan></text>
<path
         id="path226"
         style="fill:#000000;fill-opacity:1;fill-rule:nonzero;stroke:#000000;stroke-width:0.5;stroke-linecap:butt;stroke-linejoin:round;stroke-miterlimit:10;stroke-dasharray:none;stroke-opacity:1"
         d="m 362.36063,83.803661 h 4" /><path
         id="path228"
         style="fill:#000000;fill-opacity:1;fill-rule:nonzero;stroke:#000000;stroke-width:0.5;stroke-linecap:butt;stroke-linejoin:round;stroke-miterlimit:10;stroke-dasharray:none;stroke-opacity:1"
         d="m 615.73312,83.803661 h -4" /><text
         id="text232"
         style="font-variant:normal;font-weight:normal;font-size:12px;font-family:FreeSans;-inkscape-font-specification:FreeSans;writing-mode:lr-tb;fill:#000000;fill-opacity:1;fill-rule:nonzero;stroke:none"
         transform="matrix(1,0,0,-1,343.06375,80.733348)"><tspan
           id="tspan230"
           y="0"
           x="0 6.6719999 9.6719999">0.2</tspan></text>
<path
         id="path234"
         style="fill:#000000;fill-opacity:1;fill-rule:nonzero;stroke:#000000;stroke-width:0.5;stroke-linecap:butt;stroke-linejoin:round;stroke-miterlimit:10;stroke-dasharray:none;stroke-opacity:1"
         d="m 362.36063,105.3008 h 4" /><path
         id="path236"
         style="fill:#000000;fill-opacity:1;fill-rule:nonzero;stroke:#000000;stroke-width:0.5;stroke-linecap:butt;stroke-linejoin:round;stroke-miterlimit:10;stroke-dasharray:none;stroke-opacity:1"
         d="m 615.73312,105.3008 h -4" /><text
         id="text240"
         style="font-variant:normal;font-weight:normal;font-size:12px;font-family:FreeSans;-inkscape-font-specification:FreeSans;writing-mode:lr-tb;fill:#000000;fill-opacity:1;fill-rule:nonzero;stroke:none"
         transform="matrix(1,0,0,-1,343.12625,102.23049)"><tspan
           id="tspan238"
           y="0"
           x="0 6.6719999 9.6719999">0.3</tspan></text>
<path
         id="path242"
         style="fill:#000000;fill-opacity:1;fill-rule:nonzero;stroke:#000000;stroke-width:0.5;stroke-linecap:butt;stroke-linejoin:round;stroke-miterlimit:10;stroke-dasharray:none;stroke-opacity:1"
         d="m 362.36063,126.79795 h 4" /><path
         id="path244"
         style="fill:#000000;fill-opacity:1;fill-rule:nonzero;stroke:#000000;stroke-width:0.5;stroke-linecap:butt;stroke-linejoin:round;stroke-miterlimit:10;stroke-dasharray:none;stroke-opacity:1"
         d="m 615.73312,126.79795 h -4" /><text
         id="text248"
         style="font-variant:normal;font-weight:normal;font-size:12px;font-family:FreeSans;-inkscape-font-specification:FreeSans;writing-mode:lr-tb;fill:#000000;fill-opacity:1;fill-rule:nonzero;stroke:none"
         transform="matrix(1,0,0,-1,342.97,123.72763)"><tspan
           id="tspan246"
           y="0"
           x="0 6.6719999 9.6719999">0.4</tspan></text>
<path
         id="path250"
         style="fill:#000000;fill-opacity:1;fill-rule:nonzero;stroke:#000000;stroke-width:0.5;stroke-linecap:butt;stroke-linejoin:round;stroke-miterlimit:10;stroke-dasharray:none;stroke-opacity:1"
         d="m 362.36063,148.29509 h 4" /><path
         id="path252"
         style="fill:#000000;fill-opacity:1;fill-rule:nonzero;stroke:#000000;stroke-width:0.5;stroke-linecap:butt;stroke-linejoin:round;stroke-miterlimit:10;stroke-dasharray:none;stroke-opacity:1"
         d="m 615.73312,148.29509 h -4" /><text
         id="text256"
         style="font-variant:normal;font-weight:normal;font-size:12px;font-family:FreeSans;-inkscape-font-specification:FreeSans;writing-mode:lr-tb;fill:#000000;fill-opacity:1;fill-rule:nonzero;stroke:none"
         transform="matrix(1,0,0,-1,343.04812,145.22478)"><tspan
           id="tspan254"
           y="0"
           x="0 6.6719999 9.6719999">0.5</tspan></text>
<path
         id="path258"
         style="fill:#000000;fill-opacity:1;fill-rule:nonzero;stroke:#000000;stroke-width:0.5;stroke-linecap:butt;stroke-linejoin:round;stroke-miterlimit:10;stroke-dasharray:none;stroke-opacity:1"
         d="m 362.36063,169.79223 h 4" /><path
         id="path260"
         style="fill:#000000;fill-opacity:1;fill-rule:nonzero;stroke:#000000;stroke-width:0.5;stroke-linecap:butt;stroke-linejoin:round;stroke-miterlimit:10;stroke-dasharray:none;stroke-opacity:1"
         d="m 615.73312,169.79223 h -4" /><text
         id="text264"
         style="font-variant:normal;font-weight:normal;font-size:12px;font-family:FreeSans;-inkscape-font-specification:FreeSans;writing-mode:lr-tb;fill:#000000;fill-opacity:1;fill-rule:nonzero;stroke:none"
         transform="matrix(1,0,0,-1,343.04812,166.72192)"><tspan
           id="tspan262"
           y="0"
           x="0 6.6719999 9.6719999">0.6</tspan></text>
<text
         id="text268"
         style="font-variant:normal;font-weight:normal;font-size:12px;font-family:FreeSans;-inkscape-font-specification:FreeSans;writing-mode:lr-tb;fill:#000000;fill-opacity:1;fill-rule:nonzero;stroke:none"
         transform="matrix(1,0,0,-1,342.97,188.21906)"><tspan
           id="tspan266"
           y="0"
           x="0 6.6719999 9.6719999">0.7</tspan></text>
<text
         id="text272"
         style="font-variant:normal;font-weight:normal;font-size:14.39999962px;font-family:FreeSans;-inkscape-font-specification:FreeSans;writing-mode:lr-tb;fill:#272727;fill-opacity:1;fill-rule:nonzero;stroke:none"
         transform="matrix(0,1,1,0,334.92312,69.400937)"><tspan
           id="tspan270"
           y="0"
           x="0 10.0512 13.248 21.0672 28.9872 36.6768 44.409599 52.228802 55.310398 58.9104 71.092796 78.767998 86.587196">Diagonal Mean</tspan></text>
</g><g
       id="g274"><g
         clip-path="url(#clipPath280)"
         id="g276"><path
           id="path282"
           style="fill:none;stroke:#0000f0;stroke-width:1;stroke-linecap:round;stroke-linejoin:round;stroke-miterlimit:10;stroke-dasharray:none;stroke-opacity:1"
           d="m 362.36063,151.03826 0.25337,-2.87447 0.25337,2.17439 0.25337,0.9845 0.25337,-1.91555 0.25338,4.96763 0.25337,-7.21537 0.50674,6.6687 0.25338,-3.01167 0.25337,0.89274 0.25337,2.10988 0.25337,-2.7853 0.25338,2.13533 0.25337,-4.39531 0.25337,-1.43449 0.25337,0.35087 0.25338,-1.21884 0.25337,6.3099 0.25337,0.93087 0.50675,-5.20939 0.50674,1.15543 0.25337,1.45953 0.76012,-6.19774 0.25337,-0.70298 0.25338,2.32443 0.25337,5.56342 0.25337,1.88527 0.25337,-7.88392 0.25338,-0.13207 0.25337,0.64356 0.25337,-0.96328 0.50675,1.06244 0.25337,-0.43935 0.25337,-1.47211 0.25337,0.0525 0.25338,-0.86545 0.25337,0.50207 0.25337,-1.09212 0.25337,2.92729 0.25338,-4.14281 0.50674,2.51715 0.50675,-5.88416 0.25337,9.26216 0.25337,-5.71096 0.25337,0.16481 0.25338,-0.62976 0.25337,1.96659 0.25337,-3.10146 0.25338,0.85924 0.25337,0.28415 0.25337,-5.39987 0.76012,5.05533 0.25337,0.30823 0.25337,0.88233 0.25337,-1.82685 0.25338,-4.86517 0.25337,1.91295 0.25337,-4.83939 0.25337,5.23539 0.25338,-1.55424 0.25337,0.33961 0.25337,-0.62559 0.25338,2.04606 0.25337,-4.28275 0.25337,3.14084 0.25337,-3.39938 0.25337,1.45349 0.25338,-1.80447 0.25337,0.91545 0.25337,0.47048 0.25337,1.08425 0.25338,-3.15822 0.25337,1.15307 0.25337,0.29598 0.25337,-1.80982 0.25338,-2.66956 0.25337,-0.21117 0.25337,2.90517 0.25338,-1.50451 0.25337,2.28395 0.25337,0.13786 0.25337,1.00038 0.25338,-2.23141 0.25337,1.60621 0.25337,-4.99066 0.25337,1.8226 0.25338,-5.88658 0.25337,7.57011 0.25337,-4.76976 0.25337,1.99063 0.25337,-1.22758 0.25338,-4.38668 0.50674,6.35979 0.25337,-0.11555 0.25338,-1.45327 0.25337,-2.1513 0.25337,-0.52998 0.25337,0.0561 0.25338,1.51217 0.25337,-2.61407 0.25337,0.0608 0.25337,3.0959 0.25338,-4.56644 0.25337,5.85952 0.50674,-5.16401 0.25338,0.22417 0.25337,1.06815 0.25337,-3.56367 0.25337,-0.23242 0.25338,1.56303 0.25337,-0.79209 0.25337,4.42737 0.25337,-4.46444 0.25338,-1.65808 0.25337,1.98283 0.25337,-1.53568 0.25337,-0.30038 0.25338,1.67767 0.50674,-4.77373 0.25337,1.5513 0.25338,-3.41947 0.25337,2.68607 0.25337,1.17918 0.25338,2.18342 0.50674,-7.29505 0.25337,4.36794 0.25337,-0.44041 0.25338,-2.18525 0.25337,1.28481 0.25337,0.47639 0.25338,-0.21492 0.25337,-2.18471 0.25337,0.41684 0.25337,-1.82343 0.25337,0.38529 0.25338,-1.54278 0.25337,-0.42008 0.25337,-2.15834 0.25337,2.04991 0.25338,-3.14948 0.25337,4.63471 0.25337,-0.87959 0.50675,-4.56873 0.25337,1.12338 0.25337,-2.66359 0.25337,10.28079 0.25338,-7.20144 0.25337,-1.17599 0.25337,2.77321 0.25337,-4.25565 0.25338,4.1247 0.25337,0.11753 0.25337,-2.22054 0.25337,2.48628 0.25338,-0.94543 0.25337,-1.79347 0.25337,-4.92815 0.25337,5.90067 0.25338,-2.70023 0.25337,-1.37066 0.25337,0.98926 0.25337,-2.25459 0.25338,1.5834 0.25337,-1.13757 0.25337,1.94553 0.25337,-3.25647 0.25338,0.31008 0.25337,0.79757 0.25337,-2.67365 0.25337,1.47186 0.50675,-2.93763 0.25337,8.51007 0.50675,-8.84165 0.25337,4.10557 0.25337,-1.31625 0.25337,0.22158 0.25338,-1.16124 0.25337,-3.155791 0.25337,2.522341 0.25337,-1.99513 0.25338,1.07714 0.25337,-0.42824 0.25337,-1.499407 0.25337,1.910257 0.25338,-0.74428 0.25337,-1.540821 0.25337,0.105373 0.25337,-3.072711 0.25338,4.066999 0.25337,-1.099252 0.25337,-0.538702 0.25337,0.03623 0.25338,-1.802435 0.50674,3.721989 0.25337,-1.600588 0.25338,0.591653 0.50674,-2.182472 0.25337,0.757433 0.50675,-0.05453 0.25337,-2.673413 0.25337,2.045376 0.25338,-0.521023 0.25337,-2.80382 0.25337,1.123738 0.25337,-0.769527 0.25338,1.736879 0.25337,-1.697118 0.25337,4.006703 0.25337,-2.947674 0.25338,0.04255 0.25337,-0.898235 0.25337,-2.454637 0.25338,2.051268 0.25337,-1.146973 0.25337,-0.183298 0.25337,2.528529 0.25337,-2.709341 0.25338,1.109737 0.25337,0.408917 0.25337,-3.482393 0.25337,2.28062 0.25338,-0.73933 0.25337,1.366953 0.25337,-4.309462 0.25337,2.889392 0.25338,0.871298 0.25337,-4.404527 0.25337,0.96523 0.25337,5.141799 0.25338,-3.200119 0.25337,-0.737929 0.25337,2.30785 0.25337,-1.636011 0.25338,-0.197329 0.25337,-1.790191 0.25337,-3.578879 0.25337,3.558548 0.25338,0.459488 0.25337,0.869763 0.25337,-0.02759 0.25337,0.692763 0.25338,1.066085 0.25337,-5.776853 0.25337,3.79149 0.25337,-4.907656 0.25338,0.704804 0.50674,2.561561 0.25337,-1.053229 0.25338,1.049223 0.25337,-0.867175 0.25337,-1.843724 0.25337,2.188189 0.25338,-2.216889 0.25337,0.775567 0.25337,-1.516188 0.25337,1.841862 0.25338,-2.604496 0.25337,4.279647 0.25337,-1.326704 0.25338,1.159122 0.25337,-1.511769 0.25337,2.237053 0.25337,0.670642 0.25337,-5.929085 0.25338,1.839995 0.25337,0.013 0.25337,-1.010263 0.25337,0.938066 0.25338,0.412477 0.25337,0.810084 0.25337,-0.19136 0.25337,1.596582 0.50675,-5.341473 0.25337,2.250889 0.25338,0.177236 0.25337,-0.483337 0.25337,-1.93265 0.50674,4.016063 0.25338,-1.63785 0.25337,-2.683495 0.25337,1.928984 0.25338,-0.623368 0.25337,2.066398 0.25337,-1.500555 0.25337,-2.660133 0.50675,4.349648 0.25337,-1.792832 0.25337,0.198329 0.25337,-1.451024 0.25338,0.678977 0.25337,-4.3e-5 0.25337,0.756558 0.25337,-2.148033 0.25338,2.539931 0.25337,-3.198619 0.25337,-1.634144 0.25337,-0.02884 0.25338,4.501072 0.25337,-2.325359 0.25337,-0.274774 0.50675,1.324068 0.25337,-4.8773 0.25337,2.866316 0.25337,0.413104 0.25338,-1.392883 0.25337,0.05612 0.25337,4.096823 0.25337,-4.718167 0.25338,4.804718 0.25337,-5.843843 0.25337,1.395238 0.25337,3.660718 0.25338,-4.504539 0.25337,-1.70938 0.25337,1.359643 0.50675,3.869863 0.25337,-0.74643 0.50674,-3.546073 0.25338,2.682486 0.25337,-2.805033 0.25337,0.827147 0.50675,0.607299 0.25337,-1.61594 0.50675,1.804366 0.25337,-0.119714 0.25337,0.254973 0.50674,-0.475963 0.25338,1.951085 0.50674,-4.60214 0.25337,1.192261 0.25338,-0.689289 0.25337,0.867671 0.25337,-0.814586 0.25337,-0.03529 0.25338,-0.982827 0.25337,2.108613 0.25337,-2.051157 0.25337,1.323971 0.25338,-1.239287 0.25337,0.218115 0.25337,-1.3284 0.25337,2.516044 0.25338,-0.147137 0.25337,-2.4747 0.25337,1.440889 0.25338,-0.834955 0.25337,0.0021 0.25337,1.170389 0.25337,-0.39468 0.25337,-1.53376 0.25338,1.447434 0.25337,-0.662713 0.25337,-1.075789 0.25338,1.403892 0.25337,-0.638588 0.25337,-1.177263 0.25337,-0.0407 0.25337,1.719902 0.25338,-0.6187 0.25337,0.585518 0.50675,-3.330564 0.25337,1.167809 0.25337,2.037707 0.25337,-3.335574 0.25337,2.68103 0.25338,-1.580548 0.25337,1.570683 0.25337,-1.236873 0.25338,-0.656995 0.25337,-0.121514 0.25337,-0.358109 0.25337,1.05809 0.25337,2.502497 0.25338,-3.21143 0.76011,0.890927 0.25338,-2.379368 0.25337,2.150435 0.25337,0.71145 0.25337,-1.689404 0.25338,-0.394223 0.25337,1.402292 0.25337,0.512061 0.25337,0.160627 0.25338,-1.617588 0.25337,-0.392542 0.25337,0.08948 0.25337,0.84716 0.25338,-0.739173 0.25337,1.346284 0.25337,-1.325504 0.25337,0.04534 0.25338,0.593219 0.25337,-0.926366 0.25337,0.444517 0.25337,-0.831635 0.25338,1.144599 0.25337,-3.246948 0.25337,3.846508 0.25337,-3.620393 0.25338,-0.247407 0.25337,2.665708 0.25337,-1.55746 0.25337,0.689694 0.25338,0.365767 0.25337,-1.782308 0.25337,1.098168 0.25338,-0.382263 0.25337,1.86724 0.25337,-3.11189 0.25337,1.505156 0.25337,-2.50456 0.25338,1.823818 0.25337,0.192822 0.25337,-1.085271 0.25337,-0.123446 0.25338,0.219035 0.25337,-0.745352 0.25337,0.769027 0.50675,-1.939385 0.25337,1.439883 0.25337,-0.100585 0.25337,0.617765 0.25338,-2.994726 0.25337,0.854456 0.25337,2.53149 0.25337,-0.841908 0.25338,-1.354316 0.25337,1.794967 0.25337,-0.486206 0.25337,-2.638211 0.25338,1.399344 0.25337,0.573438 0.25337,-1.782615 0.25337,1.901841 0.25338,-1.022508 0.25337,0.968808 0.25337,-0.899623 0.25337,0.7555 0.25338,-0.419581 0.25337,-1.037714 0.25337,-0.0088 0.25337,0.561426 0.25338,-0.861536 0.25337,0.148016 0.25337,1.15024 0.25337,-1.800049 0.50675,0.829612 0.50674,-2.633963 0.25338,1.302282 0.25337,0.01267 0.25337,0.461187 0.25337,-1.284085 0.25338,-0.658463 0.25337,0.326218 0.25337,-0.332583 0.25338,0.211335 0.25337,-1.199486 0.25337,1.916917 0.25337,-2.496247 0.25337,1.492184 0.25338,0.649574 0.25337,0.09535 0.25337,-1.651577 0.50675,0.652876 0.25337,-0.57885 0.25337,-1.652262 0.25337,2.88797 0.25338,-2.526243 0.25337,0.462271 0.25337,-1.025486 0.25337,1.218007 0.25338,-1.238233 0.25337,0.603709 0.25337,-0.793622 0.25337,0.561773 0.25338,-0.591341 0.25337,-0.06338 0.25337,-0.678509 0.25338,0.0572 0.25337,0.338887 0.25337,0.882344 0.50674,-1.513451 0.25338,1.634887 0.25337,-1.560175 0.25337,1.244675 0.25337,-2.063666 0.25338,0.702489 0.25337,-1.014935 0.25337,0.596669 0.25337,-0.670016 0.25338,0.991623 0.25337,-0.770666 0.25337,0.501059 0.25338,0.108671 0.25337,-0.305655 0.25337,0.09876 0.25337,-1.814383 0.25338,1.570717 0.25337,-1.159601 0.25337,0.08511 0.25337,-0.08621 0.25337,-0.544511 0.25338,1.313173 0.50674,-0.287143 0.50675,-1.289418 0.50674,-1.164267 0.25337,0.818771 0.25338,0.354068 0.25337,-0.146914 0.25337,0.202693 0.25337,-0.0049 0.25338,-0.597844 0.50674,-0.323335 0.25337,-0.169713 0.25338,0.273189 0.50674,-0.606495 0.25338,0.189515 0.25337,-0.257467 0.25337,-1.15243 0.25337,0.571411 0.25337,0.09693 0.25338,-0.237404 0.25337,-0.02049 0.25337,-1.414455 0.25337,0.08026 0.25338,1.240871 0.25337,0.127148 0.25337,-0.688013 0.25337,-0.217272 0.25338,-0.392409 0.25337,0.908693 0.25337,-1.167354 0.25337,-0.109779 0.25338,0.239955 0.25337,0.519237 0.25337,-0.573115 0.25337,-1.812804 0.25338,2.031571 0.25337,-0.375645 0.25337,-0.62012 0.25337,0.11452 0.25338,1.150534 0.25337,-2.177053 0.25337,1.019868 0.50675,-0.815537 0.50674,0.278285 0.76012,-1.577694 0.25337,1.404364 0.25337,0.355289 0.25338,-1.647909 0.25337,-0.315246 0.25337,0.414752 0.25337,-0.162338 0.25338,-0.938946 0.25337,0.693291 0.25337,0.252293 0.25337,-0.126138 0.25338,-0.431813 0.25337,0.325899 0.50674,-0.136973 0.25338,-0.09804 0.50674,-0.44542 0.25337,0.16461 0.25338,-0.287538 0.25337,0.188995 0.25337,-0.75691 0.25337,-0.08242 0.25338,1.062676 0.25337,-1.309001 0.25337,-0.228455 0.25337,-0.387896 0.25338,0.405366 0.25337,-0.215168 0.25337,0.943117 0.25337,-0.545572 0.25338,-0.160436 0.25337,0.176174 0.25337,-0.199123 0.25338,-0.436032 0.25337,0.141857 0.50674,-0.947135 0.25337,1.176933 0.50675,-0.299951 0.25337,-0.619056 0.25337,0.420471 0.25338,0.177852 0.25337,-0.202718 0.25337,0.0303 0.25337,-1.089828 0.50675,0.680829 0.25337,0.10553 0.25337,-1.438244 0.25338,0.22429 0.25337,0.746434 0.25337,-0.288726 0.50675,-0.286351 0.25337,0.293723 0.50674,-1.029711 0.50675,0.298483 0.25337,-0.102846 0.25338,-0.582016 0.25337,0.578177 0.25337,-0.200284 0.25337,-0.492564 0.25338,0.02372 0.25337,-0.163897 0.25337,0.1028 0.25337,-0.06562 0.25337,0.142258 0.50675,-0.12533 0.25337,0.611717 0.25338,-0.348037 0.25337,-0.551896 0.25337,0.06304 0.25337,-0.165129 0.25337,0.232534 0.25338,-0.558003 0.25337,-0.03106 0.25337,0.166178 0.25338,-0.136321 0.25337,0.08473 0.25337,-0.207097 0.25337,0.244646 0.25337,-0.05304 0.25338,-0.54148 0.25337,0.02873 0.25337,-0.342409 0.25337,0.49653 0.25338,-0.423662 0.25337,-0.09507 0.25337,0.554203 0.25338,0.185794 0.25337,-0.141119 0.76012,-0.733508 0.25337,0.195946 0.25337,-0.02927 0.25337,-0.258115 0.25338,-0.467854 0.25337,0.682605 0.50674,-0.306932 0.25338,0.01965 0.25337,0.190437 0.25337,-0.373079 0.25337,0.09926 0.25338,-0.05534 0.25337,0.06087 0.50674,-0.514987 0.25338,0.267596 0.25337,0.100502 0.25337,-0.398641 0.50674,0.364163 0.25338,-0.566053 0.25337,0.319897 0.25337,0.562129 0.25338,-0.640891 0.25337,-0.241442 0.76012,0.406249 0.25337,-0.223365 0.25337,0.15615 0.25337,-0.452758 0.25337,0.119121 0.25338,-0.0233 0.25337,0.107424 1.01349,-0.246677 0.25337,0.17838 0.50675,-0.137609 0.25337,-0.231978 0.25337,0.102631 0.25337,-0.215813 0.25338,0.278221 0.50674,-0.386841 0.25337,0.196541 0.25338,-0.233049 0.25337,0.141761 0.25337,-0.192441 0.25337,0.213744 1.77361,-0.205588 0.25337,-0.258584 0.25338,0.01846 0.25337,0.257727 0.25337,-0.242925 0.25337,-0.08105 0.25338,0.08822 0.25337,-0.123777 0.25337,-0.290742 0.25337,0.252987 1.01349,0.01548 0.25338,-0.02905 0.25337,-0.254179 0.25337,0.17366 0.25337,-0.263034 0.25338,0.39892 0.76011,-0.473267 0.25338,0.426515 0.25337,0.05304 0.25337,-0.376033 0.50675,-0.162385 0.25337,0.225963 0.25337,-0.11244 0.25337,0.177693 0.25338,-0.192052 0.50674,0.02582 0.25337,-0.02361 0.50675,-0.197541 0.25337,0.08111 0.25337,-0.404144 0.25338,0.0071 0.25337,0.120589 0.25337,0.268902 0.25337,-0.29095 1.26687,0.01028 0.25337,0.184446 0.25337,-0.353915 0.50675,-0.05894 0.25337,0.360905 0.25337,0.05052 0.25337,-0.360576 0.76012,0.07992 0.25337,-0.169271 0.25338,0.275153 0.50674,-0.264341 0.50675,0.11219 0.25337,-0.138339 1.52024,0.03667 0.25337,-0.174149 0.25337,-0.01213 0.50674,0.132997 0.50675,-0.164857 0.25337,0.116614 0.25337,-0.144208 0.50675,0.01916 0.25337,0.128667 0.25337,-0.206056 1.52024,0.009 0.50675,-0.126527 0.50674,0.188134 0.25337,-0.230713 1.01349,0.08243 0.76012,-0.07925 0.25337,0.06197 0.25338,-0.126512 0.76011,0.09236 0.50675,-0.105035 0.76012,0.07115 0.50674,-0.05027 1.52023,0.06161 0.25338,-0.164817 0.76011,0.07296 0.50675,-0.09841 1.77361,-0.02044 4.05396,-0.122142 1.7736,-0.0073 2.28036,-0.03596 2.02698,-0.01298 1.01349,-0.05069 4.81407,-0.06867 5.32083,-0.03462 1.01349,-0.04955 2.53372,-0.0023 v 0" /></g></g><g
       id="g284"><g
         clip-path="url(#clipPath290)"
         id="g286"><path
           id="path292"
           style="fill:none;stroke:#780078;stroke-width:1;stroke-linecap:round;stroke-linejoin:round;stroke-miterlimit:10;stroke-dasharray:none;stroke-opacity:1"
           d="m 362.36063,141.36252 0.25337,-1.9411 0.25337,-0.68884 0.25337,0.76611 0.25337,4.46877 0.25338,-3.49693 0.50674,-2.81837 0.25337,2.18608 0.25338,-0.10398 0.25337,-0.43206 0.25337,4.29851 0.25337,-5.19481 0.25338,-0.24376 0.25337,3.60416 0.25337,-2.42206 0.25337,-0.22675 0.25338,6.26319 0.25337,-6.70681 0.25337,-0.24734 0.25337,3.24219 0.50675,-5.07597 0.25337,6.29612 0.25337,-0.55586 0.25338,-4.83785 0.25337,-0.91864 0.25337,-1.71331 0.25337,8.83649 0.25338,-4.88243 0.25337,-0.46401 0.25337,0.23415 0.25337,-1.94357 0.25338,-3.66554 0.25337,4.86074 0.50674,3.57059 0.25338,-3.86156 0.25337,0.23929 0.50674,-3.00642 0.50675,5.79888 0.25337,-6.11287 0.25337,0.74856 0.25338,-3.03238 0.25337,6.29567 0.25337,0.56099 0.25337,-3.58844 0.25338,1.63164 0.25337,-0.88674 0.25337,0.66019 0.25337,3.32334 0.25338,-1.58544 0.25337,-0.86384 0.25337,-2.64448 0.25338,2.17206 0.25337,3.61624 0.25337,0.14036 0.25337,-0.92147 0.25337,-6.34974 0.25338,4.24978 0.25337,0.67503 0.25337,-4.65286 0.25337,0.698 0.50675,0.005 0.25337,1.00635 0.25337,4.67082 0.25338,-6.41463 0.25337,5.54266 0.25337,-4.00875 0.25338,1.50537 0.25337,-1.52141 0.25337,0.43579 0.25337,-0.68768 0.25337,4.35637 0.25338,0.0663 0.25337,-1.41674 0.25337,-2.07561 0.25337,3.65997 0.25338,-4.72411 0.25337,0.55232 0.25337,3.66126 0.25337,-1.87704 0.25338,-5.91086 0.25337,7.34071 0.25337,-6.44275 0.25338,2.04004 0.25337,-2.86376 0.50674,7.66328 0.25338,-3.75156 0.25337,-1.84744 0.25337,3.94117 0.25337,2.18315 0.50675,-5.96894 0.25337,1.08171 0.25337,-2.09318 0.25337,0.77782 0.25338,2.9573 0.25337,-0.23949 0.25337,-3.3335 0.25337,2.45894 0.25338,-0.92646 0.25337,0.89205 0.25337,5.13895 0.25337,-2.40648 0.25338,0.57818 0.25337,-8.31948 0.25337,3.25115 0.25337,5.60078 0.25338,-5.74545 0.25337,-2.53892 0.25337,5.06822 0.25337,-2.50753 0.25338,3.32121 0.25337,-2.68164 0.25337,2.02388 0.25337,4.29303 0.50675,-7.74382 0.25337,0.43339 0.25337,-0.18983 0.50675,0.1402 0.25337,3.37847 0.50675,-8.17603 0.25337,9.97592 0.25337,-3.81478 0.25337,4.23921 0.25338,-5.60898 0.25337,0.82328 0.25337,-1.99208 0.25338,2.22608 0.25337,0.28812 0.25337,-2.66381 0.25337,1.81576 0.25337,-3.20832 0.25338,5.66269 0.25337,-1.44911 0.25337,-0.6354 0.25338,-1.07813 0.25337,1.60073 0.25337,-1.92327 0.25337,-2.77784 0.25337,6.33097 0.25338,-0.71118 0.25337,0.9018 0.25337,-6.73611 0.25337,-2.02478 0.25338,6.41749 0.25337,-0.49646 0.25337,-1.22614 0.25337,3.97421 0.25338,-3.43161 0.25337,-7.25324 0.25337,7.87905 0.25337,-2.43395 0.25338,-0.67129 0.25337,1.78034 0.25337,0.65305 0.25337,-5.42137 0.25338,4.6529 0.25337,1.61771 0.25337,-3.39945 0.25337,-0.0401 0.25338,1.52722 0.25337,-4.86375 0.25337,8.36821 0.25337,-4.2296 0.25338,-1.65555 0.25337,0.86183 0.25337,0.31784 0.25337,-3.1003 0.25338,4.0367 0.25337,0.58469 0.50674,-1.82374 0.25338,0.67049 0.25337,-5.20081 0.25337,3.98018 0.25337,-0.52444 0.25338,4.16558 0.25337,1.07124 0.50674,-9.09038 0.25338,6.74022 0.25337,-1.49454 0.25337,-0.48505 0.25337,-2.75404 0.25338,-0.22471 0.25337,0.25596 0.25337,4.25952 0.25337,0.82938 0.25338,-8.22078 0.25337,3.0722 0.50674,-1.36492 0.25338,3.47098 0.25337,-6.78897 0.50674,9.80427 0.25338,-5.86184 0.25337,-0.32021 0.25337,4.00056 0.25337,-0.34888 0.25338,-0.65167 0.25337,-5.10514 0.25337,3.64493 0.50675,-2.13826 0.25337,3.61975 0.25337,-5.06245 0.25337,7.36281 0.50675,-10.23209 0.25337,2.75743 0.25337,-0.46817 0.25338,2.85394 0.25337,0.1971 0.25337,-3.06152 0.25337,0.36765 0.25338,4.80226 0.25337,-5.02059 0.25337,0.15598 0.25337,6.47637 0.25338,-6.46416 0.25337,0.32638 0.25337,-2.96028 0.25338,-0.0571 0.25337,6.10287 0.25337,-4.50841 0.25337,5.12521 0.25337,-4.08663 0.25338,1.99072 0.50674,-1.91714 0.25337,2.58869 0.25338,0.38326 0.25337,-1.9378 0.25337,0.94691 0.50675,-5.98309 0.25337,6.16572 0.25337,-3.14789 0.25337,1.31402 0.25338,-1.14984 0.25337,-3.32141 0.50674,4.28943 0.25338,1.46968 0.25337,-0.67918 0.25337,-6.2598 0.25337,2.78795 0.25338,-0.97002 0.25337,6.54931 0.50674,-8.00317 0.25338,0.76881 0.25337,6.68923 0.25337,-2.83396 0.25337,1.57105 0.25338,-3.65929 0.76011,2.05165 0.25338,-5.40476 0.25337,1.81361 0.25337,-1.54817 0.25337,-0.6867 0.25338,3.1358 0.25337,0.59317 0.25337,-1.24402 0.25337,1.80021 0.25338,-2.06281 0.25337,1.83435 0.25337,-3.47861 0.25338,1.14322 0.50674,-2.87371 0.25337,3.98455 0.50675,-4.80486 0.25337,4.30735 0.25337,0.23547 0.25337,1.38181 0.25338,-3.45912 0.25337,-0.40921 0.25337,1.87173 0.25337,4.68437 0.50675,-7.98396 0.25337,2.85639 0.25338,-0.0726 0.25337,-5.19152 0.25337,3.55814 0.25337,5.65633 0.25337,-3.81147 0.25338,1.08622 0.25337,-4.11537 0.25337,3.00396 0.25338,4.89148 0.76011,-7.01906 0.25337,-0.24086 0.50675,3.80564 0.25337,-0.41292 0.25337,-0.0993 0.50675,-4.28497 0.25337,1.30022 0.25337,5.46084 0.25338,0.32579 0.25337,-5.99077 0.25337,0.24369 0.25337,3.30572 0.25338,-0.35911 0.25337,-3.87402 0.50674,-1.17153 0.25338,1.02472 0.25337,0.14951 0.25337,0.8572 0.25337,-1.09222 0.25338,1.74353 0.76011,-3.62882 0.25338,2.96112 0.25337,-0.32097 0.25337,2.62941 0.25337,-0.17765 0.25338,0.53976 0.25337,-3.92472 0.25337,2.01048 0.25337,-6.96531 0.25338,5.38197 0.25337,-5.86088 0.25337,6.71566 0.25337,-1.29787 0.25338,-2.59752 0.25337,2.18841 0.25337,-1.62975 0.50675,2.87838 0.25337,-6.16321 0.25337,2.78335 0.25338,-1.41037 0.25337,2.32651 0.25337,-2.85406 0.50674,3.13114 0.25338,-3.09743 0.25337,5.21957 0.25337,-5.45117 0.25337,-2.93293 0.25338,4.86415 0.25337,-2.91574 0.25337,2.92836 0.50675,-6.93958 0.25337,2.51504 0.50674,2.02367 0.25338,0.19828 0.25337,6.21234 0.50674,-5.98804 0.25338,3.51172 0.25337,-2.16224 0.25337,-3.24781 0.25338,4.22426 0.50674,-5.66149 0.25337,6.92001 0.25337,-2.84829 0.25338,-5.94493 0.50674,6.62522 0.25338,-1.26905 0.50674,0.81275 0.25337,-1.87541 0.25337,-2.74584 0.25338,1.57444 0.25337,-1.40591 0.25337,1.85396 0.25338,-1.57614 0.25337,-3.33279 0.25337,5.50865 0.25337,1.40993 0.25337,-1.17208 0.25338,-0.32659 0.25337,1.23088 0.25337,-5.96159 0.25338,3.8559 0.25337,1.33757 0.25337,-1.7391 0.25337,-3.64667 0.25337,1.62774 0.25338,0.12697 0.25337,-0.55878 0.25337,0.31208 0.25337,3.919 0.25338,-4.07414 0.25337,-0.52896 0.25337,0.33032 0.25337,0.0587 0.25338,6.72701 0.25337,-6.47933 0.25337,1.48483 0.25337,2.47548 0.25338,-8.81552 0.50674,6.30296 0.50675,-5.35427 0.25337,3.19826 0.25337,-1.16212 0.25337,0.17699 0.25338,1.39357 0.50674,-0.90814 0.25337,0.42465 0.25338,-3.64073 0.25337,4.60128 0.50674,0.43202 0.25338,-2.57576 0.25337,0.64519 0.25337,-1.30308 0.25337,-3.24289 0.25338,5.76405 0.25337,-1.08049 0.50675,1.45415 0.25337,-8.300837 0.25337,1.649867 0.25337,3.14913 0.50675,2.48476 0.25337,-2.90177 0.25337,-0.24158 0.25337,5.04941 0.25338,-4.62966 0.25337,5.62366 0.25337,-6.74217 0.25337,2.6749 0.50675,-1.40598 0.25337,4.60344 0.25337,-5.51418 0.25338,2.64725 0.25337,-0.20119 0.25337,-0.46376 0.25337,0.3251 0.25338,-2.5853 0.25337,-0.0545 0.25337,2.40763 0.25337,-0.97399 0.25338,-2.56574 0.25337,2.5475 0.25337,-2.87665 0.25337,1.49812 0.50675,0.89564 0.25337,-1.91141 0.25337,1.2228 0.25338,-2.800518 0.25337,2.785368 0.25337,-2.431221 0.25337,1.676821 0.50675,-2.907632 0.25337,4.990362 0.25337,-3.45486 0.50675,0.87662 0.25337,2.37314 0.25337,-4.942091 0.25338,0.948233 0.25337,-0.682115 0.25337,-0.127884 0.25337,4.989607 0.50675,-5.43014 0.25337,0.566919 0.50675,2.970541 0.25337,-3.682395 0.25337,1.322419 0.25337,-2.577966 0.25338,4.017402 0.25337,0.42092 0.25337,-3.404948 0.25337,3.934588 0.50675,-7.003325 0.25337,4.29636 0.25337,-4.02459 0.25338,4.526765 0.25337,-1.545393 0.25337,1.857533 0.25337,-3.268639 0.25338,-1.239168 0.25337,2.614328 0.25337,-2.601963 0.25337,3.793057 0.50675,-5.391301 0.50675,2.518736 0.25337,4.54858 0.25337,-3.017021 0.25337,0.07757 0.25337,-4.081921 0.25338,6.656202 0.25337,-0.968861 0.25337,-4.833458 0.25337,3.908733 0.25338,-2.31561 0.25337,3.082722 0.25337,-4.6053 0.25337,-0.204496 0.25338,6.63325 0.25337,-6.264073 0.25337,3.748543 0.25338,-4.303579 0.25337,1.521277 0.25337,-1.860385 0.25337,0.01933 0.25338,2.487284 0.25337,-2.487204 0.50674,-1.18751 0.25337,0.836249 0.25338,2.017098 0.25337,0.791299 0.25337,0.0055 0.50675,-2.135686 0.25337,2.001884 0.25337,-1.552812 0.25337,-0.544721 0.25338,-1.401888 0.25337,0.76995 0.25337,-1.844766 0.25337,4.009994 0.25338,-0.560036 0.25337,-5.304167 0.50674,4.637158 0.25338,-0.241804 0.25337,-0.560532 0.25337,-2.627382 0.25338,-0.219712 0.25337,0.553017 0.25337,-1.731229 0.25337,2.482587 0.25337,-2.352435 0.25338,5.106988 0.25337,-2.370924 0.25337,-3.474969 0.25337,2.709912 0.25338,-3.493488 0.25337,2.24966 0.50674,-3.071097 0.25338,6.220374 0.25337,-3.753144 0.25337,2.037925 0.25337,0.0072 0.50675,-3.443474 0.25337,3.653555 0.76012,-5.605272 0.25337,-1.045175 0.25337,2.294794 0.25338,1.206582 0.76011,-3.585281 0.25338,3.916326 0.25337,-1.322279 0.25337,-0.460225 0.25337,1.80259 0.25338,-3.248735 0.25337,4.368425 0.25337,-2.831911 0.25337,0.09652 0.25338,1.593833 0.25337,-2.261844 0.25337,-1.241211 0.25337,3.065519 0.25338,-1.885894 0.25337,1.328024 0.25337,-1.147015 0.25337,1.706669 0.25338,-0.493712 0.25337,0.42971 0.25337,-2.175432 0.25337,-0.619161 0.25338,1.105652 0.25337,2.17457 0.25337,-2.325466 0.25337,2.454861 0.25338,-1.692127 0.25337,0.638266 0.25337,-2.116331 0.25337,1.087122 0.25338,1.78153 0.50674,-7.357401 0.25337,1.272408 0.25338,6.323794 0.25337,-4.027927 0.25337,3.433043 0.25337,-3.304177 0.25338,1.052646 0.25337,-2.914541 0.25337,2.804309 0.50675,-2.574261 0.25337,4.185031 0.25337,-3.784445 0.50675,2.456076 0.25337,-1.690767 0.50674,-1.576565 0.25338,4.098416 0.25337,-2.733261 0.25337,-0.409738 0.25337,-2.471726 0.50675,6.106636 0.25337,-2.275398 0.50675,1.247968 0.25337,-4.086413 0.25337,0.06408 0.25337,4.192275 0.25338,-0.542809 0.25337,-1.033963 0.25337,-2.080443 0.25337,3.209714 0.25338,-4.366323 0.25337,3.392072 0.25337,0.119233 0.25338,-0.640895 0.25337,1.60783 0.25337,-5.238508 0.25337,-1.660341 0.25338,5.111815 0.25337,-2.56556 0.25337,0.869135 0.25337,-0.575779 0.25337,-0.97054 0.25338,-0.0099 0.25337,1.132127 0.25337,-0.113829 0.50675,-2.955072 0.25337,1.643081 0.25337,-2.959572 0.25337,2.501383 0.25338,4.205169 0.25337,-3.387733 0.25337,1.983995 1.01349,-6.535191 0.25337,2.761421 0.25338,0.548921 0.50674,-3.152824 0.25337,1.656689 0.25338,0.808982 0.25337,-0.215846 0.25337,0.10386 0.25338,-0.932237 0.25337,1.699749 0.25337,-1.769554 0.25337,3.598401 0.25338,-3.376677 0.25337,2.1399 0.25337,-1.559743 0.25337,0.06667 0.25338,-1.960003 0.50674,3.109684 0.25337,-3.582783 0.25338,0.346047 0.25337,-0.996786 0.25337,0.643056 0.25337,1.193158 0.25338,-2.886962 0.25337,1.416897 0.25337,0.246363 0.25337,0.830541 0.25338,2.293742 0.25337,-2.913769 0.25337,1.162701 0.25337,-1.39637 0.25337,-0.164892 0.25338,2.529189 0.25337,-2.282831 0.25337,2.568463 0.25338,-2.968818 0.25337,1.414128 0.25337,-1.518085 0.25337,4.652729 0.50675,-7.323654 0.25337,3.651172 0.25337,-1.514333 0.25337,0.564661 0.25338,-1.988534 0.25337,1.403314 0.25337,0.08886 0.25337,-1.123332 0.25338,4.479486 0.25337,-3.75362 0.25337,0.907191 0.25337,-0.517847 0.25338,-1.908594 0.25337,3.105994 0.25337,-4.179362 0.25337,0.9341 0.25338,-0.671029 0.25337,-1.894751 0.25337,1.091691 0.25337,-0.643848 0.25338,0.267021 0.25337,0.103867 0.25337,0.979579 0.25337,-1.590206 0.25338,-2.87205 0.25337,5.765108 0.25337,-0.887916 0.25337,-0.443185 0.25338,-3.767445 0.25337,2.82621 0.25337,-0.235761 0.25337,3.045266 0.25338,-0.84511 0.25337,-0.310191 0.25337,-1.072433 0.25337,-1.880033 0.25338,2.244846 0.25337,0.643473 0.25337,-5.761999 0.25337,3.45598 0.25338,1.637073 0.50674,-3.067322 0.25337,0.09084 0.50675,3.346264 0.25337,-3.005326 0.25337,4.78198 0.25338,-3.122436 0.25337,0.02801 0.25337,2.241235 0.76012,-4.17807 0.50674,2.475085 0.25338,-5.386644 0.25337,1.91062 0.25337,0.06575 0.25337,-2.075293 0.25338,6.312909 0.25337,-4.201643 0.25337,2.767229 0.25337,-2.252113 0.25338,5.198641 0.50674,-4.257968 0.25337,-0.144452 0.25338,-0.581503 0.25337,2.126081 0.25337,-0.280599 0.25337,-5.319301 0.25338,5.343062 0.25337,-1.825149 0.25337,0.109438 0.25337,-3.201273 0.25338,4.924219 0.25337,-5.977369 0.25337,6.954526 0.25337,-3.568337 0.25338,-1.914868 0.25337,1.605741 0.25337,-1.878447 0.25337,3.672721 0.25338,0.744189 0.25337,-3.556317 0.25337,1.112406 0.25337,-0.519564 0.25338,1.807422 0.25337,-0.41562 0.25337,0.12911 0.25338,-0.70293 0.25337,-3.127427 0.25337,3.153858 0.25337,-1.39919 0.25337,-0.1194 0.25338,-1.371097 0.25337,1.941284 0.50675,-2.177438 0.25337,1.501171 0.25337,-1.530188 0.25337,4.638937 0.25337,-4.904574 0.25338,0.970756 0.25337,0.06097 0.25337,-2.339487 0.25337,4.415532 0.25338,-1.184115 0.25337,-3.143639 0.25337,3.394542 0.25337,-1.50091 0.25338,6.013567 0.25337,-4.829163 0.25337,0.71913 0.25338,-2.88976 0.25337,0.502937 0.25337,2.140385 0.25337,-1.755269 0.25338,0.109263 0.25337,-2.065429 0.25337,2.533126 0.25337,-2.49492 0.25337,1.48893 0.25338,0.297936 0.25337,-1.646104 0.25337,4.647587 0.25337,-3.20188 0.25338,-1.17595 0.25337,5.340312 0.25337,-7.949414 0.25338,7.885985 0.25337,-6.425856 0.25337,3.460398 0.25337,-2.895481 0.25337,-0.67384 0.25338,4.788585 0.25337,-3.144794 0.25337,1.218307 0.25338,2.34141 0.25337,-4.077377 0.25337,4.339956 0.25337,-4.853932 0.25338,3.129142 0.25337,-2.738566 0.25337,3.243788 0.76012,-2.073676 0.25337,-0.871215 0.25337,2.210604 0.25337,1.051028 0.25338,-3.906553 0.50674,1.483631 0.25337,-1.41721 0.25338,2.443205 0.50674,-1.894308 0.25337,-0.408377 0.25338,0.402646 0.25337,-3.474283 0.25337,3.589432 0.25337,-3.868441 0.25338,4.896322 0.25337,-3.851633 0.25337,0.80323 0.25337,-2.999884 0.25338,4.673176 0.25337,0.49159 0.25337,-1.103245 0.25337,1.317066 0.25338,-1.050767 0.25337,-2.104701 0.25337,2.410427 0.25337,-1.163786 0.25338,2.859256 0.25337,-6.511521 0.25337,2.812865 0.25338,-2.292285 0.25337,0.656895 0.25337,2.806195 0.25337,-4.969146 0.25337,3.618797 0.25338,-4.642852 0.25337,3.306411 0.25337,-0.355623 0.50675,1.031978 0.25337,-0.496684 0.25337,0.486607 0.25337,-0.510531 0.25338,-2.698584 0.25337,4.509878 0.25337,-3.757273 0.50675,0.614499 0.50674,1.612718 0.50675,-3.840286 0.25337,1.590035 0.25337,-3.035478 0.25337,3.372412 0.25338,-1.081926 0.25337,0.569912 0.25337,-2.288549 0.25338,2.472472 0.25337,-0.800195 0.25337,-0.426791 0.25337,-1.490961 0.25338,1.519265 0.25337,-0.352918 0.25337,-2.859308 0.25337,3.467351 0.50675,-2.994198 0.25337,2.255759 0.50675,-2.298038 0.25337,0.23873 0.25337,0.472982 0.25337,2.290761 0.25337,-3.25772 0.25338,1.219966 0.25337,0.172612 0.25337,-1.796161 0.25337,2.42712 0.25338,-2.260198 0.25337,-0.840751 0.25337,4.509069 0.25337,-5.600062 0.25338,4.550856 0.50674,-3.885386 0.25338,0.366684 0.25337,-0.308347 0.25337,1.739535 0.25337,-0.949477 0.25337,-2.588255 0.25338,3.137776 0.50674,-4.317832 0.25337,1.053217 0.25338,0.291628 0.50674,2.082101 0.25337,2.076789 0.25338,3.042905 0.25337,-2.046144 0.25337,0.265808 0.25337,3.759276 0.50675,-7.164356 0.25337,11.580901 0.25337,-11.077854 0.25338,2.373141 0.25337,8.751436 0.25337,-22.488633 v 0" /></g></g><g
       id="g294"><g
         clip-path="url(#clipPath300)"
         id="g296"><path
           id="path302"
           style="fill:none;stroke:#f00000;stroke-width:1;stroke-linecap:round;stroke-linejoin:round;stroke-miterlimit:10;stroke-dasharray:none;stroke-opacity:1"
           d="m 362.36063,117.4914 0.25337,-4.11231 0.25337,4.19104 0.25337,0.696 0.25337,1.91998 0.25338,-1.60887 0.25337,-4.73555 0.25337,2.97755 0.25337,-1.32939 0.25338,3.02795 0.25337,-2.68094 0.25337,3.5016 0.25337,-5.73607 0.76012,4.57405 0.50675,-4.47896 0.25337,0.75481 0.25337,2.49184 0.25337,-2.62088 0.50675,3.20946 0.25337,-2.5248 0.25337,0.68078 0.25338,-4.18396 0.25337,3.70813 0.25337,-0.0266 0.25337,-2.06649 0.25338,0.92531 0.25337,3.75839 0.25337,-7.17721 0.25337,8.09418 0.50675,-3.0119 0.25337,1.63025 0.25337,-5.35719 0.25338,-2.62389 0.25337,7.5269 0.25337,-1.5636 0.25337,2.86883 0.25338,-1.06838 0.25337,2.43215 0.25337,-6.71259 0.25337,4.66363 0.25338,-0.1266 0.25337,-4.44811 0.25337,2.09188 0.25337,-1.11196 0.25338,0.15264 0.25337,4.72943 0.25337,-2.02005 0.25337,0.93198 0.25338,-2.33242 0.25337,2.87143 0.25337,-1.99142 0.25338,-3.04865 0.50674,3.79095 0.25337,-3.4929 0.25337,7.35526 0.25338,-4.59931 0.25337,-2.09681 0.25337,1.14277 0.25337,-3.52409 0.25338,2.15907 0.25337,6.65249 0.50674,-8.49978 0.25338,-0.0485 0.25337,5.25978 0.25337,0.0961 0.50675,-5.64218 0.25337,6.23067 0.25337,0.0733 0.25337,-3.01805 0.25338,-0.62419 0.25337,-4.40564 0.25337,1.17011 0.25337,-0.69981 0.25338,3.24276 0.25337,1.2504 0.25337,2.4767 0.25337,-3.36888 0.76012,2.81695 0.25338,-8.11255 0.25337,3.02903 0.25337,4.82887 0.25337,2.03036 0.25338,-5.13992 0.25337,-0.17083 0.25337,0.11789 0.25337,-3.54475 0.25338,4.60452 0.25337,-2.74325 0.25337,0.53131 0.25337,-1.46774 0.25337,1.08779 0.25338,-2.75729 0.25337,5.66324 0.25337,1.21828 0.25337,-5.62523 0.25338,-1.29948 0.25337,5.80577 0.25337,0.46704 0.25337,-2.34277 0.25338,3.08733 0.25337,-6.11496 0.25337,2.41886 0.25337,3.51185 0.25338,-2.95166 0.25337,0.6979 0.50674,-1.5247 0.25338,4.05451 0.25337,-0.18144 0.25337,-4.41658 0.25337,5.28611 0.25338,-4.38466 0.25337,1.67231 0.25337,-2.59021 0.25337,3.84734 0.25338,0.24226 0.25337,-1.11549 0.25337,-2.46724 0.25337,0.60552 0.25338,2.57662 0.25337,-1.28631 0.25337,-2.33993 0.25337,0.17655 0.25338,4.21 0.25337,-2.8834 0.25337,1.61663 0.25338,3.11246 0.25337,-1.6899 0.25337,-4.92102 0.25337,-1.08819 0.25337,5.06673 0.25338,-2.0121 0.25337,-0.39826 0.25337,-0.82232 0.25338,-2.12327 0.25337,0.37783 0.25337,3.60198 0.25337,-1.02506 0.25337,5.23461 0.25338,-6.29766 0.25337,-1.63013 0.25337,3.1131 0.25337,-0.7313 0.25338,1.00068 0.25337,-2.86094 0.25337,-0.10599 0.25337,-2.18477 0.25338,1.77239 0.25337,5.44141 0.25337,-5.73699 0.25337,4.27866 0.25338,-2.30968 0.25337,-0.49861 0.25337,2.77159 0.25337,-1.71631 0.25338,1.09248 0.25337,-4.65077 0.25337,-1.00485 0.25337,5.90111 0.25338,-0.94003 0.25337,4.7121 0.25337,-7.80217 0.25337,-2.45291 0.50675,5.99121 0.50674,2.27203 0.25338,-5.31617 0.25337,-0.30619 0.25337,2.90411 0.50675,-2.56937 0.25337,1.59603 0.25337,0.35365 0.25337,0.90513 0.50675,-3.66445 0.25337,6.07846 0.50675,-4.53671 0.25337,0.0391 0.25337,5.296 0.25337,-7.50617 0.25338,7.14522 0.25337,1.12352 0.50674,-6.56132 0.25338,1.59401 0.25337,-2.14835 0.25337,2.6166 0.25337,-0.32066 0.25338,0.9942 0.25337,-1.51012 0.25337,3.18583 0.25337,0.41843 0.25338,-5.25603 0.50674,4.37896 0.25337,-1.67915 0.25338,1.41945 0.25337,-4.272 0.50674,5.93413 0.25338,-1.93487 0.25337,-3.41717 0.25337,6.43579 0.25337,-4.99954 0.25338,1.93433 0.25337,-4.06633 0.25337,6.14678 0.25337,-6.50745 0.25338,3.09638 0.25337,-1.7063 0.25337,1.95882 0.25337,-4.85641 0.25338,3.01345 0.25337,-1.3349 0.25337,2.10094 0.25337,-0.75846 0.25338,1.29802 0.25337,-1.40008 0.25337,-2.97917 0.25338,3.39896 0.50674,-3.60248 0.25337,2.7024 0.25337,0.4222 0.25338,-1.84767 0.25337,1.45645 0.25337,-3.34232 0.25337,5.13806 0.25338,-2.83521 0.25337,-0.58002 0.25337,4.47276 0.25337,-1.58884 0.25338,0.31873 0.25337,3.84553 0.25337,-4.83358 0.25337,-0.2776 0.25338,-0.88282 0.25337,6.3478 0.25337,-8.83145 0.25337,1.25654 0.25338,3.85737 0.25337,-4.75065 0.25337,6.43862 0.25337,0.2284 0.25338,-5.64829 0.25337,6.75606 0.25337,-4.48478 0.25337,3.02635 0.25338,-1.48129 0.25337,7.3586 0.50674,-9.91374 0.25338,2.71292 0.25337,-0.45417 0.25337,2.26633 0.25337,-0.96963 0.25338,-3.54605 0.25337,0.94364 0.25337,2.73153 0.25337,-0.90513 0.25338,4.9302 0.25337,-4.96901 0.25337,-1.85495 0.50675,-0.56552 0.25337,6.60816 0.25337,-6.86015 0.25338,2.6893 0.25337,-4.16537 0.25337,1.17714 0.25337,4.54429 0.25337,-5.74827 0.25338,-0.40255 0.25337,0.3593 0.25337,1.88631 0.25337,2.74689 0.25338,0.75216 0.25337,-6.48537 0.25337,2.8807 0.50675,-1.79837 0.25337,2.332 0.25337,-0.68784 0.25338,2.71578 0.25337,-2.56039 0.25337,0.5671 0.25337,4.24579 0.25337,-7.34544 0.25338,5.54899 0.25337,-0.85879 0.25337,-1.95289 0.25338,3.59916 0.50674,-3.62127 0.25337,4.2148 0.25337,-5.13631 0.25338,2.63733 0.25337,-1.22696 0.25337,4.58193 0.25337,-4.10937 0.25338,-1.24095 0.25337,1.15831 0.25337,-1.18228 0.25337,6.40447 0.25338,-2.50143 0.25337,-1.03177 0.25337,0.295 0.25337,-3.04409 0.25338,-1.34242 0.50674,6.72377 0.25337,-1.82723 0.25338,-0.73584 0.25337,-6.45871 0.50674,8.04195 0.50675,-1.40037 0.25337,0.7049 0.25337,2.12336 0.25338,-3.82457 0.25337,2.36687 0.25337,-6.75414 0.25337,1.43776 0.25338,3.96607 0.50674,-3.82545 0.25337,-0.83298 0.25338,2.34848 0.50674,-1.87094 0.25337,2.14902 0.25338,-4.21563 0.25337,-1.03617 0.25337,4.59128 0.25337,2.14913 0.25338,-3.68981 0.25337,-0.14329 0.25337,-0.90731 0.25338,3.51218 0.25337,-1.74753 0.25337,3.05441 0.25337,-3.30069 0.25337,-0.80997 0.25338,0.26289 0.25337,-1.41843 0.25337,6.68569 0.25337,-4.74699 0.25338,-1.59695 0.25337,-2.50691 0.50674,10.40075 0.25338,-7.11667 0.25337,1.03534 0.50674,-2.63184 0.25338,2.09948 0.25337,-1.39585 0.25337,1.25083 0.25337,2.26971 0.25338,-2.88649 0.50674,3.42137 0.25338,-4.67476 0.25337,1.9852 0.25337,3.55355 0.25337,-0.87589 0.25337,-1.28247 0.50675,3.9494 0.25337,-2.25823 0.25338,0.59893 0.25337,0.19529 0.25337,0.63676 0.50674,-3.82968 0.25338,3.13953 0.25337,-3.77552 0.25337,5.15517 0.25338,-2.96795 0.25337,-4.73091 0.25337,6.34975 0.25337,-1.80774 0.25337,-5.41063 0.25338,6.52034 0.25337,-5.42284 0.25337,7.17012 0.50675,-3.86234 0.25337,-4.93692 0.25337,7.92834 0.50675,-2.34367 0.25337,4.60141 0.25337,-5.40625 0.25337,-0.63659 0.25338,2.82107 0.25337,-4.73592 0.25337,2.59656 0.25337,-4.51345 0.25338,1.45508 0.25337,3.8342 0.25337,1.36404 0.25337,-1.73229 0.25338,1.23491 0.25337,-5.63837 0.25337,8.31537 0.25337,-4.98534 0.25338,-2.09467 0.25337,-1.05441 0.25337,-3.38674 0.25337,9.69099 0.25338,0.88622 0.25337,-2.58357 0.25337,-0.0702 0.50675,-3.36784 0.25337,2.42463 0.25337,0.7983 0.76012,-4.9331 0.25337,9.10618 0.25337,-1.95219 0.50675,-6.88348 0.25337,5.94494 0.25338,1.82035 0.25337,-3.12063 0.25337,-0.0757 0.25337,-3.76952 0.25337,3.23789 0.25338,0.49198 0.50674,-0.93478 0.25337,4.72985 0.25338,-1.70811 0.25337,-0.55926 0.50674,-4.1943 0.25338,6.71213 0.25337,-7.06525 0.25337,4.50618 0.25337,-3.27663 0.25338,1.45515 0.25337,6.38517 0.25337,-6.20208 0.25337,-1.87358 0.25338,2.47069 0.25337,-0.42044 0.25337,-1.47775 0.25337,1.91722 0.25338,-1.5865 0.50674,3.85227 0.25337,-2.36454 0.25338,-1.25404 0.25337,4.95727 0.25337,-7.83252 0.25337,8.46783 0.25338,-7.69119 0.25337,0.17893 0.25337,7.44811 0.25337,-5.36866 0.25338,3.90289 0.25337,-0.99426 0.25337,-4.99213 0.25337,-0.459 0.25338,4.78429 0.25337,-0.94607 0.25337,-5.44599 0.25337,4.94993 0.25338,-9.69798 0.25337,10.20557 0.25337,-0.66306 0.25337,-0.18056 0.25338,-3.36128 0.25337,1.51559 0.25337,3.29228 0.25338,1.29714 0.25337,-1.5338 0.25337,1.51826 0.50674,-4.31127 0.25338,0.0166 0.25337,-0.13124 0.25337,3.92134 0.25337,0.91994 0.50675,-4.8033 0.25337,5.58611 0.50675,-7.34068 0.25337,-0.99003 0.25337,4.19745 0.50675,3.7553 0.25337,-3.98121 0.25337,5.71829 0.25337,-5.99941 0.25338,2.69941 0.25337,-0.0606 0.25337,-6.90402 0.50675,10.73973 0.25337,-0.52642 0.25337,-0.14876 0.25337,-2.91738 0.25338,0.33593 0.25337,-0.0676 0.25337,4.51172 0.25337,-1.70085 0.25338,-3.22729 0.25337,-5.43905 0.25337,4.17497 0.25337,-2.50062 0.25338,5.33636 0.25337,-4.89682 0.25337,4.83645 0.25338,-2.44392 0.25337,-5.27059 0.25337,8.75055 0.25337,-4.81914 0.25338,-0.72523 0.25337,-0.0121 0.25337,1.00148 0.25337,-1.64667 0.25337,1.43288 0.25338,-0.99529 0.50674,2.51356 0.50675,-2.2399 0.25337,-1.16156 0.25337,-1.9557 0.25337,4.66646 0.50675,-3.01339 0.25337,-4.59027 0.76012,8.73128 0.25337,-2.29163 0.25337,-4.14875 0.25338,1.2593 0.25337,-2.10528 0.25337,4.82348 0.25338,-5.09241 0.25337,9.98929 0.50674,-8.73853 0.25337,3.27833 0.25338,1.43925 0.25337,-3.24883 0.25337,-6.51544 0.25337,7.26795 0.25338,-0.0989 0.25337,2.91379 0.25337,-0.41373 0.25337,-5.39657 0.25338,1.1767 0.25337,5.51005 0.25337,-5.51293 0.25337,4.76797 0.25338,-2.36342 0.25337,-3.6388 0.25337,5.72264 0.25337,-0.70344 0.25338,-9.1364 0.25337,2.84646 0.25337,7.89311 0.25337,-5.63984 0.25338,5.61744 0.25337,-1.24623 0.25337,-4.14968 0.25337,7.42071 0.25338,-10.72706 0.25337,1.11293 0.25337,10.64309 0.25337,-7.18791 0.25338,1.41219 0.25337,-1.9731 0.25337,7.84292 0.25337,-2.32827 0.25338,-5.1432 0.25337,-1.11452 0.25337,0.0184 0.25337,7.95177 0.25338,-4.94515 0.25337,2.61948 0.25337,-4.73028 0.25337,3.22213 0.25338,-0.11357 0.25337,-5.31017 0.25337,6.06457 0.25337,-0.19495 0.50675,-10.5099 0.25337,11.3804 0.25337,-4.18511 0.25338,-1.17949 0.25337,-0.3174 0.25337,2.30974 0.25337,-0.64409 0.50675,-4.72225 0.25337,5.40253 0.25337,2.28638 0.25338,-7.99753 0.25337,4.36938 0.50674,-2.16105 0.25338,1.06612 0.25337,4.3605 0.25337,-5.22095 0.25338,9.69664 0.25337,-6.20705 0.25337,-2.13885 0.50674,-0.73249 0.25338,0.62177 0.25337,-0.3734 0.25337,1.05364 0.25337,4.53991 0.25338,-1.07428 0.25337,-3.20293 0.25337,0.0171 0.25337,-3.29045 0.25338,7.89457 0.25337,-3.6606 0.25337,4.15664 0.25337,-7.74287 0.25338,4.90629 0.25337,-4.51867 0.25337,6.42069 0.25337,-1.60777 0.50675,-5.42114 0.25337,4.589 0.25337,-0.94754 0.25338,6.91625 0.25337,-4.9994 0.25337,1.11062 0.25338,-1.3309 0.25337,-2.7356 0.25337,0.16991 0.25337,-4.0667 0.25338,5.636 0.25337,2.05643 0.25337,-0.0674 0.25337,1.01804 0.25337,-8.48648 0.25338,3.40114 0.25337,-2.10245 0.25337,1.76701 0.25338,3.14365 0.25337,-0.1095 0.25337,0.30776 0.25337,-5.6613 0.25337,-0.16913 0.25338,1.74301 0.25337,-0.35009 0.25337,3.1298 0.25338,-4.25736 0.25337,-0.99662 0.25337,6.31938 0.25337,1.53985 0.25337,-4.21962 0.25338,3.21767 0.25337,-2.017 0.25337,-3.02255 0.25337,0.27898 0.25338,0.92743 0.25337,3.15306 0.50675,2.08367 0.25337,-7.32333 0.25337,4.99527 0.25337,-2.07651 0.25338,0.10422 0.25337,-3.15591 0.25337,3.37215 0.50675,1.87151 0.25337,-0.78117 0.25337,-2.7 0.25337,5.13542 0.25338,-3.21985 0.25337,-5.75949 0.25337,4.48625 0.25337,1.92281 0.25338,3.61999 0.25337,-8.24238 0.25337,6.07424 0.25337,-9.961984 0.50675,10.964144 0.25337,-7.10117 0.25337,-2.07044 0.25337,5.64334 0.25338,-3.37252 0.25337,7.7649 0.25337,-1.73604 0.25338,-7.97107 0.25337,3.09577 0.25337,-3.77996 0.50675,8.15453 0.25337,-7.56409 0.50674,6.91861 0.25337,-4.49955 0.25338,0.28488 0.50674,-6.358838 0.25337,6.520508 0.25338,2.90163 0.50674,-4.88219 0.25337,3.68465 0.25338,-9.303719 0.25337,10.577059 0.25337,-4.53545 0.25337,4.86556 0.25338,-6.49333 0.25337,3.86566 0.25337,0.11661 0.25337,6.62809 0.25338,-10.10908 0.25337,0.55413 0.25337,1.01701 0.25337,-3.429068 0.25338,2.052928 0.25337,-0.30996 0.25337,3.31383 0.25337,-2.64334 0.25338,-6.681941 0.25337,9.959861 0.50674,-14.743445 0.50675,15.381675 0.25337,-6.356234 0.25337,3.823904 0.25338,-3.792167 0.25337,0.430517 0.25337,-1.108024 0.25337,-0.01627 0.25338,-0.882019 0.25337,-4.639388 0.50674,13.162191 0.50675,-7.96767 0.25337,-0.807481 0.25337,8.207931 0.25338,-3.24001 0.25337,-1.54549 0.25337,2.92897 0.25337,-8.260696 0.25338,4.589066 0.50674,3.141 0.25337,-5.242494 0.50675,7.293234 0.25337,-2.40455 0.25337,-4.835421 0.25338,4.757791 0.25337,0.97899 0.50674,-5.030887 0.25338,-2.669771 0.25337,5.294328 0.25337,1.77909 0.50675,-4.786574 0.25337,2.762294 0.25337,4.25795 0.25337,-0.73354 0.50675,-6.55798 0.25337,-0.799291 0.25337,-0.396348 0.25338,7.871519 0.25337,-5.19117 0.25337,5.52193 0.25337,-9.135471 0.25338,3.245757 0.25337,0.323924 0.25337,5.7653 0.25337,-6.455032 0.25338,-1.052969 0.25337,6.744551 0.25337,0.35167 0.25337,-9.520413 0.25338,11.391443 0.25337,-10.170397 0.25337,3.355997 0.25338,-2.074785 0.25337,3.526925 0.25337,-5.180188 0.25337,1.950024 0.25337,8.983324 0.50675,-7.38905 0.25337,-5.201568 0.25338,5.119068 0.25337,-0.593868 0.25337,4.179068 0.25337,-3.57844 0.25337,1.85698 0.25338,-3.615538 0.25337,-6.085312 0.25337,12.03906 0.25337,-5.461438 0.25338,1.004708 0.50674,-0.65466 0.25337,0.93636 0.25338,-5.563573 0.76012,8.774383 0.25337,-10.186645 0.25337,-0.159712 0.25337,6.444035 0.25338,-5.949282 0.25337,1.083564 0.25337,8.22086 0.25337,-8.768428 0.50675,2.853425 0.25337,0.144236 0.25337,-2.3479 0.25337,10.439177 0.50675,-12.688348 0.25337,3.098495 0.25338,6.361393 0.25337,-13.189441 0.50674,13.326761 0.50675,-7.990902 0.25337,5.340784 0.25337,-1.758738 0.25338,-7.248268 0.25337,-2.827232 0.25337,5.681771 0.25337,-0.607101 0.25338,-1.627213 0.25337,-4.296246 0.25337,6.810461 0.25337,-0.891299 0.25337,-7.34699 0.25338,2.175722 0.25337,8.518992 0.25337,-3.081391 0.25337,-5.582513 0.25338,-0.39297 0.25337,9.195206 0.25337,-4.465406 0.25337,1.248346 0.25338,-2.104843 0.25337,-0.421388 0.25337,2.944281 0.25337,-11.739457 0.25338,7.639018 0.25337,3.835051 0.25337,-9.044248 0.25337,4.016022 0.25338,0.284918 0.25337,-2.106914 0.25337,5.229689 0.25337,-5.767601 0.50675,14.287729 0.25337,-6.446867 0.25337,-2.273134 0.25338,-9.986888 0.25337,10.732756 0.25337,0.955712 0.25337,-9.095896 0.25338,10.532792 0.25337,-4.408845 0.25337,-1.734206 0.25338,2.025101 0.25337,-3.474574 0.25337,6.912676 0.25337,-4.199064 0.25337,-0.588392 0.25338,0.437538 0.25337,-5.534043 0.25337,1.713704 0.25337,-0.84156 0.25338,14.389647 0.25337,-15.968598 0.25337,0.527059 0.25337,8.619004 0.25338,-7.962238 0.25337,-0.93898 0.25337,4.550364 0.25337,-8.464583 0.25338,8.818084 0.25337,0.237178 0.25337,-6.285624 0.25337,11.689375 0.25338,-4.949778 0.25337,-12.929696 0.50674,17.455073 0.25338,-2.090118 0.25337,1.743862 0.25337,-2.243198 0.25338,2.169873 0.25337,-13.827107 0.25337,7.540785 0.25337,-1.311248 0.25338,-0.667841 0.25337,9.001636 0.25337,-7.891173 0.25337,8.718112 0.50675,-14.194587 0.25337,16.967364 0.25337,0.642125 0.50675,-21.086434 0.25337,18.698931 0.25337,-1.463258 0.25337,-20.481977 0.25338,17.484806 0.25337,-9.570317 0.25337,7.919992 0.25337,-1.765979 0.25338,-13.302431 0.50674,8.894716 0.25337,-13.467649 0.25338,14.940372 0.25337,3.653008 0.25337,-11.551481 0.25338,1.046349 0.25337,2.691135 0.25337,11.821394 0.25337,-15.94558 0.25337,6.741556 0.25338,-0.06555 0.50674,25.665655 0.25337,-26.276604 0.25338,20.076094 0.25337,-11.516975 0.25337,2.065328 0.25337,6.492937 0.25338,-14.954512 0.25337,13.925683 0.25337,-16.002795 0.25337,-8.909337 0.50675,-6.009672 0.25337,21.915295 0.25337,-30.377223 0.25338,6.94895 0.25337,-18.153704 0.25337,-2.41729 v 0" /></g></g><g
       id="g304"><path
         id="path306"
         style="fill:none;stroke:#cccccc;stroke-width:1;stroke-linecap:butt;stroke-linejoin:round;stroke-miterlimit:10;stroke-dasharray:none;stroke-opacity:1"
         d="M 362.36063,191.28937 H 615.73312" /><path
         id="path308"
         style="fill:none;stroke:#cccccc;stroke-width:1;stroke-linecap:butt;stroke-linejoin:round;stroke-miterlimit:10;stroke-dasharray:none;stroke-opacity:1"
         d="M 615.73312,40.809375 V 191.28937" /><path
         id="path310"
         style="fill:none;stroke:#cccccc;stroke-width:1;stroke-linecap:butt;stroke-linejoin:round;stroke-miterlimit:10;stroke-dasharray:none;stroke-opacity:1"
         d="M 362.36063,40.809375 H 615.73312" /><path
         id="path312"
         style="fill:none;stroke:#cccccc;stroke-width:1;stroke-linecap:butt;stroke-linejoin:round;stroke-miterlimit:10;stroke-dasharray:none;stroke-opacity:1"
         d="M 362.36063,40.809375 V 191.28937" /><text
         id="text316"
         style="font-variant:normal;font-weight:normal;font-size:14px;font-family:FreeSans;-inkscape-font-specification:FreeSans;writing-mode:lr-tb;fill:#000000;fill-opacity:1;fill-rule:nonzero;stroke:none"
         transform="matrix(1,0,0,-1,362.36063,203.65825)"><tspan
           id="tspan314"
           y="0"
           x="0">B</tspan></text>
</g></g></svg>