<?xml version="1.0" encoding="utf-8" standalone="no"?>
<!DOCTYPE svg PUBLIC "-//W3C//DTD SVG 1.1//EN"
  "http://www.w3.org/Graphics/SVG/1.1/DTD/svg11.dtd">
<svg xmlns:xlink="http://www.w3.org/1999/xlink" width="576pt" height="288pt" viewBox="0 0 576 288" xmlns="http://www.w3.org/2000/svg" version="1.1">
 <metadata>
  <rdf:RDF xmlns:dc="http://purl.org/dc/elements/1.1/" xmlns:cc="http://creativecommons.org/ns#" xmlns:rdf="http://www.w3.org/1999/02/22-rdf-syntax-ns#">
   <cc:Work>
    <dc:type rdf:resource="http://purl.org/dc/dcmitype/StillImage"/>
    <dc:date>2022-11-24T08:13:47.376020</dc:date>
    <dc:format>image/svg+xml</dc:format>
    <dc:creator>
     <cc:Agent>
      <dc:title>Matplotlib v3.6.2, https://matplotlib.org/</dc:title>
     </cc:Agent>
    </dc:creator>
   </cc:Work>
  </rdf:RDF>
 </metadata>
 <defs>
  <style type="text/css">*{stroke-linejoin: round; stroke-linecap: butt}</style>
 </defs>
 <g id="figure_1">
  <g id="patch_1">
   <path d="M 0 288 
L 576 288 
L 576 0 
L 0 0 
L 0 288 
z
" style="fill: none"/>
  </g>
  <g id="axes_1">
   <g id="patch_2">
    <path d="M 59.69 243.32875 
L 563.04 243.32875 
L 563.04 12.96 
L 59.69 12.96 
L 59.69 243.32875 
z
" style="fill: none"/>
   </g>
   <g id="matplotlib.axis_1">
    <g id="xtick_1">
     <g id="line2d_1">
      <defs>
       <path id="md11e1a5dc4" d="M 0 0 
L 0 3.5 
" style="stroke: #000000; stroke-width: 0.8"/>
      </defs>
      <g>
       <use xlink:href="#md11e1a5dc4" x="124.126271" y="243.32875" style="stroke: #000000; stroke-width: 0.8"/>
      </g>
     </g>
     <g id="text_1">
      <!-- -0.4% -->
      <g transform="translate(109.857521 258.873125) scale(0.12 -0.12)">
       <defs>
        <path id="SourceSansPro-Regular-2d" d="M 262 1402 
L 262 1805 
L 1734 1805 
L 1734 1402 
L 262 1402 
z
" transform="scale(0.015625)"/>
        <path id="SourceSansPro-Regular-30" d="M 1594 -77 
Q 979 -77 630 476 
Q 282 1030 282 2054 
Q 282 3085 630 3622 
Q 979 4160 1594 4160 
Q 2202 4160 2550 3622 
Q 2899 3085 2899 2054 
Q 2899 1030 2550 476 
Q 2202 -77 1594 -77 
z
M 1594 346 
Q 1952 346 2169 752 
Q 2387 1158 2387 2054 
Q 2387 2950 2169 3344 
Q 1952 3738 1594 3738 
Q 1235 3738 1014 3344 
Q 794 2950 794 2054 
Q 794 1158 1014 752 
Q 1235 346 1594 346 
z
" transform="scale(0.015625)"/>
        <path id="SourceSansPro-Regular-2e" d="M 800 -77 
Q 640 -77 528 35 
Q 416 147 416 320 
Q 416 506 528 618 
Q 640 730 800 730 
Q 954 730 1066 618 
Q 1178 506 1178 320 
Q 1178 147 1066 35 
Q 954 -77 800 -77 
z
" transform="scale(0.015625)"/>
        <path id="SourceSansPro-Regular-34" d="M 666 1549 
L 1946 1549 
L 1946 2733 
Q 1946 2899 1958 3129 
Q 1971 3360 1978 3520 
L 1952 3520 
Q 1875 3373 1792 3232 
Q 1709 3091 1619 2944 
L 666 1549 
z
M 1946 0 
L 1946 1126 
L 109 1126 
L 109 1472 
L 1856 4083 
L 2445 4083 
L 2445 1549 
L 3002 1549 
L 3002 1126 
L 2445 1126 
L 2445 0 
L 1946 0 
z
" transform="scale(0.015625)"/>
        <path id="SourceSansPro-Regular-25" d="M 1178 1651 
Q 749 1651 486 1996 
Q 224 2342 224 2982 
Q 224 3610 486 3955 
Q 749 4301 1178 4301 
Q 1606 4301 1868 3955 
Q 2131 3610 2131 2982 
Q 2131 2342 1868 1996 
Q 1606 1651 1178 1651 
z
M 1178 1978 
Q 1421 1978 1574 2230 
Q 1728 2483 1728 2982 
Q 1728 3482 1574 3728 
Q 1421 3974 1178 3974 
Q 928 3974 774 3728 
Q 621 3482 621 2982 
Q 621 2483 774 2230 
Q 928 1978 1178 1978 
z
M 1299 -77 
L 3616 4275 
L 3974 4275 
L 1658 -77 
L 1299 -77 
z
M 4106 -77 
Q 3677 -77 3414 268 
Q 3152 614 3152 1254 
Q 3152 1882 3414 2227 
Q 3677 2573 4106 2573 
Q 4534 2573 4796 2227 
Q 5059 1882 5059 1254 
Q 5059 614 4796 268 
Q 4534 -77 4106 -77 
z
M 4106 250 
Q 4349 250 4502 502 
Q 4656 755 4656 1254 
Q 4656 1754 4502 2000 
Q 4349 2246 4106 2246 
Q 3856 2246 3702 2000 
Q 3549 1754 3549 1254 
Q 3549 755 3702 502 
Q 3856 250 4106 250 
z
" transform="scale(0.015625)"/>
       </defs>
       <use xlink:href="#SourceSansPro-Regular-2d"/>
       <use xlink:href="#SourceSansPro-Regular-30" x="31.099991"/>
       <use xlink:href="#SourceSansPro-Regular-2e" x="80.799988"/>
       <use xlink:href="#SourceSansPro-Regular-34" x="105.699982"/>
       <use xlink:href="#SourceSansPro-Regular-25" x="155.399979"/>
      </g>
     </g>
    </g>
    <g id="xtick_2">
     <g id="line2d_2">
      <g>
       <use xlink:href="#md11e1a5dc4" x="216.578312" y="243.32875" style="stroke: #000000; stroke-width: 0.8"/>
      </g>
     </g>
     <g id="text_2">
      <!-- -0.2% -->
      <g transform="translate(202.309562 258.873125) scale(0.12 -0.12)">
       <defs>
        <path id="SourceSansPro-Regular-32" d="M 256 0 
L 256 314 
Q 870 928 1299 1392 
Q 1728 1856 1952 2230 
Q 2176 2605 2176 2931 
Q 2176 3283 1984 3507 
Q 1792 3731 1402 3731 
Q 1146 3731 928 3587 
Q 710 3443 531 3238 
L 230 3539 
Q 486 3821 777 3990 
Q 1069 4160 1466 4160 
Q 2035 4160 2361 3830 
Q 2688 3501 2688 2957 
Q 2688 2573 2473 2179 
Q 2259 1786 1884 1354 
Q 1510 922 1024 416 
Q 1190 429 1369 441 
Q 1549 454 1709 454 
L 2893 454 
L 2893 0 
L 256 0 
z
" transform="scale(0.015625)"/>
       </defs>
       <use xlink:href="#SourceSansPro-Regular-2d"/>
       <use xlink:href="#SourceSansPro-Regular-30" x="31.099991"/>
       <use xlink:href="#SourceSansPro-Regular-2e" x="80.799988"/>
       <use xlink:href="#SourceSansPro-Regular-32" x="105.699982"/>
       <use xlink:href="#SourceSansPro-Regular-25" x="155.399979"/>
      </g>
     </g>
    </g>
    <g id="xtick_3">
     <g id="line2d_3">
      <g>
       <use xlink:href="#md11e1a5dc4" x="309.030353" y="243.32875" style="stroke: #000000; stroke-width: 0.8"/>
      </g>
     </g>
     <g id="text_3">
      <!-- 0e+00% -->
      <g transform="translate(289.181603 258.873125) scale(0.12 -0.12)">
       <defs>
        <path id="SourceSansPro-Regular-65" d="M 1786 -77 
Q 1370 -77 1030 118 
Q 691 314 492 678 
Q 294 1043 294 1549 
Q 294 2061 496 2425 
Q 698 2790 1018 2988 
Q 1338 3187 1690 3187 
Q 2285 3187 2608 2790 
Q 2931 2394 2931 1728 
Q 2931 1645 2928 1565 
Q 2925 1485 2912 1427 
L 813 1427 
Q 845 934 1123 640 
Q 1402 346 1850 346 
Q 2074 346 2262 413 
Q 2451 480 2624 589 
L 2810 243 
Q 2611 115 2358 19 
Q 2106 -77 1786 -77 
z
M 806 1805 
L 2470 1805 
Q 2470 2278 2268 2524 
Q 2067 2771 1702 2771 
Q 1376 2771 1117 2518 
Q 858 2266 806 1805 
z
" transform="scale(0.015625)"/>
        <path id="SourceSansPro-Regular-2b" d="M 1382 666 
L 1382 1914 
L 218 1914 
L 218 2310 
L 1382 2310 
L 1382 3558 
L 1798 3558 
L 1798 2310 
L 2963 2310 
L 2963 1914 
L 1798 1914 
L 1798 666 
L 1382 666 
z
" transform="scale(0.015625)"/>
       </defs>
       <use xlink:href="#SourceSansPro-Regular-30"/>
       <use xlink:href="#SourceSansPro-Regular-65" x="49.699997"/>
       <use xlink:href="#SourceSansPro-Regular-2b" x="99.299988"/>
       <use xlink:href="#SourceSansPro-Regular-30" x="148.999985"/>
       <use xlink:href="#SourceSansPro-Regular-30" x="198.699982"/>
       <use xlink:href="#SourceSansPro-Regular-25" x="248.399979"/>
      </g>
     </g>
    </g>
    <g id="xtick_4">
     <g id="line2d_4">
      <g>
       <use xlink:href="#md11e1a5dc4" x="401.482393" y="243.32875" style="stroke: #000000; stroke-width: 0.8"/>
      </g>
     </g>
     <g id="text_4">
      <!-- 0.2% -->
      <g transform="translate(389.079268 258.873125) scale(0.12 -0.12)">
       <use xlink:href="#SourceSansPro-Regular-30"/>
       <use xlink:href="#SourceSansPro-Regular-2e" x="49.699997"/>
       <use xlink:href="#SourceSansPro-Regular-32" x="74.599991"/>
       <use xlink:href="#SourceSansPro-Regular-25" x="124.299988"/>
      </g>
     </g>
    </g>
    <g id="xtick_5">
     <g id="line2d_5">
      <g>
       <use xlink:href="#md11e1a5dc4" x="493.934434" y="243.32875" style="stroke: #000000; stroke-width: 0.8"/>
      </g>
     </g>
     <g id="text_5">
      <!-- 0.4% -->
      <g transform="translate(481.531309 258.873125) scale(0.12 -0.12)">
       <use xlink:href="#SourceSansPro-Regular-30"/>
       <use xlink:href="#SourceSansPro-Regular-2e" x="49.699997"/>
       <use xlink:href="#SourceSansPro-Regular-34" x="74.599991"/>
       <use xlink:href="#SourceSansPro-Regular-25" x="124.299988"/>
      </g>
     </g>
    </g>
    <g id="text_6">
     <!-- change in interest rate (rate = yesterday + x axis) -->
     <g transform="translate(191.419375 274.1175) scale(0.12 -0.12)">
      <defs>
       <path id="SourceSansPro-Regular-63" d="M 1754 -77 
Q 1344 -77 1011 115 
Q 678 307 486 672 
Q 294 1037 294 1549 
Q 294 2074 502 2438 
Q 710 2803 1052 2995 
Q 1395 3187 1792 3187 
Q 2099 3187 2320 3078 
Q 2541 2970 2701 2822 
L 2432 2477 
Q 2298 2598 2147 2675 
Q 1997 2752 1811 2752 
Q 1530 2752 1309 2601 
Q 1088 2451 963 2179 
Q 838 1907 838 1549 
Q 838 1018 1104 688 
Q 1370 358 1798 358 
Q 2016 358 2201 451 
Q 2387 544 2528 672 
L 2758 320 
Q 2547 134 2291 28 
Q 2035 -77 1754 -77 
z
" transform="scale(0.015625)"/>
       <path id="SourceSansPro-Regular-68" d="M 525 0 
L 525 4557 
L 1050 4557 
L 1050 3315 
L 1030 2675 
Q 1254 2886 1500 3036 
Q 1747 3187 2067 3187 
Q 2560 3187 2787 2876 
Q 3014 2566 3014 1971 
L 3014 0 
L 2490 0 
L 2490 1901 
Q 2490 2336 2349 2534 
Q 2208 2733 1901 2733 
Q 1664 2733 1475 2611 
Q 1286 2490 1050 2253 
L 1050 0 
L 525 0 
z
" transform="scale(0.015625)"/>
       <path id="SourceSansPro-Regular-61" d="M 1242 -77 
Q 851 -77 592 156 
Q 333 390 333 806 
Q 333 1318 790 1590 
Q 1248 1862 2240 1971 
Q 2240 2170 2185 2349 
Q 2131 2528 1993 2640 
Q 1856 2752 1600 2752 
Q 1331 2752 1094 2649 
Q 858 2547 672 2419 
L 467 2784 
Q 685 2925 1001 3056 
Q 1318 3187 1690 3187 
Q 2259 3187 2515 2838 
Q 2771 2490 2771 1907 
L 2771 0 
L 2336 0 
L 2291 371 
L 2272 371 
Q 2054 192 1795 57 
Q 1536 -77 1242 -77 
z
M 1395 346 
Q 1619 346 1817 454 
Q 2016 563 2240 762 
L 2240 1626 
Q 1466 1530 1155 1338 
Q 845 1146 845 845 
Q 845 582 1005 464 
Q 1165 346 1395 346 
z
" transform="scale(0.015625)"/>
       <path id="SourceSansPro-Regular-6e" d="M 525 0 
L 525 3110 
L 960 3110 
L 1005 2662 
L 1024 2662 
Q 1248 2886 1497 3036 
Q 1747 3187 2067 3187 
Q 2560 3187 2787 2876 
Q 3014 2566 3014 1971 
L 3014 0 
L 2490 0 
L 2490 1901 
Q 2490 2336 2349 2534 
Q 2208 2733 1901 2733 
Q 1664 2733 1475 2611 
Q 1286 2490 1050 2253 
L 1050 0 
L 525 0 
z
" transform="scale(0.015625)"/>
       <path id="SourceSansPro-Regular-67" d="M 1574 -1434 
Q 1005 -1434 646 -1216 
Q 288 -998 288 -595 
Q 288 -397 409 -214 
Q 531 -32 742 109 
L 742 134 
Q 627 205 547 333 
Q 467 461 467 640 
Q 467 838 576 985 
Q 685 1133 806 1216 
L 806 1242 
Q 653 1370 528 1587 
Q 403 1805 403 2080 
Q 403 2419 563 2668 
Q 723 2918 992 3052 
Q 1261 3187 1574 3187 
Q 1702 3187 1817 3164 
Q 1933 3142 2016 3110 
L 3098 3110 
L 3098 2707 
L 2458 2707 
Q 2566 2605 2640 2435 
Q 2714 2266 2714 2067 
Q 2714 1734 2560 1491 
Q 2406 1248 2150 1117 
Q 1894 986 1574 986 
Q 1325 986 1107 1094 
Q 1024 1024 966 937 
Q 909 851 909 723 
Q 909 576 1027 480 
Q 1146 384 1459 384 
L 2061 384 
Q 2605 384 2877 208 
Q 3149 32 3149 -358 
Q 3149 -646 2957 -889 
Q 2765 -1133 2413 -1283 
Q 2061 -1434 1574 -1434 
z
M 1574 1338 
Q 1843 1338 2038 1539 
Q 2234 1741 2234 2080 
Q 2234 2419 2042 2611 
Q 1850 2803 1574 2803 
Q 1299 2803 1107 2611 
Q 915 2419 915 2080 
Q 915 1741 1110 1539 
Q 1306 1338 1574 1338 
z
M 1651 -1069 
Q 2099 -1069 2368 -873 
Q 2637 -678 2637 -435 
Q 2637 -218 2473 -134 
Q 2310 -51 2010 -51 
L 1472 -51 
Q 1382 -51 1276 -38 
Q 1171 -26 1069 0 
Q 902 -122 825 -256 
Q 749 -390 749 -525 
Q 749 -774 989 -921 
Q 1229 -1069 1651 -1069 
z
" transform="scale(0.015625)"/>
       <path id="SourceSansPro-Regular-20" transform="scale(0.015625)"/>
       <path id="SourceSansPro-Regular-69" d="M 525 0 
L 525 3110 
L 1050 3110 
L 1050 0 
L 525 0 
z
M 792 3750 
Q 638 3750 539 3843 
Q 440 3936 440 4096 
Q 440 4250 539 4346 
Q 638 4442 792 4442 
Q 946 4442 1045 4346 
Q 1144 4250 1144 4096 
Q 1144 3936 1045 3843 
Q 946 3750 792 3750 
z
" transform="scale(0.015625)"/>
       <path id="SourceSansPro-Regular-74" d="M 1504 -77 
Q 1005 -77 809 211 
Q 614 499 614 960 
L 614 2682 
L 154 2682 
L 154 3078 
L 640 3110 
L 704 3981 
L 1146 3981 
L 1146 3110 
L 1984 3110 
L 1984 2682 
L 1146 2682 
L 1146 954 
Q 1146 666 1251 509 
Q 1357 352 1626 352 
Q 1709 352 1805 381 
Q 1901 410 1978 435 
L 2080 38 
Q 1952 -6 1801 -41 
Q 1651 -77 1504 -77 
z
" transform="scale(0.015625)"/>
       <path id="SourceSansPro-Regular-72" d="M 525 0 
L 525 3110 
L 960 3110 
L 1005 2547 
L 1024 2547 
Q 1184 2842 1414 3014 
Q 1645 3187 1907 3187 
Q 2093 3187 2240 3123 
L 2138 2662 
Q 2061 2688 1997 2701 
Q 1933 2714 1837 2714 
Q 1638 2714 1424 2554 
Q 1210 2394 1050 1997 
L 1050 0 
L 525 0 
z
" transform="scale(0.015625)"/>
       <path id="SourceSansPro-Regular-73" d="M 1338 -77 
Q 1005 -77 704 48 
Q 403 173 179 352 
L 442 704 
Q 646 544 864 438 
Q 1082 333 1357 333 
Q 1664 333 1817 477 
Q 1971 621 1971 819 
Q 1971 979 1865 1088 
Q 1760 1197 1597 1270 
Q 1434 1344 1261 1408 
Q 1043 1491 832 1596 
Q 621 1702 486 1872 
Q 352 2042 352 2304 
Q 352 2682 637 2934 
Q 922 3187 1427 3187 
Q 1715 3187 1964 3084 
Q 2214 2982 2394 2835 
L 2138 2502 
Q 1978 2624 1805 2701 
Q 1632 2778 1427 2778 
Q 1133 2778 995 2643 
Q 858 2509 858 2330 
Q 858 2182 954 2089 
Q 1050 1997 1203 1929 
Q 1357 1862 1530 1792 
Q 1754 1709 1971 1603 
Q 2189 1498 2333 1322 
Q 2477 1146 2477 851 
Q 2477 602 2345 390 
Q 2214 179 1961 51 
Q 1709 -77 1338 -77 
z
" transform="scale(0.015625)"/>
       <path id="SourceSansPro-Regular-28" d="M 1370 -1126 
Q 973 -480 749 227 
Q 525 934 525 1779 
Q 525 2624 749 3334 
Q 973 4045 1370 4685 
L 1696 4531 
Q 1325 3923 1142 3216 
Q 960 2509 960 1779 
Q 960 1050 1142 342 
Q 1325 -365 1696 -973 
L 1370 -1126 
z
" transform="scale(0.015625)"/>
       <path id="SourceSansPro-Regular-3d" d="M 218 2618 
L 218 3014 
L 2963 3014 
L 2963 2618 
L 218 2618 
z
M 218 1210 
L 218 1606 
L 2963 1606 
L 2963 1210 
L 218 1210 
z
" transform="scale(0.015625)"/>
       <path id="SourceSansPro-Regular-79" d="M 576 -1338 
Q 474 -1338 381 -1318 
Q 288 -1299 211 -1274 
L 314 -858 
Q 365 -870 429 -886 
Q 493 -902 550 -902 
Q 813 -902 985 -713 
Q 1158 -525 1254 -237 
L 1325 -6 
L 77 3110 
L 621 3110 
L 1254 1389 
Q 1325 1190 1405 960 
Q 1485 730 1555 512 
L 1581 512 
Q 1651 723 1715 953 
Q 1779 1184 1843 1389 
L 2400 3110 
L 2912 3110 
L 1741 -256 
Q 1632 -563 1481 -806 
Q 1331 -1050 1110 -1194 
Q 890 -1338 576 -1338 
z
" transform="scale(0.015625)"/>
       <path id="SourceSansPro-Regular-64" d="M 1587 -77 
Q 1005 -77 653 348 
Q 301 774 301 1549 
Q 301 2054 489 2422 
Q 678 2790 988 2988 
Q 1299 3187 1651 3187 
Q 1920 3187 2118 3091 
Q 2317 2995 2522 2829 
L 2496 3360 
L 2496 4557 
L 3027 4557 
L 3027 0 
L 2592 0 
L 2547 365 
L 2528 365 
Q 2349 186 2105 54 
Q 1862 -77 1587 -77 
z
M 1702 365 
Q 2112 365 2496 794 
L 2496 2419 
Q 2298 2598 2115 2672 
Q 1933 2746 1741 2746 
Q 1491 2746 1289 2595 
Q 1088 2445 966 2179 
Q 845 1914 845 1555 
Q 845 998 1069 681 
Q 1293 365 1702 365 
z
" transform="scale(0.015625)"/>
       <path id="SourceSansPro-Regular-78" d="M 90 0 
L 1107 1626 
L 166 3110 
L 736 3110 
L 1152 2426 
Q 1222 2304 1299 2169 
Q 1376 2035 1459 1907 
L 1485 1907 
Q 1555 2035 1625 2169 
Q 1696 2304 1766 2426 
L 2144 3110 
L 2694 3110 
L 1754 1568 
L 2765 0 
L 2195 0 
L 1741 723 
Q 1658 864 1574 1005 
Q 1491 1146 1402 1280 
L 1376 1280 
Q 1293 1146 1216 1008 
Q 1139 870 1062 723 
L 640 0 
L 90 0 
z
" transform="scale(0.015625)"/>
       <path id="SourceSansPro-Regular-29" d="M 570 -1126 
L 243 -973 
Q 614 -365 796 342 
Q 979 1050 979 1779 
Q 979 2509 796 3216 
Q 614 3923 243 4531 
L 570 4685 
Q 966 4045 1190 3334 
Q 1414 2624 1414 1779 
Q 1414 934 1190 227 
Q 966 -480 570 -1126 
z
" transform="scale(0.015625)"/>
      </defs>
      <use xlink:href="#SourceSansPro-Regular-63"/>
      <use xlink:href="#SourceSansPro-Regular-68" x="45.599991"/>
      <use xlink:href="#SourceSansPro-Regular-61" x="99.999985"/>
      <use xlink:href="#SourceSansPro-Regular-6e" x="150.399979"/>
      <use xlink:href="#SourceSansPro-Regular-67" x="205.099976"/>
      <use xlink:href="#SourceSansPro-Regular-65" x="255.499969"/>
      <use xlink:href="#SourceSansPro-Regular-20" x="305.09996"/>
      <use xlink:href="#SourceSansPro-Regular-69" x="325.099945"/>
      <use xlink:href="#SourceSansPro-Regular-6e" x="349.699936"/>
      <use xlink:href="#SourceSansPro-Regular-20" x="404.399933"/>
      <use xlink:href="#SourceSansPro-Regular-69" x="424.399918"/>
      <use xlink:href="#SourceSansPro-Regular-6e" x="448.999908"/>
      <use xlink:href="#SourceSansPro-Regular-74" x="503.699905"/>
      <use xlink:href="#SourceSansPro-Regular-65" x="537.499893"/>
      <use xlink:href="#SourceSansPro-Regular-72" x="587.099884"/>
      <use xlink:href="#SourceSansPro-Regular-65" x="621.799881"/>
      <use xlink:href="#SourceSansPro-Regular-73" x="671.399872"/>
      <use xlink:href="#SourceSansPro-Regular-74" x="713.299866"/>
      <use xlink:href="#SourceSansPro-Regular-20" x="747.099854"/>
      <use xlink:href="#SourceSansPro-Regular-72" x="767.099838"/>
      <use xlink:href="#SourceSansPro-Regular-61" x="801.799835"/>
      <use xlink:href="#SourceSansPro-Regular-74" x="852.199829"/>
      <use xlink:href="#SourceSansPro-Regular-65" x="885.999817"/>
      <use xlink:href="#SourceSansPro-Regular-20" x="935.599808"/>
      <use xlink:href="#SourceSansPro-Regular-28" x="955.599792"/>
      <use xlink:href="#SourceSansPro-Regular-72" x="985.89978"/>
      <use xlink:href="#SourceSansPro-Regular-61" x="1020.599777"/>
      <use xlink:href="#SourceSansPro-Regular-74" x="1070.999771"/>
      <use xlink:href="#SourceSansPro-Regular-65" x="1104.799759"/>
      <use xlink:href="#SourceSansPro-Regular-20" x="1154.39975"/>
      <use xlink:href="#SourceSansPro-Regular-3d" x="1174.399734"/>
      <use xlink:href="#SourceSansPro-Regular-20" x="1224.099731"/>
      <use xlink:href="#SourceSansPro-Regular-79" x="1244.099716"/>
      <use xlink:href="#SourceSansPro-Regular-65" x="1290.799713"/>
      <use xlink:href="#SourceSansPro-Regular-73" x="1340.399704"/>
      <use xlink:href="#SourceSansPro-Regular-74" x="1382.299698"/>
      <use xlink:href="#SourceSansPro-Regular-65" x="1416.099686"/>
      <use xlink:href="#SourceSansPro-Regular-72" x="1465.699677"/>
      <use xlink:href="#SourceSansPro-Regular-64" x="1500.399673"/>
      <use xlink:href="#SourceSansPro-Regular-61" x="1555.899658"/>
      <use xlink:href="#SourceSansPro-Regular-79" x="1606.299652"/>
      <use xlink:href="#SourceSansPro-Regular-20" x="1652.999649"/>
      <use xlink:href="#SourceSansPro-Regular-2b" x="1672.999634"/>
      <use xlink:href="#SourceSansPro-Regular-20" x="1722.699631"/>
      <use xlink:href="#SourceSansPro-Regular-78" x="1742.699615"/>
      <use xlink:href="#SourceSansPro-Regular-20" x="1787.299606"/>
      <use xlink:href="#SourceSansPro-Regular-61" x="1807.299591"/>
      <use xlink:href="#SourceSansPro-Regular-78" x="1857.699585"/>
      <use xlink:href="#SourceSansPro-Regular-69" x="1902.299576"/>
      <use xlink:href="#SourceSansPro-Regular-73" x="1926.899567"/>
      <use xlink:href="#SourceSansPro-Regular-29" x="1968.799561"/>
     </g>
    </g>
   </g>
   <g id="matplotlib.axis_2">
    <g id="ytick_1">
     <g id="line2d_6">
      <path d="M 59.69 216.208647 
L 563.04 216.208647 
" clip-path="url(#p114abab0f7)" style="fill: none; stroke: #000000; stroke-opacity: 0.05; stroke-width: 0.8; stroke-linecap: square"/>
     </g>
     <g id="line2d_7">
      <defs>
       <path id="m518d4baf8f" d="M 0 0 
L -3.5 0 
" style="stroke: #000000; stroke-width: 0.8"/>
      </defs>
      <g>
       <use xlink:href="#m518d4baf8f" x="59.69" y="216.208647" style="stroke: #000000; stroke-width: 0.8"/>
      </g>
     </g>
     <g id="text_7">
      <!-- -10% -->
      <g transform="translate(27.14125 220.480834) scale(0.12 -0.12)">
       <defs>
        <path id="SourceSansPro-Regular-31" d="M 506 0 
L 506 435 
L 1440 435 
L 1440 3443 
L 698 3443 
L 698 3782 
Q 979 3834 1187 3907 
Q 1395 3981 1562 4083 
L 1965 4083 
L 1965 435 
L 2810 435 
L 2810 0 
L 506 0 
z
" transform="scale(0.015625)"/>
       </defs>
       <use xlink:href="#SourceSansPro-Regular-2d"/>
       <use xlink:href="#SourceSansPro-Regular-31" x="31.099991"/>
       <use xlink:href="#SourceSansPro-Regular-30" x="80.799988"/>
       <use xlink:href="#SourceSansPro-Regular-25" x="130.499985"/>
      </g>
     </g>
    </g>
    <g id="ytick_2">
     <g id="line2d_8">
      <path d="M 59.69 175.392713 
L 563.04 175.392713 
" clip-path="url(#p114abab0f7)" style="fill: none; stroke: #000000; stroke-opacity: 0.05; stroke-width: 0.8; stroke-linecap: square"/>
     </g>
     <g id="line2d_9">
      <g>
       <use xlink:href="#m518d4baf8f" x="59.69" y="175.392713" style="stroke: #000000; stroke-width: 0.8"/>
      </g>
     </g>
     <g id="text_8">
      <!-- -5% -->
      <g transform="translate(33.105625 179.664901) scale(0.12 -0.12)">
       <defs>
        <path id="SourceSansPro-Regular-35" d="M 1498 -77 
Q 1011 -77 691 96 
Q 371 269 160 480 
L 416 826 
Q 602 646 845 502 
Q 1088 358 1446 358 
Q 1824 358 2083 611 
Q 2342 864 2342 1293 
Q 2342 1715 2105 1952 
Q 1869 2189 1472 2189 
Q 1261 2189 1110 2125 
Q 960 2061 774 1939 
L 493 2118 
L 627 4083 
L 2669 4083 
L 2669 3629 
L 1088 3629 
L 979 2419 
Q 1126 2496 1273 2541 
Q 1421 2586 1606 2586 
Q 1958 2586 2243 2448 
Q 2528 2310 2701 2028 
Q 2874 1747 2874 1306 
Q 2874 864 2678 553 
Q 2483 243 2169 83 
Q 1856 -77 1498 -77 
z
" transform="scale(0.015625)"/>
       </defs>
       <use xlink:href="#SourceSansPro-Regular-2d"/>
       <use xlink:href="#SourceSansPro-Regular-35" x="31.099991"/>
       <use xlink:href="#SourceSansPro-Regular-25" x="80.799988"/>
      </g>
     </g>
    </g>
    <g id="ytick_3">
     <g id="line2d_10">
      <path d="M 59.69 134.57678 
L 563.04 134.57678 
" clip-path="url(#p114abab0f7)" style="fill: none; stroke: #000000; stroke-opacity: 0.05; stroke-width: 0.8; stroke-linecap: square"/>
     </g>
     <g id="line2d_11">
      <g>
       <use xlink:href="#m518d4baf8f" x="59.69" y="134.57678" style="stroke: #000000; stroke-width: 0.8"/>
      </g>
     </g>
     <g id="text_9">
      <!-- 0% -->
      <g transform="translate(36.836875 138.848968) scale(0.12 -0.12)">
       <use xlink:href="#SourceSansPro-Regular-30"/>
       <use xlink:href="#SourceSansPro-Regular-25" x="49.699997"/>
      </g>
     </g>
    </g>
    <g id="ytick_4">
     <g id="line2d_12">
      <path d="M 59.69 93.760847 
L 563.04 93.760847 
" clip-path="url(#p114abab0f7)" style="fill: none; stroke: #000000; stroke-opacity: 0.05; stroke-width: 0.8; stroke-linecap: square"/>
     </g>
     <g id="line2d_13">
      <g>
       <use xlink:href="#m518d4baf8f" x="59.69" y="93.760847" style="stroke: #000000; stroke-width: 0.8"/>
      </g>
     </g>
     <g id="text_10">
      <!-- 5% -->
      <g transform="translate(36.836875 98.033035) scale(0.12 -0.12)">
       <use xlink:href="#SourceSansPro-Regular-35"/>
       <use xlink:href="#SourceSansPro-Regular-25" x="49.699997"/>
      </g>
     </g>
    </g>
    <g id="ytick_5">
     <g id="line2d_14">
      <path d="M 59.69 52.944914 
L 563.04 52.944914 
" clip-path="url(#p114abab0f7)" style="fill: none; stroke: #000000; stroke-opacity: 0.05; stroke-width: 0.8; stroke-linecap: square"/>
     </g>
     <g id="line2d_15">
      <g>
       <use xlink:href="#m518d4baf8f" x="59.69" y="52.944914" style="stroke: #000000; stroke-width: 0.8"/>
      </g>
     </g>
     <g id="text_11">
      <!-- 10% -->
      <g transform="translate(30.8725 57.217101) scale(0.12 -0.12)">
       <use xlink:href="#SourceSansPro-Regular-31"/>
       <use xlink:href="#SourceSansPro-Regular-30" x="49.699997"/>
       <use xlink:href="#SourceSansPro-Regular-25" x="99.399994"/>
      </g>
     </g>
    </g>
    <g id="text_12">
     <!-- estimated return -->
     <g transform="translate(20.68125 170.384375) rotate(-90) scale(0.12 -0.12)">
      <defs>
       <path id="SourceSansPro-Regular-6d" d="M 525 0 
L 525 3110 
L 960 3110 
L 1005 2662 
L 1024 2662 
Q 1229 2886 1472 3036 
Q 1715 3187 1990 3187 
Q 2349 3187 2550 3030 
Q 2752 2874 2848 2592 
Q 3091 2854 3340 3020 
Q 3590 3187 3872 3187 
Q 4352 3187 4585 2876 
Q 4819 2566 4819 1971 
L 4819 0 
L 4294 0 
L 4294 1901 
Q 4294 2336 4153 2534 
Q 4013 2733 3718 2733 
Q 3373 2733 2938 2253 
L 2938 0 
L 2413 0 
L 2413 1901 
Q 2413 2336 2272 2534 
Q 2131 2733 1830 2733 
Q 1485 2733 1050 2253 
L 1050 0 
L 525 0 
z
" transform="scale(0.015625)"/>
       <path id="SourceSansPro-Regular-75" d="M 1434 -77 
Q 941 -77 710 233 
Q 480 544 480 1139 
L 480 3110 
L 1011 3110 
L 1011 1210 
Q 1011 774 1148 576 
Q 1286 378 1594 378 
Q 1837 378 2025 502 
Q 2214 627 2432 902 
L 2432 3110 
L 2957 3110 
L 2957 0 
L 2522 0 
L 2477 486 
L 2458 486 
Q 2240 230 1997 76 
Q 1754 -77 1434 -77 
z
" transform="scale(0.015625)"/>
      </defs>
      <use xlink:href="#SourceSansPro-Regular-65"/>
      <use xlink:href="#SourceSansPro-Regular-73" x="49.599991"/>
      <use xlink:href="#SourceSansPro-Regular-74" x="91.499985"/>
      <use xlink:href="#SourceSansPro-Regular-69" x="125.299973"/>
      <use xlink:href="#SourceSansPro-Regular-6d" x="149.899963"/>
      <use xlink:href="#SourceSansPro-Regular-61" x="232.799957"/>
      <use xlink:href="#SourceSansPro-Regular-74" x="283.199951"/>
      <use xlink:href="#SourceSansPro-Regular-65" x="316.999939"/>
      <use xlink:href="#SourceSansPro-Regular-64" x="366.59993"/>
      <use xlink:href="#SourceSansPro-Regular-20" x="422.099915"/>
      <use xlink:href="#SourceSansPro-Regular-72" x="442.099899"/>
      <use xlink:href="#SourceSansPro-Regular-65" x="476.799896"/>
      <use xlink:href="#SourceSansPro-Regular-74" x="526.399887"/>
      <use xlink:href="#SourceSansPro-Regular-75" x="560.199875"/>
      <use xlink:href="#SourceSansPro-Regular-72" x="614.599869"/>
      <use xlink:href="#SourceSansPro-Regular-6e" x="649.299866"/>
     </g>
    </g>
   </g>
   <g id="line2d_16">
    <path d="M 82.569545 23.431307 
L 87.23884 25.88517 
L 91.908135 28.331849 
L 96.57743 30.771365 
L 101.246725 33.203741 
L 105.91602 35.628998 
L 110.585315 38.047158 
L 115.25461 40.458242 
L 119.923905 42.862273 
L 124.5932 45.259271 
L 129.262495 47.649258 
L 133.93179 50.032255 
L 138.601085 52.408283 
L 143.27038 54.777364 
L 147.939675 57.139519 
L 152.60897 59.494769 
L 157.278265 61.843135 
L 161.94756 64.184637 
L 166.616855 66.519298 
L 171.28615 68.847136 
L 175.955445 71.168174 
L 180.62474 73.482432 
L 185.294035 75.78993 
L 189.96333 78.09069 
L 194.632625 80.384731 
L 199.30192 82.672074 
L 203.971215 84.952739 
L 208.64051 87.226747 
L 213.309805 89.494118 
L 217.9791 91.754871 
L 222.648395 94.009028 
L 227.31769 96.256608 
L 231.986985 98.497631 
L 236.65628 100.732117 
L 241.325575 102.960086 
L 245.99487 105.181558 
L 250.664165 107.396552 
L 255.33346 109.605089 
L 260.002755 111.807187 
L 264.67205 114.002866 
L 269.341345 116.192146 
L 274.01064 118.375046 
L 278.679935 120.551585 
L 283.34923 122.721784 
L 288.018525 124.88566 
L 292.68782 127.043234 
L 297.357115 129.194524 
L 302.02641 131.33955 
L 306.695705 133.47833 
L 311.365 135.610883 
L 316.034295 137.737229 
L 320.70359 139.857385 
L 325.372885 141.971372 
L 330.04218 144.079207 
L 334.711475 146.180909 
L 339.38077 148.276498 
L 344.050065 150.36599 
L 348.71936 152.449406 
L 353.388655 154.526762 
L 358.05795 156.598079 
L 362.727245 158.663373 
L 367.39654 160.722663 
L 372.065835 162.775968 
L 376.73513 164.823305 
L 381.404425 166.864693 
L 386.07372 168.90015 
L 390.743015 170.929693 
L 395.41231 172.953341 
L 400.081605 174.971111 
L 404.7509 176.983021 
L 409.420195 178.989089 
L 414.08949 180.989333 
L 418.758785 182.983769 
L 423.42808 184.972417 
L 428.097375 186.955293 
L 432.76667 188.932415 
L 437.435965 190.9038 
L 442.10526 192.869466 
L 446.774555 194.829429 
L 451.44385 196.783708 
L 456.113145 198.732319 
L 460.78244 200.675279 
L 465.451735 202.612607 
L 470.12103 204.544317 
L 474.790325 206.470429 
L 479.45962 208.390958 
L 484.128915 210.305921 
L 488.79821 212.215336 
L 493.467505 214.119218 
L 498.1368 216.017586 
L 502.806095 217.910455 
L 507.47539 219.797842 
L 512.144685 221.679764 
L 516.81398 223.556237 
L 521.483275 225.427277 
L 526.15257 227.292902 
L 530.821865 229.153127 
L 535.49116 231.007968 
L 540.160455 232.857443 
" clip-path="url(#p114abab0f7)" style="fill: none; stroke: #1f77b4; stroke-width: 1.5; stroke-linecap: square"/>
   </g>
   <g id="line2d_17">
    <path d="M 82.569545 69.013636 
L 87.23884 70.438092 
L 91.908135 71.859219 
L 96.57743 73.277028 
L 101.246725 74.691525 
L 105.91602 76.102721 
L 110.585315 77.510625 
L 115.25461 78.915244 
L 119.923905 80.316588 
L 124.5932 81.714665 
L 129.262495 83.109484 
L 133.93179 84.501054 
L 138.601085 85.889384 
L 143.27038 87.274482 
L 147.939675 88.656357 
L 152.60897 90.035017 
L 157.278265 91.410471 
L 161.94756 92.782728 
L 166.616855 94.151796 
L 171.28615 95.517683 
L 175.955445 96.880398 
L 180.62474 98.23995 
L 185.294035 99.596347 
L 189.96333 100.949597 
L 194.632625 102.299709 
L 199.30192 103.64669 
L 203.971215 104.990551 
L 208.64051 106.331297 
L 213.309805 107.668939 
L 217.9791 109.003484 
L 222.648395 110.334941 
L 227.31769 111.663317 
L 231.986985 112.988622 
L 236.65628 114.310862 
L 241.325575 115.630046 
L 245.99487 116.946183 
L 250.664165 118.25928 
L 255.33346 119.569346 
L 260.002755 120.876388 
L 264.67205 122.180415 
L 269.341345 123.481434 
L 274.01064 124.779454 
L 278.679935 126.074482 
L 283.34923 127.366527 
L 288.018525 128.655597 
L 292.68782 129.941698 
L 297.357115 131.22484 
L 302.02641 132.505029 
L 306.695705 133.782275 
L 311.365 135.056584 
L 316.034295 136.327964 
L 320.70359 137.596424 
L 325.372885 138.86197 
L 330.04218 140.124612 
L 334.711475 141.384355 
L 339.38077 142.641208 
L 344.050065 143.895179 
L 348.71936 145.146276 
L 353.388655 146.394505 
L 358.05795 147.639874 
L 362.727245 148.882392 
L 367.39654 150.122065 
L 372.065835 151.358901 
L 376.73513 152.592907 
L 381.404425 153.824092 
L 386.07372 155.052462 
L 390.743015 156.278025 
L 395.41231 157.500789 
L 400.081605 158.72076 
L 404.7509 159.937946 
L 409.420195 161.152355 
L 414.08949 162.363993 
L 418.758785 163.572869 
L 423.42808 164.778989 
L 428.097375 165.98236 
L 432.76667 167.182991 
L 437.435965 168.380887 
L 442.10526 169.576057 
L 446.774555 170.768507 
L 451.44385 171.958246 
L 456.113145 173.145278 
L 460.78244 174.329613 
L 465.451735 175.511257 
L 470.12103 176.690217 
L 474.790325 177.8665 
L 479.45962 179.040113 
L 484.128915 180.211064 
L 488.79821 181.379359 
L 493.467505 182.545005 
L 498.1368 183.708009 
L 502.806095 184.868379 
L 507.47539 186.02612 
L 512.144685 187.181241 
L 516.81398 188.333747 
L 521.483275 189.483646 
L 526.15257 190.630945 
L 530.821865 191.77565 
L 535.49116 192.917769 
L 540.160455 194.057307 
" clip-path="url(#p114abab0f7)" style="fill: none; stroke: #ff7f0e; stroke-width: 1.5; stroke-linecap: square"/>
   </g>
   <g id="patch_3">
    <path d="M 59.69 243.32875 
L 563.04 243.32875 
" style="fill: none; stroke: #000000; stroke-width: 0.8; stroke-linejoin: miter; stroke-linecap: square"/>
   </g>
   <g id="legend_1">
    <g id="patch_4">
     <path d="M 428.085 57.02625 
L 554.64 57.02625 
Q 557.04 57.02625 557.04 54.62625 
L 557.04 21.36 
Q 557.04 18.96 554.64 18.96 
L 428.085 18.96 
Q 425.685 18.96 425.685 21.36 
L 425.685 54.62625 
Q 425.685 57.02625 428.085 57.02625 
L 428.085 57.02625 
z
" style="fill: none; opacity: 0"/>
    </g>
    <g id="line2d_18">
     <path d="M 430.485 28.104375 
L 442.485 28.104375 
L 454.485 28.104375 
" style="fill: none; stroke: #1f77b4; stroke-width: 1.5; stroke-linecap: square"/>
    </g>
    <g id="text_13">
     <!-- starting rate = 1% -->
     <g transform="translate(464.085 32.304375) scale(0.12 -0.12)">
      <use xlink:href="#SourceSansPro-Regular-73"/>
      <use xlink:href="#SourceSansPro-Regular-74" x="41.899994"/>
      <use xlink:href="#SourceSansPro-Regular-61" x="75.699982"/>
      <use xlink:href="#SourceSansPro-Regular-72" x="126.099976"/>
      <use xlink:href="#SourceSansPro-Regular-74" x="160.799973"/>
      <use xlink:href="#SourceSansPro-Regular-69" x="194.59996"/>
      <use xlink:href="#SourceSansPro-Regular-6e" x="219.199951"/>
      <use xlink:href="#SourceSansPro-Regular-67" x="273.899948"/>
      <use xlink:href="#SourceSansPro-Regular-20" x="324.299942"/>
      <use xlink:href="#SourceSansPro-Regular-72" x="344.299927"/>
      <use xlink:href="#SourceSansPro-Regular-61" x="378.999924"/>
      <use xlink:href="#SourceSansPro-Regular-74" x="429.399918"/>
      <use xlink:href="#SourceSansPro-Regular-65" x="463.199905"/>
      <use xlink:href="#SourceSansPro-Regular-20" x="512.799896"/>
      <use xlink:href="#SourceSansPro-Regular-3d" x="532.799881"/>
      <use xlink:href="#SourceSansPro-Regular-20" x="582.499878"/>
      <use xlink:href="#SourceSansPro-Regular-31" x="602.499863"/>
      <use xlink:href="#SourceSansPro-Regular-25" x="652.19986"/>
     </g>
    </g>
    <g id="line2d_19">
     <path d="M 430.485 45.3375 
L 442.485 45.3375 
L 454.485 45.3375 
" style="fill: none; stroke: #ff7f0e; stroke-width: 1.5; stroke-linecap: square"/>
    </g>
    <g id="text_14">
     <!-- starting rate = 5% -->
     <g transform="translate(464.085 49.5375) scale(0.12 -0.12)">
      <use xlink:href="#SourceSansPro-Regular-73"/>
      <use xlink:href="#SourceSansPro-Regular-74" x="41.899994"/>
      <use xlink:href="#SourceSansPro-Regular-61" x="75.699982"/>
      <use xlink:href="#SourceSansPro-Regular-72" x="126.099976"/>
      <use xlink:href="#SourceSansPro-Regular-74" x="160.799973"/>
      <use xlink:href="#SourceSansPro-Regular-69" x="194.59996"/>
      <use xlink:href="#SourceSansPro-Regular-6e" x="219.199951"/>
      <use xlink:href="#SourceSansPro-Regular-67" x="273.899948"/>
      <use xlink:href="#SourceSansPro-Regular-20" x="324.299942"/>
      <use xlink:href="#SourceSansPro-Regular-72" x="344.299927"/>
      <use xlink:href="#SourceSansPro-Regular-61" x="378.999924"/>
      <use xlink:href="#SourceSansPro-Regular-74" x="429.399918"/>
      <use xlink:href="#SourceSansPro-Regular-65" x="463.199905"/>
      <use xlink:href="#SourceSansPro-Regular-20" x="512.799896"/>
      <use xlink:href="#SourceSansPro-Regular-3d" x="532.799881"/>
      <use xlink:href="#SourceSansPro-Regular-20" x="582.499878"/>
      <use xlink:href="#SourceSansPro-Regular-35" x="602.499863"/>
      <use xlink:href="#SourceSansPro-Regular-25" x="652.19986"/>
     </g>
    </g>
   </g>
  </g>
 </g>
 <defs>
  <clipPath id="p114abab0f7">
   <rect x="59.69" y="12.96" width="503.35" height="230.36875"/>
  </clipPath>
 </defs>
</svg>
