<?xml version="1.0" encoding="utf-8" standalone="no"?>
<!DOCTYPE svg PUBLIC "-//W3C//DTD SVG 1.1//EN"
  "http://www.w3.org/Graphics/SVG/1.1/DTD/svg11.dtd">
<!-- Created with matplotlib (https://matplotlib.org/) -->
<svg height="353.285pt" version="1.1" viewBox="0 0 712.6125 353.285" width="712.6125pt" xmlns="http://www.w3.org/2000/svg" xmlns:xlink="http://www.w3.org/1999/xlink">
 <defs>
  <style type="text/css">
*{stroke-linecap:butt;stroke-linejoin:round;}
  </style>
 </defs>
 <g id="figure_1">
  <g id="patch_1">
   <path d="M -0 353.285 
L 712.6125 353.285 
L 712.6125 0 
L -0 0 
z
" style="fill:none;"/>
  </g>
  <g id="axes_1">
   <g id="patch_2">
    <path d="M 49.7625 323.6 
L 705.4125 323.6 
L 705.4125 7.2 
L 49.7625 7.2 
z
" style="fill:none;"/>
   </g>
   <g id="matplotlib.axis_1">
    <g id="xtick_1">
     <g id="line2d_1">
      <defs>
       <path d="M 0 0 
L 0 3.5 
" id="ma304e3a593" style="stroke:#003559;stroke-width:0.8;"/>
      </defs>
      <g>
       <use style="fill:#003559;stroke:#003559;stroke-width:0.8;" x="79.564773" xlink:href="#ma304e3a593" y="323.6"/>
      </g>
     </g>
     <g id="text_1">
      <!-- 2010 -->
      <defs>
       <path d="M 19.1875 8.296875 
L 53.609375 8.296875 
L 53.609375 0 
L 7.328125 0 
L 7.328125 8.296875 
Q 12.9375 14.109375 22.625 23.890625 
Q 32.328125 33.6875 34.8125 36.53125 
Q 39.546875 41.84375 41.421875 45.53125 
Q 43.3125 49.21875 43.3125 52.78125 
Q 43.3125 58.59375 39.234375 62.25 
Q 35.15625 65.921875 28.609375 65.921875 
Q 23.96875 65.921875 18.8125 64.3125 
Q 13.671875 62.703125 7.8125 59.421875 
L 7.8125 69.390625 
Q 13.765625 71.78125 18.9375 73 
Q 24.125 74.21875 28.421875 74.21875 
Q 39.75 74.21875 46.484375 68.546875 
Q 53.21875 62.890625 53.21875 53.421875 
Q 53.21875 48.921875 51.53125 44.890625 
Q 49.859375 40.875 45.40625 35.40625 
Q 44.1875 33.984375 37.640625 27.21875 
Q 31.109375 20.453125 19.1875 8.296875 
z
" id="DejaVuSans-50"/>
       <path d="M 31.78125 66.40625 
Q 24.171875 66.40625 20.328125 58.90625 
Q 16.5 51.421875 16.5 36.375 
Q 16.5 21.390625 20.328125 13.890625 
Q 24.171875 6.390625 31.78125 6.390625 
Q 39.453125 6.390625 43.28125 13.890625 
Q 47.125 21.390625 47.125 36.375 
Q 47.125 51.421875 43.28125 58.90625 
Q 39.453125 66.40625 31.78125 66.40625 
z
M 31.78125 74.21875 
Q 44.046875 74.21875 50.515625 64.515625 
Q 56.984375 54.828125 56.984375 36.375 
Q 56.984375 17.96875 50.515625 8.265625 
Q 44.046875 -1.421875 31.78125 -1.421875 
Q 19.53125 -1.421875 13.0625 8.265625 
Q 6.59375 17.96875 6.59375 36.375 
Q 6.59375 54.828125 13.0625 64.515625 
Q 19.53125 74.21875 31.78125 74.21875 
z
" id="DejaVuSans-48"/>
       <path d="M 12.40625 8.296875 
L 28.515625 8.296875 
L 28.515625 63.921875 
L 10.984375 60.40625 
L 10.984375 69.390625 
L 28.421875 72.90625 
L 38.28125 72.90625 
L 38.28125 8.296875 
L 54.390625 8.296875 
L 54.390625 0 
L 12.40625 0 
z
" id="DejaVuSans-49"/>
      </defs>
      <g style="fill:#2f2235;" transform="translate(59.204773 342.7575)scale(0.16 -0.16)">
       <use xlink:href="#DejaVuSans-50"/>
       <use x="63.623047" xlink:href="#DejaVuSans-48"/>
       <use x="127.246094" xlink:href="#DejaVuSans-49"/>
       <use x="190.869141" xlink:href="#DejaVuSans-48"/>
      </g>
     </g>
    </g>
    <g id="xtick_2">
     <g id="line2d_2">
      <g>
       <use style="fill:#003559;stroke:#003559;stroke-width:0.8;" x="176.176536" xlink:href="#ma304e3a593" y="323.6"/>
      </g>
     </g>
     <g id="text_2">
      <!-- Mar -->
      <defs>
       <path d="M 9.8125 72.90625 
L 24.515625 72.90625 
L 43.109375 23.296875 
L 61.8125 72.90625 
L 76.515625 72.90625 
L 76.515625 0 
L 66.890625 0 
L 66.890625 64.015625 
L 48.09375 14.015625 
L 38.1875 14.015625 
L 19.390625 64.015625 
L 19.390625 0 
L 9.8125 0 
z
" id="DejaVuSans-77"/>
       <path d="M 34.28125 27.484375 
Q 23.390625 27.484375 19.1875 25 
Q 14.984375 22.515625 14.984375 16.5 
Q 14.984375 11.71875 18.140625 8.90625 
Q 21.296875 6.109375 26.703125 6.109375 
Q 34.1875 6.109375 38.703125 11.40625 
Q 43.21875 16.703125 43.21875 25.484375 
L 43.21875 27.484375 
z
M 52.203125 31.203125 
L 52.203125 0 
L 43.21875 0 
L 43.21875 8.296875 
Q 40.140625 3.328125 35.546875 0.953125 
Q 30.953125 -1.421875 24.3125 -1.421875 
Q 15.921875 -1.421875 10.953125 3.296875 
Q 6 8.015625 6 15.921875 
Q 6 25.140625 12.171875 29.828125 
Q 18.359375 34.515625 30.609375 34.515625 
L 43.21875 34.515625 
L 43.21875 35.40625 
Q 43.21875 41.609375 39.140625 45 
Q 35.0625 48.390625 27.6875 48.390625 
Q 23 48.390625 18.546875 47.265625 
Q 14.109375 46.140625 10.015625 43.890625 
L 10.015625 52.203125 
Q 14.9375 54.109375 19.578125 55.046875 
Q 24.21875 56 28.609375 56 
Q 40.484375 56 46.34375 49.84375 
Q 52.203125 43.703125 52.203125 31.203125 
z
" id="DejaVuSans-97"/>
       <path d="M 41.109375 46.296875 
Q 39.59375 47.171875 37.8125 47.578125 
Q 36.03125 48 33.890625 48 
Q 26.265625 48 22.1875 43.046875 
Q 18.109375 38.09375 18.109375 28.8125 
L 18.109375 0 
L 9.078125 0 
L 9.078125 54.6875 
L 18.109375 54.6875 
L 18.109375 46.1875 
Q 20.953125 51.171875 25.484375 53.578125 
Q 30.03125 56 36.53125 56 
Q 37.453125 56 38.578125 55.875 
Q 39.703125 55.765625 41.0625 55.515625 
z
" id="DejaVuSans-114"/>
      </defs>
      <g style="fill:#2f2235;" transform="translate(161.082786 342.7575)scale(0.16 -0.16)">
       <use xlink:href="#DejaVuSans-77"/>
       <use x="86.279297" xlink:href="#DejaVuSans-97"/>
       <use x="147.558594" xlink:href="#DejaVuSans-114"/>
      </g>
     </g>
    </g>
    <g id="xtick_3">
     <g id="line2d_3">
      <g>
       <use style="fill:#003559;stroke:#003559;stroke-width:0.8;" x="276.063274" xlink:href="#ma304e3a593" y="323.6"/>
      </g>
     </g>
     <g id="text_3">
      <!-- May -->
      <defs>
       <path d="M 32.171875 -5.078125 
Q 28.375 -14.84375 24.75 -17.8125 
Q 21.140625 -20.796875 15.09375 -20.796875 
L 7.90625 -20.796875 
L 7.90625 -13.28125 
L 13.1875 -13.28125 
Q 16.890625 -13.28125 18.9375 -11.515625 
Q 21 -9.765625 23.484375 -3.21875 
L 25.09375 0.875 
L 2.984375 54.6875 
L 12.5 54.6875 
L 29.59375 11.921875 
L 46.6875 54.6875 
L 56.203125 54.6875 
z
" id="DejaVuSans-121"/>
      </defs>
      <g style="fill:#2f2235;" transform="translate(259.523274 342.7575)scale(0.16 -0.16)">
       <use xlink:href="#DejaVuSans-77"/>
       <use x="86.279297" xlink:href="#DejaVuSans-97"/>
       <use x="147.558594" xlink:href="#DejaVuSans-121"/>
      </g>
     </g>
    </g>
    <g id="xtick_4">
     <g id="line2d_4">
      <g>
       <use style="fill:#003559;stroke:#003559;stroke-width:0.8;" x="375.950012" xlink:href="#ma304e3a593" y="323.6"/>
      </g>
     </g>
     <g id="text_4">
      <!-- Jul -->
      <defs>
       <path d="M 9.8125 72.90625 
L 19.671875 72.90625 
L 19.671875 5.078125 
Q 19.671875 -8.109375 14.671875 -14.0625 
Q 9.671875 -20.015625 -1.421875 -20.015625 
L -5.171875 -20.015625 
L -5.171875 -11.71875 
L -2.09375 -11.71875 
Q 4.4375 -11.71875 7.125 -8.046875 
Q 9.8125 -4.390625 9.8125 5.078125 
z
" id="DejaVuSans-74"/>
       <path d="M 8.5 21.578125 
L 8.5 54.6875 
L 17.484375 54.6875 
L 17.484375 21.921875 
Q 17.484375 14.15625 20.5 10.265625 
Q 23.53125 6.390625 29.59375 6.390625 
Q 36.859375 6.390625 41.078125 11.03125 
Q 45.3125 15.671875 45.3125 23.6875 
L 45.3125 54.6875 
L 54.296875 54.6875 
L 54.296875 0 
L 45.3125 0 
L 45.3125 8.40625 
Q 42.046875 3.421875 37.71875 1 
Q 33.40625 -1.421875 27.6875 -1.421875 
Q 18.265625 -1.421875 13.375 4.4375 
Q 8.5 10.296875 8.5 21.578125 
z
M 31.109375 56 
z
" id="DejaVuSans-117"/>
       <path d="M 9.421875 75.984375 
L 18.40625 75.984375 
L 18.40625 0 
L 9.421875 0 
z
" id="DejaVuSans-108"/>
      </defs>
      <g style="fill:#2f2235;" transform="translate(366.297512 342.7575)scale(0.16 -0.16)">
       <use xlink:href="#DejaVuSans-74"/>
       <use x="29.492188" xlink:href="#DejaVuSans-117"/>
       <use x="92.871094" xlink:href="#DejaVuSans-108"/>
      </g>
     </g>
    </g>
    <g id="xtick_5">
     <g id="line2d_5">
      <g>
       <use style="fill:#003559;stroke:#003559;stroke-width:0.8;" x="477.474238" xlink:href="#ma304e3a593" y="323.6"/>
      </g>
     </g>
     <g id="text_5">
      <!-- Sep -->
      <defs>
       <path d="M 53.515625 70.515625 
L 53.515625 60.890625 
Q 47.90625 63.578125 42.921875 64.890625 
Q 37.9375 66.21875 33.296875 66.21875 
Q 25.25 66.21875 20.875 63.09375 
Q 16.5 59.96875 16.5 54.203125 
Q 16.5 49.359375 19.40625 46.890625 
Q 22.3125 44.4375 30.421875 42.921875 
L 36.375 41.703125 
Q 47.40625 39.59375 52.65625 34.296875 
Q 57.90625 29 57.90625 20.125 
Q 57.90625 9.515625 50.796875 4.046875 
Q 43.703125 -1.421875 29.984375 -1.421875 
Q 24.8125 -1.421875 18.96875 -0.25 
Q 13.140625 0.921875 6.890625 3.21875 
L 6.890625 13.375 
Q 12.890625 10.015625 18.65625 8.296875 
Q 24.421875 6.59375 29.984375 6.59375 
Q 38.421875 6.59375 43.015625 9.90625 
Q 47.609375 13.234375 47.609375 19.390625 
Q 47.609375 24.75 44.3125 27.78125 
Q 41.015625 30.8125 33.5 32.328125 
L 27.484375 33.5 
Q 16.453125 35.6875 11.515625 40.375 
Q 6.59375 45.0625 6.59375 53.421875 
Q 6.59375 63.09375 13.40625 68.65625 
Q 20.21875 74.21875 32.171875 74.21875 
Q 37.3125 74.21875 42.625 73.28125 
Q 47.953125 72.359375 53.515625 70.515625 
z
" id="DejaVuSans-83"/>
       <path d="M 56.203125 29.59375 
L 56.203125 25.203125 
L 14.890625 25.203125 
Q 15.484375 15.921875 20.484375 11.0625 
Q 25.484375 6.203125 34.421875 6.203125 
Q 39.59375 6.203125 44.453125 7.46875 
Q 49.3125 8.734375 54.109375 11.28125 
L 54.109375 2.78125 
Q 49.265625 0.734375 44.1875 -0.34375 
Q 39.109375 -1.421875 33.890625 -1.421875 
Q 20.796875 -1.421875 13.15625 6.1875 
Q 5.515625 13.8125 5.515625 26.8125 
Q 5.515625 40.234375 12.765625 48.109375 
Q 20.015625 56 32.328125 56 
Q 43.359375 56 49.78125 48.890625 
Q 56.203125 41.796875 56.203125 29.59375 
z
M 47.21875 32.234375 
Q 47.125 39.59375 43.09375 43.984375 
Q 39.0625 48.390625 32.421875 48.390625 
Q 24.90625 48.390625 20.390625 44.140625 
Q 15.875 39.890625 15.1875 32.171875 
z
" id="DejaVuSans-101"/>
       <path d="M 18.109375 8.203125 
L 18.109375 -20.796875 
L 9.078125 -20.796875 
L 9.078125 54.6875 
L 18.109375 54.6875 
L 18.109375 46.390625 
Q 20.953125 51.265625 25.265625 53.625 
Q 29.59375 56 35.59375 56 
Q 45.5625 56 51.78125 48.09375 
Q 58.015625 40.1875 58.015625 27.296875 
Q 58.015625 14.40625 51.78125 6.484375 
Q 45.5625 -1.421875 35.59375 -1.421875 
Q 29.59375 -1.421875 25.265625 0.953125 
Q 20.953125 3.328125 18.109375 8.203125 
z
M 48.6875 27.296875 
Q 48.6875 37.203125 44.609375 42.84375 
Q 40.53125 48.484375 33.40625 48.484375 
Q 26.265625 48.484375 22.1875 42.84375 
Q 18.109375 37.203125 18.109375 27.296875 
Q 18.109375 17.390625 22.1875 11.75 
Q 26.265625 6.109375 33.40625 6.109375 
Q 40.53125 6.109375 44.609375 11.75 
Q 48.6875 17.390625 48.6875 27.296875 
z
" id="DejaVuSans-112"/>
      </defs>
      <g style="fill:#2f2235;" transform="translate(462.394238 342.7575)scale(0.16 -0.16)">
       <use xlink:href="#DejaVuSans-83"/>
       <use x="63.476562" xlink:href="#DejaVuSans-101"/>
       <use x="125" xlink:href="#DejaVuSans-112"/>
      </g>
     </g>
    </g>
    <g id="xtick_6">
     <g id="line2d_6">
      <g>
       <use style="fill:#003559;stroke:#003559;stroke-width:0.8;" x="577.360977" xlink:href="#ma304e3a593" y="323.6"/>
      </g>
     </g>
     <g id="text_6">
      <!-- Nov -->
      <defs>
       <path d="M 9.8125 72.90625 
L 23.09375 72.90625 
L 55.421875 11.921875 
L 55.421875 72.90625 
L 64.984375 72.90625 
L 64.984375 0 
L 51.703125 0 
L 19.390625 60.984375 
L 19.390625 0 
L 9.8125 0 
z
" id="DejaVuSans-78"/>
       <path d="M 30.609375 48.390625 
Q 23.390625 48.390625 19.1875 42.75 
Q 14.984375 37.109375 14.984375 27.296875 
Q 14.984375 17.484375 19.15625 11.84375 
Q 23.34375 6.203125 30.609375 6.203125 
Q 37.796875 6.203125 41.984375 11.859375 
Q 46.1875 17.53125 46.1875 27.296875 
Q 46.1875 37.015625 41.984375 42.703125 
Q 37.796875 48.390625 30.609375 48.390625 
z
M 30.609375 56 
Q 42.328125 56 49.015625 48.375 
Q 55.71875 40.765625 55.71875 27.296875 
Q 55.71875 13.875 49.015625 6.21875 
Q 42.328125 -1.421875 30.609375 -1.421875 
Q 18.84375 -1.421875 12.171875 6.21875 
Q 5.515625 13.875 5.515625 27.296875 
Q 5.515625 40.765625 12.171875 48.375 
Q 18.84375 56 30.609375 56 
z
" id="DejaVuSans-111"/>
       <path d="M 2.984375 54.6875 
L 12.5 54.6875 
L 29.59375 8.796875 
L 46.6875 54.6875 
L 56.203125 54.6875 
L 35.6875 0 
L 23.484375 0 
z
" id="DejaVuSans-118"/>
      </defs>
      <g style="fill:#2f2235;" transform="translate(561.745977 342.7575)scale(0.16 -0.16)">
       <use xlink:href="#DejaVuSans-78"/>
       <use x="74.804688" xlink:href="#DejaVuSans-111"/>
       <use x="135.986328" xlink:href="#DejaVuSans-118"/>
      </g>
     </g>
    </g>
    <g id="xtick_7">
     <g id="line2d_7">
      <g>
       <use style="fill:#003559;stroke:#003559;stroke-width:0.8;" x="677.247715" xlink:href="#ma304e3a593" y="323.6"/>
      </g>
     </g>
     <g id="text_7">
      <!-- 2011 -->
      <g style="fill:#2f2235;" transform="translate(656.887715 342.7575)scale(0.16 -0.16)">
       <use xlink:href="#DejaVuSans-50"/>
       <use x="63.623047" xlink:href="#DejaVuSans-48"/>
       <use x="127.246094" xlink:href="#DejaVuSans-49"/>
       <use x="190.869141" xlink:href="#DejaVuSans-49"/>
      </g>
     </g>
    </g>
   </g>
   <g id="matplotlib.axis_2">
    <g id="ytick_1">
     <g id="line2d_8">
      <path clip-path="url(#p7fb3917949)" d="M 49.7625 301.46892 
L 705.4125 301.46892 
" style="fill:none;stroke:#f0f0f0;stroke-linecap:square;"/>
     </g>
     <g id="line2d_9">
      <defs>
       <path d="M 0 0 
L -3.5 0 
" id="mec9c3942c9" style="stroke:#003559;stroke-width:0.8;"/>
      </defs>
      <g>
       <use style="fill:#003559;stroke:#003559;stroke-width:0.8;" x="49.7625" xlink:href="#mec9c3942c9" y="301.46892"/>
      </g>
     </g>
     <g id="text_8">
      <!-- 0% -->
      <defs>
       <path d="M 72.703125 32.078125 
Q 68.453125 32.078125 66.03125 28.46875 
Q 63.625 24.859375 63.625 18.40625 
Q 63.625 12.0625 66.03125 8.421875 
Q 68.453125 4.78125 72.703125 4.78125 
Q 76.859375 4.78125 79.265625 8.421875 
Q 81.6875 12.0625 81.6875 18.40625 
Q 81.6875 24.8125 79.265625 28.4375 
Q 76.859375 32.078125 72.703125 32.078125 
z
M 72.703125 38.28125 
Q 80.421875 38.28125 84.953125 32.90625 
Q 89.5 27.546875 89.5 18.40625 
Q 89.5 9.28125 84.9375 3.921875 
Q 80.375 -1.421875 72.703125 -1.421875 
Q 64.890625 -1.421875 60.34375 3.921875 
Q 55.8125 9.28125 55.8125 18.40625 
Q 55.8125 27.59375 60.375 32.9375 
Q 64.9375 38.28125 72.703125 38.28125 
z
M 22.3125 68.015625 
Q 18.109375 68.015625 15.6875 64.375 
Q 13.28125 60.75 13.28125 54.390625 
Q 13.28125 47.953125 15.671875 44.328125 
Q 18.0625 40.71875 22.3125 40.71875 
Q 26.5625 40.71875 28.96875 44.328125 
Q 31.390625 47.953125 31.390625 54.390625 
Q 31.390625 60.6875 28.953125 64.34375 
Q 26.515625 68.015625 22.3125 68.015625 
z
M 66.40625 74.21875 
L 74.21875 74.21875 
L 28.609375 -1.421875 
L 20.796875 -1.421875 
z
M 22.3125 74.21875 
Q 30.03125 74.21875 34.609375 68.875 
Q 39.203125 63.53125 39.203125 54.390625 
Q 39.203125 45.171875 34.640625 39.84375 
Q 30.078125 34.515625 22.3125 34.515625 
Q 14.546875 34.515625 10.03125 39.859375 
Q 5.515625 45.21875 5.515625 54.390625 
Q 5.515625 63.484375 10.046875 68.84375 
Q 14.59375 74.21875 22.3125 74.21875 
z
" id="DejaVuSans-37"/>
      </defs>
      <g style="fill:#2f2235;" transform="translate(17.38 307.54767)scale(0.16 -0.16)">
       <use xlink:href="#DejaVuSans-48"/>
       <use x="63.623047" xlink:href="#DejaVuSans-37"/>
      </g>
     </g>
    </g>
    <g id="ytick_2">
     <g id="line2d_10">
      <path clip-path="url(#p7fb3917949)" d="M 49.7625 261.039263 
L 705.4125 261.039263 
" style="fill:none;stroke:#f0f0f0;stroke-linecap:square;"/>
     </g>
     <g id="line2d_11">
      <g>
       <use style="fill:#003559;stroke:#003559;stroke-width:0.8;" x="49.7625" xlink:href="#mec9c3942c9" y="261.039263"/>
      </g>
     </g>
     <g id="text_9">
      <!-- 2% -->
      <g style="fill:#2f2235;" transform="translate(17.38 267.118013)scale(0.16 -0.16)">
       <use xlink:href="#DejaVuSans-50"/>
       <use x="63.623047" xlink:href="#DejaVuSans-37"/>
      </g>
     </g>
    </g>
    <g id="ytick_3">
     <g id="line2d_12">
      <path clip-path="url(#p7fb3917949)" d="M 49.7625 220.609606 
L 705.4125 220.609606 
" style="fill:none;stroke:#f0f0f0;stroke-linecap:square;"/>
     </g>
     <g id="line2d_13">
      <g>
       <use style="fill:#003559;stroke:#003559;stroke-width:0.8;" x="49.7625" xlink:href="#mec9c3942c9" y="220.609606"/>
      </g>
     </g>
     <g id="text_10">
      <!-- 5% -->
      <defs>
       <path d="M 10.796875 72.90625 
L 49.515625 72.90625 
L 49.515625 64.59375 
L 19.828125 64.59375 
L 19.828125 46.734375 
Q 21.96875 47.46875 24.109375 47.828125 
Q 26.265625 48.1875 28.421875 48.1875 
Q 40.625 48.1875 47.75 41.5 
Q 54.890625 34.8125 54.890625 23.390625 
Q 54.890625 11.625 47.5625 5.09375 
Q 40.234375 -1.421875 26.90625 -1.421875 
Q 22.3125 -1.421875 17.546875 -0.640625 
Q 12.796875 0.140625 7.71875 1.703125 
L 7.71875 11.625 
Q 12.109375 9.234375 16.796875 8.0625 
Q 21.484375 6.890625 26.703125 6.890625 
Q 35.15625 6.890625 40.078125 11.328125 
Q 45.015625 15.765625 45.015625 23.390625 
Q 45.015625 31 40.078125 35.4375 
Q 35.15625 39.890625 26.703125 39.890625 
Q 22.75 39.890625 18.8125 39.015625 
Q 14.890625 38.140625 10.796875 36.28125 
z
" id="DejaVuSans-53"/>
      </defs>
      <g style="fill:#2f2235;" transform="translate(17.38 226.688356)scale(0.16 -0.16)">
       <use xlink:href="#DejaVuSans-53"/>
       <use x="63.623047" xlink:href="#DejaVuSans-37"/>
      </g>
     </g>
    </g>
    <g id="ytick_4">
     <g id="line2d_14">
      <path clip-path="url(#p7fb3917949)" d="M 49.7625 180.17995 
L 705.4125 180.17995 
" style="fill:none;stroke:#f0f0f0;stroke-linecap:square;"/>
     </g>
     <g id="line2d_15">
      <g>
       <use style="fill:#003559;stroke:#003559;stroke-width:0.8;" x="49.7625" xlink:href="#mec9c3942c9" y="180.17995"/>
      </g>
     </g>
     <g id="text_11">
      <!-- 8% -->
      <defs>
       <path d="M 31.78125 34.625 
Q 24.75 34.625 20.71875 30.859375 
Q 16.703125 27.09375 16.703125 20.515625 
Q 16.703125 13.921875 20.71875 10.15625 
Q 24.75 6.390625 31.78125 6.390625 
Q 38.8125 6.390625 42.859375 10.171875 
Q 46.921875 13.96875 46.921875 20.515625 
Q 46.921875 27.09375 42.890625 30.859375 
Q 38.875 34.625 31.78125 34.625 
z
M 21.921875 38.8125 
Q 15.578125 40.375 12.03125 44.71875 
Q 8.5 49.078125 8.5 55.328125 
Q 8.5 64.0625 14.71875 69.140625 
Q 20.953125 74.21875 31.78125 74.21875 
Q 42.671875 74.21875 48.875 69.140625 
Q 55.078125 64.0625 55.078125 55.328125 
Q 55.078125 49.078125 51.53125 44.71875 
Q 48 40.375 41.703125 38.8125 
Q 48.828125 37.15625 52.796875 32.3125 
Q 56.78125 27.484375 56.78125 20.515625 
Q 56.78125 9.90625 50.3125 4.234375 
Q 43.84375 -1.421875 31.78125 -1.421875 
Q 19.734375 -1.421875 13.25 4.234375 
Q 6.78125 9.90625 6.78125 20.515625 
Q 6.78125 27.484375 10.78125 32.3125 
Q 14.796875 37.15625 21.921875 38.8125 
z
M 18.3125 54.390625 
Q 18.3125 48.734375 21.84375 45.5625 
Q 25.390625 42.390625 31.78125 42.390625 
Q 38.140625 42.390625 41.71875 45.5625 
Q 45.3125 48.734375 45.3125 54.390625 
Q 45.3125 60.0625 41.71875 63.234375 
Q 38.140625 66.40625 31.78125 66.40625 
Q 25.390625 66.40625 21.84375 63.234375 
Q 18.3125 60.0625 18.3125 54.390625 
z
" id="DejaVuSans-56"/>
      </defs>
      <g style="fill:#2f2235;" transform="translate(17.38 186.2587)scale(0.16 -0.16)">
       <use xlink:href="#DejaVuSans-56"/>
       <use x="63.623047" xlink:href="#DejaVuSans-37"/>
      </g>
     </g>
    </g>
    <g id="ytick_5">
     <g id="line2d_16">
      <path clip-path="url(#p7fb3917949)" d="M 49.7625 139.750293 
L 705.4125 139.750293 
" style="fill:none;stroke:#f0f0f0;stroke-linecap:square;"/>
     </g>
     <g id="line2d_17">
      <g>
       <use style="fill:#003559;stroke:#003559;stroke-width:0.8;" x="49.7625" xlink:href="#mec9c3942c9" y="139.750293"/>
      </g>
     </g>
     <g id="text_12">
      <!-- 10% -->
      <g style="fill:#2f2235;" transform="translate(7.2 145.829043)scale(0.16 -0.16)">
       <use xlink:href="#DejaVuSans-49"/>
       <use x="63.623047" xlink:href="#DejaVuSans-48"/>
       <use x="127.246094" xlink:href="#DejaVuSans-37"/>
      </g>
     </g>
    </g>
    <g id="ytick_6">
     <g id="line2d_18">
      <path clip-path="url(#p7fb3917949)" d="M 49.7625 99.320636 
L 705.4125 99.320636 
" style="fill:none;stroke:#f0f0f0;stroke-linecap:square;"/>
     </g>
     <g id="line2d_19">
      <g>
       <use style="fill:#003559;stroke:#003559;stroke-width:0.8;" x="49.7625" xlink:href="#mec9c3942c9" y="99.320636"/>
      </g>
     </g>
     <g id="text_13">
      <!-- 13% -->
      <defs>
       <path d="M 40.578125 39.3125 
Q 47.65625 37.796875 51.625 33 
Q 55.609375 28.21875 55.609375 21.1875 
Q 55.609375 10.40625 48.1875 4.484375 
Q 40.765625 -1.421875 27.09375 -1.421875 
Q 22.515625 -1.421875 17.65625 -0.515625 
Q 12.796875 0.390625 7.625 2.203125 
L 7.625 11.71875 
Q 11.71875 9.328125 16.59375 8.109375 
Q 21.484375 6.890625 26.8125 6.890625 
Q 36.078125 6.890625 40.9375 10.546875 
Q 45.796875 14.203125 45.796875 21.1875 
Q 45.796875 27.640625 41.28125 31.265625 
Q 36.765625 34.90625 28.71875 34.90625 
L 20.21875 34.90625 
L 20.21875 43.015625 
L 29.109375 43.015625 
Q 36.375 43.015625 40.234375 45.921875 
Q 44.09375 48.828125 44.09375 54.296875 
Q 44.09375 59.90625 40.109375 62.90625 
Q 36.140625 65.921875 28.71875 65.921875 
Q 24.65625 65.921875 20.015625 65.03125 
Q 15.375 64.15625 9.8125 62.3125 
L 9.8125 71.09375 
Q 15.4375 72.65625 20.34375 73.4375 
Q 25.25 74.21875 29.59375 74.21875 
Q 40.828125 74.21875 47.359375 69.109375 
Q 53.90625 64.015625 53.90625 55.328125 
Q 53.90625 49.265625 50.4375 45.09375 
Q 46.96875 40.921875 40.578125 39.3125 
z
" id="DejaVuSans-51"/>
      </defs>
      <g style="fill:#2f2235;" transform="translate(7.2 105.399386)scale(0.16 -0.16)">
       <use xlink:href="#DejaVuSans-49"/>
       <use x="63.623047" xlink:href="#DejaVuSans-51"/>
       <use x="127.246094" xlink:href="#DejaVuSans-37"/>
      </g>
     </g>
    </g>
    <g id="ytick_7">
     <g id="line2d_20">
      <path clip-path="url(#p7fb3917949)" d="M 49.7625 58.89098 
L 705.4125 58.89098 
" style="fill:none;stroke:#f0f0f0;stroke-linecap:square;"/>
     </g>
     <g id="line2d_21">
      <g>
       <use style="fill:#003559;stroke:#003559;stroke-width:0.8;" x="49.7625" xlink:href="#mec9c3942c9" y="58.89098"/>
      </g>
     </g>
     <g id="text_14">
      <!-- 15% -->
      <g style="fill:#2f2235;" transform="translate(7.2 64.96973)scale(0.16 -0.16)">
       <use xlink:href="#DejaVuSans-49"/>
       <use x="63.623047" xlink:href="#DejaVuSans-53"/>
       <use x="127.246094" xlink:href="#DejaVuSans-37"/>
      </g>
     </g>
    </g>
    <g id="ytick_8">
     <g id="line2d_22">
      <path clip-path="url(#p7fb3917949)" d="M 49.7625 18.461323 
L 705.4125 18.461323 
" style="fill:none;stroke:#f0f0f0;stroke-linecap:square;"/>
     </g>
     <g id="line2d_23">
      <g>
       <use style="fill:#003559;stroke:#003559;stroke-width:0.8;" x="49.7625" xlink:href="#mec9c3942c9" y="18.461323"/>
      </g>
     </g>
     <g id="text_15">
      <!-- 18% -->
      <g style="fill:#2f2235;" transform="translate(7.2 24.540073)scale(0.16 -0.16)">
       <use xlink:href="#DejaVuSans-49"/>
       <use x="63.623047" xlink:href="#DejaVuSans-56"/>
       <use x="127.246094" xlink:href="#DejaVuSans-37"/>
      </g>
     </g>
    </g>
   </g>
   <g id="line2d_24">
    <path clip-path="url(#p7fb3917949)" d="M 79.564773 302.25129 
L 81.20226 299.66674 
L 82.839748 298.735057 
L 84.477235 301.419497 
L 86.114723 309.218182 
L 87.75221 306.050644 
L 89.389698 302.185779 
L 91.027185 306.848248 
L 92.664673 301.329265 
L 94.30216 302.493518 
L 95.939648 293.73902 
L 97.577135 291.554788 
L 99.214623 292.420334 
L 100.85211 288.161934 
L 105.764573 286.446062 
L 107.40206 286.724478 
L 109.039548 284.424912 
L 110.677035 281.544537 
L 112.314523 280.153576 
L 113.95201 273.973243 
L 115.589498 278.20004 
L 117.226986 279.491551 
L 118.864473 276.556507 
L 120.501961 280.186777 
L 122.139448 274.822443 
L 123.776936 272.247706 
L 125.414423 272.61374 
L 127.051911 270.624014 
L 128.689398 272.326474 
L 130.326886 276.969215 
L 131.964373 273.922442 
L 133.601861 270.587061 
L 135.239348 269.979556 
L 136.876836 269.821684 
L 138.514323 276.592075 
L 140.151811 279.101116 
L 141.789298 280.398066 
L 143.426786 279.4032 
L 145.064273 274.626463 
L 146.701761 276.104748 
L 148.339248 278.436562 
L 149.976736 275.069211 
L 151.614223 275.256252 
L 153.251711 279.51954 
L 154.889198 275.290654 
L 156.526686 277.877469 
L 158.164173 279.490014 
L 159.801661 282.646256 
L 161.439148 281.243256 
L 163.076636 277.494163 
L 164.714123 278.497171 
L 166.351611 276.967173 
L 167.989098 278.285292 
L 169.626586 270.371358 
L 171.264073 265.178954 
L 172.901561 266.916264 
L 174.539048 264.939027 
L 176.176536 261.596279 
L 177.814023 259.951269 
L 179.451511 262.233151 
L 181.088999 262.539674 
L 182.726486 259.898906 
L 184.363974 258.193108 
L 186.001461 260.804586 
L 187.638949 259.090274 
L 189.276436 262.223278 
L 190.913924 269.041955 
L 192.551411 268.237752 
L 194.188899 264.864044 
L 195.826386 263.170588 
L 197.463874 258.067654 
L 199.101361 252.01427 
L 200.738849 250.602483 
L 202.376336 252.514658 
L 204.013824 252.439361 
L 205.651311 257.029141 
L 207.288799 256.917333 
L 208.926286 256.987172 
L 210.563774 256.169021 
L 212.201261 252.292734 
L 213.838749 259.132879 
L 215.476236 256.404768 
L 217.113724 257.969121 
L 218.751211 255.100119 
L 220.388699 254.289816 
L 222.026186 257.500942 
L 223.663674 254.361384 
L 225.301161 256.589178 
L 226.938649 254.617537 
L 228.576136 256.354031 
L 230.213624 257.708767 
L 231.851111 257.102868 
L 233.488599 250.528175 
L 235.126086 247.977376 
L 236.763574 247.809459 
L 238.401061 242.009348 
L 240.038549 241.672506 
L 241.676036 242.435917 
L 243.313524 245.444726 
L 244.951011 244.651772 
L 246.588499 244.027471 
L 248.225987 246.077382 
L 249.863474 252.235116 
L 251.500962 252.468631 
L 253.138449 251.852836 
L 254.775937 252.936479 
L 256.413424 255.87715 
L 258.050912 259.209321 
L 259.688399 260.584806 
L 261.325887 255.826723 
L 262.963374 255.086532 
L 264.600862 260.278024 
L 266.238349 257.911046 
L 267.875837 259.1663 
L 269.513324 251.152035 
L 271.150812 251.963878 
L 272.788299 251.929827 
L 274.425787 251.04956 
L 276.063274 249.859425 
L 279.338249 249.047939 
L 280.975737 249.547927 
L 282.613224 251.160919 
L 284.250712 252.174708 
L 285.888199 255.885436 
L 287.525687 257.408966 
L 289.163174 259.380363 
L 292.438149 261.832004 
L 294.075637 262.070989 
L 295.713124 260.339837 
L 297.350612 261.13441 
L 298.988099 260.60183 
L 300.625587 259.473641 
L 302.263074 260.28531 
L 303.900562 260.53452 
L 305.538049 259.123844 
L 307.175537 264.522086 
L 308.813024 262.114928 
L 310.450512 263.448048 
L 312.088 275.389796 
L 313.725487 273.404603 
L 315.362975 277.123657 
L 317.000462 273.964002 
L 318.63795 276.970691 
L 320.275437 277.432905 
L 321.912925 275.015278 
L 323.550412 277.401475 
L 325.1879 280.436911 
L 326.825387 280.582032 
L 328.462875 275.857535 
L 330.100362 272.01058 
L 331.73785 267.160953 
L 333.375337 265.658927 
L 335.012825 263.812767 
L 336.650312 260.034949 
L 338.2878 257.915916 
L 339.925287 260.35585 
L 341.562775 257.526161 
L 343.200262 258.932826 
L 344.83775 261.42072 
L 346.475237 260.729355 
L 348.112725 260.762158 
L 349.750212 257.634088 
L 351.3877 256.476453 
L 353.025187 257.665175 
L 354.662675 257.632818 
L 356.300162 259.288548 
L 357.93765 260.130716 
L 359.575137 255.693425 
L 361.212625 254.084909 
L 362.850112 255.095144 
L 364.4876 255.927825 
L 366.125087 257.667335 
L 367.762575 258.058699 
L 369.400062 262.756708 
L 371.03755 260.497426 
L 372.675037 261.160594 
L 374.312525 258.631565 
L 375.950012 255.204512 
L 377.5875 253.923434 
L 379.224988 257.066249 
L 380.862475 260.892607 
L 384.13745 254.91739 
L 385.774938 259.264909 
L 387.412425 262.168277 
L 389.049913 258.31705 
L 390.6874 257.839034 
L 392.324888 250.846959 
L 393.962375 248.888713 
L 395.599863 245.550221 
L 397.23735 245.598199 
L 398.874838 246.865003 
L 400.512325 251.4731 
L 402.149813 260.242998 
L 403.7873 256.306149 
L 405.424788 253.43134 
L 407.062275 254.877572 
L 408.699763 251.13872 
L 410.33725 255.791992 
L 411.974738 250.31571 
L 413.612225 248.505681 
L 415.249713 242.660767 
L 416.8872 248.086806 
L 418.524688 243.075484 
L 420.162175 239.726367 
L 421.799663 238.351424 
L 423.43715 241.034235 
L 425.074638 239.608757 
L 426.712125 238.491345 
L 428.349613 240.302264 
L 429.9871 244.664396 
L 431.624588 248.004995 
L 433.262075 249.544184 
L 436.53705 241.299625 
L 438.174538 235.382477 
L 439.812025 233.495771 
L 441.449513 238.125937 
L 443.087 240.387308 
L 444.724488 244.02256 
L 446.361976 244.651572 
L 447.999463 239.801175 
L 449.636951 240.167622 
L 451.274438 241.378372 
L 452.911926 239.368109 
L 454.549413 236.668345 
L 456.186901 233.177806 
L 459.461876 238.810733 
L 461.099363 240.106722 
L 462.736851 237.375489 
L 464.374338 236.490464 
L 466.011826 239.520643 
L 467.649313 232.902912 
L 469.286801 234.498466 
L 472.561776 234.770294 
L 474.199263 237.29484 
L 475.836751 237.179643 
L 477.474238 236.755241 
L 479.111726 235.638692 
L 480.749213 234.340906 
L 482.386701 235.899716 
L 484.024188 238.776347 
L 485.661676 234.861867 
L 487.299163 235.360815 
L 488.936651 231.425493 
L 490.574138 229.658875 
L 492.211626 220.334876 
L 493.849113 220.423442 
L 495.486601 225.796087 
L 497.124088 226.62725 
L 498.761576 222.285092 
L 500.399063 215.584769 
L 502.036551 209.372105 
L 503.674038 206.844752 
L 505.311526 201.105528 
L 506.949013 204.228709 
L 508.586501 205.878536 
L 510.223989 208.757644 
L 511.861476 206.392145 
L 513.498964 201.582975 
L 515.136451 201.101467 
L 516.773939 199.308593 
L 518.411426 200.518482 
L 520.048914 201.412295 
L 521.686401 200.608701 
L 523.323889 194.915524 
L 526.598864 190.719382 
L 528.236351 186.607326 
L 529.873839 183.980691 
L 531.511326 186.081426 
L 533.148814 179.643349 
L 534.786301 179.718067 
L 536.423789 179.262385 
L 538.061276 179.133862 
L 539.698764 176.639709 
L 541.336251 177.001186 
L 542.973739 175.325838 
L 544.611226 168.953715 
L 546.248714 171.322577 
L 547.886201 177.427989 
L 549.523689 172.593129 
L 551.161176 171.2921 
L 554.436151 165.725778 
L 556.073639 166.659376 
L 557.711126 165.67912 
L 559.348614 171.363888 
L 560.986101 171.344712 
L 562.623589 170.746232 
L 564.261076 174.538825 
L 565.898564 176.668197 
L 567.536051 176.825101 
L 569.173539 175.442567 
L 570.811026 175.786191 
L 572.448514 170.67921 
L 574.086001 167.832226 
L 575.723489 164.733805 
L 577.360977 170.639962 
L 578.998464 171.793076 
L 580.635952 170.841526 
L 582.273439 171.917061 
L 583.910927 170.873899 
L 585.548414 172.615256 
L 587.185902 175.285228 
L 588.823389 175.213049 
L 590.460877 174.664407 
L 592.098364 175.443641 
L 593.735852 175.343278 
L 595.373339 171.72312 
L 597.010827 169.712722 
L 598.648314 166.610303 
L 600.285802 164.245334 
L 601.923289 163.580904 
L 603.560777 164.449137 
L 605.198264 157.721419 
L 606.835752 156.931181 
L 608.473239 153.844004 
L 610.110727 155.672661 
L 611.748214 160.315229 
L 613.385702 164.241383 
L 615.023189 164.962233 
L 616.660677 168.720461 
L 618.298164 165.575442 
L 619.935652 166.641163 
L 621.573139 167.903337 
L 623.210627 161.839466 
L 624.848114 162.699478 
L 626.485602 163.912949 
L 628.123089 154.114543 
L 629.760577 152.224608 
L 631.398064 151.448122 
L 633.035552 152.56338 
L 636.310527 143.080348 
L 637.948014 151.150789 
L 639.585502 150.819395 
L 641.22299 149.423172 
L 642.860477 146.976361 
L 644.497965 151.048288 
L 646.135452 150.687431 
L 647.77294 144.143199 
L 649.410427 139.614302 
L 651.047915 142.66512 
L 652.685402 141.009332 
L 654.32289 143.12169 
L 655.960377 139.679115 
L 657.597865 149.488794 
L 659.235352 145.763334 
L 660.87284 144.287313 
L 662.510327 139.971545 
L 664.147815 143.555519 
L 665.785302 143.872414 
L 667.42279 147.146084 
L 669.060277 144.810966 
L 670.697765 143.399186 
L 672.335252 135.875631 
L 673.97274 132.499506 
L 675.610227 139.750293 
L 675.610227 139.750293 
" style="fill:none;stroke:#6083a9;stroke-linecap:square;stroke-width:2;"/>
   </g>
   <g id="line2d_25">
    <path clip-path="url(#p7fb3917949)" d="M 79.564773 303.025171 
L 81.20226 298.901771 
L 82.839748 300.493653 
L 84.477235 296.61547 
L 86.114723 291.061449 
L 87.75221 290.467717 
L 89.389698 290.712392 
L 91.027185 290.095857 
L 92.664673 292.537456 
L 94.30216 291.890185 
L 95.939648 289.568326 
L 97.577135 292.418673 
L 99.214623 293.28376 
L 100.85211 291.902774 
L 102.489598 294.637279 
L 104.127085 294.163125 
L 105.764573 294.524287 
L 107.40206 291.980409 
L 109.039548 290.014094 
L 110.677035 286.99153 
L 112.314523 283.682652 
L 113.95201 283.079974 
L 115.589498 280.157389 
L 117.226986 280.988965 
L 118.864473 282.375762 
L 120.501961 284.095004 
L 122.139448 284.878195 
L 123.776936 283.477108 
L 125.414423 282.484112 
L 127.051911 280.957834 
L 128.689398 280.990237 
L 130.326886 284.636801 
L 131.964373 285.813969 
L 133.601861 288.637781 
L 135.239348 287.019616 
L 136.876836 284.417883 
L 138.514323 282.737299 
L 140.151811 283.538128 
L 141.789298 281.27608 
L 143.426786 283.275138 
L 145.064273 278.681906 
L 146.701761 273.626785 
L 148.339248 271.639463 
L 149.976736 270.2443 
L 153.251711 270.058881 
L 154.889198 269.247166 
L 156.526686 269.552391 
L 158.164173 266.84141 
L 159.801661 268.404842 
L 161.439148 270.829365 
L 163.076636 267.714998 
L 164.714123 271.516833 
L 166.351611 262.59454 
L 167.989098 259.730605 
L 169.626586 256.339507 
L 171.264073 256.172431 
L 172.901561 256.915247 
L 174.539048 257.094579 
L 176.176536 258.352678 
L 179.451511 257.119638 
L 181.088999 252.351611 
L 182.726486 257.050682 
L 184.363974 254.783615 
L 186.001461 252.791855 
L 187.638949 252.757821 
L 189.276436 251.877991 
L 190.913924 251.130007 
L 192.551411 250.724107 
L 194.188899 248.29687 
L 195.826386 246.551324 
L 197.463874 249.643816 
L 199.101361 246.760431 
L 202.376336 247.101267 
L 204.013824 245.679162 
L 205.651311 242.334253 
L 207.288799 239.864923 
L 208.926286 238.250046 
L 210.563774 234.315025 
L 213.838749 224.714547 
L 215.476236 225.562435 
L 217.113724 221.697296 
L 218.751211 219.529284 
L 220.388699 216.629928 
L 222.026186 215.23607 
L 223.663674 212.022103 
L 225.301161 210.832679 
L 226.938649 209.279423 
L 228.576136 205.729737 
L 230.213624 204.072893 
L 231.851111 201.038608 
L 233.488599 198.417843 
L 235.126086 194.866482 
L 236.763574 198.12079 
L 238.401061 197.956037 
L 240.038549 188.457025 
L 241.676036 187.830715 
L 243.313524 192.586351 
L 244.951011 193.633909 
L 246.588499 191.608486 
L 248.225987 188.989435 
L 249.863474 184.88344 
L 251.500962 184.811659 
L 253.138449 180.915355 
L 254.775937 180.141817 
L 256.413424 178.255655 
L 258.050912 172.164892 
L 259.688399 166.925821 
L 261.325887 169.680839 
L 262.963374 168.288853 
L 264.600862 172.829635 
L 266.238349 171.041937 
L 269.513324 162.409617 
L 271.150812 159.314187 
L 272.788299 159.841046 
L 274.425787 152.387171 
L 276.063274 146.570348 
L 277.700762 143.721394 
L 279.338249 140.304964 
L 280.975737 136.147414 
L 284.250712 134.21125 
L 285.888199 129.53857 
L 287.525687 134.136561 
L 289.163174 132.951887 
L 290.800662 131.574918 
L 292.438149 127.410636 
L 294.075637 127.462002 
L 295.713124 128.197963 
L 297.350612 127.695877 
L 298.988099 123.099837 
L 300.625587 116.007752 
L 302.263074 109.431839 
L 303.900562 106.756714 
L 305.538049 100.681923 
L 307.175537 100.316688 
L 308.813024 100.578969 
L 310.450512 93.933635 
L 312.088 92.028893 
L 313.725487 91.174111 
L 315.362975 85.118296 
L 317.000462 82.811854 
L 318.63795 84.18973 
L 320.275437 84.706221 
L 321.912925 80.900323 
L 323.550412 82.347166 
L 325.1879 84.954045 
L 326.825387 88.098598 
L 328.462875 95.612732 
L 330.100362 90.35475 
L 333.375337 97.027901 
L 335.012825 95.670566 
L 336.650312 95.19286 
L 338.2878 92.247334 
L 339.925287 85.020314 
L 341.562775 86.920286 
L 343.200262 83.936881 
L 344.83775 82.480619 
L 346.475237 83.639402 
L 348.112725 86.445431 
L 349.750212 83.164724 
L 351.3877 85.916091 
L 353.025187 85.453511 
L 354.662675 86.360393 
L 356.300162 92.530466 
L 357.93765 92.425329 
L 359.575137 93.71043 
L 361.212625 86.826844 
L 362.850112 89.862447 
L 364.4876 87.393881 
L 366.125087 83.035937 
L 367.762575 88.84323 
L 369.400062 91.017576 
L 371.03755 85.260174 
L 372.675037 77.541538 
L 374.312525 71.164693 
L 375.950012 64.079211 
L 377.5875 64.339092 
L 379.224988 60.532201 
L 380.862475 65.653903 
L 382.499963 66.058361 
L 384.13745 64.95198 
L 385.774938 63.48794 
L 387.412425 60.922282 
L 389.049913 56.403746 
L 390.6874 49.510518 
L 392.324888 48.434876 
L 393.962375 46.346108 
L 395.599863 44.60052 
L 397.23735 40.654189 
L 398.874838 39.09066 
L 400.512325 36.216543 
L 402.149813 30.731167 
L 403.7873 32.428758 
L 405.424788 26.963449 
L 407.062275 23.381073 
L 408.699763 24.297977 
L 410.33725 21.581818 
L 411.974738 30.729945 
L 413.612225 36.175388 
L 415.249713 44.73174 
L 416.8872 47.025608 
L 418.524688 47.344864 
L 420.162175 48.638051 
L 421.799663 45.245356 
L 423.43715 48.700948 
L 425.074638 42.578732 
L 426.712125 44.516769 
L 428.349613 42.270561 
L 431.624588 47.857569 
L 433.262075 53.924423 
L 434.899563 52.683436 
L 436.53705 49.758198 
L 438.174538 47.294709 
L 439.812025 47.460483 
L 441.449513 50.405926 
L 443.087 54.629063 
L 444.724488 58.218279 
L 446.361976 59.355298 
L 447.999463 60.848139 
L 449.636951 60.263507 
L 451.274438 57.006933 
L 452.911926 52.666276 
L 454.549413 53.879415 
L 456.186901 46.950088 
L 457.824388 54.654934 
L 459.461876 51.348417 
L 461.099363 56.492124 
L 462.736851 56.142982 
L 464.374338 60.260531 
L 467.649313 63.727778 
L 469.286801 66.21075 
L 470.924288 68.143855 
L 472.561776 69.651978 
L 474.199263 70.493698 
L 475.836751 65.549044 
L 477.474238 66.513072 
L 479.111726 73.331887 
L 480.749213 71.355429 
L 482.386701 74.919498 
L 484.024188 72.441125 
L 485.661676 76.140898 
L 487.299163 77.668125 
L 488.936651 83.413286 
L 490.574138 82.884916 
L 492.211626 83.778682 
L 493.849113 82.219585 
L 495.486601 81.324303 
L 497.124088 83.246479 
L 498.761576 84.698357 
L 500.399063 80.991279 
L 502.036551 83.17203 
L 503.674038 79.559611 
L 505.311526 82.872478 
L 506.949013 81.623357 
L 508.586501 84.963803 
L 510.223989 84.828312 
L 511.861476 85.189799 
L 513.498964 91.153826 
L 515.136451 92.624529 
L 516.773939 105.79871 
L 518.411426 105.358554 
L 520.048914 115.357484 
L 521.686401 116.453837 
L 523.323889 123.853983 
L 524.961376 123.277293 
L 526.598864 121.264933 
L 528.236351 120.389441 
L 529.873839 124.012872 
L 531.511326 117.470815 
L 533.148814 114.540037 
L 534.786301 115.830266 
L 536.423789 117.482124 
L 539.698764 113.270187 
L 542.973739 102.952324 
L 546.248714 113.141604 
L 547.886201 113.863706 
L 549.523689 114.746607 
L 551.161176 111.504585 
L 552.798664 116.226856 
L 554.436151 113.68704 
L 556.073639 114.009267 
L 557.711126 113.154025 
L 559.348614 114.898826 
L 560.986101 124.387147 
L 562.623589 125.945453 
L 564.261076 126.367854 
L 565.898564 132.170392 
L 567.536051 135.022734 
L 569.173539 135.392848 
L 570.811026 139.26215 
L 572.448514 142.813089 
L 574.086001 144.449192 
L 575.723489 145.790206 
L 577.360977 148.175826 
L 578.998464 152.010816 
L 580.635952 152.674389 
L 582.273439 148.05508 
L 583.910927 149.332274 
L 585.548414 151.09596 
L 587.185902 149.834491 
L 588.823389 151.199124 
L 590.460877 149.122491 
L 592.098364 153.189485 
L 593.735852 144.66342 
L 595.373339 144.758312 
L 597.010827 140.634113 
L 598.648314 140.512293 
L 600.285802 143.551987 
L 601.923289 144.077993 
L 603.560777 137.817879 
L 605.198264 127.873759 
L 606.835752 128.753001 
L 608.473239 128.828226 
L 610.110727 125.966382 
L 611.748214 126.921155 
L 613.385702 122.298572 
L 615.023189 124.769822 
L 616.660677 126.942263 
L 618.298164 127.019245 
L 619.935652 128.950311 
L 621.573139 131.373334 
L 623.210627 131.338516 
L 624.848114 134.225828 
L 626.485602 137.487974 
L 628.123089 142.117326 
L 629.760577 135.950319 
L 633.035552 138.422455 
L 634.673039 137.452727 
L 636.310527 136.669748 
L 637.948014 137.753041 
L 639.585502 139.527397 
L 641.22299 139.507872 
L 642.860477 142.701436 
L 644.497965 142.338875 
L 646.135452 141.73046 
L 647.77294 146.409743 
L 649.410427 150.366946 
L 651.047915 141.835872 
L 652.685402 145.64366 
L 654.32289 146.734701 
L 655.960377 146.827105 
L 657.597865 144.994935 
L 659.235352 151.192339 
L 660.87284 147.765412 
L 662.510327 149.040209 
L 664.147815 148.301961 
L 665.785302 146.938554 
L 667.42279 142.881951 
L 669.060277 139.332568 
L 670.697765 132.319981 
L 672.335252 130.449594 
L 673.97274 132.499506 
L 675.610227 139.750293 
L 675.610227 139.750293 
" style="fill:none;stroke:#86a776;stroke-linecap:square;stroke-width:2;"/>
   </g>
   <g id="patch_3">
    <path d="M 49.7625 323.6 
L 49.7625 7.2 
" style="fill:none;"/>
   </g>
   <g id="patch_4">
    <path d="M 705.4125 323.6 
L 705.4125 7.2 
" style="fill:none;"/>
   </g>
   <g id="patch_5">
    <path d="M 49.7625 323.6 
L 705.4125 323.6 
" style="fill:none;"/>
   </g>
   <g id="patch_6">
    <path d="M 49.7625 7.2 
L 705.4125 7.2 
" style="fill:none;"/>
   </g>
   <g id="legend_1">
    <g id="line2d_26">
     <path d="M 564.3975 24.8575 
L 584.3975 24.8575 
" style="fill:none;stroke:#6083a9;stroke-linecap:square;stroke-width:2;"/>
    </g>
    <g id="line2d_27"/>
    <g id="text_16">
     <!-- Fountain LLC -->
     <defs>
      <path d="M 9.8125 72.90625 
L 51.703125 72.90625 
L 51.703125 64.59375 
L 19.671875 64.59375 
L 19.671875 43.109375 
L 48.578125 43.109375 
L 48.578125 34.8125 
L 19.671875 34.8125 
L 19.671875 0 
L 9.8125 0 
z
" id="DejaVuSans-70"/>
      <path d="M 54.890625 33.015625 
L 54.890625 0 
L 45.90625 0 
L 45.90625 32.71875 
Q 45.90625 40.484375 42.875 44.328125 
Q 39.84375 48.1875 33.796875 48.1875 
Q 26.515625 48.1875 22.3125 43.546875 
Q 18.109375 38.921875 18.109375 30.90625 
L 18.109375 0 
L 9.078125 0 
L 9.078125 54.6875 
L 18.109375 54.6875 
L 18.109375 46.1875 
Q 21.34375 51.125 25.703125 53.5625 
Q 30.078125 56 35.796875 56 
Q 45.21875 56 50.046875 50.171875 
Q 54.890625 44.34375 54.890625 33.015625 
z
" id="DejaVuSans-110"/>
      <path d="M 18.3125 70.21875 
L 18.3125 54.6875 
L 36.8125 54.6875 
L 36.8125 47.703125 
L 18.3125 47.703125 
L 18.3125 18.015625 
Q 18.3125 11.328125 20.140625 9.421875 
Q 21.96875 7.515625 27.59375 7.515625 
L 36.8125 7.515625 
L 36.8125 0 
L 27.59375 0 
Q 17.1875 0 13.234375 3.875 
Q 9.28125 7.765625 9.28125 18.015625 
L 9.28125 47.703125 
L 2.6875 47.703125 
L 2.6875 54.6875 
L 9.28125 54.6875 
L 9.28125 70.21875 
z
" id="DejaVuSans-116"/>
      <path d="M 9.421875 54.6875 
L 18.40625 54.6875 
L 18.40625 0 
L 9.421875 0 
z
M 9.421875 75.984375 
L 18.40625 75.984375 
L 18.40625 64.59375 
L 9.421875 64.59375 
z
" id="DejaVuSans-105"/>
      <path id="DejaVuSans-32"/>
      <path d="M 9.8125 72.90625 
L 19.671875 72.90625 
L 19.671875 8.296875 
L 55.171875 8.296875 
L 55.171875 0 
L 9.8125 0 
z
" id="DejaVuSans-76"/>
      <path d="M 64.40625 67.28125 
L 64.40625 56.890625 
Q 59.421875 61.53125 53.78125 63.8125 
Q 48.140625 66.109375 41.796875 66.109375 
Q 29.296875 66.109375 22.65625 58.46875 
Q 16.015625 50.828125 16.015625 36.375 
Q 16.015625 21.96875 22.65625 14.328125 
Q 29.296875 6.6875 41.796875 6.6875 
Q 48.140625 6.6875 53.78125 8.984375 
Q 59.421875 11.28125 64.40625 15.921875 
L 64.40625 5.609375 
Q 59.234375 2.09375 53.4375 0.328125 
Q 47.65625 -1.421875 41.21875 -1.421875 
Q 24.65625 -1.421875 15.125 8.703125 
Q 5.609375 18.84375 5.609375 36.375 
Q 5.609375 53.953125 15.125 64.078125 
Q 24.65625 74.21875 41.21875 74.21875 
Q 47.75 74.21875 53.53125 72.484375 
Q 59.328125 70.75 64.40625 67.28125 
z
" id="DejaVuSans-67"/>
     </defs>
     <g style="fill:#2f2235;" transform="translate(592.3975 28.3575)scale(0.16 -0.16)">
      <use xlink:href="#DejaVuSans-70"/>
      <use x="57.472656" xlink:href="#DejaVuSans-111"/>
      <use x="118.654297" xlink:href="#DejaVuSans-117"/>
      <use x="182.033203" xlink:href="#DejaVuSans-110"/>
      <use x="245.412109" xlink:href="#DejaVuSans-116"/>
      <use x="284.621094" xlink:href="#DejaVuSans-97"/>
      <use x="345.900391" xlink:href="#DejaVuSans-105"/>
      <use x="373.683594" xlink:href="#DejaVuSans-110"/>
      <use x="437.0625" xlink:href="#DejaVuSans-32"/>
      <use x="468.849609" xlink:href="#DejaVuSans-76"/>
      <use x="524.5625" xlink:href="#DejaVuSans-76"/>
      <use x="580.275391" xlink:href="#DejaVuSans-67"/>
     </g>
    </g>
    <g id="line2d_28">
     <path d="M 564.3975 45.3425 
L 584.3975 45.3425 
" style="fill:none;stroke:#86a776;stroke-linecap:square;stroke-width:2;"/>
    </g>
    <g id="line2d_29"/>
    <g id="text_17">
     <!-- Extreme LLC -->
     <defs>
      <path d="M 9.8125 72.90625 
L 55.90625 72.90625 
L 55.90625 64.59375 
L 19.671875 64.59375 
L 19.671875 43.015625 
L 54.390625 43.015625 
L 54.390625 34.71875 
L 19.671875 34.71875 
L 19.671875 8.296875 
L 56.78125 8.296875 
L 56.78125 0 
L 9.8125 0 
z
" id="DejaVuSans-69"/>
      <path d="M 54.890625 54.6875 
L 35.109375 28.078125 
L 55.90625 0 
L 45.3125 0 
L 29.390625 21.484375 
L 13.484375 0 
L 2.875 0 
L 24.125 28.609375 
L 4.6875 54.6875 
L 15.28125 54.6875 
L 29.78125 35.203125 
L 44.28125 54.6875 
z
" id="DejaVuSans-120"/>
      <path d="M 52 44.1875 
Q 55.375 50.25 60.0625 53.125 
Q 64.75 56 71.09375 56 
Q 79.640625 56 84.28125 50.015625 
Q 88.921875 44.046875 88.921875 33.015625 
L 88.921875 0 
L 79.890625 0 
L 79.890625 32.71875 
Q 79.890625 40.578125 77.09375 44.375 
Q 74.3125 48.1875 68.609375 48.1875 
Q 61.625 48.1875 57.5625 43.546875 
Q 53.515625 38.921875 53.515625 30.90625 
L 53.515625 0 
L 44.484375 0 
L 44.484375 32.71875 
Q 44.484375 40.625 41.703125 44.40625 
Q 38.921875 48.1875 33.109375 48.1875 
Q 26.21875 48.1875 22.15625 43.53125 
Q 18.109375 38.875 18.109375 30.90625 
L 18.109375 0 
L 9.078125 0 
L 9.078125 54.6875 
L 18.109375 54.6875 
L 18.109375 46.1875 
Q 21.1875 51.21875 25.484375 53.609375 
Q 29.78125 56 35.6875 56 
Q 41.65625 56 45.828125 52.96875 
Q 50 49.953125 52 44.1875 
z
" id="DejaVuSans-109"/>
     </defs>
     <g style="fill:#2f2235;" transform="translate(592.3975 48.8425)scale(0.16 -0.16)">
      <use xlink:href="#DejaVuSans-69"/>
      <use x="63.183594" xlink:href="#DejaVuSans-120"/>
      <use x="122.363281" xlink:href="#DejaVuSans-116"/>
      <use x="161.572266" xlink:href="#DejaVuSans-114"/>
      <use x="202.654297" xlink:href="#DejaVuSans-101"/>
      <use x="264.177734" xlink:href="#DejaVuSans-109"/>
      <use x="361.589844" xlink:href="#DejaVuSans-101"/>
      <use x="423.113281" xlink:href="#DejaVuSans-32"/>
      <use x="454.900391" xlink:href="#DejaVuSans-76"/>
      <use x="510.613281" xlink:href="#DejaVuSans-76"/>
      <use x="566.326172" xlink:href="#DejaVuSans-67"/>
     </g>
    </g>
   </g>
  </g>
 </g>
 <defs>
  <clipPath id="p7fb3917949">
   <rect height="316.4" width="655.65" x="49.7625" y="7.2"/>
  </clipPath>
 </defs>
</svg>
