<?xml version="1.0" encoding="utf-8" standalone="no"?>
<!DOCTYPE svg PUBLIC "-//W3C//DTD SVG 1.1//EN"
  "http://www.w3.org/Graphics/SVG/1.1/DTD/svg11.dtd">
<!-- Created with matplotlib (https://matplotlib.org/) -->
<svg height="353.285pt" version="1.1" viewBox="0 0 712.7375 353.285" width="712.7375pt" xmlns="http://www.w3.org/2000/svg" xmlns:xlink="http://www.w3.org/1999/xlink">
 <defs>
  <style type="text/css">
*{stroke-linecap:butt;stroke-linejoin:round;}
  </style>
 </defs>
 <g id="figure_1">
  <g id="patch_1">
   <path d="M -0 353.285 
L 712.7375 353.285 
L 712.7375 0 
L -0 0 
z
" style="fill:none;"/>
  </g>
  <g id="axes_1">
   <g id="patch_2">
    <path d="M 49.7625 323.6 
L 705.5375 323.6 
L 705.5375 7.2 
L 49.7625 7.2 
z
" style="fill:none;"/>
   </g>
   <g id="matplotlib.axis_1">
    <g id="xtick_1">
     <g id="line2d_1">
      <defs>
       <path d="M 0 0 
L 0 3.5 
" id="mca67f2290b" style="stroke:#003559;stroke-width:0.8;"/>
      </defs>
      <g>
       <use style="fill:#003559;stroke:#003559;stroke-width:0.8;" x="79.570455" xlink:href="#mca67f2290b" y="323.6"/>
      </g>
     </g>
     <g id="text_1">
      <!-- 2010 -->
      <defs>
       <path d="M 19.1875 8.296875 
L 53.609375 8.296875 
L 53.609375 0 
L 7.328125 0 
L 7.328125 8.296875 
Q 12.9375 14.109375 22.625 23.890625 
Q 32.328125 33.6875 34.8125 36.53125 
Q 39.546875 41.84375 41.421875 45.53125 
Q 43.3125 49.21875 43.3125 52.78125 
Q 43.3125 58.59375 39.234375 62.25 
Q 35.15625 65.921875 28.609375 65.921875 
Q 23.96875 65.921875 18.8125 64.3125 
Q 13.671875 62.703125 7.8125 59.421875 
L 7.8125 69.390625 
Q 13.765625 71.78125 18.9375 73 
Q 24.125 74.21875 28.421875 74.21875 
Q 39.75 74.21875 46.484375 68.546875 
Q 53.21875 62.890625 53.21875 53.421875 
Q 53.21875 48.921875 51.53125 44.890625 
Q 49.859375 40.875 45.40625 35.40625 
Q 44.1875 33.984375 37.640625 27.21875 
Q 31.109375 20.453125 19.1875 8.296875 
z
" id="DejaVuSans-50"/>
       <path d="M 31.78125 66.40625 
Q 24.171875 66.40625 20.328125 58.90625 
Q 16.5 51.421875 16.5 36.375 
Q 16.5 21.390625 20.328125 13.890625 
Q 24.171875 6.390625 31.78125 6.390625 
Q 39.453125 6.390625 43.28125 13.890625 
Q 47.125 21.390625 47.125 36.375 
Q 47.125 51.421875 43.28125 58.90625 
Q 39.453125 66.40625 31.78125 66.40625 
z
M 31.78125 74.21875 
Q 44.046875 74.21875 50.515625 64.515625 
Q 56.984375 54.828125 56.984375 36.375 
Q 56.984375 17.96875 50.515625 8.265625 
Q 44.046875 -1.421875 31.78125 -1.421875 
Q 19.53125 -1.421875 13.0625 8.265625 
Q 6.59375 17.96875 6.59375 36.375 
Q 6.59375 54.828125 13.0625 64.515625 
Q 19.53125 74.21875 31.78125 74.21875 
z
" id="DejaVuSans-48"/>
       <path d="M 12.40625 8.296875 
L 28.515625 8.296875 
L 28.515625 63.921875 
L 10.984375 60.40625 
L 10.984375 69.390625 
L 28.421875 72.90625 
L 38.28125 72.90625 
L 38.28125 8.296875 
L 54.390625 8.296875 
L 54.390625 0 
L 12.40625 0 
z
" id="DejaVuSans-49"/>
      </defs>
      <g style="fill:#2f2235;" transform="translate(59.210455 342.7575)scale(0.16 -0.16)">
       <use xlink:href="#DejaVuSans-50"/>
       <use x="63.623047" xlink:href="#DejaVuSans-48"/>
       <use x="127.246094" xlink:href="#DejaVuSans-49"/>
       <use x="190.869141" xlink:href="#DejaVuSans-48"/>
      </g>
     </g>
    </g>
    <g id="xtick_2">
     <g id="line2d_2">
      <g>
       <use style="fill:#003559;stroke:#003559;stroke-width:0.8;" x="178.203723" xlink:href="#mca67f2290b" y="323.6"/>
      </g>
     </g>
     <g id="text_2">
      <!-- Jul -->
      <defs>
       <path d="M 9.8125 72.90625 
L 19.671875 72.90625 
L 19.671875 5.078125 
Q 19.671875 -8.109375 14.671875 -14.0625 
Q 9.671875 -20.015625 -1.421875 -20.015625 
L -5.171875 -20.015625 
L -5.171875 -11.71875 
L -2.09375 -11.71875 
Q 4.4375 -11.71875 7.125 -8.046875 
Q 9.8125 -4.390625 9.8125 5.078125 
z
" id="DejaVuSans-74"/>
       <path d="M 8.5 21.578125 
L 8.5 54.6875 
L 17.484375 54.6875 
L 17.484375 21.921875 
Q 17.484375 14.15625 20.5 10.265625 
Q 23.53125 6.390625 29.59375 6.390625 
Q 36.859375 6.390625 41.078125 11.03125 
Q 45.3125 15.671875 45.3125 23.6875 
L 45.3125 54.6875 
L 54.296875 54.6875 
L 54.296875 0 
L 45.3125 0 
L 45.3125 8.40625 
Q 42.046875 3.421875 37.71875 1 
Q 33.40625 -1.421875 27.6875 -1.421875 
Q 18.265625 -1.421875 13.375 4.4375 
Q 8.5 10.296875 8.5 21.578125 
z
M 31.109375 56 
z
" id="DejaVuSans-117"/>
       <path d="M 9.421875 75.984375 
L 18.40625 75.984375 
L 18.40625 0 
L 9.421875 0 
z
" id="DejaVuSans-108"/>
      </defs>
      <g style="fill:#2f2235;" transform="translate(168.551223 342.7575)scale(0.16 -0.16)">
       <use xlink:href="#DejaVuSans-74"/>
       <use x="29.492188" xlink:href="#DejaVuSans-117"/>
       <use x="92.871094" xlink:href="#DejaVuSans-108"/>
      </g>
     </g>
    </g>
    <g id="xtick_3">
     <g id="line2d_3">
      <g>
       <use style="fill:#003559;stroke:#003559;stroke-width:0.8;" x="278.471797" xlink:href="#mca67f2290b" y="323.6"/>
      </g>
     </g>
     <g id="text_3">
      <!-- 2011 -->
      <g style="fill:#2f2235;" transform="translate(258.111797 342.7575)scale(0.16 -0.16)">
       <use xlink:href="#DejaVuSans-50"/>
       <use x="63.623047" xlink:href="#DejaVuSans-48"/>
       <use x="127.246094" xlink:href="#DejaVuSans-49"/>
       <use x="190.869141" xlink:href="#DejaVuSans-49"/>
      </g>
     </g>
    </g>
    <g id="xtick_4">
     <g id="line2d_4">
      <g>
       <use style="fill:#003559;stroke:#003559;stroke-width:0.8;" x="377.105065" xlink:href="#mca67f2290b" y="323.6"/>
      </g>
     </g>
     <g id="text_4">
      <!-- Jul -->
      <g style="fill:#2f2235;" transform="translate(367.452565 342.7575)scale(0.16 -0.16)">
       <use xlink:href="#DejaVuSans-74"/>
       <use x="29.492188" xlink:href="#DejaVuSans-117"/>
       <use x="92.871094" xlink:href="#DejaVuSans-108"/>
      </g>
     </g>
    </g>
    <g id="xtick_5">
     <g id="line2d_5">
      <g>
       <use style="fill:#003559;stroke:#003559;stroke-width:0.8;" x="477.373139" xlink:href="#mca67f2290b" y="323.6"/>
      </g>
     </g>
     <g id="text_5">
      <!-- 2012 -->
      <g style="fill:#2f2235;" transform="translate(457.013139 342.7575)scale(0.16 -0.16)">
       <use xlink:href="#DejaVuSans-50"/>
       <use x="63.623047" xlink:href="#DejaVuSans-48"/>
       <use x="127.246094" xlink:href="#DejaVuSans-49"/>
       <use x="190.869141" xlink:href="#DejaVuSans-50"/>
      </g>
     </g>
    </g>
    <g id="xtick_6">
     <g id="line2d_6">
      <g>
       <use style="fill:#003559;stroke:#003559;stroke-width:0.8;" x="576.551342" xlink:href="#mca67f2290b" y="323.6"/>
      </g>
     </g>
     <g id="text_6">
      <!-- Jul -->
      <g style="fill:#2f2235;" transform="translate(566.898842 342.7575)scale(0.16 -0.16)">
       <use xlink:href="#DejaVuSans-74"/>
       <use x="29.492188" xlink:href="#DejaVuSans-117"/>
       <use x="92.871094" xlink:href="#DejaVuSans-108"/>
      </g>
     </g>
    </g>
    <g id="xtick_7">
     <g id="line2d_7">
      <g>
       <use style="fill:#003559;stroke:#003559;stroke-width:0.8;" x="676.819416" xlink:href="#mca67f2290b" y="323.6"/>
      </g>
     </g>
     <g id="text_7">
      <!-- 2013 -->
      <defs>
       <path d="M 40.578125 39.3125 
Q 47.65625 37.796875 51.625 33 
Q 55.609375 28.21875 55.609375 21.1875 
Q 55.609375 10.40625 48.1875 4.484375 
Q 40.765625 -1.421875 27.09375 -1.421875 
Q 22.515625 -1.421875 17.65625 -0.515625 
Q 12.796875 0.390625 7.625 2.203125 
L 7.625 11.71875 
Q 11.71875 9.328125 16.59375 8.109375 
Q 21.484375 6.890625 26.8125 6.890625 
Q 36.078125 6.890625 40.9375 10.546875 
Q 45.796875 14.203125 45.796875 21.1875 
Q 45.796875 27.640625 41.28125 31.265625 
Q 36.765625 34.90625 28.71875 34.90625 
L 20.21875 34.90625 
L 20.21875 43.015625 
L 29.109375 43.015625 
Q 36.375 43.015625 40.234375 45.921875 
Q 44.09375 48.828125 44.09375 54.296875 
Q 44.09375 59.90625 40.109375 62.90625 
Q 36.140625 65.921875 28.71875 65.921875 
Q 24.65625 65.921875 20.015625 65.03125 
Q 15.375 64.15625 9.8125 62.3125 
L 9.8125 71.09375 
Q 15.4375 72.65625 20.34375 73.4375 
Q 25.25 74.21875 29.59375 74.21875 
Q 40.828125 74.21875 47.359375 69.109375 
Q 53.90625 64.015625 53.90625 55.328125 
Q 53.90625 49.265625 50.4375 45.09375 
Q 46.96875 40.921875 40.578125 39.3125 
z
" id="DejaVuSans-51"/>
      </defs>
      <g style="fill:#2f2235;" transform="translate(656.459416 342.7575)scale(0.16 -0.16)">
       <use xlink:href="#DejaVuSans-50"/>
       <use x="63.623047" xlink:href="#DejaVuSans-48"/>
       <use x="127.246094" xlink:href="#DejaVuSans-49"/>
       <use x="190.869141" xlink:href="#DejaVuSans-51"/>
      </g>
     </g>
    </g>
   </g>
   <g id="matplotlib.axis_2">
    <g id="ytick_1">
     <g id="line2d_8">
      <path clip-path="url(#p49a5bb2bf2)" d="M 49.7625 289.972004 
L 705.5375 289.972004 
" style="fill:none;stroke:#f0f0f0;stroke-linecap:square;"/>
     </g>
     <g id="line2d_9">
      <defs>
       <path d="M 0 0 
L -3.5 0 
" id="m46892165fe" style="stroke:#003559;stroke-width:0.8;"/>
      </defs>
      <g>
       <use style="fill:#003559;stroke:#003559;stroke-width:0.8;" x="49.7625" xlink:href="#m46892165fe" y="289.972004"/>
      </g>
     </g>
     <g id="text_8">
      <!-- -5% -->
      <defs>
       <path d="M 4.890625 31.390625 
L 31.203125 31.390625 
L 31.203125 23.390625 
L 4.890625 23.390625 
z
" id="DejaVuSans-45"/>
       <path d="M 10.796875 72.90625 
L 49.515625 72.90625 
L 49.515625 64.59375 
L 19.828125 64.59375 
L 19.828125 46.734375 
Q 21.96875 47.46875 24.109375 47.828125 
Q 26.265625 48.1875 28.421875 48.1875 
Q 40.625 48.1875 47.75 41.5 
Q 54.890625 34.8125 54.890625 23.390625 
Q 54.890625 11.625 47.5625 5.09375 
Q 40.234375 -1.421875 26.90625 -1.421875 
Q 22.3125 -1.421875 17.546875 -0.640625 
Q 12.796875 0.140625 7.71875 1.703125 
L 7.71875 11.625 
Q 12.109375 9.234375 16.796875 8.0625 
Q 21.484375 6.890625 26.703125 6.890625 
Q 35.15625 6.890625 40.078125 11.328125 
Q 45.015625 15.765625 45.015625 23.390625 
Q 45.015625 31 40.078125 35.4375 
Q 35.15625 39.890625 26.703125 39.890625 
Q 22.75 39.890625 18.8125 39.015625 
Q 14.890625 38.140625 10.796875 36.28125 
z
" id="DejaVuSans-53"/>
       <path d="M 72.703125 32.078125 
Q 68.453125 32.078125 66.03125 28.46875 
Q 63.625 24.859375 63.625 18.40625 
Q 63.625 12.0625 66.03125 8.421875 
Q 68.453125 4.78125 72.703125 4.78125 
Q 76.859375 4.78125 79.265625 8.421875 
Q 81.6875 12.0625 81.6875 18.40625 
Q 81.6875 24.8125 79.265625 28.4375 
Q 76.859375 32.078125 72.703125 32.078125 
z
M 72.703125 38.28125 
Q 80.421875 38.28125 84.953125 32.90625 
Q 89.5 27.546875 89.5 18.40625 
Q 89.5 9.28125 84.9375 3.921875 
Q 80.375 -1.421875 72.703125 -1.421875 
Q 64.890625 -1.421875 60.34375 3.921875 
Q 55.8125 9.28125 55.8125 18.40625 
Q 55.8125 27.59375 60.375 32.9375 
Q 64.9375 38.28125 72.703125 38.28125 
z
M 22.3125 68.015625 
Q 18.109375 68.015625 15.6875 64.375 
Q 13.28125 60.75 13.28125 54.390625 
Q 13.28125 47.953125 15.671875 44.328125 
Q 18.0625 40.71875 22.3125 40.71875 
Q 26.5625 40.71875 28.96875 44.328125 
Q 31.390625 47.953125 31.390625 54.390625 
Q 31.390625 60.6875 28.953125 64.34375 
Q 26.515625 68.015625 22.3125 68.015625 
z
M 66.40625 74.21875 
L 74.21875 74.21875 
L 28.609375 -1.421875 
L 20.796875 -1.421875 
z
M 22.3125 74.21875 
Q 30.03125 74.21875 34.609375 68.875 
Q 39.203125 63.53125 39.203125 54.390625 
Q 39.203125 45.171875 34.640625 39.84375 
Q 30.078125 34.515625 22.3125 34.515625 
Q 14.546875 34.515625 10.03125 39.859375 
Q 5.515625 45.21875 5.515625 54.390625 
Q 5.515625 63.484375 10.046875 68.84375 
Q 14.59375 74.21875 22.3125 74.21875 
z
" id="DejaVuSans-37"/>
      </defs>
      <g style="fill:#2f2235;" transform="translate(11.6075 296.050754)scale(0.16 -0.16)">
       <use xlink:href="#DejaVuSans-45"/>
       <use x="36.083984" xlink:href="#DejaVuSans-53"/>
       <use x="99.707031" xlink:href="#DejaVuSans-37"/>
      </g>
     </g>
    </g>
    <g id="ytick_2">
     <g id="line2d_10">
      <path clip-path="url(#p49a5bb2bf2)" d="M 49.7625 246.837737 
L 705.5375 246.837737 
" style="fill:none;stroke:#f0f0f0;stroke-linecap:square;"/>
     </g>
     <g id="line2d_11">
      <g>
       <use style="fill:#003559;stroke:#003559;stroke-width:0.8;" x="49.7625" xlink:href="#m46892165fe" y="246.837737"/>
      </g>
     </g>
     <g id="text_9">
      <!-- -3% -->
      <g style="fill:#2f2235;" transform="translate(11.6075 252.916487)scale(0.16 -0.16)">
       <use xlink:href="#DejaVuSans-45"/>
       <use x="36.083984" xlink:href="#DejaVuSans-51"/>
       <use x="99.707031" xlink:href="#DejaVuSans-37"/>
      </g>
     </g>
    </g>
    <g id="ytick_3">
     <g id="line2d_12">
      <path clip-path="url(#p49a5bb2bf2)" d="M 49.7625 203.70347 
L 705.5375 203.70347 
" style="fill:none;stroke:#f0f0f0;stroke-linecap:square;"/>
     </g>
     <g id="line2d_13">
      <g>
       <use style="fill:#003559;stroke:#003559;stroke-width:0.8;" x="49.7625" xlink:href="#m46892165fe" y="203.70347"/>
      </g>
     </g>
     <g id="text_10">
      <!-- 0% -->
      <g style="fill:#2f2235;" transform="translate(17.38 209.78222)scale(0.16 -0.16)">
       <use xlink:href="#DejaVuSans-48"/>
       <use x="63.623047" xlink:href="#DejaVuSans-37"/>
      </g>
     </g>
    </g>
    <g id="ytick_4">
     <g id="line2d_14">
      <path clip-path="url(#p49a5bb2bf2)" d="M 49.7625 160.569204 
L 705.5375 160.569204 
" style="fill:none;stroke:#f0f0f0;stroke-linecap:square;"/>
     </g>
     <g id="line2d_15">
      <g>
       <use style="fill:#003559;stroke:#003559;stroke-width:0.8;" x="49.7625" xlink:href="#m46892165fe" y="160.569204"/>
      </g>
     </g>
     <g id="text_11">
      <!-- 2% -->
      <g style="fill:#2f2235;" transform="translate(17.38 166.647954)scale(0.16 -0.16)">
       <use xlink:href="#DejaVuSans-50"/>
       <use x="63.623047" xlink:href="#DejaVuSans-37"/>
      </g>
     </g>
    </g>
    <g id="ytick_5">
     <g id="line2d_16">
      <path clip-path="url(#p49a5bb2bf2)" d="M 49.7625 117.434937 
L 705.5375 117.434937 
" style="fill:none;stroke:#f0f0f0;stroke-linecap:square;"/>
     </g>
     <g id="line2d_17">
      <g>
       <use style="fill:#003559;stroke:#003559;stroke-width:0.8;" x="49.7625" xlink:href="#m46892165fe" y="117.434937"/>
      </g>
     </g>
     <g id="text_12">
      <!-- 5% -->
      <g style="fill:#2f2235;" transform="translate(17.38 123.513687)scale(0.16 -0.16)">
       <use xlink:href="#DejaVuSans-53"/>
       <use x="63.623047" xlink:href="#DejaVuSans-37"/>
      </g>
     </g>
    </g>
    <g id="ytick_6">
     <g id="line2d_18">
      <path clip-path="url(#p49a5bb2bf2)" d="M 49.7625 74.30067 
L 705.5375 74.30067 
" style="fill:none;stroke:#f0f0f0;stroke-linecap:square;"/>
     </g>
     <g id="line2d_19">
      <g>
       <use style="fill:#003559;stroke:#003559;stroke-width:0.8;" x="49.7625" xlink:href="#m46892165fe" y="74.30067"/>
      </g>
     </g>
     <g id="text_13">
      <!-- 8% -->
      <defs>
       <path d="M 31.78125 34.625 
Q 24.75 34.625 20.71875 30.859375 
Q 16.703125 27.09375 16.703125 20.515625 
Q 16.703125 13.921875 20.71875 10.15625 
Q 24.75 6.390625 31.78125 6.390625 
Q 38.8125 6.390625 42.859375 10.171875 
Q 46.921875 13.96875 46.921875 20.515625 
Q 46.921875 27.09375 42.890625 30.859375 
Q 38.875 34.625 31.78125 34.625 
z
M 21.921875 38.8125 
Q 15.578125 40.375 12.03125 44.71875 
Q 8.5 49.078125 8.5 55.328125 
Q 8.5 64.0625 14.71875 69.140625 
Q 20.953125 74.21875 31.78125 74.21875 
Q 42.671875 74.21875 48.875 69.140625 
Q 55.078125 64.0625 55.078125 55.328125 
Q 55.078125 49.078125 51.53125 44.71875 
Q 48 40.375 41.703125 38.8125 
Q 48.828125 37.15625 52.796875 32.3125 
Q 56.78125 27.484375 56.78125 20.515625 
Q 56.78125 9.90625 50.3125 4.234375 
Q 43.84375 -1.421875 31.78125 -1.421875 
Q 19.734375 -1.421875 13.25 4.234375 
Q 6.78125 9.90625 6.78125 20.515625 
Q 6.78125 27.484375 10.78125 32.3125 
Q 14.796875 37.15625 21.921875 38.8125 
z
M 18.3125 54.390625 
Q 18.3125 48.734375 21.84375 45.5625 
Q 25.390625 42.390625 31.78125 42.390625 
Q 38.140625 42.390625 41.71875 45.5625 
Q 45.3125 48.734375 45.3125 54.390625 
Q 45.3125 60.0625 41.71875 63.234375 
Q 38.140625 66.40625 31.78125 66.40625 
Q 25.390625 66.40625 21.84375 63.234375 
Q 18.3125 60.0625 18.3125 54.390625 
z
" id="DejaVuSans-56"/>
      </defs>
      <g style="fill:#2f2235;" transform="translate(17.38 80.37942)scale(0.16 -0.16)">
       <use xlink:href="#DejaVuSans-56"/>
       <use x="63.623047" xlink:href="#DejaVuSans-37"/>
      </g>
     </g>
    </g>
    <g id="ytick_7">
     <g id="line2d_20">
      <path clip-path="url(#p49a5bb2bf2)" d="M 49.7625 31.166403 
L 705.5375 31.166403 
" style="fill:none;stroke:#f0f0f0;stroke-linecap:square;"/>
     </g>
     <g id="line2d_21">
      <g>
       <use style="fill:#003559;stroke:#003559;stroke-width:0.8;" x="49.7625" xlink:href="#m46892165fe" y="31.166403"/>
      </g>
     </g>
     <g id="text_14">
      <!-- 10% -->
      <g style="fill:#2f2235;" transform="translate(7.2 37.245153)scale(0.16 -0.16)">
       <use xlink:href="#DejaVuSans-49"/>
       <use x="63.623047" xlink:href="#DejaVuSans-48"/>
       <use x="127.246094" xlink:href="#DejaVuSans-37"/>
      </g>
     </g>
    </g>
   </g>
   <g id="line2d_22">
    <path clip-path="url(#p49a5bb2bf2)" d="M 79.570455 197.43629 
L 80.11539 195.839764 
L 80.660325 195.421095 
L 81.20526 201.786547 
L 81.750195 202.660759 
L 82.29513 203.801521 
L 82.840066 204.003286 
L 83.385001 206.081557 
L 83.929936 206.148937 
L 84.474871 207.709039 
L 85.019806 212.143063 
L 86.109677 205.901104 
L 86.654612 199.915326 
L 87.199547 199.65836 
L 87.744482 200.973642 
L 88.289417 202.773714 
L 88.834353 208.021314 
L 89.379288 204.552889 
L 90.469158 212.253171 
L 91.014093 212.875869 
L 91.559029 207.683694 
L 92.103964 206.784959 
L 92.648899 210.224446 
L 93.193834 212.590457 
L 93.738769 210.359263 
L 94.283705 210.827544 
L 94.82864 213.384355 
L 95.373575 214.09027 
L 95.91851 211.449493 
L 96.463445 204.563939 
L 97.00838 208.766128 
L 97.553316 210.836655 
L 98.098251 213.513305 
L 98.643186 221.710572 
L 99.733056 228.18331 
L 100.277992 224.27275 
L 100.822927 224.639753 
L 101.367862 230.081897 
L 101.912797 227.800522 
L 102.457732 228.929813 
L 103.002667 234.764454 
L 104.092538 238.611971 
L 104.637473 241.482025 
L 105.182408 241.299827 
L 105.727343 248.790352 
L 106.272279 249.608441 
L 108.452019 235.473289 
L 108.996954 230.344741 
L 109.54189 234.057619 
L 110.086825 231.10539 
L 110.63176 237.331011 
L 111.176695 239.287633 
L 111.72163 245.663666 
L 112.266566 242.049171 
L 112.811501 237.460975 
L 113.356436 238.046679 
L 113.901371 231.951709 
L 114.446306 234.158103 
L 115.536177 232.96415 
L 116.081112 236.488157 
L 116.626047 234.922768 
L 117.170982 228.257629 
L 117.715917 231.658124 
L 118.260853 228.519748 
L 118.805788 228.962658 
L 119.350723 222.852069 
L 119.895658 221.117485 
L 120.985529 216.438428 
L 121.530464 215.501869 
L 122.075399 220.195753 
L 122.620334 215.349598 
L 123.165269 219.958122 
L 123.710204 219.059479 
L 124.25514 216.874937 
L 124.800075 219.658924 
L 125.34501 219.079922 
L 125.889945 214.997928 
L 126.43488 214.997379 
L 126.979816 217.958089 
L 127.524751 227.824824 
L 128.069686 231.045896 
L 129.159556 234.6384 
L 129.704491 237.806508 
L 130.249427 236.447672 
L 130.794362 238.310037 
L 131.339297 238.598084 
L 131.884232 236.218464 
L 132.429167 239.030236 
L 132.974103 239.962684 
L 133.519038 232.573889 
L 134.063973 229.522366 
L 134.608908 233.83128 
L 135.153843 234.019361 
L 135.698778 232.022257 
L 136.243714 227.747998 
L 136.788649 227.158382 
L 137.333584 228.880929 
L 137.878519 231.280797 
L 138.423454 229.006518 
L 138.96839 227.859179 
L 139.513325 229.533654 
L 140.05826 230.093753 
L 140.603195 231.425005 
L 141.14813 228.880285 
L 141.693065 231.142403 
L 142.238001 229.40732 
L 142.782936 226.42763 
L 143.327871 224.688292 
L 143.872806 227.447077 
L 144.417741 222.78076 
L 144.962677 225.010955 
L 145.507612 223.47422 
L 146.052547 225.959411 
L 146.597482 231.807536 
L 147.142417 230.958639 
L 147.687353 229.901064 
L 148.232288 230.081765 
L 148.777223 229.06093 
L 149.867093 233.601867 
L 150.412028 234.089501 
L 150.956964 227.522164 
L 151.501899 224.664292 
L 152.046834 226.353299 
L 152.591769 224.366843 
L 153.68164 227.388639 
L 154.226575 224.378937 
L 154.77151 226.086185 
L 155.316445 231.701433 
L 155.86138 234.693738 
L 156.951251 233.795639 
L 157.496186 229.498159 
L 158.041121 231.847934 
L 158.586056 229.280703 
L 159.130991 227.749412 
L 159.675927 228.173836 
L 160.220862 225.2454 
L 160.765797 223.484832 
L 161.310732 226.341154 
L 161.855667 222.604845 
L 162.400602 226.684011 
L 162.945538 226.398393 
L 163.490473 226.307437 
L 164.035408 224.778005 
L 164.580343 227.166328 
L 165.125278 227.202676 
L 165.670214 227.598673 
L 166.215149 224.119506 
L 166.760084 226.748733 
L 167.305019 226.418414 
L 167.849954 227.225199 
L 168.394889 231.55525 
L 168.939825 222.362566 
L 169.48476 222.522833 
L 170.029695 227.506839 
L 170.57463 222.623522 
L 171.119565 226.190777 
L 171.664501 224.844508 
L 172.209436 221.818191 
L 172.754371 223.948088 
L 173.299306 225.334218 
L 173.844241 227.09159 
L 174.389176 227.449296 
L 174.934112 232.879674 
L 175.479047 236.984144 
L 176.023982 237.378428 
L 176.568917 233.777322 
L 177.113852 231.551602 
L 177.658788 225.587319 
L 178.203723 223.138273 
L 178.748658 224.798582 
L 179.293593 225.13456 
L 179.838528 231.957507 
L 180.928399 238.504558 
L 181.473334 237.507307 
L 182.018269 235.231992 
L 183.108139 238.955516 
L 183.653075 244.093396 
L 184.19801 244.442142 
L 184.742945 243.523993 
L 185.28788 241.938677 
L 185.832815 244.495933 
L 186.377751 237.700981 
L 186.922686 233.571287 
L 187.467621 233.811939 
L 188.012556 235.516254 
L 188.557491 236.523012 
L 189.102426 235.929177 
L 189.647362 235.910088 
L 190.192297 234.189659 
L 190.737232 231.498659 
L 191.827102 222.777832 
L 192.372038 223.071168 
L 192.916973 221.663083 
L 193.461908 222.901744 
L 194.006843 224.821661 
L 194.551778 218.213112 
L 195.096713 219.702901 
L 195.641649 212.800226 
L 196.186584 213.914655 
L 196.731519 212.963885 
L 197.276454 209.137249 
L 197.821389 208.971484 
L 198.366325 207.534977 
L 198.91126 208.282376 
L 199.456195 209.834725 
L 200.00113 210.321243 
L 200.546065 212.469895 
L 201.091 206.77629 
L 201.635936 207.270291 
L 202.180871 201.244014 
L 202.725806 210.414563 
L 203.270741 210.267833 
L 203.815676 208.251466 
L 204.360612 209.178934 
L 204.905547 205.325781 
L 205.450482 203.035271 
L 205.995417 203.899231 
L 206.540352 202.313847 
L 207.085288 192.491337 
L 208.175158 190.406092 
L 208.720093 191.851112 
L 209.265028 191.302891 
L 209.809963 195.693883 
L 210.354899 196.297082 
L 210.899834 187.674707 
L 211.444769 183.869148 
L 211.989704 181.544085 
L 212.534639 177.596554 
L 213.079575 170.90711 
L 213.62451 168.73319 
L 214.169445 161.34138 
L 214.71438 157.469123 
L 215.259315 156.793005 
L 215.80425 150.601415 
L 216.349186 158.887342 
L 216.894121 160.823165 
L 217.439056 159.797099 
L 217.983991 162.935932 
L 218.528926 163.401402 
L 219.618797 167.791319 
L 220.163732 158.126485 
L 220.708667 155.81659 
L 221.253602 155.921858 
L 221.798537 151.165456 
L 222.343473 151.922942 
L 222.888408 148.68699 
L 223.433343 147.350912 
L 223.978278 141.458515 
L 224.523213 146.441174 
L 225.068149 143.622438 
L 225.613084 143.099173 
L 226.158019 147.142033 
L 226.702954 143.254308 
L 227.247889 146.280887 
L 227.792824 140.411193 
L 228.33776 138.487855 
L 228.882695 135.908455 
L 229.42763 135.532847 
L 229.972565 132.198092 
L 230.5175 138.803408 
L 231.062436 138.448926 
L 231.607371 140.610645 
L 232.152306 139.512459 
L 232.697241 139.594391 
L 233.242176 137.299371 
L 233.787112 140.211741 
L 234.332047 133.53251 
L 234.876982 125.109236 
L 235.421917 125.77304 
L 235.966852 125.739529 
L 236.511787 124.614538 
L 237.056723 119.958989 
L 237.601658 112.994398 
L 238.146593 117.280865 
L 238.691528 119.420574 
L 239.781399 127.100355 
L 240.326334 132.911453 
L 240.871269 131.52044 
L 241.416204 135.59544 
L 241.961139 130.107888 
L 242.506074 126.749385 
L 243.595945 133.985172 
L 244.14088 136.095385 
L 244.685815 130.980874 
L 245.23075 133.946512 
L 245.775686 139.213877 
L 246.320621 139.303937 
L 246.865556 137.879949 
L 247.410491 140.14614 
L 247.955426 134.255557 
L 248.500361 133.305051 
L 249.045297 131.589982 
L 249.590232 134.575881 
L 250.135167 134.631384 
L 250.680102 135.105966 
L 251.225037 143.153469 
L 251.769973 142.038985 
L 252.314908 148.355837 
L 252.859843 148.371937 
L 253.404778 153.52735 
L 253.949713 146.254359 
L 254.494648 145.004068 
L 255.584519 138.466364 
L 256.129454 143.116697 
L 256.674389 151.162216 
L 257.219324 152.247525 
L 257.76426 148.970118 
L 258.309195 148.559582 
L 259.399065 142.243266 
L 259.944 147.482179 
L 260.488936 146.370303 
L 261.033871 139.258356 
L 261.578806 141.212725 
L 262.123741 148.367008 
L 262.668676 149.106345 
L 263.213611 150.673465 
L 263.758547 149.098364 
L 264.303482 152.186225 
L 264.848417 151.777559 
L 265.393352 159.556253 
L 265.938287 156.445441 
L 267.028158 146.015667 
L 267.573093 151.324652 
L 268.118028 150.103058 
L 268.662963 160.602413 
L 269.207898 159.514642 
L 269.752834 159.656539 
L 270.297769 163.091284 
L 270.842704 161.790832 
L 271.387639 161.217152 
L 271.932574 157.806259 
L 272.47751 157.269223 
L 273.022445 156.350156 
L 273.56738 163.147215 
L 274.112315 167.152937 
L 274.65725 168.743707 
L 275.202185 167.612827 
L 275.747121 167.549533 
L 276.292056 162.168133 
L 276.836991 165.154838 
L 277.381926 165.914455 
L 277.926861 164.929119 
L 278.471797 165.660144 
L 279.016732 163.825786 
L 279.561667 165.753436 
L 280.106602 160.651458 
L 280.651537 161.69567 
L 281.196472 157.660705 
L 281.741408 157.682099 
L 282.286343 152.303844 
L 282.831278 157.179179 
L 283.376213 155.26073 
L 283.921148 156.708676 
L 284.466084 155.802179 
L 285.011019 151.480529 
L 286.645824 163.480193 
L 287.19076 162.495945 
L 287.735695 169.064461 
L 288.28063 168.638986 
L 289.3705 177.003726 
L 289.915435 178.211933 
L 290.460371 176.793642 
L 291.005306 178.902643 
L 291.550241 180.539264 
L 292.095176 180.60074 
L 292.640111 181.469413 
L 293.185047 190.715061 
L 293.729982 192.125466 
L 294.274917 191.745974 
L 294.819852 187.842878 
L 295.364787 180.617149 
L 295.909722 178.198226 
L 296.454658 177.836258 
L 296.999593 181.127235 
L 297.544528 180.731042 
L 298.089463 177.920381 
L 298.634398 173.4004 
L 299.179334 176.404406 
L 299.724269 175.490429 
L 300.269204 172.542392 
L 300.814139 165.907499 
L 301.359074 164.92036 
L 301.904009 166.744394 
L 302.448945 169.087914 
L 302.99388 170.260293 
L 303.538815 172.466766 
L 304.08375 169.475176 
L 304.628685 165.622473 
L 305.173621 162.978413 
L 305.718556 158.676444 
L 306.263491 160.196576 
L 306.808426 158.764622 
L 307.353361 160.040195 
L 307.898296 159.799861 
L 308.443232 155.3738 
L 308.988167 155.393206 
L 309.533102 161.910269 
L 310.078037 162.717859 
L 310.622972 165.148758 
L 311.167908 170.378621 
L 311.712843 173.071234 
L 312.257778 169.608888 
L 312.802713 163.59825 
L 313.347648 165.238467 
L 314.437519 157.356715 
L 314.982454 161.375818 
L 316.072324 161.500589 
L 316.617259 160.805264 
L 317.162195 166.347108 
L 317.70713 167.492076 
L 318.797 159.127476 
L 319.341935 152.54655 
L 319.886871 153.659176 
L 320.431806 146.921961 
L 320.976741 144.460287 
L 321.521676 149.218624 
L 322.066611 146.41894 
L 322.611546 147.588033 
L 323.156482 145.651071 
L 323.701417 145.930188 
L 324.246352 141.529304 
L 324.791287 140.525047 
L 325.336222 141.448559 
L 325.881158 137.908311 
L 326.426093 136.903233 
L 326.971028 138.295895 
L 327.515963 133.628287 
L 328.060898 135.006948 
L 329.150769 139.050446 
L 329.695704 144.202607 
L 330.240639 146.089797 
L 330.785574 139.35475 
L 331.330509 142.516246 
L 331.875445 142.39946 
L 332.42038 146.268484 
L 332.965315 148.360585 
L 333.51025 142.856969 
L 334.055185 139.565082 
L 334.60012 141.661107 
L 335.145056 141.552125 
L 337.324796 153.400108 
L 337.869732 152.15594 
L 338.959602 148.122865 
L 339.504537 148.639878 
L 340.049472 153.382966 
L 340.594408 153.535121 
L 341.139343 156.728319 
L 341.684278 153.515458 
L 342.229213 151.452099 
L 342.774148 148.708335 
L 343.319083 149.862006 
L 343.864019 156.20869 
L 344.408954 152.722788 
L 344.953889 148.274266 
L 345.498824 153.46325 
L 346.043759 152.887217 
L 346.588695 148.55687 
L 347.13363 152.297216 
L 347.678565 145.91801 
L 348.2235 147.075857 
L 348.768435 150.818129 
L 349.31337 145.846576 
L 349.858306 144.709238 
L 350.403241 146.952106 
L 350.948176 143.726927 
L 351.493111 150.610427 
L 352.038046 144.055155 
L 352.582982 146.880334 
L 353.127917 145.774143 
L 353.672852 147.108805 
L 354.217787 145.46687 
L 354.762722 142.209921 
L 355.307657 145.065266 
L 355.852593 142.170586 
L 356.397528 143.134427 
L 356.942463 145.503135 
L 357.487398 146.215632 
L 358.032333 149.707836 
L 358.577269 152.450935 
L 359.122204 148.988841 
L 359.667139 149.439353 
L 360.212074 145.285123 
L 360.757009 143.657488 
L 361.301944 147.230823 
L 361.84688 153.895276 
L 362.391815 156.247521 
L 362.93675 155.224691 
L 363.481685 155.107337 
L 364.02662 157.964069 
L 364.571556 154.286701 
L 365.116491 160.386641 
L 365.661426 164.747727 
L 366.206361 164.212843 
L 366.751296 156.366429 
L 367.296232 154.812151 
L 367.841167 158.289751 
L 368.931037 153.592429 
L 369.475972 150.172681 
L 370.020907 151.54404 
L 370.565843 154.298716 
L 371.110778 153.792897 
L 371.655713 152.231597 
L 372.200648 146.456378 
L 372.745583 138.903824 
L 373.290519 141.43979 
L 373.835454 143.221912 
L 374.380389 143.362304 
L 374.925324 144.167504 
L 376.015194 140.522374 
L 376.56013 139.512767 
L 377.105065 134.608617 
L 377.65 135.090353 
L 378.194935 138.769778 
L 378.73987 144.262355 
L 379.829741 151.472201 
L 380.374676 158.069617 
L 380.919611 155.632979 
L 381.464546 154.889635 
L 382.009481 156.303196 
L 382.554417 159.369648 
L 383.099352 164.870809 
L 383.644287 168.02751 
L 384.189222 161.421179 
L 384.734157 169.134343 
L 385.279093 168.549681 
L 385.824028 165.843784 
L 386.368963 165.278059 
L 386.913898 166.309719 
L 387.458833 163.514092 
L 388.003768 167.320286 
L 388.548704 165.276137 
L 389.093639 160.136143 
L 389.638574 163.730893 
L 390.183509 166.537563 
L 390.728444 165.972738 
L 391.27338 162.394114 
L 391.818315 157.57011 
L 392.36325 155.070912 
L 392.908185 157.358744 
L 393.45312 161.217399 
L 393.998056 160.272251 
L 394.542991 158.776902 
L 395.087926 162.583501 
L 395.632861 162.286511 
L 396.177796 161.026334 
L 396.722731 157.241039 
L 397.267667 160.661969 
L 397.812602 158.605068 
L 398.357537 162.654842 
L 398.902472 164.075606 
L 399.447407 164.266258 
L 399.992343 158.814548 
L 400.537278 146.95473 
L 401.082213 145.964272 
L 401.627148 144.110457 
L 402.172083 140.42318 
L 402.717018 145.20104 
L 403.261954 142.380549 
L 403.806889 146.725767 
L 404.896759 135.565075 
L 405.441694 133.678013 
L 405.98663 136.485373 
L 406.531565 130.407933 
L 407.0765 129.386169 
L 407.621435 128.901958 
L 408.16637 126.726728 
L 408.711305 132.801487 
L 409.256241 131.174174 
L 409.801176 127.501371 
L 410.346111 126.191996 
L 410.891046 125.58063 
L 411.435981 128.929826 
L 411.980917 126.523876 
L 412.525852 125.713506 
L 413.070787 125.593295 
L 413.615722 127.536185 
L 414.160657 124.361113 
L 414.705592 119.766071 
L 415.250528 118.273098 
L 415.795463 114.934479 
L 416.885333 104.153014 
L 417.430268 103.240635 
L 417.975204 103.930901 
L 418.520139 105.356442 
L 419.065074 105.217791 
L 419.610009 103.114653 
L 420.154944 99.596491 
L 420.69988 101.068544 
L 421.244815 100.43184 
L 421.78975 103.984418 
L 422.334685 99.276089 
L 422.87962 100.619386 
L 423.424555 99.221232 
L 423.969491 101.763346 
L 424.514426 102.764479 
L 425.059361 105.179933 
L 425.604296 98.861142 
L 426.149231 97.456359 
L 426.694167 97.977124 
L 427.239102 101.355591 
L 427.784037 103.49655 
L 428.328972 101.33024 
L 428.873907 95.141318 
L 429.418842 100.293375 
L 429.963778 103.555866 
L 430.508713 104.108999 
L 431.053648 106.312235 
L 431.598583 112.262632 
L 432.143518 112.104291 
L 432.688454 109.284686 
L 433.233389 114.927626 
L 433.778324 114.073961 
L 434.868194 106.823002 
L 435.413129 108.264218 
L 435.958065 99.763051 
L 436.503 97.642097 
L 437.047935 100.521777 
L 437.59287 96.829632 
L 438.137805 100.850007 
L 438.682741 97.484684 
L 439.227676 102.013321 
L 439.772611 99.033489 
L 440.317546 101.079416 
L 440.862481 96.846177 
L 441.407416 94.040935 
L 441.952352 92.309783 
L 442.497287 92.005232 
L 443.042222 87.917692 
L 443.587157 94.457169 
L 444.677028 91.172041 
L 445.221963 89.015231 
L 445.766898 85.88265 
L 446.311833 72.093196 
L 446.856768 71.569278 
L 447.401704 68.487857 
L 447.946639 67.830458 
L 448.491574 61.876392 
L 449.036509 69.317417 
L 449.581444 62.90058 
L 450.126379 65.360596 
L 450.671315 73.683849 
L 451.21625 77.590599 
L 451.761185 78.146903 
L 452.30612 77.337834 
L 452.851055 77.417925 
L 453.395991 74.300513 
L 454.485861 74.485406 
L 455.030796 82.329448 
L 455.575731 80.438859 
L 456.120666 76.610049 
L 456.665602 78.07813 
L 457.210537 84.92456 
L 457.755472 89.758151 
L 458.300407 83.501856 
L 459.390278 88.00789 
L 459.935213 90.933544 
L 460.480148 88.33939 
L 461.025083 90.413019 
L 461.570018 93.516877 
L 462.114953 98.949772 
L 462.659889 99.255503 
L 463.204824 95.499748 
L 463.749759 95.953201 
L 464.294694 92.626795 
L 465.9295 90.513554 
L 466.474435 90.297671 
L 467.01937 86.430452 
L 467.564305 84.542184 
L 468.10924 86.584226 
L 468.654176 86.020762 
L 469.199111 86.211323 
L 469.744046 84.333608 
L 470.288981 83.578654 
L 470.833916 81.958178 
L 471.378852 87.318316 
L 471.923787 85.830106 
L 472.468722 80.891435 
L 473.013657 85.786061 
L 473.558592 79.784899 
L 474.103528 78.596025 
L 474.648463 79.274966 
L 475.193398 85.849366 
L 475.738333 81.745983 
L 476.283268 85.235186 
L 476.828203 87.029938 
L 477.373139 84.928187 
L 479.007944 96.293161 
L 479.552879 96.612387 
L 480.097815 94.36514 
L 481.187685 91.210627 
L 481.73262 92.386173 
L 482.277555 91.780943 
L 482.82249 94.225766 
L 483.367426 86.790836 
L 483.912361 85.983769 
L 484.457296 93.087031 
L 485.002231 96.920394 
L 485.547166 90.954121 
L 486.092102 95.881836 
L 486.637037 97.397003 
L 487.181972 95.828818 
L 487.726907 99.756398 
L 488.271842 95.760947 
L 488.816777 89.504755 
L 489.361713 92.447455 
L 489.906648 88.205244 
L 490.996518 94.969552 
L 492.086389 93.016489 
L 492.631324 95.114897 
L 493.176259 91.934665 
L 493.721194 97.236029 
L 494.266129 100.279483 
L 494.811064 104.129078 
L 496.44587 95.707657 
L 496.990805 100.363384 
L 497.53574 99.788958 
L 498.080676 98.024976 
L 498.625611 103.848376 
L 499.170546 106.757029 
L 500.260416 101.654532 
L 500.805352 100.632721 
L 501.350287 98.560507 
L 501.895222 97.284704 
L 502.440157 96.646457 
L 502.985092 96.957915 
L 503.530027 100.059505 
L 504.074963 100.868787 
L 504.619898 102.252764 
L 505.164833 93.675716 
L 505.709768 92.631057 
L 506.254703 92.581216 
L 506.799639 93.343983 
L 507.344574 93.677837 
L 507.889509 94.587975 
L 508.434444 92.499253 
L 508.979379 92.51828 
L 509.524314 89.447401 
L 510.06925 91.914199 
L 510.614185 90.537653 
L 511.15912 87.220072 
L 511.704055 91.377941 
L 512.24899 90.672002 
L 512.793926 89.674096 
L 513.338861 90.815944 
L 513.883796 92.517002 
L 514.428731 99.228877 
L 514.973666 94.930705 
L 515.518601 98.2609 
L 516.063537 102.708414 
L 516.608472 100.214899 
L 517.153407 106.816148 
L 517.698342 103.213501 
L 518.243277 101.538478 
L 518.788213 99.262312 
L 519.333148 99.773621 
L 519.878083 104.133428 
L 520.423018 110.925953 
L 520.967953 105.532334 
L 522.057824 108.957709 
L 522.602759 103.100534 
L 523.147694 105.316424 
L 524.237564 106.871165 
L 524.7825 107.283647 
L 525.327435 110.978774 
L 525.87237 112.926542 
L 526.417305 108.162893 
L 526.96224 105.300512 
L 527.507176 116.039468 
L 528.052111 123.039705 
L 528.597046 121.746477 
L 529.141981 122.06703 
L 529.686916 123.332438 
L 530.231851 119.474856 
L 530.776787 125.833428 
L 531.321722 121.414204 
L 531.866657 120.850648 
L 532.411592 118.778428 
L 532.956527 117.772947 
L 533.501463 114.617068 
L 534.046398 115.43726 
L 534.591333 117.31519 
L 535.136268 114.392875 
L 535.681203 113.669153 
L 536.226138 118.129647 
L 537.860944 103.311562 
L 538.405879 102.931904 
L 538.950814 101.562523 
L 539.49575 102.867915 
L 540.040685 106.329179 
L 540.58562 106.002015 
L 541.130555 105.26982 
L 541.67549 107.597319 
L 542.220425 100.830893 
L 542.765361 106.641486 
L 543.855231 111.87595 
L 544.400166 107.088715 
L 544.945101 107.935107 
L 545.490037 109.029914 
L 546.579907 114.850033 
L 547.124842 119.489792 
L 547.669777 115.722658 
L 548.214712 113.424937 
L 548.759648 109.737977 
L 549.304583 112.058315 
L 549.849518 102.818336 
L 550.394453 106.310619 
L 550.939388 113.694398 
L 551.484324 114.666619 
L 552.029259 114.080891 
L 552.574194 111.245091 
L 553.119129 114.852318 
L 553.664064 112.619017 
L 554.209 106.315478 
L 555.29887 111.933882 
L 555.843805 118.02414 
L 556.38874 117.063284 
L 558.023546 107.868461 
L 558.568481 102.614324 
L 559.113416 102.060065 
L 559.658351 98.486455 
L 560.748222 104.67797 
L 561.293157 103.710306 
L 561.838092 106.605797 
L 562.383027 104.432237 
L 562.927962 99.318582 
L 563.472898 97.75237 
L 564.562768 103.009412 
L 565.107703 97.92724 
L 565.652638 100.759191 
L 566.197574 100.343816 
L 566.742509 101.201765 
L 567.287444 100.919204 
L 567.832379 96.817223 
L 568.377314 98.70175 
L 568.922249 103.768983 
L 569.467185 98.372718 
L 570.01212 97.467106 
L 570.557055 94.717657 
L 571.10199 94.699729 
L 571.646925 91.755443 
L 572.736796 81.882477 
L 573.281731 82.802848 
L 573.826666 84.01319 
L 574.371601 82.465889 
L 574.916536 81.610947 
L 575.461472 79.429428 
L 576.006407 81.96789 
L 576.551342 90.446662 
L 577.096277 88.701769 
L 578.186148 83.272812 
L 578.731083 77.046755 
L 579.276018 73.797327 
L 579.820953 75.147731 
L 580.365888 71.400164 
L 580.910824 71.625561 
L 581.455759 66.866077 
L 582.000694 65.889083 
L 582.545629 64.107864 
L 583.090564 63.167727 
L 583.635499 62.87375 
L 584.180435 68.36091 
L 584.72537 68.05571 
L 585.270305 76.405118 
L 585.81524 74.469671 
L 586.360175 70.6966 
L 586.905111 62.966934 
L 587.450046 61.479647 
L 587.994981 64.063474 
L 588.539916 69.892991 
L 589.084851 62.545771 
L 589.629786 67.772206 
L 590.174722 64.345048 
L 590.719657 72.836297 
L 591.264592 72.937365 
L 591.809527 70.309116 
L 592.354462 69.009382 
L 592.899398 69.073649 
L 593.989268 75.323313 
L 594.534203 71.489901 
L 595.079138 69.780156 
L 595.624073 70.287019 
L 596.169009 69.42772 
L 596.713944 72.781122 
L 597.258879 68.891625 
L 597.803814 64.103916 
L 598.348749 66.920078 
L 598.893685 66.449692 
L 599.43862 62.450029 
L 599.983555 64.754124 
L 600.52849 57.061619 
L 601.073425 51.306108 
L 601.61836 52.262066 
L 602.163296 48.493264 
L 602.708231 42.139501 
L 603.253166 46.737352 
L 603.798101 44.313267 
L 604.343036 44.765877 
L 604.887972 45.490336 
L 605.432907 42.721048 
L 605.977842 44.428603 
L 607.067712 54.853361 
L 607.612647 54.836382 
L 608.157583 52.386405 
L 608.702518 52.384948 
L 609.247453 52.86656 
L 609.792388 52.891069 
L 610.337323 47.955564 
L 610.882259 45.867424 
L 611.427194 48.583482 
L 611.972129 49.578073 
L 612.517064 44.952763 
L 613.061999 47.046883 
L 613.606935 48.440839 
L 614.15187 48.443846 
L 614.696805 52.353917 
L 615.24174 48.872631 
L 615.786675 56.997086 
L 616.33161 51.463913 
L 616.876546 53.006275 
L 617.421481 57.624402 
L 617.966416 56.476745 
L 618.511351 62.784088 
L 619.056286 60.686637 
L 619.601222 57.702726 
L 620.146157 59.766255 
L 620.691092 61.128972 
L 621.236027 57.490375 
L 621.780962 59.908694 
L 622.325897 59.733855 
L 622.870833 58.342993 
L 623.415768 52.406276 
L 623.960703 54.202552 
L 624.505638 53.981506 
L 625.050573 49.640253 
L 625.595509 59.135376 
L 626.140444 60.050272 
L 627.230314 73.834323 
L 627.775249 66.468407 
L 628.320184 65.590747 
L 628.86512 59.962925 
L 629.410055 60.774486 
L 629.95499 58.663171 
L 630.499925 60.186568 
L 631.04486 62.139232 
L 631.589796 62.327312 
L 632.134731 61.757505 
L 632.679666 55.931617 
L 633.224601 56.577976 
L 633.769536 55.063998 
L 634.314471 55.935804 
L 634.859407 55.302078 
L 635.404342 60.118636 
L 635.949277 55.943641 
L 636.494212 57.803153 
L 637.039147 57.556884 
L 637.584083 58.267498 
L 638.129018 54.488726 
L 638.673953 52.440826 
L 639.218888 52.300982 
L 639.763823 51.552881 
L 640.308759 50.171628 
L 640.853694 47.235206 
L 641.398629 45.234786 
L 641.943564 40.294651 
L 642.488499 34.07909 
L 643.033434 31.656952 
L 643.57837 36.577562 
L 644.123305 29.858253 
L 644.66824 21.581818 
L 645.75811 24.363087 
L 646.303046 32.098105 
L 646.847981 29.047185 
L 647.392916 32.781221 
L 647.937851 25.737715 
L 648.482786 35.052703 
L 649.027721 34.686509 
L 649.572657 32.037262 
L 650.117592 33.470965 
L 650.662527 36.392476 
L 651.207462 35.356902 
L 651.752397 37.262255 
L 652.297333 38.468846 
L 652.842268 38.525999 
L 653.387203 40.540438 
L 653.932138 41.309839 
L 654.477073 38.244953 
L 655.022008 39.631448 
L 655.566944 38.912569 
L 656.111879 41.675904 
L 656.656814 38.133589 
L 657.201749 42.90311 
L 657.746684 39.199924 
L 658.29162 50.515677 
L 658.836555 53.84495 
L 659.38149 59.707297 
L 659.926425 55.822393 
L 660.47136 54.725137 
L 661.016295 59.546819 
L 661.561231 61.603913 
L 662.106166 56.513697 
L 662.651101 56.675355 
L 663.196036 54.520337 
L 664.285907 65.703229 
L 664.830842 63.541972 
L 665.375777 54.892749 
L 665.920712 56.895872 
L 666.465647 54.66797 
L 667.010583 58.197939 
L 667.555518 53.505967 
L 668.645388 56.844163 
L 669.190323 63.922843 
L 669.735258 65.482124 
L 670.280194 64.802967 
L 670.825129 59.675255 
L 671.370064 64.082527 
L 671.914999 60.443477 
L 673.00487 62.85959 
L 673.549805 66.431089 
L 674.09474 72.800454 
L 674.639675 77.34873 
L 675.18461 71.372809 
L 675.729545 75.854369 
L 675.729545 75.854369 
" style="fill:none;stroke:#6083a9;stroke-linecap:square;stroke-width:2;"/>
   </g>
   <g id="line2d_23">
    <path clip-path="url(#p49a5bb2bf2)" d="M 79.570455 206.438881 
L 80.11539 198.546297 
L 80.660325 212.87269 
L 81.20526 209.592627 
L 81.750195 212.895241 
L 82.29513 211.411776 
L 82.840066 205.256806 
L 83.385001 206.112619 
L 83.929936 207.276729 
L 85.019806 197.470521 
L 85.564742 202.253929 
L 86.109677 203.357176 
L 86.654612 212.417617 
L 87.199547 203.33177 
L 87.744482 211.476974 
L 88.289417 210.001895 
L 88.834353 197.75682 
L 89.379288 191.963173 
L 89.924223 193.768516 
L 91.014093 202.698002 
L 91.559029 196.095848 
L 92.103964 193.474158 
L 92.648899 193.230249 
L 93.193834 174.744821 
L 93.738769 180.282182 
L 94.283705 183.386637 
L 94.82864 185.679991 
L 95.373575 183.833254 
L 95.91851 181.334669 
L 96.463445 182.898522 
L 97.00838 177.400061 
L 97.553316 173.270691 
L 98.098251 175.056763 
L 98.643186 191.86774 
L 99.188121 186.061249 
L 99.733056 192.401672 
L 100.277992 196.69122 
L 100.822927 197.477386 
L 101.367862 205.843134 
L 101.912797 211.249669 
L 102.457732 210.686992 
L 103.002667 212.998367 
L 103.547603 210.79939 
L 104.092538 216.695177 
L 104.637473 218.314845 
L 105.182408 225.603666 
L 105.727343 227.600291 
L 106.272279 225.70149 
L 106.817214 227.433916 
L 107.362149 237.216453 
L 107.907084 238.559869 
L 108.452019 237.615914 
L 108.996954 229.989535 
L 109.54189 230.313905 
L 110.086825 233.142926 
L 110.63176 241.100433 
L 111.176695 227.635749 
L 112.266566 241.767315 
L 112.811501 242.806419 
L 113.356436 255.073893 
L 113.901371 247.884714 
L 114.446306 246.665159 
L 114.991241 243.372925 
L 115.536177 249.957058 
L 116.081112 253.356756 
L 117.170982 241.458903 
L 117.715917 222.167551 
L 118.260853 214.595118 
L 118.805788 227.456406 
L 119.350723 226.780408 
L 119.895658 229.159135 
L 120.440593 221.600519 
L 120.985529 222.100355 
L 121.530464 218.634105 
L 122.075399 220.684889 
L 122.620334 216.37553 
L 123.165269 206.180889 
L 123.710204 210.242693 
L 124.25514 224.033415 
L 124.800075 230.907211 
L 125.34501 220.093837 
L 125.889945 218.402289 
L 126.43488 220.244876 
L 126.979816 226.637413 
L 127.524751 219.291487 
L 128.069686 217.134122 
L 128.614621 217.716856 
L 129.159556 221.228957 
L 129.704491 222.099128 
L 130.249427 224.089225 
L 130.794362 219.987235 
L 131.339297 211.061316 
L 131.884232 224.274863 
L 132.429167 233.953358 
L 132.974103 234.418227 
L 133.519038 233.681656 
L 134.063973 243.978622 
L 134.608908 247.970542 
L 135.698778 253.27608 
L 136.243714 256.200576 
L 136.788649 256.594765 
L 137.878519 245.324567 
L 138.423454 241.143023 
L 138.96839 239.098457 
L 139.513325 243.749737 
L 140.05826 246.822964 
L 140.603195 241.96969 
L 141.14813 241.011645 
L 141.693065 235.418126 
L 142.238001 233.431209 
L 142.782936 232.828106 
L 143.327871 229.641165 
L 143.872806 239.887263 
L 144.417741 240.774028 
L 144.962677 244.55224 
L 145.507612 238.657644 
L 146.052547 243.005592 
L 146.597482 241.251883 
L 147.142417 243.978847 
L 147.687353 240.610484 
L 148.232288 235.595166 
L 148.777223 236.863165 
L 149.322158 236.014541 
L 149.867093 234.688582 
L 150.412028 229.30347 
L 150.956964 231.409061 
L 151.501899 231.026838 
L 152.046834 233.819201 
L 152.591769 240.227191 
L 153.136704 238.956803 
L 153.68164 235.998603 
L 154.226575 241.404364 
L 154.77151 230.67214 
L 155.316445 235.689273 
L 155.86138 230.571945 
L 156.406315 227.971942 
L 156.951251 239.491841 
L 157.496186 239.626876 
L 158.041121 250.196796 
L 158.586056 250.882321 
L 159.130991 246.309303 
L 159.675927 233.795594 
L 160.220862 228.435488 
L 160.765797 238.767673 
L 161.310732 241.119306 
L 161.855667 230.920745 
L 162.400602 229.66972 
L 162.945538 217.587136 
L 163.490473 222.530577 
L 164.035408 226.320041 
L 164.580343 235.487251 
L 165.125278 238.077958 
L 165.670214 229.538164 
L 166.215149 235.839529 
L 166.760084 230.163773 
L 167.305019 227.034252 
L 167.849954 221.646643 
L 168.394889 223.412633 
L 168.939825 223.250577 
L 169.48476 208.584817 
L 170.029695 217.160178 
L 170.57463 211.940557 
L 171.119565 201.447258 
L 171.664501 198.255161 
L 172.209436 186.740766 
L 172.754371 207.316849 
L 173.299306 209.433218 
L 173.844241 217.49537 
L 174.389176 220.388712 
L 174.934112 221.173461 
L 175.479047 217.927259 
L 176.023982 223.838265 
L 176.568917 217.925953 
L 177.113852 228.754491 
L 177.658788 222.274632 
L 178.203723 224.085201 
L 179.838528 260.558047 
L 180.383464 267.353501 
L 180.928399 266.750362 
L 181.473334 258.126437 
L 182.018269 253.052883 
L 182.563204 262.180369 
L 183.108139 277.684749 
L 183.653075 279.911 
L 184.19801 289.54786 
L 184.742945 290.966059 
L 185.28788 295.736935 
L 185.832815 279.125677 
L 186.377751 290.766188 
L 186.922686 289.009451 
L 187.467621 277.092093 
L 188.012556 280.137144 
L 188.557491 285.637653 
L 189.102426 274.893903 
L 190.192297 300.847472 
L 190.737232 309.218182 
L 191.282167 307.007775 
L 191.827102 302.351092 
L 192.372038 303.559794 
L 192.916973 289.640016 
L 193.461908 291.353611 
L 194.006843 291.720902 
L 194.551778 294.073517 
L 195.096713 286.303331 
L 195.641649 286.523521 
L 196.186584 289.395518 
L 196.731519 278.499209 
L 197.276454 270.132951 
L 197.821389 263.602725 
L 198.91126 279.522969 
L 200.00113 283.086322 
L 200.546065 286.022705 
L 201.091 287.570225 
L 201.635936 283.333693 
L 202.180871 290.063167 
L 202.725806 288.457184 
L 203.270741 291.077747 
L 203.815676 294.244124 
L 204.360612 296.077521 
L 204.905547 291.163372 
L 205.450482 289.249317 
L 205.995417 294.33522 
L 206.540352 292.04458 
L 207.085288 291.011314 
L 207.630223 288.11075 
L 208.175158 289.652673 
L 208.720093 282.82907 
L 209.265028 280.03856 
L 210.354899 295.480552 
L 210.899834 304.393993 
L 211.444769 301.452242 
L 211.989704 305.626872 
L 212.534639 307.548316 
L 213.079575 307.629641 
L 213.62451 299.208701 
L 214.169445 284.413831 
L 214.71438 284.724744 
L 215.259315 271.047086 
L 215.80425 266.919261 
L 216.349186 258.367492 
L 216.894121 259.755768 
L 217.439056 267.571921 
L 217.983991 263.840201 
L 218.528926 254.669557 
L 219.073862 264.640057 
L 219.618797 264.539993 
L 220.163732 262.566778 
L 220.708667 258.053187 
L 221.253602 264.82234 
L 221.798537 268.044444 
L 222.343473 261.318156 
L 222.888408 248.653248 
L 223.433343 247.440634 
L 223.978278 240.289663 
L 224.523213 238.606988 
L 225.068149 235.143073 
L 225.613084 237.246419 
L 226.158019 238.273819 
L 226.702954 241.647346 
L 227.247889 240.448277 
L 227.792824 232.418239 
L 228.33776 230.593558 
L 228.882695 225.584836 
L 229.42763 229.433433 
L 229.972565 224.003756 
L 230.5175 244.966337 
L 231.062436 254.061535 
L 231.607371 255.815945 
L 232.152306 267.522471 
L 232.697241 263.24121 
L 233.242176 261.356029 
L 233.787112 266.990075 
L 234.332047 265.865146 
L 234.876982 275.454048 
L 235.421917 280.980065 
L 235.966852 283.047078 
L 236.511787 293.163997 
L 237.056723 285.789268 
L 237.601658 289.651265 
L 238.146593 282.412055 
L 238.691528 282.892918 
L 239.236463 280.341315 
L 239.781399 285.880389 
L 240.326334 287.413127 
L 240.871269 289.697736 
L 241.416204 287.6539 
L 241.961139 278.063153 
L 242.506074 281.28551 
L 243.05101 281.861748 
L 243.595945 278.972561 
L 244.14088 272.752097 
L 244.685815 272.977379 
L 245.23075 275.007674 
L 245.775686 278.363505 
L 246.320621 277.79468 
L 246.865556 275.668964 
L 247.410491 279.681418 
L 247.955426 281.189016 
L 248.500361 275.637492 
L 249.045297 275.277601 
L 249.590232 278.548196 
L 251.769973 258.440746 
L 252.314908 260.549695 
L 252.859843 258.642671 
L 253.404778 255.992264 
L 253.949713 254.630847 
L 254.494648 265.828974 
L 255.039584 265.412554 
L 255.584519 262.526709 
L 256.129454 258.677199 
L 256.674389 260.125968 
L 257.219324 259.364921 
L 258.309195 280.223444 
L 258.85413 299.172015 
L 259.399065 300.134866 
L 260.488936 276.894027 
L 261.033871 283.800488 
L 261.578806 278.967074 
L 262.123741 270.083574 
L 262.668676 271.559505 
L 263.213611 284.014715 
L 263.758547 274.071486 
L 264.848417 277.949061 
L 265.393352 266.045581 
L 265.938287 262.356111 
L 266.483223 256.14772 
L 267.028158 244.801808 
L 267.573093 245.215452 
L 268.118028 251.185674 
L 268.662963 245.264212 
L 269.207898 244.615756 
L 269.752834 238.92449 
L 270.297769 235.510261 
L 270.842704 239.951304 
L 271.387639 239.027154 
L 271.932574 240.539793 
L 272.47751 241.361434 
L 273.022445 240.859618 
L 273.56738 237.696867 
L 274.112315 235.485802 
L 274.65725 243.298746 
L 275.202185 238.20921 
L 275.747121 247.079526 
L 276.292056 231.247226 
L 276.836991 235.592485 
L 277.381926 235.155816 
L 277.926861 225.195143 
L 278.471797 225.70064 
L 279.561667 242.319294 
L 280.106602 239.559746 
L 280.651537 235.914723 
L 281.196472 229.424408 
L 281.741408 226.710558 
L 282.286343 229.129373 
L 282.831278 225.047266 
L 283.376213 214.320076 
L 283.921148 218.945527 
L 284.466084 193.401203 
L 285.011019 195.424885 
L 285.555954 185.82278 
L 286.100889 171.706888 
L 286.645824 164.377386 
L 287.19076 161.340365 
L 287.735695 155.315754 
L 288.28063 144.901408 
L 288.825565 162.787127 
L 289.3705 158.645732 
L 289.915435 160.638941 
L 290.460371 164.676278 
L 291.005306 162.981189 
L 291.550241 160.857228 
L 292.095176 156.504572 
L 292.640111 159.822493 
L 293.185047 150.986951 
L 293.729982 165.027075 
L 294.274917 171.090786 
L 294.819852 178.906746 
L 295.364787 177.462044 
L 295.909722 180.284288 
L 296.454658 175.902594 
L 296.999593 180.764611 
L 297.544528 171.093152 
L 298.089463 165.233023 
L 298.634398 168.251493 
L 299.179334 179.559117 
L 299.724269 187.300887 
L 300.269204 197.516721 
L 300.814139 188.32324 
L 301.359074 182.472211 
L 301.904009 190.767124 
L 302.448945 177.019364 
L 302.99388 178.525172 
L 303.538815 193.703429 
L 304.628685 175.851243 
L 305.173621 175.230922 
L 305.718556 180.953351 
L 306.263491 171.705847 
L 306.808426 174.683628 
L 307.353361 174.232361 
L 307.898296 170.346908 
L 308.443232 167.613027 
L 308.988167 170.275675 
L 309.533102 177.03004 
L 310.078037 171.156667 
L 310.622972 186.083551 
L 311.712843 180.727302 
L 312.257778 176.454047 
L 312.802713 178.454426 
L 313.347648 176.32395 
L 313.892584 170.152562 
L 314.437519 176.908939 
L 314.982454 175.941386 
L 315.527389 172.675694 
L 316.072324 180.929869 
L 316.617259 186.962073 
L 317.162195 175.299037 
L 317.70713 167.394814 
L 318.252065 172.042649 
L 318.797 166.354456 
L 319.341935 162.865339 
L 320.431806 143.532839 
L 320.976741 160.218763 
L 321.521676 161.732922 
L 322.611546 139.040165 
L 323.156482 142.844914 
L 323.701417 151.029945 
L 324.246352 148.589636 
L 324.791287 152.55459 
L 325.336222 152.059272 
L 325.881158 159.760289 
L 326.426093 153.713304 
L 327.515963 145.143758 
L 328.060898 152.366534 
L 328.605833 163.734731 
L 329.150769 172.149221 
L 329.695704 168.051702 
L 330.240639 180.099589 
L 330.785574 174.887837 
L 331.330509 161.784096 
L 331.875445 165.62611 
L 332.42038 166.340581 
L 333.51025 151.668443 
L 334.055185 155.451718 
L 334.60012 156.083442 
L 335.145056 154.602613 
L 335.689991 155.870412 
L 336.234926 151.135237 
L 336.779861 148.154418 
L 337.324796 138.17621 
L 337.869732 149.741897 
L 338.414667 140.64476 
L 338.959602 134.139381 
L 339.504537 134.445737 
L 340.049472 130.796058 
L 340.594408 123.095104 
L 341.139343 120.257996 
L 341.684278 121.390831 
L 342.229213 118.685847 
L 342.774148 123.062753 
L 343.319083 131.854906 
L 344.408954 142.345496 
L 344.953889 140.326706 
L 345.498824 133.970311 
L 346.043759 131.542886 
L 346.588695 120.361642 
L 347.13363 120.323406 
L 348.2235 128.848022 
L 348.768435 134.640768 
L 349.31337 136.138702 
L 349.858306 125.550954 
L 350.403241 135.440199 
L 350.948176 130.763888 
L 351.493111 130.134543 
L 352.038046 123.348857 
L 352.582982 125.972791 
L 353.127917 119.942463 
L 353.672852 122.736959 
L 354.217787 117.346757 
L 354.762722 130.640154 
L 355.307657 126.244732 
L 355.852593 120.005021 
L 356.397528 130.625878 
L 356.942463 123.617308 
L 357.487398 130.898646 
L 358.032333 122.853095 
L 358.577269 121.945179 
L 359.122204 116.016645 
L 359.667139 112.33705 
L 360.212074 120.039771 
L 361.301944 97.885891 
L 361.84688 104.317442 
L 362.93675 94.682143 
L 363.481685 98.577209 
L 364.02662 105.098362 
L 364.571556 94.617732 
L 365.116491 96.423884 
L 365.661426 88.63924 
L 366.206361 73.427886 
L 366.751296 68.661368 
L 367.296232 74.082897 
L 367.841167 65.591834 
L 368.386102 74.633247 
L 368.931037 80.183949 
L 369.475972 57.203584 
L 370.020907 61.96146 
L 370.565843 58.149544 
L 371.110778 64.864528 
L 371.655713 64.580377 
L 372.200648 61.887273 
L 372.745583 80.389273 
L 373.290519 84.062838 
L 373.835454 77.995527 
L 374.380389 70.386398 
L 374.925324 66.705612 
L 375.470259 72.588384 
L 376.015194 68.495646 
L 376.56013 71.0077 
L 377.105065 75.600749 
L 377.65 74.473822 
L 378.194935 56.359472 
L 378.73987 61.977326 
L 379.284806 53.058566 
L 379.829741 50.022396 
L 380.374676 60.03195 
L 380.919611 65.730088 
L 381.464546 65.892863 
L 382.009481 68.314546 
L 382.554417 65.268142 
L 383.644287 78.003447 
L 384.189222 69.461897 
L 384.734157 68.619017 
L 385.279093 73.866436 
L 385.824028 72.795368 
L 386.368963 58.035546 
L 386.913898 61.313745 
L 387.458833 71.345445 
L 388.003768 63.315075 
L 388.548704 47.529562 
L 389.093639 36.961291 
L 389.638574 45.843707 
L 390.183509 60.288054 
L 390.728444 49.817437 
L 391.27338 50.174142 
L 391.818315 45.394455 
L 392.36325 45.834037 
L 392.908185 32.176749 
L 393.45312 30.680387 
L 393.998056 32.152456 
L 394.542991 30.164911 
L 395.087926 38.3623 
L 395.632861 36.238957 
L 396.177796 36.050317 
L 396.722731 51.16996 
L 397.812602 67.494249 
L 398.357537 78.385024 
L 398.902472 74.98503 
L 399.447407 65.856617 
L 399.992343 62.723251 
L 400.537278 73.057915 
L 401.082213 85.55601 
L 401.627148 79.109792 
L 402.172083 80.738916 
L 402.717018 80.840787 
L 403.261954 89.788077 
L 403.806889 104.05603 
L 404.351824 87.216775 
L 404.896759 91.107208 
L 405.441694 91.962513 
L 405.98663 99.810377 
L 406.531565 88.046119 
L 407.0765 90.132758 
L 407.621435 90.80782 
L 408.16637 89.986042 
L 408.711305 89.600835 
L 409.256241 78.669683 
L 409.801176 91.639335 
L 410.346111 86.56847 
L 410.891046 90.704917 
L 411.435981 93.282625 
L 411.980917 97.399847 
L 412.525852 93.872578 
L 413.070787 102.875557 
L 413.615722 106.429664 
L 414.160657 101.959504 
L 415.250528 108.885218 
L 415.795463 105.787388 
L 416.340398 104.790213 
L 416.885333 106.8866 
L 417.430268 106.152314 
L 417.975204 112.262199 
L 418.520139 105.698326 
L 419.065074 113.326553 
L 419.610009 124.633343 
L 420.154944 121.258088 
L 420.69988 130.453481 
L 421.244815 137.04141 
L 421.78975 138.325024 
L 422.334685 133.000086 
L 423.969491 141.971858 
L 424.514426 139.075141 
L 425.059361 142.529416 
L 425.604296 140.636793 
L 426.149231 130.727721 
L 426.694167 132.18369 
L 427.239102 134.704347 
L 428.873907 155.220512 
L 429.418842 162.885967 
L 429.963778 166.877726 
L 430.508713 164.414273 
L 431.053648 160.901154 
L 431.598583 163.859314 
L 432.143518 161.515677 
L 432.688454 170.589754 
L 433.233389 155.925818 
L 433.778324 138.245458 
L 434.323259 139.018412 
L 434.868194 135.328557 
L 435.413129 134.544419 
L 435.958065 128.878601 
L 436.503 133.335061 
L 437.047935 144.12099 
L 437.59287 138.274557 
L 438.137805 145.981414 
L 438.682741 143.397101 
L 439.772611 155.269298 
L 440.317546 148.206449 
L 440.862481 136.618454 
L 441.407416 137.639322 
L 441.952352 140.570249 
L 442.497287 138.347044 
L 443.042222 142.163196 
L 443.587157 154.390933 
L 444.132092 154.452135 
L 444.677028 170.158831 
L 445.221963 167.058973 
L 445.766898 170.521285 
L 446.311833 169.106199 
L 446.856768 179.338748 
L 447.401704 184.494886 
L 447.946639 180.461286 
L 448.491574 170.838897 
L 449.036509 164.86873 
L 449.581444 162.081774 
L 450.126379 169.845927 
L 450.671315 165.760675 
L 451.21625 164.758351 
L 451.761185 166.920049 
L 452.30612 157.663816 
L 452.851055 163.02787 
L 453.395991 150.50917 
L 454.485861 159.749573 
L 455.030796 160.377581 
L 455.575731 169.612069 
L 456.120666 172.842748 
L 456.665602 172.226624 
L 457.210537 184.032493 
L 457.755472 189.75 
L 458.300407 199.331481 
L 458.845342 202.311331 
L 459.390278 194.380114 
L 459.935213 197.338796 
L 460.480148 198.591256 
L 461.025083 196.988038 
L 461.570018 204.611022 
L 462.114953 203.0009 
L 462.659889 206.536222 
L 463.204824 210.937182 
L 463.749759 222.603607 
L 464.294694 226.866758 
L 465.384565 211.462497 
L 465.9295 213.446582 
L 466.474435 212.921628 
L 467.01937 215.76584 
L 467.564305 223.231015 
L 468.10924 235.401973 
L 468.654176 223.763469 
L 469.199111 230.405166 
L 469.744046 228.892635 
L 470.288981 218.227566 
L 470.833916 220.731612 
L 471.378852 221.72606 
L 471.923787 219.761377 
L 472.468722 222.024905 
L 473.013657 220.123282 
L 473.558592 222.212258 
L 474.103528 214.243199 
L 474.648463 210.643673 
L 475.738333 227.27138 
L 477.373139 239.818901 
L 477.918074 233.204277 
L 478.463009 237.723559 
L 479.007944 240.433364 
L 479.552879 239.092919 
L 480.097815 252.066291 
L 480.64275 248.775896 
L 481.187685 244.468182 
L 481.73262 234.605683 
L 482.277555 240.80488 
L 482.82249 243.490868 
L 483.367426 241.617839 
L 483.912361 243.686091 
L 484.457296 252.990119 
L 485.002231 246.43688 
L 485.547166 247.854344 
L 486.092102 245.015498 
L 486.637037 251.719425 
L 487.181972 244.784308 
L 487.726907 246.615344 
L 488.271842 250.91919 
L 488.816777 245.102416 
L 489.361713 237.119085 
L 489.906648 242.886012 
L 490.451583 235.635353 
L 490.996518 224.101481 
L 491.541453 221.76696 
L 492.086389 230.802805 
L 492.631324 226.384622 
L 493.176259 218.558587 
L 493.721194 224.944676 
L 494.266129 212.953222 
L 494.811064 213.715423 
L 495.356 213.947997 
L 495.900935 205.831013 
L 496.44587 203.794759 
L 496.990805 194.562264 
L 497.53574 194.03617 
L 498.080676 190.728105 
L 498.625611 189.955628 
L 499.170546 187.681887 
L 500.260416 179.007317 
L 500.805352 180.501133 
L 501.350287 173.319848 
L 501.895222 173.308084 
L 502.440157 164.225579 
L 502.985092 159.237358 
L 503.530027 159.236272 
L 504.074963 163.777539 
L 504.619898 162.853181 
L 505.164833 152.400856 
L 505.709768 150.406987 
L 506.254703 142.840275 
L 506.799639 142.809458 
L 507.344574 144.409296 
L 507.889509 148.733263 
L 508.434444 161.868363 
L 508.979379 159.031886 
L 509.524314 158.151611 
L 510.06925 157.895224 
L 510.614185 151.751241 
L 511.15912 158.127925 
L 511.704055 145.471371 
L 512.24899 155.275846 
L 512.793926 152.901457 
L 513.338861 160.74441 
L 513.883796 162.087608 
L 514.428731 153.315953 
L 514.973666 163.297751 
L 515.518601 161.463381 
L 516.063537 160.130195 
L 516.608472 158.304089 
L 517.153407 155.943758 
L 517.698342 149.691703 
L 518.788213 142.374203 
L 519.333148 135.432458 
L 519.878083 130.117108 
L 520.423018 130.486487 
L 520.967953 138.747374 
L 521.512888 132.504821 
L 522.057824 134.433482 
L 522.602759 122.049904 
L 523.147694 125.551126 
L 523.692629 133.687927 
L 524.237564 125.005039 
L 524.7825 129.839348 
L 525.327435 140.050704 
L 525.87237 131.085645 
L 526.417305 140.989284 
L 526.96224 131.038044 
L 527.507176 137.373498 
L 528.052111 133.942307 
L 528.597046 131.835033 
L 529.141981 144.330921 
L 529.686916 143.943527 
L 530.231851 146.446288 
L 530.776787 145.055715 
L 531.321722 140.768423 
L 531.866657 128.955297 
L 532.411592 130.172606 
L 532.956527 130.398266 
L 533.501463 114.346467 
L 534.591333 102.534303 
L 535.681203 122.806966 
L 536.226138 126.307617 
L 536.771074 127.172765 
L 537.316009 123.156006 
L 537.860944 102.799494 
L 538.405879 111.434365 
L 538.950814 113.928225 
L 539.49575 108.87579 
L 540.040685 106.418608 
L 540.58562 97.737353 
L 541.130555 99.365546 
L 541.67549 105.444224 
L 542.220425 89.656835 
L 542.765361 85.938124 
L 543.310296 94.265037 
L 543.855231 96.331927 
L 544.400166 96.328665 
L 544.945101 106.787998 
L 545.490037 100.707518 
L 546.034972 99.184133 
L 546.579907 101.454904 
L 547.124842 105.829064 
L 547.669777 93.402045 
L 548.214712 93.613904 
L 548.759648 98.942782 
L 549.304583 113.526666 
L 549.849518 120.912569 
L 550.394453 115.578117 
L 550.939388 104.419073 
L 551.484324 112.592773 
L 552.029259 127.10421 
L 552.574194 126.581222 
L 553.119129 126.643846 
L 553.664064 120.143414 
L 554.209 125.00825 
L 554.753935 123.962432 
L 555.29887 137.061398 
L 555.843805 145.642546 
L 556.933675 152.191523 
L 557.478611 148.154974 
L 558.023546 139.167138 
L 558.568481 149.058853 
L 559.113416 136.767224 
L 559.658351 141.864549 
L 560.203287 144.60825 
L 560.748222 136.270889 
L 561.293157 153.129159 
L 561.838092 163.136414 
L 562.383027 168.69453 
L 562.927962 167.834193 
L 564.017833 151.80255 
L 564.562768 157.974078 
L 565.107703 152.3326 
L 565.652638 154.987095 
L 566.197574 144.056133 
L 566.742509 145.694836 
L 567.287444 137.768072 
L 567.832379 144.769428 
L 568.377314 138.860126 
L 568.922249 148.263622 
L 569.467185 147.123923 
L 570.01212 158.262295 
L 570.557055 158.905967 
L 571.10199 164.101272 
L 571.646925 170.597647 
L 572.191861 168.512989 
L 572.736796 162.560761 
L 573.281731 161.330437 
L 573.826666 158.72425 
L 574.371601 153.17478 
L 575.461472 136.318327 
L 576.006407 132.971478 
L 576.551342 118.104894 
L 577.096277 121.33209 
L 577.641212 115.078006 
L 578.186148 122.909405 
L 578.731083 105.078047 
L 579.276018 106.431497 
L 579.820953 104.829741 
L 580.365888 94.262847 
L 580.910824 95.22103 
L 581.455759 100.955389 
L 582.000694 114.028374 
L 582.545629 115.571531 
L 583.090564 100.240636 
L 583.635499 98.586476 
L 584.180435 85.42473 
L 584.72537 78.883633 
L 585.270305 81.795767 
L 585.81524 91.827455 
L 586.360175 92.856379 
L 586.905111 87.916365 
L 587.450046 89.156109 
L 587.994981 87.520177 
L 588.539916 82.892403 
L 589.084851 85.232677 
L 589.629786 95.595575 
L 590.174722 97.704033 
L 590.719657 93.227075 
L 591.264592 99.006304 
L 592.354462 113.55853 
L 592.899398 115.04762 
L 593.444333 115.749695 
L 593.989268 115.970187 
L 594.534203 124.992452 
L 595.079138 124.61433 
L 595.624073 129.005306 
L 596.169009 135.663246 
L 596.713944 148.773783 
L 597.258879 156.573072 
L 597.803814 160.824662 
L 598.348749 159.72199 
L 598.893685 156.738624 
L 599.43862 156.431685 
L 599.983555 154.713723 
L 600.52849 162.647033 
L 602.163296 146.057687 
L 602.708231 149.497011 
L 603.253166 149.994934 
L 603.798101 153.211752 
L 604.343036 162.449851 
L 604.887972 164.736133 
L 605.977842 187.760616 
L 607.067712 179.750431 
L 607.612647 173.738246 
L 608.157583 176.668197 
L 608.702518 176.318621 
L 609.247453 172.409605 
L 609.792388 174.851293 
L 610.337323 188.909162 
L 610.882259 173.033672 
L 611.972129 154.963616 
L 612.517064 154.067559 
L 613.061999 159.456805 
L 613.606935 158.574704 
L 614.15187 156.206022 
L 614.696805 165.555857 
L 615.24174 168.539045 
L 615.786675 164.208936 
L 616.33161 153.13007 
L 616.876546 148.376875 
L 617.421481 150.806333 
L 617.966416 159.462035 
L 618.511351 144.55263 
L 619.056286 143.178166 
L 619.601222 137.181599 
L 620.146157 136.427732 
L 620.691092 145.482051 
L 621.236027 129.386796 
L 621.780962 124.020331 
L 622.325897 114.620136 
L 622.870833 119.775758 
L 623.415768 119.441311 
L 623.960703 108.973599 
L 624.505638 110.993584 
L 625.050573 115.67507 
L 625.595509 123.285216 
L 626.140444 132.523188 
L 626.685379 126.012765 
L 627.230314 125.898689 
L 627.775249 138.31304 
L 628.86512 117.028076 
L 629.410055 108.078734 
L 629.95499 120.95665 
L 630.499925 119.648533 
L 631.04486 109.672499 
L 631.589796 116.651598 
L 632.134731 121.905806 
L 632.679666 123.090472 
L 633.224601 137.093368 
L 633.769536 134.994477 
L 634.314471 127.311234 
L 634.859407 121.957545 
L 635.404342 110.550147 
L 635.949277 109.303098 
L 636.494212 108.9611 
L 637.039147 109.772916 
L 637.584083 114.308695 
L 638.129018 121.541604 
L 638.673953 126.358456 
L 639.218888 126.419113 
L 639.763823 129.765161 
L 640.853694 127.33936 
L 641.398629 122.173781 
L 641.943564 125.355881 
L 642.488499 139.708905 
L 643.033434 146.054459 
L 643.57837 131.802153 
L 644.123305 125.832279 
L 644.66824 128.227443 
L 645.213175 129.153631 
L 645.75811 129.222744 
L 646.303046 132.053672 
L 646.847981 130.084486 
L 647.392916 124.568703 
L 647.937851 115.166455 
L 648.482786 117.228106 
L 649.572657 120.59806 
L 650.117592 119.813631 
L 650.662527 111.521774 
L 651.207462 116.434349 
L 651.752397 99.766447 
L 652.297333 95.105565 
L 652.842268 86.336851 
L 653.387203 92.384869 
L 653.932138 94.544003 
L 654.477073 97.793775 
L 655.022008 96.852499 
L 655.566944 111.133011 
L 656.111879 106.90179 
L 656.656814 118.530627 
L 657.201749 115.171515 
L 657.746684 107.10669 
L 658.29162 106.865783 
L 659.38149 107.963388 
L 659.926425 108.858793 
L 660.47136 106.203241 
L 661.016295 98.789408 
L 661.561231 93.236858 
L 662.106166 81.323957 
L 662.651101 79.749444 
L 663.740971 85.111514 
L 664.285907 93.246758 
L 664.830842 95.08527 
L 665.375777 98.385545 
L 665.920712 84.195196 
L 666.465647 79.226774 
L 667.010583 64.753864 
L 667.555518 77.784577 
L 668.100453 74.396113 
L 668.645388 65.570632 
L 669.190323 61.953216 
L 669.735258 64.177389 
L 670.825129 59.680094 
L 671.370064 57.438643 
L 671.914999 54.184693 
L 672.459934 45.790984 
L 673.549805 39.287435 
L 674.09474 37.8064 
L 674.639675 32.984481 
L 675.18461 36.955277 
L 675.729545 31.166403 
L 675.729545 31.166403 
" style="fill:none;stroke:#86a776;stroke-linecap:square;stroke-width:2;"/>
   </g>
   <g id="patch_3">
    <path d="M 49.7625 323.6 
L 49.7625 7.2 
" style="fill:none;"/>
   </g>
   <g id="patch_4">
    <path d="M 705.5375 323.6 
L 705.5375 7.2 
" style="fill:none;"/>
   </g>
   <g id="patch_5">
    <path d="M 49.7625 323.6 
L 705.5375 323.6 
" style="fill:none;"/>
   </g>
   <g id="patch_6">
    <path d="M 49.7625 7.2 
L 705.5375 7.2 
" style="fill:none;"/>
   </g>
   <g id="legend_1">
    <g id="line2d_24">
     <path d="M 58.7625 24.8575 
L 78.7625 24.8575 
" style="fill:none;stroke:#6083a9;stroke-linecap:square;stroke-width:2;"/>
    </g>
    <g id="line2d_25"/>
    <g id="text_15">
     <!-- Calm Corp -->
     <defs>
      <path d="M 64.40625 67.28125 
L 64.40625 56.890625 
Q 59.421875 61.53125 53.78125 63.8125 
Q 48.140625 66.109375 41.796875 66.109375 
Q 29.296875 66.109375 22.65625 58.46875 
Q 16.015625 50.828125 16.015625 36.375 
Q 16.015625 21.96875 22.65625 14.328125 
Q 29.296875 6.6875 41.796875 6.6875 
Q 48.140625 6.6875 53.78125 8.984375 
Q 59.421875 11.28125 64.40625 15.921875 
L 64.40625 5.609375 
Q 59.234375 2.09375 53.4375 0.328125 
Q 47.65625 -1.421875 41.21875 -1.421875 
Q 24.65625 -1.421875 15.125 8.703125 
Q 5.609375 18.84375 5.609375 36.375 
Q 5.609375 53.953125 15.125 64.078125 
Q 24.65625 74.21875 41.21875 74.21875 
Q 47.75 74.21875 53.53125 72.484375 
Q 59.328125 70.75 64.40625 67.28125 
z
" id="DejaVuSans-67"/>
      <path d="M 34.28125 27.484375 
Q 23.390625 27.484375 19.1875 25 
Q 14.984375 22.515625 14.984375 16.5 
Q 14.984375 11.71875 18.140625 8.90625 
Q 21.296875 6.109375 26.703125 6.109375 
Q 34.1875 6.109375 38.703125 11.40625 
Q 43.21875 16.703125 43.21875 25.484375 
L 43.21875 27.484375 
z
M 52.203125 31.203125 
L 52.203125 0 
L 43.21875 0 
L 43.21875 8.296875 
Q 40.140625 3.328125 35.546875 0.953125 
Q 30.953125 -1.421875 24.3125 -1.421875 
Q 15.921875 -1.421875 10.953125 3.296875 
Q 6 8.015625 6 15.921875 
Q 6 25.140625 12.171875 29.828125 
Q 18.359375 34.515625 30.609375 34.515625 
L 43.21875 34.515625 
L 43.21875 35.40625 
Q 43.21875 41.609375 39.140625 45 
Q 35.0625 48.390625 27.6875 48.390625 
Q 23 48.390625 18.546875 47.265625 
Q 14.109375 46.140625 10.015625 43.890625 
L 10.015625 52.203125 
Q 14.9375 54.109375 19.578125 55.046875 
Q 24.21875 56 28.609375 56 
Q 40.484375 56 46.34375 49.84375 
Q 52.203125 43.703125 52.203125 31.203125 
z
" id="DejaVuSans-97"/>
      <path d="M 52 44.1875 
Q 55.375 50.25 60.0625 53.125 
Q 64.75 56 71.09375 56 
Q 79.640625 56 84.28125 50.015625 
Q 88.921875 44.046875 88.921875 33.015625 
L 88.921875 0 
L 79.890625 0 
L 79.890625 32.71875 
Q 79.890625 40.578125 77.09375 44.375 
Q 74.3125 48.1875 68.609375 48.1875 
Q 61.625 48.1875 57.5625 43.546875 
Q 53.515625 38.921875 53.515625 30.90625 
L 53.515625 0 
L 44.484375 0 
L 44.484375 32.71875 
Q 44.484375 40.625 41.703125 44.40625 
Q 38.921875 48.1875 33.109375 48.1875 
Q 26.21875 48.1875 22.15625 43.53125 
Q 18.109375 38.875 18.109375 30.90625 
L 18.109375 0 
L 9.078125 0 
L 9.078125 54.6875 
L 18.109375 54.6875 
L 18.109375 46.1875 
Q 21.1875 51.21875 25.484375 53.609375 
Q 29.78125 56 35.6875 56 
Q 41.65625 56 45.828125 52.96875 
Q 50 49.953125 52 44.1875 
z
" id="DejaVuSans-109"/>
      <path id="DejaVuSans-32"/>
      <path d="M 30.609375 48.390625 
Q 23.390625 48.390625 19.1875 42.75 
Q 14.984375 37.109375 14.984375 27.296875 
Q 14.984375 17.484375 19.15625 11.84375 
Q 23.34375 6.203125 30.609375 6.203125 
Q 37.796875 6.203125 41.984375 11.859375 
Q 46.1875 17.53125 46.1875 27.296875 
Q 46.1875 37.015625 41.984375 42.703125 
Q 37.796875 48.390625 30.609375 48.390625 
z
M 30.609375 56 
Q 42.328125 56 49.015625 48.375 
Q 55.71875 40.765625 55.71875 27.296875 
Q 55.71875 13.875 49.015625 6.21875 
Q 42.328125 -1.421875 30.609375 -1.421875 
Q 18.84375 -1.421875 12.171875 6.21875 
Q 5.515625 13.875 5.515625 27.296875 
Q 5.515625 40.765625 12.171875 48.375 
Q 18.84375 56 30.609375 56 
z
" id="DejaVuSans-111"/>
      <path d="M 41.109375 46.296875 
Q 39.59375 47.171875 37.8125 47.578125 
Q 36.03125 48 33.890625 48 
Q 26.265625 48 22.1875 43.046875 
Q 18.109375 38.09375 18.109375 28.8125 
L 18.109375 0 
L 9.078125 0 
L 9.078125 54.6875 
L 18.109375 54.6875 
L 18.109375 46.1875 
Q 20.953125 51.171875 25.484375 53.578125 
Q 30.03125 56 36.53125 56 
Q 37.453125 56 38.578125 55.875 
Q 39.703125 55.765625 41.0625 55.515625 
z
" id="DejaVuSans-114"/>
      <path d="M 18.109375 8.203125 
L 18.109375 -20.796875 
L 9.078125 -20.796875 
L 9.078125 54.6875 
L 18.109375 54.6875 
L 18.109375 46.390625 
Q 20.953125 51.265625 25.265625 53.625 
Q 29.59375 56 35.59375 56 
Q 45.5625 56 51.78125 48.09375 
Q 58.015625 40.1875 58.015625 27.296875 
Q 58.015625 14.40625 51.78125 6.484375 
Q 45.5625 -1.421875 35.59375 -1.421875 
Q 29.59375 -1.421875 25.265625 0.953125 
Q 20.953125 3.328125 18.109375 8.203125 
z
M 48.6875 27.296875 
Q 48.6875 37.203125 44.609375 42.84375 
Q 40.53125 48.484375 33.40625 48.484375 
Q 26.265625 48.484375 22.1875 42.84375 
Q 18.109375 37.203125 18.109375 27.296875 
Q 18.109375 17.390625 22.1875 11.75 
Q 26.265625 6.109375 33.40625 6.109375 
Q 40.53125 6.109375 44.609375 11.75 
Q 48.6875 17.390625 48.6875 27.296875 
z
" id="DejaVuSans-112"/>
     </defs>
     <g style="fill:#2f2235;" transform="translate(86.7625 28.3575)scale(0.16 -0.16)">
      <use xlink:href="#DejaVuSans-67"/>
      <use x="69.824219" xlink:href="#DejaVuSans-97"/>
      <use x="131.103516" xlink:href="#DejaVuSans-108"/>
      <use x="158.886719" xlink:href="#DejaVuSans-109"/>
      <use x="256.298828" xlink:href="#DejaVuSans-32"/>
      <use x="288.085938" xlink:href="#DejaVuSans-67"/>
      <use x="357.910156" xlink:href="#DejaVuSans-111"/>
      <use x="419.091797" xlink:href="#DejaVuSans-114"/>
      <use x="460.205078" xlink:href="#DejaVuSans-112"/>
     </g>
    </g>
    <g id="line2d_26">
     <path d="M 58.7625 45.3425 
L 78.7625 45.3425 
" style="fill:none;stroke:#86a776;stroke-linecap:square;stroke-width:2;"/>
    </g>
    <g id="line2d_27"/>
    <g id="text_16">
     <!-- Crazy Corp -->
     <defs>
      <path d="M 5.515625 54.6875 
L 48.1875 54.6875 
L 48.1875 46.484375 
L 14.40625 7.171875 
L 48.1875 7.171875 
L 48.1875 0 
L 4.296875 0 
L 4.296875 8.203125 
L 38.09375 47.515625 
L 5.515625 47.515625 
z
" id="DejaVuSans-122"/>
      <path d="M 32.171875 -5.078125 
Q 28.375 -14.84375 24.75 -17.8125 
Q 21.140625 -20.796875 15.09375 -20.796875 
L 7.90625 -20.796875 
L 7.90625 -13.28125 
L 13.1875 -13.28125 
Q 16.890625 -13.28125 18.9375 -11.515625 
Q 21 -9.765625 23.484375 -3.21875 
L 25.09375 0.875 
L 2.984375 54.6875 
L 12.5 54.6875 
L 29.59375 11.921875 
L 46.6875 54.6875 
L 56.203125 54.6875 
z
" id="DejaVuSans-121"/>
     </defs>
     <g style="fill:#2f2235;" transform="translate(86.7625 48.8425)scale(0.16 -0.16)">
      <use xlink:href="#DejaVuSans-67"/>
      <use x="69.824219" xlink:href="#DejaVuSans-114"/>
      <use x="110.9375" xlink:href="#DejaVuSans-97"/>
      <use x="172.216797" xlink:href="#DejaVuSans-122"/>
      <use x="224.707031" xlink:href="#DejaVuSans-121"/>
      <use x="283.886719" xlink:href="#DejaVuSans-32"/>
      <use x="315.673828" xlink:href="#DejaVuSans-67"/>
      <use x="385.498047" xlink:href="#DejaVuSans-111"/>
      <use x="446.679688" xlink:href="#DejaVuSans-114"/>
      <use x="487.792969" xlink:href="#DejaVuSans-112"/>
     </g>
    </g>
   </g>
  </g>
 </g>
 <defs>
  <clipPath id="p49a5bb2bf2">
   <rect height="316.4" width="655.775" x="49.7625" y="7.2"/>
  </clipPath>
 </defs>
</svg>
