<?xml version="1.0" encoding="utf-8" standalone="no"?>
<!DOCTYPE svg PUBLIC "-//W3C//DTD SVG 1.1//EN"
  "http://www.w3.org/Graphics/SVG/1.1/DTD/svg11.dtd">
<svg xmlns:xlink="http://www.w3.org/1999/xlink" width="712.8pt" height="352.8pt" viewBox="0 0 712.8 352.8" xmlns="http://www.w3.org/2000/svg" version="1.1">
 <metadata>
  <rdf:RDF xmlns:dc="http://purl.org/dc/elements/1.1/" xmlns:cc="http://creativecommons.org/ns#" xmlns:rdf="http://www.w3.org/1999/02/22-rdf-syntax-ns#">
   <cc:Work>
    <dc:type rdf:resource="http://purl.org/dc/dcmitype/StillImage"/>
    <dc:date>2025-11-18T15:16:05.669992</dc:date>
    <dc:format>image/svg+xml</dc:format>
    <dc:creator>
     <cc:Agent>
      <dc:title>Matplotlib v3.10.7, https://matplotlib.org/</dc:title>
     </cc:Agent>
    </dc:creator>
   </cc:Work>
  </rdf:RDF>
 </metadata>
 <defs>
  <style type="text/css">*{stroke-linejoin: round; stroke-linecap: butt}</style>
 </defs>
 <g id="figure_1">
  <g id="patch_1">
   <path d="M 0 352.8 
L 712.8 352.8 
L 712.8 0 
L 0 0 
L 0 352.8 
z
" style="fill: none"/>
  </g>
  <g id="axes_1">
   <g id="patch_2">
    <path d="M 7.2 171 
L 705.6 171 
L 705.6 7.2 
L 7.2 7.2 
L 7.2 171 
z
" style="fill: none"/>
   </g>
   <g id="matplotlib.axis_1"/>
   <g id="matplotlib.axis_2"/>
   <g id="line2d_1">
    <path d="M 38.945455 163.504592 
L 52.291892 163.308773 
L 59.918428 162.990291 
L 65.638329 162.541257 
L 70.087142 161.992328 
L 73.90041 161.325582 
L 77.713677 160.41983 
L 80.8914 159.435241 
L 84.069124 158.195369 
L 86.611302 156.987286 
L 89.153481 155.558315 
L 91.695659 153.880651 
L 94.237838 151.925815 
L 96.780016 149.665313 
L 99.322195 147.071436 
L 101.864373 144.118183 
L 104.406552 140.782305 
L 106.948731 137.044437 
L 109.490909 132.890307 
L 112.033088 128.311956 
L 114.575266 123.308948 
L 117.117445 117.889499 
L 120.295168 110.557784 
L 123.472891 102.662142 
L 127.286159 92.564822 
L 132.370516 78.383699 
L 141.268141 53.425488 
L 144.445864 45.115512 
L 147.623587 37.448431 
L 150.165766 31.912084 
L 152.0724 28.17184 
L 153.979034 24.826651 
L 155.885667 21.910668 
L 157.792301 19.454132 
L 159.698935 17.482855 
L 160.970025 16.448807 
L 162.241114 15.64476 
L 163.512203 15.074552 
L 164.783292 14.740917 
L 166.054382 14.645455 
L 167.325471 14.788625 
L 168.59656 15.169739 
L 169.867649 15.786969 
L 171.138739 16.637359 
L 172.409828 17.71685 
L 173.680917 19.020313 
L 175.587551 21.381712 
L 177.494185 24.208091 
L 179.400819 27.470053 
L 181.307453 31.134187 
L 183.849631 36.581169 
L 186.39181 42.58236 
L 189.569533 50.708818 
L 193.382801 61.107259 
L 207.364783 100.029577 
L 211.178051 109.638658 
L 214.355774 117.041634 
L 217.533497 123.828196 
L 220.075676 128.788958 
L 222.617854 133.324734 
L 225.160033 137.436766 
L 227.702211 141.133698 
L 230.24439 144.43037 
L 232.786568 147.346584 
L 235.328747 149.905918 
L 237.870925 152.134586 
L 240.413104 154.060418 
L 242.955283 155.711938 
L 245.497461 157.117584 
L 248.03964 158.305066 
L 251.217363 159.522792 
L 254.395086 160.488914 
L 258.208354 161.3768 
L 262.021622 162.029693 
L 266.470434 162.566602 
L 272.190336 163.005197 
L 279.181327 163.297994 
L 289.350041 163.476814 
L 309.051925 163.548804 
L 458.404914 163.554545 
L 673.854545 163.554545 
L 673.854545 163.554545 
" clip-path="url(#pc80a4e8ea7)" style="fill: none; stroke-dasharray: 11.1,4.8; stroke-dashoffset: 0; stroke: #1f77b4; stroke-width: 3"/>
   </g>
   <g id="line2d_2">
    <path d="M 38.945455 163.314681 
L 59.282883 162.991012 
L 74.535954 162.534012 
L 87.246847 161.931041 
L 98.051106 161.197698 
L 107.584275 160.334126 
L 116.4819 159.30522 
L 124.74398 158.124251 
L 132.370516 156.815454 
L 139.997052 155.274597 
L 146.988043 153.642143 
L 153.979034 151.787333 
L 160.970025 149.70257 
L 167.961016 147.38517 
L 174.952007 144.838324 
L 182.578542 141.810128 
L 190.205078 138.543852 
L 199.102703 134.478632 
L 209.906962 129.27824 
L 235.328747 116.922317 
L 242.955283 113.50902 
L 249.946274 110.629047 
L 255.666175 108.495745 
L 261.386077 106.59838 
L 266.470434 105.134094 
L 271.554791 103.898425 
L 276.639148 102.907305 
L 281.087961 102.250937 
L 285.536773 101.798388 
L 289.985586 101.554255 
L 294.434398 101.521026 
L 298.88321 101.699042 
L 303.332023 102.086486 
L 307.780835 102.679417 
L 312.865192 103.600883 
L 317.94955 104.770768 
L 323.033907 106.173931 
L 328.118264 107.792483 
L 333.838165 109.845509 
L 340.193612 112.377541 
L 347.184603 115.413588 
L 355.446683 119.253784 
L 367.522031 125.143362 
L 385.317281 133.819187 
L 394.85045 138.205349 
L 403.112531 141.757562 
L 410.739066 144.789945 
L 417.730057 147.340892 
L 424.721048 149.662511 
L 431.712039 151.751496 
L 438.70303 153.610434 
L 445.694021 155.246838 
L 453.320557 156.791732 
L 460.947093 158.104225 
L 469.209173 159.288778 
L 478.106798 160.321035 
L 487.639967 161.187623 
L 497.808681 161.886659 
L 509.248485 162.453261 
L 523.230467 162.911448 
L 540.390172 163.237174 
L 563.905324 163.443505 
L 603.944636 163.539627 
L 673.854545 163.554314 
L 673.854545 163.554314 
" clip-path="url(#pc80a4e8ea7)" style="fill: none; stroke-dasharray: 11.1,4.8; stroke-dashoffset: 0; stroke: #ff7f0e; stroke-width: 3"/>
   </g>
   <g id="patch_3">
    <path d="M 7.2 171 
L 7.2 7.2 
" style="fill: none"/>
   </g>
   <g id="patch_4">
    <path d="M 705.6 171 
L 705.6 7.2 
" style="fill: none"/>
   </g>
   <g id="patch_5">
    <path d="M 7.2 171 
L 705.6 171 
" style="fill: none"/>
   </g>
   <g id="patch_6">
    <path d="M 7.2 7.2 
L 705.6 7.2 
" style="fill: none"/>
   </g>
   <g id="legend_1">
    <g id="patch_7">
     <path d="M 694.6 20.2 
L 698.6 20.2 
Q 700.6 20.2 700.6 18.2 
L 700.6 14.2 
Q 700.6 12.2 698.6 12.2 
L 694.6 12.2 
Q 692.6 12.2 692.6 14.2 
L 692.6 18.2 
Q 692.6 20.2 694.6 20.2 
L 694.6 20.2 
z
" style="fill: none; opacity: 0"/>
    </g>
   </g>
  </g>
  <g id="axes_2">
   <g id="patch_8">
    <path d="M 7.2 345.6 
L 705.6 345.6 
L 705.6 181.8 
L 7.2 181.8 
L 7.2 345.6 
z
" style="fill: none"/>
   </g>
   <g id="matplotlib.axis_3"/>
   <g id="matplotlib.axis_4"/>
   <g id="line2d_3">
    <path d="M 38.945455 338.106742 
L 52.291892 337.919356 
L 59.918428 337.614586 
L 65.638329 337.184886 
L 70.087142 336.659592 
L 73.90041 336.021554 
L 77.713677 335.154801 
L 80.8914 334.212604 
L 84.069124 333.026117 
L 86.611302 331.87005 
L 89.153481 330.502606 
L 91.695659 328.897176 
L 94.237838 327.026508 
L 96.780016 324.863335 
L 99.322195 322.381142 
L 101.864373 319.555046 
L 104.406552 316.362799 
L 106.948731 312.785872 
L 109.490909 308.810604 
L 112.033088 304.429381 
L 114.575266 299.641785 
L 117.752989 293.098674 
L 120.930713 285.969449 
L 124.108436 278.314772 
L 127.921704 268.559565 
L 133.641605 253.19534 
L 140.632596 234.414268 
L 144.445864 224.81509 
L 147.623587 217.478127 
L 150.165766 212.180156 
L 152.707944 207.490212 
L 154.614578 204.422507 
L 156.521212 201.775615 
L 158.427846 199.577115 
L 159.698935 198.3722 
L 160.970025 197.382675 
L 162.241114 196.613247 
L 163.512203 196.067591 
L 164.783292 195.748321 
L 166.054382 195.656969 
L 167.325471 195.793975 
L 168.59656 196.15868 
L 169.867649 196.749334 
L 171.138739 197.563109 
L 172.409828 198.59612 
L 173.680917 199.843461 
L 175.587551 202.103186 
L 177.494185 204.807871 
L 179.400819 207.929384 
L 181.307453 211.435753 
L 183.849631 216.648206 
L 186.39181 222.391007 
L 189.569533 230.167568 
L 193.382801 240.118287 
L 207.364783 277.364744 
L 211.178051 286.560091 
L 214.355774 293.64432 
L 217.533497 300.138677 
L 220.075676 304.885845 
L 222.617854 309.226326 
L 225.160033 313.161308 
L 227.702211 316.699063 
L 230.24439 319.853791 
L 232.786568 322.644444 
L 235.328747 325.093581 
L 237.870925 327.226291 
L 240.413104 329.069203 
L 242.955283 330.649613 
L 245.497461 331.994738 
L 248.675184 333.385558 
L 251.852907 334.499157 
L 255.030631 335.380655 
L 258.843898 336.188779 
L 263.292711 336.862944 
L 268.377068 337.374314 
L 274.732514 337.753747 
L 282.994595 337.995758 
L 296.341032 338.123705 
L 333.202621 338.154412 
L 673.854545 338.154545 
L 673.854545 338.154545 
" clip-path="url(#p4c3f3e116e)" style="fill: none; stroke-dasharray: 11.1,4.8; stroke-dashoffset: 0; stroke: #1f77b4; stroke-width: 3"/>
   </g>
   <g id="line2d_4">
    <path d="M 38.945455 338.056172 
L 68.816052 337.817986 
L 89.153481 337.442407 
L 105.042097 336.93743 
L 119.024079 336.272874 
L 131.099427 335.486561 
L 142.53923 334.525613 
L 153.343489 333.40161 
L 164.147748 332.053398 
L 174.952007 330.478675 
L 186.39181 328.578412 
L 199.102703 326.229972 
L 216.897952 322.684597 
L 237.235381 318.670758 
L 248.03964 316.759664 
L 256.937265 315.392172 
L 265.199345 314.336854 
L 272.82588 313.577209 
L 280.452416 313.046187 
L 287.443407 312.77374 
L 294.434398 312.713445 
L 301.425389 312.866818 
L 308.41638 313.230007 
L 316.042916 313.854731 
L 323.669451 314.699993 
L 331.931532 315.836338 
L 341.464701 317.38499 
L 352.904505 319.491891 
L 370.06421 322.916326 
L 391.037183 327.052239 
L 403.748075 329.322716 
L 415.187879 331.135319 
L 425.992138 332.620028 
L 436.796396 333.87757 
L 447.600655 334.915178 
L 459.040459 335.793166 
L 471.751351 336.53597 
L 485.733333 337.120034 
L 501.621949 337.557407 
L 521.323833 337.870161 
L 548.652252 338.063566 
L 596.953645 338.145685 
L 673.854545 338.154451 
L 673.854545 338.154451 
" clip-path="url(#p4c3f3e116e)" style="fill: none; stroke-dasharray: 11.1,4.8; stroke-dashoffset: 0; stroke: #ff7f0e; stroke-width: 3"/>
   </g>
   <g id="line2d_5">
    <path d="M 38.945455 338.008369 
L 51.656347 337.766485 
L 59.282883 337.418489 
L 65.002785 336.954372 
L 69.451597 336.402647 
L 73.264865 335.743282 
L 77.078133 334.857404 
L 80.255856 333.901616 
L 83.433579 332.704164 
L 85.975758 331.541445 
L 88.517936 330.16932 
L 91.060115 328.561139 
L 93.602293 326.689458 
L 96.144472 324.526645 
L 98.68665 322.0456 
L 101.228829 319.220623 
L 103.771007 316.028376 
L 106.313186 312.448956 
L 108.855364 308.467034 
L 111.397543 304.073025 
L 113.939722 299.264255 
L 116.4819 294.046069 
L 119.659623 286.970395 
L 122.837346 279.328009 
L 126.650614 269.517314 
L 131.099427 257.423108 
L 142.53923 225.896169 
L 145.716953 217.858714 
L 148.259132 211.904871 
L 150.80131 206.478601 
L 153.343489 201.66982 
L 155.250123 198.517674 
L 157.156757 195.78894 
L 159.063391 193.509753 
L 160.33448 192.250912 
L 161.605569 191.206782 
L 162.876658 190.381558 
L 164.147748 189.778388 
L 165.418837 189.399356 
L 166.689926 189.245455 
L 167.961016 189.316587 
L 169.232105 189.611561 
L 170.503194 190.128102 
L 171.774283 190.862872 
L 173.045373 191.811494 
L 174.316462 192.968587 
L 176.223096 195.080992 
L 178.12973 197.622802 
L 180.036364 200.564682 
L 181.942998 203.873645 
L 184.485176 208.79389 
L 187.027355 214.210199 
L 190.205078 221.529656 
L 194.65389 232.452518 
L 205.458149 259.357214 
L 209.271417 268.120029 
L 212.44914 274.891759 
L 215.626863 281.102806 
L 218.169042 285.63596 
L 220.71122 289.76751 
L 223.253399 293.493791 
L 225.795577 296.819086 
L 228.337756 299.754503 
L 230.879934 302.316805 
L 233.422113 304.527234 
L 235.964292 306.410379 
L 238.50647 307.993102 
L 241.048649 309.303581 
L 243.590827 310.370455 
L 246.133006 311.222106 
L 249.310729 312.02583 
L 252.488452 312.586968 
L 256.30172 313.005392 
L 260.750532 313.231152 
L 265.834889 313.258226 
L 274.09697 313.043143 
L 288.078952 312.672586 
L 296.341032 312.703308 
L 303.967568 312.96381 
L 311.594103 313.45837 
L 319.220639 314.180158 
L 327.482719 315.197617 
L 336.380344 316.530744 
L 346.549058 318.294047 
L 359.259951 320.739083 
L 396.757084 328.103854 
L 408.832432 330.157657 
L 419.636691 331.774131 
L 430.44095 333.165204 
L 441.245209 334.330667 
L 452.685012 335.331946 
L 464.76036 336.155388 
L 478.106798 336.828423 
L 492.724324 337.337866 
L 510.519574 337.723845 
L 533.399181 337.979926 
L 567.718591 338.11648 
L 650.974939 338.154139 
L 673.854545 338.154451 
L 673.854545 338.154451 
" clip-path="url(#p4c3f3e116e)" style="fill: none; stroke: #000000; stroke-width: 4; stroke-linecap: square"/>
   </g>
   <g id="patch_9">
    <path d="M 7.2 345.6 
L 7.2 181.8 
" style="fill: none"/>
   </g>
   <g id="patch_10">
    <path d="M 705.6 345.6 
L 705.6 181.8 
" style="fill: none"/>
   </g>
   <g id="patch_11">
    <path d="M 7.2 345.6 
L 705.6 345.6 
" style="fill: none"/>
   </g>
   <g id="patch_12">
    <path d="M 7.2 181.8 
L 705.6 181.8 
" style="fill: none"/>
   </g>
   <g id="legend_2">
    <g id="patch_13">
     <path d="M 694.6 194.8 
L 698.6 194.8 
Q 700.6 194.8 700.6 192.8 
L 700.6 188.8 
Q 700.6 186.8 698.6 186.8 
L 694.6 186.8 
Q 692.6 186.8 692.6 188.8 
L 692.6 192.8 
Q 692.6 194.8 694.6 194.8 
L 694.6 194.8 
z
" style="fill: none; opacity: 0"/>
    </g>
   </g>
  </g>
 </g>
 <defs>
  <clipPath id="pc80a4e8ea7">
   <rect x="7.2" y="7.2" width="698.4" height="163.8"/>
  </clipPath>
  <clipPath id="p4c3f3e116e">
   <rect x="7.2" y="181.8" width="698.4" height="163.8"/>
  </clipPath>
 </defs>
</svg>
