<?xml version="1.0" encoding="utf-8" standalone="no"?>
<!DOCTYPE svg PUBLIC "-//W3C//DTD SVG 1.1//EN"
  "http://www.w3.org/Graphics/SVG/1.1/DTD/svg11.dtd">
<svg xmlns:xlink="http://www.w3.org/1999/xlink" width="857.025313pt" height="207.99625pt" viewBox="0 0 857.025313 207.99625" xmlns="http://www.w3.org/2000/svg" version="1.1">
 <metadata>
  <rdf:RDF xmlns:dc="http://purl.org/dc/elements/1.1/" xmlns:cc="http://creativecommons.org/ns#" xmlns:rdf="http://www.w3.org/1999/02/22-rdf-syntax-ns#">
   <cc:Work>
    <dc:type rdf:resource="http://purl.org/dc/dcmitype/StillImage"/>
    <dc:date>2025-11-15T11:54:25.854445</dc:date>
    <dc:format>image/svg+xml</dc:format>
    <dc:creator>
     <cc:Agent>
      <dc:title>Matplotlib v3.10.7, https://matplotlib.org/</dc:title>
     </cc:Agent>
    </dc:creator>
   </cc:Work>
  </rdf:RDF>
 </metadata>
 <defs>
  <style type="text/css">*{stroke-linejoin: round; stroke-linecap: butt}</style>
 </defs>
 <g id="figure_1">
  <g id="patch_1">
   <path d="M 0 207.99625 
L 857.025313 207.99625 
L 857.025313 0 
L 0 0 
L 0 207.99625 
z
" style="fill: none"/>
  </g>
  <g id="axes_1">
   <g id="patch_2">
    <path d="M 44.845313 170.44 
L 849.825312 170.44 
L 849.825312 7.2 
L 44.845313 7.2 
L 44.845313 170.44 
z
" style="fill: none"/>
   </g>
   <g id="matplotlib.axis_1">
    <g id="xtick_1">
     <g id="line2d_1">
      <defs>
       <path id="m099fddab3a" d="M 0 0 
L 0 3.5 
" style="stroke: #000000; stroke-width: 0.8"/>
      </defs>
      <g>
       <use xlink:href="#m099fddab3a" x="170.296741" y="170.44" style="stroke: #000000; stroke-width: 0.8"/>
      </g>
     </g>
     <g id="text_1">
      <!-- 2004 -->
      <g transform="translate(157.571741 185.038437) scale(0.1 -0.1)">
       <defs>
        <path id="DejaVuSans-32" d="M 1228 531 
L 3431 531 
L 3431 0 
L 469 0 
L 469 531 
Q 828 903 1448 1529 
Q 2069 2156 2228 2338 
Q 2531 2678 2651 2914 
Q 2772 3150 2772 3378 
Q 2772 3750 2511 3984 
Q 2250 4219 1831 4219 
Q 1534 4219 1204 4116 
Q 875 4013 500 3803 
L 500 4441 
Q 881 4594 1212 4672 
Q 1544 4750 1819 4750 
Q 2544 4750 2975 4387 
Q 3406 4025 3406 3419 
Q 3406 3131 3298 2873 
Q 3191 2616 2906 2266 
Q 2828 2175 2409 1742 
Q 1991 1309 1228 531 
z
" transform="scale(0.015625)"/>
        <path id="DejaVuSans-30" d="M 2034 4250 
Q 1547 4250 1301 3770 
Q 1056 3291 1056 2328 
Q 1056 1369 1301 889 
Q 1547 409 2034 409 
Q 2525 409 2770 889 
Q 3016 1369 3016 2328 
Q 3016 3291 2770 3770 
Q 2525 4250 2034 4250 
z
M 2034 4750 
Q 2819 4750 3233 4129 
Q 3647 3509 3647 2328 
Q 3647 1150 3233 529 
Q 2819 -91 2034 -91 
Q 1250 -91 836 529 
Q 422 1150 422 2328 
Q 422 3509 836 4129 
Q 1250 4750 2034 4750 
z
" transform="scale(0.015625)"/>
        <path id="DejaVuSans-34" d="M 2419 4116 
L 825 1625 
L 2419 1625 
L 2419 4116 
z
M 2253 4666 
L 3047 4666 
L 3047 1625 
L 3713 1625 
L 3713 1100 
L 3047 1100 
L 3047 0 
L 2419 0 
L 2419 1100 
L 313 1100 
L 313 1709 
L 2253 4666 
z
" transform="scale(0.015625)"/>
       </defs>
       <use xlink:href="#DejaVuSans-32"/>
       <use xlink:href="#DejaVuSans-30" transform="translate(63.623047 0)"/>
       <use xlink:href="#DejaVuSans-30" transform="translate(127.246094 0)"/>
       <use xlink:href="#DejaVuSans-34" transform="translate(190.869141 0)"/>
      </g>
     </g>
    </g>
    <g id="xtick_2">
     <g id="line2d_2">
      <g>
       <use xlink:href="#m099fddab3a" x="327.111027" y="170.44" style="stroke: #000000; stroke-width: 0.8"/>
      </g>
     </g>
     <g id="text_2">
      <!-- 2009 -->
      <g transform="translate(314.386027 185.038437) scale(0.1 -0.1)">
       <defs>
        <path id="DejaVuSans-39" d="M 703 97 
L 703 672 
Q 941 559 1184 500 
Q 1428 441 1663 441 
Q 2288 441 2617 861 
Q 2947 1281 2994 2138 
Q 2813 1869 2534 1725 
Q 2256 1581 1919 1581 
Q 1219 1581 811 2004 
Q 403 2428 403 3163 
Q 403 3881 828 4315 
Q 1253 4750 1959 4750 
Q 2769 4750 3195 4129 
Q 3622 3509 3622 2328 
Q 3622 1225 3098 567 
Q 2575 -91 1691 -91 
Q 1453 -91 1209 -44 
Q 966 3 703 97 
z
M 1959 2075 
Q 2384 2075 2632 2365 
Q 2881 2656 2881 3163 
Q 2881 3666 2632 3958 
Q 2384 4250 1959 4250 
Q 1534 4250 1286 3958 
Q 1038 3666 1038 3163 
Q 1038 2656 1286 2365 
Q 1534 2075 1959 2075 
z
" transform="scale(0.015625)"/>
       </defs>
       <use xlink:href="#DejaVuSans-32"/>
       <use xlink:href="#DejaVuSans-30" transform="translate(63.623047 0)"/>
       <use xlink:href="#DejaVuSans-30" transform="translate(127.246094 0)"/>
       <use xlink:href="#DejaVuSans-39" transform="translate(190.869141 0)"/>
      </g>
     </g>
    </g>
    <g id="xtick_3">
     <g id="line2d_3">
      <g>
       <use xlink:href="#m099fddab3a" x="483.925313" y="170.44" style="stroke: #000000; stroke-width: 0.8"/>
      </g>
     </g>
     <g id="text_3">
      <!-- 2014 -->
      <g transform="translate(471.200312 185.038437) scale(0.1 -0.1)">
       <defs>
        <path id="DejaVuSans-31" d="M 794 531 
L 1825 531 
L 1825 4091 
L 703 3866 
L 703 4441 
L 1819 4666 
L 2450 4666 
L 2450 531 
L 3481 531 
L 3481 0 
L 794 0 
L 794 531 
z
" transform="scale(0.015625)"/>
       </defs>
       <use xlink:href="#DejaVuSans-32"/>
       <use xlink:href="#DejaVuSans-30" transform="translate(63.623047 0)"/>
       <use xlink:href="#DejaVuSans-31" transform="translate(127.246094 0)"/>
       <use xlink:href="#DejaVuSans-34" transform="translate(190.869141 0)"/>
      </g>
     </g>
    </g>
    <g id="xtick_4">
     <g id="line2d_4">
      <g>
       <use xlink:href="#m099fddab3a" x="640.739598" y="170.44" style="stroke: #000000; stroke-width: 0.8"/>
      </g>
     </g>
     <g id="text_4">
      <!-- 2019 -->
      <g transform="translate(628.014598 185.038437) scale(0.1 -0.1)">
       <use xlink:href="#DejaVuSans-32"/>
       <use xlink:href="#DejaVuSans-30" transform="translate(63.623047 0)"/>
       <use xlink:href="#DejaVuSans-31" transform="translate(127.246094 0)"/>
       <use xlink:href="#DejaVuSans-39" transform="translate(190.869141 0)"/>
      </g>
     </g>
    </g>
    <g id="xtick_5">
     <g id="line2d_5">
      <g>
       <use xlink:href="#m099fddab3a" x="797.553884" y="170.44" style="stroke: #000000; stroke-width: 0.8"/>
      </g>
     </g>
     <g id="text_5">
      <!-- 2024 -->
      <g transform="translate(784.828884 185.038437) scale(0.1 -0.1)">
       <use xlink:href="#DejaVuSans-32"/>
       <use xlink:href="#DejaVuSans-30" transform="translate(63.623047 0)"/>
       <use xlink:href="#DejaVuSans-32" transform="translate(127.246094 0)"/>
       <use xlink:href="#DejaVuSans-34" transform="translate(190.869141 0)"/>
      </g>
     </g>
    </g>
    <g id="xtick_6">
     <g id="line2d_6">
      <defs>
       <path id="m3ac8162464" d="M 0 0 
L 0 2 
" style="stroke: #000000; stroke-width: 0.6"/>
      </defs>
      <g>
       <use xlink:href="#m3ac8162464" x="44.845312" y="170.44" style="stroke: #000000; stroke-width: 0.6"/>
      </g>
     </g>
    </g>
    <g id="xtick_7">
     <g id="line2d_7">
      <g>
       <use xlink:href="#m3ac8162464" x="76.20817" y="170.44" style="stroke: #000000; stroke-width: 0.6"/>
      </g>
     </g>
    </g>
    <g id="xtick_8">
     <g id="line2d_8">
      <g>
       <use xlink:href="#m3ac8162464" x="107.571027" y="170.44" style="stroke: #000000; stroke-width: 0.6"/>
      </g>
     </g>
    </g>
    <g id="xtick_9">
     <g id="line2d_9">
      <g>
       <use xlink:href="#m3ac8162464" x="138.933884" y="170.44" style="stroke: #000000; stroke-width: 0.6"/>
      </g>
     </g>
    </g>
    <g id="xtick_10">
     <g id="line2d_10">
      <g>
       <use xlink:href="#m3ac8162464" x="201.659598" y="170.44" style="stroke: #000000; stroke-width: 0.6"/>
      </g>
     </g>
    </g>
    <g id="xtick_11">
     <g id="line2d_11">
      <g>
       <use xlink:href="#m3ac8162464" x="233.022455" y="170.44" style="stroke: #000000; stroke-width: 0.6"/>
      </g>
     </g>
    </g>
    <g id="xtick_12">
     <g id="line2d_12">
      <g>
       <use xlink:href="#m3ac8162464" x="264.385312" y="170.44" style="stroke: #000000; stroke-width: 0.6"/>
      </g>
     </g>
    </g>
    <g id="xtick_13">
     <g id="line2d_13">
      <g>
       <use xlink:href="#m3ac8162464" x="295.74817" y="170.44" style="stroke: #000000; stroke-width: 0.6"/>
      </g>
     </g>
    </g>
    <g id="xtick_14">
     <g id="line2d_14">
      <g>
       <use xlink:href="#m3ac8162464" x="358.473884" y="170.44" style="stroke: #000000; stroke-width: 0.6"/>
      </g>
     </g>
    </g>
    <g id="xtick_15">
     <g id="line2d_15">
      <g>
       <use xlink:href="#m3ac8162464" x="389.836741" y="170.44" style="stroke: #000000; stroke-width: 0.6"/>
      </g>
     </g>
    </g>
    <g id="xtick_16">
     <g id="line2d_16">
      <g>
       <use xlink:href="#m3ac8162464" x="421.199598" y="170.44" style="stroke: #000000; stroke-width: 0.6"/>
      </g>
     </g>
    </g>
    <g id="xtick_17">
     <g id="line2d_17">
      <g>
       <use xlink:href="#m3ac8162464" x="452.562455" y="170.44" style="stroke: #000000; stroke-width: 0.6"/>
      </g>
     </g>
    </g>
    <g id="xtick_18">
     <g id="line2d_18">
      <g>
       <use xlink:href="#m3ac8162464" x="515.28817" y="170.44" style="stroke: #000000; stroke-width: 0.6"/>
      </g>
     </g>
    </g>
    <g id="xtick_19">
     <g id="line2d_19">
      <g>
       <use xlink:href="#m3ac8162464" x="546.651027" y="170.44" style="stroke: #000000; stroke-width: 0.6"/>
      </g>
     </g>
    </g>
    <g id="xtick_20">
     <g id="line2d_20">
      <g>
       <use xlink:href="#m3ac8162464" x="578.013884" y="170.44" style="stroke: #000000; stroke-width: 0.6"/>
      </g>
     </g>
    </g>
    <g id="xtick_21">
     <g id="line2d_21">
      <g>
       <use xlink:href="#m3ac8162464" x="609.376741" y="170.44" style="stroke: #000000; stroke-width: 0.6"/>
      </g>
     </g>
    </g>
    <g id="xtick_22">
     <g id="line2d_22">
      <g>
       <use xlink:href="#m3ac8162464" x="672.102455" y="170.44" style="stroke: #000000; stroke-width: 0.6"/>
      </g>
     </g>
    </g>
    <g id="xtick_23">
     <g id="line2d_23">
      <g>
       <use xlink:href="#m3ac8162464" x="703.465312" y="170.44" style="stroke: #000000; stroke-width: 0.6"/>
      </g>
     </g>
    </g>
    <g id="xtick_24">
     <g id="line2d_24">
      <g>
       <use xlink:href="#m3ac8162464" x="734.82817" y="170.44" style="stroke: #000000; stroke-width: 0.6"/>
      </g>
     </g>
    </g>
    <g id="xtick_25">
     <g id="line2d_25">
      <g>
       <use xlink:href="#m3ac8162464" x="766.191027" y="170.44" style="stroke: #000000; stroke-width: 0.6"/>
      </g>
     </g>
    </g>
    <g id="xtick_26">
     <g id="line2d_26">
      <g>
       <use xlink:href="#m3ac8162464" x="828.916741" y="170.44" style="stroke: #000000; stroke-width: 0.6"/>
      </g>
     </g>
    </g>
    <g id="text_6">
     <!-- date -->
     <g transform="translate(436.060313 198.716563) scale(0.1 -0.1)">
      <defs>
       <path id="DejaVuSans-64" d="M 2906 2969 
L 2906 4863 
L 3481 4863 
L 3481 0 
L 2906 0 
L 2906 525 
Q 2725 213 2448 61 
Q 2172 -91 1784 -91 
Q 1150 -91 751 415 
Q 353 922 353 1747 
Q 353 2572 751 3078 
Q 1150 3584 1784 3584 
Q 2172 3584 2448 3432 
Q 2725 3281 2906 2969 
z
M 947 1747 
Q 947 1113 1208 752 
Q 1469 391 1925 391 
Q 2381 391 2643 752 
Q 2906 1113 2906 1747 
Q 2906 2381 2643 2742 
Q 2381 3103 1925 3103 
Q 1469 3103 1208 2742 
Q 947 2381 947 1747 
z
" transform="scale(0.015625)"/>
       <path id="DejaVuSans-61" d="M 2194 1759 
Q 1497 1759 1228 1600 
Q 959 1441 959 1056 
Q 959 750 1161 570 
Q 1363 391 1709 391 
Q 2188 391 2477 730 
Q 2766 1069 2766 1631 
L 2766 1759 
L 2194 1759 
z
M 3341 1997 
L 3341 0 
L 2766 0 
L 2766 531 
Q 2569 213 2275 61 
Q 1981 -91 1556 -91 
Q 1019 -91 701 211 
Q 384 513 384 1019 
Q 384 1609 779 1909 
Q 1175 2209 1959 2209 
L 2766 2209 
L 2766 2266 
Q 2766 2663 2505 2880 
Q 2244 3097 1772 3097 
Q 1472 3097 1187 3025 
Q 903 2953 641 2809 
L 641 3341 
Q 956 3463 1253 3523 
Q 1550 3584 1831 3584 
Q 2591 3584 2966 3190 
Q 3341 2797 3341 1997 
z
" transform="scale(0.015625)"/>
       <path id="DejaVuSans-74" d="M 1172 4494 
L 1172 3500 
L 2356 3500 
L 2356 3053 
L 1172 3053 
L 1172 1153 
Q 1172 725 1289 603 
Q 1406 481 1766 481 
L 2356 481 
L 2356 0 
L 1766 0 
Q 1100 0 847 248 
Q 594 497 594 1153 
L 594 3053 
L 172 3053 
L 172 3500 
L 594 3500 
L 594 4494 
L 1172 4494 
z
" transform="scale(0.015625)"/>
       <path id="DejaVuSans-65" d="M 3597 1894 
L 3597 1613 
L 953 1613 
Q 991 1019 1311 708 
Q 1631 397 2203 397 
Q 2534 397 2845 478 
Q 3156 559 3463 722 
L 3463 178 
Q 3153 47 2828 -22 
Q 2503 -91 2169 -91 
Q 1331 -91 842 396 
Q 353 884 353 1716 
Q 353 2575 817 3079 
Q 1281 3584 2069 3584 
Q 2775 3584 3186 3129 
Q 3597 2675 3597 1894 
z
M 3022 2063 
Q 3016 2534 2758 2815 
Q 2500 3097 2075 3097 
Q 1594 3097 1305 2825 
Q 1016 2553 972 2059 
L 3022 2063 
z
" transform="scale(0.015625)"/>
      </defs>
      <use xlink:href="#DejaVuSans-64"/>
      <use xlink:href="#DejaVuSans-61" transform="translate(63.476562 0)"/>
      <use xlink:href="#DejaVuSans-74" transform="translate(124.755859 0)"/>
      <use xlink:href="#DejaVuSans-65" transform="translate(163.964844 0)"/>
     </g>
    </g>
   </g>
   <g id="matplotlib.axis_2">
    <g id="ytick_1">
     <g id="line2d_27">
      <path d="M 44.845313 161.727641 
L 849.825312 161.727641 
" clip-path="url(#p5cee67a1b6)" style="fill: none; stroke-dasharray: 2.96,1.28; stroke-dashoffset: 0; stroke: #000000; stroke-opacity: 0.1; stroke-width: 0.8"/>
     </g>
     <g id="line2d_28">
      <defs>
       <path id="mf43fda5df5" d="M 0 0 
L -3.5 0 
" style="stroke: #000000; stroke-width: 0.8"/>
      </defs>
      <g>
       <use xlink:href="#mf43fda5df5" x="44.845313" y="161.727641" style="stroke: #000000; stroke-width: 0.8"/>
      </g>
     </g>
     <g id="text_7">
      <!-- −0.02 -->
      <g transform="translate(7.2 165.52686) scale(0.1 -0.1)">
       <defs>
        <path id="DejaVuSans-2212" d="M 678 2272 
L 4684 2272 
L 4684 1741 
L 678 1741 
L 678 2272 
z
" transform="scale(0.015625)"/>
        <path id="DejaVuSans-2e" d="M 684 794 
L 1344 794 
L 1344 0 
L 684 0 
L 684 794 
z
" transform="scale(0.015625)"/>
       </defs>
       <use xlink:href="#DejaVuSans-2212"/>
       <use xlink:href="#DejaVuSans-30" transform="translate(83.789062 0)"/>
       <use xlink:href="#DejaVuSans-2e" transform="translate(147.412109 0)"/>
       <use xlink:href="#DejaVuSans-30" transform="translate(179.199219 0)"/>
       <use xlink:href="#DejaVuSans-32" transform="translate(242.822266 0)"/>
      </g>
     </g>
    </g>
    <g id="ytick_2">
     <g id="line2d_29">
      <path d="M 44.845313 135.125315 
L 849.825312 135.125315 
" clip-path="url(#p5cee67a1b6)" style="fill: none; stroke-dasharray: 2.96,1.28; stroke-dashoffset: 0; stroke: #000000; stroke-opacity: 0.1; stroke-width: 0.8"/>
     </g>
     <g id="line2d_30">
      <g>
       <use xlink:href="#mf43fda5df5" x="44.845313" y="135.125315" style="stroke: #000000; stroke-width: 0.8"/>
      </g>
     </g>
     <g id="text_8">
      <!-- 0.00 -->
      <g transform="translate(15.579688 138.924534) scale(0.1 -0.1)">
       <use xlink:href="#DejaVuSans-30"/>
       <use xlink:href="#DejaVuSans-2e" transform="translate(63.623047 0)"/>
       <use xlink:href="#DejaVuSans-30" transform="translate(95.410156 0)"/>
       <use xlink:href="#DejaVuSans-30" transform="translate(159.033203 0)"/>
      </g>
     </g>
    </g>
    <g id="ytick_3">
     <g id="line2d_31">
      <path d="M 44.845313 108.52299 
L 849.825312 108.52299 
" clip-path="url(#p5cee67a1b6)" style="fill: none; stroke-dasharray: 2.96,1.28; stroke-dashoffset: 0; stroke: #000000; stroke-opacity: 0.1; stroke-width: 0.8"/>
     </g>
     <g id="line2d_32">
      <g>
       <use xlink:href="#mf43fda5df5" x="44.845313" y="108.52299" style="stroke: #000000; stroke-width: 0.8"/>
      </g>
     </g>
     <g id="text_9">
      <!-- 0.02 -->
      <g transform="translate(15.579688 112.322209) scale(0.1 -0.1)">
       <use xlink:href="#DejaVuSans-30"/>
       <use xlink:href="#DejaVuSans-2e" transform="translate(63.623047 0)"/>
       <use xlink:href="#DejaVuSans-30" transform="translate(95.410156 0)"/>
       <use xlink:href="#DejaVuSans-32" transform="translate(159.033203 0)"/>
      </g>
     </g>
    </g>
    <g id="ytick_4">
     <g id="line2d_33">
      <path d="M 44.845313 81.920664 
L 849.825312 81.920664 
" clip-path="url(#p5cee67a1b6)" style="fill: none; stroke-dasharray: 2.96,1.28; stroke-dashoffset: 0; stroke: #000000; stroke-opacity: 0.1; stroke-width: 0.8"/>
     </g>
     <g id="line2d_34">
      <g>
       <use xlink:href="#mf43fda5df5" x="44.845313" y="81.920664" style="stroke: #000000; stroke-width: 0.8"/>
      </g>
     </g>
     <g id="text_10">
      <!-- 0.04 -->
      <g transform="translate(15.579688 85.719883) scale(0.1 -0.1)">
       <use xlink:href="#DejaVuSans-30"/>
       <use xlink:href="#DejaVuSans-2e" transform="translate(63.623047 0)"/>
       <use xlink:href="#DejaVuSans-30" transform="translate(95.410156 0)"/>
       <use xlink:href="#DejaVuSans-34" transform="translate(159.033203 0)"/>
      </g>
     </g>
    </g>
    <g id="ytick_5">
     <g id="line2d_35">
      <path d="M 44.845313 55.318339 
L 849.825312 55.318339 
" clip-path="url(#p5cee67a1b6)" style="fill: none; stroke-dasharray: 2.96,1.28; stroke-dashoffset: 0; stroke: #000000; stroke-opacity: 0.1; stroke-width: 0.8"/>
     </g>
     <g id="line2d_36">
      <g>
       <use xlink:href="#mf43fda5df5" x="44.845313" y="55.318339" style="stroke: #000000; stroke-width: 0.8"/>
      </g>
     </g>
     <g id="text_11">
      <!-- 0.06 -->
      <g transform="translate(15.579688 59.117558) scale(0.1 -0.1)">
       <defs>
        <path id="DejaVuSans-36" d="M 2113 2584 
Q 1688 2584 1439 2293 
Q 1191 2003 1191 1497 
Q 1191 994 1439 701 
Q 1688 409 2113 409 
Q 2538 409 2786 701 
Q 3034 994 3034 1497 
Q 3034 2003 2786 2293 
Q 2538 2584 2113 2584 
z
M 3366 4563 
L 3366 3988 
Q 3128 4100 2886 4159 
Q 2644 4219 2406 4219 
Q 1781 4219 1451 3797 
Q 1122 3375 1075 2522 
Q 1259 2794 1537 2939 
Q 1816 3084 2150 3084 
Q 2853 3084 3261 2657 
Q 3669 2231 3669 1497 
Q 3669 778 3244 343 
Q 2819 -91 2113 -91 
Q 1303 -91 875 529 
Q 447 1150 447 2328 
Q 447 3434 972 4092 
Q 1497 4750 2381 4750 
Q 2619 4750 2861 4703 
Q 3103 4656 3366 4563 
z
" transform="scale(0.015625)"/>
       </defs>
       <use xlink:href="#DejaVuSans-30"/>
       <use xlink:href="#DejaVuSans-2e" transform="translate(63.623047 0)"/>
       <use xlink:href="#DejaVuSans-30" transform="translate(95.410156 0)"/>
       <use xlink:href="#DejaVuSans-36" transform="translate(159.033203 0)"/>
      </g>
     </g>
    </g>
    <g id="ytick_6">
     <g id="line2d_37">
      <path d="M 44.845313 28.716013 
L 849.825312 28.716013 
" clip-path="url(#p5cee67a1b6)" style="fill: none; stroke-dasharray: 2.96,1.28; stroke-dashoffset: 0; stroke: #000000; stroke-opacity: 0.1; stroke-width: 0.8"/>
     </g>
     <g id="line2d_38">
      <g>
       <use xlink:href="#mf43fda5df5" x="44.845313" y="28.716013" style="stroke: #000000; stroke-width: 0.8"/>
      </g>
     </g>
     <g id="text_12">
      <!-- 0.08 -->
      <g transform="translate(15.579688 32.515232) scale(0.1 -0.1)">
       <defs>
        <path id="DejaVuSans-38" d="M 2034 2216 
Q 1584 2216 1326 1975 
Q 1069 1734 1069 1313 
Q 1069 891 1326 650 
Q 1584 409 2034 409 
Q 2484 409 2743 651 
Q 3003 894 3003 1313 
Q 3003 1734 2745 1975 
Q 2488 2216 2034 2216 
z
M 1403 2484 
Q 997 2584 770 2862 
Q 544 3141 544 3541 
Q 544 4100 942 4425 
Q 1341 4750 2034 4750 
Q 2731 4750 3128 4425 
Q 3525 4100 3525 3541 
Q 3525 3141 3298 2862 
Q 3072 2584 2669 2484 
Q 3125 2378 3379 2068 
Q 3634 1759 3634 1313 
Q 3634 634 3220 271 
Q 2806 -91 2034 -91 
Q 1263 -91 848 271 
Q 434 634 434 1313 
Q 434 1759 690 2068 
Q 947 2378 1403 2484 
z
M 1172 3481 
Q 1172 3119 1398 2916 
Q 1625 2713 2034 2713 
Q 2441 2713 2670 2916 
Q 2900 3119 2900 3481 
Q 2900 3844 2670 4047 
Q 2441 4250 2034 4250 
Q 1625 4250 1398 4047 
Q 1172 3844 1172 3481 
z
" transform="scale(0.015625)"/>
       </defs>
       <use xlink:href="#DejaVuSans-30"/>
       <use xlink:href="#DejaVuSans-2e" transform="translate(63.623047 0)"/>
       <use xlink:href="#DejaVuSans-30" transform="translate(95.410156 0)"/>
       <use xlink:href="#DejaVuSans-38" transform="translate(159.033203 0)"/>
      </g>
     </g>
    </g>
   </g>
   <g id="line2d_39">
    <path d="M 44.845312 98.694864 
L 47.458884 92.270505 
L 50.072455 85.145189 
L 52.686027 94.309473 
L 55.299598 92.708852 
L 57.91317 85.506056 
L 60.526741 86.452794 
L 63.140312 89.753306 
L 65.753884 89.177284 
L 70.981027 89.286489 
L 73.594598 90.076814 
L 76.20817 85.48235 
L 78.821741 88.12474 
L 81.435312 96.278462 
L 86.662455 87.039479 
L 89.276027 91.919682 
L 91.889598 98.947384 
L 94.50317 98.947384 
L 97.116741 99.90059 
L 99.730312 106.841234 
L 102.343884 109.913462 
L 104.957455 114.48558 
L 107.571027 119.932668 
L 110.184598 119.993162 
L 112.79817 115.498174 
L 115.411741 113.320131 
L 118.025312 119.40644 
L 120.638884 120.927445 
L 123.252455 115.641922 
L 125.866027 111.145754 
L 128.479598 114.983342 
L 131.09317 108.178672 
L 136.320312 103.509648 
L 138.933884 100.576841 
L 141.547455 95.47618 
L 144.161027 94.954018 
L 146.774598 105.534297 
L 149.38817 107.753623 
L 152.001741 107.029474 
L 154.615312 107.060674 
L 157.228884 106.41777 
L 159.842455 104.260739 
L 165.069598 111.64836 
L 167.68317 110.125894 
L 170.296741 109.503923 
L 172.910312 112.605597 
L 175.523884 112.017975 
L 178.137455 104.730928 
L 180.751027 94.533211 
L 183.364598 91.681126 
L 185.97817 95.344785 
L 188.591741 99.81887 
L 191.205312 101.369665 
L 193.818884 92.705391 
L 196.432455 88.26485 
L 199.046027 91.822561 
L 201.659598 95.624022 
L 204.27317 95.121818 
L 206.886741 93.248656 
L 209.500312 88.429744 
L 212.113884 97.845483 
L 214.727455 101.469237 
L 217.341027 92.98858 
L 219.954598 86.693641 
L 222.56817 72.787059 
L 225.181741 77.294173 
L 227.795312 89.163182 
L 230.408884 89.693073 
L 233.022455 82.115962 
L 235.636027 87.274417 
L 238.249598 90.398177 
L 240.86317 87.962919 
L 243.476741 79.703804 
L 246.090312 77.680705 
L 248.703884 79.987435 
L 251.317455 84.331669 
L 253.931027 107.69334 
L 256.544598 117.76436 
L 259.15817 108.87302 
L 261.771741 101.331711 
L 264.385312 107.51685 
L 266.998884 103.000363 
L 269.612455 98.164327 
L 272.226027 100.892149 
L 274.839598 99.333693 
L 277.45317 99.384586 
L 280.066741 103.758102 
L 282.680312 108.920916 
L 290.521027 77.847802 
L 293.134598 80.839698 
L 295.74817 78.192428 
L 298.361741 81.567446 
L 303.588884 82.760104 
L 306.202455 79.585738 
L 308.816027 68.329669 
L 311.429598 60.637169 
L 314.04317 63.673396 
L 316.656741 69.45844 
L 319.270313 86.507088 
L 321.883884 120.898728 
L 324.497455 133.909418 
L 327.111027 134.728322 
L 329.724598 131.983699 
L 332.33817 140.22706 
L 334.951741 144.926752 
L 337.565312 152.169902 
L 340.178884 154.103096 
L 342.792455 163.02 
L 345.406027 154.868878 
L 348.019598 152.23335 
L 350.63317 137.55741 
L 353.246741 110.673843 
L 355.860312 98.928447 
L 358.473884 100.200337 
L 361.087455 106.616511 
L 363.701027 104.346964 
L 366.314598 105.377967 
L 368.92817 108.243851 
L 371.541741 121.114549 
L 374.155313 118.695815 
L 376.768884 119.85419 
L 379.382455 119.913006 
L 381.996027 119.533857 
L 384.609598 119.919946 
L 387.22317 115.230453 
L 389.836741 113.419855 
L 392.450312 107.091989 
L 395.063884 99.456874 
L 397.677455 93.045346 
L 400.291027 87.658177 
L 402.904598 87.788762 
L 405.51817 86.859173 
L 408.131741 84.963862 
L 410.745312 83.671671 
L 413.358884 88.236057 
L 415.972455 89.976147 
L 418.586027 95.7217 
L 421.199598 96.216532 
L 423.81317 96.936363 
L 426.426741 99.858636 
L 429.040313 104.496198 
L 431.653884 112.456759 
L 434.267455 112.992264 
L 436.881027 116.391283 
L 439.494598 112.614707 
L 442.10817 108.638948 
L 444.721741 106.363631 
L 447.335312 111.660284 
L 449.948884 111.967694 
L 452.562455 113.911761 
L 455.176027 108.816633 
L 457.789598 115.520782 
L 460.40317 120.985044 
L 463.016741 117.009597 
L 465.630312 111.789535 
L 468.243884 109.04597 
L 470.857455 114.929261 
L 473.471027 119.364432 
L 476.084598 122.308146 
L 481.311741 115.150486 
L 483.925313 114.123479 
L 486.538884 120.143561 
L 489.152455 115.011259 
L 491.766027 109.150035 
L 494.379598 106.832258 
L 496.99317 107.560766 
L 499.606741 108.625028 
L 502.220312 112.518508 
L 504.833884 113.073069 
L 507.447455 112.987655 
L 510.061027 117.536454 
L 512.674598 125.063075 
L 515.28817 136.313752 
L 517.901741 135.459571 
L 520.515312 136.104778 
L 523.128884 137.779129 
L 528.356027 133.479015 
L 530.969598 132.86984 
L 533.58317 132.530534 
L 536.196741 135.605883 
L 538.810313 132.856477 
L 541.423884 128.450824 
L 544.037455 125.421854 
L 546.651027 116.861664 
L 549.264598 121.587395 
L 551.87817 123.785592 
L 554.491741 120.160039 
L 557.105312 121.56714 
L 559.718884 121.859713 
L 562.332455 124.123407 
L 564.946027 120.987849 
L 567.559598 115.655291 
L 570.17317 113.364779 
L 572.786741 112.612603 
L 575.400312 107.530429 
L 578.013884 101.871847 
L 580.627455 98.707288 
L 583.241027 103.460402 
L 585.854598 105.866882 
L 588.46817 110.187262 
L 591.081741 113.398026 
L 593.695312 112.141193 
L 596.308884 109.334704 
L 598.922455 105.4243 
L 601.536027 107.97593 
L 604.149598 105.828401 
L 606.76317 107.072066 
L 609.376741 107.585157 
L 614.603884 103.73841 
L 617.217455 102.367957 
L 619.831027 97.868603 
L 625.05817 95.893335 
L 627.671741 99.223082 
L 630.285312 104.838938 
L 632.898884 101.573532 
L 635.512455 106.173991 
L 638.126027 109.717982 
L 640.739598 114.492084 
L 643.35317 114.905749 
L 645.966741 110.351597 
L 648.580312 108.570345 
L 651.193884 111.313195 
L 653.807455 113.198553 
L 656.421027 111.030727 
L 659.034598 111.851208 
L 661.64817 112.362976 
L 664.261741 111.661493 
L 666.875313 107.840933 
L 669.488884 104.730433 
L 672.102455 102.051017 
L 674.716027 104.068782 
L 677.329598 114.650477 
L 679.94317 130.747947 
L 682.556741 133.556758 
L 685.170312 126.536315 
L 687.783884 122.009281 
L 690.397455 117.705509 
L 693.011027 116.8851 
L 695.624598 119.402461 
L 698.23817 119.502624 
L 700.851741 117.009059 
L 703.465312 116.50675 
L 706.078884 112.829704 
L 708.692455 100.279428 
L 711.306027 79.796537 
L 713.919598 68.716513 
L 716.53317 63.412743 
L 719.146741 63.758256 
L 721.760313 65.277298 
L 724.373884 63.427408 
L 726.987455 52.367224 
L 729.601027 44.55766 
L 732.214598 41.532976 
L 734.82817 35.634314 
L 737.441741 30.431013 
L 740.055312 21.500724 
L 742.668884 25.275942 
L 745.282455 20.981233 
L 747.896027 14.62 
L 750.509598 21.735367 
L 753.12317 25.221897 
L 755.736741 26.033572 
L 758.350312 32.102126 
L 763.577455 49.274273 
L 766.191027 49.862907 
L 768.804598 54.844643 
L 771.41817 68.819363 
L 774.031741 69.546321 
L 776.645313 81.287406 
L 779.258884 95.6318 
L 781.872455 92.857144 
L 784.486027 86.375059 
L 787.099598 85.915028 
L 789.71317 92.014323 
L 792.326741 93.395967 
L 794.940312 90.538184 
L 797.553884 94.012954 
L 800.167455 93.184473 
L 802.781027 88.872051 
L 805.394598 90.468471 
L 808.00817 91.643428 
L 810.621741 95.602279 
L 813.235312 96.621732 
L 815.848884 101.46366 
L 818.462455 102.662058 
L 823.689598 98.555359 
L 826.30317 96.710796 
L 828.916741 95.215401 
L 831.530313 97.595434 
L 834.143884 103.32589 
L 836.757455 104.382486 
L 839.371027 103.802453 
L 841.984598 99.621679 
L 844.59817 99.146968 
L 847.211741 96.336807 
L 849.825313 95.053211 
L 849.825313 95.053211 
" clip-path="url(#p5cee67a1b6)" style="fill: none; stroke: #1f77b4; stroke-width: 1.5; stroke-linecap: square"/>
   </g>
   <g id="patch_3">
    <path d="M 44.845313 170.44 
L 44.845313 7.2 
" style="fill: none"/>
   </g>
   <g id="patch_4">
    <path d="M 849.825312 170.44 
L 849.825312 7.2 
" style="fill: none"/>
   </g>
   <g id="patch_5">
    <path d="M 44.845312 170.44 
L 849.825313 170.44 
" style="fill: none"/>
   </g>
   <g id="patch_6">
    <path d="M 44.845312 7.2 
L 849.825313 7.2 
" style="fill: none"/>
   </g>
  </g>
 </g>
 <defs>
  <clipPath id="p5cee67a1b6">
   <rect x="44.845313" y="7.2" width="804.98" height="163.24"/>
  </clipPath>
 </defs>
</svg>
