<?xml version="1.0" encoding="utf-8" standalone="no"?>
<!DOCTYPE svg PUBLIC "-//W3C//DTD SVG 1.1//EN"
  "http://www.w3.org/Graphics/SVG/1.1/DTD/svg11.dtd">
<svg xmlns:xlink="http://www.w3.org/1999/xlink" width="564.795312pt" height="139.79431pt" viewBox="0 0 564.795312 139.79431" xmlns="http://www.w3.org/2000/svg" version="1.1">
 <metadata>
  <rdf:RDF xmlns:dc="http://purl.org/dc/elements/1.1/" xmlns:cc="http://creativecommons.org/ns#" xmlns:rdf="http://www.w3.org/1999/02/22-rdf-syntax-ns#">
   <cc:Work>
    <dc:type rdf:resource="http://purl.org/dc/dcmitype/StillImage"/>
    <dc:date>2025-12-04T18:43:18.205683</dc:date>
    <dc:format>image/svg+xml</dc:format>
    <dc:creator>
     <cc:Agent>
      <dc:title>Matplotlib v3.10.7, https://matplotlib.org/</dc:title>
     </cc:Agent>
    </dc:creator>
   </cc:Work>
  </rdf:RDF>
 </metadata>
 <defs>
  <style type="text/css">*{stroke-linejoin: round; stroke-linecap: butt}</style>
 </defs>
 <g id="figure_1">
  <g id="patch_1">
   <path d="M 0 139.79431 
L 564.795312 139.79431 
L 564.795312 0 
L 0 0 
L 0 139.79431 
z
" style="fill: none"/>
  </g>
  <g id="axes_1">
   <g id="patch_2">
    <path d="M 44.845313 90.809683 
L 557.595312 90.809683 
L 557.595312 10.999219 
L 44.845313 10.999219 
L 44.845313 90.809683 
z
" style="fill: none"/>
   </g>
   <g id="matplotlib.axis_1">
    <g id="xtick_1">
     <g id="line2d_1">
      <defs>
       <path id="mfc5a8a0ac8" d="M 0 0 
L 0 3.5 
" style="stroke: #000000; stroke-width: 0.8"/>
      </defs>
      <g>
       <use xlink:href="#mfc5a8a0ac8" x="81.960872" y="90.809683" style="stroke: #000000; stroke-width: 0.8"/>
      </g>
     </g>
     <g id="text_1">
      <!-- 1992 -->
      <g transform="translate(58.880682 117.115123) rotate(-30) scale(0.1 -0.1)">
       <defs>
        <path id="DejaVuSans-31" d="M 794 531 
L 1825 531 
L 1825 4091 
L 703 3866 
L 703 4441 
L 1819 4666 
L 2450 4666 
L 2450 531 
L 3481 531 
L 3481 0 
L 794 0 
L 794 531 
z
" transform="scale(0.015625)"/>
        <path id="DejaVuSans-39" d="M 703 97 
L 703 672 
Q 941 559 1184 500 
Q 1428 441 1663 441 
Q 2288 441 2617 861 
Q 2947 1281 2994 2138 
Q 2813 1869 2534 1725 
Q 2256 1581 1919 1581 
Q 1219 1581 811 2004 
Q 403 2428 403 3163 
Q 403 3881 828 4315 
Q 1253 4750 1959 4750 
Q 2769 4750 3195 4129 
Q 3622 3509 3622 2328 
Q 3622 1225 3098 567 
Q 2575 -91 1691 -91 
Q 1453 -91 1209 -44 
Q 966 3 703 97 
z
M 1959 2075 
Q 2384 2075 2632 2365 
Q 2881 2656 2881 3163 
Q 2881 3666 2632 3958 
Q 2384 4250 1959 4250 
Q 1534 4250 1286 3958 
Q 1038 3666 1038 3163 
Q 1038 2656 1286 2365 
Q 1534 2075 1959 2075 
z
" transform="scale(0.015625)"/>
        <path id="DejaVuSans-32" d="M 1228 531 
L 3431 531 
L 3431 0 
L 469 0 
L 469 531 
Q 828 903 1448 1529 
Q 2069 2156 2228 2338 
Q 2531 2678 2651 2914 
Q 2772 3150 2772 3378 
Q 2772 3750 2511 3984 
Q 2250 4219 1831 4219 
Q 1534 4219 1204 4116 
Q 875 4013 500 3803 
L 500 4441 
Q 881 4594 1212 4672 
Q 1544 4750 1819 4750 
Q 2544 4750 2975 4387 
Q 3406 4025 3406 3419 
Q 3406 3131 3298 2873 
Q 3191 2616 2906 2266 
Q 2828 2175 2409 1742 
Q 1991 1309 1228 531 
z
" transform="scale(0.015625)"/>
       </defs>
       <use xlink:href="#DejaVuSans-31"/>
       <use xlink:href="#DejaVuSans-39" transform="translate(63.623047 0)"/>
       <use xlink:href="#DejaVuSans-39" transform="translate(127.246094 0)"/>
       <use xlink:href="#DejaVuSans-32" transform="translate(190.869141 0)"/>
      </g>
     </g>
    </g>
    <g id="xtick_2">
     <g id="line2d_2">
      <g>
       <use xlink:href="#mfc5a8a0ac8" x="135.332756" y="90.809683" style="stroke: #000000; stroke-width: 0.8"/>
      </g>
     </g>
     <g id="text_2">
      <!-- 1996 -->
      <g transform="translate(112.252565 117.115123) rotate(-30) scale(0.1 -0.1)">
       <defs>
        <path id="DejaVuSans-36" d="M 2113 2584 
Q 1688 2584 1439 2293 
Q 1191 2003 1191 1497 
Q 1191 994 1439 701 
Q 1688 409 2113 409 
Q 2538 409 2786 701 
Q 3034 994 3034 1497 
Q 3034 2003 2786 2293 
Q 2538 2584 2113 2584 
z
M 3366 4563 
L 3366 3988 
Q 3128 4100 2886 4159 
Q 2644 4219 2406 4219 
Q 1781 4219 1451 3797 
Q 1122 3375 1075 2522 
Q 1259 2794 1537 2939 
Q 1816 3084 2150 3084 
Q 2853 3084 3261 2657 
Q 3669 2231 3669 1497 
Q 3669 778 3244 343 
Q 2819 -91 2113 -91 
Q 1303 -91 875 529 
Q 447 1150 447 2328 
Q 447 3434 972 4092 
Q 1497 4750 2381 4750 
Q 2619 4750 2861 4703 
Q 3103 4656 3366 4563 
z
" transform="scale(0.015625)"/>
       </defs>
       <use xlink:href="#DejaVuSans-31"/>
       <use xlink:href="#DejaVuSans-39" transform="translate(63.623047 0)"/>
       <use xlink:href="#DejaVuSans-39" transform="translate(127.246094 0)"/>
       <use xlink:href="#DejaVuSans-36" transform="translate(190.869141 0)"/>
      </g>
     </g>
    </g>
    <g id="xtick_3">
     <g id="line2d_3">
      <g>
       <use xlink:href="#mfc5a8a0ac8" x="188.704639" y="90.809683" style="stroke: #000000; stroke-width: 0.8"/>
      </g>
     </g>
     <g id="text_3">
      <!-- 2000 -->
      <g transform="translate(165.624448 117.115123) rotate(-30) scale(0.1 -0.1)">
       <defs>
        <path id="DejaVuSans-30" d="M 2034 4250 
Q 1547 4250 1301 3770 
Q 1056 3291 1056 2328 
Q 1056 1369 1301 889 
Q 1547 409 2034 409 
Q 2525 409 2770 889 
Q 3016 1369 3016 2328 
Q 3016 3291 2770 3770 
Q 2525 4250 2034 4250 
z
M 2034 4750 
Q 2819 4750 3233 4129 
Q 3647 3509 3647 2328 
Q 3647 1150 3233 529 
Q 2819 -91 2034 -91 
Q 1250 -91 836 529 
Q 422 1150 422 2328 
Q 422 3509 836 4129 
Q 1250 4750 2034 4750 
z
" transform="scale(0.015625)"/>
       </defs>
       <use xlink:href="#DejaVuSans-32"/>
       <use xlink:href="#DejaVuSans-30" transform="translate(63.623047 0)"/>
       <use xlink:href="#DejaVuSans-30" transform="translate(127.246094 0)"/>
       <use xlink:href="#DejaVuSans-30" transform="translate(190.869141 0)"/>
      </g>
     </g>
    </g>
    <g id="xtick_4">
     <g id="line2d_4">
      <g>
       <use xlink:href="#mfc5a8a0ac8" x="242.076522" y="90.809683" style="stroke: #000000; stroke-width: 0.8"/>
      </g>
     </g>
     <g id="text_4">
      <!-- 2004 -->
      <g transform="translate(218.996331 117.115123) rotate(-30) scale(0.1 -0.1)">
       <defs>
        <path id="DejaVuSans-34" d="M 2419 4116 
L 825 1625 
L 2419 1625 
L 2419 4116 
z
M 2253 4666 
L 3047 4666 
L 3047 1625 
L 3713 1625 
L 3713 1100 
L 3047 1100 
L 3047 0 
L 2419 0 
L 2419 1100 
L 313 1100 
L 313 1709 
L 2253 4666 
z
" transform="scale(0.015625)"/>
       </defs>
       <use xlink:href="#DejaVuSans-32"/>
       <use xlink:href="#DejaVuSans-30" transform="translate(63.623047 0)"/>
       <use xlink:href="#DejaVuSans-30" transform="translate(127.246094 0)"/>
       <use xlink:href="#DejaVuSans-34" transform="translate(190.869141 0)"/>
      </g>
     </g>
    </g>
    <g id="xtick_5">
     <g id="line2d_5">
      <g>
       <use xlink:href="#mfc5a8a0ac8" x="295.448405" y="90.809683" style="stroke: #000000; stroke-width: 0.8"/>
      </g>
     </g>
     <g id="text_5">
      <!-- 2008 -->
      <g transform="translate(272.368214 117.115123) rotate(-30) scale(0.1 -0.1)">
       <defs>
        <path id="DejaVuSans-38" d="M 2034 2216 
Q 1584 2216 1326 1975 
Q 1069 1734 1069 1313 
Q 1069 891 1326 650 
Q 1584 409 2034 409 
Q 2484 409 2743 651 
Q 3003 894 3003 1313 
Q 3003 1734 2745 1975 
Q 2488 2216 2034 2216 
z
M 1403 2484 
Q 997 2584 770 2862 
Q 544 3141 544 3541 
Q 544 4100 942 4425 
Q 1341 4750 2034 4750 
Q 2731 4750 3128 4425 
Q 3525 4100 3525 3541 
Q 3525 3141 3298 2862 
Q 3072 2584 2669 2484 
Q 3125 2378 3379 2068 
Q 3634 1759 3634 1313 
Q 3634 634 3220 271 
Q 2806 -91 2034 -91 
Q 1263 -91 848 271 
Q 434 634 434 1313 
Q 434 1759 690 2068 
Q 947 2378 1403 2484 
z
M 1172 3481 
Q 1172 3119 1398 2916 
Q 1625 2713 2034 2713 
Q 2441 2713 2670 2916 
Q 2900 3119 2900 3481 
Q 2900 3844 2670 4047 
Q 2441 4250 2034 4250 
Q 1625 4250 1398 4047 
Q 1172 3844 1172 3481 
z
" transform="scale(0.015625)"/>
       </defs>
       <use xlink:href="#DejaVuSans-32"/>
       <use xlink:href="#DejaVuSans-30" transform="translate(63.623047 0)"/>
       <use xlink:href="#DejaVuSans-30" transform="translate(127.246094 0)"/>
       <use xlink:href="#DejaVuSans-38" transform="translate(190.869141 0)"/>
      </g>
     </g>
    </g>
    <g id="xtick_6">
     <g id="line2d_6">
      <g>
       <use xlink:href="#mfc5a8a0ac8" x="348.820288" y="90.809683" style="stroke: #000000; stroke-width: 0.8"/>
      </g>
     </g>
     <g id="text_6">
      <!-- 2012 -->
      <g transform="translate(325.740097 117.115123) rotate(-30) scale(0.1 -0.1)">
       <use xlink:href="#DejaVuSans-32"/>
       <use xlink:href="#DejaVuSans-30" transform="translate(63.623047 0)"/>
       <use xlink:href="#DejaVuSans-31" transform="translate(127.246094 0)"/>
       <use xlink:href="#DejaVuSans-32" transform="translate(190.869141 0)"/>
      </g>
     </g>
    </g>
    <g id="xtick_7">
     <g id="line2d_7">
      <g>
       <use xlink:href="#mfc5a8a0ac8" x="402.192171" y="90.809683" style="stroke: #000000; stroke-width: 0.8"/>
      </g>
     </g>
     <g id="text_7">
      <!-- 2016 -->
      <g transform="translate(379.11198 117.115123) rotate(-30) scale(0.1 -0.1)">
       <use xlink:href="#DejaVuSans-32"/>
       <use xlink:href="#DejaVuSans-30" transform="translate(63.623047 0)"/>
       <use xlink:href="#DejaVuSans-31" transform="translate(127.246094 0)"/>
       <use xlink:href="#DejaVuSans-36" transform="translate(190.869141 0)"/>
      </g>
     </g>
    </g>
    <g id="xtick_8">
     <g id="line2d_8">
      <g>
       <use xlink:href="#mfc5a8a0ac8" x="455.564054" y="90.809683" style="stroke: #000000; stroke-width: 0.8"/>
      </g>
     </g>
     <g id="text_8">
      <!-- 2020 -->
      <g transform="translate(432.483863 117.115123) rotate(-30) scale(0.1 -0.1)">
       <use xlink:href="#DejaVuSans-32"/>
       <use xlink:href="#DejaVuSans-30" transform="translate(63.623047 0)"/>
       <use xlink:href="#DejaVuSans-32" transform="translate(127.246094 0)"/>
       <use xlink:href="#DejaVuSans-30" transform="translate(190.869141 0)"/>
      </g>
     </g>
    </g>
    <g id="xtick_9">
     <g id="line2d_9">
      <g>
       <use xlink:href="#mfc5a8a0ac8" x="508.935937" y="90.809683" style="stroke: #000000; stroke-width: 0.8"/>
      </g>
     </g>
     <g id="text_9">
      <!-- 2024 -->
      <g transform="translate(485.855746 117.115123) rotate(-30) scale(0.1 -0.1)">
       <use xlink:href="#DejaVuSans-32"/>
       <use xlink:href="#DejaVuSans-30" transform="translate(63.623047 0)"/>
       <use xlink:href="#DejaVuSans-32" transform="translate(127.246094 0)"/>
       <use xlink:href="#DejaVuSans-34" transform="translate(190.869141 0)"/>
      </g>
     </g>
    </g>
    <g id="text_10">
     <!-- date -->
     <g transform="translate(289.945312 130.514622) scale(0.1 -0.1)">
      <defs>
       <path id="DejaVuSans-64" d="M 2906 2969 
L 2906 4863 
L 3481 4863 
L 3481 0 
L 2906 0 
L 2906 525 
Q 2725 213 2448 61 
Q 2172 -91 1784 -91 
Q 1150 -91 751 415 
Q 353 922 353 1747 
Q 353 2572 751 3078 
Q 1150 3584 1784 3584 
Q 2172 3584 2448 3432 
Q 2725 3281 2906 2969 
z
M 947 1747 
Q 947 1113 1208 752 
Q 1469 391 1925 391 
Q 2381 391 2643 752 
Q 2906 1113 2906 1747 
Q 2906 2381 2643 2742 
Q 2381 3103 1925 3103 
Q 1469 3103 1208 2742 
Q 947 2381 947 1747 
z
" transform="scale(0.015625)"/>
       <path id="DejaVuSans-61" d="M 2194 1759 
Q 1497 1759 1228 1600 
Q 959 1441 959 1056 
Q 959 750 1161 570 
Q 1363 391 1709 391 
Q 2188 391 2477 730 
Q 2766 1069 2766 1631 
L 2766 1759 
L 2194 1759 
z
M 3341 1997 
L 3341 0 
L 2766 0 
L 2766 531 
Q 2569 213 2275 61 
Q 1981 -91 1556 -91 
Q 1019 -91 701 211 
Q 384 513 384 1019 
Q 384 1609 779 1909 
Q 1175 2209 1959 2209 
L 2766 2209 
L 2766 2266 
Q 2766 2663 2505 2880 
Q 2244 3097 1772 3097 
Q 1472 3097 1187 3025 
Q 903 2953 641 2809 
L 641 3341 
Q 956 3463 1253 3523 
Q 1550 3584 1831 3584 
Q 2591 3584 2966 3190 
Q 3341 2797 3341 1997 
z
" transform="scale(0.015625)"/>
       <path id="DejaVuSans-74" d="M 1172 4494 
L 1172 3500 
L 2356 3500 
L 2356 3053 
L 1172 3053 
L 1172 1153 
Q 1172 725 1289 603 
Q 1406 481 1766 481 
L 2356 481 
L 2356 0 
L 1766 0 
Q 1100 0 847 248 
Q 594 497 594 1153 
L 594 3053 
L 172 3053 
L 172 3500 
L 594 3500 
L 594 4494 
L 1172 4494 
z
" transform="scale(0.015625)"/>
       <path id="DejaVuSans-65" d="M 3597 1894 
L 3597 1613 
L 953 1613 
Q 991 1019 1311 708 
Q 1631 397 2203 397 
Q 2534 397 2845 478 
Q 3156 559 3463 722 
L 3463 178 
Q 3153 47 2828 -22 
Q 2503 -91 2169 -91 
Q 1331 -91 842 396 
Q 353 884 353 1716 
Q 353 2575 817 3079 
Q 1281 3584 2069 3584 
Q 2775 3584 3186 3129 
Q 3597 2675 3597 1894 
z
M 3022 2063 
Q 3016 2534 2758 2815 
Q 2500 3097 2075 3097 
Q 1594 3097 1305 2825 
Q 1016 2553 972 2059 
L 3022 2063 
z
" transform="scale(0.015625)"/>
      </defs>
      <use xlink:href="#DejaVuSans-64"/>
      <use xlink:href="#DejaVuSans-61" transform="translate(63.476562 0)"/>
      <use xlink:href="#DejaVuSans-74" transform="translate(124.755859 0)"/>
      <use xlink:href="#DejaVuSans-65" transform="translate(163.964844 0)"/>
     </g>
    </g>
   </g>
   <g id="matplotlib.axis_2">
    <g id="ytick_1">
     <g id="line2d_10">
      <path d="M 44.845313 90.809683 
L 557.595312 90.809683 
" clip-path="url(#pdb7adf1a48)" style="fill: none; stroke-dasharray: 2.96,1.28; stroke-dashoffset: 0; stroke: #dddddd; stroke-width: 0.8"/>
     </g>
     <g id="line2d_11">
      <defs>
       <path id="md33043dddc" d="M 0 0 
L -3.5 0 
" style="stroke: #000000; stroke-width: 0.8"/>
      </defs>
      <g>
       <use xlink:href="#md33043dddc" x="44.845313" y="90.809683" style="stroke: #000000; stroke-width: 0.8"/>
      </g>
     </g>
     <g id="text_11">
      <!-- −0.01 -->
      <g transform="translate(7.2 94.608901) scale(0.1 -0.1)">
       <defs>
        <path id="DejaVuSans-2212" d="M 678 2272 
L 4684 2272 
L 4684 1741 
L 678 1741 
L 678 2272 
z
" transform="scale(0.015625)"/>
        <path id="DejaVuSans-2e" d="M 684 794 
L 1344 794 
L 1344 0 
L 684 0 
L 684 794 
z
" transform="scale(0.015625)"/>
       </defs>
       <use xlink:href="#DejaVuSans-2212"/>
       <use xlink:href="#DejaVuSans-30" transform="translate(83.789062 0)"/>
       <use xlink:href="#DejaVuSans-2e" transform="translate(147.412109 0)"/>
       <use xlink:href="#DejaVuSans-30" transform="translate(179.199219 0)"/>
       <use xlink:href="#DejaVuSans-31" transform="translate(242.822266 0)"/>
      </g>
     </g>
    </g>
    <g id="ytick_2">
     <g id="line2d_12">
      <path d="M 44.845313 50.904451 
L 557.595312 50.904451 
" clip-path="url(#pdb7adf1a48)" style="fill: none; stroke-dasharray: 2.96,1.28; stroke-dashoffset: 0; stroke: #dddddd; stroke-width: 0.8"/>
     </g>
     <g id="line2d_13">
      <g>
       <use xlink:href="#md33043dddc" x="44.845313" y="50.904451" style="stroke: #000000; stroke-width: 0.8"/>
      </g>
     </g>
     <g id="text_12">
      <!-- 0.00 -->
      <g transform="translate(15.579688 54.703669) scale(0.1 -0.1)">
       <use xlink:href="#DejaVuSans-30"/>
       <use xlink:href="#DejaVuSans-2e" transform="translate(63.623047 0)"/>
       <use xlink:href="#DejaVuSans-30" transform="translate(95.410156 0)"/>
       <use xlink:href="#DejaVuSans-30" transform="translate(159.033203 0)"/>
      </g>
     </g>
    </g>
    <g id="ytick_3">
     <g id="line2d_14">
      <path d="M 44.845313 10.999219 
L 557.595312 10.999219 
" clip-path="url(#pdb7adf1a48)" style="fill: none; stroke-dasharray: 2.96,1.28; stroke-dashoffset: 0; stroke: #dddddd; stroke-width: 0.8"/>
     </g>
     <g id="line2d_15">
      <g>
       <use xlink:href="#md33043dddc" x="44.845313" y="10.999219" style="stroke: #000000; stroke-width: 0.8"/>
      </g>
     </g>
     <g id="text_13">
      <!-- 0.01 -->
      <g transform="translate(15.579688 14.798438) scale(0.1 -0.1)">
       <use xlink:href="#DejaVuSans-30"/>
       <use xlink:href="#DejaVuSans-2e" transform="translate(63.623047 0)"/>
       <use xlink:href="#DejaVuSans-30" transform="translate(95.410156 0)"/>
       <use xlink:href="#DejaVuSans-31" transform="translate(159.033203 0)"/>
      </g>
     </g>
    </g>
   </g>
   <g id="line2d_16">
    <path d="M 68.152131 45.3279 
L 68.188662 45.161143 
L 68.225193 45.224351 
L 68.919283 46.259078 
L 68.992345 46.175117 
L 69.175 46.327274 
L 69.394187 45.972348 
L 69.50378 46.076052 
L 69.759497 46.321014 
L 70.270932 45.287261 
L 70.453588 44.978226 
L 70.52665 45.148234 
L 70.782367 45.649116 
L 71.001554 45.716901 
L 71.038085 45.861421 
L 71.293802 44.883601 
L 71.476457 45.136084 
L 71.54952 45.042194 
L 71.659113 45.079641 
L 71.732175 45.352736 
L 71.768706 45.225338 
L 71.91483 45.219021 
L 71.951361 45.106202 
L 72.024423 45.140772 
L 72.170548 45.198896 
L 72.426265 44.997662 
L 72.499327 45.048253 
L 72.535858 44.934816 
L 72.572389 44.972276 
L 73.083824 45.188566 
L 73.777914 45.242705 
L 74.070163 45.393505 
L 74.216287 45.184198 
L 74.252818 45.249272 
L 74.289349 45.165022 
L 74.362411 44.958744 
L 74.764253 44.98522 
L 74.873846 44.957132 
L 75.093033 45.033792 
L 75.129564 45.12278 
L 75.640999 44.393783 
L 75.860185 44.423599 
L 75.896716 44.502498 
L 76.079371 44.403049 
L 76.152433 44.145265 
L 76.335089 44.538493 
L 76.37162 44.431923 
L 76.517744 44.355421 
L 76.627337 44.320623 
L 76.919586 46.451431 
L 77.06571 46.47149 
L 77.102241 46.538158 
L 77.175303 46.465135 
L 78.052049 46.375539 
L 78.08858 46.259645 
L 78.198173 46.92715 
L 78.307766 47.029995 
L 78.45389 47.492641 
L 78.636546 47.558502 
L 78.709608 47.710283 
L 78.855732 47.733776 
L 78.892263 47.902134 
L 78.928794 47.71652 
L 78.965325 47.647218 
L 79.074919 47.812646 
L 79.184512 47.316333 
L 79.221043 47.527433 
L 79.330636 47.488075 
L 79.47676 47.204436 
L 79.586353 47.273404 
L 79.622884 47.174063 
L 79.695947 46.95927 
L 79.732478 47.054168 
L 79.878602 47.002834 
L 79.915133 47.19744 
L 79.951664 46.735402 
L 79.988195 46.811848 
L 80.207381 46.778444 
L 80.353506 47.021909 
L 80.609223 46.606076 
L 80.682285 46.68759 
L 80.718816 46.664922 
L 80.938003 46.608787 
L 81.230251 46.232897 
L 81.485969 46.077403 
L 81.5225 46.022853 
L 81.924341 46.255505 
L 81.997404 46.067758 
L 82.033935 46.235836 
L 82.143528 46.199719 
L 82.253121 46.8681 
L 82.289652 46.791719 
L 82.399245 46.618568 
L 82.435776 46.76651 
L 82.545369 46.880117 
L 82.728025 47.409919 
L 82.91068 46.997732 
L 83.056804 47.291992 
L 83.275991 47.30722 
L 83.422115 47.441919 
L 83.531708 47.36624 
L 83.568239 47.480957 
L 83.750895 47.431197 
L 83.787426 47.539826 
L 83.823957 47.511101 
L 84.262329 47.529905 
L 84.335392 47.655944 
L 84.444985 47.566889 
L 84.481516 47.668606 
L 84.554578 47.596469 
L 84.700702 47.480522 
L 84.846826 47.605378 
L 85.32173 47.605549 
L 85.358261 47.402481 
L 85.504386 47.533072 
L 85.540917 47.452697 
L 85.796634 47.161496 
L 85.869696 47.197737 
L 86.235007 46.936961 
L 86.381131 47.371375 
L 87.03869 47.126441 
L 87.111752 47.287904 
L 87.148283 47.274696 
L 87.257877 47.314454 
L 87.36747 47.448991 
L 87.404001 47.432385 
L 87.878905 47.281681 
L 88.025029 47.251259 
L 88.06156 47.212473 
L 88.171153 46.970881 
L 88.353809 46.94438 
L 88.426871 46.807575 
L 88.646057 46.723322 
L 88.792181 46.631062 
L 88.828712 46.735282 
L 88.865243 46.653858 
L 88.938306 46.619884 
L 89.961175 46.797374 
L 90.582203 47.019424 
L 90.874452 47.003456 
L 90.984045 47.157766 
L 91.239762 47.233132 
L 91.458949 47.240907 
L 91.751197 47.166262 
L 92.481819 47.335206 
L 92.51835 47.26986 
L 92.774067 47.253935 
L 92.88366 47.269984 
L 93.029785 47.690685 
L 93.175909 47.648144 
L 93.21244 47.769952 
L 93.285502 47.742953 
L 93.796937 47.606105 
L 94.162248 47.457922 
L 94.417965 47.399278 
L 94.491027 47.405367 
L 94.564089 47.268988 
L 94.9294 47.322682 
L 95.075524 46.920389 
L 95.258179 46.944353 
L 95.29471 47.012352 
L 95.477366 46.891781 
L 95.586959 46.537059 
L 95.733083 46.433583 
L 95.806145 46.600938 
L 95.842676 46.582402 
L 96.061863 46.623499 
L 96.207987 46.099123 
L 96.609829 46.0979 
L 96.755953 46.092912 
L 96.792484 45.950512 
L 96.865546 46.044497 
L 96.975139 46.183306 
L 97.084733 45.505821 
L 97.121264 45.594 
L 97.230857 45.656464 
L 97.376981 45.462462 
L 97.596167 45.400246 
L 97.742292 45.442302 
L 97.888416 45.698708 
L 98.253727 45.561879 
L 98.326789 45.864611 
L 98.36332 45.69207 
L 98.399851 45.623354 
L 98.509444 45.688389 
L 98.582506 45.115906 
L 98.655568 45.169546 
L 98.765161 44.916875 
L 98.801693 44.531406 
L 98.874755 44.708087 
L 98.911286 44.6966 
L 99.05741 45.022463 
L 99.093941 44.567048 
L 99.167003 44.670868 
L 99.276596 44.656869 
L 99.349658 44.324634 
L 99.422721 44.381638 
L 99.678438 44.667167 
L 100.08028 44.634521 
L 100.153342 44.555853 
L 100.189873 44.572818 
L 100.883963 44.700349 
L 100.957025 44.690157 
L 101.212743 45.314297 
L 101.395398 45.310233 
L 101.431929 45.159608 
L 101.46846 45.188288 
L 101.724178 45.166848 
L 102.089488 45.377817 
L 102.16255 45.361396 
L 102.199081 45.417468 
L 102.381737 45.317879 
L 102.418268 45.193368 
L 102.49133 45.29552 
L 102.747047 45.208748 
L 103.5142 45.25832 
L 103.623793 45.091856 
L 103.660324 45.13332 
L 103.696855 45.238715 
L 103.769917 45.196191 
L 104.135228 45.129132 
L 104.20829 45.076622 
L 104.244821 45.145248 
L 104.390945 45.189197 
L 104.427476 45.20906 
L 104.537069 44.987313 
L 104.646663 45.001116 
L 104.792787 44.567551 
L 104.938911 44.528874 
L 104.975442 44.436244 
L 105.048504 44.525474 
L 105.194629 44.648613 
L 105.23116 44.740682 
L 105.304222 44.708284 
L 105.669532 44.781578 
L 105.779126 44.893083 
L 105.92525 44.681003 
L 106.217498 44.58655 
L 106.327091 44.640316 
L 106.436685 44.631743 
L 106.473216 44.483204 
L 106.509747 44.624243 
L 106.546278 44.706502 
L 106.582809 44.586768 
L 106.838526 44.490738 
L 107.094244 44.666417 
L 107.605679 44.53286 
L 107.824865 44.716574 
L 107.861396 44.660218 
L 108.080583 44.631042 
L 108.226707 44.699445 
L 108.372831 44.442885 
L 108.993859 44.39835 
L 109.139983 44.746439 
L 109.505294 44.689551 
L 109.651418 44.700226 
L 109.761011 44.702712 
L 109.834074 44.528533 
L 109.870605 45.279772 
L 109.907136 45.226613 
L 110.601226 45.259673 
L 110.674288 45.033137 
L 111.07613 44.841017 
L 111.185723 44.913059 
L 111.551034 45.192304 
L 111.660627 45.667765 
L 111.697158 45.639404 
L 111.843282 45.244782 
L 111.916344 44.930352 
L 111.952875 45.122005 
L 112.062468 45.04425 
L 112.098999 44.387633 
L 112.172062 44.418379 
L 112.318186 44.543436 
L 112.46431 44.573496 
L 112.573903 44.557343 
L 112.683496 43.889362 
L 112.720028 43.940414 
L 112.902683 43.831352 
L 112.939214 43.753513 
L 112.975745 43.771594 
L 113.194931 43.78894 
L 113.341056 43.538849 
L 113.669835 43.227118 
L 113.742897 43.278139 
L 113.998615 43.148363 
L 114.436987 43.287919 
L 114.656174 43.261469 
L 114.984953 43.093726 
L 115.131078 42.866312 
L 115.20414 42.799509 
L 115.277202 43.016573 
L 115.715575 43.086536 
L 115.89823 43.171235 
L 116.007823 43.225833 
L 116.044354 43.13061 
L 116.263541 43.055079 
L 116.409665 42.982399 
L 116.482727 43.149985 
L 116.555789 42.983724 
L 116.811507 43.000583 
L 116.994162 43.004017 
L 117.067224 43.007696 
L 117.28641 42.789388 
L 117.432535 43.091675 
L 117.505597 43.123534 
L 117.542128 43.351291 
L 117.578659 43.337108 
L 117.761314 43.389433 
L 117.797845 43.304257 
L 117.834376 43.38328 
L 118.053563 43.530026 
L 118.199687 43.509559 
L 118.272749 43.948918 
L 118.345811 43.924137 
L 118.564998 43.900285 
L 118.711122 43.685548 
L 118.747653 43.674707 
L 118.820715 43.431717 
L 118.857246 43.49701 
L 119.00337 43.48703 
L 119.112964 43.623436 
L 119.222557 43.575232 
L 119.368681 43.894146 
L 119.624398 44.041116 
L 119.807054 43.28577 
L 119.843585 43.333314 
L 120.02624 43.148147 
L 120.245426 43.188306 
L 120.793392 43.619398 
L 120.829924 43.736565 
L 120.902986 43.603984 
L 121.085641 43.527143 
L 121.158703 43.434989 
L 121.524014 43.483741 
L 121.670138 43.102703 
L 121.816262 43.423626 
L 121.852793 43.352238 
L 122.035449 43.382417 
L 122.145042 43.109256 
L 122.291166 43.345927 
L 122.43729 43.487139 
L 122.693008 43.687303 
L 122.948725 44.05716 
L 123.862002 44.570592 
L 123.898533 44.545488 
L 123.935064 44.628859 
L 124.190781 44.600145 
L 124.373437 44.363785 
L 124.409968 44.430681 
L 124.48303 44.523843 
L 124.702216 44.472768 
L 124.84834 44.668888 
L 124.921403 44.594256 
L 124.957934 45.240282 
L 124.994465 45.235693 
L 125.140589 45.360246 
L 125.213651 44.99936 
L 125.250182 45.08925 
L 125.432837 45.011134 
L 125.469368 45.31432 
L 125.5059 45.280203 
L 125.944272 45.62992 
L 126.126928 45.571647 
L 126.273052 45.995979 
L 126.419176 46.036486 
L 126.455707 46.257771 
L 126.528769 46.222882 
L 126.784487 46.208515 
L 127.22286 46.3479 
L 127.734294 46.252223 
L 127.807357 46.431735 
L 127.91695 46.274382 
L 128.063074 46.515532 
L 128.318791 46.376198 
L 128.464916 46.216453 
L 128.501447 46.281159 
L 128.537978 46.285472 
L 128.684102 46.04929 
L 128.793695 46.088098 
L 129.085944 46.380614 
L 129.232068 46.385419 
L 129.268599 46.539447 
L 129.341661 46.47395 
L 129.780034 46.753659 
L 129.853096 46.616848 
L 130.291469 46.618504 
L 130.547186 46.185709 
L 130.802904 46.513926 
L 130.839435 46.568409 
L 130.875966 46.494672 
L 131.058621 46.513198 
L 131.131683 46.632721 
L 131.643118 46.642206 
L 131.898836 46.600955 
L 132.008429 46.594065 
L 132.081491 46.371222 
L 132.154553 46.396578 
L 132.373739 46.547333 
L 132.41027 46.510654 
L 132.556395 46.511929 
L 132.592926 46.882272 
L 132.665988 46.852025 
L 132.812112 46.886111 
L 132.848643 46.943871 
L 132.921705 46.583739 
L 134.090699 47.067717 
L 134.12723 47.04765 
L 134.163761 46.873393 
L 134.200293 46.954725 
L 134.419479 47.421241 
L 134.45601 47.494622 
L 134.821321 47.329938 
L 134.894383 47.816132 
L 134.967445 47.806175 
L 135.186631 47.789178 
L 135.223162 47.69137 
L 135.405818 47.736312 
L 135.47888 47.585204 
L 135.625004 47.60976 
L 135.698066 47.860443 
L 135.734597 47.831573 
L 135.84419 47.84193 
L 135.880721 48.001999 
L 135.953784 47.92584 
L 136.099908 47.893295 
L 136.209501 47.987251 
L 136.355625 47.92797 
L 136.940122 48.138904 
L 137.488088 48.126881 
L 137.634212 48.244121 
L 137.743806 48.267977 
L 137.88993 47.849931 
L 138.036054 47.921178 
L 138.291772 47.940774 
L 138.510958 48.01922 
L 138.657082 48.093126 
L 138.985862 48.084063 
L 139.058924 48.07621 
L 141.068132 48.535296 
L 141.214257 48.257254 
L 141.360381 48.13333 
L 141.469974 48.207091 
L 141.616098 48.507993 
L 141.725692 48.539349 
L 141.762223 48.427662 
L 141.798754 48.5829 
L 141.835285 48.536431 
L 141.981409 48.619739 
L 142.127533 48.646071 
L 142.310189 48.716137 
L 142.383251 48.62586 
L 142.529375 48.68953 
L 142.638968 48.752214 
L 142.785092 48.776014 
L 142.821623 48.661533 
L 142.894686 48.689456 
L 144.100211 49.068027 
L 144.136742 49.002191 
L 144.173273 49.079761 
L 145.159611 49.046264 
L 145.378798 48.915697 
L 145.415329 48.996506 
L 145.45186 48.929759 
L 145.707577 48.960239 
L 145.817171 48.946483 
L 145.926764 49.115145 
L 145.963295 49.08682 
L 146.219012 49.154963 
L 146.84004 49.150918 
L 146.913102 49.101872 
L 146.949634 49.125978 
L 147.095758 49.143241 
L 147.241882 49.382853 
L 147.607193 49.418328 
L 147.753317 49.091935 
L 148.009034 48.715086 
L 148.483938 48.811773 
L 148.666593 48.252903 
L 148.776187 47.935304 
L 148.88578 48.061838 
L 148.995373 48.114835 
L 149.031904 48.036677 
L 149.178028 48.077995 
L 149.287622 48.163349 
L 149.470277 48.147036 
L 149.543339 48.025658 
L 150.420085 47.810849 
L 150.712333 47.776621 
L 150.821926 48.140942 
L 151.479485 48.202714 
L 151.589079 48.069099 
L 151.954389 48.325505 
L 152.063982 47.947901 
L 152.100513 47.963092 
L 152.356231 47.906389 
L 152.977259 47.617762 
L 153.01379 47.615491 
L 153.232976 47.099275 
L 153.817473 47.171301 
L 153.854004 47.237607 
L 153.890535 47.183867 
L 154.03666 47.173414 
L 154.146253 47.418391 
L 154.365439 47.486053 
L 154.511564 47.334807 
L 154.767281 47.130516 
L 155.022998 46.985758 
L 155.278716 47.048843 
L 155.351778 47.401578 
L 155.42484 47.39031 
L 155.644027 47.099078 
L 155.680558 47.080223 
L 155.899744 47.281975 
L 156.44771 47.027969 
L 156.959145 46.954333 
L 157.068738 46.907381 
L 157.214862 47.114848 
L 157.397518 47.227565 
L 157.47058 47.064346 
L 158.237732 47.103596 
L 158.712636 46.957849 
L 158.85876 46.925231 
L 158.931822 46.97674 
L 159.004884 46.948147 
L 159.443257 46.905395 
L 159.516319 46.78798 
L 159.625912 47.240493 
L 159.662443 47.1085 
L 159.735506 46.973526 
L 159.772037 47.026936 
L 159.991223 46.998122 
L 161.160217 47.788627 
L 161.196748 47.735764 
L 161.233279 47.85586 
L 161.525528 48.120464 
L 161.671652 48.505379 
L 161.817776 48.408576 
L 162.29268 48.307199 
L 162.329211 48.388711 
L 162.731053 48.251239 
L 163.205957 48.330045 
L 163.352081 48.411216 
L 163.717391 48.384107 
L 164.119233 48.264827 
L 164.374951 48.332501 
L 164.521075 48.285902 
L 164.557606 48.39049 
L 164.630668 48.310495 
L 164.849854 48.288422 
L 164.995979 48.445437 
L 165.142103 48.555037 
L 166.055379 49.067232 
L 166.128442 49.376497 
L 166.164973 49.36353 
L 166.42069 49.182686 
L 166.822532 49.20273 
L 166.932125 49.242908 
L 167.370498 49.332857 
L 167.407029 49.385407 
L 167.44356 49.2389 
L 167.699277 49.261429 
L 167.918464 49.258955 
L 168.064588 49.164009 
L 168.13765 49.16705 
L 168.356836 48.700324 
L 168.722147 48.680463 
L 168.904802 48.531785 
L 168.941333 48.663045 
L 168.977865 48.610571 
L 169.416237 48.498768 
L 169.452768 48.447271 
L 169.489299 48.506691 
L 169.745017 48.474634 
L 169.927672 48.222473 
L 169.964203 48.272898 
L 170.000734 47.947234 
L 170.219921 47.892106 
L 170.402576 47.882823 
L 170.475638 48.095934 
L 170.512169 48.065298 
L 170.621762 48.080815 
L 170.694824 48.340118 
L 170.731356 48.218465 
L 170.767887 48.233984 
L 170.914011 47.84766 
L 170.987073 48.08268 
L 171.023604 48.053988 
L 171.461977 48.296582 
L 171.498508 48.225566 
L 171.644632 47.790337 
L 171.681163 46.679544 
L 171.754225 46.832313 
L 171.936881 46.770912 
L 172.009943 47.066996 
L 172.046474 47.057506 
L 172.192598 47.155179 
L 172.229129 46.979627 
L 172.26566 47.127036 
L 172.484847 47.285507 
L 172.521378 47.165852 
L 172.557909 47.367002 
L 172.667502 47.390126 
L 172.740564 47.183349 
L 172.813626 47.49983 
L 173.215468 47.360697 
L 173.251999 47.285704 
L 173.325061 47.346348 
L 174.092213 47.134258 
L 174.347931 46.845144 
L 174.786304 46.973002 
L 174.968959 47.002718 
L 175.115083 47.043316 
L 175.297738 47.037875 
L 175.334269 47.348184 
L 175.626518 47.063259 
L 176.064891 47.034003 
L 176.649388 46.854867 
L 176.832043 46.924011 
L 176.905105 46.82685 
L 177.41654 46.83579 
L 177.635726 46.776883 
L 177.854913 46.732658 
L 178.037568 46.737066 
L 178.43941 46.587322 
L 178.658596 46.53638 
L 178.914314 46.417266 
L 178.950845 46.504239 
L 179.1335 46.569456 
L 179.170031 46.639697 
L 179.316155 46.173954 
L 179.352686 46.174671 
L 179.425749 46.362149 
L 179.46228 46.339382 
L 180.412087 46.331859 
L 180.485149 46.077574 
L 180.886991 46.15223 
L 180.996584 46.21466 
L 181.361895 46.198601 
L 181.727205 45.966231 
L 182.019454 45.956986 
L 182.165578 45.896513 
L 182.275171 45.789415 
L 183.298041 45.967926 
L 183.517228 45.791133 
L 183.663352 45.385105 
L 183.809476 46.097642 
L 183.919069 45.929176 
L 184.430504 45.854739 
L 184.540097 46.268098 
L 184.686222 47.282212 
L 184.832346 47.374926 
L 185.015001 47.201733 
L 185.088063 46.891431 
L 185.197656 47.044815 
L 185.343781 46.842393 
L 185.562967 46.697674 
L 185.709091 46.916469 
L 185.818685 46.541427 
L 185.855216 46.559661 
L 186.037871 46.644659 
L 186.220526 46.958863 
L 186.36665 47.025367 
L 186.512775 46.74673 
L 186.585837 46.810492 
L 186.768492 46.884874 
L 186.878085 46.76806 
L 187.097272 46.876743 
L 187.243396 46.754414 
L 187.535645 46.934444 
L 187.791362 46.730422 
L 187.864424 46.864492 
L 187.900955 46.839532 
L 188.010548 46.841892 
L 188.047079 46.718194 
L 188.120142 46.74593 
L 188.156673 46.801507 
L 188.302797 46.596961 
L 188.375859 46.654119 
L 188.521983 46.652945 
L 188.631576 46.495798 
L 188.668107 46.5524 
L 188.777701 46.858962 
L 188.814232 46.751275 
L 189.033418 46.43646 
L 189.143011 46.455727 
L 189.325667 46.994092 
L 189.398729 46.730248 
L 189.43526 46.755861 
L 189.80057 46.82093 
L 189.946695 46.621596 
L 190.12935 46.986295 
L 190.165881 46.965798 
L 190.202412 46.927472 
L 190.348536 46.933188 
L 190.385067 47.140285 
L 190.45813 46.994234 
L 190.640785 47.050969 
L 190.82344 47.147939 
L 190.859971 47.132477 
L 190.969564 47.354852 
L 191.225282 47.405454 
L 191.334875 47.318988 
L 191.371406 47.379004 
L 191.480999 47.579647 
L 191.700186 48.197204 
L 191.736717 48.17572 
L 191.882841 48.214548 
L 191.992434 48.415123 
L 192.102027 48.312599 
L 192.138558 48.731056 
L 192.211621 48.641039 
L 192.357745 48.61053 
L 192.613462 48.912082 
L 192.759587 49.207314 
L 193.015304 49.263315 
L 193.271021 49.199749 
L 193.453677 49.307506 
L 193.636332 49.247745 
L 194.403484 49.377821 
L 194.549609 49.479571 
L 194.914919 49.557448 
L 195.024512 49.573507 
L 195.170637 49.63205 
L 195.316761 49.593541 
L 195.791665 49.524812 
L 196.449224 49.601612 
L 196.595348 49.54576 
L 198.129653 49.614557 
L 199.042929 49.560836 
L 199.152523 49.5308 
L 200.175392 49.790465 
L 200.832951 49.864493 
L 200.942545 49.924597 
L 201.600104 49.917068 
L 201.673166 49.85662 
L 201.709697 49.88985 
L 201.855821 50.059216 
L 201.892352 50.020399 
L 201.965414 49.942621 
L 202.111539 49.955667 
L 202.221132 50.119494 
L 202.696036 50.325639 
L 202.915222 50.354217 
L 203.170939 50.302614 
L 203.974623 50.214114 
L 204.23034 50.205708 
L 204.960962 50.068635 
L 205.216679 50.194087 
L 205.435865 50.097409 
L 205.801176 49.826749 
L 206.458735 49.825878 
L 206.677922 49.844356 
L 208.614068 49.750214 
L 208.869785 49.800767 
L 209.125503 49.827411 
L 209.563875 49.840712 
L 210.586745 49.78051 
L 211.061649 49.802061 
L 211.171242 49.781082 
L 211.536553 49.806734 
L 211.646146 49.770302 
L 211.828801 49.843621 
L 213.911072 49.682699 
L 213.947603 49.617406 
L 213.984134 49.659315 
L 214.422507 49.550753 
L 214.495569 49.654764 
L 215.956812 49.631619 
L 216.029874 49.615746 
L 216.541309 49.795927 
L 217.052743 49.864074 
L 217.418054 49.891392 
L 218.002551 49.740912 
L 218.221737 49.692619 
L 218.331331 49.697745 
L 218.477455 49.707385 
L 218.550517 49.830436 
L 218.587048 49.817449 
L 218.952359 49.827092 
L 219.463794 49.561297 
L 219.609918 49.561993 
L 221.326878 49.213641 
L 221.546064 49.214996 
L 221.874844 48.993222 
L 221.911375 49.073766 
L 222.532403 49.028531 
L 222.78812 48.828571 
L 222.897713 48.616742 
L 222.934245 48.625998 
L 223.043838 48.228864 
L 223.1169 48.373375 
L 223.153431 48.396295 
L 223.189962 48.307432 
L 224.432018 47.927438 
L 224.468549 48.030338 
L 224.724267 47.988298 
L 224.870391 48.007564 
L 224.979984 47.979439 
L 225.162639 48.023251 
L 225.235701 47.976896 
L 225.491419 47.919722 
L 225.747136 47.7951 
L 226.002854 47.791691 
L 226.258571 47.894163 
L 227.208379 47.770873 
L 227.281441 47.742601 
L 227.646752 47.630486 
L 227.683283 47.571803 
L 227.756345 47.638121 
L 228.304311 47.610249 
L 228.706152 47.348169 
L 229.802084 47.311083 
L 229.98474 47.276519 
L 230.35005 47.06178 
L 230.971078 47.138353 
L 231.117203 47.21734 
L 231.226796 47.220204 
L 231.336389 47.344963 
L 231.482513 47.15538 
L 232.359259 47.497673 
L 232.505383 47.442371 
L 232.797632 47.557622 
L 233.053349 47.593724 
L 233.162942 47.652646 
L 233.528253 47.68615 
L 233.674377 47.813559 
L 234.149281 47.90883 
L 234.185812 47.847008 
L 234.660716 47.951103 
L 234.80684 47.864137 
L 234.952964 47.72223 
L 235.172151 47.6699 
L 235.318275 47.623785 
L 235.464399 47.901135 
L 235.573992 47.934654 
L 235.720117 48.290581 
L 236.121958 48.032974 
L 236.158489 48.134183 
L 236.341145 48.125745 
L 236.377676 48.053727 
L 236.450738 48.145456 
L 236.669924 48.363981 
L 236.742986 48.506052 
L 237.254421 48.694434 
L 237.400545 48.650747 
L 237.437077 48.517067 
L 237.510139 48.543837 
L 237.875449 48.502148 
L 238.021574 48.311942 
L 238.423415 48.357 
L 238.679133 48.811508 
L 238.752195 48.755432 
L 238.971381 48.701611 
L 239.044443 48.770491 
L 239.555878 48.789993 
L 240.067313 48.671877 
L 240.834465 48.777212 
L 241.090183 48.710939 
L 241.601618 48.736897 
L 241.857335 48.774452 
L 242.113053 48.740087 
L 242.36877 48.681215 
L 242.624487 48.710301 
L 242.880205 48.765745 
L 243.099391 48.854384 
L 243.135922 48.89364 
L 243.793481 48.646006 
L 244.158792 48.734388 
L 244.304916 48.790621 
L 244.341447 48.894307 
L 244.41451 48.79233 
L 244.670227 48.736724 
L 244.816351 48.590916 
L 244.889413 48.50663 
L 244.925944 48.55819 
L 245.437379 48.250799 
L 245.546973 47.622218 
L 245.693097 46.306031 
L 245.912283 45.211223 
L 245.948814 45.249505 
L 246.058407 45.174901 
L 246.094938 44.725565 
L 246.168001 44.911071 
L 246.314125 44.828415 
L 246.387187 44.916476 
L 246.423718 44.814744 
L 246.679435 44.334392 
L 246.82556 43.647069 
L 246.898622 43.695941 
L 246.935153 43.835601 
L 246.971684 43.819298 
L 247.117808 43.753286 
L 247.19087 43.23795 
L 247.227401 43.27694 
L 247.336995 43.161685 
L 247.446588 42.650505 
L 247.483119 42.693762 
L 247.592712 42.678005 
L 247.702305 42.847972 
L 247.848429 42.764529 
L 247.884961 42.794172 
L 247.921492 42.702562 
L 248.104147 42.461805 
L 248.250271 42.245564 
L 248.432926 42.332409 
L 248.652113 41.702573 
L 248.725175 41.804174 
L 248.871299 41.637749 
L 248.944361 41.883245 
L 248.980892 41.764136 
L 249.127017 41.731139 
L 249.200079 41.771102 
L 249.23661 41.588269 
L 249.273141 41.7811 
L 249.382734 41.83888 
L 249.419265 42.089478 
L 249.455796 42.079546 
L 249.528858 41.703541 
L 249.784576 41.471838 
L 249.967231 41.505703 
L 250.040293 41.324605 
L 250.296011 41.373806 
L 250.442135 41.382141 
L 250.734383 40.811631 
L 251.063163 40.910919 
L 251.428474 40.856267 
L 251.574598 40.266722 
L 251.97644 40.234889 
L 252.049502 40.187392 
L 252.195626 40.148276 
L 252.524406 40.180977 
L 252.560937 40.344341 
L 252.597468 40.24215 
L 252.853185 40.441479 
L 252.962778 40.693491 
L 252.999309 40.562038 
L 253.255027 40.618272 
L 253.36462 40.284052 
L 253.766462 40.21971 
L 253.876055 39.901682 
L 254.131772 39.794939 
L 254.350959 40.115731 
L 254.497083 40.398291 
L 254.570145 40.349032 
L 254.606676 40.581586 
L 254.643207 40.547993 
L 254.898925 40.593659 
L 255.08158 40.723234 
L 255.337297 40.449349 
L 255.519953 40.440402 
L 255.556484 40.39619 
L 255.666077 39.719706 
L 255.77567 39.789917 
L 255.921794 39.430364 
L 256.10445 39.406913 
L 256.396698 39.820545 
L 256.433229 39.695126 
L 256.652416 39.68518 
L 256.835071 39.605311 
L 256.871602 39.67109 
L 257.309975 39.849436 
L 257.456099 39.382082 
L 257.711816 39.413511 
L 257.857941 39.534057 
L 257.894472 39.258458 
L 257.967534 39.376421 
L 258.113658 39.247712 
L 258.18672 39.441381 
L 258.223251 39.409917 
L 258.369376 39.662256 
L 258.734686 41.868519 
L 258.917342 41.826826 
L 258.953873 42.120455 
L 258.990404 42.013233 
L 259.392245 41.800749 
L 259.501839 42.090264 
L 259.611432 41.978228 
L 259.684494 42.860641 
L 259.721025 42.817516 
L 259.867149 42.588357 
L 260.268991 43.66624 
L 260.524708 43.427596 
L 260.634302 43.418648 
L 260.707364 43.195587 
L 260.780426 43.287248 
L 260.963081 43.461655 
L 261.036143 43.581003 
L 261.182267 43.427977 
L 261.25533 43.560767 
L 261.401454 43.612011 
L 261.437985 43.479335 
L 261.474516 43.523274 
L 261.547578 43.858059 
L 261.657171 43.835731 
L 261.766764 44.189081 
L 261.803296 44.101483 
L 261.94942 44.269562 
L 261.985951 44.233828 
L 262.059013 44.181026 
L 262.241668 44.177765 
L 262.31473 43.984777 
L 262.497386 44.541039 
L 262.570448 44.092028 
L 262.753103 44.075113 
L 262.789634 43.89475 
L 262.826165 43.924402 
L 262.935758 44.016199 
L 263.081883 43.737616 
L 263.301069 43.820834 
L 263.447193 43.127483 
L 263.593318 43.726892 
L 264.250877 43.24073 
L 264.287408 42.842464 
L 264.36047 43.033652 
L 264.470063 43.183987 
L 264.506594 43.055735 
L 264.835374 43.160482 
L 264.871905 43.179522 
L 265.091091 42.923861 
L 265.127622 42.968242 
L 265.273747 43.024959 
L 265.529464 42.865723 
L 265.785181 42.889105 
L 265.894775 42.507247 
L 266.113961 42.44027 
L 266.150492 42.303224 
L 266.260085 42.329561 
L 266.296616 42.492236 
L 266.369678 42.355854 
L 266.406209 42.052222 
L 266.515803 42.089538 
L 266.661927 42.64589 
L 266.77152 42.633595 
L 266.808051 42.748982 
L 266.844582 42.717069 
L 266.917644 42.611024 
L 267.027238 42.638636 
L 267.173362 42.900575 
L 267.392548 42.943975 
L 267.429079 43.04978 
L 267.575203 42.768397 
L 267.611735 42.883092 
L 267.648266 42.939221 
L 267.684797 42.907458 
L 267.79439 42.931133 
L 268.123169 43.776084 
L 268.196232 43.635196 
L 268.415418 43.786727 
L 268.561542 44.245424 
L 268.634604 44.139344 
L 268.671135 44.244849 
L 268.81726 44.286559 
L 268.890322 44.3156 
L 268.926853 44.270346 
L 269.072977 44.127819 
L 269.109508 44.163382 
L 269.18257 44.565736 
L 269.219101 44.351728 
L 269.328695 44.368631 
L 269.474819 44.683335 
L 269.620943 44.786317 
L 269.730536 45.005866 
L 270.168909 44.907739 
L 270.20544 45.044658 
L 270.241971 45.0295 
L 270.497689 45.077226 
L 270.680344 44.989873 
L 270.716875 44.98974 
L 270.862999 45.463492 
L 271.009123 45.605277 
L 271.22831 44.496519 
L 271.264841 44.524703 
L 271.739745 44.485714 
L 271.776276 44.515738 
L 271.9224 44.283708 
L 272.178117 43.55851 
L 272.25118 43.627789 
L 272.287711 43.56328 
L 272.433835 43.401767 
L 272.543428 43.547272 
L 272.799146 42.847354 
L 272.94527 43.064571 
L 273.054863 43.617477 
L 273.164456 43.619233 
L 273.31058 43.286149 
L 273.529767 43.335045 
L 273.566298 43.44685 
L 273.748953 43.298722 
L 273.785484 43.35821 
L 274.077733 43.702743 
L 274.187326 43.675464 
L 274.260388 43.938428 
L 274.33345 43.904766 
L 274.443043 43.969841 
L 274.552637 43.641211 
L 274.589168 43.656651 
L 274.698761 43.506723 
L 274.735292 43.571589 
L 274.844885 43.67789 
L 275.02754 43.61951 
L 275.210196 43.449539 
L 275.283258 43.56045 
L 275.319789 43.514326 
L 275.35632 43.457802 
L 275.502444 43.729636 
L 275.538975 43.663952 
L 275.721631 43.668517 
L 275.758162 43.585146 
L 275.794693 43.639941 
L 275.831224 43.760304 
L 275.867755 43.647526 
L 276.013879 43.707717 
L 276.123472 43.483567 
L 276.233065 43.511659 
L 276.37919 44.801776 
L 276.561845 44.843561 
L 276.598376 44.905989 
L 276.634907 44.861794 
L 276.781031 44.692686 
L 276.890625 45.114428 
L 277.328997 45.186159 
L 277.402059 45.455036 
L 277.621246 45.357353 
L 277.657777 45.122786 
L 278.09615 45.173506 
L 278.388398 44.836402 
L 278.424929 44.983681 
L 278.644116 44.965126 
L 278.899833 45.350379 
L 278.936364 45.268381 
L 279.301675 45.490318 
L 279.447799 45.805808 
L 279.81311 46.090417 
L 279.886172 46.151988 
L 279.922703 45.925925 
L 279.959234 45.948754 
L 280.324544 46.164858 
L 280.397607 46.254072 
L 280.434138 46.224451 
L 280.616793 45.794645 
L 280.653324 45.857612 
L 280.835979 45.881198 
L 280.982104 45.695518 
L 281.164759 45.740288 
L 281.639663 45.667863 
L 281.749256 45.514538 
L 281.89538 45.535455 
L 282.004973 45.479707 
L 282.22416 45.511921 
L 282.406815 45.583724 
L 282.479877 45.236681 
L 282.516408 45.241567 
L 283.027843 44.956514 
L 283.283561 45.009637 
L 283.393154 45.057969 
L 283.429685 44.956028 
L 283.648871 44.911398 
L 283.685402 44.889706 
L 283.721933 44.660176 
L 283.794995 44.748089 
L 283.977651 44.746589 
L 284.014182 44.982454 
L 284.050713 44.947387 
L 284.196837 45.140738 
L 284.233368 45.118375 
L 284.30643 45.046851 
L 284.562148 43.961098 
L 284.671741 43.857465 
L 284.781334 43.499519 
L 284.817865 43.572543 
L 284.927458 43.577372 
L 285.073583 44.480176 
L 285.219707 44.120053 
L 285.256238 44.179203 
L 285.292769 44.243633 
L 285.438893 44.031376 
L 285.585018 44.190152 
L 285.767673 44.270696 
L 285.840735 44.083112 
L 285.950328 44.181052 
L 286.096452 43.590235 
L 286.315639 43.553787 
L 286.461763 43.435089 
L 286.498294 43.474806 
L 286.607887 43.59482 
L 287.009729 43.685775 
L 287.228915 43.206618 
L 287.338509 42.948496 
L 287.37504 43.030642 
L 287.484633 43.146754 
L 287.557695 42.588047 
L 287.594226 42.613062 
L 287.74035 42.678792 
L 287.849943 42.077463 
L 287.886475 42.128228 
L 287.996068 42.072324 
L 288.142192 41.86302 
L 288.324847 41.68221 
L 288.397909 41.755827 
L 288.544034 41.727246 
L 288.653627 41.236142 
L 288.799751 40.734031 
L 288.872813 40.797679 
L 289.018937 40.930077 
L 289.092 40.284773 
L 289.128531 40.330195 
L 289.274655 40.271699 
L 289.347717 40.095934 
L 289.384248 40.13215 
L 289.530372 39.215867 
L 289.676497 38.589004 
L 289.78609 38.393458 
L 289.859152 38.457108 
L 289.895683 38.495844 
L 289.932214 38.160211 
L 290.041807 38.459751 
L 290.078338 38.362004 
L 290.1514 36.765935 
L 290.187931 37.298673 
L 290.297525 37.039418 
L 290.334056 36.664386 
L 290.370587 36.75031 
L 290.443649 38.160232 
L 290.626304 38.590595 
L 290.699366 39.020055 
L 290.845491 38.823811 
L 290.955084 37.899213 
L 291.101208 37.865697 
L 291.429988 36.786556 
L 291.576112 36.871012 
L 291.612643 37.052586 
L 291.649174 36.979349 
L 291.722236 36.558403 
L 291.831829 36.633124 
L 291.86836 36.418934 
L 291.904891 36.504248 
L 291.977954 36.855532 
L 292.19714 36.170379 
L 292.343264 35.800018 
L 292.416326 35.721805 
L 292.635513 35.442307 
L 292.708575 35.657866 
L 292.745106 35.467866 
L 292.854699 35.419591 
L 293.000823 36.052476 
L 293.110417 36.090913 
L 293.183479 35.421205 
L 293.22001 35.870396 
L 293.256541 35.798763 
L 293.402665 35.995279 
L 293.475727 36.783884 
L 293.512258 36.752104 
L 293.621851 36.734139 
L 293.767976 37.46473 
L 293.877569 37.829089 
L 293.950631 38.377636 
L 293.987162 38.264389 
L 294.023693 38.323156 
L 294.169817 38.229697 
L 294.279411 39.489372 
L 294.425535 39.621842 
L 294.462066 39.328596 
L 294.498597 39.790791 
L 294.644721 40.048306 
L 294.754314 40.885429 
L 294.790845 40.751828 
L 294.900439 40.757054 
L 295.010032 40.208447 
L 295.046563 40.220195 
L 295.411873 40.766043 
L 295.667591 40.223999 
L 295.813715 40.901486 
L 295.959839 40.481923 
L 295.99637 40.72389 
L 296.069433 39.597427 
L 296.179026 39.545524 
L 296.32515 41.364493 
L 296.434743 41.501322 
L 296.580868 40.740375 
L 296.690461 40.725093 
L 296.763523 40.846955 
L 296.836585 40.576194 
L 296.982709 40.61049 
L 297.092302 40.318477 
L 297.201896 40.36703 
L 297.34802 41.28034 
L 297.494144 40.721957 
L 297.530675 40.793071 
L 297.567206 40.772116 
L 297.603737 40.530025 
L 297.786393 40.581787 
L 297.859455 40.442212 
L 297.969048 40.46294 
L 298.04211 40.714788 
L 298.078641 40.496002 
L 298.115172 40.587963 
L 298.553545 39.967174 
L 298.590076 39.991296 
L 298.845793 40.106737 
L 299.06498 40.407003 
L 299.101511 40.252354 
L 299.138042 40.277852 
L 299.357228 40.340746 
L 299.503353 39.975405 
L 299.539884 40.108571 
L 299.576415 39.877421 
L 299.612946 39.965299 
L 299.905194 40.019764 
L 300.160912 40.238612 
L 300.343567 39.977066 
L 300.380098 40.053818 
L 300.416629 40.455216 
L 300.599284 40.493863 
L 300.818471 40.684843 
L 300.855002 40.680979 
L 300.928064 40.850161 
L 301.037657 40.818489 
L 301.110719 40.55921 
L 301.183781 40.62765 
L 301.366437 40.671135 
L 301.439499 40.540215 
L 302.060527 41.301247 
L 302.17012 41.284282 
L 302.389307 41.519379 
L 302.645024 40.359118 
L 302.681555 40.478135 
L 302.86421 40.890927 
L 302.900741 40.81912 
L 302.937272 41.073904 
L 302.973804 40.91921 
L 303.119928 41.38611 
L 303.156459 41.040305 
L 303.229521 41.076065 
L 303.448707 41.122813 
L 303.485238 40.815533 
L 303.594832 40.99819 
L 303.631363 40.903244 
L 303.667894 40.799673 
L 303.740956 40.909572 
L 303.850549 41.075757 
L 303.923611 40.895488 
L 303.996673 40.934925 
L 304.179329 41.062985 
L 304.21586 41.186929 
L 304.252391 41.164928 
L 304.471577 41.141758 
L 304.508108 40.766261 
L 304.690763 41.105011 
L 304.763826 40.983791 
L 304.90995 41.051172 
L 304.946481 40.966944 
L 305.019543 37.776276 
L 305.165667 37.805786 
L 305.238729 38.242896 
L 305.27526 38.153185 
L 305.384854 38.225187 
L 305.421385 38.13556 
L 305.494447 37.013318 
L 305.530978 37.234988 
L 305.640571 36.857218 
L 305.677102 36.959741 
L 305.713633 37.469002 
L 305.750164 36.737393 
L 305.896289 36.108587 
L 306.005882 30.684063 
L 306.042413 31.559299 
L 306.152006 31.573242 
L 306.29813 32.42479 
L 306.407723 31.538975 
L 306.444255 33.052056 
L 306.553848 32.998 
L 306.773034 33.434264 
L 306.955689 32.291768 
L 306.99222 32.462388 
L 307.028752 32.062791 
L 307.174876 29.381466 
L 307.211407 29.318605 
L 307.321 28.000671 
L 307.576717 29.449871 
L 307.832435 28.652974 
L 307.942028 28.756238 
L 308.197746 24.188434 
L 308.270808 24.594561 
L 308.307339 25.423377 
L 308.34387 25.248012 
L 308.453463 25.49297 
L 308.526525 25.436814 
L 308.745711 24.738446 
L 308.782243 24.764739 
L 309.074491 25.412716 
L 309.220615 25.101219 
L 309.293677 25.294272 
L 309.36674 23.063768 
L 309.476333 23.034125 
L 309.549395 22.027704 
L 309.622457 22.11846 
L 309.878174 22.068099 
L 310.243485 21.574208 
L 310.316547 21.51492 
L 310.389609 21.941004 
L 310.499202 21.938926 
L 310.535734 21.468076 
L 310.608796 21.497949 
L 310.645327 21.852846 
L 310.827982 21.358717 
L 310.901044 19.325661 
L 311.010637 19.153142 
L 311.047168 19.436883 
L 311.0837 19.059613 
L 311.266355 19.173402 
L 311.412479 19.699598 
L 311.595134 18.919874 
L 311.668197 18.971311 
L 311.77779 19.225396 
L 311.850852 19.191465 
L 312.033507 18.638795 
L 312.070038 19.27118 
L 312.1431 18.764781 
L 312.289225 18.982258 
L 312.362287 18.450568 
L 312.398818 18.683424 
L 312.544942 18.495439 
L 312.581473 18.567452 
L 312.618004 18.894435 
L 312.691066 18.61339 
L 312.837191 18.758565 
L 312.946784 19.21718 
L 313.056377 19.273845 
L 313.092908 19.08392 
L 313.129439 19.21523 
L 313.312094 19.525036 
L 313.348625 19.62146 
L 313.421688 18.558132 
L 313.458219 18.692871 
L 314.079247 19.441759 
L 314.225371 18.800545 
L 314.334964 18.644302 
L 314.371495 18.811618 
L 314.444557 18.668527 
L 314.590682 18.570236 
L 314.663744 18.659562 
L 314.700275 18.538976 
L 315.394365 18.096136 
L 315.503958 18.384906 
L 315.613551 18.929184 
L 315.686613 18.844708 
L 315.759676 18.520565 
L 315.9058 18.373611 
L 315.942331 18.55653 
L 316.015393 18.537698 
L 316.198048 18.705606 
L 316.234579 18.563064 
L 316.380704 18.414796 
L 316.453766 18.598006 
L 316.526828 18.512412 
L 316.672952 18.487205 
L 316.746014 18.848503 
L 316.782545 18.666076 
L 316.965201 18.78443 
L 317.038263 18.786169 
L 317.184387 18.786526 
L 317.257449 18.924482 
L 317.29398 18.79947 
L 317.440104 18.82135 
L 317.476636 19.14101 
L 317.549698 19.122031 
L 317.732353 19.118339 
L 317.768884 19.286729 
L 317.805415 19.219219 
L 317.915008 19.295971 
L 317.98807 21.407306 
L 318.061133 21.317946 
L 318.280319 20.973662 
L 318.31685 20.836337 
L 318.426443 21.773202 
L 318.499505 21.488676 
L 318.536036 21.54035 
L 318.791754 20.128039 
L 318.828285 24.532624 
L 318.937878 24.364459 
L 318.974409 25.724422 
L 319.047471 24.86747 
L 319.193595 24.659184 
L 319.33972 23.613575 
L 319.485844 24.205808 
L 319.558906 23.661032 
L 319.595437 23.859757 
L 319.741561 23.641061 
L 319.778092 23.662894 
L 319.814624 23.885362 
L 319.851155 23.804911 
L 319.960748 23.608511 
L 320.289527 27.012938 
L 320.326058 26.391301 
L 320.36259 26.48937 
L 320.545245 26.255597 
L 320.618307 26.575958 
L 320.7279 26.527251 
L 321.020149 29.172634 
L 321.129742 30.484005 
L 321.239335 30.431899 
L 321.275866 29.720389 
L 321.348928 29.846023 
L 321.531584 29.719509 
L 321.75077 30.284733 
L 321.823832 29.766992 
L 321.896894 29.857481 
L 322.006487 29.798954 
L 322.043018 30.011195 
L 322.116081 29.829149 
L 322.262205 30.079465 
L 322.408329 32.755205 
L 322.517922 33.220797 
L 322.554453 33.125249 
L 322.590984 33.012523 
L 322.627515 33.200383 
L 322.664046 33.215089 
L 322.77364 33.473196 
L 322.810171 33.326494 
L 322.846702 33.263937 
L 322.883233 33.367903 
L 322.919764 33.451551 
L 323.029357 33.362883 
L 323.285075 33.821827 
L 323.394668 33.552199 
L 323.431199 34.095795 
L 323.613854 33.866781 
L 323.650385 33.946474 
L 323.796509 34.499976 
L 323.906103 37.357572 
L 323.942634 37.144196 
L 324.16182 37.589412 
L 324.198351 37.238786 
L 324.307944 37.812418 
L 324.344475 37.594 
L 324.381006 37.416293 
L 324.563662 38.86556 
L 324.636724 39.282296 
L 324.673255 38.978086 
L 324.709786 39.091223 
L 324.819379 38.64026 
L 324.85591 38.829407 
L 324.892441 38.95187 
L 324.928972 39.721141 
L 324.965503 39.209662 
L 325.440407 41.88755 
L 325.476938 41.63779 
L 325.586532 41.336844 
L 325.623063 41.567987 
L 325.659594 41.5322 
L 325.87878 40.104838 
L 325.951842 40.149558 
L 325.988373 40.474046 
L 326.134497 40.053374 
L 326.244091 39.486545 
L 326.353684 41.738655 
L 326.426746 40.982178 
L 326.499808 40.518802 
L 326.682463 39.659256 
L 326.755526 38.487742 
L 326.90165 38.545875 
L 326.974712 38.755936 
L 327.011243 39.537682 
L 327.193898 39.29882 
L 327.230429 39.635976 
L 327.26696 39.471968 
L 327.522678 39.967806 
L 327.632271 39.829931 
L 327.961051 41.424137 
L 327.997582 41.387062 
L 328.034113 41.673465 
L 328.216768 41.380044 
L 328.28983 41.491908 
L 328.545548 42.638848 
L 328.655141 42.546611 
L 328.801265 43.79683 
L 328.947389 43.879732 
L 329.056982 44.09489 
L 329.166576 44.172273 
L 329.3127 44.690819 
L 329.458824 44.455671 
L 329.568417 45.112608 
L 329.787604 44.683676 
L 329.970259 45.219693 
L 330.00679 45.152168 
L 330.043321 44.89389 
L 330.079852 45.008301 
L 330.189445 44.945998 
L 330.225977 45.047624 
L 330.445163 45.195351 
L 330.518225 45.040007 
L 330.554756 45.148195 
L 330.737411 45.087482 
L 330.810474 44.980807 
L 330.847005 45.042954 
L 330.993129 44.949975 
L 331.02966 45.046075 
L 331.066191 45.097153 
L 331.102722 45.059015 
L 331.285377 44.907619 
L 331.358439 44.717726 
L 331.541095 44.721891 
L 331.614157 44.573355 
L 331.796812 44.695798 
L 332.015999 45.036699 
L 332.308247 45.025163 
L 332.490902 45.330031 
L 332.563965 45.075348 
L 332.637027 45.181814 
L 332.74662 44.867153 
L 332.783151 44.880745 
L 332.856213 45.740561 
L 332.892744 45.631397 
L 333.258055 44.920716 
L 333.659896 44.500546 
L 333.806021 44.207242 
L 333.879083 43.777244 
L 333.915614 43.950324 
L 334.025207 43.727149 
L 334.061738 43.797537 
L 334.098269 44.257449 
L 334.171331 44.084412 
L 334.317456 44.006665 
L 334.390518 43.849883 
L 334.427049 43.878562 
L 334.573173 43.973731 
L 334.646235 43.466984 
L 334.682766 43.512935 
L 334.901953 43.661722 
L 335.084608 43.710177 
L 335.194201 44.604521 
L 335.559512 44.876638 
L 335.632574 44.811349 
L 335.815229 45.072706 
L 335.85176 45.171523 
L 335.924822 45.097319 
L 336.107478 44.980828 
L 336.217071 45.477723 
L 336.326664 45.522084 
L 336.363195 45.408803 
L 336.399726 45.50605 
L 336.472788 45.967132 
L 336.582381 46.045046 
L 336.691975 45.790791 
L 336.728506 45.82272 
L 336.947692 45.90216 
L 337.130347 46.023177 
L 337.349534 46.009134 
L 337.386065 45.657094 
L 337.459127 45.896088 
L 337.495658 46.007754 
L 337.714844 46.045822 
L 337.751375 46.056909 
L 337.8975 46.646809 
L 337.970562 46.508547 
L 338.226279 46.467708 
L 338.26281 46.242766 
L 338.408935 46.312539 
L 338.445466 46.146888 
L 338.518528 46.305661 
L 338.628121 46.339161 
L 338.920369 47.494924 
L 339.029963 47.415769 
L 339.28568 47.283051 
L 339.395273 46.80907 
L 339.468335 45.853984 
L 339.541398 45.928965 
L 339.650991 45.726057 
L 339.906708 44.192347 
L 339.943239 44.501068 
L 340.016301 44.386309 
L 340.052832 44.330598 
L 340.162426 44.571523 
L 340.198957 44.456512 
L 340.30855 44.359371 
L 340.491205 44.506392 
L 340.564267 44.077057 
L 340.673861 43.743896 
L 340.710392 44.894422 
L 340.783454 44.698921 
L 340.929578 44.561144 
L 341.075702 44.209113 
L 341.221826 44.280191 
L 341.258358 44.430784 
L 341.294889 44.230133 
L 341.441013 43.937717 
L 341.550606 43.776259 
L 341.587137 43.806509 
L 341.842855 43.718965 
L 341.952448 43.808601 
L 341.988979 44.269893 
L 342.062041 44.139639 
L 342.244696 43.955459 
L 342.281227 44.024379 
L 342.536945 44.810491 
L 342.610007 44.778723 
L 342.7196 44.909969 
L 342.756131 44.852123 
L 342.865724 44.733978 
L 343.084911 44.673017 
L 343.304097 44.1523 
L 343.340628 44.282406 
L 343.377159 44.33919 
L 343.486752 44.051718 
L 343.559814 43.454251 
L 343.596346 43.508704 
L 343.632877 43.811445 
L 343.888594 43.585743 
L 344.10778 43.037955 
L 344.253905 43.690025 
L 344.290436 43.636962 
L 344.363498 43.62663 
L 344.509622 43.783885 
L 344.546153 43.656372 
L 344.582684 43.726811 
L 344.619215 43.950822 
L 344.655746 43.875292 
L 344.874933 43.992605 
L 345.021057 44.023364 
L 345.167181 44.367293 
L 345.276774 43.845336 
L 345.349837 43.970797 
L 345.422899 44.253216 
L 345.532492 44.082742 
L 345.569023 44.325201 
L 345.642085 43.473989 
L 345.678616 43.590954 
L 345.788209 43.529112 
L 345.82474 43.346266 
L 345.897803 43.468654 
L 346.043927 43.665849 
L 346.080458 43.673459 
L 346.190051 43.310057 
L 346.372706 43.366972 
L 346.555362 42.420333 
L 346.628424 42.556595 
L 346.84761 42.78706 
L 346.957203 43.319509 
L 347.17639 43.483782 
L 347.322514 44.655076 
L 347.432107 44.624084 
L 347.578231 45.039282 
L 347.614762 45.071924 
L 347.651294 45.020578 
L 347.687825 44.922411 
L 347.724356 45.027216 
L 347.87048 44.960159 
L 347.980073 45.121725 
L 348.381915 44.766926 
L 348.418446 44.71544 
L 348.454977 45.024263 
L 348.491508 45.004951 
L 348.637632 44.898534 
L 348.674163 44.845018 
L 348.710694 44.877571 
L 348.856819 44.942012 
L 349.002943 44.308337 
L 349.441316 44.32244 
L 349.514378 44.429375 
L 349.697033 44.38314 
L 349.733564 44.218059 
L 349.770095 44.341584 
L 349.916219 44.354126 
L 350.025813 44.643265 
L 350.208468 44.636899 
L 350.28153 44.708928 
L 350.646841 44.658063 
L 350.756434 44.130335 
L 350.792965 44.144663 
L 350.902558 44.185854 
L 351.012151 44.034031 
L 351.048682 44.086322 
L 351.3044 43.774894 
L 351.560117 43.806155 
L 352.071552 43.987642 
L 352.32727 44.315975 
L 352.802173 44.383486 
L 352.948298 44.227998 
L 353.094422 44.307831 
L 353.240546 44.268307 
L 353.277077 44.071428 
L 353.350139 44.108132 
L 353.971167 44.132764 
L 354.117292 44.18381 
L 354.555664 44.848342 
L 355.249755 44.541956 
L 355.395879 44.646555 
L 355.651596 44.60717 
L 355.907314 44.810271 
L 356.053438 44.856866 
L 356.089969 45.18437 
L 356.163031 45.169779 
L 356.637935 45.708586 
L 356.674466 45.663552 
L 356.857121 45.819971 
L 357.076308 46.177208 
L 357.185901 46.013896 
L 357.368556 45.895812 
L 357.405087 45.970758 
L 357.441618 45.944837 
L 357.660805 45.933724 
L 357.806929 45.96531 
L 357.953053 45.287886 
L 358.062646 45.503957 
L 358.099178 45.482321 
L 358.208771 45.849012 
L 358.354895 45.534156 
L 358.391426 45.724535 
L 358.427957 45.2819 
L 358.464488 45.994408 
L 358.574081 45.991481 
L 358.610612 45.729318 
L 358.647144 45.877561 
L 358.683675 46.011101 
L 358.720206 45.946542 
L 358.829799 45.779658 
L 358.902861 45.844103 
L 358.975923 45.340497 
L 359.158578 45.252946 
L 359.195109 45.116929 
L 359.231641 45.137867 
L 359.377765 44.948078 
L 359.414296 45.309854 
L 359.487358 45.151027 
L 359.852669 45.196343 
L 359.925731 45.447038 
L 359.998793 46.418719 
L 360.144917 46.42728 
L 360.217979 46.076509 
L 360.25451 46.246178 
L 360.400635 46.177596 
L 360.473697 45.834637 
L 360.510228 46.187877 
L 361.204318 46.480662 
L 361.240849 46.606244 
L 361.27738 46.581059 
L 361.533097 46.564211 
L 361.752284 46.588516 
L 361.898408 46.954367 
L 362.263719 47.0814 
L 362.409843 47.175977 
L 362.66556 47.199775 
L 362.811685 47.388465 
L 362.99434 47.193535 
L 363.067402 47.284795 
L 363.250057 47.383579 
L 363.32312 47.588463 
L 363.542306 47.466538 
L 363.68843 47.664276 
L 363.834554 47.751513 
L 363.980679 47.593893 
L 364.01721 47.480236 
L 364.090272 47.508978 
L 364.236396 47.556742 
L 364.309458 47.611885 
L 364.345989 47.546953 
L 364.565176 47.505845 
L 364.7113 47.488191 
L 364.857424 47.500451 
L 365.368859 47.441158 
L 365.551514 47.620508 
L 365.624577 47.513444 
L 365.770701 47.551288 
L 365.880294 47.888457 
L 366.062949 47.813668 
L 366.537853 47.578434 
L 366.610915 47.765713 
L 366.647446 47.738815 
L 366.757039 47.759178 
L 366.866633 48.07049 
L 366.903164 48.006275 
L 367.158881 48.037839 
L 367.268474 48.181045 
L 367.305005 48.147599 
L 367.378068 47.597138 
L 367.414599 47.689131 
L 367.560723 47.878379 
L 367.597254 47.62669 
L 367.670316 47.851122 
L 368.291344 47.130493 
L 368.327875 47.153225 
L 368.364406 47.060614 
L 368.437468 46.329823 
L 368.547062 46.345887 
L 368.620124 46.279218 
L 368.656655 45.874966 
L 368.693186 45.918728 
L 368.802779 46.094064 
L 368.912372 45.808462 
L 368.948903 45.849842 
L 369.131559 45.862762 
L 369.204621 45.589645 
L 369.460338 45.768949 
L 369.606462 45.757046 
L 369.642993 45.586588 
L 369.716056 45.633344 
L 369.971773 45.557126 
L 370.117897 45.586213 
L 370.22749 45.487793 
L 370.337084 45.46418 
L 370.483208 44.884633 
L 370.592801 44.878176 
L 370.665863 44.608919 
L 370.702394 44.63504 
L 370.848519 44.839222 
L 370.958112 44.944854 
L 371.104236 44.869743 
L 371.140767 44.906476 
L 371.177298 44.854457 
L 371.359953 44.426584 
L 371.433016 44.564452 
L 371.907919 44.646462 
L 371.94445 44.69923 
L 372.017513 44.642746 
L 372.127106 44.704711 
L 372.27323 44.332858 
L 372.455885 44.354177 
L 372.528947 44.078462 
L 372.894258 44.04155 
L 373.040382 43.65929 
L 373.223038 43.732428 
L 373.259569 43.662463 
L 373.2961 43.657979 
L 373.405693 43.909646 
L 373.478755 43.811926 
L 373.515286 43.679883 
L 373.551817 43.729246 
L 373.734473 43.613625 
L 373.807535 43.35355 
L 374.026721 43.118353 
L 374.428563 42.449567 
L 374.538156 42.649796 
L 374.574687 42.631037 
L 374.68428 42.637685 
L 374.720811 42.863468 
L 374.793873 42.706905 
L 375.01306 42.671557 
L 375.049591 42.342487 
L 375.086122 42.440668 
L 375.305308 42.392318 
L 376.072461 42.36617 
L 376.255116 42.195592 
L 376.328178 42.322453 
L 376.474302 42.515461 
L 376.583895 42.181612 
L 376.620426 42.385422 
L 376.766551 42.603465 
L 376.876144 42.871597 
L 377.058799 42.851954 
L 377.131861 43.17854 
L 377.314517 43.257237 
L 377.752889 43.444407 
L 377.899014 43.243729 
L 378.081669 43.14223 
L 378.154731 43.505059 
L 378.410449 43.527959 
L 378.885352 43.986771 
L 379.031477 44.325318 
L 379.177601 44.493564 
L 379.287194 44.415058 
L 379.323725 44.518398 
L 379.396787 44.673977 
L 379.433318 44.758909 
L 379.652505 44.362838 
L 379.689036 44.476949 
L 379.908222 44.233833 
L 380.054346 44.732979 
L 380.310064 45.273826 
L 380.419657 45.735128 
L 380.456188 45.428139 
L 380.602312 45.745012 
L 380.638843 45.713777 
L 380.711906 46.23656 
L 381.332934 46.513176 
L 381.479058 46.975556 
L 381.588651 46.974439 
L 381.734775 47.275199 
L 382.100086 47.465926 
L 382.24621 47.600203 
L 382.501928 47.705746 
L 383.707453 48.348045 
L 383.926639 48.238218 
L 384.036232 48.24864 
L 384.218888 48.304533 
L 384.29195 48.501786 
L 384.547667 48.543889 
L 384.693791 48.758467 
L 384.730322 48.714629 
L 384.766854 48.718826 
L 384.803385 48.469313 
L 385.278288 48.589249 
L 385.424413 48.567465 
L 385.570537 48.713314 
L 385.826254 48.842902 
L 386.045441 48.954298 
L 386.191565 49.013977 
L 386.447282 48.997769 
L 386.556876 49.150525 
L 386.593407 49.083793 
L 387.579745 49.227438 
L 387.762401 49.416808 
L 388.127711 49.603924 
L 389.296705 49.264779 
L 389.552423 49.362173 
L 389.771609 49.307811 
L 389.881202 49.401731 
L 390.027327 49.317592 
L 390.429168 49.246822 
L 390.794479 49.221218 
L 390.867541 49.09869 
L 390.904072 49.140819 
L 391.452038 48.955041 
L 391.671224 48.969786 
L 391.817349 48.830091 
L 391.890411 48.734761 
L 392.401846 48.639112 
L 392.474908 48.498273 
L 393.132467 48.458274 
L 393.24206 48.25926 
L 394.009212 47.995928 
L 394.26493 47.927088 
L 394.484116 47.920879 
L 394.666772 47.938236 
L 395.433924 47.63216 
L 395.543517 47.608401 
L 396.164545 47.589501 
L 397.333539 48.058827 
L 397.552726 47.686397 
L 397.735381 47.719473 
L 397.808443 47.926524 
L 397.844974 47.916322 
L 398.100692 47.824666 
L 398.575595 47.739336 
L 398.612126 47.872284 
L 398.831313 47.813007 
L 398.977437 47.976099 
L 399.269686 47.886052 
L 399.342748 48.067568 
L 399.379279 47.905612 
L 399.525403 47.793746 
L 399.634996 48.037722 
L 400.000307 48.412533 
L 400.036838 48.294158 
L 400.1099 48.305993 
L 400.256024 48.534078 
L 400.402148 48.619633 
L 401.023177 47.446826 
L 401.278894 47.507147 
L 401.388487 47.961563 
L 401.425018 47.91838 
L 401.790329 47.954324 
L 401.899922 47.864563 
L 401.936453 47.88791 
L 402.15564 47.78658 
L 402.301764 47.228241 
L 402.447888 46.164504 
L 402.630543 46.577784 
L 402.703605 46.43997 
L 402.84973 46.402356 
L 402.922792 46.826192 
L 402.959323 46.76567 
L 403.105447 46.778408 
L 403.178509 46.167394 
L 403.21504 46.464456 
L 403.470758 45.905253 
L 403.689944 43.930264 
L 403.872599 44.200937 
L 403.982193 43.870217 
L 404.128317 43.883518 
L 404.201379 44.15874 
L 404.23791 44.07348 
L 404.347503 44.071166 
L 404.384034 44.222096 
L 404.457096 44.156873 
L 404.639752 44.259223 
L 404.676283 44.408052 
L 404.712814 44.347178 
L 404.749345 44.067528 
L 404.932 44.392754 
L 404.968531 43.565671 
L 405.005062 43.628038 
L 405.224249 43.577339 
L 405.26078 43.679909 
L 405.370373 43.628982 
L 405.516497 43.270276 
L 405.735684 43.24592 
L 405.918339 43.242705 
L 405.95487 43.457915 
L 406.027932 43.330356 
L 406.210588 43.77198 
L 406.247119 43.57498 
L 406.393243 43.584694 
L 406.466305 43.709254 
L 406.502836 43.659618 
L 406.64896 43.550399 
L 406.685491 43.751492 
L 406.758553 43.658416 
L 407.196926 43.018087 
L 407.233457 43.264484 
L 407.269988 43.309711 
L 407.306519 43.264148 
L 407.525706 43.077569 
L 407.708361 43.143988 
L 407.817954 43.302608 
L 408.548576 43.531063 
L 408.6947 43.828895 
L 408.731231 43.80975 
L 408.804293 43.627695 
L 408.840824 43.63685 
L 409.023479 43.710492 
L 409.06001 43.736338 
L 409.206135 43.540979 
L 409.242666 43.591695 
L 409.279197 43.539918 
L 409.352259 43.479086 
L 409.498383 43.475506 
L 409.571445 43.629155 
L 409.607976 43.598053 
L 409.71757 43.601622 
L 409.754101 43.49095 
L 409.827163 43.560478 
L 409.973287 43.448821 
L 410.009818 43.160331 
L 410.08288 43.269587 
L 410.229004 43.306467 
L 410.302067 43.14724 
L 410.375129 43.775386 
L 410.484722 43.758405 
L 410.557784 43.588088 
L 410.594315 43.662766 
L 410.630846 43.785703 
L 410.886564 43.776712 
L 411.032688 43.82006 
L 411.142281 43.975774 
L 411.324936 44.025176 
L 411.653716 42.908427 
L 411.836371 42.706662 
L 411.872902 42.439722 
L 411.909433 42.489159 
L 412.165151 42.685091 
L 412.274744 42.537424 
L 412.347806 42.151288 
L 412.420868 42.267773 
L 412.566992 42.165263 
L 412.82271 41.613874 
L 412.859241 41.644392 
L 412.895772 41.539081 
L 413.078427 41.515215 
L 413.151489 40.667129 
L 413.188021 40.729962 
L 413.297614 40.563251 
L 413.443738 40.063566 
L 413.589862 39.95108 
L 413.662924 41.364781 
L 413.699455 41.355164 
L 413.84558 40.959982 
L 413.918642 41.088674 
L 414.393546 40.876624 
L 414.430077 40.755194 
L 414.466608 40.785228 
L 414.649263 40.778196 
L 414.722325 40.734354 
L 414.868449 40.910469 
L 414.90498 40.78439 
L 414.941512 40.845183 
L 414.978043 40.941532 
L 415.087636 40.839636 
L 415.124167 40.898821 
L 415.23376 41.314729 
L 415.635602 41.620054 
L 415.854788 40.866477 
L 416.000912 41.223238 
L 416.110506 41.422767 
L 416.147037 41.342797 
L 416.366223 41.253506 
L 416.512347 42.582367 
L 416.62194 42.558309 
L 416.731534 42.398818 
L 416.768065 42.5748 
L 417.206437 42.408926 
L 417.425624 42.323691 
L 417.462155 42.19958 
L 417.535217 42.248646 
L 417.64481 42.249607 
L 417.717872 42.480759 
L 417.790934 42.114347 
L 417.900528 42.827524 
L 417.97359 42.75085 
L 418.010121 42.582341 
L 418.046652 42.640723 
L 418.192776 42.624468 
L 418.229307 42.448606 
L 418.302369 42.992014 
L 418.704211 43.026507 
L 418.813804 42.775787 
L 419.032991 42.976803 
L 419.069522 42.874359 
L 419.434832 42.659336 
L 419.471363 42.777519 
L 419.507894 42.824879 
L 419.544425 42.735435 
L 419.727081 42.579016 
L 419.836674 43.084109 
L 420.019329 42.964551 
L 420.05586 43.140867 
L 420.092391 43.13093 
L 420.494233 43.032142 
L 420.530764 43.181065 
L 420.603826 43.060909 
L 420.823013 43.040027 
L 421.334448 42.996038 
L 421.517103 43.072223 
L 421.590165 42.98422 
L 421.736289 43.262402 
L 421.809351 43.265301 
L 421.882414 43.071993 
L 421.992007 43.024351 
L 422.065069 43.441085 
L 422.138131 43.381158 
L 422.320786 43.155584 
L 422.393848 42.765199 
L 422.79569 42.519545 
L 422.832221 42.519303 
L 422.868752 42.798133 
L 422.905283 42.793187 
L 423.343656 42.863883 
L 423.380187 42.962893 
L 423.416718 42.929455 
L 423.635905 42.780831 
L 423.672436 42.800072 
L 423.928153 42.455318 
L 424.18387 42.392793 
L 424.293464 42.582677 
L 424.439588 43.514411 
L 424.695305 43.558357 
L 424.914492 43.899868 
L 424.951023 43.898729 
L 425.681644 44.692853 
L 425.937362 44.698703 
L 426.193079 45.77207 
L 426.339203 45.950631 
L 426.448796 46.227818 
L 426.485327 45.921263 
L 426.594921 46.115345 
L 426.631452 45.787105 
L 426.667983 46.249741 
L 426.704514 46.349215 
L 426.741045 46.319379 
L 426.9237 46.45773 
L 426.960231 46.709103 
L 426.996762 46.664501 
L 427.215949 46.62264 
L 427.398604 47.076879 
L 427.61779 47.255128 
L 427.654321 47.25491 
L 427.727384 47.129926 
L 427.763915 47.31733 
L 427.873508 47.118945 
L 427.910039 47.174611 
L 428.019632 47.452561 
L 428.129225 47.463659 
L 428.27535 47.798525 
L 428.384943 47.827313 
L 428.494536 47.602007 
L 428.531067 47.833411 
L 428.713722 47.720986 
L 428.750253 47.455925 
L 428.786784 47.527564 
L 428.96944 47.504224 
L 429.042502 47.334831 
L 429.225157 47.312263 
L 429.261688 47.539589 
L 429.298219 47.463336 
L 429.407812 47.474727 
L 429.480875 47.633914 
L 429.517406 47.582138 
L 429.553937 47.49223 
L 429.955778 47.700383 
L 429.99231 47.962174 
L 430.065372 47.938334 
L 430.284558 47.525679 
L 430.430682 47.602844 
L 430.467213 47.5287 
L 430.503744 47.600114 
L 430.576807 47.647574 
L 430.832524 47.626414 
L 431.088241 47.920295 
L 431.197835 48.127031 
L 431.234366 48.049311 
L 431.343959 47.931349 
L 431.709269 47.992695 
L 431.782332 48.133499 
L 431.855394 48.00257 
L 431.964987 47.950892 
L 432.001518 48.124531 
L 432.038049 47.852362 
L 432.220704 47.9058 
L 432.549484 47.906149 
L 432.76867 47.740999 
L 432.805201 47.850146 
L 432.841732 47.690604 
L 432.878263 47.679405 
L 433.09745 47.919299 
L 433.133981 47.892636 
L 433.316636 48.020589 
L 433.389698 48.012528 
L 433.499292 47.76036 
L 433.572354 47.86736 
L 433.79154 47.843899 
L 433.901133 47.958549 
L 434.083789 47.971449 
L 434.156851 48.029784 
L 434.266444 48.031684 
L 434.376037 47.8018 
L 434.412568 47.866106 
L 434.595223 47.849848 
L 435.070127 47.698096 
L 435.106658 47.56236 
L 435.143189 47.748884 
L 435.545031 48.589233 
L 435.581562 48.463415 
L 436.567901 48.127982 
L 436.640963 47.886935 
L 436.714025 48.315231 
L 437.700364 48.350506 
L 437.883019 48.182043 
L 438.102205 48.282294 
L 438.430985 48.219136 
L 438.686702 47.769837 
L 438.759765 47.669987 
L 438.905889 47.338271 
L 438.978951 47.443577 
L 439.198137 47.503115 
L 439.2712 47.101075 
L 439.380793 46.996417 
L 439.490386 46.682014 
L 439.526917 46.817542 
L 439.63651 46.765639 
L 439.673041 46.860957 
L 439.709572 47.289947 
L 439.782634 47.136017 
L 439.892228 47.0468 
L 440.001821 46.608704 
L 440.038352 46.6757 
L 440.221007 46.672092 
L 440.257538 46.632017 
L 440.403662 46.808317 
L 440.476725 46.82683 
L 440.513256 46.903526 
L 440.549787 46.743329 
L 440.695911 46.751371 
L 440.805504 46.792605 
L 441.207346 46.587742 
L 441.463063 46.401194 
L 441.572656 46.681076 
L 441.828374 45.998225 
L 441.974498 45.937887 
L 442.084091 45.721803 
L 442.558995 45.159531 
L 442.595526 45.214587 
L 442.851244 45.316015 
L 443.033899 45.086813 
L 443.07043 45.290077 
L 443.106961 45.197478 
L 443.216554 45.075088 
L 443.253085 45.179062 
L 443.326147 45.259076 
L 443.362679 45.264494 
L 443.581865 45.193598 
L 443.618396 45.23672 
L 443.837582 45.068888 
L 443.874113 45.207265 
L 444.312486 45.108307 
L 444.750859 45.090832 
L 444.823921 45.181374 
L 445.335356 45.655535 
L 445.408418 45.509213 
L 445.81026 45.685095 
L 445.883322 45.545421 
L 445.919853 45.57096 
L 446.029446 45.58534 
L 446.102508 45.271786 
L 446.17557 45.330881 
L 446.540881 44.94508 
L 446.650474 45.031779 
L 446.83313 44.684666 
L 447.344564 44.967745 
L 447.417627 45.043826 
L 447.454158 44.993605 
L 447.709875 44.917717 
L 447.89253 45.183788 
L 447.965592 45.127523 
L 448.22131 45.238681 
L 448.842338 44.594991 
L 448.988462 44.692831 
L 449.134587 44.844295 
L 449.171118 44.904186 
L 449.207649 44.74032 
L 449.24418 44.85013 
L 449.390304 44.838614 
L 449.499897 45.048627 
L 449.682552 44.99685 
L 449.719084 44.94892 
L 449.755615 44.979329 
L 449.865208 45.009351 
L 449.93827 44.717489 
L 450.011332 44.767065 
L 450.376643 44.446286 
L 450.522767 44.454245 
L 450.778484 44.429109 
L 451.216857 44.423268 
L 451.399512 44.723207 
L 451.545637 45.484162 
L 451.728292 45.611382 
L 451.801354 45.912044 
L 451.984009 45.864 
L 452.02054 46.004011 
L 452.057072 45.952753 
L 452.166665 45.936389 
L 452.312789 46.464512 
L 452.458913 46.399325 
L 452.495444 46.299631 
L 452.568506 46.395128 
L 452.751162 46.216144 
L 452.933817 46.727203 
L 452.970348 46.709223 
L 453.079941 46.423479 
L 453.226066 46.507322 
L 453.262597 46.43301 
L 453.481783 46.357523 
L 453.518314 46.394632 
L 453.554845 46.19652 
L 453.591376 46.255002 
L 453.847094 46.116724 
L 454.06628 45.941624 
L 454.102811 46.075304 
L 454.358529 46.344896 
L 454.541184 45.862392 
L 454.577715 46.425827 
L 454.614246 46.422055 
L 454.796901 46.575766 
L 455.125681 46.96137 
L 455.308336 47.099964 
L 455.381398 47.345259 
L 455.527523 47.439181 
L 455.637116 47.262502 
L 455.819771 47.278472 
L 456.002426 47.241902 
L 456.075488 47.352889 
L 456.148551 47.286413 
L 456.331206 47.345959 
L 456.550392 47.391282 
L 456.659985 47.266975 
L 456.915703 47.406401 
L 457.281014 47.336304 
L 457.354076 47.27249 
L 457.427138 47.065204 
L 457.536731 47.009384 
L 457.792448 45.309042 
L 457.828979 45.255463 
L 458.048166 43.841755 
L 458.084697 44.091153 
L 458.450008 29.375051 
L 458.559601 29.816325 
L 458.851849 26.798551 
L 458.88838 25.172213 
L 458.961442 25.369546 
L 459.399815 18.904949 
L 459.436346 19.036253 
L 459.582471 19.463702 
L 459.728595 19.548307 
L 459.838188 19.507049 
L 459.91125 20.052242 
L 459.984312 19.281505 
L 460.349623 19.285004 
L 460.386154 19.049026 
L 460.459216 19.163278 
L 460.495747 19.442583 
L 460.714933 19.301192 
L 460.751465 18.968339 
L 460.897589 19.302429 
L 460.93412 19.198025 
L 461.007182 19.695002 
L 461.409024 20.094217 
L 461.518617 20.435638 
L 461.774334 20.982054 
L 461.993521 21.28089 
L 462.030052 21.344187 
L 462.285769 20.98793 
L 462.431893 21.075318 
L 462.541487 21.415335 
L 462.687611 21.502016 
L 462.760673 21.918943 
L 462.797204 21.630203 
L 462.943328 21.735397 
L 463.01639 21.608502 
L 463.052922 21.630717 
L 463.162515 21.803823 
L 463.199046 21.698375 
L 463.418232 21.857458 
L 463.527825 22.155612 
L 463.564356 21.909895 
L 464.441102 22.006113 
L 464.514164 21.964136 
L 464.587226 22.219837 
L 464.842944 22.03804 
L 464.989068 21.823231 
L 465.025599 21.919592 
L 465.098661 21.828486 
L 465.317847 21.987397 
L 465.354378 21.848396 
L 465.537034 21.871678 
L 465.610096 21.492264 
L 465.865813 21.579872 
L 466.304186 21.60506 
L 466.377248 22.133349 
L 466.486841 22.207968 
L 466.632966 22.459597 
L 466.742559 22.450654 
L 466.815621 22.180194 
L 466.852152 22.294528 
L 466.888683 22.35033 
L 467.071338 23.233969 
L 467.107869 23.109844 
L 467.327056 23.225182 
L 467.655835 23.183156 
L 468.16727 23.451175 
L 468.276864 23.480197 
L 468.422988 23.244667 
L 468.642174 23.575362 
L 468.678705 23.553847 
L 468.897892 23.566959 
L 469.117078 23.206222 
L 469.19014 23.503189 
L 469.372795 23.572898 
L 469.409326 23.721322 
L 469.445858 23.560868 
L 469.665044 23.523591 
L 469.811168 23.233296 
L 470.103417 23.546681 
L 470.139948 23.423733 
L 470.21301 23.452771 
L 470.432196 23.710864 
L 470.468727 23.663828 
L 470.614852 23.550532 
L 470.724445 24.787586 
L 470.9071 25.324864 
L 471.089755 26.099056 
L 471.23588 33.313211 
L 471.345473 33.274512 
L 471.382004 33.258598 
L 471.491597 38.140332 
L 471.60119 38.060359 
L 471.747314 41.090425 
L 472.258749 46.671544 
L 472.477936 46.86997 
L 472.514467 46.887567 
L 472.62406 46.751457 
L 472.660591 46.844129 
L 472.770184 46.81171 
L 472.879777 46.655222 
L 473.025902 47.453371 
L 473.245088 47.738006 
L 473.281619 47.656091 
L 473.427743 47.595259 
L 473.464274 47.18485 
L 473.500806 47.659983 
L 473.64693 47.942365 
L 473.683461 47.922525 
L 473.793054 47.250509 
L 473.902647 47.25738 
L 474.048771 46.938398 
L 474.231427 46.910277 
L 474.304489 47.196986 
L 474.414082 47.165271 
L 474.523675 47.509893 
L 474.560206 47.493478 
L 474.706331 47.524347 
L 474.815924 47.753161 
L 474.998579 47.79976 
L 475.03511 48.085717 
L 475.071641 47.830852 
L 475.254297 47.698637 
L 475.290828 47.819479 
L 475.327359 47.804633 
L 475.583076 47.766363 
L 475.692669 47.567433 
L 475.7292 47.588931 
L 475.838794 47.922362 
L 476.277166 47.976521 
L 476.459822 47.726858 
L 476.496353 47.755597 
L 476.605946 48.126766 
L 477.007788 48.070109 
L 477.117381 48.075051 
L 477.336567 48.214691 
L 477.373098 48.070294 
L 477.628816 48.282039 
L 477.77494 48.275263 
L 477.811471 48.148459 
L 477.884533 48.198868 
L 478.103719 48.067732 
L 478.140251 47.978581 
L 478.505561 48.170771 
L 478.651685 48.55121 
L 478.761279 48.609154 
L 478.79781 48.524512 
L 479.053527 48.494537 
L 479.126589 48.617033 
L 479.16312 48.532342 
L 479.601493 48.454575 
L 479.820679 48.950323 
L 479.85721 48.904945 
L 479.893742 48.730854 
L 479.930273 48.925812 
L 480.076397 48.905359 
L 480.149459 49.011558 
L 480.18599 48.937327 
L 480.697425 49.083812 
L 480.916611 49.084927 
L 480.953142 48.905874 
L 481.062736 48.977991 
L 481.172329 48.657256 
L 481.20886 48.966726 
L 481.57417 48.831046 
L 481.683764 48.804814 
L 481.829888 49.040214 
L 481.939481 49.233322 
L 481.976012 49.860882 
L 482.085605 49.852989 
L 482.450916 49.824228 
L 482.670102 49.884288 
L 482.998882 49.741734 
L 483.108475 49.926513 
L 483.145006 49.853457 
L 483.181537 49.741099 
L 483.218068 49.901624 
L 483.254599 49.898125 
L 483.400724 49.742645 
L 483.510317 49.971035 
L 483.61991 49.957095 
L 483.766034 49.709287 
L 483.912158 49.837722 
L 484.021752 50.083803 
L 484.167876 50.139982 
L 484.240938 50.287602 
L 484.277469 50.142582 
L 484.496655 50.169729 
L 484.533187 50.332546 
L 484.679311 50.361323 
L 484.715842 50.56395 
L 484.752373 50.269566 
L 484.788904 50.26368 
L 484.898497 50.510916 
L 484.935028 50.445081 
L 485.00809 50.115688 
L 485.044621 50.17801 
L 485.409932 50.397221 
L 485.446463 50.361784 
L 485.482994 50.48246 
L 485.519525 50.377479 
L 485.665649 50.245081 
L 485.702181 50.298065 
L 485.738712 50.337572 
L 485.775243 50.251528 
L 485.811774 50.104926 
L 485.921367 50.243918 
L 485.957898 50.182274 
L 486.286678 49.911149 
L 486.323209 50.009807 
L 486.469333 49.963129 
L 486.542395 49.821564 
L 486.72505 50.871873 
L 486.980768 51.059331 
L 487.090361 51.433736 
L 487.199954 51.347173 
L 487.346078 51.047977 
L 487.711389 50.986235 
L 487.967106 50.824656 
L 488.003638 51.124719 
L 488.0767 51.066226 
L 488.113231 51.04684 
L 488.295886 50.484289 
L 488.368948 50.653039 
L 488.551603 50.747851 
L 488.624666 50.353297 
L 488.843852 50.165516 
L 488.989976 49.973835 
L 489.1361 49.754588 
L 489.611004 49.641491 
L 489.757129 49.752108 
L 489.866722 49.553315 
L 489.903253 49.702323 
L 490.268563 49.670809 
L 490.305094 49.940935 
L 490.378157 49.88057 
L 490.560812 49.658783 
L 490.779998 49.711477 
L 490.889591 49.94442 
L 490.926123 49.821041 
L 491.108778 49.843215 
L 491.18184 49.979271 
L 491.327964 49.91147 
L 491.437557 49.453094 
L 491.583682 49.286332 
L 491.620213 49.134076 
L 491.693275 49.288452 
L 492.058586 49.071666 
L 492.095117 49.146334 
L 492.131648 49.223698 
L 492.168179 48.817446 
L 492.20471 48.85474 
L 492.57002 48.153901 
L 492.606551 48.260864 
L 492.716145 47.639956 
L 492.825738 47.628971 
L 493.081455 46.899111 
L 493.117986 47.019484 
L 493.154517 47.136795 
L 493.191048 47.093475 
L 493.22758 46.80143 
L 493.483297 46.859968 
L 493.739014 46.50383 
L 493.958201 46.571163 
L 494.104325 46.155764 
L 494.140856 46.060157 
L 494.177387 46.231411 
L 494.360042 46.218486 
L 494.506167 46.327826 
L 494.61576 46.315287 
L 494.761884 45.974235 
L 494.981071 45.782419 
L 495.163726 45.986813 
L 495.419443 45.549812 
L 495.455974 45.530346 
L 495.529036 45.634182 
L 495.711692 45.793846 
L 495.784754 46.041131 
L 495.930878 46.104819 
L 495.967409 45.930423 
L 496.040471 46.471767 
L 496.296189 45.92131 
L 496.405782 46.045536 
L 496.551906 45.496443 
L 496.771093 45.448215 
L 496.917217 45.61245 
L 496.990279 45.472733 
L 497.172934 45.1543 
L 497.282528 45.461711 
L 497.465183 44.648359 
L 497.538245 45.175616 
L 497.574776 44.965305 
L 497.7209 44.818284 
L 497.757431 44.744601 
L 497.830493 44.80297 
L 497.940087 44.819664 
L 498.268866 45.603929 
L 498.341928 45.379316 
L 498.451522 45.451873 
L 498.707239 44.779907 
L 498.74377 44.796008 
L 498.780301 44.740969 
L 498.816832 44.811106 
L 498.999487 44.999425 
L 499.109081 44.4242 
L 499.218674 44.48091 
L 499.474391 44.865174 
L 499.510922 44.821291 
L 499.620516 44.223941 
L 499.76664 44.005584 
L 499.876233 42.870432 
L 500.058888 42.652076 
L 500.314606 42.73251 
L 500.533792 42.445775 
L 500.643385 42.796641 
L 500.826041 42.943723 
L 500.862572 42.727452 
L 500.899103 42.819039 
L 501.045227 42.802753 
L 501.15482 43.895342 
L 501.374007 44.186174 
L 501.410538 44.17012 
L 501.629724 44.729786 
L 501.666255 44.705604 
L 501.812379 45.016959 
L 501.84891 44.97847 
L 501.885441 45.349429 
L 501.921973 45.223091 
L 502.068097 45.52396 
L 502.104628 45.366666 
L 502.543001 45.435904 
L 502.689125 45.244599 
L 502.87178 45.380434 
L 503.054435 45.083195 
L 503.127498 45.053301 
L 503.20056 44.852245 
L 503.383215 44.974763 
L 503.56587 44.65325 
L 503.711995 44.495264 
L 504.186898 44.325439 
L 504.333023 44.920443 
L 504.58874 44.911255 
L 504.625271 44.570753 
L 504.698333 44.720671 
L 504.990582 44.660577 
L 505.355892 46.290201 
L 505.465486 45.796386 
L 505.502017 46.197185 
L 505.648141 45.054115 
L 505.684672 45.060659 
L 505.867327 45.618013 
L 506.123045 45.188005 
L 506.269169 45.701553 
L 506.378762 45.651034 
L 506.415293 45.23486 
L 506.451824 45.478489 
L 506.488355 45.755899 
L 506.524886 45.694694 
L 506.926728 46.677483 
L 506.963259 46.544242 
L 506.99979 46.414002 
L 507.036321 46.462382 
L 507.145915 46.465562 
L 507.218977 45.658404 
L 507.255508 45.740199 
L 507.401632 45.949904 
L 507.913067 46.410576 
L 508.02266 45.953715 
L 508.059191 46.058132 
L 508.205315 46.031175 
L 508.241846 45.399205 
L 508.314909 45.697346 
L 508.461033 45.613331 
L 508.570626 45.12254 
L 508.972468 44.610609 
L 509.082061 44.979214 
L 509.264716 45.23707 
L 509.337778 44.912448 
L 509.593496 44.979492 
L 509.703089 45.123072 
L 509.849213 44.623162 
L 509.958806 44.715411 
L 510.031868 44.918977 
L 510.0684 44.896015 
L 510.104931 44.646597 
L 510.214524 44.701634 
L 510.360648 45.566258 
L 510.470241 45.141672 
L 510.579834 43.932949 
L 510.616366 44.023037 
L 510.76249 44.086866 
L 510.799021 44.200656 
L 510.835552 44.080065 
L 511.091269 43.216292 
L 511.237394 43.302973 
L 511.273925 43.350197 
L 511.310456 43.208052 
L 511.346987 43.222433 
L 511.493111 43.45011 
L 511.529642 43.397899 
L 511.566173 43.728086 
L 511.639235 43.615552 
L 511.894953 43.584007 
L 512.041077 43.597343 
L 512.15067 43.100297 
L 512.296794 43.261335 
L 512.333325 43.302284 
L 512.369857 43.185886 
L 512.771698 43.515155 
L 512.84476 43.395314 
L 513.283133 43.066354 
L 513.319664 43.138829 
L 513.356195 43.048606 
L 513.429257 43.124 
L 513.575382 42.947584 
L 513.684975 42.897697 
L 514.086816 42.830362 
L 514.19641 42.160254 
L 514.342534 42.281808 
L 514.56172 42.040529 
L 514.634782 42.245162 
L 514.671313 42.144105 
L 514.853969 41.909678 
L 514.8905 42.158418 
L 514.963562 41.989555 
L 515.219279 42.018802 
L 515.438466 41.742898 
L 515.621121 42.036469 
L 515.694183 41.952087 
L 515.840308 41.903528 
L 516.242149 42.942816 
L 516.351742 42.926068 
L 516.461336 43.46798 
L 516.497867 43.453532 
L 516.717053 43.555065 
L 516.753584 43.839261 
L 516.899708 43.460221 
L 516.936239 43.507045 
L 517.155426 43.595824 
L 517.484205 43.643895 
L 517.520736 43.971918 
L 517.63033 43.958885 
L 517.776454 43.875536 
L 517.886047 43.839647 
L 517.959109 43.959807 
L 517.99564 43.928325 
L 518.178296 43.850404 
L 518.251358 43.849601 
L 518.434013 44.448588 
L 518.470544 44.426131 
L 518.507075 45.452039 
L 518.543606 45.299819 
L 518.762793 45.365006 
L 519.01851 45.642008 
L 519.055041 45.633302 
L 519.237696 45.346272 
L 519.274227 45.367303 
L 519.310758 45.628231 
L 519.566476 45.421788 
L 519.7126 45.557283 
L 519.822193 45.248383 
L 519.968318 45.185979 
L 520.004849 45.176791 
L 520.187504 45.745027 
L 520.224035 45.560742 
L 520.297097 46.3802 
L 520.333628 46.296041 
L 520.516284 46.283347 
L 520.772001 46.266246 
L 520.808532 46.060675 
L 520.845063 46.17531 
L 521.100781 46.329129 
L 521.210374 46.8422 
L 521.246905 46.505402 
L 521.319967 46.683479 
L 521.356498 46.655433 
L 521.612215 46.855796 
L 521.75834 46.838571 
L 521.867933 46.454591 
L 522.12365 46.530629 
L 522.342837 46.757773 
L 522.562023 46.819205 
L 522.598554 46.695474 
L 522.635085 46.719952 
L 522.781209 46.745108 
L 522.890803 46.572109 
L 523.073458 46.582073 
L 523.109989 46.756084 
L 523.14652 46.70121 
L 523.365706 46.376053 
L 523.511831 46.664344 
L 523.548362 46.795189 
L 523.621424 46.764301 
L 523.767548 46.712891 
L 523.804079 46.79696 
L 524.278983 47.135998 
L 524.352045 47.131328 
L 524.388576 46.835751 
L 524.425107 46.879578 
L 524.607763 46.980979 
L 524.680825 46.886399 
L 524.936542 46.811168 
L 525.155729 47.211663 
L 525.338384 47.021363 
L 525.630632 47.23791 
L 525.703695 47.404583 
L 525.88635 47.279285 
L 525.959412 47.374266 
L 526.142067 47.250219 
L 526.178598 47.301661 
L 526.215129 47.283479 
L 526.324723 47.362394 
L 526.397785 47.195504 
L 526.434316 47.205344 
L 526.470847 47.237418 
L 526.726564 47.187554 
L 527.091875 47.501493 
L 527.164937 47.711579 
L 527.201468 47.589289 
L 527.237999 47.495884 
L 527.384123 47.703408 
L 527.457186 47.522834 
L 527.60331 47.413098 
L 527.749434 47.645077 
L 528.005151 47.600645 
L 528.406993 47.58962 
L 528.443524 47.509207 
L 528.516586 47.576043 
L 528.772304 47.290963 
L 528.881897 47.319217 
L 528.954959 48.011859 
L 528.99149 47.656492 
L 529.028021 47.83565 
L 529.247208 47.73943 
L 529.429863 47.394719 
L 529.539456 47.458841 
L 529.649049 47.291395 
L 529.722111 46.925877 
L 529.758643 47.126846 
L 529.904767 47.01877 
L 529.941298 47.107259 
L 530.050891 47.176747 
L 530.233546 46.916818 
L 530.270077 46.941198 
L 530.306608 46.906694 
L 530.416202 46.983167 
L 530.452733 46.922747 
L 530.525795 46.746914 
L 530.562326 46.842507 
L 531.000699 46.853173 
L 531.183354 46.616669 
L 531.219885 46.630829 
L 531.329478 47.063489 
L 531.694789 46.941342 
L 531.73132 46.736563 
L 531.804382 46.800774 
L 532.206224 46.875744 
L 532.352348 47.015568 
L 532.498472 47.456961 
L 532.571534 47.370322 
L 532.717659 47.353119 
L 532.75419 47.258881 
L 532.827252 47.293819 
L 532.973376 47.421281 
L 533.229093 46.170728 
L 533.265625 45.966075 
L 533.302156 46.243908 
L 533.557873 46.575764 
L 533.740528 46.49158 
L 533.777059 46.707069 
L 533.81359 46.578349 
L 533.886653 46.236952 
L 534.105839 46.607811 
L 534.14237 46.812085 
L 534.288494 46.657305 
L 534.288494 46.657305 
" clip-path="url(#pdb7adf1a48)" style="fill: none; stroke: #1f77b4; stroke-width: 1.5; stroke-linecap: square"/>
   </g>
   <g id="patch_3">
    <path d="M 44.845313 90.809683 
L 44.845313 10.999219 
" style="fill: none"/>
   </g>
   <g id="patch_4">
    <path d="M 557.595312 90.809683 
L 557.595312 10.999219 
" style="fill: none"/>
   </g>
   <g id="patch_5">
    <path d="M 44.845313 90.809683 
L 557.595312 90.809683 
" style="fill: none; stroke: #000000; stroke-width: 0.8; stroke-linejoin: miter; stroke-linecap: square"/>
   </g>
   <g id="patch_6">
    <path d="M 44.845313 10.999219 
L 557.595312 10.999219 
" style="fill: none"/>
   </g>
  </g>
 </g>
 <defs>
  <clipPath id="pdb7adf1a48">
   <rect x="44.845313" y="10.999219" width="512.75" height="79.810464"/>
  </clipPath>
 </defs>
</svg>
