<?xml version="1.0" encoding="utf-8" standalone="no"?>
<!DOCTYPE svg PUBLIC "-//W3C//DTD SVG 1.1//EN"
  "http://www.w3.org/Graphics/SVG/1.1/DTD/svg11.dtd">
<svg xmlns:xlink="http://www.w3.org/1999/xlink" width="571.005313pt" height="135.995091pt" viewBox="0 0 571.005313 135.995091" xmlns="http://www.w3.org/2000/svg" version="1.1">
 <metadata>
  <rdf:RDF xmlns:dc="http://purl.org/dc/elements/1.1/" xmlns:cc="http://creativecommons.org/ns#" xmlns:rdf="http://www.w3.org/1999/02/22-rdf-syntax-ns#">
   <cc:Work>
    <dc:type rdf:resource="http://purl.org/dc/dcmitype/StillImage"/>
    <dc:date>2025-12-06T04:29:50.658761</dc:date>
    <dc:format>image/svg+xml</dc:format>
    <dc:creator>
     <cc:Agent>
      <dc:title>Matplotlib v3.10.7, https://matplotlib.org/</dc:title>
     </cc:Agent>
    </dc:creator>
   </cc:Work>
  </rdf:RDF>
 </metadata>
 <defs>
  <style type="text/css">*{stroke-linejoin: round; stroke-linecap: butt}</style>
 </defs>
 <g id="figure_1">
  <g id="patch_1">
   <path d="M 0 135.995091 
L 571.005313 135.995091 
L 571.005313 0 
L 0 0 
L 0 135.995091 
z
" style="fill: none"/>
  </g>
  <g id="axes_1">
   <g id="patch_2">
    <path d="M 44.845313 87.010464 
L 563.805312 87.010464 
L 563.805312 7.2 
L 44.845313 7.2 
L 44.845313 87.010464 
z
" style="fill: none"/>
   </g>
   <g id="matplotlib.axis_1">
    <g id="xtick_1">
     <g id="line2d_1">
      <defs>
       <path id="m63da0e7e40" d="M 0 0 
L 0 3.5 
" style="stroke: #000000; stroke-width: 0.8"/>
      </defs>
      <g>
       <use xlink:href="#m63da0e7e40" x="82.410385" y="87.010464" style="stroke: #000000; stroke-width: 0.8"/>
      </g>
     </g>
     <g id="text_1">
      <!-- 1992 -->
      <g transform="translate(59.330195 113.315904) rotate(-30) scale(0.1 -0.1)">
       <defs>
        <path id="DejaVuSans-31" d="M 794 531 
L 1825 531 
L 1825 4091 
L 703 3866 
L 703 4441 
L 1819 4666 
L 2450 4666 
L 2450 531 
L 3481 531 
L 3481 0 
L 794 0 
L 794 531 
z
" transform="scale(0.015625)"/>
        <path id="DejaVuSans-39" d="M 703 97 
L 703 672 
Q 941 559 1184 500 
Q 1428 441 1663 441 
Q 2288 441 2617 861 
Q 2947 1281 2994 2138 
Q 2813 1869 2534 1725 
Q 2256 1581 1919 1581 
Q 1219 1581 811 2004 
Q 403 2428 403 3163 
Q 403 3881 828 4315 
Q 1253 4750 1959 4750 
Q 2769 4750 3195 4129 
Q 3622 3509 3622 2328 
Q 3622 1225 3098 567 
Q 2575 -91 1691 -91 
Q 1453 -91 1209 -44 
Q 966 3 703 97 
z
M 1959 2075 
Q 2384 2075 2632 2365 
Q 2881 2656 2881 3163 
Q 2881 3666 2632 3958 
Q 2384 4250 1959 4250 
Q 1534 4250 1286 3958 
Q 1038 3666 1038 3163 
Q 1038 2656 1286 2365 
Q 1534 2075 1959 2075 
z
" transform="scale(0.015625)"/>
        <path id="DejaVuSans-32" d="M 1228 531 
L 3431 531 
L 3431 0 
L 469 0 
L 469 531 
Q 828 903 1448 1529 
Q 2069 2156 2228 2338 
Q 2531 2678 2651 2914 
Q 2772 3150 2772 3378 
Q 2772 3750 2511 3984 
Q 2250 4219 1831 4219 
Q 1534 4219 1204 4116 
Q 875 4013 500 3803 
L 500 4441 
Q 881 4594 1212 4672 
Q 1544 4750 1819 4750 
Q 2544 4750 2975 4387 
Q 3406 4025 3406 3419 
Q 3406 3131 3298 2873 
Q 3191 2616 2906 2266 
Q 2828 2175 2409 1742 
Q 1991 1309 1228 531 
z
" transform="scale(0.015625)"/>
       </defs>
       <use xlink:href="#DejaVuSans-31"/>
       <use xlink:href="#DejaVuSans-39" transform="translate(63.623047 0)"/>
       <use xlink:href="#DejaVuSans-39" transform="translate(127.246094 0)"/>
       <use xlink:href="#DejaVuSans-32" transform="translate(190.869141 0)"/>
      </g>
     </g>
    </g>
    <g id="xtick_2">
     <g id="line2d_2">
      <g>
       <use xlink:href="#m63da0e7e40" x="136.428664" y="87.010464" style="stroke: #000000; stroke-width: 0.8"/>
      </g>
     </g>
     <g id="text_2">
      <!-- 1996 -->
      <g transform="translate(113.348474 113.315904) rotate(-30) scale(0.1 -0.1)">
       <defs>
        <path id="DejaVuSans-36" d="M 2113 2584 
Q 1688 2584 1439 2293 
Q 1191 2003 1191 1497 
Q 1191 994 1439 701 
Q 1688 409 2113 409 
Q 2538 409 2786 701 
Q 3034 994 3034 1497 
Q 3034 2003 2786 2293 
Q 2538 2584 2113 2584 
z
M 3366 4563 
L 3366 3988 
Q 3128 4100 2886 4159 
Q 2644 4219 2406 4219 
Q 1781 4219 1451 3797 
Q 1122 3375 1075 2522 
Q 1259 2794 1537 2939 
Q 1816 3084 2150 3084 
Q 2853 3084 3261 2657 
Q 3669 2231 3669 1497 
Q 3669 778 3244 343 
Q 2819 -91 2113 -91 
Q 1303 -91 875 529 
Q 447 1150 447 2328 
Q 447 3434 972 4092 
Q 1497 4750 2381 4750 
Q 2619 4750 2861 4703 
Q 3103 4656 3366 4563 
z
" transform="scale(0.015625)"/>
       </defs>
       <use xlink:href="#DejaVuSans-31"/>
       <use xlink:href="#DejaVuSans-39" transform="translate(63.623047 0)"/>
       <use xlink:href="#DejaVuSans-39" transform="translate(127.246094 0)"/>
       <use xlink:href="#DejaVuSans-36" transform="translate(190.869141 0)"/>
      </g>
     </g>
    </g>
    <g id="xtick_3">
     <g id="line2d_3">
      <g>
       <use xlink:href="#m63da0e7e40" x="190.446943" y="87.010464" style="stroke: #000000; stroke-width: 0.8"/>
      </g>
     </g>
     <g id="text_3">
      <!-- 2000 -->
      <g transform="translate(167.366752 113.315904) rotate(-30) scale(0.1 -0.1)">
       <defs>
        <path id="DejaVuSans-30" d="M 2034 4250 
Q 1547 4250 1301 3770 
Q 1056 3291 1056 2328 
Q 1056 1369 1301 889 
Q 1547 409 2034 409 
Q 2525 409 2770 889 
Q 3016 1369 3016 2328 
Q 3016 3291 2770 3770 
Q 2525 4250 2034 4250 
z
M 2034 4750 
Q 2819 4750 3233 4129 
Q 3647 3509 3647 2328 
Q 3647 1150 3233 529 
Q 2819 -91 2034 -91 
Q 1250 -91 836 529 
Q 422 1150 422 2328 
Q 422 3509 836 4129 
Q 1250 4750 2034 4750 
z
" transform="scale(0.015625)"/>
       </defs>
       <use xlink:href="#DejaVuSans-32"/>
       <use xlink:href="#DejaVuSans-30" transform="translate(63.623047 0)"/>
       <use xlink:href="#DejaVuSans-30" transform="translate(127.246094 0)"/>
       <use xlink:href="#DejaVuSans-30" transform="translate(190.869141 0)"/>
      </g>
     </g>
    </g>
    <g id="xtick_4">
     <g id="line2d_4">
      <g>
       <use xlink:href="#m63da0e7e40" x="244.465221" y="87.010464" style="stroke: #000000; stroke-width: 0.8"/>
      </g>
     </g>
     <g id="text_4">
      <!-- 2004 -->
      <g transform="translate(221.385031 113.315904) rotate(-30) scale(0.1 -0.1)">
       <defs>
        <path id="DejaVuSans-34" d="M 2419 4116 
L 825 1625 
L 2419 1625 
L 2419 4116 
z
M 2253 4666 
L 3047 4666 
L 3047 1625 
L 3713 1625 
L 3713 1100 
L 3047 1100 
L 3047 0 
L 2419 0 
L 2419 1100 
L 313 1100 
L 313 1709 
L 2253 4666 
z
" transform="scale(0.015625)"/>
       </defs>
       <use xlink:href="#DejaVuSans-32"/>
       <use xlink:href="#DejaVuSans-30" transform="translate(63.623047 0)"/>
       <use xlink:href="#DejaVuSans-30" transform="translate(127.246094 0)"/>
       <use xlink:href="#DejaVuSans-34" transform="translate(190.869141 0)"/>
      </g>
     </g>
    </g>
    <g id="xtick_5">
     <g id="line2d_5">
      <g>
       <use xlink:href="#m63da0e7e40" x="298.4835" y="87.010464" style="stroke: #000000; stroke-width: 0.8"/>
      </g>
     </g>
     <g id="text_5">
      <!-- 2008 -->
      <g transform="translate(275.40331 113.315904) rotate(-30) scale(0.1 -0.1)">
       <defs>
        <path id="DejaVuSans-38" d="M 2034 2216 
Q 1584 2216 1326 1975 
Q 1069 1734 1069 1313 
Q 1069 891 1326 650 
Q 1584 409 2034 409 
Q 2484 409 2743 651 
Q 3003 894 3003 1313 
Q 3003 1734 2745 1975 
Q 2488 2216 2034 2216 
z
M 1403 2484 
Q 997 2584 770 2862 
Q 544 3141 544 3541 
Q 544 4100 942 4425 
Q 1341 4750 2034 4750 
Q 2731 4750 3128 4425 
Q 3525 4100 3525 3541 
Q 3525 3141 3298 2862 
Q 3072 2584 2669 2484 
Q 3125 2378 3379 2068 
Q 3634 1759 3634 1313 
Q 3634 634 3220 271 
Q 2806 -91 2034 -91 
Q 1263 -91 848 271 
Q 434 634 434 1313 
Q 434 1759 690 2068 
Q 947 2378 1403 2484 
z
M 1172 3481 
Q 1172 3119 1398 2916 
Q 1625 2713 2034 2713 
Q 2441 2713 2670 2916 
Q 2900 3119 2900 3481 
Q 2900 3844 2670 4047 
Q 2441 4250 2034 4250 
Q 1625 4250 1398 4047 
Q 1172 3844 1172 3481 
z
" transform="scale(0.015625)"/>
       </defs>
       <use xlink:href="#DejaVuSans-32"/>
       <use xlink:href="#DejaVuSans-30" transform="translate(63.623047 0)"/>
       <use xlink:href="#DejaVuSans-30" transform="translate(127.246094 0)"/>
       <use xlink:href="#DejaVuSans-38" transform="translate(190.869141 0)"/>
      </g>
     </g>
    </g>
    <g id="xtick_6">
     <g id="line2d_6">
      <g>
       <use xlink:href="#m63da0e7e40" x="352.501779" y="87.010464" style="stroke: #000000; stroke-width: 0.8"/>
      </g>
     </g>
     <g id="text_6">
      <!-- 2012 -->
      <g transform="translate(329.421588 113.315904) rotate(-30) scale(0.1 -0.1)">
       <use xlink:href="#DejaVuSans-32"/>
       <use xlink:href="#DejaVuSans-30" transform="translate(63.623047 0)"/>
       <use xlink:href="#DejaVuSans-31" transform="translate(127.246094 0)"/>
       <use xlink:href="#DejaVuSans-32" transform="translate(190.869141 0)"/>
      </g>
     </g>
    </g>
    <g id="xtick_7">
     <g id="line2d_7">
      <g>
       <use xlink:href="#m63da0e7e40" x="406.520057" y="87.010464" style="stroke: #000000; stroke-width: 0.8"/>
      </g>
     </g>
     <g id="text_7">
      <!-- 2016 -->
      <g transform="translate(383.439867 113.315904) rotate(-30) scale(0.1 -0.1)">
       <use xlink:href="#DejaVuSans-32"/>
       <use xlink:href="#DejaVuSans-30" transform="translate(63.623047 0)"/>
       <use xlink:href="#DejaVuSans-31" transform="translate(127.246094 0)"/>
       <use xlink:href="#DejaVuSans-36" transform="translate(190.869141 0)"/>
      </g>
     </g>
    </g>
    <g id="xtick_8">
     <g id="line2d_8">
      <g>
       <use xlink:href="#m63da0e7e40" x="460.538336" y="87.010464" style="stroke: #000000; stroke-width: 0.8"/>
      </g>
     </g>
     <g id="text_8">
      <!-- 2020 -->
      <g transform="translate(437.458146 113.315904) rotate(-30) scale(0.1 -0.1)">
       <use xlink:href="#DejaVuSans-32"/>
       <use xlink:href="#DejaVuSans-30" transform="translate(63.623047 0)"/>
       <use xlink:href="#DejaVuSans-32" transform="translate(127.246094 0)"/>
       <use xlink:href="#DejaVuSans-30" transform="translate(190.869141 0)"/>
      </g>
     </g>
    </g>
    <g id="xtick_9">
     <g id="line2d_9">
      <g>
       <use xlink:href="#m63da0e7e40" x="514.556615" y="87.010464" style="stroke: #000000; stroke-width: 0.8"/>
      </g>
     </g>
     <g id="text_9">
      <!-- 2024 -->
      <g transform="translate(491.476425 113.315904) rotate(-30) scale(0.1 -0.1)">
       <use xlink:href="#DejaVuSans-32"/>
       <use xlink:href="#DejaVuSans-30" transform="translate(63.623047 0)"/>
       <use xlink:href="#DejaVuSans-32" transform="translate(127.246094 0)"/>
       <use xlink:href="#DejaVuSans-34" transform="translate(190.869141 0)"/>
      </g>
     </g>
    </g>
    <g id="text_10">
     <!-- date -->
     <g transform="translate(293.050313 126.715404) scale(0.1 -0.1)">
      <defs>
       <path id="DejaVuSans-64" d="M 2906 2969 
L 2906 4863 
L 3481 4863 
L 3481 0 
L 2906 0 
L 2906 525 
Q 2725 213 2448 61 
Q 2172 -91 1784 -91 
Q 1150 -91 751 415 
Q 353 922 353 1747 
Q 353 2572 751 3078 
Q 1150 3584 1784 3584 
Q 2172 3584 2448 3432 
Q 2725 3281 2906 2969 
z
M 947 1747 
Q 947 1113 1208 752 
Q 1469 391 1925 391 
Q 2381 391 2643 752 
Q 2906 1113 2906 1747 
Q 2906 2381 2643 2742 
Q 2381 3103 1925 3103 
Q 1469 3103 1208 2742 
Q 947 2381 947 1747 
z
" transform="scale(0.015625)"/>
       <path id="DejaVuSans-61" d="M 2194 1759 
Q 1497 1759 1228 1600 
Q 959 1441 959 1056 
Q 959 750 1161 570 
Q 1363 391 1709 391 
Q 2188 391 2477 730 
Q 2766 1069 2766 1631 
L 2766 1759 
L 2194 1759 
z
M 3341 1997 
L 3341 0 
L 2766 0 
L 2766 531 
Q 2569 213 2275 61 
Q 1981 -91 1556 -91 
Q 1019 -91 701 211 
Q 384 513 384 1019 
Q 384 1609 779 1909 
Q 1175 2209 1959 2209 
L 2766 2209 
L 2766 2266 
Q 2766 2663 2505 2880 
Q 2244 3097 1772 3097 
Q 1472 3097 1187 3025 
Q 903 2953 641 2809 
L 641 3341 
Q 956 3463 1253 3523 
Q 1550 3584 1831 3584 
Q 2591 3584 2966 3190 
Q 3341 2797 3341 1997 
z
" transform="scale(0.015625)"/>
       <path id="DejaVuSans-74" d="M 1172 4494 
L 1172 3500 
L 2356 3500 
L 2356 3053 
L 1172 3053 
L 1172 1153 
Q 1172 725 1289 603 
Q 1406 481 1766 481 
L 2356 481 
L 2356 0 
L 1766 0 
Q 1100 0 847 248 
Q 594 497 594 1153 
L 594 3053 
L 172 3053 
L 172 3500 
L 594 3500 
L 594 4494 
L 1172 4494 
z
" transform="scale(0.015625)"/>
       <path id="DejaVuSans-65" d="M 3597 1894 
L 3597 1613 
L 953 1613 
Q 991 1019 1311 708 
Q 1631 397 2203 397 
Q 2534 397 2845 478 
Q 3156 559 3463 722 
L 3463 178 
Q 3153 47 2828 -22 
Q 2503 -91 2169 -91 
Q 1331 -91 842 396 
Q 353 884 353 1716 
Q 353 2575 817 3079 
Q 1281 3584 2069 3584 
Q 2775 3584 3186 3129 
Q 3597 2675 3597 1894 
z
M 3022 2063 
Q 3016 2534 2758 2815 
Q 2500 3097 2075 3097 
Q 1594 3097 1305 2825 
Q 1016 2553 972 2059 
L 3022 2063 
z
" transform="scale(0.015625)"/>
      </defs>
      <use xlink:href="#DejaVuSans-64"/>
      <use xlink:href="#DejaVuSans-61" transform="translate(63.476562 0)"/>
      <use xlink:href="#DejaVuSans-74" transform="translate(124.755859 0)"/>
      <use xlink:href="#DejaVuSans-65" transform="translate(163.964844 0)"/>
     </g>
    </g>
   </g>
   <g id="matplotlib.axis_2">
    <g id="ytick_1">
     <g id="line2d_10">
      <path d="M 44.845313 73.70872 
L 563.805312 73.70872 
" clip-path="url(#p08f4a27f47)" style="fill: none; stroke-dasharray: 2.96,1.28; stroke-dashoffset: 0; stroke: #dddddd; stroke-width: 0.8"/>
     </g>
     <g id="line2d_11">
      <defs>
       <path id="m8e9693f7b8" d="M 0 0 
L -3.5 0 
" style="stroke: #000000; stroke-width: 0.8"/>
      </defs>
      <g>
       <use xlink:href="#m8e9693f7b8" x="44.845313" y="73.70872" style="stroke: #000000; stroke-width: 0.8"/>
      </g>
     </g>
     <g id="text_11">
      <!-- −0.01 -->
      <g transform="translate(7.2 77.507939) scale(0.1 -0.1)">
       <defs>
        <path id="DejaVuSans-2212" d="M 678 2272 
L 4684 2272 
L 4684 1741 
L 678 1741 
L 678 2272 
z
" transform="scale(0.015625)"/>
        <path id="DejaVuSans-2e" d="M 684 794 
L 1344 794 
L 1344 0 
L 684 0 
L 684 794 
z
" transform="scale(0.015625)"/>
       </defs>
       <use xlink:href="#DejaVuSans-2212"/>
       <use xlink:href="#DejaVuSans-30" transform="translate(83.789062 0)"/>
       <use xlink:href="#DejaVuSans-2e" transform="translate(147.412109 0)"/>
       <use xlink:href="#DejaVuSans-30" transform="translate(179.199219 0)"/>
       <use xlink:href="#DejaVuSans-31" transform="translate(242.822266 0)"/>
      </g>
     </g>
    </g>
    <g id="ytick_2">
     <g id="line2d_12">
      <path d="M 44.845313 47.105232 
L 563.805312 47.105232 
" clip-path="url(#p08f4a27f47)" style="fill: none; stroke-dasharray: 2.96,1.28; stroke-dashoffset: 0; stroke: #dddddd; stroke-width: 0.8"/>
     </g>
     <g id="line2d_13">
      <g>
       <use xlink:href="#m8e9693f7b8" x="44.845313" y="47.105232" style="stroke: #000000; stroke-width: 0.8"/>
      </g>
     </g>
     <g id="text_12">
      <!-- 0.00 -->
      <g transform="translate(15.579688 50.904451) scale(0.1 -0.1)">
       <use xlink:href="#DejaVuSans-30"/>
       <use xlink:href="#DejaVuSans-2e" transform="translate(63.623047 0)"/>
       <use xlink:href="#DejaVuSans-30" transform="translate(95.410156 0)"/>
       <use xlink:href="#DejaVuSans-30" transform="translate(159.033203 0)"/>
      </g>
     </g>
    </g>
    <g id="ytick_3">
     <g id="line2d_14">
      <path d="M 44.845313 20.501744 
L 563.805312 20.501744 
" clip-path="url(#p08f4a27f47)" style="fill: none; stroke-dasharray: 2.96,1.28; stroke-dashoffset: 0; stroke: #dddddd; stroke-width: 0.8"/>
     </g>
     <g id="line2d_15">
      <g>
       <use xlink:href="#m8e9693f7b8" x="44.845313" y="20.501744" style="stroke: #000000; stroke-width: 0.8"/>
      </g>
     </g>
     <g id="text_13">
      <!-- 0.01 -->
      <g transform="translate(15.579688 24.300963) scale(0.1 -0.1)">
       <use xlink:href="#DejaVuSans-30"/>
       <use xlink:href="#DejaVuSans-2e" transform="translate(63.623047 0)"/>
       <use xlink:href="#DejaVuSans-30" transform="translate(95.410156 0)"/>
       <use xlink:href="#DejaVuSans-31" transform="translate(159.033203 0)"/>
      </g>
     </g>
    </g>
   </g>
   <g id="line2d_16">
    <path d="M 68.434403 50.716191 
L 68.619271 50.752574 
L 69.210847 50.559833 
L 69.284794 50.69054 
L 69.432688 50.665625 
L 69.469661 50.532155 
L 69.543608 50.628016 
L 69.765449 50.893395 
L 69.950317 50.737271 
L 69.98729 50.837303 
L 70.061237 50.777929 
L 70.578866 51.432696 
L 70.948601 51.493577 
L 71.059522 51.483251 
L 71.096495 51.415625 
L 71.318336 51.450817 
L 71.35531 51.450961 
L 71.540177 51.949644 
L 71.798992 51.725317 
L 71.872939 51.766687 
L 71.983859 51.721369 
L 72.057806 51.549655 
L 72.09478 51.607969 
L 73.093064 51.35782 
L 73.425825 51.21083 
L 74.091348 51.106329 
L 74.202269 50.96687 
L 74.645951 50.996022 
L 74.719898 51.073157 
L 75.607262 50.939272 
L 75.755156 51.035047 
L 76.272785 50.89098 
L 76.679493 50.844671 
L 76.716467 50.824609 
L 76.75344 50.909575 
L 76.901334 50.965438 
L 77.049228 50.965186 
L 78.23238 50.774422 
L 78.602115 50.919897 
L 79.563426 50.86953 
L 79.637373 51.004842 
L 80.339869 51.180879 
L 80.413816 51.380553 
L 80.672631 51.268023 
L 81.375127 51.186117 
L 82.077624 51.006003 
L 82.336438 50.900316 
L 82.373412 50.883143 
L 82.447359 51.004576 
L 82.484332 50.875901 
L 82.706173 50.681925 
L 82.854067 50.713152 
L 82.928014 50.644221 
L 83.149855 50.270846 
L 83.371696 50.432229 
L 83.963272 50.498759 
L 84.14814 50.508092 
L 84.296034 50.425131 
L 84.739715 50.340743 
L 84.813662 50.282365 
L 85.811947 50.269834 
L 85.84892 50.348657 
L 86.070761 50.233223 
L 86.218655 50.363652 
L 86.514443 50.33606 
L 86.58839 50.481498 
L 86.625364 50.427539 
L 88.658906 50.34234 
L 88.8068 50.408052 
L 91.505865 50.17597 
L 92.060468 50.040024 
L 96.682155 50.310827 
L 96.830049 50.593836 
L 96.977943 50.551174 
L 97.606492 50.516169 
L 97.717413 50.752346 
L 97.754386 50.692538 
L 98.013201 50.63095 
L 98.272015 50.658569 
L 99.159379 50.544758 
L 99.233326 50.907602 
L 99.307273 50.861953 
L 99.677008 51.146866 
L 99.713982 51.082669 
L 99.750955 51.318108 
L 99.824902 51.242488 
L 99.972796 51.341799 
L 100.083717 51.347523 
L 100.342531 51.171636 
L 101.045028 51.119512 
L 101.266868 51.043223 
L 101.377789 51.093702 
L 101.747524 51.004624 
L 101.895418 50.915465 
L 102.3391 50.985467 
L 102.560941 50.910563 
L 102.671861 50.885259 
L 105.370927 50.727096 
L 105.518821 50.906263 
L 105.703688 50.981725 
L 105.777635 51.017579 
L 106.517105 50.969211 
L 106.664999 51.088746 
L 107.182628 51.025868 
L 107.330522 51.114935 
L 107.589336 51.129443 
L 108.217886 51.09845 
L 108.36578 51.165806 
L 108.994329 51.159315 
L 109.142223 51.239711 
L 109.585905 51.202793 
L 109.659852 51.259824 
L 110.103534 51.24441 
L 110.399322 51.269885 
L 110.658137 51.369756 
L 110.806031 51.419378 
L 111.360633 51.429175 
L 111.693395 51.50597 
L 112.100103 51.479532 
L 112.506812 51.413813 
L 112.876546 51.532553 
L 112.987467 51.804981 
L 113.02444 51.789085 
L 113.394175 51.698904 
L 113.542069 51.928835 
L 114.318513 51.967556 
L 114.540354 51.991923 
L 115.612585 51.839729 
L 115.834426 51.833392 
L 115.98232 51.912469 
L 116.130214 51.880161 
L 116.573896 51.776258 
L 116.758764 51.708191 
L 117.091525 51.700065 
L 118.348624 51.523576 
L 118.718359 51.514514 
L 120.53006 51.391798 
L 120.640981 50.886152 
L 120.714928 50.98556 
L 121.306504 50.978977 
L 122.74847 51.12112 
L 123.37702 50.948118 
L 123.894648 51.013175 
L 124.33833 51.001296 
L 124.671092 51.020327 
L 126.889502 50.816803 
L 127.000422 50.749768 
L 127.628972 50.63653 
L 128.66423 50.482921 
L 128.812124 50.492483 
L 129.255806 50.399723 
L 129.51462 50.304291 
L 129.847381 50.347495 
L 129.995275 50.310814 
L 130.36501 50.1489 
L 131.400268 50.063391 
L 131.806977 50.121361 
L 132.139738 50.071523 
L 132.361579 50.065331 
L 132.58342 50.087494 
L 132.953155 50.117705 
L 133.32289 50.091139 
L 133.433811 49.956617 
L 133.470784 49.981082 
L 133.581705 49.982374 
L 133.618678 46.644457 
L 133.692625 46.695215 
L 134.247228 46.693973 
L 135.504326 46.737322 
L 136.946293 46.850552 
L 137.094187 46.930732 
L 138.240365 47.033376 
L 138.388259 46.959809 
L 138.868915 46.995908 
L 138.905888 46.774861 
L 139.312597 46.711732 
L 139.534438 46.705989 
L 139.941146 46.745137 
L 140.199961 46.530362 
L 143.009946 46.519946 
L 143.15784 46.265258 
L 143.971257 46.386528 
L 144.082178 46.446377 
L 146.818216 46.429481 
L 147.335845 46.473052 
L 147.816501 46.531394 
L 147.964395 46.554494 
L 149.147547 46.541274 
L 149.258467 46.483975 
L 149.739123 46.427426 
L 149.887017 46.362659 
L 150.034911 46.432875 
L 152.549108 46.526669 
L 152.623055 46.462643 
L 153.029764 46.507678 
L 153.140684 46.472814 
L 153.399499 46.585041 
L 153.658313 46.516087 
L 153.880154 46.434804 
L 154.397783 46.455148 
L 154.619624 46.157421 
L 154.952386 46.153991 
L 156.431326 46.132264 
L 156.505273 46.092789 
L 156.764087 45.904513 
L 161.016039 45.837987 
L 161.385774 45.804038 
L 161.422748 45.863434 
L 161.570642 45.874199 
L 161.681562 45.983076 
L 161.940377 45.980666 
L 165.563779 46.397917 
L 167.116666 46.367473 
L 167.375481 46.219268 
L 167.634295 46.189119 
L 167.89311 45.991137 
L 168.558633 45.958444 
L 168.669553 45.996232 
L 168.891394 45.89553 
L 168.928368 45.799393 
L 169.187182 45.903845 
L 169.630864 46.083707 
L 169.852705 46.122265 
L 170.33336 46.154172 
L 170.887963 46.164688 
L 170.998883 46.22286 
L 171.664406 46.127878 
L 171.70138 45.969966 
L 171.775327 46.021413 
L 172.145062 46.21831 
L 172.182035 46.071496 
L 172.255982 46.178329 
L 172.403876 46.284896 
L 172.44085 46.2862 
L 172.55177 46.633751 
L 173.032426 46.704289 
L 173.18032 46.343632 
L 173.328214 46.338083 
L 173.587028 46.443056 
L 173.808869 46.850009 
L 173.845843 46.754774 
L 174.067684 46.895795 
L 174.215578 47.37757 
L 174.289525 47.526155 
L 174.326498 47.398368 
L 174.363472 47.449772 
L 175.139915 47.202156 
L 175.768464 47.34384 
L 175.916358 47.41546 
L 177.210431 47.46804 
L 177.469245 47.508161 
L 177.72806 47.482003 
L 177.949901 47.225945 
L 178.245689 47.216508 
L 178.985159 46.988429 
L 179.133053 47.044303 
L 179.280947 47.145263 
L 179.761602 47.196792 
L 179.909496 47.228633 
L 179.94647 47.091955 
L 180.020417 47.186303 
L 180.168311 47.208051 
L 181.018701 47.435302 
L 181.092648 47.400984 
L 182.904349 47.596312 
L 183.12619 47.776148 
L 183.939607 47.814466 
L 184.420263 47.773769 
L 184.60513 47.763382 
L 184.863945 47.692195 
L 184.974865 47.626877 
L 186.453805 47.572072 
L 186.527752 47.551263 
L 186.786566 47.461852 
L 186.93446 47.350043 
L 187.045381 47.125113 
L 187.267222 47.07659 
L 188.080639 47.252065 
L 188.228533 47.180922 
L 188.339453 47.25384 
L 189.078923 47.233999 
L 189.226817 47.183807 
L 189.374711 47.18331 
L 189.89234 47.302878 
L 190.114181 47.328117 
L 190.409969 47.331389 
L 190.668784 46.873504 
L 190.890625 47.017727 
L 190.927598 46.966576 
L 191.112466 46.946583 
L 191.334307 46.44662 
L 191.445227 46.46306 
L 191.667068 47.185383 
L 192.073776 47.17923 
L 192.480485 47.127609 
L 192.628379 47.102529 
L 192.739299 46.703372 
L 193.146008 46.733437 
L 193.256928 46.658156 
L 193.404822 46.588006 
L 193.478769 46.930942 
L 193.515743 46.900362 
L 193.922451 47.013022 
L 193.996398 46.654632 
L 194.033372 46.662323 
L 194.181266 46.748758 
L 194.218239 46.797829 
L 194.255213 46.768664 
L 194.403107 46.308003 
L 194.514027 46.390656 
L 194.551001 46.391838 
L 194.661921 46.557071 
L 194.735868 46.398398 
L 194.772842 46.488841 
L 195.216524 46.474007 
L 195.327444 46.545436 
L 195.734153 46.664942 
L 195.8081 46.756218 
L 195.845073 46.707913 
L 196.214808 46.766447 
L 196.362702 46.370107 
L 196.732437 46.25729 
L 196.880331 46.281671 
L 196.991252 46.300669 
L 197.102172 45.958695 
L 197.139146 46.00622 
L 197.39796 45.924634 
L 197.619801 45.929797 
L 197.767695 45.851378 
L 197.878615 45.904631 
L 198.026509 46.007885 
L 198.174403 45.995441 
L 198.433218 45.957734 
L 198.913873 45.790035 
L 199.949131 45.843281 
L 200.097025 45.907446 
L 200.207946 45.858035 
L 200.35584 45.777614 
L 200.429787 45.844488 
L 200.503734 45.646788 
L 201.280177 45.769413 
L 201.428071 45.588599 
L 201.465045 45.62559 
L 201.538992 45.675935 
L 201.760833 45.491163 
L 202.241488 45.515111 
L 202.426356 45.671784 
L 202.57425 45.667583 
L 202.79609 45.784993 
L 202.943984 45.982106 
L 203.091878 45.963797 
L 203.313719 45.952422 
L 203.720428 46.275848 
L 203.757401 46.21848 
L 203.794375 46.258191 
L 203.868322 46.53921 
L 204.016216 46.565333 
L 204.090163 46.071154 
L 204.127136 46.079863 
L 204.496871 46.080995 
L 204.644765 46.424113 
L 204.90358 46.47254 
L 205.162394 46.352502 
L 206.567387 46.360153 
L 206.715281 46.063325 
L 206.974096 46.043564 
L 207.085016 45.809972 
L 207.12199 45.954742 
L 207.158963 45.986847 
L 207.23291 45.852502 
L 207.454751 45.901054 
L 207.602645 45.697297 
L 207.639619 45.748805 
L 207.713566 45.667967 
L 207.898433 45.640906 
L 208.009354 45.429208 
L 208.194221 45.321923 
L 208.379089 45.309813 
L 208.748823 45.329295 
L 210.264737 45.493984 
L 210.30171 45.392251 
L 210.338684 45.508401 
L 210.560525 45.355963 
L 210.708419 45.319245 
L 211.04118 45.329499 
L 211.226048 45.369854 
L 211.484862 45.452642 
L 211.521836 45.365235 
L 211.558809 45.471558 
L 211.891571 45.447294 
L 212.150385 45.334395 
L 213.629325 45.597271 
L 213.666299 45.795119 
L 213.703272 45.676552 
L 213.851166 45.62132 
L 213.88814 45.575664 
L 213.925113 45.704838 
L 214.368795 45.817434 
L 214.405768 45.866008 
L 214.442742 45.765387 
L 214.701556 45.710123 
L 214.886424 45.429654 
L 215.404053 45.441327 
L 215.514973 45.436376 
L 216.476284 45.551932 
L 216.550231 45.618126 
L 216.95694 45.6749 
L 217.178781 45.777511 
L 219.323244 45.820864 
L 219.397191 45.699092 
L 219.766925 45.737573 
L 221.171918 45.735328 
L 221.356786 45.54407 
L 221.393759 45.571416 
L 222.650858 45.603559 
L 222.687832 45.678993 
L 222.761779 45.577865 
L 223.205461 45.495974 
L 223.390328 45.334861 
L 223.501249 45.363937 
L 223.649143 45.402944 
L 223.797037 45.353437 
L 224.018878 45.260333 
L 224.166772 45.405113 
L 224.314666 45.204349 
L 224.46256 45.27075 
L 224.499533 45.013906 
L 224.536507 45.388686 
L 224.57348 45.245989 
L 224.758348 45.369615 
L 224.832295 45.222811 
L 224.943215 45.243624 
L 225.054136 42.925569 
L 225.091109 42.982465 
L 225.20203 42.990945 
L 225.349924 42.782222 
L 225.460844 42.780577 
L 225.497817 42.509256 
L 225.571764 42.531628 
L 225.719658 42.50576 
L 225.830579 42.344654 
L 225.978473 42.45227 
L 226.015446 42.452408 
L 226.126367 42.347802 
L 226.385181 42.310464 
L 226.607022 42.385171 
L 226.754916 42.439197 
L 226.90281 42.347668 
L 227.087678 42.225529 
L 227.53136 41.677487 
L 227.64228 41.61859 
L 227.679254 41.296373 
L 227.827148 41.372837 
L 227.901095 39.979508 
L 227.938068 39.988959 
L 228.196883 40.013999 
L 228.455697 39.858414 
L 228.862406 40.005706 
L 229.084247 39.764326 
L 229.232141 39.854877 
L 229.86069 40.001618 
L 230.008584 40.046276 
L 230.674107 40.267461 
L 231.783312 40.464005 
L 232.0791 40.328675 
L 232.448835 40.290239 
L 232.966464 40.315704 
L 233.299225 40.370532 
L 233.631987 40.43322 
L 234.593298 40.44096 
L 234.778165 40.46043 
L 234.926059 40.488989 
L 235.295794 40.501444 
L 236.183158 40.707137 
L 236.331052 40.572559 
L 236.589867 40.618798 
L 237.662098 40.802847 
L 237.883939 40.833433 
L 237.957886 40.951747 
L 238.031833 40.907818 
L 239.954455 41.214142 
L 240.065375 41.142757 
L 242.801414 41.776118 
L 243.356016 41.773483 
L 243.984566 41.942391 
L 244.391274 41.953745 
L 246.055082 42.251357 
L 247.238234 42.262493 
L 247.349154 42.213576 
L 247.607969 42.255536 
L 248.014677 42.321033 
L 248.125597 42.401317 
L 248.79112 42.314206 
L 248.902041 42.331665 
L 249.123882 42.399312 
L 249.271776 42.106834 
L 249.41967 42.261444 
L 251.083477 42.341132 
L 251.231371 42.3099 
L 251.749 42.450926 
L 254.522012 42.804603 
L 255.076615 42.878775 
L 255.298456 42.900311 
L 255.631217 42.856577 
L 255.779111 42.781465 
L 255.890032 42.65912 
L 256.518581 42.690145 
L 256.666475 42.695131 
L 257.960548 42.981289 
L 258.108442 42.98422 
L 258.182389 42.859457 
L 258.219362 42.881523 
L 259.476461 42.898043 
L 259.735275 42.96688 
L 260.031063 42.686312 
L 262.508288 42.847073 
L 262.878023 42.869934 
L 263.136837 42.937957 
L 265.39222 43.164334 
L 265.429194 43.021112 
L 265.466167 43.059928 
L 265.946823 43.026065 
L 266.094717 42.873546 
L 266.353531 42.90875 
L 266.501425 42.90627 
L 266.945107 42.938337 
L 267.203922 42.983041 
L 267.425763 42.959476 
L 267.647604 43.000149 
L 267.684577 43.011156 
L 267.795498 42.881516 
L 268.202206 42.820926 
L 268.313127 42.678506 
L 268.571941 42.588318 
L 268.830756 42.551341 
L 269.200491 42.444418 
L 269.607199 42.55565 
L 269.976934 42.573338 
L 270.642457 42.623811 
L 271.049165 42.65373 
L 271.160086 42.733781 
L 271.677715 42.85387 
L 272.602052 42.996704 
L 272.712973 42.943245 
L 273.859151 43.164309 
L 274.26586 43.246308 
L 275.412038 43.270121 
L 275.522959 43.230045 
L 275.929667 43.34175 
L 276.077561 43.295638 
L 277.001898 43.274551 
L 277.075845 43.20218 
L 277.112819 43.225206 
L 277.371633 43.294722 
L 277.630448 43.385916 
L 278.07413 43.454659 
L 278.295971 43.447698 
L 278.591759 43.49516 
L 278.8136 43.520994 
L 278.850573 43.469402 
L 278.887547 43.540443 
L 279.146361 43.61884 
L 279.368202 43.679251 
L 279.442149 43.750072 
L 279.627017 43.778405 
L 279.848858 43.763048 
L 280.218593 43.797184 
L 280.588328 43.788097 
L 281.401745 43.939707 
L 281.512665 43.831803 
L 282.695817 44.045961 
L 282.806737 44.154358 
L 284.507518 44.248259 
L 284.729359 44.289145 
L 285.099094 44.282669 
L 285.246988 44.056168 
L 286.947769 44.225905 
L 287.05869 44.176936 
L 287.206584 43.831044 
L 287.613292 43.751306 
L 287.90908 43.6912 
L 290.756039 43.924314 
L 290.829986 43.768044 
L 291.236695 43.629711 
L 291.347615 43.482527 
L 292.271953 43.550725 
L 292.382873 43.547024 
L 292.493794 43.563435 
L 292.641688 43.211794 
L 292.863529 43.077813 
L 293.011423 42.805657 
L 293.122343 42.757253 
L 293.270237 42.915527 
L 293.381157 42.901246 
L 293.566025 43.027837 
L 293.676945 43.108268 
L 293.898786 42.933494 
L 294.453389 43.074164 
L 294.638256 43.006999 
L 294.712203 42.955727 
L 294.934044 43.025215 
L 295.081938 42.915606 
L 295.932329 42.907839 
L 296.006276 42.822576 
L 296.412984 43.024667 
L 296.671799 43.173043 
L 298.557447 43.57006 
L 298.705341 43.358468 
L 298.853235 43.535527 
L 299.001129 43.501736 
L 299.075076 43.647406 
L 299.112049 43.582658 
L 299.22297 43.586834 
L 299.33389 43.044046 
L 299.370864 43.080441 
L 299.629678 43.029977 
L 299.814546 42.984513 
L 299.999413 43.081817 
L 300.258228 43.261443 
L 300.406122 43.398786 
L 300.627963 43.421755 
L 302.957293 44.054388 
L 303.105187 44.080496 
L 304.177419 43.965841 
L 304.288339 43.900429 
L 304.916888 44.013626 
L 305.027809 43.844596 
L 305.064782 43.883987 
L 305.767279 44.129368 
L 305.804252 43.961832 
L 305.841226 43.979636 
L 305.98912 44.007907 
L 306.10004 44.162823 
L 306.321881 44.227845 
L 306.469775 44.322746 
L 306.802537 44.363698 
L 307.615954 44.520232 
L 307.652927 44.337042 
L 308.059636 44.44998 
L 308.133583 44.240713 
L 308.170556 44.356672 
L 308.392397 44.489661 
L 308.688185 44.698403 
L 308.910026 44.205477 
L 308.947 44.791518 
L 309.05792 44.581802 
L 309.131867 44.667011 
L 309.205814 44.634376 
L 309.316735 44.383357 
L 309.390682 44.455238 
L 309.464629 44.715976 
L 309.575549 44.683972 
L 309.649496 45.160625 
L 309.68647 44.518579 
L 309.723443 44.876124 
L 310.388966 44.260709 
L 310.425939 44.396386 
L 310.462913 44.385046 
L 310.610807 43.65131 
L 310.64778 43.695902 
L 310.721727 43.972808 
L 310.758701 43.855865 
L 311.128436 43.851659 
L 311.165409 43.86826 
L 311.27633 44.137922 
L 311.424224 44.082175 
L 311.461197 44.21655 
L 311.498171 43.680895 
L 311.535144 43.691147 
L 312.718296 43.732034 
L 312.829217 43.508355 
L 313.088031 43.337699 
L 313.457766 43.36905 
L 313.716581 43.479493 
L 313.753554 43.555349 
L 313.790528 43.449565 
L 314.086316 43.366648 
L 314.23421 43.473858 
L 314.271183 43.06322 
L 314.34513 43.071562 
L 314.382104 43.092879 
L 314.640918 42.855284 
L 315.343415 42.975688 
L 315.417362 43.069299 
L 316.600513 43.091292 
L 316.637487 42.906281 
L 316.711434 42.966652 
L 317.339983 42.864252 
L 317.41393 42.707558 
L 317.450904 42.776162 
L 317.487877 42.787008 
L 317.598798 42.651889 
L 317.635771 42.747814 
L 317.857612 42.773556 
L 318.671029 42.744765 
L 318.78195 42.656372 
L 319.188658 42.748773 
L 319.447473 42.795858 
L 319.558393 42.746457 
L 320.815492 42.893447 
L 324.327974 43.118989 
L 324.438895 42.99435 
L 324.475868 43.065796 
L 324.845603 43.021773 
L 325.622047 43.19466 
L 325.732967 43.15399 
L 326.139676 43.209122 
L 326.472437 43.275932 
L 326.805199 43.297975 
L 329.393343 43.5164 
L 329.873999 43.594222 
L 329.910972 43.678967 
L 331.205045 43.391084 
L 331.57478 43.53557 
L 332.240303 43.487108 
L 332.683984 43.609771 
L 332.757931 43.633142 
L 335.826732 43.760976 
L 336.603175 43.892077 
L 336.751069 43.836188 
L 336.898963 43.81865 
L 338.082115 43.961161 
L 338.45185 43.991519 
L 339.19132 44.138657 
L 340.115657 44.286792 
L 341.039995 44.358339 
L 341.557624 44.370487 
L 342.703802 44.24816 
L 342.851696 44.2568 
L 343.62814 44.356359 
L 344.256689 44.366853 
L 344.552477 44.420705 
L 345.181026 44.507763 
L 346.06839 44.581552 
L 346.733913 44.69464 
L 346.992728 44.719353 
L 347.362463 44.329508 
L 347.695224 44.429731 
L 347.732198 44.377648 
L 347.769171 44.412403 
L 348.027986 44.411364 
L 348.656535 44.482044 
L 348.767456 44.550558 
L 348.952323 44.534811 
L 349.063244 44.50872 
L 349.174164 44.44289 
L 349.211138 44.734209 
L 349.285085 44.678474 
L 349.506925 44.761571 
L 350.50521 44.845158 
L 351.133759 44.824811 
L 351.577441 44.858583 
L 352.538752 44.808561 
L 352.686646 44.623198 
L 356.53189 44.779442 
L 356.716757 44.740126 
L 357.27136 44.791773 
L 357.530174 44.786483 
L 359.157008 44.986704 
L 359.563717 45.003558 
L 359.933452 45.061581 
L 361.19055 45.05561 
L 362.262782 45.066022 
L 362.965278 45.123754 
L 363.741722 45.133529 
L 363.926589 45.090252 
L 364.592112 45.015413 
L 364.850927 44.904465 
L 365.886185 44.949762 
L 366.514734 44.911748 
L 369.620508 44.992985 
L 369.768402 44.947253 
L 370.692739 44.909568 
L 370.91458 44.827154 
L 372.208652 44.829386 
L 372.615361 44.707462 
L 372.874175 44.855045 
L 374.168248 44.718918 
L 374.537983 44.685398 
L 374.685877 44.644519 
L 375.721135 44.678389 
L 375.979949 44.54293 
L 377.421916 44.557937 
L 377.532836 44.633839 
L 379.048749 44.692532 
L 379.196643 44.627393 
L 379.714272 44.603074 
L 380.01006 44.532331 
L 380.342822 44.526736 
L 380.527689 44.56477 
L 380.63861 44.533876 
L 381.082292 44.505031 
L 381.156239 44.44803 
L 382.154523 44.392863 
L 382.302417 44.387626 
L 382.450311 44.411312 
L 382.709126 44.449235 
L 382.930967 44.440255 
L 383.078861 44.521287 
L 383.226755 44.544323 
L 384.631747 44.786935 
L 384.779641 44.783296 
L 385.703979 44.767186 
L 385.814899 44.668457 
L 387.885415 44.584139 
L 388.772779 44.733391 
L 388.920673 44.60679 
L 389.881984 44.661925 
L 390.103825 44.556331 
L 390.214745 44.723065 
L 390.436586 44.73392 
L 390.658427 44.76089 
L 390.695401 44.622062 
L 390.732374 44.64113 
L 391.730659 44.73234 
L 391.878553 44.882468 
L 392.026447 44.921252 
L 392.137367 37.87473 
L 392.211314 38.071574 
L 392.396182 38.100069 
L 392.507102 37.80786 
L 392.544076 37.831455 
L 393.246572 38.186941 
L 393.320519 38.137761 
L 393.468413 38.213226 
L 393.579334 38.29584 
L 393.949069 38.289216 
L 394.059989 37.591496 
L 394.207883 37.795677 
L 394.355777 37.872539 
L 394.466698 37.936905 
L 394.503671 37.831568 
L 394.873406 37.771888 
L 395.13222 37.732342 
L 395.354061 37.71132 
L 395.501955 37.74278 
L 395.575902 37.65032 
L 395.612876 37.741018 
L 396.056558 37.963429 
L 396.167478 37.505165 
L 396.648134 37.707905 
L 396.869975 37.780515 
L 396.906948 37.789118 
L 397.128789 37.406647 
L 397.165763 37.418218 
L 397.202736 37.31168 
L 397.387604 37.430724 
L 397.424577 37.330524 
L 397.461551 37.3504 
L 398.385888 37.544123 
L 398.496809 37.364489 
L 398.71865 37.448472 
L 398.755623 37.533554 
L 399.014438 37.436242 
L 399.532067 37.51985 
L 399.716934 37.353356 
L 399.938775 37.502254 
L 400.456404 36.782829 
L 400.493377 36.817129 
L 401.011006 37.166323 
L 401.04798 36.866661 
L 401.084953 36.902846 
L 401.195874 36.932858 
L 401.232847 36.827415 
L 401.306794 36.928566 
L 401.454688 36.931901 
L 401.528635 36.961213 
L 401.602582 36.362597 
L 401.750476 36.14227 
L 401.78745 35.438522 
L 401.861397 35.540495 
L 401.972317 35.512022 
L 402.083238 34.819354 
L 402.120211 34.850191 
L 402.231132 34.870569 
L 402.379026 34.596253 
L 402.600867 34.738193 
L 403.007575 34.82139 
L 403.118496 34.693302 
L 403.37731 35.154416 
L 403.562178 35.228025 
L 403.673098 35.363779 
L 403.857966 35.382586 
L 403.894939 35.493708 
L 404.042833 34.916858 
L 404.190727 35.376461 
L 404.671383 35.77388 
L 404.708356 35.407969 
L 405.447826 35.661258 
L 405.4848 35.540529 
L 405.632694 35.640984 
L 405.743614 35.148088 
L 405.965455 35.262336 
L 406.113349 35.187788 
L 406.372163 35.231376 
L 406.667951 34.745493 
L 406.704925 34.770787 
L 406.741898 34.447241 
L 406.778872 34.474943 
L 406.926766 34.472176 
L 407.037686 33.753903 
L 407.148607 33.753235 
L 407.259527 33.987148 
L 407.296501 33.880212 
L 407.444395 34.008359 
L 407.481368 33.653768 
L 407.555315 33.898614 
L 407.703209 33.899492 
L 407.92505 33.086745 
L 407.962024 33.12383 
L 408.183865 33.535982 
L 408.331759 33.23596 
L 408.590573 33.390325 
L 408.701494 33.413786 
L 408.738467 33.206947 
L 408.812414 33.346604 
L 408.997282 33.575284 
L 409.625831 34.293225 
L 409.736752 34.318405 
L 409.773725 34.208121 
L 409.847672 34.266669 
L 409.995566 34.275529 
L 410.291354 34.313587 
L 410.365301 34.286832 
L 410.402275 34.332624 
L 410.513195 34.356204 
L 410.550169 34.2312 
L 410.624116 34.288443 
L 411.363586 34.415821 
L 411.807267 34.373176 
L 411.844241 34.141797 
L 411.918188 34.170004 
L 412.140029 34.235375 
L 412.435817 34.459526 
L 412.953446 34.481248 
L 413.10134 34.000499 
L 413.618969 33.957025 
L 413.766863 34.092154 
L 414.173571 34.078063 
L 414.210545 33.994671 
L 414.284492 34.047085 
L 414.543306 33.996753 
L 414.986988 34.167359 
L 415.31975 34.355098 
L 415.689485 34.541579 
L 415.763432 34.626974 
L 415.800405 34.589192 
L 415.948299 34.366296 
L 416.022246 34.378614 
L 416.096193 34.317537 
L 416.465928 34.467605 
L 416.539875 34.357658 
L 416.576849 34.410873 
L 416.872637 34.655226 
L 418.055788 34.861045 
L 418.166709 36.264775 
L 418.314603 36.429586 
L 418.351576 36.368121 
L 418.425523 36.385153 
L 418.832232 36.615802 
L 418.906179 36.069937 
L 418.943152 36.105325 
L 419.12802 36.174209 
L 419.201967 36.285258 
L 419.571702 36.369869 
L 419.941437 36.520796 
L 420.089331 36.469794 
L 420.200251 36.64387 
L 420.385119 36.731013 
L 420.71788 36.992391 
L 421.45735 37.41906 
L 421.679191 37.530977 
L 422.270767 37.738883 
L 422.93629 38.017791 
L 423.084184 38.020754 
L 423.342998 38.133522 
L 425.043779 38.785937 
L 425.117726 38.44953 
L 425.1547 38.461244 
L 425.524435 38.421588 
L 425.783249 38.503163 
L 425.89417 38.619516 
L 426.042064 37.978099 
L 426.189958 37.978704 
L 426.448772 37.843394 
L 426.559693 37.848267 
L 426.670613 37.386674 
L 426.707587 37.393667 
L 427.188242 37.295667 
L 427.742845 37.535913 
L 427.927712 37.607495 
L 428.186527 37.668539 
L 428.260474 37.425462 
L 428.741129 37.201198 
L 429.81336 37.472923 
L 430.072175 37.345646 
L 430.589804 37.592292 
L 431.070459 37.752596 
L 431.107433 37.345069 
L 431.625062 37.628234 
L 432.845187 37.838606 
L 432.882161 37.897258 
L 432.919134 37.834039 
L 433.362816 37.894452 
L 433.436763 37.892427 
L 433.658604 37.837023 
L 434.176233 37.957448 
L 434.3611 38.025544 
L 434.472021 38.028452 
L 434.656888 38.16235 
L 434.693862 38.19455 
L 434.730835 38.143177 
L 435.10057 37.3641 
L 435.137544 37.373282 
L 435.211491 37.140851 
L 435.248464 37.176726 
L 436.283722 37.262801 
L 436.542537 36.927538 
L 436.653457 36.597355 
L 436.690431 36.067643 
L 436.764378 36.075648 
L 436.801351 36.088289 
L 437.060166 35.606397 
L 437.171086 35.631161 
L 437.20806 35.497509 
L 437.282007 35.55678 
L 437.429901 35.59895 
L 437.577795 35.428413 
L 438.095424 35.375341 
L 438.317265 35.424191 
L 438.613053 35.573073 
L 438.982788 35.685868 
L 439.093708 35.897218 
L 439.130682 35.866721 
L 439.648311 35.82377 
L 439.907125 35.850349 
L 440.165939 35.490678 
L 440.424754 35.388211 
L 441.053303 35.72435 
L 441.164224 35.881704 
L 441.312118 35.497089 
L 441.460012 35.47763 
L 441.903694 35.559007 
L 442.125535 35.648952 
L 442.60619 35.821874 
L 443.23474 35.720281 
L 443.382634 35.769217 
L 443.715395 35.959213 
L 443.789342 35.63401 
L 443.937236 35.684315 
L 443.97421 35.083918 
L 444.048157 35.195955 
L 444.159077 35.285817 
L 444.269998 34.631109 
L 444.306971 34.658014 
L 444.454865 34.703857 
L 444.565786 33.267916 
L 445.046441 33.169085 
L 445.194335 32.707183 
L 445.268282 32.755224 
L 445.305256 32.678581 
L 445.342229 32.701231 
L 445.527096 32.136891 
L 445.56407 32.157329 
L 445.601043 32.228514 
L 445.711964 32.139221 
L 445.748937 32.19807 
L 445.785911 31.853655 
L 445.859858 31.882224 
L 445.970778 31.878708 
L 446.118672 31.042615 
L 446.340513 31.161114 
L 446.377487 31.082783 
L 446.599328 30.711921 
L 446.747222 30.286325 
L 446.784195 30.308738 
L 446.821169 29.381247 
L 446.895116 29.44194 
L 447.079983 29.493116 
L 447.301824 28.601454 
L 448.189188 28.741776 
L 448.374056 28.751583 
L 448.854711 29.013237 
L 448.965632 29.072577 
L 449.335367 29.259789 
L 449.483261 29.347164 
L 449.668128 29.303913 
L 449.926943 29.534092 
L 449.963916 29.455551 
L 450.00089 29.225597 
L 450.888254 29.669103 
L 451.147068 29.938748 
L 451.184041 29.861032 
L 451.221015 29.900621 
L 451.405882 30.078202 
L 451.479829 30.116724 
L 451.516803 30.18044 
L 451.553776 30.116509 
L 451.664697 30.161924 
L 451.70167 30.011642 
L 451.775617 30.038881 
L 451.812591 30.06576 
L 451.960485 29.451677 
L 451.997458 29.493176 
L 452.182326 29.457264 
L 452.33022 29.463658 
L 452.589034 29.522145 
L 452.699955 29.723669 
L 452.736928 29.412377 
L 452.810875 29.525743 
L 452.995743 29.537958 
L 453.106663 29.608682 
L 453.587319 29.832271 
L 453.80916 30.001818 
L 454.54863 30.371673 
L 454.65955 30.299298 
L 454.770471 30.313951 
L 454.881391 30.481711 
L 454.918365 30.428066 
L 455.177179 29.901703 
L 455.325073 29.809053 
L 455.435994 29.522257 
L 455.657835 29.564476 
L 455.805729 29.196832 
L 455.879676 29.312742 
L 455.953623 29.249391 
L 456.13849 29.192076 
L 456.175464 29.020563 
L 456.212437 29.033635 
L 456.730066 29.606815 
L 456.87796 29.578234 
L 456.98888 29.50857 
L 458.209006 29.931374 
L 458.541767 30.215006 
L 459.022423 30.429445 
L 459.059396 30.462937 
L 459.244264 30.383452 
L 459.577025 30.484723 
L 459.798866 30.596945 
L 460.020707 30.725447 
L 460.501363 30.939852 
L 460.834124 31.131009 
L 461.388727 31.356856 
L 461.758462 31.269739 
L 461.795435 31.121468 
L 461.832409 31.255305 
L 461.906356 31.306893 
L 462.091223 31.354851 
L 462.387011 31.557191 
L 462.90464 30.025291 
L 462.941613 30.164387 
L 463.052534 31.376834 
L 463.089507 31.106633 
L 463.200428 28.820031 
L 463.348322 25.805762 
L 463.385295 26.685146 
L 463.422269 27.363488 
L 463.459242 27.121203 
L 463.681083 26.237505 
L 463.718057 26.317405 
L 463.902924 25.946428 
L 464.087792 24.418465 
L 464.161739 24.586992 
L 464.235686 25.425789 
L 464.346606 25.811373 
L 464.38358 25.469744 
L 464.457527 25.537594 
L 464.605421 25.582602 
L 464.642394 25.342398 
L 464.716341 25.574719 
L 464.753315 25.468287 
L 465.160023 26.233193 
L 465.196997 26.120476 
L 465.23397 26.164712 
L 465.381864 26.30749 
L 465.418838 26.224541 
L 465.455811 26.308194 
L 465.936467 27.173798 
L 466.047387 27.581788 
L 466.195281 27.640188 
L 466.306202 27.912514 
L 466.454096 27.927575 
L 466.565016 28.060005 
L 466.749884 28.09907 
L 466.823831 28.166503 
L 467.008698 28.17306 
L 467.34146 28.413374 
L 467.748168 28.27749 
L 467.859089 28.54461 
L 468.228823 28.180028 
L 468.30277 28.211496 
L 468.339744 28.101843 
L 468.376717 28.244507 
L 468.524611 28.141839 
L 468.746452 28.415119 
L 469.153161 28.59822 
L 469.522896 28.660401 
L 469.559869 28.554507 
L 469.596843 28.597496 
L 469.67079 27.854135 
L 469.818684 27.872324 
L 469.855657 27.77959 
L 469.929604 27.810535 
L 470.188419 27.70423 
L 470.299339 27.968999 
L 470.336313 27.874417 
L 470.558154 27.742593 
L 470.632101 27.796748 
L 470.706048 27.57835 
L 471.14973 27.48644 
L 471.334597 27.610345 
L 471.630385 27.794244 
L 471.741306 27.489089 
L 471.8892 27.41301 
L 471.926173 27.375485 
L 472.111041 26.766629 
L 472.258935 26.965685 
L 473.294193 27.502037 
L 473.516034 27.513678 
L 473.811821 27.658242 
L 474.21853 27.862211 
L 474.255503 28.398904 
L 474.32945 28.342125 
L 474.477344 28.413077 
L 474.736159 28.662108 
L 475.105894 28.780178 
L 475.327735 28.586979 
L 475.549576 28.723129 
L 475.882337 28.917369 
L 476.326019 27.731928 
L 476.362993 27.471445 
L 476.399966 27.497446 
L 476.510887 27.579975 
L 476.621807 26.997034 
L 476.658781 27.051388 
L 476.806675 27.160031 
L 476.843648 27.196316 
L 476.880622 27.042649 
L 476.917595 27.072496 
L 477.065489 27.242431 
L 477.102463 26.968377 
L 477.17641 27.148158 
L 477.435224 27.33425 
L 477.583118 27.282911 
L 477.694039 27.384923 
L 478.729297 27.598741 
L 478.988111 26.933729 
L 479.357846 27.041567 
L 479.764554 27.327123 
L 479.986395 27.527356 
L 480.762839 27.921444 
L 480.910733 28.06207 
L 481.058627 28.219952 
L 481.206521 28.346132 
L 481.317441 28.462718 
L 481.798097 28.703195 
L 482.46362 29.070827 
L 482.537567 29.087336 
L 482.57454 29.151845 
L 482.611514 29.123699 
L 482.981249 29.256455 
L 483.350984 29.485199 
L 483.572825 29.574093 
L 484.016507 29.80881 
L 484.05348 29.517828 
L 484.127427 29.564942 
L 484.164401 29.590644 
L 484.275321 29.421207 
L 484.349268 29.509729 
L 484.645056 29.570221 
L 484.866897 29.713378 
L 485.162685 29.806179 
L 485.976102 30.188892 
L 486.234916 30.036414 
L 486.38281 30.133632 
L 486.493731 29.953548 
L 486.604651 29.974331 
L 486.715572 29.754761 
L 486.863466 29.828471 
L 486.937413 29.665597 
L 486.974386 29.27458 
L 487.01136 29.36101 
L 487.12228 29.360368 
L 487.233201 29.214138 
L 487.639909 29.375646 
L 487.898724 28.764019 
L 488.046618 28.853743 
L 488.157538 28.877258 
L 488.305432 28.407249 
L 488.416353 28.43364 
L 488.564247 27.921079 
L 488.675167 27.560586 
L 488.712141 27.606078 
L 488.749114 27.715638 
L 488.786088 27.476682 
L 488.823061 27.50235 
L 488.970955 27.486018 
L 489.96924 24.896226 
L 490.006213 24.936138 
L 490.117134 24.297697 
L 490.228054 24.218992 
L 490.375948 23.352586 
L 490.523842 23.27877 
L 490.634762 23.185686 
L 490.745683 23.17654 
L 490.81963 22.90394 
L 490.893577 23.012853 
L 491.004497 23.074795 
L 491.152391 22.617739 
L 491.300285 22.813426 
L 491.337259 22.713734 
L 491.411206 22.716667 
L 491.522126 22.786266 
L 491.67002 22.598793 
L 491.780941 22.527087 
L 491.928835 21.913126 
L 492.113702 21.864674 
L 492.187649 21.103997 
L 492.29857 20.961745 
L 492.335543 21.05227 
L 492.446464 20.497592 
L 492.557384 20.458164 
L 492.631331 19.805051 
L 492.705278 19.911886 
L 492.816199 19.965088 
L 492.964093 19.33884 
L 493.075013 19.374124 
L 493.14896 19.459743 
L 493.222907 19.206121 
L 493.444748 19.286378 
L 493.740536 18.137158 
L 493.962377 18.222728 
L 493.999351 17.979243 
L 494.110271 18.027037 
L 494.147245 17.761236 
L 494.221192 17.873213 
L 494.369086 17.945128 
L 494.480006 17.757464 
L 494.51698 17.794822 
L 494.6279 17.670472 
L 494.664874 17.732974 
L 494.886715 17.864779 
L 495.034609 17.54557 
L 495.700132 17.748275 
L 495.811052 17.509618 
L 496.069867 17.46355 
L 496.180787 17.349591 
L 496.21776 17.403208 
L 496.291707 17.429028 
L 496.439601 17.142088 
L 496.735389 17.360421 
L 496.84631 17.238489 
L 496.95723 17.253741 
L 496.994204 16.882558 
L 497.068151 17.028342 
L 497.253018 17.105828 
L 497.474859 17.108352 
L 497.511833 17.150748 
L 497.548806 17.087978 
L 497.58578 16.944035 
L 497.622753 16.992281 
L 497.733674 17.019101 
L 497.881568 16.67291 
L 498.103409 16.901037 
L 498.140382 16.821041 
L 498.251303 16.552786 
L 498.32525 16.632526 
L 498.510117 16.69868 
L 498.547091 16.562977 
L 498.584064 16.782574 
L 498.621038 16.928835 
L 498.658011 16.883858 
L 498.805905 17.030419 
L 498.842879 16.777623 
L 498.916826 16.831038 
L 499.101693 16.90362 
L 499.138667 15.771562 
L 499.17564 15.850956 
L 499.582349 16.04419 
L 499.841163 16.27013 
L 499.878137 16.072077 
L 499.952084 16.193139 
L 500.136951 16.181487 
L 500.913395 16.445719 
L 500.950368 16.283439 
L 500.987342 16.330667 
L 501.763785 16.571032 
L 501.948652 16.633548 
L 502.022599 16.715388 
L 502.170493 16.65961 
L 502.24444 16.310151 
L 502.281414 16.340183 
L 502.392334 16.338521 
L 502.540228 16.493273 
L 502.762069 16.538371 
L 502.909963 16.682797 
L 502.946937 16.470169 
L 503.020884 16.55133 
L 503.464566 16.850414 
L 503.501539 16.898314 
L 503.538513 16.828125 
L 503.575486 16.798607 
L 503.945221 17.219718 
L 504.019168 17.193181 
L 504.241009 17.5263 
L 506.348499 18.725535 
L 506.385472 19.023942 
L 506.422446 18.992292 
L 506.644287 19.117759 
L 506.940075 19.836006 
L 507.124942 19.983722 
L 507.568624 20.284478 
L 507.605597 20.218915 
L 507.642571 20.252701 
L 507.827438 20.415133 
L 508.234147 20.746503 
L 508.640855 20.797176 
L 508.714802 20.945304 
L 508.751776 20.897697 
L 510.156769 21.490184 
L 510.304663 21.722657 
L 510.563477 21.851488 
L 511.081106 22.066662 
L 511.192027 22.225021 
L 511.265974 22.138731 
L 511.561762 22.37353 
L 511.709656 22.274659 
L 511.746629 22.347368 
L 511.820576 22.260946 
L 512.042417 22.217672 
L 512.116364 22.497675 
L 512.338205 22.526883 
L 512.375179 22.451015 
L 512.744914 22.699092 
L 512.781887 22.513188 
L 512.855834 22.609616 
L 513.003728 22.712641 
L 513.151622 22.829883 
L 513.373463 23.010699 
L 513.632277 23.439413 
L 513.854118 23.596738 
L 513.928065 23.836637 
L 514.593588 24.010437 
L 514.630562 23.934964 
L 514.704509 24.021933 
L 514.815429 23.883038 
L 514.889376 23.961728 
L 515.111217 24.14028 
L 515.628846 24.522008 
L 515.702793 24.349694 
L 515.739767 24.512631 
L 515.924634 24.704043 
L 516.109502 24.86789 
L 516.183449 24.692205 
L 516.220422 24.854973 
L 516.40529 24.838862 
L 517.181733 25.307783 
L 517.440548 25.652504 
L 517.477521 25.593152 
L 517.514495 25.634703 
L 517.736336 25.872091 
L 518.069097 26.040748 
L 518.327912 26.050058 
L 518.549753 26.029087 
L 518.697646 26.104326 
L 518.84554 26.063259 
L 519.030408 26.089346 
L 519.104355 26.034587 
L 519.289222 26.086796 
L 519.511063 26.221217 
L 520.065666 26.490491 
L 520.139613 26.773991 
L 520.509348 26.934162 
L 520.657242 27.158693 
L 520.879083 27.206314 
L 521.618553 27.878497 
L 521.6925 28.844671 
L 521.80342 28.92928 
L 521.840394 29.301523 
L 521.914341 29.197952 
L 521.951314 29.224001 
L 522.062235 29.147438 
L 522.099208 29.25446 
L 522.136182 28.799919 
L 522.210129 28.92196 
L 522.394996 29.159532 
L 522.579864 28.169791 
L 522.653811 28.097823 
L 522.690784 27.882839 
L 522.727758 27.920771 
L 522.838678 28.008993 
L 522.949599 27.590348 
L 522.986572 27.621322 
L 523.430254 27.565194 
L 523.615122 27.670322 
L 523.763016 27.220161 
L 524.132751 27.453342 
L 524.206698 27.537591 
L 524.243671 27.339178 
L 524.280645 27.351723 
L 525.168008 27.757097 
L 525.315902 28.07833 
L 525.759584 28.411472 
L 525.833531 28.247209 
L 525.981425 28.222695 
L 526.018399 27.908045 
L 526.092346 28.047627 
L 526.314187 28.351646 
L 526.35116 28.232879 
L 526.573001 28.310707 
L 526.794842 28.667198 
L 527.09063 28.762808 
L 527.349445 28.812801 
L 527.386418 28.878179 
L 527.534312 28.833296 
L 527.571286 28.333804 
L 527.645233 28.387141 
L 527.867074 28.532032 
L 527.904047 28.471339 
L 528.56957 28.376368 
L 528.680491 28.238436 
L 528.828385 28.286753 
L 528.939305 28.486262 
L 529.19812 28.731568 
L 529.456934 28.686602 
L 529.93759 28.894961 
L 530.085483 28.609852 
L 530.15943 28.647319 
L 530.344298 28.19297 
L 530.381271 28.227399 
L 530.418245 28.18627 
L 530.603112 27.626055 
L 530.640086 27.654124 
L 530.677059 27.68104 
L 530.714033 27.587006 
L 530.751006 27.42838 
L 531.009821 27.405239 
L 531.379556 27.015551 
L 531.453503 27.04602 
L 531.52745 25.564496 
L 531.63837 25.639837 
L 531.675344 25.519618 
L 531.786264 22.140947 
L 532.155999 22.215604 
L 532.26692 21.837599 
L 532.303893 21.883945 
L 532.821522 22.05054 
L 532.932443 21.553056 
L 533.00639 21.678418 
L 533.228231 21.844331 
L 533.265204 21.764454 
L 533.339151 21.820347 
L 533.450072 21.853774 
L 533.487045 21.681269 
L 533.560992 21.74622 
L 534.078621 22.051003 
L 534.263489 21.948377 
L 534.48533 22.025587 
L 534.522303 21.994163 
L 534.559277 22.096691 
L 534.744144 22.20332 
L 534.892038 22.385 
L 535.076906 22.437656 
L 535.409667 22.834581 
L 535.594535 23.025621 
L 535.779402 23.207238 
L 535.890322 23.299397 
L 536.038216 23.057678 
L 536.18611 23.261024 
L 537.443209 23.892877 
L 537.628077 24.017188 
L 537.997812 24.266943 
L 538.219653 24.421234 
L 538.367547 24.511245 
L 538.478467 24.509559 
L 538.626361 23.962289 
L 538.774255 24.346619 
L 539.14399 24.37419 
L 539.402805 24.59152 
L 539.513725 24.288417 
L 539.550699 24.327863 
L 539.735566 24.378435 
L 539.77254 24.096703 
L 539.809513 24.135095 
L 539.957407 24.182313 
L 539.994381 24.216074 
L 540.031354 24.082148 
L 540.068328 24.149938 
L 540.216222 24.045322 
L 540.216222 24.045322 
" clip-path="url(#p08f4a27f47)" style="fill: none; stroke: #1f77b4; stroke-width: 1.5; stroke-linecap: square"/>
   </g>
   <g id="patch_3">
    <path d="M 44.845313 87.010464 
L 44.845313 7.2 
" style="fill: none"/>
   </g>
   <g id="patch_4">
    <path d="M 563.805312 87.010464 
L 563.805312 7.2 
" style="fill: none"/>
   </g>
   <g id="patch_5">
    <path d="M 44.845313 87.010464 
L 563.805313 87.010464 
" style="fill: none; stroke: #000000; stroke-width: 0.8; stroke-linejoin: miter; stroke-linecap: square"/>
   </g>
   <g id="patch_6">
    <path d="M 44.845313 7.2 
L 563.805313 7.2 
" style="fill: none"/>
   </g>
  </g>
 </g>
 <defs>
  <clipPath id="p08f4a27f47">
   <rect x="44.845313" y="7.2" width="518.96" height="79.810464"/>
  </clipPath>
 </defs>
</svg>
