<?xml version="1.0" encoding="utf-8" standalone="no"?>
<!DOCTYPE svg PUBLIC "-//W3C//DTD SVG 1.1//EN"
  "http://www.w3.org/Graphics/SVG/1.1/DTD/svg11.dtd">
<svg xmlns:xlink="http://www.w3.org/1999/xlink" width="577.214687pt" height="136.396966pt" viewBox="0 0 577.214687 136.396966" xmlns="http://www.w3.org/2000/svg" version="1.1">
 <metadata>
  <rdf:RDF xmlns:dc="http://purl.org/dc/elements/1.1/" xmlns:cc="http://creativecommons.org/ns#" xmlns:rdf="http://www.w3.org/1999/02/22-rdf-syntax-ns#">
   <cc:Work>
    <dc:type rdf:resource="http://purl.org/dc/dcmitype/StillImage"/>
    <dc:date>2025-12-03T23:16:00.776180</dc:date>
    <dc:format>image/svg+xml</dc:format>
    <dc:creator>
     <cc:Agent>
      <dc:title>Matplotlib v3.10.7, https://matplotlib.org/</dc:title>
     </cc:Agent>
    </dc:creator>
   </cc:Work>
  </rdf:RDF>
 </metadata>
 <defs>
  <style type="text/css">*{stroke-linejoin: round; stroke-linecap: butt}</style>
 </defs>
 <g id="figure_1">
  <g id="patch_1">
   <path d="M 0 136.396966 
L 577.214687 136.396966 
L 577.214687 0 
L 0 0 
L 0 136.396966 
z
" style="fill: none"/>
  </g>
  <g id="axes_1">
   <g id="patch_2">
    <path d="M 35.304688 101.090464 
L 570.014687 101.090464 
L 570.014687 7.2 
L 35.304688 7.2 
L 35.304688 101.090464 
z
" style="fill: none"/>
   </g>
   <g id="matplotlib.axis_1">
    <g id="xtick_1">
     <g id="line2d_1">
      <defs>
       <path id="m1c9d30275f" d="M 0 0 
L 0 3.5 
" style="stroke: #000000; stroke-width: 0.8"/>
      </defs>
      <g>
       <use xlink:href="#m1c9d30275f" x="74.009829" y="101.090464" style="stroke: #000000; stroke-width: 0.8"/>
      </g>
     </g>
     <g id="text_1">
      <!-- 1992 -->
      <g transform="translate(50.929638 127.395904) rotate(-30) scale(0.1 -0.1)">
       <defs>
        <path id="DejaVuSans-31" d="M 794 531 
L 1825 531 
L 1825 4091 
L 703 3866 
L 703 4441 
L 1819 4666 
L 2450 4666 
L 2450 531 
L 3481 531 
L 3481 0 
L 794 0 
L 794 531 
z
" transform="scale(0.015625)"/>
        <path id="DejaVuSans-39" d="M 703 97 
L 703 672 
Q 941 559 1184 500 
Q 1428 441 1663 441 
Q 2288 441 2617 861 
Q 2947 1281 2994 2138 
Q 2813 1869 2534 1725 
Q 2256 1581 1919 1581 
Q 1219 1581 811 2004 
Q 403 2428 403 3163 
Q 403 3881 828 4315 
Q 1253 4750 1959 4750 
Q 2769 4750 3195 4129 
Q 3622 3509 3622 2328 
Q 3622 1225 3098 567 
Q 2575 -91 1691 -91 
Q 1453 -91 1209 -44 
Q 966 3 703 97 
z
M 1959 2075 
Q 2384 2075 2632 2365 
Q 2881 2656 2881 3163 
Q 2881 3666 2632 3958 
Q 2384 4250 1959 4250 
Q 1534 4250 1286 3958 
Q 1038 3666 1038 3163 
Q 1038 2656 1286 2365 
Q 1534 2075 1959 2075 
z
" transform="scale(0.015625)"/>
        <path id="DejaVuSans-32" d="M 1228 531 
L 3431 531 
L 3431 0 
L 469 0 
L 469 531 
Q 828 903 1448 1529 
Q 2069 2156 2228 2338 
Q 2531 2678 2651 2914 
Q 2772 3150 2772 3378 
Q 2772 3750 2511 3984 
Q 2250 4219 1831 4219 
Q 1534 4219 1204 4116 
Q 875 4013 500 3803 
L 500 4441 
Q 881 4594 1212 4672 
Q 1544 4750 1819 4750 
Q 2544 4750 2975 4387 
Q 3406 4025 3406 3419 
Q 3406 3131 3298 2873 
Q 3191 2616 2906 2266 
Q 2828 2175 2409 1742 
Q 1991 1309 1228 531 
z
" transform="scale(0.015625)"/>
       </defs>
       <use xlink:href="#DejaVuSans-31"/>
       <use xlink:href="#DejaVuSans-39" transform="translate(63.623047 0)"/>
       <use xlink:href="#DejaVuSans-39" transform="translate(127.246094 0)"/>
       <use xlink:href="#DejaVuSans-32" transform="translate(190.869141 0)"/>
      </g>
     </g>
    </g>
    <g id="xtick_2">
     <g id="line2d_2">
      <g>
       <use xlink:href="#m1c9d30275f" x="129.667517" y="101.090464" style="stroke: #000000; stroke-width: 0.8"/>
      </g>
     </g>
     <g id="text_2">
      <!-- 1996 -->
      <g transform="translate(106.587326 127.395904) rotate(-30) scale(0.1 -0.1)">
       <defs>
        <path id="DejaVuSans-36" d="M 2113 2584 
Q 1688 2584 1439 2293 
Q 1191 2003 1191 1497 
Q 1191 994 1439 701 
Q 1688 409 2113 409 
Q 2538 409 2786 701 
Q 3034 994 3034 1497 
Q 3034 2003 2786 2293 
Q 2538 2584 2113 2584 
z
M 3366 4563 
L 3366 3988 
Q 3128 4100 2886 4159 
Q 2644 4219 2406 4219 
Q 1781 4219 1451 3797 
Q 1122 3375 1075 2522 
Q 1259 2794 1537 2939 
Q 1816 3084 2150 3084 
Q 2853 3084 3261 2657 
Q 3669 2231 3669 1497 
Q 3669 778 3244 343 
Q 2819 -91 2113 -91 
Q 1303 -91 875 529 
Q 447 1150 447 2328 
Q 447 3434 972 4092 
Q 1497 4750 2381 4750 
Q 2619 4750 2861 4703 
Q 3103 4656 3366 4563 
z
" transform="scale(0.015625)"/>
       </defs>
       <use xlink:href="#DejaVuSans-31"/>
       <use xlink:href="#DejaVuSans-39" transform="translate(63.623047 0)"/>
       <use xlink:href="#DejaVuSans-39" transform="translate(127.246094 0)"/>
       <use xlink:href="#DejaVuSans-36" transform="translate(190.869141 0)"/>
      </g>
     </g>
    </g>
    <g id="xtick_3">
     <g id="line2d_3">
      <g>
       <use xlink:href="#m1c9d30275f" x="185.325205" y="101.090464" style="stroke: #000000; stroke-width: 0.8"/>
      </g>
     </g>
     <g id="text_3">
      <!-- 2000 -->
      <g transform="translate(162.245014 127.395904) rotate(-30) scale(0.1 -0.1)">
       <defs>
        <path id="DejaVuSans-30" d="M 2034 4250 
Q 1547 4250 1301 3770 
Q 1056 3291 1056 2328 
Q 1056 1369 1301 889 
Q 1547 409 2034 409 
Q 2525 409 2770 889 
Q 3016 1369 3016 2328 
Q 3016 3291 2770 3770 
Q 2525 4250 2034 4250 
z
M 2034 4750 
Q 2819 4750 3233 4129 
Q 3647 3509 3647 2328 
Q 3647 1150 3233 529 
Q 2819 -91 2034 -91 
Q 1250 -91 836 529 
Q 422 1150 422 2328 
Q 422 3509 836 4129 
Q 1250 4750 2034 4750 
z
" transform="scale(0.015625)"/>
       </defs>
       <use xlink:href="#DejaVuSans-32"/>
       <use xlink:href="#DejaVuSans-30" transform="translate(63.623047 0)"/>
       <use xlink:href="#DejaVuSans-30" transform="translate(127.246094 0)"/>
       <use xlink:href="#DejaVuSans-30" transform="translate(190.869141 0)"/>
      </g>
     </g>
    </g>
    <g id="xtick_4">
     <g id="line2d_4">
      <g>
       <use xlink:href="#m1c9d30275f" x="240.982893" y="101.090464" style="stroke: #000000; stroke-width: 0.8"/>
      </g>
     </g>
     <g id="text_4">
      <!-- 2004 -->
      <g transform="translate(217.902703 127.395904) rotate(-30) scale(0.1 -0.1)">
       <defs>
        <path id="DejaVuSans-34" d="M 2419 4116 
L 825 1625 
L 2419 1625 
L 2419 4116 
z
M 2253 4666 
L 3047 4666 
L 3047 1625 
L 3713 1625 
L 3713 1100 
L 3047 1100 
L 3047 0 
L 2419 0 
L 2419 1100 
L 313 1100 
L 313 1709 
L 2253 4666 
z
" transform="scale(0.015625)"/>
       </defs>
       <use xlink:href="#DejaVuSans-32"/>
       <use xlink:href="#DejaVuSans-30" transform="translate(63.623047 0)"/>
       <use xlink:href="#DejaVuSans-30" transform="translate(127.246094 0)"/>
       <use xlink:href="#DejaVuSans-34" transform="translate(190.869141 0)"/>
      </g>
     </g>
    </g>
    <g id="xtick_5">
     <g id="line2d_5">
      <g>
       <use xlink:href="#m1c9d30275f" x="296.640581" y="101.090464" style="stroke: #000000; stroke-width: 0.8"/>
      </g>
     </g>
     <g id="text_5">
      <!-- 2008 -->
      <g transform="translate(273.560391 127.395904) rotate(-30) scale(0.1 -0.1)">
       <defs>
        <path id="DejaVuSans-38" d="M 2034 2216 
Q 1584 2216 1326 1975 
Q 1069 1734 1069 1313 
Q 1069 891 1326 650 
Q 1584 409 2034 409 
Q 2484 409 2743 651 
Q 3003 894 3003 1313 
Q 3003 1734 2745 1975 
Q 2488 2216 2034 2216 
z
M 1403 2484 
Q 997 2584 770 2862 
Q 544 3141 544 3541 
Q 544 4100 942 4425 
Q 1341 4750 2034 4750 
Q 2731 4750 3128 4425 
Q 3525 4100 3525 3541 
Q 3525 3141 3298 2862 
Q 3072 2584 2669 2484 
Q 3125 2378 3379 2068 
Q 3634 1759 3634 1313 
Q 3634 634 3220 271 
Q 2806 -91 2034 -91 
Q 1263 -91 848 271 
Q 434 634 434 1313 
Q 434 1759 690 2068 
Q 947 2378 1403 2484 
z
M 1172 3481 
Q 1172 3119 1398 2916 
Q 1625 2713 2034 2713 
Q 2441 2713 2670 2916 
Q 2900 3119 2900 3481 
Q 2900 3844 2670 4047 
Q 2441 4250 2034 4250 
Q 1625 4250 1398 4047 
Q 1172 3844 1172 3481 
z
" transform="scale(0.015625)"/>
       </defs>
       <use xlink:href="#DejaVuSans-32"/>
       <use xlink:href="#DejaVuSans-30" transform="translate(63.623047 0)"/>
       <use xlink:href="#DejaVuSans-30" transform="translate(127.246094 0)"/>
       <use xlink:href="#DejaVuSans-38" transform="translate(190.869141 0)"/>
      </g>
     </g>
    </g>
    <g id="xtick_6">
     <g id="line2d_6">
      <g>
       <use xlink:href="#m1c9d30275f" x="352.298269" y="101.090464" style="stroke: #000000; stroke-width: 0.8"/>
      </g>
     </g>
     <g id="text_6">
      <!-- 2012 -->
      <g transform="translate(329.218079 127.395904) rotate(-30) scale(0.1 -0.1)">
       <use xlink:href="#DejaVuSans-32"/>
       <use xlink:href="#DejaVuSans-30" transform="translate(63.623047 0)"/>
       <use xlink:href="#DejaVuSans-31" transform="translate(127.246094 0)"/>
       <use xlink:href="#DejaVuSans-32" transform="translate(190.869141 0)"/>
      </g>
     </g>
    </g>
    <g id="xtick_7">
     <g id="line2d_7">
      <g>
       <use xlink:href="#m1c9d30275f" x="407.955957" y="101.090464" style="stroke: #000000; stroke-width: 0.8"/>
      </g>
     </g>
     <g id="text_7">
      <!-- 2016 -->
      <g transform="translate(384.875767 127.395904) rotate(-30) scale(0.1 -0.1)">
       <use xlink:href="#DejaVuSans-32"/>
       <use xlink:href="#DejaVuSans-30" transform="translate(63.623047 0)"/>
       <use xlink:href="#DejaVuSans-31" transform="translate(127.246094 0)"/>
       <use xlink:href="#DejaVuSans-36" transform="translate(190.869141 0)"/>
      </g>
     </g>
    </g>
    <g id="xtick_8">
     <g id="line2d_8">
      <g>
       <use xlink:href="#m1c9d30275f" x="463.613645" y="101.090464" style="stroke: #000000; stroke-width: 0.8"/>
      </g>
     </g>
     <g id="text_8">
      <!-- 2020 -->
      <g transform="translate(440.533455 127.395904) rotate(-30) scale(0.1 -0.1)">
       <use xlink:href="#DejaVuSans-32"/>
       <use xlink:href="#DejaVuSans-30" transform="translate(63.623047 0)"/>
       <use xlink:href="#DejaVuSans-32" transform="translate(127.246094 0)"/>
       <use xlink:href="#DejaVuSans-30" transform="translate(190.869141 0)"/>
      </g>
     </g>
    </g>
    <g id="xtick_9">
     <g id="line2d_9">
      <g>
       <use xlink:href="#m1c9d30275f" x="519.271333" y="101.090464" style="stroke: #000000; stroke-width: 0.8"/>
      </g>
     </g>
     <g id="text_9">
      <!-- 2024 -->
      <g transform="translate(496.191143 127.395904) rotate(-30) scale(0.1 -0.1)">
       <use xlink:href="#DejaVuSans-32"/>
       <use xlink:href="#DejaVuSans-30" transform="translate(63.623047 0)"/>
       <use xlink:href="#DejaVuSans-32" transform="translate(127.246094 0)"/>
       <use xlink:href="#DejaVuSans-34" transform="translate(190.869141 0)"/>
      </g>
     </g>
    </g>
   </g>
   <g id="matplotlib.axis_2">
    <g id="ytick_1">
     <g id="line2d_10">
      <path d="M 35.304688 80.225916 
L 570.014687 80.225916 
" clip-path="url(#p61a774eb0e)" style="fill: none; stroke-dasharray: 2.96,1.28; stroke-dashoffset: 0; stroke: #dddddd; stroke-width: 0.8"/>
     </g>
     <g id="line2d_11">
      <defs>
       <path id="m9f070acb17" d="M 0 0 
L -3.5 0 
" style="stroke: #000000; stroke-width: 0.8"/>
      </defs>
      <g>
       <use xlink:href="#m9f070acb17" x="35.304688" y="80.225916" style="stroke: #000000; stroke-width: 0.8"/>
      </g>
     </g>
     <g id="text_10">
      <!-- −10 -->
      <g transform="translate(7.2 84.025135) scale(0.1 -0.1)">
       <defs>
        <path id="DejaVuSans-2212" d="M 678 2272 
L 4684 2272 
L 4684 1741 
L 678 1741 
L 678 2272 
z
" transform="scale(0.015625)"/>
       </defs>
       <use xlink:href="#DejaVuSans-2212"/>
       <use xlink:href="#DejaVuSans-31" transform="translate(83.789062 0)"/>
       <use xlink:href="#DejaVuSans-30" transform="translate(147.412109 0)"/>
      </g>
     </g>
    </g>
    <g id="ytick_2">
     <g id="line2d_12">
      <path d="M 35.304688 54.145232 
L 570.014687 54.145232 
" clip-path="url(#p61a774eb0e)" style="fill: none; stroke-dasharray: 2.96,1.28; stroke-dashoffset: 0; stroke: #dddddd; stroke-width: 0.8"/>
     </g>
     <g id="line2d_13">
      <g>
       <use xlink:href="#m9f070acb17" x="35.304688" y="54.145232" style="stroke: #000000; stroke-width: 0.8"/>
      </g>
     </g>
     <g id="text_11">
      <!-- 0 -->
      <g transform="translate(21.942187 57.944451) scale(0.1 -0.1)">
       <use xlink:href="#DejaVuSans-30"/>
      </g>
     </g>
    </g>
    <g id="ytick_3">
     <g id="line2d_14">
      <path d="M 35.304688 28.064548 
L 570.014687 28.064548 
" clip-path="url(#p61a774eb0e)" style="fill: none; stroke-dasharray: 2.96,1.28; stroke-dashoffset: 0; stroke: #dddddd; stroke-width: 0.8"/>
     </g>
     <g id="line2d_15">
      <g>
       <use xlink:href="#m9f070acb17" x="35.304688" y="28.064548" style="stroke: #000000; stroke-width: 0.8"/>
      </g>
     </g>
     <g id="text_12">
      <!-- 10 -->
      <g transform="translate(15.579687 31.863766) scale(0.1 -0.1)">
       <use xlink:href="#DejaVuSans-31"/>
       <use xlink:href="#DejaVuSans-30" transform="translate(63.623047 0)"/>
      </g>
     </g>
    </g>
   </g>
   <g id="line2d_16">
    <path d="M 59.609688 34.360474 
L 59.685879 34.282538 
L 60.066835 34.239067 
L 60.219217 33.975651 
L 60.409695 34.095227 
L 60.485887 34.050657 
L 60.638269 34.089179 
L 60.71446 34.634783 
L 60.752556 34.567492 
L 60.943034 34.532675 
L 61.019225 34.657564 
L 61.171608 34.668015 
L 61.285894 34.814266 
L 61.514468 35.034312 
L 61.552564 34.940959 
L 61.781137 35.178163 
L 62.466858 35.188228 
L 62.504954 35.36971 
L 62.581145 35.34192 
L 62.619241 35.323157 
L 62.88591 35.438693 
L 63.266866 35.441258 
L 63.419249 35.610497 
L 63.533535 35.599576 
L 63.685918 35.752786 
L 64.066874 35.721821 
L 64.676404 35.840234 
L 64.866882 35.808303 
L 65.66689 35.86501 
L 65.819272 35.869292 
L 66.61928 35.956191 
L 66.847854 36.141643 
L 67.800244 35.988604 
L 67.876435 35.784104 
L 67.952626 35.156616 
L 68.219296 35.076918 
L 68.333582 35.101358 
L 68.485965 34.494556 
L 68.600252 34.398102 
L 68.714539 33.16583 
L 68.752634 33.210171 
L 69.019303 33.835369 
L 69.666929 33.747664 
L 69.781216 33.335316 
L 69.819311 33.349544 
L 69.933598 33.289355 
L 70.047885 32.568216 
L 70.085981 32.587768 
L 70.314554 32.419861 
L 70.505032 31.450318 
L 70.733606 31.413921 
L 70.885988 31.010259 
L 71.038371 31.12089 
L 71.114562 30.907693 
L 71.152658 30.919989 
L 71.30504 30.974207 
L 71.381231 30.782941 
L 71.419327 30.846305 
L 71.609805 30.62691 
L 71.647901 30.140356 
L 71.685996 30.144761 
L 71.91457 29.954299 
L 72.066952 29.770086 
L 72.181239 29.85129 
L 72.219335 30.701417 
L 72.333622 30.705746 
L 72.371717 30.912623 
L 72.447909 30.859797 
L 72.600291 30.820422 
L 72.981247 30.753002 
L 73.13363 30.618712 
L 73.400299 30.699574 
L 73.705064 30.952428 
L 73.743159 30.737534 
L 73.819351 30.835984 
L 73.971733 31.037645 
L 74.200307 30.729456 
L 74.238402 30.184628 
L 74.314593 30.26321 
L 74.733645 30.042469 
L 74.809836 30.921106 
L 74.886028 30.711993 
L 75.076506 30.665261 
L 75.114601 30.341747 
L 75.152697 30.356692 
L 75.419366 30.249291 
L 75.571749 30.128323 
L 75.64794 30.371232 
L 75.686035 30.345454 
L 75.800322 30.359046 
L 75.914609 30.681474 
L 75.952705 30.34751 
L 76.105087 30.432724 
L 76.143183 30.678518 
L 76.181278 30.456429 
L 76.371756 30.198638 
L 76.676521 30.46929 
L 76.714617 30.375109 
L 76.752713 30.050044 
L 76.981286 30.11244 
L 77.133669 29.816743 
L 77.247956 29.855375 
L 77.400338 30.116624 
L 77.476529 29.943452 
L 77.514625 30.024233 
L 77.667007 30.113926 
L 77.781294 30.532385 
L 77.81939 30.52026 
L 78.086059 30.657984 
L 78.314633 30.954185 
L 78.505111 30.998482 
L 78.581302 31.250169 
L 78.619398 31.216993 
L 78.809876 30.970879 
L 79.038449 30.897746 
L 79.686075 30.749706 
L 80.143222 30.733102 
L 80.181318 30.286405 
L 80.219413 30.302777 
L 80.371796 30.340061 
L 80.486082 30.540531 
L 80.752752 30.439817 
L 80.981325 30.894537 
L 81.019421 30.858938 
L 81.133708 30.850392 
L 81.247995 31.10111 
L 81.400377 30.994943 
L 81.819429 31.114525 
L 82.276576 31.222681 
L 82.467054 30.374515 
L 83.267062 30.500683 
L 83.343253 30.352285 
L 83.419445 30.382877 
L 83.648018 30.452173 
L 83.686114 30.452822 
L 83.914688 30.824527 
L 84.181357 30.806001 
L 84.219452 31.022355 
L 84.752791 30.825682 
L 85.705181 30.70657 
L 85.819468 29.814382 
L 86.23852 29.985777 
L 86.276615 30.039584 
L 86.352807 29.978633 
L 86.771858 30.171297 
L 86.886145 29.997405 
L 87.000432 30.025088 
L 87.038528 29.889644 
L 87.114719 29.992051 
L 87.533771 29.418339 
L 87.571866 29.456997 
L 87.648057 29.376426 
L 87.838535 29.088455 
L 88.1433 29.117258 
L 88.219492 28.157704 
L 88.333778 27.068768 
L 88.40997 27.291021 
L 88.676639 27.329003 
L 89.019499 27.463172 
L 89.286169 26.915817 
L 89.400456 26.968138 
L 89.514742 26.704033 
L 89.552838 26.72123 
L 89.667125 26.265672 
L 89.781412 27.835437 
L 89.819507 27.837038 
L 90.048081 28.318138 
L 90.086177 28.186294 
L 90.200463 28.105272 
L 90.31475 28.300737 
L 90.352846 28.234618 
L 90.619515 28.01465 
L 90.771898 27.99352 
L 90.848089 27.825346 
L 90.886184 27.919883 
L 91.076662 27.817471 
L 91.114758 27.755557 
L 91.26714 27.104594 
L 91.305236 26.869431 
L 91.381427 26.996054 
L 91.419523 27.937455 
L 91.686192 27.406866 
L 91.800479 27.608292 
L 91.952861 27.435746 
L 92.181435 27.084428 
L 92.219531 27.170042 
L 92.4862 27.600129 
L 92.600487 27.61914 
L 92.752869 27.925078 
L 93.133825 27.89162 
L 93.210017 27.913136 
L 93.286208 28.267124 
L 93.819546 28.227513 
L 93.971929 28.099761 
L 94.010024 27.953395 
L 94.086216 28.014892 
L 94.276694 27.961791 
L 94.314789 27.40819 
L 94.352885 27.609906 
L 94.543363 27.312364 
L 94.581459 27.278124 
L 94.619554 27.050086 
L 94.733841 27.169963 
L 94.886224 26.904125 
L 95.038606 26.866285 
L 95.152893 26.586813 
L 95.381466 26.500462 
L 95.533849 26.691098 
L 95.686231 26.991226 
L 95.800518 26.899056 
L 95.838614 26.953838 
L 96.067187 27.051553 
L 96.410048 27.094014 
L 96.448144 26.839512 
L 96.486239 26.85232 
L 96.600526 27.104072 
L 96.638622 27.006126 
L 97.133865 26.808903 
L 97.400534 26.134597 
L 97.514821 26.440472 
L 97.552916 26.414218 
L 97.705299 26.481005 
L 97.819586 26.020741 
L 97.971968 25.854259 
L 98.010064 26.163868 
L 98.086255 26.078036 
L 98.276733 26.152675 
L 98.314829 26.259255 
L 98.352924 40.138306 
L 98.505307 40.087926 
L 98.581498 40.808852 
L 98.619593 40.802834 
L 98.771976 40.846181 
L 98.848167 40.411151 
L 98.886263 40.435355 
L 99.00055 40.501241 
L 99.038645 40.035756 
L 99.114836 40.39134 
L 99.152932 40.509268 
L 99.267219 40.495226 
L 99.34341 40.644426 
L 99.381506 40.633866 
L 99.419601 40.63727 
L 99.571984 40.924306 
L 99.648175 39.147548 
L 99.686271 39.214324 
L 99.95294 39.855561 
L 100.105322 39.698287 
L 100.219609 39.249425 
L 100.371992 38.452956 
L 100.410087 38.497093 
L 100.486278 38.753195 
L 100.867235 38.844123 
L 100.943426 39.781285 
L 101.019617 39.584654 
L 101.133904 39.504477 
L 101.286286 39.059728 
L 101.667242 39.082003 
L 102.048198 39.824179 
L 102.086294 39.794944 
L 102.238677 39.348303 
L 102.352963 39.745471 
L 102.505346 39.715383 
L 102.619633 40.231126 
L 102.772015 40.060903 
L 102.810111 40.160794 
L 102.848206 40.273005 
L 102.886302 40.2292 
L 103.000589 40.125117 
L 103.038684 40.245124 
L 103.07678 40.131723 
L 103.114876 43.688057 
L 103.152971 41.209541 
L 103.343449 41.103271 
L 103.381545 40.951079 
L 103.41964 41.985316 
L 103.610119 42.004339 
L 103.68631 42.698327 
L 103.800597 42.800613 
L 103.838692 42.574155 
L 103.876788 43.34646 
L 103.952979 42.947349 
L 104.181553 42.901797 
L 104.219648 43.191143 
L 104.410126 43.216048 
L 104.486318 43.004442 
L 104.714891 43.230391 
L 104.867274 43.303371 
L 104.943465 45.29273 
L 104.981561 44.99634 
L 105.133943 44.997905 
L 105.172039 43.672921 
L 105.24823 43.89896 
L 105.286325 43.906877 
L 105.400612 43.091538 
L 105.552995 40.160562 
L 105.743473 40.63368 
L 105.819664 41.146571 
L 105.972046 40.712756 
L 106.010142 41.165147 
L 106.048238 40.186104 
L 106.086333 40.257853 
L 106.353003 39.577639 
L 106.581576 40.012679 
L 106.619672 41.074611 
L 106.733959 40.773667 
L 106.772054 41.020518 
L 106.81015 40.650868 
L 106.848245 40.628298 
L 106.886341 41.46588 
L 107.000628 41.49495 
L 107.076819 40.554806 
L 107.15301 40.676533 
L 107.305393 40.580794 
L 107.343488 40.705709 
L 107.41968 40.989917 
L 107.533966 40.996135 
L 107.572062 41.125893 
L 107.648253 41.084331 
L 107.686349 40.96022 
L 107.800636 40.990324 
L 107.838731 41.40259 
L 107.914923 41.111182 
L 107.953018 41.076509 
L 108.181592 41.76427 
L 108.410166 40.721915 
L 108.753026 38.956238 
L 108.867313 38.959718 
L 109.019695 39.1775 
L 109.210173 39.651758 
L 109.286365 39.389389 
L 109.553034 39.438026 
L 109.781608 39.459691 
L 109.93399 38.74746 
L 109.972086 38.770873 
L 110.010181 39.148311 
L 110.086372 39.044616 
L 110.238755 39.021139 
L 110.276851 38.919115 
L 110.314946 39.164486 
L 110.353042 39.035831 
L 110.467329 39.036114 
L 110.619711 38.811381 
L 110.772093 38.689913 
L 110.88638 38.067428 
L 111.000667 38.089121 
L 111.038763 38.307311 
L 111.114954 38.25257 
L 111.305432 38.253733 
L 111.419719 38.433104 
L 111.534006 38.461776 
L 111.572101 38.325022 
L 111.610197 38.68496 
L 111.648293 38.031919 
L 111.686388 37.907194 
L 111.800675 37.919541 
L 111.838771 26.470362 
L 111.914962 26.530904 
L 111.953057 26.566121 
L 112.334014 26.322689 
L 112.410205 26.729361 
L 112.4483 26.571034 
L 112.676874 26.922796 
L 112.867352 26.887905 
L 113.286404 26.25314 
L 113.438786 27.10531 
L 113.476882 26.95282 
L 113.66736 26.837249 
L 113.705456 26.922379 
L 113.781647 26.450795 
L 113.819742 26.479096 
L 114.048316 26.528244 
L 114.200698 26.412251 
L 114.353081 26.562677 
L 114.467368 26.481863 
L 114.61975 26.847292 
L 114.810228 26.799403 
L 114.886419 27.2878 
L 115.038802 27.261011 
L 115.114993 27.543423 
L 115.153089 27.533471 
L 115.381662 27.506138 
L 115.610236 27.4946 
L 115.648332 27.568057 
L 115.686427 27.492615 
L 116.600722 27.494207 
L 116.676913 26.733448 
L 116.715009 26.738078 
L 116.753104 26.711728 
L 117.286443 27.221624 
L 117.515017 26.941392 
L 117.553112 27.059435 
L 118.505503 27.067562 
L 119.038841 24.298737 
L 119.076937 24.368278 
L 119.267415 23.769026 
L 119.30551 23.72608 
L 119.534084 22.470796 
L 119.57218 22.455713 
L 119.686466 22.233253 
L 120.105518 22.138648 
L 120.219805 21.587806 
L 120.448379 21.773386 
L 120.486474 21.168607 
L 120.638857 21.262631 
L 120.676952 21.210217 
L 120.715048 21.143144 
L 120.753144 21.243601 
L 121.248387 21.509596 
L 121.286482 21.345165 
L 121.400769 21.359454 
L 121.438865 21.536895 
L 121.47696 21.361033 
L 121.553151 21.192077 
L 121.667438 21.363337 
L 121.934108 20.006767 
L 122.08649 20.299692 
L 122.467446 20.901839 
L 122.505542 21.080327 
L 122.581733 21.050463 
L 122.734115 21.062184 
L 122.810307 21.086269 
L 122.886498 21.619008 
L 123.000785 21.63083 
L 123.076976 22.288757 
L 123.153167 22.191373 
L 123.267454 22.225195 
L 123.30555 22.569789 
L 123.381741 24.263332 
L 123.419836 24.252641 
L 124.067462 24.891892 
L 124.219844 24.933684 
L 124.86747 25.553859 
L 125.134139 25.113522 
L 125.248426 25.807196 
L 125.286521 25.697439 
L 125.438904 25.652781 
L 125.515095 25.564468 
L 125.553191 25.816582 
L 125.743669 25.810129 
L 125.781764 25.455398 
L 125.81986 25.51707 
L 125.972242 25.612496 
L 126.010338 25.659887 
L 126.086529 26.3629 
L 126.238912 26.701908 
L 126.353198 27.606326 
L 126.581772 28.592352 
L 126.619868 28.559549 
L 126.734155 28.553696 
L 126.77225 29.25306 
L 126.848441 28.8894 
L 127.000824 29.056631 
L 127.267493 29.234191 
L 127.305589 29.31686 
L 127.343684 29.263401 
L 127.419876 29.780443 
L 127.534162 29.843071 
L 127.648449 31.071938 
L 127.686545 31.044461 
L 127.800832 31.12323 
L 127.838927 31.331877 
L 127.877023 31.25212 
L 127.953214 31.060461 
L 128.143692 31.268807 
L 128.219883 31.34987 
L 128.33417 31.09226 
L 128.486553 31.567098 
L 128.715126 31.448956 
L 128.867509 31.726352 
L 129.019891 32.371822 
L 129.134178 32.083316 
L 129.172274 33.080252 
L 129.248465 33.072881 
L 129.705612 33.15571 
L 129.743708 33.479911 
L 129.819899 33.400603 
L 129.934186 33.410794 
L 130.086568 34.155652 
L 130.315142 34.631706 
L 130.581811 35.034252 
L 130.619907 34.989869 
L 130.886576 34.891049 
L 131.000863 35.001202 
L 131.038959 34.956925 
L 131.153245 34.855988 
L 131.572297 34.695993 
L 131.838966 34.50759 
L 132.105636 35.034697 
L 132.143731 34.98616 
L 132.181827 34.979203 
L 132.219923 34.335167 
L 132.372305 34.352611 
L 132.486592 34.603816 
L 132.638974 34.352704 
L 132.715166 34.553136 
L 132.753261 34.515884 
L 132.867548 34.643131 
L 132.905644 34.568278 
L 133.210409 34.444171 
L 133.2866 34.449117 
L 133.553269 34.047126 
L 133.667556 34.041122 
L 133.819938 34.256117 
L 134.200894 34.375484 
L 134.353277 34.245581 
L 134.772329 34.327958 
L 134.84852 34.442892 
L 134.886615 34.233345 
L 135.000902 34.423387 
L 135.077093 34.35436 
L 135.153285 34.295113 
L 135.610432 34.297519 
L 135.877101 34.160126 
L 135.915197 34.232087 
L 135.953293 34.203234 
L 136.372344 34.223342 
L 136.486631 34.021277 
L 136.715205 33.824536 
L 136.905683 32.381649 
L 136.943778 32.411875 
L 136.981874 32.337742 
L 137.01997 32.272236 
L 137.400926 32.441068 
L 137.553308 33.085696 
L 137.97236 33.030031 
L 138.010456 33.071835 
L 138.086647 32.863149 
L 138.353316 32.734054 
L 138.58189 32.768117 
L 138.619985 32.429508 
L 139.381898 32.455769 
L 139.419993 32.595257 
L 139.53428 32.549945 
L 139.648567 32.154937 
L 139.686662 32.184439 
L 139.87714 31.839882 
L 139.953332 31.527945 
L 140.105714 31.355909 
L 140.14381 31.468074 
L 140.181905 31.487127 
L 140.334288 31.294017 
L 140.372383 31.376704 
L 140.448575 31.281636 
L 140.639053 31.234449 
L 140.981913 30.805775 
L 141.020009 30.581702 
L 141.134296 30.57582 
L 141.286678 30.23487 
L 141.400965 30.247796 
L 141.477156 30.401296 
L 141.515252 30.271417 
L 141.781921 30.320742 
L 141.820017 30.093082 
L 142.239068 30.098619 
L 142.353355 29.93229 
L 142.467642 29.959775 
L 142.620024 28.648083 
L 142.734311 28.935812 
L 142.810503 28.677593 
L 142.848598 28.734863 
L 143.000981 29.093782 
L 143.039076 29.060092 
L 143.077172 29.216655 
L 143.115267 29.055671 
L 143.153363 28.947745 
L 143.343841 28.990048 
L 143.420032 28.216779 
L 143.648606 27.416051 
L 143.686702 27.725009 
L 143.87718 27.656455 
L 144.067658 27.333472 
L 144.105753 27.431464 
L 144.181945 27.600073 
L 144.22004 27.558985 
L 144.448614 27.31424 
L 144.486709 27.417707 
L 145.020048 27.8858 
L 145.134335 27.892681 
L 145.17243 27.584244 
L 145.210526 28.012558 
L 145.4391 28.025795 
L 145.477195 27.847421 
L 145.553387 27.984494 
L 145.705769 28.071536 
L 145.743865 27.682265 
L 145.820056 27.926466 
L 146.353394 27.423068 
L 146.505777 27.456976 
L 146.620064 27.704085 
L 146.772446 27.624652 
L 147.00102 28.272272 
L 147.153402 28.099433 
L 147.534358 28.434095 
L 147.572454 28.348618 
L 147.686741 28.360944 
L 147.801028 28.483529 
L 147.839123 28.205774 
L 147.915314 28.294028 
L 148.372462 29.392231 
L 148.486749 29.327154 
L 148.677227 29.393767 
L 148.753418 29.519687 
L 148.867705 29.462681 
L 149.020087 29.648323 
L 149.401043 29.66598 
L 149.553426 29.803386 
L 149.820095 29.86748 
L 150.086764 29.801451 
L 150.239147 29.820854 
L 150.353434 29.671971 
L 150.46772 29.63962 
L 150.620103 28.860819 
L 150.848677 28.324998 
L 150.886772 27.773046 
L 151.039155 27.863266 
L 151.153441 28.097628 
L 151.305824 28.154633 
L 151.420111 27.856273 
L 151.877258 27.930059 
L 152.067736 28.142881 
L 152.182023 27.989518 
L 152.220119 28.127774 
L 152.334405 28.036756 
L 152.372501 28.131728 
L 152.601075 28.419225 
L 152.715361 28.189589 
L 152.753457 28.198137 
L 152.867744 28.191619 
L 152.90584 28.336148 
L 152.943935 28.083789 
L 153.286796 28.052562 
L 153.401082 28.185815 
L 153.515369 28.667811 
L 153.782039 28.523931 
L 153.820134 28.443138 
L 154.353473 28.524689 
L 154.582046 28.585709 
L 154.734429 28.898629 
L 154.886811 29.155757 
L 155.115385 32.136421 
L 155.153481 32.082294 
L 155.267767 32.397107 
L 155.343959 32.356909 
L 155.648724 32.609107 
L 155.915393 33.020454 
L 156.37254 33.028508 
L 156.601114 32.828225 
L 156.753496 33.09605 
L 157.401122 33.209888 
L 157.477313 33.366231 
L 157.782078 33.246498 
L 157.820173 33.597621 
L 158.315416 33.606861 
L 159.001137 33.731898 
L 159.15352 33.631037 
L 159.267807 33.637064 
L 159.382093 33.491756 
L 159.877336 33.531275 
L 159.953528 33.863034 
L 160.410675 33.797573 
L 160.486866 33.572238 
L 160.905918 33.46006 
L 160.982109 33.227343 
L 161.020205 33.245504 
L 161.439256 33.259845 
L 161.820213 32.738106 
L 162.048786 33.043284 
L 162.201169 32.996209 
L 162.848794 33.024137 
L 163.115463 32.962003 
L 164.144045 33.223092 
L 164.220236 33.269126 
L 164.486905 33.251021 
L 164.753575 32.932153 
L 165.210722 32.950589 
L 165.286913 33.155288 
L 165.515487 33.227356 
L 165.705965 33.868125 
L 165.744061 33.776925 
L 165.782156 33.950207 
L 165.820252 33.841118 
L 165.934539 33.775698 
L 165.972634 33.85445 
L 166.277399 34.163581 
L 166.544068 34.217846 
L 166.848833 36.392046 
L 166.886929 36.228923 
L 167.001216 36.227894 
L 167.153598 37.108493 
L 167.57265 37.271252 
L 167.686937 37.595297 
L 167.877415 37.667444 
L 167.953606 37.97053 
L 168.18218 38.247734 
L 168.334562 38.62793 
L 168.410753 38.631412 
L 168.486945 38.022533 
L 168.677423 38.142891 
L 168.753614 38.001392 
L 169.210761 37.937322 
L 169.439335 37.821808 
L 170.048865 37.82604 
L 170.08696 37.777207 
L 170.467916 38.016107 
L 170.506012 37.957312 
L 171.039351 38.028261 
L 171.153637 38.04927 
L 171.267924 38.042479 
L 171.382211 37.827845 
L 171.572689 37.875066 
L 171.64888 37.988233 
L 171.686976 37.960617 
L 171.877454 38.055962 
L 171.953645 38.131733 
L 172.410793 38.063011 
L 172.486984 38.096771 
L 172.677462 38.162236 
L 172.753653 38.250909 
L 172.86794 38.264633 
L 173.020322 38.753288 
L 173.248896 38.784528 
L 173.515565 38.731342 
L 173.706043 38.743008 
L 173.782235 38.786884 
L 173.934617 38.894452 
L 174.467956 38.926492 
L 174.582242 39.128555 
L 174.620338 39.090908 
L 175.001294 39.250421 
L 175.344155 39.208502 
L 175.420346 39.132514 
L 175.801302 39.384532 
L 176.144162 39.360376 
L 176.220354 39.471281 
L 176.753692 39.528149 
L 177.515604 39.866905 
L 177.706082 39.799939 
L 177.820369 39.915296 
L 179.11562 39.943822 
L 179.153716 39.816041 
L 179.420385 39.824674 
L 179.915628 39.834189 
L 179.953724 39.905327 
L 180.106106 39.811833 
L 180.144202 39.67323 
L 180.220393 38.92427 
L 180.448966 38.981021 
L 180.487062 38.690894 
L 180.601349 38.733233 
L 180.715636 38.477556 
L 180.868018 38.647401 
L 181.248974 38.444978 
L 181.28707 38.546092 
L 181.401357 38.522067 
L 181.553739 38.170706 
L 181.668026 38.091536 
L 181.820409 37.429575 
L 181.934695 37.450219 
L 182.087078 37.294313 
L 182.201365 37.209612 
L 182.23946 37.314772 
L 183.115659 37.813188 
L 183.268042 37.785046 
L 183.572807 37.869921 
L 183.648998 37.89221 
L 183.839476 37.74828 
L 184.41091 37.720414 
L 184.487101 37.604063 
L 184.715675 37.674235 
L 184.944249 37.76884 
L 185.172822 37.611236 
L 185.210918 37.695282 
L 185.287109 37.595943 
L 185.401396 37.549853 
L 185.477587 37.898082 
L 185.515683 37.800201 
L 185.553778 37.767559 
L 185.782352 38.430501 
L 185.820448 38.40825 
L 186.087117 38.214752 
L 186.277595 38.275597 
L 186.315691 38.085982 
L 186.353786 38.232301 
L 186.734742 37.764548 
L 186.849029 37.782473 
L 187.077603 37.773595 
L 187.115698 37.741312 
L 187.153794 38.009652 
L 187.53475 37.968711 
L 187.687133 38.216076 
L 188.106184 38.151596 
L 188.14428 37.998808 
L 188.182376 38.429846 
L 188.220471 38.424992 
L 188.48714 38.541902 
L 188.639523 38.561603 
L 188.715714 38.636245 
L 188.75381 38.612498 
L 188.906192 38.770929 
L 189.020479 38.550983 
L 189.249053 38.863275 
L 189.401435 39.835025 
L 189.515722 39.98211 
L 189.553818 39.947126 
L 189.668104 39.87738 
L 189.820487 40.155628 
L 189.934774 40.120359 
L 190.087156 40.296912 
L 190.277634 40.484883 
L 190.468112 40.645622 
L 190.734782 40.861733 
L 190.810973 41.204521 
L 190.887164 41.165263 
L 191.001451 41.148198 
L 191.153833 41.73557 
L 191.87765 41.794951 
L 192.068128 41.885801 
L 193.210996 41.928834 
L 193.401474 42.126293 
L 193.477666 42.095587 
L 193.515761 42.152177 
L 194.087195 42.210887 
L 195.649115 42.416189 
L 195.915785 42.523814 
L 196.068167 42.473723 
L 196.487219 43.096499 
L 196.639601 43.119847 
L 196.715793 43.27691 
L 196.753888 43.259965 
L 196.868175 43.279527 
L 196.982462 43.434418 
L 197.17294 43.38743 
L 197.287227 43.54856 
L 197.5158 43.660469 
L 197.78247 43.739316 
L 197.972948 43.868439 
L 198.201521 43.873776 
L 198.353904 44.249829 
L 198.73486 44.320162 
L 198.887242 44.61881 
L 199.153912 44.543589 
L 199.306294 44.747852 
L 199.420581 45.629138 
L 199.877728 45.735216 
L 199.953919 45.757245 
L 200.449162 45.833311 
L 200.63964 45.843636 
L 201.51584 45.94091 
L 202.087274 46.026638 
L 202.81109 45.94707 
L 202.887282 46.059333 
L 203.039664 46.165883 
L 203.268238 46.185815 
L 203.306333 46.135052 
L 203.344429 46.211752 
L 203.534907 46.325735 
L 203.953959 46.290059 
L 204.220628 46.177681 
L 204.906349 46.024529 
L 205.249209 46.058482 
L 205.782548 46.08945 
L 210.011161 46.0703 
L 210.087352 46.156424 
L 210.506404 46.063095 
L 210.849264 46.04774 
L 211.039742 46.007163 
L 211.649272 45.921187 
L 211.687368 45.741511 
L 212.220706 45.717889 
L 212.601662 45.514599 
L 212.677854 45.506395 
L 212.715949 45.332999 
L 212.754045 44.488641 
L 212.982619 44.388295 
L 213.135001 44.310862 
L 213.66834 44.296577 
L 213.782626 44.264732 
L 213.973104 44.306166 
L 215.877885 43.935174 
L 215.954076 43.895643 
L 216.220745 43.637441 
L 216.335032 43.653534 
L 216.487415 42.955675 
L 216.754084 42.983975 
L 217.020753 42.465905 
L 217.782666 42.39117 
L 217.820761 42.401797 
L 217.973144 42.266484 
L 218.011239 42.669686 
L 218.08743 42.61121 
L 220.220785 42.552375 
L 220.601741 42.519217 
L 220.716028 42.513294 
L 221.287462 43.151642 
L 222.544617 43.628782 
L 222.582713 43.379332 
L 222.620808 43.416472 
L 222.811286 43.337425 
L 223.001764 43.27276 
L 223.154147 43.286678 
L 223.306529 43.124516 
L 223.344625 43.192227 
L 223.535103 43.12807 
L 223.64939 43.068246 
L 223.687485 43.088343 
L 223.877963 43.002836 
L 223.954155 43.208061 
L 224.94464 43.313077 
L 225.287501 43.46724 
L 225.477979 43.45034 
L 225.516075 43.531407 
L 225.55417 43.47906 
L 225.744648 43.463025 
L 226.354178 43.438878 
L 226.735134 43.44754 
L 227.154186 43.492091 
L 227.687524 43.520621 
L 228.94468 43.452891 
L 229.020871 43.405502 
L 230.087548 43.525934 
L 230.354217 43.582944 
L 231.420894 43.528002 
L 231.687564 43.19048 
L 233.478057 43.131741 
L 233.554249 43.015114 
L 233.744727 42.936819 
L 234.087587 42.825147 
L 234.23997 42.813246 
L 234.620926 41.979228 
L 234.773308 41.89748 
L 235.078073 41.503138 
L 235.154264 41.428389 
L 235.382838 41.18484 
L 236.068559 40.727321 
L 236.220941 40.516208 
L 236.449515 40.420775 
L 236.75428 40.207107 
L 237.287619 39.833079 
L 237.401905 39.759186 
L 237.554288 39.183098 
L 238.049531 38.658813 
L 238.087626 38.690816 
L 238.544774 38.462324 
L 238.620965 38.256448 
L 238.735252 38.28434 
L 238.887634 37.974131 
L 239.001921 37.937324 
L 239.154303 37.582365 
L 239.344782 37.495086 
L 239.382877 37.51073 
L 239.420973 37.386834 
L 239.611451 37.446431 
L 239.687642 37.261788 
L 239.87812 37.255605 
L 239.916216 37.13444 
L 239.954311 37.170386 
L 240.144789 37.110786 
L 240.335267 37.201802 
L 240.48765 37.234069 
L 240.868606 36.549794 
L 241.173371 36.512646 
L 241.287658 36.299333 
L 241.44004 36.215092 
L 241.554327 35.780949 
L 241.668614 35.756976 
L 241.820996 35.591217 
L 241.973379 35.63851 
L 242.087666 35.705867 
L 242.544813 35.507312 
L 242.582909 35.357493 
L 242.621004 35.387439 
L 242.887673 35.354083 
L 243.078151 35.359938 
L 243.154343 35.206348 
L 243.26863 35.230153 
L 243.421012 34.270508 
L 243.61149 34.369857 
L 243.649586 33.924125 
L 243.687681 33.999805 
L 243.878159 34.198572 
L 243.954351 34.078639 
L 244.144829 33.992319 
L 244.182924 34.204325 
L 244.22102 34.177723 
L 244.449593 34.045079 
L 244.487689 34.150445 
L 244.678167 34.132951 
L 244.716263 34.139747 
L 244.868645 33.985391 
L 244.906741 34.124573 
L 244.944836 34.009979 
L 245.021028 33.91765 
L 245.135314 33.936069 
L 245.287697 34.164335 
L 245.744844 34.232401 
L 245.78294 33.949452 
L 245.821035 34.126999 
L 246.049609 34.177807 
L 246.087705 33.895851 
L 246.354374 33.954775 
L 246.468661 33.860885 
L 246.506756 34.029342 
L 246.582948 33.902664 
L 246.811521 33.627036 
L 246.887713 33.466054 
L 247.078191 33.647087 
L 247.154382 33.452821 
L 247.421051 33.613424 
L 248.144868 33.089952 
L 248.182963 33.14744 
L 248.221059 33.067376 
L 248.868684 33.127584 
L 248.982971 33.273594 
L 249.135354 33.199903 
L 249.24964 33.226364 
L 249.402023 33.410067 
L 249.782979 33.75056 
L 249.821075 33.681588 
L 250.049648 33.625655 
L 250.354413 33.383175 
L 250.582987 33.283216 
L 250.849656 32.758969 
L 251.116325 32.443623 
L 251.382995 32.397933 
L 251.42109 32.544938 
L 251.573473 32.516996 
L 251.611568 32.407584 
L 251.68776 32.508115 
L 251.954429 32.127669 
L 252.373481 32.212471 
L 252.411576 32.368613 
L 252.487767 32.247083 
L 252.754437 31.959859 
L 252.944915 31.921522 
L 252.98301 31.70332 
L 253.021106 31.756435 
L 253.516349 31.589148 
L 253.706827 31.293132 
L 253.744923 31.378023 
L 253.821114 31.287145 
L 254.20207 31.410052 
L 254.506835 31.454935 
L 254.621122 31.293814 
L 254.887791 31.251607 
L 255.268747 31.598399 
L 255.383034 31.580866 
L 255.535416 31.458933 
L 255.611608 31.551749 
L 255.649703 31.669284 
L 255.687799 31.523875 
L 255.802086 31.603746 
L 255.840181 31.397866 
L 255.916372 31.446443 
L 255.954468 31.416273 
L 256.144946 31.466043 
L 256.183042 31.388749 
L 256.221137 31.480922 
L 256.37352 31.417532 
L 256.487807 31.604699 
L 256.98305 31.544682 
L 257.287814 30.850416 
L 257.554484 30.764491 
L 257.668771 30.429473 
L 257.744962 30.466548 
L 258.202109 30.296123 
L 258.2783 30.623191 
L 258.316396 30.396531 
L 258.54497 30.400408 
L 258.735448 29.859461 
L 258.773543 29.873618 
L 258.88783 30.321304 
L 259.040213 30.133366 
L 259.078308 30.163157 
L 259.154499 30.634522 
L 259.268786 30.695513 
L 259.383073 30.237806 
L 259.421169 30.301293 
L 259.878316 30.249713 
L 259.916412 30.034031 
L 259.954507 30.061975 
L 260.10689 30.143583 
L 260.221177 30.306633 
L 260.678324 29.820614 
L 260.716419 29.688657 
L 260.754515 29.712798 
L 261.287854 29.632312 
L 261.66881 29.439145 
L 261.821192 29.55469 
L 262.087861 29.689803 
L 262.202148 29.763402 
L 262.354531 29.423167 
L 262.468818 29.382655 
L 262.6212 29.581206 
L 263.002156 28.750816 
L 263.040252 28.864743 
L 263.154539 28.576097 
L 263.306921 28.497468 
L 263.535495 28.499551 
L 263.57359 28.691492 
L 263.649782 28.67254 
L 263.954546 28.385067 
L 264.18312 28.485012 
L 264.449789 28.541371 
L 264.602172 28.399769 
L 264.678363 28.474026 
L 264.716459 28.366564 
L 264.754554 28.405327 
L 264.868841 28.436057 
L 264.906937 28.321782 
L 264.983128 28.421497 
L 265.173606 28.175677 
L 265.440275 28.271793 
L 265.554562 28.915245 
L 265.973614 29.186972 
L 266.468857 30.358007 
L 266.506952 30.263005 
L 266.545048 30.375745 
L 266.811717 30.29608 
L 267.078387 30.262812 
L 267.154578 30.354073 
L 267.345056 30.337464 
L 267.421247 30.111124 
L 267.57363 30.238737 
L 267.611725 30.144944 
L 267.649821 30.399071 
L 267.687916 30.375607 
L 268.221255 30.158511 
L 268.373637 30.282254 
L 268.487924 29.790373 
L 268.86888 29.874409 
L 269.021263 30.311044 
L 269.287932 30.093635 
L 269.440314 30.056548 
L 269.47841 29.965326 
L 269.516506 30.085556 
L 269.783175 30.142787 
L 269.935557 29.980658 
L 270.011749 29.910204 
L 270.049844 29.967367 
L 270.202227 29.974839 
L 270.240322 30.196397 
L 270.316514 30.057781 
L 270.468896 30.01271 
L 270.545087 29.817326 
L 270.583183 29.912366 
L 270.849852 29.755283 
L 271.002235 29.653919 
L 271.078426 29.870061 
L 271.154617 29.787565 
L 271.345095 30.054662 
L 271.383191 29.935804 
L 271.535573 29.913607 
L 271.611764 30.108191 
L 271.64986 29.914912 
L 271.687956 29.746392 
L 272.183198 30.000576 
L 272.373677 29.205952 
L 272.411772 29.24215 
L 272.754633 28.5235 
L 272.868919 28.416061 
L 272.983206 28.895885 
L 273.021302 28.731963 
L 273.287971 28.68731 
L 273.55464 28.260741 
L 273.745119 28.21167 
L 273.935597 28.835047 
L 273.973692 28.821892 
L 274.049883 29.112682 
L 274.087979 28.991698 
L 274.278457 28.975957 
L 274.354648 29.289214 
L 274.468935 29.243884 
L 274.735604 30.214331 
L 274.7737 30.191974 
L 275.002274 30.558618 
L 275.078465 30.639037 
L 275.116561 31.174115 
L 275.154656 31.160432 
L 275.345134 31.607749 
L 275.421325 31.514695 
L 275.611803 31.447606 
L 275.687995 32.037557 
L 275.954664 32.05943 
L 276.145142 32.002276 
L 276.221333 32.073826 
L 276.373716 32.058491 
L 276.488003 32.569659 
L 276.754672 32.929731 
L 277.135628 32.85869 
L 277.28801 32.929267 
L 277.402297 32.932286 
L 277.516584 33.154382 
L 277.668966 33.064656 
L 277.821349 33.093802 
L 278.240401 33.058619 
L 278.278496 33.269832 
L 278.354687 33.220718 
L 278.84993 33.289041 
L 279.002313 32.90792 
L 279.307078 32.820033 
L 279.345173 32.948516 
L 279.421365 32.818359 
L 279.573747 32.732948 
L 279.611843 32.463222 
L 279.688034 32.605107 
L 280.06899 32.116065 
L 280.221372 32.186707 
L 280.907093 32.169796 
L 281.135667 31.864864 
L 281.554719 32.173987 
L 281.707101 32.246456 
L 281.821388 32.127954 
L 282.278535 32.180885 
L 282.316631 31.954737 
L 282.354727 31.963863 
L 282.469014 31.964042 
L 282.507109 31.824003 
L 282.5833 31.858321 
L 282.621396 31.880102 
L 283.421404 31.686879 
L 283.649977 31.79551 
L 283.688073 31.632541 
L 284.069029 31.607002 
L 284.183316 31.561187 
L 284.449985 31.646066 
L 284.640463 31.470947 
L 284.678559 31.482993 
L 284.75475 31.229323 
L 284.869037 31.229543 
L 284.907133 31.833203 
L 284.983324 31.793728 
L 285.478567 32.233776 
L 285.554758 32.309376 
L 285.669045 32.133024 
L 285.70714 32.163721 
L 285.821427 32.246147 
L 286.240479 32.195495 
L 286.31667 32.196599 
L 286.354766 31.843488 
L 286.621435 31.878237 
L 287.116678 31.981673 
L 287.154774 31.98596 
L 287.269061 32.135315 
L 287.421443 31.754077 
L 287.611921 31.561523 
L 287.688112 31.761415 
L 287.802399 31.795168 
L 287.954782 31.449109 
L 288.069068 31.465551 
L 288.183355 30.937465 
L 288.221451 30.978245 
L 288.450024 30.678638 
L 288.602407 30.59839 
L 288.640503 30.060253 
L 288.716694 30.190629 
L 288.754789 30.203227 
L 288.869076 29.969908 
L 288.907172 30.019378 
L 288.983363 30.171677 
L 289.021459 30.098443 
L 289.135745 30.110471 
L 289.173841 29.31316 
L 289.250032 29.381645 
L 289.288128 29.442625 
L 289.554797 29.289158 
L 289.669084 29.302387 
L 289.783371 29.059795 
L 289.821466 29.071421 
L 290.278614 27.730642 
L 290.316709 27.746879 
L 290.354805 27.783019 
L 290.469092 27.701686 
L 290.621474 29.060201 
L 290.850048 29.377154 
L 291.00243 29.940208 
L 291.040526 29.977794 
L 291.154813 30.596631 
L 291.2691 30.485396 
L 291.421482 31.122133 
L 291.573865 31.159443 
L 291.688151 31.365559 
L 291.802438 31.242747 
L 291.87863 31.95545 
L 291.954821 31.893007 
L 292.107203 31.941616 
L 292.411968 32.360855 
L 292.488159 32.303069 
L 292.602446 32.319302 
L 292.716733 32.888524 
L 292.754829 32.892 
L 292.983402 32.771 
L 293.021498 32.786942 
L 293.135785 32.956454 
L 293.211976 32.881425 
L 293.288167 32.971809 
L 293.78341 33.079906 
L 293.821506 33.482517 
L 294.050079 33.501593 
L 294.202462 33.589484 
L 294.278653 33.771226 
L 294.316749 34.225012 
L 294.354844 34.220352 
L 294.507227 34.312149 
L 294.621514 34.80838 
L 294.7358 34.95475 
L 294.811992 35.298612 
L 294.850087 35.231039 
L 295.154852 35.323451 
L 295.307235 35.555336 
L 295.383426 35.948648 
L 295.421521 35.939975 
L 295.688191 36.046528 
L 295.802477 36.064297 
L 295.95486 36.488872 
L 296.488198 36.835412 
L 296.716772 36.880795 
L 296.754868 37.124406 
L 296.869155 37.123337 
L 297.021537 37.321958 
L 297.135824 37.366581 
L 297.288206 37.717002 
L 297.440589 37.708258 
L 297.554876 37.909063 
L 297.935832 38.131898 
L 298.050119 38.409574 
L 298.088214 38.39912 
L 298.278692 38.451599 
L 298.316788 38.536166 
L 298.354883 38.281481 
L 299.0787 38.365138 
L 299.154891 38.471901 
L 299.269178 38.495228 
L 299.421561 39.002439 
L 299.535847 39.046182 
L 299.650134 39.650873 
L 299.68823 39.640877 
L 299.954899 39.826746 
L 300.069186 39.822929 
L 300.145377 40.009323 
L 300.183473 39.992769 
L 300.64062 40.061558 
L 300.754907 40.211401 
L 301.288245 40.258342 
L 301.554915 40.318391 
L 301.821584 40.323084 
L 302.545401 40.244668 
L 302.773974 40.435984 
L 303.002548 40.497554 
L 303.345409 40.584912 
L 303.4216 40.643478 
L 303.802556 40.661667 
L 303.916843 40.852277 
L 303.954938 40.812053 
L 304.98352 41.022206 
L 305.135902 41.091854 
L 305.288285 41.032128 
L 305.554954 41.029309 
L 305.93591 41.075432 
L 306.012101 41.06237 
L 306.050197 41.17702 
L 306.088293 41.061055 
L 306.354962 41.220513 
L 306.54544 41.762958 
L 306.735918 42.494772 
L 306.8883 42.484093 
L 307.15497 43.261371 
L 307.269256 43.321858 
L 307.421639 43.944315 
L 307.574021 43.947098 
L 307.688308 44.500594 
L 308.069264 44.756654 
L 308.183551 45.374366 
L 308.374029 45.417988 
L 308.488316 45.593248 
L 308.678794 45.713442 
L 308.754985 45.986217 
L 308.945463 46.078561 
L 309.554993 46.785498 
L 310.27881 47.030808 
L 310.62167 47.042102 
L 311.269296 47.094484 
L 311.421678 47.246364 
L 312.069303 47.347776 
L 312.221686 47.395957 
L 312.755024 47.472885 
L 314.088371 47.883878 
L 314.507423 47.957864 
L 316.145534 48.158128 
L 317.74555 48.166884 
L 320.107477 48.058162 
L 320.374147 47.996841 
L 320.488434 47.901446 
L 320.86939 47.800468 
L 320.945581 47.705166 
L 320.983677 47.740243 
L 321.021772 47.742188 
L 321.288441 47.583306 
L 321.517015 47.501246 
L 321.555111 47.31673 
L 321.82178 47.265572 
L 322.812266 46.687094 
L 322.888457 46.351262 
L 323.078935 46.260054 
L 323.155126 46.178483 
L 323.3837 46.054871 
L 323.421796 45.890463 
L 323.917039 45.812295 
L 324.221803 45.724874 
L 324.450377 45.658017 
L 324.717046 45.600903 
L 324.869429 45.20022 
L 325.250385 44.947916 
L 325.440863 44.96857 
L 325.707532 44.768332 
L 326.050393 44.569796 
L 326.202775 44.396336 
L 326.278966 44.395019 
L 326.355158 44.237593 
L 326.469445 44.23663 
L 326.621827 43.722282 
L 326.736114 43.724474 
L 326.888496 43.440169 
L 327.078974 43.198971 
L 327.155166 42.532877 
L 327.307548 42.456682 
L 327.688504 41.78125 
L 327.802791 41.760874 
L 327.955173 41.105262 
L 328.145651 41.011814 
L 328.221843 40.364941 
L 328.374225 40.332583 
L 328.450416 40.195439 
L 328.488512 40.225287 
L 328.67899 40.149974 
L 328.755181 39.801001 
L 328.907564 39.729297 
L 328.983755 39.509287 
L 329.021851 39.568955 
L 329.136137 39.219659 
L 329.174233 39.34513 
L 329.212329 39.3507 
L 329.250424 39.238066 
L 329.28852 39.307081 
L 329.517093 39.718168 
L 329.669476 39.461096 
L 329.936145 39.623493 
L 329.974241 39.57059 
L 330.012336 39.564041 
L 330.088528 39.812479 
L 330.24091 39.90925 
L 330.317101 39.869274 
L 330.355197 40.079057 
L 330.621866 40.084971 
L 331.307587 40.097133 
L 331.345683 40.119782 
L 331.383778 40.023711 
L 331.421874 40.027615 
L 331.574256 39.824291 
L 331.688543 39.995939 
L 332.145691 40.097538 
L 332.336169 40.210053 
L 332.679029 40.152722 
L 332.75522 39.955211 
L 333.212368 40.08436 
L 333.250463 40.121209 
L 333.288559 40.023887 
L 333.707611 40.096541 
L 333.821898 40.268722 
L 334.088567 40.216411 
L 334.279045 40.168975 
L 334.355236 40.105833 
L 334.469523 40.139021 
L 334.58381 39.955185 
L 334.736192 40.02583 
L 335.002861 39.974323 
L 335.079053 40.047581 
L 335.117148 40.024778 
L 335.421913 39.927231 
L 335.955252 39.436203 
L 337.174311 39.441763 
L 337.288598 39.494543 
L 338.279084 39.382626 
L 338.469562 39.353691 
L 338.736231 39.191413 
L 338.888614 39.107341 
L 339.155283 39.02234 
L 339.383857 38.764202 
L 339.536239 38.842051 
L 339.61243 38.889114 
L 339.650526 38.81353 
L 340.48863 38.871935 
L 340.679108 38.959608 
L 340.869586 39.037674 
L 341.288637 39.181738 
L 341.745785 39.23182 
L 342.279123 39.171143 
L 342.355314 39.054733 
L 342.545793 38.947301 
L 342.888653 37.863411 
L 343.155322 37.669966 
L 343.307705 37.155078 
L 343.383896 37.18124 
L 343.421992 37.218549 
L 343.688661 36.505801 
L 343.802948 36.571792 
L 343.917235 35.9381 
L 343.95533 35.941465 
L 344.069617 35.54588 
L 344.107713 35.573323 
L 344.145808 35.828593 
L 344.221999 35.681017 
L 344.412477 35.743021 
L 344.450573 35.604445 
L 344.488669 35.697181 
L 344.602956 35.571949 
L 344.641051 35.614057 
L 344.679147 35.713402 
L 344.755338 35.235017 
L 344.983912 35.357222 
L 345.022007 34.983919 
L 345.402963 34.930373 
L 345.555346 34.382139 
L 345.822015 34.131769 
L 345.974398 34.274269 
L 346.012493 34.092617 
L 346.241067 34.046212 
L 346.279162 34.267414 
L 346.317258 34.227874 
L 346.355354 33.801672 
L 346.46964 33.82347 
L 346.73631 36.829975 
L 346.850597 38.476496 
L 346.888692 38.474651 
L 347.002979 38.559605 
L 347.041075 38.506178 
L 347.07917 38.453856 
L 347.117266 38.97012 
L 347.155361 38.795668 
L 347.269648 38.775383 
L 347.422031 39.143225 
L 347.6887 39.463515 
L 347.841082 39.46357 
L 347.955369 39.730597 
L 348.374421 39.725807 
L 348.488708 40.030326 
L 348.717282 40.230227 
L 349.022046 40.76202 
L 349.288716 41.023682 
L 349.745863 41.299925 
L 349.822054 41.465945 
L 350.622062 41.860266 
L 350.888731 41.944969 
L 351.42207 42.359754 
L 352.907799 42.491133 
L 353.745902 42.495806 
L 353.822093 42.449645 
L 354.279241 42.367083 
L 355.422109 42.324657 
L 356.71736 42.398756 
L 356.984029 42.372637 
L 357.250698 42.368226 
L 358.203089 42.369914 
L 359.650722 42.468907 
L 360.107869 42.144488 
L 360.222156 41.080485 
L 360.45073 40.742289 
L 360.488825 40.781904 
L 360.755495 40.190799 
L 360.907877 40.093687 
L 361.022164 39.956817 
L 361.250738 39.804583 
L 361.441216 39.484762 
L 361.784076 39.43129 
L 361.936459 38.96613 
L 362.050745 38.89489 
L 362.088841 38.726281 
L 362.203128 38.730492 
L 362.545988 37.427538 
L 362.584084 37.448741 
L 362.774562 37.324901 
L 362.888849 36.926935 
L 363.041231 36.846186 
L 363.536474 35.439443 
L 363.57457 35.487309 
L 363.650761 35.44663 
L 363.688857 34.807763 
L 363.803144 34.792319 
L 363.955526 34.467845 
L 364.146004 34.305647 
L 364.1841 34.382185 
L 364.222195 34.109851 
L 364.374578 34.099794 
L 364.488865 32.578957 
L 364.603151 32.781721 
L 364.755534 32.795192 
L 365.13649 31.95179 
L 365.212681 31.811464 
L 365.288872 31.183319 
L 365.669829 31.071938 
L 365.74602 31.174856 
L 365.784115 30.982516 
L 365.822211 31.02922 
L 366.08888 31.010745 
L 366.203167 31.204863 
L 366.35555 31.575888 
L 366.736506 31.426596 
L 367.041271 31.399556 
L 367.117462 31.234233 
L 367.155557 31.25216 
L 368.222235 31.228532 
L 368.450808 31.408164 
L 368.603191 31.205767 
L 368.755573 31.258253 
L 368.946051 31.189183 
L 369.022242 31.092226 
L 369.517485 30.969518 
L 369.555581 30.70004 
L 369.669868 30.689543 
L 369.82225 30.380239 
L 370.088919 30.42443 
L 370.355589 31.173494 
L 370.507971 31.182045 
L 370.546067 30.950153 
L 370.622258 30.967572 
L 370.850832 31.073153 
L 370.888927 31.139148 
L 371.003214 31.106494 
L 371.117501 30.569217 
L 371.155597 30.575834 
L 371.422266 30.614702 
L 371.688935 30.064659 
L 371.917509 29.491676 
L 371.955604 29.534037 
L 372.107987 29.433028 
L 372.222274 29.560032 
L 372.336561 29.54973 
L 372.374656 29.159054 
L 372.450847 29.191552 
L 372.641325 29.215873 
L 372.679421 28.780587 
L 372.717517 29.406521 
L 372.755612 29.346165 
L 372.984186 29.503904 
L 373.136568 29.428642 
L 373.174664 29.410005 
L 373.288951 29.223763 
L 373.708003 29.102247 
L 373.822289 28.74963 
L 373.974672 28.674758 
L 374.088959 28.419906 
L 374.812775 28.474715 
L 374.888966 28.704985 
L 375.269923 28.870626 
L 375.384209 28.716891 
L 375.422305 28.758605 
L 375.536592 28.757012 
L 375.650879 28.554028 
L 375.688974 28.543023 
L 375.917548 28.715465 
L 376.06993 28.549857 
L 376.108026 28.488786 
L 376.222313 28.740024 
L 376.450887 28.739523 
L 376.603269 28.642724 
L 376.717556 28.764897 
L 376.755651 28.708 
L 376.869938 28.750349 
L 376.984225 29.059182 
L 376.94613 28.644255 
L 377.022321 28.941341 
L 377.174703 28.98795 
L 377.28899 29.212402 
L 377.555659 29.129055 
L 377.708042 28.61192 
L 377.822329 28.660741 
L 378.050902 28.397644 
L 378.203285 28.510189 
L 378.85091 28.619191 
L 379.269962 28.385967 
L 379.308057 28.379839 
L 379.422344 28.550473 
L 379.612822 28.593542 
L 379.8033 27.87247 
L 380.108065 27.812265 
L 380.222352 27.909536 
L 380.489021 27.911226 
L 380.755691 28.192522 
L 380.984264 28.065471 
L 381.136647 28.45507 
L 381.289029 28.754632 
L 381.555698 29.500416 
L 381.97475 28.924286 
L 382.050941 28.996771 
L 382.089037 28.914885 
L 382.469993 28.96072 
L 382.546184 29.157959 
L 382.58428 29.117612 
L 383.003332 29.081283 
L 383.422383 29.202272 
L 383.612861 29.196108 
L 383.650957 28.494235 
L 383.689053 28.536898 
L 383.879531 28.396613 
L 383.955722 28.933376 
L 384.222391 29.014655 
L 384.450965 28.709015 
L 384.489061 28.781022 
L 385.555738 28.512128 
L 386.203363 27.509622 
L 386.355745 26.575698 
L 386.622415 26.506526 
L 387.003371 26.443376 
L 387.155753 26.190857 
L 387.574805 26.345452 
L 387.612901 26.347606 
L 387.803379 26.679212 
L 387.955761 26.559745 
L 388.146239 26.524163 
L 388.22243 27.008711 
L 388.336717 27.019543 
L 388.451004 26.794659 
L 388.4891 26.837841 
L 388.717673 26.739636 
L 388.755769 26.426176 
L 388.908151 26.494487 
L 389.022438 26.405285 
L 389.555777 26.123104 
L 389.784351 25.915855 
L 389.936733 26.055605 
L 390.05102 26.042881 
L 390.089115 25.962168 
L 390.203402 26.090958 
L 390.241498 25.984841 
L 390.279593 25.988322 
L 390.317689 26.198363 
L 390.355785 26.005372 
L 390.470072 25.999802 
L 390.508167 25.470347 
L 390.584358 25.640125 
L 390.622454 25.657303 
L 390.736741 25.522727 
L 390.812932 25.963095 
L 390.889123 26.653946 
L 391.041506 26.86521 
L 391.079601 26.82051 
L 391.155793 26.941943 
L 391.270079 27.071863 
L 391.384366 27.694198 
L 391.422462 27.689847 
L 391.574844 27.661178 
L 391.61294 27.508595 
L 391.651035 27.542105 
L 391.689131 27.686003 
L 391.9558 27.585755 
L 392.755808 27.477596 
L 392.870095 27.317436 
L 392.946286 27.387491 
L 393.17486 27.311773 
L 393.289147 27.686309 
L 393.441529 27.797021 
L 393.555816 28.576303 
L 393.936772 28.471358 
L 393.974868 28.49864 
L 394.012963 28.395439 
L 394.089155 28.260285 
L 394.470111 29.04133 
L 394.508206 28.988118 
L 394.546302 28.625411 
L 394.622493 28.813605 
L 394.73678 28.747583 
L 394.889162 28.170482 
L 395.155832 28.227139 
L 395.34631 28.496691 
L 395.422501 28.645519 
L 395.612979 28.648609 
L 395.68917 28.761755 
L 395.917744 28.699926 
L 395.95584 28.480037 
L 396.412987 28.38131 
L 396.451082 28.344395 
L 396.489178 28.515399 
L 396.603465 28.450002 
L 396.755847 28.663302 
L 396.90823 28.627748 
L 396.946325 28.795328 
L 397.022517 28.753962 
L 397.212995 28.729977 
L 397.289186 28.558281 
L 397.403473 28.617013 
L 397.555855 27.984712 
L 397.822524 27.9192 
L 398.736819 28.06067 
L 398.889202 28.302366 
L 399.879687 28.412486 
L 399.955879 28.490989 
L 400.108261 28.460768 
L 400.222548 28.572843 
L 400.413026 28.59451 
L 400.489217 28.712731 
L 400.755887 28.729919 
L 400.98446 29.081464 
L 401.25113 29.088087 
L 401.441608 29.281536 
L 401.555894 29.295477 
L 401.670181 29.299105 
L 401.746372 28.96125 
L 401.784468 28.983711 
L 402.051137 29.093388 
L 402.470189 29.183473 
L 402.622572 29.23169 
L 402.81305 29.354169 
L 403.117814 32.619688 
L 403.15591 32.593315 
L 403.270197 32.633619 
L 403.422579 33.176875 
L 403.536866 33.177075 
L 403.613057 33.519496 
L 403.689249 33.480549 
L 404.222587 33.426865 
L 404.336874 33.644315 
L 404.451161 33.426531 
L 404.641639 33.777366 
L 404.71783 33.742957 
L 404.870213 33.533078 
L 405.022595 33.461017 
L 405.441647 33.511967 
L 405.555934 33.561838 
L 406.470228 33.876463 
L 406.622611 33.828424 
L 406.813089 33.755083 
L 406.88928 33.934582 
L 407.117854 33.56905 
L 407.155949 33.774659 
L 407.308332 33.827904 
L 407.575001 34.064149 
L 407.917861 33.882508 
L 408.336913 34.266353 
L 408.375009 34.187117 
L 408.489296 34.728749 
L 408.717869 34.580138 
L 408.908347 34.938499 
L 409.708355 35.739707 
L 409.822642 35.891252 
L 410.051216 36.012812 
L 410.203598 35.964409 
L 410.279789 36.126587 
L 410.317885 36.0981 
L 412.18457 36.212226 
L 412.336952 36.144647 
L 414.279829 36.218133 
L 414.35602 36.083499 
L 414.584593 36.13907 
L 414.736976 36.543906 
L 414.889358 36.693539 
L 415.117932 36.717867 
L 415.270314 36.813102 
L 415.384601 36.76526 
L 415.575079 36.71703 
L 416.146514 36.660306 
L 416.375087 36.472232 
L 416.679852 35.047104 
L 416.717948 35.034275 
L 416.87033 34.661139 
L 416.984617 34.612412 
L 417.136999 34.384061 
L 417.441764 34.309144 
L 417.517956 34.198513 
L 417.670338 34.501914 
L 417.746529 34.614989 
L 417.784625 34.309133 
L 417.82272 34.31423 
L 418.241772 33.881764 
L 418.356059 33.969337 
L 418.775111 33.916911 
L 419.156067 33.755217 
L 419.613214 33.700713 
L 419.689405 33.626291 
L 420.184648 33.832795 
L 421.175134 32.852766 
L 421.21323 32.913051 
L 421.441803 32.778052 
L 421.708473 32.037489 
L 421.784664 32.074299 
L 421.937046 31.48508 
L 422.089429 31.189808 
L 422.203716 31.18997 
L 422.356098 30.143142 
L 422.470385 30.111927 
L 422.622767 29.469854 
L 422.737054 29.456902 
L 422.851341 28.719485 
L 422.889437 28.730695 
L 423.003724 28.724578 
L 423.156106 27.906179 
L 423.308488 27.907828 
L 423.422775 27.39522 
L 423.613253 27.312775 
L 423.689445 26.6945 
L 423.879923 26.669392 
L 423.956114 26.279038 
L 424.070401 26.278967 
L 424.108496 25.913443 
L 424.184687 26.184752 
L 424.603739 25.924849 
L 424.67993 26.132351 
L 424.756122 25.950891 
L 424.870409 25.959394 
L 424.908504 26.228356 
L 424.984695 26.071894 
L 425.137078 25.741177 
L 425.213269 25.797901 
L 425.28946 25.497514 
L 425.975181 25.505041 
L 426.203755 25.377976 
L 426.279946 25.423431 
L 426.356137 25.230957 
L 426.50852 25.129841 
L 426.584711 24.876175 
L 426.622807 24.914241 
L 426.813285 24.824874 
L 426.889476 24.600413 
L 427.041858 24.594167 
L 427.156145 25.166129 
L 427.384719 25.056595 
L 427.537101 25.017974 
L 427.613293 24.786811 
L 427.651388 24.876722 
L 427.956153 24.861013 
L 428.07044 24.621108 
L 428.222822 20.969139 
L 428.337109 20.717916 
L 428.375205 20.868955 
L 428.4133 20.916223 
L 428.489492 20.597385 
L 428.603778 20.585033 
L 428.718065 19.993942 
L 428.908543 20.058467 
L 428.946639 20.078628 
L 429.02283 20.298096 
L 429.251404 20.288052 
L 429.479977 20.365611 
L 429.556169 20.221582 
L 429.822838 20.139489 
L 430.279985 19.992374 
L 430.318081 20.348685 
L 430.356177 20.262789 
L 430.508559 20.437021 
L 430.546655 20.367449 
L 430.58475 20.847777 
L 430.622846 20.794704 
L 431.003802 20.814155 
L 431.118089 18.292013 
L 431.156184 18.308951 
L 431.270471 18.100041 
L 431.308567 18.23099 
L 431.384758 18.262996 
L 431.422854 17.951126 
L 431.575236 18.0087 
L 431.880001 17.271105 
L 432.375244 16.565064 
L 432.680009 16.444578 
L 432.908582 16.174812 
L 432.984774 16.082008 
L 433.022869 15.916582 
L 433.175252 16.037698 
L 433.289539 14.001131 
L 433.670495 13.742239 
L 433.70859 13.829517 
L 433.746686 13.674285 
L 433.822877 13.613021 
L 433.937164 13.61234 
L 434.013355 13.571988 
L 434.089546 13.767534 
L 434.203833 13.737052 
L 434.241929 13.845881 
L 434.356216 13.085434 
L 434.470503 13.042133 
L 434.508598 13.405104 
L 434.584789 13.313046 
L 434.737172 13.133514 
L 434.889554 13.228047 
L 435.156224 13.119108 
L 435.27051 13.361007 
L 435.346702 13.277105 
L 435.651466 12.821368 
L 435.918136 13.48213 
L 435.956231 13.363339 
L 436.146709 13.299242 
L 436.184805 13.727615 
L 436.222901 13.435801 
L 436.337187 13.293473 
L 436.413379 13.611798 
L 436.451474 13.26149 
L 436.48957 13.333179 
L 436.603857 13.479729 
L 436.641952 13.447832 
L 436.718144 13.305975 
L 436.756239 13.338183 
L 436.908622 13.608304 
L 436.984813 13.478614 
L 437.289578 21.402075 
L 437.518151 22.096959 
L 437.556247 22.050418 
L 437.784821 21.666177 
L 437.975299 22.531302 
L 438.089586 22.910286 
L 438.470542 22.891412 
L 438.584829 23.037163 
L 438.622924 22.946597 
L 438.813402 23.250473 
L 439.00388 25.253566 
L 439.156263 25.926092 
L 439.422932 27.165969 
L 439.537219 27.169942 
L 439.61341 27.411299 
L 439.651506 27.36043 
L 439.689601 27.312181 
L 439.918175 27.540131 
L 440.184844 27.860619 
L 440.451514 27.935914 
L 440.489609 28.086224 
L 440.641992 27.701744 
L 440.680087 27.746128 
L 440.756278 27.783204 
L 441.403904 27.826524 
L 441.746764 28.130898 
L 441.937242 28.005899 
L 442.089625 27.984471 
L 442.356294 27.919547 
L 442.470581 28.151965 
L 442.546772 28.081817 
L 442.622963 28.100791 
L 442.813441 28.034755 
L 443.003919 28.189498 
L 443.156302 28.287071 
L 443.68964 28.449589 
L 443.803927 28.491048 
L 443.95631 28.270207 
L 444.070597 28.280533 
L 444.222979 27.989142 
L 444.375361 28.038742 
L 444.489648 28.216889 
L 445.137274 28.169568 
L 445.442039 28.238537 
L 446.280142 28.317672 
L 446.356333 28.453892 
L 446.508716 28.47561 
L 446.623003 29.606717 
L 446.737289 29.602237 
L 446.889672 29.990041 
L 447.042054 30.043285 
L 447.156341 31.239482 
L 447.270628 31.286474 
L 447.42301 31.717177 
L 447.575393 31.697803 
L 447.68968 31.977958 
L 447.918253 32.266165 
L 447.956349 32.226474 
L 448.489687 32.958349 
L 448.603974 33.004394 
L 448.756357 33.640441 
L 448.98493 33.662102 
L 449.403982 34.452531 
L 449.442078 34.432503 
L 449.556365 35.350528 
L 449.746843 35.324258 
L 450.013512 35.954213 
L 450.318277 35.952821 
L 450.508755 36.05597 
L 450.889711 35.095181 
L 451.15638 35.06461 
L 451.42305 34.95962 
L 452.070675 34.770947 
L 452.37544 34.634269 
L 452.7183 33.858638 
L 452.756396 34.03622 
L 452.908778 33.975876 
L 453.023065 33.679635 
L 453.251639 33.701948 
L 453.404021 33.63743 
L 453.518308 33.623386 
L 453.670691 33.530834 
L 453.823073 33.456195 
L 454.470698 33.423462 
L 454.584985 33.536786 
L 454.623081 33.532864 
L 454.88975 33.921341 
L 455.080228 33.918741 
L 455.156419 34.015361 
L 455.423089 34.059529 
L 455.537376 34.051425 
L 455.689758 34.305076 
L 455.880236 34.269859 
L 455.956427 34.178984 
L 456.223097 34.225575 
L 457.175487 34.159069 
L 457.556443 34.162329 
L 457.823112 34.23804 
L 458.089782 34.646269 
L 458.242164 34.750079 
L 458.356451 35.103597 
L 458.585024 35.174203 
L 458.737407 35.441941 
L 459.004076 35.513845 
L 459.423128 35.621174 
L 459.956466 35.643589 
L 460.108849 35.29874 
L 460.146945 35.340693 
L 460.223136 35.248586 
L 460.489805 35.313717 
L 460.756474 34.505167 
L 461.023144 34.379459 
L 461.442195 34.032822 
L 461.480291 34.036999 
L 461.670769 33.710928 
L 461.74696 33.676799 
L 461.975534 33.405812 
L 462.051725 33.349786 
L 462.089821 32.833552 
L 462.242203 32.864251 
L 462.318394 32.631738 
L 462.35649 32.646923 
L 462.546968 32.591534 
L 462.585064 32.359592 
L 462.623159 32.409511 
L 462.775542 32.064469 
L 463.423167 28.426212 
L 463.842219 28.392321 
L 463.956506 28.013162 
L 464.108888 28.03301 
L 464.223175 27.906523 
L 464.451749 27.713734 
L 464.604131 28.03236 
L 464.680322 27.978211 
L 464.718418 27.975496 
L 464.908896 28.362542 
L 465.023183 28.47446 
L 465.556521 28.54963 
L 465.746999 30.161482 
L 465.937477 32.383837 
L 466.08986 34.049478 
L 466.508912 43.10349 
L 466.623198 43.559736 
L 466.737485 43.657956 
L 466.889868 44.666779 
L 467.080346 44.815625 
L 467.804162 45.406089 
L 468.413692 45.535534 
L 469.747039 45.863366 
L 469.82323 46.022257 
L 475.613763 46.331423 
L 476.489962 46.411196 
L 479.347133 46.368429 
L 479.575706 46.261742 
L 479.613802 46.244653 
L 479.689993 45.920663 
L 479.80428 45.844118 
L 480.109045 43.960563 
L 480.185236 43.791286 
L 480.223332 42.93607 
L 480.337619 42.880077 
L 480.41381 42.549645 
L 480.490001 42.580764 
L 481.404296 40.974656 
L 481.556678 40.868182 
L 482.280495 40.078848 
L 482.356686 39.45907 
L 482.775738 39.214216 
L 482.890024 39.183762 
L 483.042407 39.093829 
L 483.156694 38.569041 
L 483.270981 38.39111 
L 483.423363 37.005937 
L 483.690032 36.904242 
L 483.88051 36.328604 
L 483.918606 36.349102 
L 484.109084 36.605974 
L 484.337658 36.589517 
L 484.49004 36.169587 
L 484.604327 36.051608 
L 484.642423 36.153382 
L 485.023379 36.297721 
L 485.251952 36.485761 
L 485.290048 36.430217 
L 485.747195 36.499572 
L 486.013865 36.518336 
L 486.090056 36.444646 
L 486.471012 36.605706 
L 486.623394 36.871031 
L 486.890064 36.923343 
L 487.080542 36.935341 
L 487.118637 36.610337 
L 487.156733 36.628435 
L 487.27102 36.473234 
L 487.309115 36.526926 
L 487.347211 36.662095 
L 487.423402 36.548409 
L 487.804358 36.883671 
L 487.842454 36.654232 
L 487.918645 36.782422 
L 488.071028 36.758748 
L 488.413888 36.514494 
L 488.490079 36.267502 
L 488.680557 36.303567 
L 488.718653 36.12676 
L 488.756749 36.213085 
L 488.947227 36.591875 
L 489.023418 34.418736 
L 489.137705 34.484682 
L 489.404374 33.579375 
L 489.44247 33.553133 
L 489.480565 33.642806 
L 489.671043 32.774226 
L 489.747235 32.827674 
L 489.78533 32.455845 
L 489.823426 32.605143 
L 489.975808 32.617471 
L 490.051999 32.228554 
L 490.090095 32.664079 
L 490.204382 32.655772 
L 490.318669 33.109498 
L 490.356764 33.022541 
L 490.73772 33.200906 
L 491.00439 33.195 
L 491.042485 33.371018 
L 491.080581 33.338919 
L 491.309155 32.849856 
L 491.34725 32.870552 
L 491.385346 32.768381 
L 491.804398 32.674892 
L 491.880589 32.767498 
L 491.918684 32.719898 
L 492.071067 32.527579 
L 492.185354 32.338041 
L 492.223449 32.440554 
L 492.375832 32.324171 
L 492.490119 32.182783 
L 492.871075 32.510308 
L 492.90917 32.468802 
L 492.985361 32.682573 
L 493.023457 32.529116 
L 493.213935 31.908171 
L 493.290126 32.03455 
L 493.404413 31.983032 
L 493.442509 31.833062 
L 493.5187 31.961665 
L 493.556796 32.168471 
L 493.671082 32.104022 
L 493.709178 32.174796 
L 493.747274 32.379655 
L 493.823465 32.31642 
L 493.975847 32.327406 
L 494.013943 32.486014 
L 494.090134 32.419871 
L 494.280612 32.542855 
L 494.356803 32.691655 
L 494.547282 32.66788 
L 494.623473 32.730488 
L 494.775855 32.83753 
L 495.08062 33.095518 
L 495.118716 33.026495 
L 495.156811 32.948978 
L 495.613959 33.074098 
L 495.842532 33.682146 
L 495.880628 33.619992 
L 496.071106 34.011468 
L 496.109202 33.891196 
L 496.337775 35.16648 
L 496.452062 35.196098 
L 496.490158 35.42566 
L 496.604445 35.425804 
L 496.680636 35.99748 
L 496.756827 35.9757 
L 496.947305 36.126762 
L 497.137783 36.440872 
L 497.518739 36.648933 
L 497.823504 37.687944 
L 498.052078 37.768687 
L 498.090173 37.969938 
L 498.852086 37.909717 
L 499.118755 38.181115 
L 499.347329 38.316432 
L 499.613998 38.421254 
L 499.842572 38.379358 
L 499.956858 38.504827 
L 500.223528 38.52123 
L 500.756866 38.814254 
L 501.137822 38.849579 
L 501.214014 39.142553 
L 501.252109 39.12153 
L 501.93783 39.547467 
L 502.090213 39.813682 
L 502.318786 39.90008 
L 502.509264 40.118695 
L 502.737838 40.18073 
L 502.89022 40.299502 
L 503.118794 40.396544 
L 503.347368 40.486665 
L 503.423559 40.953198 
L 503.652133 40.863066 
L 503.956898 40.733995 
L 505.975965 40.995886 
L 506.204539 40.961811 
L 507.309311 40.901163 
L 507.423598 40.796611 
L 508.718849 40.933155 
L 509.023614 40.914354 
L 509.40457 40.710779 
L 509.556952 40.459692 
L 509.823622 40.209026 
L 510.0141 40.152905 
L 510.280769 39.92412 
L 510.890299 39.698169 
L 511.042681 39.497642 
L 511.080777 39.150161 
L 511.156968 39.221037 
L 511.385542 38.914341 
L 511.537924 38.916014 
L 511.690307 38.742727 
L 512.414123 38.628903 
L 512.490314 38.470712 
L 512.871271 38.359593 
L 513.023653 38.306035 
L 513.404609 38.24484 
L 513.556992 38.203144 
L 513.709374 38.173286 
L 513.823661 38.082139 
L 514.547477 37.762586 
L 514.623669 37.386697 
L 515.004625 37.130399 
L 515.157007 36.786949 
L 515.347485 36.474118 
L 515.423677 36.286933 
L 515.537963 36.251678 
L 515.690346 36.102616 
L 515.804633 35.975644 
L 515.957015 35.457099 
L 516.147493 35.348143 
L 516.223684 35.205183 
L 516.337971 35.23976 
L 516.376067 35.127159 
L 516.414162 35.223338 
L 516.452258 35.299192 
L 516.490354 35.081911 
L 516.718927 35.120992 
L 516.757023 34.992337 
L 516.947501 33.507829 
L 517.023692 33.740823 
L 517.404648 33.744876 
L 517.442744 34.251716 
L 517.518935 34.11628 
L 517.557031 33.871989 
L 517.709413 33.884449 
L 517.8237 33.595132 
L 518.090369 33.540837 
L 518.357039 33.146657 
L 518.509421 33.028531 
L 518.585612 33.382431 
L 518.623708 33.30694 
L 518.737995 33.146554 
L 518.77609 33.187026 
L 518.852282 33.378557 
L 518.890377 33.28981 
L 519.004664 33.228534 
L 519.157046 32.836861 
L 519.347524 32.88555 
L 519.423716 32.88752 
L 519.842767 32.624871 
L 519.880863 32.663413 
L 519.918959 32.566044 
L 520.109437 32.24523 
L 520.223724 32.151829 
L 520.490393 32.13753 
L 520.718966 32.249561 
L 520.757062 31.994986 
L 520.871349 32.021852 
L 521.023731 32.59428 
L 521.176114 32.577073 
L 522.014217 30.390257 
L 522.052313 30.453997 
L 522.090409 30.440719 
L 522.357078 30.153462 
L 522.50946 30.148069 
L 522.547556 30.393255 
L 522.623747 30.371499 
L 523.042799 30.352613 
L 523.080894 30.67891 
L 523.157086 30.624216 
L 523.271372 30.588997 
L 523.423755 30.06253 
L 523.576137 30.060439 
L 523.690424 29.840558 
L 523.804711 29.900801 
L 523.918998 30.142838 
L 524.07138 29.835075 
L 524.490432 29.860947 
L 524.642814 29.823383 
L 524.68091 29.411468 
L 524.757101 29.621027 
L 524.909484 29.601701 
L 525.023771 29.826766 
L 525.29044 29.81367 
L 525.442822 29.83182 
L 525.557109 29.669887 
L 525.938065 29.585368 
L 526.090448 29.354051 
L 526.585691 29.471376 
L 526.776169 29.689236 
L 526.814264 29.565936 
L 527.004742 29.604629 
L 527.119029 29.557225 
L 527.271412 29.718606 
L 527.385698 29.681466 
L 527.690463 30.482724 
L 528.185706 30.520542 
L 528.338089 30.623448 
L 528.871427 30.798368 
L 529.02381 30.45638 
L 529.252383 30.389007 
L 529.404766 30.312741 
L 529.671435 30.204044 
L 529.785722 29.974242 
L 529.823818 29.993226 
L 530.357156 29.235753 
L 530.471443 29.341393 
L 530.58573 28.709261 
L 530.623825 28.717279 
L 530.776208 28.633106 
L 530.852399 28.535852 
L 530.890495 27.436116 
L 531.042877 27.533308 
L 531.080973 28.131886 
L 531.157164 28.119196 
L 531.271451 28.143995 
L 531.423833 28.401017 
L 531.576216 28.418239 
L 531.614311 28.248772 
L 531.690503 28.341779 
L 531.957172 28.342693 
L 532.338128 27.550664 
L 532.49051 27.470322 
L 532.642893 27.504021 
L 532.719084 28.558033 
L 532.75718 28.439077 
L 533.176231 28.47091 
L 533.442901 28.4275 
L 533.519092 28.357865 
L 533.671474 28.549215 
L 533.70957 28.551413 
L 533.747666 28.687178 
L 533.823857 28.655197 
L 534.090526 28.310384 
L 534.3191 28.287758 
L 534.471482 27.828504 
L 534.585769 27.594291 
L 534.623865 27.604292 
L 535.119108 27.687249 
L 535.157203 27.962662 
L 535.385777 27.964377 
L 535.690542 28.678574 
L 536.185785 29.329787 
L 536.22388 29.283691 
L 536.338167 29.525658 
L 536.414358 29.432991 
L 536.452454 29.443512 
L 536.49055 29.645889 
L 536.681028 29.345441 
L 536.871506 32.797792 
L 536.909601 32.983426 
L 537.023888 35.481634 
L 537.252462 35.538575 
L 537.290557 35.42337 
L 537.709609 35.780216 
L 538.090565 35.876655 
L 538.204852 36.050693 
L 538.281043 35.985792 
L 538.623904 36.039278 
L 538.852477 36.121844 
L 539.842963 36.227231 
L 540.109633 36.263926 
L 540.490589 36.178352 
L 540.719162 36.089087 
L 540.90964 36.003521 
L 541.023927 35.619951 
L 543.385855 35.204053 
L 543.538238 35.23706 
L 543.919194 35.18004 
L 544.071576 35.405769 
L 544.490628 35.44393 
L 544.681106 35.230617 
L 545.519209 35.358864 
L 545.671592 35.450764 
L 545.709687 35.44436 
L 545.709687 35.44436 
" clip-path="url(#p61a774eb0e)" style="fill: none; stroke: #1f77b4; stroke-width: 1.5; stroke-linecap: square"/>
   </g>
   <g id="patch_3">
    <path d="M 35.304688 101.090464 
L 35.304688 7.2 
" style="fill: none"/>
   </g>
   <g id="patch_4">
    <path d="M 570.014687 101.090464 
L 570.014687 7.2 
" style="fill: none"/>
   </g>
   <g id="patch_5">
    <path d="M 35.304688 101.090464 
L 570.014687 101.090464 
" style="fill: none; stroke: #000000; stroke-width: 0.8; stroke-linejoin: miter; stroke-linecap: square"/>
   </g>
   <g id="patch_6">
    <path d="M 35.304688 7.2 
L 570.014687 7.2 
" style="fill: none"/>
   </g>
   <g id="legend_1">
    <g id="patch_7">
     <path d="M 559.014687 20.2 
L 563.014687 20.2 
Q 565.014687 20.2 565.014687 18.2 
L 565.014687 14.2 
Q 565.014687 12.2 563.014687 12.2 
L 559.014687 12.2 
Q 557.014687 12.2 557.014687 14.2 
L 557.014687 18.2 
Q 557.014687 20.2 559.014687 20.2 
L 559.014687 20.2 
z
" style="fill: none; opacity: 0"/>
    </g>
   </g>
  </g>
 </g>
 <defs>
  <clipPath id="p61a774eb0e">
   <rect x="35.304688" y="7.2" width="534.71" height="93.890464"/>
  </clipPath>
 </defs>
</svg>
