<?xml version="1.0" encoding="utf-8" standalone="no"?>
<!DOCTYPE svg PUBLIC "-//W3C//DTD SVG 1.1//EN"
  "http://www.w3.org/Graphics/SVG/1.1/DTD/svg11.dtd">
<svg xmlns:xlink="http://www.w3.org/1999/xlink" width="562.725312pt" height="133.864234pt" viewBox="0 0 562.725312 133.864234" xmlns="http://www.w3.org/2000/svg" version="1.1">
 <metadata>
  <rdf:RDF xmlns:dc="http://purl.org/dc/elements/1.1/" xmlns:cc="http://creativecommons.org/ns#" xmlns:rdf="http://www.w3.org/1999/02/22-rdf-syntax-ns#">
   <cc:Work>
    <dc:type rdf:resource="http://purl.org/dc/dcmitype/StillImage"/>
    <dc:date>2025-12-06T04:29:50.078498</dc:date>
    <dc:format>image/svg+xml</dc:format>
    <dc:creator>
     <cc:Agent>
      <dc:title>Matplotlib v3.10.7, https://matplotlib.org/</dc:title>
     </cc:Agent>
    </dc:creator>
   </cc:Work>
  </rdf:RDF>
 </metadata>
 <defs>
  <style type="text/css">*{stroke-linejoin: round; stroke-linecap: butt}</style>
 </defs>
 <g id="figure_1">
  <g id="patch_1">
   <path d="M 0 133.864234 
L 562.725312 133.864234 
L 562.725312 0 
L 0 0 
L 0 133.864234 
z
" style="fill: none"/>
  </g>
  <g id="axes_1">
   <g id="patch_2">
    <path d="M 44.845313 84.879606 
L 555.525312 84.879606 
L 555.525312 7.2 
L 44.845313 7.2 
L 44.845313 84.879606 
z
" style="fill: none"/>
   </g>
   <g id="matplotlib.axis_1">
    <g id="xtick_1">
     <g id="line2d_1">
      <defs>
       <path id="mf4ab565284" d="M 0 0 
L 0 3.5 
" style="stroke: #000000; stroke-width: 0.8"/>
      </defs>
      <g>
       <use xlink:href="#mf4ab565284" x="81.811035" y="84.879606" style="stroke: #000000; stroke-width: 0.8"/>
      </g>
     </g>
     <g id="text_1">
      <!-- 1992 -->
      <g transform="translate(58.730845 111.185046) rotate(-30) scale(0.1 -0.1)">
       <defs>
        <path id="DejaVuSans-31" d="M 794 531 
L 1825 531 
L 1825 4091 
L 703 3866 
L 703 4441 
L 1819 4666 
L 2450 4666 
L 2450 531 
L 3481 531 
L 3481 0 
L 794 0 
L 794 531 
z
" transform="scale(0.015625)"/>
        <path id="DejaVuSans-39" d="M 703 97 
L 703 672 
Q 941 559 1184 500 
Q 1428 441 1663 441 
Q 2288 441 2617 861 
Q 2947 1281 2994 2138 
Q 2813 1869 2534 1725 
Q 2256 1581 1919 1581 
Q 1219 1581 811 2004 
Q 403 2428 403 3163 
Q 403 3881 828 4315 
Q 1253 4750 1959 4750 
Q 2769 4750 3195 4129 
Q 3622 3509 3622 2328 
Q 3622 1225 3098 567 
Q 2575 -91 1691 -91 
Q 1453 -91 1209 -44 
Q 966 3 703 97 
z
M 1959 2075 
Q 2384 2075 2632 2365 
Q 2881 2656 2881 3163 
Q 2881 3666 2632 3958 
Q 2384 4250 1959 4250 
Q 1534 4250 1286 3958 
Q 1038 3666 1038 3163 
Q 1038 2656 1286 2365 
Q 1534 2075 1959 2075 
z
" transform="scale(0.015625)"/>
        <path id="DejaVuSans-32" d="M 1228 531 
L 3431 531 
L 3431 0 
L 469 0 
L 469 531 
Q 828 903 1448 1529 
Q 2069 2156 2228 2338 
Q 2531 2678 2651 2914 
Q 2772 3150 2772 3378 
Q 2772 3750 2511 3984 
Q 2250 4219 1831 4219 
Q 1534 4219 1204 4116 
Q 875 4013 500 3803 
L 500 4441 
Q 881 4594 1212 4672 
Q 1544 4750 1819 4750 
Q 2544 4750 2975 4387 
Q 3406 4025 3406 3419 
Q 3406 3131 3298 2873 
Q 3191 2616 2906 2266 
Q 2828 2175 2409 1742 
Q 1991 1309 1228 531 
z
" transform="scale(0.015625)"/>
       </defs>
       <use xlink:href="#DejaVuSans-31"/>
       <use xlink:href="#DejaVuSans-39" transform="translate(63.623047 0)"/>
       <use xlink:href="#DejaVuSans-39" transform="translate(127.246094 0)"/>
       <use xlink:href="#DejaVuSans-32" transform="translate(190.869141 0)"/>
      </g>
     </g>
    </g>
    <g id="xtick_2">
     <g id="line2d_2">
      <g>
       <use xlink:href="#mf4ab565284" x="134.967453" y="84.879606" style="stroke: #000000; stroke-width: 0.8"/>
      </g>
     </g>
     <g id="text_2">
      <!-- 1996 -->
      <g transform="translate(111.887262 111.185046) rotate(-30) scale(0.1 -0.1)">
       <defs>
        <path id="DejaVuSans-36" d="M 2113 2584 
Q 1688 2584 1439 2293 
Q 1191 2003 1191 1497 
Q 1191 994 1439 701 
Q 1688 409 2113 409 
Q 2538 409 2786 701 
Q 3034 994 3034 1497 
Q 3034 2003 2786 2293 
Q 2538 2584 2113 2584 
z
M 3366 4563 
L 3366 3988 
Q 3128 4100 2886 4159 
Q 2644 4219 2406 4219 
Q 1781 4219 1451 3797 
Q 1122 3375 1075 2522 
Q 1259 2794 1537 2939 
Q 1816 3084 2150 3084 
Q 2853 3084 3261 2657 
Q 3669 2231 3669 1497 
Q 3669 778 3244 343 
Q 2819 -91 2113 -91 
Q 1303 -91 875 529 
Q 447 1150 447 2328 
Q 447 3434 972 4092 
Q 1497 4750 2381 4750 
Q 2619 4750 2861 4703 
Q 3103 4656 3366 4563 
z
" transform="scale(0.015625)"/>
       </defs>
       <use xlink:href="#DejaVuSans-31"/>
       <use xlink:href="#DejaVuSans-39" transform="translate(63.623047 0)"/>
       <use xlink:href="#DejaVuSans-39" transform="translate(127.246094 0)"/>
       <use xlink:href="#DejaVuSans-36" transform="translate(190.869141 0)"/>
      </g>
     </g>
    </g>
    <g id="xtick_3">
     <g id="line2d_3">
      <g>
       <use xlink:href="#mf4ab565284" x="188.12387" y="84.879606" style="stroke: #000000; stroke-width: 0.8"/>
      </g>
     </g>
     <g id="text_3">
      <!-- 2000 -->
      <g transform="translate(165.04368 111.185046) rotate(-30) scale(0.1 -0.1)">
       <defs>
        <path id="DejaVuSans-30" d="M 2034 4250 
Q 1547 4250 1301 3770 
Q 1056 3291 1056 2328 
Q 1056 1369 1301 889 
Q 1547 409 2034 409 
Q 2525 409 2770 889 
Q 3016 1369 3016 2328 
Q 3016 3291 2770 3770 
Q 2525 4250 2034 4250 
z
M 2034 4750 
Q 2819 4750 3233 4129 
Q 3647 3509 3647 2328 
Q 3647 1150 3233 529 
Q 2819 -91 2034 -91 
Q 1250 -91 836 529 
Q 422 1150 422 2328 
Q 422 3509 836 4129 
Q 1250 4750 2034 4750 
z
" transform="scale(0.015625)"/>
       </defs>
       <use xlink:href="#DejaVuSans-32"/>
       <use xlink:href="#DejaVuSans-30" transform="translate(63.623047 0)"/>
       <use xlink:href="#DejaVuSans-30" transform="translate(127.246094 0)"/>
       <use xlink:href="#DejaVuSans-30" transform="translate(190.869141 0)"/>
      </g>
     </g>
    </g>
    <g id="xtick_4">
     <g id="line2d_4">
      <g>
       <use xlink:href="#mf4ab565284" x="241.280288" y="84.879606" style="stroke: #000000; stroke-width: 0.8"/>
      </g>
     </g>
     <g id="text_4">
      <!-- 2004 -->
      <g transform="translate(218.200098 111.185046) rotate(-30) scale(0.1 -0.1)">
       <defs>
        <path id="DejaVuSans-34" d="M 2419 4116 
L 825 1625 
L 2419 1625 
L 2419 4116 
z
M 2253 4666 
L 3047 4666 
L 3047 1625 
L 3713 1625 
L 3713 1100 
L 3047 1100 
L 3047 0 
L 2419 0 
L 2419 1100 
L 313 1100 
L 313 1709 
L 2253 4666 
z
" transform="scale(0.015625)"/>
       </defs>
       <use xlink:href="#DejaVuSans-32"/>
       <use xlink:href="#DejaVuSans-30" transform="translate(63.623047 0)"/>
       <use xlink:href="#DejaVuSans-30" transform="translate(127.246094 0)"/>
       <use xlink:href="#DejaVuSans-34" transform="translate(190.869141 0)"/>
      </g>
     </g>
    </g>
    <g id="xtick_5">
     <g id="line2d_5">
      <g>
       <use xlink:href="#mf4ab565284" x="294.436706" y="84.879606" style="stroke: #000000; stroke-width: 0.8"/>
      </g>
     </g>
     <g id="text_5">
      <!-- 2008 -->
      <g transform="translate(271.356516 111.185046) rotate(-30) scale(0.1 -0.1)">
       <defs>
        <path id="DejaVuSans-38" d="M 2034 2216 
Q 1584 2216 1326 1975 
Q 1069 1734 1069 1313 
Q 1069 891 1326 650 
Q 1584 409 2034 409 
Q 2484 409 2743 651 
Q 3003 894 3003 1313 
Q 3003 1734 2745 1975 
Q 2488 2216 2034 2216 
z
M 1403 2484 
Q 997 2584 770 2862 
Q 544 3141 544 3541 
Q 544 4100 942 4425 
Q 1341 4750 2034 4750 
Q 2731 4750 3128 4425 
Q 3525 4100 3525 3541 
Q 3525 3141 3298 2862 
Q 3072 2584 2669 2484 
Q 3125 2378 3379 2068 
Q 3634 1759 3634 1313 
Q 3634 634 3220 271 
Q 2806 -91 2034 -91 
Q 1263 -91 848 271 
Q 434 634 434 1313 
Q 434 1759 690 2068 
Q 947 2378 1403 2484 
z
M 1172 3481 
Q 1172 3119 1398 2916 
Q 1625 2713 2034 2713 
Q 2441 2713 2670 2916 
Q 2900 3119 2900 3481 
Q 2900 3844 2670 4047 
Q 2441 4250 2034 4250 
Q 1625 4250 1398 4047 
Q 1172 3844 1172 3481 
z
" transform="scale(0.015625)"/>
       </defs>
       <use xlink:href="#DejaVuSans-32"/>
       <use xlink:href="#DejaVuSans-30" transform="translate(63.623047 0)"/>
       <use xlink:href="#DejaVuSans-30" transform="translate(127.246094 0)"/>
       <use xlink:href="#DejaVuSans-38" transform="translate(190.869141 0)"/>
      </g>
     </g>
    </g>
    <g id="xtick_6">
     <g id="line2d_6">
      <g>
       <use xlink:href="#mf4ab565284" x="347.593124" y="84.879606" style="stroke: #000000; stroke-width: 0.8"/>
      </g>
     </g>
     <g id="text_6">
      <!-- 2012 -->
      <g transform="translate(324.512934 111.185046) rotate(-30) scale(0.1 -0.1)">
       <use xlink:href="#DejaVuSans-32"/>
       <use xlink:href="#DejaVuSans-30" transform="translate(63.623047 0)"/>
       <use xlink:href="#DejaVuSans-31" transform="translate(127.246094 0)"/>
       <use xlink:href="#DejaVuSans-32" transform="translate(190.869141 0)"/>
      </g>
     </g>
    </g>
    <g id="xtick_7">
     <g id="line2d_7">
      <g>
       <use xlink:href="#mf4ab565284" x="400.749542" y="84.879606" style="stroke: #000000; stroke-width: 0.8"/>
      </g>
     </g>
     <g id="text_7">
      <!-- 2016 -->
      <g transform="translate(377.669351 111.185046) rotate(-30) scale(0.1 -0.1)">
       <use xlink:href="#DejaVuSans-32"/>
       <use xlink:href="#DejaVuSans-30" transform="translate(63.623047 0)"/>
       <use xlink:href="#DejaVuSans-31" transform="translate(127.246094 0)"/>
       <use xlink:href="#DejaVuSans-36" transform="translate(190.869141 0)"/>
      </g>
     </g>
    </g>
    <g id="xtick_8">
     <g id="line2d_8">
      <g>
       <use xlink:href="#mf4ab565284" x="453.905959" y="84.879606" style="stroke: #000000; stroke-width: 0.8"/>
      </g>
     </g>
     <g id="text_8">
      <!-- 2020 -->
      <g transform="translate(430.825769 111.185046) rotate(-30) scale(0.1 -0.1)">
       <use xlink:href="#DejaVuSans-32"/>
       <use xlink:href="#DejaVuSans-30" transform="translate(63.623047 0)"/>
       <use xlink:href="#DejaVuSans-32" transform="translate(127.246094 0)"/>
       <use xlink:href="#DejaVuSans-30" transform="translate(190.869141 0)"/>
      </g>
     </g>
    </g>
    <g id="xtick_9">
     <g id="line2d_9">
      <g>
       <use xlink:href="#mf4ab565284" x="507.062377" y="84.879606" style="stroke: #000000; stroke-width: 0.8"/>
      </g>
     </g>
     <g id="text_9">
      <!-- 2024 -->
      <g transform="translate(483.982187 111.185046) rotate(-30) scale(0.1 -0.1)">
       <use xlink:href="#DejaVuSans-32"/>
       <use xlink:href="#DejaVuSans-30" transform="translate(63.623047 0)"/>
       <use xlink:href="#DejaVuSans-32" transform="translate(127.246094 0)"/>
       <use xlink:href="#DejaVuSans-34" transform="translate(190.869141 0)"/>
      </g>
     </g>
    </g>
    <g id="text_10">
     <!-- date -->
     <g transform="translate(288.910313 124.584546) scale(0.1 -0.1)">
      <defs>
       <path id="DejaVuSans-64" d="M 2906 2969 
L 2906 4863 
L 3481 4863 
L 3481 0 
L 2906 0 
L 2906 525 
Q 2725 213 2448 61 
Q 2172 -91 1784 -91 
Q 1150 -91 751 415 
Q 353 922 353 1747 
Q 353 2572 751 3078 
Q 1150 3584 1784 3584 
Q 2172 3584 2448 3432 
Q 2725 3281 2906 2969 
z
M 947 1747 
Q 947 1113 1208 752 
Q 1469 391 1925 391 
Q 2381 391 2643 752 
Q 2906 1113 2906 1747 
Q 2906 2381 2643 2742 
Q 2381 3103 1925 3103 
Q 1469 3103 1208 2742 
Q 947 2381 947 1747 
z
" transform="scale(0.015625)"/>
       <path id="DejaVuSans-61" d="M 2194 1759 
Q 1497 1759 1228 1600 
Q 959 1441 959 1056 
Q 959 750 1161 570 
Q 1363 391 1709 391 
Q 2188 391 2477 730 
Q 2766 1069 2766 1631 
L 2766 1759 
L 2194 1759 
z
M 3341 1997 
L 3341 0 
L 2766 0 
L 2766 531 
Q 2569 213 2275 61 
Q 1981 -91 1556 -91 
Q 1019 -91 701 211 
Q 384 513 384 1019 
Q 384 1609 779 1909 
Q 1175 2209 1959 2209 
L 2766 2209 
L 2766 2266 
Q 2766 2663 2505 2880 
Q 2244 3097 1772 3097 
Q 1472 3097 1187 3025 
Q 903 2953 641 2809 
L 641 3341 
Q 956 3463 1253 3523 
Q 1550 3584 1831 3584 
Q 2591 3584 2966 3190 
Q 3341 2797 3341 1997 
z
" transform="scale(0.015625)"/>
       <path id="DejaVuSans-74" d="M 1172 4494 
L 1172 3500 
L 2356 3500 
L 2356 3053 
L 1172 3053 
L 1172 1153 
Q 1172 725 1289 603 
Q 1406 481 1766 481 
L 2356 481 
L 2356 0 
L 1766 0 
Q 1100 0 847 248 
Q 594 497 594 1153 
L 594 3053 
L 172 3053 
L 172 3500 
L 594 3500 
L 594 4494 
L 1172 4494 
z
" transform="scale(0.015625)"/>
       <path id="DejaVuSans-65" d="M 3597 1894 
L 3597 1613 
L 953 1613 
Q 991 1019 1311 708 
Q 1631 397 2203 397 
Q 2534 397 2845 478 
Q 3156 559 3463 722 
L 3463 178 
Q 3153 47 2828 -22 
Q 2503 -91 2169 -91 
Q 1331 -91 842 396 
Q 353 884 353 1716 
Q 353 2575 817 3079 
Q 1281 3584 2069 3584 
Q 2775 3584 3186 3129 
Q 3597 2675 3597 1894 
z
M 3022 2063 
Q 3016 2534 2758 2815 
Q 2500 3097 2075 3097 
Q 1594 3097 1305 2825 
Q 1016 2553 972 2059 
L 3022 2063 
z
" transform="scale(0.015625)"/>
      </defs>
      <use xlink:href="#DejaVuSans-64"/>
      <use xlink:href="#DejaVuSans-61" transform="translate(63.476562 0)"/>
      <use xlink:href="#DejaVuSans-74" transform="translate(124.755859 0)"/>
      <use xlink:href="#DejaVuSans-65" transform="translate(163.964844 0)"/>
     </g>
    </g>
   </g>
   <g id="matplotlib.axis_2">
    <g id="ytick_1">
     <g id="line2d_10">
      <path d="M 44.845313 71.933005 
L 555.525312 71.933005 
" clip-path="url(#p5cbbb1e37a)" style="fill: none; stroke-dasharray: 2.96,1.28; stroke-dashoffset: 0; stroke: #dddddd; stroke-width: 0.8"/>
     </g>
     <g id="line2d_11">
      <defs>
       <path id="mae95e229ce" d="M 0 0 
L -3.5 0 
" style="stroke: #000000; stroke-width: 0.8"/>
      </defs>
      <g>
       <use xlink:href="#mae95e229ce" x="44.845313" y="71.933005" style="stroke: #000000; stroke-width: 0.8"/>
      </g>
     </g>
     <g id="text_11">
      <!-- −0.01 -->
      <g transform="translate(7.2 75.732224) scale(0.1 -0.1)">
       <defs>
        <path id="DejaVuSans-2212" d="M 678 2272 
L 4684 2272 
L 4684 1741 
L 678 1741 
L 678 2272 
z
" transform="scale(0.015625)"/>
        <path id="DejaVuSans-2e" d="M 684 794 
L 1344 794 
L 1344 0 
L 684 0 
L 684 794 
z
" transform="scale(0.015625)"/>
       </defs>
       <use xlink:href="#DejaVuSans-2212"/>
       <use xlink:href="#DejaVuSans-30" transform="translate(83.789062 0)"/>
       <use xlink:href="#DejaVuSans-2e" transform="translate(147.412109 0)"/>
       <use xlink:href="#DejaVuSans-30" transform="translate(179.199219 0)"/>
       <use xlink:href="#DejaVuSans-31" transform="translate(242.822266 0)"/>
      </g>
     </g>
    </g>
    <g id="ytick_2">
     <g id="line2d_12">
      <path d="M 44.845313 46.039803 
L 555.525312 46.039803 
" clip-path="url(#p5cbbb1e37a)" style="fill: none; stroke-dasharray: 2.96,1.28; stroke-dashoffset: 0; stroke: #dddddd; stroke-width: 0.8"/>
     </g>
     <g id="line2d_13">
      <g>
       <use xlink:href="#mae95e229ce" x="44.845313" y="46.039803" style="stroke: #000000; stroke-width: 0.8"/>
      </g>
     </g>
     <g id="text_12">
      <!-- 0.00 -->
      <g transform="translate(15.579688 49.839022) scale(0.1 -0.1)">
       <use xlink:href="#DejaVuSans-30"/>
       <use xlink:href="#DejaVuSans-2e" transform="translate(63.623047 0)"/>
       <use xlink:href="#DejaVuSans-30" transform="translate(95.410156 0)"/>
       <use xlink:href="#DejaVuSans-30" transform="translate(159.033203 0)"/>
      </g>
     </g>
    </g>
    <g id="ytick_3">
     <g id="line2d_14">
      <path d="M 44.845313 20.146601 
L 555.525312 20.146601 
" clip-path="url(#p5cbbb1e37a)" style="fill: none; stroke-dasharray: 2.96,1.28; stroke-dashoffset: 0; stroke: #dddddd; stroke-width: 0.8"/>
     </g>
     <g id="line2d_15">
      <g>
       <use xlink:href="#mae95e229ce" x="44.845313" y="20.146601" style="stroke: #000000; stroke-width: 0.8"/>
      </g>
     </g>
     <g id="text_13">
      <!-- 0.01 -->
      <g transform="translate(15.579688 23.94582) scale(0.1 -0.1)">
       <use xlink:href="#DejaVuSans-30"/>
       <use xlink:href="#DejaVuSans-2e" transform="translate(63.623047 0)"/>
       <use xlink:href="#DejaVuSans-30" transform="translate(95.410156 0)"/>
       <use xlink:href="#DejaVuSans-31" transform="translate(159.033203 0)"/>
      </g>
     </g>
    </g>
   </g>
   <g id="line2d_16">
    <path d="M 68.05804 42.525253 
L 68.239958 42.538954 
L 68.822095 42.730623 
L 68.894862 42.554929 
L 69.149547 42.625651 
L 69.295082 42.319589 
L 69.331465 42.35665 
L 69.549767 42.521967 
L 69.768068 42.266767 
L 69.840835 42.261029 
L 69.877219 42.003846 
L 69.913603 42.058418 
L 70.168288 41.861215 
L 70.277438 41.872182 
L 70.422973 41.765336 
L 70.532124 41.805305 
L 70.568507 45.64263 
L 70.604891 41.794433 
L 70.641274 41.825192 
L 70.677658 41.847571 
L 70.786809 41.758059 
L 70.823192 41.817138 
L 70.859576 45.746379 
L 70.932343 41.845135 
L 71.041494 41.310483 
L 71.114261 41.345818 
L 71.187028 41.402018 
L 71.368946 45.708915 
L 71.40533 45.485409 
L 71.441713 41.537217 
L 71.550864 41.584316 
L 71.587248 41.739381 
L 71.623631 44.916243 
L 71.660015 41.686592 
L 71.696398 41.696608 
L 71.805549 46.274446 
L 71.841933 44.471025 
L 71.9147 44.644284 
L 72.060234 41.725258 
L 72.314919 41.72562 
L 72.605988 41.899657 
L 72.642371 46.265229 
L 72.715139 41.982228 
L 72.897057 42.055704 
L 72.93344 46.025439 
L 72.969824 42.076943 
L 73.479194 42.146616 
L 73.624728 46.212311 
L 73.661112 42.275049 
L 73.733879 43.789313 
L 73.84303 43.794401 
L 73.879413 46.224921 
L 73.915797 43.736882 
L 73.952181 42.458614 
L 73.988564 43.71876 
L 74.243249 43.607941 
L 75.26199 43.939396 
L 75.443908 43.853295 
L 75.625825 43.888599 
L 75.662209 43.769806 
L 75.698593 43.791372 
L 75.734976 55.975656 
L 75.77136 55.973288 
L 75.880511 43.871193 
L 75.953278 46.050438 
L 76.026045 46.245381 
L 77.772457 46.244635 
L 77.808841 48.873101 
L 77.917991 48.863668 
L 78.20906 48.847706 
L 78.318211 48.876601 
L 78.427362 48.833236 
L 78.463745 46.24521 
L 78.572896 46.25068 
L 78.791197 46.296602 
L 78.827581 48.792798 
L 79.009499 46.290523 
L 79.045882 48.716861 
L 79.082266 48.713179 
L 79.2278 46.276798 
L 79.264184 48.716052 
L 79.336951 48.691162 
L 79.482485 46.269514 
L 79.555253 48.747603 
L 79.591636 48.73915 
L 80.610377 48.612273 
L 80.865062 48.455801 
L 80.974212 48.424816 
L 81.010596 46.259012 
L 81.119747 46.27947 
L 81.228898 46.281637 
L 81.338048 48.577692 
L 81.374432 48.562676 
L 81.483583 48.526668 
L 81.592733 46.037582 
L 81.629117 48.615687 
L 81.738268 46.037986 
L 81.774651 46.316162 
L 81.847419 46.324324 
L 81.883802 45.798616 
L 81.992953 45.8113 
L 82.029336 47.685581 
L 82.06572 56.177396 
L 82.138487 56.15895 
L 82.284022 56.114754 
L 82.393172 46.200131 
L 83.08446 46.216256 
L 83.302762 46.216444 
L 83.339146 48.246212 
L 83.411913 48.230802 
L 84.357886 48.118925 
L 84.539804 48.0742 
L 85.194708 48.027545 
L 85.303859 46.147572 
L 85.449393 47.958061 
L 85.704079 47.908031 
L 85.92238 47.900717 
L 86.067914 48.014092 
L 86.140682 47.96648 
L 86.177065 48.21137 
L 86.213449 48.202592 
L 87.086655 48.195487 
L 87.195806 48.815912 
L 87.232189 48.809353 
L 87.34134 48.79138 
L 87.414107 46.025712 
L 87.450491 46.214352 
L 87.923477 46.214583 
L 87.996244 46.257227 
L 88.250929 46.274622 
L 88.36008 46.028283 
L 88.505615 46.311495 
L 88.86945 46.277073 
L 88.942218 46.027259 
L 89.014985 48.610567 
L 89.960958 48.623233 
L 90.033725 46.266378 
L 90.142876 48.623892 
L 90.252027 48.594797 
L 90.397561 48.587242 
L 90.506712 45.375835 
L 90.543095 45.381424 
L 90.652246 45.384044 
L 90.725013 46.281464 
L 90.79778 46.276681 
L 90.943315 46.273436 
L 90.979698 46.027518 
L 91.052466 48.553906 
L 91.270767 46.229514 
L 91.452685 46.235195 
L 91.561836 45.328553 
L 91.780137 45.81883 
L 91.998439 45.752759 
L 92.071206 46.319502 
L 92.253124 45.757181 
L 92.325891 45.778803 
L 92.544193 45.797928 
L 92.580576 47.895435 
L 92.689727 47.8886 
L 92.72611 47.887662 
L 92.835261 46.033121 
L 92.944412 46.032865 
L 93.017179 48.102226 
L 93.089946 48.064265 
L 94.363372 47.969542 
L 95.891482 47.889512 
L 96.0734 48.187951 
L 96.109784 48.169276 
L 96.873839 48.074885 
L 96.910223 48.209325 
L 97.164908 48.088144 
L 97.419593 48.065297 
L 98.329183 47.933442 
L 98.693018 47.770702 
L 101.85839 47.807817 
L 102.949898 47.744094 
L 103.131816 47.796302 
L 103.968638 47.831532 
L 104.150556 47.803802 
L 104.223323 47.923312 
L 104.29609 47.876611 
L 105.023762 47.799554 
L 105.169297 46.046231 
L 105.496749 46.07997 
L 105.533132 47.840517 
L 105.569516 46.002698 
L 105.751434 47.85859 
L 105.787817 47.849125 
L 105.969735 47.843777 
L 106.078886 51.063819 
L 106.297188 47.794777 
L 106.697407 47.777021 
L 106.988476 47.80203 
L 107.097627 47.822268 
L 107.243161 45.795691 
L 107.315928 47.668092 
L 107.352312 45.780838 
L 107.570613 45.729742 
L 108.334668 45.779651 
L 108.480203 46.089698 
L 108.55297 46.065975 
L 108.625737 41.071779 
L 108.989573 41.140892 
L 109.025957 54.490663 
L 109.135107 54.459721 
L 109.353409 45.663563 
L 109.535327 45.783339 
L 110.262998 45.896648 
L 110.408533 45.90782 
L 110.845136 46.014938 
L 111.318122 46.194781 
L 111.354506 46.265566 
L 111.39089 46.235159 
L 111.536424 46.176868 
L 111.572808 46.246295 
L 111.609191 41.379459 
L 111.681958 41.415132 
L 112.118561 41.454567 
L 112.154945 42.780662 
L 112.191328 42.778804 
L 112.336863 42.68747 
L 112.591548 42.565572 
L 112.700699 42.530443 
L 112.809849 48.510572 
L 112.919 48.492524 
L 112.955384 42.403532 
L 113.064535 42.407246 
L 114.592645 42.503343 
L 114.920097 42.499908 
L 115.211166 42.535518 
L 116.120756 42.568831 
L 116.484591 42.550981 
L 117.139496 42.555849 
L 117.394181 42.503203 
L 117.648866 42.523945 
L 118.19462 42.5868 
L 118.303771 42.591476 
L 118.449305 42.475135 
L 118.485689 42.348003 
L 118.558456 42.375995 
L 119.322511 42.342675 
L 119.504429 44.324993 
L 119.540813 44.312102 
L 119.831881 44.355172 
L 120.814238 44.326791 
L 120.959772 44.257411 
L 121.03254 44.259644 
L 121.068923 46.570028 
L 121.105307 46.563032 
L 121.214458 46.558464 
L 121.359992 44.256543 
L 121.578293 44.288794 
L 121.723828 45.999375 
L 121.760211 42.354861 
L 121.832979 44.201081 
L 121.978513 44.842591 
L 122.888102 44.855901 
L 124.052377 44.939814 
L 124.416213 44.955932 
L 125.107501 44.957737 
L 125.143885 44.301194 
L 125.180268 44.960916 
L 126.41731 45.060037 
L 126.562845 44.369033 
L 127.181366 44.201277 
L 127.217749 44.20937 
L 127.3269 44.381603 
L 127.399667 44.219578 
L 127.472434 44.975906 
L 127.690736 44.992245 
L 127.727119 44.256486 
L 127.83627 44.269018 
L 127.909037 44.299665 
L 127.945421 42.865638 
L 127.981804 42.875128 
L 128.200106 44.27945 
L 128.34564 44.230887 
L 128.491175 44.309506 
L 128.600325 42.844678 
L 128.673092 42.944001 
L 128.891394 42.98745 
L 129.000545 44.347644 
L 129.25523 44.371063 
L 129.364381 44.211488 
L 129.400764 44.340242 
L 129.473531 44.32506 
L 129.619066 43.13732 
L 129.655449 43.141382 
L 129.691833 44.340239 
L 129.7646 43.108883 
L 131.001642 43.172452 
L 131.038026 44.32641 
L 131.147176 44.321252 
L 131.511012 44.323789 
L 131.547396 43.110472 
L 131.729314 46.14066 
L 131.765697 46.116756 
L 131.802081 46.107901 
L 131.911232 46.343045 
L 131.983999 46.251742 
L 132.020382 46.251424 
L 132.056766 48.835363 
L 132.2023 45.591141 
L 132.275067 45.640809 
L 132.820821 45.639606 
L 134.094247 45.68321 
L 134.494466 45.732833 
L 134.712768 45.774012 
L 135.476823 45.792021 
L 135.622357 45.870056 
L 136.750248 45.970042 
L 136.895783 45.898428 
L 137.368769 45.933493 
L 137.514304 45.73056 
L 137.841756 45.637774 
L 138.423893 45.689294 
L 138.678578 45.480484 
L 141.443731 45.470147 
L 141.589265 45.222252 
L 142.389704 45.339938 
L 142.608006 45.402034 
L 143.626746 45.363095 
L 144.427185 45.394872 
L 145.445925 45.384658 
L 145.773377 45.423376 
L 146.173597 45.481306 
L 146.319131 45.503831 
L 147.483406 45.490934 
L 147.592557 45.435184 
L 148.065543 45.380447 
L 148.211078 45.317197 
L 148.356612 45.385437 
L 150.830696 45.476981 
L 150.903463 45.414619 
L 151.303682 45.459198 
L 151.521984 45.516017 
L 151.849436 45.523007 
L 152.431574 45.362222 
L 152.649875 45.4085 
L 152.868177 45.119341 
L 153.195629 45.114255 
L 154.614589 45.106233 
L 154.723739 45.055228 
L 154.978424 44.8719 
L 156.106316 44.88812 
L 156.25185 48.767851 
L 156.906755 48.699172 
L 156.943138 48.812484 
L 157.015905 48.768172 
L 158.798701 48.770879 
L 159.053386 48.962911 
L 159.162537 49.791493 
L 159.235304 49.742638 
L 159.308071 49.749418 
L 160.690647 50.159441 
L 161.236401 50.095885 
L 161.818538 50.321071 
L 161.854922 50.497887 
L 162.000456 50.503819 
L 162.473443 50.738802 
L 164.765609 50.898916 
L 164.801992 50.85698 
L 164.87476 50.93812 
L 165.311363 50.905417 
L 166.439254 50.659349 
L 166.693939 50.69113 
L 167.057775 50.771685 
L 167.203309 50.755473 
L 167.385227 50.779176 
L 167.421611 50.857433 
L 167.457994 50.783465 
L 167.858214 51.079751 
L 168.440351 51.025402 
L 168.84057 51.088858 
L 168.913338 50.997698 
L 168.986105 51.186549 
L 169.204406 51.104204 
L 169.422708 51.478323 
L 169.459091 51.372035 
L 169.604626 51.855464 
L 169.75016 51.674458 
L 169.895694 51.677817 
L 169.968462 51.457173 
L 170.004845 51.465206 
L 170.150379 51.586189 
L 170.25953 51.975867 
L 170.405065 51.962728 
L 170.477832 51.643855 
L 170.514215 51.822023 
L 170.65975 51.760056 
L 170.732517 51.54472 
L 170.7689 51.637839 
L 171.132736 51.575841 
L 171.16912 51.434657 
L 171.241887 51.509128 
L 171.532956 51.343726 
L 171.67849 51.131324 
L 171.714874 51.208128 
L 171.751257 51.460779 
L 171.787641 51.402924 
L 172.005942 51.31787 
L 172.042326 51.579803 
L 172.406162 51.18702 
L 172.551696 51.151198 
L 172.806381 51.2375 
L 172.988299 51.348073 
L 173.024683 51.420844 
L 173.061066 51.385782 
L 173.570436 51.418907 
L 173.679587 51.367525 
L 173.715971 51.606008 
L 173.788738 51.573488 
L 174.079807 51.427204 
L 174.225341 51.43681 
L 174.334492 51.485152 
L 174.589177 51.500439 
L 175.862602 51.212128 
L 176.117287 51.111796 
L 176.371973 50.993805 
L 176.990493 50.880215 
L 177.281562 50.672877 
L 177.354329 50.831466 
L 177.390713 50.820621 
L 178.37307 50.831479 
L 178.518604 50.984067 
L 178.554988 50.965861 
L 178.591371 50.815585 
L 178.627755 50.833255 
L 178.664138 51.181859 
L 178.846056 50.914161 
L 179.027974 50.742106 
L 179.173509 50.89319 
L 179.937564 50.909642 
L 180.083098 51.012153 
L 180.119482 50.858767 
L 180.192249 50.900938 
L 180.592468 50.772801 
L 181.356524 50.591616 
L 182.666333 50.587679 
L 182.7391 50.547686 
L 183.139319 50.540933 
L 184.66743 50.603104 
L 184.776581 50.689223 
L 185.431485 50.751841 
L 185.540636 50.709813 
L 185.904472 50.634986 
L 186.050006 50.577925 
L 186.559376 50.745967 
L 187.578117 50.494544 
L 188.087487 50.357046 
L 188.342172 50.651057 
L 188.596857 50.461763 
L 188.706008 50.455683 
L 188.851542 50.760063 
L 189.106227 50.851516 
L 189.360912 50.342665 
L 189.506447 50.437096 
L 189.54283 50.326604 
L 189.615597 50.376018 
L 190.234118 50.457508 
L 190.306886 50.86685 
L 190.379653 50.72353 
L 190.488804 50.718366 
L 190.597954 50.565121 
L 190.634338 50.577988 
L 190.743489 50.654678 
L 190.779872 50.48484 
L 190.852639 50.598144 
L 190.889023 50.616478 
L 190.998174 50.829528 
L 191.034557 50.770645 
L 191.143708 50.662859 
L 191.289242 50.636029 
L 191.398393 50.223405 
L 191.580311 49.66704 
L 191.653078 49.825869 
L 191.762229 49.926597 
L 191.798613 49.855157 
L 191.907763 49.782342 
L 192.126065 50.109647 
L 192.271599 50.025648 
L 192.417134 49.848928 
L 192.671819 50.180619 
L 192.926504 50.177342 
L 193.581408 50.107252 
L 193.617792 50.237035 
L 193.654175 50.21468 
L 193.79971 49.765082 
L 193.908861 50.184369 
L 194.199929 49.841941 
L 194.381847 49.803435 
L 194.454614 50.028993 
L 194.891217 49.820445 
L 195.436971 49.64004 
L 195.582505 49.790585 
L 195.655273 49.796652 
L 195.72804 49.548012 
L 195.909958 49.528715 
L 195.982725 49.649313 
L 196.23741 49.611212 
L 196.674013 49.551439 
L 196.74678 49.448772 
L 197.25615 49.492038 
L 197.474452 49.61066 
L 197.619986 49.433612 
L 198.020206 49.171299 
L 198.238507 49.100356 
L 198.456809 49.064876 
L 198.529576 48.882682 
L 199.18448 48.738107 
L 199.220864 48.831981 
L 199.293631 48.564388 
L 199.693851 48.607896 
L 199.730234 48.662581 
L 199.803001 48.606429 
L 200.203221 48.566482 
L 200.239604 48.422782 
L 200.275988 48.614248 
L 200.312371 48.732332 
L 200.567057 48.658835 
L 200.930892 48.788478 
L 201.076427 48.876209 
L 201.258345 48.923538 
L 201.331112 49.159577 
L 201.476646 49.163562 
L 201.585797 49.67503 
L 202.204318 49.712765 
L 202.349852 49.931028 
L 202.822839 49.827035 
L 202.859222 49.83757 
L 203.077524 49.726357 
L 204.132648 49.870515 
L 204.314566 50.008286 
L 204.387333 50.22793 
L 204.569251 50.249025 
L 204.605635 50.159177 
L 204.642018 50.306172 
L 205.151388 50.652702 
L 205.333306 50.6569 
L 205.36969 50.711412 
L 205.406073 50.65512 
L 206.170129 50.939666 
L 206.8978 50.915846 
L 207.079718 50.939561 
L 207.589089 50.966247 
L 207.952924 50.734079 
L 208.207609 50.762592 
L 208.462295 50.710453 
L 208.971665 50.83843 
L 210.64531 50.614919 
L 210.863611 50.628839 
L 210.972762 51.229499 
L 211.009146 51.198434 
L 211.191063 51.019178 
L 211.263831 51.297997 
L 211.66405 51.287541 
L 211.736817 51.565281 
L 211.773201 51.557357 
L 211.955119 51.50318 
L 212.027886 51.685416 
L 212.282571 51.744433 
L 212.391722 51.734602 
L 212.537256 51.996355 
L 212.937476 51.872865 
L 212.973859 51.713537 
L 213.046626 51.758039 
L 213.155777 51.751186 
L 213.301311 51.873808 
L 213.519613 51.997255 
L 213.737914 52.019363 
L 213.810682 51.81613 
L 214.210901 51.816167 
L 214.320052 51.797765 
L 214.829422 51.808305 
L 215.775395 51.779943 
L 215.993697 51.84884 
L 216.066464 51.835736 
L 216.102847 51.871431 
L 217.558191 51.700306 
L 218.249479 51.810472 
L 218.613315 51.417404 
L 219.013534 51.405778 
L 219.595672 51.358573 
L 219.668439 51.2571 
L 220.141425 51.172562 
L 220.177809 51.138241 
L 220.432494 51.277327 
L 221.160166 51.173993 
L 221.3057 51.119052 
L 221.342084 51.215709 
L 221.414851 51.094406 
L 222.106139 51.740014 
L 222.142523 52.312845 
L 222.21529 52.246959 
L 222.32444 52.424569 
L 222.397208 50.161244 
L 222.433591 52.152329 
L 222.469975 52.129339 
L 222.579126 52.19772 
L 222.615509 52.391898 
L 222.688276 52.359479 
L 222.833811 52.286349 
L 222.979345 50.582335 
L 223.088496 50.569121 
L 223.124879 52.175733 
L 223.197646 50.654245 
L 223.488715 50.706481 
L 223.707017 50.634305 
L 223.852551 50.581395 
L 223.998085 50.670783 
L 224.180003 50.789783 
L 224.616606 51.322982 
L 224.725757 51.379898 
L 224.871291 51.682019 
L 224.907675 51.619129 
L 224.980442 52.975051 
L 225.016826 52.966497 
L 225.271511 52.941891 
L 225.526196 53.093558 
L 225.926415 52.949529 
L 226.144717 53.184826 
L 226.290251 53.096385 
L 227.054307 52.909983 
L 227.745595 52.685884 
L 228.546034 52.524105 
L 228.800719 52.504285 
L 229.200938 52.615413 
L 229.310089 52.621857 
L 229.455623 52.673461 
L 229.855843 52.663451 
L 231.020117 52.580995 
L 231.129268 52.631506 
L 233.130365 52.266709 
L 233.2759 52.39825 
L 233.530585 52.353535 
L 234.622092 52.179255 
L 234.840394 52.071026 
L 234.949544 52.072401 
L 236.841491 51.773798 
L 236.987025 51.833995 
L 237.678313 51.729772 
L 237.860231 51.568508 
L 238.369601 51.465552 
L 239.497493 51.242961 
L 239.679411 51.23342 
L 239.897712 51.267545 
L 240.443466 51.177913 
L 240.661767 51.085265 
L 241.789658 50.946905 
L 242.444563 50.731067 
L 242.553714 50.76227 
L 242.990317 50.763892 
L 243.208618 50.714556 
L 243.754372 50.776311 
L 243.972674 50.772861 
L 244.118208 50.800657 
L 244.372893 50.759679 
L 244.773112 50.69625 
L 244.882263 50.617745 
L 245.537168 50.702516 
L 245.646318 50.685598 
L 245.86462 50.619603 
L 246.010154 50.903931 
L 246.155689 50.753922 
L 246.264839 50.755147 
L 246.337607 51.938617 
L 246.410374 51.892738 
L 246.665059 52.031415 
L 247.174429 52.090164 
L 248.084019 52.056931 
L 248.375087 52.014692 
L 248.557005 51.968936 
L 248.593389 51.916693 
L 248.629772 52.025581 
L 248.666156 52.005649 
L 248.957225 52.032577 
L 250.085116 51.992347 
L 250.121499 51.973631 
L 250.194267 52.104791 
L 250.23065 52.087096 
L 251.904295 52.037766 
L 252.013446 52.075866 
L 252.195364 52.111018 
L 252.268131 52.131204 
L 252.413665 52.129108 
L 252.522816 52.201914 
L 252.886652 52.25182 
L 253.286871 52.201062 
L 253.650707 52.226287 
L 253.723474 52.322634 
L 253.759858 52.267327 
L 253.905392 52.242984 
L 254.305612 52.225678 
L 255.251585 52.523597 
L 255.579037 52.469822 
L 256.997997 52.671402 
L 257.107148 52.885791 
L 258.089505 52.933361 
L 258.235039 52.994437 
L 258.271423 52.922629 
L 258.34419 52.959569 
L 258.489724 53.043109 
L 258.635258 49.095054 
L 260.38167 49.167971 
L 260.672739 49.128018 
L 262.673836 48.908316 
L 263.110439 48.839973 
L 263.874495 48.912847 
L 263.983645 48.930404 
L 264.747701 49.016379 
L 265.366222 49.102399 
L 265.402605 46.230168 
L 265.438989 49.130949 
L 265.475372 47.283849 
L 265.984743 47.235276 
L 267.658387 47.136078 
L 268.058607 47.131207 
L 268.531593 47.125074 
L 268.567977 49.792849 
L 268.677128 49.788693 
L 268.786279 49.737768 
L 270.459924 49.492217 
L 270.605458 47.127125 
L 271.33313 47.158286 
L 271.369513 48.934631 
L 271.478664 48.927463 
L 271.624198 48.902793 
L 271.8425 47.18534 
L 272.097185 47.168758 
L 272.133568 49.103213 
L 272.242719 49.073631 
L 272.388254 47.146847 
L 272.570171 47.155264 
L 272.606555 48.963918 
L 272.642939 48.952965 
L 272.897624 48.928742 
L 273.006774 47.202082 
L 273.043158 48.942379 
L 273.152309 48.903973 
L 273.77083 48.862362 
L 273.87998 49.026364 
L 274.025515 47.224449 
L 274.061898 49.024656 
L 274.134666 47.223239 
L 274.352967 47.221429 
L 274.389351 49.02147 
L 274.425734 49.001471 
L 274.644036 49.005002 
L 274.78957 46.230033 
L 274.862337 46.228809 
L 274.898721 48.99681 
L 274.935104 48.985832 
L 275.117022 49.06473 
L 275.18979 46.232364 
L 275.335324 46.233562 
L 275.408091 48.962615 
L 275.444475 47.275457 
L 275.553625 48.98436 
L 275.590009 48.957087 
L 275.662776 46.233951 
L 275.69916 47.488147 
L 275.844694 47.497211 
L 275.917461 46.232709 
L 275.953845 48.999538 
L 276.062996 48.986051 
L 276.20853 46.231238 
L 276.463215 46.233651 
L 276.572366 36.838861 
L 276.681517 36.871621 
L 276.899818 36.997929 
L 277.11812 36.950327 
L 277.372805 37.07027 
L 277.409188 42.996137 
L 277.445572 36.969848 
L 277.481955 37.026424 
L 277.62749 37.089704 
L 277.663873 42.908908 
L 277.736641 42.853477 
L 278.900915 43.062812 
L 279.010066 43.167949 
L 280.683711 43.259268 
L 280.902012 43.298931 
L 281.811602 43.127828 
L 283.194178 43.187169 
L 283.339713 42.852476 
L 283.849083 42.747844 
L 285.304426 42.854759 
L 285.559111 42.861912 
L 285.995714 42.922575 
L 286.141249 42.975435 
L 286.35955 42.934789 
L 286.541468 42.967869 
L 286.577852 41.114189 
L 286.650619 41.149437 
L 286.75977 42.995106 
L 286.832537 42.942331 
L 286.905304 42.790115 
L 287.305523 42.655043 
L 287.414674 42.511783 
L 288.324264 42.574324 
L 288.433415 42.573796 
L 288.542565 42.591778 
L 288.6881 42.246033 
L 288.906401 42.11581 
L 289.051935 41.855408 
L 289.161086 41.801486 
L 289.306621 41.96173 
L 289.415771 41.947132 
L 289.597689 42.078554 
L 289.70684 42.153967 
L 289.925142 41.986049 
L 290.361745 42.049412 
L 290.580046 42.139038 
L 290.72558 42.004247 
L 290.943882 42.072645 
L 291.089416 41.965964 
L 291.926239 41.95838 
L 291.999006 41.876231 
L 292.217307 41.974161 
L 292.253691 36.847599 
L 292.435609 42.116407 
L 292.471992 42.059412 
L 292.617527 30.358275 
L 292.690294 35.417009 
L 292.763061 35.117973 
L 292.872212 34.938758 
L 293.017746 34.481898 
L 293.163281 34.266067 
L 293.199664 61.81764 
L 293.272431 61.623792 
L 293.454349 61.63351 
L 293.709034 61.278237 
L 293.927336 61.202227 
L 293.963719 61.169642 
L 294.036487 61.359966 
L 294.400322 61.317163 
L 294.47309 61.348627 
L 294.509473 61.254025 
L 294.545857 61.651044 
L 294.655008 61.604352 
L 294.800542 61.909883 
L 294.946076 61.770941 
L 295.055227 61.385664 
L 295.200761 61.246126 
L 295.309912 60.505353 
L 295.710132 60.293435 
L 295.782899 60.304804 
L 295.964817 60.152804 
L 296.073967 60.544213 
L 296.183118 60.524228 
L 296.328652 60.259848 
L 296.838023 59.944332 
L 297.019941 59.919535 
L 297.056324 59.839651 
L 297.092708 59.868907 
L 297.238242 59.781269 
L 297.347393 59.353935 
L 297.456544 59.999603 
L 297.529311 59.84803 
L 297.602078 59.822987 
L 298.038681 59.622083 
L 298.075065 59.760967 
L 298.111448 60.019732 
L 298.256982 59.933696 
L 298.366133 60.062916 
L 298.802736 60.066294 
L 298.875503 60.241906 
L 299.130189 60.065766 
L 299.312106 60.150743 
L 299.530408 59.936251 
L 299.748709 59.853971 
L 299.785093 60.060699 
L 299.85786 60.012386 
L 300.148929 60.068538 
L 300.840217 60.042452 
L 300.876601 60.191964 
L 300.912984 60.15482 
L 301.27682 60.116361 
L 301.422354 59.587731 
L 301.531505 59.440254 
L 301.567889 59.581957 
L 301.677039 58.993181 
L 301.78619 58.91183 
L 301.822574 58.745705 
L 301.858957 58.987816 
L 301.895341 58.934716 
L 301.931725 59.011164 
L 302.29556 58.794133 
L 302.331944 58.64088 
L 302.404711 58.664239 
L 302.586629 58.712736 
L 302.804931 58.554293 
L 302.950465 58.566506 
L 303.568986 58.607763 
L 303.641753 58.636355 
L 303.823671 58.503695 
L 303.932822 58.507914 
L 304.078356 58.609751 
L 304.151123 58.462726 
L 304.22389 58.333916 
L 304.369425 58.407824 
L 304.442192 58.761851 
L 304.478576 58.737612 
L 304.62411 58.906362 
L 304.660493 58.751367 
L 304.696877 58.597423 
L 304.733261 57.92191 
L 304.842411 58.709603 
L 304.951562 61.392953 
L 304.987946 61.231086 
L 305.097096 61.1636 
L 305.13348 61.289803 
L 305.169864 61.241036 
L 305.242631 60.798029 
L 305.351782 60.598041 
L 305.497316 59.125497 
L 305.679234 59.028307 
L 305.970303 58.947409 
L 306.006686 59.070974 
L 306.370522 58.496721 
L 306.406906 58.702389 
L 306.443289 58.795809 
L 306.516056 58.709684 
L 306.770741 58.49775 
L 306.916276 58.321576 
L 307.025426 57.992805 
L 307.170961 57.888749 
L 307.280112 57.722304 
L 308.226085 57.507772 
L 308.298852 57.628794 
L 308.408003 57.612865 
L 308.517153 43.578795 
L 308.553537 45.672611 
L 308.662688 37.417356 
L 308.699071 45.673594 
L 308.771839 37.469251 
L 308.808222 37.407549 
L 309.062907 37.505369 
L 309.535894 37.561065 
L 309.572277 37.719728 
L 309.936113 37.467773 
L 310.081648 37.560422 
L 310.263566 37.49483 
L 310.299949 37.594988 
L 310.336333 37.562559 
L 310.772936 37.75492 
L 310.809319 37.357217 
L 310.845703 37.380247 
L 311.536991 37.732651 
L 311.609758 37.867886 
L 311.791676 37.858057 
L 311.864443 37.716951 
L 312.264663 37.881333 
L 312.33743 37.554897 
L 312.373813 24.057944 
L 312.482964 24.170707 
L 312.737649 24.388961 
L 313.065102 24.492371 
L 313.137869 24.596369 
L 313.319787 24.39692 
L 313.647239 24.607172 
L 313.829157 24.679355 
L 314.338527 24.86076 
L 314.374911 24.770616 
L 314.411294 24.79985 
L 314.629596 24.835736 
L 314.811514 24.928436 
L 314.884281 24.838577 
L 314.920664 24.87276 
L 315.357267 24.973353 
L 315.575569 25.086101 
L 315.611953 25.003507 
L 315.68472 25.099398 
L 317.21283 25.563849 
L 318.377105 26.00623 
L 318.63179 26.161494 
L 318.740941 26.05515 
L 319.977983 26.368106 
L 320.123517 26.519657 
L 320.232668 26.609839 
L 320.523737 26.762773 
L 320.96034 26.928832 
L 320.996723 26.945572 
L 321.142257 26.810178 
L 321.178641 26.854151 
L 321.396943 26.951942 
L 322.233765 27.234876 
L 322.270149 27.142363 
L 322.306532 27.182724 
L 325.581055 28.031474 
L 325.726589 27.832174 
L 325.762973 27.87766 
L 325.872124 27.878943 
L 326.054041 27.937118 
L 326.090425 27.714424 
L 326.126809 27.75903 
L 326.490645 27.738942 
L 326.636179 27.117515 
L 326.818097 27.277369 
L 326.85448 27.042943 
L 326.890864 27.055686 
L 327.2547 27.148932 
L 327.363851 27.083894 
L 327.509385 27.166332 
L 327.545768 27.062443 
L 327.618536 27.115202 
L 327.800454 27.26542 
L 327.836837 27.211691 
L 328.018755 27.274314 
L 328.164289 27.392044 
L 328.928345 27.688134 
L 329.837934 27.859925 
L 329.874318 27.730633 
L 329.947085 27.771204 
L 330.383688 27.985231 
L 330.71114 28.113054 
L 331.366045 28.185709 
L 331.475196 28.214032 
L 332.894155 28.523859 
L 333.003306 28.538804 
L 334.240348 28.988751 
L 334.531417 29.119471 
L 335.186321 29.365711 
L 335.222705 29.161218 
L 335.295472 29.254832 
L 335.513774 29.276498 
L 335.804842 29.41864 
L 336.059527 29.367935 
L 336.205062 29.495805 
L 336.277829 29.793095 
L 336.314212 29.760362 
L 336.750815 29.913683 
L 336.787199 29.681232 
L 336.823583 29.70159 
L 337.041884 29.811727 
L 337.078268 29.880292 
L 337.187419 29.650191 
L 337.260186 29.71081 
L 337.587638 29.823712 
L 337.951474 29.839799 
L 337.987857 29.633947 
L 338.060625 29.661914 
L 338.242542 29.675342 
L 338.278926 29.541775 
L 338.351693 29.590694 
L 338.715529 29.572904 
L 338.788296 29.297525 
L 338.861063 29.334122 
L 339.115749 29.170673 
L 340.025338 29.207971 
L 340.098105 29.29553 
L 340.134489 29.236614 
L 340.571092 28.996685 
L 340.643859 29.09477 
L 340.75301 29.123766 
L 340.789393 28.962954 
L 340.862161 28.989631 
L 341.153229 29.098284 
L 341.589832 29.012063 
L 341.808134 29.122931 
L 341.917285 29.124926 
L 342.026435 29.155367 
L 342.062819 29.021049 
L 342.099202 29.073813 
L 342.135586 28.120284 
L 342.17197 28.159718 
L 342.390271 27.126929 
L 342.608573 27.106405 
L 342.68134 26.486486 
L 342.790491 26.527531 
L 342.936025 25.942498 
L 343.117943 25.936885 
L 343.19071 25.987516 
L 343.881998 26.127901 
L 343.918382 25.643733 
L 343.954765 25.702337 
L 344.063916 25.775555 
L 344.1003 25.673895 
L 344.136683 25.427741 
L 344.20945 25.477437 
L 344.354985 25.346493 
L 344.391368 25.089464 
L 344.464136 25.284764 
L 344.60967 25.224549 
L 344.646053 25.297823 
L 344.682437 25.32723 
L 344.718821 25.055414 
L 344.900739 25.280897 
L 345.082656 25.431398 
L 345.592027 25.148769 
L 345.701177 25.095256 
L 345.955863 25.22102 
L 346.13778 25.303462 
L 346.356082 24.846302 
L 346.392466 24.913795 
L 346.428849 24.714909 
L 346.501616 24.773447 
L 346.901836 24.872174 
L 346.938219 24.661369 
L 347.010986 24.748288 
L 347.120137 24.775576 
L 347.156521 24.58904 
L 347.229288 24.603662 
L 347.411206 24.82465 
L 347.44759 24.71083 
L 347.520357 24.835447 
L 347.920576 25.011477 
L 348.175261 25.312002 
L 348.46633 25.445024 
L 348.648248 25.602197 
L 348.721015 25.64121 
L 348.902933 25.909492 
L 349.303152 26.23438 
L 349.921673 26.366689 
L 349.958057 26.277168 
L 349.99444 26.38635 
L 350.176358 26.545316 
L 350.249126 26.582449 
L 350.431043 26.723294 
L 350.467427 26.58112 
L 350.540194 26.61393 
L 351.704469 27.117557 
L 352.031921 27.483367 
L 352.068305 27.386137 
L 352.104688 27.311082 
L 352.541291 27.651938 
L 352.577675 27.762701 
L 352.614059 27.727348 
L 352.83236 27.469366 
L 353.050662 27.637191 
L 353.087045 27.571386 
L 353.123429 27.649245 
L 353.596415 27.801468 
L 353.632799 27.786301 
L 353.814717 27.909727 
L 353.8511 27.529709 
L 353.887484 27.560106 
L 353.996635 27.49175 
L 354.105786 27.601659 
L 354.142169 27.484039 
L 354.25132 27.533082 
L 354.287703 27.314743 
L 354.360471 27.40442 
L 354.542389 27.325994 
L 354.651539 27.564983 
L 355.015375 27.660905 
L 355.051759 27.523517 
L 355.124526 27.67368 
L 355.306444 27.696361 
L 355.379211 27.790876 
L 355.415595 27.728526 
L 355.524745 27.753763 
L 355.561129 27.541763 
L 355.633896 27.571066 
L 355.815814 27.683844 
L 356.361568 28.066472 
L 356.543486 28.087255 
L 356.798171 28.121369 
L 357.052856 28.298375 
L 357.343925 28.448179 
L 357.59861 28.542874 
L 357.634993 28.328027 
L 357.70776 28.432736 
L 358.071596 28.536304 
L 358.217131 28.502714 
L 358.653734 28.725909 
L 358.690117 28.829427 
L 358.835652 28.514708 
L 358.872035 28.421246 
L 358.908419 28.636984 
L 358.981186 28.59495 
L 359.890776 28.958949 
L 359.999926 29.155213 
L 360.181844 29.228002 
L 360.472913 29.46332 
L 360.763982 29.608278 
L 360.9459 29.437369 
L 361.273352 29.665605 
L 361.709955 29.805957 
L 361.891873 29.955707 
L 362.437627 30.185223 
L 362.546777 30.260853 
L 362.801462 30.257545 
L 363.019764 30.267932 
L 363.274449 30.350594 
L 363.310833 30.192634 
L 363.565518 30.381147 
L 364.184039 30.721696 
L 364.256806 30.550989 
L 364.293189 30.634707 
L 364.547874 30.784663 
L 364.766176 29.647429 
L 364.838943 29.71374 
L 365.093628 29.755374 
L 365.275546 29.623048 
L 365.493848 29.460761 
L 365.602998 29.562187 
L 366.257903 29.56285 
L 367.058342 29.952449 
L 367.094725 29.776312 
L 367.131109 29.813432 
L 367.313027 29.917284 
L 367.385794 30.021453 
L 367.604096 30.033458 
L 367.74963 30.139404 
L 367.822397 30.200238 
L 368.113466 30.492717 
L 368.259 30.393607 
L 368.586452 30.527001 
L 369.16859 30.958427 
L 369.532426 30.981294 
L 369.67796 31.520094 
L 370.041796 31.624343 
L 370.18733 31.793573 
L 371.460756 32.441742 
L 371.970126 32.577719 
L 372.188427 32.407455 
L 372.333962 32.536956 
L 372.479496 32.658205 
L 372.661414 32.69865 
L 372.734181 32.775255 
L 372.952483 32.794946 
L 374.007607 33.494209 
L 374.917196 33.555323 
L 374.989963 33.738 
L 375.026347 33.710958 
L 375.281032 33.90716 
L 375.535717 33.998508 
L 376.190622 34.101305 
L 376.299772 34.277838 
L 376.954677 34.336537 
L 376.991061 34.300862 
L 377.027444 34.38539 
L 377.318513 34.560397 
L 377.973417 35.109901 
L 378.228102 35.067141 
L 378.591938 35.357127 
L 378.773856 35.478781 
L 378.81024 35.211367 
L 378.846623 35.260459 
L 379.610679 35.767024 
L 379.792597 35.80529 
L 379.865364 35.88384 
L 380.374734 35.998934 
L 380.483885 36.010571 
L 380.556652 35.656575 
L 380.629419 35.702604 
L 381.284324 35.75495 
L 381.357091 35.645267 
L 381.393474 35.680294 
L 381.902845 35.745688 
L 382.15753 35.544902 
L 382.339448 35.557817 
L 382.412215 35.464945 
L 382.6669 35.591649 
L 383.17627 35.59797 
L 383.358188 35.590797 
L 383.540106 35.623797 
L 383.940325 35.717009 
L 384.049476 35.735052 
L 384.122243 35.395271 
L 384.19501 35.42354 
L 384.376928 35.515383 
L 384.449696 34.869111 
L 384.631613 34.483638 
L 384.667997 34.120538 
L 384.704381 34.197862 
L 384.813531 34.208024 
L 384.959066 33.71254 
L 385.468436 32.670808 
L 386.196108 32.877975 
L 386.232491 31.448765 
L 386.341642 31.598632 
L 386.378026 31.569705 
L 386.450793 31.481398 
L 386.487176 31.617474 
L 386.596327 43.954058 
L 386.705478 43.885682 
L 387.142081 43.88332 
L 387.251232 43.750387 
L 387.94252 43.710928 
L 388.124438 43.768037 
L 388.488273 43.858496 
L 388.633808 43.589327 
L 388.742959 43.599456 
L 388.888493 43.29673 
L 389.143178 43.177973 
L 389.179562 43.184655 
L 389.288712 43.06448 
L 389.652548 43.137256 
L 389.761699 43.143908 
L 389.907233 43.020745 
L 390.452987 43.00497 
L 390.562138 42.869429 
L 391.471727 42.858897 
L 391.762796 42.813229 
L 391.835563 42.725861 
L 393.072605 42.776004 
L 393.254523 42.814253 
L 394.819017 42.828625 
L 394.855401 42.750874 
L 394.891784 42.793983 
L 395.910525 42.84769 
L 396.128826 42.489973 
L 396.16521 42.526244 
L 397.147567 42.312479 
L 397.293101 42.466789 
L 397.438635 42.450337 
L 397.802471 42.473445 
L 398.348225 42.609087 
L 398.384609 42.786284 
L 398.457376 42.769363 
L 399.694418 43.170623 
L 400.203788 43.06725 
L 400.458473 43.075346 
L 400.895076 43.221634 
L 401.695515 43.64211 
L 401.731898 43.787071 
L 401.768282 43.679991 
L 402.022967 43.910268 
L 402.277652 44.199837 
L 402.896173 44.117366 
L 403.150858 44.071018 
L 403.296393 44.215831 
L 403.660228 44.342736 
L 404.060448 44.282091 
L 405.515791 44.299471 
L 405.697709 44.337186 
L 405.734093 44.214045 
L 405.80686 44.31206 
L 406.025161 44.246335 
L 406.31623 44.212613 
L 407.807957 44.425087 
L 408.135409 44.38847 
L 408.899465 44.521918 
L 409.15415 44.530686 
L 409.881821 44.531416 
L 410.027356 44.165107 
L 410.282041 44.06307 
L 410.609493 44.02644 
L 410.645877 43.936397 
L 410.68226 43.959009 
L 411.664617 44.037593 
L 411.701001 44.047622 
L 412.10122 43.787995 
L 412.210371 44.236356 
L 412.865275 44.500745 
L 412.901659 44.141212 
L 412.974426 44.150924 
L 414.175085 44.186123 
L 414.611688 44.206918 
L 414.757222 44.224921 
L 415.157441 44.211535 
L 415.230208 45.607012 
L 415.266592 45.598652 
L 415.630428 45.571477 
L 415.703195 58.317859 
L 415.775962 58.277991 
L 415.994264 58.152274 
L 416.176182 57.893723 
L 416.212565 58.172897 
L 416.248949 32.251719 
L 416.285332 32.271458 
L 416.685552 32.353631 
L 416.721935 57.991559 
L 416.758319 32.282186 
L 416.794703 32.30954 
L 417.267689 32.542683 
L 417.558758 32.637267 
L 418.031745 32.81134 
L 418.7958 33.119234 
L 419.778157 33.492918 
L 419.81454 33.569273 
L 419.850924 33.550106 
L 419.996458 33.587107 
L 420.032842 58.690966 
L 420.105609 44.867701 
L 423.816735 45.260152 
L 423.925885 45.375853 
L 424.689941 45.361041 
L 426.327202 45.437814 
L 426.472736 45.366708 
L 426.618271 45.275253 
L 427.236792 45.240745 
L 427.600627 45.23216 
L 427.709778 36.003153 
L 427.746162 36.013474 
L 427.92808 35.936311 
L 428.000847 35.968007 
L 428.473833 36.004246 
L 428.619368 35.308071 
L 428.655751 35.343108 
L 428.692135 35.401672 
L 428.728519 35.272686 
L 428.764902 35.320034 
L 429.128738 35.357721 
L 429.419807 35.393489 
L 429.45619 35.243751 
L 429.528957 35.270703 
L 430.656849 35.213048 
L 430.802383 35.053366 
L 430.911534 35.069023 
L 430.984301 34.847168 
L 431.020684 34.902178 
L 431.166219 34.970779 
L 431.530055 35.205729 
L 431.748356 35.263011 
L 432.221343 35.400855 
L 432.439644 35.393382 
L 432.585179 35.372042 
L 433.2037 35.546658 
L 433.349234 35.655143 
L 433.749453 35.556904 
L 433.858604 35.784034 
L 434.258823 35.981238 
L 434.295207 35.890144 
L 434.367974 35.943427 
L 434.622659 36.052485 
L 434.73181 36.073845 
L 434.877344 36.19633 
L 435.532249 36.414853 
L 435.605016 36.213571 
L 435.6414 36.226034 
L 436.15077 36.357001 
L 436.805674 36.546453 
L 437.351428 36.932498 
L 437.56973 37.1367 
L 437.642497 36.781744 
L 437.67888 36.827726 
L 438.042716 36.947248 
L 438.115483 36.430544 
L 438.188251 36.491712 
L 438.297401 36.519469 
L 438.333785 36.369868 
L 438.406552 36.410742 
L 438.697621 36.551039 
L 438.952306 36.448811 
L 439.061457 36.593729 
L 439.134224 36.304259 
L 439.206991 36.366475 
L 439.570827 36.362796 
L 439.679978 36.139043 
L 439.825512 36.197996 
L 439.971046 36.267448 
L 440.371266 35.934403 
L 440.407649 35.33651 
L 440.480417 35.386495 
L 440.698718 35.439383 
L 440.844252 35.191074 
L 441.135321 35.254131 
L 441.208088 35.297844 
L 441.244472 35.253096 
L 442.226829 35.359406 
L 442.372363 35.291156 
L 442.736199 35.352795 
L 442.881733 35.345744 
L 443.027267 35.285139 
L 443.427487 35.299983 
L 443.500254 35.441879 
L 443.645788 35.170663 
L 443.754939 35.141424 
L 444.009624 35.202176 
L 444.191542 35.095172 
L 444.664529 35.289233 
L 444.919214 35.548761 
L 445.064748 35.550437 
L 445.756036 35.661034 
L 445.828804 35.372965 
L 446.083489 35.310257 
L 446.338174 35.396125 
L 447.029462 35.541837 
L 447.065845 35.684186 
L 447.102229 35.631089 
L 448.302887 35.814882 
L 448.375654 35.653915 
L 448.73949 35.43493 
L 448.775874 35.468404 
L 448.885025 35.193338 
L 449.103326 35.195995 
L 449.13971 34.977772 
L 449.285244 34.984828 
L 449.358011 34.863017 
L 449.394395 34.883839 
L 449.64908 35.006615 
L 449.794614 34.692958 
L 449.867381 34.775147 
L 449.903765 34.771404 
L 450.15845 34.626099 
L 450.522286 34.613654 
L 450.55867 34.43528 
L 450.631437 34.47221 
L 450.813355 34.473226 
L 451.177191 34.592123 
L 451.431876 34.541975 
L 451.650177 34.53706 
L 451.795711 34.258664 
L 452.08678 34.263737 
L 452.377849 34.382736 
L 452.59615 34.565961 
L 452.923603 34.629118 
L 453.069137 34.571562 
L 453.214671 34.550655 
L 453.614891 34.637188 
L 454.597248 35.025939 
L 454.742782 34.929295 
L 454.961083 34.931716 
L 454.997467 34.71999 
L 455.143001 34.910506 
L 455.252152 34.56598 
L 455.761522 34.662913 
L 455.870673 34.353635 
L 455.979824 33.285599 
L 456.016207 33.393638 
L 456.234509 33.005934 
L 456.270892 32.580127 
L 456.489194 63.297229 
L 456.525578 44.607726 
L 456.634728 44.663244 
L 456.780263 44.588131 
L 456.889413 44.726058 
L 456.998564 66.352151 
L 457.034948 66.273147 
L 457.216866 66.631152 
L 457.398784 68.11971 
L 457.471551 67.956467 
L 457.544318 67.140425 
L 457.653469 66.765934 
L 457.689852 67.097446 
L 457.762619 67.033915 
L 457.799003 49.713562 
L 457.908154 66.993788 
L 458.053688 30.746426 
L 458.162839 49.70656 
L 458.199222 30.823462 
L 458.235606 66.777138 
L 458.308373 66.454396 
L 458.453908 66.353339 
L 458.490291 66.466338 
L 458.526675 66.421578 
L 458.672209 66.279824 
L 458.708593 66.361613 
L 458.744976 66.278592 
L 458.78136 66.221835 
L 458.817743 66.267824 
L 458.963278 31.18576 
L 459.036045 31.301275 
L 459.072428 49.628433 
L 459.181579 49.621018 
L 459.217963 31.395736 
L 459.254346 49.691859 
L 459.29073 65.105876 
L 459.327114 65.038177 
L 459.472648 64.982824 
L 459.581799 31.887095 
L 459.727333 31.977241 
L 459.836484 32.221215 
L 460.018402 32.315223 
L 460.236703 32.466359 
L 460.345854 32.664059 
L 460.564155 32.558119 
L 460.818841 32.757984 
L 461.073526 33.299922 
L 461.21906 33.202954 
L 461.837581 33.666897 
L 461.983115 33.58785 
L 462.092266 33.641255 
L 462.310568 33.772816 
L 462.383335 33.902587 
L 462.747171 34.11226 
L 462.892705 34.178499 
L 463.547609 34.387324 
L 463.838678 34.460511 
L 463.911445 34.251832 
L 464.348048 34.470509 
L 464.420815 34.526619 
L 464.602733 34.583353 
L 464.675501 34.754027 
L 465.184871 34.932185 
L 465.403172 35.360754 
L 465.694241 35.555979 
L 465.912542 35.592479 
L 466.385529 36.131092 
L 466.894899 36.208999 
L 467.185968 36.292227 
L 467.367886 36.100098 
L 467.477037 36.316958 
L 467.658955 36.409487 
L 467.695338 36.453507 
L 467.731722 36.394595 
L 467.91364 36.500821 
L 467.986407 36.544012 
L 468.168325 36.64259 
L 468.350243 36.807252 
L 468.604928 36.877241 
L 468.859613 36.91968 
L 468.895996 36.766294 
L 468.968764 36.820887 
L 469.114298 37.032238 
L 469.405367 37.351292 
L 469.478134 37.440358 
L 469.769202 37.502713 
L 469.95112 37.569022 
L 470.133038 37.704988 
L 470.278573 38.080136 
L 470.678792 38.417843 
L 470.715176 38.363581 
L 470.787943 38.426623 
L 471.697533 38.858103 
L 471.733916 38.66333 
L 471.806683 38.718424 
L 471.952218 38.930057 
L 472.024985 38.532141 
L 472.061368 38.554238 
L 472.425204 38.620201 
L 472.970958 39.034072 
L 473.262027 39.163751 
L 473.29841 39.22633 
L 473.334794 39.106934 
L 473.989698 39.233685 
L 474.317151 39.339562 
L 474.462685 39.304421 
L 474.608219 39.399791 
L 474.972055 39.53139 
L 475.62696 39.707724 
L 475.881645 39.749432 
L 476.099946 39.750502 
L 476.900385 39.887635 
L 477.55529 40.018164 
L 477.773591 39.951739 
L 477.919126 39.981274 
L 478.319345 40.074602 
L 478.392112 40.147216 
L 478.428496 40.126824 
L 478.901482 40.266033 
L 479.301702 40.460317 
L 479.338085 40.33656 
L 479.410853 40.41869 
L 479.447236 40.519342 
L 479.665538 40.539813 
L 479.701921 40.596184 
L 479.883839 40.478077 
L 479.920223 40.560163 
L 480.065757 40.719777 
L 480.211291 40.801301 
L 480.611511 40.826868 
L 480.720662 41.180553 
L 480.938963 41.140967 
L 481.157265 41.200907 
L 481.339183 41.341098 
L 481.375566 41.263611 
L 481.41195 41.260942 
L 481.484717 41.557559 
L 481.739402 41.538747 
L 481.884936 41.635616 
L 481.994087 41.656969 
L 482.212389 41.798069 
L 482.394307 41.822593 
L 482.503457 41.692607 
L 482.867293 41.981512 
L 482.903677 41.984827 
L 483.012827 42.196652 
L 483.776883 42.510774 
L 484.031568 42.530661 
L 484.686472 42.612638 
L 484.795623 42.621885 
L 485.450528 43.286504 
L 485.741596 43.320217 
L 485.923514 43.38771 
L 486.069049 43.370102 
L 486.323734 43.28024 
L 486.542035 42.8798 
L 486.578419 42.969279 
L 486.760337 42.963872 
L 486.833104 42.731971 
L 487.051405 42.660983 
L 487.19694 42.562769 
L 487.342474 42.592696 
L 488.033762 42.643944 
L 488.070146 42.427718 
L 488.106529 42.471713 
L 488.543132 42.653202 
L 488.6159 42.613264 
L 488.834201 42.652138 
L 489.12527 42.707412 
L 489.525489 42.791768 
L 489.561873 42.525627 
L 489.63464 42.546505 
L 489.889325 42.654132 
L 490.325928 42.598323 
L 490.362312 42.292729 
L 490.398695 42.518928 
L 490.54423 42.414356 
L 490.65338 42.005632 
L 490.798915 42.122482 
L 490.908065 41.864231 
L 491.089983 41.780445 
L 491.126367 41.629969 
L 491.162751 41.651997 
L 491.381052 41.722037 
L 491.417436 41.595463 
L 491.672121 41.695906 
L 491.926806 41.419479 
L 492.108724 41.490278 
L 492.290642 41.242699 
L 492.836395 41.525115 
L 493.454916 41.752013 
L 493.855136 41.821986 
L 493.964287 41.870896 
L 494.109821 41.92812 
L 494.218972 42.230662 
L 494.364506 42.24397 
L 494.473657 42.089235 
L 495.092178 42.264352 
L 495.164945 42.244661 
L 495.346863 42.1255 
L 495.456014 42.125553 
L 495.601548 42.007519 
L 495.637931 41.921769 
L 495.710699 41.963427 
L 495.856233 41.998073 
L 496.001767 41.942017 
L 496.474754 42.335222 
L 496.620288 42.39094 
L 496.765823 42.094665 
L 497.529878 42.280113 
L 497.748179 42.382129 
L 497.930097 42.418551 
L 497.966481 42.247059 
L 498.039248 42.280067 
L 498.293933 42.33509 
L 501.532072 42.650337 
L 501.604839 42.510116 
L 502.62358 42.60928 
L 502.732731 42.613965 
L 502.805498 42.443996 
L 502.841881 42.458196 
L 503.060183 42.582955 
L 503.13295 42.571743 
L 503.569553 42.58861 
L 503.64232 42.547491 
L 503.751471 41.900299 
L 503.824238 41.969998 
L 504.006156 42.036828 
L 504.115307 41.856822 
L 504.15169 41.881695 
L 504.333608 41.90534 
L 504.406375 41.973696 
L 504.515526 41.967997 
L 504.55191 41.790532 
L 504.624677 41.944561 
L 504.770211 41.895084 
L 505.06128 42.101116 
L 505.279582 42.027654 
L 505.315965 41.679178 
L 505.388732 41.709887 
L 505.825335 41.768054 
L 505.934486 41.830765 
L 506.08002 41.875777 
L 506.189171 41.792561 
L 506.334705 41.798091 
L 506.371089 41.406063 
L 506.443856 41.646264 
L 506.589391 41.635184 
L 506.698541 41.539049 
L 507.098761 41.592779 
L 507.207912 41.820332 
L 507.389829 41.81448 
L 507.426213 41.628053 
L 507.462597 41.647272 
L 508.190268 41.613958 
L 508.335803 41.458829 
L 508.481337 41.545367 
L 508.845173 41.218068 
L 509.099858 41.194705 
L 509.136242 40.983887 
L 509.209009 41.063536 
L 509.390927 41.045146 
L 509.463694 41.042982 
L 509.609228 41.148733 
L 509.754762 41.091308 
L 510.154982 41.19433 
L 510.227749 40.989887 
L 510.264133 40.996821 
L 510.991804 41.394159 
L 511.137339 41.309955 
L 511.537558 41.274706 
L 512.7746 41.285784 
L 512.956518 41.188514 
L 513.065669 41.235098 
L 513.538655 41.333274 
L 513.756957 41.396326 
L 514.084409 41.344631 
L 514.593779 41.404355 
L 514.775697 41.517313 
L 514.848464 41.76799 
L 514.957615 41.645559 
L 514.993999 41.722151 
L 515.357835 41.849803 
L 515.976356 41.918559 
L 516.12189 41.985399 
L 517.358932 42.101806 
L 517.65 41.936605 
L 517.904686 41.966993 
L 518.304905 41.82381 
L 518.377672 42.378645 
L 518.414056 42.343567 
L 518.777892 42.356136 
L 519.032577 42.344635 
L 519.178111 42.416437 
L 519.541947 42.362678 
L 519.687481 42.419076 
L 520.451536 42.478234 
L 520.88814 42.426654 
L 520.960907 42.412562 
L 521.106441 42.364781 
L 521.215592 42.289094 
L 521.39751 38.021138 
L 521.470277 42.198446 
L 521.724962 42.243398 
L 521.834113 38.078079 
L 521.870496 42.27427 
L 521.943263 38.114103 
L 522.197949 38.222226 
L 522.343483 38.297876 
L 522.41625 38.232196 
L 522.452634 38.267935 
L 522.489017 38.272914 
L 522.598168 21.519084 
L 522.670935 21.690552 
L 522.743702 38.247112 
L 522.889237 38.313745 
L 522.92562 21.962625 
L 522.998387 22.078393 
L 523.471374 22.36921 
L 523.507758 22.440845 
L 523.616908 22.388208 
L 523.653292 57.988068 
L 523.726059 22.481851 
L 523.762443 42.494022 
L 523.871593 22.29194 
L 523.907977 38.162896 
L 524.017128 38.066902 
L 524.271813 37.902119 
L 524.708416 37.970264 
L 524.781183 61.038954 
L 524.999485 61.037291 
L 525.035868 38.147068 
L 525.145019 61.053149 
L 525.25417 60.985203 
L 525.436088 60.917522 
L 525.472471 60.993152 
L 525.545238 60.941356 
L 526.27291 60.806516 
L 526.418444 60.570864 
L 526.745897 60.179687 
L 526.818664 60.201659 
L 527.801021 60.034541 
L 528.237624 59.826513 
L 528.455925 59.769908 
L 528.60146 59.6844 
L 529.802118 59.241667 
L 529.838501 59.103565 
L 529.874885 59.154251 
L 530.056803 59.021151 
L 530.12957 58.950741 
L 530.493406 58.816047 
L 530.602557 58.741179 
L 530.748091 58.876779 
L 530.893625 58.768527 
L 531.03916 58.77034 
L 531.148311 58.584995 
L 531.584914 58.414328 
L 531.621297 58.307169 
L 531.657681 58.322475 
L 531.839599 58.277969 
L 531.912366 58.142543 
L 532.130667 58.219416 
L 532.312585 58.090335 
L 532.312585 58.090335 
" clip-path="url(#p5cbbb1e37a)" style="fill: none; stroke: #1f77b4; stroke-width: 1.5; stroke-linecap: square"/>
   </g>
   <g id="patch_3">
    <path d="M 44.845313 84.879606 
L 44.845313 7.2 
" style="fill: none"/>
   </g>
   <g id="patch_4">
    <path d="M 555.525312 84.879606 
L 555.525312 7.2 
" style="fill: none"/>
   </g>
   <g id="patch_5">
    <path d="M 44.845313 84.879606 
L 555.525313 84.879606 
" style="fill: none; stroke: #000000; stroke-width: 0.8; stroke-linejoin: miter; stroke-linecap: square"/>
   </g>
   <g id="patch_6">
    <path d="M 44.845313 7.2 
L 555.525313 7.2 
" style="fill: none"/>
   </g>
  </g>
 </g>
 <defs>
  <clipPath id="p5cbbb1e37a">
   <rect x="44.845313" y="7.2" width="510.68" height="77.679606"/>
  </clipPath>
 </defs>
</svg>
