<?xml version="1.0" encoding="utf-8" standalone="no"?>
<!DOCTYPE svg PUBLIC "-//W3C//DTD SVG 1.1//EN"
  "http://www.w3.org/Graphics/SVG/1.1/DTD/svg11.dtd">
<svg xmlns:xlink="http://www.w3.org/1999/xlink" width="568.844687pt" height="136.396966pt" viewBox="0 0 568.844687 136.396966" xmlns="http://www.w3.org/2000/svg" version="1.1">
 <metadata>
  <rdf:RDF xmlns:dc="http://purl.org/dc/elements/1.1/" xmlns:cc="http://creativecommons.org/ns#" xmlns:rdf="http://www.w3.org/1999/02/22-rdf-syntax-ns#">
   <cc:Work>
    <dc:type rdf:resource="http://purl.org/dc/dcmitype/StillImage"/>
    <dc:date>2025-12-03T23:16:00.537771</dc:date>
    <dc:format>image/svg+xml</dc:format>
    <dc:creator>
     <cc:Agent>
      <dc:title>Matplotlib v3.10.7, https://matplotlib.org/</dc:title>
     </cc:Agent>
    </dc:creator>
   </cc:Work>
  </rdf:RDF>
 </metadata>
 <defs>
  <style type="text/css">*{stroke-linejoin: round; stroke-linecap: butt}</style>
 </defs>
 <g id="figure_1">
  <g id="patch_1">
   <path d="M 0 136.396966 
L 568.844687 136.396966 
L 568.844687 0 
L 0 0 
L 0 136.396966 
z
" style="fill: none"/>
  </g>
  <g id="axes_1">
   <g id="patch_2">
    <path d="M 35.304688 101.090464 
L 561.644687 101.090464 
L 561.644687 7.2 
L 35.304688 7.2 
L 35.304688 101.090464 
z
" style="fill: none"/>
   </g>
   <g id="matplotlib.axis_1">
    <g id="xtick_1">
     <g id="line2d_1">
      <defs>
       <path id="m9d2dc39965" d="M 0 0 
L 0 3.5 
" style="stroke: #000000; stroke-width: 0.8"/>
      </defs>
      <g>
       <use xlink:href="#m9d2dc39965" x="73.403964" y="101.090464" style="stroke: #000000; stroke-width: 0.8"/>
      </g>
     </g>
     <g id="text_1">
      <!-- 1992 -->
      <g transform="translate(50.323773 127.395904) rotate(-30) scale(0.1 -0.1)">
       <defs>
        <path id="DejaVuSans-31" d="M 794 531 
L 1825 531 
L 1825 4091 
L 703 3866 
L 703 4441 
L 1819 4666 
L 2450 4666 
L 2450 531 
L 3481 531 
L 3481 0 
L 794 0 
L 794 531 
z
" transform="scale(0.015625)"/>
        <path id="DejaVuSans-39" d="M 703 97 
L 703 672 
Q 941 559 1184 500 
Q 1428 441 1663 441 
Q 2288 441 2617 861 
Q 2947 1281 2994 2138 
Q 2813 1869 2534 1725 
Q 2256 1581 1919 1581 
Q 1219 1581 811 2004 
Q 403 2428 403 3163 
Q 403 3881 828 4315 
Q 1253 4750 1959 4750 
Q 2769 4750 3195 4129 
Q 3622 3509 3622 2328 
Q 3622 1225 3098 567 
Q 2575 -91 1691 -91 
Q 1453 -91 1209 -44 
Q 966 3 703 97 
z
M 1959 2075 
Q 2384 2075 2632 2365 
Q 2881 2656 2881 3163 
Q 2881 3666 2632 3958 
Q 2384 4250 1959 4250 
Q 1534 4250 1286 3958 
Q 1038 3666 1038 3163 
Q 1038 2656 1286 2365 
Q 1534 2075 1959 2075 
z
" transform="scale(0.015625)"/>
        <path id="DejaVuSans-32" d="M 1228 531 
L 3431 531 
L 3431 0 
L 469 0 
L 469 531 
Q 828 903 1448 1529 
Q 2069 2156 2228 2338 
Q 2531 2678 2651 2914 
Q 2772 3150 2772 3378 
Q 2772 3750 2511 3984 
Q 2250 4219 1831 4219 
Q 1534 4219 1204 4116 
Q 875 4013 500 3803 
L 500 4441 
Q 881 4594 1212 4672 
Q 1544 4750 1819 4750 
Q 2544 4750 2975 4387 
Q 3406 4025 3406 3419 
Q 3406 3131 3298 2873 
Q 3191 2616 2906 2266 
Q 2828 2175 2409 1742 
Q 1991 1309 1228 531 
z
" transform="scale(0.015625)"/>
       </defs>
       <use xlink:href="#DejaVuSans-31"/>
       <use xlink:href="#DejaVuSans-39" transform="translate(63.623047 0)"/>
       <use xlink:href="#DejaVuSans-39" transform="translate(127.246094 0)"/>
       <use xlink:href="#DejaVuSans-32" transform="translate(190.869141 0)"/>
      </g>
     </g>
    </g>
    <g id="xtick_2">
     <g id="line2d_2">
      <g>
       <use xlink:href="#m9d2dc39965" x="128.190423" y="101.090464" style="stroke: #000000; stroke-width: 0.8"/>
      </g>
     </g>
     <g id="text_2">
      <!-- 1996 -->
      <g transform="translate(105.110232 127.395904) rotate(-30) scale(0.1 -0.1)">
       <defs>
        <path id="DejaVuSans-36" d="M 2113 2584 
Q 1688 2584 1439 2293 
Q 1191 2003 1191 1497 
Q 1191 994 1439 701 
Q 1688 409 2113 409 
Q 2538 409 2786 701 
Q 3034 994 3034 1497 
Q 3034 2003 2786 2293 
Q 2538 2584 2113 2584 
z
M 3366 4563 
L 3366 3988 
Q 3128 4100 2886 4159 
Q 2644 4219 2406 4219 
Q 1781 4219 1451 3797 
Q 1122 3375 1075 2522 
Q 1259 2794 1537 2939 
Q 1816 3084 2150 3084 
Q 2853 3084 3261 2657 
Q 3669 2231 3669 1497 
Q 3669 778 3244 343 
Q 2819 -91 2113 -91 
Q 1303 -91 875 529 
Q 447 1150 447 2328 
Q 447 3434 972 4092 
Q 1497 4750 2381 4750 
Q 2619 4750 2861 4703 
Q 3103 4656 3366 4563 
z
" transform="scale(0.015625)"/>
       </defs>
       <use xlink:href="#DejaVuSans-31"/>
       <use xlink:href="#DejaVuSans-39" transform="translate(63.623047 0)"/>
       <use xlink:href="#DejaVuSans-39" transform="translate(127.246094 0)"/>
       <use xlink:href="#DejaVuSans-36" transform="translate(190.869141 0)"/>
      </g>
     </g>
    </g>
    <g id="xtick_3">
     <g id="line2d_3">
      <g>
       <use xlink:href="#m9d2dc39965" x="182.976882" y="101.090464" style="stroke: #000000; stroke-width: 0.8"/>
      </g>
     </g>
     <g id="text_3">
      <!-- 2000 -->
      <g transform="translate(159.896692 127.395904) rotate(-30) scale(0.1 -0.1)">
       <defs>
        <path id="DejaVuSans-30" d="M 2034 4250 
Q 1547 4250 1301 3770 
Q 1056 3291 1056 2328 
Q 1056 1369 1301 889 
Q 1547 409 2034 409 
Q 2525 409 2770 889 
Q 3016 1369 3016 2328 
Q 3016 3291 2770 3770 
Q 2525 4250 2034 4250 
z
M 2034 4750 
Q 2819 4750 3233 4129 
Q 3647 3509 3647 2328 
Q 3647 1150 3233 529 
Q 2819 -91 2034 -91 
Q 1250 -91 836 529 
Q 422 1150 422 2328 
Q 422 3509 836 4129 
Q 1250 4750 2034 4750 
z
" transform="scale(0.015625)"/>
       </defs>
       <use xlink:href="#DejaVuSans-32"/>
       <use xlink:href="#DejaVuSans-30" transform="translate(63.623047 0)"/>
       <use xlink:href="#DejaVuSans-30" transform="translate(127.246094 0)"/>
       <use xlink:href="#DejaVuSans-30" transform="translate(190.869141 0)"/>
      </g>
     </g>
    </g>
    <g id="xtick_4">
     <g id="line2d_4">
      <g>
       <use xlink:href="#m9d2dc39965" x="237.763341" y="101.090464" style="stroke: #000000; stroke-width: 0.8"/>
      </g>
     </g>
     <g id="text_4">
      <!-- 2004 -->
      <g transform="translate(214.683151 127.395904) rotate(-30) scale(0.1 -0.1)">
       <defs>
        <path id="DejaVuSans-34" d="M 2419 4116 
L 825 1625 
L 2419 1625 
L 2419 4116 
z
M 2253 4666 
L 3047 4666 
L 3047 1625 
L 3713 1625 
L 3713 1100 
L 3047 1100 
L 3047 0 
L 2419 0 
L 2419 1100 
L 313 1100 
L 313 1709 
L 2253 4666 
z
" transform="scale(0.015625)"/>
       </defs>
       <use xlink:href="#DejaVuSans-32"/>
       <use xlink:href="#DejaVuSans-30" transform="translate(63.623047 0)"/>
       <use xlink:href="#DejaVuSans-30" transform="translate(127.246094 0)"/>
       <use xlink:href="#DejaVuSans-34" transform="translate(190.869141 0)"/>
      </g>
     </g>
    </g>
    <g id="xtick_5">
     <g id="line2d_5">
      <g>
       <use xlink:href="#m9d2dc39965" x="292.5498" y="101.090464" style="stroke: #000000; stroke-width: 0.8"/>
      </g>
     </g>
     <g id="text_5">
      <!-- 2008 -->
      <g transform="translate(269.46961 127.395904) rotate(-30) scale(0.1 -0.1)">
       <defs>
        <path id="DejaVuSans-38" d="M 2034 2216 
Q 1584 2216 1326 1975 
Q 1069 1734 1069 1313 
Q 1069 891 1326 650 
Q 1584 409 2034 409 
Q 2484 409 2743 651 
Q 3003 894 3003 1313 
Q 3003 1734 2745 1975 
Q 2488 2216 2034 2216 
z
M 1403 2484 
Q 997 2584 770 2862 
Q 544 3141 544 3541 
Q 544 4100 942 4425 
Q 1341 4750 2034 4750 
Q 2731 4750 3128 4425 
Q 3525 4100 3525 3541 
Q 3525 3141 3298 2862 
Q 3072 2584 2669 2484 
Q 3125 2378 3379 2068 
Q 3634 1759 3634 1313 
Q 3634 634 3220 271 
Q 2806 -91 2034 -91 
Q 1263 -91 848 271 
Q 434 634 434 1313 
Q 434 1759 690 2068 
Q 947 2378 1403 2484 
z
M 1172 3481 
Q 1172 3119 1398 2916 
Q 1625 2713 2034 2713 
Q 2441 2713 2670 2916 
Q 2900 3119 2900 3481 
Q 2900 3844 2670 4047 
Q 2441 4250 2034 4250 
Q 1625 4250 1398 4047 
Q 1172 3844 1172 3481 
z
" transform="scale(0.015625)"/>
       </defs>
       <use xlink:href="#DejaVuSans-32"/>
       <use xlink:href="#DejaVuSans-30" transform="translate(63.623047 0)"/>
       <use xlink:href="#DejaVuSans-30" transform="translate(127.246094 0)"/>
       <use xlink:href="#DejaVuSans-38" transform="translate(190.869141 0)"/>
      </g>
     </g>
    </g>
    <g id="xtick_6">
     <g id="line2d_6">
      <g>
       <use xlink:href="#m9d2dc39965" x="347.336259" y="101.090464" style="stroke: #000000; stroke-width: 0.8"/>
      </g>
     </g>
     <g id="text_6">
      <!-- 2012 -->
      <g transform="translate(324.256069 127.395904) rotate(-30) scale(0.1 -0.1)">
       <use xlink:href="#DejaVuSans-32"/>
       <use xlink:href="#DejaVuSans-30" transform="translate(63.623047 0)"/>
       <use xlink:href="#DejaVuSans-31" transform="translate(127.246094 0)"/>
       <use xlink:href="#DejaVuSans-32" transform="translate(190.869141 0)"/>
      </g>
     </g>
    </g>
    <g id="xtick_7">
     <g id="line2d_7">
      <g>
       <use xlink:href="#m9d2dc39965" x="402.122718" y="101.090464" style="stroke: #000000; stroke-width: 0.8"/>
      </g>
     </g>
     <g id="text_7">
      <!-- 2016 -->
      <g transform="translate(379.042528 127.395904) rotate(-30) scale(0.1 -0.1)">
       <use xlink:href="#DejaVuSans-32"/>
       <use xlink:href="#DejaVuSans-30" transform="translate(63.623047 0)"/>
       <use xlink:href="#DejaVuSans-31" transform="translate(127.246094 0)"/>
       <use xlink:href="#DejaVuSans-36" transform="translate(190.869141 0)"/>
      </g>
     </g>
    </g>
    <g id="xtick_8">
     <g id="line2d_8">
      <g>
       <use xlink:href="#m9d2dc39965" x="456.909177" y="101.090464" style="stroke: #000000; stroke-width: 0.8"/>
      </g>
     </g>
     <g id="text_8">
      <!-- 2020 -->
      <g transform="translate(433.828987 127.395904) rotate(-30) scale(0.1 -0.1)">
       <use xlink:href="#DejaVuSans-32"/>
       <use xlink:href="#DejaVuSans-30" transform="translate(63.623047 0)"/>
       <use xlink:href="#DejaVuSans-32" transform="translate(127.246094 0)"/>
       <use xlink:href="#DejaVuSans-30" transform="translate(190.869141 0)"/>
      </g>
     </g>
    </g>
    <g id="xtick_9">
     <g id="line2d_9">
      <g>
       <use xlink:href="#m9d2dc39965" x="511.695636" y="101.090464" style="stroke: #000000; stroke-width: 0.8"/>
      </g>
     </g>
     <g id="text_9">
      <!-- 2024 -->
      <g transform="translate(488.615446 127.395904) rotate(-30) scale(0.1 -0.1)">
       <use xlink:href="#DejaVuSans-32"/>
       <use xlink:href="#DejaVuSans-30" transform="translate(63.623047 0)"/>
       <use xlink:href="#DejaVuSans-32" transform="translate(127.246094 0)"/>
       <use xlink:href="#DejaVuSans-34" transform="translate(190.869141 0)"/>
      </g>
     </g>
    </g>
   </g>
   <g id="matplotlib.axis_2">
    <g id="ytick_1">
     <g id="line2d_10">
      <path d="M 35.304688 80.225916 
L 561.644687 80.225916 
" clip-path="url(#pbdebe9252c)" style="fill: none; stroke-dasharray: 2.96,1.28; stroke-dashoffset: 0; stroke: #dddddd; stroke-width: 0.8"/>
     </g>
     <g id="line2d_11">
      <defs>
       <path id="m42c486a56b" d="M 0 0 
L -3.5 0 
" style="stroke: #000000; stroke-width: 0.8"/>
      </defs>
      <g>
       <use xlink:href="#m42c486a56b" x="35.304688" y="80.225916" style="stroke: #000000; stroke-width: 0.8"/>
      </g>
     </g>
     <g id="text_10">
      <!-- −10 -->
      <g transform="translate(7.2 84.025135) scale(0.1 -0.1)">
       <defs>
        <path id="DejaVuSans-2212" d="M 678 2272 
L 4684 2272 
L 4684 1741 
L 678 1741 
L 678 2272 
z
" transform="scale(0.015625)"/>
       </defs>
       <use xlink:href="#DejaVuSans-2212"/>
       <use xlink:href="#DejaVuSans-31" transform="translate(83.789062 0)"/>
       <use xlink:href="#DejaVuSans-30" transform="translate(147.412109 0)"/>
      </g>
     </g>
    </g>
    <g id="ytick_2">
     <g id="line2d_12">
      <path d="M 35.304688 54.145232 
L 561.644687 54.145232 
" clip-path="url(#pbdebe9252c)" style="fill: none; stroke-dasharray: 2.96,1.28; stroke-dashoffset: 0; stroke: #dddddd; stroke-width: 0.8"/>
     </g>
     <g id="line2d_13">
      <g>
       <use xlink:href="#m42c486a56b" x="35.304688" y="54.145232" style="stroke: #000000; stroke-width: 0.8"/>
      </g>
     </g>
     <g id="text_11">
      <!-- 0 -->
      <g transform="translate(21.942187 57.944451) scale(0.1 -0.1)">
       <use xlink:href="#DejaVuSans-30"/>
      </g>
     </g>
    </g>
    <g id="ytick_3">
     <g id="line2d_14">
      <path d="M 35.304688 28.064548 
L 561.644687 28.064548 
" clip-path="url(#pbdebe9252c)" style="fill: none; stroke-dasharray: 2.96,1.28; stroke-dashoffset: 0; stroke: #dddddd; stroke-width: 0.8"/>
     </g>
     <g id="line2d_15">
      <g>
       <use xlink:href="#m42c486a56b" x="35.304688" y="28.064548" style="stroke: #000000; stroke-width: 0.8"/>
      </g>
     </g>
     <g id="text_12">
      <!-- 10 -->
      <g transform="translate(15.579687 31.863766) scale(0.1 -0.1)">
       <use xlink:href="#DejaVuSans-31"/>
       <use xlink:href="#DejaVuSans-30" transform="translate(63.623047 0)"/>
      </g>
     </g>
    </g>
   </g>
   <g id="line2d_16">
    <path d="M 59.229233 34.360474 
L 59.304232 34.282538 
L 59.679224 34.239067 
L 59.829222 33.975651 
L 60.016718 34.095227 
L 60.091717 34.050657 
L 60.241714 34.089179 
L 60.316712 34.634783 
L 60.354212 34.567492 
L 60.541708 34.532675 
L 60.616707 34.657564 
L 60.766704 34.668015 
L 60.879202 34.814266 
L 61.104197 35.034312 
L 61.141697 34.940959 
L 61.366692 35.178163 
L 62.04168 35.188228 
L 62.079179 35.36971 
L 62.154177 35.34192 
L 62.191677 35.323157 
L 62.454172 35.438693 
L 62.829165 35.441258 
L 62.979162 35.610497 
L 63.09166 35.599576 
L 63.241657 35.752786 
L 63.61665 35.721821 
L 64.216638 35.840234 
L 64.404135 35.808303 
L 65.19162 35.86501 
L 65.341617 35.869292 
L 66.129102 35.956191 
L 66.354098 36.141643 
L 67.29158 35.988604 
L 67.366578 35.784104 
L 67.441577 35.156616 
L 67.704072 35.076918 
L 67.81657 35.101358 
L 67.966567 34.494556 
L 68.079065 34.398102 
L 68.191563 33.16583 
L 68.229062 33.210171 
L 68.491557 33.835369 
L 69.129045 33.747664 
L 69.241543 33.335316 
L 69.279042 33.349544 
L 69.39154 33.289355 
L 69.504038 32.568216 
L 69.541537 32.587768 
L 69.766533 32.419861 
L 69.954029 31.450318 
L 70.179025 31.413921 
L 70.329022 31.010259 
L 70.479019 31.12089 
L 70.554018 30.907693 
L 70.591517 30.919989 
L 70.741514 30.974207 
L 70.816513 30.782941 
L 70.854012 30.846305 
L 71.041509 30.62691 
L 71.079008 30.140356 
L 71.116507 30.144761 
L 71.341503 29.954299 
L 71.4915 29.770086 
L 71.603998 29.85129 
L 71.641497 30.701417 
L 71.753995 30.705746 
L 71.791494 30.912623 
L 71.866493 30.859797 
L 72.01649 30.820422 
L 72.391483 30.753002 
L 72.54148 30.618712 
L 72.803975 30.699574 
L 73.103969 30.952428 
L 73.141469 30.737534 
L 73.216467 30.835984 
L 73.366464 31.037645 
L 73.59146 30.729456 
L 73.628959 30.184628 
L 73.703958 30.26321 
L 74.11645 30.042469 
L 74.191449 30.921106 
L 74.266447 30.711993 
L 74.453944 30.665261 
L 74.491443 30.341747 
L 74.528942 30.356692 
L 74.791437 30.249291 
L 74.941434 30.128323 
L 75.016433 30.371232 
L 75.053932 30.345454 
L 75.16643 30.359046 
L 75.278928 30.681474 
L 75.316427 30.34751 
L 75.466424 30.432724 
L 75.503924 30.678518 
L 75.541423 30.456429 
L 75.728919 30.198638 
L 76.028914 30.46929 
L 76.066413 30.375109 
L 76.103912 30.050044 
L 76.328908 30.11244 
L 76.478905 29.816743 
L 76.591403 29.855375 
L 76.7414 30.116624 
L 76.816399 29.943452 
L 76.853898 30.024233 
L 77.003895 30.113926 
L 77.116393 30.532385 
L 77.153892 30.52026 
L 77.416387 30.657984 
L 77.641383 30.954185 
L 77.82888 30.998482 
L 77.903878 31.250169 
L 77.941377 31.216993 
L 78.128874 30.970879 
L 78.35387 30.897746 
L 78.991357 30.749706 
L 79.441349 30.733102 
L 79.478848 30.286405 
L 79.516348 30.302777 
L 79.666345 30.340061 
L 79.778843 30.540531 
L 80.041338 30.439817 
L 80.266333 30.894537 
L 80.303833 30.858938 
L 80.41633 30.850392 
L 80.528828 31.10111 
L 80.678825 30.994943 
L 81.091318 31.114525 
L 81.541309 31.222681 
L 81.728805 30.374515 
L 82.516291 30.500683 
L 82.591289 30.352285 
L 82.666288 30.382877 
L 82.891283 30.452173 
L 82.928783 30.452822 
L 83.153778 30.824527 
L 83.416273 30.806001 
L 83.453773 31.022355 
L 83.978763 30.825682 
L 84.916245 30.70657 
L 85.028743 29.814382 
L 85.441235 29.985777 
L 85.478734 30.039584 
L 85.553733 29.978633 
L 85.966225 30.171297 
L 86.078723 29.997405 
L 86.191221 30.025088 
L 86.22872 29.889644 
L 86.303719 29.992051 
L 86.716211 29.418339 
L 86.75371 29.456997 
L 86.828709 29.376426 
L 87.016205 29.088455 
L 87.316199 29.117258 
L 87.391198 28.157704 
L 87.503696 27.068768 
L 87.578694 27.291021 
L 87.841189 27.329003 
L 88.178683 27.463172 
L 88.441178 26.915817 
L 88.553676 26.968138 
L 88.666174 26.704033 
L 88.703673 26.72123 
L 88.816171 26.265672 
L 88.928669 27.835437 
L 88.966168 27.837038 
L 89.191164 28.318138 
L 89.228663 28.186294 
L 89.341161 28.105272 
L 89.453659 28.300737 
L 89.491158 28.234618 
L 89.753653 28.01465 
L 89.90365 27.99352 
L 89.978649 27.825346 
L 90.016148 27.919883 
L 90.203644 27.817471 
L 90.241144 27.755557 
L 90.391141 27.104594 
L 90.42864 26.869431 
L 90.503639 26.996054 
L 90.541138 27.937455 
L 90.803633 27.406866 
L 90.916131 27.608292 
L 91.066128 27.435746 
L 91.291124 27.084428 
L 91.328623 27.170042 
L 91.591118 27.600129 
L 91.703616 27.61914 
L 91.853613 27.925078 
L 92.228606 27.89162 
L 92.303605 27.913136 
L 92.378603 28.267124 
L 92.903593 28.227513 
L 93.05359 28.099761 
L 93.09109 27.953395 
L 93.166088 28.014892 
L 93.353585 27.961791 
L 93.391084 27.40819 
L 93.428583 27.609906 
L 93.61608 27.312364 
L 93.653579 27.278124 
L 93.691078 27.050086 
L 93.803576 27.169963 
L 93.953573 26.904125 
L 94.10357 26.866285 
L 94.216068 26.586813 
L 94.441064 26.500462 
L 94.591061 26.691098 
L 94.741058 26.991226 
L 94.853556 26.899056 
L 94.891055 26.953838 
L 95.116051 27.051553 
L 95.453545 27.094014 
L 95.491044 26.839512 
L 95.528543 26.85232 
L 95.641041 27.104072 
L 95.67854 27.006126 
L 96.166031 26.808903 
L 96.428526 26.134597 
L 96.541024 26.440472 
L 96.578523 26.414218 
L 96.728521 26.481005 
L 96.841018 26.020741 
L 96.991016 25.854259 
L 97.028515 26.163868 
L 97.103513 26.078036 
L 97.29101 26.152675 
L 97.328509 26.259255 
L 97.366008 68.152158 
L 97.516006 68.202538 
L 97.591004 67.481612 
L 97.628503 67.48763 
L 97.778501 67.444283 
L 97.853499 67.879313 
L 97.890998 67.855109 
L 98.003496 67.789223 
L 98.040996 68.254708 
L 98.115994 67.899124 
L 98.153493 67.781196 
L 98.265991 67.795238 
L 98.415988 67.653194 
L 98.565986 67.366158 
L 98.640984 69.142916 
L 98.678483 69.07614 
L 98.940978 68.434903 
L 99.090976 68.592177 
L 99.203473 69.041039 
L 99.353471 69.837508 
L 99.39097 69.793371 
L 99.465968 69.537269 
L 99.840961 69.446341 
L 99.91596 68.509179 
L 99.990959 68.70581 
L 100.103456 68.785987 
L 100.253454 69.230736 
L 100.628446 69.208461 
L 101.003439 68.466285 
L 101.040939 68.49552 
L 101.190936 68.942161 
L 101.303434 68.544993 
L 101.453431 68.575081 
L 101.565929 68.059338 
L 101.715926 68.229561 
L 101.753425 68.12967 
L 101.790924 68.017459 
L 101.828424 68.061264 
L 101.940921 68.165346 
L 101.978421 68.04534 
L 102.01592 68.158741 
L 102.053419 64.602407 
L 102.090919 67.080923 
L 102.278415 67.187193 
L 102.315914 67.339385 
L 102.353414 66.305148 
L 102.54091 66.286125 
L 102.615909 65.592137 
L 102.728407 65.489851 
L 102.765906 65.716309 
L 102.803405 64.944004 
L 102.878404 65.343115 
L 103.103399 65.388667 
L 103.253397 65.093435 
L 103.328395 65.074416 
L 103.403394 65.286022 
L 103.628389 65.060073 
L 103.778387 64.987093 
L 103.815886 45.228103 
L 103.890884 63.294124 
L 104.040882 63.292559 
L 104.078381 64.617542 
L 104.153379 64.391504 
L 104.190879 64.383587 
L 104.303377 65.198926 
L 104.453374 68.129902 
L 104.64087 67.656784 
L 104.715869 67.143893 
L 104.865866 67.577708 
L 104.903365 67.125317 
L 104.940864 68.10436 
L 104.978364 68.032611 
L 105.240859 68.712825 
L 105.465854 68.277785 
L 105.503354 67.215853 
L 105.615852 67.516797 
L 105.653351 67.269946 
L 105.69085 67.639595 
L 105.72835 67.662166 
L 105.878347 66.795514 
L 105.953345 67.735657 
L 106.028344 67.613931 
L 106.178341 67.70967 
L 106.21584 67.584755 
L 106.290839 67.300547 
L 106.403337 67.294328 
L 106.440836 67.164571 
L 106.515835 67.206133 
L 106.553334 67.330244 
L 106.665832 67.30014 
L 106.703331 66.887874 
L 106.77833 67.179282 
L 106.815829 67.213955 
L 107.040825 66.526194 
L 107.26582 67.568549 
L 107.603314 69.334226 
L 107.715812 69.330746 
L 107.865809 69.112964 
L 108.053305 68.638706 
L 108.128304 68.901075 
L 108.390799 68.852438 
L 108.615795 68.830773 
L 108.765792 69.543003 
L 108.803291 69.519591 
L 108.84079 69.142153 
L 108.915789 69.245847 
L 109.065786 69.269325 
L 109.103285 69.371349 
L 109.140785 69.125977 
L 109.178284 69.254633 
L 109.290782 69.25435 
L 109.440779 69.479083 
L 109.590776 69.600551 
L 109.703274 70.223036 
L 109.815772 70.201343 
L 109.853271 69.983153 
L 109.92827 70.037894 
L 110.115766 70.036731 
L 110.228264 69.85736 
L 110.340762 69.828688 
L 110.378261 69.965442 
L 110.41576 69.605504 
L 110.45326 70.258545 
L 110.490759 70.38327 
L 110.603257 70.370923 
L 110.640756 26.470362 
L 110.715755 26.530904 
L 110.753254 26.566121 
L 111.128247 26.322689 
L 111.203245 26.729361 
L 111.240745 26.571034 
L 111.465741 26.922796 
L 111.653237 26.887905 
L 112.065729 26.25314 
L 112.215726 27.10531 
L 112.253226 26.95282 
L 112.440722 26.837249 
L 112.478221 26.922379 
L 112.55322 26.450795 
L 112.590719 26.479096 
L 112.815715 26.528244 
L 112.965712 26.412251 
L 113.115709 26.562677 
L 113.228207 26.481863 
L 113.378204 26.847292 
L 113.565701 26.799403 
L 113.640699 27.2878 
L 113.790696 27.261011 
L 113.865695 27.543423 
L 113.903194 27.533471 
L 114.12819 27.506138 
L 114.353186 27.4946 
L 114.390685 27.568057 
L 114.428184 27.492615 
L 115.328167 27.494207 
L 115.478164 26.711728 
L 116.003154 27.221624 
L 116.22815 26.941392 
L 116.265649 27.059435 
L 117.203132 27.067562 
L 117.728122 24.298737 
L 117.765621 24.368278 
L 117.953117 23.769026 
L 117.990617 23.72608 
L 118.215612 22.470796 
L 118.253112 22.455713 
L 118.365609 22.233253 
L 118.778102 22.138648 
L 118.890599 21.587806 
L 119.115595 21.773386 
L 119.153094 21.168607 
L 119.303092 21.262631 
L 119.340591 21.210217 
L 119.37809 21.143144 
L 119.415589 21.243601 
L 119.90308 21.509596 
L 119.940579 21.345165 
L 120.053077 21.359454 
L 120.090577 21.536895 
L 120.128076 21.361033 
L 120.203075 21.192077 
L 120.315572 21.363337 
L 120.578067 20.006767 
L 120.728065 20.299692 
L 121.103057 20.901839 
L 121.140557 21.080327 
L 121.215555 21.050463 
L 121.365552 21.062184 
L 121.440551 21.086269 
L 121.51555 21.619008 
L 121.628047 21.63083 
L 121.703046 22.288757 
L 121.778045 22.191373 
L 121.890542 22.225195 
L 121.928042 22.569789 
L 122.00304 24.263332 
L 122.04054 24.252641 
L 122.678027 24.891892 
L 122.828025 24.933684 
L 123.465513 25.553859 
L 123.728008 25.113522 
L 123.840505 25.807196 
L 123.878005 25.697439 
L 124.028002 25.652781 
L 124.103 25.564468 
L 124.1405 25.816582 
L 124.327996 25.810129 
L 124.365495 25.455398 
L 124.402995 25.51707 
L 124.552992 25.612496 
L 124.590491 25.659887 
L 124.66549 26.3629 
L 124.815487 26.701908 
L 124.927985 27.606326 
L 125.15298 28.592352 
L 125.19048 28.559549 
L 125.302978 28.553696 
L 125.340477 29.25306 
L 125.415475 28.8894 
L 125.565473 29.056631 
L 125.902966 29.263401 
L 125.977965 29.780443 
L 126.090463 29.843071 
L 126.202961 31.071938 
L 126.24046 31.044461 
L 126.352958 31.12323 
L 126.390457 31.331877 
L 126.427956 31.25212 
L 126.502955 31.060461 
L 126.690451 31.268807 
L 126.76545 31.34987 
L 126.877948 31.09226 
L 127.027945 31.567098 
L 127.252941 31.448956 
L 127.402938 31.726352 
L 127.552935 32.371822 
L 127.665433 32.083316 
L 127.702932 33.080252 
L 127.777931 33.072881 
L 128.227922 33.15571 
L 128.265421 33.479911 
L 128.34042 33.400603 
L 128.452918 33.410794 
L 128.602915 34.155652 
L 128.827911 34.631706 
L 129.090406 35.034252 
L 129.127905 34.989869 
L 129.3904 34.891049 
L 129.502898 35.001202 
L 129.540397 34.956925 
L 129.652895 34.855988 
L 130.065387 34.695993 
L 130.327882 34.50759 
L 130.590377 35.034697 
L 130.627876 34.98616 
L 130.665376 34.979203 
L 130.702875 34.335167 
L 130.852872 34.352611 
L 130.96537 34.603816 
L 131.115367 34.352704 
L 131.190366 34.553136 
L 131.227865 34.515884 
L 131.340363 34.643131 
L 131.377862 34.568278 
L 131.677856 34.444171 
L 131.752855 34.449117 
L 131.902852 34.199854 
L 131.940352 74.276146 
L 132.01535 74.243338 
L 132.127848 74.249342 
L 132.277845 74.034347 
L 132.652838 73.91498 
L 132.802835 74.044883 
L 133.215327 73.962506 
L 133.290326 73.847572 
L 133.327825 74.057119 
L 133.440323 73.867077 
L 133.515322 73.936104 
L 133.59032 73.995351 
L 134.040312 73.992945 
L 134.302807 74.130338 
L 134.340306 74.058377 
L 134.377805 74.087229 
L 134.790297 74.067122 
L 134.902795 74.269187 
L 135.127791 74.465928 
L 135.315287 75.908815 
L 135.352787 75.878589 
L 135.390286 75.952721 
L 135.427785 76.018228 
L 135.802778 75.849395 
L 135.952775 75.204768 
L 136.365267 75.260433 
L 136.402767 75.218629 
L 136.440266 32.921229 
L 136.477765 75.427315 
L 136.627762 75.473369 
L 136.74026 32.734054 
L 136.852758 75.578762 
L 136.890257 75.570473 
L 137.002755 32.429508 
L 137.752741 32.455769 
L 137.79024 32.595257 
L 137.902738 32.549945 
L 138.015236 32.154937 
L 138.052735 32.184439 
L 138.240232 31.839882 
L 138.31523 31.527945 
L 138.465228 31.355909 
L 138.502727 31.468074 
L 138.540226 31.487127 
L 138.690223 31.294017 
L 138.727723 31.376704 
L 138.802721 31.281636 
L 138.990218 31.234449 
L 139.327711 30.805775 
L 139.477708 30.57582 
L 139.627705 30.23487 
L 139.740203 30.247796 
L 139.815202 30.401296 
L 139.852701 30.271417 
L 140.115196 30.320742 
L 140.152695 30.093082 
L 140.565188 30.098619 
L 140.677686 29.93229 
L 140.790183 29.959775 
L 140.940181 28.648083 
L 141.052678 28.935812 
L 141.127677 28.677593 
L 141.165176 28.734863 
L 141.315173 29.093782 
L 141.352673 29.060092 
L 141.390172 29.216655 
L 141.427671 29.055671 
L 141.465171 28.947745 
L 141.652667 28.990048 
L 141.727666 28.216779 
L 141.952661 27.416051 
L 142.102658 27.742979 
L 142.365153 27.333472 
L 142.402653 27.431464 
L 142.477651 27.600073 
L 142.515151 27.558985 
L 142.740146 27.31424 
L 142.777646 27.417707 
L 143.302636 27.8858 
L 143.415133 27.892681 
L 143.452633 27.584244 
L 143.490132 28.012558 
L 143.715128 28.025795 
L 143.752627 27.847421 
L 143.827626 27.984494 
L 143.977623 28.071536 
L 144.015122 27.682265 
L 144.090121 27.926466 
L 144.615111 27.423068 
L 144.765108 27.456976 
L 144.877606 27.704085 
L 145.027603 27.624652 
L 145.252599 28.272272 
L 145.402596 28.099433 
L 145.777589 28.434095 
L 145.815088 28.348618 
L 145.927586 28.360944 
L 146.040084 28.483529 
L 146.077583 28.205774 
L 146.152581 28.294028 
L 146.602573 29.392231 
L 146.715071 29.327154 
L 146.902567 29.393767 
L 146.977566 29.519687 
L 147.090064 29.462681 
L 147.240061 29.648323 
L 147.615054 29.66598 
L 147.765051 29.803386 
L 148.027546 29.86748 
L 148.290041 29.801451 
L 148.440038 29.820854 
L 148.552536 29.671971 
L 148.665034 29.63962 
L 148.815031 28.860819 
L 149.040027 28.324998 
L 149.077526 27.773046 
L 149.227523 27.863266 
L 149.340021 28.097628 
L 149.490018 28.154633 
L 149.602516 27.856273 
L 150.052507 27.930059 
L 150.240004 28.142881 
L 150.352502 27.989518 
L 150.390001 28.127774 
L 150.502499 28.036756 
L 150.539998 28.131728 
L 150.764994 28.419225 
L 150.877492 28.189589 
L 150.914991 28.198137 
L 151.027489 28.191619 
L 151.064988 28.336148 
L 151.102487 28.083789 
L 151.439981 28.052562 
L 151.552479 28.185815 
L 151.664977 28.667811 
L 151.927472 28.523931 
L 151.964971 28.443138 
L 152.489961 28.524689 
L 152.714957 28.585709 
L 152.864954 28.898629 
L 153.014951 29.155757 
L 153.239947 32.136421 
L 153.277446 32.082294 
L 153.389944 32.397107 
L 153.464943 32.356909 
L 153.764937 32.609107 
L 154.027432 33.020454 
L 154.477423 33.028508 
L 154.702419 32.828225 
L 154.852416 33.09605 
L 155.489904 33.209888 
L 155.564903 33.366231 
L 155.864897 33.246498 
L 155.902396 33.597621 
L 156.389887 33.606861 
L 157.064874 33.731898 
L 157.214871 33.631037 
L 157.327369 33.637064 
L 157.477366 33.494012 
L 157.927358 33.531275 
L 158.002356 33.863034 
L 158.452348 33.797573 
L 158.527346 33.572238 
L 158.939839 33.46006 
L 159.014837 33.227343 
L 159.052336 33.245504 
L 159.464829 33.259845 
L 159.839821 32.738106 
L 160.064817 33.043284 
L 160.214814 32.996209 
L 160.852302 33.024137 
L 161.114797 32.962003 
L 162.127278 33.223092 
L 162.202277 33.269126 
L 162.464772 33.251021 
L 162.727267 32.932153 
L 163.177258 32.950589 
L 163.252257 33.155288 
L 163.477252 33.227356 
L 163.664749 33.868125 
L 163.702248 33.776925 
L 163.739747 33.950207 
L 163.777247 33.841118 
L 163.889744 33.775698 
L 163.927244 33.85445 
L 164.227238 34.163581 
L 164.489733 34.217846 
L 164.789727 36.392046 
L 164.827227 36.228923 
L 164.939725 36.227894 
L 165.089722 37.108493 
L 165.502214 37.271252 
L 165.614712 37.595297 
L 165.802208 37.667444 
L 165.877207 37.97053 
L 166.102202 38.247734 
L 166.2522 38.62793 
L 166.327198 38.631412 
L 166.402197 38.022533 
L 166.589693 38.142891 
L 166.664692 38.001392 
L 167.114683 37.937322 
L 167.339679 37.821808 
L 167.939668 37.82604 
L 167.977167 37.777207 
L 168.35216 38.016107 
L 168.389659 37.957312 
L 168.914649 38.028261 
L 169.027147 38.04927 
L 169.139645 38.042479 
L 169.252143 37.827845 
L 169.439639 37.875066 
L 169.514638 37.988233 
L 169.552137 37.960617 
L 169.739633 38.055962 
L 169.814632 38.131733 
L 170.264623 38.063011 
L 170.339622 38.096771 
L 170.527118 38.162236 
L 170.97711 38.716785 
L 171.127107 38.790485 
L 171.239605 38.890016 
L 171.277104 38.802542 
L 171.389602 38.711912 
L 171.614598 38.786884 
L 171.764595 38.894452 
L 172.289585 38.926492 
L 172.402083 39.128555 
L 172.439582 39.090908 
L 172.814575 39.250421 
L 173.152069 39.208502 
L 173.227067 39.132514 
L 173.60206 39.384532 
L 173.939554 39.360376 
L 174.014552 39.471281 
L 174.539542 39.528149 
L 175.289528 39.866905 
L 175.477024 39.799939 
L 175.589522 39.915296 
L 176.864498 39.943822 
L 176.901997 39.816041 
L 177.164492 39.824674 
L 177.651983 39.834189 
L 177.689482 39.905327 
L 177.839479 39.811833 
L 177.876979 39.67323 
L 177.951977 38.92427 
L 178.176973 38.981021 
L 178.214472 38.690894 
L 178.32697 38.733233 
L 178.439468 38.477556 
L 178.589465 38.647401 
L 178.964458 38.444978 
L 179.001957 38.546092 
L 179.114455 38.522067 
L 179.264452 38.170706 
L 179.37695 38.091536 
L 179.526947 37.429575 
L 179.639445 37.450219 
L 179.789442 37.294313 
L 179.90194 37.209612 
L 179.93944 37.314772 
L 180.801923 37.813188 
L 180.95192 37.785046 
L 181.251915 37.869921 
L 181.326913 37.89221 
L 181.51441 37.74828 
L 182.076899 37.720414 
L 182.151898 37.604063 
L 182.376893 37.674235 
L 182.601889 37.76884 
L 182.826885 37.611236 
L 182.864384 37.695282 
L 182.939383 37.595943 
L 183.05188 37.549853 
L 183.126879 37.898082 
L 183.164378 37.800201 
L 183.201878 37.767559 
L 183.426873 38.430501 
L 183.464373 38.40825 
L 183.726868 38.214752 
L 183.914364 38.275597 
L 183.951863 38.085982 
L 183.989363 38.232301 
L 184.364355 37.764548 
L 184.476853 37.782473 
L 184.701849 37.773595 
L 184.739348 37.741312 
L 184.776848 38.009652 
L 184.964344 37.932297 
L 185.001843 70.400696 
L 185.039343 37.996059 
L 185.18934 38.058384 
L 185.226839 70.228393 
L 185.264338 38.077518 
L 185.301838 38.216076 
L 185.676831 38.065151 
L 185.751829 70.291656 
L 185.789328 69.860618 
L 185.939326 69.79221 
L 186.051823 69.751728 
L 186.351818 69.677965 
L 186.501815 69.519535 
L 186.614313 69.739481 
L 186.839308 69.427189 
L 186.989306 68.455438 
L 187.101803 68.308353 
L 187.139303 68.343338 
L 187.251801 68.413084 
L 187.401798 68.134835 
L 187.514296 68.170104 
L 187.664293 67.993552 
L 187.851789 67.805581 
L 188.039286 67.644842 
L 188.301781 67.428731 
L 188.376779 67.085943 
L 188.451778 67.125201 
L 188.564276 67.142266 
L 188.714273 66.554894 
L 189.426759 66.495513 
L 189.614256 66.404663 
L 190.739234 66.36163 
L 190.926731 66.164171 
L 190.96423 66.204319 
L 191.714216 66.072514 
L 191.864213 66.118906 
L 192.651698 66.077773 
L 193.439183 65.814269 
L 193.62668 65.707579 
L 193.664179 65.663977 
L 193.814176 65.351911 
L 193.889175 65.368784 
L 193.964173 65.193964 
L 194.11417 65.170617 
L 194.189169 65.013554 
L 194.226668 65.030499 
L 194.339166 65.010937 
L 194.451664 64.856046 
L 194.489163 64.871863 
L 194.63916 64.903034 
L 194.751658 64.741904 
L 194.976654 64.629995 
L 195.239149 64.551148 
L 195.426645 64.422025 
L 195.651641 64.416688 
L 195.68914 64.114587 
L 195.764139 44.154252 
L 195.801638 44.249829 
L 196.064133 44.328325 
L 196.176631 63.970302 
L 196.21413 44.408515 
L 196.289129 44.488076 
L 196.326628 44.61881 
L 196.589123 44.543589 
L 196.73912 44.747852 
L 196.851618 45.629138 
L 197.30161 45.735216 
L 197.376608 45.757245 
L 197.864099 45.833311 
L 198.051595 45.843636 
L 198.914079 45.94091 
L 199.476568 46.026638 
L 200.189055 45.94707 
L 200.264053 46.059333 
L 200.414051 46.165883 
L 200.639046 46.185815 
L 200.676546 46.135052 
L 200.714045 46.211752 
L 200.901541 46.325735 
L 201.314033 46.290059 
L 201.576528 46.177681 
L 202.251516 46.024529 
L 202.589009 46.058482 
L 203.113999 46.08945 
L 207.27642 46.0703 
L 207.351419 46.156424 
L 207.763911 46.063095 
L 208.101405 46.04774 
L 208.288901 46.007163 
L 208.88889 45.921187 
L 208.926389 45.741511 
L 209.451379 45.717889 
L 209.826372 45.514599 
L 209.90137 45.506395 
L 209.93887 45.332999 
L 209.976369 44.488641 
L 210.201365 44.388295 
L 210.351362 44.310862 
L 210.876352 44.296577 
L 210.98885 44.264732 
L 211.176346 44.306166 
L 213.05131 43.935174 
L 213.126309 43.895643 
L 213.388804 43.637441 
L 213.501302 43.653534 
L 213.651299 42.955675 
L 213.913794 42.983975 
L 214.176289 42.465905 
L 214.926275 42.39117 
L 214.963774 42.401797 
L 215.113771 42.266484 
L 215.151271 42.669686 
L 215.226269 42.61121 
L 217.326229 42.552375 
L 217.701222 42.519217 
L 217.81372 42.513294 
L 218.376209 43.151642 
L 219.613686 43.628782 
L 219.651185 43.379332 
L 219.688684 43.416472 
L 219.876181 43.337425 
L 220.063677 43.27276 
L 220.213674 43.286678 
L 220.363672 43.124516 
L 220.401171 43.192227 
L 220.588667 43.12807 
L 220.701165 43.068246 
L 220.738664 43.088343 
L 220.926161 43.002836 
L 221.001159 43.208061 
L 221.976141 43.313077 
L 222.313634 43.46724 
L 222.501131 43.45034 
L 222.53863 43.531407 
L 222.57613 43.47906 
L 222.763626 43.463025 
L 223.363615 43.438878 
L 223.738607 43.44754 
L 224.1511 43.492091 
L 224.67609 43.520621 
L 225.913566 43.452891 
L 225.988565 43.405502 
L 227.038545 43.525934 
L 227.30104 43.582944 
L 228.35102 43.528002 
L 228.613515 43.19048 
L 230.375981 43.131741 
L 230.45098 43.015114 
L 230.638476 42.936819 
L 230.97597 42.825147 
L 231.125967 42.813246 
L 231.50096 41.979228 
L 231.650957 41.89748 
L 231.950951 41.503138 
L 232.02595 41.428389 
L 232.288445 41.162103 
L 232.513441 40.994442 
L 232.663438 40.899829 
L 232.775936 40.895876 
L 232.925933 40.727321 
L 233.07593 40.516208 
L 233.300926 40.420775 
L 233.60092 40.207107 
L 234.12591 39.833079 
L 234.238408 39.759186 
L 234.388405 39.183098 
L 234.875896 38.658813 
L 234.913395 38.690816 
L 235.363387 38.462324 
L 235.438385 38.256448 
L 235.550883 38.28434 
L 235.70088 37.974131 
L 235.813378 37.937324 
L 235.963375 37.582365 
L 236.150872 37.495086 
L 236.188371 37.51073 
L 236.22587 37.386834 
L 236.413367 37.446431 
L 236.488365 37.261788 
L 236.675862 37.255605 
L 236.713361 37.13444 
L 236.75086 37.170386 
L 236.938357 37.110786 
L 237.125853 37.201802 
L 237.27585 37.234069 
L 237.650843 36.549794 
L 237.950837 36.512646 
L 238.063335 36.299333 
L 238.213332 36.215092 
L 238.32583 35.780949 
L 238.438328 35.756976 
L 238.588325 35.591217 
L 238.738322 35.63851 
L 238.85082 35.705867 
L 239.300812 35.507312 
L 239.338311 35.357493 
L 239.37581 35.387439 
L 239.638305 35.354083 
L 239.825802 35.359938 
L 239.9008 35.206348 
L 240.013298 35.230153 
L 240.163295 34.270508 
L 240.350792 34.369857 
L 240.388291 33.924125 
L 240.42579 33.999805 
L 240.613287 34.198572 
L 240.688285 34.078639 
L 240.875782 33.992319 
L 240.913281 34.204325 
L 240.95078 34.177723 
L 241.175776 34.045079 
L 241.213275 34.150445 
L 241.400772 34.132951 
L 241.438271 34.139747 
L 241.588268 33.985391 
L 241.625768 34.124573 
L 241.663267 34.009979 
L 241.738265 33.91765 
L 241.850763 33.936069 
L 242.00076 34.164335 
L 242.450752 34.232401 
L 242.488251 33.949452 
L 242.52575 34.126999 
L 242.750746 34.177807 
L 242.788245 33.895851 
L 243.050741 33.954775 
L 243.163238 33.860885 
L 243.200738 34.029342 
L 243.275736 33.902664 
L 243.500732 33.627036 
L 243.575731 33.466054 
L 243.763227 33.647087 
L 243.838226 33.452821 
L 244.100721 33.613424 
L 244.813207 33.089952 
L 244.850706 33.14744 
L 244.888206 33.067376 
L 245.525693 33.127584 
L 245.638191 33.273594 
L 245.788188 33.199903 
L 245.900686 33.226364 
L 246.050684 33.410067 
L 246.425676 33.75056 
L 246.463176 33.681588 
L 246.688171 33.625655 
L 246.988166 33.383175 
L 247.213161 33.283216 
L 247.475656 32.758969 
L 247.738151 32.443623 
L 248.000646 32.397933 
L 248.150644 32.541361 
L 248.525636 32.304861 
L 248.563136 32.127669 
L 248.975628 32.212471 
L 249.013127 32.368613 
L 249.088126 32.247083 
L 249.350621 31.959859 
L 249.538117 31.921522 
L 249.575617 31.70332 
L 249.613116 31.756435 
L 250.100607 31.589148 
L 250.288103 31.293132 
L 250.325602 31.378023 
L 250.400601 31.287145 
L 250.775594 31.410052 
L 251.075588 31.454935 
L 251.188086 31.293814 
L 251.450581 31.251607 
L 251.825574 31.598399 
L 251.938072 31.580866 
L 252.088069 31.458933 
L 252.163067 31.551749 
L 252.200567 31.669284 
L 252.238066 31.523875 
L 252.350564 31.603746 
L 252.388063 31.397866 
L 252.463062 31.446443 
L 252.500561 31.416273 
L 252.688057 31.466043 
L 252.725557 31.388749 
L 252.763056 31.480922 
L 252.913053 31.417532 
L 253.025551 31.604699 
L 253.513042 31.544682 
L 253.813036 30.850416 
L 254.075531 30.764491 
L 254.188029 30.429473 
L 254.263027 30.466548 
L 254.713019 30.296123 
L 254.788018 30.623191 
L 254.825517 30.396531 
L 255.050513 30.400408 
L 255.238009 29.859461 
L 255.275508 29.873618 
L 255.388006 30.321304 
L 255.538003 30.133366 
L 255.575503 30.163157 
L 255.650501 30.634522 
L 255.762999 30.695513 
L 255.875497 30.237806 
L 255.912996 30.301293 
L 256.362988 30.249713 
L 256.400487 30.034031 
L 256.437986 30.061975 
L 256.587983 30.143583 
L 256.700481 30.306633 
L 257.150473 29.820614 
L 257.187972 29.688657 
L 257.225471 29.712798 
L 257.750461 29.632312 
L 258.125454 29.439145 
L 258.275451 29.55469 
L 258.537946 29.689803 
L 258.650444 29.763402 
L 258.800441 29.423167 
L 258.912939 29.382655 
L 259.062936 29.581206 
L 259.587926 28.576097 
L 259.737923 28.497468 
L 259.962919 28.499551 
L 260.000418 28.691492 
L 260.075417 28.67254 
L 260.375411 28.385067 
L 260.600407 28.485012 
L 260.862902 28.541371 
L 260.900401 28.413986 
L 261.012899 79.890695 
L 261.050399 79.815257 
L 261.125397 79.9239 
L 261.162896 28.405327 
L 261.275394 28.436057 
L 261.425391 28.331007 
L 261.612888 28.182969 
L 261.650387 28.281668 
L 261.687886 80.15137 
L 261.800384 80.13921 
L 261.837884 80.018671 
L 261.950381 79.375219 
L 262.362874 79.103492 
L 262.850364 77.932457 
L 262.887864 78.027459 
L 262.925363 77.914719 
L 263.187858 77.994384 
L 263.450353 78.027652 
L 263.525352 77.936391 
L 263.712848 77.953 
L 263.787847 78.17934 
L 263.937844 78.051727 
L 263.975343 78.14552 
L 264.012842 77.891393 
L 264.050342 77.914856 
L 264.575332 78.131953 
L 264.725329 78.00821 
L 264.837827 78.500091 
L 265.212819 78.416055 
L 265.362817 77.97942 
L 265.625312 78.196829 
L 265.775309 78.233916 
L 265.812808 78.325138 
L 265.850307 78.204908 
L 266.112802 78.147677 
L 266.300299 78.36843 
L 266.412797 78.30901 
L 266.525295 78.315625 
L 266.562794 78.094067 
L 266.637792 78.232683 
L 266.78779 78.277754 
L 266.862788 78.473138 
L 266.900287 78.378098 
L 267.162782 78.535181 
L 267.31278 78.636545 
L 267.387778 78.420403 
L 267.462777 78.502898 
L 267.650273 78.235801 
L 267.687772 78.35466 
L 267.83777 78.376857 
L 267.912768 78.182273 
L 267.950267 78.375552 
L 267.987767 78.544072 
L 268.475257 78.289888 
L 268.737752 79.143639 
L 268.775252 79.085655 
L 269.037747 79.766964 
L 269.150245 79.874403 
L 269.262743 79.394579 
L 269.300242 79.558501 
L 269.562737 79.603154 
L 269.825232 80.029723 
L 270.012728 80.078794 
L 270.200225 79.455417 
L 270.237724 79.468572 
L 270.312723 79.177781 
L 270.350222 79.298766 
L 270.537718 79.314507 
L 270.612717 79.00125 
L 270.725215 79.04658 
L 270.98771 78.076133 
L 271.025209 78.09849 
L 271.250205 77.731846 
L 271.325203 77.651427 
L 271.362703 77.116349 
L 271.400202 77.130032 
L 271.587698 76.682715 
L 271.625198 31.546042 
L 271.662697 76.775769 
L 271.850193 76.842858 
L 271.887693 76.25214 
L 271.925192 32.037557 
L 272.187687 32.05943 
L 272.300185 76.285729 
L 272.337684 31.958448 
L 272.375183 32.002276 
L 272.412683 76.201434 
L 272.450182 32.073826 
L 272.600179 76.231973 
L 272.637678 75.982655 
L 272.712677 75.720805 
L 272.900173 32.738568 
L 272.937673 75.478041 
L 272.975172 75.360733 
L 273.08767 75.406901 
L 273.200168 32.873813 
L 273.61266 32.932286 
L 273.725158 33.154382 
L 273.762657 33.083781 
L 274.437644 33.058619 
L 274.475143 33.269832 
L 274.512643 33.245996 
L 274.550142 75.069746 
L 274.66264 33.259921 
L 274.737638 33.35195 
L 274.812637 33.390081 
L 274.962634 33.375172 
L 275.000133 74.915264 
L 275.037633 33.289041 
L 275.075132 32.953646 
L 275.262629 75.418005 
L 275.300128 32.870663 
L 275.337627 75.479092 
L 275.487624 75.47043 
L 275.525124 75.341948 
L 275.600122 75.472105 
L 275.750119 75.557516 
L 275.787619 75.827242 
L 275.862617 75.685357 
L 276.23761 76.174399 
L 276.387607 76.103757 
L 277.062594 76.120668 
L 277.28759 76.4256 
L 277.700082 76.116477 
L 277.850079 76.044008 
L 277.962577 76.16251 
L 278.412569 76.109579 
L 278.450068 76.335727 
L 278.487567 76.326601 
L 278.600065 76.326422 
L 278.637564 76.466461 
L 278.712563 76.432143 
L 278.750062 76.410362 
L 279.537547 76.603584 
L 279.762543 76.494954 
L 279.800042 76.657923 
L 280.175035 76.683462 
L 280.287533 76.729277 
L 280.550028 76.644398 
L 280.737524 76.819517 
L 280.775024 76.807471 
L 280.850022 77.061141 
L 280.96252 77.060921 
L 281.037519 31.792222 
L 281.075018 31.793728 
L 281.562509 32.233776 
L 281.637507 32.309376 
L 281.750005 32.133024 
L 281.787505 32.163721 
L 281.900002 32.246147 
L 282.312495 32.195495 
L 282.387493 32.196599 
L 282.53749 31.820975 
L 282.687487 31.878237 
L 283.174978 31.981673 
L 283.212477 31.98596 
L 283.324975 32.135315 
L 283.474972 31.754077 
L 283.662469 31.561523 
L 283.737467 31.761415 
L 283.849965 31.795168 
L 283.999963 31.449109 
L 284.11246 31.465551 
L 284.224958 30.937465 
L 284.262458 30.978245 
L 284.487453 30.678638 
L 284.63745 30.59839 
L 284.67495 30.060253 
L 284.749948 30.190629 
L 284.787448 30.203227 
L 284.899945 29.969908 
L 284.937445 30.019378 
L 285.012443 30.171677 
L 285.049943 30.098443 
L 285.16244 30.110471 
L 285.19994 29.31316 
L 285.274938 29.381645 
L 285.312438 29.442625 
L 285.574933 29.289158 
L 285.68743 29.302387 
L 285.799928 29.059795 
L 285.837428 29.071421 
L 286.287419 27.730642 
L 286.324918 27.746879 
L 286.362418 27.783019 
L 286.474915 27.701686 
L 286.624913 29.060201 
L 286.849908 29.377154 
L 286.999906 29.940208 
L 287.037405 29.977794 
L 287.149903 30.596631 
L 287.262401 30.485396 
L 287.412398 31.122133 
L 287.562395 31.159443 
L 287.674893 31.365559 
L 287.787391 31.242747 
L 287.862389 31.95545 
L 287.937388 31.893007 
L 288.087385 31.941616 
L 288.387379 32.360855 
L 288.462378 32.303069 
L 288.574876 32.319302 
L 288.724873 32.892 
L 288.949868 32.771 
L 288.987368 32.786942 
L 289.099866 32.956454 
L 289.174864 32.881425 
L 289.249863 32.971809 
L 289.737354 33.079906 
L 289.774853 33.482517 
L 289.999849 33.501593 
L 290.149846 33.589484 
L 290.224844 33.771226 
L 290.262344 34.225012 
L 290.299843 34.220352 
L 290.44984 34.312149 
L 290.562338 34.80838 
L 290.674836 34.95475 
L 290.749834 35.298612 
L 290.787334 35.231039 
L 291.087328 35.323451 
L 291.237325 35.555336 
L 291.312324 35.948648 
L 291.349823 35.939975 
L 291.612318 36.046528 
L 291.724816 36.064297 
L 291.874813 36.488872 
L 292.399803 36.835412 
L 292.624799 36.880795 
L 292.662298 37.124406 
L 292.774796 37.123337 
L 292.924793 37.321958 
L 293.037291 37.366581 
L 293.187288 37.717002 
L 293.337285 37.708258 
L 293.449783 37.909063 
L 293.824776 38.131898 
L 293.937274 38.409574 
L 293.974773 38.39912 
L 294.162269 38.451599 
L 294.199769 38.536166 
L 294.237268 38.281481 
L 294.949754 38.365138 
L 295.024753 38.471901 
L 295.137251 38.495228 
L 295.287248 39.002439 
L 295.399746 39.046182 
L 295.512244 39.650873 
L 295.549743 39.640877 
L 295.812238 39.826746 
L 295.924736 39.822929 
L 295.999735 40.009323 
L 296.037234 39.992769 
L 296.487225 40.061558 
L 296.599723 40.211401 
L 297.124713 40.258342 
L 297.387208 40.318391 
L 297.649703 40.323084 
L 298.36219 40.244668 
L 298.587185 40.435984 
L 298.812181 40.497554 
L 299.149675 40.584912 
L 299.187174 40.661934 
L 299.224673 40.643478 
L 299.599666 40.661667 
L 299.712164 40.852277 
L 299.749663 40.812053 
L 300.762144 41.022206 
L 300.912141 41.091854 
L 301.062138 41.032128 
L 301.324633 41.029309 
L 301.699626 41.075432 
L 301.774625 41.06237 
L 301.812124 41.17702 
L 301.849623 41.061055 
L 302.112118 41.220513 
L 302.299615 41.762958 
L 302.487111 42.494772 
L 302.637108 42.484093 
L 302.899603 43.261371 
L 303.012101 43.321858 
L 303.162098 43.944315 
L 303.312096 43.947098 
L 303.424593 44.500594 
L 303.799586 44.756654 
L 303.912084 45.374366 
L 303.949583 45.363155 
L 304.099581 45.417988 
L 304.212078 45.593248 
L 304.399575 45.713442 
L 304.474574 45.986217 
L 304.66207 46.078561 
L 305.262059 46.785498 
L 305.974545 47.030808 
L 306.312039 47.042102 
L 306.949526 47.094484 
L 307.099524 47.246364 
L 307.737012 47.347776 
L 307.887009 47.395957 
L 308.411999 47.472885 
L 309.724474 47.883878 
L 310.136966 47.957864 
L 311.749435 48.158128 
L 313.324405 48.166884 
L 315.649361 48.058162 
L 315.911856 47.996841 
L 316.024354 47.901446 
L 316.399347 47.800468 
L 316.474346 47.705166 
L 316.511845 47.740243 
L 316.549344 47.742188 
L 316.811839 47.583306 
L 317.036835 47.501246 
L 317.186832 47.316873 
L 318.049316 46.848209 
L 318.124314 46.707146 
L 318.311811 46.687094 
L 318.386809 46.351262 
L 318.574306 46.260054 
L 318.649304 46.178483 
L 318.8743 46.054871 
L 319.024297 45.894026 
L 319.174294 45.814421 
L 319.811782 45.725269 
L 320.111776 45.599847 
L 320.186775 45.600903 
L 320.336772 45.20022 
L 320.711765 44.947916 
L 320.899261 44.96857 
L 321.161756 44.768332 
L 321.49925 44.569796 
L 321.649247 44.396336 
L 321.724246 44.395019 
L 321.799244 44.237593 
L 321.911742 44.23663 
L 322.061739 43.722282 
L 322.174237 43.724474 
L 322.324234 43.440169 
L 322.511731 43.198971 
L 322.586729 42.532877 
L 322.736727 42.456682 
L 323.111719 41.78125 
L 323.224217 41.760874 
L 323.374214 41.105262 
L 323.561711 41.011814 
L 323.636709 40.364941 
L 323.786707 40.332583 
L 323.861705 40.195439 
L 323.899204 40.225287 
L 324.086701 40.149974 
L 324.161699 39.801001 
L 324.311697 39.729297 
L 324.386695 39.509287 
L 324.424194 39.568955 
L 324.536692 39.219659 
L 324.574192 39.34513 
L 324.611691 39.3507 
L 324.64919 39.238066 
L 324.686689 39.307081 
L 324.911685 39.718168 
L 325.061682 39.461096 
L 325.324177 39.623493 
L 325.361677 39.57059 
L 325.399176 39.564041 
L 325.474175 39.812479 
L 325.624172 39.90925 
L 325.69917 39.869274 
L 325.73667 40.079057 
L 325.999165 40.084971 
L 326.674152 40.097133 
L 326.711651 40.119782 
L 326.74915 40.023711 
L 326.78665 40.027615 
L 326.936647 39.824291 
L 327.049145 39.995939 
L 327.499136 40.097538 
L 327.686632 40.210053 
L 328.024126 40.152722 
L 328.099125 39.955211 
L 328.549116 40.08436 
L 328.586615 40.121209 
L 328.624115 40.023887 
L 329.036607 40.096541 
L 329.149105 40.268722 
L 329.4116 40.216411 
L 329.599096 40.168975 
L 329.674095 40.105833 
L 329.786593 40.139021 
L 329.89909 39.955185 
L 330.049088 40.02583 
L 330.311583 39.974323 
L 330.386581 40.047581 
L 330.42408 40.024778 
L 330.724075 39.927231 
L 331.249065 39.436203 
L 332.449042 39.441763 
L 332.56154 39.494543 
L 333.536521 39.382626 
L 333.724018 39.353691 
L 333.986513 39.191413 
L 334.13651 39.107341 
L 334.399005 39.02234 
L 334.624001 38.764202 
L 334.773998 38.842051 
L 334.848996 38.889114 
L 334.886496 38.81353 
L 335.71148 38.871935 
L 335.898976 38.959608 
L 336.086473 39.037674 
L 336.498965 39.181738 
L 336.948957 39.23182 
L 337.473947 39.171143 
L 337.548945 39.054733 
L 337.736442 38.947301 
L 338.073935 37.863411 
L 338.33643 37.669966 
L 338.486427 37.155078 
L 338.561426 37.18124 
L 338.598925 37.218549 
L 338.86142 36.505801 
L 338.973918 36.571792 
L 339.086416 35.9381 
L 339.123915 35.941465 
L 339.236413 35.54588 
L 339.273912 35.573323 
L 339.311412 35.828593 
L 339.38641 35.681017 
L 339.573907 35.743021 
L 339.611406 35.604445 
L 339.648905 35.697181 
L 339.761403 35.571949 
L 339.798902 35.614057 
L 339.836402 35.713402 
L 339.9114 35.235017 
L 340.136396 35.357222 
L 340.286393 34.964913 
L 340.361392 35.01139 
L 340.398891 34.872164 
L 340.43639 34.93081 
L 340.548888 34.930373 
L 340.698885 34.382139 
L 340.96138 34.131769 
L 341.111377 34.274269 
L 341.148877 34.092617 
L 341.373872 34.046212 
L 341.411372 34.267414 
L 341.448871 34.227874 
L 341.48637 33.801672 
L 341.598868 33.82347 
L 341.861363 36.829975 
L 341.973861 38.476496 
L 342.01136 38.474651 
L 342.123858 38.559605 
L 342.161357 38.506178 
L 342.198857 38.453856 
L 342.236356 38.97012 
L 342.273855 38.795668 
L 342.386353 38.775383 
L 342.53635 39.143225 
L 342.798845 39.463515 
L 342.948843 39.46357 
L 343.06134 39.730597 
L 343.473833 39.725807 
L 343.58633 40.030326 
L 343.811326 40.230227 
L 344.11132 40.76202 
L 344.373815 41.023682 
L 344.823807 41.299925 
L 344.898805 41.465945 
L 345.686291 41.860266 
L 345.948786 41.944969 
L 346.473776 42.359754 
L 347.936248 42.491133 
L 348.761232 42.495806 
L 348.836231 42.449645 
L 349.286222 42.367083 
L 350.411201 42.324657 
L 351.686177 42.398756 
L 351.948672 42.372637 
L 352.211167 42.368226 
L 353.148649 42.369914 
L 354.573622 42.468907 
L 355.023613 42.144488 
L 355.136111 41.080485 
L 355.361107 40.742289 
L 355.398606 40.781904 
L 355.661101 40.190799 
L 355.811098 40.093687 
L 355.923596 39.956817 
L 356.148592 39.804583 
L 356.336088 39.484762 
L 356.673582 39.43129 
L 356.861078 38.961055 
L 357.386068 37.791155 
L 357.498566 37.432806 
L 357.648563 37.324901 
L 357.761061 36.926935 
L 357.911058 36.846186 
L 358.398549 35.439443 
L 358.436048 35.487309 
L 358.511047 35.44663 
L 358.548546 34.807763 
L 358.661044 34.792319 
L 358.811041 34.467845 
L 358.998538 34.305647 
L 359.036037 34.382185 
L 359.073536 34.109851 
L 359.223533 34.099794 
L 359.336031 32.578957 
L 359.448529 32.781721 
L 359.598526 32.795192 
L 359.973519 31.95179 
L 360.048518 31.811464 
L 360.123516 31.183319 
L 360.498509 31.071938 
L 360.573508 31.174856 
L 360.611007 30.982516 
L 360.648506 31.02922 
L 360.911001 31.010745 
L 361.023499 31.204863 
L 361.173496 31.575888 
L 361.548489 31.426596 
L 361.848483 31.399556 
L 361.923482 31.234233 
L 361.960981 31.25216 
L 363.010961 31.228532 
L 363.235957 31.408164 
L 363.385954 31.205767 
L 363.535951 31.258253 
L 363.723448 31.189183 
L 363.798446 31.092226 
L 364.285937 30.969518 
L 364.435934 30.689543 
L 364.585931 30.380239 
L 364.848426 30.42443 
L 365.110921 31.173494 
L 365.260919 31.182045 
L 365.298418 30.950153 
L 365.373416 30.967572 
L 365.598412 31.073153 
L 365.635911 31.139148 
L 365.748409 31.106494 
L 365.860907 30.569217 
L 365.898407 30.575834 
L 366.160902 30.614702 
L 366.423397 30.064659 
L 366.648392 29.491676 
L 366.685892 29.534037 
L 366.835889 29.433028 
L 366.948387 29.560032 
L 367.060884 29.54973 
L 367.098384 29.159054 
L 367.173382 29.191552 
L 367.360879 29.215873 
L 367.398378 28.780587 
L 367.435877 29.406521 
L 367.473377 29.346165 
L 367.698372 29.503904 
L 367.848369 29.428642 
L 367.885869 29.410005 
L 367.998367 29.223763 
L 368.410859 29.102247 
L 368.523357 28.74963 
L 368.673354 28.674758 
L 368.785852 28.419906 
L 369.498338 28.474715 
L 369.573337 28.704985 
L 369.94833 28.870626 
L 370.060827 28.716891 
L 370.098327 28.758605 
L 370.210825 28.757012 
L 370.360822 28.543023 
L 370.585817 28.715465 
L 370.735815 28.549857 
L 370.773314 28.488786 
L 370.885812 28.740024 
L 371.110807 28.739523 
L 371.260805 28.642724 
L 371.373302 28.764897 
L 371.410802 28.708 
L 371.5233 28.750349 
L 371.635798 29.059182 
L 371.598298 28.644255 
L 371.673297 28.941341 
L 371.823294 28.98795 
L 371.935792 29.212402 
L 372.198287 29.129055 
L 372.348284 28.61192 
L 372.460782 28.660741 
L 372.685778 28.397644 
L 372.835775 28.510189 
L 373.473263 28.619191 
L 373.885755 28.385967 
L 373.923254 28.379839 
L 374.035752 28.550473 
L 374.223248 28.593542 
L 374.448244 27.853702 
L 374.710739 27.812265 
L 374.823237 27.909536 
L 375.085732 27.911226 
L 375.348227 28.192522 
L 375.573223 28.065471 
L 375.72322 28.45507 
L 375.873217 28.754632 
L 376.135712 29.500416 
L 376.548204 28.924286 
L 376.623203 28.996771 
L 376.660702 28.914885 
L 377.035695 28.96072 
L 377.110693 29.157959 
L 377.148193 29.117612 
L 377.560685 29.081283 
L 377.973177 29.202272 
L 378.160674 29.196108 
L 378.198173 28.494235 
L 378.235672 28.536898 
L 378.423169 28.396613 
L 378.498167 28.933376 
L 378.760662 29.014655 
L 378.985658 28.709015 
L 379.023157 28.781022 
L 380.073137 28.512128 
L 380.710625 27.509622 
L 380.860622 26.575698 
L 381.123117 26.506526 
L 381.49811 26.443376 
L 381.648107 26.190857 
L 382.060599 26.345452 
L 382.098099 26.347606 
L 382.285595 26.679212 
L 382.435592 26.559745 
L 382.623089 26.524163 
L 382.698087 27.008711 
L 382.810585 27.019543 
L 382.923083 26.794659 
L 382.960582 26.837841 
L 383.185578 26.739636 
L 383.223077 26.426176 
L 383.373075 26.494487 
L 383.485572 26.405285 
L 384.010562 26.123104 
L 384.235558 25.915855 
L 384.385555 26.055605 
L 384.498053 26.042881 
L 384.535552 25.962168 
L 384.64805 26.090958 
L 384.68555 25.984841 
L 384.723049 25.988322 
L 384.760548 26.198363 
L 384.798047 26.005372 
L 384.910545 25.999802 
L 384.948045 25.470347 
L 385.023043 25.640125 
L 385.060542 25.657303 
L 385.17304 25.522727 
L 385.248039 25.963095 
L 385.323037 26.653946 
L 385.473035 26.86521 
L 385.510534 26.82051 
L 385.585532 26.941943 
L 385.69803 27.071863 
L 385.810528 27.694198 
L 385.848027 27.689847 
L 385.998025 27.661178 
L 386.035524 27.508595 
L 386.073023 27.542105 
L 386.110522 27.686003 
L 386.373018 27.585755 
L 387.160503 27.477596 
L 387.273 27.317436 
L 387.347999 27.387491 
L 387.572995 27.311773 
L 387.685493 27.686309 
L 387.83549 27.797021 
L 387.947988 28.576303 
L 388.32298 28.471358 
L 388.36048 28.49864 
L 388.397979 28.395439 
L 388.472978 28.260285 
L 388.84797 29.04133 
L 388.88547 28.988118 
L 388.922969 28.625411 
L 388.997968 28.813605 
L 389.110465 28.747583 
L 389.260463 28.170482 
L 389.522958 28.227139 
L 389.710454 28.496691 
L 389.785453 28.645519 
L 389.972949 28.648609 
L 390.047948 28.761755 
L 390.272943 28.699926 
L 390.422941 28.480007 
L 390.760434 28.38131 
L 390.797933 28.344395 
L 390.835433 28.515399 
L 390.947931 28.450002 
L 391.097928 28.663302 
L 391.247925 28.627748 
L 391.285424 28.795328 
L 391.360423 28.753962 
L 391.547919 28.729977 
L 391.622918 28.558281 
L 391.735416 28.617013 
L 391.885413 27.984712 
L 392.147908 27.9192 
L 393.047891 28.06067 
L 393.197888 28.302366 
L 394.172869 28.412486 
L 394.247868 28.490989 
L 394.397865 28.460768 
L 394.510363 28.572843 
L 394.697859 28.59451 
L 394.772858 28.712731 
L 395.035353 28.729919 
L 395.260349 29.081464 
L 395.522844 29.088087 
L 395.71034 29.281536 
L 395.822838 29.295477 
L 395.935336 29.299105 
L 396.010334 28.96125 
L 396.047834 28.983711 
L 396.310329 29.093388 
L 396.722821 29.183473 
L 396.872818 29.23169 
L 397.060314 29.354169 
L 397.360309 32.619688 
L 397.397808 32.593315 
L 397.510306 32.633619 
L 397.660303 33.176875 
L 397.772801 33.177075 
L 397.847799 33.519496 
L 397.922798 33.480549 
L 398.447788 33.426865 
L 398.560286 33.644315 
L 398.672784 33.426531 
L 398.86028 33.777366 
L 398.935279 33.742957 
L 399.085276 33.533078 
L 399.235273 33.461017 
L 399.647765 33.511967 
L 399.760263 33.561838 
L 400.660246 33.876463 
L 400.810243 33.828424 
L 400.99774 33.755083 
L 401.072738 33.934582 
L 401.297734 33.56905 
L 401.447731 33.774844 
L 401.747725 34.064149 
L 402.085219 33.882508 
L 402.497711 34.266353 
L 402.53521 34.187117 
L 402.647708 34.728749 
L 402.872704 34.580138 
L 403.0602 34.938499 
L 403.847686 35.739707 
L 403.960183 35.891252 
L 404.185179 36.012812 
L 404.335176 35.964409 
L 404.410175 36.126587 
L 404.447674 36.0981 
L 406.285139 36.212226 
L 406.435136 36.144647 
L 408.3476 36.218133 
L 408.422599 36.083499 
L 408.647594 36.13907 
L 408.797591 36.543906 
L 408.947589 36.693539 
L 409.172584 36.717867 
L 409.322581 36.813102 
L 409.435079 36.76526 
L 409.622576 36.71703 
L 410.185065 36.660306 
L 410.410061 36.472232 
L 410.710055 35.047104 
L 410.747554 35.034275 
L 410.897552 34.661139 
L 411.010049 34.612412 
L 411.160047 34.384061 
L 411.460041 34.309144 
L 411.535039 34.198513 
L 411.685037 34.501914 
L 411.760035 34.614989 
L 411.797534 34.309133 
L 411.835034 34.31423 
L 412.247526 33.881764 
L 412.360024 33.969337 
L 412.772516 33.916911 
L 413.260007 33.755885 
L 413.522502 33.741677 
L 413.672499 33.626291 
L 414.15999 33.832795 
L 415.134971 32.852766 
L 415.17247 32.913051 
L 415.397466 32.778052 
L 415.659961 32.037489 
L 415.73496 32.074299 
L 415.922456 31.224759 
L 415.997455 31.243387 
L 416.034954 31.189808 
L 416.147452 31.18997 
L 416.297449 30.143142 
L 416.409947 30.111927 
L 416.559944 29.469854 
L 416.672442 29.456902 
L 416.78494 28.719485 
L 416.822439 28.730695 
L 416.934937 28.724578 
L 417.009935 28.439924 
L 417.084934 80.384285 
L 417.234931 80.382636 
L 417.347429 80.895244 
L 417.534925 80.977689 
L 417.609924 81.595964 
L 417.79742 81.621072 
L 417.872419 82.011426 
L 417.984917 82.011497 
L 418.022416 82.377021 
L 418.097415 82.105711 
L 418.509907 82.365615 
L 418.584906 82.158113 
L 418.659904 82.339573 
L 418.772402 82.33107 
L 418.809901 82.062108 
L 418.8849 82.21857 
L 419.034897 82.549287 
L 419.109896 82.492563 
L 419.184894 82.79295 
L 419.859881 82.785423 
L 420.084877 82.912488 
L 420.159876 82.867033 
L 420.234874 83.059507 
L 420.384871 83.160623 
L 420.45987 83.414289 
L 420.497369 83.376223 
L 420.684866 83.46559 
L 420.759864 83.690051 
L 420.872362 24.609772 
L 420.909861 83.696297 
L 420.98486 83.186052 
L 421.134857 83.124303 
L 421.247355 83.233869 
L 421.284854 25.050323 
L 421.472351 83.503653 
L 421.547349 83.40628 
L 421.809844 83.429451 
L 421.922342 83.669356 
L 422.072339 87.321325 
L 422.184837 87.572548 
L 422.222336 87.421509 
L 422.259836 87.374241 
L 422.334834 87.693079 
L 422.447332 87.705431 
L 422.55983 88.296522 
L 422.747326 88.231997 
L 422.784826 88.211836 
L 422.859824 87.992368 
L 423.08482 88.002412 
L 423.309816 87.924853 
L 423.384814 88.068881 
L 423.647309 88.150975 
L 424.097301 88.29809 
L 424.1348 87.941779 
L 424.172299 88.027675 
L 424.322297 87.853443 
L 424.359796 87.923015 
L 424.397295 87.442687 
L 424.434794 87.49576 
L 424.809787 87.476308 
L 424.922285 89.998451 
L 424.959784 89.981512 
L 425.072282 90.190423 
L 425.109782 90.059474 
L 425.18478 90.027468 
L 425.222279 90.339338 
L 425.372277 90.281764 
L 425.672271 91.019359 
L 426.159762 91.7254 
L 426.459756 91.845886 
L 426.684752 92.115652 
L 426.75975 92.208456 
L 426.797249 92.373882 
L 426.947247 92.252766 
L 427.059744 94.289333 
L 427.434737 94.548224 
L 427.472237 94.460947 
L 427.509736 94.616179 
L 427.584735 94.677443 
L 427.697232 94.678124 
L 427.772231 94.718476 
L 427.80973 94.527405 
L 427.84723 13.767534 
L 427.959727 13.737052 
L 427.997227 13.845881 
L 428.109725 13.085434 
L 428.222222 13.042133 
L 428.259722 13.405104 
L 428.33472 13.313046 
L 428.484717 13.133514 
L 428.634715 13.228047 
L 428.89721 13.119108 
L 429.009707 13.361007 
L 429.084706 13.277105 
L 429.122205 13.205255 
L 429.159705 95.37369 
L 429.347201 12.818164 
L 429.3847 95.469096 
L 429.4222 12.916754 
L 429.647195 13.48213 
L 429.684695 94.927125 
L 429.872191 94.991222 
L 429.90969 13.727615 
L 429.94719 94.854663 
L 430.059687 94.996991 
L 430.134686 94.678666 
L 430.172185 95.028974 
L 430.209685 94.957285 
L 430.322183 13.479729 
L 430.397181 94.93642 
L 430.43468 13.305975 
L 430.47218 94.952281 
L 430.584678 13.470783 
L 430.659676 13.504707 
L 430.697175 13.478614 
L 430.99717 21.402075 
L 431.222165 22.096959 
L 431.259665 22.050418 
L 431.48466 21.666177 
L 431.709656 22.815104 
L 431.784655 22.910286 
L 432.159648 22.891412 
L 432.272145 23.037163 
L 432.309645 22.946597 
L 432.497141 23.250473 
L 432.684638 25.253566 
L 432.834635 25.926092 
L 433.09713 27.165969 
L 433.209628 27.169942 
L 433.284626 27.411299 
L 433.322126 27.36043 
L 433.359625 27.312181 
L 433.584621 27.540131 
L 433.847116 27.860619 
L 434.109611 27.935914 
L 434.14711 28.086224 
L 434.297107 27.701744 
L 434.334606 27.746128 
L 434.409605 27.783204 
L 435.047093 27.826524 
L 435.384586 28.130898 
L 435.572083 28.005899 
L 435.72208 27.984471 
L 435.984575 27.919547 
L 436.097073 28.151965 
L 436.172071 28.081817 
L 436.24707 28.100791 
L 436.434566 28.034755 
L 436.622063 28.189498 
L 436.77206 28.287071 
L 437.29705 28.449589 
L 437.409548 28.491048 
L 437.559545 28.270207 
L 437.672043 28.280533 
L 437.82204 27.989142 
L 437.972037 28.038742 
L 438.084535 28.216889 
L 438.722023 28.169568 
L 439.022017 28.238537 
L 439.847002 28.317672 
L 439.922 28.453892 
L 440.071997 28.47561 
L 440.184495 29.606717 
L 440.296993 29.602237 
L 440.44699 29.990041 
L 440.596987 30.043285 
L 440.709485 31.239482 
L 440.821983 31.286474 
L 440.97198 31.717177 
L 441.121977 31.697803 
L 441.234475 31.977958 
L 441.459471 32.266165 
L 441.49697 32.226474 
L 442.02196 32.958349 
L 442.134458 33.004394 
L 442.284455 33.640441 
L 442.509451 33.662102 
L 442.921943 34.452531 
L 442.959442 34.432503 
L 443.07194 35.350528 
L 443.259437 35.324258 
L 443.521932 35.954213 
L 443.821926 35.952821 
L 444.009422 36.05597 
L 444.384415 35.095181 
L 444.64691 35.06461 
L 444.909405 34.95962 
L 445.546893 34.770947 
L 445.846888 34.634269 
L 446.184381 33.858638 
L 446.22188 34.03622 
L 446.371878 33.975876 
L 446.484375 33.679635 
L 446.709371 33.701948 
L 446.859368 33.63743 
L 446.971866 33.623386 
L 447.121863 33.530834 
L 447.27186 33.456195 
L 447.909348 33.423462 
L 448.021846 33.536786 
L 448.059346 33.532864 
L 448.321841 33.921341 
L 448.509337 33.918741 
L 448.584336 34.015361 
L 448.846831 34.059529 
L 448.959328 34.051425 
L 449.109326 34.305076 
L 449.296822 34.269859 
L 449.371821 34.178984 
L 449.634316 34.225575 
L 450.571798 34.159069 
L 450.946791 34.162329 
L 451.209286 34.23804 
L 451.471781 34.646269 
L 451.621778 34.750079 
L 451.734276 35.103597 
L 451.959271 35.174203 
L 452.109269 35.441941 
L 452.371764 35.513845 
L 452.784256 35.621174 
L 453.309246 35.643589 
L 453.459243 35.29874 
L 453.496742 35.340693 
L 453.571741 35.248586 
L 453.834236 35.313717 
L 454.096731 34.505167 
L 454.359226 34.379459 
L 454.771718 34.032822 
L 454.809217 34.036999 
L 454.996714 33.710928 
L 455.071712 33.676799 
L 455.296708 33.405812 
L 455.371707 33.349786 
L 455.409206 32.833552 
L 455.559203 32.864251 
L 455.634202 32.631738 
L 455.671701 32.646923 
L 455.859197 32.591534 
L 455.896697 32.359592 
L 455.934196 32.409511 
L 456.084193 32.064469 
L 456.721681 28.426212 
L 457.134173 28.392321 
L 457.246671 28.013162 
L 457.396668 28.03301 
L 457.509166 27.906523 
L 457.734162 27.713734 
L 457.884159 28.03236 
L 457.959157 27.978211 
L 457.996657 27.975496 
L 458.184153 28.362542 
L 458.296651 28.47446 
L 458.821641 28.54963 
L 459.009137 30.161482 
L 459.196634 32.383837 
L 459.346631 34.049478 
L 459.759123 43.10349 
L 459.871621 43.559736 
L 459.984119 43.657956 
L 460.134116 44.666779 
L 460.321613 44.815625 
L 461.034099 45.406089 
L 461.634088 45.535534 
L 462.946563 45.863366 
L 463.021561 46.022257 
L 468.721453 46.331423 
L 469.583937 46.411196 
L 472.396383 46.368429 
L 472.621379 46.261742 
L 472.658878 46.244653 
L 472.733877 45.920663 
L 472.846375 45.844118 
L 473.146369 43.960563 
L 473.221367 43.791286 
L 473.371365 42.880077 
L 473.446363 42.549645 
L 473.521362 42.580764 
L 474.421345 40.974656 
L 474.458844 40.968466 
L 474.571342 67.422282 
L 474.758838 67.793442 
L 474.796338 40.497651 
L 474.833837 40.51262 
L 475.021333 67.993724 
L 475.283828 68.211616 
L 475.358827 68.831394 
L 475.771319 69.076248 
L 475.883817 69.106701 
L 476.033814 69.196635 
L 476.146312 69.721423 
L 476.25881 69.899354 
L 476.408807 71.284527 
L 476.7838 71.743085 
L 476.896298 71.941362 
L 476.933797 71.840723 
L 477.158793 71.651565 
L 477.196292 71.756721 
L 477.30879 71.700947 
L 477.458787 72.120877 
L 477.571285 72.238856 
L 477.608784 72.137082 
L 477.983777 71.992743 
L 478.208773 71.804703 
L 478.246272 71.860247 
L 478.696263 71.790892 
L 478.958758 71.772128 
L 479.033757 71.845818 
L 479.40875 71.684758 
L 479.558747 71.419433 
L 479.821242 71.367121 
L 480.008739 71.355123 
L 480.046238 71.680127 
L 480.083737 71.662029 
L 480.196235 71.81723 
L 480.233734 71.763538 
L 480.271234 71.628369 
L 480.346232 71.742055 
L 480.721225 71.406793 
L 480.758724 71.636231 
L 480.833723 71.508042 
L 480.98372 71.531716 
L 481.321214 71.77597 
L 481.396212 72.022962 
L 481.583709 71.986897 
L 481.621208 72.163704 
L 481.658707 72.077379 
L 481.846204 71.698589 
L 481.921202 73.871728 
L 482.0337 73.805782 
L 482.296195 74.711089 
L 482.333694 74.737331 
L 482.371194 74.647658 
L 482.55869 75.516238 
L 482.633689 75.46279 
L 482.671188 75.834619 
L 482.708687 75.685321 
L 482.858684 75.672993 
L 482.933683 76.06191 
L 482.971182 75.626384 
L 483.08368 75.634692 
L 483.196178 75.180966 
L 483.233677 75.267923 
L 483.60867 75.089558 
L 483.871165 75.095464 
L 483.908664 74.919446 
L 483.946164 74.951545 
L 484.171159 75.440608 
L 484.208659 75.419912 
L 484.246158 75.522083 
L 484.65865 75.615572 
L 484.733649 75.522966 
L 484.771148 75.570566 
L 484.921145 75.762885 
L 485.033643 75.952423 
L 485.18364 75.863324 
L 485.333637 76.107681 
L 485.70863 75.780156 
L 485.74613 75.821662 
L 485.821128 75.607891 
L 485.858627 75.761348 
L 486.046124 76.382293 
L 486.121122 76.255914 
L 486.23362 76.307432 
L 486.27112 76.457402 
L 486.346118 76.328799 
L 486.383617 76.121993 
L 486.496115 76.186442 
L 486.533615 76.115668 
L 486.571114 75.910809 
L 486.646112 75.974044 
L 486.79611 75.963058 
L 486.833609 75.80445 
L 486.908607 75.870593 
L 487.096104 75.747609 
L 487.171102 75.598809 
L 487.358599 75.622584 
L 487.433597 75.559976 
L 487.583595 75.452934 
L 487.883589 75.194946 
L 487.921088 75.263969 
L 488.108585 75.398724 
L 488.221082 75.277577 
L 488.408579 75.216366 
L 488.633575 74.608318 
L 488.671074 74.670471 
L 488.708573 33.791383 
L 488.746073 74.265436 
L 488.85857 74.278996 
L 488.89607 74.399268 
L 488.933569 74.069363 
L 488.971068 34.644663 
L 489.008568 34.656407 
L 489.196064 35.200035 
L 489.233563 73.094365 
L 489.271063 72.864804 
L 489.38356 35.425804 
L 489.458559 35.99748 
L 489.533558 35.9757 
L 489.721054 36.126762 
L 489.90855 36.440872 
L 490.283543 36.648933 
L 490.583538 37.687944 
L 490.808533 37.768687 
L 490.846033 37.969938 
L 491.596018 37.909717 
L 491.858513 38.181115 
L 492.083509 38.316432 
L 492.346004 38.421254 
L 492.571 38.379358 
L 492.683498 38.504827 
L 492.945993 38.52123 
L 493.583481 38.813613 
L 493.845976 38.849579 
L 493.920974 39.142553 
L 493.958473 39.12153 
L 494.633461 39.547467 
L 494.783458 39.813682 
L 495.008454 39.90008 
L 495.19595 40.118695 
L 495.420946 40.18073 
L 495.570943 40.299502 
L 495.795939 40.396544 
L 496.020934 40.486665 
L 496.095933 40.953198 
L 496.320929 40.863066 
L 496.620923 40.733995 
L 498.608385 40.995886 
L 498.833381 40.961811 
L 499.92086 40.901163 
L 500.033358 40.796611 
L 501.308334 40.933155 
L 501.608328 40.914354 
L 501.983321 40.710779 
L 502.133318 40.459692 
L 502.395813 40.209026 
L 502.58331 40.152905 
L 502.845805 39.92412 
L 503.445793 39.698169 
L 503.59579 39.497642 
L 503.63329 39.150161 
L 503.708288 39.221037 
L 503.933284 38.914341 
L 504.083281 38.916014 
L 504.233278 38.742727 
L 504.945765 38.628903 
L 505.020763 38.470712 
L 505.395756 38.359593 
L 505.545753 38.306035 
L 505.920746 38.24484 
L 506.070743 38.203144 
L 506.220741 38.173286 
L 506.333238 38.082139 
L 507.045725 37.762586 
L 507.120723 37.386697 
L 507.495716 37.130399 
L 507.645713 36.786949 
L 508.320701 35.763854 
L 508.433198 35.457099 
L 508.620695 35.348143 
L 508.695693 35.205183 
L 508.808191 35.23976 
L 508.845691 35.127159 
L 508.88319 35.223338 
L 508.920689 35.299192 
L 508.958188 35.081911 
L 509.183184 35.120992 
L 509.220684 34.992337 
L 509.40818 33.507829 
L 509.483179 33.740823 
L 509.858171 33.744876 
L 509.895671 34.251716 
L 509.970669 34.11628 
L 510.008169 33.871989 
L 510.158166 33.884449 
L 510.270664 33.595132 
L 510.533159 33.540837 
L 510.795654 33.146657 
L 510.945651 33.028531 
L 511.020649 33.382431 
L 511.058149 33.30694 
L 511.170646 33.146554 
L 511.208146 33.187026 
L 511.283144 33.378557 
L 511.320644 33.28981 
L 511.433141 33.228534 
L 511.50814 32.964015 
L 511.545639 75.360547 
L 511.583139 32.836861 
L 511.733136 75.49999 
L 511.808134 75.396732 
L 511.845634 75.402944 
L 511.958132 32.778509 
L 511.995631 32.781209 
L 512.03313 75.649465 
L 512.070629 32.627738 
L 512.108129 32.629187 
L 512.220627 75.661292 
L 512.258126 32.624871 
L 512.295625 32.663413 
L 512.333124 75.72442 
L 512.370624 32.412176 
L 512.55812 76.154669 
L 512.633119 76.138635 
L 512.783116 76.258571 
L 512.820615 32.117293 
L 512.895614 32.13753 
L 513.045611 76.036847 
L 513.158109 31.994986 
L 513.270607 32.021852 
L 513.420604 32.59428 
L 513.570601 32.577073 
L 513.645599 32.357361 
L 513.683099 76.083399 
L 513.833096 31.921719 
L 513.945594 76.787447 
L 514.170589 77.257694 
L 514.395585 77.900207 
L 514.470584 77.849745 
L 514.733079 78.137002 
L 514.883076 78.142395 
L 514.920575 77.897209 
L 514.995574 77.918965 
L 515.408066 77.937851 
L 515.445565 77.611554 
L 515.520564 77.666248 
L 515.633062 77.701467 
L 515.783059 78.227934 
L 515.933056 78.230025 
L 516.045554 78.449906 
L 516.158052 78.389663 
L 516.27055 78.147626 
L 516.420547 78.455389 
L 516.833039 78.429517 
L 516.983036 78.467081 
L 517.020535 78.878996 
L 517.095534 78.669437 
L 517.208032 78.725304 
L 517.245531 29.601701 
L 517.28303 29.726615 
L 517.32053 78.528506 
L 517.358029 78.463698 
L 517.620524 78.476794 
L 517.770521 78.458644 
L 517.80802 29.721578 
L 517.84552 78.558857 
L 517.995517 78.616282 
L 518.070515 29.610065 
L 518.145514 78.711242 
L 518.37051 78.797659 
L 518.520507 78.933353 
L 518.858 78.937091 
L 518.932999 78.775983 
L 519.045497 78.773867 
L 519.082996 78.601228 
L 519.157995 78.688382 
L 519.42049 78.733239 
L 519.570487 78.571857 
L 519.682985 78.608997 
L 519.982979 77.80774 
L 520.47047 77.769922 
L 520.620467 77.667016 
L 521.145457 77.492096 
L 521.295454 77.834084 
L 521.52045 77.901457 
L 521.670447 77.977723 
L 521.932942 78.08642 
L 522.04544 78.316222 
L 522.082939 78.297238 
L 522.457932 79.021371 
L 522.495431 78.975095 
L 522.532931 29.296788 
L 522.57043 79.006008 
L 522.607929 79.054711 
L 522.720427 29.341393 
L 522.832925 79.581203 
L 522.982922 79.563946 
L 523.09542 79.754612 
L 523.132919 80.854348 
L 523.282916 80.757156 
L 523.320416 80.158578 
L 523.395414 80.171268 
L 523.507912 80.146469 
L 523.657909 79.889447 
L 523.807906 79.872225 
L 523.845406 80.041692 
L 523.920404 79.948685 
L 524.182899 79.947771 
L 524.557892 80.739799 
L 524.707889 80.820142 
L 524.857886 80.786443 
L 524.932885 79.732431 
L 524.970384 79.851387 
L 525.382876 79.819554 
L 525.457875 28.477227 
L 525.495374 79.801204 
L 525.645371 79.862964 
L 525.72037 28.357865 
L 525.757869 28.531122 
L 525.907866 28.551413 
L 525.945366 28.687178 
L 526.020364 28.655197 
L 526.132862 79.845904 
L 526.24536 28.33337 
L 526.395357 28.282147 
L 526.470356 80.061416 
L 526.507855 80.002706 
L 526.657852 80.46196 
L 526.695352 27.642155 
L 526.732851 80.693086 
L 526.995346 80.63203 
L 527.032845 80.556744 
L 527.070344 80.577367 
L 527.29534 80.603215 
L 527.332839 80.327801 
L 527.520336 80.372984 
L 527.557835 27.964377 
L 527.595334 28.087737 
L 527.707832 79.988823 
L 527.782831 79.830718 
L 527.857829 79.61189 
L 527.970327 79.438532 
L 528.007827 28.864298 
L 528.045326 79.468472 
L 528.270322 79.043395 
L 528.34532 78.960677 
L 528.382819 29.283691 
L 528.495317 29.525658 
L 528.532817 78.826741 
L 528.570316 29.432991 
L 528.607815 29.443512 
L 528.645314 29.645889 
L 528.832811 29.345441 
L 529.020307 32.797792 
L 529.057807 32.983426 
L 529.170304 35.481634 
L 529.3953 35.538575 
L 529.432799 35.42337 
L 529.845292 35.780216 
L 530.220285 35.876655 
L 530.332782 36.050693 
L 530.407781 35.985792 
L 530.745275 36.039278 
L 530.97027 36.121844 
L 531.945252 36.227231 
L 532.207747 36.263926 
L 532.58274 36.178352 
L 532.807735 36.089087 
L 532.995232 36.003521 
L 533.10773 35.619951 
L 535.432686 35.204053 
L 535.582683 35.23706 
L 535.957676 35.18004 
L 536.107673 35.405769 
L 536.520165 35.44393 
L 536.707661 35.230617 
L 537.532646 35.358864 
L 537.682643 35.450764 
L 537.720142 35.44436 
L 537.720142 35.44436 
" clip-path="url(#pbdebe9252c)" style="fill: none; stroke: #1f77b4; stroke-width: 1.5; stroke-linecap: square"/>
   </g>
   <g id="patch_3">
    <path d="M 35.304688 101.090464 
L 35.304688 7.2 
" style="fill: none"/>
   </g>
   <g id="patch_4">
    <path d="M 561.644687 101.090464 
L 561.644687 7.2 
" style="fill: none"/>
   </g>
   <g id="patch_5">
    <path d="M 35.304688 101.090464 
L 561.644687 101.090464 
" style="fill: none; stroke: #000000; stroke-width: 0.8; stroke-linejoin: miter; stroke-linecap: square"/>
   </g>
   <g id="patch_6">
    <path d="M 35.304688 7.2 
L 561.644687 7.2 
" style="fill: none"/>
   </g>
   <g id="legend_1">
    <g id="patch_7">
     <path d="M 550.644687 20.2 
L 554.644687 20.2 
Q 556.644687 20.2 556.644687 18.2 
L 556.644687 14.2 
Q 556.644687 12.2 554.644687 12.2 
L 550.644687 12.2 
Q 548.644687 12.2 548.644687 14.2 
L 548.644687 18.2 
Q 548.644687 20.2 550.644687 20.2 
L 550.644687 20.2 
z
" style="fill: none; opacity: 0"/>
    </g>
   </g>
  </g>
 </g>
 <defs>
  <clipPath id="pbdebe9252c">
   <rect x="35.304688" y="7.2" width="526.34" height="93.890464"/>
  </clipPath>
 </defs>
</svg>
